<svg width="110" height="111" viewBox="0 0 110 111" fill="none" xmlns="http://www.w3.org/2000/svg">
<path d="M50.3494 110.817C48.4176 110.653 46.4653 110.388 44.5642 110.02L45.1059 107.23C46.9049 107.578 48.7549 107.833 50.5947 107.986L50.3596 110.817H50.3494ZM56.1857 111.001L56.1243 108.16C57.9744 108.119 59.8244 107.986 61.6437 107.751L62.0015 110.572C60.0799 110.817 58.1175 110.96 56.1754 111.001H56.1857ZM38.9017 108.61C37.0414 108.038 35.2016 107.363 33.4129 106.607L34.527 103.991C36.2135 104.717 37.9613 105.35 39.7296 105.892L38.9017 108.61ZM28.1797 104.032C26.483 103.082 24.8272 102.029 23.2429 100.915L24.8885 98.5958C26.391 99.6585 27.9651 100.65 29.5698 101.549L28.1797 104.032ZM18.6638 97.2878C17.2124 96.0003 15.8019 94.631 14.4936 93.2004L16.5889 91.2794C17.8359 92.6282 19.1647 93.9362 20.5445 95.1522L18.6638 97.2878ZM10.7731 88.7043C9.6181 87.1409 8.53466 85.506 7.55343 83.8404L10.0065 82.3996C10.9366 83.9835 11.9587 85.5366 13.0626 87.0183L10.7731 88.7146V88.7043ZM4.86527 78.6494C4.06802 76.8817 3.35254 75.0423 2.74949 73.2133L5.44787 72.3243C6.02026 74.0716 6.69485 75.7985 7.46144 77.4845L4.86527 78.6597V78.6494ZM106.494 75.4817L103.837 74.4701C104.491 72.7534 105.053 70.9754 105.513 69.1974L108.262 69.9127C107.772 71.7929 107.179 73.6629 106.494 75.4715V75.4817ZM1.21632 67.5727C0.807471 65.6823 0.500836 63.7408 0.296413 61.8095L3.12767 61.5132C3.32187 63.3423 3.60807 65.1816 3.99647 66.98L1.21632 67.5727ZM109.438 64.2006L106.627 63.7817C106.903 61.9628 107.077 60.1133 107.159 58.2637L110 58.3864C109.918 60.3279 109.724 62.2796 109.438 64.2006ZM0 55.985C0 55.3106 0.0102211 54.6464 0.0408846 53.972C0.0919903 52.7049 0.183981 51.4174 0.316856 50.1605L3.14811 50.4569C3.02546 51.6524 2.93347 52.8684 2.89259 54.0742C2.87214 54.718 2.86192 55.3515 2.8517 55.9953H0V55.985ZM107.097 52.7356C106.985 50.8963 106.77 49.0467 106.463 47.2381L109.274 46.7578C109.601 48.6687 109.826 50.6102 109.939 52.5517L107.097 52.7254V52.7356ZM4.01691 44.99L1.23676 44.3872C1.6456 42.4865 2.15666 40.5961 2.76993 38.7568L5.47854 39.6458C4.90615 41.3932 4.41554 43.1916 4.02713 44.99H4.01691ZM105.257 41.8326C104.757 40.0648 104.154 38.3072 103.469 36.5905L106.106 35.5278C106.831 37.3365 107.465 39.1962 107.986 41.056L105.247 41.8223L105.257 41.8326ZM7.47166 34.4957L4.88571 33.3206C5.68296 31.5528 6.59264 29.8055 7.57387 28.1399L10.0269 29.5807C9.09682 31.1645 8.23825 32.8199 7.47166 34.4957ZM101.128 31.5835C100.259 29.9588 99.3087 28.3647 98.2763 26.8422L100.637 25.2481C101.721 26.8524 102.733 28.5384 103.642 30.2551L101.128 31.5937V31.5835ZM13.0831 24.962L10.7935 23.2657C11.9485 21.7125 13.1955 20.2002 14.514 18.7696L16.6094 20.7009C15.3624 22.06 14.1767 23.4905 13.0831 24.962ZM94.9442 22.4074C93.7586 20.9972 92.481 19.6382 91.1624 18.3711L93.1351 16.3172C94.5354 17.6558 95.8744 19.0864 97.1214 20.5783L94.9442 22.4074ZM20.565 16.8281L18.6843 14.6925C20.1459 13.4152 21.6791 12.189 23.2633 11.0752L24.9089 13.3948C23.4064 14.4575 21.9448 15.6121 20.565 16.8281ZM86.9615 14.7538C85.5101 13.6298 83.977 12.5671 82.4131 11.5963L83.9054 9.17455C85.551 10.1964 87.166 11.3102 88.6991 12.5057L86.9513 14.7538H86.9615ZM29.6004 10.4416L28.2104 7.95856C29.9071 7.00825 31.6651 6.14991 33.4538 5.38353L34.5679 7.99944C32.8712 8.72494 31.2052 9.54241 29.6004 10.4416ZM77.5581 8.93953C75.9022 8.14249 74.1749 7.42721 72.4475 6.8141L73.3981 4.13688C75.2277 4.78064 77.047 5.5368 78.7948 6.37471L77.5683 8.93953H77.5581ZM39.7705 6.09881L38.9426 3.38072C40.8028 2.80849 42.704 2.33844 44.6153 1.97058L45.1468 4.77042C43.3377 5.11785 41.5285 5.56746 39.7705 6.09881ZM67.1325 5.25069C65.3438 4.82151 63.5142 4.49453 61.6846 4.2595L62.0424 1.43922C63.9742 1.68447 65.906 2.04211 67.7867 2.4815L67.1325 5.25069ZM50.6253 4.01426L50.3903 1.18376C52.3221 1.02027 54.2845 0.969178 56.2265 1.01005L56.1652 3.85077C54.3254 3.80989 52.4652 3.86098 50.6253 4.01426Z" fill="white"/>
</svg>
