<svg width="200" height="200" viewBox="0 0 200 200" fill="none" xmlns="http://www.w3.org/2000/svg">
<path d="M84.1855 1.46365L84.2605 1.45544L84.3355 1.44722L84.4105 1.43906L84.4856 1.43112L84.5607 1.42319L84.559 1.42677L84.6244 1.42038L84.6995 1.41274L84.7746 1.40511L84.8497 1.39759L84.9249 1.39022L85.0001 1.38289L85.0753 1.37568L85.1505 1.3686L85.153 1.37179L85.2144 1.36669L85.2896 1.3598L85.3649 1.35303L85.4402 1.34627L85.5155 1.33969L85.5909 1.33321L85.6662 1.32673L85.7416 1.32046L85.7483 1.32332L85.8056 1.3195L85.881 1.31333L85.9564 1.30738L86.0319 1.30147L86.1073 1.29558L86.1828 1.28995L86.2583 1.28432L86.3337 1.27874L86.3447 1.28134L86.398 1.27873L86.4735 1.27341L86.5491 1.26814L86.6247 1.26308L86.7002 1.25805L86.7758 1.25309L86.8515 1.24832L86.9271 1.24357L86.9422 1.24593L86.9915 1.24434L87.0672 1.23988L87.1429 1.23541L87.2186 1.23108L87.2943 1.2269L87.37 1.22271L87.4457 1.21869L87.5215 1.21479L87.5408 1.217L87.586 1.21643L87.6618 1.21272L87.7376 1.2091L87.8134 1.20551L87.8892 1.20211L87.9651 1.19878L88.0409 1.19547L88.1168 1.19237L88.1405 1.19452L88.1815 1.19496L88.2574 1.19193L88.3333 1.18914L88.4093 1.1864L88.4852 1.18367L88.5611 1.18118L88.6371 1.17872L88.7131 1.17629L88.7411 1.17844L88.778 1.17981L88.854 1.17764L88.93 1.17551L89.0061 1.17362L89.0821 1.17173L89.1582 1.1699L89.2343 1.16829L89.3104 1.16668L89.3426 1.16884L89.3754 1.17098L89.4515 1.16965L89.5277 1.16832L89.6038 1.16713L89.68 1.16609L89.7561 1.16504L89.8323 1.16416L89.9085 1.16339L89.945 1.16565L89.9738 1.16853L90.05 1.16795L90.1262 1.16746L90.2024 1.16701L90.2787 1.16673L90.355 1.16653L90.4313 1.16635L90.5076 1.16638L90.5483 1.16885L90.5729 1.17245L90.6492 1.17255L90.7255 1.17288L90.8019 1.17326L90.8782 1.17365L90.9546 1.17428L91.0309 1.17495L91.1073 1.17563L91.1524 1.17839L91.1728 1.18262L91.2492 1.18357L91.3256 1.18455L91.402 1.18577L91.4785 1.18701L91.5549 1.18829L91.6314 1.18979L91.7079 1.1913L91.7572 1.1943L91.7735 1.19903L91.85 1.20082L91.9265 1.20262L92.003 1.20451L92.0795 1.20659L92.156 1.20866L92.2326 1.21085L92.3091 1.21321L92.3627 1.21658L92.3749 1.22178L92.4514 1.22429L92.528 1.22693L92.6046 1.22957L92.6812 1.23238L92.7578 1.23529L92.8344 1.23821L92.911 1.24131L92.9689 1.24518L92.9769 1.25081L93.0536 1.25403L93.1302 1.25744L93.2069 1.26091L93.2835 1.26441L93.3602 1.26811L93.4369 1.27187L93.5136 1.27564L93.5757 1.28004L93.5795 1.28603L93.6562 1.29008L93.733 1.29414L93.8097 1.29844L93.8864 1.30276L93.9632 1.30711L94.0399 1.3117L94.1167 1.3163L94.1831 1.32116L94.1827 1.32741L94.2595 1.33229L94.3363 1.33719L94.4131 1.34212L94.4899 1.34728L94.5667 1.35245L94.6435 1.35769L94.7203 1.36312L94.791 1.36865L94.7865 1.37512L94.8633 1.38065L94.9402 1.38637L95.017 1.39211L95.0939 1.39793L95.1707 1.40394L95.2476 1.40995L95.3245 1.41607L95.3994 1.42235L95.3908 1.42898L95.4677 1.43527L95.5446 1.44167L95.6215 1.44823L95.6985 1.45478L95.688 1.54892L95.6774 1.64309L95.6668 1.73726L95.6563 1.83143L95.6457 1.84023L95.6352 1.93233L95.6246 2.02652L95.6141 2.12073L95.6036 2.21495L95.593 2.30918L95.5825 2.40341L95.572 2.49766L95.5615 2.5919L95.551 2.60498L95.5405 2.69295L95.53 2.78722L95.5195 2.8815L95.509 2.9758L95.4986 3.0701L95.4881 3.1644L95.4776 3.25872L95.4671 3.35305L95.4567 3.37041L95.4462 3.45424L95.4358 3.54859L95.4254 3.64294L95.4149 3.73731L95.4045 3.83169L95.3941 3.92607L95.3836 4.02045L95.3732 4.11486L95.3628 4.1365L95.3524 4.21618L95.342 4.31061L95.3316 4.40505L95.3213 4.49948L95.3109 4.59393L95.3005 4.68839L95.2901 4.78285L95.2798 4.87732L95.2694 4.90325L95.259 4.9788L95.2487 5.07329L95.2384 5.1678L95.228 5.26231L95.2177 5.35682L95.2074 5.45136L95.197 5.54589L95.1867 5.64043L95.1764 5.67064L95.1661 5.74206L95.1558 5.83662L95.1455 5.9312L95.1352 6.02578L95.1249 6.12037L95.1147 6.21497L95.1044 6.30958L95.0941 6.40419L95.0839 6.43867L95.0736 6.50596L95.0634 6.6006L95.0531 6.69524L95.0429 6.7899L95.0326 6.88456L95.0224 6.97922L95.0122 7.0739L95.002 7.16859L94.9918 7.20735L94.9816 7.27049L94.9714 7.36521L94.9612 7.45992L94.951 7.55464L94.9408 7.64938L94.9306 7.74412L94.9204 7.83886L94.9103 7.93362L94.9001 7.97666L94.89 8.03566L94.8798 8.13044L94.8697 8.22523L94.8595 8.32002L94.8494 8.41482L94.8393 8.50964L94.8291 8.60445L94.819 8.69927L94.8089 8.7466L94.7988 8.80147L94.7887 8.89631L94.7786 8.99117L94.7685 9.08603L94.7584 9.1809L94.7484 9.27578L94.7383 9.37067L94.7282 9.46556L94.7182 9.51715L94.7081 9.56789L94.6981 9.6628L94.688 9.75772L94.678 9.85266L94.6679 9.9476L94.6579 10.0425L94.6479 10.1375L94.6379 10.2325L94.6279 10.2883L94.6179 10.3349L94.6079 10.4299L94.5979 10.5249L94.5879 10.6199L94.5779 10.7149L94.5679 10.8099L94.5579 10.9049L94.548 11L94.538 11.0601L94.5281 11.1026L94.5181 11.1976L94.5082 11.2927L94.4983 11.3878L94.4883 11.4828L94.4784 11.5779L94.4685 11.673L94.4586 11.7681L94.4487 11.8325L94.4388 11.8708L94.4289 11.966L94.419 12.0611L94.4091 12.1562L94.3992 12.2514L94.3893 12.3465L94.3795 12.4417L94.3696 12.5368L94.3597 12.6055L94.3499 12.6397L94.3401 12.7349L94.3302 12.8301L94.3204 12.9253L94.3106 13.0205L94.3007 13.1157L94.2909 13.2109L94.2811 13.3062L94.2713 13.3791L94.2615 13.4092L94.2517 13.5044L94.2419 13.5997L94.2322 13.695L94.2224 13.7902L94.2126 13.8855L94.2029 13.9808L94.1931 14.0761L94.1834 14.1534L94.1736 14.1792L94.1639 14.2746L94.1541 14.3699L94.1444 14.4652L94.1347 14.5606L94.125 14.6559L94.1153 14.7513L94.1056 14.8466L94.0959 14.9282L94.0862 14.9499L94.0765 15.0453L94.0668 15.1407L94.0572 15.2361L94.0475 15.3315L94.0378 15.4269L94.0282 15.5223L94.0185 15.6178L94.0089 15.7035L93.9992 15.7212L93.9896 15.8166L93.98 15.9121L93.9704 16.0075L93.9608 16.103L93.9511 16.1985L93.9415 16.294L93.932 16.3895L93.9224 16.4795L93.9128 16.493L93.9032 16.5885L93.8936 16.684L93.8841 16.7796L93.8745 16.8751L93.865 16.9707L93.8554 17.0662L93.8459 17.1618L93.8363 17.2561L93.8268 17.2654L93.8173 17.361L93.8078 17.4566L93.7983 17.5522L93.7888 17.6478L93.7793 17.7434L93.7698 17.839L93.7603 17.9347L93.7508 18.0303L93.7413 18.0414L93.7319 18.1341L93.7224 18.2298L93.713 18.3254L93.7035 18.4211L93.6941 18.5168L93.6846 18.6124L93.6752 18.7081L93.6658 18.8038L93.6564 18.8192L93.647 18.9078L93.6376 19.0035L93.6282 19.0992L93.6188 19.1949L93.6094 19.2907L93.6 19.3864L93.5906 19.4822L93.5813 19.5779L93.5719 19.5976L93.5626 19.682L93.5532 19.7778L93.5439 19.8736L93.5345 19.9694L93.5252 20.0652L93.5159 20.161L93.5066 20.2568L93.4973 20.3526L93.488 20.3766L93.4787 20.4568L93.4694 20.5527L93.4601 20.6485L93.4508 20.7444L93.4415 20.8402L93.4323 20.9361L93.423 21.032L93.4138 21.1279L93.4045 21.1561L93.3953 21.2322L93.386 21.3281L93.3768 21.424L93.3676 21.52L93.3584 21.6159L93.3492 21.7118L93.34 21.8078L93.3308 21.9037L93.3216 21.9362L93.3124 22.0082L93.3032 22.1041L93.2941 22.2001L93.2849 22.2961L93.2758 22.3921L93.2666 22.4881L93.2575 22.5841L93.2483 22.6801L93.2392 22.7169L93.2301 22.7847L93.221 22.8807L93.2119 22.9768L93.2028 23.0728L93.1937 23.1689L93.1846 23.2649L93.1755 23.361L93.1664 23.4571L93.1573 23.4981L93.1483 23.5618L93.1392 23.6579L93.1302 23.754L93.1211 23.8501L93.1121 23.9462L93.1031 24.0424L93.094 24.1385L93.085 24.2346L93.076 24.2799L93.067 24.3395L93.058 24.4356L93.049 24.5318L93.0401 24.628L93.0311 24.7241L93.0221 24.8203L93.0131 24.9165L93.0042 25.0127L92.9952 25.0623L92.9863 25.1177L92.9774 25.2139L92.9684 25.3101L92.9595 25.4064L92.9506 25.5026L92.9417 25.5989L92.9328 25.6951L92.9239 25.7914L92.915 25.8452L92.9061 25.8965L92.8973 25.9928L92.8884 26.0891L92.8795 26.1854L92.8707 26.2817L92.8618 26.378L92.853 26.4743L92.8442 26.5706L92.8353 26.6287L92.8265 26.6758L92.8177 26.7722L92.8089 26.8685L92.8001 26.9649L92.7913 27.0613L92.7825 27.1576L92.7738 27.254L92.765 27.3504L92.7562 27.4128L92.7475 27.4557L92.7387 27.5521L92.73 27.6486L92.7212 27.745L92.7125 27.8414L92.7038 27.9379L92.6951 28.0343L92.6864 28.1308L92.6777 28.1974L92.669 28.2362L92.6603 28.3327L92.6516 28.4292L92.643 28.5256L92.6343 28.6221L92.6256 28.7186L92.617 28.8151L92.6083 28.9117L92.5997 28.9826L92.5911 29.0172L92.5825 29.1138L92.5738 29.2103L92.5652 29.3068L92.5566 29.4034L92.548 29.5L92.5395 29.5965L92.5309 29.6931L92.5223 29.7683L92.5137 29.7988L92.5052 29.8954L92.4966 29.992L92.4881 30.0886L92.4796 30.1852L92.471 30.2818L92.4625 30.3785L92.454 30.4751L92.4455 30.5546L92.437 30.5809L92.4285 30.6776L92.42 30.7742L92.4116 30.8709L92.4031 30.9676L92.3946 31.0643L92.3862 31.161L92.3777 31.2577L92.3693 31.3414L92.3609 31.3636L92.3524 31.4603L92.344 31.557L92.3356 31.6538L92.3272 31.7505L92.3188 31.8473L92.3104 31.944L92.302 32.0408L92.2937 32.1288L92.2853 32.1468L92.277 32.2436L92.2686 32.3404L92.2603 32.4372L92.2519 32.534L92.2436 32.6308L92.2353 32.7276L92.227 32.8244L92.2187 32.9167L92.2104 32.9306L92.2021 33.0274L92.1938 33.1243L92.1855 33.2211L92.1773 33.318L92.169 33.4149L92.1608 33.5117L92.1525 33.6086L92.1443 33.7051L92.136 33.7149L92.1278 33.8118L92.1196 33.9087L92.1114 34.0056L92.1032 34.1025L92.095 34.1995L92.0868 34.2964L92.0787 34.3934L92.0705 34.4903L92.0624 34.5036L92.0542 34.5967L92.0461 34.6937L92.0379 34.7907L92.0298 34.8877L92.0217 34.9846L92.0136 35.0816L92.0055 35.1786L91.9974 35.2756L91.9893 35.2932L91.9812 35.3822L91.9731 35.4792L91.9651 35.5763L91.957 35.6733L91.949 35.7703L91.9409 35.8674L91.9329 35.9645L91.9249 36.0615L91.9168 36.0834L91.9088 36.1682L91.9008 36.2653L91.8928 36.3624L91.8849 36.4595L91.8769 36.5566L91.8689 36.6537L91.861 36.7508L91.853 36.848L91.8451 36.8741L91.8371 36.9547L91.8292 37.0519L91.8213 37.149L91.8134 37.2462L91.8055 37.3434L91.7976 37.4405L91.7897 37.5377L91.7818 37.6349L91.7739 37.6653L91.7661 37.7418L91.7582 37.839L91.7504 37.9362L91.7425 38.0335L91.7347 38.1307L91.7269 38.2279L91.719 38.3252L91.7112 38.4224L91.7034 38.4571L91.6957 38.5294L91.6879 38.6267L91.6801 38.724L91.6723 38.8213L91.6646 38.9185L91.6568 39.0158L91.6491 39.1131L91.6414 39.2104L91.6336 39.2494L91.6259 39.3176L91.6182 39.4149L91.6105 39.5122L91.6028 39.6096L91.5952 39.7069L91.5875 39.8043L91.5798 39.9016L91.5722 39.999L91.5645 40.0422L91.5569 40.1063L91.5492 40.2037L91.5416 40.301L91.534 40.3984L91.5264 40.4958L91.5188 40.5933L91.5112 40.6907L91.5036 40.7881L91.4961 40.8355L91.4885 40.8955L91.4809 40.9929L91.4734 41.0904L91.4659 41.1878L91.4583 41.2853L91.4508 41.3828L91.4433 41.4802L91.4358 41.5777L91.4283 41.6294L91.4208 41.6852L91.4134 41.7827L91.4059 41.8802L91.3984 41.9777L91.391 42.0753L91.3835 42.1728L91.3761 42.2703L91.3687 42.3679L91.3613 42.4238L91.3539 42.4755L91.3465 42.573L91.3391 42.6706L91.3317 42.7682L91.3243 42.8657L91.317 42.9633L91.3096 43.0609L91.3023 43.1585L91.2949 43.2188L91.2876 43.2663L91.2803 43.3639L91.273 43.4615L91.2657 43.5591L91.2584 43.6568L91.2511 43.7544L91.2438 43.8521L91.2366 43.9497L91.2293 44.0142L91.2221 44.0576L91.2148 44.1552L91.2076 44.2529L91.2004 44.3506L91.1932 44.4483L91.186 44.546L91.1788 44.6437L91.1716 44.7414L91.1644 44.8102L91.1572 44.8494L91.1501 44.9471L91.1429 45.0449L91.1358 45.1426L91.1287 45.2403L91.1216 45.3381L91.1144 45.4359L91.1073 45.5336L91.1003 45.6067L91.0932 45.6417L91.0861 45.7395L91.079 45.8373L91.072 45.9351L91.0649 46.0329L91.0579 46.1307L91.0509 46.2285L91.0438 46.3264L91.0368 46.4037L91.0298 46.4346L91.0229 46.5324L91.0159 46.6303L91.0089 46.7281L91.0019 46.826L90.995 46.9239L90.9881 47.0217L90.9811 47.1196L90.9742 47.2012L90.9673 47.2279L90.9604 47.3258L90.9535 47.4237L90.9466 47.5216L90.9397 47.6196L90.9328 47.7175L90.926 47.8154L90.9191 47.9134L90.9123 47.9992L90.9055 48.0218L90.8986 48.1197L90.8918 48.2177L90.885 48.3157L90.8782 48.4137L90.8715 48.5116L90.8647 48.6096L90.8579 48.7076L90.8512 48.7977L90.8444 48.8162L90.8377 48.9142L90.831 49.0122L90.8243 49.1102L90.8176 49.2083L90.8109 49.3063L90.8042 49.4043L90.7975 49.5024L90.7908 49.5968L90.7842 49.611L90.7775 49.7091L90.7709 49.8072L90.7643 49.9053L90.7577 50.0033L90.7511 50.1014L90.7445 50.1995L90.7379 50.2976L90.7313 50.3958L90.7247 50.4069L90.7182 50.5045L90.7116 50.6027L90.7051 50.7008L90.6986 50.7989L90.692 50.8971L90.6855 50.9952L90.679 51.0934L90.6726 51.1916L90.6661 51.207L90.6596 51.3004L90.6532 51.3986L90.6467 51.4968L90.6403 51.595L90.6338 51.6932L90.6274 51.7914L90.621 51.8897L90.6146 51.9879L90.6082 52.0075L90.6019 52.0969L90.5955 52.1951L90.5891 52.2933L90.5828 52.3916L90.5764 52.4899L90.5701 52.5881L90.5638 52.6864L90.5575 52.7847L90.5512 52.8086L90.5449 52.8938L90.5387 52.9921L90.5324 53.0903L90.5261 53.1887L90.5199 53.287L90.5136 53.3853L90.5074 53.4836L90.5012 53.5819L90.495 53.6101L90.4888 53.6911L90.4826 53.7895L90.4765 53.8878L90.4703 53.9862L90.4642 54.0846L90.458 54.1829L90.4519 54.2813L90.4458 54.3797L90.4397 54.4121L90.4336 54.489L90.4275 54.5874L90.4214 54.6858L90.4153 54.7842L90.4093 54.8826L90.4032 54.981L90.3972 55.0795L90.3912 55.1779L90.3851 55.2146L90.3792 55.2873L90.3732 55.3858L90.3672 55.4842L90.3612 55.5827L90.3552 55.6812L90.3493 55.7796L90.3434 55.8781L90.3374 55.9766L90.3315 56.0176L90.3256 56.0861L90.3197 56.1846L90.3138 56.2831L90.3079 56.3817L90.3021 56.4802L90.2962 56.5787L90.2904 56.6772L90.2845 56.7758L90.2787 56.821L90.2729 56.8854L90.2671 56.984L90.2613 57.0825L90.2556 57.1811L90.2498 57.2797L90.244 57.3782L90.2383 57.4768L90.2326 57.5754L90.2268 57.6249L90.2211 57.6851L90.2154 57.7837L90.2097 57.8824L90.2041 57.981L90.1984 58.0796L90.1927 58.1782L90.1871 58.2769L90.1814 58.3755L90.1758 58.4293L90.1702 58.4853L90.1646 58.584L90.159 58.6826L90.1534 58.7813L90.1479 58.88L90.1423 58.9787L90.1368 59.0773L90.1312 59.176L90.1257 59.234L90.1202 59.286L90.1147 59.3847L90.1092 59.4834L90.1037 59.5821L90.0983 59.6808L90.0928 59.7795L90.0874 59.8783L90.0819 59.977L90.0765 60.0393L90.0711 60.087L90.0657 60.1858L90.0603 60.2846L90.0549 60.3833L90.0496 60.4821L90.0442 60.5809L90.0389 60.6797L90.0335 60.7785L90.0282 60.845L90.0229 60.8886L90.0176 60.9874L90.0123 61.0862L90.0071 61.185L90.0018 61.2838L89.9965 61.3826L89.9913 61.4815L89.9861 61.5803L89.9809 61.6511L89.9757 61.6905L89.9705 61.7894L89.9653 61.8882L89.9601 61.9871L89.9549 62.086L89.9498 62.1848L89.9447 62.2837L89.9395 62.3826L89.9344 62.4576L89.9293 62.4929L89.9242 62.5918L89.9192 62.6907L89.9141 62.7896L89.909 62.8885L89.904 62.9875L89.899 63.0864L89.894 63.1853L89.889 63.2646L89.884 63.2957L89.879 63.3947L89.874 63.4936L89.869 63.5926L89.8641 63.6915L89.8592 63.7905L89.8542 63.8895L89.8493 63.9885L89.8444 64.072L89.8395 64.0989L89.8347 64.1979L89.8298 64.2969L89.8249 64.3959L89.8201 64.4949L89.8153 64.594L89.8105 64.693L89.8057 64.792L89.8009 64.8798L89.7961 64.9026L89.7913 65.0016L89.7866 65.1007L89.7818 65.1997L89.7771 65.2988L89.7724 65.3978L89.7677 65.4969L89.763 65.5959L89.7583 65.688L89.7536 65.7066L89.7489 65.8057L89.7443 65.9048L89.7397 66.0039L89.735 66.103L89.7304 66.2021L89.7258 66.3012L89.7212 66.4003L89.7167 66.4966L89.7121 66.511L89.7076 66.6102L89.703 66.7093L89.6985 66.8084L89.694 66.9076L89.6895 67.0067L89.685 67.1059L89.6805 67.205L89.6761 67.3042L89.6716 67.3173L89.6672 67.415L89.6627 67.5142L89.6583 67.6134L89.6539 67.7126L89.6495 67.8118L89.6451 67.9109L89.6408 68.0101L89.6364 68.1094L89.6321 68.1267L89.6278 68.2203L89.6235 68.3195L89.6191 68.4187L89.6149 68.5179L89.6106 68.6172L89.6063 68.7164L89.6021 68.8156L89.5978 68.9149L89.5936 68.9364L89.5894 69.0259L89.5852 69.1252L89.581 69.2244L89.5768 69.3237L89.5726 69.4229L89.5685 69.5222L89.5644 69.6215L89.5602 69.7208L89.5561 69.7466L89.552 69.8319L89.5479 69.9312L89.5439 70.0305L89.5398 70.1298L89.5357 70.2291L89.5317 70.3284L89.5277 70.4277L89.5237 70.527L89.5197 70.5571L89.5157 70.6382L89.5117 70.7375L89.5078 70.8369L89.5038 70.9362L89.4999 71.0356L89.4959 71.1349L89.492 71.2343L89.4881 71.3336L89.4842 71.368L89.4804 71.4449L89.4765 71.5443L89.4727 71.6436L89.4688 71.743L89.465 71.8424L89.4612 71.9418L89.4574 72.0412L89.4536 72.1406L89.4499 72.1791L89.4461 72.2519L89.4424 72.3513L89.4387 72.4507L89.4349 72.5502L89.4312 72.6496L89.4276 72.749L89.4239 72.8484L89.4202 72.9479L89.4166 72.9907L89.4129 73.0593L89.4093 73.1587L89.4057 73.2582L89.4021 73.3576L89.3985 73.4571L89.3949 73.5565L89.3914 73.656L89.3878 73.7555L89.3843 73.8025L89.3808 73.8669L89.3773 73.9664L89.3738 74.0659L89.3703 74.1654L89.3668 74.2649L89.3634 74.3644L89.3599 74.4639L89.3565 74.5634L89.3531 74.6147L89.3497 74.6749L89.3463 74.7744L89.3429 74.874L89.3396 74.9735L89.3362 75.073L89.3329 75.1725L89.3296 75.2721L89.3262 75.3716L89.323 75.4271L89.3197 75.4832L89.3164 75.5828L89.3132 75.6823L89.3099 75.7819L89.3067 75.8814L89.3035 75.981L89.3003 76.0806L89.2971 76.1801L89.2939 76.2399L89.2907 76.2918L89.2876 76.3914L89.2845 76.491L89.2813 76.5906L89.2782 76.6902L89.2751 76.7897L89.2721 76.8893L89.269 76.9889L89.2659 77.0529L89.2629 77.1007L89.2599 77.2003L89.2569 77.2999L89.2539 77.3995L89.2509 77.4991L89.2479 77.5988L89.2449 77.6984L89.242 77.798L89.2391 77.8663L89.2362 77.9098L89.2332 78.0095L89.2304 78.1091L89.2275 78.2087L89.2246 78.3084L89.2218 78.4081L89.2189 78.5077L89.2161 78.6074L89.2133 78.6798L89.2105 78.7192L89.2077 78.8189L89.2049 78.9186L89.2022 79.0182L89.1994 79.1179L89.1967 79.2176L89.194 79.3173L89.1913 79.417L89.1886 79.4937L89.1859 79.5289L89.1833 79.6286L89.1806 79.7283L89.178 79.828L89.1754 79.9277L89.1728 80.0274L89.1702 80.1271L89.1676 80.2268L89.165 80.3077L89.1625 80.3388L89.16 80.4385L89.1574 80.5382L89.1549 80.6379L89.1524 80.7377L89.15 80.8374L89.1475 80.9371L89.145 81.0369L89.1426 81.1221L89.1402 81.1489L89.1378 81.2486L89.1354 81.3484L89.133 81.4481L89.1306 81.5479L89.1283 81.6477L89.1259 81.7474L89.1236 81.8472L89.1213 81.9366L89.119 81.9592L89.1167 82.059L89.1144 82.1588L89.1122 82.2586L89.1099 82.3583L89.1077 82.4581L89.1055 82.5579L89.1032 82.6577L89.1011 82.7513L89.0989 82.7698L89.0967 82.8696L89.0946 82.9694L89.0924 83.0692L89.0903 83.169L89.0882 83.2688L89.0861 83.3686L89.084 83.4684L89.082 83.5663L89.0799 83.5806L89.0779 83.6804L89.0759 83.7802L89.0739 83.88L89.0719 83.9798L89.0699 84.0797L89.0679 84.1795L89.066 84.2793L89.064 84.3791L89.0621 84.3938L89.0602 84.4913L89.0583 84.5912L89.0564 84.691L89.0545 84.7909L89.0527 84.8907L89.0508 84.9905L89.049 85.0904L89.0472 85.1902L89.0454 85.2091L89.0436 85.3025L89.0418 85.4023L89.0401 85.5022L89.0383 85.6021L89.0366 85.7019L89.0349 85.8018L89.0332 85.9016L89.0315 86.0015L89.0299 86.0246L89.0282 86.1138L89.0266 86.2137L89.0249 86.3135L89.0233 86.4134L89.0217 86.5133L89.0201 86.6132L89.0185 86.7131L89.017 86.8129L89.0154 86.8402L89.0139 86.9252L89.0124 87.0251L89.0109 87.125L89.0094 87.2249L89.0079 87.3248L89.0065 87.4247L89.005 87.5246L89.0036 87.6245L89.0022 87.656L89.0008 87.7368L88.9994 87.8367L88.998 87.9366L88.9966 88.0366L88.9953 88.1365L88.9939 88.2364L88.9926 88.3363L88.9913 88.4362L88.99 88.4719L88.9888 88.5486L88.9875 88.6485L88.9862 88.7484L88.985 88.8483L88.9838 88.9482L88.9826 89.0482L88.9814 89.1481L88.9802 89.248L88.979 89.288L88.9779 89.3604L88.9768 89.4603L88.9756 89.5603L88.9745 89.6602L88.9734 89.7601L88.9724 89.8601L88.9713 89.96L88.9702 90.0599L88.9692 90.1041L88.9682 90.1723L88.9672 90.2723L88.9662 90.3722L88.9652 90.4722L88.9642 90.5721L88.9633 90.6721L88.9623 90.772L88.9614 90.872L88.9605 90.9203L88.9596 90.9844L88.9587 91.0843L88.9579 91.1843L88.957 91.2842L88.9562 91.3842L88.9554 91.4842L88.9546 91.5841L88.9538 91.6841L88.953 91.7367L88.9522 91.7965L88.9514 91.8965L88.9507 91.9964L88.95 92.0964L88.9493 92.1964L88.9486 92.2963L88.9479 92.3963L88.9472 92.4962L88.9466 92.5531L88.9459 92.6087L88.9453 92.7087L88.9447 92.8086L88.9441 92.9086L88.9435 93.0086L88.9429 93.1085L88.9424 93.2085L88.9418 93.3085L88.9413 93.3695L88.9408 93.4209L88.9403 93.5209L88.9398 93.6209L88.9393 93.7209L88.9389 93.8208L88.9384 93.9208L88.938 94.0208L88.9376 94.1208L88.9372 94.186L88.9368 94.2332L88.9365 94.3332L88.9361 94.4332L88.9358 94.5332L88.9354 94.6331L88.9351 94.7331L88.9348 94.8331L88.9345 94.9331L88.9342 95.0025L88.934 95.0456L88.9337 95.1455L88.9335 95.2455L88.9333 95.3455L88.9331 95.4455L88.9329 95.5455L88.9327 95.6455L88.9326 95.7454L88.9324 95.8191L88.9323 95.8579L88.9322 95.9579L88.9321 96.0579L88.932 96.1579L88.9319 96.2579L88.9318 96.3578L88.9318 96.4578L88.9318 96.5578L88.9317 96.6357V96.6703L88.9317 96.7703L88.9318 96.8703L88.9318 96.9702L88.9319 97.0702L88.9319 97.1702L88.932 97.2702L88.9321 97.3702L88.9322 97.4522L88.9323 97.4826L88.9325 97.5826L88.9326 97.6826L88.9328 97.7826L88.933 97.8826L88.9331 97.9826L88.9333 98.0825L88.9336 98.1825L88.9338 98.2688L88.9341 98.295L88.9343 98.395L88.9346 98.495L88.9349 98.5949L88.9352 98.6949L88.9355 98.7949L88.9358 98.8949L88.9362 98.9949L88.9366 99.0853L88.9369 99.1073L88.9373 99.2073L88.9377 99.3073L88.9381 99.4073L88.9386 99.5072L88.939 99.6072L88.9395 99.7072L88.9399 99.8072L88.9404 99.9018L88.9409 99.9196L88.9414 100.02L88.942 100.12L88.9425 100.22L88.9431 100.32L88.9436 100.419L88.9442 100.519L88.9448 100.619L88.9454 100.718L88.9461 100.732L88.9467 100.832L88.9473 100.932L88.948 101.032L88.9487 101.132L88.9494 101.232L88.9501 101.332L88.9508 101.432L88.9516 101.532L88.9523 101.547L88.9531 101.644L88.9539 101.744L88.9546 101.844L88.9555 101.944L88.9563 102.044L88.9571 102.144L88.958 102.244L88.9588 102.344L88.9597 102.364L88.9606 102.456L88.9615 102.556L88.9624 102.656L88.9633 102.756L88.9643 102.856L88.9652 102.956L88.9662 103.056L88.9672 103.156L88.9682 103.18L88.9692 103.268L88.9702 103.368L88.9713 103.468L88.9723 103.568L88.9734 103.668L88.9745 103.768L88.9756 103.868L88.9767 103.968L88.9778 103.996L88.9789 104.08L88.9801 104.18L88.9812 104.28L88.9824 104.38L88.9836 104.48L88.9848 104.58L88.986 104.68L88.9873 104.78L88.9885 104.812L88.9898 104.892L88.9911 104.992L88.9923 105.092L88.9937 105.192L88.995 105.292L88.9963 105.392L88.9976 105.491L88.999 105.591L89.0004 105.628L89.0017 105.704L89.0031 105.804L89.0046 105.903L89.006 106.003L89.0074 106.103L89.0089 106.203L89.0103 106.303L89.0118 106.403L89.0133 106.444L89.0148 106.515L89.0163 106.615L89.0179 106.715L89.0194 106.815L89.021 106.915L89.0225 107.015L89.0241 107.115L89.0257 107.214L89.0274 107.259L89.029 107.327L89.0306 107.427L89.0323 107.527L89.034 107.626L89.0356 107.726L89.0373 107.826L89.039 107.926L89.0408 108.026L89.0425 108.075L89.0442 108.138L89.046 108.238L89.0478 108.338L89.0496 108.438L89.0514 108.538L89.0532 108.637L89.055 108.737L89.0569 108.837L89.0587 108.89L89.0606 108.949L89.0625 109.049L89.0644 109.149L89.0663 109.249L89.0682 109.349L89.0702 109.448L89.0721 109.548L89.0741 109.648L89.0761 109.706L89.0781 109.76L89.0801 109.86L89.0821 109.96L89.0841 110.06L89.0862 110.16L89.0882 110.259L89.0903 110.359L89.0924 110.459L89.0945 110.521L89.0966 110.571L89.0987 110.671L89.1009 110.771L89.103 110.87L89.1052 110.97L89.1074 111.07L89.1096 111.17L89.1118 111.27L89.114 111.336L89.1162 111.382L89.1185 111.482L89.1207 111.581L89.123 111.681L89.1253 111.781L89.1276 111.881L89.1299 111.98L89.1322 112.08L89.1346 112.15L89.1369 112.192L89.1393 112.292L89.1417 112.392L89.1441 112.491L89.1465 112.591L89.1489 112.691L89.1513 112.791L89.1538 112.89L89.1562 112.965L89.1587 113.002L89.1612 113.102L89.1637 113.202L89.1662 113.302L89.1687 113.401L89.1713 113.501L89.1738 113.601L89.1764 113.701L89.1789 113.779L89.1815 113.812L89.1841 113.912L89.1868 114.012L89.1894 114.112L89.192 114.211L89.1947 114.311L89.1973 114.411L89.2 114.51L89.2027 114.593L89.2054 114.622L89.2082 114.722L89.2109 114.822L89.2136 114.921L89.2164 115.021L89.2192 115.121L89.222 115.22L89.2247 115.32L89.2276 115.407L89.2304 115.432L89.2332 115.531L89.2361 115.631L89.2389 115.731L89.2418 115.83L89.2447 115.93L89.2476 116.03L89.2505 116.129L89.2535 116.22L89.2564 116.241L89.2593 116.341L89.2623 116.44L89.2653 116.54L89.2683 116.64L89.2713 116.739L89.2743 116.839L89.2774 116.938L89.2804 117.034L89.2834 117.05L89.2865 117.15L89.2896 117.249L89.2927 117.349L89.2958 117.449L89.2989 117.548L89.3021 117.648L89.3052 117.747L89.3084 117.847L89.3115 117.859L89.3147 117.959L89.3179 118.058L89.3211 118.158L89.3244 118.257L89.3276 118.357L89.3308 118.456L89.3341 118.556L89.3374 118.655L89.3407 118.672L89.344 118.767L89.3473 118.867L89.3506 118.966L89.3539 119.066L89.3573 119.165L89.3607 119.265L89.364 119.364L89.3674 119.464L89.3708 119.484L89.3742 119.575L89.3777 119.675L89.3811 119.774L89.3846 119.874L89.388 119.973L89.3915 120.073L89.395 120.172L89.3985 120.272L89.402 120.296L89.4055 120.383L89.4091 120.483L89.4126 120.582L89.4162 120.682L89.4198 120.781L89.4234 120.881L89.427 120.98L89.4306 121.079L89.4342 121.108L89.4379 121.191L89.4415 121.29L89.4452 121.39L89.4488 121.489L89.4525 121.589L89.4562 121.688L89.46 121.787L89.4637 121.887L89.4674 121.92L89.4712 121.998L89.4749 122.098L89.4787 122.197L89.4825 122.296L89.4863 122.396L89.4901 122.495L89.494 122.594L89.4978 122.694L89.5016 122.731L89.5055 122.805L89.5094 122.905L89.5133 123.004L89.5172 123.103L89.5211 123.203L89.525 123.302L89.529 123.401L89.5329 123.501L89.5369 123.542L89.5408 123.612L89.5448 123.711L89.5488 123.81L89.5528 123.91L89.5569 124.009L89.5609 124.108L89.5649 124.208L89.569 124.307L89.5731 124.352L89.5772 124.418L89.5813 124.517L89.5854 124.617L89.5895 124.716L89.5936 124.815L89.5978 124.915L89.6019 125.014L89.6061 125.113L89.6103 125.163L89.6145 125.224L89.6187 125.323L89.6229 125.423L89.6271 125.522L89.6314 125.621L89.6356 125.72L89.6399 125.82L89.6442 125.919L89.6485 125.972L89.6528 126.03L89.6571 126.129L89.6614 126.228L89.6657 126.327L89.6701 126.427L89.6745 126.526L89.6788 126.625L89.6832 126.724L89.6876 126.782L89.692 126.835L89.6965 126.934L89.7009 127.033L89.7053 127.133L89.7098 127.232L89.7143 127.331L89.7188 127.43L89.7233 127.529L89.7278 127.591L89.7323 127.64L89.7368 127.739L89.7413 127.838L89.7459 127.937L89.7505 128.037L89.7551 128.136L89.7596 128.235L89.7642 128.334L89.7689 128.4L89.7735 128.445L89.7781 128.544L89.7828 128.643L89.7874 128.742L89.7921 128.841L89.7968 128.94L89.8015 129.039L89.8062 129.138L89.8109 129.208L89.8156 129.249L89.8204 129.348L89.8251 129.447L89.8299 129.546L89.8347 129.645L89.8395 129.744L89.8443 129.843L89.8491 129.942L89.8539 130.016L89.8587 130.053L89.8636 130.152L89.8684 130.251L89.8733 130.35L89.8782 130.449L89.8831 130.547L89.888 130.646L89.8929 130.745L89.8978 130.824L89.9028 130.856L89.9077 130.955L89.9127 131.054L89.9177 131.153L89.9227 131.252L89.9277 131.351L89.9327 131.45L89.9377 131.549L89.9427 131.631L89.9478 131.659L89.9528 131.758L89.9579 131.857L89.963 131.956L89.9681 132.055L89.9732 132.153L89.9783 132.252L89.9834 132.351L89.9885 132.438L89.9937 132.461L89.9988 132.56L90.004 132.659L90.0092 132.758L90.0144 132.857L90.0196 132.956L90.0248 133.055L90.03 133.153L90.0353 133.245L90.0405 133.264L90.0458 133.362L90.0511 133.461L90.0564 133.56L90.0616 133.659L90.067 133.758L90.0723 133.856L90.0776 133.955L90.0829 134.05L90.0883 134.065L90.0937 134.164L90.099 134.263L90.1044 134.362L90.1098 134.46L90.1152 134.559L90.1206 134.658L90.1261 134.757L90.1315 134.855L90.1369 134.867L90.1424 134.965L90.1479 135.064L90.1534 135.163L90.1589 135.261L90.1644 135.36L90.1699 135.459L90.1754 135.558L90.181 135.656L90.1865 135.672L90.1921 135.766L90.1977 135.865L90.2033 135.963L90.2089 136.062L90.2145 136.161L90.2201 136.259L90.2257 136.358L90.2313 136.457L90.237 136.477L90.2427 136.567L90.2483 136.665L90.254 136.764L90.2597 136.862L90.2654 136.961L90.2711 137.06L90.2769 137.158L90.2826 137.257L90.2884 137.281L90.2941 137.366L90.2999 137.465L90.3057 137.564L90.3115 137.662L90.3173 137.761L90.3231 137.859L90.3289 137.958L90.3348 138.056L90.3406 138.085L90.3465 138.166L90.3523 138.264L90.3582 138.363L90.3641 138.461L90.37 138.56L90.3759 138.658L90.3819 138.757L90.3878 138.855L90.3937 138.888L90.3997 138.965L90.4057 139.063L90.4116 139.162L90.4176 139.26L90.4236 139.359L90.4296 139.457L90.4357 139.556L90.4417 139.654L90.4477 139.691L90.4538 139.763L90.4599 139.862L90.4659 139.96L90.472 140.059L90.4781 140.157L90.4842 140.255L90.4903 140.354L90.4965 140.452L90.5026 140.493L90.5088 140.561L90.5149 140.66L90.5211 140.758L90.5273 140.856L90.5335 140.955L90.5396 141.053L90.5459 141.151L90.5521 141.25L90.5583 141.295L90.5646 141.359L90.5708 141.457L90.5771 141.556L90.5834 141.654L90.5896 141.752L90.5959 141.85L90.6022 141.949L90.6086 142.047L90.6149 142.096L90.6212 142.156L90.6276 142.254L90.6339 142.352L90.6403 142.451L90.6467 142.549L90.6531 142.647L90.6595 142.745L90.6659 142.844L90.6723 142.897L90.6787 142.953L90.6852 143.051L90.6916 143.149L90.6981 143.247L90.7046 143.345L90.7111 143.443L90.7176 143.542L90.724 143.64L90.7306 143.697L90.7371 143.749L90.7436 143.847L90.7502 143.945L90.7567 144.043L90.7633 144.141L90.7699 144.239L90.7765 144.337L90.7831 144.435L90.7897 144.497L90.7963 144.544L90.8029 144.642L90.8095 144.74L90.8162 144.838L90.8228 144.936L90.8295 145.034L90.8362 145.133L90.8429 145.231L90.8496 145.296L90.8563 145.339L90.863 145.437L90.8697 145.535L90.8765 145.633L90.8832 145.731L90.89 145.829L90.8967 145.927L90.9035 146.025L90.9103 146.095L90.9171 146.134L90.9239 146.232L90.9307 146.33L90.9376 146.428L90.9444 146.525L90.9512 146.623L90.9581 146.721L90.965 146.819L90.9719 146.893L90.9787 146.928L90.9856 147.026L90.9925 147.123L90.9995 147.221L91.0064 147.319L91.0133 147.417L91.0203 147.515L91.0272 147.613L91.0342 147.691L91.0412 147.721L91.0482 147.819L91.0552 147.917L91.0622 148.015L91.0692 148.112L91.0762 148.21L91.0833 148.308L91.0903 148.406L91.0974 148.488L91.1044 148.514L91.1115 148.612L91.1186 148.71L91.1257 148.807L91.1328 148.905L91.1399 149.003L91.147 149.101L91.1542 149.198L91.1613 149.285L91.1685 149.306L91.1756 149.404L91.1828 149.502L91.19 149.6L91.1972 149.697L91.2044 149.795L91.2116 149.893L91.2188 149.99L91.226 150.081L91.2333 150.098L91.2405 150.196L91.2478 150.293L91.2551 150.391L91.2623 150.489L91.2696 150.586L91.2769 150.684L91.2842 150.782L91.2915 150.877L91.2989 150.889L91.3062 150.987L91.3136 151.085L91.3209 151.182L91.3283 151.28L91.3356 151.377L91.343 151.475L91.3504 151.572L91.3578 151.67L91.3652 151.682L91.3727 151.778L91.3801 151.875L91.3875 151.973L91.395 152.07L91.4025 152.168L91.4099 152.265L91.4174 152.363L91.4249 152.46L91.4324 152.476L91.4399 152.568L91.4474 152.665L91.4549 152.763L91.4625 152.86L91.47 152.958L91.4776 153.055L91.4851 153.152L91.4927 153.25L91.5003 153.27L91.5079 153.357L91.5155 153.455L91.5231 153.552L91.5307 153.649L91.5383 153.747L91.546 153.844L91.5536 153.942L91.5613 154.039L91.5689 154.063L91.5766 154.146L91.5843 154.244L91.592 154.341L91.5997 154.438L91.6074 154.535L91.6151 154.633L91.6228 154.73L91.6306 154.827L91.6383 154.856L91.6461 154.935L91.6539 155.032L91.6616 155.129L91.6694 155.226L91.6772 155.324L91.685 155.421L91.6928 155.518L91.7006 155.615L91.7085 155.648L91.7163 155.722L91.7242 155.819L91.732 155.917L91.7399 156.014L91.7478 156.111L91.7556 156.208L91.7635 156.305L91.7714 156.403L91.7793 156.439L91.7873 156.509L91.7952 156.607L91.8031 156.704L91.8111 156.801L91.819 156.898L91.827 156.995L91.835 157.092L91.8429 157.189L91.8509 157.23L91.8589 157.296L91.867 157.393L91.875 157.49L91.883 157.587L91.891 157.684L91.8991 157.781L91.9071 157.878L91.9152 157.975L91.9233 158.02L91.9313 158.082L91.9394 158.179L91.9475 158.276L91.9556 158.373L91.9638 158.47L91.9719 158.567L91.98 158.664L91.9882 158.761L91.9963 158.81L92.0044 158.867L92.0126 158.964L92.0208 159.061L92.029 159.158L92.0372 159.255L92.0454 159.352L92.0536 159.449L92.0618 159.546L92.07 159.599L92.0783 159.652L92.0865 159.749L92.0948 159.846L92.103 159.943L92.1113 160.04L92.1196 160.136L92.1279 160.233L92.1362 160.33L92.1445 160.387L92.1528 160.436L92.1611 160.533L92.1695 160.63L92.1778 160.727L92.1861 160.823L92.1945 160.92L92.2029 161.017L92.2113 161.114L92.2196 161.175L92.228 161.22L92.2364 161.317L92.2448 161.413L92.2532 161.51L92.2617 161.607L92.2701 161.703L92.2785 161.8L92.287 161.897L92.2955 161.962L92.3039 162.003L92.3124 162.099L92.3209 162.196L92.3294 162.293L92.3379 162.389L92.3464 162.486L92.3549 162.583L92.3634 162.679L92.372 162.749L92.3805 162.785L92.3891 162.882L92.3976 162.978L92.4062 163.075L92.4148 163.171L92.4234 163.268L92.432 163.364L92.4406 163.461L92.4492 163.535L92.4578 163.567L92.4664 163.663L92.475 163.76L92.4837 163.856L92.4923 163.953L92.501 164.049L92.5097 164.146L92.5183 164.242L92.527 164.32L92.5357 164.348L92.5444 164.444L92.5531 164.54L92.5619 164.637L92.5706 164.733L92.5793 164.83L92.5881 164.926L92.5968 165.023L92.6056 165.105L92.6143 165.128L92.6231 165.224L92.6319 165.321L92.6407 165.417L92.6495 165.513L92.6583 165.61L92.6671 165.706L92.6759 165.802L92.6847 165.889L92.6936 165.908L92.7024 166.004L92.7113 166.1L92.7201 166.197L92.729 166.293L92.7379 166.389L92.7468 166.485L92.7557 166.582L92.7646 166.672L92.7735 166.687L92.7824 166.783L92.7913 166.879L92.8003 166.975L92.8092 167.072L92.8182 167.168L92.8271 167.264L92.8361 167.36L92.8451 167.455L92.854 167.465L92.863 167.561L92.872 167.657L92.881 167.754L92.89 167.85L92.8991 167.946L92.9081 168.042L92.9171 168.138L92.9262 168.234L92.9352 168.245L92.9443 168.339L92.9534 168.435L92.9624 168.531L92.9715 168.627L92.9806 168.723L92.9897 168.819L92.9988 168.915L93.0079 169.011L93.0171 169.027L93.0262 169.116L93.0353 169.212L93.0445 169.308L93.0536 169.404L93.0628 169.5L93.0719 169.596L93.0811 169.692L93.0903 169.788L93.0995 169.807L93.1087 169.892L93.1179 169.988L93.1271 170.084L93.1363 170.18L93.1456 170.276L93.1548 170.372L93.1641 170.468L93.1733 170.564L93.1826 170.587L93.1918 170.668L93.2011 170.764L93.2104 170.86L93.2197 170.955L93.229 171.051L93.2383 171.147L93.2476 171.243L93.2569 171.339L93.2662 171.366L93.2756 171.443L93.2849 171.539L93.2943 171.634L93.3036 171.73L93.313 171.826L93.3224 171.922L93.3318 172.017L93.3411 172.113L93.3505 172.145L93.3599 172.217L93.3693 172.313L93.3788 172.409L93.3882 172.504L93.3976 172.6L93.4071 172.696L93.4165 172.791L93.426 172.887L93.4354 172.923L93.4449 172.991L93.4544 173.086L93.4639 173.182L93.4734 173.278L93.4828 173.373L93.4923 173.469L93.5019 173.564L93.5114 173.66L93.5209 173.7L93.5304 173.764L93.54 173.859L93.5495 173.955L93.5591 174.05L93.5687 174.146L93.5782 174.241L93.5878 174.337L93.5974 174.432L93.607 174.477L93.6166 174.536L93.6262 174.631L93.6358 174.727L93.6454 174.822L93.6551 174.918L93.6647 175.013L93.6743 175.109L93.684 175.204L93.6936 175.252L93.7033 175.307L93.713 175.403L93.7226 175.498L93.7323 175.594L93.742 175.689L93.7517 175.784L93.7614 175.88L93.7711 175.975L93.7809 176.027L93.7906 176.078L93.8003 176.174L93.8101 176.269L93.8198 176.364L93.8296 176.46L93.8393 176.555L93.8491 176.65L93.8589 176.745L93.8687 176.802L93.8784 176.848L93.8882 176.944L93.898 177.039L93.9079 177.134L93.9177 177.229L93.9275 177.325L93.9373 177.42L93.9472 177.515L93.957 177.576L93.9669 177.618L93.9767 177.713L93.9866 177.808L93.9965 177.903L94.0063 177.998L94.0162 178.094L94.0261 178.189L94.036 178.284L94.0459 178.349L94.0558 178.387L94.0658 178.482L94.0757 178.577L94.0856 178.672L94.0956 178.767L94.1055 178.862L94.1155 178.957L94.1254 179.052L94.1354 179.121L94.1454 179.155L94.1554 179.25L94.1653 179.345L94.1753 179.44L94.1853 179.535L94.1953 179.63L94.2054 179.724L94.2154 179.819L94.2254 179.892L94.2354 179.922L94.2455 180.017L94.2555 180.112L94.2656 180.207L94.2757 180.301L94.2857 180.396L94.2958 180.491L94.3059 180.586L94.316 180.663L94.326 180.688L94.3362 180.783L94.3463 180.878L94.3564 180.973L94.3665 181.068L94.3766 181.163L94.3867 181.257L94.3969 181.352L94.407 181.433L94.4172 181.454L94.4274 181.549L94.4375 181.644L94.4477 181.738L94.4579 181.833L94.4681 181.928L94.4782 182.023L94.4884 182.117L94.4986 182.203L94.5089 182.219L94.5191 182.314L94.5293 182.409L94.5395 182.503L94.5498 182.598L94.56 182.693L94.5703 182.787L94.5805 182.882L94.5908 182.971L94.601 182.984L94.6113 183.078L94.6216 183.173L94.6319 183.267L94.6422 183.362L94.6525 183.457L94.6628 183.551L94.6731 183.646L94.6834 183.739L94.6937 183.747L94.7041 183.842L94.7144 183.936L94.7247 184.031L94.7351 184.125L94.7455 184.22L94.7558 184.314L94.7662 184.409L94.7766 184.503L94.7869 184.513L94.7973 184.605L94.8077 184.699L94.8181 184.793L94.8285 184.888L94.8389 184.982L94.8493 185.077L94.8598 185.171L94.8702 185.265L94.8806 185.28L94.8911 185.367L94.9015 185.461L94.912 185.555L94.9224 185.65L94.9329 185.744L94.9434 185.838L94.9538 185.933L94.9643 186.027L94.9748 186.045L94.9853 186.128L94.9958 186.222L95.0063 186.316L95.0168 186.411L95.0274 186.505L95.0379 186.599L95.0484 186.693L95.059 186.788L95.0695 186.81L95.0801 186.888L95.0906 186.983L95.1012 187.077L95.1117 187.171L95.1223 187.265L95.1329 187.359L95.1435 187.453L95.1541 187.547L95.1647 187.574L95.1753 187.648L95.1859 187.742L95.1965 187.836L95.2071 187.93L95.2177 188.025L95.2284 188.119L95.239 188.213L95.2496 188.307L95.2603 188.338L95.271 188.407L95.2816 188.501L95.2923 188.595L95.303 188.689L95.3136 188.783L95.3243 188.877L95.335 188.971L95.3457 189.065L95.3564 189.1L95.3671 189.165L95.3778 189.259L95.3885 189.353L95.3993 189.447L95.41 189.541L95.4207 189.635L95.4315 189.729L95.4422 189.823L95.453 189.862L95.4637 189.923L95.4745 190.017L95.4853 190.111L95.496 190.204L95.5068 190.298L95.5176 190.392L95.5284 190.486L95.5392 190.58L95.55 190.623L95.5608 190.68L95.5716 190.773L95.5824 190.867L95.5932 190.961L95.6041 191.055L95.6149 191.148L95.6258 191.242L95.6366 191.336L95.6474 191.383L95.6583 191.436L95.6692 191.529L95.68 191.623L95.6909 191.717L95.7018 191.81L95.7127 191.904L95.7236 191.998L95.7345 192.091L95.7454 192.143L95.7563 192.191L95.7672 192.284L95.7781 192.378L95.789 192.472L95.7999 192.565L95.8109 192.659L95.8218 192.752L95.8327 192.846L95.8437 192.901L95.8547 192.945L95.8656 193.039L95.8766 193.132L95.8875 193.226L95.8985 193.319L95.9095 193.413L95.9205 193.506L95.9315 193.6L95.9425 193.659L95.9535 193.699L95.9645 193.792L95.9755 193.886L95.9865 193.979L95.9975 194.072L96.0086 194.166L96.0196 194.259L96.0306 194.353L96.0417 194.416L96.0527 194.452L96.0638 194.545L96.0748 194.638L96.0859 194.732L96.097 194.825L96.108 194.918L96.1191 195.012L96.1302 195.105L96.1413 195.173L96.1524 195.204L96.1635 195.297L96.1746 195.39L96.1857 195.483L96.1968 195.577L96.2079 195.67L96.219 195.763L96.2302 195.856L96.2413 195.928L96.2524 195.955L96.2636 196.048L96.2747 196.141L96.2859 196.234L96.297 196.328L96.3082 196.421L96.3194 196.514L96.3305 196.607L96.3417 196.683L96.3529 196.706L96.3641 196.799L96.3753 196.892L96.3865 196.985L96.3977 197.078L96.4089 197.171L96.4201 197.264L96.4313 197.357L96.4426 197.437L96.4538 197.455L96.465 197.548L96.4762 197.641L96.4875 197.734L96.4987 197.827L96.51 197.92L96.5212 198.013L96.5325 198.106L96.5438 198.19L96.555 198.204L96.5663 198.297L96.5776 198.39L96.5889 198.483L96.6002 198.576L96.6115 198.668L96.6227 198.761L96.634 198.854L96.6454 198.943L96.6567 198.952L96.6131 198.99L96.5369 198.995L96.4608 199L96.3846 199.005L96.3085 199.01L96.2323 199.015L96.1562 199.02L96.0801 199.024L96.0678 199.029L96.0153 199.034L95.9392 199.039L95.8631 199.043L95.7869 199.047L95.7108 199.051L95.6348 199.055L95.5587 199.059L95.4826 199.063L95.4661 199.068L95.4179 199.072L95.3418 199.076L95.2658 199.079L95.1897 199.083L95.1137 199.086L95.0376 199.089L94.9616 199.093L94.8855 199.096L94.8649 199.1L94.821 199.104L94.7449 199.107L94.6689 199.109L94.5929 199.112L94.5169 199.115L94.441 199.117L94.365 199.119L94.289 199.122L94.2642 199.126L94.2245 199.129L94.1485 199.131L94.0726 199.133L93.9967 199.135L93.9207 199.137L93.8448 199.138L93.7689 199.14L93.693 199.142L93.6641 199.145L93.6286 199.148L93.5527 199.149L93.4768 199.15L93.4009 199.151L93.3251 199.153L93.2492 199.154L93.1733 199.154L93.0975 199.155L93.0644 199.158L93.0332 199.16L92.9574 199.161L92.8816 199.161L92.8058 199.162L92.73 199.162L92.6542 199.162L92.5784 199.162L92.5026 199.162L92.4654 199.164L92.4385 199.167L92.3627 199.166L92.287 199.166L92.2112 199.166L92.1355 199.165L92.0598 199.164L91.9841 199.164L91.9084 199.163L91.867 199.164L91.8443 199.167L91.7687 199.166L91.693 199.164L91.6173 199.163L91.5417 199.162L91.4661 199.16L91.3904 199.159L91.3148 199.157L91.2693 199.158L91.2509 199.16L91.1753 199.158L91.0997 199.156L91.0241 199.154L90.9486 199.152L90.873 199.15L90.7975 199.148L90.722 199.145L90.6724 199.145L90.6581 199.147L90.5827 199.145L90.5072 199.142L90.4317 199.139L90.3562 199.136L90.2807 199.133L90.2053 199.13L90.1299 199.127L90.0761 199.126L90.0662 199.128L89.9908 199.125L89.9154 199.121L89.84 199.118L89.7646 199.114L89.6892 199.11L89.6139 199.106L89.5385 199.102L89.4807 199.1L89.475 199.103L89.3997 199.099L89.3244 199.094L89.2491 199.09L89.1738 199.085L89.0985 199.081L89.0233 199.076L88.948 199.071L88.8861 199.068L88.8846 199.071L88.8094 199.066L88.7342 199.061L88.659 199.056L88.5838 199.05L88.5087 199.045L88.4335 199.04L88.3584 199.034L88.2924 199.029L88.2951 199.032L88.22 199.027L88.1449 199.021L88.0698 199.015L87.9948 199.009L87.9197 199.003L87.8447 198.997L87.7697 198.99L87.6996 198.984L87.7065 198.988L87.6315 198.981L87.5565 198.975L87.4816 198.968L87.4066 198.961L87.3317 198.954L87.2568 198.947L87.1819 198.94L87.1077 198.933L87.1189 198.937L87.044 198.929L86.9691 198.922L86.8943 198.915L86.8194 198.907L86.7446 198.899L86.6698 198.891L86.595 198.884L86.5202 198.876L86.5287 198.879L86.4574 198.871L86.3827 198.863L86.308 198.855L86.2333 198.846L86.1586 198.838L86.0839 198.829L86.0092 198.821L85.9346 198.812L85.9389 198.814L85.8719 198.807L85.7973 198.798L85.7227 198.789L85.6481 198.779L85.5735 198.77L85.499 198.761L85.4245 198.751L85.35 198.742L85.3502 198.744L85.2874 198.736L85.213 198.726L85.1385 198.716L85.064 198.706L84.9896 198.696L84.9152 198.686L84.8408 198.676L84.7664 198.665L84.7625 198.666L84.704 198.658L84.6297 198.648L84.5554 198.637L84.4811 198.626L84.4068 198.616L84.3325 198.605L84.2582 198.594L84.184 198.582H84.176L84.1218 198.575L84.0476 198.563L83.9734 198.552L83.8993 198.54L83.8251 198.529L83.751 198.517L83.6769 198.505L83.6028 198.493L83.5907 198.492L83.5408 198.485L83.4667 198.472L83.3927 198.46L83.3186 198.448L83.2446 198.436L83.1707 198.423L83.0967 198.41L83.0228 198.398L83.0066 198.396L82.9609 198.388L82.887 198.375L82.8131 198.362L82.7393 198.349L82.6654 198.336L82.5916 198.323L82.5178 198.309L82.444 198.296L82.4238 198.293L82.3823 198.285L82.3086 198.272L82.2348 198.258L82.1611 198.244L82.0874 198.23L82.0138 198.216L81.9401 198.202L81.8665 198.187L81.8422 198.183L81.805 198.176L81.7314 198.162L81.6579 198.147L81.5843 198.132L81.5108 198.118L81.4373 198.103L81.3638 198.088L81.2903 198.073L81.262 198.067L81.229 198.061L81.1556 198.045L81.0822 198.03L81.0088 198.014L80.9355 197.999L80.8621 197.983L80.7888 197.968L80.7155 197.952L80.6832 197.945L80.6544 197.939L80.5812 197.923L80.508 197.906L80.4348 197.89L80.3615 197.874L80.2884 197.857L80.2153 197.841L80.1189 197.821L80.0579 197.809L80.0087 197.8L79.9109 197.78L79.8132 197.76L79.7155 197.739L79.6178 197.719L79.5201 197.698L79.4224 197.678L79.3248 197.657L79.2598 197.644L79.2147 197.635L79.1171 197.614L79.0195 197.593L78.922 197.572L78.8245 197.55L78.727 197.529L78.6295 197.507L78.532 197.486L78.4631 197.471L78.4221 197.463L78.3247 197.441L78.2273 197.42L78.13 197.398L78.0326 197.375L77.9353 197.353L77.838 197.331L77.7407 197.308L77.6678 197.292L77.631 197.285L77.5337 197.262L77.4365 197.24L77.3393 197.217L77.2422 197.194L77.145 197.171L77.0479 197.148L76.9508 197.125L76.8739 197.107L76.8413 197.1L76.7442 197.077L76.6472 197.053L76.5502 197.03L76.4532 197.006L76.3563 196.982L76.2593 196.958L76.1624 196.934L76.0816 196.915L76.0531 196.909L75.9562 196.885L75.8594 196.861L75.7626 196.836L75.6658 196.812L75.569 196.787L75.4723 196.763L75.3756 196.738L75.2909 196.716L75.2665 196.712L75.1698 196.687L75.0732 196.662L74.9766 196.636L74.88 196.611L74.7834 196.586L74.6869 196.56L74.5904 196.535L74.5019 196.511L74.4815 196.508L74.385 196.482L74.2886 196.456L74.1922 196.43L74.0958 196.404L73.9995 196.378L73.9032 196.352L73.8069 196.325L73.7145 196.3L73.6982 196.297L73.602 196.271L73.5057 196.244L73.4096 196.217L73.3134 196.191L73.2173 196.164L73.1211 196.137L73.0251 196.109L72.929 196.082L72.9165 196.081L72.8206 196.053L72.7246 196.026L72.6286 195.998L72.5327 195.971L72.4368 195.943L72.3409 195.915L72.245 195.887L72.1492 195.859L72.1327 195.856L72.041 195.829L71.9453 195.801L71.8495 195.773L71.7538 195.745L71.6581 195.716L71.5625 195.687L71.4668 195.659L71.3713 195.63L71.3508 195.625L71.2633 195.599L71.1678 195.57L71.0723 195.541L70.9768 195.512L70.8813 195.483L70.7859 195.453L70.6905 195.424L70.5952 195.394L70.5707 195.388L70.4875 195.363L70.3922 195.333L70.2969 195.303L70.2017 195.273L70.1065 195.243L70.0113 195.213L69.9161 195.183L69.821 195.152L69.7926 195.145L69.7136 195.12L69.6186 195.089L69.5235 195.059L69.4286 195.028L69.3336 194.997L69.2386 194.966L69.1438 194.935L69.0489 194.904L69.0166 194.895L68.9417 194.87L68.8469 194.839L68.7521 194.808L68.6574 194.776L68.5627 194.745L68.468 194.713L68.3734 194.681L68.2788 194.649L68.2426 194.638L68.1719 194.615L68.0774 194.583L67.9828 194.551L67.8883 194.518L67.7939 194.486L67.6995 194.454L67.6051 194.421L67.5107 194.388L67.4707 194.376L67.4041 194.353L67.3099 194.32L67.2156 194.287L67.1214 194.254L67.0272 194.221L66.9331 194.188L66.839 194.155L66.7449 194.121L66.701 194.107L66.6386 194.085L66.5446 194.052L66.4506 194.018L66.3566 193.984L66.2627 193.95L66.1688 193.916L66.075 193.882L65.9812 193.848L65.9335 193.831L65.8752 193.811L65.7814 193.777L65.6878 193.742L65.5941 193.707L65.5004 193.673L65.4069 193.638L65.3133 193.603L65.2197 193.568L65.1683 193.55L65.1141 193.53L65.0206 193.495L64.9272 193.46L64.8338 193.425L64.7404 193.389L64.6471 193.354L64.5539 193.318L64.4606 193.282L64.4054 193.262L64.3552 193.244L64.2621 193.208L64.1689 193.172L64.0759 193.136L63.9828 193.099L63.8897 193.063L63.7968 193.027L63.7038 192.99L63.6449 192.968L63.5988 192.951L63.5059 192.914L63.413 192.877L63.3202 192.841L63.2275 192.804L63.1348 192.767L63.0421 192.729L62.9494 192.692L62.8868 192.668L62.8447 192.652L62.7521 192.614L62.6596 192.577L62.5671 192.539L62.4746 192.501L62.3822 192.464L62.2898 192.426L62.1975 192.388L62.1312 192.361L62.0931 192.347L62.0008 192.308L61.9086 192.27L61.8164 192.232L61.7242 192.193L61.6321 192.155L61.5401 192.116L61.448 192.077L61.3782 192.048L61.344 192.035L61.252 191.996L61.1601 191.957L61.0682 191.918L60.9763 191.879L60.8846 191.84L60.7928 191.8L60.7011 191.761L60.6276 191.729L60.5974 191.718L60.5057 191.678L60.4141 191.638L60.3226 191.598L60.2311 191.559L60.1396 191.518L60.0482 191.478L59.9568 191.438L59.8797 191.404L59.8534 191.394L59.7621 191.354L59.6708 191.313L59.5796 191.273L59.4884 191.232L59.3972 191.191L59.3062 191.15L59.2151 191.109L59.1345 191.073L59.1121 191.065L59.0211 191.024L58.9302 190.982L58.8393 190.941L58.7484 190.9L58.6576 190.858L58.5668 190.816L58.4761 190.775L58.3921 190.736L58.3735 190.729L58.2828 190.687L58.1922 190.645L58.1017 190.603L58.0112 190.561L57.9207 190.519L57.8302 190.476L57.7399 190.434L57.6524 190.393L57.6376 190.388L57.5473 190.345L57.4571 190.302L57.3668 190.259L57.2766 190.217L57.1866 190.173L57.0965 190.13L57.0064 190.087L56.9164 190.044L56.9036 190.04L56.8146 189.997L56.7247 189.953L56.6348 189.91L56.545 189.866L56.4552 189.822L56.3655 189.778L56.2758 189.735L56.1861 189.691L56.1697 189.684L56.0847 189.642L55.9951 189.598L55.9056 189.554L55.8162 189.51L55.7267 189.465L55.6374 189.421L55.548 189.376L55.4587 189.331L55.4386 189.323L55.3577 189.282L55.2685 189.237L55.1793 189.192L55.0903 189.147L55.0012 189.102L54.9122 189.057L54.8232 189.011L54.7343 188.966L54.7105 188.955L54.6337 188.916L54.5449 188.87L54.456 188.825L54.3673 188.779L54.2786 188.733L54.19 188.687L54.1014 188.641L54.0128 188.595L53.9854 188.582L53.9126 188.544L53.8242 188.498L53.7357 188.451L53.6474 188.405L53.5591 188.358L53.4708 188.311L53.3826 188.265L53.2944 188.218L53.2634 188.203L53.1946 188.166L53.1065 188.119L53.0185 188.072L52.9305 188.025L52.8426 187.977L52.7547 187.93L52.6668 187.883L52.579 187.835L52.5445 187.817L52.4797 187.783L52.3919 187.735L52.3043 187.687L52.2167 187.639L52.1291 187.591L52.0417 187.543L51.9542 187.495L51.8668 187.446L51.8288 187.426L51.7679 187.393L51.6805 187.345L51.5933 187.296L51.5061 187.247L51.4189 187.199L51.3318 187.15L51.2448 187.101L51.1577 187.052L51.1163 187.03L51.0592 186.998L50.9723 186.949L50.8854 186.9L50.7986 186.85L50.7119 186.801L50.6251 186.751L50.5385 186.701L50.4519 186.652L50.407 186.627L50.3538 186.597L50.2673 186.547L50.1808 186.497L50.0944 186.447L50.0081 186.397L49.9217 186.347L49.8355 186.296L49.7493 186.246L49.701 186.219L49.6516 186.19L49.5655 186.14L49.4795 186.089L49.3935 186.038L49.3075 185.987L49.2216 185.937L49.1358 185.886L49.05 185.834L48.9984 185.804L48.9528 185.778L48.8671 185.727L48.7815 185.675L48.6959 185.624L48.6103 185.572L48.5249 185.521L48.4394 185.469L48.354 185.417L48.2991 185.384L48.2573 185.36L48.1721 185.308L48.0868 185.256L48.0017 185.204L47.9165 185.152L47.8315 185.099L47.7465 185.047L47.6615 184.994L47.6033 184.959L47.5652 184.936L47.4804 184.884L47.3956 184.831L47.3108 184.778L47.2262 184.725L47.1415 184.672L47.0569 184.619L46.9724 184.566L46.9109 184.528L46.8766 184.507L46.7922 184.454L46.7078 184.4L46.6235 184.347L46.5392 184.293L46.455 184.24L46.3708 184.186L46.2868 184.132L46.2221 184.091L46.1915 184.072L46.1075 184.018L46.0235 183.964L45.9396 183.91L45.8558 183.856L45.7721 183.801L45.6883 183.747L45.6047 183.692L45.5369 183.648L45.5098 183.632L45.4263 183.577L45.3428 183.523L45.2594 183.468L45.1759 183.413L45.0926 183.358L45.0093 183.302L44.9261 183.247L44.8553 183.2L44.8318 183.186L44.7487 183.131L44.6656 183.075L44.5826 183.02L44.4997 182.964L44.4168 182.908L44.334 182.853L44.2512 182.797L44.1773 182.747L44.1574 182.735L44.0747 182.679L43.9921 182.623L43.9096 182.567L43.8271 182.51L43.7446 182.454L43.6623 182.397L43.5799 182.341L43.5029 182.288L43.4866 182.278L43.4044 182.221L43.3223 182.165L43.2401 182.108L43.1581 182.051L43.0762 181.994L42.9942 181.937L42.9124 181.879L42.8324 181.823L42.8195 181.816L42.7378 181.759L42.6561 181.701L42.5745 181.644L42.4929 181.586L42.4114 181.528L42.3299 181.47L42.2485 181.413L42.1672 181.355L42.1548 181.347L42.075 181.29L41.9938 181.232L41.9126 181.174L41.8315 181.116L41.7504 181.057L41.6695 180.999L41.5885 180.94L41.5076 180.882L41.4919 180.872L41.4159 180.817L41.3352 180.758L41.2545 180.699L41.1738 180.64L41.0932 180.581L41.0128 180.522L40.9323 180.463L40.8519 180.404L40.8329 180.391L40.7607 180.338L40.6804 180.279L40.6002 180.219L40.5201 180.159L40.44 180.1L40.3599 180.04L40.28 179.98L40.2 179.92L40.1778 179.905L40.1094 179.854L40.0296 179.794L39.9498 179.734L39.8702 179.673L39.7906 179.613L39.711 179.553L39.6315 179.492L39.5521 179.432L39.5267 179.414L39.462 179.365L39.3827 179.304L39.3034 179.243L39.2242 179.182L39.1451 179.121L39.066 179.06L38.987 178.999L38.9081 178.938L38.8796 178.917L38.8185 178.87L38.7397 178.809L38.661 178.747L38.5822 178.686L38.5036 178.624L38.4251 178.562L38.3465 178.501L38.2681 178.439L38.2365 178.415L38.1791 178.37L38.1007 178.308L38.0225 178.246L37.9443 178.184L37.8661 178.122L37.7881 178.059L37.7101 177.997L37.6321 177.935L37.5975 177.908L37.5437 177.865L37.4659 177.803L37.3881 177.74L37.3104 177.677L37.2328 177.614L37.1552 177.551L37.0777 177.488L37.0002 177.425L36.9626 177.396L36.9124 177.355L36.8351 177.292L36.7578 177.229L36.6806 177.165L36.6035 177.102L36.5264 177.038L36.4494 176.975L36.3725 176.911L36.3319 176.878L36.2851 176.84L36.2084 176.776L36.1316 176.712L36.0549 176.648L35.9783 176.584L35.9018 176.52L35.8253 176.456L35.7489 176.391L35.7054 176.356L35.6621 176.32L35.5858 176.255L35.5097 176.191L35.4335 176.126L35.3574 176.062L35.2814 175.997L35.2054 175.932L35.1295 175.867L35.0831 175.828L35.0433 175.795L34.9675 175.73L34.8919 175.664L34.8162 175.599L34.7406 175.534L34.6651 175.468L34.5897 175.403L34.5143 175.338L34.4651 175.295L34.4287 175.265L34.3535 175.199L34.2783 175.133L34.2032 175.067L34.1282 175.001L34.0532 174.935L33.9783 174.869L33.9034 174.803L33.8514 174.758L33.8184 174.73L33.7438 174.663L33.6691 174.597L33.5945 174.53L33.52 174.464L33.4455 174.397L33.3712 174.331L33.2969 174.264L33.2421 174.215L33.2124 174.19L33.1383 174.123L33.0642 174.056L32.9901 173.989L32.9162 173.921L32.8422 173.854L32.7684 173.787L32.6946 173.72L32.6373 173.668L32.6109 173.645L32.5372 173.577L32.4636 173.51L32.3901 173.442L32.3167 173.374L32.2434 173.306L32.17 173.239L32.0968 173.171L32.0368 173.115L32.0136 173.095L31.9405 173.027L31.8675 172.959L31.7946 172.891L31.7217 172.822L31.6488 172.754L31.5761 172.685L31.5034 172.617L31.4409 172.558L31.4209 172.541L31.3483 172.472L31.2758 172.403L31.2034 172.334L31.1311 172.265L31.0588 172.197L30.9866 172.127L30.9145 172.058L30.8494 171.996L30.8325 171.981L30.7606 171.912L30.6887 171.843L30.6168 171.773L30.545 171.704L30.4733 171.634L30.4016 171.565L30.3301 171.495L30.2626 171.429L30.2488 171.417L30.1773 171.348L30.106 171.278L30.0347 171.208L29.9635 171.138L29.8923 171.067L29.8212 170.997L29.7502 170.927L29.6803 170.858L29.6696 170.849L29.5986 170.778L29.5279 170.708L29.4572 170.637L29.3864 170.567L29.3159 170.496L29.2454 170.425L29.1749 170.354L29.1046 170.283L29.093 170.274L29.0246 170.205L28.9544 170.133L28.8842 170.062L28.8141 169.991L28.7441 169.92L28.6742 169.849L28.6043 169.777L28.5345 169.706L28.5201 169.693L28.4552 169.626L28.3855 169.554L28.3159 169.483L28.2464 169.411L28.1769 169.339L28.1076 169.267L28.0383 169.195L27.969 169.123L27.9519 169.107L27.8904 169.043L27.8213 168.971L27.7523 168.899L27.6834 168.826L27.6145 168.754L27.5457 168.681L27.477 168.609L27.4083 168.536L27.3885 168.517L27.3303 168.455L27.2619 168.383L27.1934 168.31L27.125 168.237L27.0568 168.164L26.9886 168.091L26.9204 168.018L26.8524 167.945L26.8299 167.922L26.775 167.863L26.7071 167.79L26.6393 167.717L26.5715 167.643L26.5038 167.57L26.4362 167.496L26.3686 167.423L26.3012 167.349L26.2761 167.323L26.2245 167.267L26.1571 167.193L26.0899 167.119L26.0227 167.045L25.9556 166.971L25.8886 166.897L25.8217 166.823L25.7547 166.749L25.7271 166.719L25.6787 166.666L25.612 166.592L25.5453 166.517L25.4788 166.443L25.4123 166.368L25.3458 166.293L25.2795 166.219L25.2132 166.144L25.183 166.111L25.1379 166.061L25.0718 165.986L25.0057 165.911L24.9397 165.836L24.8738 165.761L24.8079 165.685L24.7422 165.61L24.6766 165.535L24.6439 165.499L24.6018 165.451L24.5364 165.376L24.4709 165.3L24.4055 165.224L24.3403 165.149L24.275 165.073L24.2098 164.997L24.1448 164.922L24.1098 164.882L24.0708 164.837L24.0059 164.761L23.9411 164.685L23.8763 164.609L23.8116 164.533L23.747 164.456L23.6825 164.38L23.618 164.304L23.5807 164.26L23.5447 164.219L23.4804 164.142L23.4162 164.066L23.3521 163.989L23.2879 163.912L23.224 163.836L23.1601 163.759L23.0962 163.682L23.0566 163.635L23.0236 163.596L22.9599 163.519L22.8963 163.442L22.8328 163.365L22.7693 163.288L22.7059 163.211L22.6427 163.133L22.5794 163.056L22.5375 163.005L22.5075 162.97L22.4445 162.892L22.3815 162.815L22.3186 162.737L22.2558 162.659L22.193 162.581L22.1303 162.504L22.0677 162.426L22.0236 162.371L21.9965 162.339L21.9341 162.261L21.8717 162.183L21.8094 162.105L21.7472 162.026L21.6851 161.948L21.623 161.87L21.5611 161.791L21.5149 161.733L21.4906 161.704L21.4287 161.625L21.3671 161.547L21.3054 161.468L21.2438 161.39L21.1823 161.311L21.1209 161.232L21.0596 161.153L21.0114 161.091L20.9898 161.065L20.9286 160.986L20.8675 160.907L20.8065 160.828L20.7456 160.749L20.6847 160.669L20.624 160.59L20.5632 160.511L20.513 160.445L20.4942 160.422L20.4337 160.342L20.3732 160.263L20.3128 160.183L20.2525 160.104L20.1923 160.024L20.1322 159.944L20.0721 159.864L20.0199 159.795L20.0037 159.775L19.9439 159.695L19.8841 159.615L19.8243 159.535L19.7647 159.455L19.7051 159.374L19.6456 159.294L19.5862 159.214L19.5321 159.141L19.5186 159.124L19.4593 159.044L19.4002 158.963L19.3411 158.883L19.282 158.802L19.2232 158.721L19.1643 158.64L19.1055 158.56L19.0496 158.483L19.0387 158.469L18.98 158.388L18.9215 158.307L18.8631 158.226L18.8047 158.145L18.7465 158.064L18.6883 157.983L18.6301 157.901L18.5725 157.821L18.564 157.811L18.5061 157.729L18.4482 157.648L18.3905 157.566L18.3328 157.485L18.2751 157.403L18.2176 157.321L18.1602 157.239L18.1028 157.158L18.0927 157.145L18.0375 157.066L17.9803 156.984L17.9231 156.902L17.8661 156.82L17.8092 156.738L17.7523 156.656L17.6955 156.574L17.6388 156.491L17.6264 156.475L17.5742 156.399L17.5177 156.317L17.4612 156.235L17.4049 156.152L17.3486 156.069L17.2923 155.987L17.2362 155.904L17.1802 155.821L17.1657 155.802L17.1163 155.729L17.0605 155.646L17.0047 155.563L16.949 155.48L16.8934 155.397L16.8378 155.314L16.7824 155.231L16.727 155.148L16.7104 155.124L16.6639 155.055L16.6087 154.972L16.5536 154.888L16.4986 154.805L16.4436 154.721L16.3888 154.638L16.334 154.554L16.2793 154.471L16.2606 154.443L16.217 154.377L16.1624 154.293L16.108 154.209L16.0537 154.126L15.9994 154.042L15.9452 153.958L15.8911 153.874L15.837 153.79L15.8164 153.759L15.7756 153.696L15.7217 153.611L15.6679 153.527L15.6143 153.443L15.5607 153.359L15.5071 153.274L15.4538 153.19L15.4004 153.105L15.3778 153.071L15.3396 153.011L15.2865 152.926L15.2334 152.841L15.1804 152.757L15.1275 152.672L15.0746 152.587L15.0219 152.502L14.9693 152.417L14.9448 152.379L14.9092 152.322L14.8568 152.237L14.8044 152.152L14.7521 152.067L14.6999 151.982L14.6478 151.896L14.5956 151.811L14.5437 151.726L14.5174 151.684L14.4845 151.63L14.4327 151.545L14.381 151.459L14.3294 151.374L14.2778 151.288L14.2264 151.202L14.1751 151.117L14.1238 151.031L14.0957 150.985L14.0654 150.935L14.0143 150.849L13.9632 150.763L13.9123 150.677L13.8615 150.591L13.8107 150.505L13.7601 150.419L13.7095 150.333L13.6797 150.283L13.6518 150.236L13.6015 150.15L13.5511 150.063L13.5009 149.977L13.4508 149.891L13.4007 149.804L13.3508 149.718L13.3009 149.631L13.2694 149.577L13.244 149.534L13.1944 149.447L13.1447 149.36L13.0952 149.274L13.0458 149.187L12.9964 149.1L12.9471 149.013L12.898 148.926L12.865 148.868L12.8419 148.829L12.7929 148.741L12.7441 148.654L12.6952 148.567L12.6465 148.48L12.5979 148.393L12.5493 148.305L12.5008 148.218L12.4663 148.156L12.4456 148.12L12.3973 148.032L12.3491 147.945L12.301 147.857L12.2529 147.77L12.205 147.682L12.1572 147.594L12.1094 147.506L12.0734 147.441L12.055 147.408L12.0074 147.32L11.9599 147.232L11.9126 147.144L11.8652 147.056L11.818 146.968L11.7709 146.88L11.7238 146.792L11.6864 146.722L11.6702 146.693L11.6233 146.605L11.5765 146.516L11.5299 146.428L11.4833 146.34L11.4368 146.251L11.3904 146.163L11.3441 146.074L11.3053 146L11.2912 145.975L11.2451 145.886L11.199 145.798L11.153 145.709L11.1072 145.62L11.0614 145.531L11.0157 145.442L10.9701 145.353L10.9301 145.275L10.9181 145.254L10.8726 145.165L10.8274 145.076L10.7821 144.987L10.7369 144.897L10.6919 144.808L10.6469 144.719L10.602 144.63L10.5609 144.548L10.5509 144.53L10.5062 144.44L10.4616 144.351L10.4171 144.261L10.3726 144.172L10.3283 144.082L10.2841 143.993L10.2399 143.903L10.1975 143.817L10.1895 143.802L10.1456 143.713L10.1017 143.623L10.0579 143.533L10.0143 143.443L9.9706 143.353L9.92713 143.263L9.88373 143.173L9.84032 143.083L9.83395 143.072L9.79094 142.982L9.74779 142.892L9.70468 142.802L9.6618 142.712L9.61891 142.621L9.57611 142.531L9.53348 142.441L9.49086 142.35L9.48284 142.335L9.4422 142.249L9.39984 142.158L9.3575 142.068L9.31529 141.977L9.27319 141.887L9.23111 141.796L9.18918 141.705L9.14734 141.614L9.13774 141.595L9.0995 141.513L9.05787 141.422L9.01631 141.331L8.97477 141.24L8.93343 141.149L8.89215 141.058L8.85087 140.967L8.80982 140.876L8.79869 140.853L8.76285 140.774L8.72187 140.683L8.68112 140.591L8.64036 140.5L8.59968 140.409L8.55918 140.317L8.51869 140.226L8.4783 140.135L8.46571 140.108L8.43222 140.032L8.39203 139.941L8.35193 139.849L8.31197 139.757L8.27204 139.666L8.23224 139.574L8.19255 139.482L8.15287 139.391L8.13888 139.36L8.10763 139.288L8.06823 139.196L8.02883 139.104L7.98963 139.012L7.95049 138.92L7.91135 138.828L7.87245 138.736L7.83359 138.644L7.81823 138.609L7.7891 138.541L7.75049 138.449L7.71188 138.356L7.67334 138.264L7.63501 138.172L7.59668 138.079L7.55844 137.987L7.52037 137.895L7.50375 137.856L7.47677 137.791L7.43884 137.699L7.40104 137.606L7.36327 137.514L7.32562 137.421L7.2881 137.328L7.2506 137.236L7.21326 137.143L7.19546 137.1L7.17057 137.039L7.13334 136.946L7.0963 136.853L7.05935 136.76L7.02239 136.668L6.98565 136.575L6.94896 136.482L6.91227 136.389L6.89335 136.342L6.87049 136.284L6.83407 136.191L6.79771 136.098L6.76156 136.005L6.72539 135.912L6.68933 135.819L6.65345 135.725L6.61757 135.632L6.59754 135.581L6.57657 135.527L6.54096 135.434L6.50537 135.341L6.46992 135.247L6.43458 135.154L6.39927 135.06L6.36412 134.967L6.32905 134.873L6.30799 134.818L6.28887 134.768L6.25403 134.674L6.21926 134.581L6.18449 134.487L6.14994 134.393L6.11545 134.299L6.08096 134.205L6.04673 134.111L6.02474 134.052L6.00746 134.006L5.97329 133.912L5.93934 133.818L5.90539 133.724L5.87152 133.63L5.83785 133.536L5.80417 133.442L5.7706 133.348L5.74777 133.284L5.73226 133.242L5.6989 133.148L5.66564 133.054L5.63252 132.959L5.59941 132.865L5.56646 132.771L5.53362 132.676L5.50079 132.582L5.47713 132.514L5.46332 132.476L5.43076 132.381L5.39821 132.287L5.36588 132.192L5.33361 132.098L5.30133 132.003L5.26931 131.908L5.23731 131.814L5.21282 131.742L5.20061 131.707L5.16889 131.613L5.13716 131.518L5.10552 131.423L5.07406 131.328L5.0426 131.233L5.01127 131.138L4.98009 131.043L4.95494 130.967L4.94432 130.937L4.91328 130.842L4.88239 130.747L4.85152 130.652L4.82079 130.556L4.79019 130.461L4.75959 130.366L4.72917 130.271L4.70346 130.191L4.69433 130.164L4.66402 130.069L4.63393 129.973L4.60388 129.878L4.57385 129.783L4.54406 129.687L4.5143 129.592L4.48455 129.497L4.45834 129.412L4.45066 129.389L4.42118 129.294L4.39176 129.198L4.36256 129.103L4.33336 129.007L4.30426 128.911L4.27532 128.816L4.24641 128.72L4.21964 128.631L4.21331 128.613L4.18468 128.517L4.15606 128.421L4.12756 128.325L4.09921 128.229L4.07087 128.134L4.04269 128.038L4.01461 127.942L3.98739 127.849L3.98236 127.834L3.9545 127.738L3.92673 127.642L3.89895 127.546L3.87141 127.45L3.84391 127.354L3.81641 127.258L3.78918 127.161L3.76196 127.065L3.75757 127.052L3.73071 126.957L3.70377 126.861L3.67684 126.765L3.64998 126.668L3.62332 126.572L3.59667 126.476L3.57013 126.379L3.54374 126.283L3.5384 126.266L3.51343 126.175L3.48719 126.078L3.46111 125.982L3.43505 125.885L3.40912 125.789L3.38332 125.692L3.35753 125.596L3.33191 125.499L3.32569 125.478L3.30255 125.39L3.27705 125.294L3.25177 125.197L3.22655 125.1L3.20133 125.004L3.17636 124.907L3.15143 124.81L3.12649 124.713L3.11946 124.688L3.09809 124.604L3.07344 124.507L3.04885 124.411L3.02447 124.314L3.00011 124.217L2.97583 124.12L2.95173 124.023L2.92766 123.926L2.91984 123.896L2.90004 123.817L2.87626 123.72L2.85247 123.623L2.82881 123.525L2.80531 123.428L2.78181 123.331L2.75847 123.234L2.73525 123.137L2.72673 123.103L2.70851 123.027L2.6855 122.93L2.66257 122.833L2.63965 122.736L2.61695 122.638L2.5943 122.541L2.57167 122.443L2.54929 122.346L2.54014 122.308L2.52351 122.237L2.50119 122.139L2.4791 122.042L2.45705 121.944L2.43504 121.847L2.41324 121.749L2.39148 121.652L2.36977 121.554L2.3601 121.512L2.34498 121.444L2.32349 121.347L2.30212 121.249L2.28092 121.151L2.25972 121.054L2.23866 120.956L2.21775 120.858L2.19684 120.76L2.18665 120.714L2.17291 120.65L2.15227 120.553L2.13167 120.455L2.11125 120.357L2.09091 120.259L2.07059 120.161L2.05049 120.063L2.03043 119.965L2.0198 119.915L2.00732 119.855L1.98754 119.757L1.9678 119.659L1.94807 119.561L1.92858 119.463L1.90913 119.365L1.88971 119.267L1.87052 119.169L1.85955 119.114L1.84838 119.059L1.82929 118.961L1.81041 118.862L1.79153 118.764L1.77276 118.666L1.75416 118.568L1.73556 118.47L1.71711 118.371L1.70587 118.313L1.69593 118.261L1.67766 118.163L1.65952 118.064L1.6415 117.966L1.62351 117.868L1.60569 117.769L1.58796 117.671L1.57026 117.573L1.55879 117.51L1.55 117.462L1.53258 117.364L1.51516 117.265L1.49799 117.167L1.48086 117.068L1.46373 116.97L1.44686 116.871L1.43002 116.773L1.41833 116.705L1.41058 116.662L1.39402 116.563L1.37746 116.465L1.36099 116.366L1.34472 116.267L1.32845 116.169L1.31229 116.07L1.29631 115.971L1.28455 115.9L1.27782 115.86L1.26197 115.762L1.24629 115.663L1.23063 115.564L1.21509 115.466L1.19971 115.367L1.18433 115.268L1.1691 115.169L1.15738 115.093L1.15161 115.058L1.13652 114.959L1.12164 114.86L1.10684 114.762L1.09204 114.663L1.07748 114.564L1.06297 114.465L1.04847 114.366L1.03681 114.286L1.03192 114.255L1.01771 114.156L1.00352 114.057L0.989582 113.958L0.975664 113.859L0.961787 113.76L0.948134 113.661L0.934509 113.562L0.922874 113.477L0.918763 113.45L0.905431 113.351L0.892105 113.252L0.87885 113.153L0.865812 113.054L0.852775 112.955L0.839841 112.856L0.827091 112.757L0.815637 112.668L0.812275 112.645L0.799684 112.546L0.787223 112.447L0.774778 112.348L0.7625 112.248L0.750326 112.149L0.738169 112.05L0.726204 111.951L0.715048 111.858L0.712381 111.839L0.700533 111.74L0.688879 111.64L0.67731 111.541L0.66575 111.442L0.65441 111.342L0.643138 111.243L0.631866 111.144L0.621077 111.047L0.619022 111.032L0.608039 110.933L0.597082 110.833L0.586388 110.734L0.575693 110.635L0.56505 110.535L0.554644 110.436L0.544238 110.336L0.533915 110.237L0.532014 110.222L0.522088 110.125L0.512 110.026L0.501999 109.926L0.492171 109.827L0.482377 109.727L0.47269 109.628L0.463153 109.528L0.453648 109.428L0.451498 109.41L0.442681 109.317L0.433467 109.217L0.424253 109.117L0.415203 109.018L0.406274 108.918L0.397349 108.819L0.388616 108.719L0.379979 108.62L0.377638 108.597L0.369878 108.508L0.361472 108.408L0.353122 108.308L0.344807 108.209L0.336712 108.109L0.328654 108.009L0.320633 107.91L0.312846 107.81L0.310403 107.783L0.303739 107.698L0.296011 107.598L0.288542 107.499L0.281098 107.399L0.27368 107.299L0.266505 107.199L0.25935 107.1L0.252244 107L0.249783 106.969L0.244131 106.888L0.237263 106.788L0.230495 106.688L0.223919 106.589L0.217342 106.489L0.210889 106.389L0.204601 106.289L0.198315 106.189L0.19587 106.154L0.191051 106.077L0.185061 105.977L0.179099 105.878L0.173267 105.778L0.167571 105.678L0.161898 105.578L0.156375 105.478L0.150975 105.379L0.148601 105.339L0.144579 105.266L0.139389 105.166L0.134295 105.067L0.129201 104.967L0.124326 104.867L0.119521 104.767L0.114716 104.667L0.110154 104.567L0.107953 104.523L0.104741 104.455L0.100263 104.355L0.0960093 104.255L0.091794 104.155L0.0876039 104.055L0.0836584 103.955L0.0797379 103.856L0.0758477 103.756L0.0738901 103.708L0.0714295 103.643L0.0678172 103.543L0.0642345 103.443L0.0609029 103.344L0.0575806 103.244L0.0543046 103.144L0.051267 103.044L0.0482337 102.944L0.0465113 102.891L0.0446222 102.831L0.0418777 102.731L0.0391411 102.632L0.0365145 102.532L0.034059 102.432L0.0316169 102.332L0.0292971 102.232L0.0271305 102.132L0.0257739 102.075L0.0244495 102.019L0.022435 101.919L0.0205816 101.819L0.0187408 101.719L0.0170322 101.62L0.015473 101.52L0.0139207 101.42L0.0125175 101.32L0.0116291 101.259L0.01083 101.207L0.00957091 101.107L0.00850921 101.007L0.0075346 100.907L0.00656969 100.807L0.00581268 100.707L0.00512684 100.607L0.00445609 100.507L0.00405015 100.442L0.00367552 100.395L0.00327858 100.295L0.00296936 100.195L0.00281684 100.095L0.00269026 99.9949L0.00268555 99.8949L0.00281487 99.7949L0.0029755 99.695L0.00310709 99.6257L0.0030863 99.5825L0.00353432 99.4825L0.00398226 99.3825L0.00461659 99.2825L0.00534653 99.1826L0.00607644 99.0826L0.00703307 98.9826L0.00804496 98.8827L0.00872709 98.8092L0.00898966 98.7702L0.0102836 98.6702L0.0115775 98.5702L0.0129347 98.4703L0.0145106 98.3703L0.0160868 98.2703L0.0177678 98.1703L0.0196262 98.0704L0.0210159 97.9927L0.0215379 97.9579L0.0235463 97.858L0.0256879 97.758L0.0278663 97.6581L0.0301931 97.5581L0.0326206 97.4582L0.0350705 97.3582L0.0377325 97.2583L0.0399254 97.1764L0.0406143 97.1458L0.0433755 97.0459L0.0463585 96.9459L0.0493776 96.846L0.052433 96.7461L0.0557228 96.6461L0.0590313 96.5462L0.0624052 96.4463L0.0654485 96.3603L0.0662621 96.3339L0.0698681 96.234L0.0735605 96.134L0.0774496 96.0341L0.0813371 95.9342L0.0853562 95.8343L0.0895253 95.7344L0.0936942 95.6345L0.0976012 95.5443L0.0984446 95.5221L0.102896 95.4222L0.107371 95.3224L0.112056 95.2225L0.116788 95.1227L0.121555 95.0228L0.126559 94.9229L0.131577 94.8231L0.136368 94.7287L0.137166 94.7107L0.142475 94.6109L0.147807 94.511L0.153206 94.4112L0.158804 94.3114L0.164419 94.2115L0.170136 94.1117L0.176024 94.0119L0.181844 93.9134L0.182541 93.8996L0.188614 93.7998L0.194792 93.7L0.200978 93.6003L0.207371 93.5005L0.213834 93.4007L0.22031 93.3009L0.227024 93.2012L0.233766 93.1014L0.234717 93.086L0.241304 92.9892L0.24833 92.8894L0.255386 92.7897L0.262495 92.69L0.269805 92.5903L0.277147 92.4905L0.284576 92.3908L0.292178 92.2911L0.293598 92.2716L0.300673 92.179L0.308443 92.0793L0.316349 91.9796L0.324255 91.88L0.332356 91.7803L0.340544 91.6806L0.348732 91.581L0.357159 91.4814L0.359108 91.4576L0.366615 91.3693L0.375124 91.2697L0.383873 91.1701L0.392641 91.0705L0.401465 90.9709L0.4105 90.8713L0.419559 90.7717L0.428705 90.6722L0.431251 90.6443L0.439138 90.5602L0.44849 90.4606L0.457959 90.3611L0.467594 90.2616L0.477231 90.1621L0.487029 90.0626L0.496946 89.9631L0.506862 89.8636L0.510087 89.8315L0.51822 89.7517L0.528421 89.6522L0.538646 89.5527L0.549113 89.4533L0.559594 89.3539L0.570135 89.2545L0.5809 89.1551L0.591668 89.0557L0.595613 89.0194L0.603871 88.9438L0.614929 88.8445L0.626009 88.7451L0.6372 88.6457L0.648546 88.5464L0.659908 88.4471L0.671417 88.3477L0.683052 88.2485L0.687781 88.2081L0.696141 88.1367L0.708011 88.0375L0.719936 87.9382L0.73187 87.8389L0.744058 87.7397L0.756265 87.6405L0.768513 87.5412L0.781002 87.442L0.786601 87.3975L0.795067 87.3304L0.807653 87.2312L0.820424 87.1321L0.833229 87.0329L0.846138 86.9338L0.859193 86.8346L0.872281 86.7355L0.885511 86.6364L0.892065 86.5878L0.900551 86.5249L0.913923 86.4258L0.927495 86.3268L0.941144 86.2278L0.954794 86.1287L0.968695 86.0297L0.982631 85.9307L0.996582 85.8317L1.00417 85.7789L1.0126 85.7203L1.02682 85.6214L1.04112 85.5224L1.05562 85.4235L1.07013 85.3246L1.08476 85.2257L1.09953 85.1268L1.11433 85.0279L1.12295 84.971L1.1312 84.9167L1.14628 84.8178L1.16137 84.719L1.17665 84.6202L1.19203 84.5214L1.2074 84.4226L1.22301 84.3238L1.23866 84.2251L1.24836 84.1642L1.25636 84.114L1.2723 84.0153L1.28823 83.9166L1.30426 83.8179L1.32047 83.7192L1.33669 83.6206L1.35303 83.522L1.36953 83.4233L1.38043 83.3583L1.38819 83.3124L1.40486 83.2138L1.42165 83.1153L1.43846 83.0167L1.45546 82.9182L1.47254 82.8197L1.48963 82.7211L1.50694 82.6227L1.51915 82.5536L1.52657 82.5119L1.54396 82.4135L1.56161 82.3151L1.57927 82.2166L1.59699 82.1182L1.61492 82.0199L1.63285 81.9215L1.6509 81.8232L1.66447 81.7501L1.67149 81.7126L1.68972 81.6143L1.70811 81.516L1.72661 81.4178L1.74513 81.3195L1.76384 81.2213L1.78262 81.1231L1.80142 81.0249L1.81639 80.9478L1.82294 80.9145L1.84203 80.8163L1.86114 80.7182L1.88049 80.6201L1.89985 80.522L1.91929 80.4239L1.93892 80.3259L1.95856 80.2279L1.97493 80.1468L1.98093 80.1176L2.00085 80.0196L2.02078 79.9217L2.04088 79.8237L2.06109 79.7258L2.0813 79.6279L2.10173 79.53L2.12222 79.4321L2.14006 79.3471L2.14543 79.3221L2.16618 79.2243L2.18697 79.1265L2.20779 79.0287L2.22884 78.931L2.24991 78.8332L2.27105 78.7355L2.29237 78.6378L2.31185 78.5488L2.31655 78.5279L2.33802 78.4303L2.35966 78.3327L2.38129 78.2351L2.40309 78.1375L2.425 78.0399L2.44691 77.9424L2.46904 77.8449L2.4902 77.7519L2.49416 77.7353L2.51637 77.6378L2.53884 77.5403L2.5613 77.4429L2.58383 77.3455L2.60658 77.2482L2.62933 77.1508L2.65219 77.0534L2.67511 76.9566L2.67826 76.944L2.70132 76.8467L2.72449 76.7495L2.74781 76.6523L2.77114 76.5551L2.79464 76.4578L2.81824 76.3607L2.84185 76.2635L2.86566 76.1664L2.86972 76.1507L2.89272 76.0573L2.91662 75.9602L2.94078 75.8631L2.96495 75.7661L2.98916 75.6691L3.0136 75.5722L3.03805 75.4752L3.06259 75.3783L3.06781 75.3585L3.09059 75.2694L3.11533 75.1725L3.1402 75.0757L3.1652 74.9789L3.19023 74.882L3.21542 74.7853L3.24069 74.6886L3.26599 74.5919L3.27246 74.568L3.29489 74.4832L3.32048 74.3865L3.34606 74.2898L3.3719 74.1933L3.39776 74.0967L3.42365 74.0001L3.44978 73.9036L3.47591 73.8071L3.48366 73.7793L3.50564 73.6986L3.53205 73.6022L3.55846 73.5058L3.58503 73.4094L3.61172 73.313L3.63841 73.2167L3.66529 73.1204L3.69225 73.0241L3.70135 72.9923L3.72285 72.9158L3.75005 72.8196L3.7773 72.7234L3.80457 72.6272L3.83208 72.5311L3.85961 72.435L3.8872 72.3389L3.91498 72.2429L3.92553 72.2071L3.94653 72.1349L3.97443 72.0389L4.00252 71.9429L4.03062 71.847L4.05884 71.7511L4.08721 71.6552L4.11557 71.5593L4.14411 71.4635L4.15616 71.4238L4.17659 71.3558L4.20525 71.26L4.23413 71.1643L4.26304 71.0686L4.29198 70.9729L4.32117 70.8773L4.35036 70.7817L4.37962 70.6861L4.39324 70.6424L4.41301 70.5787L4.44251 70.4831L4.47209 70.3876L4.50184 70.2922L4.5316 70.1967L4.56149 70.1013L4.59151 70.006L4.62154 69.9106L4.63677 69.8631L4.65581 69.8035L4.68612 69.7082L4.71643 69.6129L4.74697 69.5177L4.77755 69.4226L4.80815 69.3273L4.839 69.2322L4.86986 69.1372L4.88673 69.0857L4.90493 69.0303L4.93606 68.9353L4.96719 68.8403L4.99844 68.7453L5.02984 68.6504L5.06126 68.5555L5.09281 68.4606L5.12447 68.3658L5.14311 68.3105L5.16045 68.2592L5.19231 68.1644L5.22428 68.0697L5.25625 67.975L5.28843 67.8803L5.32067 67.7857L5.35291 67.6911L5.3854 67.5965L5.40588 67.5374L5.42229 67.4903L5.45486 67.3957L5.48764 67.3013L5.52043 67.2068L5.55332 67.1124L5.58637 67.0181L5.61941 66.9237L5.65262 66.8294L5.67499 66.7665L5.69042 66.7234L5.72377 66.6292L5.75728 66.535L5.79088 66.4409L5.8245 66.3467L5.85834 66.2526L5.8922 66.1585L5.9261 66.0645L5.95042 65.9978L5.96481 65.9589L5.99897 65.8649L6.03318 65.771L6.0676 65.6771L6.10203 65.5833L6.13654 65.4894L6.17123 65.3957L6.20592 65.3019L6.23219 65.2315L6.24545 65.1966L6.28042 65.1029L6.31538 65.0093L6.35054 64.9157L6.38577 64.8221L6.42102 64.7285L6.45648 64.6351L6.49198 64.5416L6.52025 64.4675L6.53229 64.4366L6.56806 64.3433L6.60385 64.2499L6.63969 64.1566L6.67572 64.0633L6.71177 63.9701L6.74791 63.8769L6.78422 63.7837L6.81466 63.7059L6.82545 63.6791L6.8619 63.586L6.8985 63.4929L6.93509 63.3999L6.97185 63.3069L7.00872 63.214L7.04558 63.1211L7.08265 63.0282L7.1153 62.9467L7.12478 62.9239L7.16193 62.8311L7.19933 62.7384L7.23672 62.6456L7.27416 62.553L7.31182 62.4604L7.34948 62.3677L7.38724 62.2752L7.42216 62.1901L7.43026 62.1712L7.46821 62.0788L7.50627 61.9863L7.54447 61.8939L7.58268 61.8015L7.62106 61.7092L7.65952 61.6169L7.698 61.5247L7.73522 61.436L7.74188 61.4211L7.78063 61.3289L7.81938 61.2368L7.85836 61.1447L7.89737 61.0527L7.9364 60.9606L7.97567 60.8687L8.01495 60.7767L8.05428 60.6848L8.05976 60.6731L8.09914 60.5817L8.13867 60.4899L8.17834 60.3981L8.21814 60.3064L8.25794 60.2147L8.29791 60.123L8.33797 60.0314L8.37804 59.9398L8.3853 59.9243L8.42371 59.8371L8.46406 59.7456L8.50441 59.6541L8.54497 59.5628L8.58557 59.4714L8.6262 59.3801L8.66704 59.2888L8.70791 59.1976L8.717 59.1783L8.75435 59.0951L8.79549 59.004L8.83662 58.9129L8.87785 58.8218L8.91925 58.7308L8.96064 58.6398L9.00216 58.5489L9.04381 58.458L9.0548 58.4349L9.0911 58.3559L9.13295 58.2651L9.17486 58.1744L9.21679 58.0836L9.25893 57.9929L9.3011 57.9023L9.34331 57.8117L9.38573 57.7211L9.39867 57.6944L9.4339 57.6195L9.4764 57.529L9.51908 57.4386L9.56181 57.3482L9.60461 57.2579L9.64756 57.1676L9.69053 57.0774L9.73362 56.9871L9.7486 56.9567L9.78268 56.8859L9.82591 56.7958L9.8693 56.7057L9.91279 56.6157L9.95628 56.5257L9.99999 56.4358L10.0437 56.3459L10.0875 56.256L10.1046 56.2219L10.1374 56.1552L10.1814 56.0654L10.2255 55.9757L10.2697 55.8861L10.314 55.7964L10.3583 55.7068L10.4028 55.6173L10.4474 55.5278L10.4666 55.4901L10.498 55.4274L10.5428 55.338L10.5876 55.2486L10.6326 55.1593L10.6776 55.0701L10.7227 54.9808L10.7679 54.8917L10.8132 54.8026L10.8345 54.7612L10.8646 54.7025L10.9101 54.6135L10.9557 54.5246L11.0013 54.4356L11.0471 54.3467L11.0929 54.2579L11.1388 54.1691L11.1848 54.0803L11.2085 54.0354L11.2371 53.9807L11.2833 53.8921L11.3296 53.8035L11.376 53.7149L11.4224 53.6264L11.469 53.5379L11.5156 53.4495L11.5624 53.3611L11.5883 53.3127L11.6155 53.262L11.6624 53.1737L11.7094 53.0855L11.7565 52.9973L11.8036 52.9091L11.851 52.8211L11.8983 52.733L11.9457 52.645L11.9741 52.5931L11.9997 52.5464L12.0473 52.4585L12.095 52.3706L12.1429 52.2828L12.1907 52.1951L12.2387 52.1073L12.2868 52.0197L12.3349 51.9321L12.3657 51.8767L12.3897 51.8339L12.4381 51.7464L12.4864 51.6589L12.535 51.5715L12.5836 51.4841L12.6322 51.3968L12.6811 51.3096L12.7299 51.2223L12.7632 51.1635L12.7854 51.1245L12.8345 51.0375L12.8837 50.9504L12.9329 50.8634L12.9822 50.7764L13.0316 50.6895L13.0811 50.6026L13.1307 50.5158L13.1665 50.4536L13.187 50.4185L13.2367 50.3318L13.2866 50.2451L13.3365 50.1585L13.3866 50.072L13.4367 49.9855L13.4868 49.899L13.5371 49.8126L13.5756 49.7471L13.5943 49.7158L13.6447 49.6294L13.6953 49.5432L13.7459 49.457L13.7966 49.3708L13.8475 49.2848L13.8983 49.1987L13.9493 49.1127L13.9904 49.0439L14.0072 49.0163L14.0584 48.9305L14.1096 48.8446L14.161 48.7588L14.2124 48.6731L14.2639 48.5874L14.3155 48.5018L14.3671 48.4162L14.4109 48.3441L14.4258 48.3203L14.4777 48.2348L14.5296 48.1494L14.5816 48.064L14.6338 47.9787L14.6859 47.8934L14.7382 47.8082L14.7906 47.7231L14.8371 47.6477L14.85 47.6277L14.9026 47.5427L14.9553 47.4576L15.0079 47.3727L15.0608 47.2878L15.1136 47.203L15.1666 47.1182L15.2197 47.0335L15.269 46.9549L15.2799 46.9385L15.3332 46.8539L15.3865 46.7694L15.4398 46.6848L15.4934 46.6004L15.5469 46.516L15.6005 46.4316L15.6543 46.3473L15.7065 46.2656L15.7154 46.2529L15.7692 46.1687L15.8233 46.0846L15.8774 46.0005L15.9315 45.9165L15.9858 45.8325L16.0401 45.7486L16.0945 45.6647L16.149 45.5809L16.157 45.5698L16.2109 45.4871L16.2656 45.4034L16.3204 45.3198L16.3752 45.2361L16.4301 45.1526L16.4851 45.0692L16.5402 44.9857L16.5954 44.9024L16.6058 44.8878L16.6581 44.809L16.7134 44.7258L16.7688 44.6426L16.8244 44.5595L16.8799 44.4764L16.9356 44.3934L16.9914 44.3104L17.0472 44.2275L17.06 44.2094L17.1107 44.1347L17.1667 44.0519L17.2228 43.9691L17.279 43.8864L17.3352 43.8038L17.3916 43.7212L17.448 43.6387L17.5045 43.5563L17.5199 43.5348L17.5687 43.4639L17.6255 43.3816L17.6822 43.2993L17.739 43.2171L17.796 43.135L17.853 43.0528L17.9101 42.9708L17.9673 42.8888L17.9852 42.864L18.0322 42.797L18.0896 42.7151L18.147 42.6333L18.2045 42.5515L18.2621 42.4698L18.3198 42.3882L18.3775 42.3065L18.4354 42.2251L18.4559 42.197L18.5011 42.1338L18.5591 42.0523L18.6172 41.971L18.6753 41.8897L18.7336 41.8085L18.7919 41.7273L18.8503 41.6462L18.9088 41.5651L18.932 41.5338L18.9753 41.4744L19.0339 41.3934L19.0927 41.3126L19.1515 41.2318L19.2104 41.151L19.2694 41.0703L19.3285 40.9897L19.3875 40.909L19.4135 40.8745L19.4548 40.8189L19.5141 40.7384L19.5735 40.658L19.633 40.5777L19.6925 40.4974L19.7521 40.4171L19.8119 40.337L19.8717 40.2569L19.9003 40.2192L19.9395 40.1672L19.9995 40.0873L20.0596 40.0073L20.1197 39.9275L20.1799 39.8477L20.2402 39.7679L20.3005 39.6883L20.361 39.6086L20.3925 39.5678L20.4296 39.5195L20.4902 39.4401L20.5509 39.3607L20.6116 39.2812L20.6725 39.202L20.7334 39.1227L20.7944 39.0435L20.8555 38.9644L20.8899 38.9205L20.9248 38.8759L20.986 38.7969L21.0474 38.7179L21.1088 38.639L21.1702 38.5602L21.2318 38.4815L21.2934 38.4028L21.3552 38.3241L21.3925 38.2772L21.4253 38.2362L21.4871 38.1577L21.5491 38.0793L21.6111 38.0009L21.6732 37.9226L21.7354 37.8443L21.7977 37.7661L21.86 37.6879L21.9003 37.638L21.9308 37.6006L21.9933 37.5226L22.0559 37.4446L22.1186 37.3668L22.1813 37.289L22.2441 37.2112L22.307 37.1335L22.37 37.0559L22.4133 37.003L22.4414 36.9691L22.5046 36.8916L22.5678 36.8142L22.6311 36.7368L22.6945 36.6595L22.7579 36.5822L22.8214 36.5051L22.8851 36.428L22.9315 36.3721L22.9572 36.3417L23.021 36.2648L23.0848 36.1878L23.1487 36.1109L23.2127 36.0342L23.2768 35.9575L23.3409 35.8807L23.4051 35.8042L23.4547 35.7455L23.478 35.7186L23.5423 35.6421L23.6068 35.5657L23.6714 35.4894L23.7359 35.413L23.8007 35.3369L23.8654 35.2607L23.9302 35.1846L23.983 35.1231L24.0038 35.0996L24.0688 35.0236L24.1339 34.9477L24.199 34.872L24.2642 34.7962L24.3295 34.7205L24.3949 34.6449L24.4603 34.5693L24.5162 34.505L24.5346 34.4849L24.6002 34.4095L24.6658 34.3341L24.7316 34.2589L24.7974 34.1836L24.8633 34.1084L24.9293 34.0334L24.9953 33.9583L25.0545 33.8913L25.0702 33.8745L25.1365 33.7996L25.2028 33.7248L25.2691 33.65L25.3355 33.5754L25.402 33.5007L25.4686 33.4261L25.5352 33.3517L25.5978 33.282L25.6109 33.2685L25.6776 33.1941L25.7446 33.1199L25.8115 33.0456L25.8785 32.9714L25.9456 32.8974L26.0128 32.8233L26.08 32.7494L26.1459 32.6771L26.1563 32.6668L26.2237 32.5929L26.2912 32.5192L26.3587 32.4456L26.4263 32.3719L26.494 32.2984L26.5618 32.2249L26.6296 32.1514L26.6976 32.0782L26.708 32.068L26.7746 31.9963L26.8426 31.923L26.9108 31.8499L26.979 31.7769L27.0473 31.7038L27.1156 31.6309L27.184 31.5581L27.2525 31.4853L27.2659 31.4721L27.3303 31.404L27.3989 31.3314L27.4676 31.2588L27.5364 31.1863L27.6053 31.1138L27.6742 31.0414L27.7432 30.9691L27.8123 30.8969L27.8287 30.8808L27.8907 30.8163L27.9599 30.7442L28.0292 30.6721L28.0986 30.6002L28.168 30.5283L28.2375 30.4564L28.3071 30.3848L28.3768 30.3131L28.3962 30.2941L28.4558 30.233L28.5256 30.1615L28.5955 30.0901L28.6654 30.0187L28.7354 29.9474L28.8055 29.8761L28.8757 29.8049L28.9459 29.7338L28.9684 29.7119L29.0255 29.6544L29.0959 29.5835L29.1664 29.5126L29.2369 29.4417L29.3075 29.371L29.3782 29.3003L29.4489 29.2296L29.5197 29.1591L29.5454 29.1344L29.6 29.0804L29.6709 29.01L29.742 28.9397L29.8131 28.8694L29.8842 28.7992L29.9555 28.7291L30.0267 28.659L30.0981 28.589L30.1269 28.5616L30.1791 28.5111L30.2505 28.4412L30.3221 28.3714L30.3938 28.3018L30.4655 28.2321L30.5373 28.1626L30.6091 28.0931L30.681 28.0237L30.7131 27.9936L30.7626 27.9463L30.8347 27.8771L30.9068 27.8079L30.979 27.7388L31.0513 27.6698L31.1236 27.6008L31.1961 27.5319L31.2685 27.4631L31.3039 27.4303L31.3507 27.3864L31.4234 27.3177L31.4961 27.2491L31.5688 27.1805L31.6416 27.1122L31.7145 27.0438L31.7874 26.9754L31.8605 26.9072L31.8992 26.8718L31.9433 26.8312L32.0165 26.7631L32.0898 26.6951L32.163 26.6271L32.2364 26.5593L32.3099 26.4915L32.3834 26.4238L32.4569 26.3561L32.499 26.3182L32.5404 26.2808L32.6141 26.2133L32.6879 26.1459L32.7618 26.0785L32.8356 26.0112L32.9096 25.9441L32.9837 25.877L33.0578 25.8098L33.1032 25.7694L33.1418 25.7352L33.2161 25.6683L33.2904 25.6014L33.3648 25.5347L33.4393 25.4681L33.5138 25.4014L33.5884 25.3349L33.663 25.2685L33.7119 25.2255L33.7476 25.1945L33.8225 25.1282L33.8973 25.062L33.9722 24.9958L34.0473 24.9298L34.1223 24.8637L34.1974 24.7978L34.2726 24.732L34.3249 24.6866L34.3578 24.6587L34.4332 24.593L34.5085 24.5274L34.584 24.4618L34.6595 24.3964L34.7351 24.331L34.8107 24.2656L34.8865 24.2004L34.9423 24.1527L34.9723 24.1278L35.0481 24.0627L35.1241 23.9977L35.2 23.9328L35.276 23.8679L35.3522 23.8032L35.4284 23.7384L35.5046 23.6738L35.564 23.6238L35.591 23.6019L35.6674 23.5374L35.7438 23.473L35.8203 23.4087L35.8969 23.3445L35.9735 23.2803L36.0502 23.2162L36.1269 23.1522L36.19 23.1L36.2139 23.081L36.2908 23.0172L36.3678 22.9533L36.4448 22.8897L36.5219 22.8261L36.599 22.7625L36.6762 22.699L36.7535 22.6356L36.8201 22.5812L36.841 22.5651L36.9184 22.5019L36.9959 22.4388L37.0734 22.3756L37.151 22.3127L37.2287 22.2498L37.3063 22.1869L37.3841 22.1241L37.4545 22.0676L37.4723 22.0544L37.5502 21.9917L37.6282 21.9292L37.7062 21.8668L37.7843 21.8044L37.8624 21.7421L37.9406 21.6799L38.0189 21.6177L38.093 21.5592L38.1076 21.5487L38.186 21.4867L38.2645 21.4248L38.343 21.363L38.4216 21.3012L38.5003 21.2396L38.579 21.178L38.6577 21.1165L38.7356 21.0559L38.747 21.0482L38.8259 20.9868L38.9048 20.9255L38.9839 20.8644L39.063 20.8033L39.1421 20.7422L39.2213 20.6813L39.3006 20.6204L39.3799 20.5596L39.3927 20.551L39.4698 20.4921L39.5492 20.4315L39.6287 20.3709L39.7083 20.3105L39.7879 20.2501L39.8676 20.1898L39.9474 20.1296L40.0272 20.0694L40.0434 20.0583L40.1176 20.0026L40.1976 19.9427L40.2775 19.8827L40.3576 19.823L40.4377 19.7632L40.5179 19.7035L40.5981 19.644L40.6784 19.5845L40.6981 19.571L40.7693 19.5184L40.8498 19.4591L40.9303 19.3998L41.0108 19.3406L41.0914 19.2816L41.1721 19.2225L41.2527 19.1636L41.3336 19.1048L41.3567 19.0889L41.4251 19.0394L41.5059 18.9807L41.5869 18.9222L41.6679 18.8636L41.7489 18.8052L41.8301 18.7469L41.9113 18.6885L41.9925 18.6303L42.0192 18.6122L42.0846 18.5658L42.1659 18.5078L42.2473 18.4498L42.3288 18.392L42.4103 18.3341L42.4919 18.2765L42.5736 18.2189L42.6553 18.1612L42.6855 18.1409L42.7479 18.0975L42.8297 18.0401L42.9115 17.9828L42.9935 17.9257L43.0755 17.8685L43.1575 17.8114L43.2397 17.7545L43.3218 17.6976L43.3556 17.6751L43.4149 17.6346L43.4972 17.5779L43.5795 17.5213L43.6619 17.4647L43.7444 17.4083L43.8269 17.3519L43.9094 17.2956L43.9921 17.2394L44.0295 17.2147L44.0856 17.1771L44.1684 17.1211L44.2512 17.0651L44.334 17.0092L44.417 16.9534L44.4999 16.8977L44.5829 16.842L44.666 16.7866L44.7071 16.7598L44.7601 16.725L44.8433 16.6696L44.9265 16.6144L45.0098 16.5592L45.0932 16.504L45.1766 16.449L45.26 16.3941L45.3436 16.3391L45.3884 16.3105L45.4381 16.2785L45.5218 16.2238L45.6054 16.1691L45.6892 16.1146L45.773 16.0602L45.8569 16.0058L45.9408 15.9515L46.0247 15.8973L46.0733 15.8666L46.1198 15.8373L46.2039 15.7834L46.288 15.7294L46.3722 15.6756L46.4564 15.6218L46.5406 15.5681L46.625 15.5145L46.7094 15.461L46.7618 15.4284L46.8049 15.4018L46.8895 15.3485L46.974 15.2953L47.0586 15.242L47.1433 15.189L47.228 15.136L47.3128 15.083L47.3976 15.0303L47.4538 14.9958L47.4936 14.9719L47.5785 14.9192L47.6636 14.8667L47.7486 14.8142L47.8337 14.7618L47.9188 14.7095L48.004 14.6572L48.0893 14.6051L48.1493 14.5689L48.1858 14.5475L48.2711 14.4955L48.3565 14.4436L48.442 14.3919L48.5275 14.3401L48.6131 14.2885L48.6987 14.237L48.7843 14.1855L48.8483 14.1476L48.8813 14.1288L48.9671 14.0775L49.0528 14.0262L49.1388 13.9752L49.2247 13.9242L49.3106 13.8732L49.3967 13.8224L49.4828 13.7717L49.5506 13.732L49.5802 13.7156L49.6664 13.6651L49.7526 13.6146L49.8389 13.5642L49.9252 13.5139L50.0116 13.4636L50.098 13.4135L50.1845 13.3635L50.2564 13.3222L50.2824 13.3082L50.369 13.2583L50.4557 13.2086L50.5424 13.1588L50.6291 13.1092L50.7159 13.0597L50.8027 13.0102L50.8896 12.9609L50.9654 12.9182L50.9879 12.9065L51.0749 12.8573L51.162 12.8083L51.2491 12.7593L51.3362 12.7103L51.4234 12.6615L51.5106 12.6128L51.5979 12.5641L51.6777 12.5199L51.6967 12.5105L51.784 12.4621L51.8715 12.4137L51.9589 12.3654L52.0465 12.3172L52.134 12.2691L52.2217 12.2211L52.3093 12.1731L52.3932 12.1275L52.4085 12.1203L52.4963 12.0726L52.5841 12.0249L52.672 11.9773L52.7599 11.9299L52.8479 11.8824L52.9359 11.8352L53.024 11.788L53.1118 11.7409L53.1236 11.7359L53.2118 11.6889L53.3 11.642L53.3882 11.595L53.4765 11.5483L53.5649 11.5016L53.6533 11.455L53.7417 11.4085L53.8302 11.3621L53.8452 11.3555L53.9303 11.311L54.0189 11.2648L54.1075 11.2186L54.1962 11.1726L54.2849 11.1267L54.3737 11.0807L54.4625 11.035L54.5514 10.9893L54.5702 10.9808L54.6519 10.939L54.7408 10.8935L54.8298 10.8481L54.9188 10.8027L55.008 10.7575L55.0971 10.7124L55.1862 10.6672L55.2755 10.6223L55.2981 10.6121L55.3764 10.5729L55.4657 10.528L55.5551 10.4834L55.6445 10.4388L55.7339 10.3942L55.8235 10.3499L55.913 10.3055L56.0026 10.2612L56.029 10.2493L56.1039 10.2127L56.1936 10.1686L56.2833 10.1246L56.3731 10.0808L56.4629 10.0369L56.5527 9.99324L56.6427 9.94967L56.7326 9.9061L56.7629 9.89248L56.8343 9.85836L56.9244 9.81503L57.0144 9.77175L57.1045 9.72864L57.1947 9.68559L57.2849 9.64257L57.3752 9.59974L57.4655 9.55695L57.4997 9.54171L57.5675 9.50995L57.658 9.46742L57.7484 9.42492L57.8388 9.38244L57.9294 9.34017L58.0199 9.29794L58.1105 9.25575L58.2012 9.21375L58.2393 9.197L58.3036 9.16765L58.3944 9.12575L58.4851 9.08404L58.5759 9.04233L58.6668 9.00073L58.7577 8.95928L58.8486 8.91783L58.9396 8.87653L58.9816 8.85832L59.0424 8.83131L59.1335 8.79013L59.2246 8.74914L59.3158 8.70821L59.4069 8.66731L59.4982 8.62661L59.5894 8.58595L59.6807 8.54531L59.7267 8.52571L59.7839 8.50097L59.8754 8.4606L59.9668 8.42025L60.0583 8.38012L60.1498 8.34002L60.2413 8.29995L60.333 8.26007L60.4246 8.22023L60.4746 8.19925L60.5281 8.17665L60.6199 8.13708L60.7116 8.09752L60.8034 8.05805L60.8953 8.01873L60.9871 7.97943L61.079 7.94026L61.171 7.90122L61.225 7.87892L61.2749 7.85846L61.367 7.8196L61.459 7.78083L61.5511 7.74207L61.6433 7.70351L61.7355 7.66501L61.8277 7.62652L61.92 7.58826L61.9781 7.56476L62.0242 7.54641L62.1166 7.50821L62.209 7.47024L62.3014 7.43228L62.3939 7.39437L62.4864 7.35668L62.5789 7.31899L62.6714 7.28139L62.7336 7.25675L62.7761 7.24045L62.8687 7.20304L62.9614 7.16573L63.0542 7.12858L63.1469 7.09145L63.2397 7.05443L63.3326 7.01755L63.4254 6.98069L63.4917 6.95494L63.5304 6.94058L63.6234 6.90398L63.7163 6.86739L63.8094 6.83099L63.9025 6.79465L63.9955 6.75833L64.0887 6.72224L64.1819 6.68618L64.2522 6.65934L64.2871 6.64684L64.3804 6.61105L64.4736 6.57527L64.5669 6.53954L64.6603 6.50403L64.7537 6.46851L64.8472 6.43307L64.9407 6.39782L65.0151 6.37006L65.0462 6.3594L65.1397 6.32428L65.2333 6.28931L65.3269 6.25436L65.4206 6.21953L65.5143 6.18484L65.608 6.15016L65.7017 6.11563L65.7804 6.08702L65.8076 6.07815L65.9014 6.04374L65.9953 6.00953L66.0891 5.9754L66.1831 5.94127L66.277 5.90737L66.371 5.8735L66.465 5.83964L66.5479 5.81023L66.5713 5.80306L66.6653 5.76947L66.7595 5.73594L66.8537 5.70261L66.9479 5.66929L67.0421 5.63606L67.1364 5.60302L67.2306 5.56998L67.3176 5.53973L67.3372 5.53417L67.4315 5.5014L67.5259 5.46867L67.6203 5.43604L67.7148 5.40355L67.8093 5.37108L67.9038 5.33876L67.9984 5.30655L68.0896 5.27557L68.1052 5.2716L68.1998 5.23959L68.2945 5.20767L68.3892 5.17576L68.4839 5.14405L68.5786 5.11241L68.6734 5.08077L68.7683 5.04936L68.8631 5.01799L68.8759 5.01514L68.9702 4.984L69.0651 4.95291L69.1601 4.92182L69.255 4.89079L69.3501 4.85996L69.4451 4.82915L69.5402 4.79842L69.6353 4.76789L69.6521 4.7638L69.7427 4.73482L69.8378 4.70441L69.933 4.67415L70.0283 4.64391L70.1235 4.61381L70.2188 4.58382L70.3141 4.55386L70.4095 4.52406L70.4303 4.5188L70.5171 4.49193L70.6125 4.46225L70.708 4.43276L70.8034 4.40336L70.8989 4.37396L70.9944 4.34478L71.09 4.31565L71.1855 4.28653L71.2105 4.28016L71.2935 4.25534L71.3891 4.22648L71.4848 4.19767L71.5805 4.1691L71.6762 4.14054L71.772 4.11203L71.8678 4.08374L71.9636 4.05544L71.9926 4.04803L72.0717 4.02505L72.1676 3.99704L72.2635 3.96903L72.3595 3.94117L72.4555 3.91343L72.5514 3.8857L72.6475 3.85814L72.7435 3.83068L72.7766 3.82229L72.8519 3.80114L72.948 3.77389L73.0441 3.74673L73.1403 3.71958L73.2365 3.69264L73.3327 3.66576L73.4289 3.63888L73.5252 3.61225L73.5624 3.60297L73.6339 3.58365L73.7301 3.55708L73.8265 3.53076L73.9229 3.50445L74.0193 3.47819L74.1157 3.45214L74.2122 3.42612L74.3086 3.40016L74.3499 3.39006L74.4175 3.37252L74.5141 3.34676L74.6106 3.32114L74.7072 3.29567L74.8038 3.27021L74.9004 3.2449L74.9971 3.21971L75.0938 3.19452L75.1392 3.18364L75.2029 3.16774L75.2996 3.14284L75.3963 3.11796L75.4932 3.09327L75.59 3.06864L75.6868 3.04404L75.7837 3.01967L75.8806 2.99533L75.9301 2.98369L75.9898 2.96934L76.0868 2.94527L76.1838 2.92124L76.2807 2.89725L76.3777 2.87346L76.4747 2.84972L76.5718 2.82602L76.6689 2.80252L76.7226 2.79026L76.7784 2.77748L76.8755 2.75411L76.9727 2.73092L77.0699 2.70773L77.167 2.68466L77.2643 2.66176L77.3615 2.63885L77.4588 2.6161L77.5167 2.60328L77.5685 2.592L77.6515 2.57244L77.7245 2.55517L77.7975 2.53799L77.8705 2.52083L77.9436 2.50388L78.0167 2.48697L78.0898 2.4701L78.1276 2.46195L78.151 2.45727L78.2242 2.44068L78.2973 2.42411L78.3706 2.40778L78.4438 2.39148L78.5171 2.37521L78.5904 2.35919L78.6637 2.34317L78.7057 2.33452L78.7252 2.33115L78.7986 2.31541L78.8719 2.29969L78.9453 2.28408L79.0188 2.26862L79.0923 2.25318L79.1658 2.23788L79.2393 2.22271L79.2855 2.2137L79.301 2.2116L79.3745 2.19662L79.4481 2.18176L79.5217 2.1669L79.5954 2.15224L79.669 2.13766L79.7427 2.12309L79.8164 2.10875L79.8669 2.09947L79.8784 2.09859L79.9521 2.08433L80.0259 2.07031L80.0997 2.0563L80.1735 2.04234L80.2473 2.02861L80.3212 2.0149L80.3951 2.00124L80.4498 1.99176L80.4572 1.99206L80.5312 1.97866L80.6051 1.96532L80.6791 1.95218L80.7531 1.93905L80.8271 1.92602L80.9012 1.91317L80.9752 1.90033L81.0342 1.89062L81.0376 1.89199L81.1117 1.87944L81.1858 1.86689L81.26 1.85451L81.3342 1.84223L81.4084 1.82997L81.4826 1.8179L81.5569 1.80591L81.6201 1.79604L81.6195 1.79842L81.6937 1.78667L81.7681 1.77498L81.8424 1.76331L81.9167 1.75186L81.9911 1.74047L82.0655 1.72908L82.1399 1.71795L82.2075 1.70809L82.2027 1.71142L82.2772 1.70036L82.3517 1.68953L82.4262 1.67871L82.5007 1.66796L82.5752 1.65742L82.6498 1.64688L82.7243 1.63645L82.7962 1.62666L82.7873 1.63088L82.862 1.62065L82.9366 1.61053L83.0113 1.60056L83.086 1.59062L83.1607 1.58082L83.2354 1.57114L83.3101 1.56148L83.3849 1.55198L83.3748 1.55655L83.4482 1.54741L83.523 1.53803L83.5978 1.52888L83.6726 1.51978L83.7475 1.51069L83.8224 1.50185L83.8973 1.49304L83.9722 1.48424L83.9662 1.48828L84.0356 1.48062L84.1106 1.4721L84.1855 1.46365Z" fill="white"/>
</svg>
