<svg width="200" height="200" viewBox="0 0 200 200" fill="none" xmlns="http://www.w3.org/2000/svg">
<path d="M117.512 197.503L117.455 197.508L117.377 197.52L117.279 197.537L117.182 197.554L117.084 197.572L116.997 197.586L116.949 197.588L116.852 197.605L116.754 197.622L116.657 197.639L116.559 197.655L116.502 197.66L116.424 197.671L116.326 197.688L116.228 197.704L116.131 197.72L116.043 197.733L115.996 197.735L115.898 197.751L115.8 197.767L115.702 197.783L115.605 197.798L115.547 197.803L115.469 197.813L115.372 197.828L115.274 197.844L115.176 197.859L115.088 197.871L115.041 197.873L114.943 197.888L114.845 197.903L114.747 197.918L114.649 197.932L114.591 197.936L114.514 197.945L114.416 197.96L114.318 197.974L114.22 197.988L114.131 198L114.084 198.001L113.986 198.015L113.888 198.029L113.79 198.043L113.692 198.057L113.634 198.06L113.557 198.069L113.459 198.082L113.361 198.095L113.263 198.109L113.173 198.12L113.127 198.12L113.029 198.133L112.931 198.146L112.833 198.159L112.735 198.172L112.676 198.175L112.599 198.182L112.501 198.195L112.403 198.207L112.304 198.219L112.215 198.23L112.169 198.229L112.071 198.241L111.972 198.253L111.874 198.265L111.776 198.277L111.716 198.28L111.64 198.286L111.542 198.298L111.444 198.309L111.345 198.321L111.255 198.33L111.21 198.329L111.111 198.34L111.013 198.352L110.915 198.362L110.816 198.373L110.756 198.375L110.681 198.381L110.582 198.392L110.484 198.402L110.385 198.413L110.295 198.421L110.25 198.42L110.151 198.43L110.053 198.44L109.954 198.45L109.856 198.46L109.796 198.462L109.72 198.466L109.622 198.476L109.523 198.486L109.425 198.495L109.334 198.503L109.289 198.501L109.19 198.51L109.092 198.519L108.993 198.528L108.895 198.537L108.834 198.538L108.759 198.542L108.661 198.551L108.562 198.559L108.463 198.568L108.372 198.575L108.328 198.572L108.229 198.581L108.13 198.589L108.032 198.597L107.933 198.605L107.872 198.605L107.797 198.609L107.699 198.616L107.6 198.624L107.502 198.631L107.41 198.638L107.366 198.634L107.267 198.642L107.169 198.649L107.07 198.656L106.971 198.663L106.91 198.663L106.835 198.665L106.737 198.672L106.638 198.679L106.539 198.685L106.447 198.691L106.404 198.687L106.305 198.693L106.206 198.7L106.107 198.706L106.009 198.712L105.947 198.711L105.873 198.713L105.774 198.718L105.675 198.724L105.577 198.73L105.484 198.734L105.441 198.73L105.342 198.736L105.243 198.741L105.145 198.746L105.046 198.751L104.984 198.75L104.91 198.751L104.811 198.755L104.713 198.76L104.614 198.765L104.521 198.768L104.478 198.764L104.379 198.768L104.281 198.772L104.182 198.777L104.083 198.781L104.02 198.779L103.947 198.779L103.848 198.783L103.75 198.787L103.651 198.79L103.557 198.793L103.515 198.788L103.416 198.791L103.318 198.795L103.219 198.798L103.12 198.801L103.057 198.799L102.984 198.798L102.885 198.801L102.787 198.803L102.688 198.806L102.594 198.808L102.552 198.802L102.453 198.805L102.354 198.807L102.256 198.809L102.157 198.812L102.094 198.809L102.021 198.807L101.922 198.809L101.824 198.811L101.725 198.813L101.63 198.814L101.589 198.807L101.49 198.809L101.392 198.81L101.293 198.812L101.194 198.813L101.13 198.809L101.058 198.807L100.959 198.808L100.861 198.809L100.762 198.81L100.667 198.81L100.626 198.803L100.528 198.804L100.429 198.804L100.33 198.804L100.231 198.805L100.167 198.801L100.096 198.797L99.9968 198.797L99.898 198.797L99.7992 198.797L99.7039 198.796L99.6637 198.789L99.5649 198.789L99.4662 198.788L99.3674 198.788L99.2686 198.787L99.2042 198.782L99.1331 198.778L99.0344 198.777L98.9356 198.776L98.8369 198.775L98.7412 198.773L98.7015 198.766L98.6027 198.764L98.504 198.763L98.4052 198.761L98.3065 198.76L98.2417 198.754L98.1712 198.75L98.0724 198.748L97.9737 198.746L97.875 198.744L97.7789 198.741L97.7397 198.733L97.641 198.731L97.5422 198.728L97.4435 198.726L97.3448 198.723L97.2797 198.717L97.2096 198.711L97.1109 198.709L97.0122 198.706L96.9135 198.703L96.8171 198.699L96.7784 198.691L96.6798 198.687L96.5811 198.684L96.4824 198.68L96.3837 198.677L96.3183 198.67L96.2487 198.664L96.15 198.66L96.0514 198.656L95.9528 198.652L95.856 198.648L95.8178 198.639L95.7192 198.634L95.6205 198.63L95.5219 198.626L95.4233 198.621L95.3576 198.614L95.2884 198.607L95.1899 198.602L95.0913 198.597L94.9927 198.592L94.8956 198.587L94.8579 198.578L94.7593 198.572L94.6608 198.567L94.5622 198.562L94.4637 198.556L94.3976 198.548L94.329 198.541L94.2305 198.535L94.132 198.529L94.0335 198.523L93.936 198.517L93.8988 198.507L93.8004 198.501L93.7019 198.494L93.6034 198.488L93.505 198.482L93.4386 198.473L93.3704 198.465L93.272 198.458L93.1735 198.451L93.0751 198.444L92.9773 198.437L92.9407 198.427L92.8423 198.42L92.7439 198.412L92.6455 198.405L92.5471 198.398L92.4804 198.389L92.4127 198.38L92.3144 198.372L92.216 198.364L92.1177 198.356L92.0196 198.348L91.9835 198.337L91.8852 198.329L91.7869 198.321L91.6886 198.313L91.5903 198.304L91.5233 198.295L91.4562 198.285L91.3579 198.276L91.2597 198.268L91.1614 198.259L91.0632 198.25L91.0273 198.239L90.9292 198.23L90.831 198.22L90.7328 198.211L90.6347 198.202L90.5673 198.191L90.5008 198.181L90.4026 198.171L90.3045 198.162L90.2063 198.152L90.1082 198.142L90.072 198.13L89.9744 198.12L89.8764 198.11L89.7783 198.1L89.6802 198.09L89.6126 198.079L89.5466 198.068L89.4485 198.057L89.3505 198.047L89.2525 198.036L89.1545 198.025L89.118 198.013L89.021 198.002L88.923 197.991L88.825 197.98L88.7271 197.969L88.6592 197.957L88.5937 197.945L88.4958 197.934L88.3979 197.922L88.3 197.91L88.2021 197.899L88.1654 197.886L88.0689 197.874L87.971 197.862L87.8732 197.85L87.7754 197.838L87.7072 197.826L87.6423 197.813L87.5445 197.801L87.4467 197.788L87.349 197.776L87.2512 197.763L87.2144 197.749L87.1415 197.714L87.1063 197.639L87.0711 197.563L87.0359 197.488L87.0008 197.425L86.9656 197.399L86.9304 197.324L86.8953 197.248L86.8602 197.173L86.8251 197.097L86.79 197.065L86.7549 197.008L86.7198 196.932L86.6848 196.857L86.6497 196.781L86.6147 196.717L86.5797 196.691L86.5446 196.616L86.5097 196.54L86.4747 196.464L86.4397 196.388L86.4048 196.354L86.3698 196.298L86.3349 196.222L86.3 196.146L86.2651 196.069L86.2302 196.005L86.1954 195.979L86.1605 195.903L86.1256 195.827L86.0908 195.75L86.056 195.674L86.0212 195.64L85.9865 195.583L85.9517 195.507L85.9169 195.43L85.8822 195.354L85.8475 195.288L85.8127 195.263L85.7781 195.186L85.7434 195.109L85.7087 195.033L85.674 194.956L85.6394 194.921L85.6048 194.865L85.5702 194.788L85.5356 194.711L85.501 194.634L85.4664 194.568L85.4319 194.542L85.3973 194.465L85.3628 194.388L85.3283 194.311L85.2938 194.234L85.2594 194.198L85.2249 194.142L85.1904 194.064L85.156 193.987L85.1216 193.91L85.0872 193.843L85.0528 193.817L85.0184 193.74L84.984 193.662L84.9497 193.585L84.9154 193.507L84.8811 193.471L84.8468 193.415L84.8125 193.337L84.7782 193.259L84.744 193.182L84.7097 193.114L84.6755 193.088L84.6413 193.011L84.6072 192.933L84.573 192.855L84.5388 192.777L84.5047 192.74L84.4705 192.683L84.4364 192.605L84.4024 192.527L84.3683 192.449L84.3342 192.38L84.3001 192.355L84.2661 192.277L84.2321 192.199L84.1981 192.12L84.1641 192.042L84.1301 192.004L84.0961 191.948L84.0622 191.869L84.0283 191.791L83.9944 191.712L83.9605 191.643L83.9266 191.618L83.8927 191.539L83.8589 191.461L83.8251 191.382L83.7913 191.303L83.7575 191.265L83.7237 191.208L83.6899 191.129L83.6562 191.051L83.6225 190.972L83.5888 190.902L83.555 190.876L83.5214 190.797L83.4877 190.718L83.4541 190.639L83.4205 190.56L83.3868 190.521L83.3532 190.465L83.3197 190.385L83.2861 190.306L83.2526 190.227L83.219 190.156L83.1855 190.131L83.152 190.052L83.1186 189.972L83.0851 189.893L83.0516 189.813L83.0182 189.773L82.9848 189.717L82.9514 189.637L82.918 189.558L82.8847 189.478L82.8513 189.406L82.818 189.381L82.7847 189.302L82.7514 189.222L82.7182 189.142L82.6849 189.062L82.6517 189.021L82.6184 188.965L82.5852 188.885L82.5521 188.805L82.5189 188.725L82.4857 188.653L82.4526 188.628L82.4195 188.548L82.3864 188.467L82.3533 188.387L82.3203 188.307L82.2872 188.265L82.2542 188.209L82.2212 188.129L82.1882 188.049L82.1552 187.968L82.1223 187.895L82.0893 187.87L82.0564 187.79L82.0235 187.709L81.9906 187.629L81.9578 187.548L81.9249 187.506L81.8921 187.449L81.8593 187.369L81.8265 187.288L81.7937 187.207L81.761 187.133L81.7282 187.108L81.6955 187.027L81.6628 186.947L81.6301 186.866L81.5975 186.785L81.5648 186.742L81.5322 186.686L81.4996 186.604L81.467 186.523L81.4344 186.442L81.4019 186.368L81.3693 186.343L81.3368 186.262L81.3043 186.18L81.2719 186.099L81.2394 186.018L81.207 185.974L81.1745 185.918L81.1421 185.836L81.1098 185.755L81.0774 185.674L81.045 185.598L81.0127 185.573L80.9804 185.492L80.9481 185.41L80.9158 185.328L80.8836 185.247L80.8514 185.202L80.8192 185.146L80.787 185.064L80.7548 184.983L80.7226 184.901L80.6905 184.824L80.6584 184.8L80.6263 184.718L80.5942 184.636L80.5622 184.554L80.5301 184.472L80.4981 184.426L80.4661 184.37L80.4341 184.288L80.4022 184.206L80.3702 184.124L80.3383 184.047L80.3064 184.022L80.2745 183.94L80.2427 183.858L80.2108 183.776L80.179 183.693L80.1472 183.647L80.1154 183.591L80.0837 183.509L80.0519 183.426L80.0202 183.344L79.9885 183.266L79.9568 183.241L79.9252 183.158L79.8935 183.076L79.8619 182.993L79.8303 182.911L79.7987 182.864L79.7671 182.808L79.7356 182.725L79.7041 182.642L79.6726 182.559L79.6411 182.481L79.6096 182.456L79.5782 182.373L79.5468 182.29L79.5154 182.207L79.484 182.124L79.4527 182.076L79.4213 182.021L79.39 181.937L79.3587 181.854L79.3274 181.771L79.2962 181.692L79.2649 181.667L79.2337 181.584L79.2026 181.501L79.1714 181.417L79.1402 181.334L79.1091 181.285L79.078 181.23L79.0469 181.146L79.0158 181.063L78.9848 180.979L78.9538 180.899L78.9228 180.875L78.8918 180.791L78.8608 180.707L78.8299 180.624L78.7989 180.54L78.7681 180.491L78.7372 180.435L78.7063 180.351L78.6755 180.267L78.6446 180.183L78.6138 180.103L78.5831 180.078L78.5523 179.994L78.5216 179.91L78.4909 179.826L78.4602 179.742L78.4295 179.692L78.3989 179.637L78.3683 179.552L78.3377 179.468L78.3071 179.384L78.2765 179.302L78.246 179.278L78.2155 179.194L78.185 179.11L78.1546 179.025L78.1241 178.941L78.0937 178.89L78.0633 178.834L78.0329 178.75L78.0025 178.666L77.9722 178.581L77.9419 178.499L77.9116 178.474L77.8813 178.39L77.8511 178.305L77.8208 178.22L77.7907 178.136L77.7605 178.084L77.7303 178.029L77.7002 177.944L77.67 177.859L77.64 177.774L77.6099 177.691L77.5798 177.667L77.5498 177.582L77.5198 177.497L77.4898 177.412L77.4598 177.327L77.4299 177.275L77.4 177.219L77.3701 177.134L77.3402 177.049L77.3104 176.964L77.2805 176.88L77.2507 176.856L77.221 176.771L77.1912 176.685L77.1615 176.6L77.1318 176.515L77.1021 176.462L77.0724 176.406L77.0428 176.321L77.0131 176.235L76.9835 176.15L76.954 176.065L76.9244 176.041L76.8949 175.956L76.8654 175.87L76.8359 175.784L76.8064 175.699L76.777 175.645L76.7476 175.59L76.7182 175.504L76.6888 175.418L76.6595 175.332L76.6302 175.247L76.6009 175.223L76.5716 175.137L76.5423 175.051L76.5131 174.965L76.4839 174.879L76.4548 174.825L76.4256 174.77L76.3965 174.684L76.3674 174.598L76.3383 174.511L76.3092 174.425L76.2801 174.401L76.2511 174.315L76.2221 174.229L76.1932 174.143L76.1642 174.056L76.1353 174.001L76.1064 173.946L76.0775 173.86L76.0487 173.773L76.0199 173.687L75.9911 173.6L75.9622 173.576L75.9335 173.49L75.9048 173.403L75.8761 173.316L75.8474 173.23L75.8187 173.174L75.7901 173.119L75.7615 173.032L75.7329 172.945L75.7044 172.859L75.6758 172.772L75.6473 172.747L75.6188 172.661L75.5903 172.574L75.5619 172.487L75.5335 172.4L75.5051 172.343L75.4767 172.288L75.4484 172.201L75.4201 172.114L75.3918 172.027L75.3635 171.94L75.3353 171.914L75.307 171.828L75.2789 171.741L75.2507 171.654L75.2225 171.567L75.1944 171.509L75.1663 171.455L75.1382 171.367L75.1102 171.28L75.0822 171.192L75.0542 171.105L75.0262 171.078L74.9982 170.993L74.9703 170.905L74.9424 170.817L74.9146 170.73L74.8867 170.672L74.8589 170.617L74.8311 170.53L74.8033 170.442L74.7756 170.354L74.7478 170.266L74.7201 170.239L74.6925 170.153L74.6648 170.066L74.6372 169.978L74.6096 169.89L74.582 169.831L74.5545 169.777L74.5269 169.689L74.4994 169.601L74.472 169.513L74.4445 169.425L74.4171 169.397L74.3897 169.311L74.3623 169.223L74.335 169.135L74.3077 169.046L74.2804 168.987L74.2531 168.933L74.2259 168.844L74.1986 168.756L74.1714 168.668L74.1443 168.579L74.1171 168.551L74.09 168.465L74.0629 168.377L74.0359 168.288L74.0088 168.2L73.9818 168.14L73.9548 168.085L73.9279 167.997L73.9009 167.908L73.874 167.82L73.8472 167.731L73.8203 167.702L73.7934 167.616L73.7667 167.527L73.7399 167.439L73.7131 167.35L73.6864 167.289L73.6597 167.235L73.633 167.146L73.6064 167.057L73.5798 166.968L73.5532 166.879L73.5266 166.849L73.5 166.764L73.4735 166.675L73.4471 166.586L73.4206 166.497L73.3942 166.435L73.3678 166.381L73.3414 166.292L73.315 166.203L73.2887 166.114L73.2623 166.024L73.2361 165.994L73.2098 165.908L73.1836 165.819L73.1574 165.73L73.1312 165.64L73.1051 165.578L73.079 165.524L73.0529 165.435L73.0268 165.345L73.0008 165.256L72.9748 165.166L72.9488 165.135L72.9228 165.05L72.8969 164.96L72.871 164.871L72.8451 164.781L72.8193 164.718L72.7935 164.664L72.7677 164.574L72.7419 164.485L72.7162 164.395L72.6904 164.305L72.6647 164.273L72.6391 164.188L72.6134 164.098L72.5878 164.008L72.5623 163.918L72.5367 163.855L72.5112 163.801L72.4857 163.711L72.4602 163.621L72.4348 163.531L72.4094 163.441L72.384 163.408L72.3587 163.323L72.3334 163.233L72.308 163.143L72.2828 163.053L72.2575 162.988L72.2323 162.935L72.2071 162.845L72.1819 162.754L72.1568 162.664L72.1317 162.574L72.1066 162.54L72.0815 162.455L72.0565 162.365L72.0315 162.275L72.0065 162.184L71.9816 162.119L71.9567 162.066L71.9318 161.975L71.9069 161.885L71.8821 161.794L71.8573 161.703L71.8325 161.669L71.8078 161.585L71.783 161.494L71.7584 161.403L71.7337 161.313L71.709 161.247L71.6844 161.193L71.6598 161.103L71.6353 161.012L71.6108 160.921L71.5863 160.83L71.5618 160.795L71.5374 160.711L71.513 160.62L71.4886 160.529L71.4642 160.438L71.4399 160.371L71.4156 160.318L71.3913 160.227L71.3671 160.136L71.3429 160.045L71.3187 159.954L71.2945 159.918L71.2704 159.834L71.2463 159.743L71.2222 159.652L71.1982 159.56L71.1742 159.493L71.1502 159.44L71.1262 159.349L71.1023 159.258L71.0784 159.166L71.0546 159.075L71.0307 159.039L71.0069 158.954L70.9831 158.863L70.9593 158.771L70.9356 158.68L70.9119 158.612L70.8882 158.559L70.8646 158.468L70.841 158.376L70.8174 158.284L70.7939 158.193L70.7703 158.156L70.7469 158.072L70.7234 157.98L70.6999 157.888L70.6765 157.796L70.6532 157.728L70.6298 157.675L70.6065 157.583L70.5832 157.492L70.5599 157.4L70.5367 157.308L70.5135 157.27L70.4903 157.186L70.4672 157.094L70.4441 157.002L70.421 156.91L70.398 156.841L70.3749 156.789L70.3519 156.697L70.329 156.604L70.306 156.512L70.2831 156.42L70.2603 156.382L70.2374 156.298L70.2146 156.206L70.1918 156.114L70.169 156.021L70.1463 155.952L70.1236 155.899L70.1009 155.807L70.0783 155.715L70.0557 155.622L70.0331 155.53L70.0106 155.491L69.988 155.407L69.9655 155.315L69.9431 155.222L69.9207 155.13L69.8982 155.059L69.8759 155.007L69.8535 154.915L69.8312 154.822L69.8089 154.729L69.7867 154.637L69.7645 154.597L69.7423 154.514L69.7201 154.421L69.698 154.328L69.6759 154.235L69.6538 154.164L69.6318 154.112L69.6098 154.019L69.5878 153.927L69.5659 153.834L69.5439 153.741L69.522 153.701L69.5002 153.617L69.4784 153.524L69.4566 153.431L69.4348 153.338L69.413 153.267L69.3913 153.215L69.3697 153.122L69.348 153.029L69.3264 152.936L69.3048 152.842L69.2833 152.802L69.2618 152.719L69.2403 152.625L69.2188 152.532L69.1974 152.439L69.176 152.366L69.1546 152.315L69.1333 152.221L69.1119 152.128L69.0906 152.035L69.0694 151.941L69.0482 151.9L69.027 151.817L69.0059 151.724L68.9848 151.63L68.9637 151.537L68.9426 151.464L68.9216 151.412L68.9006 151.319L68.8796 151.225L68.8587 151.131L68.8378 151.038L68.8169 150.996L68.796 150.913L68.7752 150.819L68.7545 150.726L68.7337 150.632L68.713 150.558L68.6923 150.507L68.6716 150.413L68.651 150.319L68.6304 150.225L68.6098 150.132L68.5893 150.089L68.5688 150.006L68.5483 149.912L68.5279 149.819L68.5075 149.725L68.4871 149.65L68.4668 149.599L68.4465 149.505L68.4262 149.411L68.4059 149.317L68.3857 149.223L68.3655 149.18L68.3454 149.097L68.3252 149.003L68.3052 148.909L68.2851 148.815L68.2651 148.74L68.2451 148.689L68.2251 148.595L68.2052 148.5L68.1853 148.406L68.1654 148.312L68.1456 148.268L68.1258 148.186L68.106 148.091L68.0863 147.997L68.0665 147.903L68.0469 147.827L68.0272 147.776L68.0076 147.682L67.988 147.587L67.9685 147.493L67.949 147.398L67.9294 147.354L67.91 147.272L67.8906 147.177L67.8712 147.083L67.8519 146.988L67.8325 146.912L67.8132 146.861L67.794 146.767L67.7747 146.672L67.7555 146.577L67.7364 146.483L67.7172 146.437L67.6981 146.356L67.6791 146.261L67.66 146.166L67.641 146.071L67.6221 145.994L67.6031 145.944L67.5842 145.849L67.5653 145.754L67.5465 145.659L67.5277 145.564L67.5089 145.519L67.4901 145.437L67.4715 145.342L67.4528 145.247L67.4341 145.152L67.4155 145.075L67.3969 145.024L67.3784 144.929L67.3599 144.834L67.3414 144.739L67.3229 144.644L67.3045 144.598L67.2861 144.516L67.2678 144.421L67.2495 144.326L67.2311 144.231L67.2129 144.153L67.1947 144.103L67.1765 144.007L67.1583 143.912L67.1402 143.817L67.1221 143.721L67.1041 143.674L67.086 143.593L67.068 143.498L67.0501 143.402L67.0322 143.307L67.0143 143.228L66.9964 143.179L66.9786 143.083L66.9608 142.988L66.943 142.892L66.9253 142.797L66.9076 142.749L66.89 142.668L66.8723 142.572L66.8547 142.477L66.8372 142.381L66.8196 142.302L66.8021 142.252L66.7847 142.157L66.7672 142.061L66.7499 141.965L66.7325 141.87L66.7151 141.821L66.6979 141.741L66.6806 141.645L66.6634 141.549L66.6462 141.453L66.629 141.373L66.6119 141.324L66.5948 141.228L66.5777 141.132L66.5607 141.036L66.5437 140.94L66.5267 140.892L66.5098 140.811L66.4929 140.715L66.476 140.619L66.4592 140.523L66.4425 140.443L66.4257 140.394L66.409 140.298L66.3923 140.202L66.3756 140.105L66.359 140.009L66.3424 139.96L66.3258 139.88L66.3093 139.783L66.2928 139.687L66.2764 139.591L66.26 139.51L66.2435 139.461L66.2272 139.365L66.2109 139.269L66.1946 139.172L66.1783 139.076L66.1621 139.026L66.1459 138.946L66.1298 138.85L66.1137 138.753L66.0976 138.657L66.0815 138.575L66.0655 138.527L66.0495 138.43L66.0336 138.334L66.0177 138.237L66.0018 138.141L65.986 138.09L65.9701 138.011L65.9544 137.914L65.9387 137.818L65.9229 137.721L65.9073 137.639L65.8916 137.59L65.876 137.494L65.8605 137.397L65.8449 137.301L65.8294 137.204L65.814 137.153L65.7985 137.073L65.7831 136.976L65.7678 136.88L65.7524 136.783L65.7372 136.7L65.7219 136.652L65.7066 136.555L65.6915 136.459L65.6763 136.362L65.6612 136.265L65.6461 136.213L65.6311 136.134L65.616 136.037L65.601 135.94L65.5861 135.843L65.5712 135.76L65.5563 135.712L65.5414 135.615L65.5266 135.518L65.5119 135.421L65.4971 135.324L65.4824 135.272L65.4677 135.193L65.4531 135.096L65.4385 134.999L65.4239 134.902L65.4094 134.818L65.3949 134.77L65.3804 134.673L65.366 134.576L65.3516 134.479L65.3372 134.382L65.3229 134.329L65.3086 134.25L65.2944 134.153L65.2801 134.055L65.266 133.958L65.2518 133.874L65.2377 133.826L65.2236 133.729L65.2096 133.632L65.1956 133.535L65.1816 133.437L65.1676 133.384L65.1537 133.305L65.1399 133.208L65.126 133.11L65.1122 133.013L65.0985 132.928L65.0847 132.881L65.071 132.783L65.0574 132.686L65.0438 132.589L65.0302 132.491L65.0166 132.437L65.0031 132.359L64.9896 132.261L64.9762 132.164L64.9628 132.066L64.9494 131.981L64.936 131.934L64.9227 131.836L64.9095 131.739L64.8962 131.641L64.883 131.544L64.8699 131.489L64.8567 131.411L64.8436 131.313L64.8306 131.216L64.8175 131.118L64.8046 131.032L64.7916 130.985L64.7787 130.887L64.7658 130.79L64.7529 130.692L64.7401 130.594L64.7274 130.539L64.7146 130.461L64.7019 130.363L64.6893 130.266L64.6766 130.168L64.664 130.081L64.6515 130.035L64.6389 129.937L64.6264 129.839L64.614 129.741L64.6015 129.643L64.5892 129.588L64.5768 129.51L64.5645 129.412L64.5522 129.314L64.54 129.216L64.5278 129.129L64.5156 129.083L64.5035 128.985L64.4914 128.887L64.4793 128.789L64.4673 128.691L64.4553 128.635L64.4433 128.557L64.4314 128.459L64.4196 128.361L64.4077 128.263L64.3959 128.176L64.3841 128.13L64.3724 128.032L64.3607 127.933L64.349 127.835L64.3373 127.737L64.3258 127.68L64.3142 127.603L64.3026 127.505L64.2912 127.407L64.2797 127.309L64.2683 127.221L64.2569 127.175L64.2456 127.077L64.2343 126.978L64.223 126.88L64.2118 126.782L64.2006 126.725L64.1894 126.648L64.1783 126.55L64.1672 126.451L64.1561 126.353L64.1451 126.264L64.1341 126.219L64.1232 126.12L64.1122 126.022L64.1014 125.924L64.0905 125.825L64.0797 125.767L64.069 125.691L64.0582 125.593L64.0475 125.494L64.0369 125.396L64.0263 125.306L64.0157 125.261L64.0051 125.163L63.9946 125.064L63.9841 124.966L63.9737 124.867L63.9633 124.809L63.9529 124.733L63.9426 124.634L63.9323 124.536L63.922 124.437L63.9118 124.347L63.9016 124.303L63.8915 124.204L63.8813 124.105L63.8713 124.007L63.8612 123.908L63.8512 123.849L63.8412 123.773L63.8313 123.675L63.8214 123.576L63.8116 123.477L63.8018 123.387L63.7919 123.343L63.7822 123.244L63.7725 123.145L63.7628 123.046L63.7532 122.948L63.7436 122.888L63.734 122.813L63.7245 122.714L63.715 122.615L63.7055 122.516L63.6961 122.426L63.6867 122.381L63.6774 122.283L63.6681 122.184L63.6588 122.085L63.6495 121.986L63.6404 121.926L63.6312 121.851L63.6221 121.752L63.613 121.653L63.6039 121.554L63.5949 121.463L63.5859 121.419L63.5769 121.32L63.5681 121.221L63.5592 121.122L63.5503 121.023L63.5415 120.963L63.5328 120.888L63.524 120.789L63.5154 120.69L63.5067 120.591L63.4981 120.499L63.4895 120.456L63.481 120.357L63.4725 120.258L63.464 120.159L63.4555 120.06L63.4472 119.999L63.4388 119.924L63.4305 119.825L63.4222 119.726L63.414 119.627L63.4057 119.534L63.3976 119.491L63.3894 119.392L63.3813 119.293L63.3733 119.194L63.3652 119.095L63.3573 119.033L63.3493 118.959L63.3414 118.86L63.3335 118.761L63.3257 118.662L63.3178 118.569L63.3101 118.526L63.3024 118.427L63.2947 118.327L63.287 118.228L63.2794 118.129L63.2718 118.067L63.2643 117.993L63.2568 117.894L63.2493 117.795L63.2419 117.695L63.2344 117.602L63.2271 117.559L63.2198 117.46L63.2125 117.361L63.2052 117.262L63.198 117.162L63.1908 117.1L63.1837 117.026L63.1766 116.927L63.1695 116.828L63.1625 116.728L63.1555 116.634L63.1485 116.592L63.1416 116.493L63.1347 116.393L63.1279 116.294L63.1211 116.195L63.1143 116.132L63.1076 116.058L63.1009 115.959L63.0942 115.86L63.0876 115.76L63.081 115.666L63.0745 115.624L63.068 115.525L63.0615 115.425L63.055 115.326L63.0487 115.226L63.0423 115.163L63.036 115.09L63.0297 114.99L63.0234 114.891L63.0172 114.792L63.011 114.697L63.0049 114.655L62.9988 114.556L62.9927 114.456L62.9867 114.357L62.9807 114.257L62.9748 114.193L62.9688 114.121L62.963 114.021L62.9571 113.922L62.9513 113.822L62.9455 113.727L62.9398 113.685L62.9341 113.586L62.9285 113.486L62.9228 113.387L62.9172 113.287L62.9117 113.223L62.9062 113.151L62.9007 113.051L62.8953 112.951L62.8899 112.852L62.8845 112.756L62.8792 112.715L62.8739 112.615L62.8687 112.516L62.8635 112.416L62.8583 112.317L62.8531 112.252L62.848 112.18L62.843 112.08L62.838 111.981L62.833 111.881L62.828 111.785L62.8231 111.744L62.8182 111.644L62.8134 111.545L62.8086 111.445L62.8038 111.345L62.7991 111.28L62.7944 111.208L62.7897 111.109L62.7851 111.009L62.7805 110.909L62.776 110.813L62.7715 110.772L62.767 110.673L62.7626 110.573L62.7582 110.473L62.7538 110.374L62.7495 110.308L62.7452 110.237L62.741 110.137L62.7368 110.037L62.7326 109.937L62.7284 109.84L62.7244 109.8L62.7203 109.701L62.7163 109.601L62.7123 109.501L62.7084 109.401L62.7044 109.335L62.7006 109.264L62.6967 109.164L62.6929 109.065L62.6892 108.965L62.6854 108.867L62.6817 108.828L62.6781 108.728L62.6745 108.628L62.6709 108.528L62.6674 108.428L62.6638 108.362L62.6604 108.291L62.657 108.191L62.6536 108.092L62.6502 107.992L62.6469 107.894L62.6436 107.855L62.6404 107.755L62.6372 107.655L62.634 107.555L62.6309 107.455L62.6278 107.388L62.6247 107.318L62.6217 107.218L62.6187 107.118L62.6158 107.018L62.6129 106.92L62.61 106.881L62.6072 106.781L62.6044 106.681L62.6016 106.582L62.5989 106.482L62.5962 106.414L62.5935 106.344L62.5909 106.244L62.5884 106.145L62.5858 106.045L62.5833 105.946L62.5809 105.907L62.5784 105.807L62.5761 105.708L62.5737 105.608L62.5714 105.508L62.5691 105.44L62.5668 105.37L62.5647 105.27L62.5625 105.171L62.5603 105.071L62.5583 104.971L62.5562 104.933L62.5542 104.833L62.5522 104.733L62.5503 104.633L62.5483 104.534L62.5465 104.465L62.5447 104.396L62.5428 104.296L62.5411 104.196L62.5394 104.096L62.5377 103.996L62.536 103.959L62.5344 103.859L62.5328 103.759L62.5313 103.659L62.5298 103.559L62.5283 103.49L62.5269 103.422L62.5255 103.322L62.5242 103.222L62.5229 103.122L62.5216 103.022L62.5203 102.984L62.5191 102.884L62.5179 102.784L62.5168 102.684L62.5157 102.584L62.5147 102.515L62.5137 102.447L62.5127 102.347L62.5117 102.247L62.5108 102.147L62.5099 102.047L62.5091 102.009L62.5083 101.91L62.5075 101.81L62.5068 101.71L62.5061 101.61L62.5055 101.54L62.5049 101.472L62.5043 101.372L62.5037 101.272L62.5032 101.172L62.5028 101.072L62.5023 101.034L62.502 100.935L62.5016 100.835L62.5013 100.735L62.501 100.635L62.5007 100.565L62.5005 100.497L62.5004 100.397L62.5002 100.298L62.5001 100.198L62.5001 100.098L62.5 100.058L62.5 99.9601L62.5001 99.8601L62.5001 99.7601L62.5003 99.6601L62.5004 99.5896L62.5006 99.5227L62.5009 99.4227L62.5011 99.3227L62.5014 99.2227L62.5018 99.1227L62.5021 99.0833L62.5025 98.9852L62.503 98.8853L62.5035 98.7853L62.504 98.6853L62.5046 98.6144L62.5052 98.5478L62.5058 98.4479L62.5065 98.3479L62.5072 98.2479L62.5079 98.1479L62.5087 98.1081L62.5095 98.0105L62.5104 97.9105L62.5113 97.8105L62.5122 97.7106L62.5132 97.6393L62.5142 97.5731L62.5152 97.4731L62.5163 97.3732L62.5174 97.2732L62.5185 97.1733L62.5197 97.133L62.521 97.0358L62.5222 96.9358L62.5235 96.8359L62.5249 96.7359L62.5262 96.6642L62.5276 96.5985L62.5291 96.4986L62.5305 96.3986L62.5321 96.2986L62.5336 96.1987L62.5352 96.158L62.5369 96.0613L62.5385 95.9613L62.5402 95.8614L62.542 95.7614L62.5438 95.6893L62.5456 95.624L62.5474 95.5241L62.5493 95.4242L62.5512 95.3242L62.5532 95.2243L62.5552 95.1833L62.5572 95.0869L62.5593 94.987L62.5614 94.8871L62.5636 94.7872L62.5658 94.7147L62.568 94.6498L62.5703 94.5499L62.5726 94.45L62.5749 94.3501L62.5773 94.2502L62.5797 94.2088L62.5821 94.1128L62.5846 94.0129L62.5871 93.9131L62.5896 93.8132L62.5923 93.7403L62.5949 93.6759L62.5975 93.576L62.6003 93.4761L62.603 93.3762L62.6058 93.2764L62.6086 93.2346L62.6115 93.1391L62.6143 93.0392L62.6173 92.9393L62.6202 92.8395L62.6232 92.7662L62.6263 92.7022L62.6293 92.6024L62.6325 92.5025L62.6356 92.4027L62.6388 92.3028L62.642 92.2606L62.6453 92.1656L62.6486 92.0658L62.6519 91.966L62.6553 91.8661L62.6587 91.7925L62.6621 91.7289L62.6656 91.6291L62.6691 91.5293L62.6727 91.4295L62.6763 91.3297L62.6799 91.2871L62.6836 91.1926L62.6873 91.0928L62.691 90.993L62.6949 90.8932L62.6987 90.8192L62.7025 90.7561L62.7064 90.6563L62.7103 90.5566L62.7143 90.4568L62.7183 90.357L62.7224 90.3141L62.7264 90.22L62.7306 90.1202L62.7347 90.0205L62.7389 89.9207L62.7431 89.8464L62.7474 89.7837L62.7517 89.684L62.756 89.5843L62.7604 89.4845L62.7648 89.3848L62.7693 89.3416L62.7737 89.2479L62.7783 89.1482L62.7829 89.0485L62.7874 88.9488L62.7921 88.8741L62.7968 88.8119L62.8014 88.7122L62.8062 88.6125L62.811 88.5128L62.8158 88.4132L62.8207 88.3695L62.8256 88.2763L62.8305 88.1767L62.8355 88.077L62.8405 87.9774L62.8455 87.9023L62.8506 87.8406L62.8557 87.7409L62.8609 87.6413L62.8661 87.5417L62.8713 87.4421L62.8766 87.3981L62.8819 87.3053L62.8872 87.2057L62.8926 87.1061L62.898 87.0065L62.9035 86.9311L62.909 86.8699L62.9145 86.7703L62.9201 86.6707L62.9257 86.5712L62.9313 86.4716L62.937 86.4273L62.9427 86.335L62.9485 86.2355L62.9542 86.1359L62.9601 86.0364L62.9659 85.9606L62.9718 85.8998L62.9778 85.8003L62.9837 85.7008L62.9897 85.6013L62.9958 85.5018L63.0019 85.4572L63.008 85.3653L63.0142 85.2659L63.0204 85.1664L63.0266 85.067L63.0329 84.9908L63.0392 84.9305L63.0455 84.8311L63.0519 84.7317L63.0583 84.6322L63.0648 84.5328L63.0713 84.4878L63.0778 84.3965L63.0844 84.2971L63.091 84.1977L63.0976 84.0983L63.1043 84.0219L63.111 83.962L63.1177 83.8626L63.1245 83.7633L63.1314 83.6639L63.1382 83.5646L63.1451 83.5192L63.1521 83.4284L63.159 83.3291L63.1661 83.2297L63.1731 83.1304L63.1802 83.0537L63.1873 82.9943L63.1945 82.895L63.2016 82.7957L63.2089 82.6964L63.2162 82.5972L63.2235 82.5515L63.2308 82.4612L63.2382 82.3619L63.2456 82.2627L63.2531 82.1634L63.2606 82.0863L63.2681 82.0275L63.2757 81.9283L63.2832 81.8291L63.2909 81.7299L63.2986 81.6307L63.3063 81.5847L63.314 81.4948L63.3218 81.3956L63.3296 81.2965L63.3375 81.1973L63.3454 81.1199L63.3533 81.0616L63.3613 80.9624L63.3693 80.8633L63.3773 80.7642L63.3855 80.6651L63.3936 80.6188L63.4017 80.5294L63.4099 80.4303L63.4181 80.3313L63.4264 80.2322L63.4347 80.1545L63.4431 80.0966L63.4514 79.9976L63.4599 79.8985L63.4683 79.7995L63.4768 79.7005L63.4853 79.6539L63.4939 79.565L63.5025 79.466L63.5111 79.367L63.5198 79.268L63.5285 79.19L63.5372 79.1326L63.546 79.0337L63.5548 78.9348L63.5637 78.8359L63.5725 78.7369L63.5815 78.69L63.5905 78.6016L63.5994 78.5027L63.6085 78.4039L63.6176 78.305L63.6266 78.2266L63.6358 78.1698L63.645 78.0709L63.6542 77.9721L63.6635 77.8733L63.6728 77.7745L63.6821 77.7272L63.6915 77.6394L63.7009 77.5406L63.7103 77.4418L63.7198 77.343L63.7293 77.2644L63.7388 77.208L63.7484 77.1093L63.758 77.0105L63.7677 76.9118L63.7774 76.8131L63.7871 76.7656L63.7969 76.6782L63.8067 76.5796L63.8165 76.4809L63.8264 76.3822L63.8364 76.3033L63.8463 76.2474L63.8563 76.1488L63.8663 76.0502L63.8764 75.9516L63.8865 75.853L63.8966 75.8051L63.9068 75.7183L63.917 75.6197L63.9272 75.5212L63.9375 75.4226L63.9478 75.3434L63.9582 75.288L63.9686 75.1895L63.979 75.091L63.9894 74.9925L63.9999 74.894L64.0105 74.8459L64.021 74.7596L64.0316 74.6611L64.0423 74.5627L64.0529 74.4643L64.0637 74.3847L64.0744 74.3299L64.0852 74.2315L64.096 74.1332L64.1069 74.0348L64.1178 73.9364L64.1287 73.888L64.1397 73.8022L64.1507 73.7039L64.1617 73.6056L64.1728 73.5072L64.1839 73.4274L64.1951 73.3732L64.2062 73.2749L64.2174 73.1766L64.2287 73.0783L64.24 72.9801L64.2513 72.9314L64.2627 72.8462L64.2741 72.748L64.2855 72.6498L64.297 72.5516L64.3085 72.4714L64.32 72.4177L64.3316 72.3196L64.3432 72.2214L64.3549 72.1233L64.3666 72.0252L64.3783 71.9762L64.3901 71.8915L64.4019 71.7934L64.4137 71.6953L64.4256 71.5973L64.4374 71.5169L64.4494 71.4637L64.4614 71.3657L64.4734 71.2677L64.4854 71.1697L64.4975 71.0717L64.5096 71.0224L64.5218 70.9383L64.534 70.8403L64.5462 70.7424L64.5584 70.6445L64.5707 70.5638L64.583 70.5111L64.5954 70.4133L64.6078 70.3154L64.6203 70.2175L64.6328 70.1197L64.6453 70.0701L64.6578 69.9865L64.6704 69.8887L64.683 69.7909L64.6956 69.6931L64.7084 69.6122L64.7211 69.5601L64.7338 69.4623L64.7466 69.3646L64.7594 69.2669L64.7723 69.1692L64.7852 69.1193L64.7981 69.0363L64.8111 68.9386L64.8241 68.841L64.8371 68.7433L64.8502 68.6621L64.8634 68.6106L64.8765 68.513L64.8897 68.4154L64.9029 68.3178L64.9161 68.2202L64.9295 68.1702L64.9428 68.0876L64.9561 67.9901L64.9695 67.8926L64.983 67.7951L64.9964 67.7137L65.0099 67.6627L65.0235 67.5652L65.037 67.4678L65.0507 67.3703L65.0643 67.2729L65.078 67.2226L65.0917 67.1407L65.1054 67.0433L65.1192 66.9459L65.133 66.8486L65.1469 66.7668L65.1608 66.7164L65.1747 66.6191L65.1886 66.5218L65.2026 66.4246L65.2167 66.3273L65.2307 66.2767L65.2448 66.1953L65.259 66.0981L65.2731 66.0009L65.2873 65.9037L65.3016 65.8217L65.3158 65.7718L65.3302 65.6747L65.3445 65.5776L65.3589 65.4805L65.3733 65.3834L65.3877 65.3325L65.4022 65.2517L65.4167 65.1546L65.4313 65.0576L65.4459 64.9606L65.4605 64.8783L65.4751 64.829L65.4898 64.732L65.5046 64.6351L65.5193 64.5381L65.5341 64.4412L65.5489 64.3901L65.5638 64.3098L65.5787 64.213L65.5936 64.1161L65.6086 64.0192L65.6236 63.9367L65.6386 63.888L65.6537 63.7912L65.6688 63.6944L65.6839 63.5976L65.6991 63.5008L65.7143 63.4495L65.7296 63.3698L65.7448 63.2731L65.7602 63.1764L65.7755 63.0797L65.7909 62.9969L65.8063 62.9488L65.8217 62.8522L65.8372 62.7555L65.8528 62.6589L65.8683 62.5623L65.8839 62.5107L65.8995 62.4316L65.9151 62.3351L65.9309 62.2385L65.9466 62.142L65.9623 62.059L65.9781 62.0115L65.994 61.915L66.0098 61.8185L66.0257 61.7221L66.0416 61.6257L66.0576 61.5738L66.0736 61.4953L66.0896 61.3989L66.1057 61.3026L66.1218 61.2062L66.1379 61.123L66.1541 61.0761L66.1703 60.9798L66.1865 60.8835L66.2028 60.7872L66.2191 60.6909L66.2354 60.6389L66.2518 60.561L66.2682 60.4648L66.2846 60.3686L66.3011 60.2724L66.3176 60.189L66.3342 60.1426L66.3508 60.0465L66.3674 59.9504L66.384 59.8543L66.4007 59.7582L66.4174 59.706L66.4341 59.6286L66.4509 59.5326L66.4677 59.4366L66.4845 59.3406L66.5014 59.257L66.5183 59.2112L66.5353 59.1152L66.5523 59.0193L66.5693 58.9234L66.5863 58.8276L66.6034 58.7751L66.6205 58.6983L66.6376 58.6025L66.6548 58.5067L66.672 58.4109L66.6893 58.327L66.7066 58.2818L66.7238 58.1861L66.7412 58.0903L66.7586 57.9946L66.776 57.8989L66.7935 57.8462L66.8109 57.7701L66.8284 57.6744L66.846 57.5788L66.8636 57.4832L66.8812 57.3991L66.8988 57.3546L66.9165 57.259L66.9342 57.1635L66.9519 57.068L66.9697 56.9724L66.9875 56.9195L67.0054 56.844L67.0232 56.7485L67.0411 56.6531L67.0591 56.5577L67.0771 56.4734L67.0951 56.4294L67.1131 56.3341L67.1312 56.2387L67.1493 56.1434L67.1674 56.0481L67.1856 55.995L67.2038 55.9201L67.2221 55.8248L67.2403 55.7296L67.2586 55.6344L67.277 55.5499L67.2953 55.5065L67.3137 55.4113L67.3322 55.3162L67.3506 55.2211L67.3691 55.126L67.3877 55.0726L67.4062 54.9983L67.4248 54.9033L67.4435 54.8082L67.4621 54.7132L67.4808 54.6286L67.4995 54.5858L67.5183 54.4908L67.5371 54.3959L67.5559 54.301L67.5748 54.2061L67.5937 54.1526L67.6126 54.0788L67.6315 53.984L67.6505 53.8892L67.6695 53.7944L67.6886 53.7095L67.7077 53.6673L67.7268 53.5726L67.746 53.4779L67.7651 53.3832L67.7843 53.2885L67.8036 53.2347L67.8229 53.1617L67.8422 53.067L67.8615 52.9724L67.8809 52.8778L67.9003 52.7927L67.9197 52.7512L67.9392 52.6567L67.9587 52.5622L67.9783 52.4677L67.9978 52.3732L68.0174 52.3193L68.037 52.2468L68.0567 52.1524L68.0764 52.058L68.0961 51.9636L68.1159 51.8783L68.1357 51.8374L68.1555 51.7431L68.1753 51.6488L68.1952 51.5545L68.2152 51.4603L68.2351 51.4061L68.2551 51.3343L68.2751 51.2401L68.2951 51.146L68.3152 51.0518L68.3353 50.9663L68.3554 50.926L68.3756 50.8319L68.3958 50.7379L68.416 50.6438L68.4363 50.5498L68.4566 50.4954L68.4769 50.4243L68.4973 50.3303L68.5177 50.2363L68.5381 50.1424L68.5586 50.0568L68.579 50.0171L68.5996 49.9232L68.6201 49.8294L68.6407 49.7355L68.6613 49.6417L68.6819 49.5872L68.7026 49.5166L68.7233 49.4229L68.7441 49.3292L68.7648 49.2355L68.7856 49.1496L68.8064 49.1106L68.8273 49.017L68.8482 48.9233L68.8691 48.8297L68.8901 48.7362L68.9111 48.6815L68.9321 48.6115L68.9531 48.518L68.9742 48.4245L68.9953 48.331L69.0164 48.245L69.0376 48.2067L69.0588 48.1132L69.08 48.0199L69.1013 47.9265L69.1226 47.8331L69.1439 47.7783L69.1653 47.709L69.1866 47.6157L69.2081 47.5224L69.2295 47.4292L69.251 47.343L69.2725 47.3053L69.294 47.2121L69.3156 47.1189L69.3372 47.0258L69.3588 46.9327L69.3805 46.8776L69.4022 46.809L69.4239 46.7159L69.4457 46.6229L69.4675 46.5299L69.4893 46.4435L69.5111 46.4064L69.533 46.3135L69.5549 46.2206L69.5768 46.1277L69.5988 46.0348L69.6208 45.9796L69.6428 45.9116L69.6649 45.8188L69.6869 45.726L69.7091 45.6332L69.7312 45.5467L69.7534 45.5103L69.7756 45.4176L69.7978 45.3249L69.8201 45.2322L69.8424 45.1396L69.8647 45.0842L69.8871 45.0169L69.9095 44.9243L69.9319 44.8318L69.9543 44.7393L69.9768 44.6526L69.9993 44.6168L70.0218 44.5243L70.0444 44.4319L70.067 44.3395L70.0896 44.2471L70.1123 44.1916L70.135 44.1248L70.1577 44.0325L70.1804 43.9403L70.2032 43.848L70.226 43.7611L70.2489 43.726L70.2717 43.6337L70.2946 43.5416L70.3175 43.4494L70.3405 43.3573L70.3635 43.3016L70.3865 43.2356L70.4095 43.1435L70.4326 43.0515L70.4557 42.9594L70.4788 42.8724L70.502 42.838L70.5251 42.746L70.5484 42.6541L70.5716 42.5622L70.5949 42.4703L70.6182 42.4144L70.6415 42.3491L70.6649 42.2572L70.6883 42.1655L70.7117 42.0737L70.7351 41.9865L70.7586 41.9527L70.7821 41.861L70.8057 41.7693L70.8292 41.6777L70.8528 41.5861L70.8764 41.5301L70.9001 41.4654L70.9238 41.3738L70.9475 41.2823L70.9712 41.1908L70.995 41.1034L71.0188 41.0703L71.0427 40.9789L71.0665 40.8874L71.0904 40.7961L71.1143 40.7047L71.1382 40.6486L71.1622 40.5845L71.1862 40.4932L71.2102 40.4019L71.2343 40.3107L71.2584 40.2232L71.2825 40.1907L71.3066 40.0996L71.3308 40.0084L71.355 39.9173L71.3792 39.8262L71.4035 39.7699L71.4278 39.7065L71.4521 39.6155L71.4764 39.5245L71.5008 39.4335L71.5252 39.3459L71.5496 39.3141L71.5741 39.2232L71.5986 39.1323L71.6231 39.0414L71.6476 38.9506L71.6722 38.8942L71.6968 38.8315L71.7214 38.7407L71.746 38.65L71.7707 38.5593L71.7954 38.4715L71.8202 38.4404L71.8449 38.3497L71.8697 38.2592L71.8945 38.1686L71.9194 38.078L71.9442 38.0214L71.9692 37.9594L71.9941 37.8689L72.019 37.7785L72.044 37.688L72.069 37.6001L72.0941 37.5697L72.1192 37.4793L72.1443 37.389L72.1694 37.2987L72.1945 37.2084L72.2197 37.1517L72.2449 37.0904L72.2702 37.0001L72.2954 36.9099L72.3207 36.8198L72.346 36.7317L72.3714 36.702L72.3967 36.6119L72.4221 36.5218L72.4476 36.4318L72.473 36.3418L72.4985 36.2849L72.524 36.2243L72.5496 36.1344L72.5751 36.0444L72.6007 35.9545L72.6263 35.8664L72.652 35.8373L72.6777 35.7475L72.7033 35.6577L72.7291 35.568L72.7548 35.4782L72.7806 35.4213L72.8064 35.3613L72.8323 35.2717L72.8581 35.182L72.884 35.0924L72.9099 35.0041L72.9359 34.9757L72.9618 34.8862L72.9878 34.7967L73.0138 34.7072L73.0399 34.6178L73.066 34.5607L73.0921 34.5014L73.1182 34.4121L73.1444 34.3227L73.1705 34.2334L73.1968 34.145L73.223 34.1173L73.2493 34.0281L73.2756 33.9388L73.3019 33.8496L73.3282 33.7605L73.3546 33.7033L73.381 33.6447L73.4074 33.5556L73.4339 33.4666L73.4603 33.3775L73.4868 33.289L73.5134 33.262L73.5399 33.1731L73.5665 33.0841L73.5931 32.9952L73.6197 32.9063L73.6464 32.849L73.6731 32.7912L73.6998 32.7023L73.7265 32.6136L73.7533 32.5249L73.7801 32.4362L73.8069 32.4099L73.8338 32.3213L73.8606 32.2326L73.8875 32.144L73.9144 32.0554L73.9414 31.998L73.9684 31.9408L73.9954 31.8523L74.0224 31.7638L74.0494 31.6754L74.0765 31.587L74.1036 31.5607L74.1307 31.4727L74.1579 31.3843L74.1851 31.296L74.2123 31.2077L74.2395 31.1502L74.2668 31.0937L74.294 31.0055L74.3213 30.9173L74.3487 30.8292L74.376 30.741L74.4034 30.7147L74.4308 30.6274L74.4583 30.5393L74.4857 30.4513L74.5132 30.3633L74.5407 30.3056L74.5682 30.2499L74.5958 30.162L74.6234 30.0741L74.651 29.9862L74.6787 29.8984L74.7063 29.8719L74.734 29.7853L74.7617 29.6976L74.7894 29.6099L74.8172 29.5222L74.845 29.4644L74.8728 29.4093L74.9007 29.3218L74.9285 29.2342L74.9564 29.1466L74.9843 29.0591L75.0122 29.0326L75.0402 28.9466L75.0682 28.8592L75.0962 28.7718L75.1242 28.6844L75.1523 28.6265L75.1804 28.5722L75.2085 28.4849L75.2366 28.3976L75.2648 28.3104L75.293 28.2232L75.3212 28.1965L75.3494 28.1113L75.3777 28.0242L75.406 27.9371L75.4343 27.85L75.4626 27.792L75.491 27.7384L75.5193 27.6514L75.5477 27.5645L75.5762 27.4775L75.6046 27.3906L75.6331 27.3638L75.6616 27.2794L75.6901 27.1925L75.7187 27.1058L75.7473 27.019L75.7759 26.9609L75.8045 26.908L75.8331 26.8213L75.8618 26.7347L75.8905 26.6481L75.9192 26.5615L75.948 26.5346L75.9767 26.4509L76.0055 26.3643L76.0343 26.2779L76.0632 26.1914L76.092 26.1332L76.1209 26.0811L76.1498 25.9947L76.1787 25.9084L76.2077 25.8221L76.2367 25.7358L76.2657 25.7088L76.2947 25.6258L76.3238 25.5396L76.3528 25.4534L76.382 25.3673L76.4111 25.3091L76.4402 25.2576L76.4694 25.1716L76.4986 25.0856L76.5278 24.9996L76.557 24.9136L76.5863 24.8866L76.6156 24.8043L76.6449 24.7184L76.6742 24.6326L76.7036 24.5467L76.733 24.4884L76.7623 24.4377L76.7918 24.352L76.8212 24.2663L76.8507 24.1806L76.8802 24.095L76.9097 24.0678L76.9392 23.9862L76.9688 23.9007L76.9984 23.8152L77.028 23.7297L77.0576 23.6713L77.0873 23.6213L77.117 23.5359L77.1467 23.4505L77.1764 23.3652L77.2061 23.2799L77.2359 23.2527L77.2657 23.1718L77.2955 23.0866L77.3254 23.0014L77.3552 22.9162L77.3851 22.8577L77.415 22.8085L77.4449 22.7234L77.4749 22.6384L77.5048 22.5533L77.5348 22.4683L77.5648 22.4411L77.5949 22.361L77.6249 22.276L77.655 22.1912L77.6851 22.1064L77.7153 22.0478L77.7454 21.9993L77.7756 21.9145L77.8058 21.8298L77.836 21.7451L77.8662 21.6604L77.8965 21.6331L77.9268 21.5537L77.9571 21.4691L77.9874 21.3846L78.0177 21.3001L78.0481 21.2414L78.0785 21.1937L78.1089 21.1093L78.1394 21.0249L78.1698 20.9405L78.2003 20.8562L78.2308 20.8288L78.2613 20.7501L78.2919 20.6659L78.3224 20.5817L78.353 20.4975L78.3836 20.4388L78.4142 20.3918L78.4449 20.3077L78.4756 20.2236L78.5063 20.1396L78.537 20.0556L78.5677 20.0281L78.5985 19.9502L78.6293 19.8664L78.6601 19.7825L78.6909 19.6986L78.7218 19.6398L78.7526 19.5935L78.7835 19.5098L78.8144 19.4261L78.8453 19.3424L78.8763 19.2588L78.9073 19.2312L78.9383 19.154L78.9693 19.0705L79.0003 18.987L79.0314 18.9035L79.0625 18.8446L79.0936 18.7991L79.1247 18.7156L79.1558 18.6323L79.187 18.5489L79.2181 18.4656L79.2494 18.438L79.2806 18.3616L79.3118 18.2784L79.3431 18.1952L79.3744 18.112L79.4057 18.0531L79.437 18.0083L79.4683 17.9252L79.4997 17.8422L79.5311 17.7592L79.5625 17.6763L79.594 17.6486L79.6254 17.5729L79.6569 17.49L79.6884 17.4072L79.7199 17.3244L79.7514 17.2654L79.7829 17.2214L79.8145 17.1387L79.8461 17.056L79.8777 16.9733L79.9094 16.8907L79.941 16.8629L79.9727 16.7881L80.0044 16.7055L80.0361 16.623L80.0678 16.5406L80.0996 16.4815L80.1313 16.4382L80.1631 16.3559L80.1949 16.2735L80.2268 16.1912L80.2586 16.109L80.2905 16.0811L80.3224 16.007L80.3543 15.9248L80.3862 15.8427L80.4182 15.7606L80.4501 15.7015L80.4821 15.6589L80.5142 15.5769L80.5462 15.4949L80.5782 15.413L80.6103 15.3311L80.6424 15.3032L80.6745 15.2298L80.7066 15.148L80.7387 15.0662L80.7709 14.9845L80.8031 14.9253L80.8353 14.8835L80.8675 14.8019L80.8998 14.7202L80.932 14.6386L80.9643 14.5571L80.9966 14.5291L81.0289 14.4565L81.0612 14.3751L81.0936 14.2936L81.126 14.2122L81.1584 14.153L81.1908 14.112L81.2232 14.0307L81.2556 13.9494L81.2881 13.8682L81.3206 13.787L81.3531 13.759L81.3856 13.6871L81.4182 13.606L81.4507 13.525L81.4833 13.4439L81.5159 13.3846L81.5485 13.3444L81.5812 13.2634L81.6138 13.1826L81.6465 13.1017L81.6792 13.0208L81.7119 12.9928L81.7446 12.9217L81.7774 12.8409L81.8101 12.7602L81.8429 12.6795L81.8757 12.6202L81.9085 12.5808L81.9414 12.5001L81.9742 12.4196L82.0071 12.3391L82.04 12.2586L82.0729 12.2305L82.1058 12.1602L82.1388 12.0798L82.1717 11.9995L82.2047 11.9191L82.2377 11.8598L82.2707 11.8211L82.3038 11.7409L82.3368 11.6607L82.3699 11.5805L82.403 11.5004L82.4361 11.4723L82.4692 11.4027L82.5023 11.3227L82.5355 11.2427L82.5687 11.1628L82.6019 11.1033L82.6351 11.0654L82.6683 10.9856L82.7015 10.9057L82.7348 10.826L82.7681 10.7462L82.8014 10.718L82.8347 10.6493L82.868 10.5696L82.9014 10.49L82.9348 10.4104L82.9681 10.3509L83.0015 10.3138L83.035 10.2343L83.0684 10.1548L83.1019 10.0754L83.1353 9.99605L83.1688 9.9678L83.2023 9.89986L83.2358 9.82056L83.2694 9.74128L83.3029 9.66209L83.3365 9.60259L83.3701 9.56622L83.4037 9.48712L83.4373 9.40803L83.4709 9.32896L83.5046 9.24996L83.5382 9.22169L83.5719 9.1545L83.6056 9.0756L83.6393 8.9967L83.6731 8.91785L83.7068 8.85832L83.7406 8.82272L83.7744 8.744L83.8082 8.66529L83.842 8.58657L83.8759 8.50795L83.9097 8.47965L83.9436 8.41322L83.9775 8.33471L84.0113 8.25619L84.0453 8.1777L84.0792 8.11815L84.1131 8.08334L84.1471 8.00496L84.1811 7.92664L84.2151 7.84832L84.2491 7.77006L84.2831 7.74174L84.3172 7.67608L84.3512 7.59793L84.3853 7.5198L84.4194 7.44168L84.4535 7.3821L84.4876 7.3481L84.5217 7.27007L84.5559 7.19213L84.5901 7.1142L84.6242 7.03629L84.6584 7.00796L84.6926 6.94311L84.7269 6.86531L84.7611 6.78756L84.7954 6.70982L84.8297 6.65019L84.864 6.61698L84.8983 6.53934L84.9326 6.46177L84.9669 6.38423L85.0013 6.30668L85.0356 6.27832L85.07 6.21427L85.1044 6.13683L85.1388 6.05948L85.1732 5.98214L85.2077 5.92245L85.2422 5.89004L85.2766 5.8128L85.3111 5.73558L85.3456 5.65843L85.3801 5.58128L85.4146 5.55287L85.4492 5.48961L85.4838 5.41256L85.5183 5.33558L85.5529 5.25863L85.5875 5.19891L85.6221 5.16729L85.6568 5.09043L85.6914 5.01358L85.7261 4.93683L85.7608 4.86007L85.7954 4.83161L85.8302 4.76917L85.8649 4.69251L85.8996 4.61588L85.9344 4.53933L85.9691 4.4796L86.0039 4.44875L86.0387 4.37229L86.0735 4.29584L86.1083 4.21944L86.1431 4.14308L86.178 4.1146L86.2128 4.05294L86.2477 3.97668L86.2826 3.90042L86.3175 3.82427L86.3524 3.76452L86.3873 3.73445L86.4223 3.65839L86.4572 3.58233L86.4922 3.5063L86.5272 3.43034L86.5622 3.40184L86.5972 3.34095L86.6322 3.2651L86.6672 3.18924L86.7023 3.11345L86.7374 3.0537L86.7724 3.02442L86.8075 2.94873L86.8426 2.87308L86.8777 2.79742L86.9129 2.72186L86.948 2.69335L86.9832 2.63324L87.0184 2.55778L87.0535 2.48232L87.0887 2.40689L87.1239 2.34714L87.1592 2.31867L87.1944 2.24336L87.2923 2.23066L87.39 2.21797L87.4877 2.20543L87.5388 2.19282L87.6208 2.18034L87.7186 2.16799L87.8164 2.15577L87.9143 2.14362L87.9968 2.13147L88.0475 2.1191L88.1453 2.10719L88.2432 2.09543L88.3411 2.08366L88.439 2.07205L88.4905 2.05999L88.5723 2.0483L88.6702 2.03687L88.7682 2.02563L88.8662 2.01443L88.9492 2.00306L88.9996 1.99122L89.0976 1.98028L89.1956 1.96943L89.2936 1.95862L89.3916 1.94796L89.4437 1.93645L89.5252 1.92556L89.6233 1.91503L89.7213 1.90477L89.8194 1.89452L89.903 1.88395L89.9531 1.87265L90.0512 1.86267L90.1493 1.85274L90.2475 1.84289L90.3456 1.8332L90.3983 1.82221L90.4795 1.81212L90.5776 1.80256L90.6758 1.79323L90.774 1.78392L90.8581 1.77419L90.908 1.76341L91.0062 1.75438L91.1044 1.74537L91.2026 1.73651L91.3009 1.72776L91.3541 1.71731L91.435 1.708L91.5333 1.69943L91.6315 1.69102L91.7298 1.68266L91.8145 1.6738L91.864 1.66351L91.9623 1.65543L92.0606 1.64736L92.1589 1.63946L92.2573 1.63167L92.311 1.62177L92.3916 1.61323L92.4899 1.60566L92.5883 1.59816L92.6867 1.59075L92.7719 1.58279L92.8211 1.57298L92.9195 1.56584L93.0179 1.55872L93.1164 1.55179L93.2148 1.54494L93.269 1.53564L93.3493 1.52784L93.4478 1.52126L93.5462 1.5147L93.6447 1.50822L93.7304 1.50116L93.7793 1.49182L93.8778 1.48565L93.9763 1.47948L94.0747 1.4735L94.1733 1.46761L94.228 1.45891L94.3079 1.45186L94.4065 1.44625L94.505 1.44065L94.6036 1.43513L94.6897 1.42893L94.7383 1.4201L94.8369 1.41485L94.9355 1.40968L95.034 1.40464L95.1326 1.39968L95.1879 1.39159L95.2675 1.38532L95.3661 1.38066L95.4647 1.37601L95.5633 1.37145L95.6499 1.36614L95.6982 1.35779L95.7968 1.35346L95.8955 1.34929L95.9941 1.34521L96.0928 1.34117L96.1485 1.33371L96.2278 1.32822L96.3264 1.32448L96.4251 1.32079L96.5238 1.31722L96.6109 1.31278L96.6589 1.30491L96.7575 1.3015L96.8562 1.29833L96.9549 1.29521L97.0536 1.2921L97.1099 1.28527L97.1888 1.28056L97.2875 1.27775L97.3862 1.27501L97.4849 1.27244L97.5725 1.26886L97.6202 1.26147L97.7189 1.25903L97.8176 1.25683L97.9163 1.25465L98.015 1.25251L98.0718 1.24631L98.1504 1.24235L98.2491 1.24047L98.3479 1.23873L98.4466 1.23712L98.5346 1.23441L98.582 1.22749L98.6807 1.22606L98.7795 1.22478L98.8782 1.22356L98.977 1.22243L99.0342 1.21683L99.1124 1.21361L99.2112 1.21268L99.31 1.21192L99.4088 1.21127L99.4972 1.20945L99.5442 1.20298L99.643 1.20255L99.7418 1.20219L99.8406 1.20194L99.9394 1.20181L99.997 1.19682L100.075 1.19433L100.174 1.19436L100.272 1.19457L100.371 1.19488L100.46 1.19398L100.507 1.18794L100.606 1.18852L100.704 1.18912L100.803 1.18979L100.902 1.19067L100.96 1.18631L101.038 1.18454L101.136 1.18555L101.235 1.18671L101.334 1.18799L101.423 1.18804L101.47 1.18242L101.569 1.18397L101.667 1.18553L101.766 1.18718L101.865 1.18901L101.924 1.18531L102.001 1.18422L102.099 1.18625L102.198 1.18837L102.297 1.19056L102.387 1.1916L102.433 1.18641L102.532 1.18891L102.63 1.19142L102.729 1.19405L102.828 1.19685L102.887 1.19381L102.964 1.1934L103.063 1.19643L103.161 1.19951L103.26 1.20263L103.35 1.20465L103.396 1.19991L103.495 1.20333L103.593 1.2068L103.692 1.21043L103.791 1.21416L103.85 1.2118L103.927 1.21208L104.026 1.2161L104.124 1.22014L104.223 1.22421L104.314 1.2272L104.359 1.2229L104.458 1.22725L104.557 1.23172L104.655 1.23632L104.754 1.24097L104.814 1.23932L104.89 1.24032L104.989 1.24527L105.087 1.25027L105.186 1.25535L105.277 1.25927L105.322 1.25538L105.421 1.26066L105.519 1.26614L105.618 1.2717L105.717 1.27727L105.777 1.27633L105.853 1.27805L105.951 1.28393L106.05 1.28988L106.149 1.29597L106.24 1.30082L106.285 1.29735L106.383 1.30359L106.482 1.31004L106.581 1.31657L106.679 1.32309L106.74 1.32283L106.815 1.32527L106.914 1.33208L107.013 1.33899L107.111 1.34608L107.203 1.35186L107.247 1.34881L107.346 1.35603L107.444 1.36343L107.543 1.37091L107.642 1.37844L107.703 1.37886L107.777 1.38198L107.876 1.38975L107.975 1.39764L108.073 1.40568L108.165 1.41243L108.209 1.40975L108.308 1.418L108.406 1.42633L108.505 1.43475L108.603 1.44329L108.665 1.44438L108.739 1.44817L108.838 1.45689L108.936 1.46576L109.035 1.47476L109.127 1.48249L109.171 1.48017L109.269 1.48942L109.368 1.49871L109.466 1.50805L109.564 1.51761L109.626 1.51941L109.7 1.52382L109.799 1.53351L109.897 1.54336L109.996 1.5533L110.088 1.56204L110.131 1.56008L110.23 1.57032L110.328 1.58056L110.427 1.59086L110.525 1.60139L110.587 1.60391L110.661 1.60894L110.759 1.61964L110.858 1.63045L110.956 1.6413L111.049 1.65109L111.092 1.64951L111.19 1.66067L111.288 1.67186L111.387 1.68316L111.485 1.69461L111.548 1.69787L111.621 1.70351L111.719 1.71522L111.817 1.72698L111.915 1.73875L112.009 1.74959L112.051 1.7484L112.149 1.76046L112.247 1.77261L112.346 1.78493L112.444 1.79729L112.507 1.80128L112.579 1.80757L112.678 1.82023L112.776 1.83295L112.874 1.84569L112.967 1.85752L113.009 1.85671L113.108 1.8697L113.206 1.88283L113.304 1.8961L113.402 1.90938L113.465 1.91414L113.537 1.9211L113.635 1.93466L113.733 1.94833L113.831 1.96208L113.925 1.97489L113.967 1.97443L114.065 1.98837L114.163 2.00247L114.261 2.0167L114.359 2.03092L114.423 2.03642L114.494 2.04403L114.592 2.05854L114.69 2.07312L114.788 2.08788L114.882 2.10167L114.923 2.10155L115.021 2.11645L115.119 2.13152L115.217 2.14669L115.315 2.16187L115.379 2.1681L115.45 2.17635L115.548 2.1918L115.646 2.20733L115.743 2.22306L115.838 2.23787L115.879 2.23806L115.976 2.25395L116.074 2.26997L116.172 2.28605L116.27 2.30225L116.334 2.30921L116.405 2.31804L116.502 2.33444L116.6 2.35093L116.698 2.36761L116.792 2.38343L116.833 2.38393L116.93 2.40083L117.028 2.41779L117.125 2.43477L117.223 2.45197L117.288 2.45969L117.358 2.46909L117.455 2.48643L117.553 2.50393L117.65 2.52149L117.745 2.53835L117.785 2.53916L117.883 2.55705L117.98 2.57494L118.078 2.59287L118.175 2.61103L118.24 2.61951L118.31 2.62947L118.407 2.6478L118.504 2.66624L118.602 2.68472L118.697 2.70266L118.737 2.70381L118.834 2.72257L118.931 2.74141L119.028 2.76034L119.125 2.77939L119.191 2.78866L119.26 2.79919L119.357 2.81847L119.454 2.83788L119.552 2.85728L119.647 2.87628L119.686 2.87776L119.783 2.89744L119.88 2.91718L119.977 2.93712L120.074 2.95709L120.14 2.96712L120.209 2.97823L120.306 2.99848L120.403 3.0188L120.5 3.03917L120.595 3.05923L120.634 3.06101L120.731 3.08164L120.828 3.10231L120.925 3.12321L121.022 3.14412L121.088 3.15492L121.156 3.16664L121.253 3.18784L121.349 3.20903L121.446 3.23041L121.542 3.25153L121.58 3.25355L121.677 3.27513L121.774 3.29682L121.87 3.31859L121.967 3.34045L122.033 3.35209L122.101 3.36433L122.198 3.38647L122.294 3.40862L122.391 3.43093L122.487 3.45313L122.525 3.45545L122.621 3.47791L122.718 3.5006L122.814 3.52331L122.911 3.54607L122.977 3.55855L123.045 3.57136L123.141 3.59439L123.237 3.61752L123.334 3.64078L123.43 3.66401L123.467 3.66663L123.564 3.69005L123.66 3.71367L123.756 3.73731L123.852 3.76103L123.919 3.77432L123.986 3.78768L124.082 3.81161L124.178 3.83572L124.274 3.85993L124.371 3.88413L124.408 3.88713L124.504 3.91151L124.6 3.936L124.696 3.96059L124.792 3.98532L124.859 3.99936L124.925 4.01327L125.021 4.03815L125.117 4.06319L125.213 4.08834L125.309 4.11349L125.347 4.11699L125.442 4.14223L125.538 4.16766L125.634 4.19316L125.729 4.21886L125.797 4.23371L125.863 4.24811L125.958 4.27396L126.054 4.29994L126.15 4.32599L126.245 4.35214L126.283 4.35619L126.378 4.38218L126.474 4.40855L126.569 4.435L126.665 4.46162L126.732 4.47732L126.798 4.49219L126.893 4.51903L126.988 4.54595L127.084 4.57287L127.179 4.60002L127.218 4.60466L127.312 4.63137L127.407 4.65867L127.502 4.68613L127.598 4.7136L127.665 4.73016L127.73 4.74554L127.825 4.77332L127.921 4.80118L128.016 4.82905L128.111 4.85711L128.15 4.86236L128.243 4.88982L128.338 4.91804L128.433 4.94645L128.528 4.97485L128.596 4.99224L128.66 5.00817L128.755 5.03685L128.85 5.06561L128.945 5.09448L129.04 5.12344L129.079 5.12925L129.172 5.15748L129.267 5.18665L129.361 5.21598L129.456 5.24532L129.524 5.26352L129.588 5.27999L129.683 5.3096L129.777 5.33922L129.872 5.36908L129.967 5.39896L130.006 5.40532L130.098 5.4343L130.193 5.46446L130.287 5.49464L130.382 5.52493L130.45 5.54404L130.513 5.56095L130.607 5.59149L130.702 5.62207L130.796 5.65283L130.89 5.68364L130.93 5.69061L131.022 5.72034L131.116 5.75143L131.21 5.78251L131.304 5.81375L131.373 5.83372L131.435 5.85108L131.53 5.88253L131.624 5.91409L131.718 5.94573L131.812 5.97745L131.852 5.98505L131.943 6.0155L132.036 6.0475L132.13 6.07953L132.224 6.11168L132.293 6.13253L132.355 6.15037L132.449 6.18267L132.542 6.21522L132.636 6.24779L132.73 6.28038L132.77 6.28862L132.86 6.31983L132.954 6.3527L133.048 6.38566L133.141 6.41877L133.21 6.44045L133.272 6.45876L133.365 6.49202L133.459 6.52545L133.552 6.55893L133.645 6.59248L133.686 6.60132L133.776 6.63326L133.869 6.66701L133.962 6.70093L134.055 6.73495L134.124 6.75745L134.185 6.77622L134.279 6.81047L134.372 6.84476L134.465 6.87915L134.558 6.91368L134.599 6.92308L134.688 6.95572L134.781 6.99039L134.873 7.02523L134.966 7.06016L135.036 7.08355L135.096 7.10273L135.189 7.13793L135.282 7.17314L135.374 7.20842L135.467 7.24389L135.508 7.25392L135.596 7.28722L135.689 7.32284L135.782 7.35858L135.874 7.39441L135.944 7.41871L136.003 7.43832L136.096 7.47442L136.188 7.51054L136.281 7.54673L136.373 7.58311L136.415 7.59379L136.502 7.62772L136.594 7.66431L136.687 7.70096L136.779 7.73762L136.848 7.76286L136.908 7.78293L137 7.81987L137.092 7.8569L137.184 7.89407L137.276 7.93129L137.318 7.94263L137.405 7.97723L137.496 8.01473L137.588 8.05228L137.68 8.08986L137.75 8.11598L137.808 8.13649L137.9 8.17431L137.992 8.21226L138.084 8.25035L138.175 8.28843L138.217 8.30042L138.303 8.33573L138.395 8.37408L138.487 8.41254L138.578 8.45108L138.648 8.47804L138.706 8.49898L138.797 8.5377L138.889 8.57653L138.98 8.61553L139.071 8.65452L139.114 8.66712L139.199 8.70314L139.29 8.74239L139.381 8.78168L139.472 8.82118L139.542 8.84904L139.6 8.87035L139.691 8.90997L139.782 8.94974L139.873 8.98959L139.964 9.02948L140.006 9.04273L140.091 9.07942L140.182 9.11956L140.273 9.15974L140.363 9.20013L140.433 9.22891L140.49 9.25056L140.581 9.29115L140.671 9.33181L140.762 9.37249L140.853 9.41335L140.895 9.42726L140.979 9.46453L141.07 9.50557L141.16 9.5467L141.25 9.58793L141.32 9.61761L141.377 9.63967L141.467 9.68112L141.557 9.72268L141.648 9.76425L141.738 9.806L141.78 9.82059L141.864 9.85847L141.954 9.90036L142.044 9.94243L142.134 9.98452L142.204 10.0151L142.26 10.0375L142.349 10.0799L142.439 10.1223L142.529 10.1648L142.619 10.2074L142.662 10.2227L142.744 10.2612L142.834 10.3039L142.924 10.3469L143.013 10.3899L143.083 10.4213L143.139 10.4442L143.228 10.4874L143.317 10.5307L143.407 10.5741L143.496 10.6176L143.539 10.6335L143.621 10.6726L143.71 10.7163L143.8 10.7601L143.889 10.8039L143.959 10.8363L144.014 10.8595L144.103 10.9036L144.192 10.9478L144.281 10.9921L144.369 11.0364L144.413 11.053L144.494 11.0927L144.583 11.1373L144.672 11.1819L144.76 11.2267L144.83 11.26L144.884 11.2836L144.973 11.3285L145.062 11.3735L145.15 11.4187L145.239 11.4639L145.282 11.4812L145.363 11.5215L145.451 11.5669L145.539 11.6124L145.628 11.6581L145.698 11.6924L145.751 11.7162L145.839 11.762L145.928 11.808L146.016 11.854L146.104 11.9L146.148 11.918L146.227 11.9589L146.315 12.0052L146.403 12.0515L146.491 12.098L146.561 12.1333L146.614 12.1574L146.702 12.2041L146.789 12.2509L146.877 12.2978L146.965 12.3447L147.008 12.3634L147.087 12.4048L147.175 12.452L147.262 12.4992L147.35 12.5466L147.42 12.5827L147.472 12.6072L147.559 12.6547L147.647 12.7024L147.734 12.7501L147.821 12.7979L147.865 12.8173L147.943 12.8593L148.03 12.9073L148.117 12.9554L148.204 13.0036L148.274 13.0406L148.326 13.0655L148.413 13.1139L148.5 13.1624L148.586 13.211L148.673 13.2597L148.717 13.2797L148.795 13.3223L148.881 13.3711L148.968 13.4201L149.054 13.4691L149.124 13.5071L149.175 13.5322L149.262 13.5815L149.348 13.6308L149.434 13.6803L149.521 13.7298L149.565 13.7506L149.642 13.7936L149.728 13.8433L149.814 13.8931L149.9 13.943L149.97 13.982L150.02 14.0074L150.106 14.0575L150.192 14.1077L150.278 14.1579L150.364 14.2084L150.408 14.2298L150.484 14.2733L150.57 14.3239L150.655 14.3746L150.741 14.4253L150.811 14.4652L150.861 14.4909L150.946 14.5419L151.031 14.5929L151.117 14.644L151.202 14.6952L151.247 14.7174L151.322 14.7614L151.407 14.8129L151.492 14.8644L151.577 14.9159L151.647 14.9567L151.696 14.9828L151.781 15.0345L151.866 15.0864L151.951 15.1384L152.036 15.1904L152.08 15.2133L152.155 15.2578L152.239 15.3101L152.324 15.3624L152.408 15.4148L152.478 15.4565L152.527 15.4828L152.611 15.5354L152.696 15.5881L152.78 15.6409L152.864 15.6938L152.909 15.7174L152.983 15.7625L153.067 15.8155L153.151 15.8687L153.235 15.9219L153.305 15.9646L153.353 15.9911L153.437 16.0445L153.521 16.0981L153.604 16.1517L153.688 16.2054L153.733 16.2297L153.806 16.2753L153.889 16.3292L153.973 16.3831L154.057 16.4372L154.126 16.4808L154.174 16.5076L154.257 16.5618L154.34 16.6162L154.424 16.6706L154.507 16.7251L154.552 16.7502L154.624 16.7962L154.707 16.8509L154.79 16.9057L154.873 16.9606L154.943 17.0051L154.99 17.0321L155.073 17.0872L155.155 17.1424L155.238 17.1976L155.321 17.253L155.366 17.2787L155.437 17.3252L155.52 17.3807L155.602 17.4363L155.685 17.492L155.754 17.5375L155.8 17.5648L155.883 17.6207L155.965 17.6767L156.047 17.7327L156.129 17.7888L156.174 17.8153L156.245 17.8622L156.327 17.9185L156.409 17.975L156.491 18.0315L156.56 18.0779L156.606 18.1054L156.688 18.1621L156.77 18.2189L156.851 18.2757L156.933 18.3327L156.978 18.3599L157.048 18.4072L157.129 18.4643L157.21 18.5216L157.292 18.5789L157.361 18.6262L157.406 18.654L157.488 18.7115L157.569 18.769L157.65 18.8267L157.731 18.8844L157.776 18.9124L157.845 18.9602L157.926 19.0181L158.007 19.0761L158.088 19.1342L158.157 19.1825L158.201 19.2105L158.282 19.2688L158.363 19.3271L158.443 19.3856L158.524 19.4441L158.569 19.4727L158.637 19.521L158.717 19.5797L158.798 19.6385L158.878 19.6974L158.947 19.7467L158.991 19.7748L159.071 19.8338L159.151 19.893L159.231 19.9522L159.311 20.0115L159.356 20.0409L159.423 20.0896L159.503 20.1491L159.583 20.2086L159.663 20.2683L159.731 20.3186L159.775 20.3469L159.854 20.4067L159.934 20.4667L160.013 20.5266L160.093 20.5867L160.138 20.6169L160.204 20.6659L160.284 20.7262L160.363 20.7865L160.442 20.847L160.51 20.8982L160.553 20.9267L160.632 20.9873L160.711 21.048L160.79 21.1088L160.869 21.1696L160.914 21.2005L160.98 21.25L161.058 21.311L161.137 21.3721L161.215 21.4334L161.284 21.4855L161.326 21.5141L161.404 21.5755L161.483 21.637L161.561 21.6986L161.639 21.7602L161.684 21.7918L161.749 21.8417L161.827 21.9034L161.905 21.9654L161.983 22.0273L162.051 22.0804L162.093 22.1092L162.171 22.1714L162.248 22.2336L162.326 22.2959L162.404 22.3584L162.449 22.3907L162.513 22.4409L162.591 22.5035L162.668 22.5661L162.745 22.6289L162.813 22.6829L162.854 22.7119L162.931 22.7748L163.009 22.8378L163.086 22.9009L163.163 22.964L163.208 22.9971L163.271 23.0476L163.348 23.111L163.425 23.1744L163.501 23.2379L163.569 23.2929L163.609 23.322L163.686 23.3857L163.763 23.4494L163.839 23.5132L163.916 23.5772L163.96 23.611L164.023 23.6618L164.099 23.726L164.176 23.7901L164.252 23.8543L164.319 23.9103L164.359 23.9396L164.435 24.004L164.511 24.0685L164.587 24.1331L164.662 24.1977L164.707 24.2323L164.769 24.2835L164.845 24.3483L164.92 24.4132L164.996 24.4782L165.063 24.5351L165.102 24.5645L165.178 24.6296L165.253 24.6949L165.328 24.7602L165.403 24.8255L165.448 24.861L165.509 24.9125L165.584 24.978L165.659 25.0437L165.734 25.1094L165.801 25.1672L165.839 25.1968L165.914 25.2626L165.989 25.3286L166.064 25.3947L166.138 25.4607L166.183 25.4969L166.243 25.5487L166.317 25.615L166.392 25.6814L166.466 25.7478L166.533 25.8066L166.571 25.8363L166.645 25.9029L166.719 25.9696L166.793 26.0363L166.867 26.1032L166.911 26.14L166.971 26.1922L167.045 26.2592L167.118 26.3263L167.192 26.3935L167.258 26.4532L167.296 26.4829L167.369 26.5503L167.442 26.6177L167.516 26.6851L167.589 26.7528L167.634 26.7904L167.692 26.8428L167.765 26.9105L167.838 26.9783L167.911 27.0462L167.977 27.1069L168.014 27.1367L168.087 27.2048L168.16 27.2729L168.232 27.3411L168.305 27.4094L168.349 27.4478L168.407 27.5005L168.48 27.5689L168.552 27.6375L168.624 27.706L168.69 27.7677L168.726 27.7976L168.798 27.8664L168.87 27.9352L168.943 28.0041L169.014 28.0731L169.059 28.1123L169.116 28.1652L169.188 28.2344L169.259 28.3036L169.331 28.3729L169.396 28.4355L169.432 28.4655L169.503 28.535L169.575 28.6045L169.646 28.6741L169.718 28.7438L169.762 28.7837L169.818 28.8369L169.889 28.9068L169.96 28.9767L170.031 29.0467L170.096 29.1102L170.131 29.1403L170.202 29.2105L170.273 29.2806L170.343 29.351L170.414 29.4213L170.458 29.462L170.514 29.5155L170.584 29.5861L170.654 29.6566L170.725 29.7273L170.789 29.7918L170.824 29.822L170.894 29.8928L170.964 29.9637L171.034 30.0347L171.104 30.1057L171.148 30.1471L171.203 30.2009L171.272 30.2722L171.342 30.3434L171.412 30.4148L171.476 30.4802L171.51 30.5104L171.579 30.5819L171.649 30.6536L171.718 30.7252L171.787 30.7969L171.831 30.8391L171.885 30.8931L171.954 30.965L172.023 31.037L172.092 31.109L172.156 31.1754L172.189 31.2056L172.258 31.2778L172.327 31.3501L172.395 31.4224L172.464 31.4948L172.507 31.5378L172.56 31.592L172.629 31.6645L172.697 31.7372L172.765 31.8099L172.829 31.8772L172.862 31.9075L172.93 31.9804L172.998 32.0533L173.066 32.1263L173.133 32.1994L173.177 32.2431L173.229 32.2975L173.297 32.3707L173.364 32.4441L173.432 32.5174L173.495 32.5856L173.527 32.6159L173.595 32.6895L173.662 32.7631L173.729 32.8368L173.796 32.9105L173.839 32.9549L173.891 33.0096L173.958 33.0835L174.025 33.1574L174.092 33.2315L174.154 33.3006L174.186 33.331L174.253 33.4052L174.319 33.4794L174.386 33.5537L174.452 33.6281L174.495 33.6733L174.546 33.7281L174.612 33.8027L174.678 33.8773L174.744 33.952L174.807 34.0221L174.838 34.0524L174.904 34.1273L174.969 34.2022L175.035 34.2771L175.101 34.3522L175.144 34.3981L175.194 34.4531L175.259 34.5284L175.325 34.6036L175.39 34.6789L175.452 34.7499L175.482 34.7803L175.547 34.8558L175.613 34.9313L175.678 35.0069L175.743 35.0826L175.785 35.1293L175.834 35.1845L175.899 35.2603L175.964 35.3362L176.029 35.4122L176.09 35.4841L176.12 35.5145L176.184 35.5906L176.249 35.6668L176.313 35.743L176.377 35.8193L176.42 35.8668L176.468 35.9222L176.532 35.9986L176.596 36.0751L176.66 36.1517L176.721 36.2246L176.75 36.255L176.814 36.3317L176.878 36.4085L176.941 36.4854L177.005 36.5623L177.047 36.6105L177.094 36.6661L177.158 36.7431L177.221 36.8203L177.284 36.8975L177.345 36.9712L177.373 37.0016L177.436 37.079L177.499 37.1564L177.562 37.2339L177.625 37.3114L177.667 37.3604L177.713 37.4161L177.776 37.4937L177.839 37.5715L177.901 37.6493L177.961 37.724L177.989 37.7544L178.051 37.8324L178.114 37.9104L178.176 37.9885L178.238 38.0666L178.279 38.1164L178.325 38.1722L178.387 38.2505L178.449 38.3288L178.51 38.4073L178.57 38.4829L178.598 38.5132L178.659 38.5918L178.721 38.6704L178.782 38.7491L178.843 38.8279L178.884 38.8784L178.93 38.9343L178.991 39.0132L179.052 39.0922L179.113 39.1711L179.172 39.2477L179.199 39.278L179.259 39.3572L179.32 39.4364L179.381 39.5157L179.441 39.595L179.482 39.6463L179.527 39.7023L179.587 39.7819L179.647 39.8614L179.707 39.941L179.766 40.0185L179.792 40.0487L179.852 40.1285L179.912 40.2083L179.972 40.2882L180.032 40.3681L180.072 40.4201L180.116 40.4763L180.175 40.5564L180.235 40.6365L180.294 40.7167L180.352 40.7951L180.378 40.8253L180.437 40.9056L180.496 40.986L180.555 41.0665L180.614 41.147L180.655 41.1997L180.698 41.256L180.757 41.3366L180.815 41.4174L180.874 41.4982L180.931 41.5774L180.957 41.6076L181.015 41.6885L181.073 41.7694L181.132 41.8505L181.19 41.9316L181.23 41.9851L181.272 42.0414L181.33 42.1227L181.388 42.2039L181.446 42.2853L181.503 42.3654L181.527 42.3955L181.585 42.477L181.642 42.5586L181.7 42.6401L181.757 42.7218L181.797 42.7761L181.838 42.8325L181.896 42.9143L181.953 42.9962L182.01 43.0781L182.066 43.1591L182.09 43.1891L182.147 43.2712L182.204 43.3533L182.261 43.4354L182.317 43.5177L182.357 43.5726L182.397 43.6291L182.453 43.7115L182.51 43.7939L182.566 43.8764L182.622 43.9583L182.645 43.9882L182.701 44.0708L182.757 44.1535L182.813 44.2362L182.869 44.319L182.908 44.3747L182.948 44.4312L183.004 44.5142L183.059 44.5971L183.114 44.6801L183.17 44.763L183.193 44.7928L183.248 44.8759L183.303 44.9591L183.358 45.0424L183.413 45.1257L183.452 45.1822L183.491 45.2388L183.546 45.3223L183.6 45.4058L183.655 45.4893L183.71 45.573L183.732 45.6029L183.787 45.6865L183.841 45.7702L183.895 45.854L183.949 45.9378L183.988 45.9951L184.026 46.0517L184.08 46.1357L184.134 46.2197L184.188 46.3039L184.241 46.388L184.264 46.4185L184.317 46.5023L184.371 46.5865L184.424 46.6709L184.478 46.7552L184.516 46.8132L184.553 46.8699L184.606 46.9544L184.659 47.039L184.712 47.1236L184.765 47.2082L184.788 47.2394L184.84 47.3233L184.893 47.4081L184.945 47.4929L184.998 47.5778L185.036 47.6365L185.072 47.6933L185.125 47.7783L185.177 47.8633L185.229 47.9485L185.281 48.0336L185.303 48.0654L185.355 48.1495L185.406 48.2348L185.458 48.3201L185.51 48.4056L185.547 48.465L185.583 48.5217L185.635 48.6072L185.686 48.6928L185.737 48.7785L185.789 48.8642L185.811 48.8965L185.861 48.9807L185.912 49.0665L185.963 49.1524L186.014 49.2383L186.051 49.2985L186.086 49.3552L186.137 49.4412L186.187 49.5273L186.238 49.6135L186.288 49.6997L186.31 49.7326L186.359 49.817L186.41 49.9032L186.46 49.9896L186.51 50.076L186.546 50.1369L186.581 50.1937L186.63 50.2802L186.68 50.3668L186.73 50.4534L186.779 50.5401L186.801 50.5737L186.849 50.6581L186.899 50.7449L186.948 50.8318L186.997 50.9186L187.033 50.9803L187.067 51.037L187.116 51.124L187.165 51.2111L187.213 51.2982L187.262 51.3853L187.284 51.4195L187.331 51.504L187.38 51.5914L187.428 51.6787L187.476 51.766L187.512 51.8284L187.545 51.8851L187.593 51.9726L187.641 52.0601L187.689 52.1478L187.737 52.2354L187.758 52.2701L187.805 52.3548L187.852 52.4425L187.9 52.5303L187.947 52.6182L187.983 52.6813L188.014 52.7379L188.062 52.8259L188.109 52.9139L188.156 53.002L188.203 53.0901L188.224 53.1254L188.27 53.2102L188.316 53.2984L188.363 53.3866L188.41 53.475L188.444 53.5388L188.476 53.5954L188.522 53.6838L188.568 53.7723L188.615 53.8608L188.661 53.9494L188.682 53.9853L188.726 54.0702L188.772 54.1589L188.818 54.2476L188.864 54.3363L188.898 54.4009L188.929 54.4574L188.974 54.5463L189.02 54.6352L189.065 54.7242L189.11 54.8132L189.131 54.8498L189.174 54.9346L189.219 55.0238L189.264 55.113L189.309 55.2022L189.343 55.2674L189.373 55.3239L189.417 55.4132L189.462 55.5026L189.507 55.592L189.551 55.6815L189.572 55.7186L189.614 55.8035L189.658 55.8931L189.702 55.9827L189.746 56.0724L189.779 56.1383L189.809 56.1948L189.852 56.2845L189.896 56.3743L189.94 56.4642L189.983 56.5541L190.004 56.5918L190.045 56.6768L190.088 56.7668L190.131 56.8569L190.175 56.9469L190.207 57.0136L190.236 57.0699L190.279 57.1601L190.321 57.2504L190.364 57.3406L190.407 57.4309L190.427 57.4693L190.467 57.5543L190.51 57.6447L190.552 57.7352L190.594 57.8257L190.627 57.8931L190.654 57.9493L190.696 58.0399L190.738 58.1306L190.78 58.2213L190.822 58.312L190.842 58.3509L190.881 58.436L190.922 58.5268L190.964 58.6177L191.005 58.7086L191.037 58.7767L191.064 58.8328L191.105 58.9239L191.146 59.0149L191.187 59.106L191.228 59.1972L191.248 59.2367L191.286 59.3218L191.326 59.413L191.367 59.5043L191.407 59.5956L191.439 59.6643L191.465 59.7204L191.505 59.8119L191.545 59.9033L191.585 59.9948L191.625 60.0864L191.645 60.1264L191.682 60.2115L191.722 60.3031L191.761 60.3948L191.801 60.4865L191.832 60.556L191.857 60.6119L191.896 60.7038L191.936 60.7956L191.975 60.8875L192.014 60.9795L192.033 61.0201L192.069 61.1052L192.108 61.1972L192.147 61.2893L192.186 61.3814L192.216 61.4515L192.24 61.5073L192.279 61.5996L192.317 61.6918L192.356 61.784L192.394 61.8764L192.413 61.9177L192.448 62.0026L192.486 62.0951L192.524 62.1875L192.561 62.28L192.591 62.3508L192.615 62.4065L192.653 62.4991L192.69 62.5917L192.727 62.6844L192.765 62.7771L192.783 62.8189L192.817 62.9039L192.854 62.9967L192.891 63.0895L192.928 63.1823L192.957 63.2539L192.981 63.3094L193.017 63.4023L193.054 63.4953L193.09 63.5884L193.127 63.6814L193.145 63.7239L193.178 63.8088L193.214 63.9019L193.25 63.9951L193.286 64.0883L193.315 64.1605L193.337 64.2159L193.373 64.3092L193.409 64.4026L193.444 64.496L193.48 64.5894L193.498 64.6324L193.53 64.7172L193.565 64.8107L193.6 64.9043L193.635 64.9978L193.663 65.0707L193.685 65.1259L193.72 65.2196L193.754 65.3133L193.789 65.407L193.824 65.5007L193.841 65.5444L193.873 65.6292L193.907 65.723L193.941 65.8169L193.975 65.9108L194.003 65.9843L194.024 66.0394L194.057 66.1334L194.091 66.2274L194.125 66.3215L194.159 66.4156L194.176 66.4598L194.206 66.5444L194.24 66.6386L194.273 66.7328L194.306 66.8271L194.333 66.9013L194.353 66.9562L194.386 67.0505L194.419 67.1448L194.452 67.2393L194.484 67.3337L194.501 67.3785L194.531 67.463L194.563 67.5575L194.596 67.6521L194.628 67.7467L194.654 67.8215L194.674 67.8762L194.706 67.9709L194.738 68.0656L194.769 68.1603L194.801 68.255L194.818 68.3004L194.846 68.3849L194.878 68.4797L194.909 68.5745L194.941 68.6694L194.966 68.745L194.985 68.7995L195.016 68.8944L195.047 68.9894L195.078 69.0844L195.109 69.1795L195.125 69.2254L195.153 69.3098L195.183 69.4049L195.214 69.5001L195.244 69.5953L195.269 69.6714L195.287 69.7257L195.317 69.821L195.347 69.9163L195.377 70.0116L195.407 70.107L195.423 70.1535L195.45 70.2377L195.479 70.3331L195.509 70.4286L195.538 70.5241L195.563 70.6009L195.58 70.655L195.609 70.7506L195.639 70.8462L195.668 70.9418L195.697 71.0375L195.712 71.0845L195.738 71.1686L195.766 71.2643L195.795 71.3601L195.824 71.4558L195.847 71.5333L195.864 71.5872L195.892 71.683L195.92 71.7789L195.949 71.8748L195.977 71.9707L195.992 72.0183L196.016 72.1023L196.044 72.1983L196.072 72.2943L196.099 72.3904L196.122 72.4685L196.138 72.5221L196.166 72.6183L196.193 72.7144L196.22 72.8106L196.247 72.9068L196.262 72.955L196.286 73.0388L196.313 73.135L196.339 73.2314L196.366 73.3277L196.388 73.4064L196.404 73.4598L196.43 73.5562L196.456 73.6526L196.483 73.7491L196.509 73.8455L196.523 73.8942L196.546 73.9779L196.572 74.0744L196.598 74.171L196.623 74.2676L196.645 74.3469L196.66 74.4001L196.685 74.4967L196.71 74.5934L196.736 74.6901L196.761 74.7868L196.775 74.8361L196.797 74.9196L196.822 75.0164L196.846 75.1132L196.871 75.21L196.892 75.2899L196.906 75.3429L196.931 75.4398L196.955 75.5367L196.98 75.6336L197.004 75.7306L197.017 75.7804L197.038 75.8637L197.062 75.9607L197.086 76.0578L197.11 76.1549L197.13 76.2354L197.143 76.2881L197.167 76.3852L197.19 76.4824L197.214 76.5796L197.237 76.6768L197.25 76.7271L197.27 76.8102L197.293 76.9075L197.316 77.0048L197.339 77.1021L197.358 77.1832L197.371 77.2356L197.394 77.333L197.416 77.4304L197.439 77.5278L197.461 77.6252L197.474 77.6761L197.493 77.759L197.515 77.8565L197.537 77.954L197.559 78.0515L197.577 78.1332L197.59 78.1854L197.611 78.283L197.633 78.3806L197.654 78.4782L197.676 78.5759L197.688 78.6273L197.706 78.71L197.727 78.8077L197.748 78.9054L197.769 79.0031L197.787 79.0854L197.799 79.1373L197.82 79.2351L197.84 79.333L197.861 79.4308L197.881 79.5286L197.893 79.5805L197.91 79.663L197.93 79.7609L197.95 79.8588L197.97 79.9568L197.987 80.0396L197.998 80.0913L198.018 80.1893L198.038 80.2873L198.057 80.3853L198.077 80.4834L198.088 80.5358L198.104 80.618L198.124 80.7161L198.143 80.8143L198.162 80.9124L198.178 80.9958L198.189 81.0472L198.207 81.1454L198.226 81.2436L198.245 81.3418L198.263 81.44L198.274 81.493L198.289 81.575L198.308 81.6733L198.326 81.7716L198.344 81.8699L198.359 81.9539L198.369 82.005L198.387 82.1034L198.405 82.2017L198.423 82.3001L198.44 82.3985L198.45 82.452L198.465 82.5337L198.482 82.6322L198.499 82.7307L198.516 82.8292L198.531 82.9137L198.541 82.9645L198.557 83.063L198.574 83.1616L198.591 83.2602L198.607 83.3587L198.617 83.4127L198.631 83.4942L198.647 83.5928L198.663 83.6915L198.68 83.7901L198.694 83.8752L198.702 83.9257L198.718 84.0244L198.734 84.1231L198.75 84.2218L198.765 84.3206L198.774 84.375L198.787 84.4563L198.803 84.5551L198.818 84.6538L198.833 84.7527L198.846 84.8383L198.855 84.8884L198.87 84.9873L198.884 85.0862L198.899 85.185L198.914 85.2839L198.922 85.3389L198.934 85.4198L198.949 85.5188L198.963 85.6177L198.977 85.7167L198.99 85.8028L198.997 85.8527L199.011 85.9516L199.025 86.0507L199.039 86.1497L199.053 86.2487L199.061 86.3041L199.072 86.3848L199.085 86.4839L199.099 86.583L199.112 86.6821L199.124 86.7687L199.131 86.8183L199.144 86.9174L199.157 87.0165L199.169 87.1157L199.182 87.2148L199.19 87.2707L199.2 87.3511L199.212 87.4503L199.225 87.5495L199.237 87.6487L199.248 87.7359L199.254 87.7851L199.266 87.8844L199.278 87.9836L199.29 88.0829L199.302 88.1822L199.309 88.2386L199.318 88.3187L199.33 88.418L199.341 88.5173L199.353 88.6166L199.363 88.7043L199.369 88.7532L199.38 88.8525L199.391 88.9519L199.401 89.0513L199.412 89.1507L199.419 89.2075L199.427 89.2873L199.438 89.3867L199.448 89.4862L199.459 89.5856L199.468 89.6738L199.473 89.7223L199.483 89.8218L199.493 89.9212L199.503 90.0207L199.513 90.1202L199.519 90.1776L199.527 90.257L199.536 90.3565L199.546 90.456L199.555 90.5556L199.564 90.6443L199.569 90.6924L199.578 90.792L199.587 90.8915L199.596 90.9911L199.604 91.0907L199.61 91.1485L199.617 91.2276L199.626 91.3272L199.634 91.4268L199.642 91.5265L199.65 91.6157L199.654 91.6635L199.662 91.7631L199.67 91.8627L199.678 91.9624L199.686 92.0621L199.691 92.1203L199.697 92.1991L199.705 92.2988L199.713 92.3985L199.72 92.4982L199.727 92.5878L199.73 92.6353L199.738 92.735L199.745 92.8347L199.752 92.9344L199.759 93.0342L199.763 93.0929L199.768 93.1713L199.775 93.2711L199.782 93.3708L199.788 93.4706L199.794 93.5607L199.797 93.6078L199.803 93.7075L199.81 93.8073L199.816 93.9072L199.821 94.007L199.825 94.0661L199.83 94.1442L199.835 94.244L199.841 94.3438L199.847 94.4436L199.852 94.5342L199.854 94.5809L199.86 94.6807L199.865 94.7806L199.87 94.8804L199.875 94.9803L199.878 95.0399L199.882 95.1176L199.887 95.2175L199.891 95.3174L199.896 95.4172L199.9 95.5083L199.902 95.5546L199.906 95.6544L199.911 95.7543L199.915 95.8542L199.919 95.9541L199.921 96.0142L199.924 96.0915L199.928 96.1914L199.932 96.2913L199.935 96.3912L199.939 96.4827L199.94 96.5286L199.944 96.6286L199.947 96.7285L199.95 96.8284L199.953 96.9284L199.955 96.9888L199.957 97.0658L199.96 97.1657L199.963 97.2656L199.966 97.3656L199.968 97.4575L199.969 97.503L199.972 97.603L199.974 97.7029L199.976 97.8029L199.978 97.9029L199.979 97.9638L199.981 98.0403L199.983 98.1403L199.985 98.2402L199.986 98.3402L199.988 98.4326L199.989 98.4776L199.99 98.5776L199.991 98.6776L199.993 98.7776L199.994 98.8775L199.994 98.9389L199.995 99.015L199.996 99.115L199.997 99.215L199.998 99.3149L199.998 99.4077L199.998 99.4524L199.999 99.5524L199.999 99.6524L200 99.7523L200 99.8523L200 99.9141L200 99.9898L200 100.09L200 100.19L200 100.29L199.999 100.383L199.999 100.427L199.999 100.527L199.998 100.627L199.997 100.727L199.997 100.827L199.996 100.889L199.995 100.965L199.994 101.065L199.993 101.165L199.992 101.265L199.991 101.358L199.99 101.402L199.989 101.502L199.987 101.602L199.986 101.702L199.984 101.802L199.983 101.864L199.981 101.939L199.979 102.039L199.977 102.139L199.975 102.239L199.973 102.333L199.972 102.377L199.97 102.477L199.967 102.577L199.964 102.677L199.962 102.776L199.96 102.839L199.958 102.914L199.955 103.014L199.952 103.114L199.949 103.214L199.946 103.308L199.944 103.351L199.941 103.451L199.937 103.551L199.934 103.651L199.93 103.751L199.928 103.814L199.925 103.888L199.921 103.988L199.917 104.088L199.913 104.188L199.909 104.283L199.907 104.325L199.903 104.425L199.898 104.525L199.894 104.625L199.889 104.725L199.886 104.788L199.883 104.862L199.878 104.962L199.873 105.062L199.868 105.162L199.863 105.257L199.86 105.299L199.855 105.399L199.85 105.499L199.844 105.598L199.839 105.698L199.835 105.762L199.831 105.835L199.825 105.935L199.819 106.035L199.813 106.135L199.807 106.23L199.804 106.272L199.798 106.372L199.792 106.472L199.785 106.571L199.779 106.671L199.774 106.736L199.769 106.808L199.763 106.908L199.756 107.008L199.749 107.108L199.742 107.203L199.739 107.245L199.731 107.344L199.724 107.444L199.717 107.544L199.709 107.644L199.704 107.708L199.698 107.781L199.691 107.88L199.683 107.98L199.675 108.08L199.667 108.176L199.664 108.217L199.655 108.316L199.647 108.416L199.639 108.516L199.63 108.615L199.625 108.68L199.618 108.752L199.61 108.852L199.601 108.951L199.592 109.051L199.583 109.147L199.579 109.188L199.57 109.287L199.561 109.387L199.551 109.486L199.542 109.586L199.535 109.651L199.528 109.723L199.519 109.822L199.509 109.922L199.499 110.021L199.489 110.118L199.485 110.158L199.475 110.257L199.465 110.357L199.454 110.456L199.444 110.556L199.437 110.622L199.429 110.692L199.418 110.792L199.408 110.891L199.397 110.991L199.386 111.088L199.381 111.127L199.37 111.227L199.359 111.326L199.348 111.425L199.336 111.525L199.329 111.591L199.32 111.661L199.309 111.76L199.297 111.86L199.285 111.959L199.273 112.056L199.268 112.095L199.256 112.195L199.244 112.294L199.232 112.393L199.219 112.492L199.211 112.559L199.202 112.629L199.189 112.728L199.177 112.827L199.164 112.926L199.151 113.024L199.146 113.062L199.133 113.161L199.119 113.261L199.106 113.36L199.093 113.459L199.084 113.526L199.074 113.595L199.06 113.694L199.047 113.793L199.033 113.892L199.019 113.99L199.013 114.028L198.999 114.127L198.985 114.226L198.971 114.325L198.957 114.424L198.947 114.491L198.937 114.56L198.922 114.659L198.908 114.758L198.893 114.857L198.878 114.955L198.872 114.992L198.857 115.091L198.842 115.19L198.827 115.289L198.812 115.388L198.801 115.455L198.79 115.523L198.774 115.622L198.759 115.721L198.743 115.82L198.727 115.918L198.721 115.955L198.705 116.054L198.689 116.153L198.673 116.251L198.656 116.35L198.645 116.418L198.633 116.486L198.617 116.584L198.6 116.683L198.584 116.781L198.567 116.88L198.56 116.917L198.543 117.015L198.526 117.114L198.509 117.212L198.492 117.311L198.48 117.379L198.467 117.446L198.45 117.544L198.433 117.643L198.415 117.741L198.397 117.84L198.39 117.877L198.372 117.975L198.354 118.073L198.336 118.171L198.318 118.27L198.305 118.338L198.292 118.405L198.274 118.503L198.255 118.601L198.237 118.7L198.218 118.798L198.21 118.835L198.191 118.933L198.173 119.031L198.154 119.129L198.135 119.227L198.121 119.296L198.107 119.362L198.088 119.46L198.069 119.558L198.049 119.656L198.029 119.754L198.021 119.792L198.001 119.888L197.982 119.986L197.962 120.084L197.942 120.182L197.927 120.251L197.913 120.317L197.893 120.415L197.872 120.513L197.852 120.61L197.831 120.708L197.822 120.746L197.802 120.842L197.781 120.94L197.76 121.038L197.739 121.136L197.724 121.205L197.709 121.27L197.688 121.368L197.667 121.465L197.645 121.563L197.624 121.66L197.614 121.699L197.593 121.794L197.571 121.892L197.549 121.99L197.527 122.087L197.511 122.156L197.496 122.221L197.474 122.318L197.452 122.416L197.429 122.513L197.407 122.611L197.397 122.649L197.375 122.744L197.352 122.842L197.329 122.939L197.306 123.036L197.289 123.106L197.274 123.17L197.25 123.267L197.227 123.364L197.204 123.461L197.18 123.558L197.17 123.598L197.147 123.692L197.123 123.789L197.1 123.886L197.076 123.983L197.058 124.053L197.042 124.116L197.018 124.213L196.993 124.31L196.969 124.407L196.945 124.504L196.934 124.543L196.91 124.637L196.885 124.734L196.861 124.831L196.836 124.928L196.817 124.998L196.8 125.06L196.775 125.157L196.75 125.254L196.725 125.351L196.7 125.447L196.688 125.487L196.663 125.58L196.638 125.676L196.612 125.773L196.586 125.87L196.567 125.94L196.55 126.002L196.524 126.099L196.498 126.195L196.471 126.291L196.445 126.388L196.433 126.428L196.408 126.52L196.381 126.617L196.355 126.713L196.328 126.809L196.308 126.88L196.29 126.941L196.263 127.037L196.236 127.134L196.209 127.23L196.181 127.326L196.169 127.366L196.143 127.458L196.115 127.554L196.088 127.65L196.06 127.746L196.039 127.817L196.02 127.878L195.993 127.974L195.965 128.07L195.937 128.166L195.908 128.261L195.895 128.302L195.868 128.393L195.84 128.489L195.811 128.584L195.783 128.68L195.761 128.751L195.742 128.811L195.713 128.907L195.684 129.003L195.655 129.098L195.626 129.194L195.612 129.235L195.585 129.325L195.555 129.421L195.526 129.516L195.496 129.612L195.474 129.682L195.454 129.742L195.424 129.838L195.395 129.933L195.365 130.028L195.335 130.124L195.32 130.165L195.292 130.254L195.261 130.35L195.231 130.445L195.201 130.54L195.177 130.611L195.157 130.67L195.126 130.765L195.096 130.861L195.065 130.956L195.034 131.051L195.019 131.092L194.99 131.181L194.958 131.276L194.927 131.37L194.896 131.465L194.872 131.537L194.851 131.595L194.819 131.69L194.788 131.785L194.756 131.88L194.724 131.974L194.708 132.016L194.678 132.104L194.646 132.199L194.614 132.293L194.582 132.388L194.557 132.459L194.536 132.517L194.503 132.612L194.471 132.706L194.438 132.8L194.405 132.895L194.389 132.936L194.358 133.024L194.325 133.118L194.292 133.213L194.259 133.307L194.233 133.378L194.211 133.436L194.178 133.53L194.144 133.624L194.111 133.718L194.077 133.812L194.06 133.854L194.029 133.941L193.995 134.035L193.961 134.129L193.926 134.223L193.9 134.294L193.878 134.351L193.843 134.445L193.809 134.539L193.774 134.632L193.74 134.726L193.722 134.768L193.69 134.854L193.655 134.948L193.62 135.042L193.585 135.135L193.558 135.207L193.535 135.263L193.5 135.357L193.464 135.45L193.429 135.543L193.393 135.637L193.376 135.679L193.343 135.764L193.307 135.858L193.271 135.951L193.235 136.044L193.206 136.116L193.184 136.172L193.147 136.265L193.111 136.358L193.075 136.451L193.038 136.544L193.02 136.586L192.986 136.671L192.949 136.764L192.913 136.857L192.876 136.95L192.846 137.021L192.823 137.076L192.786 137.169L192.749 137.262L192.711 137.355L192.674 137.447L192.655 137.49L192.621 137.574L192.583 137.666L192.545 137.759L192.507 137.851L192.477 137.923L192.454 137.978L192.415 138.07L192.377 138.162L192.339 138.255L192.301 138.347L192.281 138.39L192.246 138.473L192.208 138.565L192.169 138.657L192.13 138.749L192.099 138.822L192.075 138.875L192.036 138.967L191.997 139.059L191.958 139.151L191.919 139.243L191.899 139.286L191.863 139.369L191.824 139.46L191.784 139.552L191.744 139.644L191.712 139.716L191.688 139.769L191.648 139.861L191.608 139.952L191.568 140.044L191.528 140.135L191.507 140.178L191.471 140.26L191.431 140.351L191.39 140.443L191.35 140.534L191.317 140.606L191.292 140.659L191.251 140.75L191.21 140.841L191.169 140.932L191.129 141.023L191.107 141.067L191.07 141.148L191.029 141.239L190.988 141.33L190.946 141.421L190.912 141.493L190.887 141.545L190.846 141.635L190.804 141.726L190.762 141.817L190.72 141.908L190.698 141.951L190.66 142.031L190.618 142.122L190.576 142.212L190.534 142.303L190.499 142.375L190.474 142.426L190.431 142.517L190.389 142.607L190.346 142.697L190.303 142.788L190.28 142.831L190.242 142.911L190.199 143.001L190.156 143.091L190.113 143.181L190.077 143.253L190.051 143.304L190.008 143.394L189.965 143.484L189.921 143.574L189.877 143.663L189.854 143.707L189.815 143.786L189.771 143.876L189.727 143.965L189.683 144.055L189.647 144.127L189.621 144.177L189.576 144.267L189.532 144.356L189.488 144.446L189.443 144.535L189.419 144.579L189.38 144.657L189.335 144.746L189.29 144.835L189.245 144.925L189.208 144.997L189.181 145.046L189.136 145.135L189.091 145.224L189.045 145.313L189 145.402L188.976 145.446L188.936 145.523L188.89 145.612L188.844 145.701L188.798 145.79L188.76 145.862L188.733 145.911L188.687 145.999L188.641 146.088L188.595 146.176L188.549 146.265L188.524 146.309L188.483 146.385L188.436 146.474L188.39 146.562L188.343 146.65L188.304 146.723L188.277 146.771L188.23 146.859L188.183 146.947L188.136 147.035L188.089 147.123L188.063 147.167L188.022 147.243L187.974 147.331L187.927 147.419L187.879 147.507L187.84 147.579L187.812 147.626L187.764 147.714L187.716 147.801L187.668 147.889L187.62 147.977L187.594 148.021L187.552 148.096L187.504 148.183L187.456 148.271L187.407 148.358L187.367 148.43L187.339 148.477L187.29 148.564L187.241 148.651L187.193 148.738L187.144 148.825L187.117 148.87L187.074 148.944L187.025 149.031L186.976 149.118L186.927 149.205L186.885 149.277L186.857 149.323L186.808 149.41L186.758 149.496L186.709 149.583L186.659 149.67L186.631 149.714L186.588 149.787L186.538 149.874L186.488 149.96L186.438 150.047L186.396 150.119L186.367 150.164L186.317 150.25L186.266 150.337L186.216 150.423L186.165 150.509L186.137 150.553L186.094 150.626L186.043 150.712L185.992 150.798L185.941 150.884L185.898 150.956L185.869 151L185.818 151.086L185.767 151.172L185.715 151.257L185.664 151.343L185.635 151.388L185.591 151.459L185.54 151.545L185.488 151.63L185.436 151.716L185.392 151.788L185.363 151.832L185.311 151.917L185.259 152.002L185.207 152.087L185.154 152.172L185.125 152.217L185.08 152.288L185.028 152.373L184.975 152.458L184.923 152.543L184.878 152.614L184.848 152.658L184.795 152.743L184.743 152.827L184.69 152.912L184.637 152.997L184.606 153.041L184.561 153.111L184.508 153.196L184.455 153.28L184.401 153.365L184.355 153.436L184.326 153.479L184.272 153.563L184.218 153.647L184.165 153.731L184.111 153.816L184.08 153.86L184.034 153.93L183.98 154.013L183.926 154.097L183.872 154.181L183.825 154.253L183.795 154.295L183.741 154.378L183.686 154.462L183.632 154.546L183.577 154.629L183.545 154.674L183.499 154.742L183.445 154.826L183.39 154.909L183.335 154.992L183.287 155.064L183.257 155.105L183.201 155.189L183.146 155.272L183.091 155.355L183.035 155.438L183.003 155.482L182.957 155.55L182.901 155.633L182.845 155.716L182.789 155.798L182.74 155.87L182.71 155.91L182.654 155.993L182.598 156.076L182.542 156.158L182.486 156.241L182.453 156.285L182.406 156.352L182.349 156.435L182.293 156.517L182.236 156.599L182.186 156.67L182.156 156.71L182.099 156.792L182.042 156.874L181.985 156.956L181.928 157.038L181.895 157.083L181.847 157.149L181.79 157.231L181.733 157.312L181.675 157.394L181.625 157.465L181.594 157.504L181.536 157.586L181.479 157.667L181.421 157.749L181.363 157.83L181.329 157.875L181.281 157.94L181.223 158.021L181.165 158.102L181.107 158.183L181.055 158.254L181.024 158.293L180.966 158.374L180.907 158.455L180.849 158.536L180.79 158.616L180.755 158.661L180.707 158.726L180.648 158.806L180.589 158.887L180.53 158.967L180.478 159.038L180.447 159.076L180.387 159.156L180.328 159.237L180.269 159.317L180.21 159.397L180.174 159.442L180.125 159.505L180.066 159.585L180.006 159.665L179.946 159.745L179.893 159.816L179.862 159.853L179.802 159.933L179.742 160.013L179.681 160.092L179.621 160.172L179.585 160.216L179.536 160.279L179.476 160.359L179.415 160.438L179.355 160.517L179.3 160.588L179.269 160.624L179.208 160.704L179.147 160.783L179.087 160.862L179.026 160.941L178.989 160.985L178.939 161.047L178.878 161.126L178.817 161.205L178.756 161.284L178.7 161.354L178.669 161.39L178.607 161.469L178.546 161.547L178.484 161.626L178.422 161.704L178.385 161.748L178.335 161.81L178.273 161.888L178.211 161.966L178.149 162.044L178.093 162.114L178.061 162.149L177.999 162.227L177.937 162.305L177.874 162.383L177.812 162.461L177.773 162.505L177.723 162.566L177.661 162.643L177.598 162.721L177.535 162.798L177.478 162.868L177.446 162.903L177.383 162.98L177.32 163.058L177.257 163.135L177.194 163.212L177.155 163.256L177.104 163.316L177.041 163.393L176.978 163.47L176.914 163.547L176.856 163.616L176.824 163.65L176.76 163.727L176.697 163.804L176.633 163.88L176.569 163.957L176.529 164.001L176.478 164.06L176.414 164.136L176.35 164.213L176.286 164.289L176.227 164.358L176.195 164.391L176.13 164.467L176.066 164.544L176.001 164.62L175.936 164.695L175.896 164.74L175.845 164.798L175.78 164.873L175.715 164.949L175.65 165.025L175.59 165.094L175.558 165.126L175.493 165.202L175.427 165.277L175.362 165.352L175.297 165.428L175.255 165.472L175.204 165.529L175.138 165.604L175.073 165.679L175.007 165.754L174.946 165.823L174.914 165.855L174.848 165.93L174.782 166.004L174.716 166.079L174.65 166.154L174.608 166.198L174.556 166.254L174.49 166.328L174.424 166.403L174.357 166.477L174.295 166.546L174.263 166.577L174.197 166.651L174.13 166.725L174.063 166.799L173.996 166.873L173.954 166.917L173.902 166.973L173.835 167.046L173.768 167.12L173.7 167.194L173.638 167.262L173.605 167.293L173.538 167.366L173.471 167.44L173.403 167.513L173.336 167.587L173.292 167.63L173.24 167.685L173.172 167.758L173.104 167.831L173.037 167.904L172.973 167.972L172.941 168.002L172.873 168.075L172.804 168.148L172.736 168.22L172.668 168.293L172.624 168.337L172.571 168.39L172.503 168.463L172.434 168.535L172.366 168.608L172.301 168.675L172.269 168.705L172.2 168.777L172.131 168.849L172.063 168.921L171.994 168.993L171.949 169.036L171.896 169.089L171.827 169.161L171.758 169.233L171.688 169.305L171.623 169.372L171.59 169.401L171.521 169.472L171.452 169.544L171.382 169.615L171.312 169.686L171.267 169.73L171.214 169.782L171.144 169.853L171.074 169.924L171.004 169.995L170.938 170.062L170.905 170.09L170.835 170.161L170.765 170.231L170.695 170.302L170.624 170.373L170.578 170.416L170.525 170.467L170.455 170.538L170.384 170.608L170.313 170.678L170.246 170.745L170.214 170.772L170.143 170.842L170.072 170.912L170.001 170.982L169.93 171.052L169.883 171.095L169.83 171.146L169.758 171.215L169.687 171.285L169.616 171.355L169.548 171.421L169.515 171.448L169.444 171.517L169.372 171.587L169.3 171.656L169.229 171.725L169.181 171.768L169.128 171.817L169.056 171.887L168.984 171.956L168.912 172.025L168.843 172.09L168.81 172.116L168.738 172.185L168.666 172.254L168.594 172.322L168.521 172.391L168.473 172.434L168.419 172.482L168.347 172.551L168.274 172.619L168.201 172.687L168.131 172.753L168.099 172.778L168.026 172.846L167.953 172.914L167.88 172.982L167.807 173.05L167.758 173.092L167.704 173.14L167.631 173.208L167.558 173.275L167.484 173.343L167.414 173.408L167.381 173.433L167.308 173.5L167.234 173.567L167.16 173.634L167.087 173.702L167.037 173.744L166.983 173.791L166.909 173.858L166.835 173.925L166.761 173.991L166.689 174.056L166.657 174.08L166.583 174.147L166.509 174.213L166.434 174.28L166.36 174.346L166.31 174.388L166.255 174.434L166.181 174.501L166.106 174.567L166.032 174.633L165.959 174.697L165.927 174.72L165.852 174.786L165.777 174.852L165.702 174.918L165.627 174.984L165.576 175.025L165.522 175.071L165.446 175.136L165.371 175.202L165.296 175.267L165.222 175.331L165.19 175.353L165.115 175.419L165.039 175.484L164.964 175.549L164.888 175.614L164.836 175.655L164.782 175.7L164.706 175.764L164.63 175.829L164.554 175.894L164.48 175.957L164.447 175.979L164.371 176.044L164.295 176.108L164.219 176.172L164.143 176.236L164.091 176.278L164.036 176.321L163.959 176.385L163.883 176.449L163.807 176.513L163.731 176.576L163.699 176.598L163.622 176.661L163.546 176.725L163.469 176.788L163.392 176.852L163.339 176.893L163.284 176.936L163.207 176.999L163.13 177.062L163.053 177.125L162.976 177.188L162.944 177.209L162.867 177.272L162.79 177.334L162.712 177.397L162.635 177.46L162.581 177.501L162.526 177.543L162.448 177.605L162.371 177.668L162.293 177.73L162.216 177.792L162.184 177.812L162.106 177.874L162.028 177.936L161.95 177.998L161.872 178.06L161.817 178.101L161.762 178.142L161.684 178.204L161.606 178.265L161.528 178.327L161.449 178.388L161.417 178.408L161.339 178.469L161.26 178.531L161.182 178.592L161.103 178.653L161.048 178.693L160.993 178.734L160.914 178.795L160.835 178.856L160.756 178.916L160.677 178.977L160.645 178.996L160.566 179.057L160.487 179.118L160.408 179.178L160.329 179.238L160.273 179.278L160.217 179.318L160.138 179.378L160.059 179.438L159.979 179.498L159.9 179.558L159.867 179.577L159.788 179.637L159.708 179.697L159.629 179.756L159.549 179.816L159.492 179.856L159.437 179.894L159.357 179.954L159.277 180.013L159.197 180.072L159.117 180.131L159.083 180.151L159.004 180.209L158.924 180.268L158.844 180.327L158.763 180.386L158.706 180.425L158.65 180.463L158.57 180.522L158.489 180.58L158.409 180.639L158.328 180.697L158.294 180.716L158.215 180.773L158.134 180.832L158.053 180.89L157.972 180.948L157.914 180.987L157.858 181.024L157.777 181.082L157.696 181.139L157.615 181.197L157.534 181.255L157.5 181.274L157.42 181.33L157.339 181.387L157.257 181.445L157.176 181.502L157.117 181.541L157.061 181.577L156.98 181.634L156.898 181.691L156.816 181.748L156.735 181.805L156.7 181.823L156.62 181.879L156.538 181.935L156.456 181.992L156.374 182.048L156.314 182.087L156.259 182.122L156.177 182.178L156.094 182.234L156.012 182.29L155.93 182.346L155.895 182.365L155.814 182.419L155.732 182.475L155.649 182.531L155.567 182.587L155.507 182.625L155.451 182.659L155.368 182.715L155.286 182.77L155.203 182.825L155.12 182.88L155.084 182.899L155.004 182.952L154.921 183.007L154.838 183.062L154.755 183.117L154.694 183.154L154.638 183.188L154.555 183.243L154.472 183.297L154.388 183.352L154.305 183.406L154.269 183.425L154.188 183.477L154.104 183.531L154.021 183.585L153.937 183.639L153.876 183.676L153.82 183.709L153.736 183.763L153.653 183.817L153.569 183.87L153.485 183.924L153.448 183.942L153.367 183.993L153.283 184.047L153.199 184.1L153.115 184.153L153.053 184.19L152.997 184.222L152.913 184.275L152.829 184.328L152.744 184.381L152.66 184.434L152.622 184.452L152.541 184.502L152.457 184.554L152.372 184.607L152.288 184.659L152.225 184.696L152.169 184.727L152.084 184.779L152 184.831L151.915 184.883L151.83 184.935L151.792 184.953L151.711 185.002L151.626 185.054L151.541 185.105L151.456 185.157L151.392 185.193L151.336 185.223L151.251 185.275L151.166 185.326L151.08 185.377L150.995 185.428L150.957 185.446L150.875 185.494L150.79 185.545L150.704 185.595L150.619 185.646L150.554 185.682L150.499 185.711L150.413 185.762L150.327 185.812L150.241 185.863L150.156 185.913L150.117 185.93L150.035 185.977L149.949 186.027L149.863 186.077L149.777 186.127L149.712 186.163L149.656 186.191L149.57 186.241L149.484 186.29L149.398 186.34L149.312 186.389L149.272 186.407L149.19 186.453L149.104 186.502L149.018 186.551L148.931 186.6L148.865 186.635L148.81 186.663L148.723 186.712L148.636 186.76L148.55 186.809L148.463 186.857L148.423 186.875L148.341 186.92L148.254 186.968L148.167 187.016L148.08 187.064L148.014 187.099L147.958 187.126L147.871 187.174L147.784 187.222L147.697 187.269L147.61 187.317L147.569 187.334L147.487 187.378L147.4 187.425L147.313 187.473L147.225 187.52L147.158 187.554L147.103 187.58L147.015 187.627L146.927 187.674L146.84 187.721L146.752 187.768L146.711 187.785L146.629 187.828L146.541 187.874L146.453 187.921L146.366 187.967L146.298 188.001L146.242 188.026L146.154 188.073L146.066 188.119L145.978 188.165L145.89 188.211L145.848 188.227L145.767 188.269L145.678 188.315L145.59 188.361L145.502 188.406L145.433 188.439L145.378 188.464L145.29 188.509L145.201 188.555L145.113 188.6L145.024 188.645L144.982 188.661L144.9 188.702L144.811 188.747L144.723 188.792L144.634 188.836L144.565 188.869L144.509 188.893L144.421 188.937L144.332 188.982L144.243 189.026L144.154 189.07L144.111 189.086L144.029 189.126L143.94 189.17L143.851 189.214L143.762 189.258L143.692 189.29L143.637 189.313L143.548 189.357L143.458 189.4L143.369 189.444L143.279 189.487L143.236 189.503L143.154 189.541L143.065 189.585L142.975 189.628L142.886 189.671L142.815 189.702L142.76 189.725L142.67 189.767L142.581 189.81L142.491 189.853L142.401 189.895L142.357 189.911L142.275 189.948L142.185 189.99L142.096 190.033L142.006 190.075L141.934 190.106L141.88 190.127L141.789 190.169L141.699 190.211L141.609 190.253L141.519 190.294L141.475 190.309L141.393 190.346L141.302 190.388L141.212 190.429L141.122 190.47L141.05 190.501L140.995 190.521L140.905 190.562L140.814 190.603L140.724 190.644L140.633 190.685L140.588 190.7L140.506 190.735L140.415 190.776L140.325 190.816L140.234 190.857L140.162 190.887L140.107 190.907L140.016 190.947L139.925 190.987L139.834 191.027L139.743 191.066L139.698 191.081L139.616 191.116L139.525 191.155L139.434 191.195L139.343 191.234L139.27 191.264L139.215 191.283L139.124 191.322L139.033 191.361L138.941 191.4L138.85 191.439L138.804 191.454L138.722 191.487L138.631 191.526L138.539 191.565L138.448 191.603L138.374 191.632L138.32 191.65L138.228 191.689L138.137 191.727L138.045 191.765L137.953 191.803L137.907 191.817L137.825 191.85L137.733 191.888L137.641 191.925L137.549 191.963L137.475 191.991L137.421 192.009L137.329 192.047L137.237 192.084L137.145 192.121L137.053 192.158L137.006 192.172L136.924 192.203L136.832 192.24L136.74 192.277L136.648 192.314L136.573 192.342L136.519 192.359L136.426 192.395L136.334 192.432L136.242 192.468L136.149 192.504L136.102 192.518L136.02 192.548L135.928 192.584L135.835 192.62L135.742 192.656L135.667 192.683L135.613 192.699L135.52 192.735L135.428 192.77L135.335 192.806L135.242 192.841L135.194 192.854L135.113 192.884L135.02 192.919L134.927 192.954L134.834 192.989L134.758 193.015L134.704 193.031L134.611 193.066L134.518 193.1L134.425 193.135L134.332 193.169L134.284 193.182L134.202 193.211L134.109 193.245L134.016 193.279L133.923 193.313L133.846 193.339L133.792 193.354L133.699 193.387L133.606 193.421L133.512 193.454L133.419 193.488L133.37 193.5L133.289 193.528L133.195 193.561L133.102 193.595L133.008 193.628L132.931 193.653L132.878 193.667L132.784 193.7L132.69 193.733L132.597 193.765L132.503 193.798L132.453 193.81L132.372 193.837L132.278 193.869L132.184 193.901L132.091 193.933L132.012 193.958L131.96 193.972L131.866 194.003L131.772 194.035L131.678 194.067L131.584 194.099L131.534 194.11L131.453 194.136L131.359 194.167L131.264 194.199L131.17 194.23L131.092 194.254L131.039 194.267L130.945 194.298L130.85 194.329L130.756 194.359L130.662 194.39L130.611 194.402L130.53 194.426L130.436 194.457L130.342 194.487L130.247 194.517L130.168 194.541L130.115 194.553L130.021 194.583L129.926 194.613L129.832 194.643L129.737 194.673L129.686 194.684L129.605 194.707L129.511 194.737L129.416 194.766L129.321 194.796L129.241 194.819L129.189 194.83L129.095 194.859L129 194.888L128.905 194.917L128.81 194.946L128.759 194.956L128.678 194.979L128.583 195.008L128.488 195.036L128.393 195.065L128.312 195.087L128.261 195.098L128.166 195.126L128.07 195.154L127.975 195.182L127.88 195.21L127.828 195.22L127.748 195.242L127.653 195.27L127.557 195.297L127.462 195.325L127.381 195.346L127.329 195.356L127.234 195.384L127.139 195.411L127.043 195.438L126.948 195.465L126.896 195.475L126.815 195.496L126.72 195.522L126.624 195.549L126.529 195.575L126.447 195.596L126.396 195.606L126.3 195.632L126.205 195.658L126.109 195.684L126.013 195.71L125.961 195.72L125.88 195.74L125.785 195.766L125.689 195.791L125.593 195.817L125.511 195.837L125.46 195.846L125.364 195.871L125.268 195.896L125.172 195.922L125.077 195.947L125.023 195.956L124.943 195.975L124.847 196L124.751 196.024L124.655 196.049L124.573 196.069L124.522 196.077L124.426 196.101L124.33 196.125L124.234 196.15L124.138 196.174L124.084 196.182L124.004 196.2L123.908 196.224L123.812 196.248L123.715 196.272L123.632 196.291L123.582 196.298L123.485 196.322L123.389 196.345L123.293 196.368L123.197 196.391L123.142 196.4L123.063 196.417L122.966 196.44L122.87 196.463L122.773 196.486L122.69 196.504L122.64 196.51L122.543 196.533L122.447 196.555L122.35 196.578L122.253 196.6L122.199 196.608L122.119 196.624L122.023 196.646L121.926 196.668L121.83 196.69L121.745 196.707L121.695 196.713L121.599 196.735L121.502 196.756L121.405 196.778L121.309 196.799L121.253 196.807L121.174 196.822L121.077 196.843L120.981 196.864L120.884 196.885L120.799 196.902L120.749 196.907L120.653 196.928L120.556 196.948L120.459 196.969L120.362 196.989L120.306 196.996L120.227 197.01L120.13 197.031L120.033 197.051L119.936 197.07L119.851 197.087L119.802 197.091L119.705 197.111L119.608 197.131L119.51 197.15L119.413 197.17L119.357 197.176L119.279 197.19L119.182 197.209L119.084 197.228L118.987 197.247L118.901 197.262L118.852 197.266L118.755 197.285L118.658 197.304L118.561 197.322L118.463 197.341L118.407 197.347L118.328 197.359L118.231 197.378L118.134 197.396L118.036 197.414L117.95 197.429L117.902 197.432L117.804 197.45L117.707 197.468L117.609 197.485L117.512 197.503Z" fill="white"/>
</svg>
