<svg width="200" height="200" viewBox="0 0 200 200" fill="none" xmlns="http://www.w3.org/2000/svg">
<path d="M123.493 8.68537L123.455 8.64547L123.416 8.60576L123.378 8.56609L123.339 8.52641L123.276 8.48677L123.237 8.4473L123.198 8.40786L123.159 8.36852L123.121 8.32929L123.082 8.29008L123.043 8.25094L123.004 8.21195L122.965 8.17298L122.902 8.13375L122.862 8.09493L122.823 8.05618L122.784 8.01746L122.745 7.97889L122.706 7.94037L122.667 7.90187L122.628 7.86353L122.589 7.82525L122.526 7.78649L122.485 7.74832L122.446 7.71022L122.407 7.67219L122.367 7.63427L122.328 7.59641L122.289 7.55861L122.249 7.5209L122.21 7.48328L122.147 7.44504L122.106 7.4075L122.066 7.3701L122.027 7.33272L121.987 7.29545L121.947 7.2583L121.908 7.22116L121.868 7.18411L121.828 7.14719L121.766 7.10948L121.724 7.0725L121.684 7.03583L121.644 6.99915L121.604 6.9625L121.564 6.92606L121.524 6.88962L121.484 6.85322L121.444 6.81699L121.382 6.77983L121.339 6.7435L121.299 6.70747L121.258 6.67151L121.218 6.63556L121.178 6.59975L121.138 6.56404L121.097 6.52833L121.057 6.49276L120.996 6.45616L120.951 6.42049L120.911 6.3851L120.87 6.34986L120.83 6.31463L120.789 6.27946L120.749 6.24447L120.708 6.20949L120.668 6.17455L120.606 6.13854L120.561 6.10353L120.521 6.06883L120.48 6.03427L120.439 5.99977L120.398 5.9653L120.357 5.93099L120.317 5.89674L120.276 5.86251L120.215 5.82708L120.169 5.79269L120.128 5.7587L120.087 5.72487L120.046 5.69105L120.005 5.6573L119.963 5.62372L119.922 5.59016L119.881 5.55665L119.82 5.52183L119.774 5.48808L119.732 5.45478L119.691 5.42169L119.65 5.3886L119.608 5.35555L119.567 5.32271L119.525 5.28987L119.484 5.25707L119.423 5.22288L119.376 5.18977L119.334 5.15718L119.293 5.12482L119.251 5.09248L119.209 5.06014L119.167 5.02803L119.126 4.99594L119.084 4.96386L119.024 4.9303L118.975 4.89784L118.933 4.86601L118.891 4.83435L118.85 4.80276L118.808 4.77119L118.765 4.73979L118.723 4.70846L118.681 4.67714L118.622 4.64423L118.572 4.61238L118.53 4.58133L118.488 4.55043L118.445 4.51955L118.403 4.48877L118.361 4.45812L118.319 4.42751L118.276 4.39699L118.217 4.36475L118.166 4.33353L118.124 4.30324L118.081 4.27311L118.039 4.24298L117.996 4.21297L117.954 4.1831L117.911 4.15322L117.868 4.12349L117.809 4.09195L117.758 4.06136L117.715 4.03186L117.672 4.00249L117.629 3.97314L117.587 3.94392L117.544 3.91481L117.501 3.88572L117.458 3.85678L117.399 3.82594L117.347 3.79598L117.304 3.76733L117.261 3.73869L117.217 3.71014L117.174 3.68175L117.131 3.65338L117.088 3.62512L117.044 3.597L116.986 3.56686L116.933 3.53759L116.889 3.50973L116.846 3.48188L116.803 3.45415L116.759 3.42656L116.716 3.39897L116.672 3.37156L116.628 3.34423L116.57 3.31483L116.516 3.28628L116.473 3.25919L116.429 3.23215L116.385 3.20529L116.341 3.17847L116.297 3.15174L116.254 3.12515L116.21 3.0986L116.151 3.07006L116.097 3.04216L116.053 3.01584L116.009 2.98972L115.965 2.96367L115.921 2.93761L115.876 2.91173L115.832 2.88605L115.788 2.8604L115.73 2.83266L115.674 2.80552L115.63 2.78013L115.586 2.75481L115.541 2.72971L115.497 2.70459L115.452 2.67958L115.408 2.65474L115.363 2.62986L115.306 2.60301L115.25 2.57647L115.205 2.55189L115.16 2.52748L115.115 2.50313L115.071 2.47883L115.026 2.45472L114.981 2.43064L114.936 2.40664L114.879 2.38065L114.822 2.35471L114.777 2.331L114.732 2.30744L114.687 2.28388L114.642 2.26048L114.597 2.23717L114.552 2.21389L114.507 2.19081L114.45 2.16563L114.392 2.14028L114.346 2.11745L114.301 2.0947L114.256 2.07198L114.211 2.04942L114.165 2.02695L114.12 2.00453L114.074 1.98227L114.018 1.95791L113.959 1.93326L113.913 1.91126L113.868 1.88928L113.822 1.86748L113.777 1.84574L113.731 1.82405L113.685 1.80256L113.64 1.7811L113.583 1.75757L113.524 1.73361L113.478 1.71244L113.432 1.69129L113.386 1.67036L113.34 1.64947L113.294 1.62865L113.248 1.60801L113.202 1.58739L113.146 1.5648L113.086 1.54142L113.04 1.52105L112.994 1.50087L112.948 1.48072L112.901 1.46065L112.855 1.44078L112.809 1.42091L112.763 1.40116L112.707 1.37951L112.646 1.35669L112.599 1.3372L112.553 1.31789L112.507 1.29858L112.46 1.27942L112.414 1.26039L112.367 1.24135L112.321 1.22251L112.265 1.20175L112.203 1.17955L112.156 1.16099L112.11 1.14247L112.063 1.12406L112.016 1.10578L111.97 1.08754L111.923 1.06945L111.876 1.05146L111.821 1.03156L111.758 1.01007L111.711 0.992366L111.664 0.974669L111.617 0.957229L111.57 0.939807L111.523 0.922429L111.476 0.90528L111.429 0.888132L111.374 0.86923L111.31 0.848344L111.263 0.831479L111.216 0.814792L111.169 0.798151L111.122 0.781576L111.074 0.765214L111.027 0.748872L111.031 0.743469L111.122 0.756498L111.204 0.7671L111.303 0.782088L111.401 0.797199L111.5 0.812315L111.599 0.827601L111.697 0.842999L111.796 0.858394L111.894 0.873981L111.986 0.887929L112.067 0.899079L112.166 0.91491L112.265 0.93086L112.363 0.946815L112.462 0.96294L112.56 0.979172L112.659 0.995412L112.757 1.01183L112.849 1.02671L112.93 1.0384L113.028 1.05511L113.127 1.07185L113.225 1.08866L113.324 1.10565L113.422 1.12268L113.52 1.13977L113.619 1.15706L113.711 1.17284L113.791 1.18507L113.889 1.20265L113.988 1.22023L114.086 1.23785L114.184 1.25571L114.282 1.27357L114.381 1.29149L114.479 1.30964L114.572 1.32636L114.651 1.33913L114.749 1.35754L114.847 1.37596L114.945 1.39442L115.043 1.41311L115.142 1.43181L115.24 1.45057L115.338 1.46955L115.431 1.48723L115.51 1.50056L115.608 1.51976L115.706 1.53903L115.804 1.55837L115.901 1.57786L115.999 1.59741L116.097 1.61704L116.195 1.63682L116.289 1.65547L116.367 1.66933L116.465 1.68936L116.562 1.70943L116.66 1.72964L116.758 1.74997L116.856 1.77032L116.954 1.79082L117.051 1.81142L117.146 1.83103L117.223 1.84541L117.32 1.8663L117.418 1.88717L117.516 1.90825L117.613 1.92941L117.711 1.95056L117.808 1.97193L117.906 1.99337L118 2.01392L118.077 2.02882L118.174 2.05054L118.272 2.07226L118.369 2.09417L118.467 2.11616L118.564 2.13815L118.661 2.16035L118.759 2.18262L118.854 2.20416L118.93 2.21958L119.027 2.2421L119.124 2.26465L119.221 2.28741L119.319 2.31021L119.416 2.33305L119.513 2.35609L119.61 2.37918L119.705 2.40175L119.781 2.41765L119.878 2.44097L119.975 2.46437L120.072 2.48798L120.169 2.51157L120.266 2.53528L120.363 2.55916L120.46 2.58304L120.555 2.60666L120.63 2.623L120.727 2.64715L120.824 2.67139L120.92 2.69582L121.017 2.72026L121.114 2.74479L121.211 2.7695L121.307 2.79422L121.404 2.81885L121.477 2.83563L121.574 2.86061L121.671 2.88572L121.767 2.91094L121.864 2.9362L121.96 2.96161L122.057 2.98712L122.153 3.01265L122.25 3.03832L122.323 3.05553L122.419 3.08133L122.516 3.1073L122.612 3.13333L122.709 3.15942L122.805 3.18568L122.901 3.21198L122.997 3.23835L123.094 3.2649L123.167 3.28291L123.263 3.30931L123.359 3.33615L123.455 3.36302L123.551 3.38988L123.647 3.41701L123.744 3.44415L123.84 3.47131L123.936 3.49872L124.009 3.51757L124.104 3.54461L124.2 3.57225L124.296 3.59993L124.392 3.62765L124.488 3.65557L124.584 3.68353L124.68 3.71154L124.776 3.73975L124.85 3.75944L124.944 3.78713L125.04 3.81556L125.135 3.84405L125.231 3.87265L125.327 3.90136L125.422 3.93013L125.518 3.959L125.613 3.98799L125.688 4.00855L125.781 4.03687L125.877 4.06613L125.972 4.0954L126.068 4.12485L126.163 4.15438L126.258 4.18393L126.354 4.21367L126.449 4.24348L126.524 4.26488L126.616 4.29379L126.712 4.32386L126.807 4.35394L126.902 4.38423L126.997 4.41459L127.092 4.44494L127.187 4.47553L127.282 4.50616L127.358 4.52841L127.449 4.55792L127.544 4.5888L127.639 4.6197L127.734 4.6508L127.829 4.68196L127.924 4.71316L128.019 4.74453L128.114 4.77598L128.189 4.79914L128.28 4.82921L128.375 4.86085L128.469 4.89262L128.564 4.92453L128.659 4.95648L128.753 4.98852L128.848 5.02071L128.942 5.05293L129.018 5.07702L129.108 5.10764L129.203 5.1401L129.297 5.1727L129.392 5.20542L129.486 5.23816L129.58 5.27104L129.674 5.30403L129.769 5.33704L129.845 5.36206L129.934 5.39319L130.029 5.42647L130.123 5.45989L130.217 5.49341L130.311 5.52696L130.405 5.56065L130.499 5.59445L130.593 5.62827L130.669 5.65421L130.758 5.68586L130.852 5.71993L130.945 5.75419L131.039 5.78849L131.133 5.82284L131.227 5.85738L131.32 5.89195L131.414 5.92658L131.491 5.95347L131.579 5.98561L131.672 6.02048L131.766 6.05557L131.859 6.09067L131.953 6.12583L132.046 6.16119L132.14 6.19655L132.233 6.23202L132.31 6.2598L132.397 6.29244L132.49 6.32813L132.584 6.364L132.677 6.39989L132.77 6.43586L132.863 6.472L132.956 6.50817L133.049 6.54442L133.126 6.57311L133.213 6.60626L133.306 6.64281L133.398 6.67944L133.491 6.71612L133.584 6.75294L133.677 6.78986L133.77 6.82681L133.863 6.86391L133.94 6.89349L134.026 6.92709L134.118 6.96448L134.211 7.0019L134.303 7.03935L134.396 7.07703L134.488 7.11472L134.581 7.15244L134.673 7.19038L134.751 7.22089L134.836 7.25494L134.928 7.29313L135.02 7.33134L135.112 7.36959L135.205 7.40806L135.297 7.44653L135.389 7.48504L135.481 7.52378L135.559 7.55522L135.643 7.58978L135.735 7.62875L135.827 7.66775L135.919 7.70681L136.011 7.74604L136.102 7.78531L136.194 7.82466L136.286 7.86415L136.364 7.89653L136.447 7.9316L136.539 7.97132L136.631 8.01108L136.722 8.05099L136.814 8.09098L136.905 8.131L136.997 8.17119L137.088 8.21144L137.166 8.24477L137.249 8.2803L137.34 8.32081L137.431 8.36132L137.522 8.40205L137.614 8.44282L137.705 8.48358L137.796 8.52459L137.887 8.56563L137.966 8.59988L138.047 8.63586L138.138 8.67716L138.229 8.71845L138.32 8.75996L138.411 8.80152L138.501 8.8431L138.592 8.88489L138.683 8.9267L138.762 8.96192L138.842 8.99832L138.933 9.04035L139.024 9.08247L139.114 9.12474L139.205 9.16705L139.295 9.20946L139.385 9.25199L139.476 9.29456L139.555 9.33079L139.635 9.3676L139.725 9.41039L139.815 9.45331L139.905 9.49636L139.995 9.53941L140.085 9.58262L140.175 9.62592L140.265 9.66922L140.345 9.70648L140.424 9.74368L140.513 9.78723L140.603 9.83093L140.693 9.87477L140.783 9.91858L140.873 9.96257L140.962 10.0066L141.052 10.0507L141.131 10.0889L141.209 10.1265L141.299 10.1708L141.388 10.2154L141.478 10.2599L141.567 10.3045L141.656 10.3493L141.746 10.3941L141.835 10.4389L141.914 10.4782L141.992 10.5161L142.081 10.5612L142.17 10.6065L142.259 10.6518L142.348 10.6972L142.437 10.7427L142.526 10.7882L142.615 10.8339L142.694 10.8741L142.771 10.9124L142.86 10.9583L142.948 11.0044L143.037 11.0504L143.125 11.0965L143.214 11.1428L143.302 11.1891L143.391 11.2356L143.471 11.2768L143.547 11.3154L143.635 11.3621L143.723 11.4088L143.811 11.4557L143.9 11.5026L143.988 11.5496L144.076 11.5967L144.164 11.6439L144.244 11.6861L144.319 11.7251L144.407 11.7725L144.494 11.82L144.582 11.8675L144.67 11.9153L144.758 11.963L144.846 12.0108L144.933 12.0588L145.013 12.102L145.087 12.1413L145.175 12.1895L145.262 12.2378L145.35 12.2861L145.437 12.3346L145.524 12.3831L145.612 12.4316L145.699 12.4804L145.779 12.5245L145.852 12.5641L145.939 12.6131L146.026 12.6621L146.114 12.7112L146.2 12.7604L146.287 12.8096L146.374 12.859L146.461 12.9084L146.541 12.9536L146.614 12.9936L146.7 13.0432L146.787 13.093L146.874 13.1428L146.96 13.1928L147.047 13.2427L147.133 13.2929L147.219 13.343L147.3 13.3892L147.371 13.4295L147.458 13.4799L147.544 13.5304L147.63 13.581L147.716 13.6317L147.802 13.6823L147.888 13.7332L147.974 13.7841L148.055 13.8313L148.125 13.8719L148.211 13.9231L148.297 13.9743L148.383 14.0256L148.468 14.077L148.554 14.1284L148.64 14.18L148.725 14.2317L148.806 14.2799L148.876 14.3208L148.961 14.3727L149.046 14.4246L149.132 14.4767L149.217 14.5288L149.302 14.581L149.387 14.6333L149.472 14.6857L149.553 14.7349L149.622 14.7761L149.707 14.8286L149.792 14.8814L149.876 14.9341L149.961 14.987L150.046 15.0399L150.131 15.093L150.215 15.146L150.296 15.1964L150.364 15.2377L150.449 15.291L150.533 15.3445L150.617 15.398L150.702 15.4515L150.786 15.5052L150.87 15.559L150.954 15.6127L151.035 15.6641L151.103 15.7057L151.187 15.7597L151.271 15.8139L151.354 15.8682L151.438 15.9224L151.522 15.9768L151.606 16.0313L151.69 16.0858L151.77 16.1382L151.837 16.18L151.92 16.2348L152.004 16.2897L152.087 16.3446L152.171 16.3996L152.254 16.4547L152.337 16.5099L152.421 16.5651L152.501 16.6185L152.567 16.6606L152.65 16.7161L152.733 16.7717L152.816 16.8273L152.899 16.883L152.982 16.9389L153.065 16.9947L153.148 17.0507L153.228 17.1051L153.293 17.1474L153.376 17.2036L153.458 17.2599L153.541 17.3162L153.623 17.3727L153.706 17.4292L153.788 17.4857L153.871 17.5425L153.951 17.598L154.015 17.6404L154.097 17.6974L154.18 17.7543L154.262 17.8113L154.344 17.8685L154.425 17.9257L154.507 17.983L154.589 18.0404L154.67 18.0969L154.733 18.1396L154.815 18.1973L154.896 18.2549L154.978 18.3126L155.059 18.3705L155.141 18.4284L155.222 18.4864L155.303 18.5445L155.384 18.602L155.447 18.6449L155.528 18.7032L155.609 18.7616L155.69 18.82L155.771 18.8786L155.852 18.9372L155.933 18.9958L156.013 19.0546L156.094 19.1132L156.156 19.1564L156.236 19.2153L156.317 19.2744L156.397 19.3336L156.478 19.3928L156.558 19.452L156.639 19.5114L156.719 19.5709L156.799 19.6303L156.861 19.674L156.941 19.7335L157.021 19.7932L157.101 19.853L157.181 19.9129L157.261 19.9728L157.34 20.0329L157.42 20.0931L157.5 20.1532L157.561 20.1978L157.64 20.2576L157.72 20.318L157.799 20.3785L157.879 20.4391L157.958 20.4997L158.038 20.5604L158.117 20.6212L158.196 20.6821L158.258 20.7276L158.336 20.7877L158.415 20.8487L158.494 20.9099L158.573 20.9712L158.652 21.0325L158.73 21.0939L158.809 21.1554L158.888 21.2169L158.949 21.2633L159.026 21.3236L159.105 21.3854L159.183 21.4473L159.262 21.5092L159.34 21.5712L159.419 21.6333L159.497 21.6954L159.575 21.7577L159.636 21.8049L159.713 21.8655L159.791 21.928L159.868 21.9905L159.946 22.053L160.024 22.1158L160.102 22.1785L160.18 22.2412L160.257 22.3042L160.319 22.3524L160.394 22.4132L160.472 22.4764L160.549 22.5395L160.626 22.6027L160.704 22.6661L160.781 22.7295L160.858 22.793L160.935 22.8565L160.997 22.9056L161.071 22.9668L161.148 23.0305L161.225 23.0944L161.301 23.1583L161.378 23.2223L161.455 23.2863L161.532 23.3504L161.608 23.4146L161.67 23.4647L161.743 23.5261L161.819 23.5905L161.896 23.6549L161.972 23.7195L162.048 23.7842L162.124 23.8488L162.2 23.9136L162.276 23.9785L162.338 24.0294L162.41 24.091L162.486 24.1561L162.562 24.2212L162.638 24.2864L162.713 24.3517L162.789 24.417L162.864 24.4825L162.94 24.548L163.001 24.5999L163.073 24.6617L163.148 24.7274L163.223 24.7932L163.298 24.8591L163.373 24.925L163.448 24.991L163.523 25.057L163.598 25.1232L163.66 25.176L163.73 25.2381L163.805 25.3044L163.88 25.3708L163.954 25.4373L164.029 25.5038L164.103 25.5705L164.178 25.6372L164.252 25.7039L164.313 25.7577L164.383 25.82L164.457 25.8869L164.531 25.954L164.605 26.0211L164.679 26.0883L164.753 26.1556L164.827 26.2229L164.901 26.2903L164.962 26.345L165.03 26.4074L165.104 26.475L165.178 26.5427L165.251 26.6105L165.324 26.6782L165.398 26.7462L165.471 26.8141L165.544 26.8821L165.605 26.9378L165.673 27.0004L165.746 27.0686L165.819 27.1369L165.892 27.2053L165.965 27.2737L166.037 27.3422L166.11 27.4108L166.183 27.4795L166.244 27.5361L166.311 27.5988L166.383 27.6676L166.455 27.7366L166.528 27.8056L166.6 27.8746L166.672 27.9438L166.744 28.013L166.816 28.0823L166.877 28.1398L166.943 28.2027L167.015 28.2721L167.087 28.3417L167.158 28.4113L167.23 28.481L167.302 28.5507L167.373 28.6205L167.445 28.6904L167.505 28.7489L167.57 28.8119L167.642 28.882L167.713 28.9521L167.784 29.0223L167.855 29.0926L167.926 29.163L167.997 29.2334L168.068 29.3039L168.128 29.3633L168.192 29.4265L168.263 29.4972L168.334 29.5679L168.404 29.6387L168.475 29.7096L168.545 29.7806L168.615 29.8516L168.685 29.9227L168.746 29.9831L168.809 30.0463L168.879 30.1176L168.949 30.189L169.019 30.2604L169.089 30.3319L169.159 30.4034L169.228 30.475L169.298 30.5468L169.359 30.6081L169.421 30.6715L169.49 30.7433L169.559 30.8153L169.629 30.8873L169.698 30.9594L169.767 31.0315L169.836 31.1037L169.905 31.176L169.966 31.2383L170.027 31.3018L170.096 31.3743L170.164 31.4467L170.233 31.5194L170.302 31.5921L170.37 31.6647L170.439 31.7376L170.507 31.8104L170.567 31.8737L170.628 31.9373L170.696 32.0103L170.764 32.0834L170.832 32.1566L170.9 32.2299L170.968 32.3031L171.036 32.3766L171.103 32.45L171.163 32.5142L171.223 32.5778L171.29 32.6515L171.358 32.7252L171.425 32.7989L171.493 32.8728L171.56 32.9466L171.627 33.0206L171.694 33.0946L171.754 33.1598L171.813 33.2235L171.88 33.2977L171.946 33.372L172.013 33.4463L172.08 33.5207L172.147 33.5952L172.213 33.6697L172.28 33.7443L172.339 33.8104L172.397 33.8742L172.463 33.9489L172.529 34.0238L172.596 34.0987L172.662 34.1736L172.728 34.2487L172.794 34.3238L172.86 34.3989L172.919 34.466L172.976 34.5298L173.041 34.6051L173.107 34.6806L173.172 34.7561L173.238 34.8316L173.303 34.9072L173.368 34.9828L173.434 35.0585L173.493 35.1266L173.549 35.1904L173.614 35.2663L173.679 35.3423L173.743 35.4183L173.808 35.4944L173.873 35.5705L173.938 35.6467L174.002 35.723L174.061 35.792L174.116 35.8559L174.18 35.9324L174.245 36.0089L174.309 36.0854L174.373 36.1621L174.437 36.2388L174.501 36.3155L174.565 36.3924L174.624 36.4624L174.678 36.5262L174.741 36.6032L174.805 36.6803L174.869 36.7574L174.932 36.8346L174.996 36.9118L175.059 36.9891L175.122 37.0665L175.181 37.1375L175.234 37.2013L175.297 37.2788L175.36 37.3564L175.423 37.4341L175.485 37.5118L175.548 37.5896L175.611 37.6675L175.673 37.7454L175.732 37.8173L175.784 37.8812L175.846 37.9593L175.908 38.0374L175.971 38.1156L176.033 38.1938L176.095 38.2721L176.157 38.3505L176.219 38.429L176.277 38.5018L176.328 38.5657L176.39 38.6443L176.451 38.7229L176.513 38.8017L176.574 38.8805L176.636 38.9593L176.697 39.0382L176.758 39.1172L176.816 39.191L176.866 39.2549L176.927 39.334L176.988 39.4132L177.049 39.4925L177.11 39.5718L177.171 39.6511L177.232 39.7306L177.292 39.8101L177.349 39.8849L177.399 39.9487L177.459 40.0283L177.52 40.108L177.58 40.1878L177.64 40.2676L177.7 40.3475L177.76 40.4275L177.82 40.5075L177.877 40.5833L177.925 40.647L177.985 40.7272L178.045 40.8074L178.104 40.8877L178.164 40.968L178.223 41.0485L178.282 41.1289L178.342 41.2094L178.398 41.2862L178.446 41.3499L178.505 41.4305L178.564 41.5113L178.623 41.5921L178.681 41.673L178.74 41.7539L178.799 41.8348L178.857 41.9159L178.913 41.9936L178.96 42.0572L179.019 42.1384L179.077 42.2197L179.135 42.3009L179.193 42.3823L179.251 42.4637L179.309 42.5452L179.367 42.6267L179.423 42.7054L179.469 42.7689L179.526 42.8506L179.584 42.9324L179.641 43.0141L179.699 43.096L179.756 43.1779L179.813 43.2598L179.87 43.3419L179.926 43.4215L179.971 43.485L180.028 43.5672L180.084 43.6494L180.141 43.7317L180.198 43.814L180.254 43.8964L180.311 43.9789L180.367 44.0614L180.422 44.142L180.467 44.2053L180.523 44.288L180.579 44.3707L180.635 44.4535L180.691 44.5363L180.747 44.6192L180.803 44.7022L180.858 44.7852L180.913 44.8667L180.957 44.93L181.012 45.0131L181.067 45.0963L181.123 45.1796L181.178 45.2629L181.233 45.3462L181.288 45.4297L181.343 45.5132L181.397 45.5956L181.44 45.6588L181.495 45.7424L181.549 45.8261L181.604 45.9098L181.659 45.9936L181.713 46.0775L181.767 46.1614L181.822 46.2453L181.876 46.3287L181.917 46.3918L181.971 46.4759L182.025 46.56L182.079 46.6442L182.133 46.7285L182.187 46.8128L182.24 46.8971L182.294 46.9815L182.347 47.066L182.388 47.1289L182.441 47.2134L182.495 47.298L182.548 47.3827L182.601 47.4674L182.654 47.5522L182.707 47.637L182.76 47.7219L182.812 47.8068L182.853 47.8705L182.905 47.955L182.958 48.0401L183.01 48.1252L183.062 48.2104L183.115 48.2956L183.167 48.3809L183.219 48.4662L183.271 48.5516L183.311 48.6161L183.362 48.7006L183.414 48.7861L183.466 48.8717L183.517 48.9573L183.569 49.043L183.62 49.1287L183.672 49.2145L183.723 49.3003L183.763 49.3657L183.813 49.4502L183.864 49.5361L183.915 49.6221L183.966 49.7082L184.017 49.7943L184.067 49.8805L184.118 49.9667L184.169 50.0529L184.208 50.1192L184.258 50.2036L184.308 50.29L184.358 50.3764L184.408 50.4629L184.458 50.5494L184.508 50.6361L184.558 50.7227L184.608 50.8094L184.647 50.8765L184.695 50.9608L184.745 51.0476L184.794 51.1345L184.844 51.2214L184.893 51.3084L184.942 51.3955L184.991 51.4825L185.04 51.5696L185.079 51.6377L185.126 51.7218L185.175 51.8091L185.224 51.8964L185.272 51.9838L185.321 52.0712L185.369 52.1586L185.418 52.2461L185.466 52.3337L185.505 52.4025L185.551 52.4866L185.599 52.5742L185.647 52.662L185.695 52.7498L185.742 52.8376L185.79 52.9255L185.838 53.0134L185.885 53.1014L185.923 53.171L185.969 53.255L186.016 53.3431L186.063 53.4313L186.11 53.5194L186.157 53.6077L186.204 53.696L186.251 53.7843L186.298 53.8727L186.336 53.9432L186.38 54.0271L186.426 54.1156L186.473 54.2041L186.519 54.2927L186.565 54.3814L186.611 54.47L186.657 54.5588L186.703 54.6475L186.741 54.7189L186.784 54.8026L186.83 54.8916L186.876 54.9805L186.921 55.0695L186.967 55.1586L187.012 55.2476L187.057 55.3368L187.102 55.426L187.14 55.4982L187.182 55.5818L187.227 55.6711L187.272 55.7604L187.316 55.8498L187.361 55.9392L187.406 56.0288L187.45 56.1183L187.495 56.2078L187.531 56.2809L187.573 56.3644L187.617 56.454L187.661 56.5438L187.705 56.6335L187.749 56.7233L187.792 56.8132L187.836 56.9031L187.88 56.9931L187.916 57.067L187.957 57.1503L188 57.2403L188.043 57.3305L188.086 57.4206L188.13 57.5109L188.173 57.6011L188.215 57.6914L188.258 57.7817L188.294 57.8565L188.334 57.9396L188.376 58.0301L188.419 58.1206L188.461 58.2111L188.503 58.3017L188.546 58.3923L188.588 58.4829L188.63 58.5736L188.665 58.6493L188.704 58.7321L188.745 58.823L188.787 58.9138L188.829 59.0047L188.87 59.0957L188.912 59.1867L188.953 59.2777L188.994 59.3688L189.029 59.4452L189.067 59.528L189.108 59.6192L189.149 59.7104L189.19 59.8016L189.23 59.893L189.271 59.9843L189.311 60.0757L189.352 60.1671L189.386 60.2444L189.423 60.327L189.463 60.4185L189.503 60.5101L189.543 60.6017L189.583 60.6934L189.623 60.785L189.663 60.8768L189.702 60.9686L189.736 61.0467L189.772 61.129L189.811 61.2209L189.851 61.3128L189.89 61.4048L189.929 61.4968L189.968 61.5889L190.007 61.6809L190.046 61.773L190.079 61.852L190.114 61.9341L190.153 62.0263L190.191 62.1186L190.229 62.2109L190.268 62.3033L190.306 62.3957L190.344 62.4881L190.382 62.5805L190.415 62.6604L190.449 62.7422L190.487 62.8348L190.524 62.9274L190.562 63.02L190.599 63.1127L190.637 63.2054L190.674 63.2982L190.711 63.391L190.744 63.4716L190.777 63.5532L190.814 63.6461L190.851 63.7391L190.887 63.8321L190.924 63.9251L190.96 64.0181L190.997 64.1112L191.033 64.2043L191.065 64.2858L191.097 64.3671L191.133 64.4604L191.169 64.5536L191.205 64.6469L191.241 64.7403L191.277 64.8336L191.313 64.927L191.348 65.0205L191.38 65.1028L191.411 65.1839L191.446 65.2774L191.481 65.371L191.516 65.4646L191.551 65.5582L191.586 65.6519L191.621 65.7456L191.656 65.8393L191.687 65.9225L191.717 66.0033L191.751 66.0972L191.786 66.191L191.82 66.285L191.854 66.3789L191.888 66.4729L191.922 66.5669L191.956 66.6609L191.986 66.7449L192.016 66.8254L192.049 66.9196L192.083 67.0138L192.116 67.108L192.15 67.2022L192.183 67.2966L192.216 67.3908L192.249 67.4852L192.279 67.57L192.307 67.6502L192.34 67.7447L192.373 67.8392L192.405 67.9336L192.438 68.0282L192.47 68.1228L192.503 68.2174L192.535 68.312L192.564 68.3976L192.591 68.4775L192.623 68.5723L192.655 68.667L192.687 68.7618L192.719 68.8567L192.75 68.9515L192.782 69.0464L192.813 69.1413L192.842 69.2277L192.868 69.3074L192.899 69.4024L192.931 69.4974L192.961 69.5925L192.992 69.6876L193.023 69.7827L193.054 69.8779L193.084 69.9731L193.112 70.0603L193.138 70.1396L193.168 70.2349L193.198 70.3302L193.228 70.4256L193.258 70.5209L193.288 70.6164L193.318 70.7118L193.348 70.8073L193.375 70.8953L193.4 70.9743L193.429 71.0698L193.459 71.1654L193.488 71.261L193.517 71.3567L193.546 71.4523L193.575 71.548L193.604 71.6438L193.631 71.7326L193.655 71.8112L193.683 71.907L193.712 72.0029L193.74 72.0987L193.768 72.1946L193.796 72.2906L193.825 72.3865L193.853 72.4825L193.879 72.5721L193.902 72.6504L193.929 72.7465L193.957 72.8426L193.985 72.9387L194.012 73.0348L194.039 73.131L194.067 73.2272L194.094 73.3234L194.119 73.4137L194.141 73.4918L194.168 73.5881L194.195 73.6844L194.222 73.7807L194.248 73.8771L194.275 73.9735L194.301 74.07L194.327 74.1664L194.352 74.2576L194.373 74.3352L194.399 74.4317L194.425 74.5283L194.451 74.6249L194.477 74.7215L194.502 74.8182L194.528 74.9148L194.553 75.0115L194.577 75.1035L194.598 75.1807L194.623 75.2775L194.648 75.3743L194.673 75.4711L194.698 75.5679L194.723 75.6648L194.747 75.7617L194.772 75.8586L194.795 75.9513L194.815 76.0282L194.839 76.1252L194.863 76.2222L194.888 76.3192L194.911 76.4163L194.935 76.5134L194.959 76.6105L194.983 76.7076L195.006 76.8011L195.024 76.8776L195.048 76.9748L195.071 77.072L195.094 77.1693L195.117 77.2666L195.14 77.3638L195.163 77.4612L195.186 77.5585L195.208 77.6528L195.226 77.7289L195.249 77.8263L195.271 77.9237L195.293 78.0212L195.316 78.1186L195.338 78.2161L195.36 78.3136L195.382 78.4112L195.403 78.5062L195.42 78.5819L195.442 78.6795L195.463 78.7771L195.485 78.8748L195.506 78.9724L195.528 79.0701L195.549 79.1678L195.57 79.2656L195.59 79.3613L195.607 79.4366L195.627 79.5344L195.648 79.6322L195.669 79.73L195.689 79.8279L195.71 79.9258L195.73 80.0237L195.75 80.1216L195.77 80.2181L195.785 80.293L195.805 80.391L195.825 80.4889L195.845 80.587L195.865 80.685L195.884 80.7831L195.903 80.8811L195.923 80.9793L195.942 81.0765L195.956 81.1509L195.976 81.2491L195.995 81.3473L196.013 81.4454L196.032 81.5437L196.051 81.6418L196.069 81.7401L196.088 81.8384L196.106 81.9363L196.12 82.0104L196.138 82.1087L196.156 82.207L196.174 82.3054L196.192 82.4037L196.21 82.5022L196.227 82.6006L196.245 82.699L196.262 82.7974L196.275 82.8715L196.293 82.9697L196.31 83.0682L196.327 83.1667L196.344 83.2653L196.361 83.3638L196.378 83.4624L196.394 83.561L196.411 83.6596L196.423 83.7343L196.44 83.8322L196.456 83.9308L196.472 84.0295L196.488 84.1282L196.504 84.2268L196.52 84.3255L196.536 84.4243L196.552 84.523L196.564 84.5984L196.579 84.6958L196.594 84.7946L196.61 84.8934L196.625 84.9923L196.64 85.0911L196.655 85.19L196.67 85.2888L196.685 85.3877L196.696 85.4638L196.71 85.5608L196.725 85.6597L196.739 85.7587L196.754 85.8576L196.768 85.9566L196.782 86.0556L196.796 86.1545L196.81 86.2536L196.82 86.3304L196.834 86.4269L196.848 86.5259L196.861 86.625L196.875 86.7241L196.888 86.8232L196.901 86.9222L196.914 87.0214L196.927 87.1205L196.937 87.1979L196.95 87.294L196.962 87.3932L196.975 87.4924L196.988 87.5916L197 87.6908L197.012 87.79L197.025 87.8892L197.037 87.9885L197.046 88.0666L197.058 88.1622L197.07 88.2615L197.081 88.3607L197.093 88.4601L197.104 88.5594L197.116 88.6587L197.127 88.7581L197.138 88.8574L197.147 88.9362L197.158 89.0313L197.169 89.1307L197.18 89.2301L197.19 89.3295L197.201 89.4289L197.212 89.5283L197.222 89.6278L197.232 89.7272L197.24 89.8066L197.25 89.9013L197.26 90.0008L197.27 90.1003L197.28 90.1997L197.29 90.2992L197.299 90.3988L197.309 90.4983L197.318 90.5978L197.326 90.6779L197.335 90.772L197.344 90.8716L197.353 90.9712L197.362 91.0708L197.371 91.1703L197.379 91.27L197.388 91.3696L197.397 91.4692L197.403 91.5498L197.411 91.6435L197.419 91.7432L197.428 91.8428L197.436 91.9425L197.444 92.0422L197.451 92.1418L197.459 92.2415L197.467 92.3412L197.473 92.4225L197.48 92.5157L197.487 92.6154L197.495 92.7151L197.502 92.8149L197.509 92.9146L197.516 93.0143L197.523 93.1141L197.529 93.2138L197.535 93.2958L197.541 93.3884L197.547 93.4882L197.554 93.588L197.56 93.6878L197.566 93.7875L197.572 93.8873L197.578 93.9871L197.584 94.087L197.589 94.1695L197.594 94.2617L197.599 94.3615L197.605 94.4613L197.61 94.5611L197.615 94.661L197.621 94.7608L197.626 94.8607L197.631 94.9605L197.635 95.0437L197.639 95.1353L197.644 95.2352L197.648 95.335L197.653 95.4349L197.657 95.5348L197.661 95.6347L197.665 95.7346L197.669 95.8345L197.673 95.9183L197.676 96.0093L197.68 96.1092L197.684 96.2092L197.687 96.3091L197.691 96.409L197.694 96.5089L197.697 96.6088L197.701 96.7088L197.703 96.7932L197.705 96.8837L197.708 96.9836L197.711 97.0836L197.714 97.1835L197.716 97.2834L197.719 97.3834L197.721 97.4833L197.724 97.5833L197.725 97.6683L197.727 97.7582L197.729 97.8582L197.731 97.9582L197.733 98.0581L197.734 98.1581L197.736 98.258L197.737 98.358L197.739 98.458L197.74 98.5436L197.741 98.6329L197.742 98.7329L197.743 98.8329L197.743 98.9329L197.744 99.0328L197.745 99.1328L197.745 99.2328L197.746 99.3328L197.746 99.4189L197.746 99.5077L197.746 99.6077L197.746 99.7076L197.746 99.8076L197.746 99.9076L197.746 100.008L197.746 100.108L197.745 100.208L197.745 100.294L197.744 100.383L197.743 100.483L197.742 100.582L197.741 100.682L197.74 100.782L197.739 100.882L197.738 100.982L197.737 101.082L197.735 101.17L197.734 101.257L197.732 101.357L197.73 101.457L197.729 101.557L197.727 101.657L197.725 101.757L197.722 101.857L197.72 101.957L197.718 102.045L197.716 102.132L197.713 102.232L197.711 102.332L197.708 102.432L197.705 102.532L197.702 102.632L197.699 102.732L197.696 102.832L197.693 102.92L197.69 103.006L197.686 103.106L197.683 103.206L197.679 103.306L197.676 103.406L197.672 103.506L197.668 103.606L197.664 103.706L197.66 103.795L197.656 103.881L197.652 103.98L197.647 104.08L197.643 104.18L197.638 104.28L197.633 104.38L197.629 104.48L197.624 104.58L197.619 104.669L197.614 104.754L197.609 104.854L197.604 104.954L197.598 105.054L197.593 105.154L197.587 105.253L197.582 105.353L197.576 105.453L197.57 105.543L197.565 105.628L197.559 105.727L197.553 105.827L197.546 105.927L197.54 106.027L197.533 106.127L197.527 106.226L197.52 106.326L197.514 106.417L197.507 106.501L197.5 106.6L197.493 106.7L197.486 106.8L197.479 106.899L197.471 106.999L197.464 107.099L197.456 107.198L197.449 107.289L197.442 107.373L197.434 107.473L197.426 107.572L197.418 107.672L197.41 107.771L197.402 107.871L197.393 107.971L197.385 108.07L197.377 108.162L197.369 108.245L197.36 108.344L197.351 108.444L197.342 108.543L197.333 108.643L197.324 108.742L197.315 108.842L197.305 108.941L197.296 109.033L197.288 109.116L197.278 109.215L197.269 109.315L197.259 109.414L197.249 109.513L197.239 109.613L197.228 109.712L197.218 109.812L197.208 109.904L197.199 109.986L197.189 110.085L197.178 110.185L197.167 110.284L197.156 110.383L197.145 110.483L197.134 110.582L197.123 110.681L197.112 110.774L197.103 110.855L197.091 110.954L197.08 111.054L197.068 111.153L197.056 111.252L197.044 111.352L197.032 111.451L197.02 111.55L197.009 111.644L196.998 111.724L196.986 111.823L196.973 111.922L196.961 112.021L196.948 112.12L196.935 112.219L196.922 112.319L196.91 112.418L196.897 112.512L196.886 112.591L196.873 112.69L196.859 112.789L196.846 112.888L196.832 112.987L196.819 113.086L196.805 113.185L196.791 113.284L196.778 113.379L196.766 113.458L196.752 113.557L196.737 113.655L196.723 113.754L196.709 113.853L196.694 113.952L196.679 114.051L196.665 114.15L196.65 114.245L196.638 114.323L196.623 114.422L196.608 114.52L196.592 114.619L196.577 114.718L196.562 114.817L196.546 114.916L196.531 115.014L196.515 115.11L196.502 115.187L196.486 115.286L196.47 115.384L196.454 115.483L196.438 115.582L196.421 115.68L196.405 115.779L196.389 115.877L196.372 115.973L196.359 116.05L196.342 116.148L196.325 116.247L196.308 116.345L196.291 116.444L196.274 116.542L196.256 116.641L196.239 116.739L196.222 116.835L196.207 116.911L196.19 117.01L196.172 117.108L196.154 117.206L196.136 117.305L196.118 117.403L196.1 117.501L196.081 117.6L196.063 117.696L196.048 117.771L196.03 117.87L196.011 117.968L195.992 118.066L195.973 118.164L195.955 118.262L195.935 118.36L195.916 118.459L195.897 118.555L195.882 118.63L195.862 118.728L195.843 118.826L195.823 118.924L195.803 119.022L195.783 119.12L195.763 119.218L195.743 119.316L195.723 119.413L195.707 119.487L195.687 119.585L195.666 119.683L195.646 119.781L195.625 119.878L195.605 119.976L195.584 120.074L195.563 120.172L195.542 120.269L195.525 120.343L195.504 120.44L195.483 120.538L195.461 120.636L195.44 120.733L195.418 120.831L195.396 120.928L195.375 121.026L195.353 121.123L195.335 121.197L195.313 121.294L195.291 121.391L195.269 121.489L195.246 121.586L195.224 121.684L195.201 121.781L195.179 121.878L195.156 121.976L195.138 122.05L195.115 122.146L195.092 122.243L195.069 122.34L195.046 122.437L195.022 122.535L194.999 122.632L194.975 122.729L194.952 122.826L194.933 122.9L194.909 122.996L194.885 123.093L194.861 123.19L194.837 123.287L194.813 123.384L194.789 123.481L194.764 123.578L194.74 123.675L194.72 123.749L194.695 123.844L194.671 123.941L194.646 124.037L194.621 124.134L194.596 124.231L194.571 124.328L194.545 124.424L194.52 124.521L194.499 124.596L194.474 124.69L194.449 124.787L194.423 124.883L194.397 124.98L194.371 125.076L194.345 125.173L194.319 125.269L194.293 125.366L194.271 125.441L194.246 125.534L194.219 125.631L194.193 125.727L194.166 125.823L194.139 125.92L194.112 126.016L194.085 126.112L194.058 126.208L194.036 126.284L194.01 126.376L193.982 126.472L193.955 126.569L193.927 126.665L193.9 126.761L193.872 126.857L193.844 126.953L193.816 127.049L193.793 127.125L193.766 127.216L193.738 127.312L193.709 127.408L193.681 127.504L193.653 127.6L193.624 127.695L193.595 127.791L193.566 127.887L193.543 127.963L193.515 128.054L193.486 128.15L193.457 128.245L193.427 128.341L193.398 128.436L193.369 128.532L193.339 128.627L193.309 128.723L193.285 128.799L193.256 128.889L193.226 128.985L193.196 129.08L193.166 129.175L193.136 129.271L193.106 129.366L193.075 129.461L193.045 129.556L193.019 129.633L192.99 129.722L192.959 129.818L192.929 129.913L192.898 130.008L192.867 130.103L192.835 130.198L192.804 130.293L192.773 130.387L192.746 130.465L192.717 130.553L192.685 130.648L192.653 130.743L192.622 130.837L192.59 130.932L192.558 131.027L192.526 131.121L192.494 131.216L192.466 131.294L192.436 131.381L192.404 131.476L192.371 131.57L192.338 131.665L192.306 131.759L192.273 131.854L192.24 131.948L192.207 132.042L192.179 132.12L192.148 132.207L192.115 132.301L192.081 132.395L192.048 132.49L192.014 132.584L191.981 132.678L191.947 132.772L191.913 132.866L191.884 132.944L191.852 133.03L191.818 133.124L191.784 133.218L191.75 133.312L191.716 133.406L191.681 133.499L191.647 133.593L191.612 133.687L191.582 133.765L191.55 133.85L191.515 133.944L191.48 134.038L191.445 134.131L191.41 134.225L191.374 134.318L191.339 134.412L191.303 134.505L191.273 134.584L191.24 134.668L191.204 134.761L191.168 134.855L191.132 134.948L191.096 135.041L191.06 135.134L191.024 135.228L190.988 135.321L190.956 135.4L190.923 135.483L190.886 135.576L190.849 135.669L190.813 135.762L190.776 135.855L190.739 135.948L190.702 136.041L190.665 136.133L190.632 136.213L190.598 136.295L190.561 136.388L190.524 136.48L190.486 136.573L190.448 136.666L190.411 136.758L190.373 136.851L190.335 136.943L190.301 137.023L190.267 137.104L190.229 137.197L190.19 137.289L190.152 137.381L190.114 137.473L190.075 137.566L190.036 137.658L189.998 137.75L189.963 137.83L189.928 137.911L189.889 138.003L189.85 138.094L189.811 138.186L189.772 138.278L189.732 138.37L189.693 138.462L189.653 138.554L189.618 138.634L189.583 138.714L189.543 138.805L189.503 138.897L189.463 138.989L189.423 139.08L189.383 139.172L189.343 139.263L189.302 139.355L189.266 139.435L189.23 139.514L189.189 139.605L189.149 139.696L189.108 139.788L189.067 139.879L189.026 139.97L188.985 140.061L188.944 140.152L188.907 140.233L188.87 140.311L188.829 140.402L188.788 140.493L188.746 140.584L188.704 140.674L188.663 140.765L188.621 140.856L188.579 140.947L188.541 141.027L188.504 141.105L188.462 141.195L188.419 141.286L188.377 141.376L188.334 141.467L188.292 141.557L188.249 141.647L188.207 141.738L188.168 141.819L188.13 141.895L188.087 141.985L188.044 142.076L188.001 142.166L187.958 142.256L187.914 142.346L187.871 142.436L187.828 142.526L187.787 142.607L187.75 142.682L187.706 142.772L187.662 142.862L187.618 142.952L187.574 143.041L187.53 143.131L187.486 143.221L187.442 143.31L187.401 143.391L187.362 143.466L187.318 143.556L187.273 143.645L187.229 143.734L187.184 143.824L187.139 143.913L187.094 144.002L187.049 144.091L187.007 144.173L186.968 144.247L186.923 144.336L186.877 144.425L186.832 144.514L186.786 144.603L186.741 144.691L186.695 144.78L186.649 144.869L186.606 144.951L186.567 145.024L186.521 145.112L186.475 145.201L186.429 145.289L186.382 145.378L186.336 145.466L186.289 145.555L186.243 145.643L186.199 145.725L186.16 145.797L186.113 145.885L186.066 145.973L186.019 146.062L185.972 146.15L185.924 146.238L185.877 146.326L185.83 146.414L185.785 146.496L185.745 146.567L185.698 146.655L185.65 146.742L185.602 146.83L185.554 146.918L185.506 147.006L185.458 147.093L185.41 147.181L185.364 147.263L185.324 147.333L185.276 147.42L185.227 147.508L185.179 147.595L185.13 147.682L185.081 147.77L185.033 147.857L184.984 147.944L184.937 148.026L184.896 148.096L184.847 148.183L184.798 148.27L184.749 148.356L184.699 148.443L184.65 148.53L184.6 148.617L184.551 148.704L184.503 148.786L184.462 148.854L184.412 148.941L184.362 149.027L184.312 149.114L184.262 149.2L184.212 149.287L184.162 149.373L184.111 149.459L184.063 149.542L184.021 149.609L183.971 149.695L183.92 149.781L183.869 149.867L183.818 149.953L183.767 150.039L183.716 150.125L183.665 150.211L183.616 150.294L183.574 150.36L183.523 150.446L183.471 150.532L183.42 150.617L183.368 150.703L183.316 150.788L183.264 150.874L183.213 150.959L183.162 151.042L183.12 151.108L183.068 151.193L183.016 151.278L182.964 151.363L182.911 151.448L182.859 151.533L182.806 151.618L182.754 151.703L182.702 151.786L182.66 151.851L182.607 151.936L182.554 152.02L182.501 152.105L182.448 152.19L182.395 152.274L182.342 152.359L182.288 152.443L182.236 152.526L182.193 152.59L182.14 152.674L182.086 152.759L182.032 152.843L181.978 152.927L181.925 153.011L181.871 153.095L181.816 153.179L181.763 153.262L181.72 153.325L181.666 153.409L181.612 153.493L181.557 153.577L181.503 153.66L181.448 153.744L181.393 153.828L181.338 153.911L181.284 153.994L181.241 154.056L181.186 154.14L181.131 154.223L181.076 154.306L181.02 154.389L180.965 154.473L180.91 154.556L180.854 154.639L180.799 154.722L180.755 154.783L180.7 154.866L180.644 154.949L180.588 155.032L180.532 155.114L180.476 155.197L180.42 155.28L180.364 155.362L180.307 155.445L180.263 155.506L180.207 155.588L180.151 155.671L180.094 155.753L180.037 155.835L179.981 155.917L179.924 156L179.867 156.082L179.81 156.164L179.765 156.225L179.708 156.306L179.651 156.388L179.594 156.47L179.536 156.552L179.479 156.633L179.421 156.715L179.364 156.797L179.306 156.878L179.261 156.939L179.203 157.02L179.146 157.101L179.088 157.182L179.03 157.264L178.971 157.345L178.913 157.426L178.855 157.507L178.796 157.588L178.75 157.65L178.693 157.729L178.634 157.81L178.575 157.891L178.517 157.971L178.458 158.052L178.399 158.133L178.34 158.213L178.281 158.294L178.233 158.355L178.176 158.434L178.116 158.514L178.057 158.594L177.997 158.675L177.938 158.755L177.878 158.835L177.819 158.915L177.759 158.995L177.711 159.057L177.653 159.134L177.592 159.214L177.532 159.294L177.472 159.374L177.412 159.453L177.352 159.533L177.291 159.612L177.231 159.692L177.182 159.754L177.123 159.83L177.063 159.909L177.002 159.989L176.941 160.068L176.88 160.147L176.819 160.226L176.758 160.305L176.697 160.384L176.648 160.446L176.589 160.521L176.527 160.6L176.466 160.679L176.404 160.758L176.343 160.836L176.281 160.915L176.219 160.993L176.158 161.072L176.107 161.133L176.048 161.208L175.986 161.286L175.924 161.364L175.861 161.443L175.799 161.521L175.737 161.599L175.675 161.677L175.612 161.755L175.561 161.816L175.501 161.89L175.438 161.968L175.376 162.045L175.313 162.123L175.25 162.201L175.187 162.278L175.124 162.356L175.061 162.433L175.008 162.495L174.949 162.567L174.885 162.644L174.822 162.722L174.758 162.799L174.695 162.876L174.631 162.953L174.567 163.03L174.504 163.107L174.45 163.168L174.39 163.24L174.326 163.316L174.262 163.393L174.198 163.47L174.134 163.546L174.07 163.622L174.005 163.699L173.941 163.775L173.887 163.837L173.826 163.907L173.762 163.984L173.697 164.06L173.632 164.136L173.567 164.212L173.502 164.287L173.437 164.363L173.372 164.439L173.317 164.501L173.257 164.57L173.192 164.646L173.126 164.721L173.061 164.797L172.995 164.872L172.93 164.948L172.864 165.023L172.798 165.098L172.742 165.16L172.682 165.228L172.616 165.303L172.55 165.378L172.484 165.453L172.417 165.528L172.351 165.603L172.285 165.678L172.219 165.752L172.162 165.814L172.101 165.881L172.034 165.956L171.968 166.03L171.901 166.105L171.834 166.179L171.767 166.253L171.7 166.327L171.633 166.401L171.576 166.463L171.514 166.529L171.447 166.603L171.38 166.677L171.313 166.751L171.245 166.825L171.178 166.898L171.11 166.972L171.043 167.045L170.984 167.107L170.923 167.172L170.855 167.246L170.787 167.319L170.719 167.392L170.651 167.465L170.583 167.538L170.515 167.611L170.446 167.684L170.387 167.746L170.325 167.81L170.257 167.883L170.188 167.956L170.12 168.028L170.051 168.101L169.982 168.173L169.914 168.246L169.845 168.318L169.785 168.38L169.723 168.443L169.654 168.515L169.584 168.588L169.515 168.66L169.446 168.731L169.377 168.803L169.307 168.875L169.238 168.947L169.177 169.008L169.115 169.071L169.045 169.143L168.975 169.214L168.905 169.285L168.836 169.357L168.766 169.428L168.696 169.499L168.626 169.57L168.564 169.632L168.501 169.693L168.431 169.764L168.361 169.835L168.29 169.906L168.22 169.977L168.149 170.048L168.079 170.118L168.008 170.189L167.945 170.25L167.883 170.311L167.812 170.381L167.741 170.451L167.67 170.522L167.599 170.592L167.528 170.662L167.456 170.732L167.385 170.802L167.321 170.863L167.259 170.923L167.187 170.992L167.116 171.062L167.044 171.132L166.972 171.201L166.901 171.271L166.829 171.34L166.757 171.41L166.692 171.471L166.63 171.529L166.558 171.598L166.485 171.667L166.413 171.736L166.341 171.805L166.269 171.874L166.196 171.943L166.124 172.012L166.058 172.073L165.995 172.13L165.923 172.199L165.85 172.267L165.777 172.336L165.705 172.404L165.632 172.472L165.559 172.541L165.486 172.609L165.419 172.669L165.356 172.726L165.283 172.794L165.21 172.862L165.136 172.93L165.063 172.997L164.99 173.065L164.916 173.133L164.842 173.2L164.775 173.261L164.712 173.317L164.638 173.384L164.564 173.451L164.49 173.518L164.416 173.585L164.342 173.652L164.268 173.719L164.194 173.786L164.126 173.847L164.063 173.901L163.988 173.968L163.914 174.035L163.839 174.101L163.765 174.168L163.69 174.234L163.616 174.3L163.541 174.366L163.472 174.427L163.408 174.481L163.334 174.547L163.259 174.613L163.184 174.678L163.108 174.744L163.033 174.81L162.958 174.876L162.883 174.941L162.813 175.001L162.749 175.054L162.674 175.12L162.598 175.185L162.523 175.25L162.447 175.315L162.371 175.381L162.296 175.446L162.22 175.51L162.149 175.57L162.085 175.622L162.009 175.687L161.933 175.752L161.857 175.816L161.781 175.881L161.705 175.945L161.628 176.01L161.552 176.074L161.48 176.134L161.417 176.185L161.34 176.249L161.263 176.313L161.187 176.377L161.11 176.441L161.033 176.504L160.956 176.568L160.879 176.632L160.806 176.691L160.743 176.741L160.666 176.805L160.589 176.868L160.512 176.931L160.434 176.995L160.357 177.058L160.28 177.121L160.202 177.184L160.128 177.243L160.065 177.292L159.987 177.355L159.91 177.418L159.832 177.48L159.754 177.543L159.676 177.605L159.598 177.668L159.52 177.73L159.445 177.789L159.382 177.837L159.304 177.899L159.226 177.961L159.147 178.023L159.069 178.085L158.991 178.147L158.912 178.209L158.834 178.27L158.758 178.329L158.695 178.376L158.616 178.438L158.537 178.499L158.458 178.561L158.379 178.622L158.301 178.683L158.222 178.744L158.142 178.805L158.066 178.864L158.003 178.91L157.923 178.971L157.844 179.031L157.765 179.092L157.685 179.152L157.606 179.213L157.526 179.273L157.447 179.334L157.369 179.392L157.306 179.437L157.226 179.497L157.147 179.557L157.067 179.617L156.987 179.677L156.907 179.737L156.827 179.797L156.747 179.856L156.668 179.914L156.605 179.959L156.525 180.018L156.445 180.077L156.364 180.137L156.284 180.196L156.203 180.255L156.123 180.314L156.042 180.373L155.963 180.431L155.9 180.474L155.819 180.533L155.738 180.592L155.657 180.65L155.576 180.709L155.495 180.767L155.414 180.825L155.333 180.884L155.253 180.941L155.19 180.984L155.109 181.042L155.027 181.1L154.946 181.157L154.865 181.215L154.783 181.273L154.702 181.331L154.62 181.388L154.539 181.445L154.476 181.487L154.394 181.544L154.312 181.601L154.231 181.659L154.149 181.716L154.067 181.773L153.985 181.83L153.903 181.887L153.821 181.943L153.757 181.984L153.675 182.041L153.593 182.097L153.511 182.154L153.428 182.21L153.346 182.267L153.263 182.323L153.181 182.379L153.098 182.435L153.035 182.475L152.952 182.531L152.87 182.587L152.787 182.643L152.704 182.698L152.621 182.754L152.538 182.81L152.455 182.865L152.372 182.92L152.307 182.961L152.225 183.015L152.142 183.07L152.059 183.125L151.975 183.18L151.892 183.235L151.809 183.29L151.725 183.345L151.642 183.4L151.576 183.44L151.494 183.493L151.41 183.548L151.326 183.602L151.243 183.656L151.159 183.71L151.075 183.765L150.991 183.819L150.907 183.873L150.841 183.912L150.759 183.965L150.674 184.019L150.59 184.072L150.506 184.126L150.422 184.179L150.337 184.233L150.253 184.286L150.169 184.339L150.102 184.379L150.019 184.43L149.935 184.483L149.85 184.536L149.765 184.589L149.681 184.642L149.596 184.694L149.511 184.747L149.426 184.799L149.358 184.839L149.276 184.889L149.191 184.941L149.106 184.994L149.021 185.046L148.936 185.098L148.85 185.15L148.765 185.202L148.68 185.253L148.611 185.292L148.529 185.342L148.443 185.393L148.358 185.445L148.272 185.496L148.187 185.547L148.101 185.599L148.015 185.65L147.93 185.701L147.86 185.74L147.778 185.788L147.692 185.839L147.606 185.889L147.52 185.94L147.434 185.991L147.348 186.041L147.262 186.092L147.176 186.142L147.105 186.18L147.023 186.228L146.937 186.278L146.85 186.328L146.764 186.378L146.678 186.427L146.591 186.477L146.504 186.527L146.418 186.576L146.347 186.615L146.265 186.661L146.178 186.71L146.091 186.759L146.004 186.809L145.917 186.858L145.83 186.907L145.744 186.956L145.656 187.004L145.585 187.042L145.503 187.088L145.415 187.136L145.328 187.185L145.241 187.233L145.154 187.281L145.066 187.33L144.979 187.378L144.891 187.426L144.819 187.464L144.737 187.508L144.649 187.556L144.562 187.603L144.474 187.651L144.386 187.699L144.299 187.746L144.211 187.794L144.123 187.841L144.049 187.878L143.968 187.921L143.88 187.968L143.792 188.015L143.703 188.062L143.615 188.109L143.527 188.156L143.439 188.203L143.351 188.249L143.277 188.286L143.195 188.328L143.106 188.375L143.018 188.421L142.929 188.467L142.841 188.513L142.752 188.559L142.664 188.605L142.575 188.651L142.5 188.688L142.419 188.728L142.33 188.774L142.241 188.82L142.152 188.865L142.063 188.91L141.974 188.956L141.885 189.001L141.796 189.046L141.72 189.082L141.639 189.122L141.55 189.167L141.46 189.212L141.371 189.256L141.282 189.301L141.193 189.345L141.103 189.39L141.014 189.434L140.937 189.47L140.856 189.509L140.766 189.553L140.677 189.597L140.587 189.641L140.497 189.685L140.408 189.728L140.318 189.772L140.228 189.815L140.151 189.851L140.07 189.889L139.98 189.932L139.89 189.976L139.8 190.019L139.71 190.062L139.62 190.105L139.529 190.147L139.439 190.19L139.361 190.225L139.28 190.262L139.19 190.305L139.099 190.347L139.009 190.39L138.919 190.432L138.828 190.474L138.738 190.516L138.647 190.558L138.568 190.593L138.487 190.629L138.397 190.671L138.306 190.712L138.215 190.754L138.125 190.795L138.034 190.837L137.943 190.878L137.852 190.919L137.772 190.954L137.692 190.989L137.601 191.03L137.51 191.07L137.419 191.111L137.327 191.152L137.236 191.192L137.145 191.233L137.054 191.273L136.973 191.308L136.893 191.341L136.801 191.382L136.71 191.422L136.619 191.462L136.527 191.502L136.436 191.541L136.344 191.581L136.253 191.621L136.171 191.654L136.091 191.687L135.999 191.727L135.908 191.766L135.816 191.805L135.724 191.844L135.632 191.883L135.54 191.922L135.448 191.961L135.366 191.994L135.286 192.026L135.194 192.065L135.102 192.103L135.01 192.142L134.918 192.18L134.826 192.218L134.734 192.256L134.641 192.294L134.558 192.327L134.479 192.358L134.386 192.396L134.294 192.434L134.201 192.471L134.109 192.509L134.016 192.546L133.924 192.584L133.831 192.621L133.748 192.653L133.668 192.683L133.576 192.72L133.483 192.757L133.39 192.794L133.297 192.831L133.204 192.867L133.112 192.904L133.019 192.94L132.934 192.972L132.855 193.001L132.762 193.038L132.669 193.074L132.576 193.11L132.483 193.146L132.39 193.181L132.297 193.217L132.203 193.253L132.118 193.284L132.039 193.312L131.946 193.348L131.852 193.383L131.759 193.418L131.666 193.453L131.572 193.488L131.479 193.523L131.385 193.558L131.299 193.589L131.221 193.616L131.127 193.651L131.033 193.685L130.94 193.72L130.846 193.754L130.752 193.788L130.658 193.822L130.565 193.856L130.478 193.887L130.399 193.913L130.306 193.947L130.212 193.981L130.118 194.014L130.024 194.048L129.93 194.081L129.836 194.114L129.742 194.148L129.654 194.178L129.576 194.203L129.482 194.236L129.387 194.269L129.293 194.302L129.199 194.334L129.105 194.367L129.01 194.399L128.916 194.432L128.828 194.461L128.75 194.486L128.655 194.518L128.561 194.55L128.466 194.582L128.372 194.614L128.277 194.645L128.183 194.677L128.088 194.709L127.999 194.738L127.921 194.761L127.827 194.792L127.732 194.824L127.637 194.855L127.542 194.886L127.447 194.917L127.352 194.948L127.258 194.978L127.168 195.007L127.09 195.029L126.995 195.06L126.9 195.09L126.805 195.121L126.71 195.151L126.615 195.181L126.52 195.211L126.425 195.241L126.334 195.269L126.257 195.291L126.162 195.32L126.067 195.35L125.972 195.379L125.876 195.409L125.781 195.438L125.685 195.467L125.59 195.496L125.499 195.524L125.422 195.544L125.327 195.573L125.231 195.602L125.135 195.631L125.04 195.659L124.944 195.688L124.849 195.716L124.753 195.745L124.661 195.771L124.585 195.791L124.489 195.819L124.393 195.847L124.297 195.875L124.202 195.903L124.106 195.93L124.01 195.958L123.914 195.986L123.821 196.012L123.745 196.031L123.649 196.058L123.553 196.085L123.457 196.112L123.361 196.139L123.265 196.166L123.169 196.192L123.073 196.219L122.979 196.245L122.904 196.263L122.807 196.289L122.711 196.315L122.615 196.342L122.519 196.368L122.422 196.394L122.326 196.42L122.23 196.446L122.135 196.47L122.06 196.488L121.964 196.513L121.867 196.539L121.771 196.564L121.674 196.589L121.578 196.615L121.481 196.64L121.385 196.665L121.289 196.689L121.215 196.705L121.118 196.73L121.021 196.755L120.925 196.779L120.828 196.804L120.731 196.828L120.635 196.852L120.538 196.876L120.442 196.9L120.368 196.916L120.271 196.939L120.174 196.963L120.077 196.987L119.98 197.011L119.883 197.034L119.786 197.058L119.689 197.081L119.592 197.104L119.519 197.119L119.422 197.142L119.325 197.165L119.227 197.187L119.13 197.21L119.033 197.233L118.936 197.255L118.839 197.278L118.742 197.3L118.668 197.314L118.571 197.336L118.473 197.359L118.376 197.381L118.279 197.403L118.182 197.424L118.084 197.446L117.987 197.468L117.889 197.489L117.815 197.503L117.718 197.524L117.621 197.545L117.523 197.566L117.426 197.588L117.328 197.609L117.231 197.629L117.133 197.65L117.036 197.671L116.96 197.684L116.864 197.704L116.767 197.724L116.669 197.745L116.571 197.765L116.474 197.785L116.376 197.805L116.278 197.825L116.18 197.845L116.105 197.858L116.009 197.877L115.911 197.896L115.813 197.916L115.715 197.935L115.617 197.955L115.519 197.974L115.422 197.993L115.324 198.012L115.247 198.024L115.152 198.042L115.054 198.061L114.956 198.08L114.858 198.098L114.76 198.117L114.662 198.135L114.564 198.153L114.466 198.172L114.388 198.183L114.293 198.2L114.195 198.218L114.097 198.236L113.999 198.254L113.901 198.271L113.803 198.289L113.704 198.306L113.606 198.324L113.528 198.335L113.434 198.351L113.335 198.368L113.237 198.385L113.139 198.402L113.04 198.419L112.942 198.435L112.844 198.452L112.745 198.468L112.667 198.479L112.573 198.494L112.474 198.51L112.376 198.526L112.277 198.542L112.179 198.558L112.081 198.574L111.982 198.59L111.884 198.606L111.804 198.616L111.711 198.63L111.612 198.645L111.513 198.661L111.415 198.676L111.316 198.691L111.218 198.706L111.119 198.721L111.021 198.736L110.941 198.745L110.847 198.758L110.749 198.773L110.65 198.787L110.551 198.802L110.453 198.816L110.354 198.83L110.255 198.844L110.156 198.858L110.076 198.867L109.983 198.879L109.884 198.893L109.786 198.907L109.687 198.92L109.588 198.934L109.489 198.947L109.39 198.96L109.291 198.973L109.21 198.982L109.118 198.993L109.019 199.006L108.92 199.019L108.821 199.031L108.722 199.044L108.623 199.056L108.524 199.069L108.425 199.081L108.344 199.089L108.252 199.099L108.153 199.111L108.054 199.123L107.955 199.135L107.856 199.147L107.757 199.158L107.658 199.17L107.559 199.181L107.476 199.189L107.385 199.198L107.286 199.209L107.186 199.22L107.087 199.231L106.988 199.242L106.889 199.253L106.79 199.264L106.691 199.274L106.608 199.281L106.517 199.289L106.418 199.3L106.318 199.31L106.219 199.32L106.12 199.33L106.021 199.34L105.922 199.35L105.822 199.36L105.739 199.366L105.648 199.373L105.549 199.383L105.588 199.373L105.636 199.362L105.685 199.351L105.734 199.34L105.782 199.328L105.831 199.317L105.895 199.302L105.953 199.288L106.001 199.277L106.05 199.265L106.099 199.253L106.147 199.241L106.196 199.229L106.244 199.217L106.293 199.205L106.356 199.189L106.414 199.175L106.462 199.162L106.511 199.15L106.559 199.137L106.608 199.124L106.656 199.112L106.704 199.099L106.753 199.086L106.815 199.07L106.874 199.055L106.922 199.041L106.97 199.028L107.018 199.015L107.067 199.001L107.115 198.988L107.163 198.974L107.211 198.96L107.273 198.944L107.332 198.928L107.38 198.914L107.428 198.9L107.476 198.886L107.524 198.871L107.572 198.857L107.62 198.843L107.668 198.828L107.729 198.811L107.788 198.794L107.836 198.78L107.884 198.765L107.932 198.75L107.98 198.735L108.028 198.72L108.075 198.705L108.123 198.69L108.183 198.672L108.243 198.654L108.291 198.639L108.339 198.623L108.386 198.608L108.434 198.592L108.481 198.576L108.529 198.56L108.577 198.544L108.636 198.526L108.696 198.508L108.744 198.492L108.791 198.475L108.839 198.459L108.886 198.442L108.934 198.426L108.981 198.409L109.029 198.392L109.087 198.374L109.148 198.355L109.195 198.338L109.243 198.321L109.29 198.304L109.337 198.286L109.384 198.269L109.432 198.252L109.479 198.234L109.537 198.215L109.598 198.195L109.645 198.177L109.692 198.159L109.739 198.142L109.786 198.123L109.833 198.105L109.88 198.087L109.927 198.069L109.984 198.049L110.046 198.029L110.093 198.01L110.14 197.992L110.187 197.973L110.233 197.954L110.28 197.935L110.327 197.916L110.374 197.897L110.43 197.877L110.492 197.856L110.539 197.836L110.586 197.817L110.632 197.798L110.679 197.778L110.726 197.759L110.772 197.739L110.819 197.719L110.875 197.698L110.937 197.676L110.983 197.656L111.03 197.636L111.076 197.616L111.123 197.596L111.169 197.575L111.215 197.555L111.262 197.534L111.317 197.513L111.379 197.49L111.426 197.469L111.472 197.448L111.518 197.428L111.565 197.407L111.611 197.385L111.657 197.364L111.703 197.343L111.757 197.321L111.82 197.297L111.866 197.276L111.912 197.254L111.958 197.233L112.005 197.211L112.051 197.189L112.097 197.167L112.143 197.145L112.196 197.122L112.259 197.098L112.305 197.076L112.351 197.054L112.397 197.031L112.443 197.009L112.488 196.986L112.534 196.963L112.58 196.941L112.633 196.917L112.696 196.892L112.742 196.869L112.788 196.846L112.833 196.823L112.879 196.8L112.924 196.777L112.97 196.753L113.016 196.73L113.067 196.706L113.131 196.68L113.177 196.656L113.222 196.633L113.268 196.609L113.313 196.585L113.359 196.561L113.404 196.536L113.449 196.512L113.5 196.487L113.565 196.461L113.61 196.437L113.655 196.412L113.7 196.388L113.745 196.363L113.791 196.338L113.836 196.313L113.881 196.288L113.931 196.263L113.996 196.236L114.041 196.211L114.086 196.186L114.131 196.16L114.176 196.135L114.221 196.109L114.266 196.083L114.311 196.058L114.36 196.031L114.425 196.004L114.47 195.978L114.515 195.952L114.559 195.926L114.604 195.9L114.649 195.873L114.693 195.847L114.738 195.821L114.787 195.794L114.852 195.766L114.897 195.739L114.941 195.712L114.986 195.686L115.03 195.659L115.075 195.631L115.119 195.604L115.164 195.577L115.212 195.55L115.277 195.521L115.322 195.494L115.366 195.466L115.41 195.439L115.455 195.411L115.499 195.383L115.543 195.355L115.587 195.327L115.634 195.299L115.7 195.27L115.745 195.242L115.789 195.213L115.833 195.185L115.877 195.157L115.921 195.128L115.965 195.099L116.009 195.071L116.055 195.042L116.121 195.012L116.165 194.983L116.209 194.954L116.253 194.925L116.297 194.896L116.34 194.867L116.384 194.837L116.428 194.808L116.473 194.778L116.54 194.748L116.584 194.718L116.627 194.689L116.671 194.659L116.714 194.629L116.758 194.599L116.801 194.569L116.845 194.539L116.889 194.508L116.957 194.478L117 194.447L117.043 194.417L117.087 194.386L117.13 194.355L117.173 194.325L117.216 194.294L117.26 194.263L117.304 194.232L117.371 194.201L117.414 194.169L117.457 194.138L117.5 194.107L117.543 194.076L117.586 194.044L117.629 194.013L117.672 193.981L117.715 193.949L117.783 193.917L117.835 193.876L117.903 193.819L117.971 193.762L118.039 193.705L118.107 193.648L118.174 193.591L118.242 193.534L118.31 193.476L118.377 193.437L118.445 193.387L118.513 193.329L118.58 193.272L118.648 193.214L118.715 193.156L118.783 193.099L118.85 193.041L118.917 192.983L118.985 192.942L119.052 192.892L119.12 192.834L119.187 192.776L119.254 192.718L119.321 192.66L119.389 192.602L119.456 192.543L119.523 192.485L119.59 192.443L119.657 192.393L119.724 192.335L119.791 192.276L119.858 192.217L119.925 192.159L119.992 192.1L120.059 192.041L120.126 191.982L120.193 191.939L120.26 191.889L120.327 191.83L120.393 191.771L120.46 191.712L120.527 191.653L120.594 191.593L120.66 191.534L120.727 191.475L120.793 191.431L120.86 191.381L120.927 191.321L120.993 191.262L121.06 191.202L121.126 191.142L121.192 191.082L121.259 191.022L121.325 190.962L121.391 190.917L121.458 190.867L121.524 190.807L121.59 190.747L121.656 190.687L121.723 190.627L121.789 190.566L121.855 190.506L121.921 190.445L121.987 190.399L122.053 190.349L122.119 190.289L122.185 190.228L122.251 190.167L122.317 190.107L122.383 190.046L122.448 189.985L122.514 189.924L122.58 189.876L122.646 189.827L122.711 189.766L122.777 189.704L122.843 189.643L122.908 189.582L122.974 189.52L123.039 189.459L123.105 189.397L123.17 189.349L123.236 189.299L123.301 189.238L123.367 189.176L123.432 189.114L123.497 189.052L123.562 188.99L123.628 188.928L123.693 188.866L123.758 188.817L123.823 188.767L123.888 188.705L123.953 188.643L124.019 188.58L124.084 188.518L124.149 188.456L124.213 188.393L124.278 188.331L124.343 188.28L124.408 188.231L124.473 188.168L124.538 188.105L124.603 188.042L124.667 187.979L124.732 187.916L124.797 187.853L124.861 187.79L124.926 187.739L124.99 187.689L125.055 187.626L125.119 187.563L125.184 187.499L125.248 187.436L125.313 187.373L125.377 187.309L125.441 187.246L125.506 187.193L125.57 187.143L125.634 187.08L125.698 187.016L125.762 186.952L125.826 186.888L125.891 186.824L125.955 186.76L126.019 186.696L126.083 186.642L126.146 186.593L126.21 186.529L126.274 186.464L126.338 186.4L126.402 186.336L126.466 186.271L126.529 186.207L126.593 186.142L126.657 186.087L126.72 186.038L126.784 185.973L126.848 185.908L126.911 185.843L126.975 185.778L127.038 185.714L127.101 185.648L127.165 185.583L127.228 185.527L127.291 185.478L127.355 185.413L127.418 185.348L127.481 185.282L127.544 185.217L127.608 185.151L127.671 185.086L127.734 185.02L127.797 184.963L127.86 184.914L127.923 184.848L127.986 184.782L128.048 184.717L128.111 184.651L128.174 184.585L128.237 184.519L128.3 184.453L128.362 184.394L128.425 184.345L128.488 184.279L128.55 184.213L128.613 184.146L128.675 184.08L128.738 184.014L128.8 183.947L128.863 183.88L128.925 183.821L128.987 183.772L129.05 183.705L129.112 183.639L129.174 183.572L129.236 183.505L129.298 183.438L129.36 183.371L129.423 183.304L129.485 183.243L129.547 183.195L129.609 183.127L129.67 183.06L129.732 182.993L129.794 182.925L129.856 182.858L129.918 182.79L129.979 182.723L130.041 182.661L130.103 182.612L130.164 182.545L130.226 182.477L130.288 182.409L130.349 182.341L130.411 182.273L130.472 182.205L130.533 182.137L130.595 182.075L130.656 182.026L130.717 181.958L130.779 181.889L130.84 181.821L130.901 181.753L130.962 181.684L131.023 181.616L131.084 181.547L131.145 181.484L131.206 181.435L131.267 181.366L131.328 181.298L131.389 181.229L131.45 181.16L131.51 181.091L131.571 181.022L131.632 180.953L131.693 180.888L131.753 180.84L131.814 180.771L131.874 180.701L131.935 180.632L131.995 180.563L132.056 180.493L132.116 180.424L132.176 180.354L132.237 180.289L132.297 180.24L132.357 180.17L132.417 180.101L132.478 180.031L132.538 179.961L132.598 179.891L132.658 179.821L132.718 179.751L132.778 179.685L132.838 179.636L132.897 179.566L132.957 179.496L133.017 179.425L133.077 179.355L133.136 179.285L133.196 179.214L133.256 179.144L133.315 179.076L133.375 179.028L133.434 178.957L133.494 178.886L133.553 178.816L133.613 178.745L133.672 178.674L133.731 178.603L133.791 178.532L133.85 178.463L133.909 178.415L133.968 178.344L134.027 178.273L134.086 178.202L134.145 178.13L134.204 178.059L134.263 177.988L134.322 177.916L134.381 177.846L134.44 177.798L134.498 177.727L134.557 177.655L134.616 177.583L134.674 177.512L134.733 177.44L134.792 177.368L134.85 177.296L134.909 177.225L134.967 177.177L135.025 177.105L135.084 177.033L135.142 176.961L135.2 176.889L135.258 176.816L135.317 176.744L135.375 176.672L135.433 176.6L135.491 176.552L135.549 176.479L135.607 176.407L135.665 176.334L135.723 176.261L135.78 176.189L135.838 176.116L135.896 176.043L135.954 175.97L136.011 175.922L136.069 175.849L136.127 175.776L136.184 175.703L136.242 175.63L136.299 175.557L136.356 175.483L136.414 175.41L136.471 175.337L136.528 175.288L136.586 175.215L136.643 175.141L136.7 175.068L136.757 174.994L136.814 174.921L136.871 174.847L136.928 174.773L136.985 174.699L137.042 174.649L137.099 174.577L137.155 174.503L137.212 174.429L137.269 174.354L137.326 174.28L137.382 174.206L137.439 174.132L137.495 174.058L137.552 174.007L137.608 173.934L137.665 173.86L137.721 173.785L137.777 173.711L137.833 173.636L137.89 173.561L137.946 173.487L138.002 173.412L138.058 173.36L138.114 173.287L138.17 173.213L138.226 173.138L138.282 173.063L138.338 172.988L138.394 172.912L138.449 172.837L138.505 172.762L138.561 172.709L138.616 172.637L138.672 172.561L138.727 172.486L138.783 172.41L138.838 172.335L138.894 172.259L138.949 172.184L139.005 172.108L139.06 172.054L139.115 171.982L139.17 171.906L139.225 171.83L139.28 171.754L139.335 171.678L139.39 171.602L139.445 171.526L139.5 171.45L139.555 171.395L139.61 171.323L139.665 171.247L139.719 171.171L139.774 171.094L139.829 171.018L139.883 170.941L139.938 170.865L139.992 170.788L140.047 170.732L140.101 170.66L140.155 170.584L140.21 170.507L140.264 170.43L140.318 170.353L140.372 170.276L140.426 170.199L140.48 170.123L140.534 170.065L140.588 169.993L140.642 169.916L140.696 169.839L140.75 169.762L140.804 169.685L140.857 169.607L140.911 169.53L140.965 169.453L141.018 169.394L141.072 169.323L141.125 169.245L141.179 169.167L141.232 169.09L141.286 169.012L141.339 168.934L141.392 168.857L141.445 168.779L141.498 168.719L141.552 168.648L141.605 168.57L141.658 168.492L141.711 168.414L141.764 168.336L141.816 168.258L141.869 168.179L141.922 168.101L141.975 168.041L142.027 167.969L142.08 167.891L142.133 167.812L142.185 167.734L142.238 167.655L142.29 167.577L142.342 167.498L142.395 167.419L142.447 167.358L142.499 167.287L142.551 167.208L142.604 167.129L142.656 167.05L142.708 166.971L142.76 166.892L142.812 166.813L142.863 166.734L142.915 166.672L142.967 166.6L143.019 166.521L143.07 166.442L143.122 166.362L143.174 166.283L143.225 166.204L143.277 166.124L143.328 166.045L143.38 165.981L143.431 165.91L143.482 165.831L143.533 165.751L143.585 165.671L143.636 165.591L143.687 165.511L143.738 165.431L143.789 165.351L143.84 165.287L143.891 165.216L143.942 165.136L143.992 165.056L144.043 164.976L144.094 164.896L144.144 164.815L144.195 164.735L144.246 164.655L144.296 164.589L144.346 164.519L144.397 164.438L144.447 164.357L144.497 164.277L144.548 164.196L144.598 164.115L144.648 164.035L144.698 163.954L144.748 163.888L144.798 163.817L144.848 163.736L144.898 163.655L144.948 163.574L144.997 163.493L145.047 163.412L145.097 163.331L145.146 163.249L145.196 163.182L145.245 163.112L145.295 163.03L145.344 162.949L145.394 162.868L145.443 162.786L145.492 162.704L145.541 162.623L145.591 162.541L145.64 162.473L145.689 162.403L145.738 162.321L145.787 162.239L145.835 162.157L145.884 162.076L145.933 161.994L145.982 161.912L146.03 161.83L146.079 161.76L146.128 161.69L146.176 161.608L146.225 161.526L146.273 161.444L146.321 161.361L146.37 161.279L146.418 161.197L146.466 161.114L146.514 161.044L146.562 160.974L146.61 160.892L146.658 160.809L146.706 160.726L146.754 160.643L146.802 160.561L146.85 160.478L146.897 160.395L146.945 160.324L146.993 160.254L147.04 160.171L147.088 160.088L147.135 160.005L147.183 159.922L147.23 159.839L147.277 159.756L147.324 159.672L147.372 159.6L147.419 159.531L147.466 159.447L147.513 159.364L147.56 159.281L147.607 159.197L147.653 159.114L147.7 159.03L147.747 158.946L147.794 158.873L147.84 158.804L147.887 158.72L147.933 158.636L147.98 158.552L148.026 158.469L148.073 158.385L148.119 158.301L148.165 158.217L148.211 158.143L148.257 158.073L148.303 157.989L148.349 157.905L148.396 157.821L148.441 157.737L148.487 157.652L148.533 157.568L148.579 157.483L148.624 157.408L148.67 157.34L148.716 157.255L148.761 157.17L148.807 157.086L148.852 157.001L148.897 156.916L148.943 156.832L148.988 156.747L149.033 156.671L149.078 156.602L149.123 156.517L149.168 156.432L149.213 156.347L149.258 156.262L149.303 156.177L149.348 156.092L149.393 156.007L149.437 155.93L149.482 155.861L149.527 155.776L149.571 155.691L149.616 155.605L149.66 155.52L149.704 155.434L149.749 155.349L149.793 155.263L149.837 155.185L149.881 155.117L149.925 155.031L149.969 154.946L150.013 154.86L150.057 154.774L150.101 154.688L150.144 154.602L150.188 154.516L150.232 154.438L150.275 154.369L150.319 154.283L150.362 154.197L150.406 154.111L150.449 154.025L150.493 153.939L150.536 153.853L150.579 153.766L150.622 153.686L150.665 153.618L150.708 153.532L150.751 153.446L150.794 153.359L150.837 153.273L150.88 153.186L150.922 153.099L150.965 153.013L151.008 152.932L151.05 152.864L151.093 152.777L151.135 152.691L151.178 152.604L151.22 152.517L151.262 152.43L151.304 152.343L151.346 152.256L151.389 152.174L151.431 152.107L151.473 152.02L151.514 151.932L151.556 151.845L151.598 151.758L151.64 151.671L151.681 151.583L151.723 151.496L151.765 151.413L151.806 151.346L151.848 151.259L151.889 151.171L151.93 151.083L151.971 150.996L152.013 150.908L152.054 150.82L152.095 150.733L152.136 150.649L152.177 150.582L152.218 150.494L152.258 150.406L152.299 150.318L152.34 150.23L152.381 150.142L152.421 150.054L152.462 149.966L152.502 149.882L152.543 149.815L152.583 149.727L152.623 149.639L152.663 149.55L152.704 149.462L152.744 149.374L152.784 149.285L152.824 149.197L152.864 149.111L152.904 149.045L152.943 148.956L152.983 148.868L153.023 148.779L153.062 148.69L153.102 148.602L153.141 148.513L153.181 148.424L153.22 148.338L153.26 148.271L153.299 148.183L153.338 148.094L153.377 148.005L153.416 147.916L153.455 147.827L153.494 147.738L153.533 147.648L153.572 147.561L153.611 147.495L153.649 147.406L153.688 147.317L153.726 147.227L153.765 147.138L153.803 147.049L153.842 146.959L153.88 146.87L153.918 146.782L153.957 146.716L153.995 146.626L154.033 146.537L154.071 146.447L154.109 146.357L154.147 146.268L154.184 146.178L154.222 146.088L154.26 145.999L154.297 145.933L154.335 145.843L154.373 145.753L154.41 145.664L154.447 145.574L154.485 145.483L154.522 145.393L154.559 145.303L154.596 145.213L154.633 145.148L154.67 145.058L154.707 144.967L154.744 144.877L154.781 144.787L154.818 144.696L154.854 144.606L154.891 144.516L154.928 144.425L154.964 144.359L155 144.269L155.037 144.179L155.073 144.088L155.109 143.997L155.146 143.907L155.182 143.816L155.218 143.725L155.254 143.634L155.289 143.568L155.325 143.478L155.361 143.387L155.397 143.296L155.432 143.205L155.468 143.114L155.504 143.023L155.539 142.932L155.574 142.841L155.61 142.773L155.645 142.683L155.68 142.592L155.715 142.501L155.75 142.41L155.785 142.318L155.82 142.227L155.855 142.136L155.89 142.044L155.925 141.976L155.96 141.886L155.994 141.795L156.029 141.703L156.063 141.612L156.098 141.52L156.132 141.428L156.166 141.337L156.2 141.245L156.235 141.175L156.269 141.086L156.303 140.995L156.337 140.903L156.371 140.811L156.404 140.719L156.438 140.627L156.472 140.535L156.505 140.443L156.539 140.373L156.572 140.284L156.606 140.192L156.639 140.1L156.673 140.007L156.706 139.915L156.739 139.823L156.772 139.731L156.805 139.638L156.838 139.567L156.871 139.478L156.904 139.386L156.936 139.294L156.969 139.201L157.002 139.109L157.034 139.016L157.067 138.923L157.099 138.831L157.132 138.759L157.164 138.671L157.196 138.578L157.228 138.485L157.26 138.392L157.292 138.3L157.324 138.207L157.356 138.114L157.388 138.021L157.42 137.948L157.451 137.86L157.483 137.767L157.515 137.674L157.546 137.581L157.578 137.488L157.609 137.395L157.64 137.302L157.671 137.208L157.702 137.135L157.734 137.047L157.765 136.954L157.795 136.86L157.826 136.767L157.857 136.674L157.888 136.58L157.919 136.487L157.949 136.393L157.98 136.319L158.01 136.231L158.04 136.138L158.071 136.044L158.101 135.951L158.131 135.857L158.161 135.763L158.191 135.67L158.221 135.576L158.251 135.5L158.281 135.413L158.311 135.319L158.34 135.226L158.37 135.132L158.4 135.038L158.429 134.944L158.459 134.85L158.488 134.756L158.517 134.68L158.546 134.593L158.575 134.499L158.605 134.405L158.633 134.31L158.662 134.216L158.691 134.122L158.72 134.028L158.749 133.934L158.777 133.856L158.806 133.77L158.835 133.676L158.863 133.581L158.891 133.487L158.92 133.392L158.948 133.298L158.976 133.203L159.004 133.109L159.032 133.031L159.06 132.945L159.088 132.85L159.116 132.755L159.143 132.661L159.171 132.566L159.199 132.471L159.226 132.377L159.254 132.282L159.281 132.203L159.308 132.117L159.335 132.022L159.363 131.927L159.39 131.832L159.417 131.738L159.444 131.643L159.471 131.548L159.497 131.452L159.524 131.373L159.551 131.287L159.577 131.192L159.604 131.097L159.63 131.002L159.657 130.907L159.683 130.812L159.709 130.716L159.735 130.621L159.761 130.541L159.787 130.455L159.813 130.36L159.839 130.265L159.865 130.169L159.891 130.074L159.916 129.978L159.942 129.883L159.967 129.787L159.993 129.706L160.018 129.621L160.044 129.526L160.069 129.43L160.094 129.334L160.119 129.239L160.144 129.143L160.169 129.047L160.194 128.952L160.218 128.869L160.243 128.785L160.268 128.689L160.292 128.593L160.317 128.497L160.341 128.402L160.366 128.306L160.39 128.21L160.414 128.114L160.438 128.031L160.462 127.947L160.486 127.851L160.51 127.755L160.534 127.658L160.558 127.562L160.581 127.466L160.605 127.37L160.628 127.274L160.652 127.19L160.675 127.106L160.699 127.01L160.722 126.914L160.745 126.817L160.768 126.721L160.791 126.625L160.814 126.528L160.837 126.432L160.86 126.347L160.882 126.264L160.905 126.168L160.928 126.071L160.95 125.974L160.973 125.878L160.995 125.781L161.017 125.685L161.039 125.588L161.061 125.503L161.083 125.42L161.105 125.323L161.127 125.226L161.149 125.13L161.171 125.033L161.193 124.936L161.214 124.839L161.236 124.743L161.257 124.656L161.278 124.574L161.3 124.477L161.321 124.38L161.342 124.283L161.363 124.186L161.384 124.089L161.405 123.992L161.426 123.895L161.447 123.808L161.467 123.726L161.488 123.629L161.509 123.532L161.529 123.435L161.549 123.337L161.57 123.24L161.59 123.143L161.61 123.046L161.63 122.958L161.65 122.876L161.67 122.779L161.69 122.682L161.71 122.584L161.729 122.487L161.749 122.39L161.769 122.292L161.788 122.195L161.807 122.107L161.827 122.025L161.846 121.927L161.865 121.83L161.884 121.732L161.903 121.635L161.922 121.537L161.941 121.44L161.96 121.342L161.978 121.253L161.997 121.172L162.016 121.074L162.034 120.977L162.053 120.879L162.071 120.781L162.089 120.684L162.107 120.586L162.125 120.488L162.143 120.398L162.161 120.317L162.179 120.22L162.197 120.122L162.215 120.024L162.232 119.926L162.25 119.828L162.267 119.73L162.285 119.632L162.302 119.542L162.319 119.461L162.336 119.363L162.353 119.265L162.37 119.167L162.387 119.069L162.404 118.971L162.421 118.873L162.438 118.775L162.454 118.684L162.471 118.604L162.487 118.505L162.504 118.407L162.52 118.309L162.536 118.211L162.552 118.113L162.568 118.014L162.584 117.916L162.6 117.824L162.616 117.745L162.632 117.646L162.647 117.548L162.663 117.45L162.679 117.351L162.694 117.253L162.709 117.154L162.725 117.056L162.74 116.963L162.755 116.884L162.77 116.786L162.785 116.687L162.8 116.589L162.815 116.49L162.829 116.392L162.844 116.293L162.859 116.195L162.873 116.101L162.887 116.022L162.902 115.924L162.916 115.825L162.93 115.727L162.944 115.628L162.958 115.529L162.972 115.431L162.986 115.332L163 115.238L163.014 115.16L163.027 115.061L163.041 114.962L163.054 114.863L163.067 114.764L163.081 114.666L163.094 114.567L163.107 114.468L163.12 114.373L163.133 114.295L163.146 114.196L163.159 114.098L163.172 113.999L163.184 113.9L163.197 113.801L163.209 113.702L163.222 113.603L163.234 113.507L163.246 113.43L163.258 113.331L163.271 113.232L163.282 113.133L163.294 113.034L163.306 112.935L163.318 112.836L163.33 112.737L163.341 112.641L163.353 112.564L163.364 112.465L163.376 112.365L163.387 112.266L163.398 112.167L163.409 112.068L163.42 111.969L163.431 111.87L163.442 111.773L163.453 111.696L163.464 111.597L163.474 111.498L163.485 111.399L163.495 111.299L163.506 111.2L163.516 111.101L163.526 111.002L163.536 110.904L163.546 110.828L163.556 110.729L163.566 110.629L163.576 110.53L163.586 110.431L163.596 110.331L163.605 110.232L163.615 110.133L163.624 110.034L163.633 109.959L163.643 109.859L163.652 109.76L163.661 109.66L163.67 109.561L163.679 109.462L163.688 109.362L163.696 109.263L163.705 109.164L163.714 109.089L163.722 108.989L163.731 108.89L163.739 108.79L163.747 108.691L163.756 108.591L163.764 108.492L163.772 108.392L163.78 108.292L163.787 108.218L163.795 108.118L163.803 108.019L163.811 107.919L163.818 107.82L163.826 107.72L163.833 107.62L163.84 107.521L163.847 107.421L163.855 107.346L163.862 107.247L163.868 107.147L163.875 107.047L163.882 106.948L163.889 106.848L163.896 106.748L163.902 106.649L163.909 106.549L163.915 106.473L163.921 106.375L163.927 106.275L163.934 106.175L163.94 106.075L163.946 105.976L163.951 105.876L163.957 105.776L163.963 105.676L163.969 105.6L163.974 105.502L163.98 105.402L163.985 105.302L163.99 105.202L163.995 105.103L164.001 105.003L164.006 104.903L164.011 104.803L164.016 104.726L164.02 104.629L164.025 104.529L164.03 104.429L164.034 104.329L164.039 104.229L164.043 104.129L164.047 104.029L164.052 103.93L164.056 103.852L164.06 103.755L164.064 103.655L164.068 103.555L164.071 103.455L164.075 103.355L164.079 103.255L164.082 103.155L164.086 103.056L164.089 102.977L164.093 102.881L164.096 102.781L164.099 102.681L164.102 102.581L164.105 102.481L164.108 102.381L164.111 102.281L164.113 102.181L164.116 102.102L164.119 102.006L164.121 101.906L164.123 101.807L164.126 101.707L164.128 101.607L164.13 101.507L164.132 101.407L164.134 101.307L164.136 101.227L164.138 101.132L164.139 101.032L164.141 100.932L164.143 100.832L164.144 100.732L164.145 100.632L164.147 100.532L164.148 100.432L164.149 100.352L164.15 100.257L164.151 100.157L164.152 100.057L164.153 99.9572L164.154 99.8572L164.154 99.7572L164.155 99.6572L164.155 99.5572L164.155 99.4764L164.156 99.3823L164.156 99.2823L164.156 99.1823L164.156 99.0823L164.156 98.9823L164.156 98.8823L164.156 98.7824L164.155 98.6824L164.155 98.601L164.154 98.5074L164.154 98.4074L164.153 98.3075L164.152 98.2075L164.151 98.1075L164.151 98.0075L164.15 97.9075L164.149 97.8076L164.147 97.7256L164.146 97.6326L164.145 97.5326L164.143 97.4327L164.142 97.3327L164.14 97.2327L164.139 97.1328L164.137 97.0328L164.135 96.9329L164.133 96.8504L164.131 96.7579L164.129 96.658L164.127 96.558L164.125 96.4581L164.122 96.3581L164.12 96.2582L164.117 96.1583L164.115 96.0583L164.112 95.9753L164.109 95.8835L164.106 95.7835L164.103 95.6836L164.1 95.5837L164.097 95.4838L164.094 95.3838L164.091 95.2839L164.087 95.184L164.084 95.1004L164.08 95.0092L164.077 94.9093L164.073 94.8094L164.069 94.7096L164.065 94.6097L164.062 94.5098L164.057 94.4099L164.053 94.3101L164.049 94.2259L164.045 94.1353L164.04 94.0355L164.036 93.9356L164.031 93.8358L164.027 93.7359L164.022 93.6361L164.017 93.5363L164.012 93.4364L164.007 93.3518L164.002 93.2618L163.997 93.162L163.992 93.0622L163.987 92.9624L163.981 92.8626L163.976 92.7628L163.97 92.6631L163.964 92.5633L163.959 92.4781L163.953 92.3888L163.947 92.289L163.941 92.1893L163.935 92.0896L163.929 91.9898L163.923 91.8901L163.916 91.7904L163.91 91.6907L163.903 91.605L163.897 91.5163L163.89 91.4166L163.883 91.3169L163.876 91.2173L163.869 91.1176L163.862 91.0179L163.855 90.9183L163.848 90.8186L163.841 90.7325L163.833 90.6444L163.826 90.5448L163.818 90.4452L163.811 90.3456L163.803 90.246L163.795 90.1464L163.788 90.0469L163.78 89.9473L163.772 89.8606L163.763 89.7732L163.755 89.6737L163.747 89.5742L163.739 89.4746L163.73 89.3751L163.722 89.2756L163.713 89.1762L163.704 89.0767L163.695 88.9895L163.686 88.9027L163.678 88.8033L163.668 88.7039L163.659 88.6045L163.65 88.505L163.641 88.4056L163.631 88.3062L163.622 88.2068L163.612 88.1192L163.603 88.0331L163.593 87.9338L163.583 87.8344L163.573 87.7351L163.563 87.6358L163.553 87.5365L163.543 87.4372L163.533 87.3379L163.523 87.2498L163.512 87.1644L163.502 87.0651L163.491 86.9659L163.48 86.8667L163.47 86.7675L163.459 86.6683L163.448 86.5691L163.437 86.4699L163.426 86.3813L163.415 86.2966L163.403 86.1975L163.392 86.0984L163.381 85.9992L163.369 85.9001L163.358 85.8011L163.346 85.702L163.334 85.6029L163.322 85.5139L163.31 85.4299L163.298 85.3308L163.286 85.2318L163.274 85.1328L163.262 85.0339L163.25 84.9349L163.237 84.836L163.225 84.737L163.212 84.6475L163.199 84.5642L163.187 84.4653L163.174 84.3664L163.161 84.2676L163.148 84.1687L163.135 84.0699L163.122 83.9711L163.108 83.8723L163.095 83.7823L163.082 83.6997L163.068 83.601L163.055 83.5022L163.041 83.4035L163.027 83.3048L163.013 83.2061L162.999 83.1074L162.985 83.0087L162.971 82.9184L162.957 82.8365L162.943 82.7378L162.928 82.6392L162.914 82.5407L162.9 82.4421L162.885 82.3436L162.87 82.245L162.855 82.1465L162.841 82.0557L162.826 81.9745L162.811 81.876L162.796 81.7776L162.781 81.6792L162.765 81.5808L162.75 81.4823L162.734 81.384L162.719 81.2856L162.703 81.1944L162.688 81.1139L162.672 81.0156L162.656 80.9173L162.64 80.8191L162.624 80.7208L162.608 80.6226L162.592 80.5243L162.576 80.4261L162.559 80.3345L162.543 80.2548L162.527 80.1566L162.51 80.0585L162.493 79.9604L162.477 79.8623L162.46 79.7642L162.443 79.6661L162.426 79.5681L162.409 79.4761L162.392 79.3971L162.375 79.2991L162.357 79.2011L162.34 79.1032L162.322 79.0053L162.305 78.9074L162.287 78.8095L162.27 78.7116L162.252 78.6192L162.234 78.541L162.216 78.4432L162.198 78.3454L162.18 78.2476L162.162 78.1499L162.143 78.0522L162.125 77.9545L162.107 77.8568L162.088 77.7639L162.069 77.6865L162.051 77.5888L162.032 77.4913L162.013 77.3937L161.994 77.2961L161.975 77.1986L161.956 77.1011L161.937 77.0036L161.918 76.9104L161.898 76.8336L161.879 76.7362L161.86 76.6388L161.84 76.5414L161.82 76.4441L161.801 76.3467L161.781 76.2494L161.761 76.1521L161.741 76.0585L161.721 75.9826L161.701 75.8853L161.681 75.7881L161.66 75.6909L161.64 75.5938L161.62 75.4966L161.599 75.3995L161.578 75.3024L161.558 75.2084L161.537 75.1333L161.516 75.0362L161.495 74.9392L161.474 74.8422L161.453 74.7453L161.432 74.6483L161.411 74.5514L161.39 74.4545L161.368 74.3602L161.347 74.2858L161.325 74.189L161.303 74.0922L161.282 73.9954L161.26 73.8987L161.238 73.802L161.216 73.7052L161.194 73.6086L161.172 73.5139L161.15 73.4403L161.128 73.3437L161.105 73.2471L161.083 73.1505L161.06 73.054L161.038 72.9575L161.015 72.861L160.993 72.7646L160.97 72.6695L160.947 72.5967L160.924 72.5003L160.901 72.4039L160.878 72.3076L160.855 72.2113L160.831 72.115L160.808 72.0188L160.785 71.9225L160.761 71.8271L160.738 71.7552L160.714 71.659L160.69 71.5629L160.666 71.4668L160.643 71.3707L160.619 71.2746L160.595 71.1786L160.57 71.0826L160.546 70.9868L160.522 70.9156L160.498 70.8197L160.473 70.7238L160.449 70.6279L160.424 70.5321L160.4 70.4363L160.375 70.3405L160.35 70.2447L160.325 70.149L160.3 70.0779L160.275 69.9826L160.25 69.8869L160.225 69.7913L160.2 69.6957L160.174 69.6001L160.149 69.5046L160.124 69.409L160.098 69.3135L160.072 69.2421L160.047 69.1476L160.021 69.0522L159.995 68.9568L159.969 68.8615L159.943 68.7661L159.917 68.6708L159.891 68.5755L159.865 68.4803L159.838 68.4086L159.812 68.3149L159.786 68.2197L159.759 68.1246L159.733 68.0294L159.706 67.9344L159.679 67.8393L159.652 67.7443L159.625 67.6493L159.598 67.5773L159.571 67.4844L159.544 67.3895L159.517 67.2946L159.49 67.1997L159.463 67.1049L159.435 67.0101L159.408 66.9154L159.38 66.8206L159.353 66.7482L159.325 66.6562L159.297 66.5616L159.269 66.4669L159.241 66.3724L159.213 66.2778L159.185 66.1832L159.157 66.0888L159.129 65.9943L159.101 65.9216L159.072 65.8304L159.044 65.736L159.015 65.6417L158.987 65.5473L158.958 65.453L158.929 65.3588L158.901 65.2645L158.872 65.1703L158.843 65.0974L158.814 65.007L158.785 64.9129L158.756 64.8188L158.726 64.7247L158.697 64.6307L158.668 64.5367L158.638 64.4427L158.609 64.3488L158.579 64.2755L158.55 64.186L158.52 64.0922L158.49 63.9984L158.46 63.9046L158.43 63.8108L158.4 63.7171L158.37 63.6234L158.34 63.5298L158.31 63.4562L158.28 63.3675L158.249 63.274L158.219 63.1804L158.188 63.0869L158.158 62.9935L158.127 62.9L158.096 62.8066L158.066 62.7132L158.035 62.6393L158.004 62.5515L157.973 62.4583L157.942 62.365L157.911 62.2718L157.88 62.1786L157.848 62.0854L157.817 61.9923L157.786 61.8992L157.754 61.825L157.723 61.7381L157.691 61.6451L157.659 61.5522L157.628 61.4592L157.596 61.3663L157.564 61.2735L157.532 61.1806L157.5 61.0878L157.468 61.0134L157.436 60.9273L157.404 60.8346L157.371 60.7419L157.339 60.6493L157.306 60.5567L157.274 60.4641L157.241 60.3716L157.209 60.279L157.176 60.2043L157.143 60.1191L157.111 60.0267L157.078 59.9343L157.045 59.842L157.012 59.7496L156.978 59.6574L156.945 59.5651L156.912 59.4729L156.879 59.3979L156.845 59.3136L156.812 59.2215L156.778 59.1294L156.745 59.0373L156.711 58.9453L156.678 58.8533L156.644 58.7614L156.61 58.6695L156.576 58.5942L156.542 58.5107L156.508 58.4189L156.474 58.3271L156.44 58.2354L156.406 58.1437L156.371 58.052L156.337 57.9603L156.302 57.8687L156.268 57.7932L156.233 57.7106L156.199 57.6191L156.164 57.5276L156.129 57.4362L156.094 57.3448L156.06 57.2534L156.025 57.1621L155.99 57.0708L155.955 56.9949L155.919 56.9132L155.884 56.8221L155.849 56.7309L155.814 56.6398L155.778 56.5487L155.743 56.4576L155.707 56.3666L155.672 56.2756L155.636 56.1995L155.6 56.1187L155.564 56.0278L155.529 55.9369L155.493 55.8461L155.457 55.7553L155.421 55.6646L155.384 55.5739L155.348 55.4832L155.312 55.4068L155.276 55.3269L155.239 55.2363L155.203 55.1458L155.166 55.0553L155.13 54.9648L155.093 54.8744L155.057 54.784L155.02 54.6936L154.983 54.617L154.946 54.538L154.909 54.4477L154.872 54.3575L154.835 54.2673L154.798 54.1772L154.761 54.087L154.724 53.997L154.686 53.9069L154.649 53.8301L154.612 53.7519L154.574 53.662L154.537 53.5721L154.499 53.4822L154.461 53.3924L154.424 53.3026L154.386 53.2128L154.348 53.1231L154.31 53.046L154.272 52.9688L154.234 52.8791L154.196 52.7896L154.158 52.7L154.12 52.6105L154.081 52.521L154.043 52.4316L154.004 52.3422L153.966 52.2648L153.927 52.1885L153.889 52.0992L153.85 52.01L153.811 51.9207L153.773 51.8315L153.734 51.7424L153.695 51.6533L153.656 51.5642L153.617 51.4866L153.578 51.4112L153.539 51.3222L153.5 51.2333L153.46 51.1444L153.421 51.0555L153.382 50.9667L153.342 50.8779L153.303 50.7892L153.263 50.7113L153.224 50.6368L153.184 50.5481L153.144 50.4596L153.105 50.371L153.065 50.2825L153.025 50.194L152.985 50.1056L152.945 50.0171L152.905 49.9391L152.865 49.8654L152.824 49.7771L152.784 49.6889L152.744 49.6006L152.704 49.5124L152.663 49.4243L152.623 49.3362L152.582 49.248L152.541 49.1697L152.501 49.097L152.46 49.009L152.419 48.9211L152.378 48.8332L152.338 48.7453L152.297 48.6576L152.256 48.5698L152.215 48.482L152.173 48.4035L152.132 48.3316L152.091 48.244L152.05 48.1564L152.008 48.0689L151.967 47.9813L151.926 47.8939L151.884 47.8064L151.843 47.719L151.801 47.6402L151.759 47.5693L151.718 47.482L151.676 47.3947L151.634 47.3075L151.592 47.2203L151.55 47.1332L151.508 47.0461L151.466 46.959L151.424 46.88L151.382 46.81L151.339 46.723L151.297 46.6361L151.255 46.5493L151.212 46.4624L151.17 46.3756L151.127 46.2888L151.085 46.2021L151.042 46.1228L150.999 46.0538L150.957 45.9671L150.914 45.8806L150.871 45.7941L150.828 45.7075L150.785 45.6211L150.742 45.5347L150.699 45.4483L150.656 45.3688L150.613 45.3006L150.57 45.2143L150.526 45.1281L150.483 45.042L150.44 44.9558L150.396 44.8697L150.353 44.7836L150.309 44.6975L150.265 44.6178L150.222 44.5506L150.178 44.4647L150.134 44.3788L150.09 44.293L150.047 44.2071L150.003 44.1214L149.959 44.0357L149.915 43.9499L149.871 43.87L149.826 43.8037L149.782 43.7181L149.738 43.6326L149.694 43.5471L149.649 43.4616L149.605 43.3762L149.56 43.2908L149.516 43.2054L149.471 43.1253L149.427 43.0599L149.382 42.9746L149.337 42.8895L149.293 42.8043L149.248 42.7192L149.203 42.6341L149.158 42.5491L149.113 42.4641L149.068 42.3837L149.023 42.3192L148.978 42.2343L148.933 42.1495L148.887 42.0647L148.842 41.9799L148.797 41.8952L148.751 41.8105L148.706 41.7259L148.66 41.6452L148.615 41.5817L148.569 41.4972L148.524 41.4127L148.478 41.3283L148.432 41.2439L148.386 41.1595L148.34 41.0752L148.295 40.9909L148.249 40.91L148.203 40.8474L148.157 40.7632L148.11 40.6791L148.064 40.595L148.018 40.511L147.972 40.4269L147.926 40.3429L147.879 40.259L147.833 40.1779L147.786 40.1162L147.74 40.0324L147.693 39.9486L147.647 39.8649L147.6 39.7812L147.553 39.6975L147.507 39.6139L147.46 39.5303L147.413 39.449L147.366 39.3883L147.319 39.3048L147.272 39.2214L147.225 39.138L147.178 39.0547L147.131 38.9714L147.084 38.8881L147.036 38.8049L146.989 38.7234L146.942 38.6635L146.894 38.5804L146.847 38.4974L146.799 38.4143L146.752 38.3313L146.704 38.2484L146.657 38.1655L146.609 38.0826L146.561 38.0009L146.513 37.942L146.466 37.8592L146.418 37.7766L146.37 37.6939L146.322 37.6112L146.274 37.5287L146.226 37.4461L146.178 37.3636L146.129 37.2817L146.081 37.2237L146.033 37.1413L145.985 37.059L145.936 36.9767L145.888 36.8943L145.839 36.8121L145.791 36.73L145.742 36.6478L145.694 36.5657L145.645 36.5086L145.596 36.4266L145.548 36.3446L145.499 36.2627L145.45 36.1807L145.401 36.0989L145.352 36.017L145.303 35.9352L145.254 35.8535L145.205 35.7962L145.156 35.7151L145.107 35.6335L145.058 35.5519L145.009 35.4704L144.959 35.3888L144.91 35.3074L144.861 35.226L144.811 35.1445L144.762 35.087L144.712 35.0069L144.663 34.9256L144.613 34.8444L144.563 34.7632L144.514 34.6821L144.464 34.601L144.414 34.5199L144.364 34.4389L144.314 34.3811L144.264 34.302L144.214 34.2211L144.164 34.1402L144.114 34.0594L144.064 33.9786L144.014 33.8978L143.964 33.8171L143.914 33.7365L143.863 33.6785L143.813 33.6003L143.763 33.5198L143.712 33.4392L143.662 33.3588L143.611 33.2784L143.561 33.198L143.51 33.1176L143.459 33.0374L143.409 32.9792L143.358 32.9019L143.307 32.8217L143.256 32.7416L143.206 32.6615L143.155 32.5815L143.104 32.5015L143.053 32.4215L143.002 32.3416L142.951 32.2832L142.899 32.2068L142.848 32.127L142.797 32.0473L142.746 31.9675L142.694 31.8878L142.643 31.8082L142.592 31.7286L142.54 31.649L142.489 31.5905L142.437 31.515L142.386 31.4356L142.334 31.3562L142.282 31.2769L142.231 31.1975L142.179 31.1183L142.127 31.039L142.075 30.9598L142.023 30.901L141.972 30.8266L141.92 30.7475L141.868 30.6685L141.816 30.5895L141.763 30.5105L141.711 30.4316L141.659 30.3528L141.607 30.274L141.555 30.2149L141.502 30.1414L141.45 30.0627L141.398 29.9841L141.345 29.9055L141.293 29.8269L141.24 29.7483L141.188 29.6699L141.135 29.5914L141.083 29.5322L141.03 29.4596L140.977 29.3813L140.924 29.303L140.872 29.2247L140.819 29.1466L140.766 29.0684L140.713 28.9903L140.66 28.9122L140.607 28.8528L140.554 28.7812L140.501 28.7032L140.448 28.6253L140.395 28.5474L140.341 28.4696L140.288 28.3918L140.235 28.3141L140.182 28.2363L140.128 28.1768L140.075 28.1061L140.021 28.0284L139.968 27.9509L139.914 27.8735L139.861 27.796L139.807 27.7186L139.753 27.6412L139.7 27.5639L139.646 27.504L139.592 27.4343L139.538 27.3571L139.484 27.2799L139.43 27.2028L139.377 27.1258L139.323 27.0487L139.269 26.9717L139.214 26.8948L139.16 26.8347L139.106 26.766L139.052 26.6891L138.998 26.6123L138.944 26.5356L138.889 26.4589L138.835 26.3822L138.781 26.3056L138.726 26.229L138.672 26.1688L138.617 26.1009L138.563 26.0245L138.508 25.9481L138.453 25.8717L138.399 25.7954L138.344 25.7191L138.289 25.6429L138.234 25.5667L138.18 25.5063L138.125 25.4394L138.07 25.3633L138.015 25.2873L137.96 25.2113L137.905 25.1353L137.85 25.0595L137.795 24.9836L137.74 24.9077L137.684 24.8472L137.629 24.7813L137.574 24.7055L137.519 24.6299L137.463 24.5543L137.408 24.4787L137.353 24.4032L137.297 24.3277L137.242 24.2523L137.186 24.1914L137.131 24.1265L137.075 24.0512L137.019 23.9759L136.964 23.9007L136.908 23.8255L136.852 23.7503L136.796 23.6752L136.741 23.6002L136.685 23.5392L136.629 23.4752L136.573 23.4003L136.517 23.3254L136.461 23.2505L136.405 23.1757L136.349 23.101L136.293 23.0262L136.237 22.9516L136.18 22.8904L136.124 22.8273L136.068 22.7528L136.011 22.6783L135.955 22.6038L135.899 22.5294L135.842 22.455L135.786 22.3807L135.729 22.3064L135.673 22.245L135.616 22.1829L135.56 22.1088L135.503 22.0346L135.446 21.9606L135.389 21.8865L135.333 21.8125L135.276 21.7386L135.219 21.6647L135.162 21.6031L135.105 21.542L135.048 21.4682L134.991 21.3945L134.934 21.3208L134.877 21.2472L134.82 21.1735L134.763 21.1L134.706 21.0265L134.649 20.9647L134.591 20.9045L134.534 20.8312L134.477 20.7578L134.419 20.6845L134.362 20.6113L134.305 20.5381L134.247 20.4649L134.19 20.3918L134.132 20.3299L134.075 20.2706L134.017 20.1976L133.959 20.1247L133.902 20.0518L133.844 19.9789L133.786 19.9061L133.728 19.8333L133.67 19.7606L133.613 19.6985L133.555 19.6403L133.497 19.5676L133.439 19.4951L133.381 19.4226L133.323 19.3501L133.265 19.2776L133.207 19.2053L133.148 19.1329L133.09 19.0706L133.032 19.0134L132.974 18.9412L132.915 18.869L132.857 18.7969L132.799 18.7248L132.74 18.6528L132.682 18.5808L132.623 18.5089L132.565 18.4464L132.506 18.39L132.448 18.3183L132.389 18.2465L132.331 18.1747L132.272 18.1031L132.213 18.0315L132.154 17.9598L132.096 17.8883L132.037 17.8257L131.978 17.7703L131.919 17.6989L131.86 17.6276L131.801 17.5562L131.742 17.4849L131.683 17.4137L131.624 17.3425L131.565 17.2714L131.506 17.2086L131.447 17.1542L131.387 17.0832L131.328 17.0122L131.269 16.9413L131.21 16.8704L131.15 16.7996L131.091 16.7288L131.031 16.6581L130.972 16.595L130.913 16.5417L130.853 16.4711L130.793 16.4005L130.734 16.33L130.674 16.2596L130.615 16.1891L130.555 16.1187L130.495 16.0484L130.435 15.9852L130.376 15.9328L130.316 15.8626L130.256 15.7925L130.196 15.7223L130.136 15.6523L130.076 15.5823L130.016 15.5123L129.956 15.4424L129.896 15.3791L129.836 15.3276L129.776 15.2578L129.716 15.1881L129.655 15.1184L129.595 15.0487L129.535 14.9791L129.475 14.9096L129.414 14.84L129.354 14.7765L129.294 14.7261L129.233 14.6567L129.173 14.5874L129.112 14.5181L129.052 14.4489L128.991 14.3796L128.93 14.3105L128.87 14.2414L128.809 14.1777L128.748 14.1283L128.688 14.0594L128.627 13.9904L128.566 13.9215L128.505 13.8527L128.444 13.7839L128.383 13.7152L128.322 13.6465L128.262 13.5827L128.201 13.5342L128.139 13.4657L128.078 13.3972L128.017 13.3287L127.956 13.2603L127.895 13.192L127.834 13.1236L127.773 13.0554L127.711 12.9914L127.65 12.9439L127.589 12.8758L127.527 12.8078L127.466 12.7397L127.404 12.6717L127.343 12.6038L127.281 12.5359L127.22 12.468L127.158 12.4039L127.097 12.3575L127.035 12.2897L126.973 12.2221L126.912 12.1545L126.85 12.0869L126.788 12.0194L126.726 11.952L126.665 11.8845L126.603 11.8202L126.541 11.7748L126.479 11.7076L126.417 11.6403L126.355 11.5731L126.293 11.506L126.231 11.4389L126.169 11.3719L126.107 11.3049L126.044 11.2405L125.982 11.196L125.92 11.1292L125.858 11.0624L125.796 10.9956L125.733 10.929L125.671 10.8623L125.608 10.7957L125.546 10.7291L125.484 10.6646L125.421 10.6211L125.359 10.5548L125.296 10.4884L125.233 10.422L125.171 10.3558L125.108 10.2896L125.046 10.2234L124.983 10.1573L124.92 10.0926L124.857 10.0502L124.795 9.98423L124.732 9.91835L124.669 9.85246L124.606 9.7866L124.543 9.72087L124.48 9.65515L124.417 9.58943L124.354 9.52466L124.291 9.48328L124.228 9.41771L124.165 9.35226L124.102 9.28685L124.038 9.22145L123.975 9.15613L123.912 9.09088L123.849 9.02563L123.785 8.96068L123.722 8.92035L123.659 8.85526L123.595 8.7902L123.532 8.72527L123.493 8.68537Z" fill="white"/>
</svg>
