<svg width="200" height="200" viewBox="0 0 200 200" fill="none" xmlns="http://www.w3.org/2000/svg">
<path d="M81.3256 3.23239L81.2577 3.26532L81.1898 3.29824L81.1219 3.33123L81.0541 3.36443L80.9863 3.39762L80.9075 3.43257L80.8384 3.46621L80.7707 3.49967L80.7031 3.53329L80.6355 3.56699L80.5679 3.60072L80.5004 3.63465L80.4329 3.66862L80.3654 3.70263L80.2876 3.73831L80.2182 3.77281L80.1509 3.80711L80.0836 3.84159L80.0163 3.87607L79.9491 3.91067L79.8819 3.94541L79.8147 3.98015L79.7476 4.01506L79.6707 4.05135L79.6011 4.08669L79.5341 4.12187L79.4671 4.15712L79.4002 4.19238L79.3333 4.22784L79.2664 4.26336L79.1996 4.29889L79.1328 4.33463L79.0569 4.37154L78.987 4.40775L78.9203 4.44375L78.8537 4.47975L78.7871 4.51584L78.7206 4.55209L78.654 4.58836L78.5875 4.62473L78.5211 4.66124L78.4461 4.69876L78.3759 4.73582L78.3096 4.77258L78.2433 4.80934L78.1771 4.84624L78.1108 4.88325L78.0446 4.92026L77.9785 4.95744L77.9124 4.9947L77.8383 5.03284L77.7679 5.07074L77.7019 5.10824L77.6359 5.14575L77.57 5.18344L77.5041 5.22119L77.4383 5.25895L77.3725 5.2969L77.3067 5.33491L77.2335 5.37367L77.1628 5.41237L77.0972 5.45059L77.0315 5.48885L76.966 5.52731L76.9004 5.56578L76.8349 5.60429L76.7694 5.64301L76.704 5.68173L76.6317 5.72111L76.5608 5.76058L76.4955 5.79954L76.4302 5.83852L76.3649 5.87773L76.2997 5.91694L76.2345 5.95616L76.1694 5.99562L76.1043 6.03507L76.033 6.07507L75.9618 6.11526L75.8968 6.15495L75.8318 6.19466L75.7669 6.23458L75.702 6.27451L75.6372 6.31446L75.5724 6.35462L75.5076 6.3948L75.4372 6.43541L75.3657 6.47631L75.3011 6.51672L75.2364 6.55714L75.1719 6.59776L75.1073 6.63841L75.0428 6.67906L74.9784 6.71992L74.9139 6.76081L74.8444 6.80205L74.7727 6.84363L74.7084 6.88473L74.6441 6.92586L74.5798 6.96718L74.5156 7.00851L74.4514 7.04989L74.3873 7.09143L74.3232 7.133L74.2546 7.17488L74.1826 7.21711L74.1186 7.25892L74.0547 7.30074L73.9908 7.34272L73.9269 7.38477L73.863 7.42683L73.7992 7.46903L73.7355 7.51132L73.6678 7.55381L73.5956 7.59666L73.5319 7.63918L73.4683 7.68169L73.4047 7.72431L73.3411 7.76706L73.2776 7.80982L73.2141 7.85265L73.1507 7.89564L73.084 7.93877L73.0115 7.9822L72.9482 8.0254L72.8849 8.06862L72.8216 8.11187L72.7584 8.1553L72.6952 8.19875L72.632 8.2422L72.569 8.28587L72.5032 8.32965L72.4303 8.37368L72.3674 8.41753L72.3044 8.46143L72.2415 8.50535L72.1786 8.54941L72.1158 8.59354L72.0529 8.63768L71.9902 8.68195L71.9254 8.72637L71.8522 8.77102L71.7896 8.81549L71.727 8.86006L71.6644 8.90466L71.6018 8.94933L71.5393 8.99412L71.4768 9.03895L71.4144 9.08382L71.3505 9.12887L71.2771 9.17412L71.2148 9.2192L71.1525 9.26444L71.0902 9.30969L71.028 9.35498L70.9658 9.40044L70.9037 9.44592L70.8416 9.49143L70.7786 9.53709L70.705 9.58294L70.643 9.62865L70.581 9.6745L70.5191 9.72042L70.4572 9.76635L70.3953 9.8124L70.3335 9.85855L70.2718 9.90471L70.2097 9.95095L70.1358 9.99737L70.0742 10.0437L70.0125 10.0901L69.951 10.1367L69.8894 10.1833L69.8154 10.2424L69.7414 10.3017L69.6675 10.361L69.5936 10.4203L69.5197 10.4675L69.4459 10.5267L69.3721 10.5862L69.2984 10.6458L69.2247 10.7054L69.151 10.7651L69.0773 10.8248L69.0037 10.8847L68.9302 10.9445L68.8566 10.9928L68.7831 11.052L68.7097 11.112L68.6362 11.172L68.5629 11.2323L68.4895 11.2925L68.4162 11.3527L68.343 11.4131L68.2698 11.4735L68.1965 11.5229L68.1234 11.5819L68.0503 11.6425L67.9772 11.703L67.9041 11.7637L67.8312 11.8245L67.7582 11.8852L67.6852 11.946L67.6124 12.007L67.5395 12.0576L67.4667 12.1164L67.3939 12.1775L67.3212 12.2387L67.2485 12.2998L67.1758 12.3611L67.1032 12.4224L67.0306 12.4837L66.958 12.5451L66.8855 12.5968L66.813 12.6556L66.7406 12.7171L66.6682 12.7788L66.5959 12.8405L66.5235 12.9022L66.4512 12.9641L66.379 13.0259L66.3068 13.0878L66.2346 13.1406L66.1625 13.1993L66.0904 13.2614L66.0183 13.3235L65.9463 13.3857L65.8743 13.4479L65.8024 13.5102L65.7305 13.5726L65.6586 13.635L65.5868 13.6888L65.515 13.7475L65.4433 13.8101L65.3715 13.8727L65.2999 13.9354L65.2283 13.9982L65.1566 14.0609L65.0851 14.1238L65.0136 14.1867L64.9421 14.2417L64.8706 14.3001L64.7993 14.3632L64.7279 14.4264L64.6565 14.4895L64.5853 14.5528L64.514 14.6161L64.4428 14.6794L64.3717 14.7428L64.3005 14.7989L64.2294 14.8572L64.1584 14.9208L64.0874 14.9844L64.0164 15.0481L63.9454 15.1118L63.8746 15.1756L63.8037 15.2394L63.7328 15.3033L63.6621 15.3605L63.5914 15.4187L63.5206 15.4827L63.45 15.5469L63.3794 15.611L63.3088 15.6752L63.2382 15.7395L63.1677 15.8038L63.0973 15.8682L63.0268 15.9264L62.9565 15.9846L62.8861 16.0491L62.8158 16.1136L62.7455 16.1783L62.6753 16.243L62.6051 16.3077L62.535 16.3725L62.4649 16.4374L62.3948 16.4967L62.3247 16.5547L62.2548 16.6198L62.1848 16.6848L62.1149 16.7499L62.045 16.8151L61.9752 16.8803L61.9054 16.9455L61.8356 17.0109L61.7659 17.0713L61.6962 17.1292L61.6266 17.1947L61.557 17.2602L61.4875 17.3258L61.418 17.3914L61.3485 17.4571L61.2791 17.5229L61.2096 17.5886L61.1403 17.6501L61.071 17.7079L61.0017 17.7738L60.9325 17.8399L60.8633 17.9059L60.7942 17.972L60.7251 18.0382L60.656 18.1044L60.587 18.1707L60.518 18.2332L60.4491 18.2909L60.3801 18.3573L60.3112 18.4237L60.2425 18.4903L60.1737 18.5569L60.1049 18.6235L60.0362 18.6902L59.9676 18.7569L59.8989 18.8205L59.8304 18.878L59.7618 18.945L59.6933 19.0119L59.6249 19.0788L59.5565 19.1459L59.4881 19.213L59.4197 19.2801L59.3515 19.3474L59.2832 19.412L59.215 19.4694L59.1468 19.5368L59.0787 19.6042L59.0106 19.6716L58.9426 19.7391L58.8746 19.8067L58.8066 19.8743L58.7387 19.9419L58.6709 20.0077L58.603 20.065L58.5352 20.1327L58.4675 20.2006L58.3998 20.2686L58.3321 20.3365L58.2645 20.4045L58.1969 20.4726L58.1293 20.5407L58.0618 20.6075L57.9944 20.6646L57.927 20.7329L57.8596 20.8012L57.7923 20.8696L57.725 20.9381L57.6577 21.0065L57.5905 21.075L57.5234 21.1436L57.4562 21.2115L57.3892 21.2684L57.3222 21.3372L57.2552 21.406L57.1882 21.4748L57.1213 21.5437L57.0545 21.6126L56.9876 21.6816L56.9208 21.7506L56.8541 21.8196L56.7874 21.8763L56.7208 21.9455L56.6542 22.0148L56.5876 22.0841L56.5211 22.1534L56.4546 22.2228L56.3882 22.2922L56.3217 22.3617L56.2554 22.4313L56.1891 22.4888L56.1228 22.558L56.0566 22.6277L55.9905 22.6974L55.9243 22.7672L55.8582 22.837L55.7922 22.907L55.7262 22.9769L55.6602 23.0469L55.5943 23.1055L55.5285 23.1745L55.4626 23.2446L55.3969 23.3149L55.3311 23.3851L55.2654 23.4553L55.1998 23.5257L55.1342 23.5961L55.0686 23.6665L55.0031 23.7262L54.9376 23.7951L54.8722 23.8657L54.8068 23.9363L54.7415 24.007L54.6762 24.0778L54.6109 24.1485L54.5457 24.2194L54.4805 24.2903L54.4154 24.3509L54.3503 24.4197L54.2853 24.4907L54.2203 24.5618L54.1554 24.6329L54.0905 24.7041L54.0256 24.7754L53.9608 24.8466L53.8961 24.918L53.8313 24.9797L53.7666 25.0483L53.702 25.1198L53.6375 25.1913L53.5729 25.2629L53.5084 25.3345L53.444 25.4062L53.3796 25.4779L53.3152 25.5497L53.2509 25.6125L53.1867 25.6809L53.1224 25.7528L53.0583 25.8248L52.9941 25.8969L52.93 25.9689L52.866 26.0411L52.802 26.1132L52.7381 26.1854L52.6742 26.2492L52.6103 26.3176L52.5465 26.3899L52.4827 26.4623L52.4191 26.5348L52.3554 26.6073L52.2917 26.6798L52.2282 26.7525L52.1646 26.8252L52.1011 26.89L52.0377 26.9581L51.9743 27.0309L51.911 27.1038L51.8477 27.1767L51.7845 27.2497L51.7212 27.3226L51.6581 27.3957L51.595 27.4688L51.5319 27.5347L51.4689 27.6026L51.4059 27.6759L51.343 27.7492L51.2801 27.8225L51.2173 27.896L51.1545 27.9694L51.0918 28.0429L51.0291 28.1164L50.9665 28.1834L50.9039 28.2511L50.8413 28.3248L50.7788 28.3986L50.7164 28.4724L50.6539 28.5462L50.5916 28.6201L50.5293 28.694L50.467 28.7679L50.4048 28.8359L50.3427 28.9036L50.2805 28.9777L50.2185 29.0519L50.1565 29.1261L50.0945 29.2003L50.0326 29.2747L49.9707 29.349L49.9089 29.4234L49.8471 29.4924L49.7854 29.5599L49.7237 29.6345L49.662 29.709L49.6005 29.7837L49.539 29.8584L49.4774 29.9332L49.416 30.008L49.3547 30.0828L49.2933 30.1528L49.232 30.2202L49.1708 30.2952L49.1096 30.3702L49.0484 30.4453L48.9874 30.5204L48.9263 30.5956L48.8653 30.6708L48.8044 30.7461L48.7435 30.8172L48.6826 30.8843L48.6218 30.9598L48.5611 31.0352L48.5004 31.1107L48.4397 31.1863L48.3792 31.2619L48.3186 31.3376L48.2581 31.4133L48.1977 31.4854L48.1372 31.5524L48.0769 31.6282L48.0166 31.7041L47.9564 31.7801L47.8961 31.856L47.836 31.9321L47.7759 32.0082L47.7158 32.0843L47.6559 32.1575L47.596 32.2243L47.536 32.3005L47.4762 32.3769L47.4164 32.4533L47.3567 32.5297L47.297 32.6062L47.2374 32.6827L47.1778 32.7593L47.1182 32.8334L47.0588 32.9001L46.9993 32.9768L46.9399 33.0535L46.8806 33.1304L46.8213 33.2072L46.7621 33.2841L46.7029 33.3611L46.6438 33.4381L46.5847 33.5132L46.5257 33.5797L46.4668 33.6568L46.4078 33.734L46.349 33.8112L46.2902 33.8885L46.2314 33.9659L46.1727 34.0432L46.1141 34.1207L46.0554 34.1969L45.9969 34.2631L45.9384 34.3407L45.88 34.4183L45.8215 34.496L45.7632 34.5737L45.7049 34.6515L45.6467 34.7292L45.5885 34.8071L45.5304 34.8844L45.4723 34.9504L45.4143 35.0285L45.3564 35.1065L45.2984 35.1846L45.2406 35.2627L45.1828 35.3409L45.125 35.4191L45.0673 35.4974L45.0097 35.5757L44.9521 35.6416L44.8945 35.72L44.8371 35.7985L44.7796 35.877L44.7222 35.9555L44.6649 36.0341L44.6076 36.1128L44.5504 36.1914L44.4933 36.2702L44.4362 36.3371L44.3791 36.4153L44.3221 36.4942L44.2652 36.5732L44.2082 36.6521L44.1514 36.7312L44.0947 36.8102L44.0379 36.8893L43.9813 36.9685L43.9247 37.0364L43.8681 37.1145L43.8116 37.1938L43.7552 37.2732L43.6988 37.3525L43.6424 37.4319L43.5862 37.5115L43.5299 37.591L43.4737 37.6706L43.4176 37.7395L43.3616 37.8174L43.3055 37.8971L43.2496 37.9769L43.1937 38.0567L43.1378 38.1366L43.0821 38.2165L43.0264 38.2965L42.9707 38.3764L42.9151 38.4464L42.8596 38.5241L42.804 38.6042L42.7486 38.6844L42.6932 38.7647L42.6379 38.8449L42.5826 38.9253L42.5274 39.0057L42.4722 39.0861L42.4171 39.157L42.3621 39.2346L42.3071 39.3151L42.2522 39.3957L42.1973 39.4764L42.1425 39.5571L42.0877 39.6378L42.0331 39.7186L41.9784 39.7994L41.9238 39.8713L41.8693 39.9487L41.8148 40.0297L41.7604 40.1107L41.7061 40.1918L41.6518 40.2729L41.5975 40.3541L41.5434 40.4353L41.4893 40.5165L41.4352 40.5895L41.3812 40.6667L41.3272 40.7481L41.2733 40.8295L41.2195 40.911L41.1658 40.9925L41.112 41.0741L41.0584 41.1557L41.0048 41.2374L40.9513 41.3113L40.8978 41.3883L40.8444 41.4701L40.791 41.552L40.7377 41.6338L40.6845 41.7158L40.6313 41.7978L40.5782 41.8798L40.5252 41.9619L40.4722 42.0369L40.4192 42.1136L40.3664 42.1959L40.3135 42.2781L40.2607 42.3604L40.2081 42.4428L40.1555 42.5252L40.1028 42.6076L40.0504 42.6901L39.9979 42.7661L39.9455 42.8427L39.8932 42.9253L39.8409 43.008L39.7887 43.0907L39.7365 43.1735L39.6845 43.2563L39.6324 43.3391L39.5805 43.422L39.5286 43.499L39.4767 43.5754L39.4249 43.6584L39.3732 43.7415L39.3215 43.8246L39.2699 43.9078L39.2184 43.991L39.1669 44.0742L39.1155 44.1576L39.0642 44.2356L39.0129 44.3118L38.9617 44.3952L38.9105 44.4787L38.8594 44.5622L38.8083 44.6458L38.7574 44.7294L38.7065 44.8131L38.6556 44.8968L38.6049 44.9758L38.5541 45.0518L38.5034 45.1356L38.4529 45.2195L38.4023 45.3035L38.3518 45.3874L38.3015 45.4715L38.2511 45.5555L38.2008 45.6396L38.1506 45.7196L38.1004 45.7955L38.0503 45.8797L38.0003 45.964L37.9504 46.0483L37.9004 46.1327L37.8506 46.2171L37.8008 46.3016L37.7511 46.386L37.7015 46.4671L37.6519 46.5427L37.6024 46.6273L37.553 46.712L37.5036 46.7968L37.4542 46.8815L37.405 46.9664L37.3558 47.0512L37.3066 47.1361L37.2576 47.2181L37.2086 47.2935L37.1597 47.3785L37.1109 47.4637L37.062 47.5488L37.0133 47.6339L36.9647 47.7192L36.9161 47.8044L36.8675 47.8897L36.8191 47.9727L36.7706 48.048L36.7222 48.1334L36.674 48.2189L36.6258 48.3044L36.5776 48.3899L36.5296 48.4756L36.4816 48.5612L36.4336 48.6469L36.3858 48.7309L36.338 48.8059L36.2902 48.8917L36.2426 48.9776L36.195 49.0635L36.1474 49.1494L36.1 49.2355L36.0526 49.3215L36.0052 49.4076L35.958 49.4926L35.9108 49.5674L35.8636 49.6536L35.8166 49.7399L35.7696 49.8262L35.7226 49.9125L35.6758 49.9989L35.629 50.0854L35.5822 50.1718L35.5356 50.2578L35.489 50.3324L35.4425 50.419L35.3961 50.5057L35.3497 50.5923L35.3033 50.6791L35.2571 50.7659L35.2109 50.8527L35.1648 50.9395L35.1188 51.0264L35.0728 51.101L35.0269 51.1879L34.9811 51.2749L34.9353 51.362L34.8896 51.4491L34.844 51.5363L34.7985 51.6235L34.7529 51.7107L34.7076 51.798L34.6622 51.8735L34.6169 51.9602L34.5718 52.0476L34.5266 52.1351L34.4815 52.2226L34.4366 52.3101L34.3916 52.3977L34.3468 52.4853L34.302 52.573L34.2573 52.6495L34.2127 52.736L34.1681 52.8238L34.1236 52.9116L34.0792 52.9995L34.0349 53.0874L33.9905 53.1754L33.9464 53.2634L33.9022 53.3514L33.8581 53.4289L33.8142 53.5151L33.7703 53.6033L33.7263 53.6915L33.6826 53.7798L33.6389 53.8681L33.5952 53.9564L33.5517 54.0448L33.5082 54.1332L33.4648 54.2116L33.4215 54.2977L33.3782 54.3863L33.3349 54.4748L33.2919 54.5635L33.2488 54.6521L33.2058 54.7408L33.1629 54.8296L33.1201 54.9184L33.0773 54.9978L33.0347 55.0836L32.992 55.1725L32.9494 55.2615L32.907 55.3505L32.8646 55.4395L32.8223 55.5286L32.7801 55.6177L32.7379 55.7069L32.6958 55.7873L32.6538 55.8728L32.6118 55.9621L32.5699 56.0514L32.5282 56.1408L32.4864 56.2302L32.4448 56.3197L32.4032 56.4092L32.3617 56.4987L32.3203 56.58L32.2789 56.6654L32.2376 56.755L32.1965 56.8447L32.1554 56.9344L32.1142 57.0242L32.0733 57.114L32.0324 57.2039L31.9915 57.2937L31.9509 57.3761L31.9102 57.4612L31.8695 57.5511L31.8291 57.6412L31.7886 57.7313L31.7482 57.8214L31.708 57.9116L31.6678 58.0018L31.6276 58.092L31.5876 58.1753L31.5476 58.2602L31.5076 58.3505L31.4679 58.4409L31.4281 58.5314L31.3884 58.6218L31.3488 58.7124L31.3093 58.8029L31.2699 58.8935L31.2305 58.9778L31.1912 59.0623L31.152 59.1531L31.1129 59.2438L31.0738 59.3346L31.0348 59.4255L30.996 59.5163L30.9571 59.6072L30.9184 59.6982L30.8797 59.7834L30.8411 59.8677L30.8026 59.9588L30.7642 60.0499L30.7258 60.141L30.6876 60.2322L30.6494 60.3234L30.6112 60.4147L30.5733 60.506L30.5353 60.5921L30.4974 60.6762L30.4596 60.7676L30.4219 60.8591L30.3842 60.9505L30.3467 61.0421L30.3092 61.1336L30.2718 61.2253L30.2345 61.3169L30.1972 61.4039L30.1601 61.4878L30.123 61.5795L30.086 61.6713L30.0491 61.7631L30.0123 61.855L29.9755 61.9469L29.9389 62.0388L29.9022 62.1308L29.8657 62.2188L29.8293 62.3024L29.7929 62.3945L29.7567 62.4866L29.7205 62.5788L29.6844 62.6709L29.6483 62.7632L29.6124 62.8554L29.5765 62.9477L29.5408 63.0367L29.5051 63.12L29.4694 63.2124L29.4339 63.3049L29.3984 63.3973L29.363 63.4898L29.3278 63.5824L29.2926 63.675L29.2574 63.7676L29.2224 63.8575L29.1874 63.9405L29.1525 64.0333L29.1178 64.1261L29.083 64.2189L29.0484 64.3117L29.0139 64.4046L28.9793 64.4975L28.945 64.5905L28.9107 64.6813L28.8764 64.764L28.8424 64.8571L28.8083 64.9502L28.7743 65.0433L28.7405 65.1365L28.7067 65.2297L28.6729 65.3229L28.6393 65.4162L28.6058 65.5079L28.5723 65.5904L28.5389 65.6837L28.5056 65.7771L28.4724 65.8706L28.4393 65.9641L28.4062 66.0576L28.3733 66.1511L28.3404 66.2447L28.3076 66.3373L28.275 66.4195L28.2423 66.5132L28.2098 66.6069L28.1774 66.7007L28.145 66.7945L28.1127 66.8883L28.0805 66.9821L28.0484 67.076L28.0164 67.1695L27.9845 67.2514L27.9526 67.3454L27.9209 67.4394L27.8892 67.5335L27.8575 67.6276L27.8261 67.7217L27.7947 67.8159L27.7633 67.91L27.7321 68.0043L27.7009 68.0862L27.6698 68.1803L27.6389 68.2747L27.6079 68.369L27.5772 68.4634L27.5464 68.5578L27.5157 68.6523L27.4852 68.7468L27.4548 68.8413L27.4243 68.9241L27.3941 69.0179L27.3639 69.1126L27.3338 69.2072L27.3038 69.3019L27.2738 69.3966L27.2439 69.4913L27.2142 69.5861L27.1845 69.6809L27.1549 69.7647L27.1254 69.8582L27.0959 69.953L27.0667 70.048L27.0374 70.143L27.0082 70.2379L26.9792 70.333L26.9503 70.428L26.9214 70.5231L26.8926 70.6078L26.8638 70.7009L26.8352 70.7961L26.8067 70.8913L26.7782 70.9865L26.7499 71.0818L26.7217 71.1771L26.6934 71.2724L26.6654 71.3678L26.6374 71.4533L26.6095 71.5461L26.5817 71.6416L26.554 71.7371L26.5263 71.8326L26.4988 71.9282L26.4713 72.0237L26.444 72.1193L26.4167 72.215L26.3894 72.3013L26.3624 72.3938L26.3354 72.4895L26.3084 72.5853L26.2817 72.6811L26.2549 72.7769L26.2283 72.8727L26.2017 72.9686L26.1752 73.0645L26.1489 73.1517L26.1226 73.2439L26.0963 73.3398L26.0703 73.4359L26.0443 73.5319L26.0183 73.628L25.9926 73.7241L25.9668 73.8202L25.9412 73.9163L25.9156 74.0044L25.8901 74.0962L25.8648 74.1925L25.8395 74.2887L25.8142 74.385L25.7892 74.4814L25.7642 74.5777L25.7392 74.6741L25.7145 74.7705L25.6897 74.8594L25.6651 74.9508L25.6406 75.0473L25.6161 75.1438L25.5917 75.2404L25.5675 75.337L25.5432 75.4335L25.5192 75.5302L25.4952 75.6268L25.4713 75.7166L25.4475 75.8077L25.4238 75.9044L25.4002 76.0011L25.3767 76.0979L25.3532 76.1947L25.3299 76.2915L25.3067 76.3884L25.2834 76.4852L25.2604 76.5759L25.2374 76.6666L25.2145 76.7635L25.1918 76.8605L25.1691 76.9575L25.1465 77.0545L25.124 77.1516L25.1015 77.2487L25.0793 77.3458L25.0571 77.4372L25.0349 77.5275L25.0129 77.6247L24.991 77.7219L24.9691 77.8192L24.9474 77.9164L24.9257 78.0137L24.9041 78.111L24.8827 78.2083L24.8612 78.3005L24.84 78.3905L24.8188 78.4879L24.7977 78.5853L24.7768 78.6828L24.7558 78.7802L24.735 78.8777L24.7143 78.9752L24.6937 79.0727L24.6732 79.1658L24.6528 79.2554L24.6323 79.353L24.6122 79.4506L24.592 79.5482L24.5719 79.6459L24.552 79.7436L24.5322 79.8413L24.5124 79.939L24.4928 80.0329L24.4731 80.1221L24.4537 80.2199L24.4343 80.3177L24.415 80.4155L24.3958 80.5134L24.3767 80.6113L24.3577 80.7092L24.3389 80.8071L24.32 80.9018L24.3013 80.9906L24.2827 81.0885L24.2641 81.1866L24.2458 81.2846L24.2274 81.3826L24.2092 81.4807L24.1911 81.5788L24.173 81.6769L24.1551 81.7724L24.1372 81.8607L24.1194 81.9589L24.1018 82.0571L24.0843 82.1553L24.0667 82.2535L24.0495 82.3518L24.0322 82.4501L24.015 82.5484L23.9979 82.6446L23.9809 82.7325L23.9641 82.8309L23.9473 82.9292L23.9305 83.0276L23.914 83.126L23.8975 83.2244L23.8811 83.3229L23.8648 83.4213L23.8486 83.5183L23.8325 83.6058L23.8165 83.7044L23.8005 83.8029L23.7848 83.9014L23.769 84L23.7533 84.0986L23.7379 84.1972L23.7225 84.2958L23.7071 84.3936L23.6919 84.4806L23.6767 84.5793L23.6617 84.678L23.6468 84.7767L23.6319 84.8754L23.6172 84.9742L23.6026 85.073L23.588 85.1717L23.5736 85.2702L23.5592 85.3568L23.5449 85.4557L23.5308 85.5545L23.5167 85.6534L23.5028 85.7522L23.4889 85.8511L23.4751 85.95L23.4615 86.049L23.4479 86.1479L23.4344 86.2347L23.4211 86.3333L23.4077 86.4323L23.3946 86.5313L23.3815 86.6303L23.3684 86.7293L23.3556 86.8284L23.3428 86.9274L23.3301 87.0265L23.3176 87.114L23.305 87.2122L23.2927 87.3113L23.2804 87.4104L23.2681 87.5096L23.2561 87.6087L23.2441 87.7079L23.2321 87.807L23.2204 87.9063L23.2087 87.9945L23.1971 88.0922L23.1856 88.1914L23.1741 88.2907L23.1628 88.3899L23.1516 88.4892L23.1404 88.5885L23.1295 88.6878L23.1186 88.7871L23.1077 88.8761L23.0971 88.9733L23.0864 89.0726L23.0759 89.172L23.0655 89.2714L23.0551 89.3707L23.0449 89.4701L23.0348 89.5695L23.0247 89.6689L23.0149 89.7586L23.005 89.8553L22.9953 89.9548L22.9857 90.0542L22.9761 90.1537L22.9667 90.2532L22.9574 90.3527L22.9481 90.4522L22.939 90.5517L22.9299 90.6421L22.921 90.7383L22.9122 90.8379L22.9034 90.9374L22.8948 91.037L22.8862 91.1366L22.8777 91.2361L22.8695 91.3357L22.8612 91.4353L22.853 91.5264L22.845 91.6221L22.837 91.7217L22.8292 91.8214L22.8215 91.921L22.8137 92.0207L22.8062 92.1203L22.7988 92.22L22.7914 92.3197L22.7842 92.4114L22.777 92.5066L22.7699 92.6063L22.763 92.706L22.7561 92.8058L22.7494 92.9055L22.7427 93.0052L22.7361 93.105L22.7297 93.2047L22.7233 93.2971L22.717 93.3918L22.7109 93.4915L22.7048 93.5913L22.6989 93.6911L22.693 93.7909L22.6872 93.8907L22.6816 93.9905L22.676 94.0903L22.6705 94.1834L22.6652 94.2775L22.6598 94.3773L22.6547 94.4772L22.6496 94.577L22.6446 94.6769L22.6398 94.7767L22.635 94.8766L22.6302 94.9765L22.6257 95.0702L22.6212 95.1637L22.6168 95.2636L22.6126 95.3635L22.6084 95.4634L22.6043 95.5633L22.6003 95.6632L22.5964 95.7631L22.5926 95.863L22.5889 95.9574L22.5853 96.0504L22.5819 96.1503L22.5785 96.2502L22.5752 96.3502L22.572 96.4501L22.5688 96.55L22.5659 96.65L22.563 96.7499L22.5601 96.8449L22.5575 96.9373L22.5549 97.0373L22.5523 97.1372L22.55 97.2372L22.5476 97.3372L22.5455 97.4371L22.5434 97.5371L22.5413 97.6371L22.5394 97.7327L22.5376 97.8245L22.5359 97.9245L22.5343 98.0245L22.5328 98.1245L22.5313 98.2245L22.5301 98.3244L22.5288 98.4244L22.5277 98.5244L22.5267 98.6206L22.5257 98.7119L22.5249 98.8119L22.5242 98.9119L22.5235 99.0119L22.5231 99.1119L22.5226 99.2119L22.5223 99.3119L22.522 99.4118L22.5218 99.5087L22.5219 99.5993L22.5219 99.6994L22.522 99.7993L22.5223 99.8993L22.5227 99.9993L22.5231 100.099L22.5237 100.199L22.5243 100.299L22.525 100.397L22.5259 100.487L22.5269 100.587L22.5279 100.687L22.5291 100.787L22.5304 100.887L22.5316 100.987L22.5332 101.087L22.5347 101.187L22.5363 101.285L22.5381 101.374L22.5399 101.474L22.5419 101.574L22.5439 101.674L22.546 101.774L22.5483 101.874L22.5506 101.974L22.553 102.074L22.5556 102.173L22.5582 102.261L22.5609 102.361L22.5637 102.461L22.5666 102.561L22.5697 102.661L22.5728 102.761L22.5759 102.861L22.5793 102.961L22.5827 103.06L22.5862 103.148L22.5898 103.248L22.5934 103.348L22.5973 103.448L22.6012 103.548L22.6051 103.648L22.6093 103.748L22.6134 103.848L22.6177 103.947L22.6221 104.035L22.6265 104.135L22.6311 104.235L22.6358 104.335L22.6405 104.434L22.6455 104.534L22.6504 104.634L22.6554 104.734L22.6606 104.834L22.6658 104.922L22.6712 105.021L22.6767 105.121L22.6822 105.221L22.6879 105.32L22.6936 105.42L22.6994 105.52L22.7054 105.62L22.7114 105.72L22.7175 105.808L22.7238 105.907L22.73 106.006L22.7365 106.106L22.743 106.206L22.7496 106.306L22.7563 106.405L22.7631 106.505L22.77 106.605L22.777 106.694L22.784 106.792L22.7913 106.892L22.7986 106.991L22.8059 107.091L22.8134 107.191L22.821 107.29L22.8286 107.39L22.8365 107.49L22.8443 107.579L22.8523 107.676L22.8603 107.776L22.8684 107.876L22.8767 107.975L22.885 108.075L22.8935 108.174L22.9021 108.274L22.9106 108.374L22.9194 108.463L22.9282 108.56L22.9371 108.66L22.9462 108.759L22.9553 108.859L22.9644 108.958L22.9738 109.058L22.9831 109.157L22.9927 109.257L23.0023 109.347L23.0119 109.443L23.0217 109.543L23.0316 109.642L23.0415 109.741L23.0517 109.841L23.0618 109.94L23.0721 110.04L23.0824 110.139L23.0928 110.23L23.1034 110.325L23.1141 110.425L23.1247 110.524L23.1356 110.623L23.1465 110.723L23.1575 110.822L23.1687 110.921L23.1799 111.02L23.1912 111.112L23.2026 111.206L23.214 111.306L23.2257 111.405L23.2374 111.504L23.2491 111.603L23.2611 111.702L23.273 111.802L23.2851 111.901L23.2972 111.993L23.3094 112.087L23.3218 112.186L23.3343 112.285L23.3468 112.384L23.3595 112.483L23.3722 112.582L23.385 112.681L23.3979 112.78L23.4109 112.873L23.424 112.966L23.4372 113.065L23.4505 113.164L23.4639 113.263L23.4774 113.362L23.4909 113.461L23.5046 113.559L23.5184 113.658L23.5322 113.751L23.5462 113.844L23.5602 113.942L23.5744 114.041L23.5886 114.14L23.6029 114.239L23.6174 114.338L23.6319 114.437L23.6465 114.535L23.6612 114.629L23.6759 114.72L23.6909 114.819L23.7059 114.918L23.7209 115.016L23.7361 115.115L23.7513 115.214L23.7667 115.312L23.7822 115.411L23.7977 115.505L23.8133 115.596L23.8291 115.694L23.8448 115.793L23.8608 115.891L23.8768 115.99L23.8928 116.088L23.9091 116.187L23.9254 116.285L23.9417 116.38L23.9582 116.47L23.9747 116.568L23.9914 116.667L24.0082 116.765L24.025 116.863L24.0419 116.962L24.059 117.06L24.076 117.158L24.0933 117.253L24.1106 117.342L24.128 117.441L24.1455 117.539L24.163 117.637L24.1807 117.735L24.1985 117.833L24.2163 117.931L24.2343 118.03L24.2523 118.125L24.2704 118.213L24.2887 118.311L24.307 118.409L24.3254 118.508L24.3439 118.606L24.3624 118.704L24.3811 118.801L24.3999 118.899L24.4187 118.995L24.4377 119.083L24.4568 119.181L24.4759 119.279L24.4952 119.376L24.5145 119.474L24.5339 119.572L24.5534 119.67L24.5729 119.768L24.5926 119.864L24.6124 119.951L24.6322 120.048L24.6523 120.146L24.6723 120.244L24.6924 120.341L24.7127 120.439L24.733 120.537L24.7534 120.634L24.7739 120.73L24.7944 120.817L24.8151 120.914L24.8359 121.012L24.8567 121.109L24.8777 121.207L24.8988 121.304L24.9199 121.402L24.9412 121.499L24.9624 121.596L24.9838 121.681L25.0054 121.778L25.0269 121.876L25.0486 121.973L25.0704 122.07L25.0921 122.167L25.1142 122.265L25.1362 122.362L25.1582 122.459L25.1805 122.544L25.2028 122.641L25.2252 122.738L25.2477 122.835L25.2702 122.932L25.2929 123.029L25.3157 123.126L25.3384 123.223L25.3614 123.32L25.3844 123.405L25.4075 123.501L25.4307 123.598L25.454 123.695L25.4773 123.792L25.5008 123.888L25.5243 123.985L25.548 124.082L25.5717 124.179L25.5955 124.264L25.6194 124.359L25.6434 124.456L25.6674 124.553L25.6917 124.649L25.7159 124.746L25.7402 124.842L25.7647 124.939L25.7892 125.035L25.8138 125.121L25.8385 125.216L25.8632 125.312L25.8881 125.409L25.9131 125.505L25.9381 125.601L25.9633 125.698L25.9885 125.794L26.0138 125.89L26.0392 125.976L26.0647 126.07L26.0902 126.166L26.1159 126.262L26.1416 126.359L26.1675 126.455L26.1934 126.551L26.2194 126.647L26.2455 126.743L26.2717 126.829L26.2979 126.922L26.3243 127.018L26.3508 127.114L26.3773 127.21L26.4039 127.306L26.4306 127.402L26.4574 127.497L26.4843 127.593L26.5112 127.68L26.5383 127.772L26.5654 127.868L26.5926 127.964L26.62 128.059L26.6474 128.155L26.6748 128.25L26.7024 128.346L26.73 128.441L26.7578 128.529L26.7856 128.62L26.8135 128.715L26.8415 128.811L26.8696 128.906L26.8977 129.001L26.926 129.097L26.9544 129.192L26.9827 129.287L27.0113 129.375L27.0399 129.465L27.0685 129.56L27.0973 129.655L27.1262 129.75L27.1551 129.846L27.1841 129.941L27.2132 130.036L27.2424 130.131L27.2717 130.218L27.301 130.308L27.3305 130.403L27.3601 130.498L27.3896 130.593L27.4194 130.687L27.4491 130.782L27.479 130.877L27.509 130.972L27.539 131.06L27.5691 131.148L27.5993 131.243L27.6296 131.338L27.66 131.432L27.6905 131.527L27.721 131.621L27.7516 131.716L27.7823 131.81L27.8131 131.899L27.844 131.986L27.875 132.081L27.9059 132.175L27.9371 132.269L27.9683 132.363L27.9996 132.458L28.031 132.552L28.0625 132.646L28.094 132.735L28.1257 132.822L28.1574 132.916L28.1892 133.01L28.2211 133.104L28.253 133.198L28.285 133.292L28.3172 133.385L28.3493 133.479L28.3817 133.568L28.4141 133.654L28.4465 133.748L28.4791 133.842L28.5117 133.936L28.5443 134.029L28.5772 134.123L28.61 134.216L28.643 134.31L28.6761 134.399L28.7091 134.484L28.7423 134.578L28.7756 134.671L28.8089 134.765L28.8424 134.858L28.876 134.951L28.9095 135.045L28.9433 135.138L28.977 135.228L29.0108 135.312L29.0448 135.405L29.0788 135.498L29.1129 135.591L29.1471 135.684L29.1814 135.777L29.2157 135.87L29.2502 135.963L29.2846 136.053L29.3192 136.136L29.3539 136.229L29.3886 136.322L29.4235 136.415L29.4584 136.507L29.4933 136.6L29.5284 136.693L29.5636 136.785L29.5988 136.876L29.6341 136.958L29.6695 137.051L29.705 137.143L29.7406 137.236L29.7762 137.328L29.8119 137.42L29.8477 137.513L29.8835 137.605L29.9195 137.696L29.9556 137.777L29.9916 137.869L30.0279 137.961L30.0641 138.053L30.1004 138.146L30.1369 138.238L30.1734 138.33L30.21 138.422L30.2467 138.512L30.2834 138.593L30.3202 138.685L30.3572 138.777L30.3941 138.868L30.4312 138.96L30.4684 139.052L30.5056 139.144L30.5429 139.235L30.5803 139.326L30.6177 139.406L30.6553 139.497L30.6929 139.589L30.7305 139.68L30.7684 139.772L30.8062 139.863L30.8441 139.955L30.8822 140.046L30.9203 140.137L30.9584 140.216L30.9967 140.307L31.035 140.398L31.0733 140.489L31.1119 140.58L31.1504 140.671L31.189 140.762L31.2278 140.853L31.2665 140.944L31.3054 141.023L31.3444 141.114L31.3834 141.204L31.4225 141.295L31.4617 141.386L31.5009 141.477L31.5403 141.567L31.5797 141.658L31.6191 141.749L31.6587 141.828L31.6984 141.917L31.738 142.008L31.7779 142.098L31.8178 142.188L31.8577 142.279L31.8978 142.369L31.9378 142.459L31.978 142.549L32.0183 142.629L32.0586 142.717L32.099 142.807L32.1395 142.897L32.18 142.987L32.2207 143.077L32.2614 143.167L32.3022 143.257L32.3431 143.347L32.384 143.427L32.425 143.514L32.4661 143.604L32.5073 143.694L32.5485 143.783L32.5899 143.873L32.6313 143.963L32.6727 144.052L32.7143 144.142L32.7559 144.222L32.7976 144.308L32.8394 144.397L32.8812 144.487L32.9231 144.576L32.9652 144.665L33.0072 144.755L33.0493 144.844L33.0916 144.933L33.1339 145.013L33.1762 145.099L33.2187 145.187L33.2612 145.276L33.3038 145.365L33.3465 145.454L33.3892 145.543L33.4321 145.632L33.475 145.721L33.5179 145.801L33.561 145.886L33.6041 145.974L33.6472 146.063L33.6905 146.151L33.7339 146.24L33.7772 146.328L33.8208 146.417L33.8643 146.505L33.9079 146.586L33.9517 146.669L33.9955 146.758L34.0393 146.846L34.0833 146.934L34.1272 147.022L34.1713 147.11L34.2155 147.198L34.2597 147.286L34.304 147.367L34.3484 147.45L34.3928 147.537L34.4373 147.625L34.4819 147.713L34.5265 147.801L34.5713 147.888L34.6161 147.976L34.6609 148.064L34.7059 148.145L34.7509 148.226L34.796 148.314L34.8412 148.401L34.8864 148.489L34.9317 148.576L34.9771 148.663L35.0226 148.751L35.068 148.838L35.1137 148.919L35.1594 149L35.2051 149.087L35.2509 149.174L35.2968 149.261L35.3427 149.348L35.3888 149.435L35.4349 149.521L35.481 149.608L35.5273 149.69L35.5736 149.769L35.62 149.856L35.6665 149.943L35.713 150.029L35.7596 150.116L35.8063 150.202L35.853 150.289L35.8998 150.375L35.9467 150.457L35.9937 150.535L36.0407 150.622L36.0878 150.708L36.1349 150.794L36.1822 150.88L36.2295 150.966L36.2769 151.052L36.3244 151.138L36.3719 151.22L36.4194 151.298L36.4671 151.384L36.5148 151.469L36.5626 151.555L36.6105 151.641L36.6585 151.727L36.7064 151.812L36.7545 151.898L36.8027 151.98L36.8509 152.056L36.8992 152.142L36.9476 152.227L36.9959 152.313L37.0445 152.398L37.093 152.483L37.1416 152.569L37.1904 152.654L37.2392 152.736L37.288 152.811L37.3369 152.896L37.3859 152.982L37.4349 153.066L37.4841 153.151L37.5332 153.236L37.5825 153.321L37.6318 153.406L37.6812 153.488L37.7307 153.563L37.7802 153.647L37.8298 153.732L37.8795 153.816L37.9292 153.901L37.979 153.985L38.0289 154.07L38.0789 154.154L38.1288 154.237L38.1789 154.31L38.2291 154.394L38.2792 154.479L38.3296 154.563L38.3799 154.647L38.4303 154.731L38.4808 154.815L38.5314 154.899L38.5819 154.981L38.6327 155.054L38.6834 155.138L38.7342 155.221L38.7851 155.305L38.8361 155.389L38.887 155.472L38.9382 155.556L38.9893 155.639L39.0405 155.722L39.0918 155.793L39.1432 155.877L39.1946 155.96L39.2461 156.043L39.2977 156.127L39.3493 156.21L39.401 156.293L39.4527 156.376L39.5045 156.459L39.5565 156.529L39.6084 156.612L39.6604 156.695L39.7125 156.778L39.7647 156.861L39.8169 156.943L39.8692 157.026L39.9215 157.109L39.9739 157.191L40.0264 157.262L40.0789 157.344L40.1316 157.426L40.1843 157.508L40.237 157.591L40.2898 157.673L40.3427 157.755L40.3956 157.837L40.4486 157.919L40.5017 157.99L40.5548 158.071L40.608 158.153L40.6613 158.235L40.7146 158.317L40.768 158.399L40.8215 158.48L40.875 158.562L40.9286 158.644L40.9823 158.715L41.0359 158.794L41.0897 158.876L41.1436 158.957L41.1975 159.039L41.2515 159.12L41.3055 159.201L41.3596 159.283L41.4138 159.364L41.468 159.435L41.5223 159.514L41.5767 159.595L41.6311 159.676L41.6856 159.757L41.7402 159.838L41.7948 159.919L41.8494 159.999L41.9042 160.08L41.959 160.151L42.0138 160.229L42.0688 160.31L42.1238 160.39L42.1788 160.471L42.234 160.551L42.2892 160.631L42.3444 160.712L42.3997 160.792L42.4551 160.864L42.5105 160.94L42.566 161.02L42.6216 161.1L42.6772 161.18L42.7329 161.26L42.7887 161.34L42.8444 161.42L42.9004 161.5L42.9563 161.572L43.0123 161.647L43.0684 161.727L43.1245 161.806L43.1806 161.886L43.2369 161.965L43.2932 162.045L43.3496 162.124L43.406 162.204L43.4625 162.275L43.5191 162.35L43.5757 162.429L43.6324 162.508L43.6891 162.587L43.746 162.666L43.8028 162.745L43.8597 162.824L43.9167 162.903L43.9738 162.975L44.0309 163.048L44.0881 163.127L44.1453 163.205L44.2026 163.284L44.26 163.363L44.3174 163.441L44.3748 163.52L44.4324 163.598L44.49 163.67L44.5476 163.742L44.6054 163.821L44.6632 163.899L44.721 163.977L44.7789 164.055L44.8369 164.133L44.8949 164.211L44.953 164.289L45.0111 164.361L45.0693 164.432L45.1276 164.51L45.1859 164.588L45.2443 164.665L45.3028 164.743L45.3613 164.82L45.4198 164.898L45.4785 164.975L45.5371 165.048L45.5958 165.118L45.6547 165.195L45.7135 165.272L45.7724 165.349L45.8314 165.427L45.8905 165.504L45.9496 165.581L46.0087 165.658L46.0679 165.73L46.1272 165.799L46.1866 165.876L46.2459 165.952L46.3054 166.029L46.3649 166.106L46.4245 166.182L46.4841 166.259L46.5438 166.335L46.6035 166.408L46.6633 166.476L46.7232 166.552L46.7831 166.628L46.8431 166.704L46.9032 166.781L46.9633 166.857L47.0234 166.933L47.0836 167.009L47.1439 167.081L47.2042 167.148L47.2646 167.224L47.3251 167.3L47.3856 167.375L47.4461 167.451L47.5067 167.527L47.5674 167.602L47.6282 167.678L47.6889 167.75L47.7498 167.816L47.8107 167.891L47.8716 167.966L47.9327 168.042L47.9938 168.117L48.0549 168.192L48.116 168.267L48.1773 168.342L48.2386 168.415L48.3 168.479L48.3614 168.554L48.4229 168.629L48.4844 168.703L48.546 168.778L48.6076 168.853L48.6693 168.927L48.7311 169.002L48.7929 169.075L48.8548 169.138L48.9167 169.212L48.9787 169.287L49.0407 169.361L49.1028 169.435L49.165 169.509L49.2272 169.583L49.2894 169.657L49.3517 169.73L49.4141 169.792L49.4766 169.866L49.539 169.94L49.6016 170.014L49.6642 170.087L49.7268 170.161L49.7895 170.234L49.8523 170.308L49.9151 170.381L49.978 170.442L50.0409 170.515L50.1039 170.589L50.1669 170.662L50.23 170.735L50.2932 170.808L50.3564 170.881L50.4197 170.954L50.483 171.027L50.5463 171.087L50.6098 171.16L50.6732 171.233L50.7367 171.305L50.8004 171.378L50.864 171.45L50.9277 171.523L50.9914 171.595L51.0552 171.668L51.1191 171.728L51.183 171.8L51.247 171.872L51.311 171.944L51.3751 172.016L51.4392 172.088L51.5033 172.16L51.5676 172.232L51.6319 172.304L51.6962 172.365L51.7606 172.435L51.8251 172.507L51.8895 172.578L51.9541 172.65L52.0187 172.721L52.0834 172.793L52.1481 172.864L52.2129 172.935L52.2777 172.996L52.3426 173.065L52.4075 173.137L52.4724 173.208L52.5375 173.279L52.6026 173.35L52.6677 173.421L52.7329 173.491L52.7982 173.562L52.8634 173.623L52.9288 173.691L52.9942 173.762L53.0596 173.832L53.1252 173.903L53.1907 173.973L53.2563 174.044L53.322 174.114L53.3877 174.184L53.4534 174.245L53.5193 174.312L53.5852 174.382L53.651 174.452L53.7171 174.522L53.7831 174.592L53.8491 174.662L53.9153 174.732L53.9815 174.802L54.0476 174.863L54.114 174.928L54.1803 174.998L54.2467 175.068L54.3131 175.137L54.3796 175.206L54.4461 175.276L54.5127 175.345L54.5794 175.414L54.646 175.475L54.7128 175.54L54.7796 175.609L54.8464 175.678L54.9134 175.747L54.9803 175.815L55.0473 175.884L55.1143 175.953L55.1814 176.022L55.2485 176.083L55.3158 176.146L55.383 176.215L55.4503 176.283L55.5177 176.352L55.5851 176.42L55.6525 176.488L55.72 176.556L55.7876 176.624L55.8551 176.686L55.9228 176.748L55.9905 176.816L56.0582 176.884L56.126 176.952L56.1939 177.019L56.2617 177.087L56.3297 177.155L56.3977 177.222L56.4657 177.284L56.5338 177.345L56.602 177.412L56.6701 177.479L56.7384 177.547L56.8067 177.614L56.875 177.681L56.9434 177.748L57.0118 177.815L57.0803 177.876L57.1488 177.936L57.2174 178.003L57.286 178.07L57.3547 178.137L57.4235 178.203L57.4922 178.27L57.561 178.337L57.6299 178.403L57.6988 178.464L57.7678 178.523L57.8368 178.589L57.9059 178.656L57.975 178.722L58.0442 178.788L58.1133 178.854L58.1826 178.92L58.2519 178.986L58.3212 179.047L58.3906 179.105L58.4601 179.171L58.5296 179.236L58.5991 179.302L58.6687 179.368L58.7383 179.433L58.808 179.499L58.8777 179.564L58.9475 179.625L59.0173 179.682L59.0872 179.747L59.1571 179.812L59.227 179.877L59.2971 179.942L59.3671 180.007L59.4372 180.072L59.5074 180.137L59.5776 180.198L59.6478 180.254L59.7181 180.318L59.7885 180.383L59.8588 180.447L59.9293 180.512L59.9998 180.576L60.0702 180.64L60.1408 180.705L60.2114 180.766L60.2821 180.82L60.3528 180.884L60.4236 180.948L60.4943 181.012L60.5652 181.076L60.6361 181.14L60.707 181.204L60.778 181.267L60.849 181.329L60.9201 181.382L60.9912 181.445L61.0623 181.509L61.1335 181.572L61.2048 181.635L61.2761 181.699L61.3474 181.762L61.4188 181.825L61.4903 181.887L61.5617 181.938L61.6332 182.001L61.7048 182.064L61.7764 182.127L61.848 182.19L61.9198 182.252L61.9915 182.315L62.0633 182.377L62.1351 182.439L62.207 182.49L62.2789 182.552L62.3509 182.614L62.4229 182.677L62.4949 182.739L62.567 182.801L62.6392 182.863L62.7113 182.925L62.7836 182.986L62.8559 183.036L62.9281 183.098L63.0005 183.159L63.0729 183.221L63.1454 183.283L63.2179 183.344L63.2904 183.406L63.3629 183.467L63.4356 183.528L63.5083 183.577L63.5809 183.638L63.6537 183.699L63.7265 183.76L63.7993 183.821L63.8722 183.882L63.9451 183.943L64.0181 184.004L64.0911 184.065L64.1642 184.114L64.2372 184.173L64.3104 184.234L64.3836 184.294L64.4567 184.355L64.53 184.415L64.6033 184.475L64.6767 184.536L64.7501 184.596L64.8235 184.645L64.897 184.703L64.9705 184.763L65.0441 184.823L65.1176 184.883L65.1913 184.943L65.265 185.002L65.3387 185.062L65.4124 185.122L65.4862 185.171L65.5601 185.228L65.634 185.287L65.7079 185.347L65.7819 185.406L65.8559 185.465L65.93 185.524L66.004 185.583L66.0782 185.642L66.1524 185.691L66.2266 185.747L66.3008 185.806L66.3751 185.865L66.4495 185.923L66.5238 185.982L66.5983 186.04L66.6727 186.099L66.7472 186.157L66.8218 186.207L66.8964 186.261L66.971 186.32L67.0457 186.378L67.1204 186.436L67.1951 186.494L67.2699 186.552L67.3447 186.609L67.4196 186.667L67.4945 186.717L67.5695 186.77L67.6444 186.828L67.7195 186.885L67.7945 186.943L67.8696 187L67.9448 187.057L68.02 187.115L68.0952 187.172L68.1704 187.221L68.2458 187.273L68.3211 187.331L68.3965 187.387L68.4719 187.444L68.5474 187.501L68.6229 187.558L68.6984 187.614L68.774 187.671L68.8496 187.72L68.9253 187.772L69.0009 187.828L69.0767 187.884L69.1525 187.941L69.2282 187.997L69.3041 188.053L69.38 188.109L69.4559 188.165L69.5318 188.214L69.6079 188.264L69.6839 188.32L69.7599 188.376L69.8361 188.431L69.9122 188.487L69.9884 188.542L70.0646 188.598L70.1409 188.653L70.2172 188.703L70.2935 188.751L70.3699 188.807L70.4463 188.862L70.5228 188.917L70.5993 188.972L70.6758 189.027L70.7524 189.081L70.829 189.136L70.9056 189.186L70.9823 189.233L71.059 189.288L71.1357 189.342L71.2125 189.397L71.2893 189.451L71.3662 189.505L71.4431 189.56L71.52 189.614L71.597 189.663L71.674 189.709L71.7511 189.763L71.8281 189.817L71.9053 189.871L71.9824 189.925L72.0596 189.979L72.1368 190.032L72.2141 190.086L72.2914 190.135L72.3687 190.18L72.4461 190.234L72.5235 190.287L72.6009 190.34L72.6784 190.393L72.7559 190.446L72.8334 190.499L72.911 190.552L72.9887 190.602L73.0663 190.646L73.144 190.698L73.2217 190.751L73.2995 190.804L73.3773 190.856L73.4551 190.909L73.5329 190.961L73.6109 191.013L73.6888 191.063L73.7667 191.105L73.8448 191.157L73.9228 191.21L74.0009 191.262L74.079 191.313L74.1571 191.365L74.2353 191.417L74.3135 191.469L74.3918 191.518L74.47 191.56L74.5484 191.611L74.6267 191.663L74.7051 191.714L74.7835 191.765L74.862 191.816L74.9405 191.868L75.019 191.919L75.0975 191.968L75.1761 192.008L75.2547 192.059L75.3334 192.11L75.4121 192.161L75.4908 192.212L75.5696 192.262L75.6484 192.313L75.7271 192.363L75.806 192.412L75.8849 192.451L75.9638 192.502L76.0428 192.552L76.1218 192.602L76.2008 192.652L76.2798 192.702L76.3589 192.752L76.438 192.802L76.5172 192.851L76.5964 192.889L76.6677 192.931L76.7345 192.968L76.8013 193.005L76.8681 193.042L76.9349 193.079L77.0018 193.115L77.0687 193.152L77.1357 193.189L77.2118 193.225L77.2821 193.262L77.3492 193.298L77.4163 193.334L77.4833 193.37L77.5505 193.407L77.6177 193.443L77.6848 193.479L77.7521 193.514L77.8279 193.55L77.8991 193.586L77.9665 193.622L78.0338 193.657L78.1012 193.693L78.1686 193.728L78.2361 193.763L78.3035 193.799L78.3711 193.834L78.4465 193.869L78.5187 193.904L78.5863 193.939L78.6539 193.974L78.7216 194.009L78.7893 194.043L78.857 194.078L78.9248 194.112L78.9925 194.147L79.0677 194.181L79.1407 194.216L79.2086 194.25L79.2765 194.284L79.3445 194.318L79.4124 194.352L79.4804 194.386L79.5485 194.42L79.6165 194.453L79.6914 194.487L79.7653 194.521L79.8334 194.554L79.9016 194.588L79.9698 194.621L80.038 194.654L80.1063 194.687L80.1746 194.72L80.243 194.753L80.3174 194.786L80.3922 194.819L80.4606 194.852L80.5291 194.885L80.5976 194.917L80.6661 194.95L80.7346 194.982L80.8032 195.014L80.8718 195.047L80.9459 195.079L81.0216 195.112L81.0902 195.144L81.1589 195.176L81.2277 195.207L81.2965 195.239L81.3652 195.271L81.4341 195.302L81.503 195.334L81.5767 195.365L81.6532 195.397L81.7222 195.428L81.7912 195.46L81.8602 195.491L81.9292 195.522L81.9983 195.553L82.0674 195.584L82.1365 195.614L82.2099 195.645L82.2872 195.676L82.3565 195.707L82.4257 195.737L82.4949 195.768L82.5642 195.798L82.6335 195.828L82.7029 195.858L82.7722 195.888L82.8453 195.918L82.9235 195.949L82.993 195.979L83.0625 196.008L83.1319 196.038L83.2015 196.068L83.271 196.097L83.3406 196.126L83.4102 196.156L83.483 196.185L83.562 196.215L83.6317 196.244L83.7014 196.273L83.7712 196.302L83.841 196.331L83.9108 196.359L83.9806 196.388L84.0505 196.416L84.1228 196.445L84.2027 196.475L84.2727 196.503L84.3426 196.531L84.4126 196.559L84.4826 196.587L84.5527 196.615L84.6227 196.643L84.6928 196.671L84.7649 196.699L84.8456 196.727L84.9157 196.755L84.9859 196.782L85.0562 196.81L85.1264 196.837L85.1967 196.864L85.267 196.891L85.3373 196.919L85.409 196.946L85.4905 196.974L85.5609 197.001L85.6313 197.027L85.7018 197.054L85.7723 197.08L85.8428 197.107L85.9133 197.133L85.9839 197.16L86.0552 197.186L86.1375 197.213L86.2081 197.24L86.2788 197.265L86.3495 197.291L86.4202 197.317L86.4909 197.343L86.5617 197.368L86.6325 197.394L86.7034 197.42L86.7865 197.447L86.8574 197.472L86.9283 197.497L86.9992 197.522L87.0701 197.547L87.1411 197.572L87.2121 197.597L87.2831 197.622L87.3541 197.647L87.4371 197.673L87.5087 197.698L87.5798 197.722L87.6509 197.747L87.7221 197.771L87.7932 197.795L87.8645 197.819L87.9357 197.843L88.007 197.867L88.0895 197.893L88.1619 197.917L88.2332 197.941L88.3045 197.964L88.3759 197.988L88.4473 198.011L88.5187 198.035L88.5902 198.058L88.6616 198.081L88.7438 198.106L88.817 198.129L88.8885 198.152L88.96 198.175L89.0317 198.198L89.1032 198.221L89.1748 198.243L89.2465 198.266L89.3181 198.288L89.3999 198.312L89.4739 198.335L89.5456 198.357L89.6174 198.38L89.6892 198.402L89.761 198.424L89.8328 198.445L89.9046 198.467L89.9765 198.489L90.0578 198.512L90.1326 198.534L90.2046 198.556L90.2765 198.577L90.3485 198.599L90.4205 198.62L90.4926 198.641L90.5646 198.662L90.6367 198.683L90.7176 198.705L90.7932 198.727L90.8653 198.748L90.9374 198.768L91.0096 198.789L91.0818 198.809L91.1541 198.83L91.2263 198.85L91.2986 198.87L91.3791 198.892L91.4554 198.913L91.5278 198.933L91.6001 198.953L91.6725 198.973L91.7449 198.992L91.8173 199.012L91.8897 199.031L91.9622 199.051L92.0423 199.072L92.1194 199.092L92.1919 199.111L92.2645 199.13L92.337 199.149L92.4096 199.168L92.4822 199.187L92.5548 199.206L92.6274 199.225L92.7071 199.245L92.785 199.265L92.8577 199.283L92.9304 199.301L93.0032 199.32L93.0759 199.338L93.1487 199.356L93.2215 199.374L93.2943 199.392L93.3736 199.411L93.4523 199.43L93.5251 199.448L93.5981 199.466L93.671 199.483L93.7439 199.501L93.8169 199.518L93.8898 199.536L93.9628 199.553L94.0417 199.571L94.1211 199.59L94.1941 199.607L94.2672 199.624L94.3404 199.64L94.4134 199.657L94.4866 199.674L94.5597 199.69L94.4704 199.684L94.3761 199.678L94.2835 199.672L94.184 199.664L94.0844 199.657L93.9849 199.649L93.8854 199.641L93.7858 199.633L93.6863 199.625L93.5868 199.617L93.492 199.609L93.4 199.603L93.3006 199.594L93.2011 199.586L93.1016 199.577L93.0022 199.568L92.9027 199.559L92.8033 199.55L92.7039 199.541L92.6085 199.533L92.5172 199.526L92.4178 199.516L92.3184 199.507L92.219 199.497L92.1196 199.488L92.0203 199.478L91.9209 199.468L91.8216 199.458L91.7257 199.449L91.635 199.441L91.5357 199.431L91.4364 199.42L91.3371 199.41L91.2378 199.4L91.1385 199.389L91.0393 199.378L90.9401 199.367L90.8437 199.357L90.7536 199.349L90.6544 199.338L90.5552 199.326L90.456 199.315L90.3568 199.304L90.2576 199.292L90.1585 199.281L90.0593 199.269L89.9625 199.258L89.8731 199.249L89.7739 199.237L89.6749 199.225L89.5757 199.213L89.4766 199.201L89.3775 199.188L89.2785 199.176L89.1794 199.163L89.0821 199.151L88.9934 199.141L88.8943 199.129L88.7953 199.116L88.6963 199.103L88.5973 199.09L88.4984 199.076L88.3994 199.063L88.3005 199.05L88.2027 199.037L88.1146 199.026L88.0157 199.013L87.9168 198.999L87.8179 198.985L87.7191 198.971L87.6202 198.957L87.5214 198.943L87.4225 198.929L87.3243 198.915L87.2369 198.904L87.1381 198.889L87.0393 198.874L86.9406 198.86L86.8418 198.845L86.7431 198.83L86.6443 198.815L86.5457 198.8L86.447 198.785L86.3602 198.773L86.2616 198.758L86.163 198.742L86.0643 198.727L85.9657 198.711L85.8671 198.695L85.7685 198.68L85.67 198.664L85.5714 198.648L85.4842 198.635L85.3863 198.619L85.2878 198.603L85.1893 198.586L85.0908 198.57L84.9923 198.553L84.8939 198.537L84.7955 198.52L84.697 198.503L84.6094 198.489L84.5122 198.473L84.4138 198.456L84.3154 198.438L84.2171 198.421L84.1188 198.403L84.0205 198.386L83.9223 198.368L83.824 198.351L83.7359 198.336L83.6393 198.319L83.5412 198.301L83.443 198.283L83.3448 198.264L83.2466 198.246L83.1485 198.228L83.0503 198.209L82.9522 198.191L82.8637 198.175L82.7679 198.157L82.6698 198.138L82.5718 198.119L82.4738 198.1L82.3758 198.081L82.2778 198.062L82.1798 198.043L82.0819 198.023L81.9929 198.007L81.8979 197.988L81.8 197.968L81.7021 197.949L81.6042 197.929L81.5064 197.909L81.4086 197.889L81.3108 197.868L81.2131 197.848L81.1236 197.831L81.0293 197.811L80.9316 197.791L80.8339 197.77L80.7362 197.749L80.6385 197.728L80.5409 197.708L80.4433 197.686L80.3457 197.665L80.2559 197.647L80.1623 197.627L80.0648 197.606L79.9673 197.584L79.8698 197.562L79.7723 197.541L79.6749 197.519L79.5775 197.497L79.48 197.475L79.3898 197.456L79.297 197.435L79.1996 197.413L79.1023 197.391L79.005 197.368L78.9078 197.346L78.8105 197.323L78.7132 197.3L78.616 197.277L78.5255 197.257L78.4333 197.236L78.3362 197.213L78.2391 197.19L78.142 197.166L78.0449 197.143L77.9478 197.119L77.8508 197.096L77.7538 197.072L77.6628 197.051L77.5715 197.029L77.4745 197.005L77.3776 196.981L77.2807 196.957L77.1838 196.933L77.087 196.908L76.9901 196.884L76.8934 196.859L76.802 196.837L76.7114 196.815L76.6147 196.79L76.518 196.765L76.4213 196.74L76.3246 196.715L76.228 196.69L76.1314 196.664L76.0348 196.639L75.9431 196.616L75.8533 196.593L75.7568 196.567L75.6602 196.541L75.5638 196.515L75.4674 196.49L75.3709 196.464L75.2746 196.437L75.1782 196.411L75.0861 196.387L74.997 196.363L74.9008 196.337L74.8045 196.31L74.7082 196.284L74.6121 196.257L74.5159 196.23L74.4197 196.203L74.3236 196.176L74.2312 196.15L74.1429 196.126L74.0468 196.099L73.9508 196.072L73.8548 196.044L73.7588 196.017L73.6628 195.989L73.5669 195.961L73.471 195.933L73.3783 195.907L73.2908 195.882L73.1949 195.854L73.0992 195.826L73.0034 195.797L72.9077 195.769L72.812 195.74L72.7163 195.712L72.6206 195.683L72.5276 195.655L72.4408 195.63L72.3452 195.601L72.2497 195.572L72.1542 195.543L72.0587 195.514L71.9633 195.484L71.8678 195.455L71.7724 195.425L71.6791 195.397L71.5931 195.371L71.4978 195.341L71.4025 195.311L71.3072 195.282L71.212 195.251L71.1168 195.221L71.0217 195.191L70.9265 195.16L70.8329 195.131L70.7476 195.105L70.6526 195.074L70.5576 195.043L70.4626 195.012L70.3676 194.981L70.2727 194.95L70.1778 194.919L70.0829 194.888L69.9891 194.857L69.9045 194.831L69.8098 194.799L69.715 194.768L69.6203 194.736L69.5256 194.704L69.431 194.672L69.3364 194.64L69.2418 194.608L69.1476 194.576L69.0639 194.55L68.9694 194.517L68.8749 194.485L68.7805 194.452L68.6861 194.42L68.5917 194.387L68.4974 194.354L68.4031 194.321L68.3088 194.288L68.2256 194.261L68.1315 194.228L68.0373 194.195L67.9432 194.161L67.849 194.128L67.755 194.094L67.6609 194.061L67.5669 194.027L67.4729 193.993L67.3894 193.965L67.2961 193.931L67.2022 193.897L67.1084 193.863L67.0145 193.829L66.9208 193.794L66.827 193.76L66.7333 193.725L66.6396 193.691L66.5558 193.661L66.4634 193.627L66.3698 193.592L66.2762 193.557L66.1827 193.522L66.0892 193.487L65.9958 193.452L65.9024 193.416L65.809 193.381L65.7249 193.35L65.6333 193.316L65.5401 193.28L65.4468 193.244L65.3536 193.208L65.2604 193.172L65.1672 193.136L65.0741 193.1L64.981 193.064L64.8967 193.033L64.806 192.997L64.713 192.961L64.62 192.924L64.5272 192.888L64.4343 192.851L64.3415 192.814L64.2487 192.777L64.1559 192.74L64.0713 192.707L63.9814 192.672L63.8888 192.634L63.7961 192.597L63.7036 192.559L63.611 192.522L63.5185 192.484L63.4261 192.446L63.3336 192.409L63.2488 192.375L63.1597 192.339L63.0674 192.301L62.9751 192.262L62.8829 192.224L62.7906 192.186L62.6985 192.147L62.6063 192.109L62.5142 192.07L62.4292 192.035L62.341 191.999L62.249 191.96L62.1571 191.921L62.0651 191.882L61.9733 191.843L61.8814 191.803L61.7896 191.764L61.6979 191.724L61.6127 191.689L61.5252 191.652L61.4336 191.612L61.342 191.572L61.2504 191.532L61.1588 191.492L61.0674 191.452L60.9759 191.412L60.8845 191.372L60.7991 191.335L60.7125 191.297L60.6212 191.257L60.5299 191.216L60.4387 191.176L60.3475 191.135L60.2564 191.094L60.1652 191.053L60.0742 191.012L59.9886 190.974L59.9028 190.936L59.8119 190.895L59.721 190.853L59.6301 190.812L59.5394 190.77L59.4486 190.729L59.3578 190.687L59.2671 190.645L59.1813 190.606L59.0964 190.568L59.0058 190.526L58.9153 190.483L58.8248 190.441L58.7343 190.399L58.6439 190.356L58.5536 190.314L58.4632 190.271L58.3772 190.231L58.2932 190.192L58.203 190.149L58.1128 190.107L58.0227 190.063L57.9326 190.02L57.8425 189.977L57.7525 189.934L57.6626 189.89L57.5764 189.849L57.4933 189.81L57.4034 189.766L57.3136 189.723L57.2239 189.679L57.1341 189.635L57.0445 189.591L56.9548 189.547L56.8652 189.503L56.779 189.46L56.6967 189.421L56.6072 189.376L56.5178 189.332L56.4284 189.287L56.339 189.242L56.2498 189.198L56.1605 189.153L56.0713 189.108L55.9849 189.065L55.9034 189.025L55.8144 188.979L55.7254 188.934L55.6364 188.889L55.5474 188.843L55.4585 188.798L55.3697 188.752L55.2808 188.706L55.1944 188.662L55.1137 188.622L55.025 188.576L54.9364 188.529L54.8478 188.483L54.7592 188.437L54.6707 188.391L54.5823 188.344L54.4939 188.298L54.4072 188.252L54.3274 188.212L54.2392 188.165L54.1509 188.118L54.0627 188.071L53.9746 188.024L53.8865 187.977L53.7984 187.93L53.7105 187.883L53.6237 187.836L53.5448 187.795L53.4569 187.747L53.3691 187.7L53.2813 187.652L53.1936 187.604L53.1059 187.557L53.0182 187.509L52.9307 187.461L52.8439 187.413L52.7658 187.372L52.6783 187.323L52.5909 187.275L52.5036 187.226L52.4162 187.178L52.3289 187.129L52.2417 187.081L52.1546 187.032L52.0677 186.983L51.9905 186.941L51.9035 186.892L51.8164 186.843L51.7295 186.794L51.6426 186.745L51.5557 186.695L51.469 186.646L51.3822 186.596L51.2955 186.547L51.2187 186.504L51.1323 186.455L51.0457 186.405L50.9592 186.355L50.8728 186.305L50.7863 186.255L50.7 186.204L50.6136 186.154L50.5274 186.104L50.4505 186.06L50.365 186.01L50.2788 185.96L50.1927 185.909L50.1067 185.858L50.0207 185.807L49.9348 185.756L49.8489 185.705L49.7631 185.654L49.6861 185.61L49.6015 185.559L49.5158 185.508L49.4302 185.457L49.3446 185.405L49.2591 185.353L49.1736 185.302L49.0881 185.25L49.0027 185.198L48.9256 185.153L48.8419 185.102L48.7567 185.05L48.6715 184.998L48.5863 184.945L48.5013 184.893L48.4162 184.841L48.3312 184.788L48.2463 184.735L48.1691 184.689L48.0864 184.638L48.0016 184.585L47.9169 184.532L47.8322 184.479L47.7476 184.426L47.6629 184.373L47.5784 184.32L47.4939 184.266L47.4167 184.219L47.3348 184.167L47.2505 184.114L47.1662 184.06L47.082 184.006L46.9978 183.952L46.9137 183.899L46.8296 183.845L46.7456 183.791L46.6683 183.742L46.5874 183.69L46.5035 183.636L46.4197 183.582L46.3359 183.527L46.2522 183.473L46.1685 183.418L46.085 183.363L46.0014 183.308L45.924 183.259L45.8441 183.207L45.7607 183.152L45.6773 183.097L45.594 183.041L45.5108 182.986L45.4276 182.931L45.3445 182.875L45.2613 182.82L45.184 182.769L45.1049 182.717L45.022 182.661L44.9391 182.605L44.8564 182.549L44.7736 182.493L44.6909 182.437L44.6082 182.381L44.5256 182.325L44.4482 182.273L44.3701 182.22L44.2876 182.164L44.2052 182.107L44.1229 182.051L44.0406 181.994L43.9584 181.937L43.8762 181.881L43.7941 181.824L43.7168 181.771L43.6395 181.718L43.5575 181.661L43.4757 181.603L43.3938 181.546L43.312 181.489L43.2303 181.431L43.1486 181.374L43.067 181.316L42.9896 181.262L42.9132 181.209L42.8318 181.151L42.7504 181.093L42.669 181.035L42.5877 180.977L42.5065 180.919L42.4253 180.861L42.3442 180.802L42.2669 180.747L42.1914 180.694L42.1105 180.635L42.0295 180.577L41.9487 180.518L41.8679 180.459L41.7872 180.4L41.7065 180.341L41.6259 180.282L41.5486 180.226L41.474 180.173L41.3936 180.113L41.3132 180.054L41.2328 179.995L41.1526 179.935L41.0723 179.876L40.9922 179.816L40.9121 179.756L40.8348 179.699L40.7612 179.645L40.6813 179.585L40.6013 179.525L40.5215 179.465L40.4418 179.405L40.362 179.345L40.2824 179.284L40.2028 179.224L40.1256 179.166L40.0529 179.111L39.9734 179.051L39.8941 178.99L39.8148 178.929L39.7355 178.868L39.6563 178.808L39.5772 178.747L39.4981 178.685L39.421 178.626L39.3492 178.572L39.2703 178.51L39.1914 178.449L39.1127 178.388L39.0339 178.326L38.9552 178.265L38.8767 178.203L38.7981 178.141L38.721 178.081L38.6502 178.026L38.5718 177.964L38.4935 177.902L38.4152 177.84L38.337 177.778L38.2589 177.715L38.1808 177.653L38.1028 177.591L38.0259 177.529L37.9558 177.474L37.878 177.412L37.8002 177.349L37.7225 177.286L37.6448 177.223L37.5672 177.16L37.4897 177.097L37.4122 177.034L37.3354 176.972L37.2663 176.917L37.1889 176.853L37.1117 176.79L37.0346 176.726L36.9574 176.663L36.8804 176.599L36.8034 176.536L36.7264 176.472L36.6498 176.408L36.5815 176.353L36.5047 176.289L36.4281 176.225L36.3515 176.161L36.2749 176.097L36.1984 176.032L36.122 175.968L36.0456 175.904L35.9693 175.839L35.9014 175.783L35.8254 175.719L35.7493 175.654L35.6733 175.589L35.5972 175.525L35.5213 175.46L35.4454 175.395L35.3696 175.33L35.2938 175.264L35.226 175.208L35.1511 175.143L35.0755 175.078L34.9999 175.012L34.9245 174.947L34.8491 174.881L34.7738 174.815L34.6985 174.75L34.6233 174.684L34.5556 174.626L34.4816 174.561L34.4066 174.495L34.3316 174.429L34.2568 174.363L34.1819 174.297L34.1072 174.231L34.0325 174.164L33.9578 174.098L33.8902 174.039L33.8172 173.974L33.7427 173.907L33.6683 173.84L33.5941 173.774L33.5198 173.707L33.4456 173.64L33.3715 173.573L33.2974 173.506L33.2299 173.446L33.1579 173.381L33.084 173.313L33.0102 173.246L32.9364 173.178L32.8627 173.111L32.7891 173.043L32.7156 172.976L32.6421 172.908L32.5747 172.847L32.5037 172.782L32.4303 172.714L32.3571 172.646L32.284 172.578L32.2108 172.51L32.1378 172.441L32.0649 172.373L31.9919 172.305L31.9247 172.243L31.8546 172.177L31.7818 172.109L31.7092 172.04L31.6367 171.971L31.5641 171.903L31.4917 171.834L31.4193 171.765L31.3469 171.696L31.2799 171.633L31.2107 171.567L31.1386 171.498L31.0665 171.429L30.9945 171.36L30.9226 171.29L30.8508 171.221L30.779 171.151L30.7073 171.082L30.6404 171.018L30.5721 170.952L30.5006 170.882L30.4292 170.812L30.3578 170.742L30.2865 170.672L30.2152 170.602L30.144 170.532L30.0729 170.462L30.0061 170.397L29.9388 170.331L29.8679 170.261L29.7971 170.19L29.7262 170.12L29.6556 170.049L29.585 169.978L29.5143 169.908L29.4438 169.837L29.3773 169.771L29.3109 169.705L29.2406 169.634L29.1704 169.562L29.1002 169.491L29.0301 169.42L28.96 169.349L28.89 169.278L28.8202 169.206L28.7538 169.139L28.6884 169.073L28.6187 169.001L28.5491 168.929L28.4795 168.858L28.41 168.786L28.3406 168.714L28.2712 168.642L28.202 168.57L28.1358 168.502L28.0713 168.436L28.0023 168.363L27.9332 168.291L27.8643 168.219L27.7954 168.146L27.7266 168.074L27.6579 168.001L27.5892 167.929L27.5232 167.86L27.4598 167.793L27.3913 167.72L27.3229 167.648L27.2546 167.575L27.1864 167.502L27.1181 167.429L27.0501 167.356L26.982 167.282L26.9163 167.212L26.8538 167.146L26.7859 167.072L26.7181 166.999L26.6505 166.925L26.5829 166.852L26.5153 166.778L26.4479 166.704L26.3804 166.631L26.3149 166.559L26.2534 166.493L26.1862 166.419L26.119 166.345L26.052 166.271L25.985 166.197L25.918 166.122L25.8513 166.048L25.7844 165.974L25.7192 165.901L25.6586 165.835L25.592 165.76L25.5255 165.686L25.4591 165.611L25.3927 165.536L25.3265 165.462L25.2603 165.387L25.1941 165.312L25.1292 165.238L25.0695 165.172L25.0035 165.097L24.9378 165.021L24.872 164.946L24.8062 164.871L24.7406 164.796L24.6751 164.72L24.6095 164.645L24.5449 164.57L24.4861 164.504L24.4208 164.428L24.3557 164.352L24.2905 164.276L24.2254 164.201L24.1605 164.125L24.0956 164.049L24.0307 163.973L23.9664 163.897L23.9085 163.83L23.8439 163.754L23.7794 163.678L23.7149 163.602L23.6505 163.525L23.5862 163.449L23.5219 163.372L23.4577 163.295L23.3937 163.219L23.3367 163.152L23.2727 163.075L23.2089 162.999L23.1451 162.922L23.0813 162.845L23.0177 162.768L22.9541 162.691L22.8906 162.613L22.8272 162.536L22.7705 162.469L22.7075 162.392L22.6443 162.314L22.5811 162.237L22.5181 162.159L22.4551 162.082L22.3921 162.004L22.3294 161.927L22.2666 161.849L22.2102 161.78L22.1482 161.703L22.0857 161.625L22.0231 161.548L21.9608 161.469L21.8985 161.391L21.8362 161.313L21.7741 161.235L21.7119 161.157L21.6559 161.087L21.5949 161.01L21.533 160.932L21.4712 160.853L21.4095 160.775L21.3478 160.696L21.2863 160.617L21.2248 160.538L21.1634 160.46L21.1075 160.389L21.0476 160.312L20.9863 160.233L20.9252 160.154L20.8642 160.075L20.8032 159.996L20.7423 159.916L20.6815 159.837L20.6208 159.758L20.5653 159.686L20.5063 159.609L20.4457 159.53L20.3853 159.45L20.325 159.371L20.2646 159.291L20.2045 159.211L20.1444 159.131L20.0843 159.051L20.0291 158.979L19.9711 158.902L19.9112 158.822L19.8515 158.742L19.7919 158.662L19.7323 158.581L19.6728 158.501L19.6133 158.421L19.554 158.34L19.4991 158.267L19.442 158.19L19.3829 158.109L19.3239 158.029L19.2649 157.948L19.206 157.867L19.1472 157.787L19.0885 157.706L19.0298 157.625L18.9753 157.55L18.9192 157.473L18.8608 157.392L18.8025 157.311L18.7441 157.23L18.686 157.149L18.6279 157.067L18.5698 156.986L18.5119 156.905L18.4577 156.829L18.4025 156.752L18.3449 156.671L18.2872 156.589L18.2296 156.507L18.1722 156.426L18.1148 156.344L18.0574 156.262L18.0003 156.18L17.9464 156.104L17.8922 156.027L17.8353 155.945L17.7783 155.863L17.7214 155.78L17.6647 155.698L17.608 155.616L17.5514 155.533L17.4949 155.451L17.4414 155.374L17.3882 155.297L17.332 155.214L17.2757 155.132L17.2196 155.049L17.1636 154.966L17.1075 154.883L17.0517 154.8L16.9959 154.718L16.9427 154.639L16.8906 154.562L16.835 154.479L16.7794 154.396L16.7241 154.313L16.6688 154.23L16.6134 154.147L16.5583 154.063L16.5032 153.98L16.4505 153.9L16.3993 153.824L16.3445 153.74L16.2897 153.657L16.235 153.573L16.1804 153.489L16.1258 153.405L16.0714 153.322L16.0171 153.238L15.9647 153.157L15.9145 153.081L15.8604 152.997L15.8063 152.913L15.7524 152.829L15.6985 152.744L15.6447 152.66L15.591 152.576L15.5374 152.492L15.4855 152.41L15.4362 152.334L15.3828 152.249L15.3295 152.165L15.2763 152.08L15.2231 151.995L15.1701 151.911L15.1172 151.826L15.0642 151.741L15.0128 151.659L14.9645 151.582L14.9118 151.498L14.8593 151.412L14.8068 151.327L14.7543 151.242L14.7021 151.157L14.6498 151.072L14.5976 150.987L14.5467 150.903L14.4993 150.827L14.4474 150.742L14.3956 150.656L14.3438 150.571L14.2922 150.485L14.2406 150.399L14.1891 150.314L14.1377 150.228L14.0872 150.144L14.0407 150.068L13.9896 149.982L13.9385 149.896L13.8875 149.81L13.8366 149.724L13.7858 149.638L13.735 149.552L13.6844 149.466L13.6344 149.38L13.5888 149.304L13.5384 149.218L13.4881 149.132L13.4378 149.045L13.3877 148.959L13.3377 148.872L13.2877 148.786L13.2378 148.699L13.1883 148.613L13.1436 148.537L13.094 148.45L13.0445 148.363L12.995 148.277L12.9456 148.19L12.8963 148.103L12.8471 148.016L12.798 147.929L12.7489 147.842L12.7052 147.766L12.6564 147.679L12.6075 147.591L12.5588 147.504L12.5102 147.417L12.4616 147.329L12.4132 147.242L12.3649 147.154L12.3166 147.067L12.2733 146.99L12.2255 146.903L12.1774 146.815L12.1295 146.728L12.0817 146.64L12.0338 146.552L11.9862 146.464L11.9386 146.376L11.8911 146.288L11.8483 146.211L11.8014 146.124L11.7541 146.036L11.707 145.948L11.6599 145.859L11.6129 145.771L11.5661 145.683L11.5192 145.595L11.4725 145.506L11.4301 145.428L11.3843 145.341L11.3378 145.252L11.2914 145.164L11.2451 145.075L11.1989 144.987L11.1528 144.898L11.1067 144.809L11.0608 144.72L11.0189 144.641L10.974 144.554L10.9283 144.465L10.8827 144.376L10.8371 144.287L10.7918 144.198L10.7464 144.109L10.7011 144.02L10.656 143.931L10.6146 143.851L10.5707 143.764L10.5258 143.675L10.481 143.585L10.4362 143.496L10.3916 143.407L10.3471 143.317L10.3026 143.228L10.2582 143.138L10.2172 143.057L10.1744 142.97L10.1303 142.881L10.0863 142.791L10.0423 142.701L9.9985 142.611L9.95467 142.521L9.91103 142.431L9.86747 142.342L9.82697 142.259L9.78517 142.173L9.74186 142.083L9.69855 141.993L9.65546 141.903L9.61239 141.812L9.56937 141.722L9.52656 141.632L9.48376 141.542L9.44381 141.458L9.40301 141.372L9.36045 141.282L9.31798 141.191L9.27569 141.101L9.2334 141.01L9.19122 140.92L9.1492 140.829L9.10715 140.738L9.06777 140.654L9.02793 140.568L8.98617 140.478L8.94454 140.387L8.90302 140.296L8.86152 140.205L8.82018 140.114L8.77893 140.023L8.73769 139.932L8.6989 139.847L8.66001 139.761L8.61902 139.67L8.57826 139.579L8.53752 139.487L8.49681 139.396L8.45632 139.305L8.41585 139.213L8.37544 139.122L8.33721 139.036L8.29926 138.951L8.25912 138.859L8.21915 138.767L8.17919 138.676L8.13935 138.584L8.09965 138.492L8.05996 138.401L8.02042 138.309L7.98273 138.222L7.94572 138.137L7.90645 138.045L7.86728 137.953L7.82811 137.861L7.78912 137.769L7.75023 137.677L7.71132 137.585L7.67264 137.493L7.63553 137.405L7.59945 137.32L7.56105 137.228L7.52266 137.135L7.48433 137.043L7.44619 136.951L7.40808 136.858L7.37005 136.766L7.33217 136.673L7.2956 136.585L7.26054 136.5L7.22294 136.407L7.18533 136.315L7.14788 136.222L7.11055 136.129L7.07321 136.037L7.03606 135.944L6.99899 135.851L6.96301 135.761L6.92894 135.677L6.89214 135.584L6.85535 135.491L6.81877 135.398L6.78225 135.305L6.74572 135.212L6.70945 135.119L6.67319 135.026L6.63782 134.935L6.60473 134.851L6.56872 134.758L6.53279 134.665L6.49704 134.571L6.46132 134.478L6.42569 134.385L6.39021 134.291L6.35476 134.198L6.3201 134.106L6.28791 134.022L6.25271 133.929L6.21768 133.835L6.18274 133.742L6.14779 133.648L6.11307 133.554L6.0784 133.46L6.04374 133.367L6.00979 133.274L5.97851 133.191L5.94413 133.097L5.90998 133.003L5.87586 132.909L5.84178 132.815L5.80791 132.721L5.77406 132.627L5.74028 132.533L5.70697 132.44L5.67659 132.357L5.64311 132.262L5.60977 132.168L5.57645 132.074L5.54328 131.98L5.51022 131.885L5.47718 131.791L5.44431 131.696L5.41165 131.602L5.38215 131.52L5.34958 131.425L5.31707 131.331L5.28456 131.236L5.2523 131.141L5.22006 131.047L5.18784 130.952L5.15588 130.857L5.12391 130.763L5.09526 130.68L5.06359 130.585L5.0319 130.49L5.00028 130.396L4.96885 130.301L4.93744 130.206L4.90613 130.111L4.87498 130.016L4.84384 129.921L4.81585 129.837L4.78516 129.743L4.75428 129.648L4.72359 129.553L4.69298 129.457L4.66239 129.362L4.63201 129.267L4.60167 129.172L4.57137 129.076L4.54405 128.992L4.51433 128.898L4.48429 128.802L4.45451 128.707L4.42472 128.612L4.395 128.516L4.3655 128.421L4.336 128.325L4.30658 128.23L4.27987 128.144L4.25112 128.051L4.22202 127.955L4.19304 127.859L4.1641 127.764L4.13531 127.668L4.10662 127.572L4.07795 127.476L4.04948 127.38L4.02338 127.294L3.99556 127.201L3.96741 127.105L3.93926 127.009L3.91115 126.913L3.88328 126.817L3.85543 126.721L3.82763 126.625L3.80004 126.529L3.77457 126.442L3.74777 126.349L3.72046 126.253L3.69316 126.156L3.66597 126.06L3.63894 125.964L3.61192 125.868L3.58505 125.771L3.55831 125.675L3.53346 125.587L3.50772 125.495L3.48123 125.398L3.45477 125.302L3.42852 125.205L3.40232 125.109L3.37615 125.012L3.35022 124.916L3.3243 124.819L3.30014 124.731L3.2754 124.638L3.24975 124.542L3.22419 124.445L3.19883 124.348L3.17346 124.252L3.14823 124.155L3.12315 124.058L3.09807 123.961L3.07467 123.872L3.05086 123.78L3.02605 123.683L3.00143 123.586L2.97691 123.489L2.95239 123.392L2.92809 123.295L2.90385 123.198L2.87963 123.101L2.85699 123.011L2.83408 122.919L2.81018 122.822L2.78648 122.725L2.76278 122.628L2.73919 122.531L2.71578 122.434L2.69237 122.337L2.6691 122.239L2.64715 122.148L2.62516 122.057L2.60218 121.96L2.57934 121.862L2.5565 121.765L2.53385 121.668L2.51129 121.57L2.48873 121.473L2.46641 121.375L2.44514 121.284L2.42407 121.193L2.40205 121.095L2.38004 120.998L2.35809 120.9L2.33636 120.803L2.31465 120.705L2.29302 120.607L2.27157 120.51L2.25101 120.417L2.23094 120.327L2.20978 120.229L2.18861 120.131L2.16763 120.034L2.14675 119.936L2.12587 119.838L2.10522 119.74L2.08463 119.642L2.06477 119.549L2.0457 119.459L2.0254 119.361L2.0051 119.263L1.98506 119.165L1.96504 119.067L1.94507 118.969L1.92531 118.871L1.90559 118.773L1.88654 118.679L1.86838 118.589L1.84892 118.491L1.8296 118.393L1.81041 118.295L1.79123 118.197L1.77224 118.099L1.75334 118.001L1.73446 117.903L1.71628 117.808L1.69899 117.718L1.68037 117.62L1.66202 117.522L1.6437 117.424L1.62539 117.325L1.60735 117.227L1.58931 117.129L1.57134 117.03L1.55395 116.935L1.53754 116.846L1.51989 116.747L1.50239 116.649L1.48493 116.551L1.46761 116.452L1.45041 116.354L1.43324 116.255L1.41624 116.157L1.39961 116.06L1.38405 115.972L1.36738 115.873L1.35076 115.775L1.33414 115.676L1.3178 115.577L1.30147 115.479L1.28518 115.38L1.26913 115.281L1.25327 115.184L1.23864 115.097L1.22286 114.998L1.20711 114.899L1.19147 114.8L1.17598 114.702L1.16052 114.603L1.1452 114.504L1.13002 114.405L1.11494 114.307L1.10127 114.22L1.08635 114.121L1.07146 114.022L1.0568 113.923L1.04217 113.824L1.02759 113.725L1.01325 113.626L0.998906 113.527L0.984688 113.429L0.971917 113.342L0.957868 113.243L0.94391 113.144L0.930156 113.045L0.916399 112.946L0.902774 112.847L0.889312 112.748L0.875847 112.649L0.862556 112.55L0.850555 112.463L0.837412 112.364L0.824443 112.265L0.811537 112.165L0.798659 112.066L0.78602 111.967L0.773409 111.868L0.760846 111.769L0.748514 111.67L0.737231 111.582L0.72506 111.484L0.713021 111.384L0.700979 111.285L0.689063 111.186L0.677311 111.086L0.665565 110.987L0.653984 110.888L0.642527 110.788L0.631973 110.7L0.62082 110.602L0.609647 110.503L0.598484 110.404L0.587545 110.304L0.576668 110.205L0.565803 110.105L0.555191 110.006L0.544609 109.907L0.534834 109.817L0.524668 109.72L0.514347 109.621L0.504143 109.521L0.494114 109.422L0.484091 109.322L0.474219 109.223L0.464484 109.123L0.454758 109.024L0.44585 108.934L0.436581 108.837L0.427139 108.738L0.417911 108.638L0.408762 108.538L0.399611 108.439L0.390717 108.339L0.381862 108.24L0.373029 108.14L0.364974 108.05L0.356584 107.953L0.348083 107.854L0.339779 107.754L0.331496 107.654L0.323327 107.555L0.315317 107.455L0.307328 107.355L0.299495 107.256L0.292209 107.165L0.284687 107.069L0.277174 106.969L0.269752 106.869L0.262329 106.77L0.25515 106.67L0.248023 106.57L0.240894 106.47L0.234051 106.371L0.227548 106.279L0.220937 106.184L0.21436 106.084L0.207814 105.984L0.201353 105.884L0.195071 105.785L0.188822 105.685L0.182694 105.585L0.176707 105.485L0.170996 105.393L0.165366 105.298L0.159673 105.198L0.153984 105.098L0.148521 104.998L0.143123 104.899L0.137729 104.799L0.1326 104.699L0.127495 104.599L0.122592 104.506L0.117903 104.412L0.113092 104.312L0.108336 104.212L0.103795 104.112L0.0992781 104.012L0.0948556 103.912L0.0906115 103.813L0.0863893 103.713L0.082412 103.619L0.0785652 103.525L0.0746181 103.425L0.0708612 103.325L0.0671925 103.226L0.0635424 103.126L0.0601189 103.026L0.0567445 102.926L0.0533923 102.826L0.0503559 102.731L0.0473424 102.638L0.0442918 102.538L0.0414938 102.438L0.0387089 102.339L0.0359907 102.239L0.0334909 102.139L0.0310005 102.039L0.0286154 101.939L0.0264195 101.844L0.0242268 101.751L0.022172 101.651L0.0202429 101.551L0.0183362 101.451L0.0166111 101.351L0.0149782 101.251L0.0133652 101.151L0.0119722 101.051L0.0106125 100.956L0.00923102 100.864L0.0081704 100.764L0.00710931 100.664L0.00611233 100.564L0.00534542 100.464L0.00457829 100.364L0.00391814 100.264L0.00344484 100.164L0.00292454 100.068L0.0024559 99.9766L0.00227628 99.8766L0.00209682 99.7766L0.0020752 99.6766L0.00218941 99.5766L0.00230372 99.4766L0.00261888 99.3766L0.003027 99.2766L0.00336814 99.1798L0.00380812 99.0891L0.00449108 98.9891L0.0051993 98.8891L0.00615989 98.7891L0.00714189 98.6891L0.00816923 98.5891L0.00935185 98.4892L0.0107499 98.3892L0.012102 98.2918L0.0132687 98.2017L0.0149482 98.1018L0.0166598 98.0018L0.0184609 97.9018L0.0204295 97.8018L0.0224313 97.7019L0.024575 97.6019L0.0268358 97.5019L0.0290489 97.404L0.0311371 97.3145L0.0336779 97.2145L0.0362323 97.1146L0.0390591 97.0146L0.0418867 96.9147L0.0447889 96.8147L0.0479024 96.7148L0.0510168 96.6149L0.0542043 96.5163L0.0570902 96.4275L0.0604911 96.3275L0.0640609 96.2276L0.0677426 96.1277L0.0714299 96.0278L0.0753426 95.9278L0.0793167 95.8279L0.0833201 95.728L0.0875094 95.6289L0.0911294 95.5407L0.0954758 95.4408L0.0999891 95.3409L0.104513 95.241L0.109202 95.1411L0.114003 95.0412L0.118818 94.9414L0.123849 94.8415L0.128926 94.7418L0.13327 94.6542L0.138629 94.5544L0.144003 94.4545L0.149431 94.3547L0.155084 94.2549L0.160747 94.155L0.166518 94.0552L0.172462 93.9554L0.178411 93.8556L0.183694 93.7678L0.189866 93.6684L0.196102 93.5686L0.202558 93.4688L0.209053 93.369L0.215598 93.2693L0.222373 93.1695L0.229159 93.0697L0.236047 92.97L0.242222 92.8817L0.249205 92.7829L0.256419 92.6832L0.263766 92.5835L0.271113 92.4838L0.278674 92.3841L0.286307 92.2844L0.293942 92.1847L0.301851 92.085L0.30884 91.9961L0.31667 91.8981L0.324843 91.7984L0.333049 91.6988L0.34136 91.5991L0.349824 91.4995L0.358318 91.3998L0.366972 91.3002L0.375727 91.2006L0.383541 91.1112L0.392327 91.0139L0.401357 90.9143L0.410422 90.8147L0.419741 90.7151L0.429061 90.6155L0.438472 90.516L0.448077 90.4165L0.457682 90.3169L0.466452 90.2271L0.476048 90.1304L0.48594 90.0309L0.496013 89.9314L0.506186 89.8319L0.516363 89.7324L0.52678 89.633L0.537241 89.5335L0.547746 89.4341L0.55748 89.3437L0.567829 89.2477L0.578676 89.1482L0.589676 89.0488L0.600693 88.9494L0.611874 88.8501L0.62316 88.7507L0.634467 88.6514L0.645989 88.5521L0.656573 88.4611L0.667683 88.3658L0.679531 88.2665L0.691385 88.1673L0.703304 88.068L0.715444 87.9687L0.727584 87.8695L0.739845 87.7702L0.752274 87.671L0.763718 87.5796L0.775734 87.485L0.788423 87.3858L0.801138 87.2866L0.814071 87.1874L0.827051 87.0883L0.840076 86.9891L0.853325 86.89L0.866592 86.7909L0.878985 86.699L0.891822 86.6051L0.905353 86.5061L0.919047 86.407L0.932867 86.308L0.946687 86.2089L0.960721 86.1099L0.974827 86.0109L0.988934 85.9119L1.00236 85.8196L1.01592 85.7264L1.03035 85.6275L1.045 85.5285L1.05967 85.4296L1.07444 85.3307L1.08938 85.2319L1.10433 85.133L1.11944 85.0341L1.13376 84.9413L1.14803 84.8488L1.16347 84.75L1.17897 84.6513L1.19449 84.5525L1.21026 84.4538L1.22604 84.355L1.2419 84.2562L1.25796 84.1576L1.27317 84.0643L1.28824 83.9725L1.30458 83.8739L1.32092 83.7752L1.33744 83.6766L1.35407 83.578L1.37069 83.4794L1.38754 83.3809L1.40445 83.2823L1.42058 83.1885L1.43649 83.0976L1.45367 82.999L1.47093 82.9006L1.48837 82.8021L1.50584 82.7036L1.52344 82.6052L1.54116 82.5068L1.55891 82.4084L1.57611 82.3142L1.5927 82.2239L1.61071 82.1256L1.62897 82.0273L1.64726 81.929L1.66559 81.8307L1.68416 81.7325L1.70273 81.6342L1.7214 81.5359L1.73959 81.4414L1.75684 81.3518L1.77583 81.2537L1.79496 81.1555L1.81409 81.0574L1.83341 80.9593L1.85282 80.8611L1.87224 80.7631L1.89189 80.665L1.91101 80.57L1.92896 80.4812L1.94891 80.3832L1.96886 80.2852L1.98893 80.1873L2.00915 80.0894L2.02939 79.9915L2.04979 79.8936L2.07031 79.7957L2.09035 79.7002L2.10909 79.6123L2.12988 79.5144L2.15067 79.4166L2.17172 79.3189L2.1928 79.2211L2.21391 79.1234L2.23525 79.0257L2.25662 78.928L2.27768 78.8321L2.29711 78.7449L2.31875 78.6473L2.34052 78.5497L2.3624 78.4522L2.38432 78.3546L2.40642 78.257L2.42859 78.1595L2.45079 78.062L2.47295 77.9658L2.49302 77.8793L2.51551 77.7819L2.53823 77.6845L2.56095 77.5872L2.58378 77.4898L2.60678 77.3925L2.62978 77.2952L2.65295 77.1979L2.67608 77.1013L2.69676 77.0156L2.72022 76.9184L2.74379 76.8212L2.76734 76.724L2.79114 76.6269L2.81498 76.5298L2.83885 76.4327L2.86295 76.3356L2.88705 76.2387L2.90841 76.1537L2.93277 76.0568L2.95715 75.9598L2.98167 75.8628L3.0063 75.766L3.03097 75.6691L3.05582 75.5722L3.08075 75.4753L3.10568 75.3785L3.12803 75.2934L3.1531 75.1971L3.17832 75.1004L3.20379 75.0037L3.22927 74.907L3.25483 74.8103L3.28057 74.7137L3.30633 74.6171L3.33221 74.5204L3.35545 74.4349L3.3812 74.3395L3.4074 74.243L3.43369 74.1465L3.45998 74.0501L3.4865 73.9536L3.51307 73.8572L3.53967 73.7609L3.56649 73.6645L3.59063 73.5786L3.61711 73.484L3.64421 73.3877L3.67131 73.2915L3.69856 73.1953L3.72593 73.0991L3.75331 73.0029L3.78088 72.9068L3.80853 72.8107L3.83355 72.7244L3.86081 72.6306L3.88874 72.5346L3.91667 72.4386L3.94486 72.3427L3.97306 72.2467L4.00131 72.1508L4.02978 72.055L4.05826 71.9591L4.08428 71.8725L4.11221 71.7795L4.14096 71.6838L4.16985 71.588L4.19884 71.4924L4.22787 71.3967L4.25708 71.301L4.28636 71.2054L4.31565 71.1098L4.34271 71.0229L4.37128 70.9307L4.40086 70.8353L4.43068 70.7398L4.46049 70.6443L4.4904 70.5489L4.52048 70.4536L4.55057 70.3582L4.5808 70.2629L4.60878 70.1757L4.63797 70.0844L4.6685 69.9891L4.69913 69.8939L4.72976 69.7988L4.76059 69.7037L4.79151 69.6085L4.82242 69.5135L4.85357 69.4184L4.88249 69.3308L4.91233 69.2404L4.94375 69.1455L4.97518 69.0505L5.00672 68.9556L5.03841 68.8608L5.07011 68.766L5.10196 68.6712L5.13392 68.5765L5.16376 68.4886L5.19433 68.399L5.22655 68.3043L5.25878 68.2097L5.29126 68.1151L5.32377 68.0206L5.3563 67.926L5.38907 67.8315L5.42185 67.737L5.45269 67.6488L5.48388 67.5601L5.51692 67.4658L5.55007 67.3714L5.58336 67.2771L5.61667 67.1829L5.65013 67.0886L5.6837 66.9944L5.71728 66.9003L5.74918 66.8118L5.78095 66.7239L5.81479 66.6298L5.84887 66.5358L5.88295 66.4418L5.9171 66.3478L5.95145 66.254L5.98581 66.16L6.02027 66.0662L6.05317 65.9774L6.0855 65.8904L6.12024 65.7966L6.15514 65.7029L6.19002 65.6092L6.22509 65.5156L6.26024 65.422L6.29539 65.3284L6.33076 65.2349L6.36463 65.1458L6.3975 65.0596L6.43315 64.9663L6.46884 64.8728L6.50457 64.7794L6.54049 64.6862L6.57645 64.5928L6.61249 64.4996L6.64868 64.4064L6.68351 64.3171L6.71703 64.2318L6.75349 64.1387L6.78996 64.0455L6.82661 63.9525L6.86334 63.8595L6.90007 63.7665L6.93702 63.6736L6.97402 63.5807L7.00981 63.4911L7.04396 63.4067L7.08121 63.314L7.11851 63.2212L7.15601 63.1285L7.19354 63.0358L7.23113 62.9432L7.26891 62.8506L7.30669 62.758L7.34355 62.6682L7.37822 62.5847L7.41626 62.4923L7.45446 62.3998L7.49275 62.3075L7.53107 62.2151L7.56956 62.1228L7.60811 62.0306L7.6467 61.9383L7.68464 61.8484L7.71981 61.7657L7.75866 61.6736L7.79773 61.5815L7.83679 61.4895L7.87595 61.3975L7.91528 61.3056L7.9546 61.2137L7.99406 61.1218L8.03303 61.0316L8.06868 60.9497L8.1084 60.858L8.14826 60.7663L8.18812 60.6746L8.22814 60.583L8.26826 60.4914L8.30838 60.3998L8.34872 60.3083L8.38865 60.2179L8.42478 60.137L8.46539 60.0456L8.50601 59.9543L8.5467 59.8629L8.58757 59.7717L8.62845 59.6804L8.66944 59.5892L8.71057 59.4981L8.75153 59.4074L8.78822 59.3274L8.8296 59.2364L8.87098 59.1454L8.91254 59.0545L8.95419 58.9636L8.99585 58.8726L9.03771 58.7818L9.07961 58.6911L9.12153 58.6003L9.15882 58.5211L9.20096 58.4305L9.24315 58.3398L9.28556 58.2493L9.32798 58.1587L9.37044 58.0682L9.41311 57.9778L9.4558 57.8874L9.49857 57.797L9.53679 57.7175L9.57946 57.6278L9.62252 57.5376L9.66568 57.4474L9.70887 57.3572L9.75224 57.2671L9.79565 57.1771L9.8391 57.087L9.88273 56.9971L9.92187 56.9174L9.96503 56.8286L10.009 56.7388L10.0529 56.649L10.0969 56.5592L10.1411 56.4695L10.1852 56.3798L10.2295 56.2901L10.2739 56.2006L10.314 56.1207L10.3578 56.0329L10.4025 55.9434L10.4472 55.854L10.492 55.7646L10.5369 55.6753L10.5819 55.586L10.627 55.4967L10.6722 55.4076L10.7132 55.3275L10.7576 55.2406L10.803 55.1516L10.8485 55.0625L10.8941 54.9735L10.9398 54.8846L10.9856 54.7957L11.0315 54.7069L11.0774 54.6181L11.1194 54.5378L11.1643 54.452L11.2105 54.3633L11.2568 54.2747L11.3032 54.1861L11.3496 54.0976L11.3962 54.0091L11.4429 53.9207L11.4896 53.8323L11.5326 53.7519L11.578 53.6669L11.6249 53.5786L11.672 53.4905L11.7192 53.4023L11.7664 53.3142L11.8138 53.2261L11.8613 53.1381L11.9087 53.0501L11.9528 52.9696L11.9986 52.8855L12.0463 52.7977L12.0942 52.7099L12.1421 52.6222L12.1901 52.5345L12.2383 52.4469L12.2865 52.3592L12.3348 52.2717L12.3798 52.191L12.426 52.1079L12.4745 52.0205L12.5232 51.9332L12.5719 51.8458L12.6207 51.7586L12.6696 51.6714L12.7185 51.5842L12.7676 51.4971L12.8136 51.4163L12.8602 51.3341L12.9096 51.2472L12.959 51.1602L13.0084 51.0733L13.0581 50.9865L13.1077 50.8998L13.1574 50.813L13.2073 50.7264L13.2542 50.6454L13.3013 50.5642L13.3514 50.4776L13.4016 50.3911L13.4518 50.3047L13.5022 50.2183L13.5526 50.132L13.6031 50.0457L13.6537 49.9594L13.7016 49.8784L13.7492 49.7981L13.8001 49.712L13.8509 49.6259L13.902 49.54L13.953 49.454L14.0041 49.3681L14.0555 49.2823L14.1068 49.1965L14.1557 49.1153L14.2038 49.036L14.2553 48.9504L14.307 48.8647L14.3588 48.7792L14.4106 48.6937L14.4625 48.6083L14.5146 48.5229L14.5666 48.4375L14.6165 48.3563L14.665 48.2779L14.7173 48.1927L14.7697 48.1076L14.8222 48.0225L14.8748 47.9374L14.9275 47.8525L14.9802 47.7675L15.033 47.6826L15.084 47.6014L15.1328 47.524L15.1858 47.4392L15.2391 47.3545L15.2923 47.2699L15.3456 47.1853L15.399 47.1008L15.4525 47.0163L15.506 46.9319L15.558 46.8505L15.6072 46.774L15.661 46.6898L15.715 46.6056L15.7689 46.5214L15.8229 46.4373L15.8771 46.3533L15.9313 46.2692L15.9856 46.1853L16.0386 46.1039L16.0882 46.0284L16.1427 45.9446L16.1974 45.8609L16.252 45.7772L16.3069 45.6936L16.3617 45.61L16.4166 45.5264L16.4717 45.443L16.5257 45.3615L16.5756 45.2869L16.6309 45.2036L16.6863 45.1204L16.7416 45.0372L16.7972 44.9541L16.8528 44.8709L16.9085 44.7879L16.9643 44.7049L17.0192 44.6234L17.0695 44.5498L17.1255 44.467L17.1816 44.3842L17.2377 44.3015L17.294 44.2188L17.3503 44.1362L17.4067 44.0537L17.4632 43.9712L17.5192 43.8896L17.5698 43.817L17.6266 43.7347L17.6833 43.6523L17.7402 43.5702L17.7972 43.488L17.8542 43.4058L17.9114 43.3238L17.9686 43.2418L18.0256 43.1602L18.0766 43.0886L18.134 43.0067L18.1914 42.9249L18.2491 42.8432L18.3067 42.7615L18.3645 42.6799L18.4224 42.5984L18.4802 42.5169L18.5382 42.4354L18.5897 42.3644L18.6477 42.2832L18.7059 42.202L18.7642 42.1208L18.8226 42.0396L18.881 41.9585L18.9396 41.8774L18.9982 41.7964L19.0569 41.7155L19.1093 41.6445L19.1676 41.5642L19.2266 41.4835L19.2856 41.4028L19.3446 41.3221L19.4038 41.2416L19.4631 41.161L19.5223 41.0805L19.5818 41.0001L19.6351 40.929L19.6939 40.8498L19.7535 40.7696L19.8132 40.6894L19.873 40.6092L19.9329 40.5292L19.9928 40.4492L20.0528 40.3692L20.1129 40.2893L20.1672 40.2182L20.2263 40.14L20.2866 40.0603L20.347 39.9806L20.4075 39.901L20.4681 39.8215L20.5286 39.742L20.5894 39.6625L20.6502 39.5832L20.7054 39.512L20.7648 39.4349L20.8259 39.3557L20.8869 39.2765L20.9481 39.1974L21.0094 39.1184L21.0706 39.0394L21.132 38.9605L21.1935 38.8817L21.2497 38.8105L21.3095 38.7344L21.3712 38.6557L21.4329 38.5771L21.4948 38.4986L21.5567 38.4201L21.6187 38.3416L21.6808 38.2633L21.7429 38.185L21.8001 38.1138L21.8602 38.0387L21.9226 37.9605L21.985 37.8825L22.0476 37.8045L22.1101 37.7265L22.1728 37.6486L22.2356 37.5708L22.2984 37.493L22.3565 37.4219L22.4169 37.3478L22.48 37.2701L22.5431 37.1926L22.6063 37.1152L22.6695 37.0377L22.7329 36.9604L22.7963 36.8831L22.8597 36.8059L22.9189 36.7348L22.9796 36.6617L23.0433 36.5847L23.1071 36.5077L23.171 36.4308L23.2349 36.3539L23.2989 36.2771L23.363 36.2004L23.4271 36.1237L23.4873 36.0527L23.5482 35.9806L23.6125 35.9041L23.677 35.8277L23.7415 35.7513L23.8061 35.675L23.8708 35.5988L23.9355 35.5226L24.0004 35.4465L24.0615 35.3755L24.1226 35.3044L24.1877 35.2285L24.2528 35.1526L24.3179 35.0768L24.3832 35.001L24.4486 34.9254L24.5139 34.8497L24.5794 34.7742L24.6415 34.7032L24.7029 34.6331L24.7687 34.5578L24.8344 34.4825L24.9002 34.4072L24.9661 34.3321L25.0321 34.257L25.0981 34.1819L25.1643 34.107L25.2273 34.0361L25.289 33.967L25.3554 33.8922L25.4218 33.8175L25.4882 33.7428L25.5548 33.6682L25.6214 33.5937L25.6881 33.5192L25.7549 33.4448L25.8189 33.374L25.8808 33.3059L25.9478 33.2317L26.0148 33.1576L26.0819 33.0835L26.1492 33.0095L26.2164 32.9355L26.2838 32.8616L26.3512 32.7878L26.4162 32.717L26.4783 32.65L26.5459 32.5764L26.6136 32.5028L26.6814 32.4293L26.7492 32.3559L26.8171 32.2824L26.8851 32.2092L26.9531 32.136L27.0191 32.0653L27.0815 31.9993L27.1497 31.9262L27.218 31.8532L27.2864 31.7803L27.3549 31.7074L27.4234 31.6346L27.492 31.562L27.5607 31.4893L27.6276 31.4188L27.6902 31.3538L27.7591 31.2813L27.828 31.2089L27.897 31.1366L27.9661 31.0643L28.0352 30.9921L28.1045 30.92L28.1737 30.848L28.2417 30.7776L28.3044 30.7136L28.3739 30.6417L28.4435 30.5699L28.5132 30.4982L28.5828 30.4265L28.6526 30.3549L28.7225 30.2834L28.7923 30.2119L28.8614 30.1417L28.9242 30.0787L28.9943 30.0074L29.0645 29.9362L29.1348 29.8651L29.205 29.794L29.2754 29.7231L29.3459 29.6521L29.4164 29.5812L29.4864 29.5112L29.5494 29.4492L29.6201 29.3784L29.691 29.3079L29.7618 29.2374L29.8327 29.1669L29.9037 29.0966L29.9748 29.0262L30.0459 28.956L30.1169 28.8861L30.1801 28.825L30.2513 28.755L30.3228 28.685L30.3942 28.6151L30.4657 28.5453L30.5374 28.4756L30.609 28.4058L30.6808 28.3362L30.7526 28.2667L30.8162 28.2062L30.888 28.137L30.96 28.0676L31.032 27.9983L31.1042 27.9291L31.1764 27.86L31.2486 27.7909L31.3209 27.7219L31.3934 27.653L31.4579 27.5926L31.5298 27.5245L31.6025 27.4557L31.6751 27.387L31.7478 27.3185L31.8206 27.25L31.8934 27.1815L31.9664 27.1132L32.0394 27.0448L32.1049 26.9846L32.177 26.9175L32.2501 26.8494L32.3233 26.7814L32.3967 26.7135L32.4701 26.6455L32.5435 26.5777L32.6171 26.51L32.6906 26.4423L32.757 26.3822L32.8293 26.3162L32.9031 26.2487L32.9769 26.1813L33.0508 26.114L33.1248 26.0467L33.1988 25.9795L33.2729 25.9125L33.347 25.8454L33.4144 25.7854L33.4868 25.7205L33.5611 25.6536L33.6355 25.5869L33.71 25.5202L33.7845 25.4536L33.8591 25.3871L33.9338 25.3206L34.0085 25.2542L34.0769 25.1944L34.1494 25.1305L34.2243 25.0643L34.2993 24.9982L34.3744 24.9322L34.4494 24.8661L34.5246 24.8003L34.5998 24.7345L34.6751 24.6687L34.7444 24.6091L34.8171 24.5463L34.8925 24.4807L34.9681 24.4152L35.0437 24.3498L35.1193 24.2845L35.1951 24.2193L35.2709 24.1541L35.3467 24.089L35.417 24.0296L35.4897 23.9678L35.5657 23.9029L35.6419 23.8381L35.718 23.7733L35.7942 23.7087L35.8705 23.6441L35.9469 23.5795L36.0233 23.5151L36.0945 23.4559L36.1673 23.3951L36.2439 23.3309L36.3206 23.2668L36.3972 23.2027L36.4741 23.1387L36.5509 23.0748L36.6278 23.0109L36.7048 22.9471L36.7769 22.8881L36.8498 22.8283L36.927 22.7648L37.0042 22.7013L37.0814 22.6378L37.1588 22.5746L37.2362 22.5113L37.3136 22.448L37.3911 22.385L37.4642 22.3262L37.5372 22.2675L37.6149 22.2046L37.6927 22.1418L37.7704 22.079L37.8484 22.0163L37.9263 21.9537L38.0043 21.8912L38.0823 21.8288L38.1563 21.7702L38.2294 21.7126L38.3077 21.6503L38.3859 21.5882L38.4643 21.5261L38.5427 21.4641L38.6211 21.4022L38.6997 21.3403L38.7783 21.2786L38.8532 21.2202L38.9263 21.1636L39.0051 21.1021L39.0839 21.0406L39.1628 20.9792L39.2418 20.9179L39.3207 20.8566L39.3997 20.7955L39.4789 20.7345L39.5547 20.6763L39.6279 20.6208L39.7072 20.56L39.7865 20.4991L39.8659 20.4385L39.9454 20.3778L40.0249 20.3172L40.1045 20.2568L40.1841 20.1964L40.2609 20.1385L40.3342 20.084L40.414 20.0238L40.4938 19.9637L40.5738 19.9037L40.6538 19.8437L40.7338 19.7838L40.8139 19.7241L40.8941 19.6644L40.9719 19.6068L41.0451 19.5533L41.1254 19.4938L41.2059 19.4343L41.2863 19.3751L41.3668 19.3158L41.4474 19.2566L41.528 19.1975L41.6086 19.1384L41.6874 19.0812L41.7606 19.0288L41.8414 18.9699L41.9224 18.9112L42.0033 18.8526L42.0843 18.794L42.1654 18.7355L42.2465 18.6771L42.3276 18.6187L42.4074 18.5618L42.4806 18.5104L42.5619 18.4522L42.6433 18.3943L42.7247 18.3364L42.8063 18.2784L42.8878 18.2207L42.9694 18.163L43.0511 18.1053L43.1318 18.0487L43.205 17.9983L43.2868 17.9408L43.3687 17.8836L43.4507 17.8263L43.5327 17.7691L43.6147 17.7121L43.6969 17.6551L43.779 17.5982L43.8606 17.5419L43.9338 17.4924L44.0161 17.4357L44.0985 17.3792L44.181 17.3226L44.2634 17.2662L44.346 17.2098L44.4286 17.1535L44.5112 17.0973L44.5938 17.0413L44.6669 16.9929L44.7497 16.937L44.8326 16.8811L44.9155 16.8252L44.9985 16.7696L45.0815 16.7139L45.1646 16.6583L45.2477 16.6029L45.3309 16.5474L45.4046 16.4995L45.4877 16.4445L45.571 16.3894L45.6543 16.3342L45.7378 16.2793L45.8213 16.2244L45.9048 16.1695L45.9885 16.1147L46.0721 16.0601L46.1467 16.0124L46.2297 15.9586L46.3135 15.9041L46.3973 15.8497L46.4813 15.7955L46.5652 15.7413L46.6492 15.6871L46.7334 15.6331L46.8175 15.5791L46.893 15.5318L46.976 15.479L47.0602 15.4253L47.1446 15.3716L47.229 15.3181L47.3134 15.2646L47.3979 15.2112L47.4824 15.1579L47.567 15.1046L47.6434 15.0576L47.7264 15.0059L47.811 14.9529L47.8959 14.9L47.9807 14.8472L48.0656 14.7944L48.1505 14.7418L48.2355 14.6892L48.3206 14.6366L48.3979 14.59L48.4808 14.5393L48.566 14.487L48.6513 14.4348L48.7365 14.3828L48.8219 14.3307L48.9073 14.2788L48.9927 14.227L49.0782 14.1751L49.1564 14.1289L49.2393 14.0792L49.3249 14.0277L49.4106 13.9763L49.4964 13.9249L49.5821 13.8736L49.668 13.8225L49.7539 13.7714L49.8398 13.7203L49.9189 13.6744L50.0016 13.6258L50.0877 13.575L50.1739 13.5244L50.2601 13.4737L50.3463 13.4232L50.4326 13.3728L50.519 13.3224L50.6053 13.2721L50.6853 13.2264L50.768 13.1789L50.8545 13.1289L50.9411 13.079L51.0276 13.0291L51.1143 12.9794L51.2011 12.9297L51.2878 12.88L51.3746 12.8306L51.4555 12.7852L51.5381 12.7388L51.625 12.6895L51.7121 12.6403L51.799 12.5912L51.8862 12.5422L51.9733 12.4933L52.0605 12.4444L52.1478 12.3956L52.2295 12.3507L52.312 12.3053L52.3994 12.2568L52.4868 12.2084L52.5742 12.16L52.6618 12.1118L52.7493 12.0636L52.8369 12.0155L52.9246 11.9675L53.0073 11.9229L53.0897 11.8785L53.1774 11.8309L53.2652 11.7832L53.3532 11.7355L53.4411 11.6881L53.529 11.6406L53.6171 11.5933L53.7052 11.5461L53.7887 11.5019L53.871 11.4586L53.9592 11.4116L54.0474 11.3647L54.1357 11.3178L54.2241 11.2711L54.3125 11.2244L54.4009 11.1779L54.4894 11.1314L54.5738 11.0876L54.6559 11.0454L54.7445 10.9992L54.8332 10.953L54.9219 10.907L55.0106 10.861L55.0994 10.8151L55.1883 10.7693L55.2771 10.7236L55.3624 10.6802L55.4444 10.6391L55.5334 10.5936L55.6224 10.5482L55.7115 10.503L55.8007 10.4577L55.8898 10.4126L55.9791 10.3676L56.0684 10.3226L56.1545 10.2797L56.2363 10.2396L56.3257 10.1949L56.4151 10.1503L56.5046 10.1058L56.5942 10.0613L56.6837 10.017L56.7733 9.9728L56.863 9.92859L56.9501 9.88608L57.0318 9.84701L57.1215 9.80307L57.2113 9.75926L57.3012 9.71554L57.3911 9.67185L57.481 9.62831L57.5711 9.58486L57.6611 9.54144L57.7491 9.49941L57.8305 9.46134L57.9207 9.41817L58.0109 9.37516L58.1012 9.3322L58.1914 9.28929L58.2818 9.24654L58.3721 9.20386L58.4625 9.16121L58.5514 9.11967L58.6327 9.08262L58.7231 9.0402L58.8138 8.99801L58.9044 8.95585L58.9949 8.9137L59.0857 8.87178L59.1764 8.82989L59.2671 8.78802L59.3569 8.74698L59.4379 8.71093L59.5288 8.66933L59.6197 8.62791L59.7107 8.58654L59.8017 8.5452L59.8927 8.50406L59.9838 8.46293L60.0749 8.42188L60.1655 8.38132L60.2464 8.34625L60.3377 8.30546L60.429 8.26482L60.5202 8.22421L60.6116 8.1837L60.703 8.14333L60.7944 8.10299L60.886 8.06275L60.9775 8.02265L61.0581 7.98855L61.1497 7.94862L61.2413 7.90877L61.333 7.8689L61.4247 7.82925L61.5165 7.78966L61.6083 7.75005L61.7001 7.71069L61.7919 7.67136L61.8733 7.6377L61.9648 7.59887L62.0567 7.5598L62.1487 7.52072L62.2408 7.48189L62.3329 7.44307L62.425 7.4043L62.5171 7.36576L62.6094 7.3272L62.6916 7.294L62.7828 7.25623L62.8752 7.21792L62.9675 7.1797L63.0599 7.14166L63.1523 7.10362L63.2447 7.06568L63.3373 7.02789L63.4298 6.99012L63.5128 6.95741L63.6039 6.92071L63.6965 6.88319L63.7891 6.84581L63.8819 6.80855L63.9746 6.7713L64.0674 6.73421L64.1602 6.69722L64.253 6.66025L64.3369 6.62803L64.4277 6.59236L64.5206 6.55565L64.6136 6.5191L64.7067 6.48263L64.7998 6.44617L64.8929 6.40991L64.986 6.37371L65.0792 6.33752L65.1639 6.30578L65.2545 6.27118L65.3477 6.23526L65.441 6.19954L65.5344 6.16388L65.6277 6.12822L65.7212 6.09278L65.8146 6.05739L65.9081 6.02201L65.9937 5.99077L66.084 5.95719L66.1775 5.92209L66.2712 5.8872L66.3648 5.85232L66.4585 5.81751L66.5522 5.78289L66.6459 5.7483L66.7397 5.71376L66.826 5.68302L66.9161 5.65048L67.01 5.61621L67.1039 5.58213L67.1978 5.54805L67.2918 5.51407L67.3859 5.48026L67.4799 5.44645L67.574 5.41276L67.6611 5.38251L67.751 5.35097L67.8451 5.31757L67.9393 5.28429L68.0336 5.251L68.1279 5.21788L68.2222 5.18487L68.3166 5.15184L68.4109 5.11902L68.4988 5.08925L68.5884 5.05874L68.6829 5.0262L68.7773 4.99371L68.8719 4.96123L68.9664 4.92898L69.061 4.89675L69.1557 4.86455L69.2503 4.83258L69.3391 4.80332L69.4283 4.77383L69.5231 4.74215L69.6178 4.71046L69.7126 4.67881L69.8074 4.6474L69.9023 4.61598L69.9972 4.58463L70.0921 4.55349L70.1817 4.52473L70.2707 4.49629L70.3657 4.46542L70.4607 4.43453L70.5558 4.40375L70.6509 4.37313L70.746 4.34254L70.8412 4.31204L70.9364 4.28171L71.0267 4.25349L71.1153 4.22612L71.2107 4.19601L71.306 4.16596L71.4013 4.13604L71.4967 4.10622L71.5921 4.07644L71.6875 4.04682L71.783 4.01728L71.8741 3.9896L71.9624 3.96327L72.058 3.93399L72.1535 3.90474L72.2492 3.87568L72.3448 3.84669L72.4404 3.81772L72.5361 3.78895L72.6318 3.76023L72.7237 3.73311L72.8117 3.70781L72.9075 3.67936L73.0033 3.65093L73.0992 3.62273L73.195 3.59456L73.2909 3.5664L73.3868 3.5385L73.4827 3.51061L73.5755 3.48405L73.6631 3.45976L73.7591 3.43215L73.8552 3.40456L73.9513 3.37718L74.0474 3.34984L74.1435 3.32255L74.2397 3.29545L74.3359 3.26838L74.4294 3.24245L74.5167 3.21914L74.6129 3.19232L74.7093 3.16561L74.8055 3.13907L74.9019 3.11252L74.9983 3.08611L75.0946 3.05984L75.1911 3.03358L75.2853 3.00829L75.3722 2.98595L75.4688 2.95994L75.5653 2.93411L75.6618 2.90838L75.7584 2.88264L75.855 2.85711L75.9516 2.83166L76.0483 2.8062L76.1433 2.78157L76.2299 2.76016L76.3266 2.73499L76.4234 2.71002L76.5202 2.68511L76.6169 2.66022L76.7137 2.63554L76.8106 2.61091L76.9074 2.5863L77.0033 2.5623L77.0895 2.54184L77.1864 2.5175L77.2834 2.49341L77.3804 2.46932L77.4773 2.44527L77.5744 2.42144L77.6714 2.39764L77.7685 2.3739L77.8651 2.35052L77.9509 2.33101L78.048 2.30754L78.1452 2.28427L78.2424 2.26101L78.3395 2.23784L78.4368 2.21485L78.534 2.19187L78.6313 2.16899L78.7286 2.14627L78.8142 2.12764L78.9114 2.10506L79.0088 2.08262L79.1062 2.0602L79.2036 2.03788L79.301 2.01573L79.3984 1.99359L79.4959 1.97156L79.5934 1.94969L79.6797 1.9316L79.7766 1.91008L79.8741 1.88848L79.9716 1.86689L80.0693 1.84544L80.1669 1.82411L80.2645 1.8028L80.3621 1.78166L80.4598 1.76061L80.5469 1.74306L80.6433 1.72262L80.7411 1.70183L80.8388 1.68107L80.9366 1.66052L81.0343 1.64001L81.1322 1.61953L81.23 1.59927L81.3278 1.57904L81.4156 1.56205L81.5117 1.54267L81.6096 1.52272L81.7075 1.50276L81.8055 1.4831L81.9035 1.46342L82.0014 1.44378L82.0994 1.42439L82.1975 1.40499L82.2859 1.38862L82.3816 1.37023L82.4797 1.35112L82.5777 1.33205L82.6758 1.31321L82.774 1.29438L82.8721 1.27561L82.9702 1.25706L83.0684 1.23851L83.1576 1.22275L83.2528 1.20534L83.3511 1.18707L83.4493 1.16889L83.5476 1.15086L83.6459 1.13287L83.7442 1.11498L83.8426 1.09723L83.9409 1.07952L84.0308 1.06441L84.1256 1.04798L84.224 1.03052L84.3224 1.01323L84.4208 0.996044L84.5192 0.978879L84.6177 0.961873L84.7162 0.944972L84.8146 0.928093L84.9052 0.913614L84.9996 0.898175L85.0981 0.881559L85.1967 0.865115L85.2953 0.848782L85.3938 0.832454L85.4925 0.816308L85.5911 0.80026L85.6896 0.784214L85.781 0.770384L85.8749 0.755904L85.9735 0.740141L86.0723 0.724564L86.1709 0.709071L86.2697 0.69358L86.3684 0.678309L86.4671 0.663103L86.5659 0.647893L86.6579 0.634723L86.7513 0.621186L86.8502 0.606258L86.9489 0.591574L87.0477 0.576909L87.1466 0.562264L87.2454 0.54787L87.3443 0.533489L87.4432 0.519134L87.5359 0.506621L87.6289 0.494033L87.7278 0.479955L87.8268 0.466126L87.9258 0.452292L88.0247 0.438512L88.1237 0.424968L88.2227 0.411418L88.3217 0.397932L88.415 0.386056L88.5076 0.37439L88.5062 0.382522L88.4348 0.405588L88.3634 0.428681L88.2921 0.451976L88.2208 0.475332L88.1495 0.498745L88.0783 0.522359L88.002 0.547235L87.9237 0.572695L87.8526 0.596594L87.7814 0.620518L87.7104 0.644607L87.6393 0.668788L87.5683 0.692991L87.4973 0.717435L87.4264 0.741895L87.3509 0.767468L87.2724 0.793976L87.2016 0.81872L87.1307 0.843582L87.0599 0.86859L86.9891 0.893642L86.9184 0.918825L86.8477 0.944111L86.777 0.969433L86.7025 0.995829L86.6236 1.02324L86.553 1.04885L86.4825 1.07468L86.412 1.1005L86.3415 1.12646L86.2711 1.15257L86.2007 1.17867L86.1302 1.20496L86.0566 1.23206L85.9774 1.26037L85.9071 1.28694L85.8369 1.3136L85.7666 1.34027L85.6965 1.36715L85.6263 1.39409L85.5562 1.42109L85.4861 1.44826L85.4134 1.47604L85.3338 1.50532L85.2639 1.53276L85.1939 1.56023L85.124 1.58786L85.0541 1.61558L84.9842 1.64334L84.9144 1.67128L84.8447 1.69927L84.7727 1.72773L84.6929 1.75798L84.6232 1.78625L84.5535 1.81458L84.484 1.8431L84.4144 1.87164L84.3448 1.90028L84.2754 1.92907L84.2059 1.95788L84.1348 1.98714L84.0548 2.01822L83.9854 2.04729L83.916 2.07656L83.8468 2.10588L83.7774 2.13525L83.7082 2.16482L83.6391 2.19439L83.5699 2.22405L83.4998 2.25409L83.4194 2.286L83.3503 2.31595L83.2813 2.34607L83.2123 2.3762L83.1433 2.40646L83.0744 2.43687L83.0056 2.46724L82.9367 2.49782L82.8676 2.52854L82.7868 2.56131L82.718 2.59217L82.6494 2.62308L82.5806 2.65404L82.5121 2.6852L82.4435 2.71638L82.3749 2.74765L82.3064 2.77908L82.2379 2.81054L82.1573 2.84411L82.0887 2.87584L82.0203 2.90753L81.952 2.93942L81.8837 2.97138L81.8154 3.00337L81.7472 3.03555L81.679 3.06778L81.6107 3.10004L81.5311 3.13433L81.4623 3.16695L81.3941 3.19949L81.3256 3.23239Z" fill="white"/>
</svg>
