<svg width="200" height="200" viewBox="0 0 200 200" fill="none" xmlns="http://www.w3.org/2000/svg">
<path d="M110.467 198.502L110.393 198.505L110.306 198.512L110.208 198.522L110.109 198.532L110.011 198.542L109.919 198.55L109.85 198.552L109.751 198.561L109.653 198.571L109.554 198.581L109.456 198.59L109.381 198.593L109.295 198.599L109.196 198.608L109.097 198.617L108.999 198.626L108.906 198.634L108.838 198.634L108.739 198.643L108.64 198.652L108.542 198.66L108.443 198.669L108.369 198.67L108.282 198.676L108.183 198.684L108.085 198.692L107.986 198.7L107.893 198.706L107.825 198.706L107.726 198.714L107.628 198.722L107.529 198.729L107.43 198.737L107.355 198.738L107.269 198.742L107.17 198.749L107.071 198.756L106.973 198.763L106.88 198.769L106.812 198.768L106.713 198.774L106.614 198.781L106.515 198.788L106.416 198.794L106.341 198.795L106.255 198.798L106.156 198.804L106.058 198.81L105.959 198.816L105.865 198.821L105.798 198.819L105.699 198.825L105.6 198.83L105.501 198.836L105.402 198.841L105.327 198.841L105.241 198.843L105.142 198.848L105.043 198.854L104.945 198.859L104.851 198.862L104.783 198.86L104.685 198.864L104.586 198.869L104.487 198.874L104.388 198.878L104.312 198.877L104.227 198.878L104.128 198.882L104.029 198.887L103.93 198.891L103.836 198.893L103.769 198.89L103.67 198.894L103.571 198.897L103.472 198.901L103.373 198.904L103.298 198.903L103.212 198.903L103.113 198.906L103.015 198.909L102.916 198.912L102.821 198.914L102.754 198.91L102.656 198.913L102.557 198.915L102.458 198.918L102.359 198.92L102.283 198.918L102.198 198.917L102.099 198.919L102 198.921L101.901 198.923L101.806 198.924L101.74 198.919L101.641 198.921L101.542 198.922L101.443 198.924L101.344 198.925L101.268 198.922L101.183 198.921L101.084 198.922L100.985 198.923L100.886 198.924H100.792L100.725 198.918L100.626 198.919L100.528 198.919L100.429 198.92L100.33 198.92L100.253 198.916L100.169 198.914L100.07 198.914L99.9709 198.914L99.872 198.914L99.7771 198.913L99.7111 198.906L99.6122 198.906L99.5133 198.906L99.4144 198.905L99.3155 198.905L99.2389 198.9L99.1546 198.896L99.0557 198.896L98.9568 198.894L98.8579 198.893L98.7628 198.892L98.697 198.884L98.5982 198.883L98.4992 198.882L98.4004 198.88L98.3015 198.878L98.2247 198.873L98.1407 198.868L98.0418 198.867L97.943 198.865L97.8441 198.863L97.7488 198.86L97.6833 198.852L97.5845 198.849L97.4856 198.847L97.3868 198.844L97.288 198.842L97.2111 198.835L97.1273 198.83L97.0285 198.827L96.9296 198.824L96.8308 198.821L96.7353 198.817L96.6703 198.809L96.5715 198.805L96.4727 198.802L96.3739 198.798L96.2751 198.795L96.198 198.788L96.1146 198.781L96.0158 198.777L95.917 198.773L95.8183 198.769L95.7226 198.765L95.6578 198.755L95.5591 198.751L95.4604 198.746L95.3616 198.742L95.2629 198.737L95.1856 198.729L95.1026 198.722L95.0038 198.717L94.9052 198.712L94.8065 198.707L94.7105 198.701L94.6462 198.691L94.5475 198.686L94.4488 198.68L94.3502 198.675L94.2515 198.669L94.1741 198.66L94.0913 198.652L93.9927 198.646L93.8941 198.64L93.7955 198.634L93.6994 198.628L93.6354 198.617L93.5368 198.61L93.4382 198.604L93.3396 198.597L93.241 198.59L93.1635 198.581L93.0811 198.572L92.9825 198.565L92.8839 198.558L92.7854 198.551L92.6892 198.543L92.6255 198.532L92.527 198.524L92.4285 198.517L92.33 198.509L92.2315 198.501L92.1539 198.491L92.0718 198.481L91.9733 198.473L91.8748 198.465L91.7764 198.457L91.68 198.448L91.6167 198.436L91.5183 198.428L91.4199 198.419L91.3215 198.411L91.2231 198.402L91.1453 198.391L91.0636 198.38L90.9652 198.371L90.8669 198.362L90.7685 198.353L90.6721 198.343L90.6091 198.33L90.5108 198.321L90.4125 198.311L90.3142 198.302L90.2159 198.292L90.1381 198.28L90.0567 198.268L89.9584 198.258L89.8602 198.248L89.762 198.238L89.6654 198.228L89.6029 198.214L89.5047 198.203L89.4065 198.193L89.3083 198.182L89.2101 198.171L89.1321 198.159L89.0512 198.146L88.9531 198.135L88.855 198.124L88.7568 198.113L88.6601 198.102L88.598 198.087L88.5 198.075L88.4019 198.064L88.3039 198.052L88.2058 198.041L88.1277 198.027L88.0471 198.014L87.9491 198.002L87.8512 197.99L87.7532 197.977L87.6563 197.965L87.5947 197.95L87.4967 197.937L87.3988 197.925L87.3009 197.912L87.203 197.899L87.1249 197.885L87.0447 197.871L86.9468 197.858L86.849 197.845L86.7512 197.831L86.6543 197.818L86.593 197.802L86.4952 197.789L86.3975 197.775L86.2997 197.761L86.202 197.748L86.1238 197.733L86.044 197.717L85.9463 197.703L85.8486 197.689L85.751 197.675L85.654 197.661L85.5931 197.644L85.4955 197.63L85.3979 197.615L85.3003 197.6L85.2028 197.586L85.1245 197.57L85.0451 197.554L84.9476 197.539L84.8501 197.524L84.7526 197.509L84.6554 197.493L84.595 197.476L84.4976 197.46L84.4002 197.445L84.3027 197.429L84.2053 197.413L84.127 197.397L84.048 197.38L83.9506 197.364L83.8533 197.348L83.756 197.332L83.6589 197.315L83.5989 197.297L83.5016 197.281L83.4044 197.264L83.3071 197.248L83.2099 197.231L83.1315 197.213L83.053 197.196L82.9558 197.179L82.8587 197.161L82.7616 197.144L82.6645 197.127L82.6048 197.108L82.5078 197.091L82.4108 197.073L82.3137 197.056L82.2167 197.038L82.1382 197.02L82.0602 197.001L81.9632 196.983L81.8662 196.965L81.7693 196.947L81.6724 196.928L81.6126 196.909L81.5161 196.891L81.4193 196.872L81.3224 196.854L81.2256 196.835L81.1471 196.816L81.0695 196.796L80.9728 196.777L80.876 196.758L80.7793 196.739L80.6826 196.72L80.6228 196.7L80.5267 196.68L80.4301 196.661L80.3334 196.641L80.2368 196.621L80.1583 196.601L80.0812 196.581L79.9846 196.561L79.8881 196.541L79.7916 196.521L79.6952 196.501L79.6354 196.48L79.5397 196.46L79.4433 196.439L79.3469 196.419L79.2505 196.398L79.172 196.377L79.0954 196.356L78.9991 196.335L78.9027 196.314L78.8064 196.293L78.7102 196.272L78.6506 196.25L78.5692 196.215L78.5106 196.156L78.4519 196.097L78.3932 196.038L78.3346 195.986L78.276 195.957L78.2174 195.898L78.1589 195.839L78.1003 195.779L78.0418 195.72L77.9833 195.686L77.9248 195.638L77.8663 195.579L77.8079 195.519L77.7495 195.459L77.6911 195.407L77.6328 195.377L77.5744 195.317L77.5161 195.257L77.4578 195.197L77.3996 195.137L77.3413 195.103L77.2831 195.054L77.2249 194.994L77.1667 194.934L77.1085 194.874L77.0504 194.82L76.9923 194.79L76.9342 194.73L76.8761 194.669L76.8181 194.608L76.76 194.548L76.702 194.512L76.6441 194.463L76.5862 194.403L76.5282 194.342L76.4703 194.281L76.4124 194.226L76.3546 194.196L76.2968 194.135L76.239 194.074L76.1812 194.012L76.1234 193.951L76.0657 193.915L76.008 193.866L75.9503 193.804L75.8926 193.742L75.835 193.681L75.7774 193.625L75.7198 193.595L75.6622 193.533L75.6047 193.471L75.5472 193.409L75.4897 193.347L75.4323 193.31L75.3748 193.261L75.3174 193.198L75.26 193.136L75.2026 193.074L75.1453 193.018L75.088 192.987L75.0306 192.924L74.9734 192.862L74.9162 192.799L74.859 192.736L74.8018 192.699L74.7447 192.649L74.6875 192.586L74.6304 192.523L74.5733 192.46L74.5162 192.403L74.4592 192.371L74.4022 192.308L74.3453 192.245L74.2883 192.182L74.2313 192.119L74.1744 192.08L74.1176 192.03L74.0607 191.966L74.0039 191.903L73.9471 191.839L73.8903 191.781L73.8336 191.749L73.7768 191.686L73.7201 191.622L73.6635 191.558L73.6068 191.494L73.5501 191.455L73.4936 191.404L73.437 191.34L73.3805 191.276L73.324 191.211L73.2675 191.153L73.211 191.12L73.1546 191.056L73.0982 190.992L73.0418 190.927L72.9855 190.863L72.9291 190.822L72.8728 190.771L72.8166 190.706L72.7603 190.642L72.7041 190.577L72.6479 190.517L72.5917 190.485L72.5357 190.42L72.4795 190.355L72.4234 190.289L72.3674 190.224L72.3114 190.183L72.2554 190.131L72.1995 190.066L72.1435 190.001L72.0876 189.935L72.0317 189.875L71.9759 189.842L71.92 189.776L71.8643 189.711L71.8085 189.645L71.7527 189.579L71.697 189.537L71.6413 189.485L71.5857 189.419L71.5301 189.353L71.4745 189.287L71.4189 189.226L71.3633 189.192L71.3078 189.126L71.2524 189.06L71.1969 188.994L71.1415 188.927L71.0861 188.884L71.0307 188.832L70.9754 188.765L70.9201 188.699L70.8648 188.632L70.8096 188.57L70.7544 188.536L70.6992 188.469L70.644 188.403L70.5889 188.336L70.5338 188.269L70.4787 188.225L70.4237 188.172L70.3686 188.105L70.3136 188.038L70.2587 187.97L70.2038 187.907L70.1489 187.873L70.094 187.806L70.0392 187.738L69.9844 187.671L69.9296 187.603L69.8748 187.559L69.8202 187.505L69.7655 187.438L69.7108 187.37L69.6562 187.302L69.6016 187.238L69.547 187.204L69.4925 187.136L69.438 187.068L69.3836 187L69.3291 186.931L69.2747 186.886L69.2203 186.832L69.166 186.764L69.1116 186.696L69.0574 186.627L69.0031 186.562L68.9489 186.528L68.8947 186.459L68.8406 186.39L68.7864 186.322L68.7324 186.253L68.6783 186.206L68.6242 186.153L68.5702 186.084L68.5163 186.015L68.4623 185.946L68.4084 185.88L68.3545 185.845L68.3007 185.776L68.2469 185.706L68.1931 185.637L68.1393 185.568L68.0856 185.52L68.0319 185.466L67.9783 185.397L67.9247 185.327L67.8711 185.258L67.8175 185.191L67.764 185.156L67.7105 185.086L67.6571 185.016L67.6036 184.946L67.5502 184.876L67.4968 184.828L67.4435 184.774L67.3902 184.703L67.337 184.633L67.2837 184.563L67.2305 184.496L67.1773 184.46L67.1242 184.39L67.0711 184.319L67.0181 184.249L66.965 184.178L66.912 184.129L66.8591 184.074L66.8061 184.004L66.7532 183.933L66.7003 183.862L66.6475 183.794L66.5947 183.758L66.542 183.687L66.4892 183.616L66.4365 183.545L66.3838 183.474L66.3311 183.424L66.2785 183.369L66.226 183.297L66.1734 183.226L66.1209 183.155L66.0685 183.086L66.016 183.049L65.9637 182.978L65.9113 182.906L65.859 182.835L65.8067 182.763L65.7544 182.712L65.7022 182.657L65.65 182.585L65.5979 182.513L65.5457 182.441L65.4937 182.371L65.4416 182.334L65.3895 182.262L65.3376 182.19L65.2856 182.118L65.2337 182.046L65.1819 181.994L65.13 181.938L65.0782 181.866L65.0264 181.794L64.9746 181.721L64.923 181.65L64.8713 181.613L64.8196 181.541L64.768 181.468L64.7164 181.395L64.6649 181.322L64.6134 181.27L64.562 181.214L64.5105 181.141L64.4591 181.068L64.4077 180.995L64.3564 180.923L64.3051 180.886L64.2539 180.813L64.2027 180.739L64.1515 180.666L64.1003 180.593L64.0492 180.539L63.9982 180.483L63.9471 180.41L63.8961 180.336L63.8452 180.262L63.7942 180.19L63.7434 180.152L63.6925 180.078L63.6417 180.005L63.5909 179.931L63.5402 179.857L63.4894 179.803L63.4388 179.746L63.3882 179.672L63.3376 179.598L63.287 179.524L63.2365 179.451L63.186 179.413L63.1355 179.338L63.0851 179.264L63.0347 179.189L62.9844 179.115L62.9341 179.06L62.8838 179.003L62.8336 178.928L62.7834 178.854L62.7333 178.779L62.6832 178.705L62.633 178.667L62.583 178.592L62.533 178.517L62.483 178.442L62.4331 178.367L62.3832 178.311L62.3333 178.254L62.2835 178.179L62.2337 178.104L62.1839 178.028L62.1342 177.954L62.0846 177.915L62.0349 177.84L61.9854 177.764L61.9358 177.688L61.8863 177.613L61.8368 177.557L61.7873 177.499L61.7379 177.423L61.6886 177.347L61.6392 177.272L61.59 177.196L61.5407 177.157L61.4914 177.081L61.4423 177.005L61.3932 176.929L61.344 176.853L61.295 176.796L61.246 176.738L61.197 176.662L61.1481 176.585L61.0992 176.509L61.0503 176.433L61.0015 176.393L60.9527 176.317L60.9039 176.24L60.8552 176.164L60.8065 176.087L60.7579 176.029L60.7093 175.971L60.6608 175.894L60.6123 175.817L60.5638 175.74L60.5153 175.663L60.4669 175.624L60.4186 175.547L60.3702 175.47L60.322 175.392L60.2737 175.315L60.2255 175.257L60.1774 175.198L60.1292 175.121L60.0811 175.043L60.0331 174.966L59.9851 174.888L59.9371 174.848L59.8892 174.771L59.8413 174.693L59.7934 174.615L59.7457 174.538L59.6979 174.478L59.6501 174.42L59.6025 174.342L59.5548 174.264L59.5073 174.186L59.4597 174.108L59.4122 174.067L59.3647 173.989L59.3172 173.911L59.2698 173.833L59.2225 173.754L59.1752 173.694L59.1279 173.635L59.0807 173.557L59.0335 173.478L58.9863 173.4L58.9392 173.321L58.8921 173.28L58.8451 173.202L58.7981 173.123L58.7511 173.044L58.7042 172.965L58.6574 172.905L58.6105 172.845L58.5637 172.766L58.517 172.687L58.4703 172.608L58.4236 172.529L58.377 172.487L58.3304 172.409L58.2839 172.329L58.2374 172.25L58.1909 172.171L58.1445 172.109L58.0981 172.05L58.0518 171.97L58.0055 171.891L57.9593 171.811L57.913 171.732L57.8669 171.688L57.8208 171.61L57.7747 171.53L57.7287 171.45L57.6827 171.371L57.6367 171.308L57.5908 171.248L57.5449 171.168L57.4991 171.088L57.4533 171.008L57.4075 170.928L57.3618 170.884L57.3162 170.806L57.2706 170.725L57.225 170.645L57.1795 170.565L57.1339 170.502L57.0885 170.442L57.0431 170.361L56.9977 170.281L56.9524 170.2L56.9071 170.12L56.8619 170.075L56.8167 169.996L56.7716 169.915L56.7264 169.834L56.6814 169.754L56.6364 169.69L56.5914 169.629L56.5465 169.548L56.5016 169.467L56.4567 169.387L56.4119 169.305L56.3671 169.26L56.3224 169.181L56.2778 169.099L56.2331 169.018L56.1886 168.937L56.144 168.872L56.0995 168.812L56.0551 168.73L56.0107 168.649L55.9663 168.567L55.922 168.486L55.8777 168.44L55.8334 168.36L55.7892 168.278L55.7451 168.197L55.701 168.115L55.6569 168.05L55.6129 167.989L55.5689 167.907L55.525 167.825L55.4811 167.743L55.4372 167.661L55.3935 167.614L55.3497 167.534L55.306 167.452L55.2624 167.37L55.2187 167.288L55.1751 167.222L55.1316 167.161L55.0881 167.078L55.0447 166.996L55.0013 166.913L54.958 166.831L54.9146 166.783L54.8714 166.703L54.8281 166.621L54.785 166.538L54.7419 166.455L54.6988 166.388L54.6557 166.327L54.6128 166.244L54.5698 166.161L54.5269 166.078L54.4841 165.995L54.4412 165.947L54.3985 165.867L54.3557 165.784L54.3131 165.701L54.2705 165.617L54.2279 165.55L54.1854 165.488L54.1429 165.405L54.1004 165.322L54.058 165.238L54.0157 165.155L53.9733 165.106L53.9311 165.025L53.8889 164.942L53.8467 164.858L53.8046 164.775L53.7625 164.706L53.7204 164.645L53.6785 164.561L53.6366 164.477L53.5946 164.393L53.5528 164.309L53.511 164.26L53.4692 164.179L53.4275 164.095L53.3858 164.011L53.3442 163.927L53.3026 163.858L53.2611 163.796L53.2196 163.712L53.1782 163.627L53.1368 163.543L53.0955 163.459L53.0542 163.408L53.0129 163.327L52.9717 163.243L52.9306 163.158L52.8894 163.074L52.8484 163.004L52.8074 162.942L52.7664 162.857L52.7255 162.773L52.6847 162.688L52.6438 162.603L52.603 162.552L52.5623 162.471L52.5216 162.386L52.481 162.301L52.4404 162.216L52.3998 162.146L52.3593 162.083L52.3189 161.998L52.2785 161.913L52.2381 161.828L52.1978 161.743L52.1575 161.691L52.1173 161.609L52.0771 161.524L52.0371 161.439L51.997 161.353L51.9569 161.282L51.917 161.22L51.8771 161.134L51.8371 161.049L51.7974 160.963L51.7576 160.877L51.7178 160.825L51.6781 160.743L51.6385 160.657L51.5989 160.572L51.5594 160.486L51.5199 160.414L51.4804 160.351L51.441 160.265L51.4017 160.179L51.3624 160.093L51.3231 160.007L51.2839 159.954L51.2448 159.872L51.2056 159.786L51.1665 159.7L51.1276 159.613L51.0886 159.541L51.0497 159.478L51.0108 159.392L50.972 159.305L50.9332 159.219L50.8945 159.132L50.8559 159.078L50.8172 158.997L50.7787 158.91L50.7401 158.823L50.7016 158.736L50.6632 158.663L50.6249 158.6L50.5866 158.513L50.5483 158.427L50.5101 158.34L50.4719 158.253L50.4338 158.198L50.3956 158.116L50.3577 158.029L50.3197 157.942L50.2817 157.855L50.2439 157.781L50.206 157.718L50.1682 157.631L50.1305 157.543L50.0928 157.456L50.0552 157.369L50.0176 157.313L49.98 157.231L49.9425 157.144L49.9051 157.056L49.8677 156.969L49.8304 156.894L49.7931 156.831L49.7559 156.743L49.7187 156.655L49.6816 156.568L49.6445 156.48L49.6074 156.424L49.5705 156.342L49.5335 156.254L49.4966 156.166L49.4598 156.078L49.423 156.003L49.3863 155.939L49.3496 155.851L49.313 155.763L49.2764 155.675L49.2399 155.587L49.2034 155.53L49.167 155.448L49.1306 155.36L49.0943 155.271L49.058 155.183L49.0217 155.107L48.9856 155.043L48.9495 154.955L48.9134 154.866L48.8774 154.778L48.8414 154.689L48.8054 154.632L48.7696 154.549L48.7338 154.461L48.698 154.372L48.6623 154.283L48.6266 154.207L48.591 154.143L48.5554 154.054L48.5199 153.965L48.4844 153.876L48.449 153.787L48.4137 153.73L48.3784 153.647L48.3432 153.558L48.3079 153.469L48.2728 153.38L48.2377 153.303L48.2026 153.239L48.1676 153.149L48.1327 153.06L48.0978 152.971L48.0629 152.881L48.0282 152.823L47.9934 152.74L47.9587 152.65L47.9241 152.561L47.8895 152.471L47.8549 152.394L47.8205 152.33L47.786 152.24L47.7517 152.15L47.7173 152.061L47.6831 151.971L47.6489 151.912L47.6147 151.829L47.5806 151.739L47.5465 151.649L47.5125 151.559L47.4785 151.481L47.4447 151.417L47.4107 151.327L47.377 151.237L47.3432 151.147L47.3095 151.056L47.2759 150.997L47.2423 150.914L47.2087 150.823L47.1753 150.733L47.1419 150.643L47.1084 150.564L47.0752 150.5L47.0419 150.409L47.0086 150.319L46.9755 150.228L46.9424 150.138L46.9093 150.078L46.8763 149.994L46.8433 149.904L46.8104 149.813L46.7776 149.722L46.7448 149.643L46.712 149.579L46.6794 149.488L46.6467 149.397L46.6141 149.306L46.5816 149.215L46.5491 149.154L46.5167 149.071L46.4843 148.98L46.452 148.889L46.4198 148.798L46.3875 148.718L46.3553 148.654L46.3233 148.562L46.2912 148.471L46.2592 148.38L46.2273 148.289L46.1954 148.227L46.1635 148.144L46.1318 148.053L46.1 147.961L46.0684 147.87L46.0368 147.789L46.0052 147.725L45.9737 147.633L45.9422 147.542L45.9108 147.45L45.8795 147.359L45.8482 147.296L45.8169 147.213L45.7858 147.121L45.7546 147.03L45.7235 146.938L45.6925 146.857L45.6615 146.792L45.6306 146.7L45.5998 146.608L45.5689 146.516L45.5382 146.424L45.5075 146.362L45.4768 146.278L45.4463 146.186L45.4158 146.094L45.3852 146.002L45.3548 145.92L45.3245 145.855L45.2941 145.763L45.2639 145.671L45.2337 145.579L45.2035 145.487L45.1735 145.423L45.1434 145.339L45.1134 145.247L45.0835 145.155L45.0536 145.062L45.0238 144.98L44.994 144.915L44.9643 144.823L44.9346 144.73L44.9051 144.638L44.8755 144.545L44.846 144.481L44.8166 144.397L44.7872 144.305L44.7579 144.212L44.7286 144.119L44.6993 144.036L44.6702 143.971L44.6411 143.878L44.6121 143.786L44.5831 143.693L44.5541 143.6L44.5252 143.535L44.4964 143.452L44.4676 143.359L44.4389 143.266L44.4103 143.173L44.3817 143.089L44.3531 143.024L44.3247 142.931L44.2962 142.838L44.2678 142.744L44.2395 142.651L44.2112 142.586L44.183 142.502L44.1549 142.409L44.1267 142.316L44.0987 142.222L44.0708 142.138L44.0428 142.073L44.0149 141.98L43.9871 141.886L43.9593 141.793L43.9317 141.699L43.904 141.634L43.8764 141.55L43.8489 141.456L43.8213 141.362L43.7939 141.269L43.7666 141.184L43.7392 141.119L43.712 141.025L43.6848 140.931L43.6576 140.838L43.6306 140.744L43.6035 140.678L43.5765 140.594L43.5497 140.5L43.5228 140.406L43.496 140.312L43.4692 140.227L43.4425 140.161L43.4159 140.067L43.3894 139.973L43.3628 139.879L43.3363 139.785L43.31 139.719L43.2836 139.634L43.2573 139.54L43.2311 139.446L43.2049 139.352L43.1788 139.266L43.1527 139.201L43.1267 139.106L43.1008 139.012L43.0749 138.918L43.049 138.823L43.0233 138.756L42.9975 138.672L42.9719 138.577L42.9463 138.483L42.9207 138.388L42.8952 138.302L42.8698 138.237L42.8444 138.142L42.8191 138.048L42.7939 137.953L42.7686 137.858L42.7435 137.791L42.7184 137.706L42.6933 137.612L42.6684 137.517L42.6435 137.422L42.6186 137.335L42.5938 137.27L42.5691 137.175L42.5444 137.08L42.5198 136.985L42.4952 136.89L42.4707 136.822L42.4462 136.738L42.4218 136.643L42.3975 136.548L42.3732 136.452L42.3489 136.365L42.3248 136.3L42.3007 136.205L42.2766 136.109L42.2527 136.014L42.2287 135.919L42.2048 135.85L42.181 135.766L42.1573 135.671L42.1336 135.575L42.11 135.48L42.0863 135.392L42.0628 135.327L42.0394 135.231L42.0159 135.136L41.9926 135.04L41.9693 134.945L41.946 134.876L41.9229 134.791L41.8998 134.696L41.8767 134.6L41.8537 134.505L41.8308 134.417L41.8079 134.351L41.7851 134.255L41.7623 134.16L41.7396 134.064L41.717 133.968L41.6943 133.898L41.6718 133.814L41.6494 133.718L41.6269 133.622L41.6046 133.527L41.5823 133.438L41.56 133.372L41.5379 133.276L41.5158 133.181L41.4936 133.085L41.4717 132.989L41.4498 132.918L41.4278 132.834L41.4061 132.738L41.3843 132.642L41.3626 132.546L41.3409 132.457L41.3193 132.391L41.2978 132.295L41.2763 132.199L41.2549 132.103L41.2336 132.006L41.2123 131.936L41.191 131.851L41.1699 131.755L41.1488 131.659L41.1276 131.562L41.1067 131.473L41.0858 131.407L41.0648 131.311L41.0441 131.214L41.0233 131.118L41.0026 131.021L40.982 130.95L40.9614 130.866L40.9408 130.769L40.9204 130.673L40.9 130.576L40.8796 130.486L40.8594 130.421L40.8391 130.324L40.819 130.227L40.7989 130.131L40.7788 130.034L40.7588 129.962L40.7389 129.878L40.719 129.781L40.6992 129.685L40.6795 129.588L40.6598 129.497L40.6402 129.432L40.6206 129.335L40.6011 129.238L40.5817 129.141L40.5622 129.044L40.5429 128.972L40.5237 128.888L40.5044 128.791L40.4853 128.694L40.4662 128.597L40.4471 128.506L40.4282 128.44L40.4093 128.343L40.3904 128.246L40.3717 128.149L40.3529 128.052L40.3342 127.979L40.3157 127.895L40.2971 127.798L40.2786 127.701L40.2602 127.604L40.2418 127.512L40.2235 127.447L40.2053 127.349L40.187 127.252L40.169 127.155L40.1509 127.058L40.1328 126.985L40.115 126.9L40.0971 126.803L40.0792 126.706L40.0615 126.608L40.0438 126.516L40.0261 126.451L40.0085 126.353L39.991 126.256L39.9735 126.158L39.9562 126.061L39.9388 125.987L39.9215 125.903L39.9043 125.806L39.8871 125.708L39.87 125.611L39.853 125.518L39.836 125.453L39.8191 125.355L39.8022 125.257L39.7854 125.16L39.7687 125.062L39.752 124.988L39.7354 124.904L39.7189 124.806L39.7024 124.709L39.6859 124.611L39.6696 124.518L39.6532 124.453L39.637 124.355L39.6208 124.257L39.6047 124.159L39.5886 124.061L39.5726 123.987L39.5566 123.903L39.5408 123.805L39.525 123.707L39.5092 123.609L39.4935 123.516L39.4778 123.451L39.4623 123.353L39.4468 123.255L39.4313 123.157L39.4159 123.059L39.4006 122.984L39.3853 122.9L39.3701 122.802L39.3549 122.704L39.3398 122.606L39.3248 122.512L39.3098 122.447L39.2949 122.349L39.2801 122.25L39.2653 122.152L39.2505 122.054L39.2359 121.979L39.2213 121.895L39.2067 121.797L39.1923 121.698L39.1778 121.6L39.1635 121.506L39.1492 121.441L39.1349 121.343L39.1208 121.244L39.1067 121.146L39.0926 121.047L39.0786 120.972L39.0647 120.888L39.0508 120.79L39.037 120.691L39.0233 120.593L39.0096 120.498L38.996 120.433L38.9824 120.335L38.9689 120.236L38.9555 120.138L38.9421 120.039L38.9288 119.963L38.9155 119.88L38.9023 119.781L38.8892 119.683L38.8761 119.584L38.8631 119.489L38.8502 119.424L38.8373 119.325L38.8244 119.227L38.8117 119.128L38.799 119.029L38.7863 118.953L38.7738 118.87L38.7612 118.771L38.7488 118.672L38.7364 118.573L38.7241 118.478L38.7118 118.413L38.6996 118.315L38.6874 118.216L38.6754 118.117L38.6634 118.018L38.6513 117.942L38.6395 117.858L38.6277 117.759L38.6158 117.66L38.6042 117.561L38.5925 117.466L38.5809 117.401L38.5694 117.302L38.5579 117.203L38.5465 117.104L38.5352 117.005L38.5238 116.928L38.5126 116.845L38.5015 116.746L38.4904 116.647L38.4794 116.548L38.4684 116.452L38.4574 116.387L38.4466 116.288L38.4358 116.189L38.4251 116.09L38.4144 115.991L38.4038 115.914L38.3933 115.831L38.3828 115.732L38.3724 115.632L38.362 115.533L38.3517 115.437L38.3415 115.373L38.3313 115.273L38.3212 115.174L38.3111 115.075L38.3012 114.976L38.2913 114.898L38.2813 114.815L38.2716 114.716L38.2619 114.617L38.2521 114.517L38.2426 114.421L38.233 114.356L38.2235 114.257L38.2141 114.158L38.2047 114.059L38.1954 113.959L38.1862 113.881L38.177 113.798L38.1679 113.699L38.1588 113.599L38.1498 113.5L38.1409 113.403L38.132 113.339L38.1231 113.24L38.1145 113.14L38.1058 113.041L38.0971 112.941L38.0886 112.863L38.0801 112.78L38.0716 112.681L38.0633 112.581L38.0549 112.482L38.0467 112.384L38.0385 112.321L38.0303 112.221L38.0223 112.122L38.0143 112.022L38.0063 111.923L37.9985 111.844L37.9906 111.761L37.9828 111.662L37.9752 111.562L37.9676 111.463L37.9599 111.365L37.9525 111.301L37.945 111.202L37.9376 111.102L37.9303 111.002L37.923 110.903L37.9158 110.824L37.9087 110.741L37.9016 110.642L37.8946 110.542L37.8877 110.442L37.8807 110.344L37.8739 110.281L37.8672 110.181L37.8604 110.082L37.8538 109.982L37.8473 109.882L37.8407 109.803L37.8343 109.72L37.8279 109.621L37.8215 109.521L37.8153 109.421L37.8091 109.323L37.8029 109.26L37.7968 109.16L37.7908 109.06L37.7848 108.961L37.779 108.861L37.7731 108.781L37.7673 108.699L37.7616 108.599L37.7559 108.499L37.7504 108.4L37.7449 108.301L37.7393 108.238L37.734 108.138L37.7286 108.038L37.7233 107.938L37.7181 107.839L37.713 107.759L37.7079 107.677L37.7029 107.577L37.6979 107.477L37.693 107.377L37.6881 107.278L37.6833 107.215L37.6786 107.115L37.674 107.016L37.6693 106.916L37.6648 106.816L37.6603 106.736L37.6559 106.654L37.6516 106.554L37.6473 106.454L37.643 106.354L37.6389 106.255L37.6348 106.192L37.6307 106.092L37.6268 105.992L37.6228 105.892L37.6189 105.793L37.6152 105.712L37.6114 105.63L37.6077 105.53L37.6042 105.431L37.6006 105.331L37.5971 105.231L37.5937 105.168L37.5903 105.069L37.587 104.969L37.5838 104.869L37.5805 104.769L37.5775 104.688L37.5744 104.606L37.5714 104.507L37.5685 104.407L37.5656 104.307L37.5628 104.207L37.5601 104.144L37.5574 104.044L37.5547 103.945L37.5522 103.845L37.5497 103.745L37.5472 103.663L37.5449 103.582L37.5425 103.482L37.5403 103.382L37.5381 103.282L37.5359 103.182L37.5339 103.12L37.5319 103.02L37.5299 102.92L37.5281 102.82L37.5262 102.72L37.5244 102.639L37.5228 102.558L37.5211 102.458L37.5195 102.358L37.518 102.258L37.5166 102.158L37.5152 102.095L37.5139 101.995L37.5125 101.895L37.5114 101.796L37.5102 101.696L37.5091 101.614L37.5081 101.533L37.5071 101.433L37.5062 101.333L37.5054 101.233L37.5046 101.133L37.5039 101.07L37.5033 100.971L37.5026 100.871L37.5021 100.771L37.5016 100.671L37.5012 100.589L37.5009 100.508L37.5006 100.408L37.5003 100.308L37.5002 100.208L37.5001 100.108L37.5 100.045L37.5 99.9459L37.5001 99.8459L37.5002 99.7459L37.5005 99.6459L37.5007 99.5636L37.501 99.4834L37.5014 99.3835L37.5019 99.2835L37.5024 99.1835L37.503 99.0835L37.5036 99.0198L37.5042 98.921L37.505 98.8211L37.5058 98.7211L37.5067 98.6211L37.5076 98.5386L37.5086 98.4586L37.5097 98.3587L37.5108 98.2587L37.5119 98.1588L37.5132 98.0588L37.5145 97.9948L37.5159 97.8963L37.5173 97.7963L37.5188 97.6964L37.5203 97.5964L37.522 97.5137L37.5236 97.434L37.5253 97.334L37.5272 97.2341L37.529 97.1341L37.5309 97.0342L37.5329 96.9701L37.5349 96.8718L37.537 96.7718L37.5392 96.6719L37.5414 96.5719L37.5437 96.4889L37.5461 96.4095L37.5485 96.3096L37.5509 96.2096L37.5535 96.1097L37.5561 96.0098L37.5587 95.9454L37.5615 95.8474L37.5642 95.7475L37.567 95.6476L37.57 95.5477L37.5729 95.4645L37.5759 95.3853L37.5791 95.2854L37.5822 95.1855L37.5854 95.0856L37.5887 94.9857L37.592 94.9211L37.5954 94.8234L37.5989 94.7235L37.6024 94.6236L37.606 94.5238L37.6096 94.4404L37.6133 94.3615L37.6171 94.2616L37.6209 94.1618L37.6248 94.0619L37.6287 93.962L37.6328 93.8973L37.6368 93.7998L37.641 93.7L37.6452 93.6002L37.6494 93.5003L37.6538 93.4167L37.6581 93.3382L37.6625 93.2383L37.6671 93.1385L37.6717 93.0387L37.6763 92.9389L37.681 92.8739L37.6857 92.7768L37.6905 92.677L37.6955 92.5771L37.7004 92.4774L37.7054 92.3936L37.7105 92.3153L37.7156 92.2155L37.7207 92.1158L37.726 92.016L37.7313 91.9162L37.7367 91.8511L37.7422 91.7542L37.7476 91.6545L37.7532 91.5548L37.7588 91.455L37.7645 91.371L37.7702 91.2931L37.7761 91.1933L37.7819 91.0936L37.7879 90.9939L37.7939 90.8943L37.7999 90.8289L37.806 90.7324L37.8122 90.6327L37.8184 90.533L37.8247 90.4334L37.8311 90.3492L37.8375 90.2716L37.844 90.1719L37.8506 90.0723L37.8571 89.9726L37.8639 89.873L37.8706 89.8075L37.8774 89.7113L37.8843 89.6117L37.8912 89.5121L37.8981 89.4125L37.9052 89.3281L37.9123 89.2508L37.9195 89.1513L37.9267 89.0517L37.934 88.9521L37.9413 88.8526L37.9488 88.7869L37.9562 88.691L37.9638 88.5915L37.9714 88.492L37.979 88.3924L37.9868 88.3079L37.9946 88.2309L38.0024 88.1314L38.0103 88.032L38.0183 87.9325L38.0263 87.833L38.0345 87.7672L38.0426 87.6716L38.0508 87.5722L38.0591 87.4727L38.0675 87.3733L38.0758 87.2886L38.0844 87.2119L38.0929 87.1125L38.1015 87.0131L38.1102 86.9138L38.1189 86.8144L38.1276 86.7484L38.1365 86.6532L38.1454 86.5538L38.1543 86.4545L38.1634 86.3552L38.1725 86.2704L38.1816 86.194L38.1909 86.0947L38.2001 85.9954L38.2094 85.8961L38.2189 85.7969L38.2283 85.7307L38.2378 85.6358L38.2474 85.5366L38.257 85.4374L38.2668 85.3381L38.2766 85.2532L38.2863 85.1772L38.2963 85.078L38.3062 84.9788L38.3162 84.8797L38.3263 84.7805L38.3365 84.7142L38.3466 84.6197L38.357 84.5205L38.3673 84.4214L38.3776 84.3223L38.3881 84.2372L38.3986 84.1616L38.4092 84.0625L38.4198 83.9634L38.4305 83.8644L38.4413 83.7653L38.4521 83.6989L38.463 83.6047L38.4739 83.5057L38.485 83.4067L38.496 83.3078L38.5071 83.2225L38.5183 83.1473L38.5296 83.0483L38.5409 82.9494L38.5523 82.8504L38.5637 82.7515L38.5752 82.685L38.5868 82.5912L38.5984 82.4923L38.6101 82.3934L38.6218 82.2945L38.6336 82.2092L38.6455 82.1343L38.6574 82.0355L38.6694 81.9367L38.6815 81.8378L38.6936 81.739L38.7058 81.6724L38.718 81.579L38.7303 81.4802L38.7427 81.3815L38.7551 81.2828L38.7676 81.1973L38.7801 81.1228L38.7928 81.0241L38.8054 80.9254L38.8182 80.8268L38.831 80.7281L38.8438 80.6613L38.8567 80.5683L38.8697 80.4697L38.8827 80.3711L38.8958 80.2725L38.909 80.1869L38.9222 80.1128L38.9355 80.0142L38.9489 79.9157L38.9622 79.8172L38.9758 79.7187L38.9893 79.6519L39.0028 79.5592L39.0165 79.4607L39.0302 79.3622L39.044 79.2638L39.0579 79.1782L39.0717 79.1044L39.0857 79.006L39.0997 78.9077L39.1138 78.8092L39.128 78.7109L39.1422 78.644L39.1564 78.5517L39.1708 78.4534L39.1852 78.3551L39.1996 78.2568L39.2141 78.1711L39.2287 78.0977L39.2433 77.9995L39.258 77.9013L39.2728 77.8031L39.2875 77.7049L39.3025 77.6378L39.3174 77.546L39.3324 77.4478L39.3475 77.3497L39.3626 77.2516L39.3777 77.1658L39.393 77.0929L39.4083 76.9948L39.4237 76.8967L39.4391 76.7987L39.4546 76.7006L39.4701 76.6335L39.4858 76.5421L39.5014 76.4441L39.5172 76.3462L39.533 76.2482L39.5488 76.1623L39.5647 76.0898L39.5807 75.9919L39.5967 75.894L39.6129 75.7961L39.629 75.6983L39.6452 75.6311L39.6615 75.5401L39.6779 75.4423L39.6942 75.3445L39.7107 75.2467L39.7273 75.1608L39.7438 75.0887L39.7605 74.991L39.7772 74.8933L39.7939 74.7956L39.8108 74.6979L39.8277 74.6307L39.8446 74.5401L39.8616 74.4425L39.8787 74.3449L39.8958 74.2473L39.913 74.1613L39.9303 74.0896L39.9476 73.9921L39.965 73.8946L39.9824 73.7971L39.9999 73.6996L40.0174 73.6323L40.035 73.5421L40.0527 73.4447L40.0705 73.3473L40.0882 73.2499L40.1061 73.1639L40.124 73.0927L40.142 72.9953L40.16 72.898L40.1781 72.8007L40.1963 72.7034L40.2145 72.6361L40.2328 72.5464L40.2511 72.4492L40.2695 72.352L40.288 72.2548L40.3065 72.1687L40.3251 72.098L40.3437 72.0008L40.3624 71.9037L40.3812 71.8066L40.4 71.7095L40.4189 71.6421L40.4378 71.5529L40.4568 71.4559L40.4759 71.3589L40.495 71.2619L40.5141 71.1757L40.5334 71.1055L40.5527 71.0085L40.572 70.9116L40.5915 70.8147L40.611 70.7179L40.6305 70.6504L40.6501 70.5617L40.6697 70.4649L40.6894 70.3681L40.7093 70.2713L40.7291 70.1851L40.749 70.1153L40.769 70.0186L40.7889 69.9219L40.809 69.8252L40.8292 69.7286L40.8493 69.6611L40.8696 69.5728L40.8899 69.4762L40.9103 69.3796L40.9307 69.2831L40.9512 69.1969L40.9717 69.1276L40.9924 69.0311L41.0131 68.9346L41.0338 68.8381L41.0546 68.7418L41.0754 68.6743L41.0963 68.5865L41.1173 68.4901L41.1383 68.3938L41.1594 68.2974L41.1806 68.2112L41.2018 68.1424L41.223 68.0461L41.2444 67.9499L41.2657 67.8537L41.2872 67.7575L41.3087 67.69L41.3302 67.6027L41.3518 67.5065L41.3735 67.4105L41.3952 67.3144L41.4171 67.2282L41.4389 67.1597L41.4608 67.0637L41.4828 66.9678L41.5049 66.8718L41.5269 66.7758L41.5491 66.7084L41.5713 66.6215L41.5935 66.5256L41.6159 66.4297L41.6383 66.3339L41.6607 66.2477L41.6832 66.1798L41.7058 66.0841L41.7284 65.9883L41.7511 65.8926L41.7738 65.7969L41.7966 65.7294L41.8195 65.643L41.8423 65.5474L41.8653 65.4518L41.8884 65.3562L41.9114 65.27L41.9346 65.2026L41.9578 65.1071L41.981 65.0116L42.0044 64.9161L42.0278 64.8207L42.0512 64.7532L42.0747 64.6673L42.0983 64.572L42.1218 64.4766L42.1456 64.3813L42.1693 64.2951L42.193 64.2282L42.2169 64.1329L42.2408 64.0377L42.2647 63.9425L42.2888 63.8474L42.3129 63.7799L42.337 63.6945L42.3612 63.5994L42.3854 63.5044L42.4097 63.4093L42.4341 63.3232L42.4585 63.2568L42.483 63.1617L42.5076 63.0668L42.5322 62.9718L42.5568 62.8769L42.5816 62.8096L42.6063 62.7247L42.6311 62.6299L42.656 62.535L42.6809 62.4402L42.706 62.3541L42.731 62.2883L42.7561 62.1935L42.7813 62.0989L42.8066 62.0042L42.8318 61.9095L42.8572 61.8422L42.8826 61.7579L42.9081 61.6633L42.9336 61.5688L42.9592 61.4743L42.9848 61.3881L43.0105 61.3228L43.0362 61.2284L43.062 61.134L43.0879 61.0396L43.1138 60.9452L43.1398 60.8779L43.1659 60.7941L43.1919 60.6998L43.2181 60.6056L43.2443 60.5113L43.2705 60.4253L43.2969 60.3605L43.3233 60.2663L43.3497 60.1722L43.3762 60.0781L43.4027 59.984L43.4293 59.9168L43.456 59.8335L43.4827 59.7395L43.5095 59.6455L43.5364 59.5516L43.5632 59.4656L43.5901 59.4013L43.6172 59.3075L43.6442 59.2137L43.6713 59.1198L43.6985 59.0261L43.7257 58.9589L43.753 58.8761L43.7804 58.7825L43.8077 58.6888L43.8352 58.5952L43.8627 58.5092L43.8903 58.4455L43.9179 58.3519L43.9456 58.2584L43.9733 58.1649L44.0011 58.0715L44.029 58.0043L44.0568 57.9221L44.0848 57.8287L44.1128 57.7354L44.1409 57.6421L44.169 57.5562L44.1972 57.493L44.2255 57.3997L44.2538 57.3065L44.2821 57.2134L44.3105 57.1202L44.339 57.0531L44.3675 56.9715L44.3961 56.8784L44.4247 56.7854L44.4534 56.6924L44.4821 56.6065L44.5109 56.5439L44.5397 56.451L44.5687 56.3581L44.5977 56.2653L44.6266 56.1724L44.6557 56.1054L44.6849 56.0243L44.714 55.9316L44.7433 55.8388L44.7726 55.7462L44.8019 55.6604L44.8314 55.5984L44.8608 55.5058L44.8903 55.4132L44.9199 55.3207L44.9495 55.2281L44.9792 55.1612L45.009 55.0807L45.0387 54.9883L45.0686 54.8959L45.0985 54.8035L45.1284 54.7178L45.1585 54.6564L45.1885 54.5641L45.2186 54.4718L45.2488 54.3797L45.2791 54.2875L45.3093 54.2206L45.3397 54.1407L45.3701 54.0486L45.4005 53.9565L45.4311 53.8645L45.4616 53.7789L45.4922 53.718L45.5229 53.6261L45.5536 53.5342L45.5844 53.4423L45.6152 53.3505L45.6461 53.2837L45.677 53.2044L45.708 53.1126L45.7391 53.0209L45.7702 52.9292L45.8014 52.8437L45.8325 52.7834L45.8638 52.6918L45.8952 52.6003L45.9265 52.5087L45.958 52.4172L45.9895 52.3505L46.0209 52.2718L46.0526 52.1804L46.0842 52.089L46.1159 51.9977L46.1477 51.9123L46.1795 51.8526L46.2113 51.7613L46.2433 51.6701L46.2752 51.5789L46.3072 51.4878L46.3393 51.4212L46.3714 51.343L46.4036 51.252L46.4359 51.161L46.4681 51.07L46.5005 50.9847L46.5329 50.9256L46.5653 50.8347L46.5978 50.7438L46.6304 50.653L46.663 50.5622L46.6957 50.4957L46.7284 50.4182L46.7611 50.3274L46.794 50.2368L46.8269 50.1462L46.8598 50.061L46.8928 50.0025L46.9258 49.912L46.9589 49.8214L46.9921 49.731L47.0252 49.6405L47.0585 49.5742L47.0918 49.4973L47.1251 49.4069L47.1585 49.3166L47.192 49.2263L47.2255 49.1413L47.2591 49.0834L47.2927 48.9932L47.3263 48.9031L47.3601 48.813L47.3939 48.7229L47.4277 48.6567L47.4616 48.5804L47.4955 48.4904L47.5295 48.4005L47.5635 48.3106L47.5976 48.2257L47.6317 48.1683L47.666 48.0786L47.7002 47.9888L47.7344 47.8991L47.7688 47.8094L47.8032 47.7433L47.8377 47.6676L47.8722 47.578L47.9068 47.4884L47.9414 47.3989L47.976 47.3141L48.0107 47.2575L48.0455 47.1681L48.0804 47.0787L48.1152 46.9893L48.1501 46.9L48.1851 46.8341L48.2201 46.759L48.2552 46.6698L48.2903 46.5806L48.3255 46.4914L48.3607 46.4068L48.396 46.3508L48.4313 46.2617L48.4667 46.1728L48.5022 46.0838L48.5376 45.9948L48.5732 45.929L48.6088 45.8546L48.6444 45.7657L48.6801 45.677L48.7159 45.5882L48.7516 45.5037L48.7875 45.4483L48.8234 45.3597L48.8593 45.271L48.8954 45.1825L48.9314 45.0939L48.9675 45.0283L49.0037 44.9545L49.0398 44.866L49.0761 44.7776L49.1124 44.6893L49.1487 44.6049L49.1852 44.5502L49.2217 44.4619L49.2581 44.3737L49.2947 44.2855L49.3313 44.1974L49.3679 44.1319L49.4047 44.0587L49.4414 43.9707L49.4782 43.8827L49.5151 43.7947L49.552 43.7106L49.589 43.6564L49.626 43.5686L49.663 43.4808L49.7002 43.393L49.7373 43.3053L49.7745 43.2399L49.8118 43.1674L49.8491 43.0798L49.8864 42.9922L49.9239 42.9047L49.9614 42.8206L49.9988 42.7671L50.0364 42.6797L50.074 42.5923L50.1116 42.505L50.1494 42.4177L50.1872 42.3525L50.2249 42.2806L50.2628 42.1934L50.3007 42.1062L50.3387 42.019L50.3767 41.9352L50.4148 41.8824L50.4528 41.7953L50.491 41.7084L50.5292 41.6214L50.5674 41.5345L50.6058 41.4695L50.6441 41.3984L50.6825 41.3115L50.721 41.2248L50.7594 41.1381L50.798 41.0544L50.8366 41.0023L50.8752 40.9156L50.9139 40.8291L50.9527 40.7426L50.9914 40.6561L51.0303 40.5912L51.0692 40.5207L51.1081 40.4343L51.1471 40.348L51.1862 40.2617L51.2252 40.1782L51.2644 40.1267L51.3036 40.0406L51.3427 39.9544L51.3821 39.8684L51.4214 39.7823L51.4607 39.7176L51.5002 39.6478L51.5396 39.5618L51.5792 39.4759L51.6187 39.3901L51.6583 39.3067L51.698 39.2559L51.7378 39.1702L51.7775 39.0845L51.8173 38.9988L51.8572 38.9132L51.897 38.8487L51.937 38.7796L51.977 38.6941L52.017 38.6086L52.0571 38.5232L52.0973 38.44L52.1374 38.3899L52.1777 38.3046L52.218 38.2193L52.2583 38.1341L52.2987 38.0489L52.3391 37.9847L52.3796 37.9161L52.4201 37.8311L52.4607 37.746L52.5013 37.6611L52.542 37.5781L52.5827 37.5287L52.6234 37.4439L52.6643 37.3591L52.7051 37.2743L52.746 37.1895L52.787 37.1254L52.8279 37.0576L52.869 36.973L52.9101 36.8885L52.9512 36.8039L52.9924 36.7212L53.0336 36.6724L53.0748 36.588L53.1162 36.5037L53.1576 36.4193L53.1989 36.335L53.2404 36.2712L53.2819 36.2041L53.3234 36.1199L53.3651 36.0358L53.4067 35.9517L53.4484 35.8692L53.4901 35.8212L53.5319 35.7372L53.5737 35.6532L53.6156 35.5694L53.6575 35.4855L53.6995 35.4219L53.7415 35.3555L53.7836 35.2717L53.8257 35.1881L53.8679 35.1045L53.91 35.0221L53.9523 34.9749L53.9946 34.8914L54.0369 34.8079L54.0793 34.7245L54.1217 34.6411L54.1642 34.5776L54.2067 34.512L54.2493 34.4287L54.2918 34.3455L54.3345 34.2624L54.3772 34.1803L54.4199 34.1336L54.4628 34.0506L54.5056 33.9676L54.5484 33.8847L54.5914 33.8018L54.6343 33.7385L54.6774 33.6736L54.7204 33.5908L54.7635 33.508L54.8067 33.4254L54.8499 33.3435L54.8931 33.2976L54.9364 33.215L54.9797 33.1325L55.0231 33.05L55.0665 32.9676L55.11 32.9046L55.1534 32.8403L55.197 32.758L55.2406 32.6758L55.2842 32.5935L55.328 32.5119L55.3717 32.4667L55.4154 32.3846L55.4593 32.3026L55.5031 32.2206L55.547 32.1386L55.591 32.0759L55.635 32.0123L55.679 31.9305L55.7231 31.8488L55.7672 31.767L55.8114 31.6856L55.8556 31.6411L55.8998 31.5595L55.9442 31.478L55.9885 31.3965L56.0329 31.3149L56.0774 31.2525L56.1218 31.1896L56.1663 31.1083L56.2109 31.027L56.2555 30.9458L56.3001 30.8646L56.3449 30.8209L56.3896 30.7397L56.4344 30.6586L56.4792 30.5776L56.5241 30.4966L56.569 30.4344L56.614 30.3723L56.6589 30.2914L56.704 30.2106L56.7491 30.1299L56.7942 30.0491L56.8393 30.0058L56.8846 29.9253L56.9298 29.8447L56.9751 29.7642L57.0205 29.6837L57.0658 29.6216L57.1113 29.5603L57.1567 29.48L57.2022 29.3996L57.2478 29.3194L57.2934 29.2392L57.339 29.196L57.3847 29.1164L57.4304 29.0363L57.4762 28.9562L57.522 28.8762L57.5679 28.8144L57.6137 28.7538L57.6597 28.674L57.7057 28.5942L57.7517 28.5144L57.7978 28.4347L57.8438 28.3918L57.89 28.3128L57.9362 28.2333L57.9824 28.1537L58.0287 28.0742L58.075 28.0127L58.1213 27.9528L58.1678 27.8735L58.2142 27.7942L58.2606 27.7149L58.3072 27.6357L58.3537 27.5931L58.4003 27.5149L58.447 27.4358L58.4937 27.3568L58.5404 27.2778L58.5872 27.2166L58.634 27.1575L58.6808 27.0786L58.7277 26.9998L58.7746 26.9211L58.8216 26.8424L58.8686 26.8L58.9157 26.7226L58.9628 26.644L59.01 26.5655L59.0571 26.487L59.1043 26.426L59.1516 26.3677L59.1989 26.2894L59.2462 26.2111L59.2936 26.1328L59.341 26.0546L59.3885 26.0126L59.436 25.9359L59.4835 25.8578L59.5311 25.7799L59.5788 25.7019L59.6264 25.6412L59.6742 25.5836L59.7219 25.5058L59.7697 25.428L59.8175 25.3503L59.8653 25.2726L59.9133 25.2308L59.9612 25.1549L60.0092 25.0774L60.0572 24.9999L60.1053 24.9225L60.1534 24.8621L60.2015 24.8053L60.2497 24.728L60.2979 24.6507L60.3462 24.5736L60.3945 24.4964L60.4428 24.4549L60.4912 24.3798L60.5396 24.3028L60.5881 24.2258L60.6366 24.1489L60.6851 24.0888L60.7337 24.0327L60.7823 23.956L60.8309 23.8793L60.8797 23.8026L60.9284 23.726L60.9771 23.6848L61.026 23.6104L61.0748 23.534L61.1237 23.4575L61.1726 23.3812L61.2216 23.3213L61.2706 23.2661L61.3196 23.1899L61.3687 23.1137L61.4178 23.0375L61.467 22.9615L61.5162 22.9205L61.5654 22.8469L61.6147 22.7711L61.664 22.6952L61.7133 22.6193L61.7627 22.5598L61.8122 22.5053L61.8616 22.4296L61.9111 22.354L61.9606 22.2784L62.0102 22.2029L62.0598 22.1623L62.1095 22.0894L62.1592 22.014L62.2089 21.9387L62.2587 21.8634L62.3085 21.8042L62.3583 21.7505L62.4081 21.6753L62.4581 21.6003L62.5081 21.5252L62.558 21.4502L62.6081 21.4099L62.6581 21.3379L62.7082 21.263L62.7584 21.1883L62.8086 21.1135L62.8588 21.0545L62.909 21.0017L62.9593 20.9271L63.0096 20.8526L63.06 20.7781L63.1104 20.7036L63.1608 20.6636L63.2113 20.5924L63.2618 20.5181L63.3123 20.4439L63.3629 20.3697L63.4135 20.311L63.4642 20.2589L63.5149 20.1849L63.5656 20.1109L63.6164 20.037L63.6672 19.9631L63.718 19.9234L63.7689 19.853L63.8198 19.7792L63.8707 19.7055L63.9217 19.6319L63.9727 19.5736L64.0237 19.5223L64.0749 19.4488L64.126 19.3754L64.1771 19.302L64.2284 19.2287L64.2796 19.1893L64.3308 19.1197L64.3821 19.0465L64.4335 18.9734L64.4849 18.9003L64.5363 18.8423L64.5877 18.7918L64.6392 18.7189L64.6907 18.6461L64.7422 18.5732L64.7939 18.5005L64.8455 18.4614L64.8971 18.3926L64.9488 18.32L65.0005 18.2474L65.0523 18.1749L65.1041 18.1172L65.1559 18.0676L65.2078 17.9952L65.2597 17.9229L65.3116 17.8507L65.3636 17.7785L65.4156 17.7397L65.4676 17.6717L65.5197 17.5997L65.5718 17.5277L65.6239 17.4557L65.6761 17.3984L65.7283 17.3496L65.7806 17.2777L65.8329 17.2061L65.8852 17.1344L65.9375 17.0627L65.9899 17.0243L66.0423 16.9572L66.0948 16.8857L66.1473 16.8143L66.1998 16.7429L66.2523 16.6859L66.3049 16.6379L66.3575 16.5667L66.4102 16.4955L66.4629 16.4244L66.5156 16.3534L66.5683 16.3153L66.6211 16.249L66.6739 16.178L66.7268 16.1072L66.7797 16.0364L66.8326 15.9797L66.8856 15.9325L66.9385 15.8619L66.9915 15.7913L67.0446 15.7208L67.0977 15.6504L67.1508 15.6126L67.204 15.5471L67.2571 15.4768L67.3104 15.4065L67.3636 15.3364L67.4169 15.28L67.4702 15.2336L67.5236 15.1636L67.5769 15.0935L67.6304 15.0236L67.6838 14.9538L67.7373 14.9163L67.7908 14.8517L67.8444 14.7819L67.8979 14.7122L67.9515 14.6427L68.0051 14.5867L68.0588 14.5411L68.1125 14.4717L68.1663 14.4023L68.22 14.3329L68.2738 14.2637L68.3276 14.2266L68.3815 14.1627L68.4354 14.0936L68.4893 14.0245L68.5433 13.9555L68.5973 13.8998L68.6513 13.8551L68.7053 13.7863L68.7594 13.7175L68.8135 13.6487L68.8677 13.58L68.9219 13.5433L68.976 13.4803L69.0303 13.4118L69.0845 13.3433L69.1388 13.2749L69.1932 13.2196L69.2476 13.1757L69.3019 13.1074L69.3564 13.0392L69.4108 12.9711L69.4653 12.903L69.5198 12.8666L69.5744 12.8044L69.6289 12.7365L69.6835 12.6687L69.7382 12.6008L69.7928 12.5459L69.8475 12.5029L69.9023 12.4351L69.9571 12.3676L70.0118 12.3L70.0666 12.2325L70.1215 12.1965L70.1764 12.1352L70.2313 12.0679L70.2862 12.0006L70.3412 11.9334L70.3962 11.8788L70.4512 11.8366L70.5063 11.7696L70.5613 11.7026L70.6165 11.6356L70.6716 11.5687L70.7268 11.5331L70.782 11.4726L70.8372 11.4059L70.8925 11.3393L70.9478 11.2727L71.0031 11.2183L71.0585 11.1771L71.1138 11.1106L71.1692 11.0442L71.2247 10.9779L71.2801 10.9116L71.3357 10.8763L71.3912 10.8168L71.4467 10.7506L71.5023 10.6846L71.5579 10.6186L71.6135 10.5647L71.6692 10.5243L71.725 10.4584L71.7807 10.3926L71.8364 10.3269L71.8922 10.2613L71.948 10.2263L72.0038 10.1676L72.0597 10.1021L72.1156 10.0366L72.1715 9.9713L72.2275 9.91778L72.2834 9.87816L72.3394 9.81299L72.3955 9.74782L72.4515 9.68269L72.5076 9.61768L72.5637 9.58311L72.6199 9.52523L72.676 9.46038L72.7322 9.39554L72.7885 9.33078L72.8447 9.27766L72.901 9.23889L72.9573 9.17433L73.0137 9.1098L73.07 9.04527L73.1264 8.98088L73.1828 8.9467L73.2393 8.88966L73.2958 8.82546L73.3522 8.76125L73.4087 8.69709L73.4653 8.64437L73.5219 8.60647L73.5785 8.5425L73.6351 8.47862L73.6918 8.41474L73.7485 8.35095L73.8052 8.31718L73.8619 8.26099L73.9187 8.19739L73.9755 8.13383L74.0323 8.07027L74.0891 8.01794L74.146 7.98096L74.2029 7.91757L74.2598 7.85432L74.3168 7.79109L74.3737 7.72789L74.4307 7.69452L74.4877 7.63924L74.5448 7.57623L74.6019 7.51331L74.659 7.4504L74.7161 7.39841L74.7733 7.36232L74.8304 7.29958L74.8876 7.23695L74.9448 7.17436L75.0021 7.11177L75.0594 7.07879L75.1167 7.0244L75.174 6.96199L75.2314 6.89973L75.2887 6.83748L75.3461 6.78583L75.4036 6.75064L75.461 6.68855L75.5185 6.62652L75.576 6.56459L75.6335 6.50266L75.6911 6.47003L75.7487 6.41653L75.8063 6.35477L75.8639 6.29311L75.9215 6.23152L75.9792 6.18026L76.0369 6.14595L76.0947 6.0845L76.1524 6.02307L76.2102 5.9618L76.2679 5.90053L76.3257 5.86825L76.3836 5.81568L76.4414 5.75457L76.4993 5.69351L76.5573 5.63257L76.6152 5.58173L76.6732 5.54826L76.7311 5.48749L76.7891 5.42672L76.8472 5.36604L76.9052 5.30544L76.9633 5.27355L77.0214 5.22185L77.0795 5.16141L77.1376 5.10097L77.1958 5.04069L77.254 4.99026L77.3122 4.95764L77.3705 4.89754L77.4287 4.83743L77.487 4.77737L77.5453 4.71742L77.6037 4.68594L77.662 4.6351L77.7204 4.57532L77.7787 4.51555L77.8372 4.45588L77.8956 4.40588L77.954 4.37416L78.0126 4.31467L78.0711 4.25522L78.1296 4.19578L78.1881 4.1365L78.2467 4.10546L78.3053 4.05547L78.3639 3.99634L78.4226 3.93724L78.4812 3.87818L78.5399 3.8286L78.5986 3.7978L78.6573 3.73893L78.7537 3.71768L78.8499 3.69645L78.9462 3.67537L79.0144 3.6543L79.1013 3.6333L79.1976 3.61247L79.294 3.59173L79.3904 3.57103L79.4776 3.55043L79.5457 3.52972L79.6422 3.50929L79.7386 3.48904L79.8351 3.4688L79.9317 3.44866L80.0004 3.42835L80.0873 3.40826L80.1838 3.38836L80.2804 3.36864L80.377 3.34895L80.4647 3.32922L80.5328 3.30925L80.6295 3.28982L80.7262 3.27054L80.8229 3.25129L80.9196 3.23214L80.9888 3.21258L81.0757 3.19339L81.1724 3.17444L81.2692 3.15574L81.366 3.13705L81.4542 3.1182L81.5223 3.09899L81.6191 3.08057L81.7161 3.06222L81.813 3.04399L81.9099 3.02586L81.9796 3.00701L82.0664 2.98874L82.1633 2.97079L82.2604 2.95305L82.3574 2.93536L82.446 2.91742L82.5141 2.89895L82.6111 2.88154L82.7082 2.86415L82.8053 2.84694L82.9025 2.8298L82.9726 2.81167L83.0594 2.79431L83.1565 2.77739L83.2537 2.76061L83.3509 2.74393L83.44 2.72694L83.508 2.70916L83.6053 2.69276L83.7025 2.67635L83.7998 2.66014L83.8972 2.64402L83.9677 2.62663L84.0544 2.61015L84.1518 2.59427L84.2492 2.57844L84.3466 2.56276L84.4361 2.54675L84.504 2.52967L84.6015 2.51426L84.6989 2.49886L84.7964 2.48363L84.8939 2.46851L84.9649 2.45192L85.0516 2.4363L85.1491 2.42144L85.2467 2.4066L85.3442 2.3919L85.4341 2.37687L85.502 2.36047L85.5996 2.34608L85.6973 2.3317L85.7949 2.31744L85.8926 2.30333L85.964 2.28754L86.0506 2.27276L86.1483 2.25894L86.246 2.24511L86.3438 2.23139L86.4341 2.21732L86.5019 2.20167L86.5996 2.18823L86.6975 2.17489L86.7953 2.16162L86.8931 2.1485L86.9649 2.13351L87.0514 2.11961L87.1493 2.10679L87.2471 2.09398L87.345 2.08124L87.4357 2.06814L87.5035 2.05322L87.6014 2.04074L87.6994 2.02844L87.7973 2.01619L87.8953 2.00401L87.9675 1.98985L88.0539 1.97686L88.1519 1.965L88.25 1.9532L88.348 1.94148L88.4391 1.92933L88.5067 1.91514L88.6048 1.90362L88.7029 1.89236L88.801 1.88113L88.8991 1.86992L88.9717 1.85658L89.058 1.8445L89.1562 1.8336L89.2543 1.82282L89.3525 1.81214L89.444 1.80091L89.5115 1.78746L89.6097 1.77696L89.708 1.76669L89.8062 1.75647L89.9044 1.74627L89.9775 1.73373L90.0636 1.72255L90.1619 1.71262L90.2601 1.70288L90.3584 1.69322L90.4503 1.68293L90.5177 1.67019L90.6161 1.66075L90.7144 1.65144L90.8127 1.64224L90.9111 1.63309L90.9845 1.62131L91.0705 1.61102L91.1689 1.6021L91.2673 1.59337L91.3657 1.58473L91.4579 1.57539L91.5253 1.56336L91.6237 1.55496L91.7221 1.54661L91.8206 1.53844L91.919 1.53034L91.9928 1.51934L92.0787 1.50993L92.1772 1.50204L92.2757 1.49429L92.3742 1.48668L92.4668 1.47833L92.534 1.46696L92.6325 1.45962L92.731 1.45229L92.8296 1.44508L92.9281 1.43804L93.0023 1.42784L93.0881 1.4193L93.1867 1.41243L93.2852 1.40567L93.3838 1.39908L93.4767 1.39176L93.5438 1.38105L93.6424 1.37474L93.7411 1.36843L93.8397 1.36222L93.9383 1.35619L94.0128 1.34684L94.0985 1.33911L94.1971 1.33331L94.2958 1.32756L94.3944 1.32194L94.4877 1.31565L94.5546 1.30563L94.6534 1.30032L94.7521 1.29504L94.8507 1.28982L94.9495 1.28482L95.0243 1.27631L95.1098 1.26941L95.2085 1.26465L95.3072 1.25993L95.4059 1.25528L95.4995 1.25003L95.5664 1.24072L95.6651 1.23637L95.7639 1.23211L95.8626 1.22794L95.9614 1.22391L96.0366 1.21626L96.1219 1.21019L96.2207 1.20647L96.3195 1.20277L96.4183 1.19909L96.5121 1.19488L96.5788 1.18629L96.6776 1.18291L96.7764 1.17969L96.8752 1.17656L96.974 1.17349L97.0496 1.16671L97.1347 1.16153L97.2335 1.15878L97.3324 1.1561L97.4312 1.15347L97.5253 1.15023L97.5919 1.14234L97.6907 1.13995L97.7896 1.13777L97.8884 1.13566L97.9873 1.13355L98.0631 1.12765L98.1481 1.12335L98.2469 1.12156L98.3458 1.11991L98.4447 1.11834L98.5391 1.11606L98.6055 1.10887L98.7044 1.1075L98.8033 1.10632L98.9022 1.10524L99.0011 1.10415L99.0772 1.09908L99.162 1.09565L99.2609 1.09485L99.3598 1.09421L99.4587 1.09368L99.5534 1.09238L99.6196 1.08589L99.7185 1.08556L99.8174 1.08536L99.9163 1.0853L100.015 1.08526L100.092 1.08101L100.176 1.07844L100.275 1.07866L100.374 1.07902L100.473 1.07952L100.568 1.07924L100.634 1.07339L100.733 1.07412L100.832 1.07491L100.931 1.07584L101.03 1.07687L101.106 1.07342L101.191 1.07171L101.29 1.07295L101.389 1.07431L101.488 1.07583L101.583 1.07659L101.649 1.07136L101.747 1.07316L101.846 1.07496L101.945 1.07686L102.044 1.07895L102.121 1.07638L102.205 1.07545L102.304 1.07772L102.403 1.08009L102.502 1.08261L102.598 1.08443L102.663 1.07983L102.762 1.08266L102.861 1.08549L102.96 1.08837L103.059 1.09149L103.136 1.0898L103.22 1.08965L103.319 1.09298L103.418 1.09638L103.517 1.09985L103.612 1.10275L103.678 1.09883L103.777 1.10262L103.876 1.10647L103.975 1.11039L104.073 1.11448L104.151 1.11369L104.235 1.11432L104.334 1.1187L104.432 1.12312L104.531 1.12755L104.627 1.13153L104.692 1.12829L104.791 1.13303L104.89 1.13791L104.989 1.14288L105.088 1.14793L105.166 1.14803L105.249 1.1495L105.348 1.15486L105.447 1.1603L105.546 1.16576L105.642 1.17075L105.707 1.16818L105.806 1.1739L105.904 1.1798L106.003 1.1858L106.102 1.1918L106.18 1.19281L106.263 1.19513L106.362 1.20144L106.461 1.2079L106.56 1.21441L106.656 1.22039L106.721 1.21849L106.82 1.22523L106.918 1.23212L107.017 1.23914L107.116 1.24616L107.194 1.24801L107.277 1.25118L107.376 1.25848L107.474 1.26591L107.573 1.27348L107.67 1.28046L107.734 1.27921L107.833 1.28697L107.932 1.29484L108.03 1.30288L108.129 1.31092L108.207 1.31362L108.29 1.31761L108.389 1.32593L108.488 1.33434L108.586 1.34294L108.683 1.35098L108.747 1.35031L108.846 1.35912L108.944 1.368L109.043 1.37699L109.142 1.38609L109.22 1.38966L109.303 1.39443L109.401 1.40376L109.5 1.41316L109.598 1.42276L109.695 1.43186L109.76 1.43178L109.858 1.44164L109.957 1.45153L110.055 1.46146L110.154 1.47162L110.232 1.47608L110.315 1.48159L110.413 1.49194L110.512 1.50239L110.61 1.51292L110.707 1.52308L110.771 1.52362L110.87 1.53451L110.968 1.54539L111.066 1.55632L111.165 1.56749L111.244 1.57284L111.326 1.5791L111.424 1.59048L111.522 1.60194L111.621 1.61343L111.718 1.6247L111.782 1.62589L111.88 1.63767L111.978 1.64959L112.077 1.66157L112.175 1.67365L112.254 1.67994L112.336 1.68699L112.434 1.69934L112.532 1.71182L112.631 1.72431L112.728 1.73661L112.791 1.73846L112.89 1.75123L112.988 1.7641L113.086 1.77714L113.184 1.79019L113.264 1.79736L113.345 1.80522L113.443 1.81856L113.541 1.83202L113.639 1.84555L113.737 1.85889L113.8 1.86135L113.898 1.87515L113.996 1.88898L114.094 1.90303L114.192 1.91712L114.272 1.92513L114.353 1.93381L114.451 1.94818L114.549 1.96254L114.647 1.97714L114.744 1.99158L114.807 1.99457L114.905 2.0094L115.003 2.02429L115.101 2.03925L115.199 2.05437L115.279 2.06335L115.359 2.07272L115.457 2.08812L115.555 2.10352L115.653 2.11906L115.75 2.1346L115.813 2.13822L115.911 2.15397L116.009 2.16993L116.107 2.1859L116.204 2.20196L116.284 2.2119L116.365 2.22205L116.462 2.23839L116.56 2.25484L116.658 2.27137L116.755 2.28796L116.818 2.29222L116.916 2.30896L117.013 2.32591L117.111 2.3429L117.208 2.35994L117.288 2.37081L117.368 2.38174L117.466 2.39902L117.564 2.41651L117.661 2.43407L117.759 2.45163L117.821 2.45658L117.918 2.47436L118.016 2.49221L118.113 2.51023L118.211 2.52833L118.291 2.54004L118.371 2.55177L118.468 2.57008L118.565 2.58852L118.663 2.6071L118.76 2.62569L118.823 2.63132L118.92 2.65008L119.017 2.66895L119.114 2.68791L119.212 2.70706L119.292 2.7197L119.371 2.73212L119.468 2.75148L119.566 2.77091L119.663 2.79045L119.76 2.8101L119.823 2.81649L119.919 2.83612L120.016 2.85601L120.113 2.87596L120.211 2.8961L120.291 2.90971L120.37 2.92282L120.467 2.94321L120.564 2.96366L120.661 2.98412L120.758 3.00483L120.821 3.01203L120.917 3.03248L121.014 3.0534L121.111 3.07441L121.208 3.09544L121.288 3.11002L121.366 3.12391L121.463 3.14525L121.56 3.16673L121.657 3.18822L121.754 3.20986L121.817 3.21789L121.912 3.23925L122.009 3.26111L122.106 3.28315L122.203 3.30519L122.283 3.32068L122.361 3.33535L122.458 3.35766L122.554 3.3801L122.651 3.40265L122.748 3.42526L122.811 3.43405L122.906 3.45633L123.003 3.47917L123.099 3.50221L123.196 3.52527L123.276 3.54164L123.354 3.55709L123.45 3.58043L123.547 3.60377L123.643 3.62737L123.739 3.65099L123.803 3.6605L123.897 3.68369L123.994 3.70758L124.09 3.73152L124.186 3.75561L124.267 3.77299L124.344 3.78909L124.44 3.81344L124.537 3.83782L124.633 3.86236L124.729 3.88699L124.792 3.89731L124.887 3.92136L124.983 3.94627L125.079 3.97118L125.175 3.99625L125.255 4.01461L125.332 4.0314L125.428 4.05673L125.524 4.08215L125.62 4.10762L125.716 4.13324L125.779 4.14441L125.873 4.16928L125.969 4.19519L126.065 4.22113L126.161 4.24714L126.241 4.26649L126.318 4.28402L126.413 4.31025L126.509 4.33673L126.605 4.36321L126.7 4.38975L126.764 4.40175L126.857 4.42754L126.953 4.45436L127.048 4.48132L127.144 4.50836L127.225 4.52859L127.301 4.54687L127.396 4.57411L127.492 4.60153L127.587 4.62902L127.682 4.65656L127.746 4.66934L127.839 4.69602L127.934 4.72379L128.029 4.75176L128.125 4.7798L128.205 4.80093L128.281 4.81993L128.376 4.84822L128.471 4.87655L128.566 4.90504L128.661 4.93362L128.725 4.94714L128.818 4.97469L128.913 5.00347L129.008 5.03238L129.103 5.06142L129.183 5.08355L129.259 5.10318L129.354 5.1325L129.448 5.16183L129.543 5.19125L129.638 5.22085L129.702 5.23518L129.794 5.26354L129.888 5.29334L129.983 5.32321L130.078 5.35322L130.158 5.37634L130.233 5.39665L130.328 5.42694L130.422 5.45726L130.517 5.48764L130.611 5.51823L130.675 5.5334L130.767 5.56253L130.861 5.59336L130.955 5.62424L131.05 5.65513L131.13 5.67927L131.205 5.70031L131.299 5.7315L131.393 5.76283L131.488 5.79424L131.582 5.82572L131.646 5.84175L131.737 5.87173L131.831 5.90351L131.925 5.93537L132.019 5.96725L132.099 5.99232L132.174 6.01408L132.267 6.04622L132.361 6.07852L132.455 6.11093L132.549 6.14334L132.613 6.16019L132.704 6.19105L132.797 6.22373L132.891 6.25659L132.985 6.2895L133.065 6.31547L133.139 6.33793L133.233 6.37107L133.326 6.40428L133.42 6.43769L133.513 6.4711L133.577 6.4887L133.667 6.52043L133.76 6.55411L133.854 6.58785L133.947 6.62179L134.028 6.64874L134.101 6.67182L134.194 6.70594L134.287 6.74016L134.381 6.77448L134.474 6.80888L134.538 6.82729L134.627 6.85985L134.72 6.89451L134.813 6.92918L134.906 6.9641L134.987 6.99205L135.06 7.01572L135.153 7.05087L135.245 7.08606L135.338 7.12128L135.431 7.1567L135.495 7.17596L135.584 7.20925L135.677 7.2449L135.769 7.2806L135.862 7.31639L135.942 7.34533L136.015 7.3697L136.107 7.40576L136.2 7.44193L136.292 7.47812L136.385 7.51448L136.449 7.53459L136.537 7.56867L136.629 7.60524L136.722 7.64194L136.814 7.67866L136.894 7.70856L136.966 7.73361L137.058 7.77059L137.15 7.80773L137.243 7.8449L137.335 7.88216L137.399 7.90314L137.486 7.93802L137.578 7.97549L137.67 8.01319L137.762 8.05088L137.842 8.08171L137.914 8.10745L138.006 8.1454L138.097 8.18343L138.189 8.2216L138.281 8.25983L138.345 8.28157L138.432 8.31726L138.524 8.35572L138.615 8.39432L138.707 8.43297L138.787 8.46477L138.858 8.49113L138.949 8.53006L139.041 8.56899L139.132 8.60814L139.223 8.64733L139.287 8.66983L139.374 8.70633L139.465 8.74578L139.556 8.78526L139.647 8.8249L139.727 8.8577L139.798 8.88465L139.889 8.92453L139.98 8.96444L140.071 9.00448L140.161 9.04464L140.225 9.06802L140.311 9.10524L140.402 9.14565L140.493 9.18606L140.584 9.22662L140.664 9.26044L140.733 9.28798L140.824 9.32878L140.915 9.36968L141.005 9.41063L141.096 9.45171L141.16 9.47594L141.245 9.5139L141.335 9.55526L141.426 9.59663L141.516 9.63809L141.596 9.6729L141.665 9.70108L141.755 9.74275L141.846 9.78464L141.936 9.82653L142.026 9.86848L142.09 9.8936L142.174 9.93234L142.264 9.97456L142.354 10.0169L142.444 10.0593L142.524 10.0951L142.593 10.1239L142.682 10.1665L142.772 10.2093L142.862 10.2521L142.952 10.295L143.015 10.3209L143.099 10.3604L143.189 10.4036L143.279 10.4469L143.368 10.4902L143.447 10.5269L143.516 10.5563L143.605 10.5999L143.694 10.6436L143.784 10.6873L143.873 10.7312L143.937 10.7579L144.02 10.7982L144.109 10.8422L144.198 10.8864L144.287 10.9307L144.367 10.9684L144.434 10.9983L144.523 11.0429L144.612 11.0875L144.701 11.1322L144.79 11.177L144.853 11.2045L144.936 11.2455L145.025 11.2905L145.114 11.3356L145.202 11.3808L145.281 11.4194L145.349 11.45L145.437 11.4955L145.525 11.541L145.614 11.5865L145.702 11.6323L145.766 11.6607L145.848 11.7023L145.936 11.7483L146.024 11.7943L146.112 11.8404L146.191 11.88L146.258 11.9112L146.346 11.9575L146.434 12.0039L146.522 12.0504L146.61 12.097L146.673 12.1263L146.755 12.1686L146.843 12.2155L146.93 12.2625L147.018 12.3094L147.097 12.35L147.163 12.3818L147.25 12.429L147.338 12.4763L147.425 12.5238L147.513 12.5712L147.576 12.6013L147.657 12.6444L147.744 12.6922L147.831 12.74L147.919 12.7879L147.997 12.8295L148.063 12.8618L148.15 12.9099L148.237 12.9582L148.324 13.0065L148.411 13.0549L148.474 13.0858L148.554 13.1296L148.641 13.1782L148.728 13.227L148.814 13.2758L148.892 13.3183L148.958 13.3512L149.044 13.4002L149.131 13.4493L149.217 13.4986L149.304 13.5479L149.367 13.5795L149.446 13.6241L149.533 13.6736L149.619 13.7232L149.705 13.773L149.783 13.8164L149.848 13.8498L149.934 13.8998L150.02 13.9498L150.106 13.9999L150.191 14.0501L150.254 14.0826L150.333 14.1278L150.419 14.1783L150.505 14.2287L150.591 14.2794L150.668 14.3238L150.732 14.3577L150.818 14.4086L150.903 14.4595L150.989 14.5104L151.074 14.5616L151.137 14.595L151.215 14.6408L151.301 14.6921L151.386 14.7435L151.471 14.7949L151.548 14.8403L151.612 14.8748L151.697 14.9265L151.782 14.9784L151.867 15.0302L151.952 15.0822L152.014 15.1164L152.092 15.1629L152.177 15.2151L152.261 15.2674L152.346 15.3197L152.423 15.366L152.486 15.4011L152.571 15.4536L152.655 15.5063L152.739 15.5591L152.824 15.6119L152.886 15.6469L152.963 15.6941L153.048 15.7471L153.132 15.8003L153.216 15.8535L153.293 15.9008L153.355 15.9364L153.439 15.9898L153.523 16.0433L153.607 16.097L153.69 16.1507L153.753 16.1865L153.829 16.2343L153.913 16.2883L153.996 16.3423L154.08 16.3964L154.156 16.4446L154.218 16.4807L154.302 16.535L154.385 16.5894L154.468 16.6439L154.552 16.6984L154.614 16.7351L154.689 16.7836L154.772 16.8384L154.856 16.8932L154.939 16.9482L155.015 16.9974L155.076 17.0339L155.159 17.0891L155.242 17.1444L155.324 17.1997L155.407 17.2551L155.469 17.2926L155.544 17.3417L155.626 17.3973L155.709 17.453L155.791 17.5088L155.867 17.559L155.928 17.5961L156.01 17.6521L156.093 17.7082L156.175 17.7644L156.257 17.8206L156.318 17.859L156.393 17.9087L156.475 17.9652L156.557 18.0217L156.639 18.0783L156.714 18.1295L156.774 18.1671L156.856 18.2239L156.938 18.2809L157.019 18.3379L157.101 18.3949L157.162 18.4341L157.236 18.4844L157.317 18.5417L157.399 18.5992L157.48 18.6566L157.555 18.7087L157.614 18.7467L157.696 18.8044L157.777 18.8622L157.858 18.9201L157.939 18.978L158 19.018L158.073 19.0689L158.154 19.127L158.235 19.1853L158.315 19.2437L158.39 19.2966L158.449 19.3352L158.529 19.3937L158.61 19.4523L158.69 19.511L158.771 19.5698L158.832 19.6105L158.904 19.6621L158.984 19.7211L159.064 19.7801L159.145 19.8393L159.219 19.8932L159.277 19.9322L159.357 19.9916L159.437 20.051L159.517 20.1105L159.597 20.1701L159.657 20.2117L159.729 20.2638L159.809 20.3236L159.888 20.3835L159.968 20.4435L160.042 20.4984L160.099 20.5378L160.179 20.598L160.258 20.6582L160.337 20.7185L160.417 20.779L160.477 20.8214L160.548 20.874L160.627 20.9347L160.706 20.9954L160.785 21.0562L160.858 21.112L160.915 21.1519L160.994 21.2129L161.073 21.274L161.152 21.3351L161.23 21.3963L161.29 21.4396L161.36 21.4928L161.439 21.5542L161.517 21.6158L161.595 21.6773L161.669 21.7341L161.725 21.7745L161.803 21.8362L161.881 21.8981L161.959 21.9601L162.037 22.0221L162.097 22.0662L162.166 22.1199L162.244 22.1821L162.322 22.2445L162.4 22.3069L162.473 22.3646L162.528 22.4053L162.606 22.4679L162.683 22.5306L162.761 22.5934L162.838 22.6562L162.898 22.701L162.966 22.7554L163.043 22.8184L163.121 22.8815L163.198 22.9447L163.27 23.0033L163.325 23.0445L163.402 23.1079L163.479 23.1714L163.556 23.2349L163.632 23.2986L163.692 23.3442L163.759 23.3991L163.836 23.4629L163.912 23.5268L163.989 23.5908L164.061 23.6504L164.116 23.6919L164.192 23.7561L164.268 23.8204L164.344 23.8847L164.42 23.9491L164.479 23.9956L164.546 24.051L164.622 24.1156L164.698 24.1803L164.774 24.245L164.845 24.3055L164.899 24.3475L164.975 24.4125L165.05 24.4775L165.126 24.5426L165.201 24.6078L165.26 24.6551L165.326 24.711L165.401 24.7764L165.476 24.8419L165.551 24.9073L165.623 24.9688L165.676 25.0112L165.751 25.0769L165.826 25.1427L165.901 25.2086L165.975 25.2745L166.033 25.3226L166.099 25.379L166.174 25.4452L166.248 25.5114L166.323 25.5777L166.393 25.64L166.446 25.6828L166.52 25.7493L166.594 25.8159L166.669 25.8825L166.743 25.9492L166.8 25.9981L166.865 26.0551L166.939 26.122L167.013 26.189L167.087 26.256L167.157 26.3192L167.209 26.3624L167.283 26.4297L167.356 26.497L167.43 26.5644L167.503 26.6319L167.561 26.6815L167.625 26.739L167.698 26.8067L167.771 26.8744L167.844 26.9422L167.914 27.0063L167.965 27.0499L168.038 27.1179L168.111 27.186L168.184 27.2541L168.257 27.3223L168.314 27.3728L168.377 27.4307L168.45 27.4991L168.522 27.5676L168.594 27.6362L168.664 27.7012L168.714 27.7451L168.787 27.8139L168.859 27.8827L168.931 27.9516L169.003 28.0206L169.06 28.0718L169.122 28.1302L169.194 28.1994L169.266 28.2686L169.337 28.3379L169.406 28.4038L169.456 28.4481L169.528 28.5176L169.599 28.5872L169.671 28.6568L169.742 28.7265L169.798 28.7785L169.86 28.8374L169.931 28.9072L170.002 28.9772L170.073 29.0472L170.142 29.1141L170.191 29.1587L170.262 29.2289L170.333 29.2992L170.403 29.3696L170.474 29.44L170.53 29.4928L170.591 29.5521L170.661 29.6227L170.732 29.6935L170.802 29.7642L170.87 29.8318L170.919 29.8769L170.989 29.9478L171.059 30.0188L171.129 30.0899L171.198 30.1611L171.254 30.2146L171.314 30.2744L171.384 30.3457L171.454 30.4172L171.523 30.4886L171.59 30.5572L171.639 30.6025L171.708 30.6742L171.777 30.7459L171.847 30.8177L171.916 30.8896L171.971 30.9439L172.03 31.0042L172.099 31.0762L172.168 31.1483L172.237 31.2205L172.304 31.29L172.351 31.3356L172.42 31.408L172.488 31.4804L172.557 31.5529L172.625 31.6255L172.68 31.6806L172.739 31.7412L172.807 31.814L172.875 31.8868L172.943 31.9597L173.009 32.0301L173.056 32.076L173.124 32.1491L173.192 32.2222L173.26 32.2954L173.328 32.3687L173.382 32.4246L173.44 32.4856L173.507 32.5591L173.575 32.6326L173.642 32.7062L173.707 32.7774L173.754 32.8237L173.821 32.8974L173.888 32.9713L173.955 33.0452L174.022 33.1191L174.076 33.1758L174.133 33.2373L174.2 33.3114L174.267 33.3856L174.333 33.4599L174.398 33.5319L174.444 33.5785L174.51 33.653L174.576 33.7275L174.643 33.8021L174.709 33.8767L174.762 33.9342L174.819 33.996L174.885 34.0708L174.951 34.1457L175.016 34.2207L175.081 34.2936L175.126 34.3405L175.191 34.4156L175.257 34.4908L175.322 34.566L175.388 34.6414L175.441 34.6996L175.496 34.7618L175.562 34.8373L175.627 34.9129L175.692 34.9885L175.756 35.0623L175.8 35.1094L175.865 35.1853L175.93 35.2611L175.994 35.337L176.059 35.413L176.111 35.472L176.166 35.5346L176.231 35.6108L176.295 35.687L176.359 35.7633L176.422 35.8379L176.466 35.8854L176.53 35.9618L176.594 36.0383L176.658 36.1149L176.722 36.1916L176.774 36.2513L176.828 36.3143L176.892 36.3911L176.956 36.468L177.019 36.5449L177.081 36.6204L177.125 36.6682L177.188 36.7453L177.251 36.8224L177.314 36.8997L177.377 36.977L177.429 37.0375L177.482 37.1008L177.545 37.1783L177.608 37.2558L177.671 37.3334L177.732 37.4097L177.775 37.4577L177.837 37.5355L177.9 37.6133L177.962 37.6912L178.025 37.7691L178.075 37.8303L178.128 37.894L178.19 37.9721L178.252 38.0503L178.314 38.1286L178.375 38.2057L178.417 38.254L178.479 38.3323L178.54 38.4108L178.602 38.4894L178.664 38.5679L178.714 38.6299L178.766 38.694L178.827 38.7727L178.888 38.8515L178.949 38.9304L179.01 39.0083L179.051 39.0569L179.112 39.1359L179.173 39.2149L179.234 39.2941L179.294 39.3733L179.344 39.436L179.395 39.5004L179.456 39.5797L179.516 39.6592L179.576 39.7387L179.636 39.8175L179.677 39.8662L179.737 39.9459L179.797 40.0256L179.857 40.1053L179.917 40.1852L179.966 40.2486L180.016 40.3133L180.076 40.3933L180.136 40.4733L180.195 40.5535L180.254 40.6331L180.294 40.682L180.353 40.7623L180.413 40.8427L180.472 40.923L180.531 41.0035L180.58 41.0676L180.629 41.1326L180.688 41.2132L180.747 41.2939L180.805 41.3746L180.864 41.455L180.903 41.5042L180.961 41.5851L181.02 41.6661L181.078 41.747L181.136 41.8281L181.185 41.8929L181.233 41.9583L181.291 42.0395L181.349 42.1208L181.407 42.202L181.465 42.2833L181.503 42.3327L181.561 42.4142L181.619 42.4957L181.676 42.5773L181.734 42.6589L181.781 42.7245L181.829 42.7902L181.886 42.872L181.943 42.9538L182.001 43.0357L182.057 43.1177L182.095 43.1675L182.152 43.2495L182.209 43.3316L182.266 43.4138L182.322 43.496L182.369 43.5622L182.416 43.6282L182.473 43.7106L182.529 43.793L182.585 43.8755L182.641 43.958L182.679 44.0085L182.735 44.0908L182.791 44.1735L182.846 44.2563L182.902 44.3391L182.949 44.406L182.995 44.4723L183.05 44.5552L183.106 44.6382L183.161 44.7213L183.217 44.8044L183.254 44.8554L183.308 44.9382L183.364 45.0214L183.419 45.1047L183.473 45.1881L183.519 45.2558L183.565 45.3223L183.619 45.4058L183.674 45.4894L183.729 45.573L183.783 45.6567L183.82 45.7083L183.874 45.7914L183.928 45.8753L183.982 45.9591L184.036 46.0431L184.081 46.1115L184.126 46.1782L184.18 46.2623L184.233 46.3464L184.287 46.4306L184.341 46.5149L184.377 46.5671L184.43 46.6505L184.483 46.7349L184.536 46.8194L184.59 46.9039L184.634 46.9729L184.678 47.0399L184.731 47.1246L184.784 47.2093L184.837 47.294L184.889 47.3788L184.925 47.4317L184.977 47.5154L185.03 47.6003L185.082 47.6853L185.134 47.7703L185.179 47.8401L185.221 47.9073L185.273 47.9925L185.326 48.0778L185.377 48.163L185.429 48.2483L185.465 48.3018L185.516 48.3859L185.567 48.4713L185.619 48.5569L185.67 48.6424L185.714 48.7129L185.756 48.7804L185.807 48.866L185.858 48.9518L185.909 49.0376L185.96 49.1235L185.995 49.1776L186.045 49.2619L186.096 49.3479L186.146 49.434L186.197 49.52L186.24 49.5912L186.281 49.6589L186.331 49.7451L186.382 49.8314L186.432 49.9178L186.482 50.0041L186.516 50.0588L186.565 50.1434L186.615 50.2299L186.665 50.3165L186.715 50.4031L186.757 50.4749L186.797 50.5428L186.847 50.6296L186.896 50.7164L186.945 50.8032L186.995 50.8901L187.028 50.9454L187.076 51.0303L187.125 51.1174L187.174 51.2044L187.223 51.2916L187.265 51.364L187.304 51.4321L187.353 51.5194L187.401 51.6067L187.45 51.6941L187.498 51.7815L187.531 51.8373L187.578 51.9225L187.627 52.01L187.675 52.0976L187.723 52.1853L187.764 52.2583L187.802 52.3266L187.85 52.4144L187.897 52.5023L187.945 52.5901L187.992 52.678L188.025 52.7344L188.071 52.8199L188.118 52.9079L188.166 52.996L188.213 53.0841L188.253 53.1578L188.291 53.2263L188.338 53.3146L188.384 53.4029L188.431 53.4912L188.477 53.5796L188.51 53.6366L188.555 53.7223L188.601 53.8109L188.647 53.8994L188.693 53.988L188.733 54.0624L188.77 54.1311L188.816 54.2198L188.862 54.3086L188.907 54.3974L188.953 54.4863L188.985 54.5439L189.029 54.6298L189.074 54.7188L189.12 54.8078L189.165 54.8969L189.204 54.9719L189.24 55.0408L189.285 55.13L189.33 55.2192L189.375 55.3085L189.419 55.3978L189.45 55.456L189.494 55.5422L189.538 55.6316L189.582 55.7211L189.627 55.8106L189.665 55.8863L189.7 55.9553L189.744 56.045L189.788 56.1347L189.832 56.2245L189.876 56.3142L189.907 56.3729L189.949 56.4594L189.992 56.5492L190.036 56.6392L190.079 56.7292L190.117 56.8055L190.151 56.8747L190.194 56.9648L190.237 57.0549L190.28 57.1451L190.323 57.2354L190.353 57.2946L190.395 57.3813L190.437 57.4716L190.48 57.562L190.522 57.6524L190.559 57.7293L190.593 57.7986L190.635 57.8892L190.677 57.9798L190.719 58.0704L190.761 58.1611L190.79 58.2209L190.831 58.3077L190.872 58.3985L190.914 58.4894L190.955 58.5803L190.992 58.6578L191.025 58.7272L191.066 58.8182L191.107 58.9092L191.148 59.0003L191.189 59.0914L191.218 59.1518L191.257 59.2388L191.298 59.33L191.339 59.4212L191.379 59.5125L191.414 59.5907L191.447 59.6602L191.487 59.7517L191.527 59.8431L191.567 59.9346L191.607 60.0261L191.636 60.087L191.674 60.1742L191.714 60.2658L191.753 60.3575L191.793 60.4492L191.828 60.528L191.859 60.5976L191.898 60.6894L191.938 60.7813L191.977 60.8732L192.016 60.9652L192.044 61.0266L192.081 61.1139L192.12 61.206L192.159 61.2981L192.197 61.3902L192.231 61.4695L192.262 61.5393L192.3 61.6315L192.338 61.7238L192.377 61.8161L192.415 61.9084L192.442 61.9704L192.478 62.0579L192.516 62.1503L192.554 62.2428L192.592 62.3354L192.625 62.4153L192.654 62.4851L192.692 62.5777L192.729 62.6704L192.767 62.7631L192.804 62.8559L192.83 62.9184L192.866 63.006L192.903 63.0988L192.94 63.1917L192.976 63.2846L193.009 63.3651L193.038 63.435L193.074 63.528L193.11 63.6211L193.147 63.7142L193.183 63.8073L193.209 63.8703L193.243 63.9581L193.279 64.0513L193.315 64.1445L193.351 64.2378L193.383 64.3189L193.411 64.3889L193.446 64.4823L193.482 64.5757L193.517 64.6692L193.552 64.7627L193.578 64.8262L193.611 64.9141L193.646 65.0077L193.681 65.1013L193.716 65.1949L193.747 65.2766L193.774 65.3466L193.808 65.4404L193.843 65.5341L193.877 65.628L193.912 65.7218L193.936 65.7859L193.969 65.8739L194.003 65.9678L194.037 66.0618L194.071 66.1558L194.101 66.238L194.127 66.3081L194.161 66.4022L194.194 66.4964L194.228 66.5905L194.261 66.6847L194.285 66.7493L194.316 66.8374L194.349 66.9317L194.382 67.026L194.415 67.1203L194.445 67.2031L194.47 67.2733L194.503 67.3677L194.535 67.4622L194.568 67.5567L194.6 67.6512L194.624 67.7163L194.654 67.8044L194.686 67.8991L194.718 67.9938L194.75 68.0885L194.779 68.1718L194.803 68.242L194.835 68.3367L194.866 68.4316L194.898 68.5264L194.929 68.6213L194.952 68.6868L194.982 68.7751L195.013 68.87L195.044 68.965L195.075 69.06L195.102 69.1439L195.126 69.2141L195.157 69.3092L195.187 69.4043L195.218 69.4995L195.248 69.5947L195.271 69.6608L195.299 69.7491L195.329 69.8443L195.359 69.9396L195.389 70.035L195.416 70.1193L195.439 70.1896L195.469 70.285L195.498 70.3804L195.528 70.4759L195.557 70.5714L195.579 70.638L195.606 70.7263L195.635 70.8219L195.665 70.9175L195.694 71.0132L195.72 71.098L195.742 71.1683L195.77 71.264L195.799 71.3598L195.828 71.4556L195.856 71.5514L195.877 71.6184L195.903 71.7068L195.932 71.8026L195.96 71.8986L195.988 71.9945L196.013 72.0799L196.034 72.1501L196.062 72.2461L196.09 72.3422L196.117 72.4383L196.145 72.5344L196.165 72.6018L196.19 72.6903L196.217 72.7864L196.245 72.8826L196.271 72.9789L196.296 73.0648L196.316 73.135L196.343 73.2313L196.37 73.3276L196.396 73.424L196.423 73.5204L196.442 73.5883L196.467 73.6768L196.493 73.7732L196.519 73.8697L196.545 73.9662L196.569 74.0526L196.588 74.1227L196.614 74.2194L196.64 74.316L196.665 74.4126L196.691 74.5092L196.71 74.5776L196.733 74.6661L196.758 74.7628L196.783 74.8595L196.808 74.9563L196.831 75.0432L196.85 75.1133L196.875 75.2102L196.899 75.307L196.924 75.4039L196.948 75.5008L196.967 75.5696L196.989 75.6581L197.013 75.7551L197.037 75.8521L197.061 75.9491L197.083 76.0365L197.101 76.1066L197.125 76.2037L197.149 76.3008L197.172 76.3979L197.196 76.4951L197.213 76.5643L197.235 76.6528L197.258 76.75L197.281 76.8473L197.304 76.9445L197.325 77.0323L197.342 77.1025L197.365 77.1998L197.388 77.2971L197.41 77.3945L197.433 77.4919L197.45 77.5616L197.47 77.65L197.492 77.7475L197.514 77.845L197.536 77.9425L197.556 78.0307L197.573 78.1008L197.595 78.1983L197.616 78.2959L197.638 78.3935L197.659 78.4911L197.675 78.5612L197.695 78.6496L197.716 78.7473L197.737 78.8451L197.758 78.9428L197.777 79.0315L197.793 79.1014L197.814 79.1992L197.835 79.297L197.855 79.3949L197.876 79.4927L197.891 79.5632L197.909 79.6516L197.93 79.7495L197.95 79.8474L197.97 79.9454L197.988 80.0345L198.003 80.1044L198.023 80.2024L198.042 80.3004L198.062 80.3985L198.081 80.4965L198.096 80.5674L198.114 80.6557L198.133 80.7538L198.152 80.852L198.171 80.9501L198.188 81.0397L198.202 81.1095L198.221 81.2077L198.24 81.3059L198.258 81.4041L198.277 81.5024L198.291 81.5737L198.307 81.6619L198.325 81.7602L198.343 81.8586L198.361 81.9569L198.378 82.0469L198.391 82.1166L198.409 82.215L198.427 82.3134L198.444 82.4118L198.461 82.5103L198.475 82.5819L198.49 82.6701L198.508 82.7686L198.525 82.8671L198.542 82.9656L198.557 83.056L198.57 83.1257L198.586 83.2242L198.603 83.3228L198.62 83.4214L198.636 83.52L198.648 83.5921L198.663 83.6802L198.679 83.7789L198.695 83.8775L198.711 83.9762L198.726 84.067L198.738 84.1365L198.753 84.2353L198.769 84.334L198.784 84.4328L198.8 84.5316L198.812 84.604L198.825 84.692L198.84 84.7909L198.855 84.8897L198.87 84.9885L198.884 85.0797L198.895 85.1491L198.91 85.248L198.924 85.3469L198.939 85.4458L198.953 85.5447L198.964 85.6175L198.977 85.7055L198.991 85.8044L199.005 85.9034L199.019 86.0024L199.032 86.094L199.042 86.1632L199.056 86.2623L199.069 86.3613L199.083 86.4604L199.096 86.5595L199.106 86.6326L199.118 86.7204L199.131 86.8195L199.144 86.9187L199.157 87.0178L199.169 87.1097L199.179 87.1789L199.191 87.2781L199.204 87.3772L199.216 87.4764L199.229 87.5756L199.238 87.6491L199.249 87.7368L199.261 87.8361L199.273 87.9353L199.285 88.0346L199.296 88.1269L199.305 88.1959L199.316 88.2952L199.328 88.3945L199.339 88.4938L199.351 88.5931L199.359 88.667L199.369 88.7545L199.38 88.8539L199.391 88.9533L199.402 89.0527L199.412 89.1453L199.42 89.2141L199.431 89.3135L199.441 89.413L199.452 89.5124L199.462 89.6118L199.47 89.686L199.479 89.7734L199.489 89.8729L199.499 89.9724L199.509 90.0719L199.518 90.1649L199.525 90.2335L199.535 90.333L199.544 90.4325L199.554 90.5321L199.563 90.6316L199.57 90.7061L199.578 90.7934L199.587 90.893L199.596 90.9925L199.605 91.0921L199.613 91.1855L199.62 91.2539L199.628 91.3536L199.637 91.4532L199.645 91.5528L199.653 91.6524L199.66 91.7272L199.667 91.8143L199.675 91.914L199.683 92.0137L199.691 92.1133L199.698 92.207L199.704 92.2753L199.711 92.375L199.719 92.4747L199.726 92.5744L199.733 92.6741L199.739 92.7492L199.745 92.8362L199.752 92.9359L199.759 93.0356L199.766 93.1354L199.772 93.2293L199.777 93.2975L199.784 93.3972L199.79 93.497L199.796 93.5968L199.803 93.6966L199.807 93.772L199.813 93.8587L199.819 93.9585L199.825 94.0583L199.831 94.1581L199.836 94.2524L199.84 94.3203L199.846 94.4202L199.851 94.52L199.856 94.6198L199.862 94.7197L199.866 94.7954L199.87 94.8819L199.875 94.9818L199.88 95.0817L199.885 95.1815L199.889 95.2761L199.893 95.3438L199.897 95.4437L199.902 95.5436L199.906 95.6435L199.91 95.7433L199.913 95.8193L199.917 95.9057L199.921 96.0056L199.925 96.1055L199.929 96.2054L199.932 96.3003L199.935 96.3678L199.938 96.4677L199.942 96.5676L199.945 96.6675L199.948 96.7675L199.951 96.8437L199.953 96.9299L199.956 97.0298L199.959 97.1297L199.962 97.2297L199.965 97.3248L199.966 97.3921L199.969 97.4921L199.971 97.592L199.974 97.692L199.976 97.7919L199.978 97.8685L199.979 97.9544L199.981 98.0543L199.983 98.1543L199.985 98.2542L199.986 98.3497L199.988 98.4167L199.989 98.5167L199.99 98.6166L199.992 98.7166L199.993 98.8166L199.994 98.8934L199.995 98.979L199.996 99.079L199.997 99.179L199.997 99.279L199.998 99.3746L199.998 99.4414L199.999 99.5414L199.999 99.6414L200 99.7414L200 99.8414L200 99.9184L200 100.004L200 100.104L200 100.204L199.999 100.304L199.999 100.4L199.999 100.466L199.998 100.566L199.998 100.666L199.997 100.766L199.996 100.866L199.995 100.943L199.995 101.029L199.994 101.129L199.992 101.229L199.991 101.329L199.99 101.425L199.989 101.491L199.987 101.591L199.986 101.691L199.984 101.791L199.982 101.891L199.981 101.968L199.979 102.053L199.977 102.153L199.975 102.253L199.973 102.353L199.97 102.45L199.969 102.516L199.966 102.616L199.963 102.716L199.961 102.816L199.958 102.915L199.956 102.993L199.953 103.078L199.95 103.178L199.947 103.278L199.943 103.378L199.94 103.474L199.938 103.54L199.934 103.64L199.931 103.74L199.927 103.84L199.923 103.94L199.92 104.018L199.916 104.102L199.912 104.202L199.908 104.302L199.904 104.402L199.9 104.499L199.897 104.564L199.892 104.664L199.887 104.764L199.883 104.864L199.878 104.964L199.874 105.042L199.87 105.126L199.864 105.226L199.859 105.325L199.854 105.425L199.849 105.522L199.845 105.588L199.839 105.687L199.834 105.787L199.828 105.887L199.822 105.987L199.817 106.065L199.812 106.149L199.806 106.249L199.8 106.349L199.793 106.448L199.787 106.546L199.783 106.61L199.776 106.71L199.77 106.81L199.763 106.91L199.756 107.01L199.75 107.088L199.744 107.172L199.737 107.271L199.73 107.371L199.723 107.471L199.715 107.568L199.71 107.633L199.703 107.732L199.695 107.832L199.687 107.932L199.679 108.031L199.673 108.11L199.666 108.193L199.658 108.293L199.65 108.393L199.641 108.492L199.633 108.59L199.627 108.654L199.618 108.754L199.61 108.853L199.601 108.953L199.592 109.052L199.585 109.131L199.577 109.214L199.568 109.314L199.559 109.413L199.549 109.513L199.54 109.611L199.533 109.675L199.524 109.774L199.514 109.874L199.504 109.973L199.494 110.073L199.486 110.152L199.478 110.234L199.467 110.334L199.457 110.433L199.447 110.533L199.437 110.63L199.429 110.694L199.419 110.794L199.408 110.893L199.397 110.992L199.386 111.092L199.377 111.171L199.368 111.253L199.357 111.352L199.345 111.452L199.334 111.551L199.323 111.649L199.315 111.712L199.303 111.812L199.291 111.911L199.28 112.01L199.268 112.11L199.258 112.189L199.247 112.271L199.235 112.37L199.223 112.469L199.211 112.568L199.198 112.667L199.19 112.73L199.177 112.829L199.164 112.928L199.151 113.027L199.138 113.126L199.128 113.206L199.117 113.287L199.103 113.386L199.09 113.485L199.077 113.584L199.063 113.683L199.054 113.745L199.04 113.844L199.027 113.943L199.013 114.042L198.999 114.141L198.987 114.221L198.975 114.302L198.961 114.401L198.947 114.5L198.932 114.599L198.918 114.697L198.908 114.76L198.893 114.858L198.878 114.957L198.864 115.056L198.849 115.155L198.836 115.235L198.823 115.316L198.808 115.414L198.793 115.513L198.777 115.612L198.762 115.71L198.751 115.772L198.736 115.871L198.72 115.97L198.704 116.068L198.688 116.167L198.674 116.247L198.661 116.327L198.645 116.426L198.628 116.525L198.612 116.623L198.595 116.722L198.584 116.783L198.568 116.882L198.551 116.98L198.534 117.079L198.517 117.177L198.503 117.257L198.488 117.337L198.471 117.436L198.454 117.534L198.436 117.633L198.419 117.731L198.407 117.793L198.389 117.891L198.371 117.989L198.353 118.088L198.335 118.186L198.32 118.266L198.305 118.345L198.287 118.444L198.268 118.542L198.25 118.64L198.231 118.739L198.219 118.8L198.2 118.898L198.181 118.996L198.162 119.094L198.143 119.192L198.127 119.272L198.111 119.352L198.092 119.45L198.072 119.548L198.053 119.646L198.033 119.744L198.02 119.806L198 119.903L197.981 120.001L197.961 120.099L197.941 120.197L197.924 120.277L197.907 120.356L197.887 120.454L197.866 120.551L197.846 120.649L197.825 120.747L197.811 120.809L197.79 120.906L197.77 121.004L197.749 121.101L197.728 121.199L197.71 121.279L197.692 121.358L197.671 121.455L197.65 121.553L197.628 121.651L197.606 121.748L197.592 121.81L197.57 121.906L197.548 122.004L197.526 122.102L197.504 122.199L197.486 122.279L197.467 122.357L197.445 122.455L197.422 122.552L197.4 122.649L197.377 122.747L197.362 122.809L197.339 122.905L197.317 123.002L197.294 123.099L197.271 123.197L197.251 123.277L197.232 123.354L197.208 123.452L197.185 123.549L197.162 123.646L197.138 123.743L197.122 123.805L197.098 123.901L197.074 123.998L197.05 124.095L197.026 124.192L197.006 124.272L196.986 124.349L196.962 124.446L196.937 124.543L196.913 124.64L196.888 124.737L196.871 124.799L196.847 124.894L196.822 124.991L196.797 125.087L196.772 125.184L196.75 125.265L196.73 125.341L196.705 125.438L196.679 125.534L196.654 125.631L196.628 125.728L196.61 125.79L196.585 125.884L196.559 125.981L196.533 126.077L196.507 126.174L196.485 126.254L196.463 126.33L196.437 126.427L196.411 126.523L196.384 126.62L196.358 126.716L196.339 126.778L196.313 126.872L196.286 126.968L196.259 127.065L196.232 127.161L196.209 127.241L196.187 127.317L196.159 127.413L196.132 127.509L196.104 127.605L196.077 127.701L196.058 127.763L196.031 127.857L196.003 127.953L195.975 128.049L195.947 128.145L195.923 128.225L195.9 128.3L195.871 128.396L195.843 128.492L195.815 128.588L195.786 128.683L195.766 128.746L195.738 128.839L195.709 128.934L195.68 129.03L195.651 129.126L195.626 129.206L195.603 129.281L195.573 129.376L195.544 129.472L195.514 129.567L195.485 129.663L195.464 129.725L195.435 129.817L195.405 129.913L195.375 130.008L195.345 130.103L195.319 130.184L195.295 130.258L195.265 130.353L195.234 130.448L195.204 130.543L195.173 130.639L195.152 130.701L195.122 130.793L195.091 130.888L195.06 130.983L195.03 131.078L195.003 131.158L194.978 131.232L194.946 131.327L194.915 131.422L194.884 131.516L194.852 131.611L194.83 131.673L194.799 131.765L194.767 131.86L194.735 131.954L194.703 132.049L194.676 132.129L194.65 132.202L194.618 132.297L194.585 132.391L194.553 132.486L194.52 132.581L194.497 132.643L194.466 132.733L194.433 132.828L194.4 132.922L194.367 133.017L194.339 133.097L194.312 133.169L194.279 133.264L194.246 133.358L194.212 133.452L194.179 133.546L194.155 133.608L194.123 133.699L194.089 133.793L194.055 133.887L194.021 133.981L193.992 134.061L193.964 134.133L193.93 134.227L193.896 134.321L193.861 134.414L193.827 134.508L193.803 134.57L193.769 134.66L193.735 134.754L193.7 134.847L193.665 134.941L193.634 135.021L193.606 135.093L193.571 135.186L193.536 135.28L193.501 135.373L193.465 135.467L193.44 135.529L193.406 135.618L193.37 135.711L193.335 135.804L193.299 135.898L193.267 135.977L193.239 136.048L193.203 136.142L193.166 136.235L193.13 136.328L193.094 136.421L193.068 136.483L193.033 136.572L192.996 136.664L192.959 136.757L192.923 136.85L192.89 136.93L192.861 137.001L192.824 137.093L192.787 137.186L192.75 137.279L192.712 137.371L192.685 137.433L192.65 137.521L192.612 137.614L192.574 137.706L192.537 137.799L192.503 137.879L192.473 137.949L192.435 138.041L192.397 138.133L192.359 138.226L192.321 138.318L192.293 138.38L192.257 138.467L192.218 138.559L192.18 138.651L192.141 138.744L192.107 138.823L192.076 138.892L192.037 138.984L191.998 139.076L191.959 139.168L191.92 139.26L191.891 139.322L191.854 139.409L191.814 139.5L191.775 139.592L191.735 139.684L191.7 139.763L191.669 139.832L191.629 139.924L191.589 140.015L191.549 140.107L191.509 140.198L191.48 140.26L191.441 140.346L191.401 140.437L191.361 140.529L191.32 140.62L191.284 140.699L191.252 140.767L191.211 140.859L191.17 140.95L191.129 141.041L191.088 141.132L191.058 141.194L191.019 141.279L190.978 141.37L190.936 141.461L190.895 141.552L190.858 141.631L190.825 141.698L190.784 141.789L190.742 141.88L190.7 141.97L190.658 142.061L190.627 142.123L190.587 142.207L190.545 142.298L190.503 142.388L190.46 142.479L190.422 142.558L190.389 142.625L190.346 142.715L190.304 142.805L190.261 142.896L190.218 142.986L190.186 143.047L190.146 143.131L190.103 143.221L190.059 143.311L190.016 143.401L189.977 143.48L189.943 143.547L189.9 143.636L189.856 143.726L189.812 143.816L189.768 143.906L189.736 143.967L189.695 144.051L189.651 144.14L189.606 144.23L189.562 144.319L189.522 144.398L189.488 144.464L189.443 144.553L189.399 144.642L189.354 144.732L189.309 144.821L189.276 144.882L189.234 144.965L189.189 145.054L189.144 145.143L189.099 145.232L189.058 145.311L189.023 145.376L188.978 145.465L188.932 145.554L188.886 145.643L188.841 145.731L188.807 145.793L188.764 145.875L188.718 145.963L188.672 146.052L188.626 146.141L188.585 146.219L188.549 146.283L188.503 146.372L188.456 146.46L188.41 146.549L188.363 146.637L188.329 146.698L188.285 146.779L188.238 146.867L188.191 146.956L188.144 147.044L188.102 147.122L188.065 147.186L188.018 147.274L187.971 147.362L187.923 147.45L187.876 147.537L187.841 147.598L187.796 147.679L187.748 147.767L187.701 147.854L187.653 147.942L187.609 148.02L187.572 148.083L187.524 148.171L187.476 148.258L187.428 148.345L187.379 148.433L187.343 148.493L187.298 148.573L187.25 148.661L187.201 148.748L187.152 148.835L187.108 148.912L187.07 148.975L187.021 149.062L186.972 149.149L186.923 149.236L186.874 149.323L186.837 149.383L186.791 149.463L186.741 149.549L186.692 149.636L186.642 149.722L186.597 149.8L186.559 149.862L186.509 149.948L186.459 150.035L186.409 150.121L186.359 150.207L186.321 150.268L186.275 150.346L186.224 150.433L186.174 150.519L186.123 150.605L186.077 150.682L186.039 150.743L185.988 150.829L185.937 150.915L185.886 151.001L185.835 151.087L185.797 151.147L185.749 151.225L185.698 151.311L185.647 151.396L185.595 151.482L185.548 151.558L185.509 151.619L185.457 151.705L185.405 151.79L185.354 151.875L185.302 151.961L185.263 152.021L185.215 152.098L185.163 152.183L185.11 152.268L185.058 152.353L185.01 152.429L184.971 152.49L184.918 152.575L184.865 152.659L184.812 152.744L184.76 152.829L184.72 152.889L184.671 152.965L184.618 153.05L184.565 153.134L184.512 153.219L184.463 153.295L184.423 153.354L184.37 153.439L184.316 153.523L184.262 153.607L184.209 153.691L184.168 153.751L184.119 153.827L184.065 153.911L184.011 153.995L183.957 154.079L183.907 154.154L183.867 154.213L183.812 154.297L183.758 154.381L183.704 154.465L183.649 154.548L183.608 154.607L183.558 154.683L183.503 154.766L183.448 154.849L183.393 154.933L183.343 155.008L183.302 155.067L183.246 155.15L183.191 155.233L183.136 155.316L183.08 155.399L183.039 155.458L182.988 155.532L182.932 155.615L182.877 155.698L182.821 155.781L182.769 155.856L182.728 155.914L182.672 155.997L182.616 156.079L182.559 156.162L182.503 156.244L182.461 156.303L182.409 156.376L182.353 156.459L182.296 156.541L182.24 156.623L182.187 156.698L182.145 156.755L182.088 156.837L182.031 156.919L181.974 157.001L181.917 157.083L181.874 157.142L181.822 157.214L181.765 157.296L181.707 157.378L181.65 157.459L181.596 157.534L181.554 157.59L181.496 157.672L181.439 157.753L181.381 157.835L181.323 157.916L181.279 157.974L181.226 158.046L181.168 158.127L181.11 158.208L181.051 158.289L180.997 158.364L180.954 158.419L180.896 158.5L180.837 158.581L180.778 158.662L180.72 158.742L180.675 158.8L180.622 158.872L180.563 158.952L180.504 159.033L180.445 159.113L180.39 159.187L180.346 159.242L180.287 159.322L180.227 159.402L180.168 159.483L180.108 159.563L180.063 159.62L180.009 159.691L179.949 159.771L179.889 159.851L179.829 159.93L179.773 160.004L179.729 160.058L179.669 160.138L179.609 160.218L179.549 160.297L179.488 160.376L179.442 160.434L179.388 160.504L179.327 160.583L179.266 160.662L179.206 160.741L179.149 160.814L179.104 160.868L179.043 160.947L178.982 161.026L178.921 161.105L178.86 161.184L178.813 161.241L178.758 161.31L178.697 161.389L178.635 161.467L178.574 161.546L178.516 161.619L178.471 161.672L178.409 161.75L178.348 161.828L178.286 161.907L178.224 161.985L178.176 162.042L178.12 162.11L178.058 162.188L177.996 162.266L177.934 162.344L177.875 162.416L177.83 162.468L177.767 162.546L177.705 162.624L177.642 162.701L177.579 162.779L177.531 162.836L177.474 162.903L177.412 162.98L177.349 163.058L177.285 163.135L177.226 163.207L177.18 163.258L177.117 163.336L177.053 163.413L176.99 163.49L176.926 163.566L176.877 163.623L176.82 163.689L176.757 163.766L176.693 163.843L176.629 163.919L176.569 163.991L176.523 164.042L176.458 164.118L176.394 164.195L176.33 164.271L176.266 164.347L176.216 164.403L176.158 164.469L176.094 164.545L176.029 164.621L175.965 164.697L175.903 164.768L175.857 164.818L175.792 164.894L175.727 164.97L175.662 165.045L175.597 165.121L175.546 165.177L175.489 165.242L175.423 165.317L175.358 165.392L175.292 165.468L175.23 165.538L175.183 165.588L175.118 165.663L175.052 165.738L174.986 165.813L174.92 165.888L174.869 165.943L174.811 166.007L174.745 166.082L174.678 166.157L174.612 166.231L174.549 166.301L174.502 166.35L174.436 166.425L174.369 166.499L174.303 166.573L174.236 166.648L174.184 166.702L174.125 166.766L174.058 166.84L173.991 166.914L173.924 166.988L173.861 167.058L173.813 167.106L173.746 167.179L173.679 167.253L173.611 167.327L173.544 167.4L173.491 167.455L173.432 167.517L173.364 167.591L173.297 167.664L173.229 167.737L173.164 167.807L173.116 167.854L173.048 167.927L172.98 168L172.912 168.073L172.844 168.146L172.79 168.2L172.731 168.262L172.662 168.334L172.594 168.407L172.526 168.48L172.46 168.548L172.412 168.595L172.343 168.667L172.274 168.74L172.206 168.812L172.137 168.884L172.082 168.938L172.022 168.999L171.953 169.071L171.884 169.143L171.815 169.214L171.748 169.283L171.7 169.329L171.63 169.4L171.561 169.472L171.491 169.543L171.422 169.615L171.367 169.668L171.306 169.728L171.236 169.8L171.167 169.871L171.097 169.942L171.029 170.01L170.98 170.055L170.91 170.126L170.84 170.197L170.77 170.267L170.7 170.338L170.644 170.391L170.583 170.451L170.512 170.521L170.442 170.592L170.371 170.662L170.303 170.729L170.254 170.774L170.183 170.844L170.112 170.914L170.041 170.984L169.97 171.054L169.913 171.107L169.852 171.165L169.781 171.235L169.709 171.305L169.638 171.374L169.569 171.441L169.519 171.485L169.448 171.554L169.376 171.624L169.305 171.693L169.233 171.762L169.176 171.814L169.114 171.872L169.042 171.941L168.97 172.01L168.898 172.079L168.828 172.145L168.778 172.188L168.706 172.257L168.634 172.326L168.561 172.394L168.489 172.463L168.431 172.515L168.368 172.572L168.296 172.64L168.223 172.708L168.151 172.776L168.08 172.842L168.03 172.884L167.957 172.952L167.884 173.02L167.811 173.088L167.738 173.156L167.679 173.207L167.616 173.263L167.543 173.331L167.469 173.398L167.396 173.466L167.325 173.531L167.274 173.572L167.2 173.64L167.127 173.707L167.053 173.774L166.979 173.841L166.92 173.892L166.857 173.947L166.783 174.014L166.709 174.081L166.635 174.147L166.562 174.212L166.512 174.253L166.437 174.319L166.363 174.386L166.289 174.452L166.214 174.518L166.154 174.569L166.09 174.623L166.016 174.689L165.941 174.755L165.866 174.821L165.793 174.885L165.742 174.925L165.667 174.991L165.592 175.056L165.517 175.122L165.442 175.187L165.381 175.237L165.317 175.291L165.242 175.356L165.167 175.421L165.091 175.486L165.017 175.55L164.966 175.589L164.89 175.654L164.815 175.719L164.739 175.784L164.663 175.849L164.602 175.898L164.537 175.951L164.461 176.015L164.385 176.08L164.309 176.144L164.235 176.207L164.183 176.245L164.107 176.31L164.03 176.374L163.954 176.438L163.878 176.502L163.815 176.551L163.751 176.602L163.674 176.666L163.597 176.73L163.521 176.793L163.445 176.856L163.393 176.894L163.316 176.957L163.239 177.02L163.162 177.083L163.085 177.147L163.023 177.195L162.957 177.246L162.88 177.309L162.803 177.372L162.725 177.435L162.649 177.496L162.597 177.533L162.519 177.596L162.442 177.658L162.364 177.721L162.287 177.783L162.223 177.831L162.158 177.881L162.08 177.943L162.002 178.006L161.924 178.068L161.847 178.128L161.794 178.165L161.716 178.227L161.638 178.288L161.56 178.35L161.481 178.412L161.417 178.459L161.351 178.508L161.273 178.57L161.194 178.631L161.116 178.692L161.038 178.752L160.985 178.788L160.906 178.849L160.828 178.91L160.749 178.971L160.67 179.032L160.605 179.079L160.539 179.127L160.46 179.187L160.38 179.248L160.301 179.308L160.223 179.368L160.17 179.403L160.09 179.463L160.011 179.523L159.931 179.583L159.852 179.643L159.786 179.69L159.72 179.737L159.64 179.797L159.56 179.856L159.481 179.916L159.401 179.975L159.348 180.009L159.268 180.069L159.188 180.128L159.108 180.187L159.028 180.246L158.962 180.292L158.895 180.339L158.814 180.398L158.734 180.456L158.654 180.515L158.574 180.573L158.52 180.607L158.44 180.665L158.359 180.724L158.278 180.782L158.198 180.841L158.131 180.886L158.064 180.932L157.983 180.99L157.902 181.048L157.821 181.106L157.74 181.163L157.686 181.196L157.605 181.254L157.524 181.311L157.443 181.369L157.361 181.426L157.294 181.471L157.227 181.516L157.145 181.573L157.063 181.63L156.982 181.687L156.9 181.744L156.847 181.777L156.765 181.833L156.683 181.89L156.601 181.947L156.519 182.003L156.451 182.048L156.383 182.092L156.301 182.148L156.219 182.204L156.137 182.261L156.055 182.317L156.001 182.348L155.919 182.404L155.836 182.46L155.754 182.516L155.671 182.572L155.603 182.615L155.535 182.659L155.452 182.714L155.369 182.769L155.287 182.825L155.204 182.88L155.149 182.911L155.067 182.966L154.984 183.021L154.901 183.076L154.818 183.131L154.748 183.174L154.68 183.216L154.597 183.271L154.514 183.326L154.43 183.38L154.347 183.435L154.292 183.465L154.209 183.519L154.125 183.574L154.042 183.628L153.958 183.682L153.888 183.724L153.82 183.766L153.736 183.819L153.652 183.873L153.568 183.927L153.484 183.98L153.429 184.011L153.345 184.063L153.261 184.117L153.177 184.17L153.093 184.223L153.023 184.265L152.954 184.306L152.87 184.359L152.785 184.412L152.701 184.464L152.616 184.517L152.56 184.547L152.477 184.599L152.392 184.651L152.307 184.703L152.223 184.756L152.152 184.797L152.083 184.837L151.998 184.889L151.913 184.941L151.828 184.993L151.743 185.045L151.686 185.074L151.602 185.125L151.517 185.176L151.432 185.228L151.347 185.279L151.275 185.32L151.206 185.359L151.121 185.41L151.035 185.461L150.95 185.512L150.864 185.563L150.807 185.592L150.723 185.642L150.637 185.692L150.552 185.743L150.466 185.794L150.393 185.834L150.324 185.872L150.238 185.922L150.152 185.972L150.066 186.022L149.98 186.072L149.922 186.101L149.838 186.149L149.752 186.199L149.666 186.249L149.58 186.299L149.506 186.338L149.437 186.375L149.35 186.425L149.264 186.474L149.178 186.523L149.091 186.572L149.033 186.6L148.948 186.648L148.861 186.697L148.775 186.746L148.688 186.795L148.614 186.833L148.545 186.869L148.458 186.918L148.371 186.966L148.284 187.015L148.197 187.063L148.138 187.091L148.053 187.137L147.966 187.185L147.879 187.233L147.792 187.281L147.717 187.319L147.647 187.354L147.56 187.402L147.473 187.45L147.385 187.497L147.298 187.545L147.238 187.571L147.153 187.617L147.066 187.664L146.978 187.711L146.89 187.758L146.815 187.796L146.745 187.83L146.657 187.877L146.57 187.924L146.482 187.97L146.394 188.017L146.334 188.043L146.248 188.088L146.16 188.134L146.072 188.18L145.984 188.226L145.909 188.263L145.838 188.296L145.75 188.342L145.662 188.388L145.573 188.433L145.485 188.479L145.425 188.505L145.339 188.549L145.25 188.594L145.162 188.639L145.073 188.684L144.997 188.721L144.927 188.753L144.838 188.798L144.749 188.843L144.661 188.887L144.572 188.932L144.511 188.958L144.425 189L144.336 189.044L144.247 189.089L144.158 189.133L144.081 189.169L144.011 189.2L143.921 189.244L143.832 189.288L143.743 189.332L143.654 189.376L143.592 189.4L143.506 189.442L143.417 189.485L143.327 189.529L143.238 189.572L143.161 189.607L143.09 189.638L143 189.681L142.911 189.724L142.821 189.767L142.731 189.809L142.669 189.834L142.583 189.874L142.493 189.917L142.403 189.959L142.313 190.002L142.236 190.036L142.165 190.066L142.075 190.108L141.985 190.15L141.895 190.192L141.804 190.234L141.742 190.257L141.656 190.297L141.565 190.339L141.475 190.38L141.385 190.422L141.306 190.455L141.235 190.484L141.145 190.525L141.054 190.566L140.964 190.607L140.873 190.648L140.811 190.671L140.724 190.71L140.633 190.751L140.542 190.791L140.452 190.832L140.373 190.865L140.302 190.892L140.211 190.933L140.12 190.973L140.029 191.013L139.938 191.053L139.875 191.076L139.788 191.113L139.697 191.153L139.606 191.192L139.515 191.232L139.435 191.264L139.364 191.291L139.273 191.331L139.181 191.37L139.09 191.409L138.999 191.448L138.935 191.47L138.848 191.506L138.757 191.545L138.665 191.584L138.573 191.623L138.494 191.654L138.422 191.68L138.331 191.719L138.239 191.757L138.147 191.795L138.056 191.833L137.991 191.855L137.904 191.89L137.812 191.928L137.72 191.966L137.628 192.003L137.548 192.034L137.477 192.059L137.385 192.097L137.293 192.134L137.201 192.171L137.108 192.208L137.044 192.229L136.956 192.264L136.864 192.301L136.772 192.337L136.68 192.374L136.599 192.404L136.527 192.429L136.435 192.465L136.343 192.501L136.25 192.538L136.158 192.574L136.093 192.594L136.005 192.627L135.912 192.663L135.82 192.699L135.727 192.735L135.646 192.764L135.574 192.788L135.481 192.823L135.389 192.859L135.296 192.894L135.203 192.929L135.138 192.949L135.05 192.981L134.957 193.016L134.864 193.051L134.771 193.086L134.689 193.114L134.618 193.137L134.524 193.172L134.431 193.206L134.338 193.24L134.245 193.275L134.179 193.294L134.091 193.325L133.998 193.359L133.905 193.393L133.811 193.427L133.729 193.455L133.657 193.476L133.564 193.51L133.471 193.543L133.377 193.577L133.283 193.61L133.217 193.629L133.129 193.659L133.036 193.692L132.942 193.725L132.848 193.758L132.765 193.785L132.694 193.806L132.6 193.838L132.506 193.871L132.412 193.903L132.319 193.935L132.252 193.953L132.164 193.982L132.07 194.015L131.976 194.047L131.882 194.078L131.799 194.105L131.727 194.125L131.633 194.156L131.539 194.188L131.445 194.219L131.351 194.251L131.284 194.268L131.195 194.296L131.101 194.327L131.007 194.358L130.913 194.389L130.829 194.415L130.757 194.434L130.663 194.464L130.568 194.495L130.474 194.525L130.379 194.556L130.312 194.573L130.224 194.599L130.129 194.63L130.035 194.66L129.94 194.69L129.856 194.714L129.784 194.733L129.69 194.762L129.595 194.792L129.5 194.821L129.405 194.851L129.337 194.867L129.249 194.893L129.154 194.922L129.059 194.951L128.964 194.98L128.88 195.004L128.808 195.021L128.713 195.05L128.618 195.079L128.523 195.107L128.428 195.136L128.36 195.151L128.272 195.176L128.177 195.204L128.081 195.232L127.986 195.26L127.901 195.283L127.83 195.3L127.734 195.328L127.639 195.355L127.544 195.383L127.448 195.41L127.38 195.425L127.291 195.449L127.196 195.476L127.101 195.503L127.005 195.53L126.919 195.553L126.848 195.568L126.752 195.595L126.657 195.622L126.561 195.648L126.466 195.675L126.397 195.689L126.308 195.712L126.213 195.738L126.117 195.764L126.021 195.79L125.935 195.811L125.864 195.826L125.768 195.852L125.672 195.878L125.576 195.903L125.48 195.929L125.411 195.942L125.323 195.964L125.227 195.989L125.131 196.014L125.035 196.039L124.948 196.06L124.877 196.074L124.781 196.099L124.685 196.123L124.589 196.148L124.493 196.173L124.423 196.185L124.335 196.206L124.239 196.23L124.142 196.255L124.046 196.279L123.959 196.299L123.888 196.312L123.792 196.335L123.696 196.359L123.599 196.383L123.503 196.406L123.433 196.418L123.345 196.438L123.248 196.461L123.152 196.484L123.055 196.508L122.968 196.527L122.897 196.539L122.8 196.562L122.704 196.584L122.607 196.607L122.511 196.629L122.44 196.641L122.352 196.66L122.255 196.682L122.159 196.704L122.062 196.726L121.974 196.744L121.903 196.756L121.807 196.778L121.71 196.799L121.613 196.821L121.516 196.842L121.445 196.853L121.357 196.871L121.26 196.892L121.164 196.913L121.067 196.934L120.978 196.952L120.908 196.962L120.811 196.983L120.714 197.004L120.617 197.024L120.52 197.045L120.449 197.055L120.361 197.072L120.263 197.092L120.166 197.112L120.069 197.132L119.981 197.149L119.91 197.159L119.813 197.178L119.716 197.198L119.619 197.218L119.521 197.237L119.45 197.247L119.362 197.262L119.265 197.282L119.167 197.301L119.07 197.32L118.981 197.336L118.911 197.345L118.813 197.363L118.716 197.382L118.619 197.401L118.521 197.419L118.449 197.428L118.361 197.443L118.264 197.461L118.167 197.479L118.069 197.497L117.98 197.512L117.909 197.52L117.812 197.538L117.714 197.556L117.617 197.573L117.519 197.591L117.447 197.599L117.359 197.613L117.262 197.63L117.164 197.647L117.067 197.664L116.977 197.678L116.907 197.685L116.809 197.702L116.711 197.719L116.613 197.735L116.516 197.752L116.443 197.759L116.356 197.772L116.258 197.788L116.16 197.805L116.062 197.821L115.972 197.834L115.902 197.84L115.804 197.856L115.706 197.872L115.609 197.887L115.511 197.903L115.438 197.909L115.35 197.921L115.253 197.937L115.155 197.952L115.057 197.967L114.966 197.979L114.896 197.985L114.798 197.999L114.7 198.014L114.602 198.029L114.504 198.043L114.431 198.049L114.344 198.06L114.246 198.074L114.148 198.088L114.05 198.103L113.959 198.114L113.889 198.119L113.791 198.133L113.693 198.146L113.595 198.16L113.497 198.173L113.423 198.179L113.336 198.189L113.238 198.202L113.14 198.215L113.041 198.228L112.95 198.239L112.881 198.243L112.783 198.255L112.684 198.268L112.586 198.281L112.488 198.293L112.414 198.298L112.327 198.307L112.229 198.319L112.13 198.331L112.032 198.343L111.941 198.353L111.871 198.356L111.773 198.368L111.675 198.379L111.576 198.391L111.478 198.402L111.404 198.406L111.317 198.414L111.219 198.426L111.12 198.437L111.022 198.448L110.93 198.457L110.861 198.459L110.762 198.47L110.664 198.48L110.566 198.491L110.467 198.502Z" fill="white"/>
</svg>
