<svg width="200" height="200" viewBox="0 0 200 200" fill="none" xmlns="http://www.w3.org/2000/svg">
<path d="M121.343 3.73899L121.401 3.79784L121.46 3.85672L121.519 3.88769L121.577 3.93727L121.636 3.99635L121.695 4.05554L121.753 4.11473L121.812 4.16481L121.87 4.19587L121.929 4.25523L121.987 4.31469L122.046 4.37422L122.104 4.43375L122.163 4.46559L122.221 4.51561L122.28 4.57531L122.338 4.63515L122.396 4.69502L122.455 4.74595L122.513 4.77743L122.571 4.83746L122.629 4.89752L122.688 4.95772L122.746 5.01793L122.804 5.0506L122.862 5.10105L122.92 5.16142L122.978 5.22185L123.037 5.2824L123.095 5.33425L123.153 5.36606L123.211 5.42679L123.269 5.4875L123.327 5.5483L123.385 5.60918L123.443 5.64274L123.5 5.69356L123.558 5.75461L123.616 5.81566L123.674 5.87684L123.732 5.9296L123.79 5.96178L123.847 6.02315L123.905 6.08453L123.963 6.14592L124.021 6.20747L124.078 6.24194L124.136 6.29311L124.194 6.35483L124.251 6.41655L124.309 6.47832L124.366 6.53199L124.424 6.56459L124.481 6.62654L124.539 6.68859L124.596 6.75064L124.654 6.81277L124.711 6.84816L124.768 6.89972L124.826 6.96204L124.883 7.02443L124.94 7.08681L124.998 7.14135L125.055 7.17438L125.112 7.23693L125.169 7.29962L125.227 7.36234L125.284 7.42505L125.341 7.46134L125.398 7.51332L125.455 7.57622L125.512 7.63926L125.569 7.70231L125.626 7.75768L125.683 7.79112L125.74 7.85433L125.797 7.9176L125.854 7.98098L125.911 8.04435L125.968 8.08147L126.024 8.13386L126.081 8.1974L126.138 8.26103L126.195 8.32475L126.251 8.38097L126.308 8.41478L126.365 8.47865L126.421 8.54252L126.478 8.60652L126.535 8.67056L126.591 8.70849L126.648 8.76128L126.704 8.82549L126.761 8.8897L126.817 8.95406L126.873 9.01118L126.93 9.04532L126.986 9.10984L127.043 9.17436L127.099 9.23894L127.155 9.30362L127.211 9.34245L127.268 9.39558L127.324 9.46042L127.38 9.52527L127.436 9.59021L127.492 9.64823L127.548 9.68273L127.604 9.74786L127.66 9.81303L127.716 9.8782L127.772 9.94349L127.828 9.98323L127.884 10.0367L127.94 10.1022L127.996 10.1677L128.052 10.2332L128.108 10.2921L128.163 10.327L128.219 10.3927L128.275 10.4585L128.331 10.5243L128.386 10.5902L128.442 10.6308L128.498 10.6846L128.553 10.7507L128.609 10.8168L128.664 10.8829L128.72 10.9427L128.775 10.978L128.831 11.0443L128.886 11.1107L128.941 11.1771L128.997 11.2436L129.052 11.2851L129.107 11.3393L129.163 11.4059L129.218 11.4727L129.273 11.5395L129.328 11.6L129.383 11.6357L129.439 11.7026L129.494 11.7696L129.549 11.8367L129.604 11.9038L129.659 11.946L129.714 12.0007L129.769 12.0679L129.824 12.1352L129.878 12.2027L129.933 12.2641L129.988 12.3001L130.043 12.3676L130.098 12.4352L130.152 12.5029L130.207 12.5706L130.262 12.6137L130.316 12.6687L130.371 12.7366L130.426 12.8045L130.48 12.8725L130.535 12.9348L130.589 12.9711L130.644 13.0393L130.698 13.1075L130.752 13.1757L130.807 13.2441L130.861 13.2881L130.915 13.3433L130.97 13.4118L131.024 13.4804L131.078 13.5489L131.132 13.6121L131.186 13.6488L131.24 13.7175L131.295 13.7864L131.349 13.8552L131.403 13.9241L131.457 13.9689L131.511 14.0246L131.565 14.0937L131.618 14.1628L131.672 14.2319L131.726 14.2959L131.78 14.333L131.834 14.4023L131.887 14.4717L131.941 14.5412L131.995 14.6106L132.048 14.6564L132.102 14.7123L132.156 14.782L132.209 14.8517L132.263 14.9215L132.316 14.9863L132.37 15.0237L132.423 15.0936L132.476 15.1636L132.53 15.2337L132.583 15.3037L132.636 15.3502L132.689 15.4066L132.743 15.4768L132.796 15.5471L132.849 15.6175L132.902 15.6831L132.955 15.7209L133.008 15.7914L133.061 15.8619L133.114 15.9326L133.167 16.0033L133.22 16.0505L133.273 16.1073L133.326 16.1781L133.379 16.249L133.432 16.3199L133.484 16.3864L133.537 16.4244L133.59 16.4956L133.642 16.5667L133.695 16.6379L133.748 16.7092L133.8 16.7573L133.853 16.8143L133.905 16.8858L133.958 16.9572L134.01 17.0287L134.062 17.096L134.115 17.1344L134.167 17.2061L134.219 17.2778L134.272 17.3496L134.324 17.4214L134.376 17.4704L134.428 17.5277L134.48 17.5998L134.532 17.6718L134.584 17.7439L134.636 17.812L134.688 17.8507L134.74 17.9229L134.792 17.9953L134.844 18.0676L134.896 18.14L134.948 18.1898L134.999 18.2475L135.051 18.32L135.103 18.3927L135.154 18.4653L135.206 18.5342L135.258 18.5733L135.309 18.6461L135.361 18.719L135.412 18.7919L135.464 18.8648L135.515 18.9155L135.566 18.9735L135.618 19.0465L135.669 19.1198L135.72 19.193L135.772 19.2627L135.823 19.3021L135.874 19.3755L135.925 19.4489L135.976 19.5224L136.027 19.5959L136.078 19.6473L136.129 19.7056L136.18 19.7793L136.231 19.853L136.282 19.9268L136.333 19.9973L136.384 20.037L136.434 20.111L136.485 20.185L136.536 20.259L136.586 20.3331L136.637 20.3853L136.688 20.4439L136.738 20.5182L136.789 20.5924L136.839 20.6668L136.89 20.7381L136.94 20.7781L136.99 20.8526L137.041 20.9272L137.091 21.0017L137.141 21.0764L137.191 21.1294L137.242 21.1883L137.292 21.2632L137.342 21.338L137.392 21.4129L137.442 21.485L137.492 21.5253L137.542 21.6004L137.592 21.6755L137.642 21.7506L137.691 21.8258L137.741 21.8796L137.791 21.9388L137.841 22.0142L137.89 22.0896L137.94 22.165L137.99 22.2379L138.039 22.2785L138.089 22.3541L138.138 22.4297L138.188 22.5054L138.237 22.5811L138.287 22.6357L138.336 22.6953L138.385 22.7711L138.435 22.8471L138.484 22.923L138.533 22.9967L138.582 23.0377L138.631 23.1138L138.68 23.19L138.729 23.2662L138.778 23.3424L138.827 23.3978L138.876 23.4577L138.925 23.5341L138.974 23.6105L139.023 23.6871L139.072 23.7615L139.12 23.8027L139.169 23.8794L139.218 23.9561L139.266 24.0329L139.315 24.1097L139.363 24.1658L139.412 24.226L139.46 24.3029L139.509 24.3799L139.557 24.457L139.605 24.5322L139.654 24.5737L139.702 24.6509L139.75 24.7281L139.798 24.8054L139.847 24.8828L139.895 24.9397L139.943 25.0001L139.991 25.0776L140.039 25.1551L140.087 25.2327L140.135 25.3087L140.182 25.3504L140.23 25.4282L140.278 25.5059L140.326 25.5837L140.374 25.6616L140.421 25.7193L140.469 25.7799L140.516 25.858L140.564 25.936L140.611 26.0141L140.659 26.0909L140.706 26.133L140.754 26.2112L140.801 26.2895L140.848 26.3678L140.896 26.4462L140.943 26.5047L140.99 26.5656L141.037 26.6441L141.084 26.7227L141.131 26.8013L141.178 26.8789L141.225 26.9212L141.272 26.9999L141.319 27.0787L141.366 27.1576L141.413 27.2364L141.46 27.2957L141.506 27.3569L141.553 27.4359L141.6 27.515L141.646 27.5941L141.693 27.6724L141.739 27.715L141.786 27.7943L141.832 27.8736L141.879 27.953L141.925 28.0324L141.971 28.0923L142.017 28.1538L142.064 28.2334L142.11 28.3129L142.156 28.3926L142.202 28.4716L142.248 28.5145L142.294 28.5943L142.34 28.6741L142.386 28.7539L142.432 28.8338L142.478 28.8945L142.524 28.9563L142.569 29.0363L142.615 29.1164L142.661 29.1966L142.706 29.2764L142.752 29.3194L142.798 29.3998L142.843 29.4801L142.889 29.5604L142.934 29.6408L142.979 29.7023L143.025 29.7643L143.07 29.8448L143.115 29.9254L143.161 30.006L143.206 30.0866L143.251 30.1299L143.296 30.2107L143.341 30.2915L143.386 30.3724L143.431 30.4533L143.476 30.5155L143.521 30.5777L143.566 30.6587L143.61 30.7398L143.655 30.8209L143.7 30.9021L143.744 30.9459L143.789 31.027L143.834 31.1084L143.878 31.1897L143.923 31.2711L143.967 31.334L144.011 31.3965L144.056 31.478L144.1 31.5596L144.144 31.6412L144.189 31.7229L144.233 31.7675L144.277 31.8488L144.321 31.9306L144.365 32.0124L144.409 32.0943L144.453 32.158L144.497 32.2207L144.541 32.3027L144.584 32.3847L144.628 32.4668L144.672 32.5489L144.716 32.5943L144.759 32.6759L144.803 32.7581L144.846 32.8404L144.89 32.9228L144.933 32.9871L144.977 33.0501L145.02 33.1326L145.064 33.2151L145.107 33.2977L145.15 33.3803L145.193 33.4263L145.236 33.5082L145.279 33.5909L145.323 33.6736L145.366 33.7565L145.409 33.8216L145.451 33.8848L145.494 33.9677L145.537 34.0507L145.58 34.1338L145.623 34.2168L145.665 34.2635L145.708 34.3456L145.751 34.4288L145.793 34.5121L145.836 34.5954L145.878 34.6612L145.921 34.7246L145.963 34.808L146.005 34.8915L146.048 34.9749L146.09 35.0585L146.132 35.1059L146.174 35.1882L146.216 35.2719L146.258 35.3556L146.3 35.4394L146.342 35.5059L146.384 35.5695L146.426 35.6534L146.468 35.7373L146.51 35.8213L146.552 35.9053L146.593 35.9534L146.635 36.0359L146.676 36.12L146.718 36.2042L146.76 36.2884L146.801 36.3556L146.842 36.4195L146.884 36.5038L146.925 36.5882L146.966 36.6726L147.008 36.757L147.049 36.8059L147.09 36.8886L147.131 36.9732L147.172 37.0578L147.213 37.1424L147.254 37.2103L147.295 37.2744L147.336 37.3592L147.377 37.444L147.417 37.5289L147.458 37.6138L147.499 37.6633L147.539 37.7462L147.58 37.8312L147.62 37.9163L147.661 38.0014L147.701 38.07L147.742 38.1343L147.782 38.2195L147.822 38.3047L147.862 38.39L147.903 38.4754L147.943 38.5256L147.983 38.6087L148.023 38.6942L148.063 38.7797L148.103 38.8652L148.143 38.9345L148.183 38.9989L148.222 39.0846L148.262 39.1703L148.302 39.2561L148.342 39.3418L148.381 39.3927L148.421 39.476L148.46 39.5619L148.5 39.6478L148.539 39.7339L148.579 39.8038L148.618 39.8684L148.657 39.9545L148.696 40.0407L148.736 40.1268L148.775 40.2131L148.814 40.2646L148.853 40.3481L148.892 40.4344L148.931 40.5208L148.97 40.6072L149.008 40.6779L149.047 40.7426L149.086 40.8292L149.125 40.9158L149.163 41.0023L149.202 41.089L149.24 41.1412L149.279 41.2249L149.317 41.3117L149.356 41.3984L149.394 41.4852L149.432 41.5566L149.471 41.6216L149.509 41.7085L149.547 41.7955L149.585 41.8825L149.623 41.9696L149.661 42.0225L149.699 42.1063L149.737 42.1935L149.775 42.2807L149.813 42.368L149.851 42.4399L149.888 42.5051L149.926 42.5924L149.964 42.6798L150.001 42.7673L150.039 42.8547L150.076 42.9083L150.113 42.9923L150.151 43.0799L150.188 43.1675L150.225 43.2552L150.263 43.3278L150.3 43.3931L150.337 43.4809L150.374 43.5687L150.411 43.6566L150.448 43.7444L150.485 43.7986L150.522 43.8828L150.558 43.9708L150.595 44.0588L150.632 44.1469L150.669 44.2201L150.705 44.2856L150.742 44.3738L150.778 44.462L150.815 44.5503L150.851 44.6386L150.888 44.6934L150.924 44.7777L150.96 44.8661L150.996 44.9545L151.032 45.043L151.069 45.1169L151.105 45.1825L151.141 45.2711L151.177 45.3597L151.212 45.4484L151.248 45.5371L151.284 45.5926L151.32 45.677L151.355 45.7659L151.391 45.8547L151.427 45.9435L151.462 46.0181L151.498 46.0838L151.533 46.1728L151.569 46.2618L151.604 46.3508L151.639 46.4399L151.674 46.4961L151.71 46.5807L151.745 46.6698L151.78 46.759L151.815 46.8483L151.85 46.9235L151.885 46.9894L151.92 47.0787L151.954 47.1681L151.989 47.2575L152.024 47.347L152.059 47.4038L152.093 47.4885L152.128 47.5781L152.162 47.6677L152.197 47.7573L152.231 47.8331L152.265 47.8992L152.3 47.9889L152.334 48.0787L152.368 48.1685L152.402 48.2583L152.436 48.3157L152.47 48.4006L152.504 48.4905L152.538 48.5805L152.572 48.6705L152.606 48.7469L152.64 48.8131L152.674 48.9032L152.707 48.9933L152.741 49.0835L152.774 49.1737L152.808 49.2317L152.841 49.3167L152.875 49.407L152.908 49.4973L152.941 49.5877L152.975 49.6648L153.008 49.7311L153.041 49.8216L153.074 49.912L153.107 50.0026L153.14 50.0932L153.173 50.1518L153.206 50.2369L153.239 50.3276L153.272 50.4183L153.304 50.509L153.337 50.5867L153.37 50.6531L153.402 50.7439L153.435 50.8348L153.467 50.9257L153.499 51.0166L153.532 51.0758L153.564 51.1611L153.596 51.2521L153.629 51.3431L153.661 51.4343L153.693 51.5125L153.725 51.579L153.757 51.6702L153.789 51.7614L153.82 51.8527L153.852 51.944L153.884 52.0038L153.916 52.0891L153.947 52.1805L153.979 52.2719L154.011 52.3634L154.042 52.4422L154.073 52.5088L154.105 52.6004L154.136 52.692L154.167 52.7835L154.199 52.8752L154.23 52.9356L154.261 53.021L154.292 53.1128L154.323 53.2045L154.354 53.2963L154.385 53.3757L154.416 53.4425L154.446 53.5343L154.477 53.6263L154.508 53.7182L154.538 53.8102L154.569 53.8712L154.599 53.9567L154.63 54.0488L154.66 54.1409L154.691 54.233L154.721 54.313L154.751 54.3798L154.781 54.472L154.811 54.5643L154.841 54.6566L154.872 54.7489L154.901 54.8105L154.931 54.8961L154.961 54.9884L154.991 55.0809L155.021 55.1733L155.05 55.2539L155.08 55.3209L155.11 55.4134L155.139 55.5059L155.169 55.5986L155.198 55.6912L155.227 55.7533L155.257 55.8391L155.286 55.9318L155.315 56.0245L155.344 56.1173L155.373 56.1985L155.402 56.2654L155.431 56.3583L155.46 56.4512L155.489 56.5441L155.518 56.6371L155.547 56.6998L155.575 56.7856L155.604 56.8786L155.633 56.9717L155.661 57.0648L155.689 57.1465L155.718 57.2136L155.746 57.3068L155.775 57.4L155.803 57.4932L155.831 57.5865L155.859 57.6497L155.887 57.7356L155.915 57.829L155.943 57.9223L155.971 58.0157L155.999 58.098L156.027 58.1651L156.054 58.2587L156.082 58.3522L156.11 58.4457L156.137 58.5393L156.165 58.6031L156.192 58.689L156.22 58.7827L156.247 58.8764L156.274 58.9701L156.301 59.0529L156.329 59.1201L156.356 59.2139L156.383 59.3077L156.41 59.4015L156.437 59.4954L156.464 59.5598L156.491 59.6458L156.517 59.7397L156.544 59.8337L156.571 59.9277L156.597 60.0111L156.624 60.0783L156.65 60.1724L156.677 60.2665L156.703 60.3607L156.729 60.4549L156.756 60.5198L156.782 60.6058L156.808 60.7L156.834 60.7943L156.86 60.8886L156.886 60.9725L156.912 61.0398L156.938 61.1342L156.964 61.2286L156.99 61.323L157.015 61.4174L157.041 61.4829L157.066 61.569L157.092 61.6635L157.117 61.7581L157.143 61.8527L157.168 61.9371L157.193 62.0044L157.219 62.0991L157.244 62.1938L157.269 62.2885L157.294 62.3832L157.319 62.4492L157.344 62.5353L157.369 62.6301L157.394 62.725L157.418 62.8198L157.443 62.9048L157.468 62.9721L157.492 63.0671L157.517 63.162L157.541 63.257L157.566 63.352L157.59 63.4185L157.615 63.5046L157.639 63.5997L157.663 63.6948L157.687 63.79L157.711 63.8754L157.735 63.9428L157.759 64.038L157.783 64.1332L157.807 64.2285L157.831 64.3238L157.855 64.3908L157.878 64.4769L157.902 64.5723L157.925 64.6676L157.949 64.763L157.972 64.849L157.996 64.9164L158.019 65.0119L158.042 65.1074L158.065 65.2029L158.089 65.2984L158.112 65.3659L158.135 65.4521L158.158 65.5477L158.181 65.6433L158.203 65.739L158.226 65.8255L158.249 65.8928L158.272 65.9886L158.294 66.0843L158.317 66.1801L158.339 66.2759L158.362 66.3439L158.384 66.43L158.406 66.5259L158.429 66.6218L158.451 66.7177L158.473 66.8047L158.495 66.8721L158.517 66.968L158.539 67.064L158.561 67.16L158.583 67.2561L158.605 67.3246L158.627 67.4107L158.648 67.5068L158.67 67.603L158.691 67.6991L158.713 67.7866L158.734 67.854L158.756 67.9502L158.777 68.0464L158.798 68.1427L158.819 68.2389L158.841 68.3079L158.862 68.3941L158.883 68.4904L158.904 68.5868L158.925 68.6832L158.945 68.7711L158.966 68.8385L158.987 68.9349L159.008 69.0314L159.028 69.1279L159.049 69.2244L159.069 69.2938L159.09 69.38L159.11 69.4765L159.13 69.5731L159.151 69.6697L159.171 69.7582L159.191 69.8255L159.211 69.9222L159.231 70.0189L159.251 70.1156L159.271 70.2123L159.291 70.2822L159.311 70.3684L159.33 70.4651L159.35 70.562L159.37 70.6588L159.389 70.7477L159.409 70.815L159.428 70.9119L159.447 71.0088L159.467 71.1058L159.486 71.2027L159.505 71.2731L159.524 71.3592L159.543 71.4562L159.562 71.5532L159.581 71.6502L159.6 71.7396L159.619 71.8069L159.638 71.904L159.656 72.0011L159.675 72.0983L159.694 72.1954L159.712 72.2662L159.73 72.3523L159.749 72.4495L159.767 72.5467L159.785 72.644L159.804 72.7338L159.822 72.801L159.84 72.8984L159.858 72.9957L159.876 73.093L159.894 73.1904L159.912 73.2617L159.93 73.3477L159.947 73.4451L159.965 73.5425L159.983 73.64L160 73.7302L160.018 73.7974L160.035 73.8949L160.052 73.9925L160.07 74.09L160.087 74.1876L160.104 74.2593L160.121 74.3452L160.138 74.4428L160.155 74.5404L160.172 74.6381L160.189 74.7288L160.206 74.7959L160.223 74.8936L160.24 74.9913L160.256 75.0891L160.273 75.1868L160.289 75.2589L160.306 75.3448L160.322 75.4426L160.338 75.5404L160.355 75.6383L160.371 75.7294L160.387 75.7965L160.403 75.8943L160.419 75.9922L160.435 76.0901L160.451 76.1881L160.467 76.2606L160.483 76.3465L160.499 76.4444L160.514 76.5424L160.53 76.6404L160.545 76.7319L160.561 76.799L160.576 76.897L160.592 76.9951L160.607 77.0932L160.622 77.1913L160.637 77.2643L160.653 77.35L160.668 77.4482L160.683 77.5463L160.698 77.6445L160.712 77.7364L160.727 77.8034L160.742 77.9016L160.757 77.9998L160.771 78.0981L160.786 78.1963L160.8 78.2697L160.815 78.3554L160.829 78.4537L160.844 78.552L160.858 78.6504L160.872 78.7427L160.886 78.8096L160.9 78.9079L160.914 79.0063L160.928 79.1047L160.942 79.2031L160.956 79.2769L160.97 79.3625L160.984 79.461L160.997 79.5595L161.011 79.6579L161.024 79.7507L161.038 79.8175L161.051 79.916L161.065 80.0145L161.078 80.1131L161.091 80.2117L161.104 80.2859L161.117 80.3714L161.13 80.47L161.143 80.5686L161.156 80.6672L161.169 80.7604L161.182 80.827L161.195 80.9257L161.207 81.0244L161.22 81.1231L161.232 81.2218L161.245 81.2964L161.257 81.3818L161.27 81.4805L161.282 81.5793L161.294 81.678L161.306 81.7716L161.319 81.8381L161.331 81.937L161.343 82.0358L161.354 82.1346L161.366 82.2335L161.378 82.3084L161.39 82.3937L161.402 82.4926L161.413 82.5915L161.425 82.6904L161.436 82.7843L161.448 82.8507L161.459 82.9497L161.47 83.0486L161.482 83.1476L161.493 83.2466L161.504 83.3219L161.515 83.407L161.526 83.506L161.537 83.6051L161.548 83.7041L161.559 83.7984L161.569 83.8647L161.58 83.9638L161.591 84.0628L161.601 84.1619L161.612 84.261L161.622 84.3367L161.633 84.4217L161.643 84.5209L161.653 84.62L161.664 84.7191L161.674 84.8138L161.684 84.88L161.694 84.9791L161.704 85.0783L161.714 85.1775L161.723 85.2767L161.733 85.3528L161.743 85.4377L161.753 85.5369L161.762 85.6361L161.772 85.7354L161.781 85.8304L161.791 85.8964L161.8 85.9957L161.809 86.095L161.818 86.1943L161.828 86.2936L161.837 86.3701L161.846 86.4548L161.855 86.5541L161.863 86.6535L161.872 86.7528L161.881 86.8481L161.89 86.9141L161.899 87.0135L161.907 87.1128L161.916 87.2123L161.924 87.3117L161.932 87.3884L161.941 87.473L161.949 87.5724L161.957 87.6719L161.965 87.7713L161.974 87.867L161.982 87.9328L161.99 88.0322L161.998 88.1317L162.005 88.2312L162.013 88.3307L162.021 88.4078L162.029 88.4922L162.036 88.5917L162.044 88.6913L162.051 88.7908L162.059 88.8868L162.066 88.9524L162.073 89.052L162.081 89.1515L162.088 89.2511L162.095 89.3507L162.102 89.4281L162.109 89.5124L162.116 89.612L162.123 89.7115L162.129 89.8112L162.136 89.9075L162.143 89.9729L162.149 90.0725L162.156 90.1722L162.162 90.2718L162.169 90.3715L162.175 90.4492L162.182 90.5333L162.188 90.633L162.194 90.7327L162.2 90.8324L162.206 90.929L162.212 90.9942L162.218 91.094L162.224 91.1937L162.23 91.2934L162.235 91.3931L162.241 91.4711L162.247 91.555L162.252 91.6548L162.258 91.7545L162.263 91.8543L162.269 91.9512L162.274 92.0163L162.279 92.116L162.284 92.2158L162.29 92.3156L162.295 92.4154L162.3 92.4937L162.305 92.5774L162.309 92.6772L162.314 92.777L162.319 92.8768L162.324 92.9741L162.328 93.0389L162.333 93.1388L162.337 93.2386L162.342 93.3384L162.346 93.4382L162.351 93.5169L162.355 93.6004L162.359 93.7003L162.363 93.8001L162.367 93.9L162.371 93.9975L162.375 94.0622L162.379 94.162L162.383 94.2619L162.387 94.3618L162.39 94.4617L162.394 94.5406L162.398 94.6239L162.401 94.7238L162.405 94.8237L162.408 94.9236L162.411 95.0214L162.415 95.0859L162.418 95.1858L162.421 95.2857L162.424 95.3856L162.427 95.4855L162.43 95.5647L162.433 95.6479L162.436 95.7478L162.439 95.8477L162.441 95.9476L162.444 96.0457L162.446 96.11L162.449 96.2099L162.452 96.3099L162.454 96.4098L162.456 96.5097L162.459 96.5892L162.461 96.6721L162.463 96.7721L162.465 96.872L162.467 96.972L162.469 97.0703L162.471 97.1344L162.473 97.2343L162.475 97.3343L162.476 97.4343L162.478 97.5342L162.48 97.6139L162.481 97.6966L162.483 97.7966L162.484 97.8966L162.485 97.9966L162.487 98.0952L162.488 98.159L162.489 98.259L162.49 98.3589L162.491 98.4589L162.492 98.5589L162.493 98.6389L162.494 98.7213L162.495 98.8213L162.496 98.9213L162.496 99.0213L162.497 99.1201L162.498 99.1838L162.498 99.2837L162.499 99.3837L162.499 99.4837L162.499 99.5837L162.499 99.6639L162.5 99.7461L162.5 99.8461L162.5 99.9461L162.5 100.046L162.5 100.145L162.5 100.209L162.5 100.309L162.499 100.409L162.499 100.508L162.499 100.608L162.498 100.689L162.498 100.771L162.497 100.871L162.497 100.971L162.496 101.071L162.495 101.17L162.495 101.233L162.494 101.333L162.493 101.433L162.492 101.533L162.491 101.633L162.49 101.714L162.489 101.796L162.487 101.896L162.486 101.996L162.485 102.096L162.483 102.195L162.482 102.258L162.48 102.358L162.479 102.458L162.477 102.558L162.475 102.658L162.474 102.739L162.472 102.82L162.47 102.92L162.468 103.02L162.466 103.12L162.464 103.22L162.462 103.283L162.46 103.383L162.457 103.483L162.455 103.582L162.453 103.682L162.45 103.764L162.448 103.845L162.445 103.945L162.443 104.045L162.44 104.145L162.437 104.244L162.434 104.307L162.431 104.407L162.429 104.507L162.426 104.607L162.422 104.707L162.419 104.788L162.416 104.869L162.413 104.969L162.41 105.069L162.406 105.169L162.403 105.268L162.399 105.331L162.396 105.431L162.392 105.531L162.389 105.63L162.385 105.73L162.381 105.812L162.377 105.893L162.373 105.992L162.369 106.092L162.365 106.192L162.361 106.292L162.357 106.355L162.353 106.454L162.348 106.554L162.344 106.654L162.34 106.754L162.335 106.836L162.331 106.916L162.326 107.016L162.321 107.115L162.317 107.215L162.312 107.315L162.307 107.378L162.302 107.477L162.297 107.577L162.292 107.677L162.287 107.777L162.282 107.859L162.277 107.939L162.271 108.038L162.266 108.138L162.261 108.238L162.255 108.338L162.25 108.401L162.244 108.5L162.238 108.599L162.233 108.699L162.227 108.799L162.221 108.881L162.215 108.961L162.209 109.06L162.203 109.16L162.197 109.26L162.191 109.359L162.185 109.423L162.178 109.521L162.172 109.621L162.166 109.721L162.159 109.82L162.153 109.903L162.146 109.982L162.139 110.082L162.133 110.181L162.126 110.281L162.119 110.38L162.112 110.444L162.105 110.542L162.098 110.642L162.091 110.741L162.084 110.841L162.077 110.923L162.07 111.003L162.062 111.102L162.055 111.202L162.047 111.301L162.04 111.401L162.032 111.465L162.025 111.562L162.017 111.662L162.009 111.761L162.001 111.861L161.994 111.943L161.986 112.022L161.978 112.122L161.97 112.221L161.961 112.321L161.953 112.42L161.945 112.484L161.937 112.581L161.928 112.681L161.92 112.78L161.911 112.88L161.903 112.963L161.894 113.041L161.885 113.14L161.877 113.24L161.868 113.339L161.859 113.438L161.85 113.503L161.841 113.6L161.832 113.699L161.823 113.798L161.814 113.898L161.805 113.981L161.795 114.059L161.786 114.158L161.776 114.257L161.767 114.356L161.757 114.456L161.748 114.52L161.738 114.617L161.728 114.716L161.719 114.815L161.709 114.914L161.699 114.997L161.689 115.075L161.679 115.174L161.669 115.273L161.658 115.373L161.648 115.472L161.638 115.536L161.628 115.633L161.617 115.732L161.607 115.831L161.596 115.93L161.585 116.013L161.575 116.09L161.564 116.19L161.553 116.289L161.542 116.388L161.532 116.487L161.521 116.551L161.51 116.647L161.498 116.746L161.487 116.845L161.476 116.944L161.465 117.028L161.453 117.105L161.442 117.203L161.431 117.302L161.419 117.401L161.407 117.5L161.396 117.565L161.384 117.66L161.372 117.759L161.36 117.858L161.349 117.957L161.337 118.041L161.325 118.117L161.312 118.216L161.3 118.315L161.288 118.414L161.276 118.512L161.264 118.577L161.251 118.672L161.239 118.771L161.226 118.87L161.214 118.968L161.201 119.052L161.188 119.128L161.175 119.227L161.163 119.326L161.15 119.424L161.137 119.523L161.124 119.588L161.111 119.683L161.098 119.781L161.084 119.88L161.071 119.978L161.058 120.062L161.044 120.138L161.031 120.236L161.017 120.335L161.004 120.433L160.99 120.532L160.977 120.597L160.963 120.691L160.949 120.79L160.935 120.888L160.921 120.987L160.907 121.07L160.893 121.146L160.879 121.244L160.865 121.343L160.851 121.441L160.836 121.539L160.822 121.604L160.808 121.698L160.793 121.797L160.779 121.895L160.764 121.993L160.749 122.077L160.735 122.152L160.72 122.25L160.705 122.349L160.69 122.447L160.675 122.545L160.66 122.61L160.645 122.704L160.63 122.802L160.615 122.9L160.599 122.998L160.584 123.082L160.569 123.157L160.553 123.255L160.538 123.353L160.522 123.451L160.506 123.549L160.491 123.614L160.475 123.707L160.459 123.805L160.443 123.903L160.427 124.001L160.411 124.085L160.395 124.159L160.379 124.257L160.363 124.355L160.347 124.453L160.33 124.551L160.314 124.616L160.298 124.709L160.281 124.807L160.264 124.904L160.248 125.002L160.231 125.086L160.214 125.16L160.198 125.258L160.181 125.355L160.164 125.453L160.147 125.551L160.13 125.616L160.113 125.708L160.096 125.806L160.078 125.903L160.061 126.001L160.044 126.085L160.026 126.159L160.009 126.256L159.991 126.354L159.974 126.451L159.956 126.548L159.938 126.614L159.921 126.706L159.903 126.803L159.885 126.901L159.867 126.998L159.849 127.082L159.831 127.155L159.813 127.252L159.795 127.35L159.776 127.447L159.758 127.544L159.74 127.61L159.721 127.701L159.703 127.798L159.684 127.895L159.666 127.993L159.647 128.077L159.628 128.149L159.609 128.246L159.591 128.343L159.572 128.44L159.553 128.538L159.534 128.603L159.515 128.694L159.495 128.791L159.476 128.888L159.457 128.985L159.438 129.069L159.418 129.141L159.399 129.238L159.379 129.335L159.36 129.432L159.34 129.529L159.32 129.594L159.301 129.685L159.281 129.781L159.261 129.878L159.241 129.975L159.221 130.059L159.201 130.131L159.181 130.228L159.161 130.324L159.141 130.421L159.12 130.517L159.1 130.583L159.08 130.673L159.059 130.77L159.039 130.866L159.018 130.963L158.997 131.047L158.977 131.118L158.956 131.214L158.935 131.311L158.914 131.407L158.893 131.504L158.872 131.569L158.851 131.659L158.83 131.755L158.809 131.851L158.788 131.948L158.766 132.032L158.745 132.103L158.724 132.199L158.702 132.295L158.681 132.391L158.659 132.487L158.637 132.553L158.616 132.642L158.594 132.738L158.572 132.834L158.55 132.93L158.528 133.015L158.506 133.085L158.484 133.181L158.462 133.277L158.44 133.372L158.418 133.468L158.395 133.534L158.373 133.623L158.351 133.718L158.328 133.814L158.305 133.91L158.283 133.994L158.26 134.064L158.238 134.16L158.215 134.255L158.192 134.351L158.169 134.447L158.146 134.512L158.123 134.6L158.1 134.696L158.077 134.792L158.054 134.887L158.031 134.971L158.007 135.041L157.984 135.136L157.961 135.231L157.937 135.327L157.913 135.422L157.89 135.488L157.866 135.575L157.843 135.671L157.819 135.766L157.795 135.861L157.771 135.946L157.747 136.014L157.723 136.11L157.699 136.205L157.675 136.3L157.651 136.395L157.627 136.461L157.602 136.548L157.578 136.643L157.554 136.738L157.529 136.833L157.505 136.917L157.48 136.985L157.456 137.08L157.431 137.175L157.406 137.27L157.381 137.365L157.356 137.43L157.331 137.517L157.307 137.612L157.281 137.706L157.256 137.801L157.231 137.885L157.206 137.953L157.181 138.048L157.155 138.142L157.13 138.237L157.105 138.331L157.079 138.397L157.054 138.483L157.028 138.578L157.002 138.672L156.977 138.766L156.951 138.851L156.925 138.918L156.899 139.012L156.873 139.106L156.847 139.201L156.821 139.295L156.795 139.361L156.769 139.446L156.743 139.54L156.716 139.634L156.69 139.729L156.664 139.813L156.637 139.879L156.611 139.973L156.584 140.067L156.557 140.161L156.531 140.255L156.504 140.321L156.477 140.406L156.45 140.5L156.423 140.594L156.396 140.688L156.369 140.772L156.342 140.838L156.315 140.932L156.288 141.025L156.261 141.119L156.233 141.213L156.206 141.278L156.179 141.363L156.151 141.456L156.123 141.55L156.096 141.643L156.068 141.727L156.041 141.793L156.013 141.886L155.985 141.98L155.957 142.073L155.929 142.167L155.901 142.232L155.873 142.316L155.845 142.409L155.817 142.502L155.789 142.596L155.76 142.68L155.732 142.745L155.704 142.838L155.675 142.931L155.647 143.024L155.618 143.117L155.59 143.182L155.561 143.266L155.532 143.359L155.503 143.452L155.475 143.545L155.446 143.628L155.417 143.693L155.388 143.786L155.359 143.879L155.33 143.971L155.301 144.064L155.271 144.129L155.242 144.212L155.213 144.305L155.183 144.397L155.154 144.49L155.124 144.574L155.095 144.638L155.065 144.73L155.036 144.823L155.006 144.915L154.976 145.008L154.946 145.073L154.916 145.155L154.886 145.247L154.857 145.34L154.826 145.432L154.796 145.516L154.766 145.579L154.736 145.671L154.706 145.763L154.675 145.855L154.645 145.947L154.615 146.012L154.584 146.094L154.554 146.186L154.523 146.278L154.492 146.37L154.462 146.454L154.431 146.516L154.4 146.608L154.369 146.7L154.338 146.792L154.307 146.884L154.276 146.948L154.245 147.03L154.214 147.121L154.183 147.213L154.152 147.304L154.12 147.388L154.089 147.45L154.058 147.542L154.026 147.633L153.995 147.725L153.963 147.816L153.932 147.881L153.9 147.961L153.868 148.053L153.836 148.144L153.805 148.235L153.773 148.319L153.741 148.38L153.709 148.471L153.677 148.562L153.645 148.654L153.612 148.745L153.58 148.809L153.548 148.889L153.516 148.98L153.483 149.071L153.451 149.162L153.418 149.245L153.386 149.306L153.353 149.397L153.321 149.488L153.288 149.579L153.255 149.669L153.222 149.734L153.189 149.813L153.157 149.904L153.124 149.994L153.091 150.085L153.058 150.168L153.024 150.228L152.991 150.319L152.958 150.409L152.925 150.5L152.891 150.59L152.858 150.655L152.825 150.733L152.791 150.823L152.758 150.914L152.724 151.004L152.69 151.087L152.657 151.147L152.623 151.237L152.589 151.327L152.555 151.417L152.521 151.507L152.487 151.571L152.453 151.649L152.419 151.739L152.385 151.829L152.351 151.919L152.317 152.002L152.283 152.061L152.248 152.15L152.214 152.24L152.179 152.33L152.145 152.419L152.11 152.484L152.076 152.561L152.041 152.65L152.006 152.74L151.972 152.829L151.937 152.912L151.902 152.971L151.867 153.06L151.832 153.149L151.797 153.239L151.762 153.328L151.727 153.392L151.692 153.469L151.657 153.558L151.621 153.647L151.586 153.736L151.551 153.819L151.515 153.876L151.48 153.965L151.444 154.054L151.409 154.143L151.373 154.232L151.338 154.296L151.302 154.372L151.266 154.461L151.23 154.549L151.194 154.638L151.159 154.721L151.123 154.778L151.086 154.866L151.05 154.955L151.014 155.043L150.978 155.132L150.942 155.196L150.906 155.271L150.869 155.36L150.833 155.448L150.796 155.536L150.76 155.619L150.723 155.675L150.687 155.763L150.65 155.851L150.614 155.939L150.577 156.027L150.54 156.091L150.503 156.166L150.466 156.254L150.429 156.342L150.392 156.43L150.355 156.512L150.318 156.568L150.281 156.655L150.244 156.743L150.207 156.831L150.169 156.919L150.132 156.982L150.095 157.056L150.057 157.144L150.02 157.231L149.982 157.319L149.945 157.401L149.907 157.456L149.869 157.543L149.832 157.631L149.794 157.718L149.756 157.805L149.718 157.868L149.68 157.942L149.642 158.029L149.604 158.116L149.566 158.203L149.528 158.285L149.49 158.34L149.452 158.427L149.413 158.514L149.375 158.6L149.337 158.687L149.298 158.75L149.26 158.823L149.221 158.91L149.183 158.997L149.144 159.083L149.105 159.165L149.067 159.219L149.028 159.305L148.989 159.392L148.95 159.478L148.911 159.565L148.872 159.628L148.833 159.7L148.794 159.786L148.755 159.872L148.716 159.958L148.677 160.04L148.637 160.093L148.598 160.179L148.559 160.265L148.519 160.351L148.48 160.437L148.441 160.5L148.401 160.572L148.361 160.657L148.322 160.743L148.282 160.829L148.242 160.91L148.203 160.963L148.163 161.049L148.123 161.134L148.083 161.22L148.043 161.305L148.003 161.368L147.963 161.439L147.923 161.524L147.883 161.61L147.842 161.695L147.802 161.776L147.762 161.828L147.721 161.913L147.681 161.998L147.641 162.083L147.6 162.168L147.559 162.231L147.519 162.301L147.478 162.386L147.438 162.471L147.397 162.556L147.356 162.637L147.315 162.688L147.274 162.773L147.233 162.857L147.192 162.942L147.151 163.027L147.11 163.089L147.069 163.158L147.028 163.243L146.987 163.327L146.946 163.412L146.904 163.493L146.863 163.543L146.822 163.627L146.78 163.712L146.739 163.796L146.697 163.88L146.656 163.942L146.614 164.011L146.572 164.095L146.531 164.179L146.489 164.263L146.447 164.344L146.405 164.393L146.363 164.477L146.321 164.561L146.279 164.645L146.237 164.728L146.195 164.79L146.153 164.858L146.111 164.942L146.069 165.025L146.026 165.109L145.984 165.189L145.942 165.238L145.899 165.322L145.857 165.405L145.814 165.488L145.772 165.572L145.729 165.633L145.687 165.701L145.644 165.784L145.601 165.867L145.559 165.95L145.516 166.03L145.473 166.078L145.43 166.161L145.387 166.244L145.344 166.327L145.301 166.41L145.258 166.471L145.215 166.538L145.172 166.621L145.128 166.703L145.085 166.786L145.042 166.866L144.999 166.913L144.955 166.996L144.912 167.078L144.868 167.161L144.825 167.243L144.781 167.304L144.737 167.37L144.694 167.452L144.65 167.534L144.606 167.616L144.563 167.696L144.519 167.743L144.475 167.825L144.431 167.907L144.387 167.989L144.343 168.071L144.299 168.132L144.255 168.197L144.211 168.279L144.166 168.36L144.122 168.442L144.078 168.521L144.034 168.567L143.989 168.649L143.945 168.73L143.9 168.812L143.856 168.893L143.811 168.954L143.767 169.018L143.722 169.1L143.677 169.181L143.633 169.262L143.588 169.341L143.543 169.386L143.498 169.467L143.453 169.548L143.408 169.629L143.363 169.71L143.318 169.771L143.273 169.834L143.228 169.915L143.183 169.996L143.138 170.076L143.093 170.156L143.047 170.2L143.002 170.281L142.957 170.361L142.911 170.442L142.866 170.522L142.82 170.582L142.775 170.645L142.729 170.725L142.684 170.806L142.638 170.886L142.592 170.964L142.547 171.008L142.501 171.088L142.455 171.168L142.409 171.248L142.363 171.328L142.317 171.388L142.271 171.45L142.225 171.53L142.179 171.61L142.133 171.689L142.087 171.768L142.041 171.811L141.994 171.891L141.948 171.97L141.902 172.05L141.855 172.129L141.809 172.189L141.762 172.25L141.716 172.329L141.669 172.408L141.623 172.488L141.576 172.566L141.53 172.608L141.483 172.687L141.436 172.766L141.389 172.845L141.343 172.924L141.296 172.983L141.249 173.044L141.202 173.123L141.155 173.202L141.108 173.28L141.061 173.358L141.014 173.4L140.966 173.478L140.919 173.557L140.872 173.635L140.825 173.714L140.777 173.773L140.73 173.833L140.683 173.911L140.635 173.989L140.588 174.067L140.54 174.145L140.493 174.186L140.445 174.264L140.397 174.342L140.35 174.42L140.302 174.497L140.254 174.556L140.206 174.615L140.158 174.693L140.111 174.771L140.063 174.848L140.015 174.926L139.967 174.966L139.919 175.043L139.871 175.121L139.822 175.198L139.774 175.275L139.726 175.334L139.678 175.392L139.63 175.47L139.581 175.547L139.533 175.624L139.485 175.701L139.436 175.74L139.388 175.817L139.339 175.894L139.291 175.971L139.242 176.048L139.193 176.106L139.145 176.164L139.096 176.24L139.047 176.317L138.998 176.393L138.95 176.47L138.901 176.509L138.852 176.585L138.803 176.662L138.754 176.738L138.705 176.814L138.656 176.872L138.607 176.929L138.558 177.005L138.508 177.081L138.459 177.157L138.41 177.233L138.361 177.272L138.311 177.347L138.262 177.423L138.212 177.499L138.163 177.575L138.114 177.632L138.064 177.688L138.015 177.764L137.965 177.839L137.915 177.915L137.866 177.99L137.816 178.029L137.766 178.104L137.716 178.179L137.667 178.254L137.617 178.329L137.567 178.387L137.517 178.442L137.467 178.517L137.417 178.592L137.367 178.667L137.317 178.742L137.267 178.78L137.216 178.854L137.166 178.928L137.116 179.003L137.066 179.078L137.015 179.135L136.965 179.189L136.915 179.264L136.864 179.338L136.814 179.413L136.763 179.487L136.713 179.525L136.662 179.598L136.612 179.672L136.561 179.746L136.51 179.82L136.46 179.877L136.409 179.931L136.358 180.005L136.307 180.078L136.256 180.152L136.206 180.226L136.155 180.264L136.104 180.336L136.053 180.41L136.002 180.483L135.951 180.557L135.899 180.613L135.848 180.666L135.797 180.739L135.746 180.813L135.695 180.886L135.643 180.959L135.592 180.997L135.541 181.068L135.489 181.141L135.438 181.214L135.386 181.287L135.335 181.343L135.283 181.395L135.232 181.468L135.18 181.541L135.129 181.613L135.077 181.686L135.025 181.723L134.973 181.794L134.922 181.866L134.87 181.938L134.818 182.011L134.766 182.067L134.714 182.118L134.662 182.19L134.61 182.262L134.558 182.334L134.506 182.406L134.454 182.443L134.402 182.513L134.35 182.585L134.298 182.657L134.245 182.729L134.193 182.784L134.141 182.834L134.089 182.906L134.036 182.978L133.984 183.049L133.931 183.121L133.879 183.157L133.826 183.226L133.774 183.297L133.721 183.369L133.669 183.44L133.616 183.495L133.563 183.545L133.511 183.616L133.458 183.687L133.405 183.758L133.352 183.829L133.3 183.865L133.247 183.933L133.194 184.004L133.141 184.074L133.088 184.145L133.035 184.2L132.982 184.249L132.929 184.319L132.876 184.39L132.822 184.46L132.769 184.53L132.716 184.566L132.663 184.633L132.61 184.703L132.556 184.774L132.503 184.844L132.45 184.898L132.396 184.946L132.343 185.016L132.289 185.086L132.236 185.156L132.182 185.225L132.129 185.261L132.075 185.327L132.022 185.397L131.968 185.466L131.914 185.536L131.86 185.59L131.807 185.637L131.753 185.706L131.699 185.776L131.645 185.845L131.591 185.914L131.538 185.949L131.484 186.015L131.43 186.084L131.376 186.153L131.322 186.222L131.267 186.275L131.213 186.322L131.159 186.39L131.105 186.459L131.051 186.528L130.997 186.596L130.942 186.631L130.888 186.696L130.834 186.764L130.779 186.832L130.725 186.901L130.671 186.954L130.616 187L130.562 187.068L130.507 187.136L130.453 187.204L130.398 187.272L130.344 187.306L130.289 187.37L130.234 187.438L130.18 187.505L130.125 187.573L130.07 187.626L130.015 187.671L129.961 187.738L129.906 187.806L129.851 187.873L129.796 187.941L129.741 187.975L129.686 188.038L129.631 188.105L129.576 188.172L129.521 188.239L129.466 188.292L129.411 188.336L129.356 188.403L129.301 188.469L129.245 188.536L129.19 188.603L129.135 188.637L129.08 188.699L129.024 188.765L128.969 188.832L128.914 188.898L128.858 188.951L128.803 188.994L128.747 189.06L128.692 189.126L128.636 189.192L128.581 189.259L128.525 189.292L128.47 189.353L128.414 189.419L128.358 189.485L128.303 189.551L128.247 189.603L128.191 189.645L128.136 189.711L128.08 189.776L128.024 189.842L127.968 189.907L127.912 189.94L127.856 190.001L127.8 190.066L127.744 190.131L127.688 190.197L127.632 190.248L127.576 190.29L127.52 190.355L127.464 190.42L127.408 190.485L127.352 190.549L127.296 190.582L127.239 190.642L127.183 190.706L127.127 190.771L127.071 190.836L127.014 190.887L126.958 190.927L126.902 190.992L126.845 191.056L126.789 191.12L126.732 191.185L126.676 191.217L126.619 191.276L126.563 191.34L126.506 191.404L126.45 191.468L126.393 191.519L126.336 191.558L126.28 191.622L126.223 191.686L126.166 191.749L126.11 191.813L126.053 191.845L125.996 191.903L125.939 191.966L125.882 192.03L125.825 192.093L125.769 192.143L125.712 192.182L125.655 192.245L125.598 192.308L125.541 192.371L125.484 192.435L125.427 192.466L125.369 192.523L125.312 192.586L125.255 192.649L125.198 192.711L125.141 192.761L125.084 192.799L125.026 192.862L124.969 192.924L124.912 192.987L124.855 193.049L124.797 193.08L124.74 193.136L124.682 193.198L124.625 193.261L124.568 193.323L124.51 193.372L124.453 193.409L124.395 193.471L124.338 193.533L124.28 193.595L124.222 193.657L124.165 193.687L124.107 193.742L124.049 193.804L123.992 193.866L123.934 193.927L123.876 193.976L123.819 194.012L123.761 194.074L123.703 194.135L123.645 194.196L123.587 194.257L123.529 194.287L123.472 194.342L123.414 194.403L123.356 194.464L123.298 194.524L123.24 194.573L123.182 194.608L123.124 194.669L123.066 194.73L123.008 194.79L122.949 194.851L122.891 194.881L122.833 194.934L122.775 194.994L122.717 195.054L122.659 195.115L122.6 195.163L122.542 195.197L122.484 195.257L122.425 195.317L122.367 195.377L122.309 195.437L122.25 195.467L122.192 195.519L122.133 195.579L122.075 195.638L122.017 195.698L121.958 195.746L121.9 195.779L121.841 195.839L121.782 195.898L121.724 195.957L121.665 196.016L121.607 196.045L121.548 196.097L121.489 196.156L121.431 196.215L121.348 196.25L121.253 196.272L121.193 196.293L121.097 196.314L121.001 196.335L120.905 196.356L120.808 196.377L120.731 196.398L120.653 196.419L120.557 196.439L120.46 196.46L120.364 196.48L120.268 196.5L120.208 196.521L120.112 196.541L120.015 196.561L119.919 196.581L119.822 196.601L119.745 196.621L119.666 196.641L119.57 196.661L119.473 196.68L119.377 196.7L119.28 196.719L119.221 196.739L119.124 196.758L119.027 196.777L118.93 196.796L118.834 196.815L118.756 196.834L118.678 196.853L118.581 196.872L118.484 196.891L118.387 196.909L118.29 196.927L118.231 196.947L118.134 196.965L118.037 196.983L117.94 197.001L117.843 197.019L117.765 197.037L117.686 197.056L117.589 197.073L117.492 197.091L117.395 197.108L117.298 197.126L117.238 197.144L117.141 197.161L117.044 197.179L116.947 197.196L116.85 197.212L116.771 197.23L116.693 197.248L116.596 197.264L116.498 197.281L116.401 197.297L116.304 197.314L116.244 197.332L116.147 197.348L116.049 197.364L115.952 197.38L115.855 197.396L115.776 197.412L115.697 197.429L115.6 197.445L115.502 197.46L115.405 197.476L115.308 197.491L115.247 197.508L115.15 197.524L115.052 197.539L114.955 197.554L114.857 197.569L114.778 197.585L114.7 197.6L114.602 197.615L114.505 197.63L114.407 197.644L114.309 197.658L114.248 197.675L114.151 197.689L114.054 197.703L113.956 197.717L113.858 197.731L113.778 197.746L113.7 197.761L113.603 197.775L113.505 197.789L113.407 197.802L113.309 197.815L113.248 197.831L113.151 197.845L113.053 197.858L112.955 197.871L112.857 197.884L112.777 197.898L112.699 197.912L112.601 197.925L112.503 197.937L112.405 197.95L112.307 197.962L112.246 197.977L112.149 197.99L112.051 198.002L111.953 198.014L111.855 198.026L111.774 198.039L111.696 198.052L111.598 198.064L111.5 198.075L111.402 198.087L111.304 198.098L111.242 198.113L111.145 198.124L111.047 198.135L110.949 198.146L110.851 198.157L110.77 198.169L110.692 198.182L110.594 198.193L110.495 198.203L110.397 198.214L110.299 198.224L110.236 198.238L110.14 198.248L110.042 198.258L109.943 198.268L109.845 198.278L109.764 198.29L109.686 198.301L109.588 198.311L109.489 198.321L109.391 198.33L109.293 198.339L109.23 198.352L109.133 198.362L109.035 198.371L108.936 198.38L108.838 198.389L108.756 198.399L108.679 198.41L108.58 198.419L108.482 198.428L108.383 198.436L108.285 198.444L108.222 198.457L108.125 198.465L108.027 198.473L107.928 198.481L107.83 198.489L107.748 198.499L107.67 198.509L107.572 198.517L107.473 198.524L107.375 198.531L107.276 198.539L107.212 198.55L107.116 198.558L107.018 198.565L106.919 198.572L106.821 198.579L106.738 198.588L106.661 198.597L106.562 198.604L106.463 198.61L106.365 198.616L106.266 198.623L106.202 198.634L106.106 198.64L106.007 198.646L105.909 198.652L105.81 198.658L105.727 198.666L105.65 198.675L105.551 198.68L105.453 198.686L105.354 198.691L105.255 198.696L105.191 198.706L105.095 198.712L104.996 198.717L104.898 198.722L104.799 198.727L104.716 198.734L104.639 198.742L104.54 198.746L104.441 198.751L104.342 198.755L104.244 198.759L104.179 198.769L104.083 198.773L103.984 198.777L103.886 198.781L103.787 198.785L103.703 198.791L103.626 198.798L103.527 198.802L103.429 198.805L103.33 198.809L103.231 198.812L103.166 198.821L103.07 198.824L102.972 198.827L102.873 198.83L102.774 198.833L102.69 198.838L102.613 198.844L102.515 198.847L102.416 198.849L102.317 198.852L102.218 198.854L102.152 198.862L102.057 198.865L101.958 198.867L101.86 198.868L101.761 198.87L101.677 198.875L101.6 198.88L101.501 198.882L101.402 198.883L101.303 198.884L101.204 198.886L101.139 198.893L101.044 198.894L100.945 198.895L100.846 198.896L100.747 198.897L100.662 198.9L100.586 198.905L100.487 198.906L100.388 198.906L100.289 198.906L100.19 198.907L100.124 198.913L100.029 198.914H99.9305L99.8316 198.914L99.7327 198.913L99.648 198.916L99.5716 198.92L99.4727 198.919L99.3738 198.919L99.2749 198.918L99.176 198.917L99.1096 198.923L99.015 198.923L98.916 198.922L98.8171 198.921L98.7182 198.919L98.6333 198.921L98.5571 198.924L98.4582 198.922L98.3593 198.921L98.2604 198.919L98.1615 198.917L98.0948 198.922L98.0004 198.921L97.9015 198.919L97.8026 198.917L97.7037 198.915L97.6184 198.915L97.5425 198.918L97.4436 198.915L97.3447 198.913L97.2458 198.91L97.1469 198.907L97.0799 198.911L96.9857 198.909L96.8868 198.906L96.788 198.903L96.6891 198.9L96.6036 198.899L96.5279 198.901L96.429 198.897L96.3301 198.894L96.2312 198.89L96.1324 198.886L96.065 198.889L95.9712 198.887L95.8723 198.882L95.7734 198.878L95.6746 198.874L95.5889 198.873L95.5134 198.874L95.4145 198.869L95.3156 198.864L95.2168 198.86L95.1179 198.855L95.0503 198.857L94.9567 198.854L94.8579 198.848L94.7591 198.843L94.6603 198.838L94.5743 198.836L94.499 198.836L94.4002 198.83L94.3014 198.825L94.2026 198.819L94.1038 198.813L94.0359 198.815L93.9426 198.81L93.8438 198.804L93.745 198.798L93.6462 198.791L93.5601 198.788L93.485 198.788L93.3863 198.781L93.2875 198.774L93.1887 198.768L93.09 198.761L93.0219 198.762L92.9288 198.756L92.8301 198.749L92.7314 198.742L92.6326 198.735L92.5463 198.73L92.4715 198.729L92.3728 198.722L92.2741 198.714L92.1754 198.706L92.0767 198.698L92.0083 198.698L91.9155 198.692L91.8169 198.684L91.7182 198.676L91.6196 198.667L91.533 198.662L91.4584 198.66L91.3598 198.652L91.2612 198.643L91.1626 198.634L91.0639 198.625L90.9953 198.625L90.9029 198.617L90.8043 198.608L90.7057 198.599L90.6071 198.59L90.5204 198.583L90.4461 198.581L90.3475 198.571L90.249 198.562L90.1504 198.552L90.0519 198.542L89.9831 198.54L89.8909 198.532L89.7924 198.522L89.6939 198.512L89.5954 198.501L89.5085 198.494L89.4344 198.491L89.3363 198.48L89.2378 198.47L89.1394 198.459L89.0409 198.448L88.9719 198.446L88.88 198.437L88.7816 198.426L88.6832 198.414L88.5848 198.403L88.4977 198.395L88.424 198.391L88.3256 198.379L88.2273 198.368L88.1289 198.356L88.0306 198.344L87.9614 198.341L87.8698 198.331L87.7715 198.319L87.6732 198.307L87.5749 198.294L87.4877 198.285L87.4142 198.281L87.3159 198.268L87.2177 198.255L87.1195 198.243L87.0213 198.23L86.9518 198.226L86.8606 198.215L86.7624 198.202L86.6642 198.189L86.5661 198.175L86.4787 198.165L86.4055 198.16L86.3074 198.146L86.2093 198.133L86.1111 198.119L86.0131 198.105L85.9434 198.1L85.8525 198.089L85.7545 198.074L85.6564 198.06L85.5584 198.046L85.4708 198.035L85.3979 198.029L85.2999 198.014L85.2019 197.999L85.104 197.985L85.006 197.97L84.9362 197.964L84.8456 197.952L84.7477 197.937L84.6498 197.921L84.5519 197.906L84.4642 197.894L84.3916 197.887L84.2937 197.872L84.1959 197.856L84.0981 197.84L84.0003 197.824L83.9303 197.818L83.8401 197.805L83.7423 197.788L83.6446 197.772L83.5468 197.756L83.4591 197.743L83.3868 197.735L83.2891 197.719L83.1914 197.702L83.0938 197.685L82.9961 197.668L82.9259 197.661L82.8361 197.647L82.7385 197.63L82.6409 197.613L82.5433 197.595L82.4555 197.581L82.3834 197.573L82.2859 197.556L82.1884 197.538L82.0909 197.52L81.9934 197.502L81.9231 197.494L81.8336 197.479L81.7362 197.461L81.6388 197.443L81.5414 197.424L81.4534 197.41L81.3817 197.401L81.2843 197.382L81.187 197.363L81.0896 197.345L80.9923 197.326L80.9219 197.317L80.8328 197.301L80.7355 197.282L80.6383 197.263L80.5411 197.243L80.453 197.227L80.3817 197.218L80.2845 197.198L80.1873 197.178L80.0902 197.159L79.993 197.139L79.9224 197.129L79.8338 197.112L79.7367 197.092L79.6396 197.072L79.5426 197.052L79.4545 197.035L79.3835 197.024L79.2865 197.004L79.1896 196.983L79.0926 196.962L78.9957 196.942L78.925 196.931L78.8367 196.913L78.7399 196.892L78.643 196.871L78.5462 196.85L78.458 196.832L78.3873 196.821L78.2905 196.799L78.1938 196.778L78.097 196.756L78.0003 196.734L77.9295 196.723L77.8416 196.704L77.7449 196.682L77.6483 196.66L77.5517 196.637L77.4634 196.619L77.3931 196.607L77.2965 196.584L77.1999 196.562L77.1034 196.539L77.0069 196.516L76.936 196.504L76.8485 196.484L76.7521 196.461L76.6556 196.438L76.5592 196.415L76.4709 196.395L76.401 196.383L76.3046 196.359L76.2084 196.335L76.112 196.312L76.0157 196.288L75.9447 196.275L75.8577 196.255L75.7614 196.23L75.6653 196.206L75.5691 196.182L75.4808 196.161L75.4112 196.148L75.3151 196.124L75.219 196.099L75.1229 196.074L75.0269 196.049L74.9558 196.035L74.8692 196.014L74.7732 195.989L74.6773 195.964L74.5814 195.939L74.4931 195.917L74.4238 195.903L74.3279 195.878L74.2321 195.852L74.1363 195.826L74.0405 195.8L73.9693 195.786L73.8832 195.764L73.7874 195.738L73.6917 195.712L73.5961 195.685L73.5078 195.662L73.4389 195.648L73.3433 195.622L73.2477 195.595L73.1522 195.568L73.0566 195.541L72.9854 195.526L72.8997 195.503L72.8042 195.476L72.7088 195.449L72.6134 195.422L72.5251 195.398L72.4566 195.383L72.3613 195.355L72.266 195.328L72.1707 195.3L72.0754 195.272L72.0041 195.256L71.9188 195.232L71.8236 195.204L71.7285 195.176L71.6334 195.148L71.5451 195.123L71.4769 195.107L71.3819 195.079L71.2869 195.05L71.1919 195.021L71.0969 194.993L71.0255 194.975L70.9407 194.951L70.8458 194.922L70.7509 194.893L70.6561 194.864L70.5679 194.838L70.5001 194.822L70.4053 194.792L70.3106 194.762L70.2158 194.733L70.1212 194.703L70.0498 194.685L69.9654 194.66L69.8708 194.63L69.7762 194.6L69.6817 194.569L69.5935 194.542L69.5261 194.525L69.4317 194.495L69.3372 194.464L69.2428 194.434L69.1484 194.403L69.077 194.384L68.9932 194.358L68.8989 194.327L68.8046 194.296L68.7104 194.265L68.6222 194.237L68.5553 194.219L68.4611 194.188L68.367 194.156L68.2729 194.125L68.1788 194.093L68.1074 194.073L68.024 194.047L67.93 194.015L67.836 193.982L67.7421 193.95L67.6541 193.921L67.5875 193.903L67.4936 193.871L67.3998 193.838L67.306 193.806L67.2123 193.773L67.1409 193.752L67.058 193.725L66.9643 193.692L66.8707 193.659L66.7771 193.626L66.6891 193.595L66.623 193.577L66.5294 193.543L66.436 193.51L66.3425 193.476L66.2491 193.443L66.1777 193.421L66.0953 193.393L66.002 193.359L65.9086 193.325L65.8154 193.291L65.7275 193.26L65.6618 193.24L65.5686 193.206L65.4755 193.172L65.3824 193.137L65.2894 193.102L65.2179 193.08L65.136 193.051L65.0431 193.016L64.9501 192.981L64.8572 192.946L64.7695 192.914L64.7042 192.894L64.6113 192.859L64.5186 192.823L64.4257 192.788L64.333 192.752L64.2617 192.729L64.1803 192.699L64.0876 192.663L63.995 192.627L63.9025 192.591L63.8148 192.558L63.75 192.538L63.6575 192.501L63.565 192.465L63.4726 192.429L63.3802 192.392L63.3089 192.367L63.2281 192.337L63.1358 192.301L63.0436 192.264L62.9514 192.227L62.8638 192.192L62.7994 192.171L62.7073 192.134L62.6153 192.097L62.5232 192.059L62.4312 192.022L62.36 191.996L62.2796 191.966L62.1877 191.928L62.0959 191.89L62.004 191.852L61.9167 191.817L61.8527 191.795L61.761 191.757L61.6692 191.719L61.5776 191.68L61.486 191.642L61.4148 191.616L61.335 191.584L61.2435 191.545L61.152 191.507L61.0605 191.468L60.9733 191.431L60.9098 191.409L60.8185 191.37L60.7271 191.331L60.6359 191.291L60.5447 191.252L60.4735 191.225L60.3943 191.192L60.3032 191.153L60.212 191.113L60.121 191.073L60.034 191.036L59.9708 191.013L59.8799 190.973L59.789 190.933L59.6981 190.893L59.6073 190.852L59.5362 190.824L59.4575 190.791L59.3668 190.751L59.2761 190.71L59.1855 190.669L59.0986 190.631L59.036 190.607L58.9454 190.566L58.855 190.525L58.7645 190.484L58.6741 190.443L58.6031 190.414L58.5249 190.38L58.4346 190.339L58.3444 190.297L58.2542 190.255L58.1675 190.216L58.1053 190.192L58.0152 190.15L57.9251 190.108L57.8351 190.066L57.7451 190.024L57.6743 189.994L57.5966 189.959L57.5067 189.917L57.4169 189.874L57.3271 189.832L57.2406 189.791L57.1789 189.767L57.0892 189.724L56.9996 189.681L56.9099 189.638L56.8204 189.595L56.7496 189.564L56.6726 189.529L56.5831 189.485L56.4937 189.442L56.4043 189.398L56.3181 189.357L56.2569 189.332L56.1676 189.288L56.0783 189.244L55.9892 189.2L55.9001 189.156L55.8294 189.124L55.7529 189.089L55.664 189.044L55.575 189L55.4861 188.956L55.4001 188.913L55.3393 188.887L55.2505 188.843L55.1617 188.798L55.073 188.753L54.9843 188.708L54.9138 188.675L54.8379 188.639L54.7494 188.594L54.6608 188.549L54.5724 188.503L54.4866 188.459L54.4263 188.434L54.338 188.388L54.2496 188.342L54.1614 188.296L54.0732 188.25L54.0028 188.217L53.9275 188.18L53.8395 188.134L53.7514 188.088L53.6634 188.041L53.5778 187.996L53.518 187.97L53.4301 187.924L53.3423 187.877L53.2545 187.83L53.1667 187.783L53.0966 187.749L53.0218 187.711L52.9342 187.664L52.8466 187.617L52.7591 187.57L52.6738 187.524L52.6145 187.497L52.5271 187.45L52.4397 187.402L52.3524 187.354L52.2652 187.307L52.1952 187.272L52.121 187.233L52.0338 187.185L51.9468 187.137L51.8597 187.089L51.7747 187.042L51.7159 187.015L51.629 186.966L51.5421 186.918L51.4552 186.869L51.3685 186.821L51.2986 186.785L51.2251 186.746L51.1384 186.697L51.0517 186.648L50.9652 186.599L50.8805 186.551L50.8221 186.523L50.7357 186.474L50.6493 186.425L50.563 186.375L50.4767 186.326L50.407 186.289L50.3341 186.249L50.2479 186.199L50.1618 186.149L50.0758 186.1L49.9913 186.051L49.9335 186.022L49.8476 185.972L49.7617 185.922L49.6758 185.872L49.5901 185.821L49.5206 185.783L49.4482 185.743L49.3626 185.692L49.277 185.642L49.1914 185.591L49.1074 185.541L49.05 185.512L48.9646 185.461L48.8792 185.41L48.7939 185.359L48.7086 185.307L48.6394 185.269L48.5677 185.228L48.4825 185.176L48.3974 185.125L48.3124 185.073L48.2286 185.022L48.1718 184.993L48.0869 184.941L48.002 184.889L47.9172 184.837L47.8325 184.785L47.7635 184.745L47.6924 184.704L47.6078 184.651L47.5232 184.599L47.4387 184.546L47.3552 184.494L47.2989 184.464L47.2145 184.412L47.1302 184.359L47.046 184.306L46.9617 184.253L46.8929 184.212L46.8225 184.17L46.7384 184.117L46.6543 184.063L46.5704 184.01L46.4872 183.957L46.4315 183.927L46.3476 183.873L46.2638 183.819L46.1801 183.766L46.0965 183.712L46.0279 183.67L45.958 183.628L45.8745 183.574L45.791 183.519L45.7076 183.465L45.6248 183.411L45.5695 183.38L45.4863 183.326L45.403 183.271L45.3198 183.217L45.2367 183.162L45.1684 183.119L45.0992 183.076L45.0162 183.021L44.9333 182.966L44.8504 182.911L44.768 182.856L44.7132 182.825L44.6305 182.77L44.5479 182.714L44.4652 182.659L44.3827 182.603L44.3146 182.56L44.246 182.516L44.1636 182.46L44.0813 182.404L43.9989 182.348L43.9169 182.292L43.8627 182.261L43.7805 182.204L43.6984 182.148L43.6164 182.092L43.5343 182.035L43.4666 181.991L43.3986 181.947L43.3168 181.89L43.235 181.833L43.1532 181.777L43.0716 181.72L43.0179 181.687L42.9363 181.63L42.8548 181.573L42.7733 181.516L42.6919 181.459L42.6244 181.414L42.5571 181.369L42.4758 181.311L42.3945 181.254L42.3134 181.196L42.2323 181.138L42.1789 181.105L42.098 181.048L42.017 180.99L41.9361 180.932L41.8553 180.874L41.7881 180.828L41.7215 180.782L41.6407 180.724L41.5601 180.666L41.4796 180.607L41.399 180.548L41.3458 180.515L41.2657 180.456L41.1853 180.398L41.105 180.339L41.0248 180.28L40.9578 180.233L40.8919 180.187L40.8117 180.128L40.7317 180.069L40.6517 180.009L40.5718 179.95L40.5187 179.916L40.4394 179.856L40.3597 179.797L40.2799 179.737L40.2003 179.677L40.1338 179.63L40.0684 179.583L39.9889 179.523L39.9095 179.463L39.8301 179.403L39.7508 179.343L39.6979 179.308L39.6194 179.248L39.5403 179.187L39.4611 179.127L39.3821 179.066L39.3159 179.018L39.2512 178.971L39.1723 178.91L39.0935 178.849L39.0147 178.788L38.936 178.727L38.8833 178.691L38.8056 178.631L38.7271 178.57L38.6486 178.508L38.5701 178.447L38.5042 178.398L38.4402 178.35L38.3619 178.289L38.2838 178.227L38.2056 178.165L38.1275 178.103L38.075 178.067L37.9981 178.006L37.9201 177.943L37.8423 177.881L37.7645 177.819L37.6989 177.769L37.6356 177.721L37.5579 177.659L37.4804 177.596L37.4028 177.533L37.3254 177.471L37.2732 177.433L37.1971 177.372L37.1197 177.309L37.0425 177.246L36.9654 177.183L36.9001 177.132L36.8375 177.083L36.7605 177.02L36.6835 176.957L36.6066 176.894L36.5298 176.83L36.4779 176.792L36.4025 176.73L36.3258 176.666L36.2493 176.602L36.1727 176.539L36.1079 176.487L36.0459 176.438L35.9696 176.374L35.8932 176.31L35.817 176.245L35.7409 176.181L35.6891 176.142L35.6146 176.08L35.5386 176.015L35.4626 175.951L35.3867 175.886L35.3222 175.833L35.2609 175.784L35.1852 175.719L35.1096 175.654L35.034 175.589L34.9585 175.524L34.907 175.485L34.8332 175.421L34.7579 175.356L34.6826 175.291L34.6074 175.225L34.5433 175.172L34.4827 175.122L34.4077 175.056L34.3326 174.991L34.2577 174.925L34.1829 174.859L34.1317 174.819L34.0587 174.755L33.9841 174.689L33.9094 174.623L33.8349 174.557L33.7712 174.502L33.7113 174.452L33.6368 174.386L33.5626 174.319L33.4883 174.253L33.4141 174.186L33.3632 174.145L33.2911 174.081L33.2171 174.014L33.1431 173.947L33.0692 173.88L33.0059 173.825L32.9467 173.774L32.873 173.707L32.7994 173.64L32.7258 173.572L32.6523 173.505L32.6017 173.463L32.5304 173.398L32.457 173.331L32.3837 173.263L32.3106 173.196L32.2476 173.139L32.1891 173.088L32.1161 173.02L32.0431 172.952L31.9702 172.884L31.8974 172.816L31.847 172.774L31.7766 172.708L31.704 172.64L31.6313 172.572L31.5588 172.503L31.4964 172.446L31.4385 172.395L31.3662 172.326L31.2939 172.257L31.2217 172.188L31.1496 172.12L31.0995 172.076L31.03 172.01L30.958 171.941L30.8861 171.872L30.8143 171.803L30.7522 171.745L30.6951 171.693L30.6235 171.624L30.552 171.554L30.4804 171.485L30.409 171.415L30.3593 171.371L30.2904 171.305L30.2192 171.235L30.148 171.165L30.0769 171.095L30.0153 171.037L29.9589 170.984L29.888 170.914L29.8171 170.844L29.7463 170.774L29.6756 170.703L29.6263 170.659L29.5583 170.592L29.4877 170.521L29.4172 170.451L29.3468 170.38L29.2857 170.32L29.23 170.268L29.1598 170.197L29.0896 170.126L29.0195 170.055L28.9495 169.984L28.9005 169.939L28.8333 169.871L28.7635 169.8L28.6938 169.728L28.624 169.657L28.5633 169.597L28.5084 169.543L28.4389 169.472L28.3694 169.4L28.3001 169.329L28.2308 169.257L28.1821 169.211L28.1158 169.143L28.0467 169.071L27.9777 168.999L27.9087 168.927L27.8485 168.866L27.7942 168.812L27.7255 168.74L27.6568 168.667L27.5882 168.595L27.5196 168.523L27.4712 168.476L27.4057 168.407L27.3374 168.334L27.2691 168.262L27.2009 168.189L27.1412 168.127L27.0876 168.073L27.0196 168L26.9516 167.927L26.8837 167.854L26.8159 167.781L26.7678 167.733L26.7033 167.664L26.6357 167.591L26.5681 167.517L26.5006 167.444L26.4414 167.381L26.3886 167.327L26.3213 167.253L26.2541 167.179L26.1869 167.106L26.1198 167.032L26.0722 166.984L26.0085 166.914L25.9416 166.84L25.8748 166.766L25.808 166.692L25.7493 166.628L25.6972 166.573L25.6306 166.499L25.5642 166.425L25.4978 166.35L25.4314 166.276L25.3842 166.227L25.3213 166.157L25.2551 166.082L25.1891 166.007L25.1231 165.933L25.0649 165.868L25.0136 165.813L24.9477 165.738L24.882 165.663L24.8164 165.588L24.7508 165.513L24.7039 165.463L24.642 165.392L24.5765 165.317L24.5113 165.242L24.446 165.166L24.3883 165.101L24.3377 165.045L24.2727 164.97L24.2077 164.894L24.1429 164.818L24.0781 164.742L24.0315 164.692L23.9705 164.621L23.9058 164.545L23.8413 164.469L23.7768 164.393L23.7197 164.327L23.6698 164.271L23.6056 164.195L23.5414 164.118L23.4773 164.042L23.4133 163.965L23.3672 163.914L23.3069 163.843L23.2431 163.766L23.1793 163.689L23.1156 163.613L23.0591 163.546L23.0099 163.49L22.9464 163.413L22.883 163.336L22.8197 163.259L22.7565 163.181L22.7108 163.13L22.6513 163.058L22.5883 162.98L22.5253 162.903L22.4624 162.826L22.4064 162.758L22.358 162.701L22.2953 162.624L22.2326 162.546L22.1701 162.468L22.1076 162.391L22.0624 162.338L22.0039 162.266L21.9417 162.188L21.8795 162.11L21.8173 162.032L21.7619 161.963L21.7142 161.907L21.6522 161.828L21.5905 161.75L21.5287 161.672L21.467 161.593L21.4222 161.54L21.3646 161.467L21.3031 161.389L21.2417 161.31L21.1804 161.231L21.1255 161.162L21.0785 161.105L21.0174 161.026L20.9564 160.947L20.8955 160.868L20.8346 160.789L20.7902 160.735L20.7335 160.662L20.6728 160.583L20.6122 160.504L20.5517 160.424L20.4973 160.355L20.4511 160.297L20.3909 160.218L20.3306 160.138L20.2705 160.058L20.2104 159.979L20.1664 159.924L20.1106 159.851L20.0508 159.771L19.9909 159.691L19.9313 159.611L19.8775 159.54L19.832 159.483L19.7726 159.402L19.7132 159.322L19.6538 159.242L19.5946 159.162L19.5511 159.106L19.4961 159.033L19.4371 158.952L19.3781 158.872L19.3193 158.791L19.2661 158.72L19.2213 158.662L19.1627 158.581L19.1041 158.5L19.0456 158.419L18.9872 158.338L18.9442 158.282L18.89 158.208L18.8319 158.127L18.7737 158.046L18.7156 157.965L18.6632 157.893L18.6192 157.835L18.5613 157.753L18.5036 157.672L18.4459 157.59L18.3883 157.509L18.3458 157.452L18.2925 157.378L18.2352 157.296L18.1779 157.214L18.1206 157.133L18.0688 157.06L18.0255 157.001L17.9685 156.919L17.9116 156.837L17.8547 156.755L17.7979 156.673L17.7559 156.616L17.7036 156.541L17.647 156.459L17.5906 156.376L17.5341 156.294L17.4829 156.22L17.4404 156.162L17.3842 156.079L17.3281 155.997L17.2722 155.914L17.2162 155.831L17.1746 155.773L17.1232 155.698L17.0675 155.615L17.0119 155.532L16.9564 155.45L16.9057 155.375L16.864 155.316L16.8087 155.233L16.7534 155.15L16.6983 155.067L16.6432 154.983L16.6021 154.925L16.5516 154.849L16.4968 154.766L16.4419 154.683L16.3873 154.599L16.3373 154.524L16.2963 154.465L16.2419 154.381L16.1874 154.297L16.1331 154.214L16.0789 154.13L16.0383 154.071L15.9888 153.995L15.9348 153.911L15.8808 153.827L15.827 153.743L15.7777 153.667L15.7374 153.607L15.6838 153.523L15.6303 153.439L15.5768 153.355L15.5234 153.27L15.4834 153.21L15.4347 153.134L15.3815 153.05L15.3285 152.965L15.2755 152.881L15.2269 152.804L15.1874 152.744L15.1346 152.659L15.082 152.575L15.0293 152.49L14.9769 152.405L14.9374 152.344L14.8895 152.268L14.8372 152.183L14.7851 152.098L14.7329 152.013L14.685 151.935L14.6463 151.875L14.5944 151.79L14.5426 151.705L14.4909 151.619L14.4392 151.534L14.4003 151.473L14.3533 151.396L14.3019 151.311L14.2506 151.225L14.1994 151.139L14.1521 151.061L14.1142 151.001L14.0631 150.915L14.0122 150.829L13.9614 150.743L13.9106 150.657L13.8722 150.596L13.8262 150.519L13.7756 150.433L13.7252 150.346L13.6748 150.26L13.6282 150.181L13.5911 150.121L13.5409 150.035L13.4908 149.949L13.4409 149.862L13.391 149.775L13.3531 149.713L13.3081 149.636L13.2584 149.549L13.2088 149.463L13.1594 149.376L13.1135 149.296L13.0771 149.236L13.0278 149.149L12.9786 149.062L12.9296 148.975L12.8806 148.888L12.8433 148.825L12.7991 148.748L12.7504 148.661L12.7016 148.573L12.6531 148.486L12.608 148.406L12.5723 148.345L12.5239 148.258L12.4756 148.171L12.4274 148.083L12.3793 147.996L12.3426 147.932L12.2994 147.854L12.2515 147.767L12.2037 147.679L12.156 147.591L12.1116 147.51L12.0767 147.45L12.0292 147.362L11.9819 147.274L11.9345 147.186L11.8874 147.098L11.8512 147.034L11.8088 146.956L11.7619 146.868L11.715 146.779L11.6682 146.691L11.6246 146.61L11.5904 146.549L11.5438 146.46L11.4974 146.372L11.451 146.283L11.4047 146.195L11.3691 146.13L11.3277 146.052L11.2816 145.963L11.2357 145.875L11.1898 145.786L11.1469 145.704L11.1134 145.643L11.0678 145.554L11.0222 145.465L10.9767 145.376L10.9313 145.287L10.8964 145.222L10.8559 145.143L10.8107 145.054L10.7657 144.965L10.7207 144.876L10.6785 144.793L10.6459 144.732L10.6012 144.643L10.5565 144.553L10.512 144.464L10.4675 144.374L10.4331 144.308L10.3935 144.23L10.3492 144.14L10.3051 144.051L10.2611 143.961L10.2197 143.877L10.1878 143.816L10.144 143.726L10.1002 143.637L10.0566 143.547L10.0131 143.457L9.97929 143.39L9.9406 143.311L9.89728 143.221L9.85406 143.131L9.81093 143.041L9.77032 142.957L9.73919 142.896L9.69631 142.805L9.65345 142.715L9.6108 142.625L9.56818 142.534L9.535 142.467L9.49724 142.388L9.45489 142.298L9.41253 142.207L9.37037 142.117L9.33056 142.032L9.30014 141.97L9.25821 141.88L9.21635 141.789L9.17455 141.698L9.13288 141.608L9.10036 141.54L9.0635 141.461L9.02209 141.37L8.98069 141.279L8.93945 141.188L8.90041 141.102L8.87075 141.041L8.82973 140.95L8.78882 140.859L8.74794 140.767L8.70721 140.676L8.67532 140.608L8.63936 140.529L8.5989 140.437L8.55843 140.346L8.51811 140.255L8.47991 140.168L8.45102 140.107L8.41088 140.015L8.37095 139.924L8.33101 139.832L8.29119 139.74L8.26001 139.671L8.22497 139.592L8.18539 139.5L8.14594 139.409L8.10653 139.317L8.06914 139.23L8.04103 139.168L8.00184 139.076L7.96285 138.984L7.92387 138.892L7.88498 138.8L7.85447 138.731L7.82035 138.651L7.78169 138.559L7.74321 138.467L7.70474 138.375L7.66812 138.287L7.6408 138.226L7.60259 138.133L7.5645 138.041L7.52646 137.948L7.48853 137.856L7.45866 137.786L7.42548 137.706L7.38773 137.614L7.35023 137.521L7.31274 137.429L7.27691 137.341L7.25034 137.279L7.21312 137.186L7.17594 137.093L7.1389 137L7.10194 136.908L7.07269 136.837L7.04044 136.757L7.00369 136.664L6.9671 136.571L6.93056 136.478L6.89559 136.39L6.86977 136.328L6.8335 136.235L6.79724 136.142L6.76121 136.048L6.72521 135.955L6.69661 135.884L6.66529 135.804L6.62953 135.711L6.59385 135.618L6.55828 135.524L6.52419 135.435L6.4991 135.373L6.46381 135.28L6.42851 135.186L6.39341 135.092L6.35838 134.999L6.33048 134.927L6.30006 134.847L6.2653 134.754L6.23054 134.66L6.19595 134.566L6.16273 134.476L6.13836 134.414L6.10404 134.32L6.06976 134.227L6.03558 134.133L6.00152 134.039L5.97434 133.967L5.94481 133.887L5.91103 133.793L5.87725 133.699L5.84363 133.604L5.81129 133.514L5.78766 133.452L5.75427 133.358L5.72101 133.264L5.68777 133.169L5.65468 133.075L5.62823 133.002L5.59957 132.922L5.56677 132.828L5.53398 132.733L5.50131 132.639L5.46984 132.548L5.447 132.486L5.41455 132.391L5.38227 132.297L5.35001 132.202L5.31787 132.108L5.29216 132.034L5.26444 131.954L5.23257 131.86L5.20077 131.765L5.16906 131.67L5.13845 131.578L5.11639 131.516L5.08489 131.422L5.05362 131.327L5.02234 131.232L4.99115 131.137L4.96617 131.063L4.93937 130.983L4.90843 130.888L4.87768 130.793L4.84695 130.698L4.81717 130.606L4.79586 130.543L4.76539 130.448L4.73506 130.353L4.70477 130.258L4.67459 130.162L4.65033 130.088L4.62444 130.008L4.59445 129.913L4.56471 129.817L4.53497 129.722L4.50606 129.629L4.48553 129.567L4.45605 129.472L4.42665 129.376L4.39739 129.281L4.3682 129.185L4.34463 129.11L4.31968 129.03L4.2907 128.934L4.2619 128.839L4.23315 128.743L4.20515 128.65L4.18536 128.588L4.15688 128.492L4.12842 128.396L4.10018 128.3L4.07199 128.204L4.04911 128.129L4.02509 128.049L3.99714 127.953L3.96928 127.857L3.94153 127.761L3.91447 127.667L3.89539 127.605L3.86792 127.509L3.84045 127.413L3.81321 127.317L3.78602 127.221L3.76385 127.145L3.74073 127.064L3.71381 126.968L3.6869 126.872L3.66018 126.776L3.63406 126.682L3.61567 126.619L3.5892 126.523L3.56277 126.427L3.53647 126.33L3.51027 126.234L3.48891 126.158L3.46667 126.077L3.44074 125.981L3.41482 125.884L3.38908 125.788L3.36389 125.693L3.34624 125.631L3.32075 125.534L3.29534 125.438L3.26999 125.341L3.2448 125.244L3.22423 125.168L3.20287 125.087L3.17796 124.991L3.15304 124.894L3.12829 124.797L3.10403 124.702L3.08713 124.64L3.0626 124.543L3.03824 124.446L3.01389 124.349L2.98966 124.252L2.96988 124.175L2.94941 124.095L2.92548 123.998L2.9016 123.9L2.87781 123.803L2.8545 123.708L2.83835 123.646L2.8148 123.549L2.79145 123.451L2.7681 123.354L2.74487 123.257L2.72588 123.18L2.70631 123.099L2.68335 123.002L2.66051 122.905L2.63772 122.807L2.61531 122.711L2.59992 122.649L2.57738 122.552L2.55502 122.455L2.53268 122.357L2.51045 122.26L2.49224 122.182L2.4736 122.101L2.45158 122.004L2.42979 121.906L2.40801 121.809L2.3865 121.712L2.37186 121.65L2.35036 121.553L2.32896 121.455L2.30765 121.358L2.28643 121.26L2.26898 121.181L2.25124 121.101L2.23022 121.004L2.20945 120.906L2.18869 120.808L2.16811 120.711L2.15422 120.649L2.13373 120.551L2.1133 120.454L2.09304 120.356L2.07284 120.258L2.05613 120.179L2.03929 120.099L2.01933 120.001L1.99951 119.903L1.97977 119.805L1.96018 119.707L1.94699 119.646L1.92752 119.548L1.90805 119.45L1.88884 119.352L1.86965 119.253L1.8537 119.174L1.83777 119.094L1.81885 118.996L1.8 118.898L1.78127 118.8L1.76269 118.702L1.75019 118.64L1.73174 118.542L1.71331 118.444L1.69507 118.345L1.6769 118.247L1.66176 118.167L1.64671 118.087L1.62882 117.989L1.61094 117.891L1.59325 117.792L1.57566 117.694L1.56383 117.633L1.54641 117.534L1.52902 117.436L1.51176 117.337L1.49461 117.239L1.4803 117.159L1.46611 117.079L1.44924 116.98L1.43238 116.882L1.41569 116.783L1.39911 116.685L1.38793 116.623L1.37153 116.524L1.35519 116.426L1.3389 116.327L1.32277 116.229L1.30931 116.148L1.29597 116.068L1.28012 115.97L1.26428 115.871L1.24859 115.772L1.23304 115.673L1.22253 115.611L1.20712 115.513L1.19184 115.414L1.17657 115.315L1.16142 115.217L1.1488 115.136L1.13633 115.056L1.12148 114.957L1.10669 114.858L1.09197 114.759L1.07744 114.661L1.06761 114.598L1.05322 114.5L1.03897 114.401L1.02472 114.302L1.01056 114.203L0.998781 114.122L0.987203 114.042L0.973319 113.943L0.959581 113.844L0.945897 113.745L0.932327 113.646L0.923169 113.583L0.909835 113.485L0.896577 113.386L0.883351 113.287L0.8702 113.188L0.85926 113.106L0.84856 113.027L0.835643 112.928L0.822961 112.829L0.810302 112.729L0.797699 112.63L0.789233 112.567L0.776972 112.469L0.764676 112.37L0.752477 112.271L0.740385 112.171L0.730234 112.09L0.720416 112.01L0.708507 111.911L0.696836 111.812L0.685205 111.712L0.673588 111.613L0.665805 111.55L0.654598 111.452L0.643274 111.352L0.632127 111.253L0.621059 111.154L0.611699 111.071L0.602762 110.992L0.591908 110.893L0.581208 110.793L0.570604 110.694L0.560039 110.595L0.552887 110.531L0.542719 110.433L0.532398 110.334L0.52227 110.234L0.512233 110.135L0.503674 110.052L0.495601 109.973L0.485804 109.874L0.476069 109.774L0.466492 109.675L0.456988 109.575L0.450471 109.511L0.441331 109.413L0.432039 109.314L0.422904 109.214L0.413894 109.115L0.406201 109.032L0.398935 108.953L0.39019 108.853L0.381465 108.754L0.372872 108.654L0.364423 108.554L0.358561 108.49L0.350438 108.393L0.342175 108.293L0.334028 108.193L0.326046 108.094L0.319225 108.01L0.312765 107.932L0.305067 107.832L0.297369 107.732L0.289757 107.633L0.282344 107.533L0.277188 107.468L0.270026 107.371L0.262818 107.271L0.255686 107.171L0.248681 107.072L0.242742 106.988L0.237113 106.91L0.230419 106.81L0.223749 106.71L0.217129 106.61L0.210743 106.511L0.206295 106.446L0.200088 106.348L0.193933 106.249L0.18783 106.149L0.181786 106.049L0.17674 105.965L0.171978 105.887L0.166244 105.787L0.160601 105.687L0.15503 105.587L0.149609 105.488L0.145878 105.422L0.140656 105.325L0.135516 105.226L0.130441 105.126L0.125366 105.026L0.121204 104.942L0.117304 104.864L0.11253 104.764L0.107915 104.664L0.103395 104.564L0.0989323 104.464L0.0959194 104.398L0.0917086 104.302L0.0875533 104.202L0.0835053 104.102L0.0794601 104.002L0.0761223 103.918L0.0730773 103.84L0.0693127 103.74L0.0656852 103.64L0.0622043 103.54L0.0587226 103.44L0.0564079 103.374L0.0532222 103.278L0.0500265 103.178L0.0470045 103.078L0.0440099 102.978L0.0414887 102.893L0.0392838 102.815L0.0365455 102.715L0.0338958 102.615L0.0314406 102.515L0.0289854 102.416L0.0273286 102.349L0.0251641 102.253L0.0229914 102.153L0.0209258 102.053L0.0189784 101.953L0.0173193 101.868L0.0159081 101.791L0.0141945 101.691L0.0125371 101.591L0.0110883 101.491L0.00965782 101.391L0.00866031 101.324L0.00751068 101.228L0.00636333 101.128L0.00524789 101.028L0.0043461 100.928L0.00358078 100.843L0.00292681 100.766L0.00223735 100.666L0.00162522 100.566L0.00112612 100.466L0.000719315 100.366L0.000449623 100.299L0.000234794 100.204L0.000102154 100.104L0 100.004L8.77988e-05 99.9037L0.000195314 99.8181L0.000339153 99.7412L0.000679611 99.6412L0.00107744 99.5412L0.0015389 99.4412L0.00217895 99.3413L0.00262993 99.2744L0.00335705 99.1788L0.00421947 99.0788L0.00515939 98.9788L0.00621334 98.8788L0.00722121 98.7931L0.00814058 98.7164L0.00947917 98.6164L0.0109114 98.5164L0.0123464 98.4165L0.0139939 98.3165L0.015205 98.2494L0.0168508 98.1541L0.0187081 98.0541L0.0207112 97.9541L0.0227136 97.8542L0.024617 97.7682L0.0263836 97.6917L0.028671 97.5918L0.0311056 97.4918L0.0336227 97.3919L0.0361953 97.2919L0.0381518 97.2246L0.0407881 97.1295L0.0436041 97.0296L0.0466347 96.9297L0.0496728 96.8297L0.0524026 96.7435L0.0550174 96.6673L0.0583412 96.5674L0.061684 96.4674L0.0652823 96.3675L0.0688911 96.2676L0.0714915 96.2L0.0751195 96.1053L0.0790152 96.0053L0.0829551 95.9054L0.0870505 95.8055L0.0907196 95.7191L0.0940502 95.6432L0.0984122 95.5433L0.102809 95.4434L0.107348 95.3435L0.111994 95.2437L0.115342 95.1759L0.119902 95.0814L0.124835 94.9815L0.129766 94.8816L0.134868 94.7818L0.139471 94.6952L0.143566 94.6195L0.148898 94.5197L0.15438 94.4199L0.159884 94.32L0.165518 94.2202L0.169651 94.1522L0.175143 94.0581L0.181076 93.9583L0.187055 93.8585L0.193131 93.7586L0.198654 93.6718L0.203566 93.5965L0.209849 93.4967L0.216383 93.397L0.222922 93.2972L0.229518 93.1974L0.234435 93.1292L0.240905 93.0354L0.247755 92.9356L0.254821 92.8359L0.261933 92.7362L0.268279 92.6492L0.274011 92.5741L0.281379 92.4744L0.288831 92.3747L0.29641 92.275L0.30408 92.1753L0.309676 92.107L0.317121 92.0134L0.324987 91.9137L0.333043 91.814L0.341191 91.7144L0.348457 91.6272L0.354928 91.5525L0.363361 91.4529L0.3718 91.3532L0.38039 91.2536L0.38911 91.154L0.395425 91.0855L0.40379 90.9922L0.412743 90.8927L0.421752 90.7931L0.430907 90.6935L0.439157 90.6062L0.446347 90.5318L0.455806 90.4323L0.465277 90.3328L0.474839 90.2333L0.484597 90.1338L0.491709 90.065L0.500922 89.9721L0.510962 89.8726L0.521004 89.7732L0.531099 89.6737L0.540331 89.5862L0.548334 89.5121L0.558717 89.4127L0.569259 89.3133L0.579871 89.2139L0.590556 89.1145L0.598474 89.0456L0.608667 88.953L0.619655 88.8536L0.630734 88.7542L0.641878 88.6549L0.651993 88.5673L0.660792 88.4936L0.67216 88.3942L0.68373 88.2949L0.695379 88.1956L0.707028 88.0963L0.715719 88.0273L0.726902 87.9351L0.738836 87.8358L0.750945 87.7366L0.763165 87.6373L0.774136 87.5496L0.783729 87.4762L0.796156 87.377L0.808675 87.2778L0.821364 87.1786L0.834095 87.0794L0.843487 87.0102L0.855621 86.9184L0.86859 86.8193L0.881671 86.7202L0.894924 86.6211L0.906867 86.5331L0.917134 86.4601L0.93065 86.361L0.944188 86.262L0.957817 86.1629L0.971632 86.0639L0.981806 85.9946L0.994806 85.9031L1.00882 85.8041L1.02293 85.7052L1.03716 85.6062L1.05008 85.5182L1.06107 85.4455L1.07561 85.3466L1.09019 85.2477L1.1048 85.1488L1.11964 85.0499L1.13062 84.9805L1.14445 84.8894L1.15955 84.7905L1.17469 84.6917L1.18986 84.5929L1.20379 84.5048L1.21557 84.4325L1.23104 84.3337L1.24665 84.2349L1.26235 84.1362L1.27811 84.0375L1.28991 83.9679L1.30468 83.8772L1.32075 83.7786L1.33692 83.6799L1.35312 83.5813L1.36797 83.4931L1.38053 83.4211L1.39698 83.3225L1.41359 83.224L1.43033 83.1254L1.44708 83.0268L1.45966 82.9571L1.4754 82.8669L1.49243 82.7683L1.5096 82.6699L1.52688 82.5714L1.54261 82.4831L1.55593 82.4115L1.57342 82.3131L1.59101 82.2147L1.60878 82.1163L1.62656 82.018L1.63987 81.9482L1.65657 81.8583L1.67462 81.76L1.69275 81.6617L1.71108 81.5634L1.72779 81.4751L1.74177 81.4039L1.76032 81.3057L1.77895 81.2074L1.79766 81.1092L1.81651 81.011L1.83062 80.9412L1.84816 80.8517L1.86724 80.7536L1.8864 80.6554L1.90571 80.5574L1.92341 80.469L1.93807 80.3982L1.95767 80.3002L1.97732 80.2021L1.99697 80.1041L2.01689 80.0061L2.03183 79.9362L2.05017 79.8471L2.0703 79.7492L2.09051 79.6513L2.11075 79.5535L2.12947 79.465L2.14488 79.3946L2.16543 79.2968L2.1861 79.199L2.20683 79.1012L2.22767 79.0034L2.24343 78.9334L2.26268 78.8448L2.2838 78.747L2.30503 78.6494L2.32626 78.5517L2.34593 78.4632L2.36211 78.3933L2.38363 78.2956L2.40528 78.198L2.42708 78.1005L2.44887 78.0029L2.46544 77.9328L2.4856 77.8447L2.50768 77.7472L2.52993 77.6497L2.55223 77.5523L2.5728 77.4638L2.58971 77.3942L2.61224 77.2969L2.63486 77.1995L2.65769 77.1021L2.6805 77.0048L2.69783 76.9347L2.71892 76.847L2.74201 76.7497L2.76518 76.6525L2.78854 76.5554L2.8101 76.4668L2.82766 76.3977L2.85122 76.3005L2.87487 76.2034L2.89864 76.1063L2.9225 76.0092L2.94063 75.939L2.96257 75.8518L2.98668 75.7548L3.01083 75.6578L3.0352 75.5609L3.05774 75.4724L3.07594 75.4036L3.10057 75.3067L3.12524 75.2099L3.14993 75.113L3.17486 75.0162L3.19381 74.946L3.21654 74.8592L3.24167 74.7625L3.26689 74.6657L3.29218 74.569L3.31573 74.4805L3.33464 74.4123L3.36022 74.3156L3.38591 74.219L3.41163 74.1224L3.43751 74.0259L3.4573 73.9556L3.48086 73.8693L3.50699 73.7729L3.53323 73.6764L3.55947 73.58L3.58403 73.4915L3.60366 73.4237L3.63017 73.3273L3.65685 73.231L3.68362 73.1347L3.71043 73.0384L3.73106 72.9681L3.75548 72.8823L3.78258 72.7861L3.80982 72.69L3.83708 72.5938L3.86257 72.5053L3.88292 72.438L3.91045 72.3419L3.93806 72.2458L3.96586 72.1498L3.99365 72.0539L4.01507 71.9836L4.04039 71.8982L4.06847 71.8023L4.09666 71.7064L4.12497 71.6106L4.1514 71.5222L4.1724 71.4553L4.20092 71.3595L4.22954 71.2637L4.25832 71.168L4.28712 71.0723L4.3093 71.002L4.3355 70.9173L4.36457 70.8216L4.39369 70.726L4.42305 70.6305L4.45048 70.5421L4.47208 70.4756L4.50164 70.3802L4.53126 70.2847L4.56095 70.1893L4.59082 70.0939L4.61384 70.0236L4.64079 69.9394L4.67086 69.8441L4.70101 69.7488L4.73129 69.6535L4.75974 69.5652L4.78198 69.4992L4.81254 69.404L4.84316 69.3089L4.87378 69.2138L4.90465 69.1187L4.92852 69.0485L4.95623 68.9647L4.98731 68.8697L5.01848 68.7748L5.04967 68.6798L5.07914 68.5916L5.10206 68.5261L5.13355 68.4312L5.16517 68.3364L5.19683 68.2416L5.22861 68.1469L5.25332 68.0767L5.28185 67.9935L5.31388 67.8988L5.34606 67.8042L5.37821 67.7096L5.40865 67.6214L5.43225 67.5564L5.46468 67.4619L5.49723 67.3674L5.52995 67.273L5.56265 67.1786L5.5882 67.1084L5.61756 67.0257L5.65053 66.9314L5.68367 66.8371L5.71686 66.7428L5.74824 66.6547L5.7725 66.5902L5.80592 66.4961L5.83942 66.4019L5.8731 66.3079L5.90679 66.2138L5.93313 66.1436L5.96333 66.0615L5.99728 65.9675L6.03131 65.8736L6.06553 65.7797L6.0979 65.6917L6.12275 65.6277L6.15716 65.5339L6.19166 65.4401L6.22627 65.3464L6.26096 65.2526L6.28809 65.1825L6.31908 65.101L6.35403 65.0074L6.38901 64.9138L6.4242 64.8202L6.45757 64.7323L6.48297 64.6689L6.5184 64.5754L6.55388 64.482L6.58939 64.3886L6.6251 64.2953L6.65309 64.2253L6.68478 64.1443L6.72069 64.051L6.75669 63.9578L6.79279 63.8646L6.82716 63.7769L6.85319 63.7139L6.88956 63.6208L6.92601 63.5278L6.96248 63.4348L6.99915 63.3418L7.02799 63.2719L7.06043 63.1914L7.09731 63.0986L7.13429 63.0058L7.17127 62.913L7.20668 62.8253L7.23336 62.7629L7.27062 62.6702L7.30803 62.5775L7.34552 62.4849L7.38306 62.3923L7.41275 62.3225L7.44598 62.2426L7.48379 62.1501L7.52174 62.0577L7.5597 61.9653L7.59606 61.8778L7.62336 61.8159L7.66158 61.7236L7.69991 61.6313L7.73839 61.5391L7.77688 61.4469L7.80736 61.3771L7.84137 61.2979L7.88012 61.2058L7.919 61.1137L7.95797 61.0217L7.99528 60.9344L8.02317 60.873L8.06235 60.7811L8.1016 60.6892L8.14103 60.5974L8.18049 60.5056L8.21177 60.4359L8.24657 60.3573L8.28628 60.2656L8.32602 60.174L8.36599 60.0824L8.40432 59.9952L8.43273 59.9343L8.47288 59.8429L8.51311 59.7514L8.55342 59.66L8.59385 59.5686L8.62598 59.4991L8.66149 59.421L8.70215 59.3297L8.74285 59.2385L8.78372 59.1474L8.82304 59.0604L8.852 59L8.89313 58.909L8.93431 58.818L8.9755 58.727L9.01692 58.636L9.0499 58.5666L9.08604 58.4891L9.12767 58.3983L9.16938 58.3075L9.21111 58.2168L9.25144 58.13L9.28099 58.0702L9.32301 57.9796L9.36514 57.889L9.40732 57.7984L9.44961 57.7079L9.48344 57.6386L9.52032 57.5618L9.56284 57.4714L9.60549 57.3811L9.64816 57.2907L9.68948 57.2041L9.71962 57.1449L9.76253 57.0547L9.80556 56.9646L9.84871 56.8745L9.89187 56.7844L9.92655 56.7152L9.96417 56.639L10.0076 56.549L10.0512 56.4592L10.0948 56.3693L10.137 56.2829L10.1678 56.2242L10.2116 56.1345L10.2555 56.0448L10.2996 55.9552L10.3437 55.8656L10.3792 55.7965L10.4176 55.721L10.4619 55.6314L10.5064 55.542L10.551 55.4526L10.5942 55.3664L10.6254 55.3083L10.6702 55.2191L10.7151 55.1298L10.7601 55.0406L10.8051 54.9515L10.8414 54.8826L10.8804 54.8077L10.9257 54.7186L10.971 54.6296L11.0166 54.5407L11.0608 54.4548L11.0925 54.3972L11.1382 54.3084L11.184 54.2197L11.2299 54.1309L11.2759 54.0422L11.313 53.9736L11.3527 53.8992L11.3989 53.8107L11.4452 53.7222L11.4915 53.6337L11.5368 53.548L11.569 53.4911L11.6157 53.4027L11.6624 53.3145L11.7091 53.2262L11.756 53.138L11.794 53.0695L11.8343 52.9958L11.8814 52.9077L11.9287 52.8198L11.9759 52.7318L12.0221 52.6463L12.0549 52.59L12.1024 52.5021L12.1501 52.4143L12.1977 52.3265L12.2455 52.2388L12.2843 52.1705L12.3253 52.0975L12.3733 52.0099L12.4215 51.9224L12.4696 51.8349L12.5168 51.7497L12.5501 51.6939L12.5985 51.6066L12.647 51.5193L12.6956 51.432L12.7442 51.3448L12.7838 51.2767L12.8256 51.2043L12.8744 51.1172L12.9234 51.0302L12.9725 50.9433L13.0207 50.8583L13.0545 50.8031L13.1038 50.7163L13.1531 50.6295L13.2027 50.5428L13.2522 50.4561L13.2926 50.3881L13.335 50.3164L13.3848 50.2298L13.4346 50.1433L13.4846 50.0569L13.5338 49.9722L13.5681 49.9176L13.6183 49.8313L13.6685 49.745L13.7189 49.6588L13.7693 49.5726L13.8106 49.5049L13.8536 49.4339L13.9043 49.3478L13.955 49.2618L14.0059 49.1759L14.056 49.0915L14.0907 49.0375L14.1418 48.9517L14.193 48.866L14.2442 48.7802L14.2955 48.6946L14.3376 48.6271L14.3812 48.5568L14.4328 48.4713L14.4844 48.3858L14.5361 48.3003L14.5872 48.2163L14.6225 48.1629L14.6744 48.0776L14.7265 47.9924L14.7785 47.9072L14.8307 47.8221L14.8737 47.7549L14.9179 47.6852L14.9703 47.6002L15.0228 47.5153L15.0754 47.4304L15.1274 47.3467L15.1632 47.2939L15.216 47.2091L15.2689 47.1245L15.3219 47.0399L15.3749 46.9553L15.4187 46.8883L15.4635 46.8193L15.5168 46.7348L15.5702 46.6505L15.6236 46.5661L15.6766 46.4827L15.7128 46.4306L15.7665 46.3464L15.8202 46.2622L15.8741 46.1781L15.928 46.0941L15.9726 46.0273L16.018 45.959L16.0722 45.8752L16.1264 45.7913L16.1807 45.7075L16.2347 45.6245L16.2714 45.5729L16.3259 45.4893L16.3805 45.4057L16.4352 45.3222L16.49 45.2387L16.5353 45.1722L16.5814 45.1046L16.6364 45.0213L16.6914 44.938L16.7466 44.8549L16.8016 44.7722L16.8387 44.7212L16.8941 44.6381L16.9495 44.5551L17.005 44.4722L17.0607 44.3893L17.1068 44.3231L17.1535 44.2561L17.2094 44.1734L17.2652 44.0907L17.3213 44.0081L17.3772 43.9258L17.4147 43.8754L17.4709 43.7929L17.5273 43.7105L17.5836 43.6281L17.6401 43.5458L17.6871 43.4798L17.7343 43.4136L17.791 43.3315L17.8478 43.2493L17.9046 43.1673L17.9615 43.0853L17.9994 43.0356L18.0564 42.9537L18.1136 42.8719L18.1709 42.79L18.2281 42.7083L18.276 42.6427L18.3237 42.5772L18.3812 42.4956L18.4389 42.4141L18.4965 42.3326L18.5542 42.2512L18.5928 42.2018L18.6506 42.1206L18.7086 42.0394L18.7666 41.9582L18.8248 41.877L18.8734 41.8117L18.9217 41.7469L18.98 41.6659L19.0385 41.585L19.097 41.5042L19.1555 41.4233L19.1948 41.3741L19.2533 41.2938L19.312 41.2131L19.371 41.1325L19.4299 41.052L19.4793 40.9869L19.5282 40.9229L19.5874 40.8425L19.6466 40.7622L19.7059 40.6819L19.7653 40.6017L19.8052 40.5528L19.8644 40.4733L19.924 40.3932L19.9837 40.3132L20.0435 40.2333L20.0937 40.1685L20.1431 40.1052L20.2031 40.0255L20.2631 39.9458L20.3233 39.8661L20.3835 39.7865L20.424 39.7377L20.4839 39.6591L20.5443 39.5796L20.6048 39.5002L20.6654 39.421L20.7165 39.3566L20.7664 39.2939L20.8272 39.2148L20.888 39.1357L20.949 39.0567L21.01 38.9778L21.0513 38.9292L21.1117 38.8513L21.173 38.7725L21.2343 38.6938L21.2956 38.6151L21.3475 38.5511L21.3979 38.4892L21.4596 38.4107L21.5212 38.3322L21.5829 38.2538L21.6448 38.1755L21.6867 38.1273L21.7478 38.0502L21.8099 37.972L21.8719 37.8939L21.9341 37.8158L21.9868 37.7522L22.0377 37.6911L22.1001 37.6132L22.1626 37.5354L22.2251 37.4576L22.2877 37.3799L22.3302 37.3319L22.392 37.2557L22.4548 37.1782L22.5177 37.1007L22.5807 37.0233L22.6342 36.9599L22.6857 36.8996L22.7488 36.8223L22.812 36.7452L22.8754 36.6681L22.9388 36.5909L22.982 36.5432L23.0444 36.4679L23.108 36.391L23.1717 36.3142L23.2354 36.2375L23.2896 36.1744L23.3417 36.1148L23.4056 36.0382L23.4696 35.9617L23.5337 35.8853L23.5979 35.8089L23.6417 35.7614L23.7048 35.6869L23.7691 35.6107L23.8336 35.5345L23.8981 35.4584L23.9531 35.3958L24.0056 35.3369L24.0703 35.261L24.1351 35.1851L24.2 35.1093L24.265 35.0337L24.3094 34.9864L24.3731 34.9128L24.4382 34.8372L24.5035 34.7617L24.5688 34.6863L24.6246 34.6241L24.6775 34.5659L24.743 34.4907L24.8086 34.4155L24.8742 34.3404L24.9399 34.2654L24.9851 34.2185L25.0493 34.1456L25.1152 34.0708L25.1812 33.9959L25.2473 33.9212L25.3039 33.8593L25.3573 33.802L25.4235 33.7274L25.4898 33.6529L25.5562 33.5785L25.6227 33.5041L25.6685 33.4575L25.7334 33.3855L25.8001 33.3113L25.8668 33.2372L25.9335 33.1631L25.991 33.1017L26.0448 33.0451L26.1118 32.9712L26.1789 32.8974L26.2461 32.8236L26.3132 32.7499L26.3597 32.7036L26.4251 32.6325L26.4925 32.559L26.5601 32.4856L26.6276 32.4122L26.6858 32.3512L26.7401 32.2954L26.8078 32.2221L26.8756 32.149L26.9435 32.076L27.0115 32.0029L27.0586 31.957L27.1246 31.8868L27.1927 31.8139L27.2609 31.7412L27.3293 31.6685L27.3882 31.6079L27.443 31.5528L27.5114 31.4803L27.58 31.4079L27.6486 31.3356L27.7173 31.2632L27.765 31.2175L27.8316 31.1482L27.9005 31.0761L27.9694 31.004L28.0385 30.9321L28.0982 30.8719L28.1533 30.8176L28.2226 30.7458L28.2919 30.6741L28.3612 30.6025L28.4306 30.5309L28.479 30.4855L28.5462 30.4171L28.6158 30.3457L28.6855 30.2743L28.7552 30.2031L28.8157 30.1434L28.8712 30.0898L28.9412 30.0188L29.0113 29.9477L29.0813 29.8767L29.1515 29.8059L29.2005 29.7609L29.2681 29.6933L29.3385 29.6227L29.4089 29.5521L29.4794 29.4815L29.5406 29.4222L29.5966 29.3695L29.6672 29.2991L29.738 29.2289L29.8087 29.1586L29.8796 29.0885L29.9293 29.0438L29.9975 28.9771L30.0685 28.9072L30.1397 28.8373L30.2108 28.7675L30.2729 28.7086L30.3292 28.6567L30.4006 28.587L30.472 28.5175L30.5435 28.448L30.6151 28.3786L30.6654 28.3343L30.7341 28.2685L30.8058 28.1992L30.8777 28.1301L30.9496 28.061L31.0124 28.0026L31.0691 27.9515L31.1412 27.8826L31.2133 27.8137L31.2855 27.745L31.3578 27.6763L31.4087 27.6324L31.4779 27.5675L31.5504 27.499L31.6229 27.4306L31.6955 27.3622L31.7591 27.3043L31.8162 27.254L31.8889 27.1859L31.9617 27.1177L32.0346 27.0498L32.1076 26.9818L32.1591 26.9382L32.2289 26.8743L32.302 26.8066L32.3752 26.7388L32.4485 26.6713L32.5128 26.6139L32.5703 26.5643L32.6437 26.4969L32.7172 26.4296L32.7908 26.3623L32.8644 26.2951L32.9166 26.2519L32.9868 26.1888L33.0607 26.1219L33.1345 26.0549L33.2085 25.9881L33.2736 25.9312L33.3314 25.8824L33.4055 25.8158L33.4797 25.7492L33.5539 25.6827L33.6282 25.6163L33.6811 25.5735L33.7517 25.5113L33.8262 25.4451L33.9008 25.3789L33.9754 25.3128L34.0413 25.2565L34.0994 25.2085L34.1742 25.1426L34.2491 25.0768L34.324 25.011L34.399 24.9454L34.4524 24.903L34.5236 24.8417L34.5987 24.7763L34.6739 24.7109L34.7492 24.6456L34.8158 24.5897L34.8743 24.5425L34.9497 24.4774L35.0253 24.4124L35.1008 24.3474L35.1764 24.2825L35.2306 24.2406L35.3022 24.1802L35.3779 24.1155L35.4538 24.0509L35.5298 23.9864L35.5971 23.931L35.6559 23.8846L35.732 23.8203L35.8082 23.756L35.8844 23.6919L35.9607 23.6278L36.0154 23.5862L36.0874 23.5268L36.1639 23.4628L36.2404 23.399L36.317 23.3353L36.385 23.2804L36.4442 23.2349L36.521 23.1713L36.5978 23.1078L36.6747 23.0445L36.7516 22.9812L36.8069 22.94L36.8793 22.8815L36.9565 22.8184L37.0336 22.7553L37.1109 22.6924L37.1797 22.6381L37.2391 22.5933L37.3165 22.5306L37.3939 22.4679L37.4714 22.4053L37.549 22.3428L37.605 22.302L37.6778 22.2444L37.7556 22.1821L37.8334 22.1199L37.9112 22.0577L37.9807 22.004L38.0405 21.96L38.1185 21.8981L38.1966 21.8362L38.2747 21.7744L38.3529 21.7127L38.4095 21.6724L38.4827 21.6157L38.5611 21.5542L38.6395 21.4928L38.718 21.4314L38.7883 21.3782L38.8483 21.3351L38.9269 21.2739L39.0057 21.2129L39.0844 21.1519L39.1632 21.0909L39.2204 21.0511L39.294 20.9954L39.373 20.9347L39.4521 20.874L39.5312 20.8135L39.6022 20.7609L39.6625 20.7185L39.7417 20.6582L39.821 20.598L39.9004 20.5378L39.9798 20.4776L40.0376 20.4382L40.1117 20.3835L40.1912 20.3235L40.2709 20.2638L40.3506 20.2041L40.4223 20.152L40.4829 20.1105L40.5627 20.0509L40.6426 19.9915L40.7226 19.9322L40.8026 19.8729L40.861 19.8339L40.9355 19.7801L41.0156 19.721L41.0959 19.662L41.1762 19.6032L41.2486 19.5516L41.3094 19.511L41.3899 19.4523L41.4704 19.3936L41.5509 19.3351L41.6316 19.2767L41.6905 19.2382L41.7653 19.1853L41.8461 19.127L41.927 19.0689L42.0079 19.0108L42.081 18.9599L42.142 18.92L42.2231 18.8622L42.3042 18.8044L42.3854 18.7467L42.4666 18.6891L42.5261 18.651L42.6013 18.5991L42.6826 18.5417L42.7641 18.4844L42.8456 18.4271L42.9194 18.3769L42.9807 18.3378L43.0623 18.2808L43.144 18.2238L43.2257 18.167L43.3075 18.1102L43.3677 18.0727L43.4431 18.0216L43.5251 17.9651L43.6071 17.9086L43.6891 17.8522L43.7637 17.8026L43.8252 17.7643L43.9074 17.7081L43.9896 17.652L44.0719 17.596L44.1543 17.5401L44.215 17.5031L44.2908 17.453L44.3734 17.3973L44.456 17.3417L44.5385 17.286L44.6138 17.2371L44.6755 17.1997L44.7582 17.1443L44.8411 17.0891L44.924 17.0339L45.0069 16.9788L45.0682 16.9423L45.1443 16.8932L45.2274 16.8383L45.3105 16.7835L45.3937 16.7288L45.4696 16.6804L45.5316 16.6439L45.6148 16.5893L45.6982 16.535L45.7817 16.4807L45.8652 16.4264L45.927 16.3904L46.0035 16.3422L46.0871 16.2882L46.1708 16.2343L46.2545 16.1805L46.331 16.1327L46.3933 16.0969L46.4771 16.0433L46.561 15.9898L46.645 15.9364L46.729 15.883L46.7914 15.8475L46.8682 15.8003L46.9524 15.7471L47.0366 15.6941L47.1209 15.6411L47.1981 15.5939L47.2604 15.559L47.3448 15.5063L47.4293 15.4536L47.5138 15.401L47.5984 15.3486L47.6613 15.3135L47.7384 15.2673L47.8231 15.215L47.9079 15.1628L47.9927 15.1108L48.0705 15.0643L48.1331 15.0302L48.218 14.9783L48.303 14.9265L48.388 14.8748L48.4732 14.8232L48.5367 14.7887L48.614 14.7434L48.6992 14.692L48.7845 14.6407L48.8698 14.5895L48.9484 14.5437L49.0111 14.5104L49.0965 14.4595L49.182 14.4085L49.2676 14.3577L49.3532 14.307L49.4173 14.2731L49.4949 14.2287L49.5806 14.1782L49.6664 14.1278L49.7522 14.0774L49.8315 14.0324L49.8943 13.9999L49.9803 13.9498L50.0663 13.8998L50.1523 13.8498L50.2385 13.8L50.3031 13.7666L50.381 13.7232L50.4673 13.6736L50.5535 13.6241L50.6398 13.5746L50.7197 13.5302L50.7827 13.4985L50.8692 13.4493L50.9557 13.4002L51.0423 13.3511L51.1289 13.3022L51.1941 13.2694L51.2722 13.2269L51.3589 13.1782L51.4457 13.1296L51.5325 13.081L51.6131 13.0373L51.6762 13.0065L51.7631 12.9581L51.8501 12.9099L51.9372 12.8618L52.0243 12.8137L52.0901 12.7814L52.1684 12.74L52.2556 12.6922L52.3429 12.6444L52.4302 12.5968L52.5113 12.5537L52.5747 12.5238L52.6621 12.4763L52.7496 12.429L52.8371 12.3818L52.9247 12.3346L52.991 12.3029L53.0695 12.2624L53.1573 12.2155L53.245 12.1686L53.3328 12.1219L53.4145 12.0795L53.478 12.0504L53.5659 12.0039L53.6539 11.9575L53.7419 11.9112L53.8299 11.8649L53.8967 11.8337L53.9755 11.7943L54.0636 11.7482L54.1519 11.7023L54.2402 11.6565L54.3226 11.6148L54.3861 11.5865L54.4744 11.541L54.5629 11.4954L54.6513 11.45L54.7399 11.4047L54.8072 11.3741L54.8862 11.3356L54.9748 11.2905L55.0635 11.2454L55.1522 11.2006L55.2352 11.1596L55.2988 11.1321L55.3877 11.0875L55.4766 11.0429L55.5655 10.9983L55.6545 10.954L55.7223 10.924L55.8015 10.8864L55.8906 10.8422L55.9797 10.7981L56.0689 10.7541L56.1525 10.714L56.2162 10.6873L56.3055 10.6436L56.3948 10.5999L56.4841 10.5562L56.5736 10.5128L56.642 10.4834L56.7213 10.4468L56.8108 10.4036L56.9004 10.3604L56.99 10.3173L57.0743 10.2779L57.138 10.2521L57.2277 10.2093L57.3175 10.1665L57.4072 10.1238L57.4971 10.0813L57.566 10.0525L57.6455 10.0168L57.7355 9.97457L57.8255 9.93234L57.9155 9.89012L58.0004 9.85149L58.0642 9.82651L58.1543 9.78458L58.2445 9.74278L58.3347 9.70105L58.425 9.65941L58.4945 9.63126L58.5741 9.59658L58.6645 9.55522L58.7549 9.51394L58.8453 9.47266L58.9308 9.43477L58.9947 9.41065L59.0852 9.36961L59.1758 9.32876L59.2665 9.28799L59.3571 9.24723L59.4271 9.21974L59.5068 9.18606L59.5977 9.14558L59.6885 9.10523L59.7793 9.06495L59.8654 9.02777L59.9293 9.0045L60.0203 8.9644L60.1113 8.92449L60.2023 8.88467L60.2934 8.84484L60.3638 8.81795L60.4437 8.7853L60.5349 8.74573L60.6261 8.70632L60.7174 8.66701L60.8041 8.63054L60.868 8.60813L60.9594 8.56901L61.0508 8.53L61.1422 8.49113L61.2337 8.45228L61.3047 8.42598L61.3847 8.39431L61.4762 8.3557L61.5679 8.31722L61.6595 8.27887L61.7467 8.24319L61.8108 8.22156L61.9025 8.18343L61.9943 8.14534L62.0861 8.10742L62.178 8.06955L62.2494 8.04386L62.3295 8.01317L62.4215 7.97551L62.5135 7.93797L62.6055 7.90058L62.6933 7.86569L62.7573 7.84486L62.8494 7.80772L62.9416 7.77059L63.0338 7.73357L63.126 7.69671L63.1979 7.67166L63.2782 7.64192L63.3705 7.60523L63.4628 7.56863L63.5553 7.53219L63.6436 7.49812L63.7076 7.47808L63.8002 7.44192L63.8927 7.40576L63.9852 7.36967L64.0779 7.33377L64.1502 7.30939L64.2305 7.28058L64.3232 7.24489L64.4159 7.20926L64.5087 7.17373L64.5976 7.1405L64.6616 7.12129L64.7545 7.08606L64.8474 7.05087L64.9403 7.01573L65.0333 6.9808L65.1061 6.95709L65.1865 6.9292L65.2795 6.89452L65.3726 6.85986L65.4657 6.82524L65.5552 6.79285L65.6192 6.77449L65.7124 6.74017L65.8056 6.70595L65.8989 6.67183L65.9922 6.63781L66.0655 6.61477L66.1459 6.58786L66.2393 6.55414L66.3328 6.52045L66.4262 6.48679L66.5162 6.45523L66.5802 6.4377L66.6737 6.4043L66.7673 6.37109L66.8609 6.33794L66.9545 6.30484L67.0283 6.28251L67.1088 6.2566L67.2025 6.22379L67.2963 6.19108L67.39 6.15843L67.4806 6.12764L67.5445 6.11096L67.6384 6.07851L67.7323 6.04628L67.8262 6.0141L67.9202 5.98193L67.9944 5.9603L68.075 5.93539L68.169 5.90351L68.263 5.87178L68.3572 5.84014L68.4482 5.81014L68.5121 5.79428L68.6063 5.76283L68.7005 5.73155L68.7948 5.70036L68.8891 5.66918L68.9637 5.64821L69.0443 5.62427L69.1386 5.59335L69.233 5.56261L69.3274 5.53195L69.419 5.50274L69.4829 5.48772L69.5774 5.45728L69.6719 5.42693L69.7664 5.39672L69.861 5.36657L69.9361 5.34625L70.0167 5.32328L70.1113 5.29335L70.206 5.26357L70.3008 5.2339L70.3928 5.20554L70.4566 5.19129L70.5514 5.16188L70.6462 5.13248L70.7411 5.10323L70.836 5.0741L70.9115 5.05443L70.9921 5.03245L71.087 5.00351L71.182 4.97468L71.277 4.946L71.3696 4.91853L71.4333 4.90504L71.5284 4.87664L71.6235 4.84823L71.7186 4.81994L71.8138 4.79181L71.8897 4.77285L71.9703 4.75178L72.0655 4.72387L72.1608 4.69601L72.256 4.6683L72.3491 4.64172L72.4128 4.62901L72.5081 4.60159L72.6035 4.57417L72.6989 4.54686L72.7943 4.51972L72.8707 4.50148L72.9513 4.48133L73.0468 4.45444L73.1423 4.42757L73.2379 4.4008L73.3314 4.37512L73.395 4.36323L73.4906 4.33675L73.5862 4.31034L73.6819 4.28402L73.7776 4.25785L73.8543 4.24035L73.9349 4.22111L74.0307 4.19523L74.1265 4.16936L74.2223 4.14356L74.3163 4.11877L74.3798 4.10769L74.4756 4.08216L74.5715 4.05678L74.6675 4.03145L74.7634 4.00622L74.8406 3.98946L74.9211 3.9712L75.0171 3.94628L75.1132 3.9214L75.2092 3.89659L75.3037 3.87267L75.3671 3.8624L75.4632 3.83781L75.5593 3.81347L75.6555 3.78914L75.7517 3.76486L75.8292 3.74885L75.9097 3.73158L76.0059 3.7076L76.1022 3.68372L76.1985 3.65995L76.2935 3.63685L76.3567 3.6274L76.453 3.60382L76.5494 3.58045L76.6458 3.55712L76.7422 3.53382L76.8202 3.51855L76.9006 3.50224L76.9971 3.47919L77.0936 3.45636L77.1901 3.43359L77.2855 3.41132L77.3486 3.40269L77.4452 3.38014L77.5418 3.3577L77.6384 3.33538L77.7351 3.31312L77.8134 3.29853L77.8938 3.28319L77.9904 3.26114L78.0872 3.23929L78.184 3.21751L78.2798 3.19612L78.3427 3.18826L78.4395 3.16676L78.5363 3.14527L78.6332 3.12395L78.7301 3.10273L78.8087 3.08884L78.889 3.07445L78.9859 3.05341L79.0828 3.03254L79.1798 3.01177L79.2761 2.9913L79.3389 2.98418L79.4359 2.9637L79.5329 2.94321L79.63 2.92288L79.727 2.90267L79.806 2.8895L79.8863 2.87602L79.9834 2.85603L80.0805 2.8361L80.1777 2.81634L80.2744 2.79683L80.337 2.79045L80.4342 2.77097L80.5314 2.75149L80.6286 2.73214L80.7259 2.71294L80.8053 2.70052L80.8854 2.68794L80.9827 2.669L81.08 2.65007L81.1773 2.63126L81.2744 2.61269L81.3369 2.60708L81.4343 2.58857L81.5317 2.57011L81.6291 2.55173L81.7266 2.53353L81.8063 2.5219L81.8863 2.51021L81.9838 2.49229L82.0813 2.47437L82.1787 2.45654L82.2763 2.4389L82.3386 2.43407L82.4361 2.41651L82.5337 2.39909L82.6313 2.38173L82.7289 2.36448L82.809 2.35364L82.8889 2.34288L82.9865 2.32593L83.0842 2.30902L83.1818 2.29219L83.2795 2.27555L83.3421 2.27135L83.4396 2.2548L83.5373 2.23843L83.635 2.22209L83.7328 2.20578L83.8132 2.19573L83.893 2.18592L83.9908 2.16992L84.0886 2.15403L84.1864 2.13823L84.2843 2.12253L84.3471 2.11896L84.4445 2.10351L84.5424 2.08811L84.6403 2.07278L84.7382 2.05747L84.8189 2.04819L84.8986 2.03932L84.9965 2.02426L85.0945 2.00941L85.1925 1.99463L85.2904 1.97987L85.3535 1.97693L85.4509 1.96261L85.5489 1.94816L85.6469 1.93383L85.745 1.91957L85.826 1.911L85.9055 1.90306L86.0036 1.88901L86.1017 1.87514L86.1998 1.86138L86.2979 1.8476L86.3613 1.84525L86.4585 1.83205L86.5566 1.81856L86.6548 1.80523L86.753 1.79201L86.8344 1.78416L86.9137 1.77714L87.0119 1.76412L87.1101 1.75122L87.2083 1.73847L87.3066 1.72574L87.3702 1.72394L87.4673 1.71183L87.5656 1.69935L87.6638 1.687L87.7621 1.6748L87.8438 1.66773L87.9229 1.66158L88.0212 1.6496L88.1196 1.63768L88.2179 1.6259L88.3163 1.61421L88.3801 1.613L88.4771 1.60195L88.5755 1.59049L88.6739 1.5791L88.7723 1.56792L88.8543 1.56165L88.9332 1.55633L89.0317 1.54541L89.1301 1.5345L89.2286 1.52365L89.327 1.51302L89.3912 1.51246L89.488 1.50239L89.5865 1.49193L89.685 1.48158L89.7835 1.47138L89.8657 1.4659L89.9445 1.46146L90.043 1.45155L90.1415 1.44164L90.2401 1.43179L90.3386 1.42217L90.403 1.42223L90.4997 1.41318L90.5983 1.40378L90.6968 1.39443L90.7954 1.38515L90.878 1.38052L90.9565 1.377L91.0551 1.36801L91.1537 1.35913L91.2524 1.35032L91.351 1.34163L91.4156 1.34237L91.5121 1.33436L91.6108 1.32593L91.7094 1.31763L91.8081 1.30932L91.8909 1.30547L91.9693 1.30289L92.0679 1.29487L92.1666 1.28696L92.2653 1.27923L92.364 1.27149L92.4288 1.27285L92.5252 1.26594L92.6239 1.25849L92.7226 1.25118L92.8214 1.24393L92.9045 1.24082L92.9826 1.23914L93.0813 1.23216L93.1801 1.22521L93.2788 1.2185L93.3776 1.2118L93.4426 1.21371L93.5388 1.20791L93.6376 1.20149L93.7363 1.19509L93.8351 1.18892L93.9185 1.18665L93.9964 1.18576L94.0952 1.17982L94.194 1.17394L94.2928 1.16814L94.3916 1.16248L94.4569 1.16509L94.5528 1.16027L94.6517 1.15489L94.7505 1.14951L94.8493 1.14431L94.9329 1.14288L95.0106 1.14288L95.1094 1.13788L95.2083 1.13308L95.3071 1.12828L95.406 1.12359L95.4714 1.12689L95.5672 1.1231L95.6661 1.1187L95.7649 1.11438L95.8638 1.11016L95.9476 1.10953L96.025 1.11044L96.1239 1.10643L96.2228 1.10263L96.3217 1.09887L96.4206 1.09515L96.4862 1.09913L96.5818 1.0964L96.6807 1.09292L96.7796 1.08969L96.8785 1.0865L96.9625 1.08661L97.0397 1.08842L97.1386 1.08549L97.2375 1.08261L97.3364 1.07989L97.4353 1.07725L97.5011 1.08181L97.5965 1.08014L97.6954 1.0777L97.7943 1.07543L97.8932 1.07328L97.9775 1.07425L98.0543 1.07685L98.1532 1.07499L98.2522 1.07313L98.3511 1.07137L98.45 1.06979L98.516 1.07501L98.6111 1.07433L98.71 1.07296L98.8089 1.07167L98.9078 1.07051L98.9923 1.07236L99.0689 1.0758L99.1678 1.07494L99.2667 1.07412L99.3657 1.07335L99.4646 1.07279L99.5308 1.07871L99.6256 1.07898L99.7245 1.07868L99.8234 1.07843L99.9223 1.07819L100.007 1.08093L100.083 1.08528L100.182 1.08535L100.281 1.08556L100.38 1.08587L100.479 1.08624L100.545 1.09288L100.64 1.09419L100.739 1.09486L100.838 1.09565L100.937 1.09645L101.021 1.09998L101.097 1.10523L101.196 1.1063L101.295 1.1075L101.394 1.10886L101.493 1.11023L101.56 1.11752L101.654 1.1199L101.753 1.12155L101.852 1.12334L101.95 1.12521L102.035 1.12954L102.111 1.13565L102.21 1.13777L102.309 1.13993L102.408 1.14233L102.507 1.14474L102.573 1.15263L102.667 1.15609L102.766 1.15879L102.865 1.1615L102.964 1.16444L103.049 1.16966L103.124 1.17653L103.223 1.17969L103.322 1.18293L103.421 1.18626L103.52 1.1897L103.586 1.19832L103.68 1.20274L103.779 1.20648L103.878 1.21021L103.977 1.21414L104.062 1.22024L104.137 1.22794L104.236 1.23208L104.335 1.23639L104.433 1.2407L104.532 1.24516L104.599 1.2545L104.692 1.25989L104.791 1.26463L104.89 1.26943L104.989 1.27431L105.074 1.28129L105.149 1.28986L105.248 1.29497L105.346 1.30031L105.445 1.30566L105.544 1.31109L105.611 1.32116L105.704 1.32757L105.803 1.33325L105.901 1.33912L106 1.34504L106.086 1.35281L106.16 1.36224L106.259 1.36841L106.357 1.3747L106.456 1.38108L106.554 1.38755L106.622 1.39829L106.714 1.40571L106.813 1.41238L106.912 1.41927L107.01 1.42623L107.096 1.43482L107.17 1.44507L107.269 1.45232L107.367 1.45956L107.466 1.46697L107.564 1.4745L107.632 1.48587L107.724 1.49431L107.823 1.50204L107.921 1.50987L108.019 1.51786L108.105 1.52737L108.179 1.53839L108.278 1.54666L108.376 1.55494L108.474 1.56332L108.573 1.57189L108.64 1.58399L108.732 1.59335L108.831 1.60213L108.929 1.61098L109.028 1.61993L109.114 1.63036L109.187 1.64219L109.285 1.65145L109.384 1.66076L109.482 1.67014L109.58 1.6797L109.648 1.69254L109.74 1.70282L109.838 1.71266L109.936 1.72255L110.034 1.73243L110.121 1.74378L110.194 1.75646L110.292 1.76665L110.39 1.77699L110.488 1.78744L110.586 1.79794L110.654 1.81152L110.745 1.82281L110.844 1.83361L110.942 1.84452L111.04 1.85545L111.126 1.86762L111.199 1.88114L111.297 1.89233L111.395 1.90366L111.493 1.91514L111.591 1.92663L111.659 1.9409L111.75 1.95321L111.848 1.96497L111.946 1.97689L112.044 1.98887L112.13 2.00187L112.202 2.0162L112.3 2.02843L112.398 2.04072L112.496 2.05323L112.594 2.06575L112.662 2.08068L112.753 2.09399L112.851 2.10679L112.948 2.11963L113.046 2.13267L113.133 2.14658L113.205 2.16164L113.302 2.1749L113.4 2.18823L113.498 2.20169L113.596 2.21522L113.664 2.23089L113.754 2.24513L113.852 2.25896L113.949 2.27278L114.047 2.28683L114.134 2.30165L114.205 2.31745L114.303 2.33172L114.4 2.3461L114.498 2.36049L114.595 2.37506L114.663 2.39147L114.753 2.40661L114.851 2.42147L114.948 2.43633L115.046 2.45132L115.133 2.46705L115.203 2.48367L115.301 2.49888L115.398 2.51429L115.496 2.52971L115.593 2.54523L115.661 2.56239L115.751 2.57849L115.848 2.59429L115.945 2.61019L116.043 2.62618L116.13 2.64277L116.2 2.66019L116.297 2.67638L116.395 2.69279L116.492 2.70922L116.589 2.7257L116.657 2.74362L116.746 2.76067L116.843 2.77739L116.941 2.79435L117.038 2.81134L117.125 2.82876L117.195 2.84698L117.292 2.86422L117.389 2.88154L117.486 2.89899L117.583 2.91652L117.651 2.9351L117.74 2.95311L117.837 2.97084L117.934 2.98875L118.031 3.00676L118.117 3.02508L118.187 3.04401L118.284 3.06229L118.381 3.08059L118.478 3.09901L118.574 3.11757L118.643 3.13684L118.731 3.15578L118.827 3.17452L118.924 3.19337L119.021 3.2124L119.108 3.23164L119.177 3.25127L119.274 3.27058L119.37 3.28988L119.467 3.30925L119.564 3.32884L119.632 3.34886L119.719 3.36864L119.816 3.38843L119.913 3.4083L120.009 3.42824L120.096 3.44842L120.165 3.46881L120.261 3.48906L120.358 3.50937L120.454 3.52973L120.551 3.55027L120.619 3.57106L120.706 3.59172L120.802 3.6125L120.899 3.63337L120.995 3.65425L121.082 3.67535L121.15 3.69652L121.246 3.71767L121.343 3.73899Z" fill="white"/>
</svg>
