<svg width="200" height="200" viewBox="0 0 200 200" fill="none" xmlns="http://www.w3.org/2000/svg">
<path d="M103.999 1.44765L104.076 1.4411L104.153 1.4347L104.23 1.42841L104.307 1.42212L104.297 1.41551L104.373 1.40939L104.45 1.40338L104.527 1.39739L104.603 1.39157L104.68 1.38583L104.757 1.38011L104.834 1.37458L104.911 1.36913L104.903 1.36263L104.977 1.35716L105.054 1.35193L105.131 1.34676L105.207 1.34161L105.284 1.33668L105.361 1.33178L105.438 1.32691L105.514 1.32227L105.509 1.31591L105.581 1.31121L105.657 1.30662L105.734 1.30228L105.811 1.29796L105.887 1.29366L105.964 1.2896L106.041 1.28556L106.118 1.28156L106.114 1.27539L106.184 1.27141L106.26 1.26766L106.337 1.26396L106.414 1.26047L106.49 1.25699L106.567 1.25359L106.644 1.25038L106.72 1.24718L106.718 1.24121L106.786 1.23778L106.863 1.23487L106.939 1.23196L107.016 1.22915L107.092 1.22652L107.169 1.22388L107.246 1.22138L107.322 1.21902L107.322 1.2133L107.388 1.21045L107.464 1.20827L107.541 1.20619L107.617 1.20412L107.694 1.20223L107.77 1.20045L107.847 1.19865L107.923 1.19706L107.926 1.19162L107.989 1.18942L108.065 1.18792L108.142 1.18665L108.218 1.18542L108.295 1.1842L108.371 1.18322L108.448 1.18227L108.524 1.18134L108.528 1.17622L108.59 1.17461L108.666 1.17395L108.742 1.17333L108.819 1.17294L108.895 1.17256L108.971 1.17223L109.048 1.17213L109.124 1.17203L109.13 1.16723L109.189 1.16605L109.265 1.16623L109.342 1.16643L109.418 1.16671L109.494 1.16717L109.57 1.16766L109.647 1.16824L109.723 1.16898L109.731 1.16456L109.788 1.16388L109.864 1.16476L109.94 1.16581L110.017 1.16686L110.093 1.16805L110.169 1.16939L110.245 1.17072L110.321 1.17221L110.331 1.16822L110.386 1.16804L110.462 1.16965L110.538 1.17148L110.614 1.17338L110.69 1.17527L110.766 1.1774L110.842 1.17958L110.918 1.18176L110.93 1.17822L110.983 1.1785L111.059 1.18096L111.135 1.18345L111.211 1.18619L111.287 1.18894L111.363 1.19173L111.439 1.19475L111.515 1.19778L111.529 1.19469L111.58 1.19527L111.655 1.19859L111.731 1.20193L111.807 1.20533L111.883 1.20893L111.959 1.21255L112.034 1.21625L112.11 1.22014L112.126 1.21756L112.175 1.21853L112.251 1.22255L112.326 1.22674L112.402 1.23093L112.478 1.23526L112.553 1.23973L112.629 1.2442L112.705 1.24884L112.722 1.24683L112.769 1.24818L112.845 1.25295L112.92 1.25792L112.996 1.26295L113.071 1.26801L113.147 1.27328L113.222 1.2786L113.298 1.28395L113.318 1.28252L113.362 1.2842L113.438 1.28983L113.513 1.29547L113.589 1.30136L113.664 1.30728L113.739 1.31323L113.815 1.3194L113.89 1.3256L113.912 1.32473L113.954 1.32664L114.03 1.33312L114.105 1.3396L114.18 1.34618L114.256 1.35295L114.331 1.35972L114.406 1.36662L114.481 1.37367L114.505 1.37344L114.545 1.37561L114.62 1.38282L114.696 1.39016L114.771 1.39753L114.846 1.40506L114.921 1.41268L114.996 1.42033L115.071 1.42816L115.097 1.42865L115.135 1.43108L115.21 1.43901L115.285 1.44718L115.36 1.4554L115.435 1.46361L115.51 1.47208L115.585 1.48061L115.66 1.48914L115.687 1.49036L115.723 1.49303L115.798 1.50184L115.873 1.51069L115.948 1.51978L116.023 1.52888L116.098 1.53804L116.172 1.54742L116.247 1.55679L116.276 1.55872L116.31 1.56149L116.385 1.57115L116.46 1.58083L116.535 1.59063L116.609 1.60058L116.684 1.61055L116.758 1.62066L116.833 1.63089L116.864 1.63361L116.896 1.63647L116.971 1.64691L117.045 1.65745L117.12 1.668L117.194 1.67875L117.269 1.68957L117.343 1.7004L117.418 1.71147L117.451 1.71501L117.481 1.718L117.555 1.72914L117.629 1.74052L117.704 1.75192L117.778 1.76337L117.852 1.77504L117.927 1.78673L118.001 1.79848L118.036 1.8029L118.064 1.80598L118.138 1.81798L118.212 1.83004L118.286 1.84231L118.36 1.85459L118.435 1.86696L118.509 1.87952L118.583 1.89208L118.62 1.89732L118.645 1.90042L118.719 1.91327L118.793 1.92612L118.867 1.93915L118.941 1.95228L119.015 1.96543L119.089 1.97877L119.163 1.99218L119.202 1.99829L119.225 2.00136L119.299 2.01501L119.373 2.02874L119.447 2.04247L119.521 2.05644L119.595 2.07044L119.668 2.08446L119.742 2.09873L119.783 2.10582L119.804 2.10888L119.878 2.12323L119.952 2.13781L120.025 2.15238L120.099 2.16705L120.172 2.18192L120.246 2.19677L120.32 2.21176L120.362 2.21984L120.381 2.22286L120.455 2.23804L120.528 2.25334L120.602 2.26878L120.675 2.28423L120.749 2.29984L120.822 2.31557L120.895 2.33131L120.939 2.34038L120.957 2.34333L121.03 2.35936L121.104 2.37538L121.177 2.39165L121.25 2.40796L121.323 2.42428L121.396 2.44086L121.47 2.45744L121.515 2.46748L121.531 2.47027L121.604 2.48714L121.677 2.50405L121.75 2.521L121.823 2.53816L121.896 2.55535L121.969 2.57261L122.051 2.59186L122.122 2.60816L122.16 2.61595L122.258 2.6387L122.355 2.6616L122.452 2.68451L122.549 2.70757L122.646 2.73077L122.744 2.75395L122.841 2.77732L122.914 2.79474L122.95 2.80236L123.047 2.82586L123.144 2.84956L123.241 2.8733L123.338 2.89708L123.435 2.92108L123.532 2.94511L123.629 2.96918L123.705 2.98775L123.739 2.99516L123.835 3.0195L123.932 3.04388L124.029 3.06847L124.126 3.09309L124.223 3.11778L124.319 3.14265L124.416 3.16756L124.493 3.1872L124.525 3.19433L124.622 3.21953L124.719 3.24472L124.815 3.27002L124.912 3.29549L125.008 3.32096L125.105 3.34657L125.202 3.37233L125.281 3.39311L125.31 3.39997L125.407 3.42593L125.503 3.45196L125.6 3.47799L125.696 3.50426L125.793 3.53057L125.889 3.55688L125.985 3.58345L126.066 3.60548L126.094 3.61204L126.19 3.63867L126.286 3.66554L126.383 3.69242L126.479 3.71937L126.575 3.74652L126.671 3.77367L126.767 3.80092L126.85 3.82422L126.876 3.83046L126.972 3.85792L127.068 3.88547L127.164 3.91319L127.26 3.94093L127.356 3.96879L127.451 3.99679L127.547 4.0248L127.632 4.04935L127.655 4.0552L127.751 4.0835L127.847 4.11179L127.943 4.14028L128.039 4.16885L128.134 4.19742L128.23 4.22622L128.326 4.25507L128.412 4.28082L128.434 4.28625L128.529 4.31538L128.625 4.3445L128.72 4.37368L128.816 4.40309L128.911 4.43249L129.007 4.46197L129.102 4.49165L129.19 4.51878L129.21 4.52377L129.305 4.55358L129.4 4.58353L129.496 4.61352L129.591 4.64362L129.686 4.67384L129.781 4.70411L129.876 4.73452L129.966 4.76305L129.984 4.76758L130.079 4.79812L130.174 4.82884L130.269 4.85964L130.364 4.89047L130.459 4.92149L130.554 4.95258L130.649 4.98367L130.74 5.01364L130.756 5.01766L130.851 5.04902L130.946 5.08042L131.04 5.11206L131.135 5.14369L131.23 5.17539L131.325 5.20731L131.419 5.23923L131.512 5.27051L131.526 5.27399L131.621 5.30618L131.715 5.33838L131.81 5.37071L131.904 5.40318L131.999 5.43566L132.093 5.46828L132.188 5.50102L132.282 5.53373L132.294 5.53664L132.388 5.56958L132.483 5.60261L132.577 5.63565L132.671 5.66888L132.765 5.7022L132.86 5.73552L132.954 5.76905L133.048 5.80263L133.062 5.80625L133.154 5.83919L133.248 5.87305L133.342 5.90692L133.436 5.94082L133.53 5.97495L133.624 6.00908L133.718 6.04328L133.811 6.07768L133.827 6.08215L133.917 6.11517L134.011 6.1497L134.105 6.18437L134.198 6.21905L134.292 6.25388L134.386 6.28883L134.479 6.32378L134.573 6.35891L134.59 6.36426L134.678 6.39732L134.772 6.43257L134.865 6.46801L134.959 6.50351L135.052 6.53903L135.145 6.57476L135.239 6.61052L135.332 6.64631L135.351 6.65257L135.437 6.68565L135.53 6.72171L135.623 6.7578L135.717 6.79412L135.81 6.83044L135.903 6.86684L135.996 6.90343L136.089 6.94002L136.11 6.94719L136.194 6.98012L136.286 7.01698L136.379 7.05386L136.472 7.09087L136.565 7.12802L136.658 7.16515L136.75 7.20246L136.843 7.23987L136.866 7.24798L136.948 7.2808L137.04 7.31841L137.133 7.35608L137.225 7.39378L137.318 7.43168L137.41 7.46962L137.502 7.50759L137.595 7.54579L137.62 7.55491L137.699 7.58763L137.791 7.62588L137.883 7.66437L137.976 7.70288L138.068 7.74144L138.16 7.78018L138.252 7.81895L138.344 7.85781L138.371 7.86797L138.448 7.90056L138.54 7.9396L138.632 7.97876L138.724 8.01805L138.816 8.05737L138.907 8.09682L138.999 8.13639L139.091 8.17596L139.119 8.18718L139.194 8.21954L139.286 8.25937L139.378 8.29924L139.469 8.3393L139.561 8.37939L139.652 8.41952L139.744 8.45986L139.835 8.50024L139.865 8.51251L139.938 8.54457L140.029 8.5852L140.121 8.62585L140.212 8.66655L140.303 8.70745L140.394 8.74837L140.485 8.78937L140.576 8.83053L140.608 8.84393L140.679 8.87575L140.77 8.91704L140.861 8.9585L140.952 8.99996L141.043 9.04154L141.134 9.08325L141.225 9.12496L141.315 9.16684L141.349 9.18137L141.418 9.21295L141.508 9.25493L141.599 9.29712L141.69 9.33935L141.78 9.38161L141.871 9.42408L141.961 9.46658L142.051 9.5091L142.087 9.52481L142.153 9.55609L142.244 9.59888L142.334 9.64171L142.424 9.68472L142.514 9.72776L142.605 9.77087L142.695 9.81415L142.785 9.85746L142.821 9.87432L142.886 9.9052L142.976 9.94876L143.066 9.99234L143.156 10.036L143.246 10.0799L143.336 10.1237L143.425 10.1677L143.515 10.2117L143.554 10.2298L143.616 10.2603L143.706 10.3046L143.795 10.3489L143.885 10.3933L143.974 10.4378L144.064 10.4824L144.153 10.5271L144.243 10.5719L144.283 10.5912L144.343 10.6213L144.433 10.6662L144.522 10.7114L144.611 10.7565L144.7 10.8017L144.789 10.8471L144.878 10.8925L144.967 10.938L145.009 10.9586L145.068 10.9883L145.156 11.0339L145.245 11.0797L145.334 11.1256L145.423 11.1715L145.511 11.2176L145.6 11.2638L145.689 11.3099L145.732 11.3318L145.789 11.361L145.877 11.4075L145.966 11.4539L146.054 11.5005L146.142 11.5472L146.231 11.5939L146.319 11.6408L146.407 11.6878L146.452 11.711L146.507 11.7396L146.595 11.7868L146.683 11.834L146.771 11.8813L146.859 11.9287L146.947 11.9762L147.035 12.0238L147.123 12.0715L147.169 12.096L147.222 12.1241L147.31 12.172L147.397 12.2199L147.485 12.2679L147.573 12.316L147.66 12.3643L147.748 12.4125L147.835 12.4609L147.883 12.4868L147.934 12.5144L148.021 12.5629L148.108 12.6116L148.196 12.6603L148.283 12.7091L148.37 12.758L148.457 12.8071L148.544 12.8561L148.594 12.8834L148.642 12.9104L148.729 12.9597L148.816 13.009L148.903 13.0585L148.99 13.108L149.077 13.1576L149.163 13.2073L149.25 13.2571L149.301 13.2858L149.348 13.3122L149.434 13.3622L149.521 13.4122L149.607 13.4623L149.694 13.5126L149.78 13.5628L149.866 13.6133L149.953 13.6638L150.005 13.694L150.05 13.7196L150.136 13.7703L150.222 13.8211L150.308 13.8719L150.394 13.9228L150.48 13.9739L150.566 14.0249L150.652 14.0761L150.706 14.1078L150.749 14.1328L150.835 14.1841L150.92 14.2357L151.006 14.2871L151.092 14.3387L151.177 14.3905L151.262 14.4422L151.348 14.4941L151.403 14.5274L151.444 14.5516L151.53 14.6037L151.615 14.6558L151.7 14.708L151.785 14.7603L151.87 14.8127L151.955 14.8652L152.04 14.9177L152.097 14.9525L152.137 14.9761L152.221 15.0288L152.306 15.0816L152.391 15.1345L152.476 15.1875L152.56 15.2405L152.645 15.2938L152.73 15.347L152.788 15.3833L152.825 15.406L152.91 15.4595L152.994 15.513L153.078 15.5666L153.163 15.6203L153.247 15.674L153.331 15.7278L153.415 15.7818L153.475 15.8197L153.51 15.8416L153.594 15.8957L153.678 15.95L153.762 16.0042L153.846 16.0586L153.93 16.1131L154.014 16.1675L154.097 16.2222L154.158 16.2617L154.192 16.2828L154.276 16.3375L154.359 16.3925L154.442 16.4474L154.526 16.5024L154.609 16.5575L154.693 16.6127L154.776 16.668L154.838 16.7092L154.87 16.7294L154.953 16.7849L155.036 16.8404L155.119 16.8961L155.202 16.9518L155.285 17.0075L155.368 17.0634L155.451 17.1194L155.514 17.1622L155.544 17.1815L155.627 17.2377L155.71 17.2939L155.792 17.3502L155.875 17.4066L155.957 17.463L156.04 17.5195L156.122 17.5762L156.187 17.6206L156.215 17.6391L156.297 17.6959L156.379 17.7528L156.462 17.8097L156.544 17.8667L156.626 17.9239L156.708 17.981L156.789 18.0384L156.856 18.0846L156.882 18.1021L156.964 18.1594L157.046 18.2171L157.127 18.2747L157.209 18.3323L157.29 18.3902L157.372 18.448L157.453 18.5059L157.521 18.5539L157.545 18.5704L157.627 18.6285L157.708 18.6867L157.789 18.745L157.87 18.8033L157.951 18.8618L158.032 18.9203L158.113 18.9788L158.182 19.0285L158.205 19.0441L158.286 19.1028L158.366 19.1616L158.447 19.2206L158.528 19.2796L158.608 19.3387L158.689 19.3979L158.769 19.4571L158.839 19.5085L158.86 19.523L158.941 19.5825L159.021 19.642L159.101 19.7015L159.181 19.7612L159.262 19.821L159.342 19.8807L159.422 19.9407L159.493 19.9939L159.512 20.0073L159.592 20.0674L159.672 20.1276L159.752 20.1878L159.831 20.2481L159.911 20.3085L159.991 20.3689L160.07 20.4295L160.142 20.4845L160.16 20.4969L160.239 20.5575L160.319 20.6183L160.398 20.6792L160.477 20.7401L160.556 20.8012L160.635 20.8623L160.714 20.9234L160.788 20.9803L160.804 20.9916L160.883 21.053L160.962 21.1143L161.04 21.1759L161.119 21.2375L161.198 21.2991L161.276 21.3609L161.355 21.4227L161.429 21.4813L161.444 21.4915L161.522 21.5535L161.6 21.6155L161.679 21.6777L161.757 21.7399L161.835 21.8022L161.913 21.8646L161.991 21.927L162.067 21.9875L162.079 21.9965L162.157 22.0592L162.235 22.1219L162.313 22.1846L162.391 22.2475L162.468 22.3104L162.546 22.3734L162.623 22.4365L162.7 22.4989L162.711 22.5068L162.789 22.57L162.866 22.6333L162.943 22.6967L163.02 22.7602L163.097 22.8237L163.175 22.8873L163.252 22.951L163.328 23.0148L163.339 23.0227L163.416 23.0859L163.492 23.1498L163.569 23.2139L163.646 23.2779L163.722 23.3421L163.799 23.4063L163.876 23.4706L163.952 23.535L163.964 23.5443L164.038 23.6068L164.115 23.6713L164.191 23.736L164.267 23.8007L164.343 23.8654L164.419 23.9303L164.495 23.9952L164.571 24.0602L164.585 24.0709L164.657 24.1328L164.733 24.1979L164.809 24.2631L164.884 24.3285L164.96 24.3938L165.035 24.4593L165.111 24.5249L165.186 24.5905L165.201 24.6026L165.272 24.6636L165.347 24.7294L165.422 24.7953L165.497 24.8612L165.572 24.9272L165.647 24.9932L165.722 25.0594L165.797 25.1256L165.814 25.1392L165.882 25.1995L165.956 25.2659L166.031 25.3323L166.106 25.3988L166.18 25.4655L166.255 25.5321L166.329 25.5988L166.403 25.6657L166.421 25.6808L166.487 25.7402L166.562 25.8072L166.636 25.8743L166.71 25.9414L166.784 26.0086L166.858 26.0759L166.932 26.1432L167.005 26.2106L167.025 26.2272L167.089 26.2859L167.163 26.3534L167.236 26.421L167.31 26.4888L167.383 26.5565L167.456 26.6244L167.53 26.6924L167.603 26.7603L167.624 26.7785L167.686 26.8363L167.759 26.9045L167.832 26.9726L167.905 27.041L167.978 27.1094L168.051 27.1777L168.123 27.2463L168.196 27.3149L168.218 27.3347L168.278 27.3915L168.351 27.4603L168.423 27.5291L168.496 27.5979L168.568 27.6669L168.641 27.7359L168.713 27.805L168.785 27.8742L168.808 27.8956L168.867 27.9515L168.938 28.0208L169.01 28.0902L169.082 28.1597L169.154 28.2292L169.226 28.2988L169.297 28.3685L169.369 28.4383L169.393 28.4612L169.45 28.5162L169.522 28.5861L169.593 28.6561L169.664 28.7261L169.735 28.7962L169.807 28.8664L169.878 28.9367L169.949 29.007L169.974 29.0316L170.029 29.0856L170.1 29.1561L170.171 29.2266L170.241 29.2973L170.312 29.3679L170.383 29.4387L170.453 29.5095L170.524 29.5804L170.551 29.6066L170.603 29.6596L170.674 29.7307L170.744 29.8018L170.814 29.873L170.884 29.9443L170.954 30.0155L171.024 30.087L171.094 30.1584L171.122 30.1863L171.173 30.2383L171.243 30.3099L171.313 30.3816L171.382 30.4533L171.452 30.5251L171.521 30.597L171.591 30.6689L171.66 30.741L171.689 30.7706L171.738 30.8215L171.807 30.8937L171.876 30.9659L171.945 31.0382L172.014 31.1106L172.083 31.1831L172.152 31.2555L172.221 31.3281L172.251 31.3595L172.299 31.4093L172.367 31.482L172.436 31.5548L172.504 31.6277L172.572 31.7006L172.641 31.7736L172.709 31.8467L172.777 31.9197L172.809 31.9528L172.854 32.0015L172.922 32.0748L172.99 32.1481L173.058 32.2216L173.126 32.2951L173.193 32.3686L173.261 32.4422L173.329 32.5159L173.361 32.5507L173.405 32.5983L173.472 32.6721L173.54 32.746L173.607 32.8199L173.674 32.894L173.741 32.968L173.808 33.0422L173.875 33.1164L173.909 33.153L173.951 33.1994L174.018 33.2738L174.085 33.3482L174.151 33.4227L174.218 33.4973L174.284 33.5719L174.351 33.6465L174.417 33.7213L174.452 33.7597L174.492 33.805L174.558 33.8798L174.625 33.9548L174.691 34.0298L174.757 34.1049L174.822 34.1801L174.888 34.2553L174.954 34.3306L174.99 34.3707L175.028 34.4148L175.094 34.4902L175.16 34.5657L175.225 34.6413L175.29 34.7169L175.356 34.7926L175.421 34.8684L175.486 34.9441L175.523 34.9861L175.56 35.029L175.625 35.105L175.69 35.1809L175.755 35.257L175.819 35.3332L175.884 35.4094L175.949 35.4857L176.013 35.562L176.051 35.6058L176.086 35.6474L176.151 35.7239L176.215 35.8005L176.279 35.877L176.343 35.9537L176.407 36.0305L176.471 36.1072L176.535 36.1841L176.574 36.2298L176.608 36.2701L176.671 36.3471L176.735 36.4242L176.799 36.5013L176.862 36.5785L176.926 36.6557L176.989 36.733L177.052 36.8104L177.091 36.858L177.124 36.897L177.187 36.9745L177.25 37.0521L177.313 37.1297L177.376 37.2074L177.439 37.2851L177.501 37.3629L177.564 37.4408L177.604 37.4903L177.635 37.528L177.698 37.606L177.76 37.6841L177.822 37.7622L177.885 37.8404L177.947 37.9187L178.009 37.997L178.071 38.0754L178.112 38.1267L178.141 38.1631L178.203 38.2417L178.265 38.3202L178.327 38.3988L178.388 38.4776L178.45 38.5563L178.511 38.6351L178.573 38.714L178.615 38.7673L178.642 38.8023L178.704 38.8813L178.765 38.9604L178.826 39.0395L178.887 39.1187L178.948 39.198L179.009 39.2772L179.069 39.3566L179.112 39.4119L179.138 39.4455L179.199 39.525L179.259 39.6046L179.32 39.6842L179.38 39.7639L179.44 39.8436L179.501 39.9234L179.561 40.0033L179.604 40.0605L179.629 40.0928L179.689 40.1727L179.749 40.2528L179.808 40.3329L179.868 40.413L179.928 40.4933L179.987 40.5736L180.047 40.6538L180.091 40.7131L180.114 40.7439L180.173 40.8244L180.233 40.9049L180.292 40.9855L180.351 41.0661L180.41 41.1468L180.469 41.2276L180.528 41.3084L180.572 41.3695L180.594 41.399L180.653 41.4799L180.712 41.5609L180.77 41.6419L180.828 41.7231L180.887 41.8042L180.945 41.8855L181.003 41.9668L181.049 42.0299L181.069 42.0579L181.127 42.1393L181.185 42.2208L181.243 42.3023L181.301 42.3839L181.358 42.4655L181.416 42.5472L181.473 42.629L181.519 42.6942L181.539 42.7206L181.596 42.8025L181.653 42.8844L181.71 42.9664L181.768 43.0484L181.824 43.1306L181.881 43.2127L181.938 43.2949L181.985 43.3622L182.003 43.3872L182.059 43.4695L182.116 43.5519L182.172 43.6344L182.229 43.7168L182.285 43.7994L182.342 43.882L182.398 43.9647L182.445 44.034L182.461 44.0574L182.517 44.1402L182.573 44.223L182.629 44.306L182.685 44.3889L182.741 44.4719L182.796 44.555L182.852 44.6381L182.899 44.7094L182.915 44.7313L182.97 44.8146L183.025 44.8979L183.08 44.9813L183.136 45.0647L183.191 45.1481L183.245 45.2317L183.3 45.3153L183.348 45.3886L183.362 45.409L183.417 45.4927L183.472 45.5764L183.526 45.6602L183.581 45.7441L183.635 45.828L183.689 45.9119L183.743 45.996L183.792 46.0714L183.805 46.0902L183.859 46.1743L183.913 46.2585L183.966 46.3428L184.02 46.427L184.074 46.5114L184.127 46.5958L184.181 46.6802L184.23 46.7578L184.241 46.775L184.295 46.8595L184.348 46.9441L184.401 47.0288L184.454 47.1136L184.507 47.1983L184.56 47.2832L184.613 47.368L184.662 47.4477L184.673 47.4633L184.725 47.5483L184.778 47.6333L184.83 47.7184L184.883 47.8036L184.935 47.8887L184.987 47.974L185.039 48.0593L185.089 48.1411L185.098 48.155L185.15 48.2405L185.202 48.3259L185.254 48.4114L185.305 48.4971L185.357 48.5827L185.409 48.6683L185.46 48.7541L185.51 48.838L185.518 48.8503L185.569 48.9361L185.621 49.022L185.672 49.1079L185.723 49.1939L185.774 49.28L185.824 49.366L185.875 49.4522L185.926 49.5383L185.932 49.5489L185.983 49.6351L186.033 49.7214L186.084 49.8078L186.134 49.8942L186.184 49.9806L186.234 50.0671L186.285 50.1537L186.334 50.2403L186.342 50.2524L186.391 50.3375L186.441 50.4242L186.49 50.511L186.54 50.5977L186.589 50.6846L186.639 50.7715L186.688 50.8584L186.737 50.9455L186.746 50.9594L186.793 51.0431L186.842 51.1302L186.891 51.2174L186.94 51.3046L186.989 51.3918L187.038 51.4792L187.086 51.5665L187.135 51.6539L187.144 51.6697L187.19 51.752L187.238 51.8395L187.286 51.9271L187.334 52.0147L187.382 52.1023L187.43 52.19L187.478 52.2778L187.526 52.3656L187.536 52.3832L187.58 52.4641L187.628 52.552L187.676 52.64L187.723 52.728L187.77 52.816L187.818 52.9041L187.865 52.9922L187.912 53.0804L187.923 53.0999L187.965 53.1794L188.012 53.2677L188.059 53.356L188.106 53.4444L188.152 53.5328L188.199 53.6213L188.245 53.7098L188.292 53.7983L188.303 53.8198L188.344 53.8978L188.39 53.9864L188.436 54.0752L188.483 54.1639L188.528 54.2527L188.574 54.3415L188.62 54.4304L188.666 54.5194L188.678 54.5427L188.717 54.6192L188.763 54.7082L188.808 54.7973L188.854 54.8865L188.899 54.9756L188.944 55.0649L188.989 55.1541L189.034 55.2434L189.047 55.2686L189.085 55.3437L189.129 55.4331L189.174 55.5225L189.219 55.612L189.263 55.7015L189.307 55.7911L189.352 55.8808L189.396 55.9704L189.41 55.9975L189.446 56.0711L189.49 56.1609L189.534 56.2507L189.578 56.3405L189.622 56.4304L189.665 56.5204L189.709 56.6104L189.752 56.7004L189.767 56.7294L189.801 56.8015L189.845 56.8916L189.888 56.9818L189.931 57.072L189.974 57.1622L190.017 57.2525L190.06 57.3428L190.103 57.4332L190.118 57.4642L190.151 57.5347L190.193 57.6252L190.236 57.7157L190.278 57.8062L190.321 57.8969L190.363 57.9875L190.405 58.0782L190.447 58.1689L190.462 58.2019L190.494 58.2708L190.536 58.3616L190.578 58.4525L190.62 58.5434L190.661 58.6343L190.702 58.7253L190.744 58.8163L190.785 58.9074L190.801 58.9423L190.832 59.0097L190.873 59.1008L190.914 59.192L190.955 59.2833L190.996 59.3745L191.036 59.4659L191.077 59.5572L191.117 59.6486L191.134 59.6855L191.163 59.7513L191.203 59.8428L191.244 59.9343L191.284 60.0259L191.324 60.1175L191.364 60.2091L191.404 60.3008L191.443 60.3925L191.461 60.4314L191.488 60.4956L191.528 60.5874L191.568 60.6792L191.607 60.7711L191.646 60.8631L191.685 60.955L191.725 61.047L191.764 61.1391L191.781 61.1799L191.808 61.2425L191.847 61.3346L191.885 61.4268L191.924 61.519L191.962 61.6113L192.001 61.7035L192.039 61.7959L192.077 61.8882L192.095 61.9311L192.121 61.992L192.159 62.0845L192.197 62.1769L192.235 62.2694L192.273 62.362L192.31 62.4546L192.348 62.5472L192.385 62.6399L192.404 62.6848L192.428 62.7441L192.465 62.8368L192.502 62.9296L192.539 63.0224L192.576 63.1153L192.613 63.2082L192.65 63.3012L192.687 63.3941L192.706 63.441L192.729 63.4986L192.765 63.5917L192.802 63.6847L192.838 63.7779L192.874 63.871L192.91 63.9643L192.946 64.0575L192.982 64.1507L193.001 64.1997L193.023 64.2556L193.059 64.349L193.095 64.4423L193.13 64.5358L193.166 64.6292L193.201 64.7227L193.236 64.8163L193.272 64.9098L193.291 64.9608L193.312 65.015L193.347 65.1086L193.381 65.2023L193.416 65.296L193.451 65.3898L193.486 65.4835L193.52 65.5773L193.555 65.6712L193.574 65.7242L193.594 65.7767L193.628 65.8706L193.662 65.9646L193.696 66.0585L193.73 66.1526L193.764 66.2466L193.798 66.3407L193.831 66.4349L193.851 66.49L193.87 66.5407L193.903 66.6349L193.936 66.7291L193.97 66.8234L194.003 66.9177L194.036 67.012L194.069 67.1064L194.102 67.2008L194.122 67.258L194.139 67.3069L194.172 67.4014L194.204 67.4959L194.237 67.5904L194.27 67.685L194.302 67.7796L194.334 67.8743L194.366 67.9689L194.386 68.0282L194.402 68.0754L194.434 68.1701L194.466 68.2648L194.498 68.3597L194.53 68.4545L194.561 68.5494L194.593 68.6443L194.624 68.7392L194.644 68.8005L194.66 68.8459L194.691 68.9409L194.722 69.0359L194.753 69.131L194.784 69.2261L194.814 69.3212L194.845 69.4164L194.876 69.5116L194.896 69.575L194.91 69.6186L194.941 69.7138L194.971 69.8091L195.001 69.9044L195.031 69.9998L195.061 70.0951L195.091 70.1905L195.121 70.286L195.141 70.3515L195.155 70.3933L195.184 70.4888L195.214 70.5843L195.243 70.6798L195.272 70.7754L195.302 70.8711L195.331 70.9667L195.36 71.0624L195.38 71.13L195.392 71.17L195.421 71.2657L195.45 71.3615L195.479 71.4573L195.507 71.5531L195.536 71.6489L195.564 71.7448L195.592 71.8407L195.613 71.9105L195.624 71.9486L195.652 72.0446L195.68 72.1405L195.708 72.2366L195.736 72.3326L195.763 72.4287L195.791 72.5248L195.818 72.6209L195.839 72.6928L195.849 72.7291L195.876 72.8253L195.904 72.9215L195.931 73.0178L195.958 73.114L195.984 73.2103L196.011 73.3067L196.038 73.403L196.058 73.477L196.068 73.5114L196.094 73.6078L196.121 73.7042L196.147 73.8007L196.173 73.8972L196.199 73.9937L196.225 74.0903L196.251 74.1869L196.271 74.2629L196.28 74.2954L196.306 74.3921L196.332 74.4888L196.357 74.5854L196.382 74.6821L196.408 74.7789L196.433 74.8756L196.458 74.9724L196.478 75.0506L196.486 75.0813L196.511 75.1781L196.536 75.275L196.56 75.3719L196.585 75.4688L196.609 75.5657L196.634 75.6627L196.658 75.7597L196.678 75.84L196.686 75.8688L196.71 75.9658L196.734 76.0629L196.757 76.16L196.781 76.257L196.805 76.3542L196.829 76.4513L196.852 76.5485L196.872 76.631L196.878 76.6579L196.902 76.7551L196.925 76.8523L196.948 76.9496L196.971 77.0469L196.994 77.1443L197.017 77.2416L197.039 77.339L197.059 77.4235L197.065 77.4485L197.087 77.5459L197.11 77.6434L197.132 77.7408L197.154 77.8383L197.176 77.9358L197.198 78.0334L197.22 78.1309L197.24 78.2176L197.245 78.2407L197.267 78.3383L197.288 78.4359L197.31 78.5335L197.331 78.6312L197.352 78.7289L197.373 78.8266L197.395 78.9243L197.414 79.0131L197.418 79.0343L197.439 79.132L197.46 79.2299L197.481 79.3277L197.501 79.4255L197.522 79.5234L197.542 79.6212L197.562 79.7192L197.581 79.81L197.585 79.8293L197.605 79.9272L197.625 80.0252L197.645 80.1232L197.665 80.2212L197.685 80.3192L197.704 80.4173L197.724 80.5153L197.742 80.6083L197.746 80.6256L197.765 80.7238L197.784 80.8219L197.803 80.92L197.822 81.0182L197.841 81.1164L197.86 81.2146L197.878 81.3128L197.896 81.4079L197.899 81.4233L197.918 81.5215L197.936 81.6198L197.954 81.7181L197.973 81.8164L197.991 81.9148L198.009 82.0131L198.027 82.1115L198.044 82.2087L198.047 82.2222L198.064 82.3206L198.082 82.419L198.099 82.5175L198.117 82.6159L198.134 82.7144L198.151 82.8129L198.168 82.9114L198.185 83.0099L198.188 83.0231L198.204 83.1208L198.221 83.2194L198.238 83.3179L198.254 83.4166L198.271 83.5152L198.287 83.6138L198.303 83.7124L198.32 83.8111L198.322 83.8263L198.338 83.9221L198.354 84.0208L198.37 84.1195L198.385 84.2183L198.401 84.317L198.416 84.4158L198.432 84.5146L198.447 84.6134L198.45 84.6305L198.464 84.7245L198.48 84.8234L198.495 84.9222L198.51 85.0211L198.524 85.1199L198.539 85.2188L198.554 85.3177L198.568 85.4166L198.571 85.4358L198.585 85.528L198.599 85.6269L198.613 85.7259L198.627 85.8248L198.641 85.9238L198.655 86.0228L198.669 86.1219L198.683 86.2209L198.686 86.2421L198.698 86.3323L198.712 86.4314L198.725 86.5305L198.739 86.6295L198.752 86.7286L198.765 86.8278L198.778 86.9269L198.791 87.026L198.794 87.0492L198.805 87.1376L198.818 87.2368L198.831 87.3359L198.843 87.4351L198.856 87.5343L198.868 87.6336L198.88 87.7328L198.892 87.832L198.895 87.8572L198.906 87.9437L198.918 88.043L198.929 88.1423L198.941 88.2416L198.953 88.3409L198.964 88.4402L198.976 88.5395L198.987 88.6388L198.99 88.6661L199 88.7506L199.011 88.85L199.022 88.9494L199.033 89.0487L199.043 89.1481L199.054 89.2476L199.065 89.347L199.075 89.4464L199.078 89.4756L199.087 89.5583L199.097 89.6577L199.107 89.7572L199.117 89.8566L199.127 89.9561L199.137 90.0556L199.147 90.1551L199.157 90.2546L199.16 90.2859L199.168 90.3666L199.177 90.4661L199.186 90.5657L199.196 90.6652L199.205 90.7648L199.214 90.8643L199.223 90.9639L199.232 91.0635L199.235 91.0968L199.242 91.1755L199.25 91.2751L199.259 91.3748L199.267 91.4744L199.276 91.574L199.284 91.6737L199.292 91.7733L199.3 91.873L199.303 91.9083L199.309 91.9851L199.317 92.0848L199.325 92.1844L199.332 92.2841L199.34 92.3838L199.347 92.4835L199.355 92.5832L199.362 92.6829L199.365 92.7203L199.37 92.7951L199.377 92.8949L199.384 92.9946L199.391 93.0944L199.398 93.1941L199.404 93.2939L199.411 93.3936L199.417 93.4934L199.42 93.5328L199.424 93.6057L199.431 93.7055L199.437 93.8053L199.443 93.905L199.449 94.0049L199.455 94.1047L199.46 94.2045L199.466 94.3043L199.468 94.3457L199.472 94.4166L199.477 94.5165L199.483 94.6163L199.488 94.7161L199.493 94.816L199.498 94.9158L199.503 95.0157L199.508 95.1156L199.51 95.159L199.513 95.2279L199.518 95.3278L199.522 95.4276L199.527 95.5275L199.531 95.6274L199.535 95.7273L199.539 95.8272L199.544 95.9271L199.545 95.9726L199.548 96.0395L199.552 96.1394L199.555 96.2393L199.559 96.3392L199.562 96.4391L199.566 96.5391L199.569 96.639L199.572 96.7389L199.574 96.7864L199.576 96.8514L199.579 96.9513L199.582 97.0512L199.584 97.1512L199.587 97.2511L199.59 97.3511L199.592 97.451L199.595 97.5509L199.596 97.6005L199.597 97.6634L199.599 97.7634L199.602 97.8633L199.604 97.9633L199.605 98.0632L199.607 98.1632L199.609 98.2632L199.611 98.3631L199.611 98.4147L199.612 98.4756L199.613 98.5755L199.615 98.6755L199.616 98.7755L199.617 98.8755L199.618 98.9754L199.619 99.0754L199.62 99.1754L199.62 99.229L199.62 99.2878L199.621 99.3878L199.621 99.4878L199.622 99.5878L199.622 99.6878L199.622 99.7877L199.622 99.8877V99.9877L199.622 100.043L199.622 100.1L199.622 100.2L199.622 100.3L199.621 100.4L199.621 100.5L199.62 100.6L199.619 100.7L199.619 100.8L199.618 100.858L199.617 100.912L199.616 101.012L199.615 101.112L199.614 101.212L199.613 101.312L199.611 101.412L199.61 101.512L199.608 101.612L199.607 101.672L199.606 101.725L199.604 101.825L199.602 101.925L199.6 102.025L199.598 102.125L199.596 102.225L199.594 102.324L199.591 102.424L199.59 102.486L199.588 102.537L199.586 102.637L199.583 102.737L199.58 102.837L199.577 102.937L199.574 103.037L199.571 103.136L199.568 103.236L199.566 103.3L199.564 103.349L199.56 103.449L199.557 103.549L199.553 103.649L199.55 103.748L199.546 103.848L199.542 103.948L199.538 104.048L199.535 104.114L199.533 104.161L199.529 104.26L199.524 104.36L199.52 104.46L199.515 104.56L199.511 104.66L199.506 104.76L199.501 104.86L199.498 104.927L199.495 104.972L199.49 105.072L199.485 105.172L199.48 105.271L199.475 105.371L199.469 105.471L199.464 105.571L199.458 105.671L199.454 105.74L199.451 105.783L199.445 105.883L199.439 105.983L199.434 106.082L199.427 106.182L199.421 106.282L199.415 106.382L199.408 106.482L199.404 106.553L199.401 106.594L199.394 106.693L199.387 106.793L199.38 106.893L199.373 106.993L199.366 107.092L199.359 107.192L199.352 107.292L199.347 107.365L199.343 107.404L199.336 107.504L199.328 107.603L199.321 107.703L199.313 107.803L199.305 107.902L199.297 108.002L199.289 108.102L199.283 108.177L199.28 108.214L199.271 108.313L199.263 108.413L199.255 108.513L199.246 108.612L199.237 108.712L199.229 108.811L199.22 108.911L199.213 108.988L199.209 109.023L199.2 109.123L199.191 109.222L199.182 109.322L199.172 109.421L199.163 109.521L199.153 109.62L199.144 109.72L199.136 109.799L199.132 109.832L199.122 109.931L199.112 110.031L199.102 110.13L199.092 110.229L199.082 110.329L199.071 110.428L199.061 110.528L199.052 110.609L199.049 110.64L199.038 110.739L199.027 110.838L199.016 110.938L199.005 111.037L198.994 111.136L198.983 111.236L198.972 111.335L198.962 111.418L198.958 111.447L198.947 111.546L198.935 111.645L198.924 111.745L198.912 111.844L198.9 111.943L198.888 112.042L198.876 112.142L198.865 112.227L198.862 112.253L198.849 112.352L198.837 112.452L198.824 112.551L198.812 112.65L198.799 112.749L198.786 112.848L198.773 112.947L198.762 113.035L198.758 113.059L198.745 113.158L198.732 113.257L198.719 113.356L198.705 113.455L198.692 113.554L198.678 113.653L198.664 113.752L198.652 113.841L198.648 113.864L198.634 113.963L198.621 114.062L198.606 114.161L198.592 114.26L198.578 114.359L198.563 114.457L198.549 114.556L198.535 114.647L198.532 114.668L198.517 114.766L198.502 114.865L198.487 114.964L198.472 115.063L198.457 115.162L198.442 115.261L198.427 115.359L198.412 115.452L198.409 115.47L198.393 115.569L198.378 115.668L198.362 115.767L198.346 115.865L198.33 115.964L198.314 116.063L198.298 116.161L198.282 116.256L198.279 116.272L198.263 116.371L198.246 116.469L198.23 116.568L198.213 116.667L198.196 116.765L198.18 116.864L198.163 116.962L198.146 117.059L198.143 117.073L198.126 117.171L198.109 117.27L198.091 117.368L198.074 117.467L198.056 117.565L198.039 117.664L198.021 117.762L198.003 117.86L198 117.873L197.982 117.971L197.964 118.069L197.946 118.168L197.928 118.266L197.91 118.364L197.891 118.462L197.872 118.561L197.854 118.659L197.851 118.673L197.832 118.769L197.813 118.867L197.794 118.965L197.775 119.064L197.756 119.162L197.737 119.26L197.718 119.358L197.698 119.456L197.694 119.472L197.676 119.566L197.656 119.664L197.636 119.762L197.616 119.86L197.596 119.958L197.576 120.056L197.556 120.154L197.536 120.252L197.532 120.27L197.512 120.362L197.492 120.46L197.471 120.557L197.451 120.655L197.43 120.753L197.409 120.851L197.388 120.948L197.367 121.046L197.362 121.066L197.343 121.156L197.321 121.254L197.3 121.351L197.279 121.449L197.257 121.547L197.235 121.644L197.214 121.742L197.192 121.839L197.186 121.861L197.166 121.949L197.144 122.046L197.122 122.144L197.1 122.241L197.078 122.339L197.055 122.436L197.033 122.533L197.01 122.631L197.004 122.654L196.984 122.74L196.961 122.837L196.938 122.935L196.915 123.032L196.892 123.129L196.869 123.226L196.845 123.324L196.822 123.421L196.815 123.446L196.795 123.53L196.771 123.627L196.747 123.724L196.723 123.821L196.699 123.918L196.675 124.015L196.651 124.112L196.627 124.209L196.62 124.237L196.599 124.318L196.575 124.415L196.55 124.512L196.525 124.609L196.501 124.706L196.476 124.803L196.451 124.899L196.426 124.996L196.418 125.026L196.397 125.105L196.372 125.202L196.346 125.298L196.321 125.395L196.295 125.492L196.27 125.588L196.244 125.685L196.218 125.781L196.209 125.813L196.188 125.89L196.162 125.986L196.136 126.083L196.11 126.179L196.083 126.276L196.057 126.372L196.031 126.468L196.004 126.565L195.994 126.598L195.973 126.673L195.946 126.769L195.919 126.865L195.892 126.962L195.865 127.058L195.838 127.154L195.811 127.25L195.783 127.346L195.773 127.381L195.752 127.454L195.724 127.55L195.696 127.646L195.669 127.742L195.641 127.838L195.613 127.934L195.585 128.03L195.556 128.126L195.545 128.163L195.524 128.234L195.496 128.33L195.467 128.425L195.438 128.521L195.41 128.617L195.381 128.713L195.352 128.808L195.323 128.904L195.311 128.943L195.29 129.011L195.26 129.107L195.231 129.203L195.202 129.298L195.172 129.394L195.143 129.489L195.113 129.585L195.083 129.68L195.07 129.72L195.049 129.787L195.019 129.882L194.989 129.978L194.959 130.073L194.929 130.168L194.898 130.264L194.868 130.359L194.837 130.454L194.823 130.496L194.802 130.561L194.771 130.656L194.741 130.751L194.71 130.846L194.679 130.941L194.647 131.036L194.616 131.131L194.585 131.226L194.57 131.27L194.549 131.332L194.517 131.427L194.486 131.522L194.454 131.617L194.422 131.712L194.39 131.806L194.358 131.901L194.326 131.996L194.31 132.041L194.289 132.102L194.257 132.196L194.225 132.291L194.192 132.385L194.16 132.48L194.127 132.574L194.094 132.669L194.061 132.763L194.044 132.811L194.023 132.869L193.99 132.963L193.957 133.058L193.924 133.152L193.891 133.246L193.857 133.34L193.824 133.435L193.79 133.529L193.772 133.578L193.751 133.634L193.717 133.728L193.683 133.822L193.649 133.916L193.615 134.01L193.581 134.104L193.547 134.198L193.512 134.292L193.493 134.343L193.473 134.397L193.438 134.491L193.403 134.585L193.369 134.678L193.334 134.772L193.299 134.866L193.264 134.959L193.229 135.053L193.208 135.106L193.188 135.158L193.153 135.251L193.117 135.345L193.082 135.438L193.046 135.531L193.01 135.625L192.974 135.718L192.939 135.811L192.917 135.866L192.897 135.916L192.861 136.009L192.825 136.102L192.789 136.195L192.752 136.288L192.716 136.381L192.679 136.474L192.642 136.567L192.62 136.624L192.6 136.672L192.563 136.764L192.526 136.857L192.489 136.95L192.452 137.043L192.415 137.136L192.377 137.228L192.34 137.321L192.316 137.379L192.297 137.425L192.259 137.518L192.221 137.61L192.184 137.703L192.146 137.795L192.108 137.887L192.07 137.98L192.031 138.072L192.006 138.132L191.987 138.176L191.949 138.268L191.911 138.36L191.872 138.452L191.833 138.545L191.795 138.637L191.756 138.729L191.717 138.821L191.69 138.882L191.672 138.924L191.633 139.016L191.594 139.108L191.554 139.2L191.515 139.291L191.475 139.383L191.436 139.475L191.396 139.567L191.368 139.63L191.35 139.67L191.31 139.761L191.27 139.853L191.23 139.944L191.19 140.036L191.15 140.127L191.11 140.219L191.069 140.31L191.04 140.375L191.023 140.413L190.982 140.504L190.941 140.595L190.9 140.686L190.859 140.777L190.818 140.869L190.777 140.96L190.736 141.051L190.706 141.117L190.689 141.153L190.648 141.244L190.606 141.335L190.564 141.426L190.523 141.516L190.481 141.607L190.439 141.698L190.397 141.789L190.366 141.856L190.349 141.89L190.307 141.981L190.265 142.071L190.222 142.162L190.18 142.252L190.138 142.343L190.095 142.433L190.052 142.524L190.019 142.593L190.003 142.625L189.96 142.715L189.918 142.805L189.874 142.896L189.831 142.986L189.788 143.076L189.745 143.166L189.701 143.256L189.667 143.327L189.652 143.357L189.608 143.447L189.564 143.537L189.52 143.626L189.477 143.716L189.433 143.806L189.389 143.896L189.344 143.985L189.309 144.058L189.294 144.086L189.249 144.175L189.205 144.265L189.161 144.354L189.116 144.444L189.071 144.533L189.027 144.622L188.982 144.712L188.944 144.785L188.93 144.812L188.885 144.901L188.84 144.99L188.795 145.079L188.749 145.168L188.704 145.257L188.658 145.346L188.613 145.435L188.574 145.51L188.561 145.535L188.515 145.623L188.469 145.712L188.423 145.801L188.377 145.89L188.331 145.978L188.285 146.067L188.238 146.156L188.198 146.232L188.185 146.255L188.139 146.343L188.092 146.432L188.045 146.52L187.999 146.608L187.952 146.696L187.905 146.785L187.858 146.873L187.816 146.951L187.804 146.972L187.757 147.06L187.709 147.148L187.662 147.236L187.615 147.324L187.567 147.411L187.519 147.499L187.472 147.587L187.428 147.667L187.417 147.685L187.369 147.773L187.321 147.861L187.273 147.948L187.225 148.036L187.176 148.123L187.128 148.211L187.08 148.298L187.034 148.379L187.024 148.396L186.975 148.483L186.927 148.57L186.878 148.658L186.829 148.745L186.78 148.832L186.731 148.919L186.682 149.006L186.635 149.088L186.625 149.103L186.576 149.19L186.527 149.277L186.477 149.364L186.427 149.45L186.378 149.537L186.328 149.624L186.278 149.71L186.23 149.794L186.221 149.807L186.171 149.894L186.121 149.98L186.071 150.067L186.02 150.153L185.97 150.239L185.919 150.325L185.869 150.412L185.819 150.497L185.811 150.508L185.76 150.594L185.709 150.68L185.659 150.766L185.607 150.852L185.556 150.938L185.505 151.024L185.454 151.11L185.403 151.195L185.395 151.206L185.344 151.291L185.292 151.377L185.241 151.462L185.189 151.548L185.137 151.633L185.085 151.719L185.033 151.804L184.981 151.889L184.972 151.902L184.922 151.985L184.87 152.07L184.817 152.155L184.765 152.24L184.712 152.325L184.66 152.41L184.607 152.495L184.554 152.58L184.544 152.594L184.494 152.675L184.441 152.76L184.388 152.844L184.335 152.929L184.282 153.014L184.229 153.098L184.175 153.183L184.122 153.267L184.111 153.283L184.061 153.361L184.007 153.446L183.954 153.53L183.9 153.614L183.846 153.699L183.792 153.783L183.738 153.867L183.684 153.951L183.672 153.968L183.622 154.045L183.568 154.128L183.514 154.212L183.459 154.296L183.405 154.38L183.35 154.464L183.295 154.547L183.24 154.631L183.227 154.65L183.178 154.724L183.123 154.808L183.068 154.891L183.013 154.974L182.958 155.058L182.902 155.141L182.847 155.224L182.791 155.307L182.777 155.328L182.728 155.4L182.673 155.483L182.617 155.566L182.561 155.649L182.505 155.732L182.449 155.815L182.393 155.897L182.337 155.98L182.321 156.002L182.273 156.072L182.217 156.155L182.16 156.237L182.104 156.32L182.047 156.402L181.991 156.485L181.934 156.567L181.877 156.649L181.86 156.673L181.812 156.741L181.755 156.823L181.698 156.905L181.641 156.987L181.584 157.069L181.527 157.151L181.469 157.233L181.412 157.314L181.393 157.339L181.346 157.406L181.289 157.487L181.231 157.569L181.173 157.65L181.115 157.732L181.057 157.813L180.999 157.895L180.941 157.976L180.921 158.002L180.875 158.067L180.817 158.148L180.758 158.229L180.7 158.31L180.641 158.391L180.583 158.472L180.524 158.553L180.465 158.634L180.444 158.662L180.398 158.724L180.339 158.804L180.28 158.885L180.221 158.966L180.162 159.046L180.103 159.127L180.043 159.207L179.984 159.287L179.961 159.317L179.916 159.377L179.857 159.457L179.797 159.537L179.737 159.617L179.677 159.697L179.618 159.778L179.558 159.857L179.498 159.937L179.473 159.968L179.429 160.026L179.369 160.106L179.308 160.186L179.248 160.265L179.188 160.345L179.127 160.424L179.067 160.504L179.006 160.583L178.98 160.616L178.937 160.672L178.876 160.751L178.815 160.83L178.754 160.909L178.693 160.988L178.631 161.067L178.57 161.146L178.509 161.225L178.482 161.259L178.439 161.313L178.377 161.392L178.316 161.471L178.254 161.549L178.192 161.628L178.131 161.706L178.069 161.785L178.007 161.863L177.978 161.898L177.936 161.95L177.874 162.029L177.812 162.107L177.749 162.185L177.687 162.263L177.625 162.341L177.562 162.419L177.5 162.497L177.469 162.533L177.428 162.584L177.365 162.661L177.303 162.739L177.24 162.817L177.177 162.894L177.114 162.972L177.051 163.049L176.987 163.127L176.955 163.165L176.915 163.213L176.852 163.29L176.788 163.367L176.725 163.444L176.661 163.521L176.598 163.598L176.534 163.675L176.47 163.752L176.437 163.791L176.397 163.838L176.333 163.915L176.269 163.991L176.205 164.068L176.141 164.144L176.076 164.221L176.012 164.297L175.948 164.374L175.913 164.414L175.874 164.459L175.809 164.535L175.745 164.611L175.68 164.687L175.615 164.763L175.55 164.839L175.485 164.915L175.42 164.991L175.384 165.032L175.346 165.075L175.281 165.151L175.216 165.227L175.15 165.302L175.085 165.378L175.019 165.453L174.954 165.528L174.888 165.604L174.85 165.647L174.813 165.687L174.747 165.763L174.681 165.838L174.615 165.913L174.549 165.988L174.483 166.063L174.417 166.137L174.351 166.212L174.311 166.256L174.275 166.295L174.209 166.37L174.142 166.445L174.076 166.519L174.009 166.594L173.942 166.668L173.875 166.742L173.809 166.816L173.767 166.862L173.732 166.899L173.665 166.973L173.598 167.047L173.531 167.121L173.464 167.195L173.397 167.269L173.329 167.343L173.262 167.416L173.218 167.463L173.185 167.498L173.117 167.572L173.049 167.645L172.982 167.719L172.914 167.792L172.846 167.865L172.778 167.938L172.71 168.012L172.665 168.059L172.632 168.093L172.564 168.166L172.496 168.239L172.428 168.312L172.359 168.385L172.291 168.457L172.222 168.53L172.153 168.603L172.107 168.651L172.075 168.683L172.006 168.756L171.938 168.828L171.869 168.9L171.8 168.973L171.731 169.045L171.661 169.117L171.592 169.189L171.544 169.239L171.513 169.269L171.444 169.341L171.374 169.413L171.305 169.484L171.235 169.556L171.166 169.628L171.096 169.699L171.026 169.771L170.976 169.822L170.947 169.85L170.877 169.922L170.807 169.993L170.737 170.064L170.667 170.135L170.596 170.206L170.526 170.277L170.456 170.348L170.403 170.4L170.375 170.427L170.305 170.498L170.234 170.568L170.164 170.639L170.093 170.71L170.022 170.78L169.951 170.85L169.88 170.921L169.826 170.974L169.8 170.999L169.729 171.069L169.657 171.139L169.586 171.209L169.515 171.279L169.444 171.349L169.372 171.419L169.301 171.489L169.245 171.543L169.219 171.566L169.148 171.636L169.076 171.705L169.004 171.775L168.932 171.844L168.86 171.914L168.788 171.983L168.716 172.052L168.659 172.107L168.634 172.129L168.562 172.198L168.49 172.267L168.417 172.336L168.345 172.405L168.272 172.473L168.2 172.542L168.127 172.611L168.068 172.667L168.045 172.687L167.972 172.755L167.899 172.824L167.826 172.892L167.753 172.96L167.68 173.028L167.607 173.097L167.534 173.165L167.473 173.221L167.451 173.24L167.377 173.308L167.304 173.376L167.231 173.443L167.157 173.511L167.084 173.579L167.01 173.646L166.936 173.714L166.873 173.771L166.852 173.788L166.779 173.856L166.705 173.923L166.631 173.99L166.557 174.057L166.482 174.124L166.408 174.191L166.334 174.258L166.269 174.316L166.25 174.332L166.175 174.399L166.101 174.465L166.026 174.532L165.952 174.598L165.877 174.665L165.802 174.731L165.728 174.797L165.66 174.856L165.642 174.871L165.568 174.937L165.493 175.003L165.418 175.069L165.342 175.134L165.267 175.2L165.192 175.266L165.117 175.332L165.047 175.392L165.031 175.404L164.956 175.47L164.88 175.535L164.805 175.6L164.729 175.666L164.653 175.731L164.577 175.796L164.502 175.861L164.43 175.922L164.415 175.933L164.339 175.998L164.263 176.063L164.187 176.127L164.111 176.192L164.035 176.257L163.959 176.321L163.882 176.386L163.809 176.447L163.795 176.457L163.719 176.521L163.642 176.585L163.566 176.649L163.489 176.713L163.412 176.777L163.336 176.841L163.259 176.905L163.183 176.967L163.171 176.976L163.094 177.039L163.017 177.103L162.94 177.166L162.863 177.23L162.786 177.293L162.708 177.356L162.631 177.419L162.554 177.482L162.543 177.489L162.466 177.552L162.388 177.615L162.31 177.678L162.233 177.741L162.155 177.804L162.077 177.866L161.999 177.929L161.921 177.991L161.909 177.999L161.833 178.06L161.755 178.123L161.676 178.185L161.598 178.247L161.52 178.309L161.442 178.371L161.363 178.433L161.285 178.495L161.271 178.504L161.196 178.563L161.117 178.625L161.038 178.687L160.96 178.748L160.881 178.81L160.802 178.871L160.723 178.932L160.644 178.993L160.629 179.004L160.555 179.061L160.476 179.122L160.396 179.183L160.317 179.244L160.238 179.305L160.159 179.365L160.079 179.426L160 179.487L159.983 179.498L159.91 179.554L159.83 179.614L159.75 179.674L159.671 179.735L159.591 179.795L159.511 179.855L159.431 179.915L159.352 179.975L159.333 179.987L159.261 180.041L159.181 180.101L159.101 180.16L159.02 180.22L158.94 180.279L158.86 180.339L158.78 180.398L158.699 180.458L158.679 180.471L158.608 180.523L158.527 180.582L158.447 180.641L158.366 180.7L158.285 180.759L158.205 180.818L158.124 180.876L158.043 180.935L158.021 180.949L157.951 181L157.87 181.058L157.789 181.117L157.708 181.175L157.627 181.233L157.546 181.291L157.464 181.349L157.383 181.407L157.359 181.423L157.291 181.471L157.209 181.529L157.128 181.587L157.046 181.644L156.964 181.702L156.883 181.759L156.801 181.817L156.719 181.874L156.694 181.89L156.626 181.937L156.544 181.994L156.462 182.051L156.381 182.108L156.298 182.165L156.216 182.222L156.134 182.279L156.052 182.336L156.025 182.353L155.958 182.398L155.876 182.454L155.794 182.511L155.711 182.567L155.629 182.623L155.546 182.68L155.463 182.736L155.381 182.792L155.352 182.81L155.287 182.853L155.204 182.909L155.121 182.965L155.038 183.02L154.955 183.076L154.872 183.131L154.789 183.187L154.706 183.242L154.675 183.261L154.611 183.303L154.528 183.358L154.445 183.413L154.361 183.468L154.278 183.523L154.194 183.578L154.111 183.633L154.027 183.687L153.995 183.707L153.932 183.747L153.849 183.802L153.765 183.856L153.681 183.911L153.597 183.965L153.513 184.019L153.429 184.073L153.345 184.127L153.311 184.148L153.25 184.186L153.166 184.24L153.081 184.294L152.997 184.347L152.913 184.401L152.828 184.454L152.744 184.508L152.66 184.561L152.623 184.583L152.564 184.62L152.479 184.673L152.394 184.726L152.31 184.779L152.225 184.832L152.14 184.884L152.055 184.937L151.971 184.99L151.932 185.012L151.874 185.047L151.789 185.1L151.704 185.152L151.619 185.204L151.534 185.256L151.449 185.309L151.363 185.36L151.278 185.412L151.238 185.436L151.181 185.469L151.096 185.521L151.01 185.573L150.925 185.624L150.839 185.676L150.754 185.727L150.668 185.778L150.582 185.83L150.54 185.854L150.485 185.886L150.399 185.937L150.313 185.988L150.227 186.039L150.141 186.089L150.055 186.14L149.969 186.191L149.883 186.241L149.839 186.266L149.785 186.297L149.699 186.347L149.613 186.397L149.526 186.447L149.44 186.498L149.353 186.548L149.267 186.597L149.18 186.647L149.134 186.673L149.082 186.702L148.996 186.752L148.909 186.801L148.822 186.85L148.735 186.9L148.648 186.949L148.561 186.998L148.474 187.047L148.427 187.073L148.376 187.101L148.289 187.15L148.202 187.199L148.115 187.248L148.027 187.296L147.94 187.345L147.853 187.394L147.765 187.442L147.716 187.469L147.666 187.495L147.579 187.543L147.492 187.591L147.404 187.639L147.316 187.687L147.229 187.735L147.141 187.783L147.053 187.831L147.002 187.858L146.954 187.883L146.866 187.93L146.778 187.978L146.69 188.025L146.602 188.072L146.514 188.119L146.426 188.167L146.338 188.214L146.284 188.241L146.238 188.265L146.15 188.312L146.062 188.358L145.973 188.405L145.885 188.452L145.797 188.498L145.708 188.544L145.62 188.591L145.564 188.619L145.519 188.641L145.431 188.687L145.342 188.733L145.253 188.779L145.165 188.825L145.076 188.871L144.987 188.916L144.898 188.962L144.84 188.991L144.797 189.011L144.709 189.057L144.619 189.102L144.53 189.147L144.441 189.192L144.352 189.237L144.263 189.282L144.174 189.327L144.114 189.356L144.073 189.376L143.983 189.421L143.894 189.465L143.805 189.51L143.715 189.554L143.626 189.598L143.536 189.642L143.446 189.687L143.385 189.716L143.345 189.735L143.255 189.779L143.165 189.822L143.076 189.866L142.986 189.91L142.896 189.953L142.806 189.997L142.716 190.04L142.652 190.07L142.614 190.087L142.524 190.13L142.434 190.174L142.344 190.217L142.254 190.259L142.164 190.302L142.073 190.345L141.983 190.388L141.917 190.418L141.881 190.434L141.79 190.476L141.7 190.519L141.61 190.561L141.519 190.603L141.428 190.645L141.338 190.687L141.247 190.729L141.179 190.76L141.145 190.775L141.054 190.816L140.963 190.858L140.872 190.9L140.781 190.941L140.691 190.982L140.6 191.024L140.509 191.065L140.439 191.096L140.406 191.109L140.315 191.15L140.223 191.191L140.132 191.232L140.041 191.273L139.95 191.313L139.859 191.354L139.767 191.394L139.695 191.426L139.664 191.438L139.573 191.478L139.481 191.519L139.39 191.559L139.298 191.598L139.207 191.638L139.115 191.678L139.023 191.718L138.949 191.749L138.92 191.761L138.828 191.8L138.736 191.84L138.644 191.879L138.553 191.918L138.461 191.957L138.369 191.996L138.277 192.035L138.201 192.067L138.173 192.077L138.081 192.116L137.989 192.155L137.897 192.193L137.804 192.232L137.712 192.27L137.62 192.308L137.528 192.346L137.449 192.378L137.423 192.388L137.331 192.426L137.239 192.464L137.146 192.501L137.054 192.539L136.961 192.577L136.869 192.614L136.776 192.652L136.696 192.684L136.671 192.692L136.579 192.729L136.486 192.766L136.393 192.803L136.301 192.84L136.208 192.877L136.115 192.914L136.022 192.951L135.94 192.983L135.917 192.99L135.824 193.027L135.731 193.063L135.638 193.099L135.545 193.136L135.452 193.172L135.359 193.208L135.266 193.244L135.181 193.276L135.16 193.282L135.067 193.318L134.974 193.354L134.88 193.389L134.787 193.425L134.694 193.46L134.6 193.495L134.507 193.53L134.42 193.563L134.401 193.568L134.308 193.603L134.214 193.638L134.12 193.673L134.027 193.707L133.933 193.742L133.839 193.776L133.746 193.811L133.657 193.843L133.64 193.848L133.546 193.882L133.452 193.916L133.358 193.95L133.264 193.984L133.17 194.018L133.076 194.051L132.982 194.085L132.891 194.117L132.876 194.121L132.782 194.155L132.688 194.188L132.594 194.221L132.499 194.254L132.405 194.287L132.311 194.32L132.217 194.353L132.124 194.385L132.11 194.388L132.016 194.421L131.921 194.454L131.827 194.486L131.733 194.518L131.638 194.551L131.544 194.583L131.449 194.615L131.354 194.647L131.341 194.649L131.248 194.681L131.153 194.713L131.058 194.745L130.963 194.776L130.869 194.808L130.774 194.839L130.679 194.87L130.584 194.902L130.569 194.905L130.477 194.935L130.382 194.966L130.287 194.997L130.192 195.028L130.097 195.058L130.002 195.089L129.907 195.12L129.812 195.15L129.795 195.154L129.705 195.182L129.61 195.213L129.514 195.243L129.419 195.273L129.324 195.303L129.229 195.333L129.133 195.362L129.038 195.392L129.019 195.396L128.93 195.424L128.835 195.453L128.74 195.483L128.644 195.512L128.549 195.541L128.453 195.57L128.358 195.599L128.262 195.628L128.241 195.633L128.154 195.659L128.058 195.687L127.963 195.716L127.867 195.744L127.771 195.773L127.676 195.801L127.58 195.829L127.484 195.857L127.461 195.862L127.376 195.887L127.28 195.915L127.184 195.943L127.088 195.971L126.992 195.998L126.896 196.026L126.8 196.053L126.704 196.081L126.68 196.086L126.596 196.109L126.5 196.137L126.404 196.164L126.308 196.19L126.211 196.217L126.115 196.244L126.019 196.271L125.923 196.297L125.896 196.303L125.814 196.325L125.718 196.352L125.622 196.378L125.525 196.404L125.429 196.43L125.332 196.456L125.236 196.482L125.14 196.508L125.111 196.514L125.031 196.535L124.934 196.56L124.838 196.586L124.741 196.611L124.644 196.636L124.548 196.661L124.451 196.687L124.355 196.711L124.324 196.718L124.245 196.738L124.149 196.762L124.052 196.787L123.955 196.812L123.858 196.836L123.762 196.861L123.665 196.885L123.568 196.909L123.535 196.916L123.459 196.934L123.362 196.958L123.265 196.982L123.168 197.006L123.071 197.03L122.974 197.053L122.877 197.077L122.78 197.1L122.745 197.107L122.67 197.125L122.573 197.148L122.476 197.171L122.379 197.194L122.282 197.217L122.185 197.24L122.087 197.262L121.99 197.285L121.954 197.292L121.88 197.308L121.783 197.331L121.686 197.353L121.588 197.375L121.491 197.397L121.394 197.419L121.296 197.441L121.199 197.463L121.16 197.47L121.089 197.486L120.992 197.507L120.894 197.529L120.797 197.55L120.699 197.572L120.602 197.593L120.504 197.614L120.406 197.635L120.366 197.642L120.296 197.657L120.199 197.677L120.101 197.698L120.003 197.719L119.906 197.739L119.808 197.76L119.71 197.78L119.612 197.8L119.57 197.808L119.502 197.821L119.404 197.841L119.33 197.858L119.256 197.874L119.183 197.891L119.11 197.907L119.037 197.923L118.964 197.939L118.944 197.943L118.902 197.952L118.829 197.968L118.756 197.984L118.682 197.999L118.609 198.015L118.536 198.03L118.462 198.046L118.389 198.061L118.367 198.065L118.328 198.073L118.254 198.088L118.181 198.103L118.107 198.118L118.034 198.133L117.96 198.147L117.887 198.162L117.813 198.177L117.789 198.181L117.751 198.188L117.678 198.202L117.604 198.216L117.531 198.23L117.457 198.244L117.383 198.258L117.309 198.272L117.236 198.286L117.209 198.29L117.174 198.296L117.1 198.31L117.026 198.323L116.953 198.336L116.879 198.35L116.805 198.363L116.731 198.376L116.657 198.389L116.629 198.393L116.595 198.398L116.521 198.411L116.447 198.423L116.373 198.436L116.299 198.448L116.225 198.461L116.151 198.473L116.077 198.485L116.047 198.489L116.015 198.494L115.941 198.506L115.867 198.517L115.793 198.529L115.719 198.541L115.644 198.552L115.57 198.564L115.496 198.575L115.464 198.579L115.434 198.583L115.36 198.594L115.285 198.605L115.211 198.616L115.137 198.627L115.063 198.638L114.988 198.648L114.914 198.659L114.879 198.663L114.852 198.666L114.777 198.676L114.703 198.687L114.628 198.697L114.554 198.707L114.479 198.717L114.405 198.727L114.331 198.736L114.294 198.74L114.268 198.742L114.193 198.752L114.119 198.761L114.044 198.771L113.97 198.78L113.895 198.789L113.821 198.798L113.746 198.807L113.707 198.811L113.683 198.813L113.609 198.821L113.534 198.83L113.459 198.839L113.385 198.847L113.31 198.855L113.235 198.864L113.16 198.872L113.12 198.875L113.098 198.876L113.023 198.884L112.948 198.892L112.873 198.9L112.798 198.908L112.724 198.915L112.649 198.923L112.574 198.93L112.531 198.933L112.511 198.934L112.436 198.941L112.361 198.948L112.286 198.955L112.211 198.962L112.136 198.969L112.061 198.975L111.986 198.982L111.942 198.985L111.923 198.985L111.848 198.991L111.773 198.997L111.698 199.004L111.623 199.01L111.548 199.016L111.473 199.022L111.398 199.028L111.351 199.03L111.335 199.029L111.259 199.035L111.184 199.04L111.109 199.046L111.034 199.051L110.959 199.056L110.884 199.062L110.808 199.067L110.76 199.069L110.745 199.067L110.67 199.072L110.595 199.077L110.519 199.082L110.444 199.086L110.369 199.091L110.294 199.095L110.218 199.099L110.167 199.101L110.155 199.099L110.079 199.103L110.004 199.107L109.929 199.111L109.853 199.115L109.778 199.119L109.703 199.122L109.627 199.126L109.574 199.127L109.563 199.125L109.488 199.128L109.413 199.131L109.337 199.134L109.262 199.137L109.186 199.14L109.111 199.143L109.035 199.146L108.98 199.147L108.971 199.144L108.896 199.146L108.82 199.149L108.745 199.151L108.669 199.153L108.594 199.155L108.518 199.157L108.443 199.159L108.385 199.16L108.379 199.157L108.303 199.158L108.227 199.16L108.152 199.161L108.076 199.163L108.001 199.164L107.925 199.165L107.849 199.167L107.79 199.167L107.785 199.163L107.709 199.164L107.634 199.165L107.558 199.166L107.482 199.166L107.407 199.167L107.331 199.167L107.255 199.168L107.194 199.167L107.191 199.163L107.115 199.163L107.039 199.163L106.964 199.163L106.888 199.163L106.812 199.163L106.736 199.162L106.66 199.162L106.597 199.161L106.596 199.157L106.52 199.156L106.445 199.155L106.369 199.155L106.293 199.154L106.217 199.153L106.141 199.152L106.065 199.15L106 199.149L106.001 199.144L105.925 199.143L105.849 199.141L105.773 199.14L105.697 199.138L105.621 199.136L105.545 199.134L105.469 199.132L105.402 199.13L105.405 199.125L105.329 199.123L105.253 199.121L105.177 199.118L105.101 199.116L105.025 199.113L104.949 199.111L104.873 199.108L104.803 199.105L104.808 199.1L104.732 199.097L104.656 199.094L104.58 199.091L104.504 199.087L104.428 199.084L104.352 199.081L104.276 199.077L104.204 199.073L104.211 199.068L104.135 199.064L104.059 199.061L103.983 199.057L103.907 199.053L103.831 199.049L103.755 199.044L103.679 199.04L103.605 199.036L103.614 199.03L103.538 199.026L103.462 199.021L103.386 199.017L103.309 199.012L103.233 199.007L103.157 199.002L103.081 198.997L103.005 198.991L103.016 198.986L102.973 198.948L102.984 198.855L102.995 198.763L103.006 198.67L103.018 198.577L103.029 198.484L103.04 198.391L103.052 198.298L103.063 198.268L103.074 198.2L103.085 198.107L103.097 198.014L103.108 197.921L103.119 197.829L103.13 197.736L103.142 197.643L103.153 197.55L103.164 197.517L103.175 197.451L103.187 197.358L103.198 197.265L103.209 197.172L103.22 197.079L103.231 196.986L103.243 196.893L103.254 196.8L103.265 196.765L103.276 196.702L103.287 196.608L103.299 196.515L103.31 196.422L103.321 196.329L103.332 196.236L103.343 196.143L103.354 196.05L103.365 196.013L103.377 195.951L103.388 195.858L103.399 195.765L103.41 195.671L103.421 195.578L103.432 195.485L103.443 195.392L103.454 195.299L103.466 195.259L103.477 195.2L103.488 195.106L103.499 195.013L103.51 194.92L103.521 194.827L103.532 194.733L103.543 194.64L103.554 194.547L103.565 194.505L103.576 194.448L103.587 194.354L103.598 194.261L103.609 194.168L103.62 194.074L103.631 193.981L103.642 193.887L103.653 193.794L103.664 193.751L103.675 193.695L103.686 193.601L103.697 193.508L103.708 193.414L103.719 193.321L103.73 193.228L103.741 193.134L103.752 193.041L103.763 192.995L103.774 192.941L103.785 192.848L103.796 192.754L103.807 192.661L103.818 192.567L103.829 192.473L103.84 192.38L103.851 192.286L103.862 192.239L103.873 192.187L103.884 192.093L103.894 191.999L103.905 191.906L103.916 191.812L103.927 191.719L103.938 191.625L103.949 191.531L103.96 191.482L103.971 191.431L103.981 191.338L103.992 191.244L104.003 191.15L104.014 191.057L104.025 190.963L104.036 190.869L104.046 190.775L104.057 190.724L104.068 190.675L104.079 190.582L104.09 190.488L104.1 190.394L104.111 190.3L104.122 190.206L104.133 190.113L104.144 190.019L104.154 189.965L104.165 189.919L104.176 189.825L104.187 189.731L104.197 189.637L104.208 189.543L104.219 189.449L104.229 189.355L104.24 189.261L104.251 189.205L104.262 189.161L104.272 189.067L104.283 188.973L104.294 188.879L104.304 188.785L104.315 188.691L104.326 188.597L104.336 188.503L104.347 188.445L104.358 188.403L104.368 188.309L104.379 188.215L104.39 188.121L104.4 188.027L104.411 187.933L104.422 187.839L104.432 187.744L104.443 187.684L104.453 187.644L104.464 187.55L104.475 187.456L104.485 187.361L104.496 187.267L104.506 187.173L104.517 187.079L104.527 186.985L104.538 186.923L104.549 186.884L104.559 186.79L104.57 186.696L104.58 186.601L104.591 186.507L104.601 186.413L104.612 186.319L104.622 186.224L104.633 186.16L104.643 186.123L104.654 186.029L104.664 185.935L104.675 185.841L104.685 185.746L104.696 185.652L104.706 185.558L104.717 185.463L104.727 185.397L104.737 185.362L104.748 185.268L104.758 185.173L104.769 185.079L104.779 184.985L104.79 184.89L104.8 184.796L104.81 184.701L104.821 184.633L104.831 184.6L104.842 184.506L104.852 184.411L104.862 184.317L104.873 184.222L104.883 184.128L104.893 184.033L104.904 183.939L104.914 183.868L104.924 183.837L104.935 183.743L104.945 183.648L104.955 183.554L104.966 183.459L104.976 183.364L104.986 183.27L104.997 183.175L105.007 183.103L105.017 183.074L105.027 182.979L105.038 182.884L105.048 182.79L105.058 182.695L105.068 182.6L105.079 182.506L105.089 182.411L105.099 182.336L105.109 182.309L105.12 182.215L105.13 182.12L105.14 182.025L105.15 181.931L105.16 181.836L105.171 181.741L105.181 181.646L105.191 181.569L105.201 181.544L105.211 181.45L105.221 181.355L105.231 181.26L105.242 181.165L105.252 181.07L105.262 180.976L105.272 180.881L105.282 180.802L105.292 180.779L105.302 180.684L105.312 180.589L105.322 180.494L105.333 180.399L105.343 180.304L105.353 180.209L105.363 180.114L105.373 180.033L105.383 180.012L105.393 179.917L105.403 179.822L105.413 179.727L105.423 179.632L105.433 179.537L105.443 179.442L105.453 179.347L105.463 179.264L105.473 179.245L105.483 179.15L105.493 179.055L105.503 178.96L105.513 178.865L105.523 178.77L105.533 178.675L105.543 178.58L105.553 178.494L105.562 178.477L105.572 178.382L105.582 178.287L105.592 178.192L105.602 178.097L105.612 178.001L105.622 177.906L105.632 177.811L105.642 177.724L105.651 177.708L105.661 177.613L105.671 177.518L105.681 177.423L105.691 177.328L105.701 177.232L105.71 177.137L105.72 177.042L105.73 176.952L105.74 176.939L105.75 176.844L105.759 176.748L105.769 176.653L105.779 176.558L105.789 176.463L105.799 176.367L105.808 176.272L105.818 176.18L105.828 176.169L105.838 176.074L105.847 175.978L105.857 175.883L105.867 175.787L105.876 175.692L105.886 175.597L105.896 175.501L105.905 175.408L105.915 175.398L105.925 175.303L105.934 175.207L105.944 175.112L105.954 175.016L105.963 174.921L105.973 174.826L105.983 174.73L105.992 174.635L106.002 174.626L106.011 174.531L106.021 174.436L106.031 174.34L106.04 174.245L106.05 174.149L106.059 174.054L106.069 173.958L106.078 173.863L106.088 173.852L106.098 173.759L106.107 173.663L106.117 173.568L106.126 173.472L106.136 173.377L106.145 173.281L106.155 173.185L106.164 173.09L106.174 173.077L106.183 172.986L106.193 172.89L106.202 172.795L106.211 172.699L106.221 172.603L106.23 172.508L106.24 172.412L106.249 172.316L106.259 172.302L106.268 172.212L106.277 172.117L106.287 172.021L106.296 171.925L106.306 171.829L106.315 171.734L106.324 171.638L106.334 171.542L106.343 171.525L106.352 171.438L106.362 171.342L106.371 171.246L106.38 171.151L106.39 171.055L106.399 170.959L106.408 170.863L106.417 170.767L106.427 170.749L106.436 170.663L106.445 170.567L106.455 170.471L106.464 170.375L106.473 170.279L106.482 170.184L106.492 170.088L106.501 169.992L106.51 169.971L106.519 169.887L106.528 169.791L106.538 169.695L106.547 169.599L106.556 169.503L106.565 169.407L106.574 169.312L106.583 169.216L106.592 169.193L106.602 169.111L106.611 169.015L106.62 168.919L106.629 168.823L106.638 168.727L106.647 168.631L106.656 168.535L106.665 168.439L106.674 168.414L106.683 168.334L106.693 168.238L106.702 168.142L106.711 168.046L106.72 167.95L106.729 167.853L106.738 167.757L106.747 167.661L106.756 167.634L106.765 167.556L106.774 167.46L106.783 167.364L106.792 167.268L106.801 167.172L106.81 167.075L106.819 166.979L106.827 166.883L106.836 166.854L106.845 166.778L106.854 166.682L106.863 166.585L106.872 166.489L106.881 166.393L106.89 166.297L106.899 166.2L106.908 166.104L106.916 166.073L106.925 165.999L106.934 165.903L106.943 165.806L106.952 165.71L106.961 165.614L106.969 165.517L106.978 165.421L106.987 165.325L106.996 165.291L107.005 165.219L107.013 165.123L107.022 165.027L107.031 164.93L107.04 164.834L107.048 164.737L107.057 164.641L107.066 164.544L107.074 164.509L107.083 164.439L107.092 164.343L107.101 164.246L107.109 164.15L107.118 164.053L107.127 163.957L107.135 163.86L107.144 163.764L107.153 163.726L107.161 163.658L107.17 163.562L107.178 163.465L107.187 163.368L107.196 163.272L107.204 163.175L107.213 163.079L107.221 162.982L107.23 162.943L107.238 162.877L107.247 162.78L107.256 162.683L107.264 162.587L107.273 162.49L107.281 162.393L107.29 162.297L107.298 162.2L107.307 162.159L107.315 162.094L107.324 161.998L107.332 161.901L107.34 161.804L107.349 161.708L107.357 161.611L107.366 161.514L107.374 161.417L107.383 161.374L107.391 161.311L107.399 161.215L107.408 161.118L107.416 161.021L107.425 160.924L107.433 160.828L107.441 160.731L107.45 160.634L107.458 160.588L107.466 160.528L107.475 160.431L107.483 160.334L107.491 160.238L107.5 160.141L107.508 160.044L107.516 159.947L107.524 159.85L107.533 159.802L107.541 159.744L107.549 159.647L107.557 159.55L107.566 159.453L107.574 159.356L107.582 159.259L107.59 159.163L107.598 159.066L107.607 159.016L107.615 158.959L107.623 158.862L107.631 158.765L107.639 158.668L107.647 158.571L107.655 158.474L107.664 158.377L107.672 158.28L107.68 158.228L107.688 158.174L107.696 158.077L107.704 157.98L107.712 157.883L107.72 157.786L107.728 157.689L107.736 157.592L107.744 157.495L107.752 157.441L107.76 157.388L107.768 157.291L107.776 157.194L107.784 157.097L107.792 157L107.8 156.903L107.808 156.805L107.816 156.708L107.824 156.652L107.832 156.602L107.84 156.504L107.848 156.407L107.856 156.31L107.864 156.213L107.872 156.116L107.88 156.018L107.887 155.921L107.895 155.863L107.903 155.814L107.911 155.717L107.919 155.62L107.927 155.523L107.934 155.425L107.942 155.328L107.95 155.231L107.958 155.134L107.966 155.073L107.973 155.027L107.981 154.929L107.989 154.832L107.997 154.735L108.004 154.638L108.012 154.54L108.02 154.443L108.027 154.346L108.035 154.283L108.043 154.238L108.051 154.141L108.058 154.044L108.066 153.946L108.074 153.849L108.081 153.752L108.089 153.654L108.096 153.557L108.104 153.492L108.112 153.45L108.119 153.352L108.127 153.255L108.134 153.157L108.142 153.06L108.15 152.962L108.157 152.865L108.165 152.768L108.172 152.701L108.18 152.66L108.187 152.563L108.195 152.465L108.202 152.368L108.21 152.27L108.217 152.173L108.225 152.075L108.232 151.978L108.24 151.909L108.247 151.87L108.254 151.773L108.262 151.675L108.269 151.577L108.277 151.48L108.284 151.382L108.291 151.285L108.299 151.187L108.306 151.116L108.313 151.079L108.321 150.982L108.328 150.884L108.335 150.787L108.343 150.689L108.35 150.591L108.357 150.494L108.365 150.396L108.372 150.323L108.379 150.288L108.386 150.191L108.394 150.093L108.401 149.995L108.408 149.898L108.415 149.8L108.423 149.702L108.43 149.605L108.437 149.53L108.444 149.497L108.451 149.399L108.459 149.301L108.466 149.203L108.473 149.106L108.48 149.008L108.487 148.91L108.494 148.812L108.501 148.736L108.508 148.704L108.515 148.607L108.523 148.509L108.53 148.411L108.537 148.313L108.544 148.215L108.551 148.118L108.558 148.02L108.565 147.941L108.572 147.912L108.579 147.814L108.586 147.716L108.593 147.618L108.6 147.52L108.607 147.422L108.614 147.324L108.62 147.227L108.627 147.146L108.634 147.118L108.641 147.02L108.648 146.922L108.655 146.825L108.662 146.727L108.669 146.629L108.676 146.531L108.682 146.433L108.689 146.35L108.696 146.324L108.703 146.226L108.71 146.128L108.717 146.031L108.723 145.933L108.73 145.835L108.737 145.737L108.744 145.639L108.75 145.553L108.757 145.53L108.764 145.432L108.771 145.334L108.777 145.236L108.784 145.138L108.791 145.04L108.797 144.942L108.804 144.844L108.811 144.757L108.817 144.735L108.824 144.637L108.83 144.539L108.837 144.441L108.844 144.343L108.85 144.245L108.857 144.147L108.863 144.048L108.87 143.959L108.877 143.94L108.883 143.842L108.89 143.743L108.896 143.645L108.903 143.547L108.909 143.449L108.916 143.351L108.922 143.253L108.929 143.161L108.935 143.144L108.942 143.046L108.948 142.947L108.954 142.849L108.961 142.751L108.967 142.653L108.974 142.555L108.98 142.456L108.986 142.363L108.993 142.347L108.999 142.249L109.005 142.151L109.012 142.053L109.018 141.954L109.024 141.856L109.031 141.758L109.037 141.659L109.043 141.564L109.05 141.55L109.056 141.452L109.062 141.354L109.068 141.255L109.075 141.157L109.081 141.059L109.087 140.96L109.093 140.862L109.099 140.765L109.106 140.753L109.112 140.655L109.118 140.556L109.124 140.458L109.13 140.359L109.136 140.261L109.142 140.163L109.148 140.064L109.155 139.966L109.161 139.954L109.167 139.857L109.173 139.758L109.179 139.66L109.185 139.561L109.191 139.463L109.197 139.364L109.203 139.266L109.209 139.168L109.215 139.153L109.221 139.058L109.227 138.96L109.233 138.861L109.239 138.763L109.245 138.664L109.251 138.566L109.256 138.467L109.262 138.369L109.268 138.352L109.274 138.259L109.28 138.161L109.286 138.062L109.292 137.964L109.298 137.865L109.303 137.767L109.309 137.668L109.315 137.569L109.321 137.551L109.327 137.46L109.332 137.361L109.338 137.263L109.344 137.164L109.35 137.066L109.355 136.967L109.361 136.868L109.367 136.77L109.372 136.749L109.378 136.66L109.384 136.561L109.389 136.463L109.395 136.364L109.401 136.265L109.406 136.167L109.412 136.068L109.418 135.969L109.423 135.947L109.429 135.86L109.434 135.761L109.44 135.662L109.445 135.564L109.451 135.465L109.456 135.366L109.462 135.268L109.467 135.169L109.473 135.144L109.478 135.059L109.484 134.96L109.489 134.861L109.495 134.763L109.5 134.664L109.506 134.565L109.511 134.467L109.517 134.368L109.522 134.341L109.527 134.258L109.533 134.159L109.538 134.06L109.543 133.961L109.549 133.863L109.554 133.764L109.559 133.665L109.565 133.566L109.57 133.538L109.575 133.456L109.58 133.357L109.586 133.258L109.591 133.16L109.596 133.061L109.601 132.962L109.607 132.863L109.612 132.764L109.617 132.734L109.622 132.654L109.627 132.555L109.633 132.456L109.638 132.357L109.643 132.259L109.648 132.16L109.653 132.061L109.658 131.962L109.663 131.929L109.668 131.852L109.673 131.753L109.678 131.654L109.683 131.555L109.688 131.456L109.694 131.357L109.699 131.258L109.704 131.159L109.709 131.124L109.713 131.049L109.718 130.95L109.723 130.851L109.728 130.752L109.733 130.653L109.738 130.554L109.743 130.455L109.748 130.356L109.753 130.319L109.758 130.245L109.763 130.146L109.767 130.047L109.772 129.948L109.777 129.849L109.782 129.75L109.787 129.651L109.791 129.552L109.796 129.513L109.801 129.442L109.806 129.343L109.81 129.244L109.815 129.145L109.82 129.045L109.825 128.946L109.829 128.847L109.834 128.748L109.839 128.707L109.843 128.638L109.848 128.539L109.853 128.439L109.857 128.34L109.862 128.241L109.866 128.142L109.871 128.043L109.876 127.944L109.88 127.901L109.885 127.833L109.889 127.734L109.894 127.635L109.898 127.536L109.903 127.437L109.907 127.337L109.912 127.238L109.916 127.139L109.921 127.094L109.925 127.028L109.93 126.929L109.934 126.83L109.938 126.731L109.943 126.632L109.947 126.532L109.951 126.433L109.956 126.334L109.96 126.287L109.965 126.223L109.969 126.124L109.973 126.025L109.977 125.925L109.982 125.826L109.986 125.727L109.99 125.628L109.995 125.529L109.999 125.479L110.003 125.418L110.007 125.318L110.011 125.219L110.016 125.12L110.02 125.02L110.024 124.921L110.028 124.822L110.032 124.723L110.036 124.671L110.041 124.612L110.045 124.512L110.049 124.413L110.053 124.314L110.057 124.214L110.061 124.115L110.065 124.016L110.069 123.916L110.073 123.863L110.077 123.805L110.081 123.706L110.085 123.607L110.089 123.507L110.093 123.408L110.097 123.309L110.101 123.209L110.105 123.11L110.109 123.055L110.113 122.999L110.116 122.899L110.12 122.8L110.124 122.701L110.128 122.601L110.132 122.502L110.136 122.402L110.139 122.303L110.143 122.246L110.147 122.192L110.151 122.092L110.155 121.993L110.158 121.894L110.162 121.794L110.166 121.695L110.169 121.595L110.173 121.496L110.177 121.436L110.181 121.385L110.184 121.285L110.188 121.186L110.191 121.086L110.195 120.987L110.199 120.887L110.202 120.788L110.206 120.688L110.209 120.627L110.213 120.577L110.217 120.478L110.22 120.378L110.224 120.279L110.227 120.179L110.231 120.08L110.234 119.98L110.238 119.881L110.241 119.817L110.245 119.769L110.248 119.67L110.251 119.57L110.255 119.471L110.258 119.371L110.262 119.272L110.265 119.172L110.268 119.073L110.272 119.007L110.275 118.961L110.278 118.861L110.282 118.762L110.285 118.662L110.288 118.563L110.291 118.463L110.295 118.364L110.298 118.264L110.301 118.197L110.304 118.153L110.308 118.053L110.311 117.953L110.314 117.854L110.317 117.754L110.32 117.655L110.323 117.555L110.327 117.456L110.33 117.386L110.333 117.344L110.336 117.244L110.339 117.145L110.342 117.045L110.345 116.945L110.348 116.846L110.351 116.746L110.354 116.647L110.357 116.575L110.36 116.535L110.363 116.435L110.366 116.336L110.369 116.236L110.372 116.136L110.375 116.037L110.378 115.937L110.381 115.837L110.384 115.764L110.387 115.726L110.389 115.626L110.392 115.526L110.395 115.427L110.398 115.327L110.401 115.227L110.403 115.128L110.406 115.028L110.409 114.952L110.412 114.916L110.415 114.817L110.417 114.717L110.42 114.617L110.423 114.517L110.425 114.418L110.428 114.318L110.431 114.218L110.433 114.141L110.436 114.106L110.439 114.007L110.441 113.907L110.444 113.807L110.446 113.708L110.449 113.608L110.452 113.508L110.454 113.409L110.457 113.329L110.459 113.297L110.462 113.197L110.464 113.097L110.467 112.997L110.469 112.898L110.472 112.798L110.474 112.698L110.476 112.598L110.479 112.517L110.481 112.486L110.484 112.387L110.486 112.287L110.488 112.187L110.491 112.087L110.493 111.988L110.495 111.888L110.498 111.788L110.5 111.704L110.502 111.676L110.504 111.576L110.507 111.476L110.509 111.377L110.511 111.277L110.513 111.177L110.516 111.077L110.518 110.978L110.52 110.892L110.522 110.865L110.524 110.766L110.526 110.666L110.529 110.566L110.531 110.466L110.533 110.366L110.535 110.267L110.537 110.167L110.539 110.079L110.541 110.055L110.543 109.955L110.545 109.855L110.547 109.755L110.549 109.655L110.551 109.556L110.553 109.456L110.555 109.356L110.557 109.266L110.559 109.244L110.561 109.144L110.563 109.044L110.564 108.944L110.566 108.844L110.568 108.745L110.57 108.645L110.572 108.545L110.574 108.453L110.575 108.433L110.577 108.333L110.579 108.233L110.581 108.133L110.583 108.033L110.584 107.933L110.586 107.833L110.588 107.734L110.589 107.64L110.591 107.621L110.593 107.521L110.594 107.422L110.596 107.322L110.598 107.222L110.599 107.122L110.601 107.022L110.602 106.922L110.604 106.826L110.606 106.81L110.607 106.71L110.609 106.61L110.61 106.51L110.612 106.41L110.613 106.311L110.615 106.211L110.616 106.111L110.618 106.013L110.619 105.998L110.62 105.899L110.622 105.799L110.623 105.699L110.625 105.599L110.626 105.499L110.627 105.399L110.629 105.299L110.63 105.199L110.631 105.187L110.633 105.087L110.634 104.987L110.635 104.887L110.636 104.787L110.638 104.687L110.639 104.587L110.64 104.487L110.641 104.387L110.642 104.373L110.644 104.275L110.645 104.175L110.646 104.075L110.647 103.975L110.648 103.875L110.649 103.775L110.65 103.675L110.651 103.575L110.652 103.559L110.654 103.463L110.655 103.363L110.656 103.263L110.657 103.163L110.658 103.063L110.659 102.963L110.66 102.863L110.66 102.764L110.661 102.745L110.662 102.651L110.663 102.551L110.664 102.451L110.665 102.351L110.666 102.251L110.667 102.151L110.668 102.051L110.668 101.951L110.669 101.931L110.67 101.839L110.671 101.739L110.672 101.639L110.672 101.539L110.673 101.439L110.674 101.339L110.675 101.239L110.675 101.139L110.676 101.117L110.677 101.027L110.677 100.927L110.678 100.827L110.679 100.727L110.679 100.627L110.68 100.527L110.68 100.427L110.681 100.327L110.682 100.302L110.682 100.215L110.683 100.115L110.683 100.015L110.684 99.9147L110.684 99.8148L110.685 99.7148L110.685 99.6148L110.686 99.5148L110.686 99.488L110.686 99.4024L110.687 99.3024L110.687 99.2024L110.688 99.1024L110.688 99.0025L110.688 98.9025L110.689 98.8025L110.689 98.7025L110.689 98.6737L110.69 98.5901L110.69 98.4901L110.69 98.3901L110.69 98.2901L110.691 98.1902L110.691 98.0902L110.691 97.9902L110.691 97.8902L110.691 97.8594L110.692 97.7777L110.692 97.6777L110.692 97.5778L110.692 97.4778L110.692 97.3778L110.692 97.2778L110.692 97.1778L110.692 97.0779L110.693 97.045L110.693 96.9654L110.693 96.8654V96.7654L110.693 96.6654L110.693 96.5655L110.693 96.4655L110.693 96.3655L110.693 96.2655L110.692 96.2307L110.692 96.153L110.692 96.0531L110.692 95.9531L110.692 95.8531L110.692 95.7531L110.692 95.6531L110.692 95.5531L110.691 95.4532L110.691 95.4163L110.691 95.3407L110.691 95.2407L110.691 95.1407L110.69 95.0408L110.69 94.9408L110.69 94.8408L110.689 94.7408L110.689 94.6408L110.689 94.602L110.688 94.5284L110.688 94.4284L110.688 94.3284L110.687 94.2284L110.687 94.1285L110.687 94.0285L110.686 93.9285L110.686 93.8285L110.685 93.7877L110.685 93.7161L110.684 93.6161L110.684 93.5161L110.683 93.4162L110.683 93.3162L110.682 93.2162L110.682 93.1163L110.681 93.0163L110.681 92.9734L110.68 92.9038L110.679 92.8039L110.679 92.7039L110.678 92.6039L110.678 92.504L110.677 92.404L110.676 92.304L110.676 92.2041L110.675 92.1592L110.674 92.0916L110.673 91.9917L110.673 91.8917L110.672 91.7918L110.671 91.6918L110.67 91.5918L110.67 91.4919L110.669 91.3919L110.668 91.345L110.667 91.2795L110.666 91.1796L110.665 91.0796L110.664 90.9797L110.663 90.8797L110.663 90.7798L110.662 90.6798L110.661 90.5799L110.66 90.531L110.659 90.4675L110.658 90.3675L110.657 90.2676L110.656 90.1676L110.655 90.0677L110.654 89.9678L110.653 89.8678L110.652 89.7679L110.651 89.717L110.649 89.6555L110.648 89.5556L110.647 89.4556L110.646 89.3557L110.645 89.2558L110.644 89.1559L110.643 89.0559L110.641 88.956L110.64 88.9031L110.639 88.8437L110.638 88.7437L110.636 88.6438L110.635 88.5439L110.634 88.444L110.633 88.3441L110.631 88.2441L110.63 88.1442L110.629 88.0894L110.627 88.0319L110.626 87.932L110.624 87.8321L110.623 87.7322L110.622 87.6323L110.62 87.5324L110.619 87.4325L110.617 87.3326L110.616 87.2757L110.614 87.2203L110.613 87.1204L110.611 87.0205L110.61 86.9206L110.608 86.8207L110.607 86.7208L110.605 86.621L110.604 86.5211L110.602 86.4622L110.6 86.4088L110.599 86.3089L110.597 86.2091L110.596 86.1092L110.594 86.0093L110.592 85.9094L110.59 85.8096L110.589 85.7097L110.587 85.6488L110.585 85.5975L110.584 85.4976L110.582 85.3978L110.58 85.2979L110.578 85.1981L110.576 85.0982L110.575 84.9984L110.573 84.8985L110.571 84.8356L110.569 84.7863L110.567 84.6865L110.565 84.5866L110.563 84.4868L110.562 84.3869L110.56 84.2871L110.558 84.1873L110.556 84.0875L110.554 84.0226L110.552 83.9753L110.55 83.8755L110.548 83.7757L110.546 83.6758L110.544 83.576L110.542 83.4762L110.54 83.3764L110.537 83.2766L110.535 83.2098L110.533 83.1645L110.531 83.0647L110.529 82.9649L110.527 82.8651L110.525 82.7653L110.522 82.6655L110.52 82.5657L110.518 82.4659L110.516 82.3971L110.514 82.3539L110.511 82.2541L110.509 82.1543L110.507 82.0545L110.504 81.9548L110.502 81.855L110.5 81.7552L110.498 81.6555L110.495 81.5847L110.493 81.5434L110.49 81.4437L110.488 81.3439L110.486 81.2442L110.483 81.1444L110.481 81.0447L110.478 80.945L110.476 80.8452L110.473 80.7724L110.471 80.7332L110.468 80.6335L110.466 80.5338L110.463 80.4341L110.461 80.3343L110.458 80.2346L110.456 80.1349L110.453 80.0352L110.451 79.9604L110.448 79.9233L110.445 79.8236L110.443 79.7239L110.44 79.6242L110.437 79.5245L110.435 79.4248L110.432 79.3251L110.429 79.2254L110.427 79.1486L110.424 79.1135L110.421 79.0139L110.418 78.9142L110.416 78.8145L110.413 78.7149L110.41 78.6152L110.407 78.5155L110.404 78.4159L110.401 78.3371L110.399 78.304L110.396 78.2044L110.393 78.1048L110.39 78.0051L110.387 77.9055L110.384 77.8058L110.381 77.7062L110.378 77.6066L110.375 77.5258L110.372 77.4948L110.369 77.3952L110.366 77.2956L110.363 77.196L110.36 77.0964L110.357 76.9968L110.354 76.8972L110.351 76.7976L110.348 76.7148L110.345 76.6859L110.342 76.5863L110.339 76.4867L110.336 76.3871L110.332 76.2875L110.329 76.188L110.326 76.0884L110.323 75.9888L110.32 75.9041L110.316 75.8772L110.313 75.7776L110.31 75.6781L110.307 75.5785L110.303 75.479L110.3 75.3794L110.297 75.2799L110.293 75.1804L110.29 75.0937L110.287 75.0688L110.283 74.9693L110.28 74.8697L110.277 74.7702L110.273 74.6707L110.27 74.5712L110.266 74.4717L110.263 74.3722L110.26 74.2835L110.256 74.2607L110.253 74.1612L110.249 74.0617L110.246 73.9622L110.242 73.8628L110.239 73.7633L110.235 73.6638L110.232 73.5643L110.228 73.4737L110.224 73.4529L110.221 73.3535L110.217 73.254L110.214 73.1546L110.21 73.0551L110.206 72.9557L110.203 72.8562L110.199 72.7568L110.195 72.6642L110.192 72.6454L110.188 72.546L110.184 72.4466L110.18 72.3472L110.177 72.2478L110.173 72.1484L110.169 72.049L110.165 71.9496L110.162 71.855L110.158 71.8383L110.154 71.7389L110.15 71.6395L110.146 71.5402L110.142 71.4408L110.139 71.3414L110.135 71.2421L110.131 71.1427L110.127 71.0462L110.123 71.0315L110.119 70.9322L110.115 70.8328L110.111 70.7335L110.107 70.6341L110.103 70.5348L110.099 70.4355L110.095 70.3362L110.091 70.2377L110.087 70.225L110.083 70.1257L110.079 70.0264L110.075 69.9271L110.071 69.8279L110.067 69.7286L110.062 69.6293L110.058 69.53L110.054 69.4307L110.05 69.4177L110.046 69.3197L110.042 69.2204L110.037 69.1212L110.033 69.0219L110.029 68.9227L110.025 68.8234L110.021 68.7242L110.016 68.6249L110.012 68.61L110.008 68.514L110.003 68.4147L109.999 68.3155L109.995 68.2163L109.991 68.1171L109.986 68.0179L109.982 67.9187L109.977 67.8195L109.973 67.8026L109.969 67.7086L109.964 67.6095L109.96 67.5103L109.955 67.4111L109.951 67.312L109.946 67.2128L109.942 67.1136L109.938 67.0145L109.933 66.9956L109.929 66.9037L109.924 66.8045L109.919 66.7054L109.915 66.6063L109.91 66.5072L109.906 66.408L109.901 66.3089L109.897 66.2098L109.892 66.1889L109.887 66.0991L109.883 66L109.878 65.9009L109.874 65.8018L109.869 65.7028L109.864 65.6037L109.859 65.5046L109.855 65.4056L109.85 65.3827L109.845 65.2949L109.841 65.1959L109.836 65.0968L109.831 64.9978L109.826 64.8988L109.822 64.7997L109.817 64.7007L109.812 64.6017L109.807 64.5769L109.802 64.4912L109.797 64.3922L109.793 64.2932L109.788 64.1942L109.783 64.0952L109.778 63.9962L109.773 63.8972L109.768 63.7982L109.763 63.7715L109.758 63.6878L109.753 63.5888L109.748 63.4899L109.743 63.3909L109.738 63.292L109.733 63.193L109.728 63.0941L109.723 62.9952L109.718 62.9664L109.713 62.8848L109.708 62.7859L109.703 62.687L109.698 62.5881L109.693 62.4892L109.688 62.3903L109.683 62.2914L109.678 62.1926L109.672 62.1618L109.667 62.0823L109.662 61.9834L109.657 61.8846L109.652 61.7857L109.647 61.6869L109.641 61.588L109.636 61.4892L109.631 61.3903L109.626 61.3577L109.62 61.2802L109.615 61.1814L109.61 61.0825L109.605 60.9837L109.599 60.8849L109.594 60.7861L109.589 60.6874L109.583 60.5886L109.578 60.5539L109.573 60.4785L109.567 60.3797L109.562 60.281L109.556 60.1822L109.551 60.0835L109.546 59.9847L109.54 59.886L109.535 59.7872L109.529 59.7506L109.524 59.6773L109.518 59.5785L109.513 59.4798L109.507 59.3811L109.502 59.2824L109.496 59.1837L109.491 59.085L109.485 58.9863L109.48 58.9478L109.474 58.8765L109.469 58.7778L109.463 58.6791L109.457 58.5805L109.452 58.4818L109.446 58.3832L109.441 58.2845L109.435 58.1859L109.429 58.1454L109.424 58.0761L109.418 57.9775L109.412 57.8789L109.407 57.7803L109.401 57.6817L109.395 57.5831L109.389 57.4845L109.384 57.3859L109.378 57.3434L109.372 57.2762L109.366 57.1776L109.361 57.0791L109.355 56.9805L109.349 56.882L109.343 56.7834L109.337 56.6849L109.332 56.5863L109.326 56.5419L109.32 56.4768L109.314 56.3783L109.308 56.2797L109.302 56.1812L109.296 56.0827L109.29 55.9842L109.285 55.8857L109.279 55.7873L109.273 55.7409L109.267 55.6778L109.261 55.5793L109.255 55.4809L109.249 55.3824L109.243 55.284L109.237 55.1855L109.231 55.0871L109.225 54.9887L109.219 54.9403L109.213 54.8793L109.207 54.7809L109.2 54.6825L109.194 54.5841L109.188 54.4857L109.182 54.3873L109.176 54.2889L109.17 54.1905L109.164 54.1402L109.158 54.0813L109.152 53.9829L109.145 53.8846L109.139 53.7862L109.133 53.6879L109.127 53.5895L109.121 53.4912L109.114 53.3929L109.108 53.3406L109.102 53.2837L109.096 53.1854L109.089 53.0871L109.083 52.9888L109.077 52.8905L109.071 52.7922L109.064 52.694L109.058 52.5957L109.052 52.5415L109.045 52.4866L109.039 52.3884L109.033 52.2901L109.026 52.1919L109.02 52.0937L109.014 51.9954L109.007 51.8972L109.001 51.799L108.994 51.7428L108.988 51.6901L108.981 51.5919L108.975 51.4937L108.969 51.3955L108.962 51.2973L108.956 51.1991L108.949 51.101L108.943 51.0028L108.936 50.9447L108.93 50.894L108.923 50.7958L108.917 50.6977L108.91 50.5995L108.904 50.5014L108.897 50.4033L108.89 50.3052L108.884 50.2071L108.877 50.147L108.871 50.0984L108.864 50.0003L108.857 49.9022L108.851 49.8041L108.844 49.706L108.837 49.608L108.831 49.5099L108.824 49.4118L108.817 49.3498L108.811 49.3033L108.804 49.2052L108.797 49.1072L108.791 49.0092L108.784 48.9111L108.777 48.8131L108.77 48.7151L108.764 48.6171L108.757 48.5531L108.75 48.5086L108.743 48.4107L108.737 48.3127L108.73 48.2147L108.723 48.1168L108.716 48.0188L108.709 47.9209L108.702 47.8229L108.696 47.757L108.689 47.7145L108.682 47.6166L108.675 47.5187L108.668 47.4208L108.661 47.3229L108.654 47.225L108.647 47.1271L108.64 47.0292L108.633 46.9613L108.627 46.9209L108.62 46.8231L108.613 46.7252L108.606 46.6274L108.599 46.5295L108.592 46.4317L108.585 46.3338L108.578 46.236L108.571 46.1661L108.564 46.1278L108.557 46.03L108.549 45.9322L108.542 45.8344L108.535 45.7366L108.528 45.6389L108.521 45.5411L108.514 45.4433L108.507 45.3715L108.5 45.3353L108.493 45.2375L108.486 45.1398L108.478 45.042L108.471 44.9443L108.464 44.8466L108.457 44.7488L108.45 44.6511L108.443 44.5774L108.435 44.5432L108.428 44.4455L108.421 44.3478L108.414 44.2501L108.407 44.1525L108.399 44.0548L108.392 43.9571L108.385 43.8595L108.378 43.7837L108.37 43.7517L108.363 43.654L108.356 43.5564L108.348 43.4588L108.341 43.3611L108.334 43.2635L108.326 43.1659L108.319 43.0683L108.312 42.9906L108.304 42.9606L108.297 42.863L108.29 42.7655L108.282 42.6679L108.275 42.5703L108.267 42.4728L108.26 42.3752L108.253 42.2777L108.245 42.1981L108.238 42.1701L108.23 42.0726L108.223 41.9751L108.215 41.8776L108.208 41.7801L108.2 41.6826L108.193 41.5851L108.185 41.4876L108.178 41.406L108.17 41.3801L108.163 41.2827L108.155 41.1852L108.148 41.0878L108.14 40.9903L108.133 40.8929L108.125 40.7954L108.118 40.698L108.11 40.6145L108.102 40.5907L108.095 40.4933L108.087 40.3959L108.08 40.2985L108.072 40.2011L108.064 40.1037L108.057 40.0063L108.049 39.909L108.041 39.8235L108.034 39.8017L108.026 39.7044L108.018 39.607L108.011 39.5097L108.003 39.4124L107.995 39.3151L107.988 39.2178L107.98 39.1205L107.972 39.033L107.964 39.0133L107.957 38.9161L107.949 38.8188L107.941 38.7215L107.933 38.6242L107.926 38.527L107.918 38.4297L107.91 38.3325L107.902 38.2431L107.894 38.2255L107.886 38.1282L107.879 38.031L107.871 37.9338L107.863 37.8366L107.855 37.7394L107.847 37.6422L107.839 37.545L107.831 37.4537L107.824 37.4381L107.816 37.341L107.808 37.2438L107.8 37.1466L107.792 37.0495L107.784 36.9524L107.776 36.8552L107.768 36.7581L107.76 36.6648L107.752 36.6513L107.744 36.5542L107.736 36.4571L107.728 36.36L107.72 36.2629L107.712 36.1659L107.704 36.0688L107.696 35.9717L107.688 35.8765L107.68 35.8651L107.672 35.768L107.664 35.671L107.656 35.5739L107.648 35.4769L107.64 35.3799L107.632 35.2829L107.624 35.1859L107.616 35.0889L107.607 35.0792L107.599 34.9824L107.591 34.8854L107.583 34.7884L107.575 34.6914L107.567 34.5945L107.559 34.4975L107.551 34.4006L107.542 34.3036L107.534 34.292L107.526 34.1972L107.518 34.1003L107.51 34.0034L107.501 33.9065L107.493 33.8096L107.485 33.7127L107.477 33.6158L107.468 33.5189L107.46 33.5053L107.452 33.4127L107.444 33.3158L107.435 33.2189L107.427 33.1221L107.419 33.0253L107.411 32.9284L107.402 32.8316L107.394 32.7348L107.386 32.7192L107.377 32.6286L107.369 32.5318L107.361 32.435L107.352 32.3382L107.344 32.2415L107.336 32.1447L107.327 32.0479L107.319 31.9512L107.311 31.9337L107.302 31.8451L107.294 31.7484L107.285 31.6517L107.277 31.5549L107.269 31.4582L107.26 31.3615L107.252 31.2648L107.243 31.1681L107.235 31.1486L107.226 31.0622L107.218 30.9655L107.209 30.8689L107.201 30.7722L107.192 30.6755L107.184 30.5789L107.175 30.4822L107.167 30.3856L107.158 30.3642L107.15 30.2798L107.141 30.1832L107.133 30.0866L107.124 29.99L107.116 29.8934L107.107 29.7968L107.099 29.7002L107.09 29.6036L107.081 29.5803L107.073 29.498L107.064 29.4014L107.056 29.3049L107.047 29.2083L107.038 29.1118L107.03 29.0153L107.021 28.9187L107.013 28.8222L107.004 28.7969L106.995 28.7167L106.987 28.6202L106.978 28.5237L106.969 28.4272L106.961 28.3307L106.952 28.2343L106.943 28.1378L106.934 28.0414L106.926 28.0141L106.917 27.936L106.908 27.8395L106.9 27.7431L106.891 27.6467L106.882 27.5503L106.873 27.4539L106.865 27.3575L106.856 27.2611L106.847 27.2319L106.838 27.1558L106.83 27.0594L106.821 26.963L106.812 26.8667L106.803 26.7703L106.794 26.674L106.785 26.5776L106.777 26.4813L106.768 26.4502L106.759 26.3762L106.75 26.2799L106.741 26.1835L106.732 26.0872L106.724 25.991L106.715 25.8947L106.706 25.7984L106.697 25.7021L106.688 25.669L106.679 25.5971L106.67 25.5008L106.661 25.4046L106.652 25.3084L106.643 25.2121L106.634 25.1159L106.626 25.0197L106.617 24.9235L106.608 24.8885L106.599 24.8186L106.59 24.7224L106.581 24.6262L106.572 24.5301L106.563 24.4339L106.554 24.3377L106.545 24.2416L106.536 24.1455L106.527 24.1085L106.518 24.0407L106.509 23.9445L106.5 23.8484L106.491 23.7523L106.482 23.6562L106.472 23.5601L106.463 23.464L106.454 23.368L106.445 23.329L106.436 23.2633L106.427 23.1672L106.418 23.0712L106.409 22.9751L106.4 22.8791L106.391 22.7831L106.382 22.687L106.372 22.591L106.363 22.5501L106.354 22.4865L106.345 22.3905L106.336 22.2945L106.327 22.1985L106.317 22.1025L106.308 22.0066L106.299 21.9106L106.29 21.8147L106.281 21.7718L106.272 21.7103L106.262 21.6143L106.253 21.5184L106.244 21.4225L106.235 21.3266L106.225 21.2306L106.216 21.1348L106.207 21.0389L106.198 20.9941L106.188 20.9346L106.179 20.8387L106.17 20.7428L106.161 20.647L106.151 20.5511L106.142 20.4553L106.133 20.3595L106.123 20.2636L106.114 20.2169L106.105 20.1595L106.095 20.0637L106.086 19.9679L106.077 19.8721L106.067 19.7763L106.058 19.6805L106.049 19.5848L106.039 19.489L106.03 19.4403L106.021 19.385L106.011 19.2892L106.002 19.1935L105.992 19.0978L105.983 19.002L105.974 18.9063L105.964 18.8106L105.955 18.7149L105.945 18.6643L105.936 18.611L105.927 18.5153L105.917 18.4197L105.908 18.324L105.898 18.2284L105.889 18.1327L105.879 18.0371L105.87 17.9414L105.86 17.8889L105.851 17.8377L105.841 17.7421L105.832 17.6464L105.822 17.5508L105.813 17.4553L105.803 17.3597L105.794 17.2641L105.784 17.1685L105.775 17.114L105.765 17.0649L105.756 16.9693L105.746 16.8738L105.737 16.7783L105.727 16.6827L105.717 16.5872L105.708 16.4917L105.698 16.3962L105.689 16.3397L105.679 16.2927L105.669 16.1972L105.66 16.1017L105.65 16.0063L105.641 15.9108L105.631 15.8153L105.621 15.7199L105.612 15.6244L105.602 15.566L105.592 15.5211L105.583 15.4257L105.573 15.3302L105.563 15.2348L105.554 15.1394L105.544 15.0441L105.534 14.9487L105.525 14.8533L105.515 14.7929L105.505 14.7501L105.496 14.6547L105.486 14.5594L105.476 14.464L105.466 14.3687L105.457 14.2734L105.447 14.1781L105.437 14.0827L105.427 14.0204L105.418 13.9796L105.408 13.8843L105.398 13.7891L105.388 13.6938L105.379 13.5985L105.369 13.5033L105.359 13.408L105.349 13.3128L105.339 13.2485L105.33 13.2098L105.32 13.1146L105.31 13.0194L105.3 12.9242L105.29 12.829L105.28 12.7338L105.271 12.6386L105.261 12.5434L105.251 12.4772L105.241 12.4406L105.231 12.3454L105.221 12.2503L105.211 12.1551L105.202 12.06L105.192 11.9649L105.182 11.8698L105.172 11.7747L105.162 11.7065L105.152 11.6719L105.142 11.5769L105.132 11.4818L105.122 11.3867L105.112 11.2916L105.102 11.1966L105.092 11.1015L105.083 11.0065L105.073 10.9364L105.063 10.9039L105.053 10.8089L105.043 10.7139L105.033 10.6189L105.023 10.5239L105.013 10.4289L105.003 10.3339L104.993 10.239L104.983 10.1669L104.973 10.1365L104.963 10.0416L104.953 9.94662L104.943 9.85168L104.933 9.75675L104.922 9.66184L104.912 9.56693L104.902 9.47201L104.892 9.39807L104.882 9.36972L104.872 9.27483L104.862 9.17996L104.852 9.0851L104.842 8.99023L104.832 8.89538L104.822 8.80054L104.812 8.70571L104.801 8.6298L104.791 8.60354L104.781 8.50873L104.771 8.41392L104.761 8.31913L104.751 8.22434L104.741 8.12955L104.731 8.03478L104.72 7.94002L104.71 7.86218L104.7 7.83798L104.69 7.74325L104.68 7.64851L104.67 7.55377L104.659 7.45906L104.649 7.36435L104.639 7.26964L104.629 7.17495L104.619 7.09517L104.608 7.07306L104.598 6.97839L104.588 6.88373L104.578 6.78907L104.567 6.69441L104.557 6.59978L104.547 6.50514L104.537 6.41051L104.526 6.3288L104.516 6.30878L104.506 6.21417L104.496 6.11958L104.485 6.02499L104.475 5.93041L104.465 5.83584L104.454 5.74128L104.444 5.64672L104.434 5.56306L104.423 5.54512L104.413 5.45059L104.403 5.35606L104.392 5.26155L104.382 5.16705L104.372 5.07254L104.361 4.97806L104.351 4.88358L104.341 4.79797L104.33 4.78211L104.32 4.68766L104.31 4.5932L104.299 4.49876L104.289 4.40433L104.278 4.3099L104.268 4.21548L104.258 4.12107L104.247 4.03354L104.237 4.01975L104.226 3.92537L104.216 3.831L104.206 3.73662L104.195 3.64226L104.185 3.54791L104.174 3.45356L104.164 3.35922L104.153 3.26976L104.143 3.25806L104.132 3.16374L104.122 3.06945L104.111 2.97515L104.101 2.88085L104.09 2.78658L104.08 2.69231L104.069 2.59804L104.059 2.50664L104.048 2.49703L104.038 2.40278L104.027 2.30856L104.017 2.21434L104.006 2.12012L103.996 2.02591L103.985 1.93172L103.975 1.83753L103.964 1.74418L103.954 1.73666L103.943 1.6425L103.933 1.54834L103.922 1.4542L103.999 1.44765Z" fill="white"/>
</svg>
