<svg width="200" height="200" viewBox="0 0 200 200" fill="none" xmlns="http://www.w3.org/2000/svg">
<path d="M82.2789 2.6428L82.2586 2.66202L82.2384 2.68123L82.2181 2.7005L82.1979 2.71999L82.1778 2.73947L82.1247 2.76396L82.1004 2.78426L82.0803 2.80402L82.0603 2.82389L82.0402 2.84385L82.0202 2.86388L82.0003 2.88406L81.9804 2.9043L81.9604 2.92461L81.9094 2.94946L81.8836 2.97076L81.8638 2.99133L81.844 3.01206L81.8243 3.0328L81.8046 3.05367L81.7849 3.07467L81.7652 3.09567L81.7456 3.11685L81.6966 3.142L81.6693 3.16429L81.6497 3.18568L81.6302 3.2072L81.6107 3.22874L81.5913 3.25042L81.5719 3.27222L81.5525 3.29403L81.5332 3.316L81.4862 3.34147L81.4573 3.36474L81.4381 3.38696L81.4188 3.4092L81.3996 3.43158L81.3805 3.45407L81.3613 3.47659L81.3422 3.49925L81.3231 3.52201L81.2781 3.54781L81.2478 3.57199L81.2288 3.59501L81.2098 3.61802L81.1909 3.64118L81.172 3.66446L81.1531 3.68774L81.1343 3.71118L81.1154 3.73473L81.0725 3.76089L81.0406 3.78596L81.0219 3.80973L81.0032 3.83353L80.9845 3.85746L80.9659 3.88149L80.9472 3.90556L80.9286 3.92975L80.9101 3.95406L80.8691 3.98061L80.8357 4.00656L80.8173 4.03103L80.7988 4.05561L80.7804 4.08034L80.762 4.10507L80.7436 4.12991L80.7253 4.15491L80.707 4.17991L80.6682 4.20688L80.6332 4.23365L80.615 4.2589L80.5968 4.28418L80.5787 4.30968L80.5605 4.33519L80.5424 4.36074L80.5244 4.3865L80.5063 4.41226L80.4695 4.43965L80.433 4.46716L80.415 4.49318L80.3971 4.51921L80.3792 4.54542L80.3614 4.5717L80.3435 4.59798L80.3257 4.62446L80.3079 4.65099L80.2731 4.67882L80.2351 4.70704L80.2174 4.73379L80.1997 4.76057L80.1821 4.7875L80.1645 4.81451L80.1469 4.84154L80.1293 4.86872L80.1118 4.89599L80.079 4.92431L80.0394 4.95323L80.022 4.98067L80.0045 5.0082L79.9872 5.03586L79.9698 5.06355L79.9525 5.09135L79.9352 5.11926L79.9179 5.14721L79.8872 5.17604L79.846 5.20561L79.8288 5.2338L79.8117 5.262L79.7945 5.2904L79.7774 5.31884L79.7603 5.34731L79.7433 5.37594L79.7263 5.40464L79.6976 5.43397L79.6549 5.46411L79.6379 5.49305L79.621 5.522L79.6041 5.55104L79.5873 5.58023L79.5704 5.60942L79.5536 5.63871L79.5369 5.66815L79.5103 5.69803L79.4659 5.72872L79.4493 5.75836L79.4326 5.78805L79.4159 5.81776L79.3993 5.84765L79.3828 5.87759L79.3662 5.90753L79.3497 5.93768L79.3251 5.96815L79.2792 5.99938L79.2628 6.02969L79.2464 6.06009L79.2299 6.09053L79.2136 6.12107L79.1973 6.15173L79.1809 6.18241L79.1646 6.21317L79.1422 6.24426L79.0947 6.27602L79.0785 6.30701L79.0623 6.33808L79.0462 6.36924L79.03 6.40047L79.014 6.43178L78.9979 6.46319L78.9818 6.49464L78.9614 6.5263L78.9123 6.55855L78.8963 6.59022L78.8804 6.62202L78.8645 6.65383L78.8486 6.68574L78.8328 6.71777L78.817 6.74983L78.8012 6.78198L78.7828 6.81427L78.7322 6.84699L78.7164 6.87931L78.7007 6.91178L78.6851 6.94431L78.6694 6.97687L78.6538 7.00957L78.6382 7.04234L78.6227 7.07516L78.6063 7.10807L78.5542 7.14123L78.5387 7.17424L78.5232 7.20732L78.5078 7.24056L78.4925 7.27381L78.4396 7.34459L78.3868 7.4155L78.334 7.48642L78.2812 7.55734L78.2284 7.59176L78.1757 7.66191L78.123 7.73296L78.0703 7.80409L78.0176 7.87527L77.965 7.94646L77.9124 8.01769L77.8598 8.08901L77.8073 8.16032L77.7547 8.19687L77.7023 8.26562L77.6498 8.33707L77.5973 8.40852L77.5449 8.48009L77.4926 8.55167L77.4402 8.62326L77.3879 8.69494L77.3356 8.76665L77.2833 8.80538L77.231 8.87265L77.1788 8.9445L77.1266 9.01634L77.0744 9.08823L77.0223 9.1602L76.9702 9.23218L76.918 9.30417L76.866 9.37627L76.814 9.4172L76.7619 9.48299L76.71 9.55522L76.658 9.62745L76.6061 9.69969L76.5542 9.77201L76.5023 9.84438L76.4504 9.91674L76.3986 9.98917L76.3468 10.0323L76.2951 10.0967L76.2433 10.1692L76.1916 10.2418L76.1399 10.3144L76.0882 10.3871L76.0366 10.4598L75.985 10.5326L75.9334 10.6053L75.8819 10.6506L75.8304 10.7136L75.7789 10.7864L75.7274 10.8594L75.676 10.9324L75.6245 11.0054L75.5731 11.0785L75.5218 11.1516L75.4705 11.2247L75.4191 11.2721L75.3679 11.3337L75.3166 11.4069L75.2654 11.4802L75.2142 11.5536L75.1631 11.627L75.1119 11.7003L75.0608 11.7738L75.0097 11.8473L74.9587 11.8969L74.9076 11.9569L74.8566 12.0306L74.8057 12.1042L74.7547 12.1779L74.7038 12.2516L74.6529 12.3254L74.602 12.3992L74.5512 12.4731L74.5004 12.5248L74.4496 12.5834L74.3989 12.6573L74.3481 12.7314L74.2974 12.8054L74.2468 12.8795L74.1961 12.9536L74.1455 13.0278L74.0949 13.1019L74.0444 13.1558L73.9939 13.213L73.9433 13.2873L73.8929 13.3616L73.8424 13.436L73.792 13.5104L73.7416 13.5849L73.6913 13.6594L73.6409 13.734L73.5906 13.79L73.5404 13.8457L73.4901 13.9203L73.4398 13.995L73.3897 14.0698L73.3395 14.1445L73.2894 14.2193L73.2393 14.2942L73.1892 14.3691L73.1391 14.4272L73.0891 14.4814L73.0391 14.5565L72.9892 14.6315L72.9392 14.7065L72.8893 14.7817L72.8394 14.8568L72.7896 14.932L72.7398 15.0072L72.69 15.0676L72.6402 15.1203L72.5905 15.1956L72.5408 15.271L72.4911 15.3464L72.4414 15.4219L72.3918 15.4974L72.3422 15.5729L72.2926 15.6484L72.2431 15.7109L72.1936 15.7622L72.1441 15.8379L72.0947 15.9136L72.0453 15.9894L71.9958 16.0651L71.9465 16.141L71.8972 16.2168L71.8479 16.2927L71.7986 16.3573L71.7493 16.4072L71.7001 16.4832L71.6509 16.5592L71.6018 16.6353L71.5527 16.7114L71.5035 16.7875L71.4545 16.8638L71.4054 16.94L71.3564 17.0067L71.3074 17.0551L71.2585 17.1314L71.2095 17.2078L71.1606 17.2842L71.1118 17.3607L71.063 17.4372L71.0141 17.5137L70.9654 17.5903L70.9166 17.6591L70.8679 17.706L70.8192 17.7827L70.7706 17.8594L70.7219 17.9362L70.6733 18.0129L70.6247 18.0898L70.5762 18.1666L70.5277 18.2435L70.4792 18.3145L70.4308 18.3599L70.3823 18.4369L70.3339 18.514L70.2856 18.5911L70.2372 18.6682L70.1889 18.7453L70.1407 18.8225L70.0924 18.8997L70.0442 18.9728L69.996 19.0168L69.9479 19.0941L69.8997 19.1715L69.8517 19.2489L69.8036 19.3264L69.7555 19.4038L69.7076 19.4813L69.6596 19.5589L69.6116 19.6342L69.5637 19.6766L69.5159 19.7543L69.468 19.832L69.4202 19.9097L69.3724 19.9875L69.3246 20.0653L69.2769 20.1431L69.2292 20.221L69.1815 20.2984L69.1339 20.3394L69.0863 20.4174L69.0387 20.4954L68.9912 20.5734L68.9436 20.6515L68.8962 20.7297L68.8487 20.8078L68.8013 20.886L68.7539 20.9643L68.7065 21.0063L68.6592 21.0833L68.6119 21.1617L68.5647 21.2401L68.5174 21.3185L68.4702 21.3969L68.423 21.4755L68.3759 21.554L68.3288 21.6325L68.2817 21.6767L68.2346 21.7523L68.1876 21.8309L68.1406 21.9096L68.0937 21.9884L68.0467 22.0671L67.9999 22.1459L67.953 22.2248L67.9062 22.3037L67.8594 22.35L67.8126 22.4241L67.7659 22.503L67.7191 22.582L67.6725 22.6611L67.6258 22.7402L67.5792 22.8193L67.5327 22.8985L67.4861 22.9777L67.4396 23.0261L67.3931 23.0987L67.3467 23.178L67.3002 23.2574L67.2538 23.3367L67.2075 23.4162L67.1612 23.4956L67.1149 23.5751L67.0686 23.6546L67.0224 23.7052L66.9762 23.7762L66.9301 23.8559L66.8839 23.9356L66.8378 24.0152L66.7918 24.095L66.7457 24.1748L66.6997 24.2545L66.6537 24.3344L66.6078 24.3871L66.5619 24.4567L66.516 24.5366L66.4702 24.6166L66.4244 24.6966L66.3786 24.7766L66.3329 24.8567L66.2872 24.9369L66.2415 25.017L66.1959 25.0718L66.1503 25.1399L66.1047 25.2202L66.0591 25.3005L66.0136 25.3808L65.9681 25.4612L65.9227 25.5415L65.8773 25.622L65.8319 25.7025L65.7865 25.7593L65.7413 25.826L65.696 25.9066L65.6507 25.9872L65.6055 26.0678L65.5603 26.1485L65.5152 26.2292L65.4701 26.3099L65.425 26.3908L65.38 26.4498L65.3349 26.5149L65.29 26.5958L65.245 26.6767L65.2001 26.7577L65.1552 26.8387L65.1104 26.9197L65.0656 27.0007L65.0208 27.0819L64.9761 27.143L64.9313 27.2066L64.8867 27.2878L64.842 27.3691L64.7974 27.4504L64.7528 27.5316L64.7083 27.613L64.6638 27.6944L64.6193 27.7757L64.5749 27.839L64.5305 27.9012L64.4861 27.9827L64.4418 28.0643L64.3975 28.1458L64.3532 28.2274L64.309 28.3091L64.2648 28.3908L64.2206 28.4725L64.1765 28.5379L64.1324 28.5986L64.0884 28.6804L64.0443 28.7622L64.0004 28.8441L63.9564 28.926L63.9125 29.008L63.8686 29.09L63.8248 29.172L63.7809 29.2395L63.7372 29.2987L63.6934 29.3808L63.6497 29.463L63.606 29.5452L63.5624 29.6274L63.5188 29.7097L63.4752 29.792L63.4317 29.8743L63.3882 29.9439L63.3447 30.0016L63.3013 30.0841L63.2579 30.1665L63.2146 30.249L63.1713 30.3316L63.128 30.4142L63.0847 30.4968L63.0415 30.5794L62.9984 30.6511L62.9552 30.7073L62.9121 30.79L62.869 30.8729L62.826 30.9557L62.783 31.0385L62.74 31.1214L62.6971 31.2043L62.6542 31.2872L62.6114 31.3611L62.5686 31.4158L62.5257 31.4988L62.483 31.5819L62.4403 31.6651L62.3976 31.7482L62.355 31.8314L62.3124 31.9146L62.2699 31.9979L62.2273 32.0738L62.1849 32.127L62.1424 32.2104L62.1 32.2937L62.0576 32.3772L62.0153 32.4607L61.9729 32.5441L61.9307 32.6277L61.8885 32.7113L61.8462 32.7893L61.8041 32.841L61.762 32.9247L61.7199 33.0083L61.6779 33.0921L61.6359 33.1759L61.5939 33.2596L61.5519 33.3435L61.5101 33.4274L61.4682 33.5075L61.4264 33.5577L61.3846 33.6417L61.3428 33.7257L61.3011 33.8097L61.2595 33.8938L61.2178 33.9779L61.1762 34.062L61.1347 34.1462L61.0932 34.2285L61.0517 34.2771L61.0102 34.3614L60.9688 34.4458L60.9274 34.5301L60.8861 34.6145L60.8449 34.6989L60.8036 34.7833L60.7624 34.8678L60.7212 34.9522L60.6801 34.9994L60.6389 35.0839L60.5979 35.1685L60.5569 35.2532L60.5159 35.3378L60.475 35.4226L60.434 35.5073L60.3931 35.5921L60.3524 35.6769L60.3116 35.7259L60.2708 35.8091L60.2301 35.894L60.1894 35.979L60.1488 36.064L60.1082 36.149L60.0676 36.234L60.0271 36.3191L59.9866 36.4042L59.9462 36.4553L59.9058 36.537L59.8654 36.6222L59.8251 36.7075L59.7848 36.7928L59.7446 36.8781L59.7044 36.9635L59.6642 37.0488L59.6241 37.1342L59.584 37.1875L59.544 37.2677L59.504 37.3531L59.464 37.4387L59.4241 37.5243L59.3842 37.6099L59.3444 37.6956L59.3046 37.7812L59.2648 37.8669L59.2251 37.9223L59.1854 38.001L59.1458 38.0868L59.1062 38.1726L59.0666 38.2585L59.0271 38.3444L58.9876 38.4303L58.9482 38.5163L58.9088 38.6023L58.8694 38.6597L58.8301 38.737L58.7908 38.8231L58.7516 38.9092L58.7124 38.9954L58.6732 39.0816L58.6341 39.1678L58.5951 39.2541L58.556 39.3404L58.517 39.3999L58.4781 39.4756L58.4392 39.5621L58.4003 39.6485L58.3615 39.735L58.3227 39.8215L58.2839 39.908L58.2453 39.9946L58.2066 40.0812L58.168 40.1428L58.1294 40.217L58.0909 40.3037L58.0524 40.3904L58.014 40.4772L57.9756 40.564L57.9372 40.6508L57.8989 40.7377L57.8606 40.8246L57.8223 40.8883L57.7841 40.961L57.746 41.048L57.7079 41.135L57.6698 41.222L57.6318 41.3091L57.5938 41.3963L57.5559 41.4834L57.518 41.5706L57.4801 41.6364L57.4423 41.7076L57.4046 41.7949L57.3668 41.8822L57.3291 41.9695L57.2915 42.057L57.2539 42.1444L57.2163 42.2318L57.1788 42.3193L57.1414 42.3872L57.1039 42.4568L57.0666 42.5445L57.0292 42.6321L56.9919 42.7197L56.9547 42.8074L56.9175 42.8951L56.8803 42.9828L56.8432 43.0706L56.8061 43.1406L56.7691 43.2088L56.7321 43.2966L56.6952 43.3845L56.6582 43.4725L56.6214 43.5604L56.5846 43.6485L56.5478 43.7365L56.5111 43.8245L56.4744 43.8966L56.4378 43.9633L56.4012 44.0514L56.3647 44.1396L56.3282 44.2279L56.2917 44.3161L56.2553 44.4044L56.2189 44.4927L56.1826 44.5811L56.1463 44.6553L56.1101 44.7204L56.0739 44.8088L56.0378 44.8973L56.0017 44.9858L55.9656 45.0744L55.9296 45.163L55.8937 45.2516L55.8577 45.3402L55.8219 45.4165L55.786 45.4801L55.7502 45.5688L55.7145 45.6576L55.6788 45.7464L55.6432 45.8352L55.6076 45.9241L55.572 46.013L55.5365 46.1019L55.5011 46.1803L55.4657 46.2424L55.4303 46.3314L55.395 46.4205L55.3597 46.5095L55.3245 46.5986L55.2893 46.6878L55.2542 46.777L55.219 46.8662L55.184 46.9466L55.149 47.0072L55.1141 47.0965L55.0792 47.1859L55.0443 47.2752L55.0095 47.3646L54.9748 47.4541L54.9401 47.5435L54.9053 47.633L54.8708 47.7156L54.8362 47.7746L54.8016 47.8642L54.7672 47.9538L54.7328 48.0435L54.6983 48.1331L54.664 48.2229L54.6297 48.3126L54.5955 48.4024L54.5613 48.487L54.5272 48.5445L54.493 48.6344L54.459 48.7243L54.425 48.8142L54.391 48.9042L54.3571 48.9942L54.3233 49.0842L54.2894 49.1743L54.2557 49.261L54.222 49.317L54.1883 49.4071L54.1547 49.4973L54.1211 49.5875L54.0876 49.6777L54.0542 49.768L54.0207 49.8583L53.9873 49.9487L53.954 50.0375L53.9207 50.0919L53.8875 50.1823L53.8543 50.2728L53.8212 50.3633L53.7881 50.4538L53.7551 50.5444L53.7221 50.635L53.6891 50.7256L53.6563 50.8162L53.6235 50.8696L53.5906 50.9601L53.5579 51.0508L53.5252 51.1416L53.4926 51.2324L53.46 51.3232L53.4275 51.4141L53.395 51.5049L53.3626 51.5959L53.3302 51.6513L53.2978 51.7403L53.2656 51.8313L53.2333 51.9223L53.2011 52.0134L53.169 52.1045L53.1369 52.1956L53.1049 52.2868L53.0729 52.378L53.0409 52.4355L53.0091 52.5229L52.9773 52.6142L52.9454 52.7055L52.9137 52.7968L52.8821 52.8882L52.8504 52.9796L52.8188 53.071L52.7873 53.1625L52.7558 53.2221L52.7244 53.308L52.6931 53.3996L52.6617 53.4911L52.6304 53.5827L52.5992 53.6744L52.568 53.766L52.5369 53.8577L52.5059 53.9495L52.4748 54.0111L52.4439 54.0955L52.413 54.1873L52.3821 54.2791L52.3513 54.371L52.3206 54.4629L52.2898 54.5549L52.2593 54.6468L52.2287 54.7388L52.1981 54.8026L52.1676 54.8854L52.1372 54.9775L52.1068 55.0696L52.0765 55.1617L52.0462 55.2539L52.0159 55.3461L51.9858 55.4383L51.9557 55.5306L51.9256 55.5964L51.8956 55.6777L51.8656 55.77L51.8357 55.8624L51.8059 55.9548L51.776 56.0472L51.7463 56.1396L51.7166 56.2322L51.6869 56.3246L51.6574 56.3925L51.6278 56.4723L51.5983 56.5649L51.5689 56.6575L51.5396 56.7502L51.5102 56.8428L51.481 56.9356L51.4518 57.0283L51.4226 57.1211L51.3935 57.191L51.3644 57.2692L51.3354 57.3621L51.3065 57.455L51.2776 57.5479L51.2487 57.6408L51.22 57.7338L51.1913 57.8268L51.1626 57.9198L51.134 57.9918L51.1054 58.0685L51.0769 58.1616L51.0485 58.2547L51.0201 58.3479L50.9917 58.4411L50.9635 58.5343L50.9352 58.6276L50.9071 58.7209L50.879 58.7949L50.8509 58.87L50.8229 58.9634L50.7949 59.0568L50.767 59.1502L50.7392 59.2436L50.7114 59.3371L50.6836 59.4306L50.656 59.5241L50.6284 59.6003L50.6008 59.6738L50.5733 59.7674L50.5459 59.861L50.5185 59.9547L50.4912 60.0484L50.4639 60.1421L50.4366 60.2359L50.4095 60.3297L50.3824 60.4078L50.3553 60.4798L50.3283 60.5737L50.3014 60.6676L50.2745 60.7615L50.2477 60.8554L50.2209 60.9494L50.1942 61.0434L50.1675 61.1374L50.1409 61.2176L50.1144 61.288L50.0879 61.3821L50.0614 61.4762L50.0351 61.5704L50.0088 61.6646L49.9825 61.7588L49.9563 61.8531L49.9302 61.9473L49.9041 62.0296L49.8781 62.0984L49.8521 62.1928L49.8262 62.2871L49.8004 62.3815L49.7746 62.4759L49.7488 62.5704L49.7232 62.6649L49.6975 62.7594L49.672 62.8437L49.6465 62.911L49.621 63.0055L49.5957 63.1001L49.5703 63.1948L49.545 63.2894L49.5199 63.3841L49.4947 63.4788L49.4696 63.5735L49.4446 63.6599L49.4196 63.7256L49.3947 63.8204L49.3699 63.9153L49.345 64.0101L49.3203 64.105L49.2956 64.1999L49.271 64.2948L49.2465 64.3898L49.222 64.4782L49.1975 64.5423L49.1731 64.6374L49.1488 64.7324L49.1245 64.8275L49.1004 64.9226L49.0762 65.0178L49.0521 65.1129L49.0281 65.2081L49.0041 65.2985L48.9802 65.3611L48.9564 65.4564L48.9326 65.5516L48.9089 65.6469L48.8852 65.7423L48.8616 65.8376L48.8381 65.933L48.8146 66.0285L48.7912 66.1209L48.7678 66.1819L48.7445 66.2774L48.7213 66.3728L48.6981 66.4684L48.675 66.5639L48.6519 66.6595L48.629 66.7552L48.606 66.8508L48.5832 66.9452L48.5604 67.0046L48.5376 67.1003L48.5149 67.1961L48.4923 67.2918L48.4697 67.3876L48.4472 67.4834L48.4248 67.5792L48.4024 67.675L48.3801 67.7709L48.3578 67.8299L48.3356 67.9252L48.3135 68.0212L48.2914 68.1171L48.2694 68.2131L48.2475 68.3091L48.2255 68.4052L48.2038 68.5012L48.182 68.5973L48.1603 68.6583L48.1387 68.752L48.1171 68.8482L48.0956 68.9444L48.0741 69.0406L48.0527 69.1368L48.0314 69.233L48.0102 69.3293L47.9889 69.4256L47.9678 69.4886L47.9468 69.5807L47.9257 69.6771L47.9048 69.7735L47.8839 69.8699L47.8631 69.9663L47.8423 70.0627L47.8216 70.1592L47.801 70.2557L47.7804 70.3207L47.7599 70.4112L47.7395 70.5078L47.7191 70.6044L47.6988 70.7009L47.6785 70.7976L47.6584 70.8942L47.6382 70.9909L47.6182 71.0876L47.5982 71.1546L47.5782 71.2435L47.5584 71.3402L47.5386 71.437L47.5188 71.5338L47.4992 71.6306L47.4795 71.7274L47.46 71.8243L47.4405 71.9212L47.421 71.9902L47.4017 72.0775L47.3824 72.1744L47.3632 72.2714L47.3441 72.3684L47.325 72.4654L47.3059 72.5624L47.287 72.6595L47.268 72.7565L47.2492 72.8275L47.2305 72.9132L47.2117 73.0103L47.1931 73.1075L47.1745 73.2047L47.156 73.3018L47.1376 73.399L47.1192 73.4963L47.1008 73.5935L47.0826 73.6665L47.0644 73.7506L47.0463 73.8479L47.0282 73.9452L47.0102 74.0425L46.9923 74.1399L46.9745 74.2373L46.9566 74.3347L46.9389 74.4321L46.9213 74.5071L46.9037 74.5895L46.8861 74.687L46.8686 74.7845L46.8513 74.882L46.8339 74.9796L46.8166 75.0771L46.7995 75.1747L46.7823 75.2723L46.7652 75.3493L46.7483 75.4301L46.7313 75.5277L46.7144 75.6254L46.6976 75.7231L46.6809 75.8208L46.6642 75.9185L46.6476 76.0163L46.631 76.114L46.6146 76.1929L46.5982 76.2721L46.5818 76.3699L46.5656 76.4678L46.5494 76.5656L46.5332 76.6635L46.5172 76.7614L46.5011 76.8593L46.4852 76.9572L46.4694 77.0381L46.4535 77.1156L46.4378 77.2136L46.4221 77.3116L46.4065 77.4096L46.391 77.5076L46.3755 77.6057L46.3601 77.7038L46.3448 77.8018L46.3295 77.8847L46.3143 77.9606L46.2992 78.0587L46.2841 78.1568L46.2691 78.255L46.2542 78.3532L46.2393 78.4514L46.2245 78.5496L46.2098 78.6478L46.1951 78.7326L46.1806 78.8068L46.166 78.9051L46.1516 79.0034L46.1372 79.1017L46.1228 79.2001L46.1086 79.2984L46.0944 79.3968L46.0803 79.4951L46.0663 79.5819L46.0522 79.6544L46.0384 79.7529L46.0245 79.8513L46.0107 79.9498L45.9971 80.0482L45.9834 80.1467L45.9698 80.2452L45.9563 80.3437L45.9429 80.4324L45.9295 80.5033L45.9162 80.6019L45.903 80.7004L45.8899 80.799L45.8768 80.8976L45.8637 80.9963L45.8508 81.0949L45.8379 81.1935L45.8251 81.2841L45.8123 81.3534L45.7996 81.4521L45.787 81.5508L45.7745 81.6495L45.762 81.7482L45.7496 81.847L45.7373 81.9457L45.725 82.0445L45.7128 82.1371L45.7007 82.2046L45.6886 82.3034L45.6767 82.4023L45.6647 82.5011L45.6529 82.6L45.6411 82.6988L45.6293 82.7977L45.6177 82.8966L45.6061 82.9911L45.5946 83.0569L45.5832 83.1559L45.5718 83.2548L45.5606 83.3538L45.5493 83.4528L45.5381 83.5518L45.5271 83.6508L45.5161 83.7498L45.5051 83.8462L45.4942 83.9104L45.4834 84.0094L45.4727 84.1085L45.462 84.2075L45.4514 84.3066L45.4409 84.4057L45.4304 84.5048L45.42 84.6039L45.4097 84.7022L45.3994 84.7647L45.3892 84.8639L45.3792 84.9631L45.3691 85.0622L45.3591 85.1614L45.3492 85.2606L45.3394 85.3598L45.3296 85.4591L45.3199 85.5583L45.3103 85.621L45.3008 85.7193L45.2912 85.8186L45.2819 85.9179L45.2725 86.0171L45.2632 86.1164L45.254 86.2157L45.2449 86.3151L45.2358 86.4144L45.2269 86.479L45.2179 86.5756L45.2091 86.675L45.2003 86.7743L45.1915 86.8737L45.1829 86.9731L45.1744 87.0725L45.1658 87.1719L45.1574 87.2713L45.1491 87.3378L45.1408 87.4327L45.1326 87.5322L45.1244 87.6316L45.1163 87.7311L45.1083 87.8306L45.1003 87.93L45.0925 88.0295L45.0847 88.129L45.077 88.1974L45.0694 88.2906L45.0617 88.3901L45.0542 88.4896L45.0468 88.5892L45.0394 88.6887L45.0321 88.7883L45.0249 88.8879L45.0177 88.9875L45.0106 89.0577L45.0036 89.1491L44.9966 89.2488L44.9898 89.3484L44.9829 89.448L44.9762 89.5476L44.9696 89.6472L44.9629 89.7469L44.9564 89.8465L44.95 89.9187L44.9436 90.0084L44.9373 90.108L44.931 90.2077L44.9249 90.3074L44.9188 90.4071L44.9127 90.5068L44.9068 90.6065L44.9009 90.7062L44.895 90.7802L44.8893 90.8682L44.8836 90.9679L44.878 91.0676L44.8725 91.1674L44.867 91.2671L44.8616 91.3669L44.8563 91.4667L44.851 91.5664L44.8459 91.6423L44.8407 91.7285L44.8357 91.8283L44.8307 91.9281L44.8258 92.0279L44.821 92.1277L44.8163 92.2275L44.8115 92.3273L44.807 92.4271L44.8024 92.5049L44.7979 92.5893L44.7935 92.6891L44.7892 92.789L44.7849 92.8888L44.7807 92.9887L44.7766 93.0885L44.7726 93.1884L44.7686 93.2882L44.7646 93.3678L44.7608 93.4505L44.7571 93.5504L44.7534 93.6502L44.7498 93.7501L44.7462 93.85L44.7427 93.9499L44.7393 94.0498L44.7359 94.1497L44.7327 94.2311L44.7295 94.312L44.7263 94.412L44.7233 94.5119L44.7203 94.6118L44.7174 94.7117L44.7145 94.8116L44.7117 94.9116L44.709 95.0115L44.7064 95.0947L44.7038 95.1739L44.7014 95.2738L44.6989 95.3738L44.6966 95.4737L44.6943 95.5737L44.692 95.6736L44.6899 95.7736L44.6879 95.8735L44.6858 95.9586L44.6839 96.036L44.6821 96.1359L44.6803 96.2359L44.6786 96.3358L44.6769 96.4358L44.6753 96.5358L44.6739 96.6358L44.6724 96.7357L44.6711 96.8226L44.6698 96.8982L44.6685 96.9982L44.6674 97.0982L44.6663 97.1981L44.6653 97.2981L44.6643 97.3981L44.6634 97.4981L44.6627 97.5981L44.6619 97.6868L44.6612 97.7606L44.6607 97.8606L44.6602 97.9605L44.6597 98.0605L44.6593 98.1605L44.659 98.2605L44.6588 98.3605L44.6586 98.4605L44.6585 98.551L44.6585 98.623L44.6585 98.723L44.6586 98.823L44.6588 98.923L44.6591 99.0229L44.6594 99.1229L44.6598 99.2229L44.6602 99.3229L44.6607 99.4152L44.6614 99.4854L44.6621 99.5854L44.6628 99.6854L44.6636 99.7854L44.6646 99.8854L44.6655 99.9853L44.6666 100.085L44.6677 100.185L44.6688 100.279L44.6701 100.348L44.6714 100.448L44.6728 100.548L44.6742 100.648L44.6757 100.748L44.6774 100.848L44.679 100.948L44.6807 101.048L44.6826 101.143L44.6844 101.21L44.6864 101.31L44.6884 101.41L44.6904 101.51L44.6926 101.61L44.6949 101.71L44.6971 101.81L44.6995 101.91L44.7019 102.007L44.7044 102.072L44.707 102.172L44.7096 102.272L44.7124 102.372L44.7152 102.472L44.718 102.572L44.7209 102.672L44.7239 102.772L44.7269 102.871L44.7301 102.934L44.7333 103.034L44.7366 103.134L44.7399 103.234L44.7432 103.334L44.7468 103.433L44.7503 103.533L44.7539 103.633L44.7576 103.733L44.7613 103.797L44.7652 103.895L44.7691 103.995L44.773 104.095L44.7771 104.195L44.7812 104.295L44.7853 104.395L44.7896 104.494L44.7938 104.594L44.7982 104.66L44.8027 104.757L44.8072 104.856L44.8118 104.956L44.8164 105.056L44.8211 105.156L44.826 105.256L44.8308 105.355L44.8357 105.455L44.8407 105.522L44.8458 105.617L44.8509 105.717L44.8561 105.817L44.8614 105.917L44.8668 106.016L44.8721 106.116L44.8776 106.216L44.8832 106.316L44.8888 106.385L44.8945 106.478L44.9002 106.577L44.906 106.677L44.912 106.777L44.9179 106.876L44.9239 106.976L44.9301 107.076L44.9362 107.176L44.9424 107.246L44.9488 107.337L44.9551 107.437L44.9616 107.537L44.9681 107.636L44.9746 107.736L44.9813 107.836L44.988 107.935L44.9948 108.035L45.0016 108.107L45.0085 108.197L45.0155 108.296L45.0226 108.396L45.0297 108.495L45.0369 108.595L45.0442 108.695L45.0515 108.794L45.0589 108.894L45.0663 108.968L45.0739 109.055L45.0815 109.155L45.0891 109.254L45.0969 109.354L45.1047 109.453L45.1125 109.553L45.1205 109.652L45.1285 109.752L45.1366 109.828L45.1447 109.913L45.1529 110.013L45.1612 110.112L45.1696 110.212L45.178 110.311L45.1865 110.41L45.195 110.51L45.2036 110.609L45.2123 110.687L45.221 110.77L45.2299 110.87L45.2388 110.969L45.2477 111.069L45.2568 111.168L45.2659 111.267L45.275 111.366L45.2843 111.466L45.2935 111.545L45.3029 111.627L45.3123 111.726L45.3218 111.825L45.3314 111.925L45.341 112.024L45.3507 112.123L45.3605 112.222L45.3703 112.322L45.3802 112.403L45.3902 112.482L45.4002 112.582L45.4103 112.681L45.4205 112.78L45.4307 112.879L45.441 112.978L45.4514 113.077L45.4618 113.177L45.4723 113.259L45.4828 113.337L45.4935 113.436L45.5042 113.535L45.5149 113.634L45.5258 113.733L45.5367 113.832L45.5476 113.932L45.5587 114.031L45.5698 114.115L45.581 114.191L45.5922 114.29L45.6035 114.389L45.6149 114.488L45.6263 114.587L45.6377 114.686L45.6494 114.785L45.661 114.884L45.6727 114.97L45.6845 115.044L45.6963 115.143L45.7082 115.242L45.7201 115.34L45.7321 115.439L45.7443 115.538L45.7564 115.637L45.7686 115.736L45.7809 115.823L45.7933 115.896L45.8057 115.994L45.8182 116.093L45.8307 116.192L45.8434 116.291L45.8561 116.389L45.8688 116.488L45.8817 116.587L45.8945 116.676L45.9074 116.746L45.9205 116.845L45.9336 116.944L45.9467 117.042L45.9599 117.141L45.9732 117.239L45.9866 117.338L46 117.436L46.0134 117.528L46.027 117.596L46.0406 117.694L46.0542 117.793L46.068 117.891L46.0818 117.99L46.0956 118.088L46.1096 118.187L46.1235 118.285L46.1376 118.378L46.1518 118.444L46.1659 118.543L46.1802 118.641L46.1945 118.739L46.2089 118.838L46.2234 118.936L46.2378 119.034L46.2524 119.133L46.2671 119.227L46.2818 119.292L46.2966 119.39L46.3114 119.488L46.3263 119.586L46.3413 119.684L46.3563 119.782L46.3713 119.881L46.3866 119.979L46.4018 120.075L46.417 120.137L46.4324 120.236L46.4478 120.334L46.4633 120.432L46.4789 120.53L46.4944 120.628L46.5101 120.726L46.5259 120.824L46.5416 120.922L46.5575 120.982L46.5734 121.08L46.5894 121.178L46.6055 121.276L46.6216 121.374L46.6378 121.472L46.6541 121.569L46.6703 121.667L46.6867 121.765L46.7032 121.827L46.7196 121.923L46.7362 122.021L46.7529 122.119L46.7695 122.216L46.7863 122.314L46.8031 122.412L46.82 122.509L46.837 122.607L46.8539 122.671L46.871 122.765L46.8882 122.862L46.9053 122.96L46.9226 123.057L46.94 123.155L46.9573 123.253L46.9748 123.35L46.9923 123.448L47.0099 123.513L47.0275 123.605L47.0452 123.702L47.063 123.8L47.0808 123.897L47.0987 123.995L47.1167 124.092L47.1347 124.189L47.1527 124.287L47.1709 124.354L47.1891 124.444L47.2073 124.541L47.2257 124.638L47.2441 124.735L47.2625 124.833L47.281 124.93L47.2996 125.027L47.3183 125.124L47.337 125.193L47.3557 125.281L47.3745 125.378L47.3934 125.475L47.4123 125.572L47.4314 125.669L47.4505 125.766L47.4696 125.863L47.4888 125.96L47.508 126.03L47.5274 126.116L47.5468 126.213L47.5662 126.31L47.5857 126.407L47.6053 126.504L47.6249 126.601L47.6446 126.698L47.6643 126.794L47.6841 126.866L47.704 126.95L47.724 127.047L47.7439 127.144L47.764 127.241L47.7841 127.337L47.8043 127.434L47.8246 127.53L47.8448 127.627L47.8652 127.701L47.8857 127.783L47.9061 127.879L47.9267 127.976L47.9473 128.072L47.9679 128.169L47.9887 128.265L48.0095 128.362L48.0303 128.458L48.0512 128.533L48.0722 128.613L48.0932 128.71L48.1143 128.806L48.1354 128.902L48.1567 128.999L48.178 129.095L48.1993 129.191L48.2207 129.287L48.2422 129.364L48.2637 129.442L48.2853 129.538L48.3069 129.634L48.3286 129.731L48.3504 129.827L48.3721 129.923L48.394 130.019L48.416 130.115L48.4379 130.193L48.46 130.269L48.4821 130.365L48.5043 130.461L48.5265 130.557L48.5488 130.653L48.5712 130.749L48.5936 130.845L48.6161 130.94L48.6386 131.02L48.6612 131.094L48.6838 131.19L48.7066 131.286L48.7294 131.382L48.7521 131.477L48.7751 131.573L48.798 131.669L48.821 131.764L48.8441 131.846L48.8672 131.918L48.8904 132.013L48.9136 132.109L48.9369 132.204L48.9603 132.3L48.9837 132.395L49.0072 132.491L49.0307 132.586L49.0543 132.669L49.078 132.739L49.1017 132.835L49.1255 132.93L49.1493 133.025L49.1732 133.12L49.1971 133.216L49.2211 133.311L49.2452 133.406L49.2693 133.491L49.2935 133.559L49.3178 133.654L49.342 133.749L49.3664 133.844L49.3908 133.939L49.4153 134.034L49.4398 134.129L49.4644 134.224L49.489 134.31L49.5137 134.376L49.5385 134.471L49.5633 134.566L49.5882 134.661L49.6131 134.756L49.6381 134.85L49.6632 134.945L49.6883 135.04L49.7134 135.128L49.7387 135.192L49.764 135.286L49.7893 135.381L49.8147 135.476L49.8401 135.57L49.8656 135.665L49.8912 135.759L49.9168 135.854L49.9425 135.943L49.9683 136.005L49.994 136.1L50.0199 136.194L50.0458 136.288L50.0718 136.383L50.0978 136.477L50.1239 136.571L50.15 136.666L50.1762 136.756L50.2025 136.817L50.2287 136.911L50.2552 137.005L50.2816 137.099L50.308 137.193L50.3346 137.287L50.3611 137.381L50.3878 137.475L50.4145 137.568L50.4412 137.626L50.4681 137.72L50.495 137.814L50.5218 137.908L50.5489 138.001L50.5759 138.095L50.6029 138.189L50.6301 138.283L50.6573 138.377L50.6846 138.433L50.7119 138.526L50.7393 138.62L50.7667 138.714L50.7942 138.807L50.8217 138.901L50.8493 138.995L50.877 139.088L50.9047 139.182L50.9325 139.24L50.9603 139.331L50.9881 139.425L51.0161 139.518L51.0441 139.611L51.0721 139.705L51.1002 139.798L51.1284 139.891L51.1565 139.985L51.1848 140.044L51.2132 140.134L51.2415 140.227L51.27 140.32L51.2984 140.413L51.3269 140.506L51.3556 140.599L51.3842 140.692L51.4129 140.785L51.4417 140.846L51.4704 140.934L51.4993 141.027L51.5282 141.119L51.5572 141.212L51.5862 141.305L51.6153 141.398L51.6444 141.491L51.6736 141.584L51.7029 141.646L51.7322 141.731L51.7615 141.824L51.7909 141.917L51.8204 142.009L51.8499 142.102L51.8795 142.195L51.9091 142.287L51.9388 142.38L51.9685 142.444L51.9983 142.527L52.0281 142.619L52.058 142.712L52.0879 142.804L52.118 142.896L52.148 142.989L52.1781 143.081L52.2083 143.173L52.2385 143.239L52.2688 143.32L52.2991 143.412L52.3294 143.504L52.3599 143.596L52.3904 143.689L52.4209 143.781L52.4515 143.873L52.4821 143.964L52.5128 144.032L52.5436 144.111L52.5744 144.203L52.6052 144.295L52.6361 144.386L52.6671 144.478L52.698 144.57L52.7291 144.662L52.7603 144.753L52.7914 144.822L52.8227 144.899L52.8539 144.991L52.8852 145.082L52.9166 145.174L52.948 145.265L52.9795 145.357L53.0111 145.448L53.0426 145.54L53.0743 145.61L53.106 145.685L53.1377 145.776L53.1695 145.868L53.2014 145.959L53.2332 146.05L53.2652 146.141L53.2972 146.233L53.3292 146.324L53.3614 146.396L53.3935 146.468L53.4257 146.559L53.458 146.65L53.4903 146.741L53.5226 146.832L53.5551 146.923L53.5876 147.014L53.62 147.105L53.6527 147.179L53.6853 147.249L53.7179 147.34L53.7507 147.431L53.7835 147.521L53.8163 147.612L53.8492 147.703L53.8821 147.793L53.9151 147.884L53.9481 147.959L53.9812 148.028L54.0143 148.118L54.0475 148.208L54.0807 148.299L54.114 148.389L54.1474 148.48L54.1807 148.57L54.2142 148.66L54.2477 148.737L54.2812 148.803L54.3148 148.893L54.3485 148.984L54.3821 149.074L54.4159 149.164L54.4497 149.254L54.4835 149.344L54.5174 149.434L54.5514 149.512L54.5853 149.576L54.6194 149.666L54.6535 149.756L54.6876 149.846L54.7218 149.936L54.7561 150.026L54.7903 150.115L54.8247 150.205L54.8591 150.285L54.8935 150.347L54.928 150.436L54.9626 150.526L54.9971 150.616L55.0318 150.705L55.0665 150.795L55.1012 150.884L55.136 150.973L55.1708 151.054L55.2057 151.115L55.2407 151.204L55.2757 151.293L55.3107 151.383L55.3458 151.472L55.3809 151.561L55.4161 151.65L55.4513 151.739L55.4866 151.822L55.5219 151.88L55.5573 151.969L55.5927 152.058L55.6282 152.147L55.6638 152.236L55.6993 152.325L55.7349 152.413L55.7706 152.502L55.8063 152.586L55.8421 152.642L55.8779 152.731L55.9138 152.82L55.9497 152.908L55.9857 152.997L56.0216 153.085L56.0577 153.174L56.0939 153.262L56.13 153.348L56.1662 153.402L56.2025 153.49L56.2387 153.579L56.2751 153.667L56.3115 153.755L56.3479 153.844L56.3844 153.932L56.421 154.02L56.4575 154.107L56.4942 154.159L56.5309 154.247L56.5676 154.335L56.6044 154.423L56.6412 154.511L56.6781 154.599L56.715 154.687L56.752 154.775L56.789 154.863L56.8261 154.914L56.8632 155.001L56.9003 155.088L56.9375 155.176L56.9748 155.264L57.0121 155.351L57.0494 155.439L57.0868 155.527L57.1242 155.614L57.1618 155.667L57.1993 155.752L57.2368 155.839L57.2745 155.926L57.3121 156.014L57.3499 156.101L57.3876 156.188L57.4254 156.276L57.4633 156.363L57.5012 156.417L57.5392 156.5L57.5772 156.587L57.6152 156.674L57.6533 156.761L57.6915 156.848L57.7297 156.935L57.7679 157.022L57.8061 157.109L57.8445 157.164L57.8828 157.245L57.9213 157.332L57.9597 157.419L57.9982 157.505L58.0368 157.592L58.0754 157.679L58.114 157.765L58.1527 157.852L58.1915 157.909L58.2302 157.987L58.2691 158.074L58.308 158.16L58.3468 158.247L58.3858 158.333L58.4249 158.419L58.4639 158.506L58.503 158.592L58.5422 158.65L58.5813 158.727L58.6206 158.813L58.6599 158.899L58.6992 158.985L58.7386 159.071L58.778 159.157L58.8174 159.243L58.857 159.329L58.8965 159.389L58.9361 159.463L58.9758 159.549L59.0154 159.635L59.0551 159.72L59.095 159.806L59.1348 159.892L59.1746 159.977L59.2146 160.063L59.2545 160.124L59.2945 160.197L59.3346 160.282L59.3746 160.368L59.4147 160.453L59.455 160.538L59.4952 160.624L59.5354 160.709L59.5758 160.794L59.6161 160.857L59.6565 160.927L59.697 161.012L59.7374 161.097L59.778 161.182L59.8186 161.267L59.8592 161.352L59.8998 161.437L59.9406 161.522L59.9813 161.587L60.0221 161.655L60.0629 161.739L60.1038 161.824L60.1447 161.909L60.1857 161.993L60.2267 162.078L60.2677 162.163L60.3089 162.247L60.35 162.313L60.3912 162.379L60.4324 162.463L60.4737 162.548L60.515 162.632L60.5564 162.716L60.5978 162.801L60.6392 162.885L60.6807 162.969L60.7222 163.037L60.7638 163.1L60.8055 163.184L60.8471 163.268L60.8888 163.352L60.9306 163.436L60.9723 163.52L61.0142 163.604L61.0561 163.688L61.098 163.757L61.1399 163.818L61.1819 163.902L61.224 163.986L61.266 164.07L61.3082 164.153L61.3503 164.237L61.3926 164.32L61.4348 164.404L61.4771 164.474L61.5195 164.533L61.5619 164.617L61.6043 164.7L61.6467 164.784L61.6893 164.867L61.7318 164.95L61.7744 165.033L61.817 165.117L61.8597 165.188L61.9024 165.245L61.9452 165.328L61.988 165.412L62.0308 165.495L62.0737 165.577L62.1166 165.66L62.1596 165.743L62.2026 165.826L62.2456 165.899L62.2887 165.954L62.3319 166.037L62.3751 166.12L62.4183 166.202L62.4615 166.285L62.5048 166.367L62.5482 166.45L62.5916 166.532L62.635 166.607L62.6784 166.66L62.722 166.742L62.7655 166.824L62.8091 166.907L62.8527 166.989L62.8964 167.071L62.9401 167.153L62.9838 167.235L63.0276 167.311L63.0714 167.362L63.1153 167.444L63.1592 167.526L63.2031 167.608L63.2472 167.69L63.2912 167.772L63.3352 167.854L63.3794 167.935L63.4235 168.013L63.4677 168.061L63.512 168.143L63.5562 168.224L63.6005 168.306L63.6449 168.388L63.6893 168.469L63.7337 168.551L63.7782 168.632L63.8227 168.711L63.8672 168.757L63.9119 168.838L63.9565 168.92L64.0011 169.001L64.0459 169.082L64.0906 169.163L64.1354 169.244L64.1802 169.325L64.2251 169.405L64.27 169.45L64.315 169.531L64.3599 169.611L64.405 169.692L64.4501 169.773L64.4951 169.854L64.5403 169.935L64.5855 170.015L64.6307 170.096L64.6759 170.14L64.7213 170.22L64.7666 170.3L64.812 170.381L64.8574 170.461L64.9029 170.541L64.9483 170.622L64.9939 170.702L65.0395 170.782L65.0851 170.828L65.1307 170.905L65.1764 170.985L65.2221 171.065L65.2679 171.145L65.3137 171.225L65.3596 171.305L65.4054 171.385L65.4514 171.465L65.4973 171.512L65.5433 171.587L65.5894 171.667L65.6354 171.747L65.6815 171.827L65.7277 171.906L65.7738 171.986L65.8201 172.065L65.8664 172.145L65.9126 172.193L65.959 172.266L66.0054 172.346L66.0518 172.425L66.0983 172.504L66.1447 172.584L66.1912 172.663L66.2378 172.742L66.2844 172.821L66.331 172.871L66.3777 172.942L66.4245 173.021L66.4712 173.1L66.518 173.179L66.5648 173.258L66.6117 173.336L66.6586 173.415L66.7055 173.494L66.7525 173.545L66.7995 173.614L66.8466 173.692L66.8936 173.771L66.9408 173.85L66.9879 173.928L67.0351 174.007L67.0824 174.085L67.1296 174.163L67.1769 174.216L67.2243 174.283L67.2717 174.361L67.3191 174.439L67.3666 174.517L67.414 174.595L67.4615 174.673L67.5091 174.751L67.5567 174.829L67.6043 174.884L67.652 174.948L67.6998 175.026L67.7475 175.103L67.7953 175.181L67.8431 175.259L67.8909 175.337L67.9388 175.414L67.9868 175.492L68.0347 175.547L68.0827 175.609L68.1308 175.687L68.1788 175.764L68.2269 175.842L68.2751 175.919L68.3232 175.996L68.3715 176.074L68.4197 176.151L68.468 176.208L68.5163 176.268L68.5647 176.345L68.613 176.422L68.6615 176.499L68.7099 176.576L68.7584 176.653L68.807 176.73L68.8555 176.806L68.9041 176.865L68.9528 176.923L69.0014 176.999L69.0501 177.076L69.0989 177.152L69.1477 177.229L69.1965 177.306L69.2453 177.382L69.2942 177.458L69.3431 177.518L69.392 177.574L69.441 177.65L69.4901 177.726L69.5391 177.803L69.5882 177.879L69.6373 177.955L69.6865 178.031L69.7357 178.107L69.7849 178.168L69.8342 178.221L69.8835 178.297L69.9328 178.373L69.9821 178.449L70.0316 178.525L70.081 178.601L70.1304 178.676L70.18 178.752L70.2295 178.814L70.279 178.866L70.3287 178.941L70.3783 179.017L70.4279 179.092L70.4777 179.167L70.5274 179.243L70.5771 179.318L70.627 179.393L70.6768 179.457L70.7267 179.506L70.7766 179.581L70.8265 179.656L70.8765 179.731L70.9265 179.806L70.9765 179.881L71.0266 179.956L71.0767 180.031L71.1269 180.096L71.177 180.143L71.2272 180.218L71.2775 180.292L71.3277 180.367L71.3781 180.442L71.4284 180.516L71.4788 180.591L71.5292 180.665L71.5796 180.732L71.6301 180.776L71.6806 180.851L71.7311 180.925L71.7817 180.999L71.8323 181.073L71.8829 181.147L71.9336 181.222L71.9843 181.296L72.035 181.364L72.0858 181.406L72.1366 181.48L72.1874 181.554L72.2383 181.628L72.2892 181.701L72.3401 181.775L72.391 181.849L72.442 181.922L72.4931 181.992L72.5441 182.032L72.5952 182.106L72.6463 182.179L72.6974 182.252L72.7486 182.326L72.7999 182.399L72.8511 182.472L72.9024 182.546L72.9537 182.617L73.005 182.654L73.0564 182.727L73.1078 182.8L73.1592 182.873L73.2107 182.946L73.2622 183.019L73.3137 183.092L73.3653 183.165L73.4169 183.237L73.4685 183.273L73.5201 183.346L73.5718 183.418L73.6235 183.491L73.6753 183.563L73.7271 183.636L73.7789 183.708L73.8307 183.781L73.8826 183.853L73.9345 183.889L73.9864 183.96L74.0384 184.032L74.0904 184.105L74.1424 184.177L74.1945 184.249L74.2466 184.321L74.2986 184.393L74.3508 184.465L74.403 184.502L74.4552 184.571L74.5074 184.643L74.5597 184.715L74.612 184.786L74.6643 184.858L74.7167 184.93L74.7691 185.001L74.8215 185.073L74.874 185.112L74.9264 185.178L74.9789 185.249L75.0315 185.321L75.084 185.392L75.1366 185.463L75.1893 185.535L75.2419 185.606L75.2946 185.677L75.3473 185.717L75.4001 185.781L75.4529 185.852L75.5057 185.923L75.5585 185.994L75.6114 186.065L75.6643 186.136L75.7172 186.206L75.7701 186.277L75.8231 186.319L75.8761 186.381L75.9292 186.451L75.9823 186.522L76.0354 186.592L76.0885 186.663L76.1417 186.733L76.1948 186.803L76.248 186.874L76.3013 186.917L76.3546 186.977L76.4079 187.047L76.4612 187.117L76.5146 187.187L76.5679 187.257L76.6214 187.327L76.6748 187.397L76.7283 187.467L76.7818 187.511L76.8354 187.569L76.8889 187.638L76.9425 187.708L76.9961 187.778L77.0497 187.847L77.1034 187.917L77.1572 187.986L77.2109 188.055L77.2646 188.101L77.3184 188.157L77.3722 188.226L77.4261 188.295L77.48 188.364L77.5339 188.434L77.5878 188.503L77.6417 188.572L77.6957 188.641L77.7497 188.688L77.8038 188.741L77.8578 188.81L77.9119 188.879L77.9661 188.947L78.0202 189.016L78.0744 189.085L78.1286 189.153L78.1828 189.222L78.237 189.271L78.2914 189.321L78.3457 189.39L78.4 189.458L78.4544 189.526L78.5088 189.595L78.5632 189.663L78.6176 189.731L78.6721 189.799L78.7266 189.849L78.7811 189.898L78.8357 189.966L78.8902 190.034L78.9449 190.102L78.9995 190.169L79.0541 190.237L79.1089 190.305L79.1636 190.373L79.2183 190.424L79.2731 190.47L79.3279 190.538L79.3827 190.606L79.4375 190.673L79.4924 190.74L79.5473 190.808L79.6022 190.875L79.6572 190.942L79.7122 190.995L79.7672 191.039L79.8222 191.106L79.8773 191.173L79.9323 191.24L79.9875 191.307L80.0426 191.374L80.0977 191.441L80.1529 191.508L80.2081 191.562L80.2634 191.604L80.3187 191.671L80.3739 191.737L80.4292 191.804L80.4846 191.87L80.54 191.937L80.5953 192.003L80.6508 192.07L80.7062 192.125L80.7617 192.165L80.8172 192.231L80.8727 192.297L80.9282 192.364L80.9838 192.43L81.0394 192.496L81.095 192.562L81.1507 192.628L81.2063 192.684L81.262 192.722L81.3177 192.788L81.3735 192.853L81.4292 192.919L81.485 192.985L81.5408 193.05L81.5967 193.116L81.6525 193.182L81.7085 193.24L81.7643 193.275L81.8203 193.34L81.8763 193.406L81.9322 193.471L81.9883 193.536L82.0443 193.601L82.1003 193.666L82.1564 193.731L82.2126 193.791L82.2687 193.824L82.3248 193.889L82.381 193.954L82.4372 194.019L82.4935 194.083L82.5497 194.148L82.606 194.213L82.6623 194.277L82.7186 194.338L82.775 194.369L82.8313 194.433L82.8877 194.498L82.9441 194.562L83.0006 194.627L83.0571 194.691L83.1135 194.755L83.17 194.819L83.2266 194.882L83.2831 194.91L83.3162 194.951L83.3353 194.977L83.3545 195.003L83.3736 195.03L83.3928 195.056L83.412 195.082L83.4312 195.108L83.4505 195.134L83.4971 195.16L83.5265 195.186L83.5458 195.212L83.5652 195.237L83.5845 195.263L83.604 195.288L83.6234 195.314L83.6428 195.339L83.6622 195.364L83.7073 195.389L83.7387 195.415L83.7582 195.44L83.7778 195.465L83.7974 195.489L83.817 195.514L83.8366 195.539L83.8562 195.563L83.8759 195.588L83.9193 195.613L83.9528 195.637L83.9725 195.662L83.9923 195.686L84.0121 195.71L84.0318 195.734L84.0517 195.758L84.0715 195.781L84.0914 195.805L84.1332 195.829L84.1687 195.853L84.1886 195.877L84.2086 195.9L84.2285 195.924L84.2485 195.947L84.2686 195.97L84.2886 195.993L84.3087 196.016L84.3489 196.04L84.3864 196.063L84.4065 196.086L84.4267 196.109L84.4469 196.131L84.4671 196.154L84.4873 196.176L84.5076 196.198L84.5278 196.22L84.5664 196.243L84.6059 196.266L84.6262 196.288L84.6466 196.31L84.667 196.332L84.6874 196.354L84.7078 196.376L84.7283 196.397L84.7487 196.419L84.7857 196.441L84.8272 196.463L84.8477 196.485L84.8683 196.506L84.8889 196.527L84.9095 196.548L84.9301 196.569L84.9508 196.589L84.9715 196.61L85.0069 196.632L85.0503 196.654L85.071 196.674L85.0918 196.695L85.1126 196.715L85.1334 196.735L85.1542 196.755L85.1751 196.775L85.1959 196.795L85.2297 196.816L85.2751 196.838L85.2961 196.857L85.317 196.877L85.338 196.897L85.359 196.916L85.38 196.935L85.4011 196.955L85.4222 196.974L85.4544 196.994L85.5017 197.015L85.5229 197.034L85.544 197.053L85.5652 197.072L85.5864 197.09L85.6076 197.109L85.6289 197.128L85.6501 197.146L85.6807 197.165L85.7301 197.186L85.7514 197.204L85.7728 197.222L85.7941 197.241L85.8155 197.258L85.8369 197.276L85.8584 197.294L85.8798 197.312L85.9088 197.33L85.9601 197.351L85.9817 197.368L86.0032 197.385L86.0248 197.403L86.0464 197.42L86.068 197.437L86.0896 197.454L86.1112 197.471L86.1386 197.488L86.1919 197.509L86.2136 197.525L86.2354 197.542L86.2571 197.558L86.2789 197.575L86.3007 197.591L86.3225 197.607L86.3443 197.624L86.3701 197.64L86.4254 197.66L86.4473 197.676L86.4692 197.692L86.4912 197.708L86.5131 197.723L86.5351 197.739L86.5571 197.754L86.5792 197.77L86.6033 197.785L86.6605 197.805L86.6826 197.82L86.7047 197.835L86.7269 197.85L86.749 197.865L86.7712 197.88L86.7934 197.895L86.8156 197.909L86.8382 197.924L86.8973 197.943L86.9196 197.958L86.9419 197.972L86.9642 197.986L86.9866 198.001L87.0089 198.015L87.0313 198.029L87.0537 198.042L87.0762 198.056L87.1343 198.075L87.1583 198.089L87.1807 198.102L87.2033 198.116L87.2258 198.129L87.2483 198.143L87.2709 198.156L87.2936 198.169L87.3162 198.182L87.3727 198.2L87.3986 198.213L87.4212 198.226L87.4439 198.239L87.4666 198.252L87.4894 198.264L87.5121 198.277L87.5349 198.289L87.5577 198.301L87.6126 198.318L87.6405 198.331L87.6633 198.343L87.6862 198.355L87.7091 198.367L87.732 198.379L87.755 198.391L87.7779 198.402L87.8009 198.414L87.8541 198.43L87.884 198.443L87.907 198.454L87.93 198.465L87.9531 198.477L87.9763 198.488L87.9994 198.499L88.0225 198.509L88.0457 198.52L88.0973 198.536L88.129 198.548L88.1523 198.558L88.1755 198.569L88.1988 198.579L88.2221 198.589L88.2454 198.6L88.2687 198.61L88.292 198.62L88.342 198.634L88.3757 198.646L88.3991 198.656L88.4225 198.666L88.446 198.675L88.4694 198.685L88.4929 198.694L88.5164 198.704L88.54 198.713L88.5883 198.727L88.6239 198.738L88.6475 198.747L88.6711 198.756L88.6947 198.765L88.7184 198.773L88.7421 198.782L88.7657 198.791L88.7895 198.799L88.8362 198.812L88.8737 198.823L88.8975 198.831L88.9213 198.84L88.9451 198.848L88.9689 198.856L88.9927 198.864L89.0166 198.871L89.0405 198.879L89.0855 198.891L89.125 198.902L89.149 198.909L89.1729 198.917L89.1969 198.924L89.2209 198.931L89.2449 198.938L89.269 198.945L89.293 198.952L89.3365 198.963L89.3779 198.974L89.402 198.981L89.4261 198.987L89.4503 198.994L89.4744 199L89.4986 199.007L89.5228 199.013L89.5471 199.019L89.5889 199.029L89.6322 199.039L89.6565 199.045L89.6808 199.051L89.7052 199.057L89.7295 199.063L89.7539 199.068L89.7782 199.074L89.6866 199.063L89.6034 199.055L89.5252 199.048L89.4263 199.036L89.3273 199.024L89.2284 199.012L89.1295 199L89.0306 198.988L88.9317 198.976L88.8328 198.963L88.7479 198.954L88.6716 198.947L88.5728 198.934L88.4739 198.921L88.3751 198.908L88.2763 198.895L88.1775 198.882L88.0787 198.869L87.9799 198.856L87.8934 198.846L87.8188 198.838L87.7201 198.825L87.6214 198.811L87.5227 198.797L87.424 198.783L87.3253 198.77L87.2266 198.756L87.128 198.742L87.0397 198.73L86.967 198.722L86.8684 198.708L86.7698 198.694L86.6712 198.679L86.5726 198.664L86.4741 198.65L86.3755 198.635L86.277 198.62L86.1871 198.607L86.1162 198.599L86.0177 198.584L85.9192 198.569L85.8207 198.553L85.7223 198.538L85.6238 198.522L85.5254 198.507L85.427 198.491L85.3355 198.477L85.2664 198.469L85.168 198.453L85.0697 198.437L84.9714 198.421L84.873 198.404L84.7747 198.388L84.6764 198.371L84.5781 198.355L84.485 198.34L84.4178 198.331L84.3195 198.315L84.2213 198.298L84.1231 198.281L84.0249 198.263L83.9267 198.246L83.8286 198.229L83.7305 198.211L83.6357 198.195L83.5703 198.187L83.4722 198.169L83.3741 198.151L83.276 198.133L83.178 198.115L83.08 198.097L82.982 198.079L82.884 198.061L82.7877 198.043L82.724 198.035L82.6261 198.016L82.5281 197.998L82.4302 197.979L82.3324 197.96L82.2345 197.941L82.1366 197.922L82.0388 197.903L81.941 197.884L81.879 197.876L81.7813 197.856L81.6835 197.837L81.5858 197.817L81.488 197.798L81.3904 197.778L81.2927 197.758L81.195 197.738L81.0974 197.718L81.0337 197.709L80.9379 197.689L80.8403 197.669L80.7427 197.649L80.6451 197.628L80.5476 197.608L80.4501 197.587L80.3526 197.566L80.2551 197.545L80.1899 197.535L80.0959 197.515L79.9985 197.494L79.9011 197.473L79.8037 197.451L79.7063 197.43L79.609 197.408L79.5117 197.387L79.4144 197.365L79.3475 197.353L79.2554 197.333L79.1582 197.311L79.061 197.289L78.9637 197.267L78.8666 197.245L78.7694 197.223L78.6723 197.2L78.5752 197.178L78.5067 197.165L78.4165 197.145L78.3194 197.122L78.2224 197.099L78.1254 197.076L78.0284 197.053L77.9314 197.03L77.8345 197.007L77.7376 196.983L77.6675 196.969L77.5792 196.949L77.4823 196.925L77.3855 196.902L77.2886 196.878L77.1919 196.854L77.0951 196.83L76.9983 196.806L76.9016 196.782L76.83 196.767L76.7435 196.746L76.6469 196.721L76.5502 196.697L76.4536 196.672L76.357 196.648L76.2604 196.623L76.1639 196.598L76.0674 196.573L75.9942 196.557L75.9096 196.536L75.8132 196.511L75.7167 196.485L75.6203 196.46L75.524 196.434L75.4276 196.409L75.3313 196.383L75.235 196.357L75.1602 196.339L75.0775 196.319L74.9813 196.293L74.8851 196.266L74.7889 196.24L74.6928 196.214L74.5966 196.187L74.5005 196.161L74.4044 196.134L74.3282 196.115L74.2473 196.094L74.1513 196.067L74.0553 196.04L73.9594 196.013L73.8634 195.986L73.7675 195.959L73.6716 195.932L73.5758 195.904L73.498 195.884L73.419 195.863L73.3232 195.835L73.2275 195.807L73.1317 195.779L73.036 195.751L72.9404 195.723L72.8447 195.695L72.7491 195.667L72.6698 195.645L72.5927 195.624L72.4972 195.596L72.4016 195.567L72.3062 195.539L72.2107 195.51L72.1153 195.481L72.0199 195.452L71.9245 195.423L71.8437 195.4L71.7684 195.379L71.6732 195.349L71.5778 195.32L71.4826 195.29L71.3874 195.261L71.2922 195.231L71.1971 195.201L71.102 195.171L71.0197 195.147L70.9463 195.126L70.8512 195.096L70.7562 195.066L70.6612 195.035L70.5663 195.005L70.4713 194.975L70.3764 194.944L70.2815 194.913L70.1979 194.887L70.1263 194.866L70.0315 194.836L69.9367 194.805L69.842 194.773L69.7473 194.742L69.6526 194.711L69.558 194.679L69.4634 194.648L69.3783 194.62L69.3085 194.6L69.214 194.568L69.1195 194.536L69.025 194.504L68.9306 194.472L68.8362 194.44L68.7418 194.408L68.6474 194.376L68.561 194.347L68.493 194.326L68.3987 194.294L68.3045 194.261L68.2103 194.228L68.1162 194.195L68.022 194.162L67.928 194.129L67.8339 194.096L67.746 194.066L67.6799 194.046L67.5859 194.012L67.4919 193.979L67.398 193.945L67.3042 193.912L67.2103 193.878L67.1165 193.844L67.0227 193.81L66.9335 193.778L66.8691 193.758L66.7755 193.724L66.6818 193.69L66.5881 193.655L66.4946 193.621L66.401 193.586L66.3075 193.552L66.214 193.517L66.1234 193.484L66.0609 193.464L65.9675 193.429L65.8741 193.394L65.7808 193.358L65.6875 193.323L65.5942 193.288L65.501 193.252L65.4078 193.217L65.3159 193.182L65.2552 193.162L65.162 193.126L65.069 193.091L64.976 193.055L64.883 193.019L64.79 192.983L64.6971 192.946L64.6042 192.91L64.5113 192.874L64.4516 192.854L64.3592 192.817L64.2664 192.781L64.1737 192.744L64.081 192.707L63.9884 192.67L63.8958 192.633L63.8032 192.596L63.7106 192.559L63.6495 192.538L63.559 192.502L63.4666 192.464L63.3741 192.427L63.2818 192.389L63.1894 192.351L63.0971 192.313L63.0049 192.276L62.9126 192.238L62.8501 192.215L62.7615 192.179L62.6694 192.141L62.5773 192.102L62.4852 192.064L62.3932 192.025L62.3012 191.987L62.2093 191.948L62.1174 191.909L62.0535 191.885L61.9668 191.849L61.875 191.81L61.7832 191.771L61.6915 191.732L61.5998 191.693L61.5081 191.653L61.4165 191.614L61.325 191.574L61.2596 191.549L61.1748 191.513L61.0834 191.473L60.9919 191.433L60.9006 191.393L60.8092 191.353L60.7179 191.313L60.6267 191.273L60.5354 191.232L60.4687 191.206L60.3858 191.17L60.2947 191.129L60.2036 191.089L60.1125 191.048L60.0215 191.007L59.9306 190.966L59.8396 190.925L59.7487 190.884L59.6807 190.856L59.5997 190.82L59.5089 190.779L59.4182 190.737L59.3275 190.696L59.2368 190.654L59.1462 190.612L59.0556 190.571L58.9651 190.529L58.8958 190.499L58.8166 190.464L58.7262 190.421L58.6358 190.379L58.5455 190.337L58.4551 190.295L58.3649 190.252L58.2747 190.21L58.1845 190.167L58.1139 190.136L58.0366 190.1L57.9465 190.057L57.8565 190.015L57.7665 189.971L57.6765 189.928L57.5866 189.885L57.4968 189.842L57.407 189.798L57.3351 189.766L57.2596 189.731L57.1699 189.687L57.0802 189.643L56.9906 189.599L56.901 189.555L56.8115 189.511L56.722 189.467L56.6326 189.423L56.5594 189.389L56.4858 189.354L56.3965 189.31L56.3072 189.265L56.2179 189.221L56.1287 189.176L56.0396 189.131L55.9505 189.086L55.8614 189.041L55.787 189.006L55.7152 188.971L55.6263 188.926L55.5374 188.881L55.4485 188.835L55.3597 188.79L55.2709 188.744L55.1822 188.699L55.0935 188.653L55.0179 188.616L54.9479 188.582L54.8594 188.536L54.7708 188.49L54.6823 188.444L54.5939 188.397L54.5055 188.351L54.4172 188.305L54.3289 188.258L54.2521 188.219L54.1839 188.185L54.0957 188.139L54.0076 188.092L53.9195 188.045L53.8315 187.998L53.7435 187.951L53.6555 187.904L53.5676 187.857L53.4897 187.816L53.4233 187.783L53.3355 187.735L53.2478 187.688L53.1601 187.64L53.0724 187.593L52.9848 187.545L52.8973 187.497L52.8098 187.449L52.7307 187.407L52.6661 187.374L52.5787 187.326L52.4914 187.277L52.4041 187.229L52.3169 187.181L52.2297 187.132L52.1425 187.084L52.0554 187.035L51.9752 186.991L51.9124 186.958L51.8254 186.91L51.7385 186.86L51.6516 186.811L51.5648 186.762L51.478 186.713L51.3913 186.664L51.3046 186.614L51.2233 186.568L51.1622 186.537L51.0757 186.487L50.9892 186.437L50.9027 186.387L50.8163 186.337L50.7299 186.287L50.6436 186.237L50.5574 186.187L50.4749 186.14L50.4156 186.108L50.3295 186.058L50.2434 186.007L50.1574 185.957L50.0714 185.906L49.9855 185.856L49.8996 185.805L49.8138 185.754L49.7302 185.705L49.6727 185.674L49.587 185.623L49.5014 185.571L49.4158 185.52L49.3302 185.469L49.2447 185.417L49.1592 185.366L49.0738 185.314L48.9893 185.263L48.9335 185.233L48.8482 185.181L48.763 185.129L48.6778 185.077L48.5927 185.025L48.5076 184.973L48.4226 184.921L48.3376 184.868L48.2527 184.816L48.1974 184.785L48.1132 184.733L48.0284 184.681L47.9437 184.628L47.859 184.575L47.7744 184.522L47.6898 184.469L47.6053 184.416L47.5208 184.363L47.4643 184.331L47.382 184.279L47.2976 184.226L47.2133 184.172L47.1291 184.119L47.0449 184.065L46.9608 184.012L46.8767 183.958L46.7927 183.904L46.735 183.87L46.6546 183.819L46.5707 183.765L46.4869 183.711L46.4031 183.657L46.3194 183.602L46.2357 183.548L46.152 183.493L46.0685 183.439L46.0097 183.403L45.9311 183.353L45.8477 183.298L45.7643 183.243L45.681 183.188L45.5977 183.133L45.5145 183.078L45.4313 183.023L45.3483 182.968L45.2883 182.93L45.2116 182.88L45.1286 182.825L45.0457 182.769L44.9629 182.713L44.8801 182.658L44.7973 182.602L44.7146 182.546L44.632 182.49L44.571 182.451L44.4961 182.401L44.4136 182.345L44.3311 182.289L44.2487 182.233L44.1664 182.176L44.0841 182.12L44.0019 182.063L43.9198 182.007L43.8577 181.966L43.7846 181.917L43.7026 181.86L43.6206 181.803L43.5387 181.746L43.4569 181.689L43.3751 181.632L43.2933 181.574L43.2116 181.517L43.1485 181.475L43.0773 181.426L42.9957 181.369L42.9142 181.311L42.8328 181.253L42.7515 181.196L42.6701 181.138L42.5889 181.08L42.5076 181.022L42.4435 180.978L42.3741 180.93L42.293 180.871L42.212 180.813L42.1311 180.755L42.0502 180.696L41.9694 180.638L41.8886 180.579L41.8079 180.52L41.7428 180.475L41.6751 180.427L41.5945 180.368L41.514 180.309L41.4336 180.25L41.3532 180.191L41.2729 180.132L41.1926 180.072L41.1124 180.013L41.0463 179.966L40.9804 179.919L40.9003 179.859L40.8203 179.799L40.7403 179.74L40.6605 179.68L40.5807 179.62L40.5008 179.56L40.4211 179.5L40.3541 179.451L40.29 179.404L40.2104 179.344L40.1309 179.284L40.0514 179.223L39.972 179.163L39.8927 179.102L39.8134 179.042L39.7342 178.981L39.6663 178.93L39.6038 178.884L39.5248 178.823L39.4458 178.762L39.3668 178.701L39.288 178.64L39.2092 178.579L39.1304 178.517L39.0517 178.456L38.9829 178.403L38.9222 178.358L38.8437 178.297L38.7652 178.235L38.6867 178.173L38.6084 178.111L38.5301 178.049L38.4518 177.987L38.3737 177.925L38.3039 177.871L38.2449 177.827L38.1669 177.764L38.089 177.702L38.011 177.64L37.9333 177.577L37.8554 177.515L37.7777 177.452L37.7001 177.389L37.6295 177.333L37.5722 177.289L37.4947 177.226L37.4173 177.163L37.3399 177.1L37.2626 177.037L37.1853 176.974L37.1082 176.911L37.031 176.847L36.9596 176.789L36.904 176.746L36.827 176.683L36.7501 176.619L36.6733 176.555L36.5965 176.491L36.5198 176.428L36.4432 176.364L36.3665 176.3L36.2943 176.24L36.2404 176.198L36.164 176.133L36.0876 176.069L36.0113 176.005L35.9351 175.94L35.8589 175.876L35.7828 175.811L35.7067 175.746L35.6337 175.685L35.5814 175.643L35.5055 175.578L35.4297 175.514L35.3539 175.449L35.2782 175.383L35.2026 175.318L35.127 175.253L35.0515 175.188L34.9778 175.124L34.9271 175.084L34.8517 175.018L34.7765 174.952L34.7013 174.887L34.6261 174.821L34.551 174.755L34.476 174.689L34.401 174.624L34.3266 174.558L34.2775 174.518L34.2027 174.452L34.1281 174.386L34.0534 174.32L33.9787 174.253L33.9043 174.187L33.8298 174.12L33.7553 174.054L33.681 173.987L33.6319 173.947L33.5585 173.881L33.4843 173.814L33.4103 173.747L33.3362 173.68L33.2623 173.613L33.1884 173.546L33.1145 173.479L33.0407 173.411L32.9907 173.369L32.9191 173.304L32.8455 173.237L32.7719 173.169L32.6985 173.101L32.6251 173.034L32.5517 172.966L32.4785 172.898L32.4052 172.83L32.3544 172.786L32.2846 172.722L32.2115 172.654L32.1385 172.586L32.0657 172.517L31.9928 172.449L31.92 172.381L31.8473 172.312L31.7747 172.244L31.723 172.198L31.6549 172.134L31.5825 172.066L31.51 171.997L31.4377 171.928L31.3655 171.859L31.2932 171.79L31.2212 171.721L31.1491 171.652L31.0966 171.605L31.0302 171.542L30.9584 171.472L30.8865 171.403L30.8148 171.333L30.7431 171.264L30.6715 171.194L30.5999 171.125L30.5284 171.055L30.4752 171.006L30.4106 170.943L30.3392 170.874L30.2681 170.804L30.1969 170.734L30.1257 170.664L30.0548 170.593L29.9838 170.523L29.9129 170.453L29.8589 170.402L29.796 170.34L29.7252 170.27L29.6546 170.199L29.584 170.129L29.5135 170.058L29.4431 169.987L29.3727 169.916L29.3024 169.845L29.2476 169.792L29.1864 169.732L29.1163 169.661L29.0463 169.59L28.9763 169.518L28.9063 169.447L28.8365 169.376L28.7668 169.304L28.6971 169.233L28.6416 169.178L28.582 169.118L28.5125 169.047L28.4431 168.975L28.3737 168.903L28.3044 168.831L28.2351 168.759L28.1659 168.687L28.0969 168.615L28.0407 168.558L27.9828 168.5L27.9139 168.427L27.8451 168.355L27.7763 168.283L27.7076 168.21L27.639 168.138L27.5704 168.065L27.5019 167.992L27.4451 167.934L27.3888 167.876L27.3205 167.803L27.2523 167.73L27.1841 167.657L27.116 167.584L27.048 167.511L26.9801 167.438L26.9122 167.365L26.8547 167.304L26.8001 167.247L26.7325 167.174L26.6648 167.1L26.5973 167.027L26.5298 166.953L26.4624 166.88L26.395 166.806L26.3278 166.732L26.2697 166.67L26.2167 166.614L26.1497 166.54L26.0826 166.466L26.0157 166.392L25.9489 166.317L25.882 166.243L25.8153 166.169L25.7487 166.094L25.69 166.03L25.6387 165.975L25.5722 165.901L25.5058 165.826L25.4395 165.751L25.3733 165.677L25.3071 165.602L25.2411 165.527L25.1751 165.452L25.1158 165.386L25.066 165.332L25.0002 165.257L24.9345 165.182L24.8688 165.106L24.8032 165.031L24.7377 164.956L24.6722 164.88L24.6068 164.805L24.5471 164.737L24.4989 164.684L24.4336 164.608L24.3685 164.532L24.3035 164.456L24.2385 164.381L24.1736 164.305L24.1088 164.229L24.044 164.153L23.9838 164.083L23.9371 164.031L23.8725 163.954L23.8081 163.878L23.7437 163.802L23.6793 163.725L23.6151 163.649L23.5509 163.572L23.4868 163.496L23.4261 163.424L23.3809 163.373L23.317 163.296L23.2532 163.219L23.1894 163.142L23.1257 163.066L23.0621 162.989L22.9986 162.911L22.9351 162.834L22.874 162.76L22.8303 162.71L22.767 162.633L22.7038 162.556L22.6407 162.478L22.5776 162.401L22.5147 162.323L22.4518 162.246L22.389 162.168L22.3275 162.092L22.2852 162.043L22.2226 161.966L22.1601 161.888L22.0976 161.81L22.0352 161.732L21.9729 161.654L21.9107 161.576L21.8485 161.497L21.7866 161.419L21.7458 161.372L21.6839 161.293L21.622 161.215L21.5602 161.137L21.4985 161.058L21.4368 160.979L21.3753 160.901L21.3138 160.822L21.2524 160.743L21.2112 160.694L21.1509 160.617L21.0896 160.538L21.0285 160.459L20.9675 160.38L20.9065 160.301L20.8455 160.221L20.7847 160.142L20.724 160.063L20.6823 160.012L20.6235 159.935L20.563 159.856L20.5025 159.777L20.4422 159.697L20.3818 159.617L20.3216 159.538L20.2615 159.458L20.2014 159.378L20.1591 159.325L20.102 159.25L20.0422 159.17L19.9824 159.09L19.9227 159.01L19.863 158.93L19.8035 158.85L19.744 158.769L19.6846 158.689L19.6418 158.634L19.5864 158.56L19.5271 158.479L19.4681 158.399L19.409 158.318L19.35 158.238L19.2912 158.157L19.2324 158.076L19.1736 157.995L19.1304 157.939L19.0765 157.865L19.018 157.784L18.9596 157.703L18.9012 157.622L18.8429 157.541L18.7848 157.46L18.7266 157.379L18.6685 157.298L18.6249 157.239L18.5726 157.167L18.5147 157.085L18.457 157.004L18.3993 156.922L18.3417 156.84L18.2842 156.759L18.2268 156.677L18.1695 156.595L18.1253 156.535L18.0746 156.464L18.0174 156.382L17.9604 156.3L17.9034 156.218L17.8465 156.136L17.7897 156.053L17.7329 155.971L17.6763 155.889L17.6318 155.827L17.5825 155.756L17.5261 155.674L17.4698 155.591L17.4134 155.509L17.3573 155.426L17.3012 155.344L17.2451 155.261L17.1892 155.178L17.1443 155.114L17.0965 155.045L17.0408 154.962L16.9852 154.879L16.9296 154.796L16.8741 154.713L16.8187 154.63L16.7633 154.547L16.7081 154.464L16.6628 154.397L16.6166 154.329L16.5616 154.246L16.5066 154.163L16.4517 154.079L16.397 153.996L16.3422 153.912L16.2876 153.828L16.2331 153.745L16.1875 153.677L16.1428 153.61L16.0885 153.526L16.0342 153.442L15.98 153.358L15.926 153.274L15.8719 153.19L15.8181 153.106L15.7642 153.022L15.7183 152.952L15.675 152.886L15.6215 152.802L15.5679 152.718L15.5144 152.633L15.4611 152.549L15.4078 152.464L15.3546 152.38L15.3015 152.295L15.2553 152.223L15.2135 152.159L15.1606 152.074L15.1078 151.989L15.0551 151.904L15.0024 151.819L14.9499 151.734L14.8974 151.649L14.845 151.564L14.7986 151.49L14.7582 151.427L14.706 151.342L14.6539 151.257L14.6019 151.171L14.55 151.086L14.4982 151.001L14.4464 150.915L14.3947 150.83L14.3482 150.754L14.3092 150.692L14.2577 150.606L14.2063 150.521L14.1551 150.435L14.1038 150.349L14.0527 150.263L14.0017 150.177L13.9507 150.091L13.904 150.013L13.8664 149.953L13.8156 149.867L13.765 149.78L13.7145 149.694L13.664 149.608L13.6136 149.522L13.5634 149.435L13.5131 149.349L13.4662 149.269L13.4299 149.21L13.3799 149.123L13.3301 149.037L13.2802 148.95L13.2305 148.863L13.1809 148.777L13.1313 148.69L13.0818 148.603L13.0348 148.521L12.9998 148.463L12.9506 148.376L12.9015 148.289L12.8524 148.202L12.8034 148.115L12.7545 148.028L12.7057 147.941L12.657 147.854L12.6099 147.769L12.5762 147.713L12.5277 147.625L12.4793 147.538L12.4309 147.451L12.3827 147.363L12.3346 147.275L12.2865 147.188L12.2385 147.1L12.1914 147.014L12.1589 146.959L12.1112 146.871L12.0635 146.783L12.016 146.695L11.9685 146.607L11.9211 146.52L11.8738 146.432L11.8266 146.343L11.7794 146.255L11.7481 146.201L11.7012 146.113L11.6543 146.025L11.6075 145.937L11.5608 145.848L11.5141 145.76L11.4675 145.672L11.4211 145.583L11.3747 145.495L11.3432 145.438L11.2977 145.352L11.2516 145.263L11.2055 145.174L11.1595 145.086L11.1136 144.997L11.0678 144.908L11.0221 144.819L10.9765 144.73L10.9448 144.672L10.9008 144.587L10.8554 144.498L10.8101 144.409L10.7649 144.32L10.7198 144.23L10.6748 144.141L10.6298 144.052L10.5849 143.963L10.553 143.903L10.5105 143.818L10.4658 143.729L10.4213 143.64L10.3768 143.55L10.3325 143.461L10.2882 143.371L10.244 143.281L10.1999 143.192L10.1678 143.13L10.1267 143.047L10.0829 142.957L10.0391 142.867L9.99542 142.777L9.95187 142.687L9.90837 142.598L9.86492 142.508L9.82162 142.417L9.78934 142.354L9.74968 142.272L9.70664 142.182L9.66361 142.092L9.6207 142.001L9.57793 141.911L9.53516 141.821L9.49253 141.73L9.45002 141.64L9.41758 141.574L9.37932 141.494L9.33706 141.403L9.2948 141.313L9.25267 141.222L9.21067 141.131L9.16868 141.041L9.12684 140.95L9.08511 140.859L9.05257 140.791L9.01571 140.712L8.97419 140.622L8.93272 140.531L8.8914 140.44L8.85014 140.349L8.80895 140.258L8.76791 140.167L8.72693 140.075L8.69436 140.006L8.65887 139.928L8.61809 139.837L8.57743 139.745L8.53692 139.654L8.4964 139.563L8.45604 139.471L8.41579 139.38L8.37553 139.288L8.34297 139.217L8.30879 139.14L8.26881 139.049L8.22893 138.957L8.18921 138.866L8.14948 138.774L8.1099 138.682L8.07044 138.59L8.03098 138.498L7.99846 138.425L7.96554 138.35L7.92634 138.258L7.88731 138.166L7.84833 138.074L7.8094 137.982L7.77064 137.89L7.73195 137.798L7.69331 137.706L7.66081 137.63L7.62913 137.556L7.59076 137.464L7.55253 137.372L7.5143 137.279L7.47622 137.187L7.43826 137.095L7.4003 137.002L7.36253 136.91L7.33007 136.832L7.29964 136.76L7.26207 136.667L7.22464 136.575L7.18721 136.482L7.14993 136.389L7.11277 136.297L7.07561 136.204L7.03863 136.111L7.00628 136.031L6.97706 135.961L6.94034 135.868L6.90366 135.775L6.86707 135.682L6.83061 135.589L6.79421 135.496L6.75791 135.403L6.72172 135.309L6.68945 135.228L6.66147 135.159L6.62555 135.065L6.58963 134.972L6.55388 134.879L6.51824 134.785L6.48259 134.692L6.44715 134.599L6.41177 134.505L6.37962 134.422L6.35284 134.354L6.31773 134.26L6.28263 134.167L6.24769 134.073L6.21286 133.979L6.17802 133.886L6.14339 133.792L6.10883 133.698L6.07687 133.613L6.05127 133.546L6.01691 133.453L5.98266 133.359L5.94854 133.265L5.91448 133.171L5.88053 133.077L5.84668 132.983L5.8129 132.889L5.78122 132.801L5.75672 132.736L5.72315 132.642L5.68976 132.548L5.65646 132.454L5.62315 132.36L5.59007 132.265L5.55704 132.171L5.52401 132.077L5.49265 131.987L5.46923 131.924L5.43648 131.829L5.40391 131.735L5.37143 131.64L5.33898 131.546L5.30669 131.451L5.27449 131.357L5.24232 131.262L5.2112 131.17L5.18883 131.109L5.15697 131.014L5.12521 130.919L5.09349 130.824L5.06193 130.73L5.03044 130.635L4.99902 130.54L4.96775 130.445L4.9369 130.351L4.91556 130.291L4.88456 130.196L4.85363 130.101L4.82269 130.006L4.79201 129.911L4.76135 129.816L4.7307 129.721L4.70032 129.625L4.66993 129.53L4.64937 129.471L4.6193 129.376L4.58919 129.281L4.55914 129.185L4.52923 129.09L4.4994 128.995L4.46965 128.899L4.44003 128.804L4.41048 128.708L4.39004 128.647L4.36125 128.553L4.33192 128.458L4.30277 128.362L4.27367 128.267L4.24464 128.171L4.21579 128.075L4.18696 127.98L4.15822 127.884L4.13794 127.82L4.11041 127.729L4.08189 127.633L4.0536 127.537L4.02534 127.441L3.99711 127.345L3.96912 127.249L3.94115 127.153L3.91322 127.057L3.89307 126.992L3.86678 126.902L3.83917 126.806L3.81165 126.71L3.78423 126.614L3.75692 126.517L3.72969 126.421L3.70255 126.325L3.67554 126.229L3.65554 126.162L3.63039 126.073L3.60369 125.976L3.577 125.88L3.55037 125.784L3.52396 125.687L3.49756 125.591L3.47125 125.495L3.44512 125.398L3.42529 125.329L3.40136 125.242L3.37548 125.145L3.34963 125.049L3.32387 124.952L3.29828 124.855L3.27272 124.759L3.24726 124.662L3.22197 124.565L3.20236 124.494L3.17965 124.409L3.15455 124.312L3.12955 124.215L3.10471 124.118L3.0799 124.021L3.05519 123.925L3.03064 123.828L3.00613 123.731L2.98679 123.658L2.96526 123.574L2.941 123.477L2.91684 123.38L2.89286 123.283L2.86889 123.186L2.84505 123.088L2.82135 122.991L2.79767 122.894L2.77867 122.819L2.75821 122.737L2.7348 122.64L2.71152 122.542L2.68836 122.445L2.66523 122.348L2.64226 122.251L2.6194 122.153L2.59657 122.056L2.57793 121.979L2.5585 121.898L2.53597 121.801L2.51359 121.703L2.49121 121.606L2.46899 121.508L2.4469 121.411L2.42482 121.313L2.40291 121.216L2.38462 121.137L2.36624 121.058L2.34456 120.96L2.32303 120.862L2.30151 120.765L2.28016 120.667L2.25892 120.569L2.23768 120.472L2.21665 120.374L2.19872 120.293L2.18136 120.215L2.16059 120.118L2.13987 120.02L2.11924 119.922L2.09875 119.824L2.07833 119.726L2.05801 119.629L2.0378 119.531L2.02028 119.448L2.00397 119.372L1.98405 119.274L1.96414 119.176L1.94442 119.078L1.92479 118.98L1.90516 118.882L1.88577 118.784L1.86643 118.686L1.84929 118.601L1.834 118.527L1.81494 118.428L1.79589 118.33L1.77704 118.232L1.75827 118.134L1.73954 118.036L1.72098 117.938L1.7025 117.839L1.68588 117.753L1.67153 117.68L1.65327 117.582L1.63517 117.483L1.61715 117.385L1.59919 117.287L1.5814 117.188L1.56367 117.09L1.54601 116.991L1.52998 116.903L1.51654 116.832L1.49909 116.733L1.4819 116.635L1.46475 116.536L1.44762 116.438L1.43073 116.339L1.41387 116.241L1.39705 116.142L1.38158 116.052L1.369 115.982L1.3525 115.884L1.33611 115.785L1.31982 115.686L1.30363 115.588L1.28754 115.489L1.27154 115.39L1.25567 115.292L1.2407 115.199L1.22896 115.131L1.2134 115.033L1.19788 114.934L1.18238 114.835L1.16714 114.736L1.15191 114.637L1.13674 114.539L1.12179 114.44L1.1074 114.346L1.09652 114.279L1.08181 114.18L1.06715 114.082L1.05257 113.983L1.03816 113.884L1.02379 113.785L1.00953 113.686L0.995417 113.587L0.98165 113.491L0.971644 113.426L0.95775 113.327L0.943936 113.228L0.93031 113.129L0.916703 113.03L0.9032 112.931L0.889881 112.832L0.876565 112.733L0.863489 112.635L0.85429 112.572L0.841263 112.473L0.828305 112.374L0.815572 112.275L0.802835 112.175L0.790204 112.076L0.777761 111.977L0.765316 111.878L0.753014 111.779L0.74438 111.716L0.732309 111.618L0.7203 111.518L0.708362 111.419L0.696501 111.32L0.684811 111.22L0.673174 111.121L0.66162 111.022L0.650231 110.923L0.641991 110.858L0.630938 110.761L0.619841 110.662L0.608742 110.562L0.597781 110.463L0.58697 110.364L0.576164 110.264L0.565533 110.165L0.555016 110.065L0.547199 109.999L0.537178 109.904L0.526927 109.805L0.516701 109.705L0.506637 109.606L0.496688 109.506L0.486758 109.407L0.477009 109.307L0.467359 109.208L0.460029 109.139L0.45103 109.046L0.441573 108.947L0.432281 108.847L0.423114 108.747L0.413959 108.648L0.404986 108.548L0.396111 108.449L0.387258 108.349L0.380499 108.279L0.372436 108.187L0.363852 108.088L0.355444 107.988L0.347152 107.888L0.33886 107.789L0.330779 107.689L0.32278 107.59L0.314796 107.49L0.308611 107.418L0.301411 107.328L0.293747 107.228L0.286224 107.129L0.278758 107.029L0.271413 106.929L0.264182 106.829L0.257015 106.73L0.249994 106.63L0.244345 106.556L0.237989 106.468L0.231251 106.368L0.224604 106.268L0.217957 106.169L0.211547 106.069L0.205194 105.969L0.198839 105.869L0.192757 105.77L0.187687 105.694L0.18221 105.607L0.176332 105.508L0.170551 105.408L0.164838 105.308L0.159254 105.208L0.153773 105.108L0.14838 105.008L0.143092 104.909L0.138632 104.831L0.134059 104.746L0.12906 104.647L0.124072 104.547L0.11932 104.447L0.114613 104.347L0.109926 104.247L0.105494 104.147L0.10108 104.047L0.0972364 103.968L0.0934807 103.885L0.0893584 103.785L0.0852758 103.685L0.0813729 103.585L0.0775433 103.485L0.0737809 103.385L0.0701782 103.286L0.0666412 103.186L0.0635375 103.104L0.0605315 103.023L0.0572286 102.923L0.0541062 102.823L0.0510468 102.723L0.0480439 102.624L0.0452418 102.524L0.0424747 102.424L0.0397722 102.324L0.0374518 102.241L0.0351765 102.161L0.032723 102.061L0.0305038 101.961L0.0283223 101.861L0.0261886 101.761L0.0242697 101.661L0.0223808 101.562L0.0205672 101.462L0.0189679 101.377L0.0173812 101.299L0.0158791 101.199L0.0144899 101.099L0.0131679 100.999L0.0119757 100.899L0.0108855 100.799L0.00985329 100.699L0.00897815 100.599L0.00811554 100.512L0.00718763 100.437L0.00662989 100.337L0.00607182 100.237L0.0056186 100.137L0.00535064 100.037L0.00508253 99.9369L0.0049613 99.8369L0.00498307 99.7369L0.00486358 99.6483L0.00463867 99.5744L0.00495025 99.4744L0.0052619 99.3745L0.0056999 99.2745L0.00630134 99.1745L0.00690295 99.0745L0.00767338 98.9745L0.00856493 98.8745L0.0092556 98.7841L0.00972289 98.712L0.0108477 98.6121L0.0120337 98.5121L0.0134002 98.4121L0.0148305 98.3121L0.0163245 98.2121L0.0179296 98.1122L0.019749 98.0122L0.0213813 97.92L0.0223888 97.8498L0.0244288 97.7498L0.0265642 97.6498L0.0287713 97.5499L0.0311022 97.4499L0.0335333 97.3499L0.0360653 97.25L0.0386971 97.15L0.0411869 97.056L0.0428503 96.9876L0.0457461 96.8877L0.0486799 96.7877L0.0518608 96.6878L0.0550417 96.5878L0.0583162 96.4879L0.0617815 96.388L0.0652474 96.2881L0.0686748 96.1923L0.0708798 96.1257L0.0746309 96.0258L0.0785025 95.9258L0.0825186 95.8259L0.0865542 95.7261L0.0907514 95.6261L0.0950689 95.5262L0.0994107 95.4263L0.103801 95.3288L0.10648 95.264L0.111147 95.1641L0.115933 95.0643L0.120749 94.9644L0.125741 94.8645L0.130813 94.7646L0.135928 94.6648L0.141245 94.565L0.14657 94.4657L0.149698 94.4027L0.155295 94.3029L0.160938 94.203L0.166618 94.1032L0.172518 94.0034L0.178447 93.9036L0.184454 93.8037L0.190654 93.704L0.196867 93.6042L0.200707 93.5405L0.207017 93.442L0.213517 93.3422L0.220172 93.2424L0.226872 93.1427L0.233672 93.0429L0.240636 92.9432L0.247637 92.8434L0.254762 92.7437L0.259352 92.6783L0.266366 92.5816L0.273765 92.4819L0.281298 92.3822L0.288832 92.2825L0.296573 92.1828L0.304391 92.0831L0.31221 91.9834L0.320292 91.8838L0.325601 91.8166L0.333323 91.7218L0.341608 91.6222L0.349995 91.5225L0.358458 91.4229L0.367042 91.3233L0.375717 91.2237L0.384506 91.124L0.393391 91.0245L0.399449 90.9556L0.407935 90.8626L0.417073 90.7631L0.426273 90.6635L0.435697 90.5639L0.445123 90.4644L0.454663 90.3649L0.464372 90.2653L0.474081 90.1658L0.481002 90.0952L0.49011 90.0041L0.500105 89.9046L0.510229 89.8051L0.5205 89.7057L0.530778 89.6062L0.541237 89.5068L0.551799 89.4074L0.562391 89.3079L0.570196 89.2356L0.579848 89.1464L0.590765 89.047L0.601792 88.9476L0.612866 88.8482L0.624103 88.7489L0.635414 88.6495L0.646789 88.5502L0.658348 88.4509L0.666981 88.3768L0.677174 88.2894L0.689029 88.1902L0.700907 88.0909L0.712831 87.9916L0.724987 87.8924L0.737149 87.7931L0.749406 87.6939L0.761855 87.5947L0.771351 87.5189L0.782183 87.4335L0.794838 87.3343L0.807571 87.2351L0.820462 87.1359L0.833418 87.0368L0.846453 86.9376L0.859649 86.8385L0.872903 86.7394L0.88335 86.6619L0.894736 86.5784L0.908215 86.4793L0.921868 86.3803L0.935631 86.2812L0.949394 86.1822L0.963384 86.0832L0.977433 85.9842L0.991488 85.8852L1.00297 85.806L1.01482 85.7244L1.02918 85.6254L1.04371 85.5265L1.05833 85.4276L1.07301 85.3287L1.08784 85.2298L1.10274 85.1309L1.11774 85.0321L1.13016 84.9512L1.14243 84.8714L1.15775 84.7726L1.17311 84.6738L1.18855 84.575L1.20419 84.4763L1.21983 84.3775L1.23561 84.2788L1.25153 84.1801L1.2649 84.0976L1.27762 84.0197L1.29383 83.921L1.31003 83.8224L1.32638 83.7237L1.34287 83.6251L1.35936 83.5265L1.37604 83.4279L1.39282 83.3293L1.4072 83.2451L1.42039 83.1692L1.4374 83.0706L1.45451 82.9721L1.47174 82.8736L1.48905 82.7751L1.50647 82.6767L1.52399 82.5782L1.5416 82.4798L1.55713 82.394L1.57066 82.3199L1.58846 82.2215L1.60652 82.1232L1.6246 82.0249L1.64273 81.9265L1.66108 81.8283L1.67944 81.73L1.6979 81.6317L1.71455 81.5443L1.7284 81.4721L1.74713 81.3739L1.76601 81.2757L1.78494 81.1775L1.80399 81.0793L1.82317 80.9812L1.84237 80.8831L1.86174 80.785L1.87948 80.6959L1.89363 80.6256L1.91329 80.5276L1.93296 80.4295L1.95279 80.3315L1.97272 80.2336L1.9927 80.1356L2.01284 80.0377L2.03306 79.9397L2.05188 79.8491L2.06637 79.7807L2.08688 79.6828L2.10738 79.585L2.12811 79.4872L2.1489 79.3893L2.16971 79.2915L2.19075 79.1938L2.21182 79.096L2.23181 79.0038L2.24656 78.9373L2.2679 78.8396L2.28934 78.7419L2.31087 78.6443L2.33249 78.5467L2.35425 78.4491L2.37608 78.3515L2.39799 78.254L2.41926 78.1601L2.4342 78.0955L2.45635 77.998L2.47871 77.9006L2.50107 77.8031L2.52356 77.7057L2.54619 77.6083L2.56883 77.5109L2.59165 77.4136L2.61413 77.3182L2.62923 77.2555L2.65228 77.1582L2.67547 77.0609L2.69867 76.9636L2.72204 76.8664L2.74552 76.7692L2.76902 76.672L2.7927 76.5749L2.81641 76.478L2.8317 76.4171L2.85562 76.3201L2.8796 76.223L2.90372 76.126L2.92792 76.029L2.9522 75.932L2.97663 75.835L3.00112 75.738L3.02568 75.6411L3.04193 75.5791L3.06631 75.4838L3.09109 75.387L3.11613 75.2902L3.14117 75.1933L3.16628 75.0965L3.19159 74.9998L3.21691 74.9031L3.24234 74.8064L3.25958 74.7428L3.28433 74.6494L3.31005 74.5528L3.33586 74.4562L3.36173 74.3596L3.38775 74.2631L3.41386 74.1666L3.44001 74.0701L3.46633 73.9736L3.48458 73.9084L3.50971 73.817L3.53631 73.7206L3.5629 73.6242L3.58968 73.5279L3.61654 73.4316L3.64343 73.3353L3.67052 73.2391L3.69766 73.1428L3.71693 73.076L3.74243 72.9866L3.76985 72.8905L3.79727 72.7943L3.82492 72.6982L3.85262 72.6021L3.88035 72.5061L3.90829 72.4101L3.93626 72.3141L3.95664 72.2457L3.98243 72.1583L4.01066 72.0624L4.03901 71.9665L4.06742 71.8706L4.09594 71.7748L4.12459 71.679L4.15331 71.5832L4.1821 71.4875L4.20366 71.4176L4.2297 71.3321L4.25872 71.2365L4.28796 71.1408L4.31721 71.0452L4.34655 70.9496L4.37606 70.8541L4.40558 70.7586L4.43524 70.6631L4.45791 70.5917L4.48418 70.5082L4.51409 70.4128L4.54413 70.3174L4.57419 70.222L4.60439 70.1267L4.63473 70.0314L4.66507 69.9362L4.69559 69.841L4.71941 69.768L4.7459 69.6865L4.77667 69.5913L4.80749 69.4962L4.83843 69.4011L4.86948 69.3061L4.90057 69.2111L4.93182 69.1161L4.96313 69.0212L4.9881 68.9467L5.01483 68.8671L5.04641 68.7723L5.078 68.6774L5.10984 68.5827L5.1417 68.4879L5.17359 68.3931L5.20572 68.2984L5.23785 68.2037L5.26404 68.1278L5.2909 68.0502L5.3233 67.9556L5.35578 67.861L5.38839 67.7665L5.42107 67.672L5.45385 67.5776L5.48674 67.4831L5.51968 67.3888L5.54717 67.3113L5.57412 67.2357L5.6073 67.1413L5.64067 67.0471L5.67406 66.9529L5.70755 66.8587L5.7412 66.7645L5.77485 66.6704L5.80866 66.5763L5.83741 66.4974L5.86443 66.4237L5.89845 66.3297L5.93264 66.2357L5.96683 66.1418L6.00117 66.0478L6.03562 65.954L6.07007 65.8602L6.10472 65.7664L6.13475 65.6861L6.16181 65.6142L6.19669 65.5206L6.23166 65.4269L6.26668 65.3332L6.30183 65.2397L6.33708 65.1461L6.3724 65.0525L6.40782 64.9591L6.43915 64.8773L6.46629 64.8075L6.50199 64.7141L6.53771 64.6207L6.57361 64.5274L6.60957 64.4341L6.64556 64.3408L6.68176 64.2476L6.71799 64.1544L6.75061 64.0712L6.77779 64.0034L6.81429 63.9103L6.8508 63.8172L6.88753 63.7242L6.92429 63.6312L6.9611 63.5383L6.99811 63.4454L7.03512 63.3526L7.06913 63.268L7.09625 63.202L7.13353 63.1093L7.17093 63.0165L7.2084 62.9238L7.24595 62.8312L7.28363 62.7386L7.32139 62.646L7.35921 62.5534L7.39465 62.4675L7.42169 62.4035L7.45974 62.311L7.49799 62.2187L7.53623 62.1263L7.57459 62.034L7.6131 61.9417L7.6516 61.8495L7.69026 61.7573L7.72713 61.6699L7.75405 61.6078L7.79291 61.5157L7.83195 61.4237L7.87099 61.3316L7.91015 61.2396L7.94945 61.1477L7.98875 61.0558L8.02823 60.9639L8.06649 60.8753L8.09328 60.8151L8.13301 60.7233L8.17277 60.6316L8.21263 60.5399L8.25261 60.4483L8.29266 60.3567L8.3328 60.2651L8.37305 60.1736L8.41276 60.0836L8.43944 60.0253L8.47995 59.9339L8.52045 59.8425L8.56115 59.7512L8.60192 59.6599L8.6427 59.5686L8.6837 59.4774L8.72473 59.3863L8.76578 59.2951L8.79248 59.2384L8.83369 59.1475L8.875 59.0565L8.91649 58.9655L8.95804 58.8746L8.99961 58.7837L9.04138 58.6929L9.0832 58.602L9.12506 58.5113L9.15296 58.4531L9.19421 58.3643L9.23637 58.2736L9.27859 58.183L9.32091 58.0924L9.36335 58.0019L9.40584 57.9114L9.44842 57.8209L9.49113 57.7306L9.52025 57.671L9.56147 57.5841L9.60448 57.4939L9.64748 57.4036L9.69053 57.3134L9.73379 57.2233L9.77705 57.1331L9.8204 57.043L9.8639 56.9531L9.89428 56.8921L9.93557 56.8072L9.9793 56.7173L10.0231 56.6274L10.0669 56.5376L10.1109 56.4478L10.155 56.3581L10.1991 56.2684L10.2434 56.1787L10.275 56.1165L10.3163 56.0336L10.3608 55.944L10.4053 55.8545L10.45 55.7651L10.4948 55.6757L10.5396 55.5863L10.5845 55.497L10.6295 55.4078L10.6625 55.3441L10.7038 55.2633L10.749 55.1741L10.7943 55.085L10.8397 54.996L10.8852 54.9069L10.9308 54.818L10.9765 54.7291L11.0222 54.6402L11.0566 54.5752L11.0978 54.4963L11.1438 54.4076L11.1898 54.3189L11.2361 54.2302L11.2823 54.1416L11.3287 54.053L11.3751 53.9645L11.4216 53.876L11.4574 53.8097L11.4984 53.7328L11.5451 53.6444L11.592 53.5562L11.6389 53.4679L11.686 53.3797L11.7331 53.2915L11.7803 53.2034L11.8276 53.1153L11.8647 53.0478L11.9055 52.9728L11.9531 52.8849L12.0007 52.797L12.0483 52.7091L12.0962 52.6213L12.144 52.5336L12.1919 52.4458L12.24 52.3582L12.2785 52.2893L12.3192 52.2163L12.3675 52.1288L12.4159 52.0413L12.4643 51.9539L12.5129 51.8665L12.5615 51.7791L12.6101 51.6918L12.659 51.6046L12.6989 51.5345L12.7394 51.4635L12.7884 51.3763L12.8375 51.2892L12.8867 51.2022L12.936 51.1153L12.9854 51.0283L13.0348 50.9415L13.0843 50.8546L13.1257 50.7833L13.166 50.7142L13.2158 50.6275L13.2656 50.5408L13.3156 50.4543L13.3656 50.3677L13.4157 50.2812L13.4659 50.1948L13.5162 50.1084L13.559 50.0358L13.5991 49.9686L13.6496 49.8824L13.7001 49.7961L13.7508 49.71L13.8016 49.6239L13.8524 49.5378L13.9034 49.4518L13.9544 49.3658L13.9987 49.292L14.0385 49.2268L14.0897 49.141L14.141 49.0552L14.1925 48.9694L14.2439 48.8838L14.2955 48.7981L14.3472 48.7126L14.3989 48.627L14.4448 48.5521L14.4842 48.4888L14.5361 48.4034L14.5883 48.3181L14.6404 48.2328L14.6926 48.1475L14.7449 48.0624L14.7973 47.9772L14.8497 47.8921L14.8972 47.816L14.9363 47.7546L14.9889 47.6697L15.0417 47.5848L15.0946 47.4999L15.1475 47.4152L15.2006 47.3305L15.2537 47.2457L15.3068 47.1611L15.3559 47.0839L15.3945 47.0244L15.4479 46.9399L15.5014 46.8554L15.555 46.771L15.6087 46.6867L15.6624 46.6025L15.7162 46.5182L15.7702 46.434L15.8208 46.3557L15.859 46.298L15.9132 46.214L15.9674 46.13L16.0217 46.0461L16.0761 45.9623L16.1305 45.8784L16.1851 45.7947L16.2397 45.711L16.2919 45.6315L16.3297 45.5757L16.3846 45.4922L16.4395 45.4087L16.4945 45.3252L16.5496 45.2418L16.6047 45.1585L16.66 45.0752L16.7154 44.992L16.7691 44.9114L16.8065 44.8575L16.8621 44.7744L16.9177 44.6913L16.9734 44.6084L17.0293 44.5255L17.0851 44.4425L17.1411 44.3598L17.1972 44.277L17.2526 44.1953L17.2895 44.1433L17.3457 44.0607L17.4021 43.9781L17.4585 43.8956L17.515 43.8132L17.5716 43.7308L17.6283 43.6484L17.685 43.5661L17.7418 43.4839L17.7788 43.4329L17.8354 43.3512L17.8924 43.2691L17.9496 43.1871L18.0068 43.1051L18.0641 43.0232L18.1214 42.9414L18.1788 42.8595L18.2364 42.7778L18.2748 42.7256L18.3311 42.6458L18.3889 42.5643L18.4467 42.4827L18.5045 42.4012L18.5625 42.3198L18.6206 42.2385L18.6787 42.1571L18.7369 42.0759L18.7768 42.0225L18.8328 41.9448L18.8913 41.8637L18.9497 41.7826L19.0083 41.7016L19.067 41.6207L19.1257 41.5399L19.1845 41.459L19.2434 41.3783L19.2847 41.3237L19.3404 41.248L19.3996 41.1674L19.4587 41.0869L19.518 41.0064L19.5774 40.926L19.6367 40.8456L19.6963 40.7653L19.7559 40.685L19.7986 40.6293L19.854 40.5556L19.9138 40.4755L19.9736 40.3954L20.0336 40.3154L20.0936 40.2355L20.1537 40.1557L20.2139 40.0759L20.2742 39.9961L20.3184 39.9393L20.3734 39.8675L20.4338 39.7879L20.4944 39.7084L20.555 39.629L20.6157 39.5495L20.6764 39.4702L20.7373 39.3909L20.7982 39.3117L20.8441 39.2538L20.8986 39.184L20.9597 39.1048L21.0209 39.0258L21.0822 38.9469L21.1435 38.868L21.205 38.7892L21.2665 38.7104L21.3281 38.6317L21.3755 38.5728L21.4296 38.5048L21.4913 38.4262L21.5532 38.3477L21.6152 38.2693L21.6772 38.191L21.7393 38.1127L21.8015 38.0344L21.8637 37.9562L21.9127 37.8963L21.9663 37.8302L22.0287 37.7522L22.0913 37.6742L22.1539 37.5963L22.2166 37.5185L22.2793 37.4407L22.3422 37.363L22.4051 37.2853L22.4557 37.2244L22.5086 37.1602L22.5718 37.0827L22.635 37.0053L22.6982 36.9279L22.7616 36.8506L22.825 36.7734L22.8885 36.6962L22.9521 36.6191L23.0043 36.5571L23.0567 36.4949L23.1205 36.4179L23.1844 36.341L23.2482 36.2642L23.3122 36.1874L23.3763 36.1108L23.4404 36.0341L23.5047 35.9575L23.5585 35.8946L23.6104 35.8342L23.6748 35.7578L23.7393 35.6814L23.8038 35.6051L23.8685 35.5289L23.9332 35.4527L23.998 35.3766L24.0629 35.3006L24.1183 35.2367L24.1696 35.1782L24.2347 35.1024L24.2998 35.0265L24.365 34.9508L24.4303 34.8752L24.4956 34.7995L24.5611 34.724L24.6266 34.6485L24.6837 34.5836L24.7343 34.527L24.8001 34.4517L24.8658 34.3764L24.9317 34.3012L24.9976 34.2261L25.0636 34.1511L25.1297 34.0761L25.1958 34.0012L25.2546 33.9354L25.3046 33.8806L25.371 33.8058L25.4373 33.7311L25.5038 33.6565L25.5704 33.582L25.637 33.5074L25.7037 33.433L25.7705 33.3587L25.831 33.292L25.8803 33.239L25.9473 33.1648L26.0143 33.0907L26.0814 33.0167L26.1486 32.9426L26.2158 32.8687L26.2832 32.7949L26.3505 32.721L26.4128 32.6535L26.4614 32.6024L26.529 32.5287L26.5966 32.4552L26.6644 32.3817L26.7321 32.3083L26.8 32.2349L26.868 32.1617L26.9359 32.0884L26.9999 32.0201L27.0478 31.9707L27.116 31.8976L27.1843 31.8246L27.2526 31.7517L27.321 31.6788L27.3895 31.6061L27.4581 31.5334L27.5267 31.4607L27.5924 31.3915L27.6396 31.3439L27.7084 31.2714L27.7773 31.1991L27.8462 31.1267L27.9152 31.0544L27.9843 30.9823L28.0535 30.9101L28.1227 30.838L28.1902 30.7681L28.2366 30.7223L28.306 30.6503L28.3755 30.5785L28.445 30.5068L28.5146 30.4351L28.5844 30.3635L28.6541 30.2919L28.7239 30.2204L28.7933 30.1497L28.8388 30.1056L28.9088 30.0343L28.9789 29.9631L29.0491 29.8919L29.1193 29.8208L29.1896 29.7498L29.26 29.6788L29.3304 29.6079L29.4009 29.5371L29.4468 29.4934L29.5168 29.4234L29.5875 29.3528L29.6583 29.2822L29.7291 29.2117L29.8 29.1413L29.8709 29.0709L29.942 29.0006L30.0131 28.9304L30.0606 28.8857L30.13 28.8177L30.2013 28.7476L30.2726 28.6776L30.344 28.6077L30.4155 28.5379L30.487 28.4681L30.5587 28.3985L30.6303 28.3288L30.6795 28.2833L30.7482 28.2171L30.8201 28.1477L30.8919 28.0783L30.964 28.009L31.0361 27.9398L31.1082 27.8706L31.1804 27.8016L31.2527 27.7325L31.3034 27.6861L31.3715 27.6218L31.4439 27.553L31.5164 27.4842L31.589 27.4155L31.6616 27.3469L31.7344 27.2784L31.8071 27.2099L31.88 27.1415L31.9324 27.0943L31.9997 27.0318L32.0727 26.9636L32.1458 26.8955L32.219 26.8274L32.2922 26.7594L32.3655 26.6915L32.4388 26.6236L32.5122 26.5558L32.5664 26.5078L32.6329 26.4472L32.7065 26.3795L32.7802 26.312L32.8539 26.2446L32.9277 26.1771L33.0016 26.1099L33.0755 26.0427L33.1494 25.9754L33.2053 25.9266L33.2711 25.8678L33.3452 25.8008L33.4194 25.734L33.4937 25.6672L33.5681 25.6004L33.6425 25.5337L33.717 25.4671L33.7915 25.4005L33.849 25.3509L33.914 25.2939L33.9887 25.2276L34.0635 25.1614L34.1384 25.0951L34.2133 25.029L34.2882 24.963L34.3633 24.897L34.4384 24.8311L34.4976 24.7807L34.5618 24.7255L34.6371 24.6599L34.7124 24.5942L34.7877 24.5286L34.8633 24.4632L34.9388 24.3978L35.0143 24.3324L35.09 24.2671L35.151 24.216L35.2143 24.1626L35.2901 24.0976L35.3661 24.0326L35.442 23.9676L35.518 23.9028L35.5941 23.838L35.6702 23.7733L35.7464 23.7087L35.8091 23.6568L35.8716 23.6052L35.948 23.5408L36.0244 23.4765L36.1009 23.4122L36.1775 23.348L36.2541 23.2838L36.3307 23.2198L36.4075 23.1558L36.472 23.1032L36.5335 23.0534L36.6105 22.9897L36.6874 22.9259L36.7645 22.8623L36.8416 22.7988L36.9187 22.7352L36.9959 22.6719L37.0732 22.6085L37.1394 22.5553L37.2001 22.5072L37.2776 22.4441L37.355 22.381L37.4326 22.3181L37.5103 22.2552L37.5879 22.1923L37.6656 22.1296L37.7435 22.067L37.8115 22.0131L37.8712 21.9667L37.9492 21.9043L38.0272 21.8419L38.1053 21.7796L38.1834 21.7173L38.2616 21.6551L38.3399 21.5931L38.4182 21.5311L38.4881 21.4766L38.5469 21.432L38.6254 21.3701L38.7039 21.3084L38.7826 21.2467L38.8612 21.1851L38.9399 21.1236L39.0188 21.0622L39.0976 21.0008L39.1693 20.9458L39.2271 20.9028L39.3061 20.8417L39.3852 20.7806L39.4643 20.7196L39.5435 20.6587L39.6227 20.5978L39.7021 20.5371L39.7814 20.4764L39.8549 20.4208L39.9117 20.3795L39.9912 20.319L40.0708 20.2586L40.1505 20.1983L40.2302 20.138L40.3099 20.0778L40.3897 20.0178L40.4696 19.9577L40.545 19.9016L40.6007 19.862L40.6808 19.8021L40.7609 19.7424L40.841 19.6828L40.9212 19.6232L41.0014 19.5637L41.0817 19.5043L41.1621 19.4449L41.2394 19.3883L41.2941 19.3503L41.3746 19.2911L41.4552 19.2321L41.5359 19.1731L41.6165 19.1142L41.6973 19.0555L41.7781 18.9967L41.859 18.938L41.9381 18.881L41.9918 18.8445L42.0728 18.786L42.1538 18.7277L42.235 18.6694L42.3162 18.6112L42.3974 18.5531L42.4787 18.495L42.56 18.437L42.6411 18.3795L42.6936 18.3447L42.7751 18.2869L42.8567 18.2292L42.9383 18.1716L43.02 18.1141L43.1017 18.0567L43.1835 17.9993L43.2653 17.942L43.3473 17.8848L43.4006 17.85L43.4817 17.7937L43.5637 17.7368L43.6458 17.6798L43.728 17.623L43.8102 17.5663L43.8924 17.5096L43.9748 17.453L44.0571 17.3965L44.1122 17.3611L44.1923 17.3066L44.2749 17.2503L44.3574 17.194L44.4401 17.138L44.5227 17.0819L44.6054 17.0259L44.6883 16.97L44.7711 16.9142L44.828 16.8782L44.9071 16.8254L44.9901 16.7699L45.0731 16.7143L45.1562 16.6589L45.2394 16.6036L45.3226 16.5483L45.4059 16.4931L45.4892 16.438L45.5479 16.4014L45.6259 16.3504L45.7093 16.2955L45.7929 16.2407L45.8764 16.186L45.96 16.1313L46.0437 16.0768L46.1274 16.0223L46.2113 15.9678L46.2717 15.9307L46.3487 15.8815L46.4326 15.8272L46.5166 15.7732L46.6006 15.7192L46.6847 15.6652L46.7688 15.6114L46.853 15.5576L46.9372 15.5038L46.9995 15.4662L47.0755 15.4187L47.1598 15.3652L47.2442 15.3118L47.3288 15.2585L47.4133 15.2052L47.4978 15.1521L47.5825 15.0991L47.6672 15.0461L47.7311 15.0079L47.8061 14.962L47.8909 14.9093L47.9758 14.8566L48.0607 14.804L48.1457 14.7515L48.2307 14.6991L48.3158 14.6468L48.4009 14.5945L48.4667 14.5559L48.5405 14.5116L48.6258 14.4596L48.7111 14.4077L48.7964 14.3558L48.8819 14.3041L48.9674 14.2524L49.0528 14.2007L49.1384 14.1492L49.2061 14.1101L49.2787 14.0675L49.3644 14.0162L49.4502 13.965L49.536 13.9139L49.6218 13.8628L49.7078 13.8119L49.7937 13.7609L49.8797 13.7101L49.9491 13.6706L50.0207 13.6297L50.1069 13.5791L50.193 13.5286L50.2792 13.4782L50.3655 13.4279L50.4519 13.3776L50.5382 13.3275L50.6247 13.2774L50.6959 13.2375L50.7664 13.1981L50.8529 13.1484L50.9395 13.0986L51.0262 13.0489L51.1129 12.9993L51.1996 12.9498L51.2864 12.9004L51.3733 12.8511L51.4464 12.8107L51.5156 12.773L51.6026 12.7239L51.6896 12.6749L51.7767 12.6259L51.8638 12.5771L51.951 12.5283L52.0382 12.4796L52.1255 12.431L52.2005 12.3903L52.2685 12.3542L52.3559 12.3059L52.4433 12.2575L52.5308 12.2094L52.6183 12.1613L52.7059 12.1132L52.7935 12.0653L52.8812 12.0174L52.9581 11.9764L53.0249 11.9419L53.1126 11.8942L53.2005 11.8466L53.2884 11.7993L53.3763 11.7518L53.4642 11.7045L53.5523 11.6574L53.6403 11.6103L53.7191 11.569L53.7846 11.536L53.8729 11.4891L53.961 11.4422L54.0493 11.3956L54.1377 11.349L54.226 11.3024L54.3145 11.256L54.4029 11.2096L54.4836 11.1681L54.5479 11.1365L54.6365 11.0904L54.7251 11.0444L54.8138 10.9984L54.9025 10.9525L54.9912 10.9067L55.0801 10.8611L55.1689 10.8154L55.2515 10.7737L55.3145 10.7436L55.4034 10.6982L55.4925 10.653L55.5816 10.6077L55.6706 10.5626L55.7598 10.5176L55.849 10.4726L55.9382 10.4278L56.0227 10.3858L56.0844 10.3572L56.1737 10.3126L56.2632 10.2681L56.3526 10.2236L56.442 10.1792L56.5316 10.135L56.6211 10.0909L56.7107 10.0467L56.7972 10.0046L56.8575 9.97746L56.9472 9.93357L57.037 9.88982L57.1268 9.84617L57.2166 9.80253L57.3065 9.75907L57.3964 9.71565L57.4864 9.67229L57.5748 9.63004L57.6338 9.60427L57.7239 9.56117L57.814 9.51818L57.9042 9.47525L57.9944 9.43242L58.0847 9.38969L58.1749 9.34704L58.2653 9.30448L58.3556 9.26205L58.4133 9.23765L58.5037 9.19537L58.5942 9.15316L58.6847 9.11093L58.7753 9.06893L58.8659 9.02698L58.9566 8.98502L59.0473 8.9433L59.138 8.9016L59.1973 8.87695L59.2866 8.83624L59.3774 8.7948L59.4683 8.75335L59.5593 8.71212L59.6503 8.67093L59.7412 8.62977L59.8322 8.58882L59.9234 8.54789L59.9844 8.52293L60.0725 8.48381L60.1637 8.44311L60.2549 8.40249L60.3462 8.36201L60.4375 8.32157L60.5289 8.28123L60.6203 8.241L60.7117 8.20085L60.7746 8.17562L60.8614 8.1381L60.9529 8.09814L61.0445 8.05834L61.1361 8.01863L61.2277 7.97894L61.3194 7.93942L61.4111 7.89998L61.5029 7.86056L61.5676 7.8351L61.6531 7.79913L61.745 7.75996L61.8368 7.72093L61.9288 7.68201L62.0208 7.64308L62.1128 7.60435L62.2049 7.56569L62.297 7.52704L62.3636 7.50134L62.4478 7.4669L62.5399 7.42851L62.6322 7.39027L62.7244 7.35212L62.8167 7.31401L62.9091 7.27604L63.0015 7.23817L63.0939 7.20032L63.1623 7.17441L63.2452 7.14144L63.3377 7.10386L63.4303 7.06643L63.5228 7.02902L63.6155 6.99172L63.7081 6.95457L63.8008 6.91744L63.8935 6.88042L63.9638 6.85434L64.0453 6.82287L64.1381 6.78605L64.231 6.74943L64.3239 6.7128L64.4168 6.67628L64.5098 6.63993L64.6028 6.60357L64.6959 6.56734L64.768 6.5411L64.8481 6.51108L64.9413 6.47508L65.0344 6.43923L65.1277 6.4034L65.2209 6.36768L65.3142 6.33211L65.4075 6.29654L65.5009 6.26111L65.5748 6.23473L65.6536 6.20615L65.747 6.17099L65.8405 6.13588L65.934 6.10085L66.0276 6.06599L66.1211 6.03115L66.2148 5.99638L66.3084 5.96179L66.3842 5.93529L66.4616 5.90809L66.5553 5.87378L66.6491 5.83947L66.7429 5.80522L66.8367 5.77117L66.9306 5.73713L67.0245 5.70317L67.1184 5.66939L67.1961 5.64278L67.2721 5.61701L67.3661 5.58347L67.4602 5.54996L67.5542 5.51651L67.6484 5.48325L67.7425 5.45003L67.8367 5.41686L67.9309 5.38388L68.0105 5.35724L68.085 5.33288L68.1793 5.30007L68.2736 5.26738L68.368 5.23478L68.4624 5.20226L68.5568 5.16985L68.6513 5.13754L68.7458 5.10531L68.8273 5.07864L68.9003 5.05565L68.9949 5.02367L69.0895 4.99173L69.1842 4.95998L69.2788 4.92827L69.3735 4.89662L69.4683 4.86514L69.563 4.83371L69.6464 4.80704L69.718 4.78539L69.8128 4.75423L69.9076 4.72308L70.0026 4.69215L70.0975 4.66125L70.1925 4.63037L70.2875 4.59974L70.3825 4.56913L70.4677 4.54247L70.5378 4.52211L70.6329 4.49177L70.728 4.46146L70.8232 4.4313L70.9184 4.40123L71.0136 4.37119L71.1089 4.34132L71.2041 4.31152L71.2913 4.28498L71.3599 4.26589L71.4552 4.2363L71.5506 4.20684L71.646 4.17749L71.7415 4.14818L71.8369 4.11901L71.9324 4.08994L72.028 4.06092L72.117 4.03453L72.184 4.01667L72.2796 3.98787L72.3753 3.95924L72.4709 3.93072L72.5666 3.90218L72.6624 3.87386L72.7581 3.8456L72.8539 3.81734L72.9449 3.79112L73.0104 3.77446L73.1062 3.74648L73.2021 3.71865L73.298 3.69094L73.3939 3.66324L73.4899 3.63571L73.5859 3.60827L73.6819 3.58085L73.7747 3.55477L73.8387 3.53928L73.9348 3.51213L74.0309 3.48516L74.127 3.45822L74.2232 3.43136L74.3194 3.40465L74.4156 3.37801L74.5118 3.35144L74.6066 3.32553L74.669 3.3112L74.7653 3.28488L74.8617 3.25873L74.958 3.23259L75.0543 3.20657L75.1508 3.1807L75.2472 3.15483L75.3436 3.12911L75.4401 3.10351L75.5014 3.09013L75.5977 3.0647L75.6943 3.03938L75.7908 3.01406L75.8874 2.98884L75.984 2.9638L76.0807 2.93877L76.1774 2.91384L76.274 2.88908L76.3372 2.87566L76.432 2.85165L76.5287 2.82711L76.6254 2.80263L76.7223 2.77825L76.8191 2.754L76.9159 2.7298L77.0128 2.70572L77.1097 2.68175L77.1747 2.6683L77.2679 2.64571L77.3649 2.62197L77.4619 2.59829L77.5589 2.57479L77.6559 2.55132L77.7529 2.52794L77.85 2.50472L77.9471 2.48153L78.0139 2.46808L78.1056 2.44689L78.2028 2.42397L78.3 2.40106L78.3972 2.37842L78.4944 2.35579L78.5916 2.33319L78.6889 2.31083L78.7862 2.28847L78.8548 2.27508L78.945 2.25517L79.0423 2.23308L79.1397 2.21104L79.237 2.18919L79.3345 2.16739L79.4319 2.14563L79.5293 2.12408L79.6268 2.10256L79.6972 2.08926L79.7859 2.0706L79.8834 2.04934L79.9809 2.02816L80.0785 2.00709L80.1761 1.98612L80.2737 1.96523L80.3714 1.94444L80.469 1.92376L80.5413 1.91059L80.6284 1.8932L80.7261 1.8727L80.8238 1.8524L80.9215 1.83217L81.0193 1.81197L81.117 1.79196L81.2149 1.77201L81.3126 1.75211L81.3868 1.73909L81.4723 1.72295L81.5701 1.70329L81.668 1.68378L81.766 1.66441L81.8638 1.64503L81.9618 1.62583L82.0598 1.60673L82.1577 1.58764L82.2337 1.5748L82.3176 1.55984L82.4156 1.54103L82.5136 1.52236L82.6117 1.5038L82.7098 1.48526L82.8078 1.46688L82.906 1.44862L83.0041 1.43036L83.082 1.41771L83.1642 1.4039L83.2624 1.38592L83.3606 1.36812L83.4587 1.35035L83.557 1.33266L83.6552 1.31515L83.7534 1.29766L83.8518 1.28026L83.9315 1.26783L84.0121 1.25518L84.1104 1.238L84.2088 1.22105L84.3071 1.2041L84.4055 1.18722L84.5039 1.17056L84.6023 1.15389L84.7007 1.13731L84.7823 1.12512L84.8613 1.11359L84.8879 1.11249L84.8647 1.12211L84.8414 1.13178L84.8182 1.14159L84.7951 1.15151L84.7719 1.16148L84.7488 1.1716L84.7105 1.18547L84.6661 1.20088L84.6431 1.21128L84.62 1.22171L84.5971 1.23233L84.5742 1.24301L84.5512 1.25373L84.5284 1.26468L84.5055 1.27565L84.4692 1.28981L84.4233 1.30636L84.4006 1.31761L84.3778 1.32894L84.3551 1.34041L84.3323 1.35196L84.3097 1.3636L84.2871 1.37536L84.2644 1.38718L84.2302 1.40178L84.1827 1.41936L84.1602 1.43144L84.1377 1.4437L84.1153 1.45596L84.0928 1.46838L84.0704 1.48093L84.048 1.49347L84.0256 1.50622L83.9934 1.52119L83.9444 1.53977L83.9221 1.55273L83.8999 1.56583L83.8776 1.57894L83.8555 1.59221L83.8333 1.60559L83.8112 1.61902L83.7891 1.63258L83.7588 1.64794L83.7083 1.66756L83.6863 1.68139L83.6643 1.69525L83.6423 1.70929L83.6205 1.7234L83.5985 1.73756L83.5767 1.7519L83.5549 1.76628L83.5265 1.78202L83.4745 1.80265L83.4528 1.8173L83.431 1.83201L83.4093 1.8469L83.3877 1.86183L83.366 1.87683L83.3445 1.89201L83.3229 1.90722L83.2966 1.92343L83.243 1.94495L83.2215 1.96041L83.2001 1.97603L83.1786 1.99168L83.1572 2.00745L83.1359 2.02336L83.1146 2.03928L83.0932 2.05535L83.069 2.07208L83.0139 2.09447L82.9926 2.11075L82.9714 2.12722L82.9503 2.14369L82.9291 2.16029L82.908 2.17704L82.887 2.19378L82.8659 2.21069L82.8438 2.22791L82.787 2.25116L82.766 2.26833L82.7451 2.28556L82.7242 2.30287L82.7034 2.32033L82.6825 2.33785L82.6617 2.35547L82.641 2.37321L82.6203 2.39101L82.5631 2.41492L82.5419 2.43303L82.5212 2.45103L82.5006 2.46923L82.48 2.48751L82.4594 2.5058L82.4389 2.52431L82.4184 2.54286L82.3979 2.56143L82.3428 2.58564L82.3201 2.60483L82.2996 2.62369L82.2789 2.6428Z" fill="white"/>
</svg>
