<svg width="200" height="200" viewBox="0 0 200 200" fill="none" xmlns="http://www.w3.org/2000/svg">
<path d="M125.611 4.48676L125.682 4.53738L125.752 4.58804L125.822 4.62017L125.893 4.66471L125.963 4.71561L126.034 4.76665L126.104 4.81768L126.174 4.86267L126.244 4.89505L126.315 4.94628L126.385 4.99763L126.455 5.04908L126.525 5.10052L126.595 5.13356L126.665 5.17875L126.735 5.2304L126.805 5.2822L126.875 5.33405L126.946 5.37995L127.015 5.41295L127.085 5.46499L127.155 5.51706L127.225 5.56931L127.295 5.62156L127.365 5.65548L127.435 5.70131L127.504 5.75377L127.574 5.80628L127.644 5.85895L127.714 5.9058L127.783 5.93934L127.853 5.99222L127.922 6.04507L127.992 6.09804L128.062 6.1511L128.131 6.18594L128.201 6.23235L128.27 6.28562L128.34 6.33888L128.409 6.3923L128.478 6.44013L128.548 6.47424L128.617 6.52788L128.686 6.58155L128.756 6.63522L128.825 6.68908L128.894 6.7249L128.963 6.77185L129.032 6.82592L129.101 6.87999L129.171 6.93411L129.24 6.9829L129.309 7.01764L129.378 7.07198L129.447 7.12645L129.516 7.18091L129.584 7.23548L129.653 7.27226L129.722 7.31981L129.791 7.3746L129.86 7.42948L129.929 7.48434L129.997 7.53404L130.066 7.56943L130.135 7.62449L130.203 7.67972L130.272 7.73499L130.34 7.79025L130.409 7.82798L130.478 7.87617L130.546 7.93165L130.614 7.98731L130.683 8.04297L130.751 8.09353L130.82 8.12954L130.888 8.1854L130.956 8.24133L131.025 8.29738L131.093 8.35344L131.161 8.39203L131.229 8.44085L131.297 8.4971L131.366 8.55347L131.434 8.60993L131.502 8.66139L131.57 8.69797L131.638 8.75462L131.706 8.81127L131.774 8.86807L131.841 8.92492L131.909 8.96436L131.977 9.01379L132.045 9.07084L132.113 9.1279L132.18 9.18513L132.248 9.23755L132.316 9.27465L132.383 9.33208L132.451 9.3895L132.519 9.447L132.586 9.50463L132.654 9.54501L132.721 9.59498L132.789 9.65279L132.856 9.71061L132.923 9.76854L132.991 9.8219L133.058 9.85958L133.125 9.91774L133.193 9.97595L133.26 10.0342L133.327 10.0925L133.394 10.1339L133.461 10.1843L133.528 10.2429L133.595 10.3015L133.662 10.3601L133.729 10.4144L133.796 10.4527L133.863 10.5115L133.93 10.5705L133.997 10.6295L134.064 10.6885L134.13 10.7308L134.197 10.7819L134.264 10.8412L134.33 10.9005L134.397 10.9599L134.464 11.015L134.53 11.0539L134.597 11.1135L134.663 11.1732L134.73 11.2329L134.796 11.2927L134.862 11.3358L134.929 11.3875L134.995 11.4475L135.061 11.5076L135.128 11.5677L135.194 11.6237L135.26 11.6632L135.326 11.7236L135.392 11.7839L135.458 11.8444L135.524 11.905L135.59 11.9489L135.656 12.0012L135.722 12.0619L135.788 12.1227L135.854 12.1836L135.92 12.2405L135.986 12.2805L136.051 12.3416L136.117 12.4027L136.183 12.4639L136.248 12.5252L136.314 12.57L136.38 12.6229L136.445 12.6844L136.511 12.7458L136.576 12.8075L136.642 12.8653L136.707 12.9058L136.772 12.9676L136.838 13.0295L136.903 13.0913L136.968 13.1534L137.033 13.1992L137.098 13.2525L137.164 13.3147L137.229 13.3769L137.294 13.4392L137.359 13.4979L137.424 13.5391L137.489 13.6015L137.553 13.6641L137.618 13.7267L137.683 13.7894L137.748 13.8361L137.813 13.89L137.877 13.9529L137.942 14.0159L138.007 14.0789L138.071 14.1385L138.136 14.1801L138.2 14.2433L138.265 14.3066L138.329 14.37L138.394 14.4333L138.458 14.4809L138.522 14.5354L138.587 14.5989L138.651 14.6626L138.715 14.7264L138.779 14.7868L138.843 14.829L138.908 14.8929L138.972 14.9569L139.036 15.021L139.1 15.0851L139.164 15.1335L139.227 15.1885L139.291 15.2528L139.355 15.3172L139.419 15.3816L139.483 15.4429L139.546 15.4857L139.61 15.5503L139.674 15.6149L139.737 15.6797L139.801 15.7445L139.864 15.7937L139.928 15.8494L139.991 15.9144L140.055 15.9794L140.118 16.0446L140.181 16.1067L140.244 16.15L140.308 16.2153L140.371 16.2807L140.434 16.3461L140.497 16.4117L140.56 16.4618L140.623 16.5179L140.686 16.5836L140.749 16.6493L140.812 16.7151L140.875 16.7782L140.938 16.822L141 16.888L141.063 16.9541L141.126 17.0202L141.188 17.0864L141.251 17.1374L141.314 17.194L141.376 17.2604L141.439 17.3268L141.501 17.3933L141.564 17.4573L141.626 17.5016L141.688 17.5682L141.751 17.635L141.813 17.7019L141.875 17.7687L141.937 17.8206L141.999 17.8777L142.061 17.9448L142.123 18.0119L142.185 18.0791L142.247 18.1438L142.309 18.1887L142.371 18.256L142.433 18.3235L142.495 18.391L142.556 18.4585L142.618 18.5113L142.68 18.5689L142.741 18.6366L142.803 18.7045L142.864 18.7723L142.926 18.8379L142.987 18.8833L143.049 18.9513L143.11 19.0194L143.171 19.0876L143.233 19.1559L143.294 19.2094L143.355 19.2675L143.416 19.3359L143.477 19.4044L143.538 19.473L143.599 19.5394L143.66 19.5852L143.721 19.654L143.782 19.7228L143.843 19.7916L143.904 19.8606L143.964 19.9149L144.025 19.9735L144.086 20.0427L144.146 20.1118L144.207 20.181L144.267 20.2482L144.328 20.2946L144.388 20.364L144.449 20.4335L144.509 20.5029L144.569 20.5726L144.63 20.6277L144.69 20.6869L144.75 20.7566L144.81 20.8264L144.87 20.8963L144.93 20.9644L144.99 21.0112L145.05 21.0813L145.11 21.1514L145.17 21.2216L145.23 21.2918L145.29 21.3478L145.349 21.4074L145.409 21.4779L145.469 21.5484L145.528 21.6188L145.588 21.6877L145.647 21.7351L145.707 21.8058L145.766 21.8766L145.825 21.9474L145.885 22.0182L145.944 22.0751L146.003 22.1353L146.062 22.2063L146.121 22.2774L146.181 22.3486L146.24 22.4183L146.299 22.4661L146.357 22.5375L146.416 22.6089L146.475 22.6804L146.534 22.7519L146.593 22.8095L146.651 22.8702L146.71 22.9418L146.769 23.0136L146.827 23.0855L146.886 23.1559L146.944 23.2043L147.003 23.2763L147.061 23.3483L147.119 23.4204L147.178 23.4926L147.236 23.551L147.294 23.6121L147.352 23.6845L147.411 23.7568L147.469 23.8293L147.527 23.9006L147.585 23.9494L147.642 24.0221L147.7 24.0948L147.758 24.1675L147.816 24.2403L147.874 24.2995L147.931 24.3611L147.989 24.4341L148.047 24.5071L148.104 24.5802L148.161 24.6523L148.219 24.7015L148.276 24.7748L148.334 24.8482L148.391 24.9215L148.448 24.995L148.505 25.055L148.563 25.117L148.62 25.1906L148.677 25.2643L148.734 25.338L148.791 25.4109L148.848 25.4606L148.904 25.5345L148.961 25.6085L149.018 25.6825L149.075 25.7565L149.131 25.8173L149.188 25.8798L149.245 25.954L149.301 26.0283L149.358 26.1026L149.414 26.1763L149.47 26.2265L149.527 26.301L149.583 26.3756L149.639 26.4502L149.695 26.5248L149.751 26.5865L149.807 26.6494L149.864 26.7242L149.919 26.7992L149.975 26.8741L150.031 26.9485L150.087 26.9992L150.143 27.0743L150.199 27.1494L150.254 27.2247L150.31 27.3L150.365 27.3623L150.421 27.4257L150.476 27.5012L150.532 27.5767L150.587 27.6523L150.643 27.7274L150.698 27.7785L150.753 27.8543L150.808 27.93L150.863 28.0059L150.918 28.0818L150.973 28.1449L151.028 28.2087L151.083 28.2848L151.138 28.3609L151.193 28.4371L151.248 28.5131L151.303 28.5645L151.357 28.6409L151.412 28.7173L151.466 28.7937L151.521 28.8702L151.575 28.9341L151.63 28.9983L151.684 29.075L151.738 29.1517L151.793 29.2285L151.847 29.3052L151.901 29.3572L151.955 29.4341L152.009 29.5111L152.063 29.5881L152.117 29.6652L152.171 29.7298L152.225 29.7945L152.279 29.8718L152.332 29.9491L152.386 30.0264L152.44 30.1038L152.493 30.1563L152.547 30.2337L152.6 30.3113L152.654 30.389L152.707 30.4666L152.76 30.532L152.814 30.5971L152.867 30.6749L152.92 30.7528L152.973 30.8308L153.026 30.9087L153.079 30.9621L153.132 31.0399L153.185 31.118L153.238 31.1962L153.291 31.2745L153.343 31.3406L153.396 31.4062L153.449 31.4845L153.501 31.563L153.554 31.6415L153.606 31.7201L153.659 31.7741L153.711 31.8524L153.764 31.9311L153.816 32.0099L153.868 32.0887L153.92 32.1555L153.972 32.2215L154.024 32.3005L154.076 32.3795L154.128 32.4586L154.18 32.5377L154.232 32.5925L154.284 32.6712L154.335 32.7504L154.387 32.8298L154.439 32.9092L154.49 32.9767L154.542 33.0431L154.593 33.1227L154.645 33.2022L154.696 33.2819L154.747 33.3616L154.799 33.4171L154.85 33.4962L154.901 33.576L154.952 33.6559L155.003 33.7359L155.054 33.8042L155.105 33.8709L155.156 33.951L155.206 34.0312L155.257 34.1114L155.308 34.1917L155.359 34.2479L155.409 34.3273L155.46 34.4077L155.51 34.4882L155.561 34.5687L155.611 34.6377L155.661 34.7048L155.711 34.7855L155.762 34.8662L155.812 34.947L155.862 35.0278L155.912 35.0847L155.962 35.1645L156.012 35.2455L156.062 35.3265L156.111 35.4076L156.161 35.4773L156.211 35.5448L156.261 35.626L156.31 35.7073L156.36 35.7886L156.409 35.8699L156.458 35.9276L156.508 36.0078L156.557 36.0893L156.606 36.1709L156.656 36.2524L156.705 36.3229L156.754 36.3908L156.803 36.4725L156.852 36.5543L156.901 36.6362L156.95 36.718L156.998 36.7764L157.047 36.857L157.096 36.939L157.144 37.0211L157.193 37.1033L157.242 37.1744L157.29 37.2427L157.338 37.3249L157.387 37.4072L157.435 37.4896L157.483 37.572L157.531 37.631L157.579 37.712L157.628 37.7946L157.676 37.8772L157.723 37.9599L157.771 38.0317L157.819 38.1003L157.867 38.1831L157.915 38.2659L157.962 38.3489L158.01 38.4318L158.057 38.4915L158.105 38.5728L158.152 38.6559L158.2 38.739L158.247 38.8222L158.294 38.8948L158.341 38.9637L158.389 39.0471L158.436 39.1304L158.483 39.2138L158.53 39.2973L158.577 39.3577L158.623 39.4394L158.67 39.523L158.717 39.6066L158.764 39.6903L158.81 39.7635L158.857 39.8328L158.903 39.9167L158.95 40.0006L158.996 40.0845L159.042 40.1685L159.089 40.2295L159.135 40.3115L159.181 40.3957L159.227 40.4798L159.273 40.564L159.319 40.6379L159.365 40.7076L159.411 40.7919L159.456 40.8763L159.502 40.9607L159.548 41.0452L159.593 41.1069L159.639 41.1893L159.685 41.2739L159.73 41.3586L159.775 41.4433L159.821 41.5178L159.866 41.5878L159.911 41.6726L159.956 41.7575L160.001 41.8425L160.046 41.9274L160.091 41.9898L160.136 42.0725L160.181 42.1576L160.226 42.2428L160.27 42.328L160.315 42.4031L160.36 42.4735L160.404 42.5588L160.449 42.6442L160.493 42.7296L160.537 42.8151L160.582 42.8781L160.626 42.9611L160.67 43.0467L160.714 43.1324L160.758 43.2181L160.802 43.2939L160.846 43.3645L160.89 43.4504L160.934 43.5362L160.978 43.6221L161.021 43.7081L161.065 43.7717L161.109 43.8551L161.152 43.9412L161.196 44.0272L161.239 44.1135L161.282 44.1899L161.326 44.2609L161.369 44.3472L161.412 44.4335L161.455 44.5199L161.498 44.6063L161.541 44.6706L161.584 44.7543L161.627 44.8409L161.669 44.9274L161.712 45.0141L161.755 45.0912L161.797 45.1625L161.84 45.2492L161.882 45.336L161.925 45.4229L161.967 45.5098L162.009 45.5747L162.052 45.6587L162.094 45.7457L162.136 45.8327L162.178 45.9198L162.22 45.9976L162.262 46.0692L162.304 46.1564L162.345 46.2437L162.387 46.331L162.429 46.4183L162.47 46.4839L162.512 46.5681L162.553 46.6556L162.595 46.7431L162.636 46.8307L162.677 46.909L162.719 46.9809L162.76 47.0686L162.801 47.1563L162.842 47.2441L162.883 47.3319L162.924 47.3981L162.965 47.4826L163.005 47.5705L163.046 47.6585L163.087 47.7465L163.127 47.8255L163.168 47.8977L163.208 47.9858L163.249 48.0739L163.289 48.1622L163.329 48.2504L163.37 48.3172L163.41 48.4021L163.45 48.4904L163.49 48.5788L163.53 48.6673L163.57 48.7468L163.609 48.8193L163.649 48.9079L163.689 48.9964L163.729 49.0851L163.768 49.1738L163.808 49.2412L163.847 49.3263L163.887 49.4151L163.926 49.5039L163.965 49.5928L164.004 49.673L164.043 49.7457L164.082 49.8347L164.122 49.9238L164.16 50.0128L164.199 50.102L164.238 50.17L164.277 50.2553L164.316 50.3446L164.354 50.4338L164.393 50.5232L164.431 50.6039L164.47 50.6769L164.508 50.7663L164.546 50.8558L164.585 50.9453L164.623 51.0348L164.661 51.1034L164.699 51.189L164.737 51.2787L164.775 51.3684L164.813 51.4581L164.85 51.5395L164.888 51.6127L164.926 51.7026L164.963 51.7924L165.001 51.8824L165.038 51.9723L165.076 52.0415L165.113 52.1273L165.15 52.2174L165.187 52.3075L165.225 52.3977L165.262 52.4796L165.299 52.5531L165.336 52.6433L165.372 52.7336L165.409 52.824L165.446 52.9143L165.483 52.9841L165.519 53.0702L165.556 53.1607L165.592 53.2512L165.629 53.3417L165.665 53.4242L165.701 53.498L165.738 53.5886L165.774 53.6793L165.81 53.7701L165.846 53.8608L165.882 53.9311L165.918 54.0175L165.954 54.1083L165.989 54.1992L166.025 54.2902L166.061 54.3732L166.096 54.4472L166.132 54.5383L166.167 54.6293L166.202 54.7205L166.238 54.8116L166.273 54.8825L166.308 54.9691L166.343 55.0603L166.378 55.1516L166.413 55.243L166.448 55.3266L166.483 55.4008L166.518 55.4922L166.552 55.5837L166.587 55.6752L166.621 55.7668L166.656 55.8381L166.69 55.925L166.725 56.0166L166.759 56.1083L166.793 56.2L166.827 56.2842L166.861 56.3586L166.895 56.4504L166.929 56.5422L166.963 56.6341L166.997 56.7261L167.031 56.798L167.065 56.885L167.098 56.9771L167.132 57.0691L167.165 57.1612L167.199 57.2459L167.232 57.3205L167.265 57.4127L167.299 57.5049L167.332 57.5972L167.365 57.6895L167.398 57.7619L167.431 57.8491L167.464 57.9416L167.496 58.034L167.529 58.1264L167.562 58.2117L167.594 58.2864L167.627 58.379L167.659 58.4716L167.692 58.5642L167.724 58.6569L167.756 58.7299L167.789 58.8173L167.821 58.91L167.853 59.0028L167.885 59.0956L167.917 59.1814L167.949 59.2564L167.98 59.3493L168.012 59.4422L168.044 59.5352L168.075 59.6282L168.107 59.7017L168.138 59.7893L168.17 59.8824L168.201 59.9756L168.232 60.0687L168.263 60.155L168.294 60.2302L168.326 60.3234L168.357 60.4167L168.387 60.51L168.418 60.6034L168.449 60.6774L168.48 60.7652L168.51 60.8586L168.541 60.9521L168.571 61.0456L168.602 61.1324L168.632 61.2078L168.662 61.3013L168.693 61.395L168.723 61.4886L168.753 61.5823L168.783 61.6569L168.813 61.7448L168.843 61.8386L168.872 61.9324L168.902 62.0262L168.932 62.1135L168.961 62.189L168.991 62.2829L169.02 62.3769L169.05 62.4709L169.079 62.5649L169.108 62.6399L169.137 62.7281L169.167 62.8221L169.196 62.9163L169.225 63.0105L169.254 63.0982L169.282 63.1738L169.311 63.2681L169.34 63.3624L169.368 63.4567L169.397 63.551L169.425 63.6265L169.454 63.7148L169.482 63.8093L169.51 63.9037L169.539 63.9982L169.567 64.0864L169.595 64.1622L169.623 64.2568L169.651 64.3514L169.679 64.446L169.706 64.5407L169.734 64.6166L169.762 64.7051L169.789 64.7998L169.817 64.8945L169.844 64.9893L169.871 65.078L169.899 65.154L169.926 65.2489L169.953 65.3438L169.98 65.4387L170.007 65.5337L170.034 65.6101L170.061 65.6986L170.088 65.7937L170.114 65.8887L170.141 65.9838L170.168 66.073L170.194 66.1491L170.221 66.2442L170.247 66.3394L170.273 66.4347L170.3 66.5299L170.326 66.6068L170.352 66.6955L170.378 66.7908L170.404 66.8862L170.43 66.9815L170.455 67.0712L170.481 67.1474L170.507 67.2428L170.532 67.3384L170.558 67.4339L170.583 67.5294L170.609 67.6067L170.634 67.6955L170.659 67.7911L170.684 67.8868L170.71 67.9824L170.735 68.0725L170.759 68.1488L170.784 68.2446L170.809 68.3404L170.834 68.4361L170.859 68.5319L170.883 68.6097L170.908 68.6987L170.932 68.7945L170.956 68.8905L170.981 68.9864L171.005 69.0769L171.029 69.1533L171.053 69.2493L171.077 69.3454L171.101 69.4415L171.125 69.5375L171.149 69.6157L171.173 69.7048L171.196 69.8009L171.22 69.8971L171.243 69.9933L171.267 70.0842L171.29 70.1608L171.314 70.257L171.337 70.3533L171.36 70.4497L171.383 70.546L171.406 70.6246L171.429 70.7138L171.452 70.8102L171.475 70.9066L171.497 71.0031L171.52 71.0944L171.543 71.171L171.565 71.2676L171.588 71.3641L171.61 71.4607L171.632 71.5573L171.655 71.6363L171.677 71.7255L171.699 71.8222L171.721 71.9189L171.743 72.0156L171.764 72.1073L171.786 72.1841L171.808 72.2808L171.83 72.3776L171.851 72.4744L171.873 72.5713L171.894 72.6507L171.915 72.74L171.937 72.8369L171.958 72.9339L171.979 73.0308L172 73.1229L172.021 73.1997L172.042 73.2968L172.063 73.3938L172.084 73.4908L172.104 73.5879L172.125 73.6678L172.146 73.7571L172.166 73.8543L172.186 73.9514L172.207 74.0486L172.227 74.1411L172.247 74.218L172.267 74.3152L172.287 74.4125L172.307 74.5097L172.327 74.607L172.347 74.6873L172.367 74.7767L172.387 74.874L172.406 74.9714L172.426 75.0688L172.445 75.1617L172.465 75.2387L172.484 75.3361L172.503 75.4336L172.522 75.5311L172.541 75.6286L172.56 75.7092L172.579 75.7987L172.598 75.8962L172.617 75.9938L172.636 76.0914L172.654 76.1847L172.673 76.2617L172.692 76.3594L172.71 76.457L172.728 76.5548L172.747 76.6525L172.765 76.7335L172.783 76.823L172.801 76.9207L172.819 77.0185L172.837 77.1163L172.855 77.21L172.873 77.287L172.89 77.3849L172.908 77.4828L172.926 77.5807L172.943 77.6786L172.96 77.7599L172.978 77.8495L172.995 77.9474L173.012 78.0454L173.029 78.1434L173.046 78.2374L173.063 78.3145L173.08 78.4125L173.097 78.5106L173.114 78.6087L173.131 78.7068L173.147 78.7885L173.164 78.8781L173.18 78.9762L173.197 79.0744L173.213 79.1726L173.229 79.2669L173.245 79.344L173.261 79.4423L173.277 79.5405L173.293 79.6388L173.309 79.7371L173.325 79.8191L173.341 79.9087L173.356 80.007L173.372 80.1054L173.387 80.2037L173.403 80.2984L173.418 80.3755L173.433 80.4739L173.449 80.5723L173.464 80.6708L173.479 80.7693L173.494 80.8516L173.509 80.9412L173.524 81.0397L173.538 81.1382L173.553 81.2368L173.568 81.3318L173.582 81.4089L173.597 81.5075L173.611 81.606L173.625 81.7047L173.64 81.8033L173.654 81.886L173.668 81.9756L173.682 82.0742L173.696 82.1729L173.71 82.2716L173.724 82.3669L173.737 82.444L173.751 82.5427L173.764 82.6415L173.778 82.7402L173.791 82.839L173.805 82.922L173.818 83.0116L173.831 83.1104L173.844 83.2093L173.857 83.3081L173.87 83.4038L173.883 83.4808L173.896 83.5797L173.909 83.6786L173.922 83.7775L173.934 83.8764L173.947 83.9597L173.959 84.0493L173.972 84.1482L173.984 84.2472L173.996 84.3462L174.008 84.4422L174.021 84.5192L174.033 84.6182L174.044 84.7172L174.056 84.8162L174.068 84.9153L174.08 84.9989L174.092 85.0884L174.103 85.1875L174.115 85.2866L174.126 85.3857L174.137 85.482L174.149 85.559L174.16 85.6581L174.171 85.7573L174.182 85.8564L174.193 85.9556L174.204 86.0395L174.215 86.129L174.226 86.2282L174.236 86.3275L174.247 86.4267L174.257 86.5232L174.268 86.6002L174.278 86.6994L174.289 86.7987L174.299 86.898L174.309 86.9973L174.319 87.0815L174.329 87.1709L174.339 87.2702L174.349 87.3695L174.359 87.4689L174.368 87.5657L174.378 87.6426L174.388 87.742L174.397 87.8414L174.406 87.9408L174.416 88.0402L174.425 88.1246L174.434 88.214L174.443 88.3134L174.452 88.4129L174.461 88.5123L174.47 88.6094L174.479 88.6862L174.488 88.7857L174.497 88.8852L174.505 88.9847L174.514 89.0842L174.522 89.1689L174.531 89.2582L174.539 89.3577L174.547 89.4572L174.555 89.5568L174.563 89.6541L174.571 89.7309L174.579 89.8304L174.587 89.93L174.595 90.0296L174.603 90.1292L174.61 90.2141L174.618 90.3034L174.625 90.403L174.633 90.5026L174.64 90.6022L174.647 90.6998L174.655 90.7765L174.662 90.8762L174.669 90.9758L174.676 91.0754L174.683 91.1751L174.689 91.2603L174.696 91.3495L174.703 91.4492L174.709 91.5489L174.716 91.6485L174.722 91.7464L174.729 91.823L174.735 91.9227L174.741 92.0224L174.747 92.1221L174.753 92.2219L174.759 92.3073L174.765 92.3964L174.771 92.4961L174.777 92.5959L174.783 92.6957L174.788 92.7937L174.794 92.8702L174.799 92.97L174.805 93.0698L174.81 93.1696L174.815 93.2694L174.821 93.3551L174.826 93.444L174.831 93.5438L174.836 93.6436L174.841 93.7435L174.845 93.8417L174.85 93.9182L174.855 94.018L174.859 94.1178L174.864 94.2176L174.868 94.3175L174.873 94.4034L174.877 94.4922L174.881 94.5921L174.885 94.692L174.89 94.7918L174.894 94.8904L174.897 94.9666L174.901 95.0665L174.905 95.1664L174.909 95.2663L174.912 95.3662L174.916 95.4522L174.919 95.541L174.923 95.6409L174.926 95.7408L174.929 95.8407L174.933 95.9394L174.936 96.0155L174.939 96.1155L174.942 96.2154L174.945 96.3153L174.948 96.4153L174.95 96.5016L174.953 96.5901L174.956 96.6901L174.958 96.79L174.96 96.89L174.963 96.9888L174.965 97.0649L174.967 97.1648L174.97 97.2648L174.972 97.3647L174.974 97.4647L174.976 97.5511L174.977 97.6396L174.979 97.7396L174.981 97.8395L174.983 97.9395L174.984 98.0386L174.986 98.1144L174.987 98.2144L174.988 98.3144L174.99 98.4143L174.991 98.5143L174.992 98.601L174.993 98.6893L174.994 98.7892L174.995 98.8892L174.996 98.9892L174.996 99.0884L174.997 99.1642L174.998 99.2641L174.998 99.3641L174.999 99.4641L174.999 99.5641L174.999 99.6509L175 99.739L175 99.839L175 99.939L175 100.039L175 100.138L175 100.214L175 100.314L174.999 100.414L174.999 100.514L174.998 100.614L174.998 100.701L174.997 100.789L174.997 100.889L174.996 100.989L174.995 101.089L174.994 101.188L174.993 101.264L174.993 101.364L174.991 101.464L174.99 101.564L174.989 101.664L174.988 101.751L174.986 101.839L174.985 101.939L174.983 102.039L174.982 102.139L174.98 102.238L174.978 102.313L174.976 102.413L174.975 102.513L174.973 102.613L174.971 102.713L174.968 102.801L174.966 102.888L174.964 102.988L174.962 103.088L174.959 103.188L174.957 103.288L174.954 103.363L174.952 103.463L174.949 103.563L174.946 103.663L174.943 103.763L174.94 103.85L174.937 103.938L174.934 104.037L174.931 104.137L174.928 104.237L174.925 104.337L174.921 104.412L174.918 104.512L174.914 104.612L174.911 104.712L174.907 104.812L174.903 104.899L174.899 104.987L174.896 105.086L174.892 105.186L174.888 105.286L174.883 105.386L174.879 105.461L174.875 105.561L174.871 105.661L174.866 105.76L174.862 105.86L174.857 105.948L174.853 106.035L174.848 106.135L174.843 106.235L174.838 106.335L174.833 106.434L174.828 106.51L174.823 106.609L174.818 106.709L174.813 106.809L174.808 106.908L174.802 106.996L174.797 107.083L174.791 107.183L174.786 107.283L174.78 107.382L174.774 107.482L174.768 107.557L174.762 107.657L174.757 107.756L174.75 107.856L174.744 107.956L174.738 108.044L174.732 108.13L174.726 108.23L174.719 108.33L174.713 108.429L174.706 108.529L174.7 108.604L174.693 108.703L174.686 108.803L174.679 108.903L174.672 109.002L174.665 109.09L174.658 109.177L174.651 109.276L174.644 109.376L174.636 109.476L174.629 109.575L174.622 109.651L174.614 109.75L174.606 109.849L174.599 109.949L174.591 110.048L174.583 110.136L174.575 110.222L174.567 110.322L174.559 110.422L174.551 110.521L174.543 110.621L174.535 110.696L174.526 110.795L174.518 110.894L174.509 110.994L174.501 111.093L174.492 111.181L174.484 111.267L174.475 111.367L174.466 111.466L174.457 111.565L174.448 111.665L174.439 111.741L174.43 111.839L174.421 111.938L174.411 112.038L174.402 112.137L174.392 112.225L174.383 112.311L174.373 112.41L174.364 112.51L174.354 112.609L174.344 112.708L174.334 112.784L174.324 112.882L174.314 112.981L174.304 113.08L174.294 113.18L174.283 113.268L174.273 113.353L174.263 113.453L174.252 113.552L174.242 113.651L174.231 113.75L174.22 113.826L174.209 113.924L174.198 114.023L174.188 114.122L174.177 114.221L174.165 114.31L174.154 114.395L174.143 114.494L174.132 114.593L174.12 114.692L174.109 114.791L174.097 114.867L174.086 114.964L174.074 115.063L174.062 115.162L174.05 115.261L174.038 115.35L174.027 115.434L174.014 115.533L174.002 115.632L173.99 115.731L173.978 115.83L173.965 115.906L173.953 116.003L173.941 116.102L173.928 116.201L173.915 116.3L173.903 116.388L173.89 116.473L173.877 116.572L173.864 116.671L173.851 116.769L173.838 116.868L173.825 116.944L173.811 117.041L173.798 117.14L173.785 117.238L173.771 117.337L173.758 117.426L173.744 117.51L173.73 117.608L173.717 117.707L173.703 117.806L173.689 117.904L173.675 117.98L173.661 118.077L173.647 118.175L173.633 118.274L173.618 118.373L173.604 118.461L173.589 118.545L173.575 118.643L173.56 118.742L173.546 118.841L173.531 118.939L173.516 119.015L173.501 119.111L173.486 119.21L173.471 119.308L173.456 119.406L173.441 119.495L173.426 119.578L173.411 119.677L173.395 119.775L173.38 119.873L173.364 119.972L173.349 120.048L173.333 120.144L173.317 120.242L173.301 120.34L173.285 120.438L173.269 120.527L173.253 120.61L173.237 120.708L173.221 120.806L173.205 120.905L173.188 121.003L173.172 121.079L173.155 121.174L173.139 121.272L173.122 121.37L173.106 121.468L173.089 121.557L173.072 121.64L173.055 121.738L173.038 121.836L173.021 121.934L173.004 122.032L172.986 122.107L172.969 122.203L172.952 122.3L172.934 122.398L172.917 122.496L172.899 122.585L172.882 122.667L172.864 122.765L172.846 122.863L172.828 122.961L172.81 123.058L172.792 123.134L172.774 123.229L172.756 123.327L172.738 123.424L172.719 123.522L172.701 123.61L172.682 123.692L172.664 123.79L172.645 123.888L172.626 123.985L172.608 124.083L172.589 124.159L172.57 124.253L172.551 124.351L172.532 124.448L172.513 124.546L172.494 124.634L172.474 124.716L172.455 124.813L172.435 124.911L172.416 125.008L172.396 125.105L172.377 125.181L172.357 125.275L172.337 125.372L172.317 125.47L172.297 125.567L172.277 125.655L172.257 125.736L172.237 125.834L172.217 125.931L172.197 126.028L172.176 126.125L172.156 126.201L172.135 126.295L172.115 126.392L172.094 126.489L172.073 126.586L172.052 126.674L172.032 126.755L172.011 126.852L171.99 126.949L171.969 127.046L171.947 127.143L171.926 127.218L171.905 127.311L171.883 127.408L171.862 127.505L171.84 127.602L171.819 127.69L171.797 127.771L171.775 127.867L171.754 127.964L171.732 128.061L171.71 128.158L171.688 128.233L171.665 128.326L171.643 128.422L171.621 128.519L171.599 128.616L171.576 128.704L171.554 128.784L171.531 128.88L171.509 128.977L171.486 129.073L171.463 129.17L171.44 129.245L171.417 129.338L171.395 129.434L171.371 129.53L171.348 129.627L171.325 129.714L171.302 129.794L171.279 129.89L171.255 129.987L171.232 130.083L171.208 130.179L171.185 130.254L171.161 130.346L171.137 130.442L171.113 130.539L171.089 130.635L171.065 130.722L171.041 130.802L171.017 130.898L170.993 130.994L170.969 131.09L170.944 131.186L170.92 131.261L170.895 131.352L170.871 131.448L170.846 131.544L170.822 131.64L170.797 131.727L170.772 131.806L170.747 131.902L170.722 131.998L170.697 132.093L170.672 132.189L170.647 132.264L170.621 132.355L170.596 132.451L170.571 132.546L170.545 132.642L170.52 132.73L170.494 132.808L170.468 132.903L170.442 132.999L170.417 133.094L170.391 133.19L170.365 133.265L170.339 133.355L170.313 133.451L170.286 133.546L170.26 133.641L170.234 133.728L170.207 133.806L170.181 133.902L170.154 133.997L170.128 134.092L170.101 134.187L170.074 134.262L170.047 134.352L170.021 134.447L169.994 134.542L169.967 134.637L169.94 134.724L169.912 134.802L169.885 134.896L169.858 134.991L169.83 135.086L169.803 135.181L169.775 135.256L169.748 135.345L169.72 135.44L169.692 135.535L169.665 135.629L169.637 135.717L169.609 135.794L169.581 135.888L169.553 135.983L169.524 136.077L169.496 136.172L169.468 136.246L169.44 136.335L169.411 136.43L169.383 136.524L169.354 136.619L169.325 136.706L169.297 136.782L169.268 136.876L169.239 136.971L169.21 137.065L169.181 137.159L169.152 137.233L169.123 137.322L169.094 137.416L169.064 137.51L169.035 137.604L169.006 137.691L168.976 137.767L168.947 137.861L168.917 137.955L168.887 138.049L168.858 138.143L168.828 138.217L168.798 138.305L168.768 138.399L168.738 138.493L168.708 138.586L168.677 138.673L168.647 138.749L168.617 138.842L168.587 138.936L168.556 139.029L168.526 139.123L168.495 139.197L168.464 139.285L168.434 139.378L168.403 139.471L168.372 139.565L168.341 139.651L168.31 139.726L168.279 139.82L168.248 139.913L168.217 140.006L168.185 140.099L168.154 140.173L168.123 140.26L168.091 140.353L168.06 140.446L168.028 140.539L167.996 140.626L167.964 140.7L167.933 140.793L167.901 140.886L167.869 140.979L167.837 141.072L167.805 141.145L167.772 141.232L167.74 141.325L167.708 141.418L167.676 141.51L167.643 141.596L167.611 141.67L167.578 141.763L167.545 141.855L167.513 141.948L167.48 142.04L167.447 142.114L167.414 142.2L167.381 142.292L167.348 142.385L167.315 142.477L167.282 142.563L167.249 142.636L167.215 142.729L167.182 142.821L167.148 142.913L167.115 143.005L167.081 143.078L167.048 143.164L167.014 143.256L166.98 143.348L166.946 143.44L166.912 143.526L166.878 143.599L166.844 143.69L166.81 143.782L166.776 143.874L166.742 143.966L166.708 144.039L166.673 144.124L166.639 144.216L166.604 144.307L166.57 144.399L166.535 144.484L166.5 144.557L166.465 144.648L166.431 144.739L166.396 144.831L166.361 144.922L166.326 144.995L166.29 145.08L166.255 145.171L166.22 145.262L166.185 145.353L166.149 145.438L166.114 145.51L166.078 145.601L166.043 145.692L166.007 145.783L165.971 145.874L165.936 145.947L165.9 146.031L165.864 146.122L165.828 146.213L165.792 146.303L165.756 146.388L165.719 146.46L165.683 146.55L165.647 146.641L165.611 146.732L165.574 146.822L165.538 146.895L165.501 146.978L165.464 147.068L165.428 147.159L165.391 147.249L165.354 147.334L165.317 147.405L165.28 147.495L165.243 147.585L165.206 147.675L165.169 147.766L165.132 147.838L165.094 147.921L165.057 148.011L165.02 148.101L164.982 148.191L164.945 148.275L164.907 148.345L164.869 148.435L164.831 148.525L164.794 148.615L164.756 148.705L164.718 148.776L164.68 148.859L164.642 148.948L164.604 149.038L164.565 149.128L164.527 149.212L164.489 149.281L164.45 149.371L164.412 149.46L164.373 149.55L164.335 149.639L164.296 149.711L164.257 149.792L164.219 149.882L164.18 149.971L164.141 150.06L164.102 150.144L164.063 150.213L164.024 150.302L163.985 150.391L163.945 150.48L163.906 150.569L163.867 150.64L163.827 150.721L163.788 150.81L163.748 150.899L163.709 150.987L163.669 151.071L163.629 151.139L163.589 151.228L163.55 151.317L163.51 151.405L163.47 151.493L163.43 151.565L163.39 151.645L163.349 151.733L163.309 151.822L163.269 151.91L163.228 151.994L163.188 152.061L163.147 152.149L163.107 152.238L163.066 152.326L163.026 152.414L162.985 152.484L162.944 152.564L162.903 152.652L162.862 152.74L162.821 152.828L162.78 152.911L162.739 152.978L162.698 153.066L162.657 153.154L162.615 153.241L162.574 153.329L162.532 153.399L162.491 153.479L162.449 153.566L162.408 153.653L162.366 153.741L162.324 153.824L162.283 153.89L162.241 153.978L162.199 154.065L162.157 154.152L162.115 154.239L162.073 154.309L162.03 154.388L161.988 154.475L161.946 154.562L161.903 154.649L161.861 154.731L161.819 154.797L161.776 154.884L161.733 154.971L161.691 155.057L161.648 155.144L161.605 155.214L161.562 155.292L161.519 155.379L161.476 155.465L161.433 155.551L161.39 155.634L161.347 155.699L161.304 155.785L161.261 155.872L161.217 155.958L161.174 156.044L161.13 156.114L161.087 156.191L161.043 156.277L161 156.363L160.956 156.449L160.912 156.531L160.868 156.596L160.824 156.681L160.78 156.767L160.736 156.853L160.692 156.938L160.648 157.008L160.604 157.085L160.56 157.17L160.515 157.256L160.471 157.341L160.426 157.423L160.382 157.487L160.337 157.572L160.293 157.657L160.248 157.743L160.203 157.828L160.159 157.897L160.114 157.973L160.069 158.058L160.024 158.143L159.979 158.228L159.934 158.309L159.888 158.373L159.843 158.458L159.798 158.542L159.753 158.627L159.707 158.712L159.662 158.781L159.616 158.856L159.571 158.941L159.525 159.025L159.479 159.11L159.434 159.191L159.388 159.253L159.342 159.338L159.296 159.422L159.25 159.506L159.204 159.59L159.158 159.659L159.112 159.734L159.065 159.818L159.019 159.902L158.973 159.986L158.926 160.066L158.88 160.128L158.833 160.212L158.787 160.296L158.74 160.38L158.693 160.463L158.647 160.531L158.6 160.605L158.553 160.689L158.506 160.772L158.459 160.856L158.412 160.936L158.365 160.998L158.318 161.081L158.271 161.164L158.223 161.247L158.176 161.331L158.129 161.398L158.081 161.472L158.034 161.555L157.986 161.638L157.938 161.721L157.891 161.801L157.843 161.861L157.795 161.944L157.747 162.027L157.699 162.11L157.651 162.192L157.603 162.259L157.555 162.332L157.507 162.415L157.459 162.497L157.411 162.58L157.362 162.659L157.314 162.719L157.266 162.802L157.217 162.884L157.169 162.966L157.12 163.048L157.071 163.115L157.023 163.187L156.974 163.269L156.925 163.351L156.876 163.433L156.827 163.512L156.778 163.571L156.729 163.653L156.68 163.735L156.631 163.816L156.582 163.898L156.532 163.965L156.483 164.036L156.434 164.117L156.384 164.199L156.335 164.28L156.285 164.359L156.236 164.418L156.186 164.499L156.136 164.58L156.086 164.661L156.037 164.742L155.987 164.808L155.937 164.879L155.887 164.96L155.837 165.041L155.787 165.121L155.737 165.2L155.686 165.258L155.636 165.338L155.586 165.419L155.535 165.5L155.485 165.58L155.434 165.646L155.384 165.716L155.333 165.796L155.283 165.877L155.232 165.957L155.181 166.035L155.13 166.092L155.079 166.172L155.028 166.252L154.977 166.332L154.926 166.412L154.875 166.477L154.824 166.547L154.773 166.627L154.722 166.706L154.67 166.786L154.619 166.864L154.568 166.92L154.516 167L154.464 167.079L154.413 167.159L154.361 167.238L154.31 167.303L154.258 167.372L154.206 167.451L154.154 167.53L154.102 167.609L154.05 167.686L153.998 167.742L153.946 167.821L153.894 167.9L153.842 167.979L153.79 168.058L153.737 168.122L153.685 168.19L153.633 168.269L153.58 168.347L153.528 168.426L153.475 168.503L153.422 168.558L153.37 168.636L153.317 168.714L153.264 168.793L153.212 168.871L153.159 168.935L153.106 169.002L153.053 169.08L153 169.158L152.947 169.236L152.893 169.313L152.84 169.367L152.787 169.445L152.734 169.523L152.68 169.6L152.627 169.678L152.574 169.742L152.52 169.808L152.466 169.886L152.413 169.963L152.359 170.04L152.306 170.116L152.252 170.17L152.198 170.247L152.144 170.324L152.09 170.401L152.036 170.478L151.982 170.542L151.928 170.607L151.874 170.684L151.82 170.761L151.766 170.838L151.711 170.914L151.657 170.966L151.603 171.043L151.548 171.12L151.494 171.196L151.439 171.273L151.384 171.335L151.33 171.4L151.275 171.477L151.22 171.553L151.166 171.629L151.111 171.704L151.056 171.756L151.001 171.832L150.946 171.908L150.891 171.984L150.836 172.06L150.781 172.123L150.725 172.187L150.67 172.262L150.615 172.338L150.56 172.414L150.504 172.488L150.449 172.54L150.393 172.615L150.338 172.69L150.282 172.766L150.226 172.841L150.171 172.903L150.115 172.966L150.059 173.041L150.003 173.116L149.947 173.191L149.891 173.266L149.835 173.316L149.779 173.391L149.723 173.466L149.667 173.54L149.611 173.615L149.555 173.677L149.498 173.739L149.442 173.814L149.386 173.888L149.329 173.963L149.273 174.036L149.216 174.086L149.16 174.16L149.103 174.235L149.046 174.309L148.99 174.383L148.933 174.444L148.876 174.505L148.819 174.579L148.762 174.653L148.705 174.727L148.648 174.8L148.591 174.849L148.534 174.923L148.477 174.996L148.42 175.07L148.362 175.143L148.305 175.204L148.248 175.265L148.19 175.338L148.133 175.411L148.075 175.484L148.018 175.557L147.96 175.605L147.902 175.678L147.845 175.751L147.787 175.824L147.729 175.897L147.671 175.957L147.613 176.017L147.556 176.09L147.498 176.162L147.44 176.235L147.381 176.307L147.323 176.355L147.265 176.427L147.207 176.499L147.149 176.572L147.09 176.644L147.032 176.703L146.974 176.763L146.915 176.835L146.857 176.907L146.798 176.979L146.739 177.05L146.681 177.097L146.622 177.169L146.563 177.24L146.505 177.312L146.446 177.383L146.387 177.443L146.328 177.501L146.269 177.573L146.21 177.644L146.151 177.715L146.092 177.786L146.033 177.833L145.974 177.903L145.914 177.974L145.855 178.045L145.796 178.116L145.736 178.175L145.677 178.233L145.617 178.303L145.558 178.374L145.498 178.444L145.439 178.515L145.379 178.561L145.319 178.631L145.26 178.701L145.2 178.771L145.14 178.842L145.08 178.9L145.02 178.957L144.96 179.027L144.9 179.097L144.84 179.167L144.78 179.237L144.72 179.282L144.66 179.351L144.6 179.421L144.539 179.49L144.479 179.56L144.419 179.618L144.358 179.674L144.298 179.743L144.237 179.812L144.177 179.882L144.116 179.951L144.055 179.996L143.995 180.064L143.934 180.133L143.873 180.202L143.812 180.271L143.752 180.328L143.691 180.383L143.63 180.452L143.569 180.521L143.508 180.589L143.447 180.658L143.386 180.702L143.324 180.77L143.263 180.838L143.202 180.906L143.141 180.975L143.079 181.031L143.018 181.086L142.957 181.154L142.895 181.222L142.834 181.29L142.772 181.357L142.711 181.402L142.649 181.468L142.587 181.536L142.526 181.603L142.464 181.671L142.402 181.727L142.34 181.781L142.278 181.848L142.216 181.915L142.154 181.983L142.092 182.05L142.03 182.093L141.968 182.159L141.906 182.226L141.844 182.293L141.782 182.36L141.719 182.415L141.657 182.468L141.595 182.535L141.532 182.601L141.47 182.668L141.407 182.734L141.345 182.777L141.282 182.842L141.22 182.909L141.157 182.975L141.095 183.041L141.032 183.096L140.969 183.148L140.906 183.214L140.843 183.28L140.781 183.346L140.718 183.412L140.655 183.454L140.592 183.518L140.529 183.584L140.466 183.649L140.402 183.715L140.339 183.769L140.276 183.82L140.213 183.886L140.15 183.951L140.086 184.016L140.023 184.081L139.959 184.123L139.896 184.186L139.832 184.251L139.769 184.316L139.705 184.381L139.642 184.435L139.578 184.485L139.514 184.55L139.451 184.614L139.387 184.679L139.323 184.743L139.259 184.785L139.195 184.847L139.132 184.911L139.068 184.975L139.004 185.039L138.94 185.093L138.875 185.142L138.811 185.206L138.747 185.27L138.683 185.334L138.619 185.397L138.555 185.438L138.49 185.499L138.426 185.563L138.361 185.626L138.297 185.69L138.233 185.743L138.168 185.791L138.104 185.855L138.039 185.918L137.974 185.981L137.91 186.044L137.845 186.084L137.78 186.145L137.716 186.207L137.651 186.27L137.586 186.333L137.521 186.385L137.456 186.433L137.391 186.495L137.326 186.558L137.261 186.62L137.196 186.682L137.131 186.722L137.066 186.782L137.001 186.844L136.935 186.906L136.87 186.968L136.805 187.02L136.74 187.066L136.674 187.128L136.609 187.19L136.543 187.251L136.478 187.313L136.412 187.352L136.347 187.411L136.281 187.472L136.216 187.534L136.15 187.595L136.084 187.646L136.019 187.692L135.953 187.753L135.887 187.814L135.821 187.875L135.755 187.936L135.689 187.974L135.623 188.032L135.557 188.093L135.491 188.153L135.425 188.214L135.359 188.265L135.293 188.31L135.227 188.37L135.161 188.43L135.095 188.49L135.028 188.551L134.962 188.589L134.896 188.646L134.829 188.705L134.763 188.765L134.696 188.825L134.63 188.875L134.563 188.919L134.497 188.979L134.43 189.038L134.364 189.098L134.297 189.157L134.23 189.195L134.164 189.251L134.097 189.31L134.03 189.369L133.963 189.428L133.896 189.478L133.83 189.521L133.763 189.58L133.696 189.639L133.629 189.697L133.562 189.756L133.495 189.793L133.428 189.848L133.36 189.906L133.293 189.965L133.226 190.023L133.159 190.072L133.092 190.114L133.024 190.173L132.957 190.231L132.89 190.289L132.822 190.346L132.755 190.383L132.687 190.437L132.62 190.495L132.552 190.552L132.485 190.61L132.417 190.658L132.35 190.7L132.282 190.757L132.214 190.814L132.147 190.872L132.079 190.929L132.011 190.964L131.943 191.018L131.875 191.075L131.807 191.132L131.74 191.188L131.672 191.236L131.604 191.277L131.536 191.333L131.468 191.39L131.4 191.446L131.331 191.503L131.263 191.538L131.195 191.59L131.127 191.647L131.059 191.703L130.991 191.759L130.922 191.806L130.854 191.846L130.786 191.902L130.717 191.957L130.649 192.013L130.58 192.069L130.512 192.103L130.443 192.155L130.375 192.21L130.306 192.265L130.238 192.321L130.169 192.368L130.1 192.406L130.032 192.461L129.963 192.516L129.894 192.571L129.825 192.626L129.757 192.66L129.688 192.711L129.619 192.765L129.55 192.82L129.481 192.874L129.412 192.921L129.343 192.958L129.274 193.013L129.205 193.067L129.136 193.121L129.067 193.175L128.998 193.209L128.929 193.258L128.859 193.312L128.79 193.366L128.721 193.42L128.652 193.465L128.582 193.502L128.513 193.556L128.444 193.609L128.374 193.662L128.305 193.716L128.235 193.749L128.166 193.797L128.096 193.85L128.027 193.904L127.957 193.957L127.888 194.002L127.818 194.037L127.748 194.09L127.679 194.143L127.609 194.196L127.539 194.248L127.47 194.28L127.4 194.328L127.33 194.38L127.26 194.433L127.19 194.485L127.12 194.529L127.05 194.564L126.98 194.616L126.91 194.668L126.841 194.72L126.77 194.772L126.7 194.803L126.63 194.85L126.56 194.902L126.49 194.953L126.42 195.005L126.35 195.049L126.28 195.082L126.209 195.134L126.139 195.185L126.069 195.236L125.998 195.287L125.928 195.318L125.858 195.364L125.787 195.415L125.717 195.465L125.631 195.5L125.536 195.526L125.465 195.551L125.369 195.577L125.274 195.602L125.178 195.627L125.082 195.653L125 195.678L124.916 195.703L124.82 195.728L124.725 195.752L124.629 195.777L124.534 195.802L124.462 195.826L124.367 195.851L124.271 195.875L124.175 195.899L124.079 195.923L123.996 195.948L123.912 195.972L123.816 195.996L123.72 196.019L123.624 196.043L123.529 196.067L123.457 196.09L123.361 196.114L123.265 196.137L123.169 196.16L123.073 196.184L122.989 196.207L122.905 196.23L122.809 196.253L122.713 196.276L122.617 196.298L122.521 196.321L122.449 196.344L122.353 196.366L122.257 196.389L122.16 196.411L122.064 196.433L121.98 196.456L121.896 196.478L121.799 196.5L121.703 196.521L121.606 196.543L121.51 196.565L121.438 196.587L121.342 196.608L121.245 196.63L121.149 196.651L121.052 196.672L120.968 196.693L120.884 196.715L120.787 196.736L120.69 196.756L120.593 196.777L120.497 196.798L120.425 196.819L120.328 196.839L120.231 196.86L120.134 196.88L120.037 196.9L119.953 196.921L119.869 196.941L119.772 196.961L119.675 196.981L119.578 197L119.481 197.02L119.408 197.041L119.312 197.06L119.215 197.079L119.118 197.098L119.021 197.117L118.936 197.137L118.851 197.157L118.754 197.175L118.657 197.194L118.56 197.213L118.463 197.231L118.39 197.251L118.293 197.269L118.196 197.288L118.099 197.306L118.001 197.324L117.916 197.343L117.832 197.361L117.734 197.379L117.637 197.397L117.539 197.414L117.442 197.432L117.369 197.451L117.272 197.468L117.175 197.485L117.077 197.503L116.98 197.52L116.894 197.537L116.81 197.555L116.712 197.572L116.614 197.589L116.517 197.605L116.419 197.622L116.346 197.64L116.249 197.656L116.151 197.672L116.054 197.688L115.956 197.704L115.87 197.721L115.785 197.738L115.688 197.754L115.59 197.769L115.492 197.785L115.394 197.8L115.321 197.818L115.224 197.833L115.126 197.848L115.028 197.863L114.93 197.878L114.844 197.894L114.759 197.91L114.661 197.925L114.564 197.94L114.466 197.954L114.368 197.968L114.293 197.985L114.197 197.999L114.099 198.014L114.001 198.027L113.903 198.041L113.816 198.056L113.731 198.072L113.633 198.085L113.535 198.099L113.437 198.112L113.339 198.126L113.264 198.141L113.168 198.155L113.069 198.168L112.971 198.181L112.873 198.194L112.786 198.208L112.702 198.222L112.603 198.234L112.505 198.247L112.407 198.259L112.309 198.272L112.234 198.287L112.137 198.299L112.039 198.311L111.94 198.323L111.842 198.335L111.755 198.348L111.67 198.361L111.572 198.373L111.473 198.384L111.375 198.396L111.277 198.407L111.201 198.421L111.105 198.432L111.006 198.443L110.908 198.454L110.809 198.465L110.722 198.477L110.637 198.49L110.539 198.5L110.44 198.511L110.342 198.521L110.243 198.531L110.168 198.545L110.071 198.555L109.972 198.565L109.874 198.575L109.775 198.584L109.687 198.596L109.603 198.607L109.504 198.617L109.406 198.626L109.307 198.635L109.208 198.645L109.133 198.657L109.036 198.666L108.937 198.675L108.838 198.684L108.74 198.693L108.651 198.703L108.567 198.714L108.468 198.722L108.37 198.73L108.271 198.739L108.172 198.747L108.096 198.758L107.999 198.767L107.901 198.775L107.802 198.782L107.703 198.79L107.615 198.799L107.53 198.809L107.431 198.817L107.333 198.824L107.234 198.831L107.135 198.838L107.059 198.849L106.962 198.856L106.863 198.863L106.764 198.87L106.665 198.877L106.577 198.885L106.492 198.894L106.393 198.9L106.295 198.906L106.196 198.913L106.097 198.919L106.02 198.928L105.924 198.935L105.825 198.941L105.726 198.946L105.627 198.952L105.538 198.959L105.453 198.967L105.354 198.973L105.256 198.978L105.157 198.983L105.058 198.988L104.981 198.997L104.884 199.002L104.785 199.007L104.686 199.012L104.587 199.016L104.498 199.023L104.414 199.03L104.315 199.034L104.216 199.038L104.117 199.042L104.018 199.046L103.94 199.054L103.844 199.059L103.745 199.063L103.646 199.066L103.547 199.07L103.457 199.075L103.373 199.081L103.274 199.085L103.175 199.088L103.076 199.091L102.977 199.094L102.9 199.101L102.803 199.104L102.704 199.107L102.605 199.11L102.506 199.112L102.416 199.116L102.332 199.122L102.233 199.124L102.134 199.126L102.035 199.128L101.936 199.13L101.858 199.137L101.762 199.139L101.663 199.141L101.564 199.142L101.465 199.144L101.375 199.147L101.291 199.152L101.192 199.153L101.093 199.154L100.993 199.155L100.894 199.156L100.816 199.161L100.72 199.162L100.621 199.163L100.522 199.164L100.423 199.164L100.333 199.166L100.249 199.17L100.15 199.17L100.051 199.17L99.9516 199.17L99.8524 199.17L99.7743 199.175L99.6785 199.175L99.5793 199.175L99.4802 199.174L99.381 199.174L99.2906 199.175L99.207 199.178L99.1078 199.177L99.0087 199.176L98.9095 199.175L98.8104 199.174L98.732 199.177L98.6364 199.177L98.5372 199.175L98.438 199.174L98.3389 199.172L98.2483 199.172L98.1648 199.174L98.0657 199.172L97.9665 199.17L97.8674 199.168L97.7682 199.166L97.6897 199.169L97.5942 199.167L97.495 199.165L97.3959 199.162L97.2967 199.16L97.206 199.159L97.1227 199.16L97.0235 199.157L96.9244 199.154L96.8252 199.151L96.7261 199.148L96.6474 199.15L96.552 199.147L96.4529 199.144L96.3538 199.14L96.2547 199.136L96.1638 199.135L96.0806 199.135L95.9815 199.131L95.8824 199.127L95.7833 199.123L95.6842 199.118L95.6053 199.119L95.5101 199.116L95.411 199.111L95.3119 199.107L95.2128 199.102L95.1218 199.099L95.0388 199.099L94.9397 199.094L94.8406 199.089L94.7416 199.083L94.6425 199.078L94.5634 199.078L94.4685 199.074L94.3694 199.068L94.2704 199.063L94.1713 199.057L94.0802 199.053L93.9973 199.052L93.8983 199.046L93.7992 199.04L93.7002 199.033L93.6012 199.027L93.522 199.026L93.4272 199.021L93.3282 199.014L93.2292 199.008L93.1302 199.001L93.039 198.996L92.9563 198.994L92.8577 198.987L92.7587 198.98L92.6598 198.972L92.5608 198.965L92.4814 198.963L92.3869 198.957L92.2879 198.95L92.189 198.942L92.0901 198.934L91.9987 198.928L91.9162 198.925L91.8173 198.917L91.7184 198.909L91.6195 198.901L91.5207 198.892L91.4412 198.89L91.3468 198.883L91.2479 198.874L91.1491 198.865L91.0503 198.856L90.9588 198.85L90.8765 198.846L90.7776 198.837L90.6788 198.827L90.58 198.818L90.4812 198.809L90.4016 198.805L90.3075 198.797L90.2087 198.787L90.1099 198.778L90.0112 198.768L89.9196 198.76L89.8375 198.755L89.7388 198.745L89.6401 198.735L89.5413 198.725L89.4427 198.714L89.3629 198.71L89.2691 198.701L89.1704 198.69L89.0717 198.679L88.9731 198.668L88.8814 198.66L88.7995 198.654L88.7008 198.643L88.6022 198.632L88.5036 198.62L88.405 198.609L88.3251 198.604L88.2315 198.594L88.1329 198.582L88.0343 198.57L87.9358 198.558L87.8441 198.548L87.7624 198.542L87.6638 198.53L87.5654 198.517L87.4669 198.505L87.3684 198.492L87.2885 198.486L87.1951 198.475L87.0966 198.463L86.9982 198.45L86.8997 198.437L86.808 198.426L86.7265 198.419L86.6281 198.406L86.5298 198.392L86.4314 198.379L86.3331 198.365L86.2531 198.358L86.16 198.346L86.0617 198.333L85.9633 198.319L85.865 198.305L85.7732 198.293L85.692 198.285L85.5937 198.271L85.4955 198.256L85.3973 198.242L85.299 198.227L85.2189 198.219L85.1261 198.206L85.0279 198.192L84.9297 198.177L84.8316 198.162L84.7397 198.149L84.6587 198.14L84.5606 198.125L84.4625 198.109L84.3644 198.094L84.2663 198.078L84.1862 198.069L84.0936 198.056L83.9956 198.04L83.8976 198.024L83.7996 198.008L83.7077 197.994L83.627 197.984L83.529 197.968L83.431 197.952L83.3331 197.935L83.2352 197.918L83.155 197.909L83.0628 197.894L82.9649 197.877L82.867 197.86L82.7692 197.843L82.6774 197.828L82.5969 197.818L82.4991 197.8L82.4014 197.783L82.3036 197.765L82.2059 197.748L82.1256 197.737L82.0337 197.721L81.936 197.703L81.8384 197.685L81.7407 197.667L81.6488 197.651L81.5686 197.64L81.471 197.622L81.3734 197.603L81.2758 197.585L81.1782 197.566L81.0979 197.554L81.0063 197.538L80.9088 197.519L80.8113 197.5L80.7138 197.481L80.6219 197.464L80.542 197.452L80.4445 197.432L80.3471 197.413L80.2497 197.393L80.1524 197.374L80.0721 197.361L79.9808 197.344L79.8834 197.324L79.7861 197.304L79.6888 197.283L79.597 197.265L79.5173 197.253L79.4201 197.232L79.3229 197.212L79.2257 197.191L79.1286 197.17L79.0482 197.157L78.9572 197.138L78.8601 197.117L78.7631 197.096L78.666 197.075L78.5742 197.056L78.4948 197.042L78.3978 197.021L78.3008 196.999L78.2039 196.978L78.1069 196.956L78.0266 196.941L77.9359 196.922L77.839 196.9L77.7422 196.878L77.6454 196.856L77.5536 196.836L77.4745 196.821L77.3777 196.799L77.281 196.776L77.1842 196.754L77.0875 196.731L77.0072 196.715L76.9169 196.695L76.8202 196.672L76.7236 196.649L76.627 196.626L76.5353 196.605L76.4566 196.59L76.3601 196.566L76.2635 196.542L76.167 196.519L76.0705 196.495L75.9902 196.479L75.9003 196.458L75.8039 196.434L75.7075 196.409L75.6111 196.385L75.5195 196.363L75.441 196.347L75.3447 196.322L75.2485 196.298L75.1522 196.273L75.0559 196.248L74.9756 196.231L74.8861 196.209L74.7899 196.184L74.6938 196.159L74.5977 196.133L74.5061 196.11L74.428 196.093L74.3319 196.068L74.2359 196.042L74.1399 196.017L74.044 195.991L73.9637 195.972L73.8745 195.95L73.7786 195.924L73.6827 195.897L73.5868 195.871L73.4954 195.847L73.4176 195.829L73.3219 195.803L73.2261 195.776L73.1303 195.749L73.0346 195.722L72.9544 195.703L72.8656 195.68L72.77 195.652L72.6744 195.625L72.5788 195.598L72.4875 195.573L72.41 195.554L72.3145 195.527L72.219 195.499L72.1236 195.471L72.0281 195.443L71.948 195.423L71.8596 195.399L71.7643 195.371L71.669 195.342L71.5737 195.314L71.4825 195.288L71.4054 195.269L71.3101 195.24L71.2149 195.211L71.1198 195.182L71.0246 195.154L70.9446 195.132L70.8566 195.107L70.7615 195.078L70.6665 195.049L70.5715 195.019L70.4804 194.992L70.4037 194.972L70.3087 194.943L70.2138 194.913L70.119 194.883L70.0241 194.853L69.9442 194.831L69.8566 194.805L69.7618 194.775L69.6671 194.745L69.5724 194.714L69.4815 194.686L69.4051 194.665L69.3105 194.634L69.2159 194.604L69.1213 194.573L69.0268 194.542L68.947 194.519L68.8599 194.492L68.7654 194.461L68.671 194.43L68.5766 194.398L68.4858 194.369L68.4098 194.347L68.3156 194.316L68.2214 194.284L68.1271 194.252L68.0329 194.22L67.9532 194.196L67.8664 194.169L67.7723 194.136L67.6783 194.104L67.5842 194.072L67.4936 194.041L67.418 194.019L67.3241 193.986L67.2301 193.954L67.1362 193.921L67.0423 193.888L66.9627 193.863L66.8764 193.834L66.7826 193.801L66.6889 193.768L66.5951 193.735L66.5048 193.703L66.4295 193.68L66.3359 193.647L66.2423 193.613L66.1487 193.579L66.0552 193.545L65.9757 193.519L65.8899 193.49L65.7964 193.456L65.7031 193.421L65.6097 193.387L65.5194 193.354L65.4446 193.331L65.3514 193.296L65.2581 193.262L65.1649 193.227L65.0717 193.192L64.9924 193.165L64.907 193.135L64.8139 193.1L64.7209 193.064L64.6279 193.029L64.5379 192.995L64.4635 192.971L64.3706 192.935L64.2776 192.9L64.1848 192.864L64.092 192.828L64.0128 192.8L63.9279 192.769L63.8352 192.733L63.7425 192.697L63.6499 192.66L63.5601 192.626L63.4861 192.6L63.3936 192.564L63.301 192.527L63.2086 192.491L63.1161 192.454L63.0371 192.425L62.9527 192.393L62.8604 192.356L62.768 192.319L62.6758 192.281L62.5862 192.246L62.5126 192.22L62.4204 192.182L62.3283 192.145L62.2362 192.107L62.1441 192.069L62.0653 192.039L61.9814 192.006L61.8894 191.968L61.7975 191.93L61.7057 191.892L61.6163 191.855L61.5432 191.829L61.4514 191.79L61.3597 191.751L61.268 191.713L61.1764 191.674L61.0977 191.643L61.0142 191.61L60.9226 191.571L60.8312 191.531L60.7397 191.492L60.6506 191.454L60.5779 191.427L60.4865 191.388L60.3952 191.348L60.3039 191.308L60.2127 191.269L60.1342 191.237L60.0513 191.203L59.9601 191.163L59.869 191.122L59.7779 191.082L59.6891 191.043L59.6168 191.015L59.5259 190.975L59.435 190.934L59.3441 190.894L59.2533 190.853L59.175 190.821L59.0926 190.785L59.0018 190.744L58.9112 190.703L58.8205 190.662L58.732 190.622L58.6601 190.593L58.5696 190.552L58.4791 190.51L58.3887 190.469L58.2983 190.427L58.2202 190.394L58.1383 190.358L58.048 190.316L57.9577 190.274L57.8676 190.232L57.7793 190.191L57.7079 190.161L57.6178 190.119L57.5277 190.076L57.4378 190.034L57.3478 189.991L57.27 189.957L57.1886 189.92L57.0987 189.877L57.0089 189.834L56.9192 189.791L56.8312 189.749L56.7603 189.719L56.6706 189.676L56.581 189.632L56.4914 189.589L56.4019 189.545L56.3244 189.51L56.2435 189.472L56.1542 189.428L56.0648 189.384L55.9755 189.34L55.8878 189.297L55.8173 189.267L55.7281 189.222L55.639 189.178L55.5499 189.133L55.4608 189.089L55.3835 189.053L55.3032 189.014L55.2143 188.97L55.1254 188.925L55.0366 188.88L54.9492 188.836L54.8792 188.804L54.7905 188.759L54.7018 188.714L54.6132 188.668L54.5246 188.623L54.4476 188.586L54.3678 188.546L54.2793 188.501L54.1909 188.455L54.1025 188.409L54.0155 188.364L53.946 188.332L53.8577 188.286L53.7695 188.24L53.6814 188.193L53.5933 188.147L53.5165 188.109L53.4372 188.069L53.3492 188.022L53.2612 187.975L53.1734 187.928L53.0867 187.882L53.0177 187.85L52.9299 187.802L52.8422 187.755L52.7545 187.708L52.6669 187.661L52.5904 187.622L52.5117 187.581L52.4242 187.533L52.3368 187.486L52.2494 187.438L52.163 187.391L52.0945 187.357L52.0072 187.309L51.92 187.261L51.8328 187.213L51.7457 187.165L51.6695 187.125L51.5913 187.084L51.5044 187.035L51.4174 186.986L51.3305 186.938L51.2446 186.89L51.1766 186.856L51.0898 186.807L51.0031 186.758L50.9164 186.709L50.8298 186.659L50.7539 186.618L50.6763 186.576L50.5898 186.527L50.5034 186.477L50.417 186.428L50.3314 186.379L50.2639 186.344L50.1776 186.294L50.0914 186.244L50.0053 186.194L49.9192 186.144L49.8436 186.102L49.7666 186.059L49.6806 186.009L49.5947 185.959L49.5088 185.908L49.4237 185.858L49.3567 185.823L49.2709 185.772L49.1852 185.721L49.0996 185.67L49.014 185.619L48.9387 185.576L48.8624 185.533L48.7769 185.481L48.6915 185.43L48.6062 185.379L48.5214 185.328L48.4549 185.292L48.3697 185.24L48.2846 185.188L48.1995 185.136L48.1145 185.085L48.0395 185.041L47.9637 184.997L47.8788 184.944L47.7939 184.892L47.7091 184.84L47.6248 184.788L47.5588 184.751L47.4742 184.699L47.3895 184.646L47.305 184.593L47.2205 184.54L47.1459 184.496L47.0707 184.451L46.9863 184.398L46.902 184.345L46.8178 184.292L46.7338 184.238L46.6684 184.201L46.5843 184.148L46.5003 184.094L46.4162 184.041L46.3323 183.987L46.258 183.942L46.1834 183.896L46.0997 183.842L46.0159 183.788L45.9322 183.734L45.8487 183.68L45.7838 183.642L45.7002 183.587L45.6168 183.533L45.5333 183.479L45.4499 183.424L45.3761 183.378L45.302 183.331L45.2188 183.276L45.1357 183.222L45.0525 183.167L44.9695 183.112L44.9051 183.073L44.8221 183.018L44.7392 182.963L44.6563 182.907L44.5735 182.852L44.5 182.805L44.4266 182.757L44.344 182.702L44.2613 182.646L44.1788 182.59L44.0963 182.534L44.0323 182.495L43.95 182.439L43.8676 182.383L43.7853 182.327L43.7031 182.27L43.63 182.222L43.5573 182.174L43.4752 182.118L43.3931 182.061L43.3112 182.004L43.2293 181.948L43.1656 181.908L43.0839 181.851L43.0022 181.794L42.9205 181.737L42.8389 181.68L42.7661 181.631L42.694 181.582L42.6125 181.525L42.531 181.467L42.4497 181.41L42.3684 181.352L42.305 181.311L42.2241 181.253L42.143 181.196L42.0618 181.138L41.9808 181.08L41.9086 181.03L41.8371 180.981L41.7562 180.922L41.6753 180.864L41.5946 180.806L41.5139 180.747L41.4508 180.705L41.3707 180.647L41.2901 180.588L41.2096 180.53L41.1291 180.471L41.0573 180.42L40.9865 180.37L40.9062 180.311L40.826 180.252L40.7458 180.193L40.6657 180.133L40.603 180.091L40.5235 180.032L40.4436 179.972L40.3637 179.913L40.2839 179.853L40.2124 179.801L40.1422 179.751L40.0625 179.691L39.983 179.631L39.9034 179.571L39.8239 179.511L39.7615 179.467L39.6828 179.408L39.6035 179.347L39.5243 179.287L39.4451 179.226L39.374 179.174L39.3045 179.122L39.2254 179.062L39.1465 179.001L39.0676 178.94L38.9887 178.879L38.9267 178.835L38.8488 178.774L38.77 178.713L38.6915 178.652L38.6129 178.59L38.5423 178.537L38.4735 178.485L38.3951 178.424L38.3167 178.362L38.2384 178.3L38.1602 178.238L38.0986 178.194L38.0214 178.132L37.9434 178.07L37.8654 178.008L37.7875 177.946L37.7173 177.892L37.6491 177.839L37.5714 177.777L37.4937 177.714L37.416 177.652L37.3385 177.589L37.2772 177.544L37.2008 177.482L37.1234 177.419L37.046 177.356L36.9687 177.293L36.8991 177.238L36.8315 177.185L36.7545 177.122L36.6774 177.058L36.6004 176.995L36.5235 176.931L36.4627 176.885L36.3869 176.822L36.3102 176.759L36.2335 176.695L36.1569 176.631L36.0877 176.575L36.0209 176.522L35.9444 176.458L35.868 176.393L35.7917 176.329L35.7155 176.265L35.6551 176.218L35.5801 176.155L35.504 176.09L35.428 176.025L35.352 175.961L35.2833 175.904L35.2172 175.85L35.1414 175.785L35.0657 175.72L34.9901 175.655L34.9145 175.59L34.8545 175.542L34.7803 175.478L34.7049 175.413L34.6295 175.348L34.5543 175.282L34.486 175.224L34.4206 175.17L34.3455 175.104L34.2705 175.038L34.1955 174.973L34.1206 174.907L34.061 174.858L33.9876 174.793L33.9129 174.727L33.8382 174.661L33.7636 174.595L33.6959 174.536L33.6311 174.481L33.5567 174.415L33.4823 174.348L33.4081 174.282L33.3339 174.215L33.2746 174.165L33.2021 174.1L33.1281 174.033L33.054 173.967L32.9801 173.9L32.9129 173.84L32.8488 173.784L32.7752 173.717L32.7015 173.65L32.6279 173.582L32.5544 173.515L32.4956 173.465L32.4238 173.399L32.3505 173.331L32.2772 173.264L32.204 173.196L32.1373 173.136L32.0739 173.079L32.001 173.011L31.9281 172.943L31.8551 172.875L31.7824 172.807L31.724 172.756L31.653 172.689L31.5804 172.621L31.5078 172.553L31.4353 172.484L31.3692 172.423L31.3065 172.366L31.2342 172.297L31.162 172.228L31.0898 172.16L31.0177 172.091L30.9599 172.039L30.8897 171.972L30.8177 171.903L30.7459 171.833L30.6741 171.764L30.6085 171.702L30.5466 171.645L30.475 171.575L30.4035 171.506L30.332 171.436L30.2606 171.366L30.2032 171.314L30.1338 171.246L30.0626 171.176L29.9915 171.106L29.9204 171.036L29.8554 170.973L29.7942 170.915L29.7234 170.845L29.6525 170.775L29.5819 170.704L29.5112 170.634L29.4542 170.581L29.3856 170.512L29.3152 170.442L29.2448 170.371L29.1745 170.3L29.11 170.237L29.0495 170.178L28.9794 170.107L28.9093 170.036L28.8393 169.965L28.7694 169.894L28.7129 169.84L28.6451 169.771L28.5754 169.7L28.5057 169.628L28.4362 169.557L28.3723 169.492L28.3125 169.433L28.2431 169.361L28.1738 169.29L28.1045 169.218L28.0354 169.146L27.9794 169.091L27.9124 169.022L27.8435 168.95L27.7745 168.877L27.7057 168.805L27.6424 168.74L27.5834 168.68L27.5147 168.608L27.4462 168.535L27.3777 168.463L27.3092 168.39L27.2538 168.335L27.1877 168.265L27.1194 168.192L27.0513 168.119L26.9832 168.046L26.9204 167.98L26.8622 167.92L26.7942 167.847L26.7265 167.774L26.6587 167.7L26.591 167.627L26.5361 167.571L26.4708 167.5L26.4033 167.427L26.3359 167.353L26.2686 167.279L26.2065 167.213L26.149 167.152L26.0818 167.078L26.0147 167.004L25.9478 166.93L25.8809 166.856L25.8264 166.799L25.762 166.728L25.6953 166.654L25.6287 166.579L25.5621 166.505L25.5005 166.438L25.4438 166.376L25.3775 166.302L25.3111 166.227L25.245 166.153L25.1789 166.078L25.1249 166.02L25.0613 165.949L24.9954 165.874L24.9295 165.799L24.8637 165.723L24.8029 165.655L24.7468 165.594L24.6813 165.518L24.6158 165.443L24.5504 165.368L24.4851 165.292L24.4317 165.234L24.3689 165.162L24.3038 165.086L24.2387 165.01L24.1737 164.935L24.1135 164.866L24.0581 164.803L23.9934 164.728L23.9287 164.652L23.864 164.576L23.7995 164.499L23.7467 164.44L23.6847 164.368L23.6203 164.291L23.5561 164.215L23.4918 164.138L23.4323 164.069L23.3778 164.006L23.3138 163.929L23.2498 163.853L23.186 163.776L23.1222 163.699L23.07 163.639L23.0089 163.566L22.9454 163.489L22.8819 163.412L22.8184 163.335L22.7595 163.264L22.7058 163.201L22.6425 163.124L22.5795 163.047L22.5164 162.969L22.4534 162.892L22.4018 162.831L22.3415 162.758L22.2788 162.68L22.2161 162.602L22.1535 162.525L22.0952 162.453L22.0422 162.39L21.9798 162.312L21.9175 162.234L21.8553 162.156L21.7931 162.078L21.742 162.016L21.6827 161.942L21.6207 161.864L21.5588 161.786L21.497 161.707L21.4394 161.635L21.3872 161.571L21.3256 161.493L21.2641 161.414L21.2027 161.335L21.1414 161.256L21.0908 161.195L21.0324 161.12L20.9712 161.041L20.9101 160.962L20.8492 160.883L20.7922 160.81L20.7408 160.746L20.6801 160.666L20.6194 160.587L20.5588 160.508L20.4983 160.428L20.4483 160.366L20.3907 160.291L20.3304 160.211L20.2702 160.131L20.21 160.052L20.1537 159.978L20.1031 159.913L20.0432 159.833L19.9833 159.754L19.9235 159.674L19.8639 159.594L19.8145 159.53L19.7577 159.455L19.6983 159.374L19.639 159.294L19.5796 159.214L19.5241 159.139L19.4742 159.074L19.4151 158.994L19.3561 158.913L19.2972 158.833L19.2384 158.752L19.1896 158.688L19.1337 158.612L19.0751 158.531L19.0166 158.45L18.9581 158.369L18.9033 158.294L18.8542 158.229L18.7959 158.148L18.7378 158.067L18.6797 157.985L18.6217 157.904L18.5736 157.839L18.5186 157.763L18.4608 157.681L18.4031 157.6L18.3455 157.518L18.2913 157.443L18.243 157.377L18.1856 157.295L18.1283 157.213L18.0711 157.131L18.0139 157.049L17.9664 156.984L17.9123 156.907L17.8554 156.825L17.7985 156.743L17.7418 156.661L17.6884 156.584L17.6409 156.518L17.5844 156.436L17.5279 156.354L17.4715 156.271L17.4153 156.189L17.3683 156.123L17.3152 156.045L17.2591 155.963L17.2031 155.88L17.1473 155.797L17.0945 155.72L17.0478 155.653L16.9922 155.57L16.9366 155.487L16.8811 155.404L16.8257 155.321L16.7794 155.255L16.7271 155.177L16.6719 155.094L16.6168 155.01L16.5618 154.927L16.5098 154.849L16.4638 154.782L16.4091 154.699L16.3544 154.615L16.2997 154.532L16.2452 154.448L16.1995 154.381L16.1481 154.302L16.0939 154.219L16.0396 154.135L15.9855 154.051L15.9343 153.972L15.8891 153.905L15.8352 153.821L15.7814 153.737L15.7276 153.653L15.674 153.568L15.629 153.5L15.5785 153.422L15.5251 153.338L15.4718 153.253L15.4184 153.169L15.368 153.089L15.3237 153.022L15.2706 152.937L15.2177 152.852L15.1648 152.768L15.112 152.683L15.0677 152.614L15.0182 152.535L14.9656 152.45L14.9131 152.365L14.8607 152.28L14.811 152.2L14.7676 152.132L14.7154 152.047L14.6633 151.962L14.6114 151.877L14.5595 151.791L14.5158 151.722L14.4672 151.643L14.4155 151.557L14.3639 151.472L14.3124 151.386L14.2635 151.306L14.2209 151.237L14.1696 151.152L14.1184 151.066L14.0674 150.98L14.0163 150.894L13.9733 150.824L13.9256 150.745L13.8749 150.659L13.8242 150.572L13.7736 150.486L13.7255 150.405L13.6836 150.336L13.6333 150.25L13.583 150.164L13.5328 150.077L13.4827 149.991L13.4404 149.921L13.3936 149.841L13.3438 149.754L13.2939 149.667L13.2443 149.581L13.197 149.499L13.1559 149.43L13.1065 149.343L13.0571 149.256L13.0078 149.169L12.9586 149.082L12.9171 149.011L12.8711 148.931L12.8222 148.844L12.7733 148.757L12.7246 148.67L12.678 148.587L12.6378 148.518L12.5893 148.43L12.5409 148.343L12.4924 148.256L12.4442 148.168L12.4033 148.097L12.3583 148.016L12.3103 147.928L12.2624 147.841L12.2145 147.753L12.1688 147.67L12.1294 147.6L12.0817 147.512L12.0343 147.424L11.9868 147.337L11.9394 147.249L11.8993 147.176L11.8552 147.095L11.8081 147.007L11.7611 146.919L11.7142 146.831L11.6693 146.747L11.6307 146.677L11.584 146.589L11.5374 146.5L11.4909 146.412L11.4444 146.324L11.405 146.251L11.3619 146.169L11.3157 146.081L11.2697 145.992L11.2236 145.904L11.1795 145.819L11.1418 145.749L11.096 145.66L11.0504 145.571L11.0048 145.482L10.9593 145.393L10.9205 145.32L10.8784 145.238L10.8331 145.149L10.788 145.06L10.7429 144.971L10.6996 144.886L10.6627 144.816L10.6179 144.726L10.5731 144.637L10.5285 144.548L10.484 144.458L10.446 144.384L10.4047 144.302L10.3604 144.213L10.3162 144.123L10.2721 144.033L10.2296 143.948L10.1936 143.877L10.1497 143.787L10.1059 143.698L10.0622 143.608L10.0186 143.518L9.98129 143.443L9.941 143.361L9.89767 143.271L9.85431 143.181L9.81119 143.091L9.76964 143.005L9.73435 142.934L9.69147 142.844L9.64863 142.753L9.60585 142.663L9.56323 142.573L9.5267 142.498L9.48732 142.415L9.44495 142.325L9.40259 142.234L9.36038 142.144L9.31967 142.057L9.28522 141.986L9.24326 141.895L9.20139 141.804L9.15956 141.713L9.11789 141.623L9.08211 141.547L9.04364 141.464L9.00224 141.373L8.96085 141.282L8.91956 141.191L8.87977 141.104L8.84616 141.033L8.8051 140.941L8.76423 140.85L8.72335 140.759L8.68261 140.668L8.64766 140.592L8.61014 140.509L8.56965 140.417L8.52928 140.326L8.48893 140.235L8.45 140.146L8.41727 140.075L8.37716 139.984L8.33727 139.892L8.29738 139.8L8.25756 139.709L8.22341 139.632L8.18685 139.549L8.14728 139.457L8.1079 139.365L8.06852 139.273L8.03042 139.185L7.99856 139.113L7.95945 139.021L7.92047 138.929L7.88154 138.837L7.8427 138.745L7.8093 138.668L7.77371 138.584L7.73507 138.492L7.69669 138.4L7.65831 138.307L7.62106 138.218L7.59005 138.146L7.55193 138.054L7.51388 137.962L7.47598 137.869L7.43813 137.777L7.40546 137.699L7.37084 137.615L7.33322 137.523L7.29576 137.43L7.25837 137.337L7.22202 137.248L7.19183 137.175L7.15472 137.083L7.1176 136.99L7.08071 136.897L7.04385 136.804L7.01194 136.726L6.97829 136.642L6.94168 136.549L6.90514 136.456L6.86874 136.363L6.83334 136.273L6.80397 136.2L6.76785 136.107L6.73172 136.014L6.69577 135.921L6.65992 135.828L6.62881 135.749L6.5961 135.665L6.56051 135.571L6.52492 135.478L6.48951 135.384L6.45504 135.294L6.42647 135.221L6.39135 135.128L6.35626 135.034L6.32125 134.941L6.28638 134.847L6.25612 134.768L6.22431 134.683L6.18973 134.59L6.15515 134.496L6.12072 134.402L6.08719 134.311L6.05946 134.238L6.02529 134.144L5.99124 134.05L5.95719 133.956L5.92332 133.862L5.8939 133.783L5.863 133.698L5.82942 133.604L5.79585 133.51L5.76239 133.416L5.72979 133.324L5.70295 133.251L5.66973 133.157L5.63667 133.062L5.60364 132.968L5.57073 132.874L5.54216 132.794L5.51224 132.709L5.47962 132.615L5.44706 132.52L5.41457 132.425L5.38289 132.333L5.35693 132.26L5.32467 132.166L5.29265 132.071L5.26063 131.976L5.22868 131.882L5.20094 131.801L5.172 131.716L5.14032 131.621L5.10883 131.526L5.07736 131.432L5.04655 131.339L5.02145 131.266L4.99024 131.171L4.95918 131.076L4.92818 130.981L4.89724 130.886L4.87034 130.805L4.84235 130.72L4.81164 130.625L4.78119 130.529L4.75073 130.434L4.72084 130.341L4.69661 130.268L4.66642 130.173L4.63631 130.077L4.60635 129.982L4.57645 129.887L4.55033 129.805L4.52334 129.72L4.49366 129.624L4.46416 129.529L4.43473 129.433L4.40579 129.34L4.38241 129.267L4.35324 129.171L4.32409 129.075L4.29517 128.98L4.26629 128.884L4.24097 128.802L4.21495 128.717L4.18632 128.621L4.15779 128.525L4.12937 128.429L4.10143 128.335L4.07885 128.262L4.05072 128.166L4.0226 128.07L3.99469 127.974L3.96683 127.878L3.94233 127.796L3.91727 127.71L3.88969 127.614L3.86212 127.518L3.83477 127.422L3.80781 127.327L3.78602 127.254L3.75892 127.158L3.73185 127.061L3.7049 126.965L3.67807 126.869L3.65447 126.786L3.63034 126.701L3.60378 126.604L3.57722 126.508L3.55086 126.411L3.52489 126.316L3.50394 126.243L3.47786 126.146L3.45183 126.05L3.42585 125.953L3.40006 125.857L3.37735 125.774L3.35413 125.688L3.32863 125.591L3.30312 125.495L3.27774 125.398L3.25276 125.302L3.23268 125.229L3.20756 125.132L3.18261 125.035L3.15765 124.939L3.13285 124.842L3.11103 124.758L3.08875 124.672L3.06426 124.576L3.03981 124.479L3.01541 124.382L2.99143 124.286L2.97221 124.212L2.94809 124.115L2.92417 124.018L2.90025 123.921L2.87646 123.824L2.85553 123.74L2.83422 123.654L2.81071 123.557L2.78732 123.46L2.76396 123.363L2.74092 123.266L2.72258 123.193L2.69948 123.095L2.67658 122.998L2.6537 122.901L2.63091 122.803L2.61088 122.719L2.59056 122.633L2.56801 122.536L2.54568 122.438L2.52336 122.341L2.50126 122.244L2.48379 122.171L2.46176 122.073L2.43983 121.975L2.41802 121.878L2.39625 121.78L2.37707 121.696L2.35772 121.61L2.33619 121.512L2.31491 121.414L2.29364 121.317L2.27249 121.219L2.2559 121.146L2.2349 121.048L2.21397 120.95L2.19322 120.853L2.17251 120.755L2.15417 120.67L2.13579 120.584L2.11532 120.486L2.09502 120.388L2.0748 120.29L2.05468 120.193L2.0389 120.119L2.01895 120.021L1.99901 119.923L1.97932 119.825L1.95966 119.727L1.94216 119.641L1.92476 119.555L1.90536 119.457L1.88604 119.359L1.86687 119.261L1.84779 119.163L1.83281 119.09L1.81393 118.991L1.79504 118.893L1.77634 118.795L1.75773 118.697L1.74113 118.611L1.72467 118.525L1.70634 118.427L1.68801 118.328L1.6699 118.23L1.65185 118.132L1.63767 118.058L1.61983 117.96L1.60202 117.861L1.58431 117.763L1.56675 117.665L1.55108 117.578L1.53553 117.492L1.51825 117.394L1.50097 117.296L1.48387 117.197L1.46688 117.099L1.45348 117.025L1.43667 116.926L1.41993 116.828L1.40322 116.729L1.38671 116.63L1.37198 116.544L1.35734 116.458L1.34111 116.359L1.32489 116.261L1.3088 116.162L1.29286 116.063L1.28029 115.989L1.26449 115.891L1.24882 115.792L1.23316 115.693L1.21765 115.594L1.20385 115.508L1.19016 115.422L1.17495 115.323L1.1598 115.224L1.1447 115.125L1.12981 115.026L1.11806 114.952L1.10329 114.853L1.08868 114.754L1.07408 114.656L1.05957 114.557L1.04671 114.47L1.03398 114.384L1.01976 114.285L1.00568 114.186L0.991646 114.087L0.977744 113.988L0.966815 113.913L0.953103 113.814L0.939519 113.715L0.925973 113.616L0.912478 113.517L0.900548 113.43L0.888777 113.344L0.875544 113.245L0.862548 113.146L0.849568 113.047L0.836654 112.947L0.826563 112.872L0.813942 112.774L0.801339 112.675L0.788852 112.576L0.776438 112.476L0.765377 112.389L0.754571 112.303L0.742371 112.204L0.730403 112.104L0.718482 112.005L0.706571 111.906L0.697307 111.83L0.685763 111.732L0.674152 111.633L0.662742 111.533L0.651383 111.434L0.641191 111.346L0.631348 111.26L0.620225 111.161L0.60925 111.062L0.598388 110.962L0.587551 110.863L0.57905 110.787L0.568573 110.689L0.557995 110.589L0.547618 110.49L0.537323 110.39L0.528011 110.302L0.519113 110.216L0.509071 110.117L0.49908 110.017L0.489279 109.918L0.479526 109.818L0.47179 109.743L0.462372 109.644L0.452854 109.545L0.443482 109.445L0.434246 109.346L0.425888 109.257L0.417869 109.172L0.408903 109.072L0.399951 108.972L0.391157 108.873L0.382482 108.773L0.375532 108.697L0.367161 108.599L0.358704 108.499L0.35033 108.4L0.342154 108.3L0.334753 108.211L0.327613 108.126L0.319721 108.026L0.311828 107.926L0.304028 107.827L0.296419 107.727L0.290316 107.651L0.282926 107.552L0.275547 107.453L0.26822 107.353L0.261042 107.253L0.254602 107.164L0.248371 107.079L0.24151 106.979L0.234677 106.879L0.22788 106.78L0.221331 106.68L0.216073 106.603L0.20966 106.505L0.203359 106.405L0.197092 106.306L0.190896 106.206L0.185428 106.117L0.180149 106.031L0.174266 105.931L0.168494 105.832L0.162769 105.732L0.157205 105.632L0.152801 105.555L0.147403 105.457L0.142133 105.357L0.136927 105.257L0.13172 105.158L0.127211 105.068L0.122882 104.983L0.117979 104.883L0.113267 104.783L0.108617 104.683L0.10403 104.583L0.100479 104.506L0.0961299 104.409L0.0918559 104.309L0.0877087 104.209L0.0835627 104.109L0.079941 104.019L0.0765562 103.934L0.0726918 103.834L0.0689851 103.734L0.0654032 103.634L0.0618205 103.534L0.059096 103.457L0.0558046 103.359L0.0525075 103.26L0.0494188 103.16L0.0463483 103.06L0.043608 102.97L0.0411569 102.885L0.0383509 102.785L0.0356328 102.685L0.0331089 102.585L0.0305851 102.485L0.028636 102.408L0.0263994 102.31L0.0241569 102.21L0.0220429 102.11L0.0200446 102.01L0.0182383 101.92L0.0166674 101.835L0.0149184 101.735L0.0132065 101.635L0.0117177 101.535L0.0102508 101.435L0.00907618 101.358L0.00788991 101.26L0.00670517 101.16L0.00555874 101.06L0.00463106 100.96L0.00379438 100.87L0.00306248 100.785L0.00236967 100.685L0.00172842 100.585L0.00120652 100.486L0.000795358 100.386L0.000475689 100.308L0.00024978 100.211L0.000114736 100.111L0 100.011L7.73904e-05 99.9106L0.00018924 99.8202L0.000351047 99.7356L0.000706266 99.6356L0.00109972 99.5357L0.00156955 99.4357L0.00222039 99.3357L0.00274517 99.2578L0.00349422 99.1607L0.00438923 99.0607L0.0053359 98.9608L0.00640475 98.8608L0.00749266 98.7703L0.00852155 98.6859L0.00988265 98.5858L0.0113494 98.4859L0.012818 98.3859L0.0144871 98.2859L0.0159024 98.2079L0.0176075 98.111L0.0195189 98.0111L0.0215587 97.9111L0.0235976 97.8111L0.0256423 97.7205L0.0276199 97.6362L0.0299448 97.5362L0.0324462 97.4363L0.0350209 97.3363L0.0376319 97.2364L0.0399175 97.1582L0.042667 97.0615L0.0455361 96.9616L0.0486405 96.8616L0.0517541 96.7617L0.0546657 96.6709L0.0575931 96.5868L0.0609931 96.4869L0.0644162 96.3869L0.0680952 96.287L0.0717813 96.1871L0.0748132 96.1087L0.078608 96.0123L0.082582 95.9123L0.0866094 95.8124L0.090812 95.7126L0.0947306 95.6217L0.0984551 95.5378L0.102933 95.4379L0.107433 95.338L0.112066 95.2381L0.116828 95.1382L0.120725 95.0597L0.125477 94.9635L0.130527 94.8636L0.135576 94.7637L0.140792 94.6639L0.145718 94.5729L0.150305 94.4892L0.155778 94.3894L0.161386 94.2895L0.16701 94.1897L0.172788 94.0899L0.177592 94.0113L0.183303 93.9152L0.189385 93.8154L0.195517 93.7157L0.201714 93.6158L0.207626 93.5247L0.213142 93.4413L0.219572 93.3415L0.226263 93.2417L0.23296 93.142L0.239702 93.0422L0.245414 92.9635L0.25216 92.8677L0.259174 92.768L0.266414 92.6683L0.273687 92.5685L0.280468 92.4773L0.286918 92.394L0.294456 92.2943L0.30208 92.1947L0.309855 92.095L0.31769 91.9953L0.324181 91.9165L0.331965 91.8209L0.340028 91.7212L0.348263 91.6216L0.356609 91.522L0.364368 91.4307L0.371651 91.3477L0.380284 91.2481L0.388922 91.1484L0.397723 91.0488L0.406643 90.9492L0.41396 90.8704L0.422716 90.775L0.431887 90.6755L0.441098 90.5759L0.450484 90.4764L0.459282 90.385L0.467374 90.3022L0.477069 90.2027L0.486777 90.1032L0.496549 90.0037L0.506547 89.9042L0.514779 89.8253L0.524423 89.7302L0.534704 89.6307L0.544985 89.5313L0.555323 89.4319L0.565162 89.3404L0.57418 89.2579L0.584814 89.1585L0.595622 89.0591L0.606476 88.9597L0.617416 88.8603L0.62657 88.7813L0.637242 88.6865L0.64849 88.5871L0.659847 88.4878L0.671247 88.3885L0.682018 88.297L0.691951 88.2147L0.703598 88.1154L0.715444 88.0161L0.727373 87.9169L0.739301 87.8176L0.749334 87.7386L0.761047 87.644L0.773261 87.5448L0.78568 87.4456L0.798181 87.3464L0.80985 87.2548L0.820695 87.1728L0.83343 87.0737L0.846234 86.9745L0.859242 86.8754L0.872275 86.7762L0.883102 86.6971L0.895832 86.6029L0.909119 86.5038L0.922509 86.4047L0.936081 86.3057L0.948783 86.2141L0.960402 86.1324L0.974246 86.0334L0.988105 85.9344L1.00207 85.8354L1.01621 85.7364L1.02793 85.6572L1.04158 85.5633L1.05594 85.4643L1.07037 85.3654L1.08495 85.2665L1.09869 85.1749L1.11114 85.0935L1.12603 84.9946L1.14096 84.8958L1.15592 84.7969L1.17111 84.6981L1.18374 84.6189L1.19827 84.5253L1.21375 84.4265L1.22925 84.3277L1.24478 84.2289L1.25957 84.1374L1.27293 84.0563L1.28876 83.9576L1.30476 83.8588L1.32083 83.7602L1.33697 83.6615L1.35053 83.5823L1.36607 83.489L1.38251 83.3904L1.39908 83.2918L1.41567 83.1932L1.4314 83.1016L1.44566 83.0208L1.46251 82.9223L1.47953 82.8238L1.49667 82.7253L1.51382 82.6268L1.52825 82.5476L1.54482 82.4546L1.56224 82.3562L1.57985 82.2578L1.59754 82.1594L1.61419 82.0678L1.62934 81.9873L1.64726 81.8889L1.66526 81.7906L1.68346 81.6923L1.70168 81.594L1.71693 81.5148L1.73452 81.4221L1.753 81.3239L1.77157 81.2257L1.79034 81.1275L1.80803 81.0359L1.82393 80.9558L1.84295 80.8577L1.86201 80.7595L1.88118 80.6614L1.90049 80.5633L1.91663 80.4841L1.93512 80.3918L1.95467 80.2938L1.97429 80.1957L1.99406 80.0977L2.01279 80.0062L2.02949 79.9264L2.04957 79.8285L2.06969 79.7306L2.08981 79.6327L2.11021 79.5348L2.12728 79.4556L2.14664 79.3636L2.16727 79.2658L2.18795 79.168L2.20867 79.0702L2.22847 78.9787L2.24605 78.8993L2.26708 78.8016L2.28826 78.7039L2.30948 78.6062L2.33081 78.5085L2.34882 78.4294L2.36915 78.3378L2.39078 78.2402L2.41252 78.1426L2.43427 78.045L2.45503 77.9536L2.47349 77.8746L2.49553 77.777L2.51772 77.6795L2.54003 77.5821L2.56233 77.4847L2.58124 77.4056L2.60255 77.3144L2.62514 77.217L2.64795 77.1197L2.67078 77.0223L2.69246 76.931L2.7118 76.8523L2.73488 76.7551L2.75804 76.6578L2.78141 76.5606L2.80478 76.4634L2.82451 76.3843L2.84682 76.2936L2.87047 76.1964L2.8942 76.0993L2.91811 76.0023L2.94083 75.911L2.96093 75.8326L2.98507 75.7356L3.00928 75.6387L3.03363 75.5417L3.05806 75.4448L3.07868 75.3657L3.10191 75.2754L3.1266 75.1785L3.15133 75.0817L3.17628 74.9849L3.20003 74.8937L3.22088 74.8157L3.24611 74.719L3.27137 74.6223L3.29665 74.5255L3.32217 74.4289L3.34371 74.35L3.36779 74.26L3.39354 74.1634L3.41935 74.0668L3.44524 73.9703L3.47003 73.8792L3.49172 73.8016L3.51792 73.7052L3.54423 73.6087L3.57056 73.5123L3.59705 73.4159L3.61952 73.3371L3.6445 73.2475L3.67126 73.1512L3.69812 73.0549L3.72499 72.9586L3.75081 72.8677L3.77336 72.7905L3.80049 72.6943L3.82783 72.5982L3.85523 72.5021L3.88266 72.4059L3.90606 72.3272L3.93199 72.2381L3.95973 72.1421L3.98763 72.0461L4.01553 71.9501L4.04229 71.8593L4.06571 71.7825L4.09389 71.6866L4.12217 71.5907L4.15062 71.4949L4.17907 71.3991L4.20333 71.3204L4.23023 71.2318L4.25897 71.136L4.28784 71.0403L4.31682 70.9447L4.34455 70.854L4.36872 70.7777L4.39794 70.6821L4.42723 70.5865L4.4567 70.491L4.48619 70.3955L4.51127 70.3169L4.53912 70.2288L4.56889 70.1334L4.59871 70.0379L4.62875 69.9426L4.65752 69.852L4.68242 69.7761L4.71269 69.6809L4.74301 69.5856L4.77341 69.4904L4.80399 69.3952L4.83 69.3168L4.85867 69.2291L4.88947 69.134L4.92032 69.0389L4.95131 68.9439L4.98113 68.8534L5.0068 68.778L5.03809 68.683L5.06944 68.5881L5.10079 68.4932L5.13238 68.3984L5.15932 68.3202L5.18882 68.2328L5.22066 68.1381L5.25255 68.0434L5.28447 67.9487L5.31533 67.8585L5.34182 67.7834L5.37405 67.6888L5.40642 67.5942L5.43883 67.4997L5.47135 67.4052L5.49922 67.327L5.52962 67.2403L5.56241 67.1458L5.59535 67.0514L5.62826 66.9571L5.66008 66.8671L5.68739 66.7925L5.72058 66.6982L5.75392 66.604L5.7874 66.5098L5.82087 66.4156L5.84963 66.3377L5.88096 66.2514L5.9147 66.1573L5.94863 66.0633L5.98261 65.9693L6.01537 65.8794L6.04348 65.8053L6.07769 65.7114L6.11197 65.6175L6.14646 65.5237L6.18094 65.4299L6.21055 65.352L6.2428 65.2663L6.27755 65.1726L6.31239 65.0789L6.3474 64.9853L6.38118 64.8957L6.41001 64.822L6.44525 64.7284L6.48054 64.6349L6.51597 64.5415L6.55148 64.4481L6.58195 64.3704L6.61506 64.2851L6.65085 64.1918L6.68664 64.0985L6.72265 64.0053L6.75746 63.9158L6.78696 63.8426L6.82323 63.7495L6.85954 63.6564L6.89588 63.5633L6.93243 63.4703L6.96383 63.3928L6.99772 63.308L7.03449 63.2151L7.07132 63.1222L7.10826 63.0293L7.14409 62.9401L7.17436 62.8674L7.21157 62.7747L7.24888 62.682L7.2862 62.5893L7.32372 62.4966L7.35605 62.4193L7.39077 62.3351L7.42852 62.2426L7.46636 62.1501L7.5042 62.0576L7.54106 61.9686L7.57213 61.8964L7.61024 61.804L7.64855 61.7117L7.6869 61.6195L7.7253 61.5272L7.75855 61.4501L7.79416 61.3664L7.83284 61.2743L7.87168 61.1822L7.91052 61.0901L7.94834 61.0014L7.98016 60.9297L8.01927 60.8377L8.0585 60.7458L8.09787 60.654L8.13724 60.5621L8.17133 60.4853L8.20781 60.4021L8.24744 60.3104L8.28724 60.2187L8.32711 60.1271L8.36587 60.0385L8.39844 59.9673L8.43853 59.8758L8.47868 59.7843L8.51903 59.6929L8.55941 59.6015L8.59434 59.5248L8.63169 59.4422L8.67232 59.3509L8.71298 59.2597L8.75387 59.1685L8.79367 59.0802L8.82688 59.0095L8.86798 58.9184L8.90912 58.8274L8.95036 58.7364L8.99173 58.6454L9.02756 58.569L9.06571 58.4869L9.10732 58.3961L9.14896 58.3053L9.19076 58.2145L9.23156 58.1265L9.26546 58.0564L9.30754 57.9657L9.34967 57.8751L9.3918 57.7845L9.43417 57.694L9.47092 57.6179L9.50978 57.5364L9.55238 57.4459L9.59504 57.3556L9.63772 57.2652L9.67954 57.1776L9.71418 57.108L9.75714 57.0178L9.80025 56.9276L9.8434 56.8375L9.88665 56.7474L9.92431 56.6715L9.964 56.5906L10.0075 56.5006L10.0511 56.4108L10.0948 56.3208L10.1376 56.2335L10.1729 56.1644L10.2168 56.0746L10.2608 55.985L10.305 55.8953L10.3491 55.8057L10.3877 55.73L10.4282 55.6497L10.4726 55.5602L10.5172 55.4708L10.5618 55.3814L10.6055 55.2943L10.6416 55.2258L10.6865 55.1365L10.7314 55.0473L10.7765 54.9581L10.8216 54.869L10.861 54.7936L10.9023 54.7139L10.9477 54.6248L10.9932 54.5359L11.0388 54.447L11.0834 54.3602L11.1202 54.2922L11.166 54.2034L11.2119 54.1147L11.2579 54.026L11.304 53.9373L11.3442 53.8622L11.3863 53.7831L11.4326 53.6946L11.479 53.6061L11.5255 53.5177L11.5713 53.4313L11.6086 53.3638L11.6554 53.2755L11.7022 53.1873L11.7491 53.0991L11.7961 53.0109L11.8373 52.9361L11.8801 52.8575L11.9274 52.7695L11.9747 52.6815L12.0221 52.5936L12.0688 52.5076L12.1069 52.4406L12.1546 52.3528L12.2023 52.2651L12.2501 52.1774L12.298 52.0898L12.3401 52.0153L12.3837 51.9373L12.4319 51.8498L12.4802 51.7623L12.5284 51.6749L12.5761 51.5892L12.6149 51.5229L12.6634 51.4356L12.7121 51.3483L12.7609 51.2611L12.8097 51.174L12.8526 51.0998L12.897 51.0225L12.946 50.9355L12.9953 50.8485L13.0445 50.7616L13.0931 50.6762L13.1325 50.6105L13.182 50.5238L13.2316 50.437L13.2813 50.3504L13.331 50.2637L13.3747 50.1899L13.4199 50.1132L13.4699 50.0267L13.52 49.9403L13.5701 49.8539L13.6197 49.7689L13.6598 49.7037L13.7102 49.6175L13.7606 49.5313L13.8113 49.4452L13.8619 49.3591L13.9065 49.2855L13.9524 49.2095L14.0033 49.1235L14.0543 49.0376L14.1054 48.9518L14.1559 48.8672L14.1966 48.8026L14.2479 48.7169L14.2993 48.6312L14.3508 48.5456L14.4023 48.4601L14.4478 48.3869L14.4944 48.3115L14.5463 48.2261L14.5981 48.1407L14.6501 48.0554L14.7016 47.9712L14.7429 47.9072L14.7951 47.8221L14.8474 47.737L14.8997 47.6519L14.9522 47.5669L14.9985 47.4941L15.0458 47.4193L15.0986 47.3345L15.1513 47.2497L15.2042 47.1649L15.2567 47.0811L15.2986 47.0177L15.3517 46.9331L15.4049 46.8486L15.4581 46.7641L15.5114 46.6796L15.5586 46.6071L15.6067 46.533L15.6603 46.4487L15.7139 46.3645L15.7676 46.2803L15.8211 46.1969L15.8637 46.1341L15.9176 46.0501L15.9717 45.9661L16.0258 45.8822L16.08 45.7983L16.128 45.7262L16.1768 45.6528L16.2312 45.569L16.2858 45.4853L16.3404 45.4017L16.3948 45.3187L16.438 45.2566L16.4928 45.1731L16.5477 45.0897L16.6028 45.0064L16.6578 44.9231L16.7067 44.8513L16.7562 44.7785L16.8115 44.6954L16.8669 44.6123L16.9224 44.5292L16.9777 44.4467L17.0215 44.3852L17.0772 44.3023L17.133 44.2195L17.1889 44.1367L17.2449 44.054L17.2945 43.9826L17.3448 43.9105L17.401 43.828L17.4572 43.7454L17.5136 43.663L17.5698 43.581L17.6142 43.52L17.6708 43.4377L17.7274 43.3555L17.7841 43.2733L17.841 43.1912L17.8915 43.1202L17.9424 43.0488L17.9995 42.9668L18.0566 42.8849L18.1138 42.8031L18.171 42.7215L18.2159 42.6612L18.2733 42.5795L18.3309 42.4979L18.3885 42.4163L18.4461 42.3348L18.4975 42.2642L18.5491 42.1935L18.607 42.1121L18.665 42.0308L18.723 41.9495L18.7812 41.8684L18.8267 41.8088L18.8849 41.7276L18.9433 41.6467L19.0018 41.5657L19.0603 41.4847L19.1125 41.4146L19.1647 41.3446L19.2235 41.2638L19.2823 41.1832L19.3412 41.1026L19.4002 41.022L19.4464 40.9628L19.5054 40.8824L19.5646 40.802L19.6239 40.7217L19.6833 40.6414L19.7364 40.5716L19.7893 40.5023L19.8488 40.4222L19.9085 40.3421L19.9682 40.2622L20.028 40.1822L20.075 40.1234L20.1348 40.0438L20.1948 39.9639L20.255 39.8843L20.3152 39.8046L20.369 39.7353L20.4226 39.6667L20.483 39.5872L20.5435 39.5077L20.6041 39.4284L20.6647 39.3491L20.7124 39.2906L20.7729 39.2118L20.8338 39.1327L20.8948 39.0536L20.9558 38.9746L21.0104 38.9057L21.0646 38.8378L21.1259 38.759L21.1872 38.6802L21.2486 38.6014L21.3101 38.5228L21.3584 38.4646L21.4198 38.3866L21.4814 38.3081L21.5432 38.2297L21.605 38.1514L21.6606 38.0829L21.7153 38.0157L21.7774 37.9376L21.8396 37.8594L21.9018 37.7813L21.9641 37.7033L22.0132 37.6456L22.0752 37.5683L22.1377 37.4905L22.2003 37.4127L22.2629 37.335L22.3193 37.2671L22.3747 37.2006L22.4376 37.123L22.5005 37.0456L22.5635 36.9681L22.6266 36.8908L22.6765 36.8335L22.7391 36.757L22.8025 36.6799L22.8659 36.6028L22.9293 36.5257L22.9865 36.4582L23.0425 36.3925L23.1061 36.3156L23.1699 36.2388L23.2338 36.1621L23.2976 36.0853L23.3482 36.0285L23.4116 35.9528L23.4757 35.8763L23.5399 35.7999L23.6042 35.7235L23.6621 35.6565L23.7188 35.5915L23.7832 35.5153L23.8478 35.4392L23.9124 35.3631L23.9771 35.287L24.0283 35.2306L24.0925 35.1558L24.1573 35.0799L24.2223 35.0042L24.2874 34.9285L24.3461 34.8619L24.4034 34.7977L24.4686 34.7222L24.5339 34.6467L24.5994 34.5713L24.6648 34.496L24.7167 34.44L24.7816 34.3659L24.8473 34.2908L24.913 34.2157L24.9789 34.1407L25.0384 34.0747L25.0962 34.0112L25.1623 33.9364L25.2284 33.8616L25.2946 33.7868L25.3609 33.7122L25.4135 33.6566L25.479 33.5834L25.5454 33.509L25.612 33.4345L25.6786 33.3602L25.7389 33.2948L25.7973 33.232L25.8642 33.1579L25.931 33.0838L25.9979 33.0098L26.065 32.9359L26.1184 32.8807L26.1845 32.8083L26.2517 32.7346L26.319 32.6609L26.3864 32.5872L26.4476 32.5223L26.5065 32.4603L26.5741 32.3869L26.6418 32.3135L26.7095 32.2402L26.7773 32.167L26.8313 32.1123L26.8981 32.0407L26.9661 31.9677L27.0342 31.8947L27.1023 31.8218L27.1642 31.7573L27.2238 31.6962L27.2921 31.6234L27.3605 31.5507L27.429 31.4782L27.4975 31.4056L27.5523 31.3514L27.6197 31.2807L27.6884 31.2084L27.7573 31.1361L27.8262 31.0639L27.8888 31L27.949 30.9396L28.018 30.8676L28.0872 30.7956L28.1565 30.7238L28.2257 30.652L28.2812 30.5982L28.3492 30.5283L28.4187 30.4567L28.4883 30.3852L28.558 30.3138L28.6214 30.2503L28.682 30.1907L28.7519 30.1194L28.8217 30.0482L28.8917 29.9771L28.9618 29.906L29.0179 29.8527L29.0866 29.7837L29.1568 29.7128L29.2271 29.642L29.2975 29.5713L29.3617 29.5085L29.4228 29.4496L29.4935 29.3791L29.5641 29.3086L29.6348 29.2382L29.7056 29.1679L29.7624 29.1151L29.8317 29.0469L29.9027 28.9768L29.9737 28.9067L30.0448 28.8367L30.1098 28.7745L30.1714 28.7164L30.2428 28.6466L30.3142 28.5769L30.3856 28.5072L30.4571 28.4376L30.5146 28.3854L30.5844 28.318L30.6561 28.2486L30.7279 28.1793L30.7997 28.1101L30.8655 28.0484L30.9277 27.9911L30.9997 27.922L31.0718 27.8531L31.1439 27.7842L31.2162 27.7153L31.2743 27.6636L31.3448 27.5971L31.4172 27.5285L31.4897 27.46L31.5622 27.3915L31.6287 27.3303L31.6915 27.2738L31.7642 27.2055L31.837 27.1373L31.9099 27.0692L31.9828 27.0011L32.0416 26.9499L32.1127 26.8843L32.1858 26.8164L32.259 26.7486L32.3322 26.6809L32.3995 26.6203L32.4627 26.5647L32.5361 26.4972L32.6096 26.4297L32.6832 26.3623L32.7569 26.295L32.8163 26.2443L32.888 26.1796L32.9618 26.1125L33.0357 26.0454L33.1096 25.9785L33.1776 25.9185L33.2413 25.8637L33.3154 25.797L33.3896 25.7302L33.4639 25.6637L33.5383 25.5972L33.5983 25.5469L33.6705 25.4831L33.7451 25.4168L33.8196 25.3505L33.8943 25.2844L33.963 25.2251L34.0271 25.1709L34.102 25.105L34.1769 25.0391L34.2518 24.9733L34.3269 24.9076L34.3876 24.8579L34.4604 24.7949L34.5356 24.7294L34.6108 24.664L34.6862 24.5986L34.7556 24.5399L34.8202 24.4866L34.8957 24.4214L34.9713 24.3564L35.0469 24.2913L35.1226 24.2264L35.184 24.1773L35.2573 24.1152L35.3332 24.0505L35.4092 23.9858L35.4851 23.9212L35.5553 23.8631L35.6204 23.8107L35.6965 23.7463L35.7728 23.682L35.8491 23.6178L35.9255 23.5536L35.9876 23.5051L36.0614 23.4439L36.1379 23.38L36.2145 23.3161L36.2912 23.2523L36.3621 23.1948L36.4276 23.1432L36.5044 23.0796L36.5813 23.0162L36.6583 22.9528L36.7353 22.8894L36.7981 22.8414L36.8724 22.7811L36.9496 22.7179L37.0269 22.655L37.1042 22.592L37.1757 22.5351L37.2418 22.4843L37.3193 22.4216L37.3968 22.3589L37.4744 22.2964L37.5521 22.2338L37.6154 22.1863L37.6903 22.127L37.7681 22.0647L37.846 22.0024L37.924 21.9403L37.9963 21.8841L38.0627 21.8341L38.1409 21.7722L38.2191 21.7103L38.2974 21.6486L38.3757 21.5869L38.4396 21.5399L38.515 21.4815L38.5935 21.42L38.672 21.3586L38.7506 21.2973L38.8237 21.2418L38.8904 21.1926L38.9692 21.1315L39.048 21.0705L39.127 21.0095L39.206 20.9487L39.2705 20.9023L39.3463 20.8448L39.4255 20.7842L39.5047 20.7236L39.5839 20.6631L39.6576 20.6083L39.7248 20.5599L39.8043 20.4996L39.8837 20.4394L39.9632 20.3793L40.0429 20.3193L40.108 20.2736L40.1844 20.2169L40.2642 20.1571L40.3439 20.0974L40.4238 20.0377L40.4982 19.9836L40.5658 19.9361L40.6458 19.8766L40.726 19.8173L40.8061 19.758L40.8863 19.6988L40.9521 19.6537L41.0289 19.598L41.1093 19.539L41.1897 19.4801L41.2702 19.4213L41.3453 19.3678L41.4133 19.3212L41.4939 19.2625L41.5746 19.2041L41.6554 19.1457L41.7362 19.0872L41.8026 19.0427L41.8799 18.988L41.9608 18.9298L42.0419 18.8718L42.123 18.8139L42.1987 18.761L42.2671 18.7153L42.3484 18.6575L42.4297 18.5999L42.511 18.5423L42.5924 18.4848L42.6594 18.4409L42.7372 18.3871L42.8187 18.3297L42.9004 18.2726L42.9821 18.2155L43.0585 18.1633L43.1272 18.1185L43.2091 18.0616L43.291 18.0047L43.3729 17.9481L43.455 17.8914L43.5225 17.8481L43.6007 17.7953L43.6828 17.7388L43.7651 17.6825L43.8474 17.6263L43.9245 17.5748L43.9935 17.5308L44.076 17.4748L44.1585 17.4188L44.241 17.363L44.3237 17.3072L44.3918 17.2645L44.4704 17.2126L44.5531 17.1571L44.6359 17.1016L44.7188 17.0462L44.7966 16.9955L44.866 16.9523L44.949 16.8972L45.0321 16.8421L45.1152 16.7871L45.1984 16.7323L45.2671 16.6902L45.3461 16.6392L45.4294 16.5846L45.5128 16.53L45.5962 16.4755L45.6746 16.4255L45.7444 16.3831L45.828 16.3289L45.9116 16.2747L45.9953 16.2206L46.0791 16.1666L46.1484 16.1252L46.2277 16.0751L46.3117 16.0214L46.3956 15.9677L46.4796 15.914L46.5587 15.8648L46.6288 15.8234L46.7129 15.7699L46.7971 15.7167L46.8814 15.6635L46.9656 15.6103L47.0355 15.5696L47.1153 15.5205L47.1997 15.4676L47.2842 15.4148L47.3688 15.362L47.4485 15.3136L47.5189 15.273L47.6036 15.2204L47.6883 15.1681L47.7731 15.1158L47.858 15.0634L47.9284 15.0234L48.0086 14.9753L48.0936 14.9232L48.1786 14.8714L48.2637 14.8195L48.344 14.7717L48.4148 14.732L48.5 14.6804L48.5853 14.6289L48.6707 14.5775L48.756 14.5262L48.827 14.4868L48.9076 14.4396L48.9931 14.3884L49.0787 14.3375L49.1643 14.2866L49.2452 14.2395L49.3163 14.2007L49.402 14.15L49.4879 14.0993L49.5737 14.0489L49.6596 13.9984L49.7311 13.9597L49.8121 13.9135L49.8981 13.8633L49.9843 13.8131L50.0704 13.7632L50.152 13.7169L50.2233 13.6789L50.3096 13.6292L50.3959 13.5794L50.4823 13.5298L50.5687 13.4803L50.6408 13.4422L50.7221 13.397L50.8087 13.3477L50.8952 13.2985L50.9819 13.2494L51.0641 13.2039L51.1357 13.1668L51.2225 13.118L51.3093 13.0692L51.3962 13.0205L51.4832 12.9719L51.5558 12.9345L51.6374 12.8902L51.7245 12.8419L51.8116 12.7936L51.8988 12.7454L51.9815 12.7007L52.0534 12.6645L52.1407 12.6166L52.2281 12.5687L52.3154 12.5209L52.4029 12.4732L52.476 12.4366L52.558 12.3932L52.6456 12.3458L52.7332 12.2984L52.8208 12.2511L52.9042 12.2073L52.9763 12.172L53.0641 12.1249L53.152 12.078L53.2399 12.0311L53.3278 11.9844L53.4015 11.9484L53.4837 11.906L53.5718 11.8596L53.6599 11.8132L53.7481 11.7667L53.832 11.7237L53.9044 11.6893L53.9926 11.6431L54.081 11.5972L54.1693 11.5513L54.2577 11.5054L54.332 11.4701L54.4145 11.4288L54.5031 11.3832L54.5916 11.3377L54.6802 11.2923L54.7648 11.25L54.8375 11.2165L54.9262 11.1713L55.015 11.1262L55.1038 11.0813L55.1927 11.0363L55.2674 11.0018L55.3503 10.9615L55.4393 10.9167L55.5283 10.8722L55.6174 10.8278L55.7025 10.7862L55.7754 10.7536L55.8646 10.7094L55.9538 10.6652L56.0432 10.6213L56.1325 10.5773L56.2077 10.5434L56.2909 10.5041L56.3803 10.4604L56.4698 10.4168L56.5594 10.3733L56.645 10.3326L56.7181 10.3008L56.8078 10.2576L56.8975 10.2143L56.9872 10.1713L57.0771 10.1283L57.1527 10.0951L57.2362 10.0568L57.3261 10.014L57.416 9.97134L57.5061 9.92883L57.5922 9.88895L57.6655 9.85804L57.7557 9.81578L57.8458 9.77353L57.936 9.73137L58.0263 9.68938L58.1024 9.65697L58.1862 9.61957L58.2765 9.57778L58.3669 9.53605L58.4573 9.49448L58.5441 9.45545L58.6175 9.42542L58.7081 9.38415L58.7987 9.34285L58.8893 9.30162L58.98 9.26061L59.0566 9.22896L59.1406 9.19251L59.2314 9.15172L59.3222 9.11095L59.4131 9.07028L59.5004 9.03214L59.574 9.00303L59.665 8.96266L59.756 8.92237L59.847 8.88211L59.9381 8.84202L60.0153 8.81114L60.0994 8.77565L60.1907 8.73585L60.2819 8.69608L60.3731 8.65633L60.461 8.61904L60.5349 8.59086L60.6262 8.5514L60.7176 8.5121L60.8091 8.47284L60.9006 8.43368L60.9782 8.40356L61.0626 8.36909L61.1542 8.33022L61.2459 8.29145L61.3375 8.25267L61.4259 8.21622L61.4999 8.18897L61.5917 8.15043L61.6835 8.11212L61.7754 8.07386L61.8672 8.03561L61.9453 8.0063L62.03 7.97286L62.122 7.9349L62.214 7.8971L62.3061 7.85934L62.395 7.82369L62.4691 7.79737L62.5613 7.75983L62.6535 7.72247L62.7458 7.68519L62.838 7.64792L62.9166 7.61934L63.0014 7.58695L63.0938 7.54993L63.1862 7.51312L63.2787 7.47636L63.3681 7.44153L63.4424 7.41613L63.5349 7.3796L63.6275 7.34318L63.7201 7.3069L63.8128 7.27064L63.8918 7.24278L63.9769 7.2114L64.0696 7.1754L64.1624 7.13953L64.2552 7.10378L64.3451 7.06981L64.4196 7.04528L64.5125 7.00977L64.6055 6.9743L64.6985 6.93901L64.7915 6.90377L64.8709 6.87666L64.9561 6.84629L65.0493 6.81127L65.1424 6.77637L65.2356 6.74163L65.326 6.70855L65.4006 6.68489L65.4939 6.6504L65.5872 6.61593L65.6805 6.58158L65.7739 6.54737L65.8538 6.52103L65.9392 6.49165L66.0326 6.45765L66.1262 6.42371L66.2198 6.38995L66.3106 6.35778L66.3852 6.33499L66.4789 6.30152L66.5726 6.26805L66.6663 6.23466L66.7601 6.20145L66.8403 6.17593L66.9258 6.1475L67.0197 6.11453L67.1135 6.0816L67.2074 6.04879L67.2988 6.01755L67.3735 5.99566L67.4675 5.96316L67.5615 5.9307L67.6556 5.89829L67.7497 5.86609L67.8303 5.84138L67.916 5.8139L68.0102 5.78197L68.1044 5.75005L68.1986 5.71818L68.2905 5.68787L68.3653 5.66691L68.4596 5.63536L68.554 5.60391L68.6483 5.57254L68.7427 5.54129L68.8238 5.5174L68.9096 5.49092L69.0041 5.45998L69.0987 5.42907L69.1932 5.39819L69.2855 5.3688L69.3604 5.34876L69.455 5.31815L69.5497 5.28775L69.6444 5.25739L69.7391 5.2271L69.8206 5.20404L69.9065 5.1786L70.0014 5.1486L70.0962 5.11871L70.191 5.08887L70.2838 5.06033L70.3588 5.04123L70.4537 5.01161L70.5487 4.98221L70.6437 4.95288L70.7387 4.92354L70.8206 4.90132L70.9067 4.87691L71.0018 4.84787L71.0969 4.81901L71.1921 4.79021L71.2852 4.76253L71.3603 4.74435L71.4555 4.71576L71.5508 4.68734L71.6461 4.65903L71.7414 4.63072L71.8236 4.60928L71.9098 4.5859L72.0052 4.55785L72.1007 4.53L72.1961 4.50223L72.2897 4.47542L72.3648 4.45816L72.4603 4.43063L72.5558 4.40317L72.6514 4.37587L72.747 4.34862L72.8296 4.32796L72.916 4.30559L73.0116 4.27857L73.1073 4.25171L73.2031 4.22496L73.2971 4.19909L73.3722 4.18269L73.468 4.15621L73.5638 4.12973L73.6597 4.10344L73.7556 4.07724L73.8385 4.05735L73.9249 4.03601L74.0208 4.01003L74.1168 3.98414L74.2128 3.95843L74.3072 3.93352L74.3824 3.91796L74.4785 3.89253L74.5745 3.86709L74.6707 3.84177L74.7668 3.81661L74.8501 3.79757L74.9366 3.77718L75.0328 3.75225L75.129 3.72736L75.2253 3.70266L75.3201 3.67871L75.3952 3.66402L75.4915 3.63962L75.5879 3.61521L75.6843 3.59089L75.7807 3.56676L75.8643 3.54856L75.9509 3.52913L76.0473 3.50526L76.1438 3.4814L76.2403 3.45766L76.3355 3.4347L76.4107 3.42092L76.5072 3.39749L76.6038 3.37412L76.7004 3.35082L76.7971 3.3277L76.8811 3.31036L76.9676 3.29188L77.0644 3.26906L77.1611 3.24624L77.2578 3.22349L77.3534 3.20149L77.4285 3.18863L77.5253 3.16617L77.6221 3.14386L77.719 3.12159L77.8159 3.09944L77.9002 3.08298L77.9868 3.06552L78.0837 3.04368L78.1807 3.0219L78.2776 3.00016L78.3736 2.9791L78.4487 2.96715L78.5458 2.94566L78.6428 2.92442L78.7399 2.9032L78.8369 2.88202L78.9216 2.86643L79.0082 2.85L79.1053 2.82914L79.2025 2.8084L79.2997 2.78773L79.396 2.76756L79.4711 2.75653L79.5683 2.73608L79.6656 2.71584L79.7628 2.69565L79.8601 2.67549L79.9451 2.66075L80.0317 2.64534L80.1291 2.62544L80.2264 2.60577L80.3238 2.58614L80.4205 2.56687L80.4956 2.55676L80.593 2.53737L80.6905 2.51809L80.7879 2.49895L80.8854 2.47985L80.9707 2.46592L81.0573 2.45152L81.1548 2.43265L81.2524 2.41399L81.35 2.3954L81.447 2.37706L81.522 2.36783L81.6197 2.34951L81.7173 2.33121L81.8149 2.31311L81.9126 2.29508L81.9982 2.28196L82.0848 2.26857L82.1825 2.25075L82.2803 2.23308L82.378 2.21554L82.4753 2.19819L82.5503 2.1898L82.6481 2.17254L82.7459 2.15527L82.8438 2.13818L82.9416 2.12119L83.0275 2.1089L83.1141 2.09649L83.212 2.07975L83.3099 2.06304L83.4078 2.04655L83.5055 2.03021L83.5804 2.02265L83.6784 2.00644L83.7763 1.99022L83.8743 1.97413L83.9723 1.95819L84.0584 1.94678L84.145 1.9353L84.2431 1.91963L84.3412 1.90397L84.4392 1.88845L84.5372 1.87312L84.612 1.86643L84.7102 1.85122L84.8083 1.83606L84.9065 1.82095L85.0046 1.80606L85.091 1.79554L85.1775 1.785L85.2757 1.77038L85.374 1.75577L85.4722 1.74125L85.5704 1.72692L85.6452 1.72112L85.7434 1.70689L85.8417 1.69279L85.94 1.67874L86.0383 1.66481L86.125 1.6552L86.2115 1.64564L86.3098 1.63203L86.4082 1.61847L86.5065 1.60495L86.6049 1.59165L86.6799 1.58665L86.7781 1.57344L86.8765 1.56042L86.9749 1.54741L87.0734 1.53446L87.1603 1.52575L87.2467 1.5172L87.3452 1.50456L87.4436 1.49205L87.5421 1.4796L87.6407 1.46727L87.7158 1.46306L87.8141 1.45094L87.9126 1.43892L88.0112 1.42696L88.1097 1.41503L88.1968 1.40719L88.2832 1.39964L88.3818 1.38796L88.4804 1.37652L88.579 1.36513L88.6776 1.35376L88.7529 1.35035L88.8511 1.33935L88.9498 1.3283L89.0484 1.3174L89.1471 1.30653L89.2345 1.29951L89.3207 1.29295L89.4194 1.28232L89.5182 1.27188L89.6168 1.26153L89.7156 1.25118L89.7911 1.24852L89.8893 1.23864L89.988 1.22857L90.0868 1.21869L90.1855 1.20891L90.2731 1.2027L90.3593 1.19713L90.4581 1.18756L90.5568 1.17809L90.6556 1.1688L90.7545 1.15951L90.8302 1.15756L90.9283 1.14878L91.0271 1.13976L91.1259 1.13088L91.2248 1.12214L91.3126 1.11682L91.3986 1.11217L91.4975 1.10367L91.5964 1.09521L91.6953 1.08691L91.7942 1.0787L91.8701 1.07748L91.968 1.06977L92.0669 1.06181L92.1659 1.0539L92.2648 1.04621L92.3528 1.0418L92.4387 1.03804L92.5377 1.03062L92.6367 1.02321L92.7356 1.01587L92.8346 1.00873L92.9107 1.00831L93.0086 1.00159L93.1075 0.99466L93.2066 0.987801L93.3055 0.981132L93.3937 0.977609L93.4795 0.974785L93.5786 0.968402L93.6776 0.962019L93.7766 0.955692L93.8756 0.949595L93.9518 0.94996L94.0496 0.944265L94.1487 0.938413L94.2477 0.932601L94.3468 0.926853L94.4351 0.92428L94.5208 0.922447L94.6199 0.916997L94.719 0.911688L94.818 0.906425L94.9171 0.901277L94.9935 0.902475L95.0912 0.897838L95.1902 0.892973L95.2894 0.888235L95.3884 0.883498L95.477 0.881782L95.5625 0.880961L95.6616 0.87651L95.7607 0.872195L95.8598 0.868029L95.9589 0.863864L96.0355 0.865833L96.133 0.86231L96.2321 0.858432L96.3312 0.854721L96.4304 0.851073L96.5191 0.850181L96.6044 0.85033L96.7036 0.846954L96.8027 0.843604L96.9019 0.840498L97.001 0.837406L97.0777 0.840062L97.1751 0.837664L97.2742 0.83486L97.3734 0.832074L97.4725 0.829529L97.5614 0.82958L97.6466 0.830573L97.7458 0.828275L97.8449 0.826024L97.9441 0.823844L98.0432 0.821832L98.12 0.82533L98.2173 0.823905L98.3164 0.822177L98.4156 0.820452L98.5148 0.818874L98.6038 0.819876L98.6888 0.821832L98.788 0.820497L98.8871 0.819342L98.9863 0.818191L99.0855 0.817169L99.1624 0.821514L99.2595 0.821132L99.3587 0.820404L99.4578 0.819772L99.557 0.819194L99.6461 0.821087L99.7309 0.824032L99.8301 0.823697L99.9293 0.82358L100.028 0.823503L100.128 0.823461L100.205 0.828632L100.302 0.829343L100.401 0.829555L100.5 0.830022L100.599 0.830521L100.688 0.833227L100.773 0.837157L100.872 0.837925L100.971 0.838742L101.07 0.839745L101.17 0.840809L101.247 0.846686L101.343 0.848487L101.443 0.849778L101.542 0.851204L101.641 0.852783L101.73 0.856441L101.815 0.861228L101.914 0.863092L102.013 0.864959L102.112 0.866942L102.211 0.869094L102.288 0.875776L102.385 0.878581L102.484 0.880968L102.583 0.883406L102.682 0.885993L102.772 0.890624L102.856 0.896315L102.955 0.89921L103.054 0.902153L103.153 0.905129L103.252 0.908331L103.329 0.915869L103.426 0.919631L103.525 0.92311L103.624 0.926628L103.723 0.930155L103.813 0.935763L103.897 0.942443L103.996 0.946279L104.095 0.950298L104.194 0.954379L104.293 0.958521L104.37 0.966918L104.466 0.971766L104.565 0.976213L104.664 0.980808L104.763 0.985408L104.853 0.99187L104.937 0.999532L105.036 1.00441L105.135 1.00942L105.234 1.01459L105.333 1.01976L105.41 1.02894L105.506 1.03489L105.605 1.04034L105.704 1.04596L105.803 1.05166L105.892 1.05899L105.976 1.0676L106.075 1.07355L106.174 1.07954L106.273 1.08578L106.372 1.09202L106.449 1.10193L106.545 1.10898L106.644 1.11551L106.743 1.12207L106.841 1.12886L106.931 1.13718L107.014 1.14661L107.113 1.15365L107.212 1.16074L107.311 1.16792L107.41 1.17524L107.487 1.18601L107.583 1.19403L107.681 1.20163L107.78 1.20924L107.879 1.21704L107.969 1.22632L108.052 1.23667L108.151 1.24471L108.249 1.25289L108.348 1.26107L108.447 1.26943L108.524 1.28107L108.619 1.29006L108.718 1.29871L108.817 1.30742L108.916 1.31617L109.005 1.32642L109.088 1.33773L109.187 1.34674L109.285 1.35599L109.384 1.36525L109.483 1.37458L109.56 1.38708L109.655 1.39715L109.754 1.40675L109.852 1.41654L109.951 1.42638L110.041 1.43747L110.123 1.44974L110.222 1.45983L110.32 1.47005L110.419 1.48038L110.517 1.49076L110.595 1.50405L110.689 1.51518L110.788 1.52579L110.886 1.53662L110.985 1.54752L111.075 1.55951L111.157 1.57269L111.255 1.58388L111.354 1.59507L111.452 1.60646L111.55 1.61793L111.628 1.63197L111.722 1.64415L111.821 1.65585L111.919 1.66763L112.017 1.67961L112.107 1.69259L112.189 1.7066L112.287 1.71886L112.386 1.73112L112.484 1.74348L112.582 1.75602L112.66 1.77092L112.754 1.78404L112.852 1.79683L112.95 1.80965L113.048 1.82261L113.138 1.83659L113.22 1.85149L113.318 1.86475L113.416 1.87808L113.514 1.89145L113.612 1.90502L113.69 1.92079L113.783 1.93486L113.881 1.94872L113.98 1.96262L114.078 1.97652L114.167 1.99148L114.249 2.00734L114.347 2.02155L114.445 2.03594L114.542 2.0504L114.64 2.06492L114.718 2.08156L114.811 2.09668L114.909 2.11151L115.007 2.12647L115.105 2.14144L115.195 2.15729L115.276 2.17407L115.373 2.18932L115.471 2.2047L115.569 2.22023L115.667 2.23576L115.744 2.25322L115.837 2.26939L115.935 2.2852L116.033 2.30119L116.13 2.31724L116.22 2.33396L116.301 2.35167L116.398 2.36798L116.496 2.38433L116.594 2.40092L116.691 2.41751L116.769 2.43573L116.861 2.45295L116.959 2.46983L117.056 2.48676L117.154 2.50388L117.244 2.5216L117.324 2.54011L117.421 2.55748L117.519 2.5749L117.616 2.59245L117.714 2.6101L117.791 2.62916L117.883 2.64735L117.981 2.66528L118.078 2.68321L118.175 2.70137L118.265 2.72005L118.345 2.7394L118.442 2.7578L118.539 2.7763L118.636 2.79479L118.734 2.8135L118.811 2.83344L118.903 2.85254L119 2.87154L119.097 2.89053L119.194 2.90964L119.284 2.92931L119.363 2.94957L119.46 2.96893L119.557 2.98848L119.654 3.00803L119.751 3.0277L119.829 3.04851L119.92 3.06862L120.017 3.08857L120.114 3.10864L120.211 3.12876L120.301 3.14934L120.38 3.17051L120.476 3.19086L120.573 3.21143L120.67 3.23203L120.767 3.25266L120.844 3.27434L120.935 3.29545L121.032 3.31635L121.128 3.33748L121.225 3.35864L121.315 3.3801L121.393 3.40218L121.49 3.42359L121.586 3.4451L121.683 3.46675L121.779 3.48845L121.856 3.51089L121.947 3.533L122.044 3.55494L122.14 3.57704L122.236 3.59925L122.326 3.62166L122.404 3.64454L122.5 3.66702L122.597 3.68952L122.693 3.71216L122.789 3.73492L122.866 3.75815L122.957 3.78124L123.053 3.80421L123.149 3.82726L123.245 3.85052L123.335 3.87391L123.412 3.89757L123.508 3.92111L123.604 3.94464L123.7 3.96824L123.796 3.99205L123.873 4.01615L123.963 4.04013L124.059 4.06416L124.155 4.08826L124.251 4.11244L124.34 4.13682L124.418 4.16136L124.513 4.18584L124.609 4.21042L124.705 4.23501L124.801 4.2598L124.878 4.28478L124.967 4.30967L125.063 4.33472L125.158 4.35984L125.254 4.38497L125.343 4.41033L125.42 4.43575L125.516 4.46116L125.611 4.48676Z" fill="white"/>
</svg>
