<svg width="200" height="200" viewBox="0 0 200 200" fill="none" xmlns="http://www.w3.org/2000/svg">
<path d="M106.945 199.001L106.862 199.003L106.771 199.008L106.672 199.014L106.573 199.021L106.474 199.028L106.379 199.033L106.3 199.033L106.201 199.04L106.102 199.046L106.003 199.052L105.904 199.058L105.821 199.059L105.73 199.063L105.631 199.068L105.532 199.074L105.433 199.079L105.338 199.084L105.259 199.083L105.16 199.089L105.061 199.094L104.962 199.099L104.862 199.104L104.779 199.104L104.688 199.107L104.589 199.112L104.49 199.116L104.391 199.12L104.296 199.124L104.217 199.123L104.118 199.127L104.019 199.131L103.92 199.135L103.821 199.139L103.737 199.139L103.647 199.14L103.547 199.144L103.448 199.147L103.349 199.151L103.254 199.153L103.175 199.151L103.076 199.154L102.977 199.157L102.878 199.16L102.778 199.163L102.695 199.162L102.604 199.162L102.505 199.165L102.406 199.167L102.307 199.17L102.211 199.171L102.133 199.168L102.034 199.17L101.935 199.172L101.835 199.174L101.736 199.176L101.653 199.174L101.562 199.174L101.463 199.175L101.364 199.177L101.265 199.178L101.169 199.179L101.091 199.175L100.992 199.176L100.892 199.177L100.793 199.178L100.694 199.179L100.61 199.176L100.52 199.174L100.421 199.175L100.322 199.175L100.223 199.175L100.127 199.175L100.049 199.17L99.9496 199.17L99.8504 199.17L99.7513 199.17L99.6521 199.17L99.5684 199.166L99.4782 199.164L99.379 199.163L99.2799 199.163L99.1807 199.162L99.0847 199.16L99.0068 199.155L98.9077 199.154L98.8086 199.153L98.7094 199.152L98.6103 199.15L98.5264 199.146L98.4364 199.142L98.3373 199.141L98.2382 199.139L98.139 199.137L98.0429 199.135L97.9652 199.128L97.8661 199.126L97.767 199.124L97.6679 199.122L97.5688 199.12L97.4848 199.114L97.3951 199.11L97.296 199.107L97.1969 199.104L97.0978 199.102L97.0015 199.098L96.9241 199.091L96.8251 199.088L96.726 199.085L96.627 199.081L96.5279 199.078L96.4439 199.072L96.3543 199.066L96.2553 199.063L96.1563 199.059L96.0572 199.055L95.9609 199.051L95.8837 199.042L95.7847 199.038L95.6856 199.034L95.5866 199.03L95.4876 199.025L95.4035 199.018L95.3141 199.012L95.2151 199.007L95.1162 199.002L95.0171 198.997L94.9207 198.992L94.8438 198.983L94.7448 198.978L94.6458 198.973L94.5468 198.967L94.4479 198.962L94.3636 198.954L94.2746 198.946L94.1757 198.941L94.0767 198.935L93.9778 198.929L93.8813 198.923L93.8046 198.913L93.7057 198.906L93.6068 198.9L93.5079 198.894L93.409 198.887L93.3248 198.878L93.2359 198.87L93.1371 198.863L93.0382 198.856L92.9393 198.849L92.8427 198.842L92.7664 198.831L92.6676 198.824L92.5688 198.817L92.4699 198.809L92.3712 198.802L92.2868 198.792L92.1983 198.783L92.0995 198.775L92.0007 198.767L91.902 198.759L91.8053 198.75L91.7292 198.739L91.6305 198.731L91.5318 198.722L91.4331 198.714L91.3344 198.705L91.25 198.694L91.1618 198.684L91.0631 198.675L90.9644 198.666L90.8658 198.657L90.769 198.648L90.6932 198.635L90.5946 198.626L90.496 198.617L90.3974 198.607L90.2989 198.598L90.2144 198.586L90.1264 198.575L90.0279 198.565L89.9293 198.555L89.8308 198.545L89.734 198.535L89.6585 198.521L89.56 198.511L89.4615 198.5L89.363 198.49L89.2646 198.479L89.1801 198.467L89.0925 198.454L88.994 198.443L88.8956 198.432L88.7971 198.421L88.7003 198.41L88.6251 198.396L88.5268 198.384L88.4284 198.373L88.33 198.361L88.2317 198.35L88.1473 198.336L88.0599 198.323L87.9616 198.311L87.8633 198.299L87.7649 198.287L87.6681 198.275L87.5932 198.26L87.495 198.247L87.3968 198.235L87.2986 198.222L87.2004 198.209L87.1159 198.195L87.0288 198.181L86.9306 198.168L86.8325 198.155L86.7344 198.142L86.6375 198.128L86.563 198.112L86.4649 198.099L86.3668 198.085L86.2687 198.072L86.1707 198.058L86.0862 198.043L85.9995 198.028L85.9015 198.014L85.8035 197.999L85.7055 197.985L85.6086 197.971L85.5345 197.954L85.4366 197.94L85.3386 197.925L85.2407 197.91L85.1428 197.896L85.0584 197.879L84.972 197.863L84.8741 197.848L84.7763 197.833L84.6785 197.818L84.5816 197.803L84.5078 197.785L84.4101 197.77L84.3123 197.754L84.2146 197.738L84.1168 197.722L84.0324 197.705L83.9464 197.688L83.8487 197.672L83.7511 197.656L83.6535 197.64L83.5565 197.624L83.4831 197.605L83.3855 197.589L83.288 197.572L83.1904 197.555L83.0929 197.538L83.0085 197.521L82.9228 197.503L82.8253 197.485L82.7279 197.468L82.6305 197.451L82.5336 197.434L82.4606 197.414L82.3632 197.397L82.2658 197.379L82.1684 197.361L82.0712 197.344L81.9869 197.325L81.9015 197.306L81.8043 197.288L81.707 197.27L81.6097 197.251L81.5129 197.233L81.4403 197.213L81.3431 197.194L81.246 197.175L81.1488 197.157L81.0517 197.138L80.9674 197.118L80.8824 197.098L80.7854 197.079L80.6883 197.06L80.5913 197.041L80.4945 197.021L80.4222 197L80.3252 196.981L80.2283 196.961L80.1314 196.941L80.0345 196.921L79.9502 196.901L79.8656 196.88L79.7688 196.86L79.672 196.84L79.5752 196.819L79.4785 196.799L79.4066 196.777L79.3099 196.756L79.2131 196.736L79.1164 196.715L79.0198 196.694L78.9356 196.672L78.8515 196.651L78.7548 196.63L78.6582 196.608L78.5617 196.587L78.4651 196.566L78.3935 196.543L78.2971 196.521L78.2006 196.5L78.1042 196.478L78.0077 196.456L77.9236 196.434L77.8399 196.411L77.7435 196.389L77.6471 196.367L77.5508 196.344L77.4545 196.322L77.383 196.298L77.2869 196.276L77.1907 196.253L77.0945 196.23L76.9983 196.207L76.9143 196.184L76.831 196.161L76.7349 196.137L76.6388 196.114L76.5427 196.091L76.4467 196.067L76.3752 196.043L76.2796 196.019L76.1837 195.996L76.0876 195.972L75.9917 195.948L75.9079 195.924L75.8249 195.899L75.7291 195.875L75.6332 195.851L75.5374 195.826L75.4417 195.802L75.3704 195.777L75.2752 195.752L75.1795 195.728L75.0838 195.703L74.9881 195.678L74.9044 195.653L74.8219 195.627L74.7263 195.602L74.6308 195.577L74.5352 195.552L74.4397 195.526L74.3686 195.5L74.2831 195.465L74.2127 195.415L74.1423 195.364L74.0718 195.313L74.0015 195.267L73.9312 195.236L73.8609 195.185L73.7906 195.134L73.7204 195.082L73.6501 195.031L73.58 194.997L73.5098 194.953L73.4396 194.902L73.3695 194.85L73.2994 194.799L73.2294 194.752L73.1593 194.72L73.0893 194.668L73.0193 194.616L72.9494 194.564L72.8795 194.512L72.8096 194.477L72.7397 194.433L72.6698 194.38L72.6 194.328L72.5303 194.276L72.4604 194.228L72.3907 194.195L72.321 194.143L72.2513 194.09L72.1817 194.037L72.1121 193.984L72.0425 193.949L71.9729 193.904L71.9034 193.85L71.8339 193.797L71.7644 193.744L71.6949 193.695L71.6255 193.663L71.5561 193.609L71.4868 193.556L71.4174 193.502L71.3481 193.448L71.2788 193.412L71.2096 193.366L71.1404 193.312L71.0712 193.258L71.002 193.204L70.9329 193.154L70.8637 193.121L70.7947 193.067L70.7256 193.013L70.6566 192.958L70.5877 192.904L70.5187 192.866L70.4498 192.82L70.3809 192.765L70.312 192.711L70.2431 192.656L70.1743 192.605L70.1056 192.571L70.0368 192.516L69.9681 192.461L69.8994 192.406L69.8308 192.351L69.7622 192.312L69.6936 192.266L69.625 192.21L69.5565 192.155L69.488 192.099L69.4195 192.048L69.3511 192.013L69.2827 191.957L69.2143 191.902L69.1459 191.846L69.0776 191.79L69.0093 191.75L68.9411 191.703L68.8729 191.647L68.8047 191.59L68.7365 191.534L68.6684 191.482L68.6003 191.446L68.5322 191.39L68.4642 191.333L68.3962 191.277L68.3282 191.22L68.2602 191.18L68.1923 191.132L68.1244 191.075L68.0566 191.018L67.9888 190.961L67.921 190.907L67.8532 190.872L67.7855 190.814L67.7178 190.757L67.6502 190.7L67.5826 190.642L67.515 190.601L67.4474 190.552L67.3799 190.495L67.3124 190.437L67.2449 190.379L67.1775 190.325L67.1101 190.289L67.0428 190.231L66.9754 190.173L66.9081 190.115L66.8409 190.056L66.7737 190.014L66.7065 189.965L66.6394 189.906L66.5722 189.848L66.5051 189.789L66.4381 189.734L66.371 189.697L66.3041 189.639L66.2371 189.58L66.1702 189.521L66.1033 189.462L66.0364 189.419L65.9696 189.369L65.9028 189.31L65.8361 189.251L65.7694 189.192L65.7027 189.135L65.636 189.098L65.5694 189.039L65.5029 188.979L65.4363 188.919L65.3698 188.86L65.3034 188.816L65.2369 188.765L65.1705 188.705L65.1041 188.646L65.0378 188.586L64.9715 188.529L64.9052 188.49L64.839 188.43L64.7728 188.37L64.7066 188.31L64.6405 188.249L64.5744 188.204L64.5084 188.153L64.4424 188.093L64.3764 188.032L64.3104 187.972L64.2445 187.914L64.1787 187.875L64.1128 187.814L64.047 187.753L63.9813 187.692L63.9155 187.631L63.8498 187.585L63.7842 187.534L63.7186 187.472L63.653 187.411L63.5875 187.349L63.5219 187.291L63.4564 187.251L63.391 187.19L63.3256 187.128L63.2603 187.066L63.195 187.005L63.1297 186.958L63.0644 186.906L62.9992 186.844L62.934 186.782L62.8689 186.72L62.8038 186.66L62.7387 186.62L62.6737 186.558L62.6087 186.495L62.5437 186.433L62.4788 186.37L62.414 186.323L62.3491 186.27L62.2843 186.207L62.2195 186.145L62.1548 186.082L62.0901 186.021L62.0254 185.981L61.9608 185.918L61.8963 185.855L61.8317 185.791L61.7672 185.728L61.7028 185.68L61.6383 185.626L61.574 185.563L61.5096 185.5L61.4453 185.436L61.381 185.374L61.3168 185.334L61.2526 185.27L61.1885 185.206L61.1243 185.142L61.0602 185.078L60.9962 185.029L60.9322 184.975L60.8683 184.911L60.8044 184.847L60.7405 184.782L60.6766 184.72L60.6128 184.679L60.5491 184.614L60.4853 184.55L60.4217 184.485L60.358 184.42L60.2944 184.37L60.2309 184.316L60.1673 184.251L60.1038 184.186L60.0404 184.121L59.977 184.058L59.9136 184.016L59.8503 183.951L59.787 183.886L59.7238 183.82L59.6605 183.755L59.5974 183.704L59.5343 183.649L59.4712 183.584L59.4081 183.518L59.3451 183.452L59.2822 183.388L59.2192 183.346L59.1564 183.28L59.0936 183.214L59.0308 183.148L58.968 183.082L58.9053 183.03L58.8426 182.975L58.78 182.909L58.7174 182.842L58.6549 182.776L58.5924 182.711L58.5299 182.668L58.4675 182.601L58.4051 182.535L58.3428 182.468L58.2805 182.401L58.2182 182.349L58.156 182.293L58.0938 182.226L58.0317 182.159L57.9696 182.092L57.9075 182.026L57.8455 181.983L57.7836 181.915L57.7216 181.848L57.6597 181.781L57.5979 181.713L57.5361 181.66L57.4744 181.603L57.4126 181.536L57.3509 181.468L57.2893 181.4L57.2277 181.334L57.1662 181.29L57.1047 181.222L57.0432 181.154L56.9818 181.086L56.9204 181.018L56.8591 180.963L56.7978 180.906L56.7366 180.838L56.6754 180.77L56.6142 180.701L56.5531 180.634L56.492 180.589L56.431 180.521L56.37 180.452L56.3091 180.383L56.2482 180.315L56.1873 180.259L56.1266 180.202L56.0658 180.133L56.0051 180.064L55.9444 179.995L55.8838 179.927L55.8232 179.882L55.7627 179.812L55.7021 179.743L55.6417 179.674L55.5813 179.604L55.5209 179.548L55.4606 179.49L55.4003 179.421L55.3401 179.351L55.2799 179.281L55.2198 179.212L55.1597 179.167L55.0996 179.097L55.0396 179.027L54.9795 178.957L54.9197 178.887L54.8598 178.83L54.7999 178.771L54.7402 178.701L54.6805 178.631L54.6207 178.56L54.5611 178.49L54.5015 178.444L54.4419 178.374L54.3824 178.303L54.3229 178.233L54.2635 178.162L54.2041 178.104L54.1448 178.045L54.0855 177.974L54.0263 177.903L53.9671 177.832L53.9079 177.762L53.8488 177.715L53.7897 177.644L53.7308 177.573L53.6718 177.501L53.6128 177.43L53.5541 177.371L53.4952 177.312L53.4364 177.24L53.3777 177.169L53.319 177.097L53.2603 177.026L53.2018 176.979L53.1432 176.907L53.0847 176.835L53.0262 176.763L52.9678 176.691L52.9095 176.631L52.8512 176.572L52.7929 176.499L52.7347 176.427L52.6765 176.355L52.6184 176.282L52.5603 176.235L52.5023 176.162L52.4443 176.09L52.3864 176.017L52.3285 175.945L52.2706 175.884L52.2128 175.824L52.1551 175.751L52.0974 175.679L52.0398 175.606L51.9822 175.533L51.9245 175.484L51.867 175.411L51.8096 175.338L51.7521 175.265L51.6948 175.192L51.6375 175.131L51.5802 175.07L51.523 174.996L51.4658 174.923L51.4087 174.849L51.3517 174.776L51.2946 174.727L51.2376 174.653L51.1807 174.579L51.1238 174.506L51.067 174.432L51.0102 174.37L50.9535 174.309L50.8968 174.235L50.8402 174.16L50.7835 174.086L50.727 174.012L50.6705 173.962L50.6141 173.888L50.5577 173.814L50.5013 173.739L50.4451 173.665L50.3888 173.602L50.3326 173.541L50.2765 173.466L50.2204 173.391L50.1644 173.316L50.1083 173.241L50.0524 173.191L49.9965 173.117L49.9407 173.041L49.8849 172.966L49.8291 172.891L49.7734 172.828L49.7178 172.766L49.6621 172.69L49.6066 172.615L49.5511 172.54L49.4956 172.464L49.4403 172.413L49.3849 172.338L49.3296 172.262L49.2744 172.187L49.2192 172.111L49.164 172.047L49.109 171.984L49.0539 171.908L48.9989 171.832L48.944 171.756L48.8891 171.68L48.8342 171.628L48.7794 171.553L48.7247 171.477L48.67 171.4L48.6154 171.324L48.5607 171.259L48.5062 171.196L48.4518 171.12L48.3973 171.043L48.3429 170.966L48.2886 170.89L48.2342 170.837L48.18 170.761L48.1259 170.684L48.0717 170.607L48.0177 170.53L47.9636 170.465L47.9096 170.401L47.8558 170.324L47.8019 170.247L47.748 170.17L47.6943 170.093L47.6406 170.039L47.5869 169.963L47.5333 169.885L47.4798 169.808L47.4263 169.731L47.3729 169.664L47.3194 169.6L47.2661 169.523L47.2128 169.445L47.1595 169.367L47.1064 169.289L47.0533 169.235L47.0001 169.158L46.9471 169.08L46.8941 169.002L46.8411 168.924L46.7883 168.857L46.7355 168.793L46.6827 168.714L46.63 168.636L46.5773 168.558L46.5247 168.479L46.4722 168.424L46.4197 168.347L46.3672 168.269L46.3149 168.19L46.2624 168.111L46.2102 168.043L46.1579 167.979L46.1057 167.9L46.0536 167.821L46.0016 167.742L45.9496 167.663L45.8976 167.607L45.8456 167.53L45.7937 167.451L45.742 167.371L45.6903 167.292L45.6385 167.224L45.5869 167.159L45.5353 167.079L45.4837 167L45.4323 166.92L45.3809 166.841L45.3295 166.784L45.2782 166.706L45.2269 166.627L45.1757 166.547L45.1246 166.467L45.0735 166.398L45.0224 166.332L44.9715 166.252L44.9205 166.172L44.8696 166.092L44.8188 166.012L44.768 165.955L44.7173 165.877L44.6667 165.796L44.616 165.716L44.5655 165.636L44.515 165.565L44.4645 165.5L44.4142 165.419L44.3639 165.339L44.3135 165.258L44.2633 165.177L44.2131 165.119L44.163 165.041L44.113 164.96L44.063 164.879L44.013 164.798L43.9632 164.727L43.9133 164.661L43.8635 164.58L43.8139 164.499L43.7642 164.418L43.7146 164.336L43.6651 164.278L43.6155 164.199L43.5661 164.117L43.5167 164.036L43.4673 163.955L43.4181 163.883L43.3689 163.816L43.3197 163.735L43.2706 163.653L43.2216 163.571L43.1726 163.49L43.1236 163.43L43.0748 163.351L43.0259 163.269L42.9771 163.187L42.9284 163.105L42.8798 163.033L42.8312 162.966L42.7826 162.884L42.7342 162.802L42.6858 162.719L42.6374 162.637L42.589 162.577L42.5408 162.497L42.4926 162.415L42.4445 162.332L42.3964 162.25L42.3483 162.177L42.3004 162.11L42.2525 162.027L42.2046 161.944L42.1568 161.861L42.1091 161.779L42.0614 161.718L42.0138 161.638L41.9662 161.555L41.9187 161.472L41.8712 161.389L41.8238 161.315L41.7765 161.247L41.7292 161.164L41.682 161.081L41.6348 160.998L41.5877 160.914L41.5407 160.853L41.4937 160.772L41.4468 160.689L41.3999 160.605L41.3531 160.522L41.3063 160.448L41.2596 160.38L41.213 160.296L41.1664 160.212L41.1198 160.128L41.0734 160.044L41.027 159.982L40.9807 159.902L40.9344 159.818L40.8882 159.734L40.842 159.649L40.7959 159.574L40.7498 159.506L40.7039 159.422L40.658 159.338L40.6121 159.253L40.5662 159.169L40.5205 159.106L40.4748 159.025L40.4292 158.941L40.3836 158.856L40.3381 158.772L40.2926 158.696L40.2472 158.627L40.2018 158.542L40.1566 158.458L40.1114 158.373L40.0662 158.288L40.0211 158.225L39.9761 158.143L39.9311 158.058L39.8862 157.973L39.8413 157.888L39.7965 157.812L39.7518 157.743L39.707 157.657L39.6624 157.572L39.6179 157.487L39.5734 157.402L39.5289 157.337L39.4846 157.256L39.4402 157.17L39.396 157.085L39.3518 156.999L39.3076 156.922L39.2636 156.853L39.2196 156.767L39.1756 156.682L39.1317 156.596L39.0879 156.51L39.0441 156.445L39.0004 156.363L38.9567 156.277L38.9131 156.191L38.8696 156.105L38.8261 156.027L38.7827 155.958L38.7394 155.872L38.696 155.785L38.6528 155.699L38.6097 155.613L38.5665 155.547L38.5235 155.465L38.4805 155.379L38.4376 155.292L38.3947 155.206L38.3519 155.127L38.3092 155.057L38.2665 154.971L38.2239 154.884L38.1813 154.797L38.1389 154.71L38.0964 154.644L38.0541 154.562L38.0118 154.475L37.9695 154.388L37.9273 154.301L37.8852 154.222L37.8431 154.152L37.8011 154.065L37.7592 153.978L37.7173 153.89L37.6755 153.803L37.6338 153.736L37.592 153.654L37.5505 153.566L37.5089 153.479L37.4673 153.391L37.4259 153.312L37.3846 153.241L37.3432 153.154L37.302 153.066L37.2608 152.978L37.2197 152.891L37.1786 152.823L37.1376 152.74L37.0967 152.652L37.0558 152.564L37.015 152.477L36.9742 152.396L36.9336 152.326L36.8929 152.238L36.8524 152.149L36.8119 152.061L36.7714 151.973L36.7311 151.905L36.6908 151.822L36.6505 151.734L36.6103 151.645L36.5702 151.557L36.5301 151.476L36.4902 151.405L36.4502 151.317L36.4103 151.228L36.3706 151.14L36.3308 151.051L36.2911 150.982L36.2516 150.899L36.212 150.81L36.1725 150.721L36.1331 150.632L36.0937 150.551L36.0544 150.48L36.0152 150.391L35.976 150.302L35.937 150.213L35.8979 150.124L35.8589 150.055L35.82 149.971L35.7812 149.882L35.7424 149.792L35.7037 149.703L35.665 149.621L35.6264 149.55L35.5879 149.46L35.5495 149.371L35.5111 149.282L35.4728 149.192L35.4345 149.122L35.3962 149.038L35.3581 148.948L35.32 148.859L35.2821 148.769L35.2441 148.687L35.2062 148.615L35.1684 148.525L35.1307 148.435L35.0929 148.345L35.0554 148.256L35.0178 148.185L34.9803 148.101L34.9429 148.011L34.9055 147.921L34.8682 147.831L34.831 147.748L34.7938 147.675L34.7567 147.585L34.7197 147.495L34.6827 147.405L34.6458 147.315L34.609 147.244L34.5722 147.159L34.5355 147.069L34.4989 146.978L34.4623 146.888L34.4258 146.804L34.3894 146.732L34.3529 146.641L34.3167 146.55L34.2804 146.46L34.2442 146.369L34.2082 146.298L34.1721 146.213L34.1361 146.122L34.1002 146.031L34.0643 145.94L34.0285 145.856L33.9929 145.783L33.9571 145.692L33.9216 145.601L33.8861 145.51L33.8506 145.419L33.8152 145.347L33.7799 145.262L33.7446 145.171L33.7094 145.08L33.6743 144.988L33.6392 144.904L33.6043 144.831L33.5694 144.739L33.5345 144.648L33.4997 144.557L33.4649 144.465L33.4303 144.393L33.3957 144.307L33.3612 144.215L33.3267 144.124L33.2923 144.032L33.258 143.947L33.2238 143.874L33.1896 143.782L33.1554 143.69L33.1214 143.599L33.0874 143.507L33.0534 143.434L33.0196 143.348L32.9858 143.256L32.9521 143.164L32.9185 143.072L32.8849 142.986L32.8513 142.913L32.8179 142.821L32.7845 142.729L32.7512 142.636L32.718 142.544L32.6848 142.471L32.6517 142.385L32.6186 142.292L32.5856 142.2L32.5527 142.108L32.5199 142.021L32.4871 141.948L32.4544 141.855L32.4218 141.763L32.3891 141.67L32.3567 141.578L32.3243 141.504L32.2919 141.417L32.2596 141.325L32.2273 141.232L32.1951 141.139L32.1631 141.052L32.131 140.979L32.0991 140.886L32.0672 140.793L32.0354 140.7L32.0036 140.607L31.972 140.533L31.9403 140.446L31.9088 140.353L31.8773 140.26L31.8459 140.167L31.8146 140.08L31.7833 140.006L31.752 139.913L31.721 139.819L31.6899 139.726L31.6589 139.633L31.628 139.558L31.5971 139.471L31.5663 139.378L31.5356 139.285L31.5049 139.191L31.4743 139.103L31.4438 139.029L31.4133 138.936L31.3829 138.842L31.3526 138.748L31.3223 138.655L31.2922 138.579L31.2621 138.493L31.232 138.399L31.2021 138.305L31.1722 138.211L31.1423 138.123L31.1126 138.049L31.0829 137.955L31.0532 137.861L31.0237 137.767L30.9942 137.673L30.9648 137.597L30.9355 137.51L30.9062 137.416L30.877 137.322L30.8479 137.228L30.8187 137.139L30.7898 137.065L30.7609 136.97L30.732 136.876L30.7032 136.782L30.6745 136.688L30.6458 136.611L30.6173 136.524L30.5887 136.43L30.5603 136.335L30.532 136.241L30.5036 136.152L30.4754 136.077L30.4472 135.983L30.4191 135.888L30.3911 135.793L30.3632 135.699L30.3353 135.622L30.3075 135.535L30.2797 135.44L30.252 135.345L30.2245 135.251L30.1969 135.161L30.1694 135.086L30.1421 134.991L30.1148 134.896L30.0875 134.802L30.0604 134.707L30.0332 134.629L30.0062 134.542L29.9793 134.447L29.9523 134.352L29.9255 134.257L29.8988 134.167L29.872 134.092L29.8455 133.997L29.8189 133.901L29.7924 133.806L29.766 133.711L29.7397 133.633L29.7134 133.546L29.6873 133.45L29.6611 133.355L29.6351 133.26L29.6091 133.169L29.5832 133.094L29.5573 132.999L29.5316 132.903L29.5059 132.808L29.4803 132.712L29.4547 132.634L29.4292 132.546L29.4038 132.451L29.3785 132.355L29.3532 132.26L29.328 132.168L29.3029 132.093L29.2778 131.998L29.2529 131.902L29.2279 131.806L29.2031 131.71L29.1784 131.632L29.1536 131.544L29.129 131.448L29.1045 131.352L29.0799 131.256L29.0556 131.165L29.0312 131.09L29.0069 130.994L28.9828 130.898L28.9586 130.802L28.9345 130.706L28.9106 130.626L28.8867 130.538L28.8628 130.442L28.8391 130.346L28.8154 130.25L28.7917 130.158L28.7682 130.083L28.7447 129.987L28.7213 129.89L28.698 129.794L28.6747 129.698L28.6515 129.618L28.6284 129.53L28.6053 129.434L28.5824 129.337L28.5595 129.241L28.5366 129.149L28.5139 129.073L28.4912 128.977L28.4685 128.88L28.446 128.784L28.4235 128.687L28.4011 128.607L28.3788 128.519L28.3565 128.422L28.3343 128.326L28.3122 128.229L28.2902 128.136L28.2682 128.061L28.2464 127.964L28.2245 127.867L28.2028 127.77L28.1811 127.674L28.1594 127.593L28.1379 127.505L28.1165 127.408L28.095 127.311L28.0738 127.214L28.0525 127.121L28.0313 127.046L28.0103 126.949L27.9892 126.852L27.9683 126.755L27.9474 126.658L27.9265 126.577L27.9058 126.489L27.8852 126.391L27.8645 126.294L27.8441 126.197L27.8236 126.104L27.8032 126.028L27.7829 125.931L27.7627 125.834L27.7425 125.736L27.7225 125.639L27.7024 125.558L27.6825 125.47L27.6627 125.372L27.6428 125.275L27.6231 125.178L27.6035 125.083L27.5839 125.008L27.5644 124.91L27.545 124.813L27.5256 124.716L27.5064 124.618L27.4872 124.536L27.468 124.448L27.449 124.351L27.43 124.253L27.411 124.155L27.3922 124.061L27.3734 123.985L27.3547 123.888L27.3361 123.79L27.3175 123.692L27.2991 123.595L27.2807 123.513L27.2623 123.424L27.2441 123.327L27.2259 123.229L27.2078 123.131L27.1898 123.036L27.1718 122.96L27.1539 122.863L27.1361 122.765L27.1184 122.667L27.1007 122.569L27.0831 122.487L27.0655 122.398L27.0481 122.3L27.0307 122.202L27.0134 122.104L26.9962 122.009L26.9791 121.933L26.9619 121.835L26.9449 121.737L26.928 121.639L26.9111 121.541L26.8944 121.458L26.8777 121.37L26.8609 121.272L26.8444 121.174L26.8279 121.076L26.8115 120.98L26.7952 120.904L26.7789 120.806L26.7627 120.708L26.7466 120.61L26.7305 120.512L26.7145 120.428L26.6986 120.34L26.6828 120.242L26.667 120.143L26.6514 120.045L26.6357 119.949L26.6202 119.873L26.6047 119.775L26.5893 119.677L26.5741 119.578L26.5588 119.48L26.5436 119.396L26.5285 119.308L26.5135 119.209L26.4986 119.111L26.4837 119.012L26.4689 118.916L26.4542 118.84L26.4395 118.742L26.4249 118.643L26.4104 118.545L26.396 118.446L26.3816 118.362L26.3674 118.274L26.3532 118.175L26.339 118.077L26.325 117.978L26.311 117.882L26.2971 117.806L26.2833 117.707L26.2695 117.608L26.2558 117.51L26.2422 117.411L26.2286 117.327L26.2152 117.238L26.2018 117.14L26.1884 117.041L26.1752 116.942L26.1621 116.845L26.1489 116.769L26.1359 116.67L26.123 116.572L26.1101 116.473L26.0973 116.374L26.0846 116.289L26.0719 116.201L26.0594 116.102L26.0468 116.003L26.0344 115.904L26.0221 115.807L26.0098 115.731L25.9976 115.632L25.9855 115.533L25.9734 115.434L25.9614 115.335L25.9495 115.251L25.9376 115.162L25.9259 115.063L25.9142 114.964L25.9026 114.865L25.8911 114.768L25.8796 114.692L25.8682 114.593L25.8569 114.494L25.8456 114.394L25.8345 114.295L25.8234 114.21L25.8124 114.122L25.8014 114.023L25.7906 113.924L25.7797 113.824L25.7691 113.727L25.7584 113.651L25.7478 113.552L25.7373 113.452L25.7269 113.353L25.7165 113.254L25.7063 113.169L25.6961 113.08L25.6859 112.981L25.6759 112.882L25.6659 112.782L25.656 112.684L25.6462 112.609L25.6364 112.509L25.6267 112.41L25.6172 112.311L25.6076 112.211L25.5982 112.126L25.5888 112.038L25.5794 111.938L25.5702 111.839L25.5611 111.739L25.5519 111.641L25.543 111.565L25.534 111.466L25.5251 111.367L25.5164 111.267L25.5076 111.168L25.499 111.082L25.4905 110.994L25.4819 110.894L25.4735 110.795L25.4652 110.695L25.4569 110.597L25.4487 110.521L25.4406 110.421L25.4325 110.322L25.4246 110.222L25.4167 110.123L25.4088 110.037L25.4011 109.949L25.3935 109.849L25.3858 109.749L25.3783 109.65L25.3709 109.551L25.3635 109.476L25.3562 109.376L25.3489 109.276L25.3418 109.177L25.3347 109.077L25.3277 108.991L25.3208 108.903L25.314 108.803L25.3071 108.703L25.3005 108.604L25.2938 108.505L25.2872 108.429L25.2808 108.33L25.2744 108.23L25.268 108.13L25.2618 108.03L25.2556 107.944L25.2494 107.856L25.2434 107.756L25.2374 107.656L25.2315 107.557L25.2258 107.457L25.22 107.382L25.2143 107.282L25.2087 107.183L25.2032 107.083L25.1978 106.983L25.1924 106.896L25.187 106.808L25.1819 106.709L25.1767 106.609L25.1716 106.509L25.1667 106.41L25.1617 106.334L25.1568 106.235L25.1521 106.135L25.1474 106.035L25.1427 105.935L25.1382 105.848L25.1337 105.76L25.1293 105.66L25.125 105.561L25.1207 105.461L25.1165 105.361L25.1124 105.286L25.1083 105.186L25.1044 105.086L25.1005 104.986L25.0967 104.886L25.093 104.799L25.0893 104.712L25.0857 104.612L25.0822 104.512L25.0787 104.412L25.0753 104.312L25.0721 104.237L25.0688 104.137L25.0657 104.037L25.0626 103.937L25.0596 103.837L25.0567 103.75L25.0539 103.663L25.051 103.563L25.0484 103.463L25.0457 103.363L25.0431 103.263L25.0407 103.188L25.0383 103.088L25.0359 102.988L25.0337 102.888L25.0315 102.788L25.0293 102.7L25.0273 102.613L25.0253 102.513L25.0234 102.413L25.0217 102.313L25.0199 102.213L25.0182 102.138L25.0166 102.038L25.0151 101.938L25.0136 101.838L25.0123 101.738L25.0109 101.651L25.0097 101.563L25.0086 101.464L25.0074 101.364L25.0065 101.264L25.0055 101.164L25.0046 101.088L25.0039 100.989L25.0032 100.889L25.0025 100.789L25.002 100.689L25.0015 100.601L25.001 100.514L25.0007 100.414L25.0004 100.314L25.0002 100.214L25.0001 100.114L25 100.038L25 99.9388L25.0001 99.8387L25.0003 99.7388L25.0006 99.6388L25.0009 99.5506L25.0012 99.4638L25.0017 99.3639L25.0022 99.2639L25.0028 99.1639L25.0035 99.0639L25.0043 98.9881L25.0051 98.8889L25.006 98.789L25.007 98.689L25.008 98.589L25.0092 98.5007L25.0103 98.4141L25.0116 98.3141L25.013 98.2141L25.0143 98.1142L25.0159 98.0142L25.0174 97.9382L25.019 97.8392L25.0208 97.7393L25.0226 97.6393L25.0244 97.5394L25.0263 97.4509L25.0284 97.3644L25.0304 97.2645L25.0326 97.1645L25.0348 97.0646L25.0371 96.9647L25.0395 96.8886L25.0419 96.7898L25.0444 96.6898L25.0471 96.5899L25.0497 96.4899L25.0524 96.4013L25.0553 96.3151L25.0582 96.2151L25.0611 96.1152L25.0642 96.0153L25.0673 95.9153L25.0704 95.8391L25.0738 95.7405L25.0771 95.6406L25.0805 95.5407L25.084 95.4408L25.0875 95.352L25.0911 95.266L25.0949 95.1661L25.0986 95.0662L25.1025 94.9663L25.1064 94.8664L25.1104 94.7901L25.1145 94.6916L25.1187 94.5918L25.1228 94.4919L25.1272 94.3921L25.1315 94.3032L25.1359 94.2173L25.1405 94.1175L25.1451 94.0176L25.1497 93.9178L25.1545 93.818L25.1593 93.7416L25.1642 93.6433L25.1692 93.5435L25.1742 93.4437L25.1793 93.3439L25.1845 93.2549L25.1898 93.1693L25.1951 93.0695L25.2005 92.9697L25.206 92.8699L25.2115 92.7702L25.2172 92.6936L25.2229 92.5956L25.2286 92.4959L25.2345 92.3961L25.2405 92.2963L25.2464 92.2072L25.2526 92.1218L25.2587 92.0221L25.2649 91.9224L25.2712 91.8226L25.2776 91.7229L25.284 91.6463L25.2906 91.5485L25.2971 91.4488L25.3038 91.3492L25.3106 91.2495L25.3174 91.1603L25.3243 91.0751L25.3313 90.9755L25.3383 90.8758L25.3454 90.7762L25.3526 90.6765L25.3598 90.5998L25.3672 90.5023L25.3747 90.4027L25.3821 90.3031L25.3897 90.2035L25.3973 90.1142L25.405 90.0293L25.4128 89.9297L25.4207 89.8301L25.4286 89.7306L25.4366 89.631L25.4447 89.5542L25.4528 89.4569L25.4611 89.3574L25.4694 89.2579L25.4778 89.1584L25.4863 89.069L25.4948 88.9844L25.5034 88.8849L25.5121 88.7854L25.5208 88.6859L25.5296 88.5864L25.5386 88.5096L25.5475 88.4125L25.5566 88.3131L25.5657 88.2137L25.5749 88.1142L25.5842 88.0248L25.5935 87.9405L25.6029 87.8411L25.6124 87.7417L25.622 87.6423L25.6316 87.543L25.6414 87.466L25.6512 87.3692L25.661 87.2699L25.671 87.1706L25.681 87.0713L25.691 86.9818L25.7013 86.8976L25.7115 86.7984L25.7217 86.6991L25.7322 86.5998L25.7426 86.5006L25.7531 86.4236L25.7638 86.3271L25.7745 86.2279L25.7852 86.1287L25.7961 86.0295L25.807 85.94L25.8179 85.8561L25.829 85.7569L25.8401 85.6577L25.8513 85.5586L25.8626 85.4595L25.8739 85.3825L25.8854 85.2863L25.8969 85.1872L25.9084 85.0881L25.9201 84.989L25.9319 84.8994L25.9436 84.8159L25.9555 84.7169L25.9675 84.6178L25.9794 84.5188L25.9916 84.4198L26.0038 84.3428L26.016 84.2468L26.0283 84.1479L26.0407 84.0489L26.0532 83.95L26.0658 83.8603L26.0783 83.7771L26.091 83.6782L26.1038 83.5793L26.1166 83.4804L26.1295 83.3816L26.1425 83.3045L26.1556 83.2089L26.1687 83.1101L26.1819 83.0113L26.1952 82.9125L26.2086 82.8229L26.222 82.7399L26.2355 82.6411L26.2491 82.5424L26.2627 82.4437L26.2764 82.345L26.2903 82.2679L26.3041 82.1726L26.318 82.0739L26.3321 81.9752L26.3462 81.8766L26.3603 81.7869L26.3746 81.7043L26.3889 81.6057L26.4033 81.5071L26.4178 81.4085L26.4323 81.31L26.4469 81.2329L26.4616 81.1379L26.4764 81.0394L26.4912 80.9409L26.5062 80.8424L26.5211 80.7528L26.5362 80.6705L26.5513 80.572L26.5665 80.4736L26.5818 80.3752L26.5972 80.2768L26.6125 80.1997L26.6281 80.105L26.6437 80.0067L26.6593 79.9084L26.675 79.8101L26.6908 79.7205L26.7066 79.6385L26.7226 79.5402L26.7387 79.4419L26.7547 79.3437L26.7709 79.2455L26.7871 79.1684L26.8034 79.0741L26.8198 78.9759L26.8363 78.8777L26.8528 78.7796L26.8694 78.69L26.8861 78.6084L26.9028 78.5103L26.9197 78.4122L26.9366 78.3141L26.9535 78.2161L26.9706 78.139L26.9877 78.0451L27.0049 77.9471L27.0222 77.8491L27.0395 77.7511L27.0569 77.6616L27.0744 77.5803L27.0919 77.4824L27.1096 77.3845L27.1273 77.2867L27.1451 77.1888L27.163 77.1118L27.1809 77.0182L27.1988 76.9204L27.217 76.8226L27.2351 76.7249L27.2533 76.6354L27.2717 76.5544L27.29 76.4567L27.3084 76.359L27.327 76.2614L27.3455 76.1637L27.3642 76.0867L27.3829 75.9935L27.4017 75.8959L27.4206 75.7983L27.4396 75.7008L27.4586 75.6113L27.4777 75.5307L27.4969 75.4333L27.5161 75.3357L27.5354 75.2383L27.5548 75.1409L27.5742 75.0639L27.5938 74.9711L27.6134 74.8737L27.6331 74.7763L27.6529 74.679L27.6727 74.5896L27.6926 74.5094L27.7126 74.4121L27.7326 74.3148L27.7527 74.2176L27.773 74.1204L27.7932 74.0435L27.8135 73.951L27.834 73.8539L27.8544 73.7567L27.875 73.6596L27.8957 73.5702L27.9163 73.4904L27.9371 73.3934L27.958 73.2964L27.9788 73.1994L27.9999 73.1024L28.0209 73.0256L28.042 72.9334L28.0633 72.8365L28.0846 72.7397L28.1059 72.6428L28.1273 72.5535L28.1488 72.4741L28.1704 72.3772L28.1921 72.2805L28.2138 72.1837L28.2355 72.0869L28.2574 72.0102L28.2793 71.9185L28.3013 71.8219L28.3235 71.7252L28.3456 71.6285L28.3678 71.5393L28.3901 71.4604L28.4124 71.3638L28.4349 71.2672L28.4574 71.1707L28.48 71.0742L28.5026 70.9975L28.5254 70.9062L28.5481 70.8098L28.571 70.7134L28.594 70.6171L28.617 70.5279L28.6401 70.4493L28.6633 70.353L28.6864 70.2567L28.7098 70.1604L28.7331 70.0642L28.7566 69.9876L28.7801 69.8967L28.8037 69.8006L28.8273 69.7044L28.8511 69.6083L28.8749 69.5193L28.8987 69.4411L28.9227 69.345L28.9467 69.249L28.9708 69.153L28.995 69.057L29.0192 68.9805L29.0435 68.8901L29.0679 68.7942L29.0923 68.6983L29.1169 68.6024L29.1415 68.5135L29.1661 68.4358L29.1909 68.34L29.2157 68.2443L29.2405 68.1485L29.2655 68.0528L29.2905 67.9764L29.3156 67.8864L29.3408 67.7908L29.366 67.6952L29.3913 67.5996L29.4167 67.5108L29.4421 67.4335L29.4676 67.338L29.4932 67.2425L29.5189 67.1471L29.5446 67.0516L29.5704 66.9753L29.5963 66.8858L29.6222 66.7905L29.6483 66.6952L29.6743 66.5999L29.7005 66.5112L29.7267 66.4343L29.753 66.3391L29.7794 66.2439L29.8058 66.1488L29.8323 66.0536L29.8589 65.9775L29.8856 65.8884L29.9122 65.7933L29.9391 65.6983L29.9659 65.6033L29.9928 65.5147L30.0199 65.4384L30.0469 65.3435L30.0741 65.2485L30.1013 65.1537L30.1286 65.0588L30.1559 64.9828L30.1834 64.8942L30.2108 64.7995L30.2384 64.7047L30.2661 64.61L30.2937 64.5216L30.3215 64.4457L30.3494 64.3511L30.3773 64.2565L30.4053 64.1619L30.4334 64.0673L30.4614 63.9915L30.4897 63.9034L30.5179 63.8089L30.5462 63.7145L30.5747 63.6201L30.6031 63.5318L30.6316 63.4564L30.6603 63.3621L30.689 63.2678L30.7177 63.1735L30.7466 63.0794L30.7754 63.0037L30.8044 62.9159L30.8335 62.8218L30.8625 62.7277L30.8917 62.6337L30.921 62.5456L30.9502 62.4706L30.9796 62.3766L31.0091 62.2826L31.0386 62.1887L31.0682 62.0948L31.0979 62.0193L31.1275 61.9321L31.1574 61.8383L31.1873 61.7445L31.2171 61.6508L31.2472 61.5628L31.2773 61.4884L31.3073 61.3947L31.3376 61.3011L31.3679 61.2075L31.3982 61.1139L31.4287 61.0386L31.4591 60.9519L31.4897 60.8584L31.5203 60.765L31.551 60.6715L31.5818 60.5837L31.6126 60.5098L31.6435 60.4165L31.6745 60.3232L31.7055 60.2299L31.7366 60.1367L31.7678 60.0615L31.799 59.9753L31.8303 59.8822L31.8617 59.7891L31.8932 59.696L31.9246 59.6084L31.9563 59.535L31.9879 59.442L32.0196 59.349L32.0514 59.2561L32.0833 59.1632L32.1152 59.0882L32.1472 59.0026L32.1793 58.9098L32.2114 58.817L32.2436 58.7243L32.2759 58.6369L32.3082 58.564L32.3406 58.4714L32.373 58.3788L32.4056 58.2862L32.4382 58.1937L32.4709 58.1188L32.5036 58.0337L32.5365 57.9413L32.5693 57.8489L32.6023 57.7565L32.6353 57.6693L32.6683 57.5969L32.7015 57.5047L32.7347 57.4124L32.7679 57.3202L32.8014 57.2281L32.8348 57.1535L32.8682 57.0688L32.9018 56.9768L32.9354 56.8848L32.9691 56.7928L33.0029 56.7058L33.0367 56.6339L33.0705 56.542L33.1045 56.4501L33.1385 56.3583L33.1726 56.2665L33.2068 56.1922L33.241 56.108L33.2753 56.0164L33.3097 55.9247L33.344 55.8331L33.3786 55.7463L33.4131 55.675L33.4477 55.5835L33.4824 55.492L33.5172 55.4006L33.552 55.3091L33.5869 55.235L33.6219 55.1515L33.6568 55.0601L33.692 54.9689L33.7271 54.8776L33.7623 54.791L33.7976 54.7203L33.833 54.6292L33.8684 54.5381L33.9039 54.447L33.9394 54.356L33.975 54.282L34.0108 54.1991L34.0465 54.1082L34.0823 54.0173L34.1182 53.9265L34.1541 53.84L34.1902 53.7698L34.2263 53.6791L34.2624 53.5884L34.2986 53.4978L34.3349 53.4072L34.3712 53.3334L34.4076 53.251L34.4441 53.1605L34.4806 53.07L34.5173 52.9796L34.5539 52.8935L34.5906 52.8238L34.6275 52.7335L34.6643 52.6432L34.7012 52.5529L34.7383 52.4627L34.7753 52.3893L34.8124 52.3074L34.8497 52.2173L34.8869 52.1272L34.9242 52.0372L34.9616 51.9513L34.999 51.8822L35.0366 51.7923L35.0742 51.7025L35.1118 51.6126L35.1496 51.5228L35.1873 51.4496L35.2251 51.3683L35.2631 51.2786L35.3011 51.1889L35.339 51.0993L35.3772 51.0137L35.4154 50.9452L35.4536 50.8557L35.4919 50.7662L35.5303 50.6768L35.5687 50.5874L35.6072 50.5144L35.6457 50.4337L35.6843 50.3444L35.7231 50.2552L35.7618 50.166L35.8006 50.0807L35.8395 50.0128L35.8784 49.9237L35.9174 49.8346L35.9565 49.7457L35.9956 49.6567L36.0348 49.584L36.0741 49.5039L36.1134 49.415L36.1528 49.3262L36.1922 49.2374L36.2317 49.1523L36.2713 49.085L36.311 48.9964L36.3507 48.9077L36.3905 48.8192L36.4303 48.7307L36.4702 48.6582L36.5102 48.5787L36.5502 48.4903L36.5902 48.402L36.6304 48.3136L36.6706 48.2288L36.7109 48.1621L36.7513 48.0739L36.7916 47.9857L36.8321 47.8976L36.8727 47.8095L36.9132 47.7373L36.9539 47.6584L36.9946 47.5705L37.0354 47.4825L37.0762 47.3947L37.1171 47.3102L37.1581 47.244L37.1991 47.1563L37.2402 47.0685L37.2813 46.9808L37.3226 46.8932L37.3639 46.8214L37.4052 46.743L37.4467 46.6555L37.4881 46.5681L37.5296 46.4806L37.5713 46.3964L37.6129 46.3309L37.6546 46.2436L37.6964 46.1563L37.7382 46.0691L37.7801 45.9819L37.8221 45.9103L37.8641 45.8327L37.9062 45.7456L37.9484 45.6586L37.9906 45.5716L38.0329 45.4877L38.0752 45.4228L38.1176 45.336L38.1601 45.2492L38.2026 45.1624L38.2451 45.0757L38.2878 45.0044L38.3305 44.9274L38.3733 44.8408L38.4161 44.7543L38.459 44.6677L38.502 44.584L38.545 44.5198L38.5881 44.4334L38.6312 44.3471L38.6744 44.2608L38.7177 44.1746L38.761 44.1036L38.8044 44.0272L38.8478 43.9411L38.8913 43.855L38.9349 43.769L38.9785 43.6856L39.0222 43.6221L39.066 43.5361L39.1098 43.4502L39.1537 43.3645L39.1976 43.2787L39.2415 43.208L39.2856 43.1323L39.3297 43.0467L39.3739 42.961L39.4181 42.8755L39.4624 42.7925L39.5067 42.7295L39.5512 42.6441L39.5956 42.5588L39.6402 42.4734L39.6848 42.3881L39.7294 42.3178L39.7741 42.2427L39.8189 42.1575L39.8637 42.0724L39.9086 41.9874L39.9536 41.9047L39.9986 41.8423L40.0437 41.7574L40.0888 41.6726L40.134 41.5877L40.1793 41.5029L40.2246 41.4329L40.2699 41.3584L40.3154 41.2738L40.3609 41.1892L40.4064 41.1046L40.452 41.0223L40.4977 40.9606L40.5434 40.8761L40.5892 40.7918L40.6351 40.7075L40.6809 40.6232L40.7269 40.5535L40.7729 40.4797L40.819 40.3956L40.8652 40.3115L40.9113 40.2274L40.9576 40.1454L41.0039 40.0844L41.0503 40.0005L41.0967 39.9166L41.1432 39.8328L41.1897 39.7489L41.2364 39.6796L41.2831 39.6065L41.3297 39.5229L41.3765 39.4393L41.4234 39.3557L41.4703 39.274L41.5173 39.2137L41.5643 39.1303L41.6113 39.047L41.6585 38.9637L41.7057 38.8804L41.7529 38.8114L41.8002 38.739L41.8476 38.6558L41.895 38.5727L41.9425 38.4897L41.99 38.4084L42.0376 38.3487L42.0853 38.2659L42.133 38.183L42.1807 38.1002L42.2286 38.0175L42.2764 37.9488L42.3244 37.8771L42.3724 37.7945L42.4204 37.7119L42.4686 37.6294L42.5167 37.5484L42.5649 37.4895L42.6132 37.4072L42.6616 37.3248L42.71 37.2425L42.7585 37.1603L42.807 37.092L42.8555 37.021L42.9042 36.9389L42.9529 36.8568L43.0016 36.7748L43.0504 36.6943L43.0992 36.636L43.1481 36.5542L43.1971 36.4724L43.2461 36.3907L43.2952 36.3089L43.3444 36.2411L43.3935 36.1707L43.4428 36.0892L43.4921 36.0077L43.5414 35.9262L43.5909 35.846L43.6403 35.7885L43.6898 35.7071L43.7394 35.6259L43.7891 35.5447L43.8387 35.4636L43.8885 35.3961L43.9383 35.3264L43.9881 35.2454L44.0381 35.1645L44.088 35.0835L44.1381 35.0037L44.1882 34.9469L44.2383 34.8661L44.2885 34.7854L44.3388 34.7048L44.3891 34.6241L44.4394 34.557L44.4898 34.4881L44.5403 34.4076L44.5908 34.3272L44.6414 34.2469L44.692 34.1674L44.7427 34.1113L44.7935 34.0311L44.8442 33.9509L44.8952 33.8708L44.9461 33.7908L44.997 33.724L45.048 33.6558L45.0991 33.5759L45.1502 33.4961L45.2014 33.4163L45.2527 33.3372L45.3039 33.2818L45.3553 33.2022L45.4067 33.1226L45.4581 33.043L45.5097 32.9636L45.5612 32.8972L45.6128 32.8297L45.6645 32.7504L45.7162 32.671L45.768 32.5918L45.8198 32.5132L45.8717 32.4585L45.9237 32.3794L45.9757 32.3004L46.0277 32.2214L46.0798 32.1425L46.132 32.0766L46.1841 32.0098L46.2364 31.931L46.2887 31.8523L46.3411 31.7736L46.3935 31.6954L46.446 31.6414L46.4985 31.5629L46.5512 31.4845L46.6038 31.406L46.6564 31.3277L46.7092 31.2622L46.762 31.1962L46.8148 31.118L46.8677 31.0398L46.9207 30.9617L46.9737 30.8839L47.0268 30.8307L47.0798 30.7527L47.133 30.6749L47.1862 30.5971L47.2395 30.5192L47.2928 30.4542L47.3462 30.3889L47.3996 30.3112L47.4531 30.2337L47.5066 30.1562L47.5602 30.0787L47.6138 30.0263L47.6675 29.949L47.7212 29.8717L47.7751 29.7944L47.8289 29.7172L47.8827 29.6525L47.9367 29.588L47.9907 29.511L48.0448 29.434L48.0989 29.3571L48.153 29.2802L48.2072 29.2283L48.2615 29.1517L48.3158 29.0749L48.3702 28.9983L48.4246 28.9217L48.479 28.8574L48.5335 28.7937L48.5881 28.7172L48.6427 28.6408L48.6974 28.5645L48.7521 28.4882L48.8068 28.4367L48.8617 28.3608L48.9165 28.2847L48.9714 28.2087L49.0264 28.1327L49.0814 28.0688L49.1365 28.0058L49.1916 27.93L49.2468 27.8542L49.302 27.7785L49.3573 27.7028L49.4126 27.6517L49.468 27.5766L49.5234 27.5011L49.5789 27.4256L49.6344 27.3503L49.69 27.2869L49.7456 27.2246L49.8013 27.1494L49.857 27.0742L49.9128 26.9991L49.9686 26.924L50.0245 26.8734L50.0804 26.799L50.1364 26.7242L50.1924 26.6493L50.2485 26.5745L50.3046 26.5116L50.3608 26.4501L50.417 26.3755L50.4733 26.3009L50.5296 26.2264L50.5859 26.152L50.6424 26.1018L50.6988 26.0282L50.7553 25.954L50.812 25.8797L50.8685 25.8055L50.9252 25.7431L50.9819 25.6824L51.0386 25.6083L51.0955 25.5344L51.1524 25.4605L51.2092 25.3866L51.2662 25.337L51.3232 25.2642L51.3802 25.1905L51.4374 25.1169L51.4945 25.0434L51.5517 24.9813L51.609 24.9214L51.6663 24.848L51.7236 24.7747L51.781 24.7015L51.8384 24.6282L51.8959 24.579L51.9535 24.507L52.011 24.4339L52.0687 24.361L52.1263 24.2881L52.184 24.2265L52.2418 24.1674L52.2997 24.0946L52.3575 24.0219L52.4154 23.9493L52.4734 23.8768L52.5313 23.8279L52.5894 23.7568L52.6476 23.6843L52.7057 23.612L52.7639 23.5397L52.8221 23.4786L52.8804 23.4203L52.9388 23.3482L52.9971 23.2762L53.0556 23.2041L53.1141 23.1322L53.1726 23.0839L53.2312 23.0135L53.2898 22.9418L53.3484 22.87L53.4072 22.7984L53.4659 22.7378L53.5247 22.6802L53.5835 22.6088L53.6424 22.5374L53.7013 22.466L53.7604 22.3948L53.8194 22.3469L53.8785 22.2773L53.9376 22.2062L53.9968 22.1352L54.056 22.0641L54.1153 22.004L54.1746 21.9473L54.2339 21.8765L54.2933 21.8057L54.3528 21.735L54.4123 21.6644L54.4718 21.617L54.5314 21.5482L54.591 21.4778L54.6507 21.4074L54.7104 21.337L54.7702 21.2774L54.83 21.2215L54.8898 21.1513L54.9497 21.0812L55.0097 21.0112L55.0696 20.9411L55.1297 20.8943L55.1898 20.8264L55.2499 20.7565L55.3101 20.6868L55.3703 20.6171L55.4305 20.5579L55.4908 20.5029L55.5511 20.4334L55.6115 20.3639L55.672 20.2946L55.7325 20.2252L55.793 20.1788L55.8535 20.1117L55.9141 20.0426L55.9748 19.9735L56.0355 19.9045L56.0962 19.8458L56.157 19.7916L56.2179 19.7227L56.2787 19.6539L56.3396 19.5852L56.4006 19.5166L56.4616 19.4706L56.5227 19.4044L56.5837 19.3359L56.6448 19.2675L56.706 19.1991L56.7673 19.141L56.8285 19.0876L56.8899 19.0194L56.9512 18.9513L57.0126 18.8832L57.074 18.8152L57.1355 18.7699L57.197 18.7044L57.2586 18.6366L57.3202 18.5688L57.3818 18.5012L57.4435 18.4435L57.5052 18.3909L57.567 18.3235L57.6288 18.256L57.6907 18.1886L57.7526 18.1213L57.8146 18.0765L57.8765 18.0118L57.9386 17.9448L58.0006 17.8777L58.0627 17.8106L58.1249 17.7536L58.1871 17.7018L58.2493 17.635L58.3116 17.5683L58.3739 17.5015L58.4363 17.4349L58.4987 17.3906L58.5612 17.3268L58.6237 17.2604L58.6862 17.194L58.7487 17.1276L58.8114 17.0711L58.874 17.0202L58.9367 16.954L58.9995 16.888L59.0622 16.822L59.125 16.756L59.1879 16.7122L59.2508 16.6493L59.3137 16.5835L59.3767 16.5178L59.4397 16.4522L59.5028 16.3961L59.5659 16.3461L59.629 16.2807L59.6922 16.2153L59.7555 16.15L59.8187 16.0847L59.882 16.0414L59.9454 15.9794L60.0087 15.9143L60.0721 15.8493L60.1356 15.7844L60.1991 15.7288L60.2627 15.6797L60.3263 15.6149L60.3898 15.5502L60.4535 15.4856L60.5172 15.4211L60.581 15.3783L60.6448 15.3171L60.7086 15.2528L60.7724 15.1884L60.8363 15.1242L60.9003 15.0692L60.9643 15.0209L61.0283 14.9569L61.0923 14.8929L61.1564 14.829L61.2206 14.7651L61.2847 14.7229L61.349 14.6626L61.4132 14.5989L61.4775 14.5353L61.5418 14.4718L61.6062 14.4173L61.6706 14.3699L61.735 14.3066L61.7995 14.2433L61.864 14.1801L61.9286 14.1169L61.9932 14.0753L62.0578 14.0158L62.1225 13.9529L62.1872 13.89L62.2519 13.8271L62.3167 13.7733L62.3815 13.7267L62.4464 13.6641L62.5113 13.6015L62.5762 13.539L62.6412 13.4766L62.7062 13.4355L62.7712 13.3768L62.8363 13.3147L62.9015 13.2525L62.9666 13.1903L63.0319 13.137L63.0971 13.0913L63.1623 13.0294L63.2276 12.9676L63.293 12.9058L63.3583 12.8441L63.4238 12.8036L63.4892 12.7458L63.5547 12.6843L63.6203 12.6229L63.6858 12.5615L63.7514 12.5087L63.8171 12.4639L63.8827 12.4026L63.9485 12.3416L64.0142 12.2805L64.0799 12.2195L64.1458 12.1795L64.2116 12.1227L64.2775 12.0619L64.3435 12.0012L64.4094 11.9405L64.4754 11.8883L64.5415 11.8444L64.6075 11.7839L64.6736 11.7235L64.7398 11.6632L64.8059 11.6029L64.8722 11.5635L64.9384 11.5076L65.0047 11.4475L65.071 11.3875L65.1373 11.3276L65.2037 11.2759L65.2702 11.2329L65.3366 11.1732L65.4031 11.1135L65.4696 11.0539L65.5362 10.9944L65.6028 10.9555L65.6694 10.9005L65.7361 10.8411L65.8028 10.7819L65.8695 10.7227L65.9363 10.6716L66.0031 10.6295L66.07 10.5705L66.1368 10.5115L66.2037 10.4527L66.2706 10.3939L66.3376 10.3556L66.4046 10.3015L66.4717 10.2429L66.5387 10.1843L66.6058 10.1259L66.673 10.0754L66.7401 10.0341L66.8073 9.97592L66.8745 9.91772L66.9418 9.85956L67.0092 9.80154L67.0765 9.76381L67.1439 9.7106L67.2113 9.65278L67.2787 9.59496L67.3462 9.53724L67.4137 9.48732L67.4812 9.44697L67.5488 9.3895L67.6164 9.33206L67.684 9.27462L67.7517 9.21735L67.8194 9.18023L67.8871 9.12788L67.9549 9.07083L68.0227 9.01378L68.0905 8.95678L68.1584 8.90747L68.2263 8.86804L68.2942 8.81127L68.3622 8.75461L68.4301 8.69794L68.4982 8.6414L68.5662 8.60489L68.6343 8.55344L68.7024 8.49711L68.7706 8.44084L68.8387 8.38457L68.9069 8.33586L68.9752 8.29739L69.0434 8.24132L69.1118 8.18542L69.1801 8.12953L69.2485 8.0737L69.3169 8.03781L69.3853 7.98731L69.4537 7.9317L69.5223 7.87618L69.5908 7.82069L69.6593 7.77252L69.7279 7.73499L69.7965 7.67969L69.8651 7.62453L69.9338 7.56943L70.0025 7.51431L70.0713 7.47902L70.14 7.42947L70.2088 7.37457L70.2776 7.31986L70.3465 7.26515L70.4154 7.21752L70.4843 7.18094L70.5532 7.12643L70.6222 7.07198L70.6912 7.01767L70.7602 6.96335L70.8293 6.92861L70.8984 6.87999L70.9675 6.82587L71.0367 6.77188L71.1058 6.71796L71.175 6.67094L71.2443 6.63528L71.3136 6.58154L71.3828 6.52781L71.4522 6.47429L71.5215 6.42076L71.5909 6.38658L71.6603 6.33893L71.7297 6.2856L71.7992 6.23233L71.8687 6.17919L71.9382 6.1328L72.0078 6.09802L72.0774 6.04509L72.147 5.99216L72.2166 5.93935L72.2863 5.88661L72.3559 5.85303L72.4257 5.8063L72.4954 5.75377L72.5652 5.70124L72.635 5.64891L72.7048 5.60312L72.7747 5.56924L72.8446 5.51711L72.9145 5.46498L72.9844 5.4129L73.0544 5.36096L73.1244 5.328L73.1944 5.28217L73.2644 5.23044L73.3345 5.1787L73.4046 5.1271L73.4747 5.08197L73.5448 5.04903L73.6151 4.99763L73.6853 4.9463L73.7555 4.89497L73.8258 4.84383L73.896 4.81151L73.9663 4.76658L74.0367 4.71563L74.1071 4.6647L74.1775 4.61382L74.2479 4.56934L74.3183 4.53736L74.3888 4.48672L74.4844 4.46119L74.5798 4.43569L74.6754 4.41035L74.7522 4.38504L74.8415 4.35978L74.9371 4.33471L75.0328 4.30971L75.1285 4.28473L75.218 4.25992L75.2949 4.23503L75.3906 4.21034L75.4864 4.18585L75.5822 4.16137L75.678 4.13697L75.7553 4.11252L75.8447 4.08823L75.9406 4.06411L76.0365 4.04015L76.1325 4.01621L76.2225 3.99231L76.2995 3.96827L76.3954 3.94459L76.4915 3.92109L76.5875 3.89763L76.6836 3.87423L76.7613 3.85064L76.8509 3.8273L76.947 3.80414L77.0432 3.78123L77.1394 3.75832L77.2298 3.73533L77.3068 3.71216L77.4031 3.68952L77.4994 3.66696L77.5958 3.64454L77.6921 3.62218L77.7702 3.59941L77.8598 3.57705L77.9562 3.5549L78.0527 3.53296L78.1491 3.51108L78.24 3.48903L78.3171 3.46672L78.4136 3.44511L78.5101 3.42353L78.6067 3.40216L78.7033 3.38082L78.7819 3.35886L78.8715 3.33747L78.9682 3.31637L79.0648 3.29541L79.1615 3.27456L79.2528 3.25351L79.33 3.23199L79.4268 3.21142L79.5235 3.19085L79.6203 3.17048L79.7171 3.15019L79.7961 3.12906L79.8859 3.10861L79.9827 3.08857L80.0796 3.06858L80.1765 3.04877L80.2682 3.02874L80.3455 3.00801L80.4425 2.98846L80.5395 2.96894L80.6365 2.94956L80.7335 2.9303L80.8129 2.91006L80.9027 2.89052L80.9998 2.87154L81.0969 2.85255L81.194 2.83374L81.286 2.81472L81.3634 2.7948L81.4606 2.7763L81.5578 2.75781L81.655 2.73941L81.7523 2.72119L81.832 2.70185L81.9219 2.68322L82.0192 2.66528L82.1165 2.64735L82.2138 2.62952L82.3063 2.61151L82.3836 2.59245L82.481 2.57493L82.5785 2.55749L82.6759 2.54011L82.7733 2.5229L82.8535 2.50446L82.9433 2.48676L83.0408 2.46986L83.1384 2.45296L83.2359 2.43613L83.3287 2.41914L83.4061 2.40093L83.5037 2.38438L83.6013 2.36801L83.6989 2.35168L83.7966 2.33543L83.8771 2.31791L83.967 2.30118L84.0647 2.28526L84.1624 2.26941L84.2601 2.25362L84.3532 2.2376L84.4307 2.22025L84.5284 2.20468L84.6262 2.18938L84.724 2.17409L84.8218 2.15883L84.9027 2.14223L84.9926 2.12647L85.0905 2.11153L85.1884 2.09673L85.2863 2.08199L85.3798 2.06694L85.4573 2.05045L85.5552 2.03593L85.6531 2.02162L85.7511 2.00738L85.8491 1.99315L85.9303 1.97743L86.0202 1.96265L86.1182 1.94869L86.2163 1.93496L86.3144 1.92127L86.4081 1.90718L86.4856 1.89154L86.5837 1.87809L86.6818 1.86477L86.78 1.85157L86.8781 1.83842L86.9597 1.82356L87.0496 1.80973L87.1478 1.79682L87.246 1.78409L87.3442 1.77146L87.4383 1.75836L87.5158 1.74355L87.6141 1.73117L87.7123 1.71882L87.8106 1.70669L87.9089 1.6946L87.9907 1.6806L88.0807 1.66773L88.179 1.65588L88.2773 1.64415L88.3757 1.63257L88.4701 1.62051L88.5476 1.60647L88.646 1.59518L88.7444 1.58388L88.8428 1.57273L88.9412 1.56172L89.0234 1.54861L89.1133 1.53668L89.2118 1.52588L89.3102 1.51515L89.4087 1.50463L89.5034 1.49362L89.5809 1.48037L89.6794 1.47013L89.7779 1.45988L89.8765 1.44974L89.975 1.43978L90.0575 1.4276L90.1474 1.41656L90.246 1.40684L90.3445 1.39716L90.4431 1.38763L90.5381 1.37768L90.6156 1.36525L90.7142 1.35603L90.8129 1.34685L90.9115 1.33771L91.0102 1.3288L91.0929 1.31756L91.1828 1.30741L91.2815 1.29876L91.3802 1.29014L91.4789 1.2816L91.5741 1.27271L91.6516 1.26112L91.7503 1.2529L91.8491 1.24477L91.9478 1.2367L92.0466 1.22879L92.1296 1.21849L92.2194 1.20925L92.3182 1.20165L92.417 1.19409L92.5158 1.18654L92.6113 1.17872L92.6888 1.16798L92.7876 1.16074L92.8864 1.15368L92.9852 1.14668L93.0841 1.13976L93.1674 1.13041L93.2571 1.12214L93.356 1.11553L93.4549 1.10902L93.5537 1.10254L93.6495 1.09572L93.7269 1.08582L93.8258 1.07959L93.9247 1.07359L94.0236 1.06764L94.1226 1.0617L94.2061 1.05332L94.2958 1.046L94.3947 1.04038L94.4937 1.03492L94.5927 1.02952L94.6887 1.02369L94.766 1.01463L94.865 1.00946L94.964 1.00446L95.063 0.99957L95.1619 0.99468L95.2458 0.9872L95.3354 0.980841L95.4344 0.976232L95.5334 0.971815L95.6324 0.967486L95.7286 0.962643L95.8059 0.954427L95.9049 0.950322L96.004 0.946322L96.103 0.94249L96.2021 0.938674L96.2862 0.932079L96.3756 0.926671L96.4747 0.923119L96.5738 0.919707L96.6728 0.916438L96.7693 0.91265L96.8465 0.905204L96.9456 0.902184L97.0446 0.899198L97.1438 0.89639L97.2428 0.893658L97.3271 0.887944L97.4166 0.883476L97.5157 0.880984L97.6148 0.878579L97.7139 0.876366L97.8105 0.873645L97.8876 0.866962L97.9867 0.865021L98.0859 0.86309L98.185 0.861267L98.2841 0.859616L98.3687 0.854858L98.458 0.851259L98.5571 0.849826L98.6562 0.848459L98.7554 0.847269L98.8522 0.845627L98.9292 0.839703L99.0284 0.838826L99.1275 0.837952L99.2267 0.837128L99.3258 0.836537L99.4105 0.832747L99.4997 0.83001L99.5989 0.829656L99.698 0.829347L99.7972 0.829133L99.8942 0.828584L99.9712 0.823493L100.07 0.823594L100.169 0.823776L100.269 0.824004L100.368 0.82442L100.453 0.821597L100.542 0.819729L100.641 0.820443L100.74 0.821191L100.839 0.821953L100.936 0.8225L101.013 0.818237L101.112 0.819314L101.212 0.820556L101.311 0.821863L101.41 0.823252L101.495 0.821401L101.584 0.820466L101.683 0.822171L101.782 0.823975L101.881 0.825789L101.979 0.827359L102.055 0.823919L102.155 0.826003L102.254 0.828286L102.353 0.83065L102.452 0.833016L102.537 0.832146L102.626 0.83215L102.725 0.834827L102.824 0.837685L102.924 0.840578L103.021 0.843146L103.098 0.840524L103.197 0.843662L103.296 0.84694L103.395 0.85036L103.494 0.853779L103.58 0.853808L103.668 0.854753L103.767 0.858452L103.867 0.86231L103.966 0.866282L104.063 0.869863L104.14 0.868035L104.239 0.872228L104.338 0.876499L104.437 0.880971L104.536 0.885449L104.622 0.886377L104.71 0.888247L104.809 0.892998L104.908 0.897841L105.007 0.902873L105.105 0.907536L105.182 0.906434L105.281 0.911701L105.38 0.917015L105.479 0.922463L105.578 0.928018L105.664 0.929879L105.752 0.93262L105.851 0.938423L105.95 0.944266L106.049 0.950336L106.147 0.956078L106.223 0.955699L106.322 0.962042L106.421 0.968405L106.52 0.974812L106.619 0.981443L106.705 0.984279L106.793 0.987846L106.892 0.994698L106.991 1.00161L107.09 1.00863L107.188 1.01545L107.264 1.01585L107.363 1.02324L107.462 1.03062L107.561 1.03804L107.66 1.04571L107.746 1.04951L107.834 1.05392L107.933 1.06183L108.032 1.06978L108.13 1.07779L108.228 1.08571L108.304 1.08692L108.403 1.09523L108.502 1.10368L108.601 1.11218L108.7 1.12078L108.786 1.12558L108.874 1.13089L108.972 1.13977L109.071 1.1488L109.17 1.15783L109.268 1.16678L109.344 1.16881L109.443 1.17812L109.542 1.18756L109.64 1.19715L109.739 1.20675L109.825 1.21248L109.913 1.21871L110.012 1.22859L110.11 1.23863L110.209 1.24874L110.307 1.25872L110.383 1.26152L110.481 1.27191L110.58 1.28231L110.679 1.29295L110.778 1.30362L110.864 1.31024L110.951 1.31739L111.05 1.32835L111.148 1.3393L111.247 1.35051L111.345 1.36161L111.421 1.36507L111.519 1.37653L111.618 1.38803L111.716 1.39959L111.815 1.41133L111.901 1.41898L111.988 1.42692L112.087 1.43894L112.186 1.45097L112.284 1.46312L112.382 1.47534L112.457 1.47961L112.556 1.49201L112.654 1.5046L112.753 1.5172L112.851 1.5299L112.938 1.53858L113.025 1.54739L113.123 1.56039L113.221 1.5735L113.32 1.58667L113.418 1.59993L113.493 1.60502L113.591 1.61842L113.69 1.63202L113.788 1.64569L113.886 1.65939L113.973 1.66905L114.06 1.67877L114.158 1.69273L114.256 1.70691L114.354 1.72114L114.453 1.73538L114.528 1.7413L114.626 1.75578L114.724 1.77031L114.822 1.78505L114.92 1.79984L115.007 1.81038L115.093 1.82102L115.191 1.83604L115.289 1.85118L115.388 1.86648L115.486 1.88179L115.561 1.88849L115.658 1.904L115.757 1.9196L115.855 1.93529L115.953 1.95116L116.039 1.96269L116.125 1.97413L116.223 1.99024L116.321 2.00639L116.419 2.02268L116.517 2.03908L116.592 2.04664L116.69 2.06309L116.788 2.07975L116.886 2.09644L116.983 2.11333L117.07 2.1259L117.156 2.13813L117.254 2.1553L117.351 2.17252L117.449 2.18975L117.547 2.20723L117.622 2.21572L117.719 2.23304L117.817 2.25076L117.915 2.26855L118.013 2.28636L118.099 2.29996L118.185 2.31309L118.282 2.33122L118.38 2.34951L118.478 2.36781L118.575 2.38624L118.65 2.39565L118.747 2.41396L118.845 2.43265L118.942 2.4515L119.04 2.47035L119.126 2.4849L119.212 2.49893L119.309 2.51807L119.407 2.53735L119.504 2.55674L119.601 2.57616L119.677 2.58645L119.773 2.60576L119.871 2.62543L119.968 2.64532L120.065 2.66524L120.152 2.6807L120.237 2.69564L120.334 2.71584L120.431 2.73604L120.529 2.75652L120.626 2.777L120.701 2.78809L120.797 2.80838L120.894 2.82915L120.991 2.84996L121.089 2.87095L121.175 2.88747L121.26 2.90316L121.357 2.92442L121.454 2.9457L121.551 2.96712L121.648 2.98866L121.723 3.00067L121.819 3.02187L121.916 3.04369L122.013 3.06551L122.11 3.08751L122.196 3.10506L122.281 3.12156L122.378 3.14383L122.474 3.16619L122.571 3.18857L122.668 3.21114L122.743 3.22409L122.839 3.24617L122.935 3.26904L123.032 3.29193L123.129 3.31487L123.215 3.33346L123.299 3.35085L123.396 3.37404L123.492 3.39748L123.589 3.42093L123.686 3.44443L123.761 3.45831L123.856 3.48139L123.952 3.5052L124.049 3.52914L124.145 3.55315L124.232 3.57267L124.315 3.59092L124.412 3.61516L124.508 3.63957L124.604 3.66407L124.701 3.68859L124.776 3.70335L124.871 3.72741L124.967 3.75218L125.063 3.77717L125.159 3.80222L125.246 3.82267L125.329 3.84178L125.425 3.8671L125.521 3.89244L125.617 3.91799L125.713 3.94359L125.789 3.95916L125.883 3.98418L125.979 4.01001L126.075 4.03595L126.171 4.06205L126.257 4.08354L126.34 4.1034L126.436 4.12979L126.532 4.15617L126.628 4.18267L126.723 4.20932L126.798 4.22581L126.892 4.2517L126.988 4.27859L127.084 4.30553L127.179 4.33262L127.266 4.35515L127.348 4.37581L127.444 4.4032L127.539 4.43063L127.635 4.45809L127.73 4.48579L127.806 4.50321L127.899 4.52994L127.994 4.55789L128.09 4.58588L128.185 4.61389L128.271 4.63748L128.354 4.659L128.449 4.68732L128.544 4.71579L128.64 4.74433L128.735 4.77294L128.81 4.79131L128.903 4.81898L128.998 4.8479L129.093 4.87692L129.188 4.90595L129.274 4.9305L129.356 4.95288L129.451 4.98218L129.546 5.01165L129.641 5.04123L129.736 5.0708L129.811 5.09008L129.904 5.11871L129.998 5.14856L130.093 5.17862L130.188 5.20871L130.274 5.23418L130.355 5.25741L130.45 5.28775L130.545 5.31815L130.639 5.34877L130.734 5.37938L130.809 5.39949L130.901 5.42908L130.996 5.45997L131.09 5.49094L131.185 5.52209L131.27 5.5486L131.351 5.57256L131.446 5.60393L131.54 5.63536L131.635 5.66693L131.729 5.69858L131.804 5.71957L131.895 5.75007L131.99 5.78198L132.084 5.81391L132.178 5.84608L132.264 5.87361L132.344 5.8983L132.438 5.93073L132.532 5.96319L132.626 5.99567L132.72 6.02838L132.795 6.05031L132.886 6.08161L132.98 6.11456L133.074 6.14755L133.168 6.18062L133.253 6.20919L133.334 6.23472L133.427 6.26807L133.521 6.30156L133.615 6.33506L133.708 6.36872L133.783 6.39159L133.874 6.42377L133.967 6.45767L134.061 6.4917L134.154 6.52573L134.24 6.5553L134.319 6.58164L134.413 6.61594L134.506 6.65044L134.599 6.68496L134.693 6.71955L134.767 6.74336L134.857 6.77645L134.951 6.81128L135.044 6.84634L135.137 6.88139L135.222 6.9119L135.301 6.93907L135.394 6.97439L135.487 7.0098L135.58 7.04536L135.673 7.08095L135.748 7.1056L135.837 7.1396L135.93 7.17544L136.023 7.21143L136.116 7.2475L136.201 7.27899L136.28 7.30693L136.372 7.34326L136.465 7.37961L136.558 7.41617L136.65 7.45277L136.724 7.47825L136.814 7.51316L136.906 7.55003L136.998 7.58692L137.091 7.62401L137.176 7.65654L137.254 7.68519L137.346 7.72253L137.439 7.75989L137.531 7.79737L137.623 7.83499L137.697 7.86142L137.786 7.89712L137.878 7.935L137.97 7.97288L138.062 8.01091L138.147 8.04448L138.225 8.07387L138.316 8.11216L138.408 8.15055L138.5 8.18896L138.592 8.22754L138.666 8.25491L138.754 8.29143L138.846 8.33029L138.937 8.36917L139.029 8.40812L139.113 8.44272L139.191 8.47289L139.282 8.51208L139.374 8.5515L139.465 8.59091L139.556 8.63038L139.63 8.6587L139.718 8.6961L139.809 8.73586L139.9 8.77576L139.992 8.8157L140.076 8.85123L140.153 8.8822L140.244 8.92236L140.335 8.9627L140.426 9.00311L140.517 9.04354L140.59 9.07275L140.678 9.11103L140.769 9.1517L140.859 9.19259L140.95 9.23353L141.034 9.26999L141.111 9.30173L141.201 9.3429L141.292 9.38413L141.382 9.42553L141.473 9.46697L141.546 9.49701L141.633 9.53616L141.723 9.57781L141.814 9.61961L141.904 9.66154L141.988 9.69901L142.064 9.73143L142.154 9.77362L142.244 9.81579L142.334 9.85811L142.424 9.90056L142.498 9.93147L142.584 9.97142L142.674 10.0141L142.764 10.0568L142.853 10.0997L142.937 10.1382L143.013 10.1713L143.102 10.2144L143.192 10.2576L143.282 10.3008L143.371 10.3442L143.444 10.3761L143.53 10.4168L143.62 10.4604L143.709 10.5041L143.798 10.5479L143.882 10.5874L143.957 10.6213L144.046 10.6653L144.135 10.7095L144.224 10.7536L144.314 10.798L144.386 10.8307L144.472 10.8722L144.561 10.9168L144.65 10.9615L144.739 11.0062L144.821 11.0467L144.896 11.0813L144.985 11.1262L145.074 11.1713L145.162 11.2165L145.251 11.2617L145.324 11.2954L145.408 11.3377L145.497 11.3832L145.585 11.4288L145.674 11.4745L145.756 11.5159L145.83 11.5513L145.919 11.5972L146.007 11.6432L146.095 11.6893L146.184 11.7354L146.256 11.77L146.34 11.8132L146.428 11.8596L146.516 11.9061L146.604 11.9527L146.686 11.9951L146.76 12.0312L146.848 12.078L146.936 12.1249L147.023 12.172L147.111 12.2191L147.183 12.2545L147.267 12.2985L147.354 12.3459L147.442 12.3933L147.529 12.4409L147.611 12.4842L147.684 12.521L147.772 12.5688L147.859 12.6166L147.946 12.6646L148.034 12.7126L148.106 12.7489L148.188 12.7937L148.275 12.8419L148.362 12.8903L148.449 12.9388L148.531 12.9832L148.604 13.0205L148.691 13.0693L148.777 13.1181L148.864 13.1669L148.951 13.2159L149.022 13.2531L149.105 13.2985L149.191 13.3478L149.278 13.3971L149.364 13.4464L149.446 13.4918L149.518 13.5299L149.604 13.5795L149.69 13.6292L149.777 13.679L149.863 13.7288L149.934 13.7669L150.016 13.8132L150.102 13.8633L150.188 13.9135L150.274 13.9638L150.355 14.0101L150.426 14.0489L150.512 14.0994L150.598 14.15L150.684 14.2007L150.769 14.2515L150.84 14.2905L150.921 14.3375L151.007 14.3885L151.092 14.4397L151.178 14.4908L151.258 14.5381L151.329 14.5776L151.415 14.629L151.5 14.6805L151.585 14.7321L151.67 14.7838L151.741 14.8236L151.821 14.8714L151.906 14.9233L151.991 14.9753L152.076 15.0274L152.156 15.0757L152.227 15.1158L152.312 15.1681L152.396 15.2205L152.481 15.273L152.566 15.3256L152.636 15.3663L152.716 15.4149L152.8 15.4677L152.885 15.5205L152.969 15.5736L153.049 15.6228L153.119 15.6635L153.203 15.7168L153.287 15.7701L153.371 15.8234L153.455 15.8769L153.525 15.9184L153.604 15.9677L153.688 16.0215L153.772 16.0752L153.856 16.1291L153.935 16.1793L154.005 16.2207L154.088 16.2748L154.172 16.329L154.255 16.3832L154.339 16.4376L154.409 16.48L154.487 16.53L154.57 16.5847L154.654 16.6393L154.737 16.694L154.816 16.7452L154.885 16.7872L154.968 16.8422L155.051 16.8973L155.134 16.9524L155.217 17.0076L155.286 17.0509L155.364 17.1017L155.447 17.1571L155.529 17.2127L155.612 17.2683L155.691 17.3203L155.759 17.363L155.841 17.4189L155.924 17.4748L156.006 17.5309L156.089 17.5869L156.158 17.6311L156.235 17.6826L156.317 17.7389L156.399 17.7953L156.481 17.8518L156.559 17.9047L156.627 17.9481L156.709 18.0049L156.791 18.0616L156.873 18.1185L156.954 18.1755L157.023 18.2205L157.099 18.2727L157.181 18.3299L157.263 18.3871L157.344 18.4445L157.422 18.4984L157.489 18.5423L157.57 18.6L157.652 18.6576L157.733 18.7153L157.814 18.7732L157.882 18.819L157.958 18.8719L158.039 18.9299L158.12 18.988L158.201 19.0463L158.278 19.1011L158.344 19.1457L158.425 19.2041L158.506 19.2626L158.587 19.3212L158.667 19.3799L158.735 19.4266L158.81 19.4801L158.891 19.5391L158.971 19.5981L159.051 19.6571L159.128 19.7129L159.194 19.7581L159.274 19.8173L159.354 19.8767L159.434 19.9361L159.514 19.9956L159.582 20.0432L159.656 20.0974L159.736 20.1572L159.815 20.217L159.895 20.2769L159.971 20.3336L160.037 20.3794L160.116 20.4395L160.196 20.4997L160.275 20.56L160.354 20.6203L160.422 20.6688L160.495 20.7237L160.574 20.7842L160.653 20.8449L160.733 20.9056L160.808 20.9632L160.873 21.0096L160.952 21.0706L161.031 21.1316L161.109 21.1927L161.188 21.2539L161.255 21.3031L161.328 21.3587L161.406 21.4201L161.485 21.4816L161.563 21.5432L161.639 21.6017L161.703 21.6487L161.781 21.7105L161.859 21.7723L161.937 21.8342L162.015 21.8963L162.082 21.9463L162.154 22.0026L162.232 22.0648L162.31 22.127L162.387 22.1895L162.462 22.2489L162.526 22.2964L162.603 22.3591L162.681 22.4217L162.758 22.4844L162.836 22.5473L162.902 22.5982L162.973 22.6551L163.05 22.7181L163.128 22.7812L163.205 22.8444L163.279 22.9048L163.342 22.9529L163.419 23.0163L163.495 23.0798L163.572 23.1433L163.649 23.207L163.715 23.2588L163.785 23.3162L163.862 23.3801L163.939 23.444L164.015 23.508L164.089 23.5693L164.151 23.6179L164.227 23.6821L164.303 23.7464L164.38 23.8108L164.456 23.8752L164.521 23.9278L164.591 23.9859L164.667 24.0506L164.743 24.1153L164.818 24.1801L164.892 24.2423L164.953 24.2915L165.029 24.3565L165.104 24.4216L165.18 24.4868L165.255 24.552L165.32 24.6054L165.389 24.6641L165.464 24.7295L165.54 24.7951L165.615 24.8607L165.687 24.9237L165.748 24.9735L165.823 25.0393L165.898 25.1051L165.973 25.1711L166.048 25.2372L166.112 25.2913L166.18 25.3507L166.255 25.417L166.329 25.4832L166.404 25.5496L166.476 25.6136L166.536 25.6638L166.61 25.7304L166.685 25.7971L166.759 25.8638L166.833 25.9306L166.896 25.9856L166.964 26.0456L167.038 26.1126L167.112 26.1797L167.186 26.2469L167.257 26.3117L167.317 26.3625L167.39 26.4299L167.464 26.4973L167.537 26.5648L167.611 26.6324L167.674 26.6882L167.741 26.7487L167.814 26.8165L167.887 26.8844L167.96 26.9523L168.031 27.018L168.09 27.0693L168.163 27.1374L168.236 27.2057L168.308 27.2739L168.381 27.3423L168.444 27.3989L168.51 27.46L168.583 27.5286L168.655 27.5972L168.727 27.6659L168.798 27.7325L168.856 27.7843L168.928 27.8532L169 27.9222L169.072 27.9912L169.144 28.0603L169.206 28.1177L169.272 28.1795L169.344 28.2487L169.415 28.3182L169.487 28.3876L169.557 28.455L169.614 28.5073L169.686 28.577L169.757 28.6467L169.828 28.7165L169.9 28.7863L169.961 28.8445L170.026 28.9068L170.097 28.9769L170.168 29.047L170.239 29.1172L170.308 29.1855L170.365 29.2383L170.436 29.3087L170.506 29.3791L170.577 29.4497L170.647 29.5203L170.709 29.5792L170.773 29.6422L170.843 29.713L170.913 29.7838L170.983 29.8548L171.052 29.9239L171.108 29.9772L171.178 30.0484L171.248 30.1195L171.318 30.1908L171.388 30.2621L171.448 30.3219L171.512 30.3853L171.581 30.4569L171.651 30.5284L171.72 30.6001L171.788 30.6701L171.843 30.7239L171.913 30.7957L171.982 30.8677L172.051 30.9397L172.12 31.0117L172.18 31.0723L172.243 31.1362L172.311 31.2085L172.38 31.2808L172.449 31.3531L172.516 31.424L172.571 31.4783L172.639 31.5508L172.708 31.6235L172.776 31.6962L172.844 31.769L172.904 31.8303L172.966 31.8948L173.034 31.9678L173.102 32.0408L173.17 32.1139L173.236 32.1856L173.29 32.2403L173.358 32.3136L173.426 32.387L173.493 32.4604L173.561 32.5339L173.62 32.596L173.681 32.661L173.748 32.7347L173.815 32.8085L173.883 32.8823L173.949 32.9547L174.002 33.0099L174.069 33.084L174.136 33.158L174.203 33.2322L174.269 33.3064L174.328 33.3691L174.388 33.4347L174.454 33.5091L174.521 33.5835L174.587 33.6581L174.653 33.7314L174.705 33.787L174.771 33.8617L174.838 33.9365L174.904 34.0113L174.97 34.0862L175.027 34.1498L175.087 34.2158L175.153 34.2909L175.218 34.366L175.284 34.4413L175.349 34.5154L175.401 34.5714L175.466 34.6469L175.531 34.7223L175.597 34.7978L175.662 34.8735L175.719 34.9378L175.778 35.0043L175.843 35.0801L175.907 35.1559L175.972 35.2318L176.036 35.3068L176.088 35.3632L176.152 35.4393L176.217 35.5155L176.281 35.5917L176.346 35.6679L176.402 35.733L176.46 35.8L176.524 35.8765L176.588 35.953L176.652 36.0295L176.716 36.1053L176.766 36.1622L176.83 36.239L176.894 36.3158L176.957 36.3927L177.021 36.4696L177.077 36.5354L177.134 36.6029L177.197 36.68L177.261 36.7572L177.324 36.8345L177.387 36.911L177.436 36.9684L177.499 37.0457L177.562 37.1232L177.625 37.2008L177.688 37.2784L177.743 37.3449L177.8 37.4129L177.862 37.4907L177.925 37.5685L177.987 37.6465L178.049 37.7237L178.098 37.7815L178.16 37.8596L178.223 37.9377L178.285 38.0159L178.347 38.0942L178.401 38.1614L178.457 38.2299L178.518 38.3083L178.58 38.3868L178.642 38.4654L178.703 38.5435L178.751 38.6016L178.813 38.6803L178.874 38.7591L178.935 38.8379L178.996 38.9169L179.051 38.9848L179.105 39.0537L179.166 39.1328L179.227 39.2119L179.288 39.2911L179.348 39.3701L179.396 39.4285L179.456 39.5079L179.517 39.5874L179.577 39.6668L179.638 39.7464L179.691 39.8151L179.745 39.8844L179.805 39.9641L179.865 40.0439L179.925 40.1237L179.985 40.2034L180.032 40.2623L180.091 40.3423L180.151 40.4223L180.211 40.5024L180.27 40.5826L180.323 40.652L180.376 40.7218L180.435 40.8022L180.494 40.8826L180.554 40.963L180.613 41.0435L180.659 41.1027L180.718 41.1833L180.776 41.264L180.835 41.3448L180.894 41.4255L180.946 41.4957L180.998 41.5659L181.057 41.6468L181.115 41.7278L181.173 41.8089L181.231 41.89L181.277 41.9498L181.335 42.031L181.393 42.1123L181.451 42.1936L181.509 42.275L181.56 42.3458L181.611 42.4164L181.669 42.498L181.727 42.5796L181.784 42.6613L181.841 42.743L181.886 42.8034L181.943 42.8851L182 42.9669L182.057 43.049L182.114 43.131L182.165 43.2024L182.216 43.2735L182.273 43.3556L182.329 43.4379L182.386 43.5202L182.442 43.6025L182.487 43.6635L182.543 43.7456L182.599 43.8281L182.655 43.9106L182.711 43.9933L182.761 44.0654L182.811 44.1369L182.867 44.2196L182.923 44.3024L182.978 44.3853L183.034 44.4682L183.078 44.5298L183.133 44.6124L183.188 44.6955L183.244 44.7786L183.299 44.8619L183.348 44.9347L183.397 45.0065L183.452 45.0898L183.507 45.1733L183.562 45.2567L183.617 45.3403L183.66 45.4025L183.714 45.4854L183.769 45.5691L183.823 45.6528L183.877 45.7366L183.926 45.8101L183.974 45.8823L184.028 45.9662L184.082 46.0502L184.136 46.1342L184.19 46.2183L184.233 46.2812L184.286 46.3646L184.34 46.4488L184.393 46.5331L184.447 46.6175L184.495 46.6917L184.542 46.7642L184.595 46.8487L184.648 46.9332L184.701 47.0178L184.754 47.1025L184.796 47.1659L184.849 47.2497L184.901 47.3345L184.954 47.4194L185.007 47.5043L185.054 47.5791L185.1 47.6521L185.153 47.7371L185.205 47.8222L185.257 47.9073L185.309 47.9925L185.35 48.0566L185.402 48.1408L185.454 48.2262L185.505 48.3116L185.557 48.397L185.604 48.4725L185.649 48.5458L185.701 48.6314L185.752 48.717L185.803 48.8028L185.855 48.8885L185.895 48.9531L185.946 49.0378L185.997 49.1236L186.047 49.2096L186.098 49.2956L186.144 49.3717L186.189 49.4453L186.239 49.5314L186.29 49.6176L186.34 49.7039L186.39 49.7902L186.43 49.8554L186.48 49.9404L186.53 50.0268L186.58 50.1133L186.63 50.1999L186.675 50.2766L186.719 50.3505L186.768 50.4372L186.818 50.5239L186.867 50.6107L186.917 50.6975L186.956 50.7633L187.005 50.8487L187.054 50.9357L187.103 51.0226L187.152 51.1097L187.196 51.1871L187.239 51.2613L187.288 51.3485L187.336 51.4358L187.385 51.523L187.434 51.6104L187.472 51.6768L187.52 51.7625L187.568 51.85L187.616 51.9375L187.664 52.0251L187.708 52.1031L187.75 52.1776L187.798 52.2653L187.845 52.3531L187.893 52.4408L187.941 52.5287L187.979 52.5956L188.025 52.6817L188.073 52.7697L188.12 52.8577L188.167 52.9458L188.21 53.0244L188.251 53.0993L188.298 53.1875L188.345 53.2757L188.391 53.364L188.438 53.4524L188.475 53.5199L188.521 53.6063L188.567 53.6948L188.614 53.7833L188.66 53.8719L188.702 53.9511L188.742 54.0262L188.788 54.1149L188.834 54.2037L188.88 54.2924L188.926 54.3812L188.962 54.4493L189.007 54.5361L189.052 54.6251L189.098 54.7141L189.143 54.8031L189.184 54.8829L189.223 54.9584L189.269 55.0475L189.314 55.1367L189.358 55.226L189.403 55.3153L189.439 55.3839L189.483 55.4711L189.527 55.5605L189.572 55.65L189.616 55.7395L189.657 55.8199L189.695 55.8956L189.739 55.9852L189.783 56.0749L189.827 56.1647L189.871 56.2545L189.906 56.3236L189.949 56.411L189.992 56.5009L190.036 56.5908L190.079 56.6809L190.119 56.7618L190.157 56.8378L190.2 56.9279L190.243 57.018L190.286 57.1082L190.329 57.1985L190.363 57.2682L190.405 57.3559L190.448 57.4462L190.49 57.5366L190.533 57.6271L190.571 57.7087L190.608 57.7848L190.65 57.8754L190.692 57.966L190.735 58.0567L190.776 58.1474L190.81 58.2176L190.851 58.3056L190.893 58.3964L190.934 58.4872L190.976 58.5781L191.014 58.6603L191.05 58.7367L191.091 58.8277L191.132 58.9187L191.173 59.0098L191.214 59.101L191.247 59.1717L191.287 59.2599L191.328 59.3512L191.368 59.4425L191.409 59.5338L191.446 59.6165L191.481 59.6932L191.521 59.7846L191.561 59.8761L191.602 59.9676L191.642 60.0592L191.674 60.1305L191.713 60.219L191.753 60.3107L191.792 60.4024L191.832 60.4941L191.868 60.5774L191.902 60.6542L191.942 60.7461L191.981 60.838L192.02 60.93L192.059 61.0219L192.091 61.0937L192.128 61.1825L192.167 61.2746L192.206 61.3667L192.244 61.4589L192.28 61.5427L192.313 61.6198L192.351 61.712L192.39 61.8044L192.428 61.8967L192.466 61.9891L192.497 62.0614L192.534 62.1504L192.572 62.2429L192.609 62.3354L192.647 62.428L192.682 62.5123L192.714 62.5896L192.751 62.6823L192.788 62.775L192.826 62.8678L192.863 62.9605L192.893 63.0333L192.929 63.1226L192.966 63.2154L193.002 63.3084L193.039 63.4014L193.073 63.4862L193.104 63.5636L193.14 63.6567L193.177 63.7498L193.213 63.843L193.249 63.9362L193.279 64.0094L193.313 64.0989L193.349 64.1922L193.385 64.2855L193.421 64.3788L193.454 64.4642L193.484 64.5419L193.519 64.6353L193.555 64.7288L193.59 64.8223L193.625 64.9159L193.654 64.9896L193.688 65.0793L193.722 65.173L193.757 65.2666L193.792 65.3604L193.824 65.4463L193.854 65.524L193.888 65.6179L193.922 65.7118L193.957 65.8056L193.991 65.8996L194.019 65.9738L194.051 66.0636L194.085 66.1577L194.119 66.2517L194.153 66.3458L194.184 66.4322L194.213 66.5102L194.246 66.6044L194.279 66.6986L194.313 66.7928L194.346 66.8871L194.373 66.9618L194.405 67.0518L194.438 67.1462L194.47 67.2406L194.503 67.3351L194.533 67.4219L194.561 67.5001L194.594 67.5946L194.626 67.6892L194.658 67.7838L194.69 67.8784L194.717 67.9535L194.747 68.0437L194.779 68.1385L194.811 68.2332L194.843 68.328L194.872 68.4154L194.899 68.4936L194.931 68.5885L194.962 68.6834L194.993 68.7784L195.024 68.8733L195.05 68.9489L195.08 69.0393L195.111 69.1344L195.141 69.2294L195.172 69.3245L195.201 69.4123L195.227 69.4908L195.257 69.586L195.287 69.6812L195.318 69.7765L195.348 69.8718L195.373 69.9478L195.401 70.0383L195.431 70.1337L195.461 70.2291L195.491 70.3246L195.518 70.4128L195.543 70.4914L195.573 70.5869L195.602 70.6824L195.631 70.778L195.66 70.8736L195.685 70.9501L195.712 71.0408L195.741 71.1364L195.77 71.2322L195.798 71.3279L195.825 71.4166L195.849 71.4953L195.878 71.5911L195.906 71.687L195.934 71.7829L195.962 71.8788L195.986 71.9556L196.012 72.0464L196.04 72.1425L196.068 72.2385L196.096 72.3345L196.122 72.4237L196.145 72.5024L196.172 72.5986L196.199 72.6947L196.227 72.7909L196.254 72.8871L196.276 72.9644L196.302 73.0553L196.329 73.1516L196.356 73.2479L196.382 73.3443L196.407 73.4339L196.429 73.5127L196.456 73.6091L196.482 73.7056L196.508 73.802L196.534 73.8986L196.556 73.9762L196.581 74.0672L196.606 74.1638L196.632 74.2604L196.658 74.357L196.682 74.4471L196.703 74.5259L196.729 74.6227L196.754 74.7194L196.779 74.8161L196.804 74.9129L196.825 74.9909L196.849 75.0821L196.873 75.1789L196.898 75.2758L196.923 75.3727L196.946 75.4631L196.966 75.5421L196.991 75.639L197.015 75.736L197.039 75.833L197.063 75.93L197.083 76.0085L197.106 76.0997L197.13 76.1968L197.153 76.2939L197.177 76.3911L197.199 76.4819L197.219 76.561L197.242 76.6582L197.265 76.7554L197.288 76.8527L197.311 76.95L197.33 77.0287L197.352 77.1201L197.375 77.2174L197.397 77.3148L197.42 77.4121L197.441 77.5034L197.46 77.5825L197.482 77.6799L197.504 77.7774L197.527 77.8749L197.549 77.9724L197.567 78.0516L197.587 78.143L197.609 78.2405L197.631 78.3382L197.652 78.4358L197.673 78.5274L197.69 78.6065L197.712 78.7042L197.733 78.8019L197.754 78.8996L197.775 78.9974L197.792 79.0769L197.812 79.1683L197.833 79.2662L197.853 79.364L197.874 79.4618L197.893 79.5538L197.91 79.633L197.93 79.7309L197.95 79.8288L197.97 79.9268L197.99 80.0247L198.007 80.1046L198.026 80.1961L198.045 80.2941L198.065 80.3921L198.084 80.4902L198.103 80.5826L198.119 80.6617L198.138 80.7599L198.157 80.858L198.176 80.9561L198.195 81.0543L198.211 81.1345L198.228 81.226L198.247 81.3243L198.266 81.4225L198.284 81.5208L198.301 81.6135L198.317 81.6927L198.335 81.791L198.353 81.8893L198.371 81.9877L198.388 82.086L198.404 82.1665L198.42 82.2581L198.438 82.3565L198.455 82.4549L198.473 82.5534L198.489 82.6465L198.503 82.7256L198.52 82.8241L198.537 82.9227L198.554 83.0212L198.571 83.1198L198.585 83.2006L198.601 83.2922L198.617 83.3908L198.634 83.4894L198.65 83.588L198.666 83.6814L198.679 83.7606L198.695 83.8593L198.711 83.958L198.727 84.0566L198.743 84.1554L198.756 84.2365L198.771 84.3281L198.786 84.4269L198.802 84.5257L198.817 84.6244L198.831 84.7182L198.844 84.7973L198.859 84.8961L198.874 84.995L198.889 85.0939L198.904 85.1928L198.916 85.2742L198.93 85.3658L198.944 85.4647L198.958 85.5636L198.973 85.6626L198.986 85.7566L198.998 85.8357L199.012 85.9348L199.026 86.0338L199.04 86.1328L199.053 86.2318L199.065 86.3136L199.077 86.4051L199.091 86.5042L199.104 86.6033L199.117 86.7024L199.13 86.7966L199.141 86.8758L199.154 86.9749L199.167 87.074L199.179 87.1732L199.192 87.2724L199.203 87.3544L199.214 87.4459L199.227 87.5451L199.239 87.6444L199.251 87.7436L199.263 87.8382L199.273 87.9172L199.285 88.0165L199.296 88.1158L199.308 88.2151L199.32 88.3144L199.329 88.3967L199.34 88.4881L199.352 88.5875L199.363 88.6868L199.374 88.7862L199.385 88.881L199.393 88.96L199.404 89.0594L199.415 89.1588L199.426 89.2582L199.436 89.3577L199.445 89.4402L199.455 89.5316L199.465 89.6311L199.476 89.7305L199.486 89.83L199.495 89.9251L199.503 90.0041L199.513 90.1035L199.523 90.203L199.533 90.3026L199.542 90.4021L199.55 90.4849L199.559 90.5763L199.568 90.6758L199.577 90.7754L199.586 90.875L199.595 90.9704L199.602 91.0492L199.611 91.1488L199.62 91.2484L199.628 91.348L199.637 91.4476L199.644 91.5307L199.652 91.6219L199.66 91.7216L199.668 91.8212L199.676 91.9209L199.684 92.0165L199.69 92.0953L199.698 92.195L199.705 92.2947L199.713 92.3944L199.72 92.4941L199.727 92.5774L199.734 92.6686L199.741 92.7683L199.748 92.868L199.755 92.9677L199.761 93.0636L199.767 93.1423L199.774 93.242L199.78 93.3418L199.787 93.4416L199.793 93.5414L199.799 93.6249L199.804 93.716L199.811 93.8158L199.817 93.9156L199.823 94.0154L199.828 94.1115L199.833 94.19L199.839 94.2899L199.844 94.3897L199.85 94.4895L199.855 94.5894L199.86 94.6731L199.864 94.7641L199.869 94.864L199.874 94.9638L199.879 95.0637L199.884 95.16L199.888 95.2384L199.893 95.3383L199.897 95.4382L199.901 95.5381L199.906 95.6379L199.909 95.7219L199.913 95.8128L199.917 95.9127L199.921 96.0126L199.925 96.1125L199.929 96.209L199.932 96.2873L199.935 96.3873L199.939 96.4872L199.942 96.5871L199.946 96.687L199.948 96.7712L199.951 96.8619L199.954 96.9618L199.957 97.0618L199.96 97.1617L199.963 97.2585L199.965 97.3367L199.967 97.4366L199.97 97.5365L199.972 97.6365L199.975 97.7365L199.977 97.8208L199.978 97.9114L199.98 98.0114L199.982 98.1113L199.984 98.2113L199.986 98.3082L199.987 98.3862L199.989 98.4862L199.99 98.5862L199.991 98.6861L199.993 98.7861L199.994 98.8706L199.995 98.9611L199.996 99.0611L199.996 99.161L199.997 99.261L199.998 99.3581L199.998 99.4359L199.999 99.5359L199.999 99.6359L200 99.7359L200 99.8359L200 99.9206L200 100.011L200 100.111L200 100.211L199.999 100.311L199.999 100.408L199.999 100.486L199.998 100.586L199.998 100.686L199.997 100.786L199.996 100.886L199.995 100.971L199.994 101.061L199.993 101.161L199.992 101.261L199.991 101.361L199.989 101.458L199.988 101.536L199.987 101.636L199.985 101.736L199.983 101.835L199.981 101.935L199.98 102.02L199.978 102.11L199.976 102.21L199.974 102.31L199.971 102.41L199.969 102.508L199.967 102.585L199.964 102.685L199.962 102.785L199.959 102.885L199.956 102.985L199.953 103.07L199.951 103.16L199.947 103.26L199.944 103.36L199.941 103.46L199.937 103.557L199.935 103.634L199.931 103.734L199.927 103.834L199.923 103.934L199.919 104.034L199.916 104.119L199.912 104.209L199.908 104.309L199.904 104.409L199.899 104.509L199.895 104.606L199.891 104.683L199.887 104.783L199.882 104.883L199.877 104.983L199.872 105.083L199.868 105.168L199.863 105.258L199.858 105.357L199.852 105.457L199.847 105.557L199.842 105.655L199.837 105.732L199.831 105.832L199.826 105.932L199.82 106.031L199.814 106.131L199.808 106.217L199.803 106.306L199.797 106.406L199.79 106.505L199.784 106.605L199.777 106.703L199.772 106.78L199.765 106.879L199.758 106.979L199.751 107.079L199.745 107.179L199.738 107.264L199.732 107.353L199.724 107.453L199.717 107.553L199.709 107.652L199.702 107.75L199.696 107.827L199.688 107.926L199.68 108.026L199.672 108.126L199.664 108.225L199.657 108.311L199.65 108.4L199.641 108.499L199.633 108.599L199.624 108.699L199.616 108.797L199.609 108.873L199.6 108.972L199.591 109.072L199.582 109.172L199.573 109.271L199.565 109.357L199.556 109.445L199.547 109.545L199.538 109.644L199.528 109.744L199.518 109.842L199.511 109.918L199.501 110.018L199.491 110.117L199.481 110.217L199.471 110.316L199.462 110.402L199.452 110.49L199.442 110.589L199.431 110.689L199.421 110.788L199.41 110.887L199.402 110.962L199.391 111.062L199.38 111.161L199.369 111.26L199.357 111.36L199.347 111.446L199.337 111.533L199.326 111.633L199.314 111.732L199.303 111.831L199.291 111.93L199.281 112.005L199.27 112.104L199.258 112.204L199.245 112.303L199.233 112.402L199.222 112.488L199.211 112.576L199.199 112.675L199.186 112.774L199.173 112.873L199.161 112.972L199.15 113.047L199.137 113.146L199.124 113.245L199.111 113.344L199.098 113.443L199.086 113.529L199.074 113.616L199.06 113.715L199.047 113.815L199.033 113.914L199.019 114.012L199.008 114.087L198.994 114.186L198.98 114.285L198.966 114.384L198.952 114.483L198.939 114.569L198.926 114.656L198.911 114.755L198.897 114.853L198.882 114.952L198.867 115.051L198.855 115.125L198.84 115.224L198.825 115.323L198.81 115.422L198.794 115.521L198.781 115.607L198.767 115.693L198.751 115.792L198.735 115.891L198.72 115.99L198.704 116.088L198.691 116.162L198.675 116.261L198.659 116.359L198.643 116.458L198.626 116.557L198.611 116.643L198.597 116.729L198.58 116.828L198.563 116.926L198.546 117.025L198.529 117.123L198.516 117.197L198.499 117.296L198.482 117.394L198.464 117.493L198.447 117.591L198.431 117.677L198.416 117.763L198.398 117.862L198.38 117.96L198.362 118.058L198.344 118.157L198.33 118.23L198.312 118.329L198.294 118.427L198.275 118.525L198.257 118.623L198.24 118.709L198.224 118.795L198.205 118.893L198.186 118.992L198.167 119.09L198.148 119.188L198.133 119.262L198.114 119.359L198.094 119.458L198.075 119.556L198.056 119.654L198.038 119.74L198.021 119.825L198.001 119.923L197.981 120.021L197.961 120.119L197.941 120.217L197.925 120.291L197.905 120.388L197.885 120.486L197.864 120.584L197.844 120.682L197.825 120.768L197.807 120.853L197.786 120.951L197.765 121.048L197.744 121.146L197.723 121.244L197.706 121.317L197.685 121.415L197.664 121.512L197.642 121.61L197.621 121.707L197.601 121.793L197.582 121.878L197.56 121.976L197.538 122.073L197.516 122.171L197.494 122.268L197.476 122.342L197.454 122.439L197.432 122.536L197.409 122.633L197.387 122.731L197.366 122.817L197.346 122.901L197.323 122.998L197.3 123.096L197.277 123.193L197.254 123.29L197.236 123.364L197.213 123.46L197.189 123.557L197.166 123.654L197.142 123.751L197.121 123.837L197.1 123.921L197.076 124.018L197.052 124.115L197.028 124.212L197.003 124.309L196.984 124.383L196.96 124.479L196.936 124.576L196.911 124.673L196.886 124.769L196.864 124.855L196.842 124.939L196.817 125.036L196.792 125.132L196.767 125.229L196.742 125.326L196.722 125.399L196.697 125.495L196.671 125.591L196.646 125.688L196.62 125.785L196.597 125.87L196.574 125.954L196.548 126.05L196.522 126.147L196.496 126.243L196.47 126.34L196.449 126.413L196.423 126.508L196.396 126.604L196.37 126.701L196.343 126.797L196.319 126.883L196.295 126.965L196.268 127.062L196.241 127.158L196.214 127.254L196.187 127.35L196.165 127.424L196.138 127.518L196.11 127.614L196.083 127.71L196.055 127.806L196.03 127.892L196.005 127.974L195.977 128.07L195.949 128.166L195.921 128.262L195.893 128.358L195.87 128.431L195.842 128.525L195.814 128.621L195.785 128.717L195.756 128.813L195.73 128.898L195.705 128.98L195.676 129.075L195.647 129.171L195.617 129.267L195.588 129.362L195.565 129.435L195.536 129.529L195.506 129.625L195.477 129.72L195.447 129.815L195.42 129.901L195.394 129.982L195.363 130.077L195.333 130.173L195.303 130.268L195.273 130.363L195.249 130.436L195.219 130.53L195.188 130.625L195.158 130.72L195.127 130.815L195.099 130.9L195.072 130.981L195.041 131.076L195.01 131.171L194.978 131.266L194.947 131.361L194.922 131.434L194.891 131.527L194.859 131.621L194.828 131.716L194.796 131.811L194.767 131.896L194.739 131.976L194.707 132.071L194.675 132.166L194.643 132.26L194.611 132.355L194.585 132.428L194.553 132.52L194.52 132.615L194.488 132.709L194.455 132.804L194.425 132.888L194.396 132.968L194.363 133.063L194.33 133.157L194.297 133.251L194.264 133.345L194.237 133.418L194.204 133.51L194.17 133.604L194.137 133.698L194.103 133.792L194.072 133.877L194.043 133.956L194.009 134.05L193.975 134.144L193.94 134.238L193.906 134.332L193.878 134.405L193.845 134.496L193.81 134.59L193.775 134.683L193.741 134.777L193.709 134.862L193.679 134.941L193.644 135.034L193.609 135.128L193.573 135.221L193.538 135.315L193.51 135.387L193.475 135.478L193.439 135.571L193.404 135.665L193.368 135.758L193.335 135.842L193.304 135.921L193.268 136.014L193.232 136.107L193.196 136.201L193.16 136.294L193.13 136.366L193.095 136.456L193.058 136.549L193.022 136.642L192.985 136.735L192.951 136.819L192.919 136.897L192.882 136.99L192.845 137.083L192.808 137.176L192.771 137.268L192.74 137.34L192.704 137.43L192.667 137.523L192.629 137.615L192.591 137.708L192.557 137.792L192.524 137.869L192.486 137.962L192.448 138.054L192.41 138.146L192.372 138.239L192.34 138.311L192.303 138.4L192.265 138.492L192.226 138.584L192.188 138.676L192.152 138.76L192.118 138.837L192.079 138.929L192.04 139.021L192.001 139.113L191.962 139.205L191.93 139.277L191.892 139.365L191.853 139.457L191.813 139.549L191.773 139.64L191.737 139.724L191.702 139.8L191.663 139.892L191.623 139.984L191.583 140.075L191.542 140.167L191.51 140.238L191.471 140.326L191.43 140.417L191.39 140.509L191.349 140.6L191.312 140.683L191.276 140.759L191.236 140.85L191.195 140.942L191.154 141.033L191.113 141.124L191.079 141.195L191.039 141.282L190.998 141.373L190.956 141.464L190.915 141.555L190.876 141.638L190.84 141.714L190.798 141.804L190.757 141.895L190.715 141.986L190.673 142.076L190.638 142.147L190.597 142.234L190.555 142.325L190.513 142.415L190.47 142.506L190.431 142.588L190.394 142.663L190.351 142.753L190.308 142.844L190.265 142.934L190.222 143.024L190.187 143.095L190.146 143.181L190.102 143.271L190.059 143.361L190.015 143.451L189.975 143.533L189.938 143.608L189.894 143.698L189.85 143.787L189.806 143.877L189.762 143.967L189.726 144.037L189.684 144.123L189.639 144.213L189.595 144.302L189.551 144.392L189.509 144.474L189.471 144.548L189.427 144.637L189.382 144.726L189.337 144.816L189.292 144.905L189.255 144.975L189.212 145.06L189.167 145.149L189.122 145.238L189.076 145.327L189.034 145.409L188.995 145.482L188.949 145.571L188.904 145.66L188.858 145.749L188.812 145.838L188.774 145.908L188.73 145.992L188.684 146.081L188.638 146.169L188.592 146.258L188.549 146.339L188.509 146.412L188.462 146.5L188.416 146.589L188.369 146.677L188.322 146.765L188.284 146.835L188.239 146.919L188.192 147.007L188.145 147.095L188.097 147.183L188.053 147.264L188.013 147.337L187.966 147.424L187.918 147.512L187.871 147.6L187.823 147.688L187.783 147.757L187.738 147.841L187.69 147.928L187.642 148.016L187.593 148.103L187.548 148.184L187.507 148.256L187.459 148.343L187.411 148.43L187.362 148.518L187.313 148.605L187.273 148.674L187.227 148.757L187.178 148.844L187.129 148.931L187.08 149.018L187.034 149.098L186.992 149.169L186.943 149.256L186.893 149.343L186.844 149.43L186.794 149.517L186.753 149.585L186.706 149.667L186.656 149.754L186.606 149.84L186.556 149.927L186.509 150.007L186.467 150.077L186.417 150.164L186.367 150.25L186.316 150.336L186.266 150.423L186.224 150.491L186.176 150.572L186.125 150.658L186.074 150.745L186.023 150.83L185.976 150.91L185.933 150.98L185.881 151.066L185.83 151.152L185.779 151.237L185.728 151.323L185.685 151.391L185.636 151.472L185.584 151.557L185.533 151.643L185.481 151.728L185.432 151.808L185.389 151.877L185.337 151.962L185.284 152.047L185.232 152.132L185.18 152.217L185.136 152.285L185.087 152.365L185.034 152.45L184.982 152.535L184.929 152.62L184.879 152.699L184.835 152.768L184.782 152.852L184.729 152.937L184.676 153.022L184.623 153.106L184.579 153.174L184.528 153.253L184.475 153.337L184.421 153.422L184.368 153.506L184.317 153.585L184.272 153.653L184.219 153.737L184.165 153.821L184.111 153.905L184.057 153.989L184.011 154.056L183.96 154.135L183.906 154.219L183.852 154.302L183.797 154.386L183.746 154.464L183.7 154.532L183.645 154.615L183.591 154.699L183.536 154.782L183.481 154.866L183.435 154.933L183.383 155.01L183.328 155.094L183.273 155.177L183.217 155.26L183.165 155.338L183.119 155.404L183.063 155.487L183.008 155.57L182.952 155.653L182.896 155.736L182.85 155.803L182.797 155.88L182.741 155.963L182.685 156.045L182.629 156.128L182.575 156.205L182.528 156.271L182.472 156.353L182.415 156.436L182.359 156.518L182.302 156.6L182.255 156.667L182.201 156.743L182.144 156.825L182.088 156.907L182.03 156.989L181.976 157.066L181.929 157.131L181.871 157.213L181.814 157.295L181.757 157.377L181.699 157.458L181.651 157.524L181.597 157.6L181.539 157.681L181.481 157.763L181.423 157.844L181.368 157.921L181.32 157.985L181.262 158.067L181.204 158.148L181.146 158.229L181.087 158.31L181.038 158.375L180.983 158.45L180.925 158.531L180.866 158.612L180.807 158.693L180.751 158.769L180.703 158.833L180.644 158.913L180.585 158.994L180.526 159.074L180.466 159.155L180.416 159.22L180.361 159.294L180.302 159.374L180.242 159.455L180.182 159.535L180.126 159.61L180.076 159.674L180.016 159.754L179.957 159.834L179.897 159.913L179.837 159.993L179.786 160.058L179.73 160.131L179.669 160.211L179.609 160.291L179.549 160.37L179.491 160.445L179.441 160.508L179.38 160.587L179.32 160.666L179.259 160.746L179.198 160.825L179.147 160.889L179.09 160.962L179.029 161.041L178.968 161.12L178.906 161.199L178.848 161.273L178.797 161.335L178.736 161.414L178.674 161.493L178.613 161.571L178.551 161.65L178.499 161.714L178.441 161.786L178.379 161.864L178.317 161.942L178.255 162.02L178.196 162.095L178.145 162.156L178.082 162.234L178.02 162.312L177.958 162.39L177.895 162.468L177.842 162.531L177.784 162.602L177.721 162.68L177.658 162.758L177.596 162.835L177.535 162.909L177.483 162.969L177.42 163.047L177.357 163.124L177.294 163.201L177.231 163.279L177.177 163.342L177.118 163.412L177.055 163.489L176.991 163.566L176.927 163.643L176.866 163.716L176.814 163.776L176.75 163.853L176.686 163.929L176.622 164.006L176.558 164.083L176.503 164.145L176.444 164.215L176.38 164.291L176.315 164.367L176.251 164.444L176.189 164.516L176.136 164.575L176.071 164.652L176.006 164.728L175.942 164.803L175.877 164.879L175.821 164.941L175.761 165.01L175.696 165.086L175.631 165.162L175.566 165.237L175.503 165.309L175.449 165.368L175.384 165.443L175.319 165.518L175.253 165.594L175.187 165.669L175.131 165.73L175.07 165.799L175.004 165.874L174.938 165.949L174.872 166.023L174.809 166.095L174.755 166.153L174.689 166.227L174.622 166.302L174.556 166.377L174.49 166.451L174.433 166.512L174.371 166.58L174.304 166.654L174.238 166.728L174.171 166.802L174.106 166.873L174.052 166.93L173.985 167.004L173.918 167.078L173.851 167.152L173.784 167.226L173.726 167.286L173.664 167.353L173.596 167.427L173.529 167.5L173.461 167.574L173.396 167.644L173.341 167.7L173.273 167.774L173.206 167.847L173.138 167.92L173.07 167.993L173.011 168.053L172.949 168.119L172.88 168.192L172.812 168.265L172.744 168.338L172.678 168.407L172.622 168.463L172.554 168.535L172.485 168.608L172.416 168.68L172.348 168.753L172.289 168.812L172.225 168.877L172.156 168.95L172.087 169.022L172.018 169.094L171.951 169.163L171.895 169.218L171.826 169.29L171.757 169.361L171.687 169.433L171.618 169.505L171.558 169.564L171.494 169.628L171.424 169.7L171.355 169.771L171.285 169.842L171.217 169.911L171.161 169.965L171.091 170.036L171.02 170.107L170.95 170.178L170.88 170.249L170.82 170.308L170.755 170.371L170.685 170.442L170.614 170.512L170.544 170.583L170.475 170.651L170.418 170.704L170.347 170.775L170.276 170.845L170.206 170.915L170.135 170.986L170.073 171.044L170.008 171.106L169.937 171.176L169.866 171.246L169.795 171.316L169.725 171.383L169.668 171.436L169.596 171.506L169.525 171.575L169.453 171.645L169.382 171.714L169.32 171.772L169.254 171.833L169.182 171.903L169.11 171.972L169.038 172.041L168.968 172.108L168.91 172.16L168.838 172.228L168.766 172.297L168.693 172.366L168.621 172.435L168.558 172.492L168.492 172.553L168.419 172.621L168.347 172.689L168.274 172.758L168.203 172.824L168.145 172.875L168.072 172.943L167.999 173.011L167.926 173.079L167.853 173.147L167.789 173.204L167.723 173.264L167.649 173.331L167.576 173.399L167.503 173.466L167.431 173.532L167.372 173.582L167.298 173.65L167.225 173.717L167.151 173.784L167.077 173.851L167.013 173.907L166.946 173.967L166.872 174.033L166.798 174.1L166.724 174.167L166.651 174.232L166.592 174.282L166.517 174.348L166.443 174.415L166.369 174.481L166.294 174.547L166.229 174.603L166.162 174.661L166.087 174.727L166.012 174.793L165.937 174.859L165.864 174.924L165.804 174.973L165.729 175.038L165.654 175.104L165.579 175.17L165.504 175.235L165.439 175.29L165.37 175.348L165.295 175.413L165.22 175.478L165.144 175.543L165.07 175.607L165.01 175.655L164.934 175.72L164.858 175.785L164.783 175.85L164.707 175.915L164.641 175.969L164.572 176.026L164.496 176.09L164.42 176.155L164.344 176.219L164.269 176.282L164.208 176.329L164.132 176.393L164.055 176.458L163.979 176.522L163.902 176.586L163.835 176.639L163.766 176.695L163.69 176.759L163.613 176.822L163.536 176.886L163.46 176.948L163.399 176.995L163.322 177.058L163.245 177.122L163.168 177.185L163.091 177.248L163.023 177.301L162.954 177.356L162.876 177.419L162.799 177.482L162.722 177.545L162.645 177.606L162.584 177.652L162.506 177.714L162.428 177.777L162.351 177.839L162.273 177.902L162.205 177.954L162.134 178.008L162.056 178.07L161.978 178.132L161.9 178.194L161.823 178.255L161.761 178.3L161.683 178.362L161.605 178.424L161.526 178.485L161.448 178.547L161.379 178.599L161.308 178.652L161.23 178.713L161.151 178.774L161.072 178.836L160.994 178.896L160.932 178.94L160.853 179.001L160.774 179.062L160.695 179.122L160.616 179.183L160.547 179.234L160.476 179.287L160.396 179.347L160.317 179.408L160.238 179.468L160.159 179.527L160.096 179.571L160.017 179.631L159.937 179.691L159.858 179.751L159.778 179.811L159.708 179.861L159.636 179.913L159.556 179.972L159.476 180.032L159.396 180.091L159.317 180.15L159.254 180.193L159.174 180.252L159.094 180.311L159.013 180.37L158.933 180.429L158.862 180.479L158.79 180.53L158.71 180.588L158.629 180.647L158.549 180.706L158.468 180.764L158.405 180.806L158.324 180.864L158.244 180.922L158.163 180.981L158.082 181.039L158.01 181.088L157.938 181.138L157.857 181.196L157.776 181.254L157.694 181.311L157.613 181.369L157.55 181.41L157.469 181.467L157.387 181.525L157.306 181.582L157.224 181.639L157.152 181.688L157.079 181.737L156.998 181.794L156.916 181.851L156.834 181.908L156.752 181.964L156.689 182.004L156.607 182.061L156.525 182.118L156.443 182.174L156.36 182.231L156.288 182.279L156.214 182.327L156.132 182.383L156.05 182.439L155.967 182.495L155.885 182.551L155.821 182.59L155.738 182.646L155.656 182.702L155.573 182.757L155.49 182.813L155.417 182.86L155.343 182.907L155.261 182.963L155.178 183.018L155.095 183.073L155.012 183.128L154.947 183.167L154.864 183.222L154.781 183.276L154.698 183.331L154.614 183.386L154.54 183.432L154.466 183.479L154.383 183.533L154.3 183.587L154.216 183.642L154.132 183.696L154.067 183.734L153.984 183.788L153.9 183.842L153.816 183.896L153.732 183.95L153.658 183.995L153.584 184.041L153.5 184.094L153.415 184.148L153.331 184.201L153.247 184.255L153.182 184.292L153.098 184.345L153.013 184.398L152.929 184.451L152.845 184.504L152.769 184.549L152.695 184.593L152.61 184.646L152.526 184.699L152.441 184.751L152.356 184.804L152.29 184.84L152.206 184.892L152.121 184.944L152.036 184.997L151.951 185.049L151.875 185.093L151.8 185.136L151.715 185.188L151.63 185.24L151.545 185.292L151.46 185.343L151.393 185.379L151.308 185.43L151.223 185.482L151.137 185.533L151.052 185.584L150.975 185.628L150.9 185.67L150.815 185.721L150.729 185.772L150.643 185.823L150.557 185.873L150.49 185.909L150.405 185.959L150.319 186.009L150.233 186.059L150.147 186.11L150.07 186.153L149.994 186.194L149.908 186.244L149.822 186.294L149.736 186.344L149.65 186.394L149.582 186.428L149.496 186.477L149.41 186.527L149.323 186.576L149.237 186.626L149.159 186.668L149.083 186.709L148.997 186.758L148.91 186.807L148.823 186.856L148.736 186.904L148.668 186.939L148.582 186.986L148.495 187.035L148.408 187.084L148.321 187.132L148.243 187.173L148.167 187.213L148.08 187.261L147.993 187.309L147.905 187.357L147.818 187.405L147.749 187.439L147.663 187.486L147.576 187.533L147.488 187.581L147.401 187.628L147.322 187.669L147.245 187.708L147.158 187.755L147.07 187.802L146.982 187.85L146.894 187.897L146.825 187.929L146.739 187.975L146.651 188.022L146.563 188.069L146.475 188.115L146.395 188.155L146.318 188.193L146.23 188.24L146.142 188.286L146.054 188.332L145.966 188.378L145.896 188.41L145.809 188.455L145.721 188.501L145.632 188.546L145.544 188.592L145.464 188.631L145.387 188.668L145.298 188.714L145.209 188.759L145.121 188.804L145.032 188.849L144.962 188.881L144.874 188.925L144.786 188.97L144.697 189.014L144.608 189.059L144.527 189.097L144.45 189.133L144.361 189.178L144.272 189.222L144.182 189.267L144.093 189.311L144.023 189.342L143.935 189.384L143.846 189.428L143.756 189.472L143.667 189.516L143.586 189.554L143.508 189.589L143.419 189.632L143.329 189.676L143.239 189.719L143.15 189.762L143.079 189.792L142.991 189.834L142.901 189.877L142.811 189.92L142.721 189.963L142.64 190L142.562 190.034L142.472 190.076L142.382 190.119L142.292 190.161L142.202 190.203L142.13 190.233L142.042 190.274L141.952 190.316L141.862 190.358L141.771 190.399L141.689 190.436L141.611 190.469L141.521 190.51L141.43 190.552L141.34 190.593L141.249 190.635L141.177 190.663L141.089 190.703L140.998 190.744L140.907 190.785L140.817 190.826L140.734 190.861L140.656 190.894L140.565 190.934L140.474 190.975L140.383 191.015L140.292 191.056L140.22 191.084L140.131 191.122L140.04 191.163L139.949 191.203L139.857 191.242L139.774 191.277L139.696 191.308L139.605 191.348L139.513 191.388L139.422 191.427L139.331 191.466L139.258 191.494L139.169 191.531L139.077 191.571L138.986 191.61L138.894 191.649L138.811 191.682L138.732 191.713L138.64 191.751L138.548 191.79L138.457 191.829L138.365 191.867L138.292 191.894L138.202 191.93L138.11 191.968L138.019 192.006L137.927 192.044L137.843 192.077L137.764 192.107L137.672 192.145L137.579 192.182L137.487 192.22L137.395 192.257L137.321 192.283L137.232 192.319L137.14 192.356L137.047 192.393L136.955 192.43L136.87 192.462L136.791 192.49L136.699 192.527L136.606 192.564L136.514 192.6L136.421 192.637L136.347 192.662L136.257 192.697L136.165 192.733L136.072 192.769L135.979 192.805L135.894 192.836L135.815 192.864L135.722 192.9L135.629 192.935L135.537 192.971L135.444 193.006L135.369 193.031L135.279 193.064L135.186 193.099L135.093 193.135L135 193.17L134.914 193.2L134.835 193.227L134.742 193.261L134.649 193.296L134.555 193.331L134.462 193.365L134.387 193.389L134.297 193.421L134.204 193.456L134.11 193.49L134.017 193.524L133.931 193.553L133.851 193.579L133.758 193.613L133.664 193.647L133.57 193.68L133.477 193.714L133.402 193.737L133.311 193.768L133.217 193.801L133.124 193.834L133.03 193.867L132.943 193.896L132.864 193.921L132.77 193.954L132.676 193.986L132.582 194.019L132.488 194.051L132.412 194.074L132.322 194.104L132.228 194.136L132.134 194.168L132.039 194.201L131.953 194.228L131.873 194.252L131.779 194.284L131.684 194.316L131.59 194.347L131.496 194.379L131.42 194.4L131.329 194.43L131.235 194.461L131.14 194.492L131.046 194.523L130.958 194.55L130.879 194.573L130.784 194.604L130.689 194.634L130.595 194.665L130.5 194.696L130.424 194.716L130.333 194.745L130.238 194.775L130.143 194.805L130.049 194.835L129.961 194.861L129.881 194.883L129.786 194.913L129.691 194.942L129.596 194.972L129.501 195.002L129.425 195.021L129.334 195.049L129.239 195.078L129.143 195.107L129.048 195.136L128.96 195.161L128.88 195.182L128.785 195.211L128.69 195.24L128.595 195.268L128.499 195.297L128.422 195.316L128.331 195.342L128.236 195.371L128.14 195.399L128.045 195.427L127.957 195.451L127.877 195.471L127.781 195.499L127.686 195.527L127.59 195.554L127.495 195.582L127.417 195.6L127.326 195.625L127.23 195.652L127.134 195.68L127.039 195.707L126.95 195.73L126.87 195.749L126.774 195.776L126.678 195.803L126.583 195.829L126.487 195.856L126.409 195.873L126.317 195.897L126.222 195.924L126.126 195.95L126.03 195.976L125.94 195.998L125.86 196.016L125.764 196.042L125.668 196.068L125.572 196.093L125.476 196.119L125.398 196.136L125.306 196.159L125.21 196.184L125.114 196.209L125.018 196.234L124.928 196.256L124.848 196.273L124.752 196.298L124.656 196.322L124.559 196.347L124.463 196.371L124.384 196.387L124.293 196.409L124.196 196.433L124.1 196.458L124.004 196.481L123.913 196.502L123.833 196.519L123.737 196.542L123.64 196.566L123.544 196.59L123.447 196.613L123.368 196.628L123.277 196.649L123.18 196.672L123.083 196.695L122.987 196.718L122.896 196.738L122.816 196.754L122.719 196.776L122.622 196.799L122.526 196.821L122.429 196.844L122.35 196.858L122.258 196.878L122.161 196.9L122.064 196.922L121.967 196.944L121.877 196.963L121.796 196.978L121.699 196.999L121.602 197.021L121.505 197.042L121.408 197.064L121.329 197.077L121.237 197.096L121.14 197.117L121.043 197.138L120.946 197.159L120.855 197.177L120.774 197.191L120.677 197.212L120.58 197.232L120.483 197.252L120.386 197.273L120.306 197.286L120.214 197.303L120.117 197.324L120.02 197.343L119.922 197.363L119.831 197.381L119.751 197.393L119.653 197.413L119.556 197.432L119.458 197.452L119.361 197.471L119.281 197.483L119.189 197.5L119.092 197.519L118.994 197.538L118.897 197.557L118.805 197.573L118.725 197.585L118.627 197.603L118.529 197.622L118.432 197.64L118.334 197.658L118.254 197.67L118.162 197.685L118.064 197.703L117.967 197.721L117.869 197.739L117.777 197.755L117.697 197.765L117.599 197.783L117.501 197.8L117.403 197.818L117.306 197.835L117.225 197.845L117.133 197.86L117.035 197.877L116.938 197.894L116.84 197.911L116.747 197.925L116.667 197.935L116.569 197.952L116.471 197.968L116.373 197.984L116.275 198.001L116.195 198.01L116.103 198.024L116.005 198.04L115.907 198.056L115.809 198.071L115.716 198.085L115.636 198.094L115.538 198.109L115.44 198.125L115.342 198.14L115.243 198.155L115.162 198.164L115.071 198.177L114.972 198.192L114.874 198.207L114.776 198.221L114.683 198.234L114.603 198.242L114.505 198.256L114.407 198.271L114.308 198.285L114.21 198.299L114.129 198.307L114.037 198.319L113.939 198.333L113.84 198.346L113.742 198.36L113.649 198.372L113.569 198.379L113.471 198.392L113.372 198.406L113.274 198.419L113.175 198.432L113.094 198.439L113.002 198.45L112.904 198.463L112.805 198.475L112.707 198.488L112.613 198.499L112.533 198.505L112.435 198.517L112.336 198.53L112.238 198.542L112.139 198.554L112.058 198.56L111.966 198.57L111.867 198.582L111.769 198.594L111.67 198.605L111.577 198.615L111.497 198.62L111.398 198.632L111.3 198.643L111.201 198.654L111.102 198.665L111.02 198.671L110.929 198.679L110.83 198.69L110.731 198.701L110.633 198.711L110.539 198.72L110.459 198.725L110.36 198.735L110.262 198.745L110.163 198.755L110.064 198.765L109.982 198.77L109.89 198.778L109.792 198.787L109.693 198.797L109.594 198.807L109.5 198.815L109.42 198.818L109.322 198.827L109.223 198.837L109.124 198.846L109.025 198.855L108.943 198.859L108.851 198.865L108.752 198.874L108.654 198.883L108.555 198.891L108.46 198.898L108.381 198.901L108.282 198.909L108.183 198.917L108.084 198.925L107.985 198.933L107.903 198.936L107.811 198.942L107.712 198.95L107.613 198.957L107.514 198.965L107.42 198.971L107.341 198.973L107.242 198.98L107.143 198.987L107.044 198.994L106.945 199.001Z" fill="white"/>
</svg>
