<svg width="200" height="200" viewBox="0 0 200 200" fill="none" xmlns="http://www.w3.org/2000/svg">
<path d="M113.99 198.002L113.924 198.007L113.842 198.016L113.744 198.03L113.646 198.043L113.548 198.057L113.458 198.068L113.4 198.07L113.302 198.083L113.203 198.097L113.105 198.11L113.007 198.123L112.941 198.127L112.859 198.135L112.761 198.148L112.663 198.161L112.565 198.173L112.475 198.183L112.417 198.185L112.318 198.197L112.22 198.209L112.122 198.221L112.024 198.234L111.958 198.237L111.876 198.244L111.777 198.256L111.679 198.268L111.581 198.279L111.491 198.289L111.433 198.289L111.334 198.301L111.236 198.312L111.138 198.323L111.04 198.334L110.973 198.337L110.891 198.344L110.793 198.355L110.695 198.365L110.596 198.376L110.505 198.385L110.448 198.384L110.35 198.395L110.251 198.405L110.153 198.415L110.054 198.425L109.988 198.427L109.906 198.433L109.808 198.443L109.709 198.453L109.611 198.462L109.519 198.47L109.462 198.469L109.364 198.479L109.265 198.488L109.167 198.497L109.068 198.506L109.001 198.508L108.92 198.513L108.822 198.522L108.723 198.53L108.625 198.539L108.533 198.546L108.476 198.544L108.378 198.553L108.279 198.561L108.18 198.569L108.082 198.578L108.014 198.578L107.934 198.582L107.835 198.59L107.736 198.598L107.638 198.606L107.546 198.612L107.489 198.61L107.391 198.617L107.292 198.624L107.194 198.632L107.095 198.639L107.027 198.639L106.946 198.642L106.848 198.649L106.749 198.656L106.65 198.662L106.558 198.668L106.502 198.665L106.403 198.671L106.305 198.678L106.206 198.684L106.107 198.69L106.039 198.69L105.959 198.692L105.86 198.698L105.762 198.703L105.663 198.709L105.57 198.713L105.514 198.71L105.416 198.715L105.317 198.721L105.218 198.726L105.12 198.731L105.051 198.73L104.971 198.731L104.872 198.736L104.774 198.741L104.675 198.746L104.582 198.749L104.526 198.745L104.428 198.75L104.329 198.754L104.23 198.758L104.132 198.763L104.063 198.761L103.983 198.761L103.884 198.765L103.786 198.769L103.687 198.773L103.593 198.775L103.538 198.77L103.44 198.774L103.341 198.777L103.242 198.781L103.143 198.784L103.074 198.781L102.995 198.781L102.896 198.784L102.797 198.787L102.699 198.789L102.605 198.791L102.55 198.786L102.451 198.788L102.353 198.791L102.254 198.793L102.155 198.795L102.086 198.792L102.007 198.791L101.908 198.793L101.809 198.794L101.71 198.796L101.616 198.797L101.562 198.791L101.463 198.792L101.365 198.794L101.266 198.795L101.167 198.796L101.097 198.793L101.019 198.79L100.92 198.791L100.821 198.792L100.722 198.793L100.628 198.793L100.574 198.786L100.475 198.787L100.377 198.787L100.278 198.788L100.179 198.788L100.109 198.783L100.031 198.78L99.9321 198.78L99.8333 198.78L99.7345 198.78L99.6399 198.779L99.5865 198.771L99.4877 198.771L99.389 198.77L99.2902 198.77L99.1914 198.769L99.1213 198.764L99.0434 198.76L98.9446 198.759L98.8459 198.758L98.7471 198.757L98.6521 198.755L98.5991 198.747L98.5004 198.745L98.4017 198.744L98.3029 198.742L98.2042 198.74L98.1338 198.734L98.0563 198.73L97.9575 198.728L97.8588 198.726L97.7601 198.723L97.6648 198.721L97.6123 198.712L97.5135 198.71L97.4148 198.707L97.3162 198.704L97.2175 198.702L97.1468 198.695L97.0697 198.689L96.971 198.686L96.8723 198.683L96.7736 198.68L96.6781 198.676L96.6259 198.667L96.5273 198.664L96.4286 198.66L96.3299 198.657L96.2313 198.653L96.1605 198.646L96.0837 198.639L95.9851 198.635L95.8864 198.631L95.7878 198.627L95.692 198.622L95.6402 198.613L95.5416 198.608L95.443 198.604L95.3444 198.599L95.2459 198.594L95.1747 198.586L95.0983 198.579L94.9998 198.574L94.9012 198.569L94.8027 198.564L94.7066 198.558L94.6553 198.548L94.5568 198.543L94.4583 198.537L94.3597 198.531L94.2612 198.526L94.1899 198.517L94.1139 198.509L94.0154 198.503L93.917 198.497L93.8185 198.491L93.7222 198.484L93.6713 198.473L93.5728 198.467L93.4744 198.46L93.3759 198.454L93.2775 198.447L93.2059 198.438L93.1304 198.429L93.032 198.422L92.9336 198.415L92.8352 198.408L92.7386 198.4L92.6882 198.389L92.5899 198.381L92.4915 198.374L92.3932 198.366L92.2947 198.359L92.223 198.349L92.1479 198.339L92.0496 198.331L91.9513 198.323L91.853 198.315L91.7562 198.306L91.7062 198.294L91.608 198.286L91.5097 198.277L91.4114 198.269L91.3132 198.26L91.2412 198.249L91.1665 198.239L91.0683 198.23L90.9701 198.221L90.872 198.212L90.7749 198.203L90.7254 198.19L90.6273 198.18L90.5291 198.171L90.431 198.162L90.3329 198.152L90.2607 198.14L90.1865 198.129L90.0884 198.119L89.9903 198.109L89.8922 198.099L89.795 198.089L89.746 198.076L89.6479 198.065L89.5499 198.055L89.4519 198.044L89.3539 198.034L89.2815 198.021L89.2077 198.009L89.1098 197.998L89.0118 197.987L88.9138 197.976L88.8164 197.965L88.7678 197.951L88.6699 197.94L88.572 197.929L88.4741 197.917L88.3762 197.906L88.3037 197.893L88.2304 197.88L88.1325 197.868L88.0347 197.856L87.9369 197.844L87.8393 197.832L87.7912 197.817L87.6934 197.805L87.5956 197.793L87.4979 197.78L87.4001 197.768L87.3274 197.754L87.2546 197.74L87.1569 197.727L87.0592 197.715L86.9615 197.702L86.8638 197.688L86.816 197.673L86.7185 197.66L86.6209 197.647L86.5233 197.633L86.4257 197.62L86.3527 197.606L86.2805 197.591L86.1829 197.577L86.0854 197.563L85.9878 197.549L85.8903 197.535L85.8423 197.52L85.7453 197.506L85.6478 197.491L85.5504 197.477L85.4529 197.462L85.3798 197.447L85.308 197.432L85.2106 197.417L85.1133 197.402L85.0159 197.387L84.9186 197.372L84.8704 197.356L84.7739 197.341L84.6766 197.326L84.5792 197.31L84.482 197.295L84.4088 197.279L84.3374 197.263L84.2402 197.247L84.143 197.232L84.0458 197.216L83.9486 197.2L83.9004 197.183L83.8043 197.167L83.7072 197.151L83.6101 197.134L83.513 197.118L83.4396 197.101L83.3688 197.085L83.2718 197.068L83.1747 197.051L83.0777 197.034L82.9807 197.017L82.9325 196.999L82.8554 196.965L82.8084 196.897L82.7615 196.83L82.7146 196.763L82.6677 196.705L82.6208 196.678L82.5739 196.611L82.5271 196.543L82.4803 196.476L82.4334 196.408L82.3866 196.376L82.3398 196.323L82.2931 196.256L82.2464 196.188L82.1996 196.12L82.1529 196.062L82.1062 196.034L82.0595 195.966L82.0129 195.898L81.9663 195.83L81.9196 195.762L81.873 195.729L81.8265 195.676L81.7799 195.608L81.7334 195.54L81.6868 195.471L81.6403 195.412L81.5938 195.385L81.5473 195.316L81.5009 195.248L81.4544 195.179L81.408 195.111L81.3616 195.076L81.3153 195.023L81.2689 194.955L81.2226 194.886L81.1763 194.817L81.1299 194.757L81.0837 194.729L81.0374 194.66L80.9912 194.592L80.9449 194.522L80.8987 194.453L80.8525 194.418L80.8064 194.365L80.7602 194.296L80.7141 194.227L80.668 194.157L80.6219 194.096L80.5758 194.069L80.5298 193.999L80.4838 193.93L80.4378 193.86L80.3918 193.79L80.3458 193.754L80.2998 193.701L80.2539 193.631L80.208 193.562L80.1621 193.492L80.1162 193.43L80.0704 193.402L80.0245 193.332L79.9787 193.262L79.933 193.192L79.8872 193.122L79.8415 193.085L79.7957 193.032L79.75 192.961L79.7043 192.891L79.6586 192.821L79.613 192.758L79.5674 192.73L79.5218 192.659L79.4762 192.589L79.4306 192.518L79.3851 192.448L79.3396 192.41L79.2941 192.356L79.2486 192.286L79.2031 192.215L79.1577 192.144L79.1122 192.081L79.0669 192.052L79.0215 191.981L78.9761 191.91L78.9308 191.839L78.8854 191.768L78.8401 191.729L78.7949 191.676L78.7496 191.605L78.7044 191.533L78.6592 191.462L78.614 191.398L78.5688 191.369L78.5237 191.298L78.4785 191.226L78.4334 191.155L78.3884 191.083L78.3433 191.043L78.2983 190.99L78.2532 190.918L78.2082 190.846L78.1633 190.774L78.1183 190.709L78.0734 190.68L78.0285 190.608L77.9836 190.536L77.9388 190.464L77.8939 190.392L77.8491 190.352L77.8043 190.298L77.7596 190.226L77.7148 190.153L77.6701 190.081L77.6254 190.015L77.5807 189.986L77.536 189.914L77.4914 189.841L77.4468 189.769L77.4022 189.696L77.3576 189.655L77.3131 189.601L77.2686 189.528L77.2241 189.455L77.1796 189.383L77.1351 189.316L77.0907 189.287L77.0463 189.214L77.0019 189.141L76.9576 189.068L76.9132 188.995L76.8689 188.953L76.8246 188.898L76.7803 188.825L76.7361 188.752L76.6919 188.679L76.6477 188.611L76.6035 188.582L76.5593 188.508L76.5152 188.435L76.4711 188.361L76.427 188.288L76.383 188.245L76.3389 188.191L76.2949 188.117L76.2509 188.043L76.207 187.969L76.163 187.901L76.1191 187.872L76.0752 187.798L76.0313 187.724L75.9875 187.65L75.9437 187.576L75.8999 187.532L75.8561 187.477L75.8124 187.403L75.7687 187.329L75.725 187.255L75.6813 187.186L75.6376 187.156L75.594 187.082L75.5504 187.007L75.5069 186.933L75.4633 186.858L75.4198 186.814L75.3763 186.759L75.3328 186.684L75.2893 186.61L75.2459 186.535L75.2025 186.465L75.1591 186.435L75.1158 186.36L75.0724 186.285L75.0291 186.21L74.9859 186.135L74.9426 186.09L74.8994 186.035L74.8562 185.96L74.813 185.885L74.7698 185.81L74.7267 185.739L74.6836 185.709L74.6405 185.634L74.5975 185.558L74.5545 185.483L74.5115 185.407L74.4685 185.361L74.4256 185.306L74.3826 185.231L74.3398 185.155L74.2969 185.079L74.254 185.008L74.2112 184.978L74.1684 184.902L74.1256 184.826L74.0829 184.75L74.0402 184.674L73.9975 184.627L73.9548 184.572L73.9122 184.496L73.8696 184.42L73.827 184.344L73.7844 184.271L73.7419 184.241L73.6994 184.165L73.6569 184.088L73.6145 184.012L73.572 183.936L73.5296 183.888L73.4873 183.833L73.4449 183.756L73.4026 183.679L73.3603 183.603L73.318 183.53L73.2757 183.499L73.2336 183.423L73.1913 183.346L73.1492 183.269L73.107 183.192L73.0649 183.144L73.0228 183.088L72.9808 183.011L72.9388 182.934L72.8968 182.857L72.8548 182.783L72.8128 182.753L72.7709 182.675L72.7291 182.598L72.6872 182.521L72.6454 182.443L72.6035 182.394L72.5618 182.339L72.52 182.261L72.4783 182.184L72.4366 182.106L72.3949 182.031L72.3532 182.001L72.3116 181.923L72.2701 181.845L72.2285 181.768L72.187 181.69L72.1455 181.64L72.104 181.584L72.0625 181.506L72.0211 181.428L71.9797 181.35L71.9384 181.275L71.897 181.244L71.8557 181.166L71.8144 181.088L71.7732 181.009L71.7319 180.931L71.6908 180.88L71.6496 180.824L71.6084 180.746L71.5673 180.668L71.5262 180.589L71.4851 180.513L71.4441 180.482L71.4031 180.403L71.3621 180.325L71.3212 180.246L71.2803 180.167L71.2394 180.116L71.1985 180.06L71.1577 179.981L71.1169 179.902L71.0762 179.823L71.0354 179.746L70.9947 179.715L70.954 179.636L70.9134 179.557L70.8728 179.478L70.8322 179.399L70.7916 179.346L70.751 179.29L70.7105 179.211L70.67 179.132L70.6296 179.052L70.5892 178.975L70.5488 178.943L70.5084 178.864L70.4681 178.784L70.4278 178.705L70.3875 178.625L70.3473 178.572L70.3071 178.516L70.2669 178.436L70.2267 178.356L70.1866 178.277L70.1465 178.198L70.1064 178.167L70.0664 178.087L70.0264 178.007L69.9864 177.927L69.9465 177.847L69.9065 177.793L69.8666 177.737L69.8268 177.657L69.787 177.576L69.7471 177.496L69.7074 177.417L69.6676 177.385L69.6279 177.305L69.5883 177.225L69.5486 177.144L69.509 177.064L69.4694 177.009L69.4299 176.953L69.3904 176.872L69.3509 176.791L69.3114 176.711L69.272 176.631L69.2326 176.599L69.1932 176.518L69.1538 176.438L69.1145 176.357L69.0752 176.276L69.036 176.22L68.9968 176.164L68.9576 176.083L68.9185 176.002L68.8793 175.921L68.8402 175.84L68.8012 175.808L68.7621 175.727L68.7231 175.646L68.6842 175.564L68.6452 175.483L68.6063 175.427L68.5675 175.37L68.5286 175.289L68.4898 175.207L68.451 175.126L68.4123 175.044L68.3735 175.013L68.3349 174.931L68.2962 174.849L68.2576 174.768L68.219 174.686L68.1804 174.629L68.1419 174.572L68.1034 174.49L68.0649 174.408L68.0265 174.326L67.9881 174.244L67.9497 174.212L67.9114 174.13L67.873 174.048L67.8348 173.966L67.7965 173.884L67.7583 173.826L67.7201 173.769L67.682 173.687L67.6439 173.605L67.6058 173.522L67.5678 173.44L67.5297 173.407L67.4917 173.325L67.4538 173.242L67.4158 173.16L67.378 173.077L67.3402 173.019L67.3023 172.962L67.2645 172.879L67.2268 172.796L67.189 172.714L67.1514 172.631L67.1137 172.597L67.076 172.515L67.0385 172.432L67.0009 172.349L66.9634 172.266L66.9259 172.207L66.8884 172.15L66.851 172.067L66.8136 171.984L66.7763 171.9L66.7389 171.817L66.7016 171.783L66.6643 171.701L66.6271 171.617L66.5899 171.534L66.5527 171.45L66.5156 171.39L66.4785 171.333L66.4414 171.25L66.4044 171.166L66.3674 171.083L66.3304 170.999L66.2935 170.964L66.2566 170.882L66.2197 170.798L66.1829 170.714L66.1461 170.63L66.1094 170.57L66.0726 170.512L66.0359 170.428L65.9992 170.345L65.9626 170.26L65.926 170.176L65.8895 170.14L65.853 170.058L65.8165 169.974L65.78 169.89L65.7436 169.806L65.7072 169.744L65.6708 169.687L65.6345 169.603L65.5982 169.518L65.5619 169.434L65.5257 169.349L65.4895 169.313L65.4534 169.23L65.4173 169.146L65.3811 169.061L65.3451 168.977L65.3091 168.915L65.2731 168.857L65.2372 168.773L65.2013 168.688L65.1654 168.603L65.1296 168.518L65.0937 168.481L65.0579 168.398L65.0222 168.313L64.9865 168.228L64.9509 168.143L64.9152 168.081L64.8796 168.023L64.8441 167.938L64.8085 167.853L64.773 167.768L64.7376 167.683L64.7022 167.644L64.6667 167.562L64.6314 167.477L64.5961 167.391L64.5608 167.306L64.5256 167.242L64.4903 167.185L64.4551 167.099L64.42 167.014L64.3849 166.928L64.3498 166.843L64.3148 166.804L64.2798 166.721L64.2448 166.636L64.2099 166.55L64.175 166.464L64.1401 166.4L64.1053 166.342L64.0705 166.256L64.0358 166.171L64.0011 166.085L63.9664 165.999L63.9317 165.959L63.8971 165.876L63.8625 165.79L63.828 165.704L63.7935 165.618L63.759 165.553L63.7246 165.496L63.6902 165.409L63.6558 165.323L63.6215 165.237L63.5873 165.15L63.553 165.11L63.5188 165.027L63.4846 164.941L63.4505 164.854L63.4164 164.768L63.3823 164.702L63.3483 164.645L63.3143 164.558L63.2803 164.471L63.2464 164.385L63.2125 164.298L63.1787 164.257L63.1449 164.174L63.1111 164.088L63.0774 164.001L63.0437 163.914L63.01 163.847L62.9764 163.79L62.9428 163.703L62.9092 163.616L62.8757 163.529L62.8422 163.442L62.8088 163.4L62.7753 163.317L62.742 163.23L62.7087 163.143L62.6754 163.055L62.6421 162.988L62.6089 162.931L62.5757 162.843L62.5426 162.756L62.5095 162.669L62.4764 162.581L62.4434 162.539L62.4103 162.456L62.3774 162.368L62.3445 162.281L62.3116 162.193L62.2787 162.125L62.2459 162.068L62.2131 161.98L62.1804 161.892L62.1477 161.804L62.115 161.717L62.0824 161.674L62.0498 161.591L62.0173 161.503L61.9848 161.415L61.9523 161.327L61.9198 161.259L61.8875 161.201L61.8551 161.113L61.8228 161.025L61.7905 160.936L61.7582 160.848L61.726 160.804L61.6939 160.722L61.6617 160.633L61.6296 160.545L61.5976 160.457L61.5655 160.388L61.5336 160.33L61.5017 160.242L61.4697 160.153L61.4379 160.065L61.4061 159.976L61.3742 159.932L61.3425 159.849L61.3108 159.76L61.2791 159.671L61.2475 159.583L61.2159 159.513L61.1843 159.455L61.1528 159.366L61.1213 159.278L61.0899 159.189L61.0585 159.1L61.0271 159.055L60.9958 158.972L60.9645 158.883L60.9332 158.794L60.9021 158.705L60.8709 158.635L60.8397 158.577L60.8087 158.488L60.7776 158.398L60.7466 158.309L60.7156 158.22L60.6847 158.174L60.6538 158.091L60.6229 158.002L60.5921 157.913L60.5613 157.823L60.5306 157.752L60.4999 157.694L60.4692 157.605L60.4386 157.516L60.408 157.426L60.3775 157.336L60.347 157.29L60.3165 157.207L60.2861 157.118L60.2558 157.028L60.2254 156.938L60.1951 156.866L60.1648 156.809L60.1346 156.719L60.1044 156.629L60.0743 156.539L60.0441 156.449L60.0141 156.402L59.984 156.319L59.954 156.229L59.9241 156.139L59.8942 156.049L59.8643 155.977L59.8345 155.919L59.8047 155.829L59.775 155.739L59.7453 155.648L59.7156 155.558L59.6859 155.511L59.6564 155.428L59.6268 155.337L59.5973 155.247L59.5679 155.157L59.5384 155.084L59.509 155.026L59.4797 154.935L59.4504 154.845L59.4212 154.754L59.3919 154.664L59.3627 154.615L59.3336 154.533L59.3045 154.442L59.2754 154.351L59.2464 154.261L59.2174 154.187L59.1885 154.129L59.1596 154.038L59.1307 153.948L59.1019 153.857L59.0731 153.766L59.0444 153.717L59.0157 153.634L58.987 153.543L58.9584 153.452L58.9298 153.361L58.9013 153.287L58.8728 153.229L58.8443 153.138L58.8159 153.047L58.7875 152.956L58.7592 152.864L58.7309 152.815L58.7027 152.732L58.6745 152.641L58.6463 152.549L58.6182 152.458L58.5901 152.383L58.5621 152.325L58.5341 152.234L58.5062 152.142L58.4782 152.051L58.4503 151.96L58.4225 151.909L58.3947 151.826L58.367 151.735L58.3393 151.643L58.3116 151.552L58.284 151.476L58.2564 151.418L58.2288 151.327L58.2013 151.235L58.1739 151.143L58.1464 151.051L58.1191 151L58.0917 150.918L58.0644 150.826L58.0372 150.734L58.01 150.642L57.9828 150.566L57.9557 150.508L57.9286 150.416L57.9016 150.324L57.8746 150.232L57.8476 150.14L57.8207 150.088L57.7938 150.005L57.767 149.913L57.7402 149.821L57.7135 149.729L57.6868 149.652L57.6601 149.594L57.6335 149.502L57.6069 149.41L57.5804 149.317L57.5539 149.225L57.5274 149.173L57.501 149.09L57.4747 148.998L57.4483 148.905L57.4221 148.813L57.3958 148.735L57.3696 148.677L57.3435 148.585L57.3173 148.492L57.2913 148.4L57.2653 148.307L57.2393 148.254L57.2134 148.171L57.1875 148.079L57.1616 147.986L57.1358 147.893L57.11 147.815L57.0843 147.757L57.0586 147.665L57.033 147.572L57.0074 147.479L56.9818 147.386L56.9563 147.332L56.9308 147.25L56.9054 147.157L56.88 147.064L56.8547 146.971L56.8294 146.892L56.8041 146.834L56.7789 146.741L56.7538 146.648L56.7286 146.555L56.7036 146.462L56.6785 146.408L56.6535 146.325L56.6286 146.232L56.6037 146.138L56.5788 146.045L56.554 145.966L56.5292 145.908L56.5045 145.815L56.4798 145.721L56.4552 145.628L56.4306 145.534L56.406 145.48L56.3815 145.397L56.357 145.304L56.3326 145.21L56.3082 145.116L56.2839 145.036L56.2596 144.979L56.2353 144.885L56.2111 144.792L56.187 144.698L56.1628 144.604L56.1388 144.549L56.1147 144.466L56.0907 144.372L56.0668 144.279L56.0429 144.185L56.019 144.104L55.9952 144.047L55.9714 143.953L55.9477 143.859L55.924 143.765L55.9004 143.671L55.8768 143.615L55.8533 143.533L55.8297 143.439L55.8063 143.344L55.7829 143.25L55.7595 143.169L55.7362 143.112L55.7129 143.018L55.6896 142.923L55.6665 142.829L55.6433 142.735L55.6202 142.678L55.5971 142.596L55.5741 142.502L55.5512 142.407L55.5282 142.313L55.5053 142.231L55.4825 142.174L55.4597 142.079L55.4369 141.985L55.4143 141.89L55.3916 141.796L55.3689 141.739L55.3464 141.657L55.3239 141.562L55.3014 141.467L55.279 141.373L55.2566 141.291L55.2342 141.233L55.212 141.139L55.1897 141.044L55.1675 140.949L55.1453 140.854L55.1232 140.797L55.1011 140.715L55.0791 140.62L55.0571 140.525L55.0352 140.43L55.0133 140.347L54.9914 140.29L54.9696 140.195L54.9478 140.1L54.9261 140.005L54.9045 139.91L54.8828 139.852L54.8612 139.77L54.8397 139.675L54.8182 139.58L54.7968 139.484L54.7754 139.401L54.754 139.344L54.7327 139.249L54.7115 139.154L54.6902 139.058L54.6691 138.963L54.648 138.904L54.6269 138.822L54.6059 138.727L54.5849 138.632L54.5639 138.536L54.543 138.452L54.5222 138.396L54.5014 138.3L54.4806 138.205L54.4599 138.109L54.4392 138.014L54.4186 137.954L54.398 137.873L54.3775 137.777L54.3571 137.681L54.3366 137.586L54.3162 137.501L54.2959 137.444L54.2755 137.349L54.2553 137.253L54.2351 137.157L54.2149 137.062L54.1948 137.002L54.1747 136.92L54.1547 136.824L54.1347 136.728L54.1148 136.633L54.0949 136.548L54.0751 136.491L54.0553 136.395L54.0355 136.299L54.0158 136.203L53.9961 136.107L53.9765 136.047L53.957 135.965L53.9374 135.869L53.918 135.773L53.8986 135.677L53.8792 135.592L53.8599 135.535L53.8406 135.439L53.8213 135.343L53.8022 135.246L53.783 135.15L53.7639 135.089L53.7448 135.008L53.7258 134.912L53.7069 134.815L53.688 134.719L53.6691 134.633L53.6502 134.577L53.6315 134.48L53.6127 134.384L53.5941 134.288L53.5755 134.191L53.5568 134.13L53.5383 134.048L53.5198 133.952L53.5013 133.855L53.483 133.759L53.4646 133.672L53.4463 133.616L53.4281 133.519L53.4098 133.423L53.3917 133.326L53.3736 133.23L53.3555 133.168L53.3375 133.086L53.3195 132.99L53.3015 132.893L53.2837 132.796L53.2658 132.709L53.248 132.653L53.2303 132.556L53.2126 132.46L53.1949 132.363L53.1774 132.266L53.1598 132.204L53.1423 132.122L53.1249 132.026L53.1074 131.929L53.09 131.832L53.0727 131.744L53.0555 131.688L53.0382 131.591L53.0211 131.494L53.0039 131.397L52.9869 131.3L52.9698 131.237L52.9528 131.156L52.9359 131.059L52.919 130.962L52.9021 130.865L52.8854 130.777L52.8686 130.721L52.8519 130.624L52.8352 130.527L52.8186 130.43L52.8021 130.332L52.7856 130.269L52.7691 130.188L52.7527 130.091L52.7363 129.994L52.72 129.896L52.7037 129.808L52.6875 129.752L52.6713 129.655L52.6552 129.557L52.6391 129.46L52.623 129.363L52.6071 129.299L52.5911 129.218L52.5752 129.12L52.5594 129.023L52.5436 128.926L52.5278 128.836L52.5121 128.781L52.4965 128.683L52.4809 128.586L52.4653 128.488L52.4498 128.391L52.4343 128.326L52.4189 128.246L52.4035 128.148L52.3882 128.05L52.373 127.953L52.3577 127.863L52.3426 127.808L52.3274 127.71L52.3123 127.612L52.2973 127.515L52.2823 127.417L52.2674 127.352L52.2525 127.272L52.2377 127.174L52.2229 127.076L52.2082 126.978L52.1934 126.888L52.1788 126.833L52.1642 126.735L52.1496 126.637L52.1352 126.539L52.1207 126.441L52.1063 126.376L52.092 126.296L52.0777 126.198L52.0634 126.1L52.0492 126.002L52.035 125.911L52.0209 125.856L52.0068 125.758L51.9928 125.66L51.9788 125.562L51.9649 125.464L51.951 125.398L51.9372 125.318L51.9234 125.22L51.9097 125.122L51.896 125.024L51.8824 124.933L51.8688 124.878L51.8553 124.78L51.8418 124.681L51.8283 124.583L51.815 124.485L51.8016 124.419L51.7883 124.339L51.7751 124.241L51.7619 124.142L51.7488 124.044L51.7357 123.953L51.7226 123.898L51.7096 123.799L51.6967 123.701L51.6837 123.603L51.6709 123.505L51.6581 123.438L51.6453 123.358L51.6326 123.26L51.62 123.161L51.6073 123.063L51.5948 122.971L51.5823 122.916L51.5698 122.818L51.5574 122.719L51.545 122.621L51.5327 122.522L51.5205 122.455L51.5082 122.375L51.4961 122.277L51.484 122.178L51.4718 122.08L51.4598 121.987L51.4479 121.933L51.4359 121.834L51.4241 121.736L51.4122 121.637L51.4004 121.539L51.3887 121.471L51.377 121.391L51.3654 121.293L51.3538 121.194L51.3423 121.096L51.3308 121.003L51.3194 120.948L51.3079 120.85L51.2966 120.751L51.2853 120.652L51.2741 120.554L51.2629 120.485L51.2518 120.406L51.2406 120.307L51.2296 120.209L51.2186 120.11L51.2077 120.016L51.1968 119.962L51.1859 119.863L51.1751 119.765L51.1644 119.666L51.1537 119.567L51.143 119.498L51.1324 119.419L51.1218 119.321L51.1114 119.222L51.1009 119.123L51.0905 119.029L51.0801 118.975L51.0698 118.876L51.0595 118.777L51.0494 118.678L51.0392 118.579L51.0291 118.51L51.019 118.431L51.009 118.332L50.999 118.233L50.9891 118.134L50.9793 118.04L50.9694 117.986L50.9597 117.887L50.9499 117.788L50.9403 117.689L50.9307 117.59L50.9211 117.521L50.9116 117.442L50.9021 117.343L50.8927 117.244L50.8833 117.145L50.874 117.05L50.8647 116.997L50.8555 116.898L50.8463 116.798L50.8372 116.699L50.8281 116.6L50.8191 116.53L50.8101 116.452L50.8012 116.353L50.7923 116.253L50.7835 116.154L50.7747 116.059L50.7659 116.006L50.7573 115.907L50.7487 115.807L50.7401 115.708L50.7316 115.609L50.7231 115.538L50.7146 115.46L50.7063 115.361L50.6979 115.262L50.6896 115.162L50.6814 115.067L50.6732 115.014L50.6651 114.914L50.657 114.815L50.6489 114.716L50.6409 114.616L50.633 114.546L50.6251 114.468L50.6173 114.368L50.6095 114.269L50.6017 114.17L50.5941 114.074L50.5864 114.021L50.5788 113.921L50.5713 113.822L50.5638 113.723L50.5563 113.623L50.5489 113.552L50.5416 113.474L50.5343 113.375L50.5271 113.275L50.5198 113.176L50.5127 113.08L50.5056 113.027L50.4985 112.928L50.4916 112.828L50.4846 112.729L50.4777 112.629L50.4709 112.557L50.4641 112.48L50.4573 112.38L50.4506 112.281L50.4439 112.181L50.4373 112.085L50.4308 112.032L50.4243 111.933L50.4178 111.833L50.4114 111.734L50.4051 111.634L50.3988 111.562L50.3925 111.485L50.3863 111.385L50.3802 111.286L50.374 111.186L50.368 111.089L50.362 111.037L50.356 110.937L50.3501 110.838L50.3443 110.738L50.3384 110.638L50.3327 110.566L50.327 110.489L50.3213 110.389L50.3157 110.29L50.3101 110.19L50.3046 110.092L50.2992 110.041L50.2938 109.941L50.2883 109.841L50.2831 109.741L50.2778 109.642L50.2726 109.569L50.2674 109.492L50.2623 109.393L50.2572 109.293L50.2522 109.193L50.2472 109.095L50.2423 109.044L50.2375 108.944L50.2326 108.844L50.2279 108.744L50.2232 108.645L50.2185 108.571L50.2139 108.495L50.2093 108.395L50.2047 108.296L50.2003 108.196L50.1959 108.097L50.1915 108.046L50.1872 107.946L50.1829 107.847L50.1787 107.747L50.1745 107.647L50.1704 107.573L50.1663 107.497L50.1623 107.398L50.1583 107.298L50.1544 107.198L50.1505 107.099L50.1466 107.048L50.1429 106.948L50.1392 106.848L50.1354 106.749L50.1318 106.649L50.1283 106.575L50.1247 106.499L50.1213 106.399L50.1178 106.299L50.1144 106.199L50.1111 106.1L50.1078 106.05L50.1046 105.95L50.1014 105.85L50.0982 105.75L50.0952 105.65L50.0921 105.576L50.0891 105.5L50.0862 105.4L50.0833 105.301L50.0805 105.201L50.0777 105.101L50.075 105.051L50.0722 104.951L50.0696 104.851L50.067 104.751L50.0644 104.651L50.062 104.577L50.0595 104.501L50.0571 104.401L50.0548 104.301L50.0525 104.202L50.0502 104.102L50.0481 104.052L50.0459 103.952L50.0438 103.852L50.0418 103.752L50.0397 103.652L50.0378 103.577L50.0359 103.502L50.034 103.402L50.0322 103.302L50.0305 103.202L50.0287 103.102L50.0271 103.052L50.0255 102.952L50.0239 102.852L50.0225 102.752L50.021 102.652L50.0196 102.577L50.0182 102.502L50.0169 102.402L50.0156 102.302L50.0144 102.203L50.0132 102.103L50.0121 102.052L50.0111 101.953L50.01 101.853L50.0091 101.753L50.0082 101.653L50.0073 101.577L50.0065 101.503L50.0057 101.403L50.005 101.303L50.0043 101.203L50.0037 101.103L50.0031 101.052L50.0026 100.953L50.0021 100.853L50.0017 100.753L50.0013 100.653L50.001 100.577L50.0007 100.503L50.0005 100.403L50.0003 100.303L50.0001 100.203L50.0001 100.103L50 100.052L50 99.953L50.0001 99.853L50.0002 99.753L50.0004 99.653L50.0006 99.5766L50.0008 99.5031L50.0012 99.4031L50.0015 99.3031L50.0019 99.2031L50.0024 99.1031L50.0028 99.0516L50.0034 98.9531L50.004 98.8532L50.0046 98.7532L50.0053 98.6532L50.0061 98.5765L50.0069 98.5032L50.0077 98.4033L50.0087 98.3033L50.0096 98.2033L50.0106 98.1034L50.0116 98.0515L50.0127 97.9534L50.0138 97.8534L50.015 97.7535L50.0162 97.6535L50.0176 97.5765L50.0189 97.5035L50.0203 97.4036L50.0217 97.3036L50.0232 97.2037L50.0247 97.1037L50.0263 97.0515L50.028 96.9538L50.0296 96.8538L50.0314 96.7539L50.0331 96.6539L50.0349 96.5766L50.0369 96.504L50.0388 96.4041L50.0407 96.3041L50.0428 96.2042L50.0449 96.1042L50.047 96.0517L50.0492 95.9544L50.0514 95.8544L50.0536 95.7545L50.056 95.6545L50.0583 95.5769L50.0608 95.5047L50.0633 95.4048L50.0657 95.3048L50.0683 95.2049L50.071 95.105L50.0736 95.0522L50.0763 94.9552L50.0791 94.8553L50.0819 94.7554L50.0848 94.6555L50.0877 94.5775L50.0906 94.5056L50.0937 94.4058L50.0967 94.3059L50.0998 94.206L50.103 94.1061L50.1062 94.053L50.1094 93.9563L50.1128 93.8565L50.1161 93.7566L50.1195 93.6567L50.123 93.5785L50.1265 93.507L50.13 93.4071L50.1337 93.3073L50.1373 93.2075L50.141 93.1076L50.1448 93.0542L50.1486 92.9579L50.1524 92.8581L50.1564 92.7582L50.1603 92.6584L50.1643 92.5799L50.1684 92.5088L50.1725 92.409L50.1766 92.3092L50.1808 92.2093L50.1851 92.1095L50.1894 92.0559L50.1937 91.9599L50.1981 91.8601L50.2025 91.7604L50.2071 91.6606L50.2116 91.5818L50.2162 91.511L50.2209 91.4112L50.2255 91.3115L50.2303 91.2117L50.2351 91.112L50.2399 91.058L50.2448 90.9625L50.2498 90.8627L50.2547 90.763L50.2598 90.6633L50.2649 90.5842L50.27 90.5139L50.2752 90.4141L50.2805 90.3144L50.2857 90.2147L50.2911 90.115L50.2965 90.0608L50.3019 89.9656L50.3074 89.866L50.3129 89.7663L50.3185 89.6666L50.3242 89.5873L50.3298 89.5173L50.3356 89.4176L50.3414 89.318L50.3472 89.2183L50.3531 89.1187L50.359 89.0642L50.365 88.9694L50.371 88.8698L50.3771 88.7702L50.3832 88.6706L50.3894 88.591L50.3957 88.5214L50.4019 88.4218L50.4083 88.3222L50.4147 88.2227L50.4211 88.1231L50.4276 88.0684L50.4341 87.974L50.4406 87.8744L50.4473 87.7749L50.454 87.6753L50.4607 87.5955L50.4675 87.5262L50.4743 87.4267L50.4812 87.3272L50.4881 87.2277L50.4951 87.1282L50.5021 87.0733L50.5092 86.9793L50.5163 86.8798L50.5235 86.7803L50.5307 86.6809L50.538 86.6007L50.5453 86.5319L50.5527 86.4325L50.5601 86.3331L50.5676 86.2336L50.5751 86.1342L50.5826 86.079L50.5903 85.9854L50.5979 85.886L50.6056 85.7866L50.6134 85.6873L50.6213 85.6069L50.6291 85.5385L50.637 85.4392L50.645 85.3398L50.653 85.2405L50.6611 85.1412L50.6692 85.0857L50.6773 84.9925L50.6856 84.8932L50.6938 84.7939L50.7021 84.6946L50.7105 84.614L50.7189 84.5461L50.7273 84.4468L50.7359 84.3476L50.7444 84.2483L50.753 84.1491L50.7617 84.0934L50.7704 84.0006L50.7791 83.9014L50.788 83.8022L50.7968 83.703L50.8057 83.6222L50.8147 83.5547L50.8236 83.4555L50.8327 83.3563L50.8418 83.2572L50.8509 83.158L50.8602 83.1021L50.8694 83.0098L50.8787 82.9107L50.8881 82.8116L50.8975 82.7125L50.9069 82.6314L50.9164 82.5643L50.926 82.4652L50.9355 82.3662L50.9452 82.2671L50.9549 82.1681L50.9646 82.112L50.9744 82.0201L50.9843 81.9211L50.9941 81.8221L51.0041 81.7231L51.0141 81.6418L51.0241 81.5751L51.0342 81.4762L51.0443 81.3772L51.0545 81.2783L51.0648 81.1794L51.075 81.123L51.0854 81.0315L51.0958 80.9327L51.1062 80.8338L51.1167 80.7349L51.1272 80.6534L51.1377 80.5872L51.1484 80.4883L51.1591 80.3895L51.1698 80.2907L51.1806 80.1919L51.1914 80.1353L51.2023 80.0443L51.2132 79.9455L51.2242 79.8468L51.2352 79.748L51.2463 79.6663L51.2574 79.6005L51.2686 79.5018L51.2798 79.4031L51.291 79.3044L51.3024 79.2057L51.3138 79.1489L51.3251 79.0584L51.3366 78.9597L51.3481 78.8611L51.3597 78.7624L51.3713 78.6805L51.383 78.6152L51.3946 78.5166L51.4064 78.418L51.4182 78.3195L51.43 78.2209L51.442 78.1639L51.4539 78.0738L51.4659 77.9753L51.478 77.8768L51.4901 77.7783L51.5022 77.6962L51.5144 77.6313L51.5267 77.5329L51.5389 77.4344L51.5513 77.336L51.5637 77.2376L51.5761 77.1804L51.5886 77.0908L51.6012 76.9923L51.6137 76.894L51.6264 76.7956L51.639 76.7134L51.6518 76.6489L51.6646 76.5506L51.6774 76.4523L51.6903 76.354L51.7032 76.2557L51.7162 76.1983L51.7292 76.1092L51.7423 76.011L51.7554 75.9127L51.7686 75.8145L51.7818 75.732L51.795 75.6681L51.8084 75.5699L51.8218 75.4717L51.8351 75.3736L51.8486 75.2754L51.8621 75.2179L51.8757 75.1292L51.8893 75.0311L51.903 74.933L51.9167 74.835L51.9304 74.7523L51.9442 74.6888L51.9581 74.5908L51.972 74.4928L51.9859 74.3948L51.9999 74.2968L52.014 74.2391L52.028 74.1509L52.0422 74.0529L52.0564 73.955L52.0706 73.8571L52.0849 73.7743L52.0992 73.7113L52.1136 73.6134L52.128 73.5156L52.1425 73.4178L52.157 73.3199L52.1716 73.2621L52.1862 73.1743L52.2009 73.0765L52.2156 72.9788L52.2304 72.881L52.2452 72.7981L52.2601 72.7356L52.275 72.6378L52.2899 72.5401L52.305 72.4425L52.32 72.3448L52.3351 72.2867L52.3503 72.1995L52.3654 72.1019L52.3807 72.0043L52.396 71.9068L52.4113 71.8236L52.4267 71.7616L52.4422 71.6641L52.4576 71.5665L52.4732 71.469L52.4888 71.3715L52.5044 71.3133L52.5201 71.2266L52.5358 71.1291L52.5516 71.0317L52.5674 70.9343L52.5833 70.851L52.5992 70.7895L52.6152 70.6921L52.6312 70.5948L52.6472 70.4975L52.6633 70.4002L52.6795 70.3418L52.6957 70.2556L52.712 70.1583L52.7282 70.061L52.7446 69.9638L52.761 69.8804L52.7774 69.8194L52.7939 69.7222L52.8105 69.625L52.827 69.5278L52.8437 69.4307L52.8604 69.3722L52.877 69.2865L52.8939 69.1894L52.9107 69.0923L52.9275 68.9953L52.9445 68.9117L52.9614 68.8512L52.9784 68.7542L52.9955 68.6572L53.0126 68.5603L53.0297 68.4633L53.047 68.4047L53.0642 68.3195L53.0815 68.2226L53.0988 68.1257L53.1162 68.0289L53.1336 67.9452L53.1512 67.8852L53.1686 67.7883L53.1863 67.6916L53.2039 67.5948L53.2215 67.498L53.2393 67.4393L53.257 67.3546L53.2748 67.2578L53.2927 67.1612L53.3106 67.0645L53.3285 66.9807L53.3466 66.9213L53.3646 66.8246L53.3827 66.728L53.4009 66.6315L53.419 66.5349L53.4373 66.476L53.4556 66.3919L53.4739 66.2954L53.4923 66.1988L53.5107 66.1024L53.5292 66.0184L53.5477 65.9595L53.5663 65.8631L53.5848 65.7667L53.6035 65.6703L53.6222 65.574L53.6409 65.5149L53.6598 65.4313L53.6786 65.335L53.6975 65.2387L53.7164 65.1425L53.7354 65.0584L53.7544 65L53.7735 64.9038L53.7927 64.8076L53.8118 64.7115L53.831 64.6154L53.8503 64.5562L53.8696 64.4731L53.889 64.377L53.9084 64.281L53.9278 64.1849L53.9473 64.1008L53.9668 64.0429L53.9864 63.9469L54.0061 63.8509L54.0257 63.755L54.0455 63.6591L54.0652 63.5998L54.085 63.5173L54.1049 63.4214L54.1248 63.3256L54.1448 63.2297L54.1648 63.1454L54.1848 63.0881L54.2049 62.9924L54.2251 62.8966L54.2453 62.8009L54.2655 62.7052L54.2858 62.6458L54.3061 62.5638L54.3264 62.4682L54.3469 62.3726L54.3673 62.277L54.3878 62.1925L54.4084 62.1358L54.429 62.0403L54.4496 61.9447L54.4703 61.8493L54.491 61.7538L54.5119 61.6943L54.5327 61.6129L54.5535 61.5174L54.5745 61.422L54.5955 61.3267L54.6164 61.2422L54.6375 61.186L54.6586 61.0907L54.6797 60.9953L54.701 60.9001L54.7222 60.8049L54.7435 60.7453L54.7648 60.6644L54.7862 60.5692L54.8076 60.474L54.8291 60.3789L54.8506 60.2943L54.8721 60.2387L54.8937 60.1436L54.9154 60.0486L54.9371 59.9535L54.9588 59.8585L54.9806 59.7989L55.0024 59.7186L55.0243 59.6236L55.0462 59.5287L55.0682 59.4338L55.0902 59.3491L55.1122 59.294L55.1343 59.1992L55.1565 59.1044L55.1786 59.0096L55.2009 58.9149L55.2232 58.8551L55.2455 58.7754L55.2679 58.6807L55.2903 58.586L55.3127 58.4914L55.3352 58.4066L55.3578 58.3521L55.3804 58.2575L55.403 58.1629L55.4257 58.0684L55.4484 57.9739L55.4712 57.9141L55.494 57.8349L55.5169 57.7404L55.5398 57.646L55.5627 57.5516L55.5857 57.4668L55.6087 57.4129L55.6318 57.3186L55.655 57.2242L55.6781 57.1299L55.7013 57.0357L55.7246 56.9758L55.7479 56.8972L55.7712 56.803L55.7947 56.7088L55.8181 56.6147L55.8415 56.5298L55.8651 56.4765L55.8886 56.3824L55.9122 56.2883L55.9359 56.1943L55.9596 56.1003L55.9834 56.0404L56.0072 55.9624L56.031 55.8684L56.0549 55.7745L56.0788 55.6806L56.1028 55.5956L56.1268 55.5429L56.1508 55.4491L56.1749 55.3553L56.1991 55.2615L56.2233 55.1678L56.2474 55.1078L56.2718 55.0304L56.2961 54.9367L56.3204 54.8431L56.3448 54.7495L56.3693 54.6644L56.3938 54.6123L56.4183 54.5187L56.4429 54.4252L56.4675 54.3317L56.4922 54.2382L56.5169 54.1782L56.5416 54.1014L56.5664 54.008L56.5913 53.9146L56.6162 53.8212L56.6411 53.7361L56.666 53.6846L56.6911 53.5913L56.7161 53.4981L56.7412 53.4048L56.7664 53.3117L56.7916 53.2516L56.8168 53.1753L56.8421 53.0822L56.8674 52.9891L56.8927 52.896L56.9182 52.8109L56.9436 52.7599L56.9691 52.6669L56.9946 52.574L57.0202 52.481L57.0458 52.3881L57.0715 52.328L57.0972 52.2523L57.1229 52.1595L57.1487 52.0667L57.1745 51.9739L57.2004 51.8887L57.2263 51.8384L57.2523 51.7457L57.2783 51.653L57.3043 51.5603L57.3304 51.4677L57.3565 51.4075L57.3827 51.3325L57.4089 51.2399L57.4352 51.1474L57.4615 51.0549L57.4878 50.9697L57.5142 50.92L57.5407 50.8275L57.5671 50.7351L57.5937 50.6428L57.6202 50.5504L57.6468 50.4902L57.6734 50.4158L57.7001 50.3235L57.7268 50.2313L57.7536 50.1391L57.7804 50.0538L57.8073 50.0047L57.8342 49.9126L57.8611 49.8205L57.8881 49.7284L57.9151 49.6363L57.9421 49.5761L57.9693 49.5023L57.9964 49.4103L58.0236 49.3184L58.0508 49.2265L58.0781 49.1412L58.1054 49.0927L58.1328 49.0009L58.1602 48.9091L58.1876 48.8173L58.2151 48.7256L58.2426 48.6653L58.2701 48.5921L58.2978 48.5005L58.3254 48.4088L58.3531 48.3172L58.3808 48.2319L58.4086 48.184L58.4364 48.0925L58.4643 48.001L58.4922 47.9095L58.5201 47.8181L58.5481 47.7578L58.5761 47.6853L58.6041 47.5939L58.6323 47.5026L58.6604 47.4112L58.6886 47.3259L58.7168 47.2787L58.745 47.1875L58.7734 47.0963L58.8017 47.0051L58.8301 46.914L58.8586 46.8537L58.887 46.7818L58.9155 46.6907L58.9441 46.5997L58.9727 46.5087L59.0013 46.4233L59.03 46.3768L59.0587 46.2859L59.0875 46.195L59.1163 46.1041L59.1451 46.0133L59.174 45.953L59.2029 45.8817L59.2319 45.791L59.2609 45.7003L59.2899 45.6096L59.319 45.5242L59.3481 45.4783L59.3773 45.3877L59.4065 45.2971L59.4358 45.2066L59.4651 45.1161L59.4943 45.0557L59.5237 44.9852L59.5532 44.8948L59.5826 44.8043L59.6121 44.714L59.6416 44.6286L59.6712 44.5833L59.7008 44.4931L59.7304 44.4028L59.7601 44.3126L59.7899 44.2224L59.8196 44.1621L59.8494 44.0921L59.8793 44.0021L59.9092 43.912L59.9391 43.822L59.9691 43.7366L59.9991 43.6919L60.0291 43.602L60.0592 43.5121L60.0893 43.4222L60.1195 43.3324L60.1497 43.272L60.1799 43.2027L60.2103 43.113L60.2406 43.0232L60.2709 42.9335L60.3014 42.8482L60.3318 42.8042L60.3623 42.7145L60.3928 42.625L60.4234 42.5354L60.454 42.4459L60.4846 42.3856L60.5153 42.317L60.546 42.2275L60.5768 42.1381L60.6076 42.0488L60.6384 41.9634L60.6693 41.9201L60.7002 41.8308L60.7312 41.7416L60.7622 41.6524L60.7932 41.5632L60.8243 41.5028L60.8554 41.4349L60.8865 41.3458L60.9177 41.2568L60.9489 41.1677L60.9802 41.0823L61.0115 41.0397L61.0429 40.9508L61.0742 40.8619L61.1057 40.773L61.1371 40.6842L61.1686 40.6238L61.2002 40.5566L61.2317 40.4678L61.2633 40.3791L61.295 40.2904L61.3267 40.2051L61.3584 40.1631L61.3902 40.0745L61.422 39.986L61.4538 39.8974L61.4857 39.809L61.5176 39.7487L61.5496 39.682L61.5816 39.5936L61.6136 39.5052L61.6457 39.4169L61.6778 39.3316L61.7099 39.2903L61.7422 39.2021L61.7744 39.1139L61.8066 39.0257L61.839 38.9376L61.8713 38.8773L61.9037 38.8113L61.9361 38.7233L61.9686 38.6353L62.0011 38.5473L62.0336 38.462L62.0662 38.4214L62.0988 38.3335L62.1314 38.2457L62.1641 38.1579L62.1968 38.0701L62.2296 38.0098L62.2623 37.9446L62.2952 37.8569L62.328 37.7692L62.3609 37.6816L62.3939 37.5963L62.4269 37.5564L62.4599 37.4689L62.493 37.3814L62.526 37.2939L62.5591 37.2065L62.5923 37.1463L62.6255 37.0817L62.6588 36.9944L62.6921 36.9071L62.7254 36.8199L62.7587 36.7346L62.7921 36.6954L62.8255 36.6082L62.859 36.5211L62.8925 36.434L62.926 36.3469L62.9596 36.2868L62.9932 36.2229L63.0269 36.1359L63.0606 36.049L63.0943 35.9621L63.128 35.8769L63.1618 35.8384L63.1957 35.7516L63.2295 35.6648L63.2635 35.5781L63.2974 35.4914L63.3313 35.4313L63.3654 35.3681L63.3994 35.2815L63.4335 35.195L63.4676 35.1085L63.5018 35.0233L63.536 34.9855L63.5702 34.8991L63.6045 34.8127L63.6387 34.7263L63.6731 34.64L63.7075 34.5799L63.7419 34.5174L63.7764 34.4312L63.8108 34.345L63.8453 34.2589L63.8799 34.1738L63.9145 34.1367L63.9491 34.0506L63.9838 33.9646L64.0185 33.8786L64.0532 33.7927L64.088 33.7327L64.1227 33.6709L64.1576 33.5851L64.1925 33.4993L64.2274 33.4135L64.2624 33.3285L64.2973 33.292L64.3323 33.2063L64.3674 33.1207L64.4025 33.0351L64.4376 32.9496L64.4728 32.8896L64.508 32.8285L64.5432 32.7431L64.5785 32.6577L64.6138 32.5722L64.6491 32.4873L64.6845 32.4516L64.7199 32.3663L64.7553 32.2811L64.7908 32.1959L64.8263 32.1106L64.8619 32.0507L64.8975 31.9904L64.9331 31.9053L64.9687 31.8203L65.0044 31.7353L65.0401 31.6504L65.0759 31.6154L65.1117 31.5305L65.1475 31.4456L65.1834 31.3608L65.2193 31.276L65.2552 31.2162L65.2912 31.1566L65.3271 31.0719L65.3632 30.9872L65.3993 30.9026L65.4353 30.818L65.4715 30.7832L65.5077 30.699L65.5439 30.6145L65.5801 30.5301L65.6164 30.4457L65.6527 30.3859L65.689 30.327L65.7254 30.2428L65.7618 30.1585L65.7983 30.0743L65.8347 29.9901L65.8712 29.9553L65.9078 29.8719L65.9444 29.7878L65.9809 29.7037L66.0176 29.6198L66.0543 29.56L66.091 29.5019L66.1278 29.418L66.1645 29.3341L66.2013 29.2503L66.2382 29.1665L66.2751 29.1319L66.312 29.0491L66.349 28.9654L66.3859 28.8818L66.423 28.7982L66.46 28.7386L66.4971 28.6811L66.5342 28.5976L66.5714 28.5142L66.6085 28.4308L66.6457 28.3474L66.683 28.3128L66.7203 28.2307L66.7576 28.1475L66.7949 28.0643L66.8323 27.9811L66.8697 27.9216L66.9072 27.8648L66.9447 27.7817L66.9822 27.6987L67.0197 27.6157L67.0573 27.5328L67.0949 27.4983L67.1325 27.4169L67.1702 27.3341L67.208 27.2513L67.2457 27.1685L67.2835 27.109L67.3213 27.0531L67.3591 26.9704L67.397 26.8878L67.4349 26.8052L67.4728 26.7226L67.5108 26.6882L67.5488 26.6076L67.5868 26.5252L67.6249 26.4428L67.663 26.3604L67.7011 26.301L67.7393 26.2458L67.7775 26.1636L67.8157 26.0814L67.854 25.9992L67.8923 25.9171L67.9306 25.8827L67.969 25.8029L68.0074 25.7209L68.0458 25.6389L68.0842 25.557L68.1227 25.4977L68.1612 25.4432L68.1998 25.3614L68.2383 25.2795L68.277 25.1978L68.3156 25.1161L68.3542 25.0819L68.393 25.0028L68.4317 24.9212L68.4705 24.8396L68.5093 24.7581L68.5481 24.6989L68.5869 24.6452L68.6258 24.5638L68.6648 24.4824L68.7037 24.4011L68.7427 24.3198L68.7817 24.2857L68.8208 24.2073L68.8598 24.1262L68.8989 24.045L68.9381 23.964L68.9773 23.9049L69.0165 23.8519L69.0557 23.7709L69.095 23.69L69.1342 23.6091L69.1736 23.5282L69.213 23.4942L69.2523 23.4166L69.2917 23.3359L69.3312 23.2552L69.3707 23.1745L69.4102 23.1155L69.4497 23.0633L69.4893 22.9827L69.5289 22.9023L69.5685 22.8218L69.6082 22.7414L69.6479 22.7075L69.6876 22.6306L69.7274 22.5503L69.7671 22.4701L69.8069 22.3898L69.8468 22.331L69.8866 22.2795L69.9265 22.1994L69.9665 22.1193L70.0065 22.0393L70.0464 21.9593L70.0865 21.9255L70.1265 21.8494L70.1666 21.7695L70.2067 21.6897L70.2468 21.6099L70.287 21.5511L70.3272 21.5005L70.3674 21.4208L70.4077 21.3412L70.448 21.2616L70.4883 21.182L70.5286 21.1483L70.569 21.0731L70.6094 20.9936L70.6499 20.9142L70.6903 20.8349L70.7308 20.7762L70.7714 20.7263L70.8119 20.6471L70.8525 20.5679L70.8931 20.4888L70.9337 20.4097L70.9744 20.3761L71.0151 20.3016L71.0558 20.2226L71.0966 20.1436L71.1374 20.0647L71.1782 20.0062L71.219 19.957L71.2599 19.8783L71.3008 19.7995L71.3417 19.7208L71.3827 19.6422L71.4236 19.6087L71.4647 19.535L71.5057 19.4564L71.5468 19.3779L71.5879 19.2995L71.629 19.2411L71.6702 19.1927L71.7114 19.1144L71.7526 19.0361L71.7938 18.9578L71.8351 18.8796L71.8764 18.8463L71.9177 18.7733L71.9591 18.6952L72.0004 18.6172L72.0418 18.5392L72.0833 18.4809L72.1247 18.4333L72.1662 18.3554L72.2077 18.2776L72.2493 18.1998L72.2909 18.1221L72.3325 18.0889L72.3741 18.0166L72.4158 17.939L72.4575 17.8615L72.4991 17.7839L72.5409 17.7258L72.5827 17.679L72.6245 17.6015L72.6663 17.5242L72.7082 17.4468L72.75 17.3695L72.7919 17.3365L72.8339 17.2651L72.8758 17.1879L72.9178 17.1108L72.9598 17.0337L73.0019 16.9756L73.0439 16.9296L73.086 16.8527L73.1281 16.7758L73.1703 16.6989L73.2125 16.622L73.2547 16.5891L73.2969 16.5185L73.3391 16.4418L73.3814 16.3651L73.4238 16.2885L73.4661 16.2306L73.5085 16.1854L73.5508 16.1089L73.5932 16.0324L73.6357 15.956L73.6781 15.8797L73.7206 15.8468L73.7632 15.7771L73.8057 15.7008L73.8483 15.6246L73.8909 15.5485L73.9335 15.4907L73.9762 15.4463L74.0189 15.3702L74.0616 15.2942L74.1043 15.2183L74.147 15.1424L74.1898 15.1097L74.2327 15.0407L74.2755 14.965L74.3183 14.8892L74.3612 14.8136L74.4041 14.756L74.447 14.7123L74.49 14.6368L74.533 14.5612L74.576 14.4858L74.6191 14.4104L74.6621 14.3778L74.7052 14.3096L74.7483 14.2343L74.7915 14.1591L74.8346 14.0839L74.8778 14.0264L74.921 13.9836L74.9643 13.9085L75.0075 13.8335L75.0508 13.7584L75.0941 13.6835L75.1375 13.6511L75.1808 13.5837L75.2242 13.5089L75.2676 13.4341L75.3111 13.3594L75.3546 13.3021L75.398 13.26L75.4416 13.1854L75.4851 13.1109L75.5286 13.0364L75.5722 12.9619L75.6158 12.9297L75.6595 12.8631L75.7031 12.7887L75.7468 12.7145L75.7905 12.6402L75.8343 12.583L75.878 12.5418L75.9218 12.4676L75.9656 12.3936L76.0095 12.3196L76.0533 12.2456L76.0972 12.2135L76.1411 12.1477L76.185 12.0738L76.229 12.0001L76.273 11.9263L76.317 11.8693L76.361 11.8289L76.405 11.7552L76.4491 11.6816L76.4932 11.6081L76.5373 11.5346L76.5814 11.5027L76.6256 11.4377L76.6698 11.3643L76.714 11.291L76.7582 11.2177L76.8025 11.1608L76.8468 11.1213L76.8911 11.0481L76.9354 10.975L76.9797 10.902L77.0241 10.8289L77.0685 10.7972L77.113 10.733L77.1574 10.6601L77.2018 10.5873L77.2463 10.5145L77.2908 10.4578L77.3354 10.419L77.38 10.3464L77.4245 10.2737L77.4691 10.2012L77.5138 10.1287L77.5584 10.0971L77.6031 10.0337L77.6478 9.96133L77.6925 9.88896L77.7372 9.81669L77.782 9.76018L77.8267 9.72219L77.8716 9.65006L77.9164 9.57792L77.9612 9.50583L78.0061 9.43382L78.051 9.4024L78.0959 9.33987L78.1408 9.26799L78.1858 9.19612L78.2308 9.12431L78.2758 9.06799L78.3208 9.03081L78.3659 8.95916L78.4109 8.88754L78.456 8.81592L78.5012 8.74441L78.5463 8.71318L78.5914 8.65144L78.6366 8.58008L78.6818 8.50872L78.727 8.4374L78.7722 8.38126L78.8175 8.34491L78.8628 8.27373L78.9081 8.20263L78.9534 8.13153L78.9988 8.0605L79.0441 8.02946L79.0895 7.96854L79.135 7.89766L79.1804 7.82682L79.2258 7.75597L79.2713 7.70002L79.3168 7.66453L79.3623 7.59382L79.4079 7.52323L79.4534 7.45264L79.499 7.38209L79.5446 7.35124L79.5902 7.29117L79.6358 7.22077L79.6815 7.15044L79.7272 7.08011L79.7729 7.0243L79.8186 6.98965L79.8643 6.91946L79.9101 6.84936L79.9559 6.7793L80.0017 6.70922L80.0475 6.67855L80.0934 6.61934L80.1392 6.54941L80.1851 6.47961L80.231 6.40981L80.2769 6.35414L80.3229 6.32034L80.3688 6.25067L80.4148 6.18105L80.4608 6.11151L80.5068 6.04197L80.5528 6.01145L80.5989 5.95307L80.645 5.88367L80.6911 5.81435L80.7372 5.74507L80.7833 5.68959L80.8295 5.65662L80.8757 5.58747L80.9219 5.51832L80.9681 5.44931L81.0144 5.3803L81.0606 5.34993L81.1069 5.29242L81.1532 5.22354L81.1995 5.1547L81.2458 5.08595L81.2922 5.03067L81.3385 4.99851L81.3849 4.92989L81.4313 4.86128L81.4777 4.79274L81.5242 4.72426L81.5706 4.69407L81.6171 4.63739L81.6636 4.56905L81.7101 4.5007L81.7566 4.43248L81.8032 4.37739L81.8498 4.34604L81.8964 4.27796L81.943 4.20988L81.9896 4.14184L82.0362 4.07388L82.0829 4.04389L82.1296 3.98803L82.1763 3.92021L82.223 3.8524L82.2697 3.78466L82.3165 3.72979L82.3632 3.69929L82.4101 3.6317L82.4569 3.56415L82.5037 3.4966L82.5505 3.42918L82.5974 3.39941L82.6442 3.34436L82.6912 3.27706L82.7381 3.20978L82.785 3.14254L82.8319 3.08787L82.8789 3.05823L82.9258 2.99115L83.023 2.97417L83.1199 2.95721L83.217 2.9404L83.2766 2.92356L83.361 2.90682L83.4581 2.89023L83.5552 2.87375L83.6523 2.85733L83.7372 2.84095L83.7966 2.82441L83.8937 2.80824L83.9909 2.79223L84.0881 2.77623L84.1853 2.76036L84.2455 2.74417L84.3298 2.72828L84.427 2.71261L84.5243 2.69714L84.6216 2.68169L84.707 2.66614L84.7663 2.65024L84.8636 2.63505L84.9609 2.61999L85.0583 2.60495L85.1556 2.59005L85.2162 2.57451L85.3004 2.55947L85.3978 2.54473L85.4953 2.53026L85.5927 2.51579L85.6786 2.50108L85.7377 2.48582L85.8352 2.47162L85.9327 2.45748L86.0303 2.44344L86.1278 2.42953L86.1889 2.41461L86.2729 2.40043L86.3705 2.38668L86.4681 2.37314L86.5657 2.35964L86.6521 2.3458L86.711 2.33118L86.8087 2.31796L86.9063 2.30476L87.004 2.29173L87.1017 2.27878L87.1633 2.26449L87.2472 2.25116L87.3449 2.23841L87.4426 2.22582L87.5404 2.21329L87.6272 2.20037L87.686 2.18634L87.7838 2.17409L87.8816 2.16186L87.9794 2.1498L88.0772 2.13785L88.1394 2.1242L88.223 2.11169L88.3209 2.09996L88.4188 2.0883L88.5167 2.07676L88.604 2.06477L88.6626 2.05132L88.7605 2.04005L88.8584 2.02879L88.9564 2.01771L89.0544 2.00673L89.117 1.99378L89.2004 1.98207L89.2984 1.97135L89.3964 1.96065L89.4945 1.95006L89.5823 1.93901L89.6406 1.92615L89.7387 1.91586L89.8368 1.90559L89.9348 1.89547L90.0329 1.88547L90.096 1.87322L90.1793 1.86231L90.2774 1.8526L90.3755 1.84288L90.4737 1.83326L90.5619 1.82313L90.6201 1.81089L90.7183 1.80154L90.8165 1.79228L90.9147 1.78313L91.0129 1.77409L91.0764 1.76255L91.1594 1.75246L91.2577 1.74373L91.3559 1.73499L91.4542 1.72635L91.5428 1.71714L91.6009 1.7055L91.6991 1.6971L91.7974 1.68887L91.8957 1.6807L91.994 1.67259L92.058 1.66178L92.1408 1.65254L92.2392 1.64474L92.3375 1.637L92.4359 1.62935L92.525 1.62105L92.5828 1.61003L92.6812 1.60256L92.7796 1.59535L92.878 1.58817L92.9764 1.58101L93.0408 1.57092L93.1234 1.56253L93.2218 1.55568L93.3203 1.54892L93.4187 1.54229L93.5083 1.53489L93.5658 1.52447L93.6643 1.518L93.7628 1.51176L93.8612 1.50556L93.9597 1.49939L94.0246 1.49002L94.107 1.48245L94.2055 1.47654L94.304 1.4708L94.4025 1.46517L94.4925 1.45867L94.5499 1.44884L94.6484 1.4434L94.7469 1.43811L94.8455 1.4329L94.944 1.42776L95.0094 1.41907L95.0915 1.41231L95.1901 1.40739L95.2887 1.40264L95.3872 1.398L95.4776 1.39242L95.5348 1.38317L95.6333 1.37876L95.732 1.3744L95.8306 1.37019L95.9292 1.36608L95.9949 1.35808L96.0768 1.35213L96.1755 1.3482L96.2741 1.34443L96.3727 1.34078L96.4635 1.33616L96.5204 1.32745L96.6191 1.32407L96.7177 1.3207L96.8164 1.31744L96.9151 1.31435L96.9812 1.30708L97.0629 1.30192L97.1616 1.29899L97.2602 1.29619L97.3589 1.29353L97.4501 1.2899L97.5068 1.28174L97.6055 1.27936L97.7042 1.27698L97.8029 1.2747L97.9016 1.2726L97.9682 1.26608L98.0496 1.26167L98.1483 1.25978L98.247 1.25797L98.3457 1.25625L98.4372 1.25362L98.4937 1.24602L98.5925 1.24462L98.6912 1.24323L98.79 1.24194L98.8887 1.24083L98.9556 1.23506L99.0368 1.2314L99.1355 1.23054L99.2343 1.22972L99.333 1.22895L99.4249 1.22734L99.4811 1.22031L99.5799 1.21985L99.6787 1.21945L99.7774 1.21919L99.8762 1.21904L99.9435 1.21403L100.024 1.21113L100.123 1.21129L100.222 1.21146L100.321 1.21165L100.413 1.21104L100.469 1.20459L100.568 1.20508L100.666 1.2057L100.765 1.20644L100.864 1.20723L100.932 1.20302L101.012 1.20093L101.111 1.20203L101.21 1.20319L101.309 1.20441L101.401 1.20475L101.457 1.19886L101.556 1.2003L101.654 1.20195L101.753 1.20368L101.852 1.20541L101.92 1.20199L102 1.2007L102.099 1.20274L102.198 1.2049L102.297 1.20715L102.39 1.20844L102.445 1.20311L102.544 1.20555L102.643 1.20818L102.741 1.2109L102.84 1.21362L102.909 1.21096L102.989 1.21046L103.087 1.21346L103.186 1.2166L103.285 1.21988L103.378 1.22212L103.433 1.21735L103.532 1.2208L103.631 1.22439L103.73 1.22811L103.828 1.23185L103.897 1.22994L103.977 1.23021L104.076 1.2342L104.174 1.23833L104.273 1.2426L104.367 1.24584L104.422 1.24157L104.52 1.24606L104.619 1.25062L104.718 1.25529L104.816 1.26008L104.886 1.2589L104.965 1.25994L105.064 1.26492L105.162 1.27003L105.261 1.2753L105.355 1.27954L105.41 1.27577L105.508 1.28129L105.607 1.28684L105.706 1.29246L105.804 1.29828L105.874 1.29789L105.953 1.29964L106.052 1.30561L106.15 1.31173L106.249 1.31796L106.343 1.32324L106.397 1.31996L106.496 1.32649L106.595 1.33302L106.693 1.33962L106.792 1.34644L106.862 1.34686L106.94 1.3493L107.039 1.35631L107.138 1.36341L107.236 1.37058L107.331 1.37692L107.385 1.37417L107.483 1.38164L107.582 1.38917L107.681 1.39678L107.779 1.40455L107.849 1.40578L107.928 1.40892L108.026 1.41696L108.125 1.42505L108.223 1.43315L108.318 1.44056L108.372 1.43834L108.47 1.44674L108.569 1.45526L108.667 1.46391L108.766 1.47261L108.836 1.47466L108.914 1.47854L109.013 1.48754L109.111 1.49662L109.21 1.50572L109.305 1.51414L109.358 1.51244L109.457 1.5218L109.555 1.53132L109.654 1.54095L109.752 1.55059L109.823 1.55348L109.9 1.55811L109.999 1.56805L110.097 1.57811L110.196 1.58824L110.291 1.59764L110.344 1.59646L110.442 1.6068L110.541 1.6173L110.639 1.62792L110.737 1.63854L110.808 1.64221L110.886 1.64761L110.984 1.65851L111.082 1.66952L111.181 1.68068L111.276 1.69107L111.329 1.69038L111.427 1.70171L111.525 1.71318L111.624 1.72478L111.722 1.7364L111.793 1.74086L111.87 1.74698L111.968 1.75886L112.067 1.77083L112.165 1.783L112.26 1.79442L112.313 1.79418L112.411 1.80654L112.509 1.81898L112.607 1.83152L112.706 1.84417L112.777 1.84943L112.854 1.85623L112.952 1.8691L113.05 1.88205L113.148 1.89519L113.244 1.90765L113.296 1.90785L113.394 1.92124L113.492 1.93466L113.59 1.94812L113.688 1.9618L113.76 1.96789L113.836 1.97534L113.934 1.98919L114.032 2.00316L114.13 2.01721L114.226 2.03071L114.278 2.03139L114.376 2.04578L114.474 2.06017L114.572 2.07459L114.67 2.08926L114.742 2.09618L114.818 2.10428L114.916 2.11914L115.013 2.13409L115.111 2.14907L115.207 2.16368L115.259 2.16485L115.357 2.18012L115.455 2.1955L115.552 2.21095L115.65 2.22652L115.722 2.2343L115.798 2.24309L115.896 2.2589L115.993 2.27485L116.091 2.29079L116.187 2.30645L116.239 2.30811L116.336 2.32433L116.434 2.34064L116.532 2.35713L116.629 2.37364L116.702 2.38224L116.777 2.39173L116.874 2.40852L116.972 2.42541L117.07 2.44236L117.166 2.45906L117.217 2.46118L117.315 2.4784L117.412 2.49565L117.509 2.51312L117.607 2.53062L117.68 2.54003L117.754 2.55023L117.852 2.56801L117.949 2.58579L118.047 2.60378L118.143 2.62156L118.194 2.62406L118.291 2.64226L118.388 2.66056L118.486 2.67892L118.583 2.69741L118.656 2.70772L118.73 2.71853L118.827 2.73729L118.925 2.75607L119.022 2.775L119.119 2.79387L119.169 2.79683L119.266 2.81594L119.363 2.83527L119.46 2.8546L119.558 2.87401L119.631 2.88523L119.705 2.8967L119.802 2.91639L119.899 2.93618L119.996 2.95608L120.093 2.97599L120.143 2.97943L120.24 2.99951L120.337 3.01979L120.433 3.0401L120.53 3.06048L120.604 3.07256L120.677 3.08471L120.774 3.10531L120.871 3.12612L120.968 3.147L121.065 3.16788L121.115 3.17185L121.211 3.19294L121.308 3.2141L121.405 3.23541L121.501 3.25683L121.575 3.2697L121.648 3.28252L121.745 3.30411L121.841 3.32586L121.938 3.34772L122.035 3.36959L122.085 3.37416L122.181 3.39615L122.278 3.41831L122.374 3.44053L122.471 3.46296L122.544 3.47671L122.617 3.49012L122.713 3.51272L122.81 3.53543L122.906 3.55822L123.003 3.58112L123.053 3.58634L123.149 3.60915L123.245 3.63228L123.341 3.65548L123.438 3.67886L123.511 3.69352L123.584 3.7075L123.68 3.73112L123.776 3.75481L123.872 3.77849L123.968 3.80242L124.019 3.80835L124.114 3.83193L124.21 3.85604L124.307 3.88027L124.403 3.90452L124.477 3.92009L124.548 3.93473L124.644 3.95929L124.74 3.98395L124.836 4.00864L124.932 4.03349L124.983 4.04012L125.078 4.06453L125.174 4.08958L125.27 4.1148L125.365 4.14002L125.44 4.15646L125.511 4.17176L125.607 4.19726L125.702 4.22286L125.798 4.24856L125.894 4.27435L125.945 4.28165L126.039 4.30691L126.135 4.33291L126.23 4.35909L126.326 4.38529L126.4 4.40258L126.471 4.41854L126.566 4.44502L126.662 4.47149L126.757 4.49822L126.853 4.52498L126.904 4.53291L126.998 4.55899L127.093 4.58602L127.189 4.61308L127.284 4.64027L127.358 4.65852L127.429 4.67502L127.524 4.70247L127.619 4.72995L127.714 4.75759L127.81 4.78531L127.861 4.79396L127.954 4.82085L128.049 4.84885L128.144 4.87685L128.239 4.905L128.314 4.92417L128.384 4.94124L128.479 4.96963L128.574 4.99812L128.669 5.02667L128.764 5.05535L128.816 5.06473L128.908 5.09239L129.003 5.12135L129.098 5.15033L129.192 5.17941L129.267 5.19951L129.336 5.2172L129.431 5.24646L129.526 5.27597L129.62 5.3055L129.715 5.33506L129.767 5.34518L129.859 5.37369L129.954 5.40353L130.048 5.43349L130.143 5.46356L130.217 5.48452L130.286 5.50281L130.381 5.53306L130.475 5.56349L130.569 5.59398L130.664 5.62452L130.716 5.63533L130.807 5.66464L130.902 5.6954L130.996 5.72634L131.09 5.75737L131.165 5.77919L131.233 5.79807L131.327 5.82934L131.421 5.86065L131.516 5.8921L131.61 5.92365L131.662 5.93511L131.753 5.96521L131.847 5.99693L131.941 6.0288L132.034 6.06079L132.109 6.08355L132.177 6.10295L132.271 6.13522L132.365 6.16749L132.459 6.19984L132.552 6.23237L132.605 6.24455L132.695 6.27538L132.789 6.30809L132.882 6.3409L132.976 6.37381L133.051 6.39752L133.118 6.41749L133.212 6.45068L133.305 6.4839L133.399 6.51718L133.492 6.55067L133.545 6.5636L133.634 6.59512L133.728 6.62883L133.821 6.6626L133.914 6.69638L133.989 6.72106L134.056 6.74162L134.149 6.77569L134.243 6.80986L134.336 6.84416L134.429 6.87851L134.482 6.89219L134.571 6.92448L134.664 6.95912L134.757 6.99383L134.85 7.02855L134.925 7.05415L134.991 7.07529L135.084 7.11027L135.177 7.14539L135.269 7.18064L135.362 7.21589L135.415 7.2303L135.503 7.26339L135.596 7.29891L135.689 7.33457L135.781 7.37029L135.856 7.39675L135.922 7.41846L136.015 7.45438L136.107 7.49041L136.2 7.52661L136.292 7.56281L136.345 7.57791L136.433 7.61179L136.525 7.64825L136.618 7.68477L136.71 7.72149L136.785 7.74889L136.85 7.77108L136.943 7.80795L137.035 7.84495L137.127 7.88204L137.219 7.91918L137.272 7.93501L137.359 7.96964L137.451 8.00704L137.543 8.04446L137.635 8.08212L137.71 8.11048L137.775 8.13314L137.867 8.17101L137.958 8.20894L138.05 8.24689L138.142 8.28502L138.195 8.30161L138.282 8.33689L138.373 8.37524L138.465 8.41365L138.556 8.45216L138.631 8.48147L138.696 8.50468L138.787 8.54344L138.879 8.58231L138.97 8.62119L139.061 8.66024L139.115 8.67759L139.2 8.71357L139.292 8.7528L139.383 8.79219L139.474 8.83159L139.549 8.86183L139.613 8.88558L139.704 8.92524L139.795 8.96502L139.886 9.00484L139.977 9.04478L140.03 9.06291L140.115 9.0996L140.206 9.13971L140.297 9.18004L140.388 9.22037L140.463 9.25153L140.526 9.27582L140.617 9.31641L140.707 9.35706L140.798 9.39785L140.889 9.4387L140.942 9.45753L141.027 9.49493L141.117 9.53601L141.207 9.5772L141.298 9.61845L141.373 9.65055L141.436 9.67534L141.526 9.71685L141.616 9.75837L141.706 9.80011L141.796 9.84188L141.85 9.86141L141.934 9.89951L142.024 9.94154L142.114 9.98359L142.204 10.0258L142.279 10.0589L142.341 10.0841L142.431 10.1265L142.521 10.169L142.61 10.2116L142.7 10.2543L142.754 10.2746L142.837 10.3134L142.927 10.3563L143.016 10.3992L143.106 10.4423L143.181 10.4764L143.242 10.5021L143.332 10.5454L143.421 10.5888L143.51 10.6323L143.6 10.6759L143.654 10.697L143.736 10.7364L143.825 10.7802L143.914 10.8241L144.003 10.8681L144.078 10.9031L144.139 10.9293L144.229 10.9734L144.317 11.0178L144.406 11.0622L144.495 11.1066L144.549 11.1285L144.631 11.1686L144.72 11.2133L144.808 11.2581L144.897 11.303L144.972 11.3389L145.032 11.3655L145.121 11.4106L145.209 11.4558L145.298 11.5011L145.386 11.5465L145.44 11.5691L145.521 11.6099L145.61 11.6554L145.698 11.7011L145.786 11.7469L145.861 11.7838L145.921 11.8109L146.009 11.8569L146.097 11.903L146.185 11.9492L146.273 11.9954L146.327 12.0188L146.407 12.0602L146.495 12.1067L146.583 12.1532L146.671 12.1999L146.745 12.2377L146.805 12.2653L146.893 12.3122L146.98 12.3592L147.068 12.4062L147.155 12.4534L147.209 12.4775L147.289 12.5195L147.376 12.5669L147.464 12.6144L147.551 12.6619L147.626 12.7007L147.684 12.7287L147.772 12.7765L147.859 12.8243L147.946 12.8722L148.033 12.9203L148.087 12.9452L148.166 12.9878L148.253 13.0361L148.34 13.0845L148.427 13.1328L148.501 13.1726L148.559 13.201L148.646 13.2497L148.733 13.2984L148.819 13.3472L148.906 13.3961L148.96 13.4218L149.038 13.465L149.125 13.5142L149.211 13.5634L149.297 13.6126L149.372 13.6534L149.429 13.6823L149.516 13.7317L149.602 13.7814L149.688 13.8311L149.774 13.8808L149.828 13.9073L149.906 13.9511L149.992 14.0011L150.078 14.0512L150.163 14.1014L150.238 14.143L150.295 14.1723L150.381 14.2227L150.466 14.2732L150.552 14.3237L150.637 14.3743L150.691 14.4016L150.768 14.446L150.854 14.4969L150.939 14.5478L151.025 14.5989L151.099 14.6414L151.155 14.6712L151.24 14.7224L151.326 14.7737L151.411 14.8252L151.496 14.8766L151.55 14.9046L151.626 14.9497L151.711 15.0014L151.796 15.0531L151.881 15.1051L151.955 15.1486L152.011 15.1787L152.095 15.2308L152.18 15.283L152.265 15.3353L152.349 15.3876L152.403 15.4164L152.479 15.462L152.563 15.5146L152.648 15.5672L152.732 15.62L152.805 15.6645L152.861 15.6949L152.945 15.7479L153.029 15.801L153.114 15.854L153.197 15.9073L153.251 15.9368L153.326 15.983L153.41 16.0364L153.494 16.0899L153.578 16.1435L153.651 16.1889L153.706 16.2198L153.79 16.2736L153.873 16.3275L153.957 16.3814L154.041 16.4355L154.094 16.4659L154.168 16.5126L154.252 16.5668L154.335 16.6212L154.418 16.6756L154.492 16.722L154.546 16.7533L154.629 16.8079L154.712 16.8626L154.795 16.9174L154.878 16.9723L154.932 17.0034L155.005 17.0507L155.088 17.1057L155.171 17.161L155.254 17.2162L155.327 17.2635L155.381 17.2952L155.463 17.3507L155.546 17.4062L155.628 17.4618L155.711 17.5176L155.764 17.5494L155.837 17.5973L155.919 17.6532L156.002 17.7092L156.084 17.7653L156.157 17.8136L156.21 17.8456L156.292 17.9019L156.374 17.9582L156.456 18.0147L156.538 18.0713L156.591 18.1039L156.663 18.1523L156.745 18.209L156.827 18.2658L156.908 18.3228L156.981 18.372L157.033 18.4043L157.115 18.4615L157.196 18.5187L157.278 18.576L157.359 18.6333L157.412 18.6668L157.484 18.7156L157.565 18.7732L157.646 18.8308L157.727 18.8886L157.799 18.9388L157.851 18.9715L157.932 19.0294L158.013 19.0874L158.094 19.1455L158.175 19.2037L158.228 19.2379L158.299 19.2873L158.379 19.3457L158.46 19.4041L158.54 19.4627L158.612 19.5138L158.664 19.5469L158.744 19.6056L158.824 19.6645L158.905 19.7233L158.985 19.7823L159.038 19.8173L159.108 19.8672L159.188 19.9264L159.268 19.9857L159.348 20.045L159.419 20.0971L159.47 20.1304L159.55 20.19L159.63 20.2496L159.709 20.3093L159.789 20.3691L159.842 20.4049L159.911 20.4553L159.991 20.5152L160.07 20.5753L160.149 20.6355L160.221 20.6885L160.271 20.7222L160.35 20.7826L160.429 20.8429L160.508 20.9035L160.587 20.9641L160.64 21.0006L160.709 21.0515L160.787 21.1123L160.866 21.1731L160.945 21.2341L161.016 21.288L161.066 21.322L161.144 21.3832L161.223 21.4444L161.301 21.5057L161.38 21.5671L161.432 21.6044L161.5 21.6557L161.578 21.7173L161.656 21.7789L161.735 21.8407L161.805 21.8956L161.854 21.9299L161.932 21.9918L162.01 22.0538L162.088 22.1159L162.166 22.1781L162.219 22.2162L162.285 22.2679L162.363 22.3303L162.441 22.3928L162.518 22.4552L162.589 22.5112L162.637 22.5458L162.715 22.6084L162.792 22.6712L162.869 22.7341L162.946 22.797L162.999 22.836L163.065 22.8881L163.142 22.9513L163.219 23.0145L163.296 23.0778L163.366 23.1346L163.414 23.1695L163.49 23.2329L163.567 23.2965L163.644 23.3602L163.72 23.4238L163.773 23.4636L163.838 23.5162L163.914 23.5801L163.991 23.6441L164.067 23.7081L164.137 23.7659L164.184 23.8011L164.26 23.8653L164.336 23.9296L164.412 23.994L164.488 24.0584L164.54 24.099L164.605 24.1521L164.68 24.2167L164.756 24.2814L164.832 24.3463L164.901 24.405L164.948 24.4404L165.023 24.5054L165.099 24.5705L165.174 24.6356L165.25 24.7009L165.301 24.7421L165.365 24.7957L165.44 24.8611L165.515 24.9265L165.59 24.9921L165.66 25.0518L165.706 25.0874L165.78 25.1532L165.855 25.219L165.93 25.2849L166.005 25.3509L166.056 25.393L166.119 25.4469L166.194 25.5131L166.268 25.5793L166.342 25.6456L166.411 25.7062L166.457 25.7421L166.531 25.8087L166.605 25.8752L166.679 25.9418L166.753 26.0086L166.804 26.0515L166.867 26.1057L166.94 26.1727L167.014 26.2397L167.088 26.3067L167.156 26.3682L167.201 26.4044L167.275 26.4716L167.348 26.539L167.422 26.6064L167.495 26.6738L167.546 26.7174L167.607 26.7721L167.681 26.8398L167.754 26.9075L167.827 26.9753L167.895 27.0377L167.939 27.0742L168.012 27.1421L168.085 27.2102L168.157 27.2783L168.23 27.3465L168.281 27.3909L168.342 27.446L168.414 27.5144L168.487 27.5828L168.559 27.6513L168.627 27.7147L168.67 27.7514L168.742 27.8201L168.815 27.8888L168.887 27.9577L168.959 28.0266L169.009 28.0718L169.069 28.1273L169.141 28.1964L169.213 28.2655L169.284 28.3348L169.352 28.3991L169.395 28.4359L169.466 28.5053L169.538 28.5748L169.609 28.6444L169.68 28.714L169.731 28.76L169.79 28.8158L169.861 28.8857L169.932 28.9555L170.003 29.0255L170.07 29.0907L170.112 29.1278L170.183 29.1979L170.254 29.2681L170.324 29.3384L170.395 29.4087L170.445 29.4555L170.504 29.5116L170.574 29.5822L170.644 29.6528L170.715 29.7234L170.781 29.7896L170.823 29.8269L170.893 29.8977L170.963 29.9686L171.033 30.0396L171.103 30.1106L171.153 30.1582L171.21 30.2147L171.28 30.2859L171.35 30.3572L171.419 30.4286L171.485 30.4956L171.526 30.5331L171.596 30.6046L171.665 30.6763L171.734 30.7479L171.804 30.8197L171.853 30.868L171.91 30.9248L171.979 30.9967L172.048 31.0688L172.117 31.1408L172.182 31.2087L172.223 31.2464L172.292 31.3187L172.36 31.391L172.429 31.4633L172.497 31.5358L172.547 31.5848L172.603 31.642L172.671 31.7146L172.739 31.7873L172.807 31.86L172.872 31.9289L172.912 31.9668L172.98 32.0397L173.048 32.1126L173.116 32.1857L173.184 32.2589L173.233 32.3086L173.288 32.3661L173.356 32.4395L173.423 32.5128L173.491 32.5862L173.555 32.656L173.594 32.694L173.662 32.7677L173.729 32.8413L173.796 32.915L173.863 32.9888L173.912 33.0394L173.966 33.0972L174.033 33.1712L174.1 33.2452L174.167 33.3193L174.231 33.39L174.269 33.4282L174.336 33.5024L174.402 33.5768L174.469 33.6512L174.535 33.7256L174.584 33.777L174.637 33.8351L174.703 33.9097L174.769 33.9844L174.835 34.0592L174.899 34.1308L174.937 34.1691L175.003 34.244L175.068 34.319L175.134 34.3941L175.2 34.4692L175.248 34.5213L175.301 34.5797L175.366 34.655L175.431 34.7304L175.497 34.8058L175.559 34.8783L175.597 34.9168L175.662 34.9923L175.727 35.068L175.792 35.1437L175.857 35.2195L175.904 35.2723L175.956 35.331L176.021 35.407L176.086 35.483L176.15 35.5591L176.213 35.6324L176.25 35.671L176.314 35.7473L176.378 35.8236L176.442 35.9L176.506 35.9764L176.554 36.03L176.605 36.089L176.669 36.1655L176.733 36.2422L176.796 36.3189L176.858 36.3931L176.895 36.4319L176.958 36.5088L177.022 36.5857L177.085 36.6627L177.148 36.7398L177.195 36.7942L177.246 36.8534L177.309 36.9306L177.372 37.0079L177.435 37.0853L177.496 37.1604L177.532 37.1993L177.595 37.2768L177.657 37.3544L177.72 37.432L177.783 37.5097L177.829 37.5648L177.879 37.6243L177.941 37.7022L178.004 37.7801L178.066 37.858L178.127 37.9341L178.162 37.9731L178.224 38.0512L178.286 38.1294L178.347 38.2077L178.409 38.286L178.456 38.3419L178.504 38.4016L178.566 38.4801L178.627 38.5586L178.689 38.6372L178.749 38.7141L178.783 38.7532L178.845 38.832L178.906 38.9108L178.967 38.9897L179.028 39.0686L179.074 39.1252L179.122 39.1852L179.183 39.2642L179.244 39.3434L179.304 39.4226L179.364 39.5004L179.398 39.5396L179.458 39.619L179.518 39.6984L179.579 39.7779L179.639 39.8574L179.684 39.9148L179.732 39.975L179.792 40.0547L179.852 40.1344L179.912 40.2143L179.971 40.2929L180.004 40.3322L180.063 40.4122L180.123 40.4922L180.183 40.5723L180.242 40.6525L180.287 40.7105L180.333 40.7709L180.393 40.8512L180.452 40.9316L180.511 41.012L180.569 41.0915L180.602 41.1309L180.661 41.2115L180.72 41.2921L180.778 41.3727L180.837 41.4535L180.882 41.5123L180.927 41.5729L180.986 41.6538L181.044 41.7348L181.102 41.8158L181.16 41.8961L181.192 41.9356L181.25 42.0168L181.308 42.098L181.366 42.1792L181.424 42.2606L181.468 42.3201L181.513 42.3809L181.571 42.4624L181.628 42.5439L181.686 42.6255L181.743 42.7067L181.774 42.7462L181.831 42.828L181.889 42.9098L181.946 42.9916L182.003 43.0735L182.047 43.1338L182.091 43.1947L182.147 43.2768L182.204 43.3589L182.261 43.4411L182.317 43.5232L182.348 43.5628L182.405 43.6451L182.461 43.7274L182.517 43.8099L182.573 43.8923L182.617 43.9534L182.66 44.0145L182.716 44.0971L182.772 44.1798L182.828 44.2625L182.884 44.3453L182.914 44.3852L182.969 44.468L183.025 44.5509L183.08 44.6339L183.136 44.7169L183.179 44.7787L183.221 44.84L183.276 44.9231L183.331 45.0064L183.386 45.0897L183.441 45.173L183.471 45.2135L183.526 45.2965L183.581 45.38L183.635 45.4636L183.69 45.5472L183.732 45.6096L183.774 45.6711L183.828 45.7548L183.883 45.8386L183.937 45.9224L183.991 46.0063L184.021 46.0474L184.074 46.1307L184.128 46.2148L184.182 46.2988L184.236 46.383L184.278 46.4462L184.318 46.5078L184.372 46.5921L184.425 46.6764L184.479 46.7608L184.532 46.8452L184.562 46.8868L184.614 46.9705L184.667 47.055L184.72 47.1396L184.773 47.2243L184.814 47.2882L184.854 47.35L184.907 47.4348L184.96 47.5197L185.012 47.6045L185.065 47.6895L185.094 47.7318L185.145 47.8156L185.198 47.9007L185.25 47.9859L185.302 48.0711L185.343 48.1357L185.382 48.1976L185.434 48.2829L185.486 48.3683L185.537 48.4537L185.589 48.5392L185.618 48.5821L185.668 48.6662L185.72 48.7518L185.771 48.8375L185.822 48.9232L185.862 48.9885L185.901 49.0505L185.952 49.1364L186.003 49.2223L186.054 49.3082L186.104 49.3942L186.133 49.4377L186.182 49.522L186.233 49.6081L186.283 49.6943L186.334 49.7805L186.374 49.8466L186.411 49.9087L186.461 49.995L186.511 50.0814L186.561 50.1679L186.611 50.2544L186.639 50.2985L186.688 50.383L186.738 50.4696L186.787 50.5563L186.837 50.643L186.876 50.7098L186.913 50.772L186.962 50.8589L187.011 50.9458L187.06 51.0328L187.109 51.1197L187.137 51.1645L187.185 51.2491L187.234 51.3363L187.282 51.4234L187.331 51.5107L187.37 51.5781L187.406 51.6404L187.454 51.7277L187.503 51.8151L187.551 51.9026L187.599 51.9901L187.626 52.0354L187.673 52.1203L187.721 52.2079L187.769 52.2955L187.816 52.3833L187.855 52.4514L187.89 52.5138L187.938 52.6016L187.985 52.6895L188.032 52.7774L188.08 52.8654L188.107 52.9113L188.152 52.9963L188.199 53.0845L188.246 53.1726L188.293 53.2608L188.331 53.3296L188.365 53.392L188.412 53.4804L188.459 53.5688L188.505 53.6571L188.551 53.7456L188.578 53.7921L188.623 53.8773L188.669 53.9658L188.715 54.0545L188.761 54.1431L188.798 54.2126L188.832 54.2751L188.878 54.3639L188.923 54.4527L188.969 54.5416L189.014 54.6306L189.041 54.6776L189.084 54.7629L189.13 54.852L189.175 54.9411L189.22 55.0302L189.256 55.1004L189.289 55.1629L189.334 55.2522L189.379 55.3415L189.424 55.4308L189.468 55.5202L189.494 55.5678L189.537 55.6533L189.581 55.7428L189.625 55.8323L189.67 55.9219L189.706 55.9928L189.738 56.0554L189.782 56.1451L189.826 56.2348L189.869 56.3246L189.913 56.4144L189.939 56.4626L189.98 56.5482L190.024 56.6382L190.067 56.7282L190.11 56.8182L190.146 56.8897L190.177 56.9523L190.22 57.0424L190.263 57.1326L190.306 57.2229L190.349 57.3131L190.374 57.3619L190.415 57.4477L190.457 57.538L190.5 57.6284L190.542 57.7189L190.577 57.7911L190.608 57.8538L190.65 57.9443L190.692 58.0349L190.734 58.1256L190.776 58.2163L190.8 58.2657L190.84 58.3515L190.882 58.4423L190.923 58.5331L190.965 58.624L190.999 58.6968L191.029 58.7595L191.07 58.8505L191.111 58.9416L191.152 59.0326L191.193 59.1238L191.218 59.1737L191.256 59.2596L191.297 59.3508L191.338 59.4421L191.378 59.5334L191.412 59.6069L191.441 59.6696L191.481 59.761L191.521 59.8524L191.561 59.9439L191.601 60.0354L191.625 60.086L191.663 60.172L191.703 60.2636L191.743 60.3552L191.782 60.447L191.815 60.5211L191.844 60.5838L191.883 60.6756L191.922 60.7674L191.961 60.8593L192.001 60.9513L192.024 61.0023L192.061 61.0884L192.1 61.1805L192.139 61.2725L192.177 61.3646L192.209 61.4394L192.237 61.5021L192.275 61.5943L192.314 61.6865L192.352 61.7788L192.39 61.8711L192.413 61.9228L192.449 62.0089L192.487 62.1013L192.525 62.1938L192.563 62.2863L192.594 62.3617L192.621 62.4244L192.659 62.5169L192.696 62.6096L192.733 62.7022L192.771 62.7949L192.793 62.8471L192.828 62.9333L192.865 63.0261L192.902 63.119L192.939 63.2119L192.97 63.2879L192.996 63.3505L193.033 63.4435L193.069 63.5365L193.105 63.6296L193.142 63.7226L193.164 63.7754L193.198 63.8616L193.234 63.9548L193.27 64.048L193.306 64.1412L193.336 64.2179L193.361 64.2805L193.397 64.3738L193.432 64.4672L193.468 64.5606L193.503 64.654L193.525 64.7074L193.558 64.7936L193.593 64.8871L193.628 64.9807L193.663 65.0743L193.693 65.1516L193.717 65.2141L193.752 65.3078L193.786 65.4015L193.821 65.4953L193.855 65.5891L193.877 65.643L193.909 65.7292L193.943 65.8232L193.977 65.9171L194.011 66.011L194.04 66.0889L194.063 66.1514L194.097 66.2454L194.131 66.3395L194.165 66.4336L194.198 66.5278L194.219 66.5822L194.25 66.6685L194.283 66.7627L194.316 66.8569L194.349 66.9512L194.377 67.0298L194.4 67.0922L194.433 67.1866L194.466 67.281L194.499 67.3754L194.531 67.4699L194.551 67.5248L194.581 67.6111L194.614 67.7057L194.646 67.8003L194.678 67.8949L194.705 67.974L194.728 68.0364L194.759 68.1311L194.791 68.2258L194.823 68.3206L194.855 68.4154L194.874 68.4709L194.903 68.5571L194.935 68.652L194.966 68.7469L194.997 68.8419L195.024 68.9216L195.045 68.9839L195.076 69.0789L195.107 69.174L195.138 69.269L195.168 69.3641L195.188 69.4202L195.216 69.5064L195.246 69.6016L195.276 69.6968L195.307 69.7921L195.332 69.8724L195.353 69.9346L195.383 70.0299L195.413 70.1253L195.443 70.2207L195.473 70.3161L195.491 70.3726L195.518 70.4588L195.548 70.5543L195.577 70.6499L195.606 70.7454L195.632 70.8263L195.651 70.8884L195.68 70.984L195.709 71.0797L195.738 71.1754L195.767 71.2711L195.785 71.3282L195.811 71.4143L195.84 71.5101L195.868 71.6059L195.896 71.7018L195.921 71.7833L195.94 71.8452L195.968 71.9412L195.996 72.0371L196.024 72.1331L196.052 72.2291L196.069 72.2867L196.095 72.3728L196.122 72.4688L196.149 72.565L196.177 72.6611L196.2 72.7431L196.219 72.805L196.246 72.9012L196.273 72.9974L196.3 73.0937L196.327 73.19L196.344 73.248L196.368 73.3341L196.395 73.4304L196.421 73.5268L196.447 73.6232L196.47 73.7058L196.488 73.7675L196.514 73.864L196.54 73.9605L196.566 74.0571L196.592 74.1536L196.609 74.2122L196.632 74.2982L196.657 74.3948L196.683 74.4914L196.708 74.5881L196.73 74.6712L196.747 74.7328L196.772 74.8296L196.797 74.9263L196.822 75.0231L196.847 75.1199L196.863 75.179L196.886 75.2649L196.91 75.3618L196.935 75.4587L196.959 75.5556L196.98 75.6393L196.997 75.7007L197.021 75.7977L197.045 75.8947L197.069 75.9917L197.093 76.0888L197.108 76.1484L197.13 76.2342L197.153 76.3313L197.177 76.4284L197.2 76.5256L197.221 76.6098L197.236 76.6711L197.26 76.7684L197.283 76.8656L197.306 76.9629L197.328 77.0602L197.343 77.1202L197.364 77.2059L197.386 77.3033L197.409 77.4006L197.432 77.498L197.451 77.5828L197.466 77.6439L197.488 77.7414L197.51 77.8389L197.532 77.9364L197.554 78.0339L197.569 78.0944L197.588 78.18L197.61 78.2776L197.631 78.3752L197.653 78.4728L197.672 78.5581L197.686 78.6191L197.707 78.7167L197.728 78.8145L197.749 78.9122L197.77 79.0099L197.784 79.0709L197.802 79.1563L197.823 79.2541L197.844 79.3519L197.864 79.4498L197.882 79.5356L197.896 79.5964L197.916 79.6942L197.936 79.7922L197.956 79.8901L197.976 79.9881L197.989 80.0495L198.007 80.1348L198.027 80.2328L198.046 80.3308L198.066 80.4289L198.083 80.5152L198.096 80.5758L198.115 80.6739L198.134 80.772L198.153 80.8701L198.172 80.9683L198.185 81.0302L198.201 81.1154L198.22 81.2136L198.239 81.3118L198.257 81.41L198.274 81.4968L198.286 81.5572L198.304 81.6555L198.322 81.7538L198.34 81.8521L198.358 81.9505L198.37 82.0128L198.386 82.0978L198.404 82.1962L198.421 82.2946L198.439 82.393L198.455 82.4803L198.466 82.5406L198.483 82.639L198.5 82.7375L198.517 82.836L198.534 82.9345L198.546 82.9973L198.561 83.0822L198.577 83.1807L198.594 83.2793L198.611 83.3779L198.625 83.4656L198.636 83.5257L198.652 83.6243L198.669 83.7229L198.685 83.8216L198.701 83.9203L198.711 83.9836L198.725 84.0682L198.741 84.167L198.757 84.2657L198.772 84.3645L198.786 84.4527L198.796 84.5125L198.811 84.6113L198.827 84.7101L198.842 84.8089L198.857 84.9078L198.867 84.9714L198.88 85.0559L198.895 85.1548L198.909 85.2537L198.924 85.3526L198.937 85.4413L198.946 85.5009L198.961 85.5998L198.975 85.6988L198.989 85.7977L199.003 85.8967L199.012 85.9608L199.025 86.0451L199.038 86.1442L199.052 86.2432L199.066 86.3422L199.078 86.4314L199.086 86.4908L199.1 86.5898L199.113 86.6889L199.126 86.788L199.139 86.8872L199.148 86.9517L199.159 87.0358L199.172 87.1349L199.185 87.2341L199.197 87.3333L199.209 87.4228L199.216 87.482L199.229 87.5812L199.241 87.6804L199.253 87.7797L199.265 87.8789L199.273 87.9438L199.284 88.0277L199.296 88.127L199.307 88.2263L199.319 88.3256L199.329 88.4156L199.337 88.4745L199.348 88.5739L199.359 88.6732L199.37 88.7726L199.381 88.8719L199.389 88.9373L199.398 89.0209L199.409 89.1203L199.42 89.2197L199.43 89.3191L199.44 89.4095L199.447 89.4682L199.457 89.5677L199.467 89.6671L199.477 89.7666L199.488 89.866L199.495 89.9318L199.503 90.0152L199.513 90.1147L199.523 90.2142L199.532 90.3137L199.541 90.4046L199.547 90.463L199.556 90.5625L199.565 90.6621L199.575 90.7616L199.584 90.8612L199.59 90.9273L199.598 91.0105L199.606 91.1101L199.615 91.2097L199.624 91.3093L199.632 91.4006L199.637 91.4587L199.645 91.5583L199.654 91.658L199.662 91.7576L199.67 91.8572L199.675 91.9238L199.682 92.0067L199.69 92.1064L199.698 92.2061L199.705 92.3058L199.712 92.3974L199.717 92.4553L199.724 92.555L199.732 92.6547L199.739 92.7544L199.746 92.8542L199.751 92.9211L199.757 93.0037L199.764 93.1035L199.77 93.2032L199.777 93.303L199.783 93.395L199.787 93.4526L199.793 93.5524L199.8 93.6522L199.806 93.752L199.812 93.8518L199.816 93.9191L199.821 94.0015L199.827 94.1013L199.833 94.2011L199.839 94.3009L199.844 94.3933L199.847 94.4506L199.853 94.5505L199.858 94.6503L199.863 94.7501L199.868 94.85L199.872 94.9177L199.876 94.9998L199.881 95.0996L199.886 95.1995L199.89 95.2994L199.895 95.3922L199.897 95.4492L199.902 95.5491L199.906 95.6489L199.91 95.7488L199.914 95.8487L199.917 95.9167L199.921 95.9986L199.925 96.0985L199.928 96.1984L199.932 96.2983L199.935 96.3915L199.937 96.4482L199.941 96.5481L199.944 96.6481L199.947 96.748L199.951 96.8479L199.953 96.9163L199.955 96.9978L199.958 97.0977L199.961 97.1977L199.964 97.2976L199.966 97.3912L199.968 97.4476L199.97 97.5475L199.973 97.6475L199.975 97.7474L199.977 97.8474L199.978 97.9161L199.98 97.9973L199.982 98.0973L199.984 98.1973L199.986 98.2972L199.987 98.3911L199.988 98.4472L199.989 98.5471L199.991 98.6471L199.992 98.7471L199.993 98.847L199.994 98.9161L199.995 98.997L199.996 99.097L199.997 99.197L199.997 99.297L199.998 99.3912L199.998 99.4469L199.999 99.5469L199.999 99.6469L200 99.7469L200 99.8468L200 99.9162L200 99.9968L200 100.097L200 100.197L199.999 100.297L199.999 100.391L199.999 100.447L199.998 100.547L199.998 100.647L199.997 100.747L199.996 100.847L199.996 100.916L199.995 100.997L199.994 101.097L199.993 101.197L199.992 101.297L199.99 101.391L199.989 101.447L199.988 101.547L199.986 101.646L199.985 101.746L199.983 101.846L199.982 101.916L199.98 101.996L199.978 102.096L199.976 102.196L199.974 102.296L199.972 102.391L199.97 102.446L199.968 102.546L199.965 102.646L199.963 102.746L199.96 102.846L199.958 102.916L199.955 102.996L199.952 103.096L199.949 103.196L199.946 103.296L199.943 103.391L199.941 103.446L199.938 103.545L199.934 103.645L199.93 103.745L199.927 103.845L199.924 103.916L199.921 103.995L199.917 104.095L199.913 104.195L199.908 104.295L199.904 104.391L199.902 104.445L199.897 104.545L199.893 104.644L199.888 104.744L199.884 104.844L199.88 104.915L199.876 104.994L199.871 105.094L199.866 105.194L199.861 105.293L199.856 105.39L199.853 105.443L199.847 105.543L199.842 105.643L199.836 105.743L199.83 105.843L199.826 105.914L199.821 105.992L199.815 106.092L199.809 106.192L199.803 106.292L199.797 106.388L199.794 106.441L199.787 106.541L199.781 106.641L199.774 106.741L199.767 106.84L199.762 106.912L199.757 106.99L199.75 107.09L199.743 107.189L199.736 107.289L199.729 107.386L199.724 107.439L199.717 107.538L199.71 107.638L199.702 107.738L199.694 107.837L199.689 107.909L199.682 107.987L199.674 108.087L199.666 108.186L199.658 108.286L199.65 108.383L199.645 108.435L199.637 108.535L199.628 108.635L199.62 108.734L199.611 108.834L199.605 108.906L199.598 108.983L199.589 109.083L199.58 109.182L199.571 109.282L199.562 109.379L199.556 109.431L199.547 109.531L199.537 109.63L199.528 109.73L199.518 109.829L199.511 109.902L199.503 109.978L199.493 110.078L199.483 110.177L199.473 110.277L199.463 110.374L199.457 110.426L199.447 110.525L199.436 110.625L199.426 110.724L199.415 110.824L199.407 110.896L199.398 110.973L199.388 111.072L199.377 111.171L199.365 111.271L199.354 111.368L199.348 111.42L199.337 111.519L199.325 111.618L199.314 111.718L199.302 111.817L199.293 111.89L199.284 111.966L199.272 112.065L199.26 112.164L199.248 112.264L199.236 112.361L199.229 112.412L199.217 112.512L199.204 112.611L199.192 112.71L199.179 112.809L199.169 112.882L199.159 112.958L199.146 113.057L199.133 113.156L199.12 113.255L199.107 113.353L199.1 113.404L199.086 113.503L199.073 113.602L199.06 113.701L199.046 113.8L199.035 113.873L199.025 113.949L199.011 114.048L198.997 114.147L198.983 114.245L198.969 114.344L198.961 114.394L198.946 114.493L198.932 114.592L198.917 114.691L198.903 114.79L198.891 114.863L198.88 114.938L198.865 115.037L198.85 115.135L198.835 115.234L198.82 115.333L198.812 115.382L198.796 115.481L198.781 115.58L198.765 115.679L198.75 115.777L198.738 115.851L198.725 115.925L198.71 116.024L198.694 116.123L198.677 116.221L198.661 116.32L198.652 116.369L198.636 116.468L198.62 116.567L198.603 116.665L198.587 116.764L198.574 116.838L198.561 116.911L198.544 117.01L198.527 117.109L198.51 117.207L198.493 117.305L198.483 117.355L198.466 117.453L198.449 117.551L198.431 117.65L198.414 117.748L198.4 117.822L198.386 117.896L198.368 117.994L198.35 118.092L198.332 118.191L198.314 118.289L198.304 118.339L198.286 118.436L198.268 118.535L198.249 118.633L198.231 118.731L198.216 118.805L198.202 118.878L198.183 118.976L198.164 119.075L198.145 119.173L198.126 119.271L198.115 119.32L198.096 119.418L198.077 119.516L198.057 119.614L198.038 119.712L198.022 119.786L198.007 119.859L197.987 119.957L197.967 120.055L197.947 120.153L197.927 120.251L197.916 120.3L197.896 120.397L197.876 120.495L197.855 120.593L197.835 120.691L197.818 120.765L197.803 120.837L197.782 120.935L197.761 121.033L197.74 121.13L197.719 121.228L197.707 121.278L197.686 121.374L197.665 121.472L197.643 121.57L197.622 121.667L197.605 121.742L197.588 121.814L197.566 121.911L197.545 122.009L197.523 122.106L197.501 122.204L197.488 122.254L197.466 122.35L197.444 122.447L197.421 122.544L197.399 122.642L197.381 122.717L197.364 122.788L197.341 122.885L197.318 122.982L197.295 123.08L197.272 123.177L197.259 123.227L197.236 123.322L197.213 123.42L197.19 123.517L197.166 123.614L197.148 123.689L197.13 123.759L197.106 123.856L197.082 123.954L197.058 124.051L197.034 124.148L197.021 124.198L196.997 124.293L196.973 124.39L196.948 124.487L196.924 124.584L196.904 124.659L196.886 124.729L196.861 124.825L196.836 124.922L196.811 125.019L196.786 125.116L196.772 125.167L196.747 125.261L196.722 125.357L196.697 125.454L196.671 125.551L196.651 125.626L196.632 125.695L196.606 125.792L196.58 125.889L196.555 125.985L196.529 126.082L196.514 126.132L196.488 126.226L196.462 126.322L196.436 126.419L196.409 126.515L196.388 126.59L196.368 126.659L196.342 126.756L196.315 126.852L196.288 126.948L196.261 127.045L196.245 127.096L196.219 127.188L196.192 127.285L196.165 127.381L196.137 127.477L196.115 127.552L196.095 127.621L196.067 127.717L196.039 127.813L196.012 127.909L195.984 128.005L195.967 128.056L195.94 128.148L195.912 128.244L195.884 128.34L195.856 128.436L195.833 128.511L195.811 128.579L195.783 128.675L195.754 128.771L195.725 128.866L195.697 128.962L195.68 129.013L195.652 129.105L195.623 129.201L195.593 129.296L195.564 129.392L195.54 129.467L195.519 129.535L195.489 129.63L195.459 129.726L195.43 129.821L195.4 129.916L195.382 129.968L195.353 130.059L195.323 130.154L195.293 130.249L195.263 130.345L195.238 130.42L195.216 130.487L195.185 130.582L195.155 130.677L195.124 130.772L195.093 130.868L195.075 130.919L195.045 131.01L195.014 131.105L194.983 131.2L194.952 131.294L194.926 131.37L194.903 131.436L194.872 131.531L194.841 131.626L194.809 131.721L194.777 131.816L194.758 131.867L194.728 131.957L194.696 132.052L194.664 132.146L194.632 132.241L194.605 132.317L194.582 132.382L194.549 132.477L194.517 132.571L194.484 132.666L194.451 132.76L194.432 132.812L194.401 132.901L194.368 132.996L194.335 133.09L194.301 133.184L194.274 133.26L194.25 133.325L194.217 133.419L194.183 133.513L194.15 133.607L194.116 133.702L194.096 133.753L194.064 133.842L194.03 133.936L193.996 134.03L193.962 134.124L193.934 134.2L193.909 134.264L193.875 134.358L193.84 134.452L193.806 134.546L193.771 134.639L193.75 134.691L193.717 134.779L193.682 134.873L193.648 134.967L193.613 135.06L193.583 135.136L193.558 135.2L193.523 135.293L193.488 135.387L193.452 135.48L193.417 135.574L193.395 135.626L193.361 135.713L193.326 135.806L193.29 135.899L193.254 135.993L193.224 136.068L193.198 136.132L193.162 136.225L193.126 136.318L193.089 136.411L193.053 136.504L193.031 136.556L192.996 136.643L192.959 136.736L192.923 136.829L192.886 136.922L192.855 136.997L192.829 137.06L192.791 137.153L192.754 137.245L192.717 137.338L192.679 137.431L192.657 137.483L192.621 137.569L192.584 137.662L192.546 137.754L192.508 137.847L192.476 137.922L192.45 137.984L192.411 138.077L192.373 138.169L192.335 138.261L192.297 138.354L192.273 138.406L192.237 138.491L192.199 138.583L192.16 138.676L192.121 138.768L192.089 138.843L192.061 138.905L192.022 138.997L191.983 139.089L191.944 139.181L191.905 139.273L191.881 139.325L191.844 139.41L191.804 139.501L191.765 139.593L191.725 139.685L191.692 139.76L191.664 139.821L191.624 139.913L191.584 140.004L191.544 140.096L191.503 140.187L191.479 140.24L191.441 140.324L191.401 140.415L191.36 140.506L191.32 140.598L191.285 140.673L191.257 140.734L191.216 140.825L191.175 140.916L191.134 141.007L191.093 141.098L191.067 141.15L191.029 141.234L190.988 141.325L190.946 141.416L190.905 141.506L190.87 141.582L190.84 141.642L190.799 141.733L190.757 141.823L190.715 141.914L190.673 142.005L190.647 142.057L190.608 142.14L190.566 142.23L190.523 142.321L190.481 142.411L190.445 142.486L190.415 142.546L190.373 142.636L190.33 142.726L190.287 142.816L190.244 142.907L190.217 142.959L190.178 143.041L190.135 143.131L190.091 143.221L190.048 143.311L190.011 143.386L189.981 143.445L189.937 143.535L189.894 143.625L189.85 143.715L189.806 143.804L189.778 143.857L189.738 143.938L189.694 144.028L189.65 144.117L189.606 144.207L189.568 144.282L189.537 144.34L189.493 144.429L189.448 144.519L189.404 144.608L189.359 144.697L189.331 144.75L189.29 144.83L189.245 144.919L189.2 145.009L189.155 145.098L189.116 145.173L189.085 145.23L189.039 145.319L188.994 145.408L188.949 145.497L188.903 145.586L188.874 145.638L188.832 145.718L188.786 145.807L188.741 145.895L188.695 145.984L188.655 146.059L188.623 146.116L188.577 146.204L188.531 146.293L188.484 146.381L188.438 146.47L188.408 146.522L188.366 146.601L188.319 146.689L188.272 146.778L188.226 146.866L188.185 146.941L188.153 146.997L188.106 147.085L188.059 147.173L188.011 147.261L187.964 147.349L187.933 147.401L187.891 147.479L187.843 147.567L187.795 147.655L187.748 147.743L187.706 147.817L187.674 147.873L187.626 147.96L187.578 148.048L187.529 148.135L187.481 148.223L187.45 148.275L187.406 148.353L187.358 148.44L187.309 148.527L187.261 148.614L187.218 148.689L187.185 148.744L187.137 148.831L187.088 148.918L187.039 149.005L186.99 149.092L186.958 149.144L186.913 149.221L186.864 149.308L186.815 149.395L186.765 149.481L186.722 149.556L186.689 149.61L186.639 149.697L186.589 149.783L186.539 149.87L186.489 149.956L186.457 150.008L186.412 150.084L186.362 150.171L186.311 150.257L186.261 150.343L186.217 150.418L186.183 150.471L186.132 150.557L186.082 150.643L186.031 150.729L185.98 150.815L185.947 150.867L185.902 150.943L185.85 151.028L185.799 151.114L185.748 151.2L185.703 151.274L185.669 151.327L185.617 151.412L185.566 151.498L185.514 151.583L185.463 151.669L185.429 151.721L185.383 151.795L185.331 151.881L185.279 151.966L185.227 152.051L185.18 152.125L185.146 152.177L185.094 152.262L185.041 152.347L184.989 152.432L184.936 152.517L184.902 152.569L184.855 152.643L184.802 152.728L184.749 152.812L184.697 152.897L184.65 152.971L184.615 153.023L184.562 153.107L184.508 153.192L184.455 153.276L184.402 153.36L184.366 153.412L184.319 153.485L184.265 153.569L184.212 153.654L184.158 153.738L184.11 153.811L184.075 153.862L184.021 153.946L183.967 154.03L183.913 154.114L183.859 154.198L183.822 154.25L183.775 154.322L183.72 154.406L183.666 154.489L183.611 154.573L183.562 154.646L183.527 154.696L183.472 154.78L183.417 154.863L183.362 154.947L183.307 155.03L183.27 155.081L183.222 155.153L183.167 155.236L183.111 155.319L183.056 155.402L183.006 155.475L182.97 155.525L182.915 155.608L182.859 155.691L182.803 155.773L182.747 155.856L182.71 155.908L182.661 155.978L182.605 156.061L182.549 156.143L182.492 156.226L182.442 156.299L182.405 156.348L182.349 156.43L182.292 156.512L182.236 156.595L182.179 156.677L182.141 156.728L182.091 156.798L182.035 156.88L181.977 156.962L181.92 157.044L181.869 157.117L181.832 157.165L181.775 157.247L181.718 157.328L181.66 157.41L181.603 157.491L181.564 157.543L181.514 157.612L181.456 157.693L181.398 157.775L181.34 157.856L181.288 157.929L181.251 157.976L181.193 158.057L181.135 158.138L181.077 158.219L181.018 158.3L180.979 158.352L180.928 158.42L180.87 158.501L180.811 158.582L180.752 158.662L180.699 158.734L180.662 158.781L180.603 158.862L180.544 158.942L180.485 159.023L180.426 159.103L180.385 159.154L180.334 159.222L180.275 159.302L180.216 159.382L180.156 159.462L180.102 159.534L180.064 159.581L180.005 159.661L179.945 159.741L179.885 159.82L179.825 159.9L179.784 159.951L179.733 160.018L179.672 160.097L179.612 160.177L179.552 160.257L179.497 160.328L179.459 160.374L179.398 160.453L179.338 160.532L179.277 160.612L179.217 160.691L179.175 160.742L179.123 160.808L179.062 160.887L179.001 160.966L178.94 161.045L178.884 161.116L178.846 161.161L178.784 161.24L178.723 161.318L178.662 161.397L178.6 161.475L178.558 161.526L178.505 161.591L178.444 161.67L178.382 161.748L178.32 161.826L178.263 161.897L178.225 161.941L178.163 162.02L178.1 162.098L178.038 162.176L177.976 162.254L177.933 162.304L177.88 162.368L177.817 162.446L177.755 162.524L177.692 162.602L177.634 162.672L177.596 162.716L177.533 162.793L177.47 162.871L177.407 162.948L177.344 163.026L177.3 163.076L177.247 163.139L177.184 163.216L177.12 163.294L177.057 163.371L176.998 163.441L176.959 163.484L176.896 163.561L176.832 163.638L176.768 163.714L176.704 163.791L176.66 163.841L176.606 163.904L176.542 163.98L176.478 164.057L176.414 164.133L176.354 164.203L176.315 164.245L176.251 164.322L176.186 164.398L176.122 164.474L176.057 164.55L176.012 164.6L175.958 164.662L175.893 164.737L175.828 164.813L175.763 164.889L175.703 164.959L175.663 165L175.598 165.076L175.533 165.151L175.468 165.227L175.402 165.302L175.356 165.352L175.302 165.413L175.236 165.488L175.171 165.563L175.105 165.638L175.044 165.708L175.004 165.749L174.938 165.823L174.872 165.898L174.806 165.973L174.74 166.048L174.693 166.097L174.638 166.157L174.572 166.232L174.506 166.307L174.439 166.381L174.377 166.45L174.337 166.49L174.27 166.564L174.204 166.639L174.137 166.713L174.07 166.787L174.023 166.836L173.967 166.895L173.9 166.969L173.833 167.043L173.766 167.117L173.703 167.185L173.663 167.225L173.596 167.298L173.528 167.372L173.461 167.445L173.393 167.519L173.345 167.568L173.289 167.626L173.222 167.7L173.154 167.773L173.086 167.846L173.022 167.914L172.981 167.953L172.913 168.026L172.845 168.099L172.777 168.171L172.709 168.244L172.66 168.293L172.604 168.351L172.535 168.423L172.467 168.496L172.399 168.568L172.334 168.636L172.293 168.674L172.224 168.746L172.155 168.818L172.087 168.89L172.018 168.962L171.968 169.011L171.911 169.068L171.842 169.14L171.773 169.211L171.704 169.283L171.638 169.35L171.597 169.388L171.528 169.459L171.458 169.531L171.389 169.602L171.319 169.674L171.269 169.722L171.212 169.778L171.142 169.849L171.072 169.92L171.002 169.991L170.935 170.058L170.894 170.095L170.824 170.166L170.754 170.236L170.684 170.307L170.613 170.378L170.562 170.425L170.505 170.481L170.434 170.551L170.364 170.622L170.293 170.692L170.226 170.759L170.184 170.794L170.113 170.865L170.043 170.935L169.972 171.005L169.901 171.075L169.849 171.122L169.791 171.177L169.72 171.246L169.649 171.316L169.577 171.386L169.509 171.452L169.467 171.487L169.396 171.556L169.324 171.626L169.253 171.695L169.181 171.764L169.129 171.812L169.071 171.865L168.999 171.934L168.927 172.003L168.855 172.072L168.785 172.138L168.744 172.172L168.672 172.241L168.599 172.31L168.527 172.378L168.455 172.447L168.402 172.494L168.343 172.546L168.271 172.615L168.198 172.683L168.125 172.751L168.055 172.816L168.013 172.85L167.94 172.918L167.868 172.986L167.795 173.054L167.721 173.122L167.668 173.168L167.609 173.22L167.536 173.288L167.462 173.355L167.389 173.423L167.318 173.487L167.276 173.521L167.203 173.588L167.129 173.655L167.055 173.722L166.982 173.789L166.927 173.835L166.868 173.886L166.794 173.953L166.72 174.02L166.646 174.087L166.574 174.151L166.532 174.184L166.458 174.25L166.384 174.317L166.31 174.383L166.235 174.449L166.18 174.495L166.121 174.545L166.046 174.611L165.972 174.677L165.897 174.743L165.824 174.807L165.782 174.839L165.707 174.905L165.632 174.97L165.557 175.036L165.482 175.102L165.426 175.147L165.367 175.197L165.292 175.262L165.216 175.327L165.141 175.392L165.067 175.456L165.025 175.487L164.95 175.552L164.874 175.617L164.798 175.682L164.723 175.746L164.666 175.792L164.606 175.84L164.53 175.905L164.455 175.969L164.379 176.034L164.304 176.096L164.262 176.127L164.186 176.191L164.109 176.255L164.033 176.319L163.957 176.383L163.9 176.428L163.84 176.476L163.763 176.54L163.687 176.604L163.61 176.667L163.535 176.729L163.492 176.759L163.415 176.823L163.339 176.886L163.262 176.949L163.185 177.013L163.127 177.057L163.067 177.104L162.989 177.167L162.912 177.23L162.835 177.293L162.759 177.355L162.716 177.384L162.639 177.446L162.561 177.509L162.484 177.572L162.406 177.634L162.348 177.678L162.287 177.724L162.209 177.786L162.132 177.849L162.054 177.911L161.977 177.972L161.934 178L161.856 178.062L161.778 178.124L161.7 178.186L161.622 178.248L161.563 178.291L161.502 178.336L161.423 178.398L161.345 178.459L161.267 178.521L161.189 178.581L161.146 178.609L161.068 178.67L160.989 178.731L160.91 178.792L160.831 178.853L160.771 178.896L160.71 178.941L160.631 179.001L160.552 179.062L160.473 179.122L160.395 179.183L160.352 179.209L160.273 179.27L160.193 179.33L160.114 179.39L160.035 179.45L159.974 179.493L159.913 179.537L159.833 179.597L159.754 179.657L159.674 179.716L159.595 179.776L159.552 179.802L159.472 179.862L159.392 179.921L159.312 179.98L159.232 180.04L159.171 180.082L159.11 180.125L159.029 180.184L158.949 180.243L158.869 180.302L158.789 180.361L158.746 180.387L158.666 180.445L158.585 180.504L158.505 180.562L158.424 180.621L158.362 180.663L158.3 180.705L158.22 180.763L158.139 180.821L158.058 180.879L157.977 180.937L157.934 180.963L157.853 181.021L157.772 181.078L157.691 181.136L157.61 181.194L157.547 181.236L157.486 181.276L157.404 181.334L157.323 181.391L157.242 181.449L157.16 181.506L157.116 181.531L157.035 181.588L156.954 181.645L156.872 181.702L156.79 181.759L156.727 181.8L156.665 181.84L156.583 181.896L156.501 181.953L156.42 182.009L156.338 182.066L156.293 182.091L156.212 182.146L156.13 182.203L156.047 182.259L155.965 182.315L155.901 182.356L155.839 182.395L155.757 182.451L155.674 182.506L155.592 182.562L155.509 182.618L155.464 182.642L155.383 182.697L155.3 182.752L155.217 182.807L155.135 182.863L155.07 182.903L155.008 182.941L154.925 182.996L154.842 183.051L154.759 183.106L154.676 183.161L154.63 183.185L154.548 183.239L154.465 183.293L154.382 183.348L154.298 183.402L154.233 183.442L154.171 183.479L154.087 183.533L154.004 183.588L153.92 183.642L153.837 183.696L153.79 183.72L153.708 183.772L153.625 183.826L153.541 183.879L153.457 183.933L153.391 183.972L153.328 184.009L153.244 184.062L153.16 184.115L153.076 184.169L152.992 184.222L152.946 184.245L152.863 184.297L152.779 184.35L152.695 184.403L152.61 184.455L152.544 184.494L152.481 184.53L152.396 184.582L152.312 184.635L152.227 184.687L152.143 184.739L152.096 184.763L152.013 184.813L151.928 184.865L151.843 184.917L151.758 184.969L151.691 185.007L151.628 185.042L151.543 185.094L151.458 185.145L151.373 185.197L151.288 185.248L151.24 185.271L151.158 185.321L151.072 185.372L150.987 185.423L150.902 185.474L150.834 185.512L150.771 185.546L150.685 185.597L150.6 185.647L150.514 185.698L150.428 185.748L150.38 185.771L150.297 185.819L150.211 185.87L150.126 185.92L150.04 185.97L149.971 186.007L149.908 186.041L149.822 186.091L149.736 186.14L149.65 186.19L149.564 186.24L149.515 186.262L149.432 186.31L149.346 186.359L149.259 186.408L149.173 186.458L149.104 186.494L149.041 186.527L148.954 186.576L148.868 186.625L148.781 186.673L148.695 186.722L148.645 186.744L148.562 186.791L148.475 186.839L148.388 186.888L148.301 186.936L148.232 186.972L148.169 187.004L148.082 187.052L147.995 187.1L147.907 187.148L147.82 187.196L147.771 187.218L147.687 187.263L147.6 187.311L147.513 187.358L147.425 187.406L147.355 187.442L147.292 187.472L147.204 187.519L147.117 187.567L147.029 187.614L146.942 187.661L146.891 187.682L146.808 187.726L146.72 187.773L146.632 187.82L146.544 187.866L146.473 187.902L146.41 187.931L146.322 187.978L146.234 188.024L146.146 188.07L146.058 188.117L146.008 188.138L145.924 188.181L145.835 188.227L145.747 188.272L145.659 188.318L145.587 188.353L145.524 188.382L145.436 188.427L145.347 188.473L145.259 188.518L145.17 188.563L145.119 188.584L145.035 188.626L144.947 188.671L144.858 188.716L144.769 188.761L144.697 188.795L144.634 188.823L144.545 188.868L144.456 188.912L144.367 188.957L144.278 189.001L144.227 189.021L144.142 189.062L144.053 189.106L143.964 189.15L143.875 189.194L143.802 189.228L143.739 189.255L143.65 189.299L143.56 189.343L143.471 189.386L143.382 189.43L143.33 189.449L143.245 189.49L143.156 189.533L143.066 189.576L142.977 189.619L142.903 189.652L142.84 189.678L142.75 189.721L142.661 189.764L142.571 189.806L142.481 189.849L142.428 189.868L142.344 189.907L142.254 189.95L142.164 189.992L142.074 190.034L142 190.067L141.937 190.092L141.847 190.134L141.757 190.176L141.666 190.217L141.576 190.259L141.523 190.278L141.439 190.316L141.348 190.358L141.258 190.399L141.168 190.44L141.093 190.472L141.03 190.497L140.939 190.538L140.849 190.579L140.758 190.619L140.667 190.66L140.614 190.679L140.529 190.716L140.438 190.756L140.348 190.797L140.257 190.837L140.182 190.868L140.118 190.892L140.028 190.932L139.937 190.972L139.846 191.012L139.755 191.052L139.701 191.07L139.616 191.106L139.525 191.146L139.434 191.185L139.343 191.224L139.267 191.255L139.203 191.278L139.112 191.317L139.021 191.356L138.93 191.395L138.838 191.434L138.784 191.452L138.699 191.487L138.607 191.525L138.516 191.564L138.424 191.602L138.348 191.632L138.285 191.655L138.193 191.693L138.101 191.731L138.01 191.769L137.918 191.807L137.863 191.824L137.778 191.858L137.686 191.896L137.594 191.934L137.502 191.971L137.425 192L137.362 192.022L137.27 192.059L137.178 192.096L137.086 192.134L136.994 192.171L136.939 192.187L136.854 192.22L136.761 192.257L136.669 192.294L136.577 192.331L136.499 192.359L136.436 192.38L136.344 192.416L136.252 192.452L136.159 192.489L136.067 192.525L136.011 192.541L135.926 192.573L135.833 192.609L135.741 192.645L135.648 192.68L135.57 192.708L135.507 192.728L135.414 192.763L135.321 192.799L135.229 192.834L135.136 192.869L135.079 192.885L134.994 192.916L134.902 192.951L134.809 192.986L134.716 193.021L134.637 193.048L134.574 193.067L134.481 193.101L134.388 193.136L134.295 193.17L134.202 193.204L134.145 193.22L134.06 193.25L133.967 193.284L133.873 193.318L133.78 193.351L133.701 193.378L133.638 193.396L133.545 193.43L133.451 193.463L133.358 193.497L133.264 193.53L133.207 193.545L133.122 193.574L133.028 193.607L132.935 193.64L132.841 193.673L132.761 193.699L132.699 193.716L132.605 193.749L132.511 193.781L132.418 193.814L132.324 193.846L132.266 193.861L132.181 193.888L132.087 193.92L131.993 193.952L131.899 193.984L131.819 194.01L131.756 194.026L131.662 194.058L131.568 194.089L131.474 194.121L131.38 194.152L131.322 194.166L131.237 194.193L131.143 194.224L131.049 194.255L130.954 194.286L130.873 194.311L130.811 194.327L130.717 194.357L130.622 194.388L130.528 194.419L130.434 194.449L130.375 194.463L130.29 194.489L130.196 194.519L130.101 194.549L130.007 194.579L129.925 194.603L129.863 194.618L129.768 194.647L129.674 194.677L129.579 194.707L129.484 194.736L129.425 194.749L129.34 194.774L129.245 194.803L129.151 194.833L129.056 194.862L128.974 194.885L128.912 194.899L128.817 194.928L128.722 194.956L128.627 194.985L128.532 195.014L128.473 195.026L128.388 195.05L128.293 195.078L128.198 195.107L128.103 195.135L128.02 195.157L127.958 195.17L127.863 195.198L127.768 195.226L127.673 195.254L127.577 195.281L127.517 195.293L127.433 195.316L127.337 195.344L127.242 195.371L127.147 195.398L127.063 195.42L127.002 195.432L126.906 195.459L126.811 195.486L126.716 195.513L126.62 195.539L126.56 195.551L126.475 195.573L126.379 195.599L126.284 195.625L126.188 195.652L126.105 195.673L126.043 195.684L125.947 195.71L125.852 195.736L125.756 195.762L125.66 195.788L125.599 195.799L125.515 195.82L125.419 195.845L125.323 195.87L125.227 195.895L125.143 195.916L125.082 195.927L124.986 195.952L124.89 195.977L124.794 196.001L124.698 196.026L124.637 196.037L124.553 196.056L124.456 196.081L124.36 196.105L124.264 196.13L124.18 196.149L124.119 196.159L124.022 196.183L123.926 196.207L123.83 196.231L123.734 196.255L123.672 196.265L123.588 196.284L123.492 196.307L123.395 196.331L123.299 196.354L123.214 196.373L123.153 196.382L123.057 196.405L122.96 196.428L122.864 196.451L122.767 196.474L122.705 196.483L122.621 196.501L122.525 196.524L122.428 196.546L122.332 196.568L122.246 196.586L122.185 196.595L122.089 196.617L121.992 196.639L121.896 196.661L121.799 196.683L121.736 196.692L121.652 196.709L121.556 196.73L121.459 196.752L121.362 196.773L121.276 196.79L121.216 196.798L121.119 196.819L121.022 196.84L120.925 196.861L120.828 196.882L120.766 196.891L120.682 196.907L120.585 196.927L120.488 196.948L120.391 196.968L120.304 196.985L120.244 196.992L120.147 197.012L120.05 197.032L119.953 197.052L119.856 197.072L119.793 197.08L119.709 197.095L119.612 197.114L119.515 197.134L119.418 197.153L119.331 197.169L119.271 197.175L119.174 197.194L119.076 197.213L118.979 197.232L118.882 197.251L118.818 197.259L118.735 197.273L118.638 197.291L118.54 197.31L118.443 197.328L118.356 197.343L118.296 197.349L118.199 197.367L118.101 197.385L118.004 197.403L117.906 197.421L117.842 197.428L117.759 197.441L117.662 197.459L117.564 197.476L117.467 197.494L117.379 197.508L117.319 197.513L117.222 197.53L117.124 197.547L117.027 197.564L116.929 197.581L116.865 197.587L116.782 197.599L116.684 197.616L116.586 197.633L116.489 197.649L116.4 197.663L116.341 197.667L116.244 197.683L116.146 197.699L116.048 197.715L115.951 197.731L115.886 197.737L115.803 197.748L115.705 197.764L115.607 197.779L115.51 197.795L115.421 197.808L115.362 197.811L115.264 197.826L115.166 197.842L115.068 197.857L114.971 197.872L114.905 197.877L114.823 197.887L114.725 197.902L114.627 197.916L114.529 197.931L114.44 197.943L114.381 197.945L114.283 197.96L114.185 197.974L114.087 197.988L113.99 198.002Z" fill="white"/>
</svg>
