<svg width="200" height="200" viewBox="0 0 200 200" fill="none" xmlns="http://www.w3.org/2000/svg">
<path d="M127.392 10.1329L127.331 10.0863L127.269 10.04L127.207 9.99361L127.146 9.94726L127.071 9.90101L127.01 9.85487L126.948 9.80874L126.886 9.76274L126.824 9.71682L126.762 9.67092L126.7 9.6251L126.638 9.57941L126.576 9.53374L126.502 9.48796L126.439 9.44247L126.377 9.39702L126.315 9.35159L126.253 9.30633L126.191 9.2611L126.128 9.21587L126.066 9.17084L126.004 9.12584L125.929 9.08059L125.866 9.03574L125.804 8.99093L125.741 8.94616L125.679 8.90152L125.616 8.85694L125.553 8.8124L125.491 8.76796L125.428 8.72362L125.354 8.67896L125.29 8.6347L125.227 8.59058L125.164 8.54647L125.102 8.50244L125.039 8.45854L124.976 8.41466L124.913 8.37084L124.85 8.32718L124.775 8.28312L124.711 8.23944L124.648 8.19601L124.585 8.15258L124.521 8.10916L124.458 8.06595L124.395 8.02276L124.332 7.97958L124.268 7.93658L124.194 7.89313L124.129 7.8501L124.065 7.80729L124.002 7.76456L123.938 7.72183L123.875 7.67925L123.811 7.63675L123.748 7.59425L123.684 7.55189L123.609 7.50906L123.544 7.4667L123.48 7.42452L123.416 7.38249L123.352 7.34046L123.288 7.29851L123.224 7.25671L123.16 7.21492L123.096 7.17319L123.022 7.131L122.956 7.0893L122.892 7.0478L122.827 7.00644L122.763 6.96512L122.699 6.92384L122.635 6.88273L122.57 6.84165L122.506 6.80059L122.432 6.75904L122.365 6.718L122.3 6.67718L122.236 6.63654L122.171 6.59591L122.107 6.55532L122.042 6.51492L121.977 6.47453L121.913 6.43418L121.838 6.39328L121.771 6.35291L121.706 6.31277L121.641 6.27285L121.576 6.23293L121.511 6.19304L121.446 6.15336L121.381 6.11368L121.316 6.07403L121.242 6.0338L121.174 5.99411L121.109 5.95468L121.043 5.91548L120.978 5.87629L120.913 5.8371L120.848 5.79815L120.782 5.7592L120.717 5.72026L120.642 5.68071L120.574 5.6417L120.508 5.60301L120.443 5.56452L120.377 5.52607L120.312 5.48763L120.246 5.44939L120.18 5.41119L120.115 5.373L120.04 5.33413L119.971 5.29579L119.905 5.25786L119.839 5.22012L119.773 5.18239L119.707 5.14472L119.641 5.10723L119.575 5.06975L119.509 5.03235L119.435 4.99418L119.365 4.95652L119.299 4.91936L119.232 4.88237L119.166 4.84538L119.1 4.8085L119.034 4.77176L118.967 4.73502L118.901 4.69841L118.826 4.66096L118.756 4.62399L118.689 4.58764L118.623 4.55139L118.556 4.51516L118.49 4.47909L118.423 4.4431L118.356 4.40713L118.29 4.37133L118.215 4.33461L118.144 4.29833L118.077 4.26282L118.01 4.22732L117.943 4.19188L117.876 4.15664L117.809 4.1214L117.742 4.08625L117.675 4.05127L117.6 4.01527L117.529 3.97977L117.461 3.94504L117.394 3.91032L117.327 3.87573L117.26 3.84127L117.192 3.80681L117.125 3.77253L117.058 3.73833L116.983 3.70309L116.91 3.6684L116.843 3.63445L116.775 3.60054L116.708 3.56683L116.64 3.53314L116.573 3.49954L116.505 3.4661L116.437 3.43268L116.362 3.39833L116.289 3.36437L116.222 3.33119L116.154 3.29822L116.086 3.26531L116.018 3.2324L115.95 3.19965L115.881 3.16713L115.813 3.13464L115.738 3.10111L115.665 3.068L115.597 3.03578L115.528 3.00362L115.46 2.97168L115.392 2.93972L115.323 2.90788L115.255 2.87619L115.187 2.84447L115.112 2.81186L115.037 2.77945L114.969 2.74803L114.9 2.7168L114.832 2.68562L114.763 2.65447L114.694 2.62355L114.626 2.59262L114.557 2.56178L114.482 2.53005L114.407 2.49835L114.338 2.4678L114.269 2.43742L114.2 2.40704L114.131 2.37681L114.062 2.34668L113.993 2.31658L113.924 2.28666L113.849 2.25574L113.774 2.22473L113.705 2.1951L113.636 2.16553L113.566 2.13598L113.497 2.10662L113.428 2.07732L113.358 2.04808L113.289 2.01901L113.214 1.9889L113.138 1.95871L113.068 1.92991L112.999 1.90112L112.929 1.8725L112.86 1.84396L112.79 1.81545L112.721 1.78716L112.651 1.7589L112.576 1.72961L112.499 1.70024L112.429 1.67226L112.36 1.64431L112.29 1.61659L112.22 1.58889L112.15 1.56129L112.08 1.53384L112.01 1.50642L111.935 1.47809L111.858 1.44942L111.788 1.42224L111.718 1.39528L111.648 1.36836L111.577 1.34148L111.507 1.31483L111.437 1.28818L111.367 1.26163L111.292 1.23423L111.214 1.20624L111.144 1.17999L111.073 1.1539L111.003 1.1278L110.932 1.10188L110.862 1.07607L110.791 1.05025L110.721 1.02465L110.646 0.998114L110.567 0.970872L110.497 0.945565L110.426 0.920279L110.355 0.8951L110.285 0.87008L110.214 0.845073L110.143 0.820213L110.072 0.795474L109.997 0.769784L109.918 0.743413L109.847 0.718956L109.776 0.694515L109.705 0.670333L109.634 0.646166L109.563 0.622048L109.492 0.598153L109.421 0.574259L109.346 0.549568L109.266 0.523947L109.195 0.500336L109.124 0.47693L109.053 0.45357L108.981 0.430249L108.91 0.407176L108.838 0.384113L108.827 0.373779L108.922 0.386155L109.013 0.397317L109.112 0.410754L109.21 0.424308L109.309 0.437865L109.408 0.451596L109.507 0.465434L109.606 0.479271L109.705 0.493302L109.801 0.506555L109.891 0.518411L109.99 0.532709L110.089 0.547109L110.187 0.561506L110.286 0.5761L110.385 0.590778L110.484 0.605461L110.583 0.620346L110.678 0.634489L110.768 0.64704L110.867 0.66222L110.966 0.677436L111.064 0.692682L111.163 0.708151L111.262 0.723654L111.36 0.739182L111.459 0.754945L111.555 0.76996L111.644 0.783203L111.743 0.79926L111.841 0.815318L111.94 0.831403L112.039 0.847741L112.137 0.864083L112.236 0.880465L112.334 0.897086L112.43 0.913001L112.519 0.926957L112.618 0.943847L112.716 0.960748L112.814 0.977697L112.913 0.994873L113.011 1.01205L113.11 1.0293L113.208 1.04676L113.304 1.06357L113.393 1.07825L113.491 1.09597L113.589 1.11371L113.688 1.13154L113.786 1.14954L113.884 1.16758L113.983 1.1857L114.081 1.20398L114.177 1.2217L114.265 1.23709L114.363 1.25564L114.461 1.27421L114.56 1.29292L114.658 1.31176L114.756 1.33061L114.854 1.34962L114.952 1.36873L115.048 1.38735L115.136 1.40345L115.234 1.42285L115.332 1.44224L115.43 1.46183L115.528 1.48151L115.626 1.50118L115.724 1.52106L115.822 1.54102L115.918 1.56053L116.006 1.57733L116.103 1.59756L116.201 1.6178L116.299 1.63825L116.397 1.65877L116.495 1.67928L116.592 1.70001L116.69 1.72081L116.787 1.74123L116.873 1.75873L116.971 1.77979L117.069 1.80087L117.166 1.82218L117.264 1.84351L117.362 1.86488L117.459 1.88648L117.557 1.9081L117.653 1.92948L117.74 1.94765L117.837 1.96952L117.935 1.99147L118.032 2.01363L118.13 2.03578L118.227 2.05803L118.324 2.08046L118.422 2.1029L118.519 2.12526L118.605 2.14406L118.702 2.16677L118.799 2.18958L118.896 2.21257L118.994 2.23556L119.091 2.25866L119.188 2.28192L119.285 2.3052L119.382 2.32851L119.468 2.34795L119.565 2.37149L119.662 2.39517L119.759 2.41898L119.856 2.4428L119.953 2.46679L120.05 2.49087L120.147 2.51497L120.243 2.53922L120.329 2.5593L120.425 2.58367L120.522 2.60823L120.619 2.63285L120.716 2.65751L120.813 2.68236L120.909 2.70726L121.006 2.7322L121.103 2.75734L121.188 2.77823L121.285 2.80332L121.381 2.82876L121.478 2.85423L121.574 2.87969L121.671 2.90541L121.768 2.93115L121.864 2.95691L121.96 2.98291L122.046 3.00464L122.142 3.03048L122.238 3.05675L122.335 3.08303L122.431 3.10936L122.527 3.1359L122.624 3.16246L122.72 3.18908L122.816 3.2159L122.901 3.23846L122.997 3.26508L123.093 3.29215L123.189 3.31925L123.285 3.34646L123.381 3.37381L123.477 3.40119L123.574 3.42869L123.67 3.45631L123.755 3.47973L123.85 3.50711L123.946 3.535L124.042 3.56291L124.138 3.59099L124.234 3.61915L124.329 3.64734L124.425 3.67571L124.521 3.70416L124.607 3.72841L124.701 3.75651L124.797 3.78523L124.892 3.81395L124.988 3.84289L125.084 3.87189L125.179 3.90088L125.275 3.93013L125.37 3.9594L125.456 3.98449L125.55 4.01333L125.645 4.04286L125.741 4.07241L125.836 4.10219L125.931 4.132L126.027 4.16185L126.122 4.19191L126.217 4.222L126.303 4.24798L126.396 4.27751L126.491 4.30783L126.587 4.33825L126.682 4.36885L126.777 4.39947L126.872 4.43018L126.967 4.46105L127.062 4.49195L127.148 4.51882L127.24 4.54905L127.335 4.58019L127.43 4.61147L127.525 4.64289L127.62 4.67431L127.715 4.70587L127.81 4.73755L127.904 4.76924L127.99 4.79702L128.082 4.82791L128.177 4.85988L128.272 4.89201L128.366 4.92423L128.461 4.95646L128.555 4.98887L128.65 5.02136L128.744 5.05386L128.83 5.08254L128.922 5.1141L129.016 5.14687L129.11 5.17985L129.205 5.21286L129.299 5.2459L129.393 5.27917L129.487 5.31246L129.582 5.34578L129.667 5.37537L129.759 5.40757L129.853 5.44116L129.947 5.47498L130.041 5.5088L130.135 5.54268L130.229 5.57677L130.323 5.61085L130.417 5.64504L130.502 5.67547L130.593 5.70833L130.687 5.74276L130.78 5.77737L130.874 5.81198L130.968 5.84669L131.061 5.88158L131.155 5.91648L131.249 5.95147L131.334 5.98276L131.424 6.01628L131.518 6.05158L131.611 6.08697L131.705 6.12239L131.798 6.15796L131.892 6.19364L131.985 6.22933L132.078 6.26519L132.164 6.29732L132.253 6.33146L132.346 6.36761L132.44 6.4038L132.533 6.44001L132.626 6.47645L132.719 6.51291L132.812 6.54938L132.905 6.58609L132.99 6.61909L133.079 6.65386L133.172 6.69083L133.265 6.72782L133.358 6.76485L133.451 6.80209L133.543 6.83934L133.636 6.87662L133.729 6.91414L133.814 6.948L133.903 6.98346L133.995 7.02124L134.088 7.05902L134.18 7.09686L134.273 7.13489L134.365 7.17294L134.457 7.21108L134.55 7.24937L134.635 7.28411L134.723 7.32026L134.815 7.35879L134.908 7.39734L135 7.43606L135.092 7.47486L135.184 7.51368L135.276 7.55266L135.368 7.59173L135.453 7.62735L135.541 7.66414L135.633 7.70347L135.724 7.7428L135.816 7.78233L135.908 7.82192L136 7.8615L136.091 7.90132L136.183 7.94119L136.268 7.97765L136.355 8.0151L136.447 8.05521L136.538 8.09533L136.63 8.13569L136.721 8.17606L136.812 8.21647L136.904 8.25711L136.995 8.29774L137.08 8.33509L137.166 8.37314L137.258 8.41402L137.349 8.45497L137.44 8.49609L137.531 8.53724L137.622 8.57849L137.713 8.61987L137.804 8.66128L137.889 8.69957L137.975 8.73822L138.066 8.77987L138.156 8.82164L138.247 8.86355L138.338 8.90546L138.428 8.94752L138.519 8.98968L138.61 9.03184L138.695 9.07107L138.78 9.11031L138.87 9.15273L138.961 9.19531L139.051 9.23801L139.141 9.28069L139.232 9.32356L139.322 9.3665L139.412 9.40943L139.497 9.44955L139.582 9.48938L139.672 9.53257L139.762 9.57599L139.852 9.61943L139.942 9.66288L140.032 9.70655L140.121 9.75024L140.211 9.79396L140.296 9.83499L140.38 9.87541L140.47 9.9194L140.559 9.96358L140.649 10.0078L140.739 10.052L140.828 10.0965L140.918 10.1409L141.007 10.1855L141.092 10.2274L141.175 10.2683L141.265 10.3131L141.354 10.3581L141.443 10.403L141.532 10.4481L141.621 10.4933L141.71 10.5385L141.8 10.5839L141.884 10.6266L141.967 10.6681L142.056 10.7137L142.145 10.7594L142.234 10.8052L142.322 10.851L142.411 10.897L142.5 10.943L142.588 10.9891L142.673 11.0328L142.755 11.0748L142.844 11.1212L142.932 11.1677L143.021 11.2141L143.109 11.2608L143.197 11.3075L143.286 11.3542L143.374 11.4012L143.458 11.4457L143.54 11.4883L143.628 11.5355L143.716 11.5827L143.804 11.6299L143.892 11.6774L143.98 11.7249L144.068 11.7724L144.156 11.8201L144.24 11.8655L144.321 11.9086L144.408 11.9566L144.496 12.0045L144.584 12.0526L144.671 12.1007L144.759 12.1489L144.846 12.1972L144.934 12.2457L145.018 12.2919L145.098 12.3357L145.185 12.3844L145.273 12.4331L145.36 12.4819L145.447 12.5308L145.534 12.5798L145.621 12.6289L145.708 12.678L145.792 12.7252L145.872 12.7695L145.959 12.8189L146.045 12.8684L146.132 12.918L146.219 12.9676L146.306 13.0173L146.392 13.0672L146.479 13.1171L146.563 13.1651L146.642 13.21L146.728 13.2602L146.814 13.3103L146.901 13.3607L146.987 13.4111L147.073 13.4615L147.159 13.5121L147.246 13.5628L147.329 13.6118L147.408 13.6571L147.494 13.708L147.58 13.759L147.665 13.8101L147.751 13.8612L147.837 13.9124L147.923 13.9638L148.009 14.0151L148.092 14.065L148.17 14.1109L148.255 14.1625L148.341 14.2142L148.426 14.266L148.512 14.3179L148.597 14.3699L148.682 14.422L148.768 14.474L148.851 14.5248L148.928 14.5712L149.013 14.6235L149.098 14.676L149.183 14.7286L149.268 14.7812L149.353 14.8339L149.438 14.8867L149.523 14.9395L149.606 14.9912L149.682 15.0381L149.767 15.0911L149.851 15.1444L149.936 15.1977L150.02 15.2509L150.105 15.3044L150.189 15.3579L150.274 15.4115L150.356 15.4641L150.432 15.5114L150.516 15.5652L150.601 15.6192L150.685 15.6732L150.769 15.7273L150.853 15.7815L150.937 15.8357L151.02 15.89L151.103 15.9434L151.178 15.9913L151.262 16.0458L151.346 16.1005L151.429 16.1552L151.513 16.21L151.596 16.2649L151.68 16.3198L151.763 16.3749L151.845 16.4292L151.92 16.4775L152.003 16.5328L152.086 16.5882L152.17 16.6436L152.253 16.6992L152.336 16.7548L152.419 16.8104L152.502 16.8662L152.584 16.9215L152.658 16.9702L152.74 17.0263L152.823 17.0823L152.906 17.1384L152.988 17.1947L153.071 17.251L153.154 17.3074L153.236 17.3639L153.318 17.42L153.391 17.4692L153.473 17.526L153.555 17.5828L153.638 17.6396L153.72 17.6966L153.802 17.7536L153.884 17.8107L153.966 17.8679L154.047 17.9249L154.12 17.9746L154.202 18.032L154.283 18.0895L154.365 18.1471L154.447 18.2048L154.528 18.2625L154.61 18.3203L154.691 18.3782L154.773 18.4361L154.845 18.4863L154.926 18.5444L155.007 18.6026L155.088 18.6609L155.169 18.7193L155.251 18.7777L155.332 18.8362L155.413 18.8948L155.493 18.9534L155.565 19.0042L155.646 19.063L155.726 19.1218L155.807 19.1809L155.888 19.2399L155.968 19.299L156.049 19.3583L156.129 19.4175L156.21 19.4768L156.281 19.5285L156.361 19.5877L156.441 19.6473L156.521 19.707L156.601 19.7667L156.681 19.8265L156.761 19.8865L156.841 19.9464L156.921 20.0064L156.992 20.0589L157.071 20.1186L157.151 20.1789L157.231 20.2393L157.31 20.2997L157.39 20.3602L157.469 20.4208L157.549 20.4815L157.628 20.5422L157.699 20.5954L157.777 20.6556L157.857 20.7166L157.936 20.7777L158.015 20.8388L158.094 20.9L158.173 20.9613L158.252 21.0226L158.33 21.0841L158.401 21.138L158.479 21.1987L158.557 21.2604L158.636 21.3221L158.715 21.3839L158.793 21.4458L158.871 21.5078L158.95 21.5697L159.028 21.6319L159.098 21.6867L159.175 21.7478L159.253 21.8102L159.332 21.8726L159.41 21.935L159.487 21.9976L159.565 22.0602L159.643 22.1229L159.721 22.1857L159.791 22.2413L159.867 22.3029L159.945 22.366L160.022 22.429L160.1 22.4921L160.177 22.5554L160.255 22.6187L160.332 22.682L160.409 22.7455L160.479 22.8019L160.554 22.864L160.631 22.9277L160.708 22.9914L160.785 23.0552L160.862 23.1191L160.939 23.183L161.016 23.2471L161.092 23.3112L161.162 23.3684L161.237 23.4309L161.313 23.4953L161.389 23.5596L161.466 23.6241L161.542 23.6887L161.618 23.7532L161.695 23.818L161.771 23.8828L161.84 23.9407L161.914 24.0038L161.99 24.0688L162.066 24.1338L162.141 24.1989L162.217 24.2641L162.293 24.3294L162.369 24.3948L162.444 24.4602L162.513 24.5189L162.586 24.5824L162.662 24.648L162.737 24.7137L162.812 24.7795L162.887 24.8453L162.962 24.9113L163.038 24.9773L163.113 25.0433L163.181 25.1029L163.254 25.1668L163.328 25.2331L163.403 25.2994L163.478 25.3659L163.552 25.4323L163.627 25.4989L163.701 25.5656L163.776 25.6323L163.844 25.6927L163.916 25.757L163.99 25.8239L164.064 25.8909L164.138 25.958L164.213 26.025L164.286 26.0923L164.36 26.1596L164.434 26.2268L164.502 26.2881L164.573 26.3528L164.647 26.4203L164.72 26.488L164.794 26.5556L164.867 26.6234L164.941 26.6913L165.014 26.7592L165.087 26.8271L165.155 26.8892L165.225 26.9543L165.298 27.0224L165.371 27.0907L165.444 27.159L165.517 27.2274L165.59 27.2959L165.663 27.3644L165.735 27.4331L165.802 27.4959L165.872 27.5613L165.944 27.6301L166.017 27.6991L166.089 27.768L166.162 27.837L166.234 27.9061L166.306 27.9753L166.378 28.0445L166.445 28.1081L166.514 28.1739L166.585 28.2434L166.657 28.3129L166.729 28.3825L166.801 28.4522L166.872 28.5219L166.944 28.5916L167.015 28.6615L167.082 28.7259L167.15 28.7921L167.221 28.8622L167.292 28.9323L167.364 29.0025L167.435 29.0728L167.506 29.1431L167.577 29.2134L167.647 29.284L167.714 29.3491L167.781 29.4157L167.851 29.4864L167.922 29.5571L167.993 29.6279L168.063 29.6988L168.134 29.7697L168.204 29.8407L168.274 29.9118L168.34 29.9778L168.406 30.0447L168.476 30.116L168.546 30.1874L168.616 30.2588L168.686 30.3303L168.756 30.4018L168.826 30.4734L168.895 30.5451L168.961 30.6118L169.026 30.6792L169.096 30.751L169.165 30.8229L169.235 30.895L169.304 30.9671L169.373 31.0392L169.442 31.1114L169.511 31.1837L169.576 31.2512L169.641 31.3189L169.71 31.3914L169.779 31.4639L169.847 31.5365L169.916 31.6092L169.985 31.6819L170.053 31.7547L170.121 31.8276L170.186 31.8959L170.25 31.9639L170.318 32.037L170.386 32.1101L170.455 32.1833L170.523 32.2565L170.59 32.3299L170.658 32.4033L170.726 32.4767L170.79 32.5458L170.854 32.6142L170.921 32.6878L170.989 32.7615L171.056 32.8353L171.124 32.9091L171.191 32.9831L171.258 33.057L171.325 33.131L171.389 33.2009L171.451 33.2696L171.518 33.3438L171.585 33.4181L171.652 33.4925L171.719 33.5668L171.785 33.6414L171.852 33.7159L171.919 33.7905L171.982 33.8612L172.044 33.9302L172.11 34.005L172.176 34.0799L172.242 34.1548L172.308 34.2298L172.374 34.3049L172.44 34.38L172.506 34.4552L172.569 34.5266L172.63 34.5959L172.696 34.6712L172.761 34.7467L172.827 34.8222L172.892 34.8977L172.958 34.9734L173.023 35.049L173.088 35.1248L173.15 35.197L173.211 35.2666L173.276 35.3425L173.341 35.4186L173.406 35.4946L173.47 35.5707L173.535 35.647L173.6 35.7232L173.664 35.7995L173.726 35.8725L173.786 35.9423L173.85 36.0188L173.914 36.0954L173.978 36.172L174.042 36.2487L174.107 36.3255L174.171 36.4022L174.234 36.4792L174.296 36.5528L174.355 36.623L174.418 36.7001L174.482 36.7772L174.545 36.8543L174.609 36.9316L174.672 37.0089L174.735 37.0862L174.799 37.1637L174.86 37.2381L174.918 37.3086L174.981 37.3862L175.044 37.4638L175.106 37.5416L175.169 37.6194L175.232 37.6972L175.295 37.7751L175.357 37.8531L175.418 37.9283L175.475 37.999L175.537 38.0772L175.599 38.1553L175.661 38.2336L175.724 38.312L175.786 38.3903L175.848 38.4688L175.909 38.5473L175.969 38.6232L176.026 38.6943L176.087 38.7729L176.149 38.8517L176.211 38.9305L176.272 39.0093L176.333 39.0883L176.395 39.1672L176.456 39.2463L176.515 39.323L176.571 39.3943L176.632 39.4734L176.693 39.5527L176.754 39.6321L176.814 39.7114L176.875 39.7909L176.936 39.8705L176.996 39.95L177.055 40.0275L177.11 40.099L177.17 40.1787L177.23 40.2585L177.29 40.3384L177.351 40.4182L177.41 40.4983L177.47 40.5783L177.53 40.6584L177.589 40.7366L177.643 40.8084L177.702 40.8886L177.762 40.969L177.821 41.0493L177.881 41.1297L177.94 41.2103L177.999 41.2908L178.058 41.3714L178.116 41.4504L178.169 41.5223L178.228 41.6031L178.287 41.684L178.346 41.7648L178.404 41.8458L178.463 41.9268L178.522 42.0079L178.58 42.089L178.637 42.1687L178.69 42.2409L178.748 42.3222L178.806 42.4035L178.864 42.4849L178.922 42.5664L178.98 42.6479L179.038 42.7294L179.095 42.8111L179.152 42.8915L179.204 42.9639L179.261 43.0457L179.319 43.1276L179.376 43.2094L179.433 43.2914L179.491 43.3734L179.548 43.4555L179.605 43.5376L179.661 43.6188L179.712 43.6914L179.769 43.7737L179.825 43.856L179.882 43.9384L179.938 44.0209L179.995 44.1034L180.051 44.1859L180.107 44.2686L180.163 44.3505L180.213 44.4233L180.269 44.5061L180.325 44.5889L180.381 44.6718L180.437 44.7548L180.493 44.8377L180.548 44.9208L180.604 45.0039L180.659 45.0865L180.708 45.1596L180.764 45.2428L180.819 45.3261L180.874 45.4095L180.929 45.4929L180.984 45.5764L181.039 45.66L181.094 45.7435L181.149 45.8269L181.197 45.9001L181.252 45.9838L181.306 46.0676L181.361 46.1515L181.415 46.2354L181.469 46.3193L181.523 46.4034L181.577 46.4874L181.631 46.5715L181.679 46.6449L181.733 46.729L181.787 46.8133L181.841 46.8977L181.894 46.982L181.948 47.0665L182.001 47.151L182.055 47.2355L182.108 47.3201L182.155 47.3941L182.208 47.4785L182.261 47.5633L182.314 47.6481L182.367 47.7329L182.42 47.8178L182.472 47.9027L182.525 47.9877L182.577 48.0728L182.624 48.1474L182.676 48.2321L182.729 48.3173L182.781 48.4025L182.833 48.4878L182.885 48.5732L182.937 48.6585L182.989 48.744L183.041 48.8296L183.087 48.9049L183.138 48.9898L183.189 49.0754L183.241 49.1611L183.292 49.2469L183.344 49.3327L183.395 49.4185L183.446 49.5045L183.497 49.5904L183.543 49.6664L183.593 49.7514L183.644 49.8375L183.694 49.9237L183.745 50.0099L183.796 50.0961L183.846 50.1825L183.896 50.2688L183.947 50.3552L183.992 50.4318L184.041 50.5171L184.091 50.6036L184.141 50.6902L184.191 50.7768L184.241 50.8635L184.291 50.9503L184.34 51.0371L184.39 51.1239L184.434 51.2012L184.483 51.2866L184.532 51.3736L184.581 51.4606L184.63 51.5477L184.679 51.6349L184.728 51.722L184.777 51.8092L184.826 51.8965L184.87 51.9745L184.918 52.06L184.966 52.1474L185.015 52.2349L185.063 52.3224L185.111 52.41L185.159 52.4976L185.207 52.5852L185.255 52.6729L185.299 52.7515L185.346 52.8372L185.393 52.9251L185.441 53.013L185.489 53.1009L185.536 53.1889L185.583 53.2769L185.631 53.365L185.678 53.4531L185.721 53.5323L185.767 53.6182L185.814 53.7065L185.861 53.7947L185.907 53.8831L185.954 53.9715L186.001 54.0599L186.047 54.1484L186.094 54.237L186.136 54.3168L186.181 54.4029L186.227 54.4915L186.273 54.5802L186.319 54.669L186.365 54.7578L186.411 54.8466L186.457 54.9356L186.502 55.0245L186.544 55.105L186.588 55.1912L186.633 55.2802L186.679 55.3693L186.724 55.4585L186.769 55.5477L186.814 55.637L186.859 55.7263L186.904 55.8156L186.945 55.8967L186.988 55.9831L187.033 56.0724L187.077 56.162L187.122 56.2515L187.166 56.3411L187.21 56.4308L187.255 56.5205L187.299 56.6102L187.339 56.692L187.382 56.7784L187.425 56.8682L187.469 56.9582L187.513 57.0481L187.556 57.1381L187.6 57.2282L187.643 57.3182L187.686 57.4084L187.726 57.4907L187.768 57.5772L187.811 57.6675L187.854 57.7578L187.897 57.8481L187.939 57.9385L187.982 58.0289L188.025 58.1194L188.067 58.2099L188.106 58.2928L188.147 58.3794L188.189 58.4701L188.231 58.5607L188.273 58.6514L188.315 58.7422L188.357 58.833L188.399 58.9238L188.44 59.0147L188.479 59.0983L188.519 59.185L188.56 59.2761L188.601 59.3671L188.643 59.4581L188.684 59.5493L188.725 59.6404L188.766 59.7316L188.807 59.8229L188.845 59.9071L188.883 59.9939L188.924 60.0853L188.965 60.1767L189.005 60.2682L189.045 60.3596L189.085 60.4511L189.126 60.5427L189.166 60.6343L189.203 60.7191L189.241 60.806L189.281 60.8977L189.32 60.9895L189.36 61.0812L189.4 61.173L189.439 61.265L189.478 61.3569L189.518 61.4488L189.554 61.5342L189.591 61.6212L189.63 61.7133L189.669 61.8054L189.708 61.8975L189.746 61.9897L189.785 62.0819L189.824 62.1742L189.862 62.2665L189.898 62.3525L189.934 62.4395L189.972 62.5319L190.01 62.6244L190.048 62.7169L190.086 62.8094L190.124 62.902L190.162 62.9946L190.199 63.0872L190.234 63.1738L190.27 63.2609L190.307 63.3536L190.344 63.4464L190.381 63.5393L190.418 63.6321L190.455 63.725L190.492 63.818L190.529 63.9109L190.564 63.9981L190.598 64.0852L190.634 64.1783L190.671 64.2714L190.707 64.3646L190.743 64.4578L190.78 64.551L190.816 64.6443L190.851 64.7376L190.885 64.8253L190.919 64.9125L190.955 65.0059L190.99 65.0993L191.026 65.1928L191.061 65.2863L191.096 65.3799L191.131 65.4734L191.167 65.5671L191.2 65.6554L191.232 65.7426L191.267 65.8363L191.302 65.9301L191.336 66.0239L191.371 66.1177L191.405 66.2115L191.44 66.3054L191.474 66.3993L191.506 66.4883L191.538 66.5754L191.572 66.6695L191.606 66.7636L191.64 66.8577L191.674 66.9518L191.707 67.046L191.741 67.1401L191.774 67.2344L191.806 67.3238L191.837 67.4111L191.87 67.5054L191.903 67.5998L191.936 67.6942L191.969 67.7886L192.001 67.8831L192.034 67.9776L192.067 68.0721L192.098 68.1621L192.128 68.2493L192.16 68.344L192.192 68.4386L192.224 68.5333L192.256 68.628L192.288 68.7228L192.32 68.8176L192.352 68.9124L192.382 69.003L192.411 69.0902L192.443 69.1851L192.474 69.28L192.505 69.375L192.536 69.47L192.567 69.565L192.598 69.6601L192.629 69.7553L192.659 69.8464L192.687 69.9336L192.717 70.0288L192.748 70.124L192.778 70.2192L192.809 70.3145L192.839 70.4099L192.869 70.5052L192.899 70.6006L192.928 70.6922L192.955 70.7794L192.985 70.8749L193.014 70.9704L193.044 71.0659L193.073 71.1615L193.103 71.2571L193.132 71.3526L193.161 71.4483L193.189 71.5405L193.216 71.6276L193.244 71.7234L193.273 71.8191L193.302 71.9149L193.33 72.0108L193.359 72.1066L193.387 72.2025L193.415 72.2984L193.443 72.3911L193.468 72.4782L193.496 72.5742L193.524 72.6702L193.552 72.7662L193.58 72.8623L193.607 72.9584L193.635 73.0546L193.662 73.1507L193.689 73.2439L193.713 73.331L193.741 73.4272L193.768 73.5235L193.794 73.6198L193.821 73.7161L193.848 73.8124L193.875 73.9088L193.901 74.0052L193.927 74.099L193.951 74.186L193.977 74.2825L194.003 74.379L194.029 74.4755L194.055 74.5721L194.081 74.6686L194.107 74.7652L194.132 74.8619L194.157 74.9562L194.18 75.0431L194.206 75.1398L194.231 75.2366L194.256 75.3333L194.281 75.4301L194.306 75.5269L194.331 75.6238L194.356 75.7206L194.38 75.8154L194.402 75.9023L194.427 75.9992L194.451 76.0962L194.475 76.1931L194.5 76.2902L194.524 76.3872L194.548 76.4843L194.571 76.5814L194.595 76.6766L194.616 76.7634L194.64 76.8606L194.663 76.9577L194.687 77.0549L194.71 77.1522L194.733 77.2494L194.756 77.3467L194.779 77.444L194.802 77.5398L194.822 77.6265L194.845 77.7238L194.868 77.8212L194.89 77.9187L194.913 78.0161L194.935 78.1135L194.957 78.211L194.979 78.3085L195.001 78.4048L195.021 78.4914L195.042 78.589L195.064 78.6866L195.086 78.7842L195.107 78.8818L195.129 78.9795L195.15 79.0771L195.171 79.1748L195.192 79.2716L195.211 79.3581L195.232 79.4558L195.253 79.5536L195.273 79.6514L195.294 79.7492L195.315 79.8471L195.335 79.945L195.355 80.0429L195.375 80.1401L195.393 80.2264L195.413 80.3244L195.433 80.4223L195.453 80.5204L195.473 80.6184L195.493 80.7164L195.512 80.8144L195.532 80.9125L195.551 81.0102L195.568 81.0964L195.587 81.1946L195.606 81.2927L195.625 81.3909L195.644 81.4891L195.663 81.5872L195.681 81.6855L195.7 81.7837L195.718 81.8818L195.734 81.968L195.753 82.0663L195.771 82.1646L195.789 82.263L195.807 82.3613L195.825 82.4597L195.842 82.5581L195.86 82.6565L195.878 82.7549L195.893 82.8412L195.91 82.9395L195.928 83.038L195.945 83.1365L195.962 83.235L195.979 83.3336L195.996 83.4321L196.012 83.5307L196.029 83.6293L196.044 83.7159L196.06 83.8141L196.076 83.9128L196.093 84.0114L196.109 84.1101L196.125 84.2088L196.141 84.3075L196.157 84.4062L196.172 84.5049L196.186 84.592L196.202 84.6901L196.217 84.7889L196.233 84.8877L196.248 84.9865L196.263 85.0853L196.278 85.1842L196.293 85.2831L196.308 85.3819L196.321 85.4694L196.335 85.5674L196.35 85.6663L196.364 85.7652L196.379 85.8641L196.393 85.9631L196.407 86.0621L196.421 86.1611L196.435 86.2601L196.447 86.348L196.461 86.4458L196.475 86.5448L196.488 86.6439L196.502 86.743L196.515 86.842L196.528 86.9411L196.541 87.0402L196.554 87.1394L196.566 87.2277L196.579 87.3253L196.591 87.4245L196.604 87.5236L196.616 87.6228L196.629 87.722L196.641 87.8213L196.653 87.9205L196.666 88.0197L196.676 88.1084L196.688 88.2059L196.7 88.3052L196.712 88.4044L196.723 88.5037L196.735 88.6031L196.746 88.7024L196.757 88.8018L196.769 88.9011L196.779 88.9902L196.789 89.0874L196.8 89.1868L196.811 89.2862L196.822 89.3856L196.833 89.485L196.843 89.5845L196.853 89.6839L196.864 89.7834L196.873 89.8728L196.883 89.9699L196.893 90.0694L196.903 90.1689L196.913 90.2684L196.922 90.3679L196.932 90.4674L196.941 90.5669L196.951 90.6665L196.959 90.7563L196.968 90.8531L196.977 90.9527L196.986 91.0523L196.995 91.1519L197.004 91.2514L197.012 91.3511L197.021 91.4507L197.029 91.5503L197.037 91.6404L197.045 91.7371L197.053 91.8368L197.061 91.9364L197.069 92.0361L197.077 92.1358L197.085 92.2355L197.093 92.3351L197.1 92.4348L197.107 92.5253L197.114 92.6218L197.121 92.7215L197.128 92.8212L197.135 92.921L197.143 93.0207L197.149 93.1205L197.156 93.2202L197.163 93.32L197.169 93.4108L197.175 93.507L197.181 93.6068L197.187 93.7066L197.194 93.8064L197.2 93.9062L197.206 94.006L197.212 94.1058L197.217 94.2056L197.222 94.2968L197.228 94.3928L197.233 94.4927L197.238 94.5925L197.244 94.6923L197.249 94.7922L197.254 94.8921L197.259 94.9919L197.264 95.0918L197.268 95.1833L197.272 95.279L197.277 95.3789L197.281 95.4788L197.285 95.5787L197.29 95.6786L197.294 95.7785L197.298 95.8784L197.302 95.9783L197.305 96.0701L197.309 96.1656L197.312 96.2655L197.316 96.3655L197.319 96.4654L197.323 96.5653L197.326 96.6652L197.329 96.7652L197.332 96.8651L197.334 96.9573L197.337 97.0525L197.34 97.1525L197.342 97.2524L197.345 97.3523L197.347 97.4523L197.349 97.5523L197.352 97.6522L197.354 97.7522L197.355 97.8446L197.357 97.9396L197.359 98.0396L197.361 98.1395L197.362 98.2395L197.364 98.3395L197.365 98.4394L197.366 98.5394L197.368 98.6394L197.368 98.7322L197.369 98.8268L197.37 98.9268L197.371 99.0268L197.371 99.1268L197.372 99.2267L197.372 99.3267L197.373 99.4267L197.373 99.5267L197.373 99.6197L197.373 99.7141L197.373 99.8141L197.373 99.9141L197.372 100.014L197.372 100.114L197.372 100.214L197.371 100.314L197.37 100.414L197.369 100.507L197.369 100.601L197.367 100.701L197.366 100.801L197.365 100.901L197.364 101.001L197.363 101.101L197.361 101.201L197.359 101.301L197.358 101.395L197.356 101.489L197.354 101.589L197.352 101.689L197.35 101.789L197.348 101.889L197.345 101.989L197.343 102.088L197.34 102.188L197.338 102.282L197.335 102.376L197.332 102.476L197.33 102.576L197.326 102.676L197.323 102.776L197.32 102.875L197.317 102.975L197.313 103.075L197.31 103.169L197.306 103.263L197.303 103.363L197.299 103.462L197.295 103.562L197.291 103.662L197.287 103.762L197.283 103.862L197.278 103.962L197.274 104.056L197.269 104.149L197.265 104.249L197.26 104.349L197.255 104.449L197.25 104.549L197.245 104.649L197.24 104.748L197.235 104.848L197.23 104.943L197.224 105.035L197.219 105.135L197.213 105.235L197.207 105.335L197.202 105.435L197.196 105.534L197.19 105.634L197.183 105.734L197.177 105.829L197.171 105.921L197.165 106.021L197.158 106.121L197.151 106.22L197.145 106.32L197.138 106.42L197.131 106.52L197.124 106.619L197.117 106.714L197.11 106.806L197.102 106.906L197.095 107.006L197.087 107.105L197.08 107.205L197.072 107.305L197.064 107.404L197.056 107.504L197.048 107.599L197.04 107.691L197.032 107.79L197.024 107.89L197.015 107.99L197.007 108.089L196.998 108.189L196.989 108.288L196.98 108.388L196.971 108.484L196.963 108.575L196.954 108.674L196.944 108.774L196.935 108.873L196.925 108.973L196.916 109.072L196.906 109.172L196.896 109.271L196.886 109.367L196.877 109.458L196.867 109.557L196.857 109.657L196.846 109.756L196.836 109.856L196.825 109.955L196.815 110.054L196.804 110.154L196.793 110.25L196.783 110.34L196.772 110.439L196.761 110.539L196.75 110.638L196.738 110.738L196.727 110.837L196.715 110.936L196.704 111.035L196.692 111.132L196.681 111.222L196.669 111.321L196.657 111.42L196.645 111.519L196.633 111.619L196.621 111.718L196.608 111.817L196.596 111.916L196.583 112.012L196.571 112.102L196.558 112.201L196.546 112.3L196.532 112.399L196.519 112.498L196.506 112.598L196.493 112.697L196.479 112.796L196.466 112.892L196.453 112.981L196.439 113.08L196.426 113.179L196.412 113.278L196.398 113.377L196.383 113.476L196.369 113.575L196.355 113.674L196.341 113.771L196.327 113.86L196.312 113.959L196.298 114.057L196.283 114.156L196.268 114.255L196.253 114.354L196.238 114.453L196.222 114.552L196.207 114.648L196.193 114.737L196.177 114.835L196.162 114.934L196.146 115.033L196.13 115.132L196.114 115.23L196.098 115.329L196.082 115.428L196.066 115.525L196.051 115.612L196.034 115.711L196.018 115.81L196.001 115.908L195.984 116.007L195.967 116.105L195.95 116.204L195.933 116.302L195.916 116.399L195.901 116.487L195.883 116.585L195.866 116.684L195.848 116.782L195.83 116.881L195.813 116.979L195.795 117.077L195.777 117.176L195.759 117.273L195.742 117.36L195.724 117.458L195.706 117.557L195.687 117.655L195.669 117.753L195.65 117.851L195.631 117.949L195.612 118.048L195.594 118.145L195.576 118.232L195.557 118.33L195.538 118.428L195.518 118.526L195.499 118.624L195.479 118.722L195.46 118.82L195.44 118.918L195.42 119.015L195.402 119.102L195.382 119.199L195.362 119.297L195.342 119.395L195.321 119.493L195.301 119.591L195.28 119.689L195.26 119.787L195.239 119.884L195.22 119.97L195.199 120.068L195.178 120.165L195.157 120.263L195.136 120.361L195.114 120.458L195.093 120.556L195.071 120.654L195.05 120.751L195.03 120.837L195.008 120.934L194.986 121.032L194.964 121.129L194.942 121.227L194.92 121.324L194.897 121.422L194.875 121.519L194.852 121.616L194.832 121.702L194.809 121.799L194.787 121.896L194.764 121.993L194.741 122.091L194.717 122.188L194.694 122.285L194.671 122.382L194.648 122.48L194.626 122.565L194.603 122.662L194.579 122.759L194.555 122.856L194.531 122.953L194.507 123.05L194.483 123.147L194.459 123.244L194.435 123.341L194.413 123.426L194.388 123.523L194.364 123.619L194.339 123.716L194.314 123.813L194.289 123.91L194.264 124.007L194.239 124.103L194.214 124.2L194.191 124.286L194.166 124.381L194.141 124.478L194.115 124.575L194.089 124.671L194.064 124.768L194.038 124.864L194.012 124.961L193.986 125.057L193.962 125.143L193.936 125.238L193.91 125.335L193.883 125.431L193.857 125.527L193.83 125.624L193.803 125.72L193.776 125.816L193.75 125.913L193.725 125.998L193.698 126.093L193.671 126.189L193.644 126.285L193.616 126.381L193.589 126.478L193.561 126.574L193.533 126.67L193.506 126.766L193.48 126.851L193.453 126.946L193.424 127.041L193.396 127.137L193.368 127.233L193.34 127.329L193.311 127.425L193.283 127.521L193.254 127.616L193.228 127.702L193.199 127.796L193.17 127.891L193.141 127.987L193.112 128.083L193.083 128.178L193.054 128.274L193.024 128.369L192.995 128.465L192.967 128.551L192.938 128.644L192.909 128.739L192.879 128.835L192.849 128.93L192.819 129.025L192.788 129.12L192.758 129.216L192.728 129.311L192.7 129.397L192.67 129.489L192.639 129.584L192.608 129.68L192.577 129.775L192.547 129.87L192.515 129.965L192.484 130.06L192.453 130.155L192.424 130.24L192.393 130.332L192.362 130.427L192.33 130.522L192.299 130.617L192.267 130.712L192.235 130.806L192.203 130.901L192.171 130.996L192.141 131.081L192.11 131.173L192.077 131.267L192.045 131.362L192.012 131.456L191.98 131.551L191.947 131.645L191.914 131.74L191.881 131.834L191.85 131.92L191.818 132.011L191.785 132.105L191.752 132.199L191.718 132.293L191.685 132.388L191.651 132.482L191.618 132.576L191.584 132.67L191.552 132.756L191.52 132.846L191.485 132.94L191.451 133.034L191.417 133.128L191.383 133.222L191.348 133.316L191.314 133.409L191.279 133.503L191.247 133.589L191.213 133.679L191.178 133.772L191.143 133.866L191.108 133.959L191.073 134.053L191.038 134.147L191.002 134.24L190.967 134.333L190.934 134.419L190.899 134.508L190.863 134.602L190.828 134.695L190.792 134.788L190.756 134.882L190.72 134.975L190.683 135.068L190.647 135.161L190.613 135.247L190.578 135.335L190.541 135.428L190.505 135.521L190.468 135.614L190.431 135.707L190.394 135.8L190.357 135.893L190.32 135.986L190.285 136.071L190.249 136.159L190.212 136.252L190.174 136.345L190.137 136.437L190.099 136.53L190.061 136.622L190.023 136.715L189.986 136.807L189.95 136.893L189.913 136.98L189.875 137.073L189.837 137.165L189.798 137.257L189.76 137.35L189.721 137.442L189.683 137.534L189.644 137.626L189.607 137.712L189.57 137.798L189.531 137.89L189.492 137.982L189.453 138.074L189.413 138.166L189.374 138.258L189.334 138.35L189.295 138.442L189.257 138.527L189.22 138.613L189.18 138.705L189.14 138.796L189.1 138.888L189.059 138.98L189.019 139.071L188.979 139.163L188.938 139.254L188.9 139.34L188.862 139.425L188.821 139.516L188.78 139.608L188.739 139.699L188.698 139.79L188.657 139.881L188.616 139.972L188.575 140.063L188.536 140.149L188.497 140.233L188.455 140.324L188.414 140.415L188.372 140.506L188.33 140.597L188.288 140.688L188.246 140.778L188.204 140.869L188.164 140.954L188.124 141.039L188.082 141.129L188.04 141.22L187.997 141.31L187.955 141.401L187.912 141.491L187.869 141.581L187.826 141.672L187.786 141.757L187.745 141.841L187.702 141.931L187.659 142.021L187.616 142.111L187.572 142.201L187.529 142.291L187.485 142.381L187.442 142.471L187.4 142.556L187.359 142.639L187.315 142.729L187.271 142.819L187.227 142.908L187.183 142.998L187.138 143.088L187.094 143.177L187.05 143.267L187.007 143.352L186.965 143.434L186.921 143.523L186.876 143.613L186.831 143.702L186.786 143.791L186.741 143.881L186.696 143.97L186.651 144.059L186.607 144.144L186.565 144.226L186.519 144.315L186.474 144.403L186.428 144.492L186.382 144.581L186.337 144.67L186.291 144.759L186.245 144.848L186.2 144.932L186.157 145.013L186.111 145.102L186.065 145.191L186.018 145.279L185.972 145.368L185.925 145.456L185.879 145.544L185.832 145.633L185.786 145.717L185.743 145.798L185.696 145.886L185.649 145.974L185.602 146.062L185.554 146.15L185.507 146.238L185.46 146.326L185.412 146.414L185.366 146.499L185.322 146.578L185.274 146.666L185.226 146.754L185.178 146.842L185.13 146.929L185.082 147.017L185.034 147.104L184.985 147.192L184.938 147.276L184.894 147.355L184.845 147.443L184.796 147.53L184.748 147.617L184.699 147.704L184.65 147.792L184.601 147.879L184.552 147.966L184.504 148.05L184.459 148.128L184.409 148.215L184.36 148.302L184.31 148.389L184.261 148.476L184.211 148.562L184.161 148.649L184.111 148.736L184.063 148.82L184.017 148.898L183.967 148.984L183.917 149.071L183.866 149.157L183.816 149.243L183.766 149.329L183.715 149.416L183.664 149.502L183.615 149.586L183.569 149.663L183.518 149.749L183.467 149.835L183.416 149.921L183.365 150.007L183.313 150.093L183.262 150.178L183.211 150.264L183.16 150.348L183.113 150.424L183.062 150.51L183.01 150.595L182.958 150.681L182.907 150.766L182.855 150.852L182.803 150.937L182.751 151.022L182.699 151.106L182.652 151.182L182.599 151.267L182.547 151.352L182.494 151.437L182.442 151.522L182.389 151.607L182.336 151.692L182.284 151.776L182.231 151.86L182.183 151.935L182.13 152.019L182.077 152.104L182.024 152.189L181.971 152.273L181.917 152.358L181.864 152.442L181.81 152.526L181.757 152.61L181.708 152.684L181.655 152.768L181.601 152.852L181.547 152.936L181.493 153.02L181.438 153.104L181.384 153.188L181.33 153.272L181.276 153.355L181.227 153.429L181.172 153.513L181.118 153.596L181.063 153.68L181.008 153.764L180.953 153.847L180.899 153.93L180.843 154.014L180.789 154.097L180.739 154.17L180.684 154.253L180.629 154.336L180.573 154.419L180.518 154.502L180.462 154.585L180.406 154.668L180.35 154.751L180.295 154.834L180.245 154.906L180.189 154.989L180.133 155.072L180.077 155.154L180.02 155.237L179.964 155.319L179.908 155.402L179.851 155.484L179.795 155.567L179.744 155.638L179.687 155.72L179.631 155.803L179.574 155.885L179.517 155.967L179.46 156.049L179.403 156.131L179.345 156.213L179.288 156.295L179.237 156.366L179.18 156.448L179.122 156.529L179.065 156.611L179.007 156.693L178.949 156.774L178.891 156.856L178.833 156.937L178.775 157.019L178.724 157.089L178.666 157.17L178.607 157.252L178.549 157.333L178.491 157.414L178.432 157.495L178.374 157.576L178.315 157.657L178.256 157.738L178.204 157.809L178.145 157.889L178.086 157.969L178.027 158.05L177.968 158.131L177.909 158.211L177.85 158.292L177.791 158.372L177.731 158.452L177.678 158.523L177.619 158.602L177.559 158.683L177.5 158.763L177.44 158.843L177.38 158.923L177.32 159.003L177.26 159.083L177.2 159.163L177.146 159.233L177.086 159.312L177.026 159.391L176.965 159.471L176.905 159.55L176.844 159.63L176.784 159.709L176.723 159.789L176.662 159.868L176.607 159.938L176.547 160.016L176.486 160.095L176.425 160.174L176.364 160.253L176.303 160.332L176.242 160.411L176.18 160.49L176.119 160.569L176.063 160.639L176.003 160.716L175.941 160.795L175.879 160.873L175.817 160.952L175.755 161.03L175.693 161.108L175.631 161.187L175.569 161.265L175.513 161.335L175.452 161.411L175.389 161.489L175.327 161.567L175.264 161.645L175.202 161.723L175.139 161.801L175.076 161.879L175.014 161.956L174.956 162.026L174.895 162.101L174.832 162.179L174.769 162.256L174.706 162.334L174.642 162.411L174.579 162.488L174.516 162.566L174.452 162.643L174.394 162.712L174.332 162.787L174.268 162.864L174.205 162.941L174.141 163.017L174.077 163.094L174.013 163.171L173.949 163.248L173.885 163.324L173.826 163.393L173.763 163.467L173.699 163.544L173.635 163.62L173.57 163.696L173.505 163.773L173.441 163.849L173.376 163.925L173.311 164.001L173.252 164.07L173.189 164.143L173.124 164.219L173.059 164.295L172.994 164.37L172.928 164.446L172.863 164.522L172.798 164.597L172.732 164.673L172.672 164.741L172.608 164.813L172.543 164.889L172.477 164.964L172.411 165.039L172.345 165.114L172.279 165.189L172.213 165.264L172.147 165.339L172.086 165.407L172.022 165.479L171.956 165.554L171.89 165.628L171.823 165.703L171.757 165.778L171.69 165.852L171.624 165.927L171.557 166.001L171.495 166.069L171.431 166.14L171.364 166.214L171.297 166.288L171.23 166.362L171.162 166.436L171.095 166.51L171.028 166.584L170.96 166.658L170.898 166.725L170.833 166.795L170.766 166.869L170.698 166.942L170.63 167.016L170.562 167.089L170.495 167.162L170.427 167.236L170.359 167.309L170.295 167.376L170.23 167.445L170.162 167.518L170.094 167.591L170.025 167.664L169.957 167.737L169.888 167.81L169.82 167.882L169.751 167.955L169.687 168.022L169.621 168.09L169.553 168.163L169.484 168.235L169.415 168.307L169.346 168.38L169.277 168.452L169.207 168.524L169.138 168.596L169.073 168.662L169.007 168.73L168.938 168.802L168.868 168.874L168.799 168.945L168.729 169.017L168.659 169.088L168.59 169.16L168.52 169.231L168.454 169.297L168.388 169.364L168.318 169.436L168.247 169.507L168.177 169.578L168.107 169.649L168.037 169.72L167.966 169.791L167.896 169.862L167.829 169.927L167.763 169.993L167.692 170.064L167.621 170.135L167.55 170.205L167.48 170.276L167.409 170.346L167.338 170.416L167.267 170.486L167.199 170.552L167.132 170.617L167.061 170.687L166.99 170.757L166.918 170.827L166.847 170.897L166.775 170.967L166.704 171.036L166.632 171.106L166.564 171.171L166.496 171.235L166.425 171.305L166.353 171.374L166.281 171.443L166.209 171.513L166.136 171.582L166.064 171.651L165.992 171.72L165.923 171.784L165.855 171.848L165.783 171.917L165.71 171.986L165.638 172.054L165.565 172.123L165.492 172.191L165.42 172.26L165.347 172.328L165.277 172.392L165.209 172.455L165.136 172.523L165.063 172.591L164.99 172.66L164.916 172.728L164.843 172.795L164.77 172.863L164.696 172.931L164.626 172.995L164.558 173.057L164.484 173.124L164.41 173.192L164.336 173.259L164.263 173.327L164.189 173.394L164.115 173.461L164.041 173.528L163.97 173.592L163.901 173.653L163.827 173.72L163.752 173.787L163.678 173.853L163.604 173.92L163.529 173.987L163.455 174.053L163.38 174.12L163.309 174.183L163.239 174.243L163.164 174.309L163.09 174.376L163.015 174.442L162.94 174.508L162.865 174.574L162.79 174.64L162.714 174.706L162.642 174.768L162.573 174.828L162.497 174.893L162.422 174.959L162.346 175.024L162.271 175.09L162.195 175.155L162.12 175.22L162.044 175.286L161.971 175.348L161.901 175.407L161.825 175.472L161.749 175.537L161.673 175.601L161.597 175.666L161.521 175.731L161.444 175.795L161.368 175.86L161.294 175.922L161.224 175.98L161.148 176.044L161.071 176.108L160.995 176.173L160.918 176.237L160.841 176.301L160.764 176.365L160.688 176.428L160.613 176.49L160.542 176.547L160.465 176.611L160.388 176.674L160.311 176.738L160.234 176.801L160.157 176.865L160.08 176.928L160.002 176.991L159.927 177.052L159.856 177.108L159.779 177.171L159.701 177.234L159.623 177.297L159.546 177.36L159.468 177.423L159.39 177.485L159.312 177.548L159.236 177.608L159.165 177.664L159.087 177.726L159.009 177.788L158.93 177.851L158.852 177.913L158.774 177.975L158.695 178.037L158.617 178.098L158.54 178.158L158.469 178.213L158.39 178.275L158.312 178.336L158.233 178.398L158.154 178.459L158.075 178.521L157.996 178.582L157.917 178.643L157.84 178.703L157.768 178.757L157.689 178.818L157.61 178.879L157.531 178.939L157.451 179L157.372 179.061L157.293 179.121L157.213 179.182L157.135 179.241L157.063 179.294L156.983 179.354L156.904 179.415L156.824 179.475L156.744 179.535L156.664 179.595L156.584 179.655L156.504 179.714L156.425 179.773L156.353 179.825L156.273 179.885L156.193 179.944L156.112 180.004L156.032 180.063L155.952 180.123L155.871 180.182L155.791 180.241L155.711 180.299L155.639 180.351L155.558 180.409L155.477 180.468L155.396 180.527L155.316 180.586L155.235 180.644L155.154 180.703L155.073 180.761L154.992 180.819L154.92 180.87L154.839 180.928L154.757 180.986L154.676 181.044L154.595 181.102L154.513 181.16L154.432 181.218L154.35 181.275L154.269 181.332L154.196 181.382L154.115 181.44L154.033 181.497L153.951 181.555L153.869 181.612L153.788 181.669L153.706 181.726L153.624 181.783L153.542 181.84L153.469 181.889L153.387 181.946L153.304 182.002L153.222 182.059L153.14 182.116L153.057 182.172L152.975 182.228L152.892 182.285L152.81 182.341L152.737 182.389L152.654 182.445L152.571 182.501L152.489 182.557L152.406 182.613L152.323 182.669L152.24 182.724L152.157 182.78L152.074 182.836L152 182.883L151.917 182.938L151.834 182.994L151.751 183.049L151.668 183.104L151.584 183.159L151.501 183.214L151.417 183.269L151.334 183.324L151.26 183.371L151.176 183.425L151.093 183.48L151.009 183.534L150.925 183.589L150.841 183.643L150.757 183.697L150.673 183.751L150.589 183.806L150.515 183.852L150.431 183.906L150.347 183.959L150.263 184.013L150.178 184.067L150.094 184.121L150.01 184.174L149.925 184.228L149.841 184.281L149.766 184.327L149.682 184.38L149.597 184.433L149.512 184.486L149.428 184.539L149.343 184.592L149.258 184.644L149.173 184.697L149.088 184.75L149.012 184.795L148.928 184.847L148.843 184.899L148.758 184.952L148.673 185.004L148.588 185.056L148.503 185.108L148.417 185.16L148.332 185.212L148.255 185.257L148.171 185.308L148.085 185.36L148 185.411L147.914 185.463L147.829 185.514L147.743 185.565L147.657 185.617L147.571 185.668L147.494 185.712L147.41 185.762L147.324 185.813L147.238 185.864L147.152 185.915L147.066 185.966L146.979 186.016L146.893 186.067L146.807 186.117L146.729 186.161L146.644 186.21L146.558 186.26L146.472 186.31L146.385 186.36L146.299 186.41L146.212 186.46L146.125 186.51L146.039 186.56L145.96 186.603L145.875 186.651L145.789 186.701L145.702 186.75L145.615 186.799L145.528 186.848L145.441 186.898L145.354 186.947L145.267 186.995L145.188 187.038L145.103 187.086L145.015 187.134L144.928 187.183L144.841 187.231L144.753 187.28L144.666 187.328L144.579 187.376L144.491 187.425L144.411 187.467L144.326 187.513L144.238 187.561L144.151 187.609L144.063 187.657L143.975 187.705L143.887 187.752L143.8 187.8L143.712 187.847L143.631 187.889L143.546 187.934L143.458 187.982L143.37 188.029L143.282 188.076L143.193 188.123L143.105 188.169L143.017 188.216L142.928 188.263L142.848 188.304L142.762 188.349L142.674 188.395L142.585 188.441L142.497 188.488L142.408 188.534L142.319 188.58L142.231 188.626L142.142 188.672L142.06 188.712L141.975 188.756L141.886 188.802L141.797 188.847L141.708 188.893L141.619 188.938L141.53 188.983L141.441 189.028L141.352 189.074L141.27 189.114L141.184 189.157L141.095 189.201L141.005 189.246L140.916 189.291L140.827 189.336L140.737 189.38L140.648 189.424L140.558 189.469L140.475 189.508L140.389 189.55L140.3 189.594L140.21 189.638L140.12 189.682L140.031 189.726L139.941 189.77L139.851 189.813L139.761 189.857L139.678 189.896L139.592 189.937L139.502 189.98L139.412 190.024L139.322 190.067L139.232 190.11L139.141 190.153L139.051 190.196L138.961 190.238L138.877 190.277L138.791 190.317L138.7 190.359L138.61 190.402L138.519 190.444L138.429 190.486L138.338 190.529L138.248 190.571L138.157 190.613L138.073 190.651L137.987 190.69L137.896 190.731L137.805 190.773L137.714 190.815L137.623 190.856L137.532 190.897L137.441 190.939L137.35 190.98L137.265 191.017L137.179 191.056L137.088 191.096L136.997 191.137L136.906 191.178L136.814 191.219L136.723 191.259L136.632 191.3L136.541 191.34L136.455 191.377L136.368 191.414L136.277 191.454L136.186 191.495L136.094 191.535L136.002 191.574L135.911 191.614L135.819 191.654L135.727 191.693L135.641 191.73L135.555 191.766L135.463 191.805L135.371 191.845L135.279 191.884L135.187 191.923L135.095 191.962L135.003 192.001L134.911 192.04L134.825 192.075L134.738 192.111L134.646 192.149L134.554 192.188L134.462 192.226L134.369 192.264L134.277 192.303L134.185 192.341L134.092 192.379L134.005 192.414L133.918 192.448L133.826 192.486L133.733 192.524L133.641 192.561L133.548 192.599L133.456 192.636L133.363 192.673L133.27 192.711L133.183 192.745L133.096 192.779L133.003 192.816L132.91 192.852L132.817 192.889L132.725 192.926L132.632 192.962L132.539 192.999L132.446 193.035L132.357 193.069L132.27 193.102L132.177 193.138L132.084 193.174L131.991 193.21L131.898 193.246L131.805 193.281L131.711 193.317L131.618 193.353L131.529 193.386L131.442 193.418L131.349 193.453L131.255 193.488L131.162 193.523L131.068 193.558L130.975 193.593L130.881 193.628L130.788 193.663L130.698 193.695L130.611 193.727L130.518 193.761L130.424 193.795L130.33 193.83L130.236 193.864L130.142 193.898L130.049 193.932L129.955 193.966L129.865 193.998L129.778 194.028L129.684 194.062L129.59 194.095L129.496 194.129L129.402 194.162L129.307 194.195L129.213 194.229L129.119 194.262L129.029 194.293L128.942 194.322L128.847 194.355L128.753 194.388L128.659 194.42L128.564 194.453L128.47 194.486L128.375 194.518L128.281 194.55L128.19 194.581L128.103 194.609L128.008 194.641L127.914 194.673L127.819 194.705L127.725 194.737L127.63 194.768L127.535 194.8L127.44 194.831L127.349 194.861L127.262 194.889L127.167 194.92L127.072 194.951L126.977 194.982L126.882 195.013L126.787 195.044L126.692 195.074L126.597 195.105L126.505 195.134L126.419 195.161L126.323 195.191L126.228 195.221L126.133 195.252L126.038 195.282L125.943 195.312L125.847 195.342L125.752 195.372L125.659 195.4L125.573 195.426L125.477 195.455L125.382 195.485L125.286 195.514L125.191 195.543L125.095 195.572L125 195.602L124.904 195.631L124.811 195.658L124.725 195.683L124.629 195.712L124.533 195.74L124.438 195.769L124.342 195.797L124.246 195.826L124.15 195.854L124.055 195.882L123.961 195.909L123.874 195.933L123.778 195.961L123.682 195.989L123.587 196.017L123.491 196.044L123.395 196.072L123.299 196.099L123.202 196.126L123.108 196.153L123.022 196.176L122.926 196.203L122.83 196.23L122.733 196.257L122.637 196.283L122.541 196.31L122.445 196.337L122.348 196.363L122.254 196.389L122.167 196.411L122.071 196.437L121.975 196.463L121.878 196.489L121.782 196.515L121.685 196.541L121.589 196.567L121.492 196.592L121.397 196.617L121.311 196.639L121.214 196.664L121.118 196.689L121.021 196.714L120.924 196.74L120.828 196.765L120.731 196.789L120.634 196.814L120.539 196.838L120.452 196.859L120.355 196.883L120.259 196.908L120.162 196.932L120.065 196.956L119.968 196.981L119.871 197.005L119.774 197.029L119.678 197.052L119.592 197.072L119.495 197.095L119.398 197.119L119.301 197.142L119.204 197.166L119.107 197.189L119.01 197.212L118.912 197.235L118.816 197.258L118.73 197.277L118.633 197.3L118.535 197.322L118.438 197.345L118.341 197.368L118.244 197.39L118.146 197.412L118.049 197.435L117.952 197.457L117.866 197.475L117.768 197.496L117.671 197.518L117.574 197.54L117.476 197.562L117.379 197.583L117.281 197.605L117.184 197.626L117.086 197.648L117 197.665L116.903 197.686L116.805 197.707L116.707 197.728L116.61 197.749L116.512 197.769L116.414 197.79L116.317 197.811L116.219 197.831L116.133 197.847L116.035 197.868L115.938 197.888L115.84 197.908L115.742 197.928L115.644 197.948L115.546 197.968L115.448 197.987L115.35 198.007L115.264 198.022L115.166 198.042L115.068 198.061L114.97 198.08L114.873 198.1L114.775 198.119L114.676 198.137L114.578 198.156L114.48 198.175L114.393 198.19L114.296 198.208L114.198 198.227L114.1 198.245L114.002 198.264L113.903 198.282L113.805 198.3L113.707 198.318L113.609 198.336L113.522 198.35L113.424 198.367L113.326 198.385L113.228 198.403L113.129 198.42L113.031 198.437L112.933 198.455L112.834 198.472L112.736 198.489L112.648 198.502L112.551 198.519L112.453 198.536L112.354 198.552L112.256 198.569L112.157 198.585L112.059 198.602L111.96 198.618L111.862 198.634L111.774 198.647L111.677 198.663L111.578 198.679L111.48 198.695L111.381 198.71L111.282 198.726L111.184 198.742L111.085 198.757L110.986 198.772L110.898 198.785L110.801 198.799L110.702 198.814L110.604 198.829L110.505 198.844L110.406 198.859L110.307 198.874L110.209 198.888L110.11 198.903L110.021 198.914L109.924 198.928L109.826 198.942L109.727 198.956L109.628 198.97L109.529 198.984L109.43 198.998L109.331 199.012L109.232 199.025L109.143 199.036L109.047 199.049L108.948 199.062L108.849 199.076L108.75 199.089L108.651 199.102L108.552 199.115L108.453 199.128L108.354 199.14L108.264 199.151L108.168 199.162L108.069 199.175L107.97 199.187L107.871 199.2L107.771 199.212L107.672 199.224L107.573 199.236L107.474 199.248L107.384 199.257L107.288 199.268L107.189 199.28L107.09 199.292L106.991 199.303L106.891 199.314L106.792 199.326L106.693 199.337L106.594 199.348L106.503 199.357L106.407 199.367L106.308 199.377L106.209 199.388L106.11 199.399L106.01 199.409L105.911 199.42L105.812 199.43L105.712 199.44L105.622 199.448L105.526 199.457L105.427 199.467L105.327 199.477L105.228 199.487L105.129 199.496L105.029 199.506L104.93 199.516L104.83 199.525L104.739 199.532L104.644 199.54L104.544 199.549L104.445 199.559L104.345 199.567L104.246 199.576L104.147 199.585L104.047 199.593L103.948 199.602L103.856 199.609L103.761 199.616L103.661 199.624L103.562 199.632L103.462 199.64L103.363 199.648L103.263 199.656L103.164 199.664L103.064 199.672L102.973 199.677L102.877 199.684L102.778 199.691L102.839 199.676L102.912 199.66L102.985 199.643L103.058 199.626L103.132 199.609L103.205 199.592L103.285 199.574L103.363 199.556L103.436 199.538L103.509 199.521L103.582 199.504L103.655 199.486L103.728 199.469L103.801 199.451L103.873 199.433L103.954 199.414L104.031 199.395L104.104 199.377L104.177 199.359L104.25 199.341L104.322 199.323L104.395 199.304L104.468 199.286L104.541 199.268L104.62 199.248L104.698 199.228L104.771 199.209L104.843 199.19L104.916 199.172L104.989 199.153L105.061 199.134L105.134 199.114L105.206 199.095L105.285 199.075L105.363 199.054L105.436 199.035L105.508 199.015L105.581 198.996L105.653 198.976L105.725 198.956L105.798 198.936L105.87 198.916L105.949 198.895L106.027 198.874L106.099 198.854L106.171 198.833L106.244 198.813L106.316 198.792L106.388 198.772L106.46 198.751L106.532 198.73L106.611 198.709L106.689 198.687L106.761 198.666L106.833 198.645L106.905 198.624L106.977 198.602L107.049 198.581L107.121 198.56L107.193 198.538L107.271 198.516L107.349 198.493L107.421 198.471L107.493 198.449L107.564 198.428L107.636 198.406L107.708 198.384L107.78 198.361L107.851 198.339L107.929 198.316L108.007 198.293L108.079 198.27L108.15 198.248L108.222 198.225L108.294 198.202L108.365 198.179L108.437 198.157L108.508 198.134L108.585 198.11L108.664 198.086L108.735 198.062L108.807 198.039L108.878 198.016L108.949 197.992L109.021 197.969L109.092 197.945L109.163 197.921L109.24 197.897L109.318 197.872L109.389 197.848L109.461 197.824L109.532 197.8L109.603 197.776L109.674 197.751L109.745 197.727L109.817 197.702L109.892 197.677L109.971 197.652L110.042 197.627L110.113 197.602L110.184 197.577L110.255 197.552L110.326 197.527L110.397 197.502L110.468 197.477L110.543 197.451L110.622 197.425L110.693 197.399L110.763 197.374L110.834 197.348L110.905 197.322L110.976 197.297L111.046 197.271L111.117 197.245L111.192 197.218L111.271 197.191L111.341 197.165L111.412 197.139L111.482 197.112L111.553 197.086L111.623 197.059L111.694 197.033L111.764 197.006L111.839 196.979L111.917 196.951L111.988 196.924L112.058 196.897L112.128 196.87L112.199 196.843L112.269 196.816L112.339 196.788L112.409 196.761L112.483 196.733L112.562 196.704L112.632 196.677L112.702 196.649L112.772 196.621L112.842 196.593L112.912 196.565L112.982 196.537L113.052 196.509L113.126 196.48L113.205 196.451L113.274 196.423L113.344 196.394L113.414 196.366L113.484 196.337L113.554 196.308L113.623 196.279L113.693 196.25L113.766 196.221L113.845 196.191L113.915 196.162L113.984 196.133L114.054 196.104L114.123 196.074L114.193 196.045L114.263 196.015L114.332 195.985L114.404 195.955L114.483 195.925L114.553 195.895L114.622 195.865L114.691 195.835L114.761 195.805L114.83 195.775L114.899 195.744L114.968 195.714L115.04 195.683L115.119 195.652L115.188 195.621L115.258 195.591L115.327 195.56L115.396 195.529L115.465 195.498L115.534 195.467L115.603 195.436L115.674 195.404L115.753 195.373L115.822 195.341L115.891 195.31L115.96 195.278L116.028 195.247L116.097 195.215L116.166 195.183L116.235 195.151L116.305 195.119L116.385 195.087L116.453 195.054L116.522 195.022L116.59 194.99L116.659 194.958L116.727 194.925L116.796 194.893L116.864 194.86L116.934 194.827L117.014 194.794L117.082 194.761L117.15 194.728L117.219 194.695L117.287 194.662L117.355 194.629L117.423 194.596L117.492 194.563L117.561 194.529L117.64 194.495L117.708 194.462L117.776 194.428L117.844 194.394L117.913 194.36L117.98 194.326L118.048 194.292L118.116 194.258L118.185 194.224L118.265 194.19L118.332 194.155L118.4 194.121L118.468 194.087L118.536 194.052L118.603 194.017L118.671 193.983L118.739 193.948L118.807 193.913L118.886 193.878L118.954 193.843L119.021 193.808L119.089 193.772L119.156 193.737L119.224 193.702L119.291 193.666L119.359 193.631L119.427 193.595L119.506 193.559L119.573 193.524L119.64 193.488L119.707 193.452L119.775 193.416L119.842 193.38L119.909 193.344L119.976 193.308L120.043 193.271L120.122 193.235L120.189 193.198L120.256 193.162L120.323 193.125L120.39 193.088L120.457 193.052L120.524 193.015L120.591 192.978L120.657 192.941L120.737 192.904L120.808 192.862L120.887 192.812L120.966 192.762L121.045 192.712L121.124 192.662L121.203 192.612L121.282 192.562L121.361 192.512L121.44 192.471L121.519 192.424L121.598 192.374L121.677 192.323L121.756 192.273L121.834 192.222L121.913 192.171L121.992 192.121L122.07 192.07L122.149 192.028L122.228 191.98L122.306 191.93L122.385 191.878L122.463 191.827L122.542 191.776L122.62 191.725L122.698 191.673L122.777 191.622L122.855 191.579L122.933 191.532L123.012 191.48L123.09 191.428L123.168 191.376L123.246 191.325L123.324 191.273L123.402 191.221L123.48 191.169L123.558 191.125L123.636 191.077L123.714 191.025L123.792 190.972L123.87 190.92L123.948 190.868L124.026 190.815L124.104 190.763L124.181 190.71L124.259 190.665L124.337 190.617L124.414 190.564L124.492 190.511L124.569 190.458L124.647 190.405L124.724 190.352L124.802 190.299L124.879 190.246L124.957 190.2L125.034 190.151L125.111 190.098L125.189 190.044L125.266 189.991L125.343 189.937L125.42 189.883L125.497 189.83L125.574 189.776L125.651 189.729L125.728 189.68L125.805 189.626L125.882 189.572L125.959 189.518L126.036 189.464L126.113 189.409L126.19 189.355L126.266 189.3L126.343 189.253L126.42 189.204L126.497 189.149L126.573 189.094L126.65 189.04L126.726 188.985L126.803 188.93L126.879 188.875L126.956 188.82L127.032 188.771L127.108 188.722L127.185 188.667L127.261 188.611L127.337 188.556L127.413 188.5L127.49 188.445L127.566 188.389L127.642 188.333L127.718 188.284L127.794 188.234L127.87 188.179L127.946 188.123L128.022 188.067L128.097 188.01L128.173 187.954L128.249 187.898L128.325 187.842L128.4 187.791L128.476 187.742L128.552 187.685L128.627 187.628L128.703 187.572L128.778 187.515L128.854 187.458L128.929 187.402L129.005 187.345L129.08 187.294L129.155 187.243L129.231 187.186L129.306 187.129L129.381 187.072L129.456 187.015L129.531 186.957L129.606 186.9L129.681 186.842L129.756 186.79L129.831 186.74L129.906 186.682L129.981 186.624L130.056 186.566L130.131 186.509L130.206 186.451L130.28 186.393L130.355 186.335L130.43 186.282L130.504 186.231L130.579 186.172L130.653 186.114L130.728 186.056L130.802 185.997L130.877 185.939L130.951 185.88L131.025 185.821L131.1 185.768L131.174 185.716L131.248 185.658L131.322 185.599L131.396 185.54L131.47 185.481L131.544 185.422L131.618 185.362L131.692 185.303L131.766 185.248L131.84 185.197L131.914 185.137L131.988 185.078L132.061 185.018L132.135 184.959L132.209 184.899L132.282 184.839L132.356 184.779L132.429 184.724L132.503 184.672L132.576 184.612L132.65 184.552L132.723 184.492L132.796 184.431L132.87 184.371L132.943 184.311L133.016 184.25L133.089 184.194L133.162 184.142L133.235 184.081L133.309 184.021L133.381 183.96L133.454 183.899L133.527 183.838L133.6 183.777L133.673 183.716L133.746 183.659L133.818 183.607L133.891 183.545L133.964 183.484L134.036 183.423L134.109 183.361L134.181 183.3L134.254 183.238L134.326 183.177L134.399 183.119L134.471 183.066L134.543 183.004L134.616 182.942L134.688 182.88L134.76 182.818L134.832 182.756L134.904 182.694L134.976 182.632L135.048 182.573L135.12 182.52L135.192 182.458L135.264 182.395L135.336 182.333L135.407 182.27L135.479 182.208L135.551 182.145L135.622 182.082L135.694 182.022L135.765 181.969L135.837 181.906L135.908 181.843L135.98 181.78L136.051 181.717L136.122 181.654L136.194 181.591L136.265 181.527L136.336 181.467L136.407 181.413L136.478 181.35L136.549 181.286L136.62 181.223L136.691 181.159L136.762 181.095L136.833 181.031L136.904 180.967L136.975 180.906L137.045 180.852L137.116 180.788L137.187 180.724L137.257 180.66L137.328 180.595L137.398 180.531L137.469 180.467L137.539 180.402L137.609 180.34L137.68 180.286L137.75 180.221L137.82 180.156L137.89 180.092L137.961 180.027L138.031 179.962L138.101 179.897L138.171 179.832L138.241 179.769L138.31 179.714L138.38 179.649L138.45 179.584L138.52 179.519L138.59 179.453L138.659 179.388L138.729 179.322L138.798 179.257L138.868 179.192L138.937 179.138L139.007 179.072L139.076 179.006L139.145 178.94L139.215 178.875L139.284 178.809L139.353 178.743L139.422 178.676L139.491 178.611L139.56 178.556L139.629 178.49L139.698 178.424L139.767 178.357L139.836 178.291L139.905 178.224L139.974 178.158L140.042 178.091L140.111 178.025L140.18 177.97L140.248 177.903L140.317 177.836L140.385 177.769L140.453 177.702L140.522 177.635L140.59 177.568L140.658 177.501L140.727 177.434L140.795 177.379L140.863 177.311L140.931 177.244L140.999 177.176L141.067 177.109L141.135 177.041L141.203 176.973L141.271 176.906L141.338 176.838L141.406 176.782L141.474 176.715L141.541 176.646L141.609 176.578L141.676 176.51L141.744 176.442L141.811 176.374L141.879 176.306L141.946 176.237L142.013 176.181L142.08 176.113L142.148 176.044L142.215 175.976L142.282 175.907L142.349 175.838L142.416 175.769L142.483 175.701L142.55 175.632L142.616 175.575L142.683 175.506L142.75 175.437L142.816 175.368L142.883 175.299L142.95 175.229L143.016 175.16L143.083 175.091L143.149 175.021L143.215 174.964L143.282 174.895L143.348 174.825L143.414 174.755L143.48 174.686L143.546 174.616L143.612 174.546L143.678 174.476L143.744 174.406L143.81 174.348L143.876 174.278L143.942 174.208L144.008 174.138L144.073 174.068L144.139 173.997L144.205 173.927L144.27 173.856L144.336 173.786L144.401 173.727L144.466 173.657L144.532 173.587L144.597 173.516L144.662 173.445L144.727 173.374L144.792 173.303L144.858 173.232L144.923 173.161L144.988 173.101L145.052 173.031L145.117 172.96L145.182 172.889L145.247 172.818L145.312 172.746L145.376 172.675L145.441 172.603L145.505 172.532L145.57 172.471L145.634 172.401L145.699 172.329L145.763 172.257L145.827 172.185L145.891 172.113L145.955 172.041L146.02 171.969L146.084 171.897L146.148 171.836L146.212 171.765L146.275 171.693L146.339 171.621L146.403 171.548L146.467 171.476L146.53 171.404L146.594 171.331L146.658 171.258L146.721 171.196L146.785 171.125L146.848 171.053L146.911 170.98L146.975 170.907L147.038 170.834L147.101 170.761L147.164 170.688L147.227 170.615L147.29 170.551L147.353 170.481L147.416 170.408L147.479 170.334L147.542 170.261L147.604 170.187L147.667 170.114L147.73 170.04L147.792 169.967L147.855 169.902L147.917 169.832L147.98 169.758L148.042 169.684L148.104 169.61L148.167 169.536L148.229 169.462L148.291 169.388L148.353 169.314L148.415 169.249L148.477 169.178L148.539 169.103L148.601 169.029L148.662 168.955L148.724 168.88L148.786 168.806L148.847 168.731L148.909 168.656L148.97 168.591L149.032 168.519L149.093 168.445L149.155 168.37L149.216 168.295L149.277 168.22L149.338 168.145L149.399 168.07L149.461 167.994L149.521 167.928L149.582 167.856L149.643 167.781L149.704 167.706L149.765 167.63L149.826 167.555L149.886 167.479L149.947 167.404L150.007 167.328L150.068 167.261L150.128 167.189L150.189 167.113L150.249 167.037L150.309 166.961L150.369 166.885L150.429 166.809L150.49 166.733L150.55 166.657L150.609 166.589L150.669 166.517L150.729 166.441L150.789 166.364L150.849 166.288L150.908 166.211L150.968 166.135L151.028 166.058L151.087 165.982L151.146 165.913L151.206 165.841L151.265 165.764L151.324 165.687L151.384 165.61L151.443 165.533L151.502 165.456L151.561 165.379L151.62 165.302L151.679 165.232L151.737 165.16L151.796 165.083L151.855 165.005L151.914 164.928L151.972 164.85L152.031 164.773L152.089 164.695L152.148 164.618L152.206 164.547L152.264 164.475L152.323 164.397L152.381 164.319L152.439 164.241L152.497 164.163L152.555 164.085L152.613 164.007L152.671 163.929L152.729 163.858L152.786 163.785L152.844 163.707L152.902 163.629L152.959 163.55L153.017 163.472L153.074 163.394L153.132 163.315L153.189 163.236L153.246 163.164L153.303 163.092L153.361 163.013L153.418 162.934L153.475 162.855L153.532 162.776L153.588 162.697L153.645 162.618L153.702 162.539L153.759 162.467L153.815 162.394L153.872 162.314L153.929 162.235L153.985 162.156L154.042 162.076L154.098 161.997L154.154 161.917L154.21 161.838L154.267 161.764L154.323 161.691L154.379 161.612L154.435 161.532L154.491 161.452L154.546 161.372L154.602 161.292L154.658 161.212L154.714 161.132L154.769 161.058L154.825 160.985L154.88 160.905L154.936 160.824L154.991 160.744L155.046 160.664L155.101 160.584L155.157 160.503L155.212 160.423L155.267 160.348L155.322 160.274L155.377 160.194L155.431 160.113L155.486 160.032L155.541 159.951L155.596 159.871L155.65 159.79L155.705 159.709L155.759 159.633L155.814 159.559L155.868 159.478L155.922 159.397L155.976 159.316L156.031 159.235L156.085 159.153L156.139 159.072L156.193 158.991L156.246 158.914L156.3 158.84L156.354 158.759L156.408 158.677L156.461 158.596L156.515 158.514L156.568 158.432L156.622 158.351L156.675 158.269L156.729 158.192L156.782 158.118L156.835 158.036L156.888 157.953L156.941 157.871L156.994 157.789L157.047 157.707L157.1 157.625L157.153 157.543L157.205 157.465L157.258 157.391L157.311 157.308L157.363 157.226L157.416 157.143L157.468 157.061L157.52 156.978L157.573 156.895L157.625 156.813L157.677 156.734L157.729 156.659L157.781 156.577L157.833 156.494L157.885 156.411L157.936 156.328L157.988 156.245L158.04 156.162L158.091 156.078L158.143 155.999L158.195 155.925L158.246 155.841L158.297 155.758L158.348 155.674L158.4 155.591L158.451 155.508L158.502 155.424L158.553 155.34L158.604 155.26L158.655 155.186L158.705 155.102L158.756 155.018L158.807 154.934L158.857 154.85L158.908 154.767L158.958 154.683L159.009 154.599L159.059 154.518L159.109 154.443L159.16 154.359L159.21 154.275L159.26 154.19L159.31 154.106L159.36 154.022L159.409 153.937L159.459 153.853L159.509 153.771L159.559 153.696L159.608 153.612L159.658 153.527L159.707 153.442L159.756 153.358L159.806 153.273L159.855 153.188L159.904 153.103L159.953 153.021L160.002 152.946L160.051 152.861L160.1 152.776L160.149 152.691L160.198 152.605L160.246 152.52L160.295 152.435L160.343 152.35L160.392 152.267L160.44 152.192L160.489 152.106L160.537 152.021L160.585 151.935L160.633 151.85L160.681 151.764L160.729 151.678L160.777 151.593L160.825 151.509L160.873 151.434L160.921 151.348L160.968 151.262L161.016 151.176L161.063 151.09L161.111 151.004L161.158 150.918L161.205 150.832L161.253 150.748L161.3 150.672L161.347 150.586L161.394 150.499L161.441 150.413L161.488 150.327L161.534 150.24L161.581 150.154L161.628 150.067L161.674 149.982L161.721 149.907L161.767 149.82L161.814 149.733L161.86 149.647L161.906 149.56L161.952 149.473L161.998 149.386L162.044 149.299L162.09 149.214L162.136 149.138L162.182 149.051L162.228 148.964L162.273 148.877L162.319 148.789L162.364 148.702L162.41 148.615L162.455 148.528L162.5 148.441L162.546 148.365L162.591 148.278L162.636 148.19L162.681 148.103L162.726 148.015L162.771 147.928L162.815 147.84L162.86 147.752L162.905 147.665L162.949 147.589L162.994 147.502L163.038 147.414L163.083 147.326L163.127 147.238L163.171 147.15L163.215 147.062L163.259 146.974L163.303 146.886L163.347 146.81L163.391 146.722L163.435 146.633L163.478 146.545L163.522 146.457L163.565 146.368L163.609 146.28L163.652 146.191L163.696 146.103L163.739 146.027L163.782 145.938L163.825 145.85L163.868 145.761L163.911 145.672L163.954 145.584L163.997 145.495L164.039 145.406L164.082 145.317L164.125 145.24L164.167 145.152L164.21 145.063L164.252 144.974L164.294 144.884L164.336 144.795L164.378 144.706L164.421 144.617L164.463 144.528L164.504 144.45L164.546 144.362L164.588 144.272L164.63 144.183L164.671 144.093L164.713 144.004L164.754 143.914L164.796 143.825L164.837 143.735L164.878 143.657L164.919 143.568L164.96 143.478L165.001 143.389L165.042 143.299L165.083 143.209L165.124 143.119L165.165 143.029L165.205 142.939L165.246 142.861L165.286 142.772L165.326 142.681L165.367 142.591L165.407 142.501L165.447 142.411L165.487 142.321L165.527 142.23L165.567 142.14L165.607 142.061L165.647 141.972L165.686 141.881L165.726 141.791L165.766 141.7L165.805 141.61L165.844 141.519L165.884 141.428L165.923 141.338L165.962 141.258L166.001 141.169L166.04 141.078L166.079 140.987L166.118 140.896L166.157 140.805L166.195 140.714L166.234 140.623L166.273 140.532L166.311 140.452L166.349 140.362L166.388 140.271L166.426 140.18L166.464 140.089L166.502 139.998L166.54 139.906L166.578 139.815L166.616 139.724L166.654 139.642L166.691 139.553L166.729 139.462L166.766 139.37L166.804 139.279L166.841 139.187L166.878 139.095L166.916 139.004L166.953 138.912L166.99 138.83L167.027 138.741L167.064 138.649L167.1 138.557L167.137 138.465L167.174 138.373L167.21 138.281L167.247 138.189L167.283 138.097L167.319 138.015L167.356 137.926L167.392 137.833L167.428 137.741L167.464 137.649L167.5 137.557L167.536 137.464L167.572 137.372L167.607 137.28L167.643 137.197L167.678 137.107L167.714 137.015L167.749 136.922L167.785 136.83L167.82 136.737L167.855 136.645L167.89 136.552L167.925 136.459L167.96 136.376L167.994 136.286L168.029 136.193L168.064 136.101L168.098 136.008L168.133 135.915L168.167 135.822L168.202 135.729L168.236 135.636L168.27 135.552L168.304 135.462L168.338 135.369L168.372 135.276L168.406 135.183L168.439 135.09L168.473 134.996L168.507 134.903L168.54 134.81L168.574 134.725L168.607 134.636L168.64 134.542L168.673 134.449L168.706 134.355L168.74 134.262L168.772 134.168L168.805 134.075L168.838 133.981L168.871 133.896L168.903 133.806L168.936 133.712L168.968 133.619L169.001 133.525L169.033 133.431L169.065 133.337L169.097 133.243L169.129 133.149L169.161 133.063L169.193 132.974L169.225 132.88L169.256 132.786L169.288 132.692L169.319 132.598L169.351 132.504L169.382 132.409L169.414 132.315L169.445 132.229L169.476 132.139L169.507 132.045L169.538 131.951L169.569 131.856L169.599 131.762L169.63 131.667L169.661 131.573L169.691 131.478L169.722 131.391L169.752 131.302L169.782 131.207L169.812 131.113L169.842 131.018L169.872 130.923L169.902 130.829L169.932 130.734L169.962 130.639L169.992 130.551L170.021 130.462L170.051 130.367L170.08 130.272L170.109 130.177L170.139 130.082L170.168 129.987L170.197 129.892L170.226 129.797L170.255 129.709L170.284 129.62L170.312 129.525L170.341 129.429L170.37 129.334L170.398 129.239L170.427 129.144L170.455 129.048L170.483 128.953L170.511 128.864L170.539 128.775L170.567 128.68L170.595 128.584L170.623 128.489L170.651 128.393L170.678 128.298L170.706 128.202L170.733 128.107L170.761 128.017L170.788 127.928L170.815 127.832L170.842 127.736L170.869 127.641L170.896 127.545L170.923 127.449L170.95 127.353L170.976 127.258L171.003 127.168L171.029 127.078L171.056 126.983L171.082 126.887L171.108 126.791L171.135 126.695L171.161 126.599L171.187 126.503L171.213 126.407L171.238 126.316L171.264 126.227L171.29 126.131L171.315 126.035L171.341 125.938L171.366 125.842L171.391 125.746L171.416 125.65L171.442 125.553L171.467 125.462L171.492 125.373L171.516 125.277L171.541 125.18L171.566 125.084L171.59 124.987L171.615 124.891L171.639 124.794L171.664 124.698L171.688 124.606L171.712 124.517L171.736 124.421L171.76 124.324L171.784 124.227L171.808 124.131L171.831 124.034L171.855 123.937L171.878 123.84L171.902 123.748L171.925 123.659L171.948 123.562L171.972 123.466L171.995 123.369L172.018 123.272L172.04 123.175L172.063 123.078L172.086 122.981L172.109 122.888L172.131 122.799L172.154 122.702L172.176 122.605L172.198 122.508L172.22 122.411L172.242 122.314L172.264 122.217L172.286 122.12L172.308 122.027L172.33 121.938L172.352 121.84L172.373 121.743L172.395 121.646L172.416 121.548L172.437 121.451L172.458 121.354L172.48 121.256L172.501 121.163L172.521 121.074L172.542 120.976L172.563 120.879L172.584 120.781L172.604 120.684L172.625 120.586L172.645 120.489L172.665 120.391L172.686 120.297L172.706 120.208L172.726 120.111L172.746 120.013L172.765 119.915L172.785 119.818L172.805 119.72L172.824 119.622L172.844 119.524L172.863 119.43L172.883 119.341L172.902 119.243L172.921 119.145L172.94 119.047L172.959 118.95L172.978 118.852L172.996 118.754L173.015 118.656L173.034 118.561L173.052 118.472L173.07 118.374L173.089 118.276L173.107 118.178L173.125 118.08L173.143 117.982L173.161 117.884L173.179 117.786L173.196 117.69L173.214 117.602L173.232 117.503L173.249 117.405L173.266 117.307L173.284 117.209L173.301 117.111L173.318 117.012L173.335 116.914L173.352 116.818L173.369 116.73L173.385 116.631L173.402 116.533L173.418 116.435L173.435 116.336L173.451 116.238L173.468 116.139L173.484 116.041L173.5 115.944L173.516 115.856L173.532 115.758L173.547 115.659L173.563 115.561L173.579 115.462L173.594 115.363L173.61 115.265L173.625 115.166L173.64 115.069L173.655 114.981L173.67 114.883L173.685 114.784L173.7 114.685L173.715 114.587L173.73 114.488L173.744 114.389L173.759 114.29L173.773 114.193L173.787 114.105L173.801 114.006L173.816 113.907L173.83 113.809L173.844 113.71L173.857 113.611L173.871 113.512L173.885 113.413L173.898 113.316L173.912 113.228L173.925 113.129L173.938 113.03L173.951 112.931L173.965 112.832L173.977 112.733L173.99 112.634L174.003 112.535L174.016 112.437L174.028 112.349L174.041 112.25L174.053 112.151L174.066 112.052L174.078 111.953L174.09 111.853L174.102 111.754L174.114 111.655L174.126 111.557L174.138 111.469L174.149 111.37L174.161 111.271L174.172 111.172L174.184 111.072L174.195 110.973L174.206 110.874L174.217 110.775L174.228 110.676L174.239 110.589L174.25 110.489L174.26 110.39L174.271 110.291L174.282 110.191L174.292 110.092L174.302 109.992L174.313 109.893L174.323 109.794L174.333 109.707L174.343 109.607L174.353 109.508L174.362 109.408L174.372 109.309L174.381 109.21L174.391 109.11L174.4 109.011L174.41 108.911L174.419 108.824L174.428 108.725L174.437 108.625L174.446 108.526L174.454 108.426L174.463 108.326L174.472 108.227L174.48 108.127L174.489 108.028L174.497 107.94L174.505 107.841L174.513 107.741L174.521 107.642L174.529 107.542L174.537 107.443L174.545 107.343L174.552 107.243L174.56 107.144L174.567 107.056L174.575 106.957L174.582 106.857L174.589 106.757L174.596 106.658L174.603 106.558L174.61 106.458L174.617 106.359L174.623 106.259L174.63 106.171L174.636 106.072L174.643 105.972L174.649 105.872L174.655 105.773L174.661 105.673L174.667 105.573L174.673 105.473L174.679 105.373L174.685 105.285L174.69 105.186L174.696 105.087L174.701 104.987L174.707 104.887L174.712 104.787L174.717 104.687L174.722 104.587L174.727 104.488L174.732 104.399L174.736 104.3L174.741 104.201L174.746 104.101L174.75 104.001L174.754 103.901L174.759 103.801L174.763 103.701L174.767 103.601L174.771 103.512L174.775 103.414L174.778 103.314L174.782 103.214L174.786 103.114L174.789 103.014L174.792 102.914L174.796 102.815L174.799 102.715L174.802 102.625L174.805 102.527L174.808 102.427L174.811 102.327L174.813 102.227L174.816 102.127L174.818 102.027L174.821 101.928L174.823 101.828L174.825 101.738L174.827 101.64L174.829 101.54L174.831 101.44L174.833 101.34L174.835 101.24L174.836 101.14L174.838 101.04L174.839 100.94L174.841 100.85L174.842 100.753L174.843 100.653L174.844 100.553L174.845 100.453L174.846 100.353L174.846 100.253L174.847 100.153L174.848 100.053L174.848 99.9627L174.848 99.8656L174.849 99.7656L174.849 99.6657L174.849 99.5657L174.849 99.4657L174.848 99.3657L174.848 99.2657L174.848 99.1657L174.847 99.0751L174.847 98.9783L174.846 98.8783L174.845 98.7783L174.844 98.6784L174.843 98.5784L174.842 98.4784L174.841 98.3784L174.84 98.2785L174.839 98.1875L174.837 98.091L174.836 97.991L174.834 97.8911L174.832 97.7911L174.83 97.6911L174.828 97.5912L174.826 97.4912L174.824 97.3913L174.822 97.3L174.82 97.2038L174.817 97.1039L174.815 97.004L174.812 96.904L174.809 96.8041L174.806 96.7041L174.803 96.6042L174.8 96.5043L174.797 96.4128L174.794 96.3169L174.791 96.217L174.787 96.1171L174.784 96.0172L174.78 95.9173L174.776 95.8174L174.773 95.7175L174.769 95.6176L174.765 95.5258L174.76 95.4303L174.756 95.3304L174.752 95.2305L174.747 95.1307L174.743 95.0308L174.738 94.9309L174.734 94.8311L174.729 94.7312L174.724 94.6393L174.719 94.5441L174.714 94.4442L174.709 94.3444L174.703 94.2446L174.698 94.1447L174.692 94.0449L174.687 93.9451L174.681 93.8453L174.675 93.7531L174.669 93.6583L174.663 93.5585L174.657 93.4587L174.651 93.3589L174.645 93.2592L174.638 93.1594L174.632 93.0597L174.625 92.96L174.618 92.8675L174.612 92.773L174.605 92.6733L174.598 92.5736L174.591 92.4739L174.583 92.3742L174.576 92.2746L174.569 92.1749L174.561 92.0752L174.554 91.9826L174.546 91.8884L174.538 91.7888L174.53 91.6892L174.522 91.5896L174.514 91.4899L174.506 91.3903L174.498 91.2908L174.489 91.1912L174.481 91.0983L174.472 91.0045L174.464 90.905L174.455 90.8055L174.446 90.7059L174.437 90.6064L174.428 90.5069L174.419 90.4074L174.409 90.3079L174.4 90.2148L174.391 90.1215L174.381 90.022L174.371 89.9225L174.362 89.8231L174.352 89.7237L174.342 89.6243L174.332 89.5249L174.322 89.4255L174.311 89.3322L174.301 89.2392L174.29 89.1399L174.28 89.0405L174.269 88.9412L174.258 88.8419L174.248 88.7426L174.237 88.6433L174.226 88.544L174.214 88.4506L174.203 88.358L174.192 88.2587L174.18 88.1595L174.169 88.0603L174.157 87.9611L174.145 87.8619L174.134 87.7627L174.122 87.6635L174.11 87.57L174.098 87.4778L174.085 87.3786L174.073 87.2795L174.06 87.1804L174.048 87.0813L174.035 86.9823L174.023 86.8832L174.01 86.7842L173.997 86.6904L173.984 86.5987L173.971 86.4997L173.957 86.4007L173.944 86.3017L173.931 86.2028L173.917 86.1038L173.904 86.0049L173.89 85.906L173.876 85.8121L173.862 85.7208L173.848 85.6219L173.834 85.5231L173.82 85.4242L173.806 85.3254L173.791 85.2266L173.777 85.1279L173.762 85.0291L173.747 84.9351L173.733 84.8441L173.718 84.7454L173.703 84.6467L173.688 84.5481L173.672 84.4494L173.657 84.3508L173.642 84.2522L173.626 84.1535L173.611 84.0594L173.595 83.9689L173.579 83.8703L173.564 83.7718L173.548 83.6733L173.532 83.5748L173.515 83.4763L173.499 83.3778L173.483 83.2794L173.466 83.1851L173.45 83.095L173.433 82.9967L173.416 82.8983L173.4 82.7999L173.383 82.7016L173.366 82.6033L173.349 82.505L173.331 82.4067L173.314 82.3123L173.297 82.2227L173.279 82.1245L173.262 82.0263L173.244 81.9282L173.226 81.83L173.208 81.7319L173.19 81.6338L173.172 81.5357L173.154 81.4412L173.136 81.3521L173.117 81.254L173.099 81.156L173.08 81.058L173.062 80.96L173.043 80.8621L173.024 80.7642L173.005 80.6662L172.986 80.5716L172.967 80.483L172.948 80.3851L172.928 80.2873L172.909 80.1895L172.889 80.0918L172.87 79.994L172.85 79.8963L172.83 79.7985L172.81 79.7038L172.79 79.6157L172.77 79.5181L172.75 79.4204L172.73 79.3228L172.709 79.2253L172.689 79.1277L172.668 79.0302L172.648 78.9326L172.627 78.8378L172.606 78.7502L172.585 78.6528L172.564 78.5553L172.543 78.458L172.522 78.3606L172.501 78.2632L172.479 78.1659L172.458 78.0686L172.436 77.9737L172.414 77.8866L172.393 77.7893L172.371 77.6922L172.349 77.595L172.327 77.4978L172.304 77.4007L172.282 77.3036L172.26 77.2065L172.237 77.1116L172.215 77.0249L172.192 76.9279L172.169 76.8309L172.147 76.734L172.124 76.6371L172.101 76.5402L172.078 76.4433L172.054 76.3464L172.031 76.2514L172.008 76.1653L171.984 76.0685L171.961 75.9718L171.937 75.875L171.913 75.7784L171.89 75.6817L171.866 75.585L171.842 75.4884L171.817 75.3934L171.793 75.3078L171.769 75.2112L171.744 75.1147L171.72 75.0182L171.695 74.9218L171.671 74.8253L171.646 74.7289L171.621 74.6325L171.596 74.5375L171.571 74.4524L171.546 74.3561L171.521 74.2598L171.495 74.1636L171.47 74.0674L171.444 73.9712L171.419 73.875L171.393 73.7789L171.367 73.6838L171.342 73.5992L171.316 73.5032L171.29 73.4072L171.263 73.3112L171.237 73.2152L171.211 73.1193L171.184 73.0234L171.158 72.9275L171.131 72.8324L171.105 72.7484L171.078 72.6526L171.051 72.5568L171.024 72.4611L170.997 72.3654L170.97 72.2697L170.943 72.1741L170.915 72.0785L170.888 71.9833L170.86 71.8999L170.833 71.8043L170.805 71.7089L170.777 71.6134L170.75 71.5179L170.722 71.4226L170.694 71.3272L170.666 71.2318L170.637 71.1367L170.609 71.0537L170.581 70.9585L170.552 70.8633L170.524 70.7681L170.495 70.6729L170.466 70.5778L170.437 70.4827L170.408 70.3877L170.379 70.2926L170.35 70.2099L170.321 70.1152L170.292 70.0202L170.263 69.9253L170.233 69.8304L170.203 69.7356L170.174 69.6408L170.144 69.546L170.114 69.4512L170.084 69.3686L170.054 69.2743L170.024 69.1797L169.994 69.0851L169.964 68.9905L169.934 68.8959L169.903 68.8014L169.873 68.7069L169.842 68.6124L169.811 68.5298L169.781 68.4361L169.75 68.3417L169.719 68.2474L169.688 68.1531L169.657 68.0589L169.626 67.9646L169.594 67.8704L169.563 67.7763L169.532 67.6936L169.5 67.6005L169.468 67.5065L169.437 67.4124L169.405 67.3184L169.373 67.2245L169.341 67.1305L169.309 67.0366L169.277 66.9428L169.245 66.8601L169.212 66.7676L169.18 66.6739L169.147 66.5801L169.115 66.4864L169.082 66.3928L169.049 66.2991L169.017 66.2056L168.984 66.112L168.951 66.0294L168.918 65.9375L168.884 65.844L168.851 65.7506L168.818 65.6572L168.784 65.5639L168.751 65.4706L168.717 65.3773L168.684 65.284L168.65 65.2014L168.616 65.1102L168.582 65.017L168.548 64.9239L168.514 64.8308L168.48 64.7378L168.446 64.6448L168.411 64.5518L168.377 64.4589L168.342 64.3763L168.308 64.2856L168.273 64.1928L168.238 64.1L168.204 64.0073L168.169 63.9146L168.134 63.8219L168.099 63.7292L168.063 63.6367L168.028 63.5541L167.993 63.464L167.957 63.3716L167.922 63.2791L167.886 63.1866L167.851 63.0943L167.815 63.0019L167.779 62.9096L167.743 62.8173L167.707 62.7348L167.671 62.6454L167.635 62.5532L167.599 62.4611L167.563 62.369L167.526 62.2769L167.49 62.1849L167.453 62.0929L167.417 62.001L167.38 61.9185L167.343 61.8297L167.306 61.7379L167.269 61.6461L167.232 61.5543L167.195 61.4626L167.158 61.3709L167.121 61.2793L167.083 61.1877L167.046 61.1052L167.008 61.0171L166.971 60.9255L166.933 60.8341L166.895 60.7427L166.857 60.6513L166.82 60.56L166.782 60.4687L166.744 60.3774L166.705 60.295L166.667 60.2075L166.629 60.1163L166.59 60.0252L166.552 59.9341L166.513 59.8431L166.475 59.7521L166.436 59.6611L166.397 59.5702L166.358 59.4879L166.32 59.401L166.281 59.3102L166.241 59.2194L166.202 59.1287L166.163 59.038L166.124 58.9474L166.084 58.8567L166.045 58.7662L166.005 58.684L165.966 58.5976L165.926 58.5072L165.886 58.4168L165.846 58.3264L165.806 58.2361L165.766 58.1458L165.726 58.0555L165.686 57.9653L165.646 57.8831L165.606 57.7975L165.565 57.7074L165.525 57.6173L165.484 57.5273L165.444 57.4373L165.403 57.3474L165.362 57.2575L165.321 57.1677L165.28 57.0855L165.239 57.0005L165.198 56.9108L165.157 56.8211L165.116 56.7314L165.074 56.6418L165.033 56.5522L164.992 56.4627L164.95 56.3732L164.909 56.2912L164.867 56.2068L164.825 56.1175L164.783 56.0281L164.741 55.9388L164.699 55.8496L164.657 55.7603L164.615 55.6712L164.573 55.5821L164.531 55.5001L164.488 55.4164L164.446 55.3274L164.403 55.2384L164.361 55.1495L164.318 55.0606L164.276 54.9718L164.233 54.883L164.19 54.7942L164.147 54.7124L164.104 54.6293L164.061 54.5407L164.018 54.4521L163.974 54.3635L163.931 54.275L163.888 54.1865L163.844 54.0981L163.801 54.0097L163.757 53.9279L163.714 53.8456L163.67 53.7573L163.626 53.6691L163.582 53.5809L163.538 53.4927L163.494 53.4047L163.45 53.3166L163.406 53.2286L163.362 53.1469L163.317 53.0652L163.273 52.9773L163.229 52.8894L163.184 52.8016L163.139 52.7138L163.095 52.6261L163.05 52.5385L163.005 52.4508L162.96 52.3692L162.915 52.2882L162.87 52.2006L162.825 52.1132L162.78 52.0258L162.735 51.9384L162.69 51.851L162.644 51.7638L162.599 51.6765L162.553 51.595L162.508 51.5146L162.462 51.4274L162.416 51.3404L162.37 51.2534L162.325 51.1663L162.279 51.0794L162.233 50.9925L162.187 50.9056L162.14 50.8242L162.094 50.7445L162.048 50.6577L162.002 50.571L161.955 50.4844L161.909 50.3977L161.862 50.3112L161.816 50.2247L161.769 50.1381L161.722 50.0569L161.675 49.9778L161.629 49.8914L161.581 49.8052L161.534 49.7189L161.487 49.6326L161.44 49.5465L161.393 49.4603L161.346 49.3742L161.298 49.293L161.251 49.2147L161.203 49.1287L161.156 49.0428L161.108 48.9569L161.061 48.871L161.013 48.7853L160.965 48.6995L160.917 48.6138L160.869 48.5327L160.821 48.455L160.773 48.3694L160.725 48.2839L160.677 48.1985L160.628 48.113L160.58 48.0276L160.531 47.9423L160.483 47.8569L160.434 47.776L160.386 47.6989L160.337 47.6137L160.288 47.5286L160.239 47.4435L160.191 47.3585L160.142 47.2735L160.093 47.1885L160.044 47.1036L159.994 47.0227L159.945 46.9464L159.896 46.8616L159.847 46.7769L159.797 46.6922L159.748 46.6075L159.698 46.5229L159.648 46.4384L159.599 46.3538L159.549 46.2731L159.499 46.1975L159.449 46.113L159.4 46.0287L159.35 45.9445L159.3 45.8602L159.249 45.776L159.199 45.6918L159.149 45.6077L159.099 45.5271L159.048 45.4521L158.998 45.3681L158.947 45.2842L158.897 45.2003L158.846 45.1164L158.795 45.0326L158.745 44.9489L158.694 44.8651L158.643 44.7846L158.592 44.7104L158.541 44.6268L158.49 44.5433L158.439 44.4598L158.388 44.3763L158.336 44.2929L158.285 44.2096L158.234 44.1262L158.182 44.0458L158.131 43.9723L158.079 43.8891L158.028 43.806L157.976 43.7229L157.924 43.6398L157.872 43.5568L157.821 43.4739L157.769 43.391L157.717 43.3107L157.665 43.2378L157.612 43.155L157.56 43.0723L157.508 42.9897L157.456 42.907L157.403 42.8244L157.351 42.7419L157.299 42.6594L157.246 42.5792L157.193 42.507L157.141 42.4247L157.088 42.3423L157.035 42.2601L156.982 42.1779L156.93 42.0956L156.877 42.0136L156.824 41.9315L156.77 41.8514L156.717 41.7799L156.664 41.698L156.611 41.616L156.558 41.5342L156.504 41.4524L156.451 41.3706L156.397 41.2889L156.344 41.2072L156.29 41.1273L156.236 41.0565L156.183 40.975L156.129 40.8935L156.075 40.812L156.021 40.7307L155.967 40.6493L155.913 40.568L155.859 40.4867L155.805 40.4069L155.751 40.3368L155.696 40.2557L155.642 40.1746L155.588 40.0936L155.533 40.0126L155.479 39.9317L155.424 39.8507L155.37 39.7699L155.315 39.6902L155.26 39.6208L155.205 39.5401L155.151 39.4595L155.096 39.3788L155.041 39.2983L154.986 39.2178L154.931 39.1372L154.876 39.0568L154.82 38.9773L154.765 38.9086L154.71 38.8283L154.655 38.7481L154.599 38.6678L154.544 38.5877L154.488 38.5076L154.433 38.4275L154.377 38.3475L154.321 38.2681L154.266 38.2001L154.21 38.1202L154.154 38.0404L154.098 37.9606L154.042 37.8809L153.986 37.8012L153.93 37.7216L153.874 37.6419L153.818 37.5627L153.761 37.4954L153.705 37.4159L153.649 37.3365L153.592 37.2572L153.536 37.1778L153.479 37.0986L153.423 37.0194L153.366 36.9402L153.309 36.861L153.253 36.7944L153.196 36.7154L153.139 36.6364L153.082 36.5575L153.025 36.4786L152.968 36.3997L152.911 36.3209L152.854 36.2422L152.797 36.1634L152.739 36.097L152.682 36.0187L152.625 35.9401L152.567 35.8616L152.51 35.7831L152.452 35.7046L152.395 35.6263L152.337 35.548L152.28 35.4696L152.222 35.4033L152.164 35.3258L152.106 35.2476L152.048 35.1695L151.99 35.0914L151.933 35.0134L151.874 34.9355L151.816 34.8576L151.758 34.7797L151.7 34.7135L151.642 34.6366L151.583 34.5589L151.525 34.4812L151.467 34.4036L151.408 34.326L151.35 34.2484L151.291 34.171L151.233 34.0935L151.174 34.0274L151.115 33.9513L151.056 33.874L150.998 33.7967L150.939 33.7195L150.88 33.6424L150.821 33.5653L150.762 33.4882L150.703 33.4112L150.643 33.3453L150.584 33.2698L150.525 33.193L150.466 33.1161L150.406 33.0393L150.347 32.9626L150.288 32.886L150.228 32.8093L150.169 32.7327L150.109 32.667L150.049 32.5922L149.99 32.5158L149.93 32.4394L149.87 32.363L149.81 32.2867L149.75 32.2105L149.69 32.1343L149.63 32.0581L149.57 31.9925L149.51 31.9184L149.45 31.8424L149.39 31.7665L149.329 31.6906L149.269 31.6146L149.209 31.5388L149.148 31.4631L149.088 31.3873L149.027 31.3218L148.967 31.2486L148.906 31.173L148.846 31.0974L148.785 31.0219L148.724 30.9465L148.663 30.8711L148.602 30.7958L148.541 30.7205L148.481 30.6551L148.419 30.5825L148.358 30.5074L148.297 30.4322L148.236 30.3572L148.175 30.2822L148.114 30.2072L148.052 30.1323L147.991 30.0575L147.93 29.9922L147.868 29.9204L147.807 29.8457L147.745 29.771L147.684 29.6963L147.622 29.6218L147.56 29.5473L147.499 29.4728L147.437 29.3984L147.375 29.3333L147.313 29.2621L147.251 29.1879L147.189 29.1137L147.127 29.0394L147.065 28.9653L147.003 28.8912L146.941 28.8172L146.878 28.7432L146.816 28.6783L146.754 28.6079L146.691 28.534L146.629 28.4602L146.567 28.3865L146.504 28.3127L146.441 28.2391L146.379 28.1655L146.316 28.0919L146.254 28.0271L146.191 27.9575L146.128 27.884L146.065 27.8107L146.002 27.7374L145.939 27.6641L145.876 27.5908L145.813 27.5177L145.75 27.4446L145.687 27.38L145.624 27.311L145.561 27.2381L145.497 27.1651L145.434 27.0922L145.371 27.0194L145.307 26.9466L145.244 26.8739L145.18 26.8012L145.117 26.7368L145.053 26.6685L144.99 26.596L144.926 26.5235L144.862 26.451L144.798 26.3787L144.735 26.3064L144.671 26.234L144.607 26.1618L144.543 26.0975L144.479 26.03L144.415 25.9579L144.351 25.8859L144.287 25.8139L144.222 25.7419L144.158 25.67L144.094 25.5982L144.03 25.5263L143.965 25.4622L143.901 25.3954L143.836 25.3238L143.772 25.2522L143.707 25.1806L143.643 25.1091L143.578 25.0376L143.513 24.9663L143.449 24.8949L143.384 24.8309L143.319 24.7649L143.254 24.6937L143.189 24.6225L143.124 24.5514L143.059 24.4804L142.994 24.4093L142.929 24.3384L142.864 24.2675L142.799 24.2036L142.734 24.1383L142.668 24.0676L142.603 23.9969L142.538 23.9261L142.472 23.8556L142.407 23.785L142.341 23.7145L142.276 23.6441L142.21 23.5804L142.145 23.5158L142.079 23.4455L142.013 23.3752L141.948 23.305L141.882 23.2348L141.816 23.1647L141.75 23.0947L141.684 23.0246L141.618 22.9611L141.552 22.8973L141.486 22.8274L141.42 22.7576L141.354 22.6879L141.288 22.6182L141.221 22.5485L141.155 22.4789L141.089 22.4093L141.023 22.3459L140.956 22.2829L140.89 22.2135L140.823 22.1441L140.757 22.0748L140.69 22.0055L140.623 21.9363L140.557 21.8671L140.49 21.7981L140.423 21.7349L140.357 21.6725L140.29 21.6036L140.223 21.5346L140.156 21.4657L140.089 21.397L140.022 21.3282L139.955 21.2595L139.888 21.1909L139.821 21.1279L139.754 21.0662L139.686 20.9977L139.619 20.9293L139.552 20.8609L139.484 20.7925L139.417 20.7243L139.35 20.656L139.282 20.5878L139.215 20.5249L139.147 20.4641L139.08 20.396L139.012 20.328L138.944 20.2601L138.877 20.1922L138.809 20.1243L138.741 20.0566L138.673 19.9889L138.605 19.9261L138.537 19.866L138.469 19.7985L138.401 19.7309L138.333 19.6634L138.265 19.596L138.197 19.5286L138.129 19.4613L138.061 19.3941L137.992 19.3315L137.924 19.2721L137.856 19.2051L137.787 19.138L137.719 19.0709L137.65 19.004L137.582 18.9371L137.513 18.8702L137.445 18.8034L137.376 18.7411L137.308 18.6824L137.239 18.6158L137.17 18.5492L137.101 18.4827L137.033 18.4161L136.964 18.3497L136.895 18.2833L136.826 18.2169L136.757 18.1548L136.688 18.097L136.619 18.0307L136.55 17.9646L136.48 17.8986L136.411 17.8325L136.342 17.7665L136.273 17.7006L136.203 17.6347L136.134 17.5727L136.065 17.5157L135.995 17.45L135.926 17.3842L135.856 17.3187L135.787 17.2531L135.717 17.1876L135.647 17.1221L135.578 17.0568L135.508 16.995L135.438 16.9386L135.368 16.8734L135.299 16.8082L135.229 16.743L135.159 16.678L135.089 16.613L135.019 16.5479L134.949 16.483L134.879 16.4215L134.809 16.3658L134.738 16.3011L134.668 16.2364L134.598 16.1717L134.528 16.1071L134.457 16.0426L134.387 15.9781L134.317 15.9136L134.246 15.8522L134.176 15.7974L134.105 15.7331L134.035 15.6689L133.964 15.6047L133.893 15.5406L133.823 15.4765L133.752 15.4125L133.681 15.3485L133.611 15.2873L133.54 15.2333L133.469 15.1695L133.398 15.1057L133.327 15.042L133.256 14.9784L133.185 14.9148L133.114 14.8513L133.043 14.7878L132.972 14.7268L132.901 14.6735L132.829 14.6102L132.758 14.5469L132.687 14.4837L132.615 14.4206L132.544 14.3575L132.473 14.2944L132.401 14.2314L132.33 14.1707L132.258 14.1181L132.187 14.0553L132.115 13.9926L132.043 13.9298L131.972 13.8671L131.9 13.8046L131.828 13.742L131.757 13.6795L131.685 13.6189L131.613 13.5672L131.541 13.5048L131.469 13.4426L131.397 13.3804L131.325 13.3182L131.253 13.2561L131.181 13.1941L131.109 13.1321L131.036 13.0717L130.964 13.0208L130.892 12.9589L130.82 12.8971L130.747 12.8355L130.675 12.7738L130.603 12.7121L130.53 12.6506L130.458 12.5891L130.385 12.5289L130.313 12.4788L130.24 12.4175L130.167 12.3562L130.095 12.295L130.022 12.2339L129.949 12.1728L129.877 12.1117L129.804 12.0507L129.731 11.9908L129.658 11.9414L129.585 11.8806L129.512 11.8199L129.439 11.7591L129.366 11.6985L129.293 11.6379L129.22 11.5774L129.147 11.5169L129.073 11.4572L129 11.4086L128.927 11.3483L128.854 11.2881L128.78 11.2279L128.707 11.1677L128.633 11.1077L128.56 11.0477L128.487 10.9877L128.413 10.9283L128.339 10.8805L128.266 10.8207L128.192 10.761L128.118 10.7013L128.045 10.6417L127.971 10.5822L127.897 10.5227L127.823 10.4632L127.75 10.404L127.676 10.3571L127.602 10.2978L127.528 10.2386L127.454 10.1795L127.392 10.1329Z" fill="white"/>
</svg>
