<svg width="200" height="200" viewBox="0 0 200 200" fill="none" xmlns="http://www.w3.org/2000/svg">
<path d="M104.269 0.747795L104.28 0.839549L104.292 0.931311L104.304 0.957632L104.315 1.02741L104.327 1.11921L104.339 1.21103L104.351 1.30285L104.362 1.37325L104.374 1.39907L104.386 1.49092L104.397 1.5828L104.409 1.67469L104.421 1.76658L104.433 1.7936L104.444 1.86294L104.456 1.95487L104.468 2.04682L104.479 2.13878L104.491 2.20987L104.503 2.23524L104.514 2.32724L104.526 2.41923L104.538 2.51126L104.549 2.60328L104.561 2.63099L104.572 2.69989L104.584 2.79195L104.596 2.88402L104.607 2.97612L104.619 3.04792L104.631 3.07284L104.642 3.16497L104.654 3.25709L104.665 3.34924L104.677 3.4414L104.689 3.46981L104.7 3.53826L104.712 3.63046L104.723 3.72265L104.735 3.81487L104.746 3.88737L104.758 3.91185L104.77 4.00411L104.781 4.09637L104.793 4.18863L104.804 4.28093L104.816 4.31004L104.827 4.37804L104.839 4.47037L104.85 4.5627L104.862 4.65504L104.873 4.72824L104.885 4.75227L104.896 4.84465L104.908 4.93705L104.919 5.02944L104.931 5.12185L104.942 5.15167L104.954 5.21923L104.965 5.31167L104.977 5.40414L104.988 5.4966L105 5.5705L105.011 5.5941L105.022 5.68659L105.034 5.77912L105.045 5.87165L105.057 5.96417L105.068 5.99469L105.08 6.06181L105.091 6.15438L105.102 6.24697L105.114 6.33956L105.125 6.41416L105.137 6.43731L105.148 6.52994L105.159 6.62258L105.171 6.71524L105.182 6.8079L105.194 6.83911L105.205 6.90579L105.216 6.99848L105.228 7.09119L105.239 7.18392L105.25 7.2592L105.262 7.28191L105.273 7.37467L105.284 7.46743L105.296 7.56021L105.307 7.65301L105.318 7.6849L105.33 7.75114L105.341 7.84396L105.352 7.93679L105.363 8.02965L105.375 8.10563L105.386 8.12788L105.397 8.22077L105.409 8.31366L105.42 8.40656L105.431 8.49948L105.442 8.53208L105.454 8.59786L105.465 8.69081L105.476 8.78377L105.487 8.87674L105.498 8.95343L105.51 8.97523L105.521 9.06824L105.532 9.16126L105.543 9.25428L105.555 9.34733L105.566 9.38063L105.577 9.44595L105.588 9.53903L105.599 9.63211L105.61 9.7252L105.622 9.80259L105.633 9.82395L105.644 9.91707L105.655 10.0102L105.666 10.1034L105.677 10.1965L105.688 10.2305L105.7 10.2954L105.711 10.3886L105.722 10.4818L105.733 10.575L105.744 10.6531L105.755 10.674L105.766 10.7673L105.777 10.8605L105.788 10.9538L105.799 11.0471L105.81 11.0818L105.821 11.1462L105.833 11.2395L105.844 11.3328L105.855 11.4262L105.866 11.5049L105.877 11.5254L105.888 11.6188L105.899 11.7122L105.91 11.8056L105.921 11.899L105.932 11.9344L105.943 11.9983L105.954 12.0918L105.965 12.1852L105.976 12.2787L105.987 12.3582L105.998 12.3782L106.009 12.4717L106.02 12.5652L106.03 12.6587L106.041 12.7522L106.052 12.7883L106.063 12.8518L106.074 12.9454L106.085 13.0389L106.096 13.1325L106.107 13.2127L106.118 13.2322L106.129 13.3259L106.14 13.4195L106.15 13.5131L106.161 13.6068L106.172 13.6435L106.183 13.7066L106.194 13.8003L106.205 13.894L106.216 13.9877L106.226 14.0685L106.237 14.0876L106.248 14.1814L106.259 14.2751L106.27 14.3689L106.281 14.4626L106.291 14.5001L106.302 14.5627L106.313 14.6565L106.324 14.7503L106.334 14.8442L106.345 14.9257L106.356 14.9443L106.367 15.0382L106.378 15.1321L106.388 15.2259L106.399 15.3198L106.41 15.358L106.42 15.4201L106.431 15.5141L106.442 15.608L106.453 15.7019L106.463 15.7842L106.474 15.8024L106.485 15.8963L106.495 15.9903L106.506 16.0843L106.517 16.1783L106.527 16.2171L106.538 16.2789L106.549 16.3729L106.559 16.4669L106.57 16.561L106.58 16.6439L106.591 16.6617L106.602 16.7557L106.612 16.8498L106.623 16.944L106.633 17.0381L106.644 17.0776L106.655 17.1389L106.665 17.233L106.676 17.3272L106.686 17.4213L106.697 17.505L106.707 17.5222L106.718 17.6164L106.728 17.7107L106.739 17.8049L106.75 17.8991L106.76 17.9393L106.771 18.0001L106.781 18.0944L106.792 18.1887L106.802 18.283L106.812 18.3673L106.823 18.3841L106.833 18.4784L106.844 18.5727L106.854 18.6671L106.865 18.7614L106.875 18.8023L106.886 18.8627L106.896 18.9571L106.906 19.0515L106.917 19.1459L106.927 19.2308L106.938 19.2472L106.948 19.3417L106.958 19.4361L106.969 19.5306L106.979 19.625L106.99 19.6666L107 19.7265L107.01 19.821L107.021 19.9155L107.031 20.01L107.041 20.0957L107.052 20.1116L107.062 20.2061L107.072 20.3007L107.082 20.3953L107.093 20.4898L107.103 20.5321L107.113 20.5916L107.124 20.6862L107.134 20.7808L107.144 20.8754L107.154 20.9618L107.165 20.9772L107.175 21.0719L107.185 21.1666L107.195 21.2612L107.205 21.3559L107.216 21.3989L107.226 21.4579L107.236 21.5526L107.246 21.6473L107.256 21.7421L107.267 21.8291L107.277 21.8441L107.287 21.9389L107.297 22.0336L107.307 22.1284L107.317 22.2232L107.327 22.2669L107.338 22.3254L107.348 22.4202L107.358 22.5151L107.368 22.6099L107.378 22.6976L107.388 22.7122L107.398 22.8071L107.408 22.9019L107.418 22.9968L107.428 23.0918L107.438 23.1361L107.448 23.1941L107.458 23.2891L107.468 23.384L107.478 23.479L107.488 23.5674L107.498 23.5815L107.508 23.6765L107.518 23.7715L107.528 23.8665L107.538 23.9615L107.548 24.0065L107.558 24.0641L107.568 24.1591L107.578 24.2542L107.588 24.3493L107.598 24.4384L107.608 24.452L107.618 24.5471L107.628 24.6422L107.638 24.7373L107.647 24.8324L107.657 24.8781L107.667 24.9353L107.677 25.0304L107.687 25.1256L107.697 25.2208L107.707 25.3105L107.716 25.3237L107.726 25.4189L107.736 25.5141L107.746 25.6093L107.756 25.7046L107.765 25.7509L107.775 25.8076L107.785 25.9029L107.795 25.9981L107.805 26.0934L107.814 26.1839L107.824 26.1966L107.834 26.2919L107.844 26.3872L107.853 26.4825L107.863 26.5779L107.873 26.6249L107.882 26.6811L107.892 26.7765L107.902 26.8719L107.911 26.9673L107.921 27.0584L107.931 27.0706L107.94 27.166L107.95 27.2615L107.96 27.3569L107.969 27.4524L107.979 27.5001L107.989 27.5558L107.998 27.6513L108.008 27.7468L108.017 27.8423L108.027 27.9341L108.037 27.9458L108.046 28.0414L108.056 28.1369L108.065 28.2324L108.075 28.328L108.084 28.3764L108.094 28.4316L108.103 28.5272L108.113 28.6228L108.122 28.7184L108.132 28.8109L108.141 28.8222L108.151 28.9178L108.16 29.0135L108.17 29.1091L108.179 29.2048L108.189 29.2539L108.198 29.3086L108.207 29.4043L108.217 29.5L108.226 29.5957L108.236 29.6889L108.245 29.6997L108.254 29.7954L108.264 29.8912L108.273 29.9869L108.283 30.0827L108.292 30.1324L108.301 30.1868L108.311 30.2826L108.32 30.3784L108.329 30.4742L108.339 30.568L108.348 30.5783L108.357 30.6742L108.366 30.77L108.376 30.8659L108.385 30.9617L108.394 31.0122L108.404 31.066L108.413 31.1619L108.422 31.2578L108.431 31.3537L108.44 31.4482L108.45 31.4581L108.459 31.554L108.468 31.65L108.477 31.7459L108.486 31.8419L108.496 31.893L108.505 31.9464L108.514 32.0424L108.523 32.1384L108.532 32.2344L108.541 32.3296L108.55 32.339L108.56 32.435L108.569 32.531L108.578 32.6271L108.587 32.7232L108.596 32.7749L108.605 32.8278L108.614 32.9239L108.623 33.02L108.632 33.1162L108.641 33.212L108.65 33.2209L108.659 33.3171L108.668 33.4132L108.677 33.5094L108.686 33.6055L108.695 33.658L108.704 33.7104L108.713 33.8066L108.722 33.9028L108.731 33.999L108.74 34.0952L108.749 34.1042L108.758 34.2002L108.767 34.2964L108.776 34.3927L108.785 34.489L108.793 34.5421L108.802 34.594L108.811 34.6903L108.82 34.7866L108.829 34.8829L108.838 34.9792L108.847 34.9889L108.855 35.0844L108.864 35.1808L108.873 35.2771L108.882 35.3735L108.891 35.4272L108.899 35.4787L108.908 35.5751L108.917 35.6715L108.926 35.7679L108.934 35.8643L108.943 35.8747L108.952 35.9697L108.961 36.0661L108.969 36.1626L108.978 36.259L108.987 36.3135L108.995 36.3645L109.004 36.461L109.013 36.5574L109.021 36.6539L109.03 36.7505L109.039 36.7615L109.047 36.856L109.056 36.9525L109.065 37.0491L109.073 37.1456L109.082 37.2007L109.09 37.2513L109.099 37.3479L109.107 37.4444L109.116 37.541L109.125 37.6376L109.133 37.6493L109.142 37.7434L109.15 37.84L109.159 37.9366L109.167 38.0333L109.176 38.089L109.184 38.1391L109.193 38.2358L109.201 38.3325L109.21 38.4291L109.218 38.5258L109.226 38.5382L109.235 38.6318L109.243 38.7285L109.252 38.8252L109.26 38.9219L109.268 38.9784L109.277 39.028L109.285 39.1247L109.294 39.2215L109.302 39.3183L109.31 39.415L109.319 39.4281L109.327 39.5212L109.335 39.618L109.344 39.7148L109.352 39.8116L109.36 39.8687L109.368 39.9178L109.377 40.0147L109.385 40.1115L109.393 40.2084L109.402 40.3053L109.41 40.319L109.418 40.4116L109.426 40.5085L109.434 40.6054L109.443 40.7023L109.451 40.76L109.459 40.8087L109.467 40.9056L109.475 41.0026L109.483 41.0995L109.492 41.1965L109.5 41.2108L109.508 41.303L109.516 41.3999L109.524 41.4969L109.532 41.5939L109.54 41.6524L109.548 41.7005L109.556 41.7975L109.564 41.8946L109.573 41.9916L109.581 42.0887L109.589 42.1037L109.597 42.1953L109.605 42.2924L109.613 42.3895L109.621 42.4866L109.629 42.5457L109.637 42.5933L109.645 42.6904L109.652 42.7875L109.66 42.8847L109.668 42.9818L109.676 42.9975L109.684 43.0886L109.692 43.1858L109.7 43.283L109.708 43.3802L109.716 43.4399L109.724 43.4871L109.731 43.5843L109.739 43.6815L109.747 43.7787L109.755 43.8759L109.763 43.8923L109.771 43.9829L109.778 44.0802L109.786 44.1774L109.794 44.2747L109.802 44.3351L109.809 44.3818L109.817 44.4791L109.825 44.5764L109.833 44.6737L109.84 44.771L109.848 44.788L109.856 44.8781L109.864 44.9755L109.871 45.0728L109.879 45.1702L109.887 45.2312L109.894 45.2774L109.902 45.3748L109.909 45.4722L109.917 45.5696L109.925 45.667L109.932 45.6846L109.94 45.7743L109.947 45.8717L109.955 45.9692L109.963 46.0666L109.97 46.1283L109.978 46.174L109.985 46.2715L109.993 46.3689L110 46.4664L110.008 46.5639L110.015 46.5822L110.023 46.6714L110.03 46.7689L110.038 46.8664L110.045 46.9639L110.053 47.0262L110.06 47.0715L110.067 47.169L110.075 47.2666L110.082 47.3641L110.09 47.4617L110.097 47.4806L110.104 47.5693L110.112 47.6669L110.119 47.7645L110.126 47.8621L110.134 47.9251L110.141 47.9698L110.148 48.0675L110.156 48.1651L110.163 48.2627L110.17 48.3604L110.178 48.38L110.185 48.4682L110.192 48.5658L110.199 48.6635L110.207 48.7612L110.214 48.8249L110.221 48.8691L110.228 48.9668L110.235 49.0645L110.243 49.1622L110.25 49.2599L110.257 49.2802L110.264 49.3679L110.271 49.4657L110.278 49.5634L110.285 49.6612L110.292 49.7255L110.3 49.7692L110.307 49.867L110.314 49.9648L110.321 50.0626L110.328 50.1604L110.335 50.1813L110.342 50.2685L110.349 50.3663L110.356 50.4641L110.363 50.562L110.37 50.6269L110.377 50.6702L110.384 50.768L110.391 50.8659L110.398 50.9638L110.405 51.0616L110.412 51.0832L110.419 51.1699L110.426 51.2678L110.432 51.3657L110.439 51.4636L110.446 51.5293L110.453 51.572L110.46 51.6699L110.467 51.7679L110.474 51.8658L110.48 51.9638L110.487 51.986L110.494 52.0722L110.501 52.1702L110.508 52.2682L110.514 52.3661L110.521 52.4324L110.528 52.4747L110.535 52.5727L110.541 52.6707L110.548 52.7687L110.555 52.8667L110.562 52.8896L110.568 52.9753L110.575 53.0734L110.582 53.1714L110.588 53.2695L110.595 53.3364L110.602 53.3781L110.608 53.4762L110.615 53.5743L110.621 53.6724L110.628 53.7705L110.635 53.794L110.641 53.8792L110.648 53.9773L110.654 54.0755L110.661 54.1736L110.667 54.2411L110.674 54.2824L110.68 54.3805L110.687 54.4787L110.693 54.5769L110.7 54.675L110.706 54.6992L110.713 54.7839L110.719 54.8821L110.726 54.9803L110.732 55.0785L110.739 55.1467L110.745 55.1874L110.751 55.2857L110.758 55.3839L110.764 55.4821L110.77 55.5804L110.777 55.6051L110.783 55.6894L110.789 55.7877L110.796 55.8859L110.802 55.9842L110.808 56.053L110.815 56.0933L110.821 56.1916L110.827 56.2899L110.834 56.3882L110.84 56.4865L110.846 56.5119L110.852 56.5956L110.858 56.694L110.865 56.7923L110.871 56.8906L110.877 56.9601L110.883 56.9999L110.889 57.0982L110.895 57.1966L110.902 57.295L110.908 57.3933L110.914 57.4194L110.92 57.5026L110.926 57.601L110.932 57.6994L110.938 57.7978L110.944 57.868L110.95 57.9072L110.956 58.0056L110.962 58.1041L110.968 58.2025L110.974 58.3009L110.98 58.3276L110.986 58.4104L110.992 58.5088L110.998 58.6073L111.004 58.7058L111.01 58.7765L111.016 58.8153L111.022 58.9138L111.028 59.0123L111.034 59.1108L111.04 59.2093L111.046 59.2366L111.051 59.3188L111.057 59.4174L111.063 59.5159L111.069 59.6144L111.075 59.6858L111.08 59.7241L111.086 59.8226L111.092 59.9212L111.098 60.0198L111.104 60.1183L111.109 60.1463L111.115 60.228L111.121 60.3266L111.127 60.4252L111.132 60.5238L111.138 60.5958L111.144 60.6336L111.149 60.7322L111.155 60.8308L111.161 60.9294L111.166 61.0281L111.172 61.0567L111.177 61.1379L111.183 61.2365L111.189 61.3352L111.194 61.4339L111.2 61.5065L111.205 61.5437L111.211 61.6424L111.216 61.7411L111.222 61.8398L111.227 61.9385L111.233 61.9677L111.238 62.0484L111.244 62.1471L111.249 62.2459L111.255 62.3446L111.26 62.4179L111.266 62.4546L111.271 62.5533L111.277 62.6521L111.282 62.7508L111.287 62.8496L111.293 62.8795L111.298 62.9596L111.303 63.0584L111.309 63.1572L111.314 63.256L111.319 63.3299L111.325 63.3661L111.33 63.4649L111.335 63.5637L111.341 63.6625L111.346 63.7613L111.351 63.7918L111.356 63.8715L111.362 63.9704L111.367 64.0692L111.372 64.168L111.377 64.2426L111.382 64.2783L111.388 64.3771L111.393 64.476L111.398 64.5749L111.403 64.6737L111.408 64.7049L111.413 64.784L111.418 64.8829L111.424 64.9818L111.429 65.0807L111.434 65.1559L111.439 65.1911L111.444 65.29L111.449 65.3889L111.454 65.4878L111.459 65.5867L111.464 65.6185L111.469 65.6972L111.474 65.7961L111.479 65.8951L111.484 65.994L111.489 66.0698L111.494 66.1045L111.499 66.2034L111.503 66.3024L111.508 66.4014L111.513 66.5004L111.518 66.5328L111.523 66.6109L111.528 66.7099L111.533 66.8089L111.537 66.9079L111.542 66.9843L111.547 67.0185L111.552 67.1175L111.557 67.2165L111.561 67.3156L111.566 67.4146L111.571 67.4476L111.576 67.5252L111.58 67.6243L111.585 67.7233L111.59 67.8224L111.594 67.8994L111.599 67.933L111.604 68.0321L111.608 68.1312L111.613 68.2303L111.618 68.3294L111.622 68.363L111.627 68.4401L111.632 68.5392L111.636 68.6383L111.641 68.7374L111.645 68.8151L111.65 68.8482L111.654 68.9473L111.659 69.0465L111.663 69.1456L111.668 69.2448L111.672 69.279L111.677 69.3556L111.681 69.4547L111.686 69.5539L111.69 69.653L111.695 69.7313L111.699 69.7639L111.703 69.8631L111.708 69.9623L111.712 70.0615L111.717 70.1607L111.721 70.1955L111.725 70.2716L111.73 70.3708L111.734 70.47L111.738 70.5692L111.743 70.6481L111.747 70.6802L111.751 70.7794L111.755 70.8786L111.76 70.9779L111.764 71.0771L111.768 71.1126L111.772 71.1881L111.777 71.2874L111.781 71.3866L111.785 71.4859L111.789 71.5654L111.793 71.5969L111.797 71.6962L111.802 71.7955L111.806 71.8948L111.81 71.994L111.814 72.0302L111.818 72.1051L111.822 72.2044L111.826 72.3037L111.83 72.4031L111.834 72.4832L111.838 72.5142L111.842 72.6135L111.846 72.7128L111.85 72.8122L111.854 72.9115L111.858 72.9482L111.862 73.0227L111.866 73.122L111.87 73.2214L111.874 73.3207L111.878 73.4015L111.882 73.432L111.886 73.5313L111.889 73.6307L111.893 73.7301L111.897 73.8294L111.901 73.8668L111.905 73.9407L111.909 74.0401L111.912 74.1395L111.916 74.2389L111.92 74.3203L111.924 74.3502L111.928 74.4496L111.931 74.549L111.935 74.6484L111.939 74.7478L111.942 74.7858L111.946 74.8592L111.95 74.9586L111.953 75.0581L111.957 75.1575L111.961 75.2395L111.964 75.2689L111.968 75.3683L111.972 75.4678L111.975 75.5672L111.979 75.6667L111.982 75.7053L111.986 75.7782L111.989 75.8776L111.993 75.9771L111.997 76.0766L112 76.1592L112.004 76.188L112.007 76.2875L112.011 76.387L112.014 76.4865L112.017 76.586L112.021 76.6252L112.024 76.6975L112.028 76.797L112.031 76.8965L112.034 76.9961L112.038 77.0793L112.041 77.1076L112.045 77.2071L112.048 77.3067L112.051 77.4062L112.055 77.5057L112.058 77.5455L112.061 77.6173L112.064 77.7169L112.068 77.8164L112.071 77.916L112.074 77.9998L112.077 78.0276L112.081 78.1271L112.084 78.2267L112.087 78.3263L112.09 78.4258L112.093 78.4662L112.097 78.5375L112.1 78.6371L112.103 78.7367L112.106 78.8363L112.109 78.9207L112.112 78.948L112.115 79.0475L112.118 79.1471L112.121 79.2467L112.124 79.3464L112.128 79.3873L112.131 79.4581L112.134 79.5577L112.137 79.6573L112.14 79.7569L112.143 79.842L112.145 79.8687L112.148 79.9683L112.151 80.068L112.154 80.1676L112.157 80.2672L112.16 80.3088L112.163 80.379L112.166 80.4787L112.169 80.5783L112.172 80.678L112.174 80.7636L112.177 80.7898L112.18 80.8895L112.183 80.9891L112.186 81.0888L112.188 81.1885L112.191 81.2307L112.194 81.3003L112.197 81.4L112.199 81.4997L112.202 81.5994L112.205 81.6856L112.208 81.7113L112.21 81.8109L112.213 81.9106L112.216 82.0103L112.218 82.11L112.221 82.1528L112.223 82.222L112.226 82.3217L112.229 82.4214L112.231 82.5211L112.234 82.6079L112.236 82.633L112.239 82.7327L112.241 82.8325L112.244 82.9322L112.246 83.0319L112.249 83.0753L112.251 83.1439L112.254 83.2436L112.256 83.3434L112.259 83.4431L112.261 83.5306L112.264 83.5551L112.266 83.6549L112.269 83.7546L112.271 83.8544L112.273 83.9541L112.276 83.9981L112.278 84.0661L112.28 84.1659L112.283 84.2657L112.285 84.3654L112.287 84.4535L112.29 84.4775L112.292 84.5773L112.294 84.677L112.296 84.7768L112.299 84.8766L112.301 84.9212L112.303 84.9887L112.305 85.0885L112.307 85.1883L112.31 85.2881L112.312 85.3767L112.314 85.4002L112.316 85.5L112.318 85.5998L112.32 85.6996L112.322 85.7994L112.324 85.8446L112.327 85.9115L112.329 86.0113L112.331 86.1111L112.333 86.2109L112.335 86.3002L112.337 86.3231L112.339 86.4229L112.341 86.5227L112.343 86.6225L112.345 86.7224L112.347 86.7682L112.349 86.8345L112.351 86.9344L112.352 87.0342L112.354 87.134L112.356 87.2239L112.358 87.2462L112.36 87.3461L112.362 87.4459L112.364 87.5458L112.366 87.6456L112.367 87.692L112.369 87.7578L112.371 87.8577L112.373 87.9575L112.374 88.0574L112.376 88.1478L112.378 88.1696L112.38 88.2695L112.381 88.3694L112.383 88.4692L112.385 88.5691L112.387 88.6161L112.388 88.6813L112.39 88.7812L112.391 88.8811L112.393 88.981L112.395 89.072L112.396 89.0932L112.398 89.1931L112.4 89.293L112.401 89.3929L112.403 89.4928L112.404 89.5403L112.406 89.605L112.407 89.7049L112.409 89.8048L112.41 89.9047L112.412 89.9963L112.413 90.017L112.415 90.1169L112.416 90.2168L112.418 90.3167L112.419 90.4166L112.42 90.4648L112.422 90.5289L112.423 90.6288L112.425 90.7288L112.426 90.8287L112.427 90.9208L112.429 90.941L112.43 91.0409L112.431 91.1408L112.433 91.2407L112.434 91.3406L112.435 91.3894L112.436 91.453L112.438 91.5529L112.439 91.6528L112.44 91.7528L112.441 91.8455L112.442 91.8651L112.444 91.9651L112.445 92.065L112.446 92.1649L112.447 92.2648L112.448 92.3142L112.449 92.3772L112.45 92.4771L112.452 92.5771L112.453 92.677L112.454 92.7704L112.455 92.7894L112.456 92.8893L112.457 92.9893L112.458 93.0892L112.459 93.1892L112.46 93.2391L112.461 93.3016L112.462 93.4015L112.463 93.5014L112.464 93.6014L112.465 93.6953L112.466 93.7138L112.467 93.8138L112.467 93.9137L112.468 94.0136L112.469 94.1136L112.47 94.1641L112.471 94.226L112.472 94.326L112.473 94.4259L112.473 94.5259L112.474 94.6204L112.475 94.6383L112.476 94.7383L112.477 94.8382L112.477 94.9382L112.478 95.0381L112.479 95.0892L112.48 95.1506L112.48 95.2505L112.481 95.3505L112.482 95.4505L112.482 95.5456L112.483 95.5629L112.484 95.6629L112.484 95.7629L112.485 95.8628L112.485 95.9628L112.486 96.0144L112.487 96.0752L112.487 96.1752L112.488 96.2752L112.488 96.3751L112.489 96.4708L112.489 96.4876L112.49 96.5876L112.49 96.6875L112.491 96.7875L112.491 96.8875L112.492 96.9397L112.492 97L112.493 97.0999L112.493 97.1999L112.493 97.2999L112.494 97.3961L112.494 97.4123L112.495 97.5123L112.495 97.6123L112.495 97.7123L112.496 97.8123L112.496 97.8651L112.496 97.9247L112.497 98.0247L112.497 98.1247L112.497 98.2247L112.497 98.3215L112.498 98.3371L112.498 98.4371L112.498 98.5371L112.498 98.6371L112.498 98.7371L112.499 98.7904L112.499 98.8495L112.499 98.9495L112.499 99.0495L112.499 99.1495L112.499 99.2469L112.5 99.262L112.5 99.3619L112.5 99.4619L112.5 99.5619L112.5 99.6619L112.5 99.7158L112.5 99.7744L112.5 99.8743L112.5 99.9743L112.5 100.074L112.5 100.172L112.5 100.187L112.5 100.287L112.5 100.387L112.5 100.487L112.5 100.587L112.5 100.641L112.5 100.699L112.499 100.799L112.499 100.899L112.499 100.999L112.499 101.098L112.499 101.112L112.499 101.212L112.499 101.312L112.498 101.412L112.498 101.512L112.498 101.567L112.498 101.624L112.497 101.724L112.497 101.824L112.497 101.924L112.497 102.023L112.496 102.036L112.496 102.136L112.496 102.236L112.495 102.336L112.495 102.436L112.495 102.492L112.494 102.549L112.494 102.649L112.494 102.749L112.493 102.849L112.493 102.948L112.492 102.961L112.492 103.061L112.492 103.161L112.491 103.261L112.491 103.361L112.49 103.417L112.49 103.474L112.489 103.574L112.489 103.673L112.488 103.773L112.487 103.873L112.487 103.886L112.486 103.986L112.486 104.086L112.485 104.186L112.485 104.286L112.484 104.343L112.483 104.398L112.483 104.498L112.482 104.598L112.481 104.698L112.481 104.798L112.48 104.811L112.479 104.911L112.478 105.01L112.478 105.11L112.477 105.21L112.476 105.268L112.475 105.323L112.475 105.423L112.474 105.523L112.473 105.623L112.472 105.723L112.471 105.737L112.471 105.835L112.47 105.935L112.469 106.035L112.468 106.135L112.467 106.193L112.466 106.247L112.465 106.347L112.464 106.447L112.463 106.547L112.462 106.647L112.461 106.662L112.46 106.76L112.459 106.859L112.458 106.959L112.457 107.059L112.456 107.118L112.455 107.172L112.454 107.272L112.453 107.372L112.452 107.472L112.451 107.572L112.45 107.587L112.449 107.684L112.448 107.784L112.447 107.884L112.445 107.984L112.444 108.043L112.443 108.096L112.442 108.196L112.441 108.296L112.439 108.396L112.438 108.496L112.437 108.511L112.436 108.608L112.434 108.708L112.433 108.808L112.432 108.908L112.431 108.967L112.429 109.02L112.428 109.12L112.427 109.22L112.425 109.32L112.424 109.42L112.422 109.436L112.421 109.532L112.42 109.632L112.418 109.732L112.417 109.832L112.415 109.892L112.414 109.944L112.412 110.044L112.411 110.144L112.41 110.244L112.408 110.344L112.406 110.36L112.405 110.456L112.403 110.556L112.402 110.656L112.4 110.756L112.399 110.816L112.397 110.868L112.396 110.968L112.394 111.068L112.392 111.168L112.391 111.267L112.389 111.285L112.387 111.38L112.386 111.48L112.384 111.579L112.382 111.679L112.381 111.741L112.379 111.792L112.377 111.891L112.375 111.991L112.374 112.091L112.372 112.191L112.37 112.209L112.368 112.303L112.366 112.403L112.365 112.503L112.363 112.603L112.361 112.665L112.359 112.715L112.357 112.815L112.355 112.915L112.353 113.014L112.351 113.114L112.35 113.133L112.348 113.227L112.346 113.326L112.344 113.426L112.342 113.526L112.34 113.588L112.338 113.638L112.336 113.738L112.334 113.838L112.332 113.938L112.33 114.037L112.328 114.056L112.326 114.15L112.323 114.249L112.321 114.349L112.319 114.449L112.317 114.512L112.315 114.561L112.313 114.661L112.311 114.761L112.309 114.86L112.306 114.96L112.304 114.98L112.302 115.072L112.3 115.172L112.297 115.272L112.295 115.372L112.293 115.435L112.291 115.484L112.288 115.584L112.286 115.683L112.284 115.783L112.282 115.883L112.279 115.903L112.277 115.995L112.274 116.095L112.272 116.194L112.27 116.294L112.267 116.358L112.265 116.406L112.263 116.506L112.26 116.606L112.258 116.705L112.255 116.805L112.253 116.826L112.25 116.917L112.248 117.017L112.245 117.117L112.243 117.216L112.24 117.281L112.238 117.328L112.235 117.428L112.233 117.528L112.23 117.627L112.227 117.727L112.225 117.748L112.222 117.839L112.22 117.939L112.217 118.038L112.214 118.138L112.212 118.203L112.209 118.25L112.206 118.35L112.204 118.449L112.201 118.549L112.198 118.649L112.195 118.67L112.193 118.761L112.19 118.86L112.187 118.96L112.184 119.06L112.181 119.125L112.179 119.172L112.176 119.271L112.173 119.371L112.17 119.47L112.167 119.57L112.164 119.592L112.162 119.682L112.159 119.782L112.156 119.881L112.153 119.981L112.15 120.047L112.147 120.093L112.144 120.192L112.141 120.292L112.138 120.391L112.135 120.491L112.132 120.514L112.129 120.603L112.126 120.702L112.123 120.802L112.12 120.902L112.117 120.968L112.114 121.013L112.111 121.113L112.108 121.213L112.104 121.312L112.101 121.412L112.098 121.435L112.095 121.523L112.092 121.623L112.089 121.723L112.085 121.822L112.082 121.889L112.079 121.934L112.076 122.033L112.073 122.133L112.069 122.232L112.066 122.332L112.063 122.356L112.06 122.444L112.056 122.543L112.053 122.643L112.05 122.742L112.046 122.81L112.043 122.854L112.04 122.953L112.036 123.053L112.033 123.152L112.029 123.252L112.026 123.276L112.023 123.363L112.019 123.463L112.016 123.562L112.012 123.662L112.009 123.73L112.005 123.773L112.002 123.873L111.998 123.972L111.995 124.072L111.991 124.171L111.988 124.196L111.984 124.283L111.981 124.382L111.977 124.482L111.973 124.581L111.97 124.65L111.966 124.693L111.963 124.792L111.959 124.891L111.955 124.991L111.952 125.09L111.948 125.116L111.944 125.202L111.941 125.301L111.937 125.4L111.933 125.5L111.929 125.569L111.926 125.611L111.922 125.711L111.918 125.81L111.914 125.909L111.911 126.009L111.907 126.035L111.903 126.12L111.899 126.219L111.895 126.319L111.891 126.418L111.888 126.488L111.884 126.529L111.88 126.629L111.876 126.728L111.872 126.828L111.868 126.927L111.864 126.953L111.86 127.038L111.856 127.137L111.852 127.237L111.848 127.336L111.844 127.407L111.84 127.447L111.836 127.547L111.832 127.646L111.828 127.745L111.824 127.845L111.82 127.871L111.816 127.956L111.812 128.055L111.808 128.154L111.804 128.254L111.799 128.324L111.795 128.365L111.791 128.464L111.787 128.563L111.783 128.662L111.779 128.762L111.774 128.789L111.77 128.873L111.766 128.972L111.762 129.071L111.758 129.17L111.753 129.242L111.749 129.281L111.745 129.381L111.74 129.48L111.736 129.579L111.732 129.678L111.727 129.706L111.723 129.789L111.719 129.888L111.714 129.988L111.71 130.087L111.706 130.159L111.701 130.198L111.697 130.297L111.692 130.396L111.688 130.495L111.684 130.594L111.679 130.623L111.675 130.705L111.67 130.804L111.666 130.903L111.661 131.003L111.657 131.075L111.652 131.113L111.648 131.212L111.643 131.312L111.638 131.411L111.634 131.51L111.629 131.539L111.625 131.621L111.62 131.72L111.615 131.819L111.611 131.918L111.606 131.991L111.601 132.029L111.597 132.128L111.592 132.227L111.587 132.326L111.583 132.425L111.578 132.454L111.573 132.535L111.569 132.635L111.564 132.734L111.559 132.833L111.554 132.906L111.549 132.943L111.545 133.042L111.54 133.141L111.535 133.24L111.53 133.339L111.525 133.369L111.521 133.45L111.516 133.549L111.511 133.648L111.506 133.747L111.501 133.821L111.496 133.857L111.491 133.956L111.486 134.055L111.481 134.154L111.476 134.253L111.471 134.284L111.466 134.363L111.461 134.462L111.456 134.561L111.451 134.66L111.446 134.735L111.441 134.771L111.436 134.87L111.431 134.968L111.426 135.067L111.421 135.166L111.416 135.197L111.411 135.277L111.406 135.375L111.4 135.474L111.395 135.573L111.39 135.648L111.385 135.683L111.38 135.782L111.375 135.881L111.369 135.98L111.364 136.079L111.359 136.111L111.354 136.189L111.349 136.288L111.343 136.387L111.338 136.486L111.333 136.561L111.327 136.596L111.322 136.694L111.317 136.793L111.311 136.892L111.306 136.991L111.301 137.023L111.295 137.101L111.29 137.2L111.285 137.298L111.279 137.397L111.274 137.473L111.268 137.507L111.263 137.606L111.258 137.705L111.252 137.803L111.247 137.902L111.241 137.935L111.236 138.012L111.23 138.111L111.225 138.209L111.219 138.308L111.214 138.385L111.208 138.418L111.203 138.517L111.197 138.615L111.191 138.714L111.186 138.813L111.18 138.846L111.175 138.923L111.169 139.021L111.163 139.12L111.158 139.219L111.152 139.296L111.146 139.328L111.141 139.427L111.135 139.525L111.129 139.624L111.124 139.723L111.118 139.756L111.112 139.832L111.106 139.931L111.101 140.03L111.095 140.128L111.089 140.206L111.083 140.238L111.078 140.336L111.072 140.435L111.066 140.533L111.06 140.632L111.054 140.666L111.048 140.742L111.043 140.84L111.037 140.939L111.031 141.037L111.025 141.115L111.019 141.147L111.013 141.245L111.007 141.344L111.001 141.442L110.995 141.541L110.989 141.575L110.983 141.65L110.977 141.748L110.971 141.847L110.965 141.945L110.959 142.024L110.953 142.055L110.947 142.153L110.941 142.252L110.935 142.35L110.929 142.448L110.923 142.484L110.917 142.558L110.911 142.656L110.905 142.754L110.898 142.853L110.892 142.932L110.886 142.962L110.88 143.06L110.874 143.159L110.868 143.257L110.861 143.355L110.855 143.391L110.849 143.465L110.843 143.563L110.837 143.661L110.83 143.76L110.824 143.839L110.818 143.869L110.812 143.967L110.805 144.065L110.799 144.164L110.793 144.262L110.786 144.298L110.78 144.371L110.774 144.469L110.767 144.567L110.761 144.666L110.755 144.746L110.748 144.775L110.742 144.873L110.735 144.971L110.729 145.069L110.723 145.167L110.716 145.204L110.71 145.276L110.703 145.374L110.697 145.473L110.69 145.571L110.684 145.652L110.677 145.68L110.671 145.778L110.664 145.876L110.658 145.974L110.651 146.072L110.644 146.109L110.638 146.181L110.631 146.279L110.625 146.377L110.618 146.475L110.612 146.557L110.605 146.584L110.598 146.682L110.592 146.78L110.585 146.878L110.578 146.976L110.572 147.014L110.565 147.085L110.558 147.183L110.552 147.281L110.545 147.379L110.538 147.461L110.531 147.487L110.525 147.585L110.518 147.683L110.511 147.781L110.504 147.879L110.497 147.918L110.491 147.988L110.484 148.086L110.477 148.184L110.47 148.282L110.463 148.364L110.457 148.39L110.45 148.488L110.443 148.586L110.436 148.684L110.429 148.782L110.422 148.821L110.415 148.89L110.408 148.988L110.401 149.086L110.394 149.184L110.387 149.266L110.38 149.292L110.373 149.39L110.366 149.488L110.359 149.586L110.352 149.683L110.345 149.723L110.338 149.792L110.331 149.889L110.324 149.987L110.317 150.085L110.31 150.168L110.303 150.193L110.296 150.291L110.289 150.389L110.282 150.486L110.275 150.584L110.268 150.624L110.26 150.692L110.253 150.79L110.246 150.888L110.239 150.985L110.232 151.069L110.225 151.093L110.217 151.191L110.21 151.289L110.203 151.386L110.196 151.484L110.188 151.524L110.181 151.592L110.174 151.689L110.167 151.787L110.159 151.885L110.152 151.969L110.145 151.992L110.137 152.09L110.13 152.188L110.123 152.285L110.115 152.383L110.108 152.424L110.101 152.491L110.093 152.588L110.086 152.686L110.078 152.783L110.071 152.868L110.064 152.891L110.056 152.988L110.049 153.086L110.041 153.183L110.034 153.281L110.026 153.322L110.019 153.389L110.011 153.486L110.004 153.583L109.996 153.681L109.989 153.766L109.981 153.788L109.974 153.886L109.966 153.983L109.959 154.081L109.951 154.178L109.944 154.22L109.936 154.286L109.928 154.383L109.921 154.48L109.913 154.578L109.906 154.663L109.898 154.685L109.89 154.782L109.883 154.88L109.875 154.977L109.867 155.074L109.86 155.117L109.852 155.182L109.844 155.279L109.837 155.376L109.829 155.474L109.821 155.56L109.813 155.581L109.806 155.678L109.798 155.775L109.79 155.873L109.782 155.97L109.774 156.012L109.767 156.077L109.759 156.174L109.751 156.271L109.743 156.369L109.735 156.455L109.728 156.475L109.72 156.573L109.712 156.67L109.704 156.767L109.696 156.864L109.688 156.907L109.68 156.971L109.672 157.068L109.664 157.165L109.656 157.263L109.648 157.35L109.641 157.369L109.633 157.466L109.625 157.563L109.617 157.661L109.609 157.758L109.601 157.801L109.593 157.864L109.585 157.961L109.577 158.058L109.568 158.156L109.56 158.243L109.552 158.262L109.544 158.359L109.536 158.456L109.528 158.553L109.52 158.65L109.512 158.694L109.504 158.757L109.496 158.854L109.488 158.951L109.479 159.048L109.471 159.136L109.463 159.154L109.455 159.251L109.447 159.348L109.439 159.445L109.43 159.542L109.422 159.586L109.414 159.648L109.406 159.745L109.397 159.842L109.389 159.939L109.381 160.027L109.373 160.045L109.364 160.142L109.356 160.239L109.348 160.335L109.339 160.432L109.331 160.477L109.323 160.538L109.314 160.635L109.306 160.732L109.298 160.829L109.289 160.918L109.281 160.935L109.273 161.032L109.264 161.128L109.256 161.225L109.247 161.322L109.239 161.367L109.231 161.428L109.222 161.524L109.214 161.621L109.205 161.718L109.197 161.807L109.188 161.824L109.18 161.92L109.171 162.017L109.163 162.114L109.154 162.21L109.146 162.256L109.137 162.316L109.129 162.413L109.12 162.509L109.112 162.606L109.103 162.696L109.095 162.712L109.086 162.808L109.077 162.905L109.069 163.001L109.06 163.098L109.052 163.144L109.043 163.203L109.034 163.3L109.026 163.396L109.017 163.493L109.008 163.583L109 163.598L108.991 163.695L108.982 163.791L108.974 163.888L108.965 163.984L108.956 164.031L108.948 164.09L108.939 164.186L108.93 164.283L108.921 164.379L108.913 164.47L108.904 164.484L108.895 164.581L108.886 164.677L108.877 164.773L108.869 164.87L108.86 164.917L108.851 164.975L108.842 165.071L108.833 165.168L108.824 165.264L108.816 165.355L108.807 165.369L108.798 165.465L108.789 165.562L108.78 165.658L108.771 165.754L108.762 165.802L108.753 165.859L108.744 165.955L108.736 166.051L108.727 166.148L108.718 166.24L108.709 166.253L108.7 166.349L108.691 166.445L108.682 166.541L108.673 166.637L108.664 166.686L108.655 166.742L108.646 166.838L108.637 166.934L108.628 167.031L108.619 167.123L108.61 167.135L108.6 167.231L108.591 167.327L108.582 167.423L108.573 167.52L108.564 167.568L108.555 167.624L108.546 167.72L108.537 167.816L108.528 167.912L108.518 168.005L108.509 168.017L108.5 168.113L108.491 168.209L108.482 168.305L108.473 168.401L108.463 168.45L108.454 168.505L108.445 168.601L108.436 168.697L108.427 168.793L108.417 168.886L108.408 168.897L108.399 168.993L108.39 169.089L108.38 169.185L108.371 169.281L108.362 169.33L108.353 169.385L108.343 169.481L108.334 169.577L108.325 169.672L108.315 169.766L108.306 169.776L108.297 169.872L108.287 169.968L108.278 170.064L108.269 170.16L108.259 170.21L108.25 170.264L108.24 170.359L108.231 170.455L108.222 170.551L108.212 170.645L108.203 170.655L108.193 170.75L108.184 170.846L108.174 170.942L108.165 171.037L108.155 171.088L108.146 171.141L108.137 171.237L108.127 171.332L108.118 171.428L108.108 171.523L108.099 171.532L108.089 171.627L108.079 171.723L108.07 171.818L108.06 171.914L108.051 171.965L108.041 172.018L108.032 172.113L108.022 172.209L108.013 172.304L108.003 172.399L107.993 172.408L107.984 172.503L107.974 172.599L107.965 172.694L107.955 172.789L107.945 172.841L107.936 172.893L107.926 172.988L107.916 173.084L107.907 173.179L107.897 173.274L107.887 173.283L107.878 173.378L107.868 173.473L107.858 173.568L107.848 173.664L107.839 173.716L107.829 173.767L107.819 173.862L107.809 173.958L107.8 174.053L107.79 174.148L107.78 174.157L107.77 174.251L107.761 174.346L107.751 174.442L107.741 174.537L107.731 174.59L107.721 174.64L107.712 174.735L107.702 174.83L107.692 174.925L107.682 175.021L107.672 175.03L107.662 175.123L107.652 175.219L107.643 175.314L107.633 175.409L107.623 175.462L107.613 175.512L107.603 175.607L107.593 175.702L107.583 175.797L107.573 175.892L107.563 175.902L107.553 175.995L107.543 176.09L107.533 176.185L107.523 176.28L107.513 176.333L107.503 176.382L107.493 176.477L107.483 176.572L107.473 176.667L107.463 176.762L107.453 176.772L107.443 176.864L107.433 176.959L107.423 177.054L107.413 177.149L107.403 177.203L107.393 177.252L107.383 177.346L107.373 177.441L107.363 177.536L107.353 177.631L107.343 177.641L107.332 177.733L107.322 177.828L107.312 177.923L107.302 178.018L107.292 178.072L107.282 178.12L107.272 178.214L107.261 178.309L107.251 178.404L107.241 178.499L107.231 178.51L107.221 178.601L107.211 178.695L107.2 178.79L107.19 178.885L107.18 178.94L107.17 178.987L107.159 179.081L107.149 179.176L107.139 179.271L107.129 179.365L107.118 179.377L107.108 179.467L107.098 179.561L107.088 179.656L107.077 179.751L107.067 179.806L107.057 179.852L107.046 179.947L107.036 180.041L107.026 180.136L107.015 180.23L107.005 180.242L106.995 180.332L106.984 180.426L106.974 180.521L106.964 180.615L106.953 180.671L106.943 180.717L106.932 180.811L106.922 180.906L106.912 181L106.901 181.094L106.891 181.107L106.88 181.196L106.87 181.29L106.86 181.384L106.849 181.479L106.839 181.535L106.828 181.58L106.818 181.674L106.807 181.768L106.797 181.863L106.786 181.957L106.776 181.97L106.765 182.058L106.755 182.152L106.744 182.247L106.734 182.341L106.723 182.398L106.713 182.442L106.702 182.536L106.692 182.63L106.681 182.724L106.67 182.819L106.66 182.832L106.649 182.919L106.639 183.013L106.628 183.108L106.618 183.202L106.607 183.259L106.596 183.302L106.586 183.397L106.575 183.491L106.565 183.585L106.554 183.679L106.543 183.692L106.533 183.779L106.522 183.873L106.511 183.967L106.501 184.061L106.49 184.119L106.479 184.162L106.469 184.256L106.458 184.35L106.447 184.444L106.436 184.538L106.426 184.552L106.415 184.638L106.404 184.732L106.394 184.826L106.383 184.92L106.372 184.978L106.361 185.02L106.351 185.114L106.34 185.208L106.329 185.301L106.318 185.395L106.308 185.41L106.297 185.495L106.286 185.589L106.275 185.683L106.264 185.777L106.254 185.835L106.243 185.877L106.232 185.97L106.221 186.064L106.21 186.158L106.199 186.251L106.189 186.267L106.178 186.351L106.167 186.445L106.156 186.539L106.145 186.632L106.134 186.691L106.123 186.732L106.112 186.826L106.101 186.919L106.091 187.013L106.08 187.106L106.069 187.122L106.058 187.206L106.047 187.3L106.036 187.393L106.025 187.487L106.014 187.546L106.003 187.586L105.992 187.68L105.981 187.773L105.97 187.867L105.959 187.96L105.948 187.976L105.937 188.06L105.926 188.153L105.915 188.246L105.904 188.34L105.893 188.4L105.882 188.439L105.871 188.532L105.86 188.626L105.849 188.719L105.838 188.812L105.827 188.829L105.816 188.912L105.805 189.005L105.794 189.098L105.783 189.191L105.772 189.252L105.761 189.291L105.75 189.384L105.738 189.477L105.727 189.57L105.716 189.663L105.705 189.68L105.694 189.762L105.683 189.856L105.672 189.949L105.661 190.042L105.649 190.103L105.638 190.141L105.627 190.234L105.616 190.327L105.605 190.42L105.594 190.513L105.582 190.53L105.571 190.612L105.56 190.705L105.549 190.798L105.538 190.891L105.526 190.952L105.515 190.989L105.504 191.082L105.493 191.175L105.482 191.268L105.47 191.361L105.459 191.379L105.448 191.46L105.437 191.553L105.425 191.646L105.414 191.739L105.403 191.8L105.392 191.837L105.38 191.93L105.369 192.023L105.358 192.115L105.346 192.208L105.335 192.226L105.324 192.306L105.313 192.399L105.301 192.492L105.29 192.585L105.279 192.647L105.267 192.683L105.256 192.776L105.245 192.868L105.233 192.961L105.222 193.054L105.211 193.072L105.199 193.152L105.188 193.244L105.176 193.337L105.165 193.43L105.154 193.492L105.142 193.528L105.131 193.62L105.12 193.713L105.108 193.805L105.097 193.898L105.085 193.917L105.074 193.996L105.062 194.088L105.051 194.181L105.04 194.273L105.028 194.336L105.017 194.371L105.005 194.463L104.994 194.556L104.982 194.648L104.971 194.741L104.959 194.76L104.948 194.838L104.937 194.931L104.925 195.023L104.914 195.115L104.902 195.179L104.891 195.213L104.879 195.305L104.868 195.397L104.856 195.49L104.845 195.582L104.833 195.602L104.821 195.679L104.81 195.772L104.798 195.864L104.787 195.956L104.775 196.02L104.764 196.053L104.752 196.145L104.741 196.238L104.729 196.33L104.717 196.422L104.706 196.443L104.694 196.519L104.683 196.611L104.671 196.703L104.66 196.795L104.648 196.86L104.636 196.892L104.625 196.984L104.613 197.076L104.602 197.169L104.59 197.261L104.578 197.282L104.567 197.357L104.555 197.449L104.543 197.541L104.532 197.633L104.52 197.698L104.508 197.73L104.497 197.822L104.485 197.914L104.473 198.006L104.462 198.098L104.45 198.119L104.438 198.194L104.427 198.286L104.415 198.378L104.403 198.47L104.392 198.535L104.38 198.566L104.368 198.658L104.357 198.75L104.345 198.842L104.333 198.934L104.321 198.955L104.31 199.03L104.298 199.121L104.286 199.213L104.22 199.25L104.123 199.254L104.109 199.258L104.009 199.263L103.91 199.266L103.811 199.27L103.712 199.274L103.658 199.278L103.601 199.282L103.501 199.285L103.402 199.289L103.303 199.292L103.205 199.296L103.192 199.3L103.092 199.303L102.993 199.306L102.894 199.309L102.795 199.312L102.74 199.315L102.683 199.319L102.584 199.321L102.485 199.324L102.385 199.326L102.287 199.329L102.274 199.333L102.175 199.335L102.076 199.337L101.976 199.339L101.877 199.341L101.822 199.344L101.766 199.347L101.667 199.349L101.567 199.35L101.468 199.352L101.369 199.353L101.357 199.357L101.257 199.358L101.158 199.36L101.059 199.361L100.959 199.362L100.904 199.364L100.848 199.367L100.749 199.368L100.649 199.368L100.55 199.369L100.451 199.37L100.439 199.373L100.339 199.374L100.24 199.374L100.141 199.374L100.041 199.374L99.9854 199.376L99.93 199.378L99.8307 199.378L99.7313 199.378L99.6319 199.378L99.5326 199.377L99.5201 199.381L99.4213 199.38L99.3219 199.38L99.2225 199.379L99.1232 199.378L99.0667 199.38L99.0118 199.381L98.9125 199.38L98.8131 199.379L98.7137 199.378L98.6144 199.377L98.6013 199.38L98.503 199.379L98.4036 199.377L98.3043 199.376L98.2049 199.374L98.1479 199.375L98.0936 199.376L97.9942 199.374L97.8948 199.372L97.7955 199.37L97.6961 199.368L97.6824 199.371L97.5847 199.369L97.4854 199.366L97.386 199.364L97.2867 199.361L97.229 199.361L97.1753 199.362L97.0759 199.359L96.9766 199.356L96.8772 199.353L96.7779 199.35L96.7636 199.353L96.6665 199.35L96.5672 199.347L96.4678 199.343L96.3685 199.34L96.3103 199.339L96.2571 199.339L96.1578 199.336L96.0584 199.332L95.9591 199.328L95.8598 199.324L95.8449 199.327L95.7484 199.323L95.6491 199.319L95.5498 199.314L95.4505 199.31L95.3917 199.309L95.3391 199.308L95.2398 199.304L95.1405 199.299L95.0412 199.294L94.9419 199.289L94.9264 199.292L94.8305 199.287L94.7312 199.282L94.632 199.277L94.5327 199.272L94.4733 199.27L94.4213 199.269L94.322 199.263L94.2228 199.258L94.1235 199.252L94.0243 199.246L94.0082 199.249L93.9129 199.243L93.8137 199.237L93.7144 199.231L93.6152 199.225L93.5553 199.222L93.5038 199.221L93.4046 199.215L93.3054 199.208L93.2062 199.201L93.1071 199.195L93.0903 199.197L92.9957 199.19L92.8965 199.184L92.7973 199.176L92.6982 199.169L92.6377 199.166L92.5868 199.165L92.4876 199.157L92.3885 199.15L92.2894 199.142L92.1902 199.135L92.1729 199.137L92.0789 199.129L91.9798 199.121L91.8807 199.113L91.7816 199.105L91.7206 199.102L91.6702 199.1L91.5711 199.091L91.4721 199.083L91.373 199.075L91.2739 199.066L91.2561 199.068L91.1626 199.06L91.0636 199.051L90.9645 199.042L90.8655 199.033L90.804 199.029L90.7542 199.026L90.6552 199.017L90.5562 199.008L90.4572 198.998L90.3582 198.989L90.3398 198.99L90.247 198.982L90.148 198.972L90.0491 198.962L89.9501 198.952L89.888 198.947L89.8389 198.944L89.74 198.934L89.641 198.924L89.5421 198.914L89.4432 198.903L89.4242 198.904L89.332 198.895L89.2332 198.884L89.1343 198.874L89.0354 198.863L88.9728 198.857L88.9243 198.854L88.8254 198.843L88.7266 198.832L88.6278 198.821L88.529 198.809L88.5093 198.81L88.4179 198.8L88.3191 198.788L88.2203 198.776L88.1216 198.765L88.0584 198.759L88.0104 198.755L87.9117 198.743L87.813 198.731L87.7143 198.719L87.6156 198.706L87.5954 198.707L87.5045 198.696L87.4059 198.684L87.3072 198.671L87.2085 198.658L87.1449 198.651L87.0975 198.647L86.9989 198.634L86.9003 198.622L86.8017 198.608L86.7031 198.595L86.6823 198.596L86.5921 198.584L86.4936 198.57L86.395 198.557L86.2965 198.543L86.2324 198.536L86.1856 198.531L86.0871 198.518L85.9886 198.504L85.8901 198.49L85.7916 198.476L85.7703 198.476L85.6808 198.463L85.5823 198.449L85.4839 198.434L85.3855 198.42L85.3209 198.412L85.2747 198.407L85.1763 198.392L85.0779 198.377L84.9796 198.362L84.8812 198.348L84.8593 198.347L84.7705 198.334L84.6722 198.319L84.5739 198.303L84.4756 198.288L84.4105 198.279L84.3649 198.274L84.2666 198.258L84.1684 198.243L84.0702 198.227L83.972 198.211L83.9495 198.21L83.8614 198.196L83.7632 198.18L83.6651 198.164L83.5669 198.148L83.5013 198.138L83.4563 198.132L83.3582 198.116L83.2601 198.099L83.1621 198.083L83.064 198.066L83.041 198.065L82.9535 198.05L82.8555 198.033L82.7575 198.016L82.6595 197.999L82.5934 197.988L82.5491 197.982L82.4511 197.965L82.3532 197.947L82.2553 197.93L82.1574 197.912L82.1338 197.911L82.047 197.895L81.9491 197.877L81.8513 197.859L81.7535 197.841L81.6869 197.83L81.6432 197.824L81.5454 197.806L81.4476 197.787L81.3499 197.769L81.2521 197.75L81.228 197.748L81.1419 197.732L81.0442 197.713L80.9465 197.694L80.8489 197.675L80.7819 197.663L80.7388 197.657L80.6411 197.638L80.5435 197.619L80.4459 197.599L80.3483 197.58L80.3237 197.577L80.2383 197.561L80.1408 197.541L80.0433 197.521L79.9458 197.501L79.8784 197.488L79.8358 197.482L79.7384 197.462L79.641 197.441L79.5435 197.421L79.4462 197.401L79.421 197.398L79.3363 197.381L79.239 197.36L79.1416 197.339L79.0443 197.318L78.9765 197.305L78.9345 197.298L78.8373 197.277L78.7401 197.256L78.6428 197.235L78.5456 197.213L78.5199 197.21L78.436 197.192L78.3388 197.171L78.2417 197.149L78.1445 197.127L78.0762 197.113L78.035 197.106L77.9379 197.084L77.8408 197.062L77.7438 197.04L77.6468 197.017L77.6206 197.014L77.5373 196.996L77.4404 196.973L77.3434 196.95L77.2465 196.928L77.1778 196.913L77.1371 196.905L77.0403 196.883L76.9434 196.86L76.8466 196.836L76.7498 196.813L76.723 196.81L76.6405 196.79L76.5438 196.767L76.4471 196.744L76.3503 196.72L76.2812 196.704L76.2412 196.696L76.1445 196.673L76.0479 196.649L75.9513 196.625L75.8547 196.601L75.8274 196.597L75.7456 196.577L75.6491 196.553L75.5526 196.528L75.4561 196.504L75.3866 196.487L75.3471 196.479L75.2507 196.455L75.1543 196.43L75.0579 196.405L74.9616 196.38L74.9338 196.375L74.8527 196.355L74.7564 196.33L74.6601 196.305L74.5639 196.279L74.4939 196.262L74.4551 196.254L74.3589 196.228L74.2627 196.202L74.1666 196.177L74.0704 196.151L74.0422 196.146L73.9619 196.125L73.8658 196.099L73.7697 196.073L73.6737 196.046L73.6034 196.028L73.5652 196.02L73.4692 195.993L73.3733 195.967L73.2773 195.94L73.1815 195.913L73.1527 195.908L73.0731 195.886L72.9772 195.859L72.8815 195.832L72.7856 195.805L72.715 195.786L72.6774 195.777L72.5817 195.75L72.486 195.723L72.3903 195.695L72.2947 195.668L72.2654 195.662L72.1865 195.639L72.091 195.612L71.9954 195.584L71.8998 195.556L71.8288 195.536L71.7919 195.527L71.6964 195.499L71.6009 195.47L71.5055 195.442L71.4101 195.414L71.3803 195.407L71.3023 195.384L71.2069 195.356L71.1116 195.327L71.0164 195.298L70.945 195.277L70.9086 195.268L70.8134 195.239L70.7182 195.21L70.6231 195.181L70.5279 195.151L70.4977 195.144L70.4204 195.121L70.3253 195.091L70.2302 195.062L70.1353 195.032L70.0635 195.01L70.0278 195.001L69.9328 194.971L69.838 194.941L69.7431 194.911L69.6482 194.881L69.6175 194.873L69.5409 194.849L69.4461 194.819L69.3514 194.788L69.2566 194.758L69.1845 194.735L69.1494 194.726L69.0548 194.695L68.9602 194.664L68.8655 194.633L68.771 194.602L68.7398 194.594L68.664 194.57L68.5694 194.538L68.475 194.507L68.3805 194.475L68.3081 194.452L68.2736 194.443L68.1793 194.411L68.0849 194.379L67.9906 194.347L67.8963 194.315L67.8647 194.307L67.7896 194.282L67.6954 194.249L67.6012 194.217L67.507 194.185L67.4343 194.16L67.4005 194.151L67.3064 194.118L67.2123 194.086L67.1183 194.053L67.0243 194.02L66.9922 194.011L66.9179 193.986L66.824 193.952L66.7301 193.919L66.6363 193.886L66.5632 193.861L66.53 193.851L66.4362 193.818L66.3425 193.784L66.2488 193.75L66.1551 193.717L66.1225 193.707L66.049 193.681L65.9554 193.647L65.8618 193.613L65.7683 193.579L65.6949 193.553L65.6624 193.543L65.5689 193.509L65.4754 193.474L65.382 193.44L65.2886 193.405L65.2556 193.395L65.1829 193.369L65.0896 193.334L64.9963 193.299L64.9031 193.264L64.8295 193.237L64.7975 193.227L64.7043 193.192L64.6113 193.157L64.5181 193.121L64.4251 193.086L64.3917 193.075L64.3197 193.048L64.2267 193.013L64.1338 192.977L64.0409 192.941L63.967 192.913L63.9356 192.903L63.8428 192.867L63.75 192.831L63.6572 192.794L63.5645 192.758L63.5307 192.747L63.4595 192.72L63.3668 192.683L63.2742 192.646L63.1816 192.61L63.1075 192.581L63.0767 192.571L62.9843 192.534L62.8918 192.497L62.7993 192.46L62.707 192.422L62.6727 192.411L62.6023 192.383L62.51 192.346L62.4177 192.308L62.3255 192.27L62.251 192.241L62.2209 192.231L62.1288 192.193L62.0366 192.155L61.9446 192.117L61.8526 192.079L61.8179 192.067L61.7482 192.038L61.6563 192L61.5643 191.962L61.4724 191.923L61.3978 191.892L61.3683 191.882L61.2765 191.844L61.1847 191.805L61.093 191.766L61.0013 191.727L60.9662 191.714L60.8974 191.686L60.8058 191.647L60.7142 191.607L60.6227 191.568L60.5478 191.536L60.5189 191.526L60.4274 191.487L60.336 191.447L60.2447 191.407L60.1533 191.368L60.1178 191.354L60.0498 191.325L59.9585 191.285L59.8673 191.245L59.7762 191.205L59.7011 191.172L59.6728 191.162L59.5817 191.122L59.4907 191.081L59.3997 191.041L59.3087 191L59.2728 190.986L59.2056 190.957L59.1147 190.916L59.0238 190.875L58.9331 190.834L58.8577 190.8L58.83 190.79L58.7394 190.749L58.6487 190.708L58.558 190.666L58.4675 190.625L58.4312 190.61L58.3647 190.58L58.2742 190.539L58.1838 190.497L58.0934 190.455L58.0178 190.42L57.9908 190.41L57.9005 190.368L57.8102 190.326L57.7199 190.284L57.6298 190.241L57.5931 190.226L57.5274 190.196L57.4373 190.154L57.3472 190.111L57.2572 190.068L57.1815 190.033L57.1551 190.023L57.0651 189.98L56.9752 189.937L56.8854 189.894L56.7956 189.85L56.7586 189.835L56.6936 189.804L56.6039 189.761L56.5143 189.717L56.4246 189.674L56.3487 189.637L56.3229 189.627L56.2334 189.583L56.1438 189.539L56.0544 189.495L55.965 189.451L55.9277 189.435L55.8635 189.404L55.7742 189.36L55.6849 189.316L55.5957 189.271L55.5197 189.234L55.4944 189.224L55.4053 189.179L55.3162 189.135L55.2272 189.09L55.1381 189.045L55.1005 189.028L55.0371 188.997L54.9482 188.952L54.8593 188.907L54.7706 188.861L54.6943 188.823L54.6697 188.813L54.581 188.767L54.4923 188.722L54.4037 188.676L54.3151 188.631L54.2771 188.613L54.2145 188.581L54.126 188.536L54.0376 188.49L53.9492 188.444L53.8728 188.404L53.8488 188.394L53.7605 188.348L53.6723 188.301L53.584 188.255L53.4959 188.209L53.4575 188.19L53.3958 188.159L53.3077 188.112L53.2197 188.065L53.1317 188.018L53.0552 187.978L53.0318 187.968L52.9439 187.921L52.8561 187.873L52.7683 187.826L52.6806 187.779L52.6419 187.76L52.5809 187.728L52.4933 187.68L52.4057 187.633L52.3181 187.585L52.2415 187.544L52.2187 187.534L52.1313 187.486L52.0439 187.438L51.9565 187.39L51.8693 187.342L51.8303 187.322L51.77 187.29L51.6829 187.241L51.5957 187.193L51.5086 187.145L51.4319 187.102L51.4097 187.092L51.3227 187.043L51.2357 186.995L51.1488 186.946L51.062 186.897L51.0227 186.877L50.9633 186.844L50.8765 186.795L50.7898 186.746L50.7032 186.696L50.6264 186.653L50.6047 186.643L50.5182 186.594L50.4317 186.544L50.3452 186.494L50.2588 186.445L50.2192 186.424L50.1606 186.391L50.0744 186.341L49.9881 186.291L49.9019 186.241L49.825 186.196L49.8039 186.186L49.7178 186.136L49.6318 186.086L49.5458 186.035L49.4598 185.985L49.42 185.963L49.3622 185.93L49.2763 185.879L49.1905 185.829L49.1048 185.778L49.0279 185.732L49.0074 185.722L48.9217 185.671L48.8362 185.62L48.7507 185.569L48.6652 185.518L48.625 185.495L48.568 185.462L48.4826 185.41L48.3973 185.359L48.3121 185.307L48.235 185.261L48.2151 185.251L48.13 185.199L48.0449 185.147L47.9598 185.095L47.8748 185.043L47.8344 185.02L47.7782 184.986L47.6932 184.934L47.6085 184.882L47.5237 184.829L47.4466 184.782L47.4272 184.772L47.3426 184.719L47.2579 184.667L47.1734 184.614L47.0889 184.561L47.0482 184.537L46.9927 184.503L46.9083 184.45L46.824 184.397L46.7397 184.344L46.6626 184.295L46.6438 184.286L46.5596 184.232L46.4754 184.179L46.3914 184.125L46.3074 184.072L46.2664 184.047L46.2117 184.013L46.1279 183.959L46.044 183.905L45.9602 183.851L45.8831 183.802L45.8649 183.792L45.7812 183.738L45.6975 183.684L45.6139 183.63L45.5304 183.575L45.4893 183.55L45.4353 183.516L45.352 183.461L45.2686 183.406L45.1853 183.352L45.1082 183.301L45.0905 183.292L45.0073 183.237L44.9241 183.182L44.8411 183.127L44.758 183.071L44.7167 183.045L44.6636 183.011L44.5807 182.956L44.4978 182.9L44.415 182.845L44.3379 182.793L44.3208 182.784L44.238 182.728L44.1555 182.672L44.0729 182.616L43.9903 182.56L43.9488 182.534L43.8965 182.499L43.8141 182.443L43.7317 182.387L43.6494 182.33L43.5723 182.278L43.5557 182.269L43.4736 182.212L43.3915 182.156L43.3094 182.099L43.2274 182.042L43.1856 182.015L43.1341 181.98L43.0522 181.923L42.9704 181.866L42.8886 181.809L42.8115 181.755L42.7955 181.747L42.7139 181.689L42.6323 181.632L42.5507 181.575L42.4693 181.517L42.4273 181.489L42.3765 181.454L42.2951 181.397L42.2138 181.339L42.1326 181.281L42.0555 181.226L42.0401 181.218L41.959 181.16L41.8779 181.101L41.7968 181.043L41.7159 180.985L41.6737 180.956L41.6238 180.921L41.5429 180.863L41.4622 180.804L41.3814 180.746L41.3045 180.69L41.2895 180.681L41.209 180.623L41.1284 180.564L41.048 180.505L40.9676 180.446L40.9252 180.416L40.8759 180.381L40.7957 180.322L40.7155 180.263L40.6353 180.203L40.5584 180.146L40.544 180.138L40.4639 180.079L40.3839 180.019L40.304 179.959L40.2242 179.9L40.1816 179.869L40.1332 179.834L40.0534 179.774L39.9738 179.714L39.8941 179.654L39.8173 179.596L39.8035 179.588L39.7239 179.528L39.6445 179.467L39.5651 179.407L39.4858 179.347L39.4431 179.315L39.3955 179.28L39.3163 179.22L39.2371 179.159L39.1581 179.098L39.0813 179.039L39.068 179.031L38.989 178.97L38.9102 178.909L38.8313 178.848L38.7525 178.787L38.7097 178.755L38.6629 178.719L38.5842 178.658L38.5056 178.597L38.4272 178.535L38.3505 178.475L38.3377 178.467L38.2593 178.406L38.181 178.344L38.1027 178.282L38.0245 178.22L37.9816 178.187L37.9354 178.152L37.8573 178.09L37.7794 178.028L37.7014 177.965L37.6249 177.904L37.6126 177.897L37.5348 177.834L37.4571 177.772L37.3793 177.709L37.3017 177.647L37.2586 177.613L37.2133 177.578L37.1357 177.515L37.0583 177.452L36.981 177.389L36.9045 177.327L36.8928 177.32L36.8156 177.256L36.7384 177.193L36.6612 177.13L36.5842 177.067L36.541 177.032L36.4964 176.997L36.4195 176.933L36.3427 176.87L36.2658 176.806L36.1896 176.742L36.1783 176.736L36.1017 176.672L36.0251 176.608L35.9486 176.544L35.8721 176.48L35.8288 176.445L35.7849 176.409L35.7086 176.345L35.6323 176.281L35.5561 176.216L35.48 176.152L35.4693 176.145L35.3932 176.081L35.3171 176.016L35.2412 175.951L35.1654 175.886L35.1219 175.851L35.0788 175.815L35.0031 175.75L34.9274 175.685L34.8518 175.62L34.7763 175.555L34.7653 175.548L34.6902 175.483L34.6147 175.418L34.5394 175.352L34.4641 175.287L34.4206 175.25L34.3783 175.214L34.3032 175.149L34.228 175.083L34.153 175.017L34.0781 174.951L34.0667 174.944L33.9926 174.879L33.9178 174.813L33.8431 174.746L33.7684 174.68L33.7248 174.643L33.6833 174.607L33.6087 174.541L33.5342 174.474L33.4599 174.408L33.3855 174.341L33.3738 174.333L33.3007 174.268L33.2265 174.201L33.1524 174.134L33.0783 174.067L33.0347 174.029L32.9939 173.994L32.9199 173.927L32.8461 173.859L32.7723 173.792L32.6985 173.725L32.6865 173.717L32.6144 173.651L32.5409 173.583L32.4673 173.516L32.3939 173.448L32.3502 173.409L32.3101 173.374L32.2368 173.306L32.1636 173.238L32.0904 173.17L32.0173 173.102L32.0049 173.093L31.9339 173.027L31.861 172.959L31.788 172.891L31.7152 172.823L31.6715 172.783L31.6321 172.747L31.5594 172.679L31.4868 172.611L31.4142 172.542L31.3417 172.473L31.3291 172.464L31.2591 172.398L31.1867 172.329L31.1145 172.26L31.0423 172.191L30.9985 172.15L30.9599 172.115L30.8878 172.046L30.8158 171.977L30.7439 171.907L30.6721 171.838L30.6591 171.828L30.5901 171.762L30.5183 171.692L30.4467 171.623L30.3752 171.553L30.3314 171.512L30.2935 171.476L30.2221 171.406L30.1507 171.337L30.0794 171.267L30.0082 171.197L29.995 171.186L29.927 171.119L29.8559 171.049L29.7849 170.979L29.714 170.909L29.6701 170.867L29.633 170.831L29.5623 170.761L29.4915 170.69L29.4209 170.62L29.3503 170.549L29.3368 170.538L29.2698 170.471L29.1994 170.4L29.129 170.329L29.0587 170.259L29.0149 170.215L28.9785 170.18L28.9084 170.109L28.8383 170.038L28.7683 169.967L28.6984 169.896L28.6846 169.884L28.6186 169.817L28.5488 169.745L28.4791 169.674L28.4095 169.602L28.3657 169.558L28.33 169.523L28.2605 169.451L28.1911 169.38L28.1218 169.308L28.0525 169.236L28.0384 169.224L27.9734 169.156L27.9043 169.084L27.8353 169.012L27.7663 168.94L27.7225 168.895L27.6876 168.86L27.6188 168.788L27.55 168.715L27.4814 168.643L27.4127 168.57L27.3983 168.557L27.3344 168.49L27.266 168.417L27.1975 168.344L27.1293 168.272L27.0855 168.226L27.0513 168.191L26.9831 168.118L26.9151 168.045L26.847 167.972L26.779 167.899L26.7644 167.885L26.7015 167.818L26.6338 167.744L26.566 167.671L26.4984 167.598L26.4547 167.551L26.4212 167.516L26.3536 167.443L26.2863 167.369L26.2189 167.295L26.1516 167.221L26.1368 167.207L26.0749 167.139L26.0077 167.066L25.9407 166.992L25.8738 166.918L25.8301 166.87L25.7973 166.835L25.7305 166.761L25.6637 166.687L25.597 166.613L25.5305 166.538L25.5154 166.524L25.4545 166.456L25.388 166.381L25.3217 166.306L25.2554 166.232L25.2118 166.184L25.1796 166.149L25.1136 166.074L25.0475 165.999L24.9815 165.924L24.9157 165.849L24.9003 165.834L24.8404 165.766L24.7746 165.691L24.709 165.616L24.6434 165.54L24.5999 165.491L24.5684 165.457L24.503 165.381L24.4377 165.306L24.3724 165.23L24.3072 165.155L24.2917 165.139L24.2327 165.071L24.1676 164.995L24.1027 164.919L24.0377 164.843L23.9943 164.793L23.9636 164.759L23.8989 164.683L23.8342 164.607L23.7696 164.531L23.7051 164.454L23.6894 164.438L23.6314 164.37L23.5671 164.293L23.5028 164.217L23.4385 164.141L23.3953 164.09L23.3653 164.055L23.3012 163.979L23.2372 163.902L23.1734 163.825L23.1095 163.749L23.0936 163.732L23.0366 163.663L22.973 163.586L22.9094 163.509L22.8459 163.432L22.8027 163.381L22.7734 163.347L22.71 163.269L22.6468 163.192L22.5836 163.115L22.5205 163.037L22.5043 163.02L22.4484 162.951L22.3855 162.874L22.3225 162.796L22.2598 162.718L22.2167 162.666L22.188 162.632L22.1254 162.554L22.0629 162.476L22.0004 162.399L21.938 162.321L21.9217 162.302L21.8667 162.234L21.8045 162.156L21.7423 162.078L21.6803 161.999L21.6374 161.946L21.6094 161.912L21.5474 161.834L21.4856 161.755L21.4239 161.677L21.3621 161.598L21.3457 161.58L21.2917 161.511L21.2302 161.432L21.1687 161.354L21.1074 161.275L21.0647 161.221L21.0373 161.187L20.9761 161.108L20.915 161.029L20.854 160.95L20.793 160.871L20.7764 160.852L20.7234 160.783L20.6626 160.704L20.6019 160.624L20.5413 160.545L20.4987 160.49L20.4719 160.457L20.4115 160.377L20.3512 160.298L20.2908 160.218L20.2306 160.138L20.2139 160.118L20.1618 160.05L20.1017 159.97L20.0418 159.89L19.9819 159.81L19.9394 159.754L19.9134 159.721L19.8537 159.641L19.794 159.561L19.7345 159.481L19.675 159.4L19.6581 159.38L19.607 159.311L19.5477 159.231L19.4885 159.15L19.4293 159.07L19.3871 159.013L19.3617 158.98L19.3027 158.899L19.2438 158.819L19.185 158.738L19.1263 158.657L19.1092 158.636L19.059 158.567L19.0005 158.486L18.942 158.405L18.8835 158.324L18.8416 158.267L18.8168 158.234L18.7586 158.153L18.7004 158.072L18.6424 157.991L18.5844 157.909L18.5672 157.887L18.518 157.819L18.4602 157.737L18.4025 157.656L18.3448 157.574L18.303 157.516L18.2789 157.483L18.2214 157.401L18.164 157.32L18.1067 157.238L18.0494 157.156L18.0322 157.133L17.9839 157.065L17.9269 156.983L17.8699 156.901L17.813 156.819L17.7714 156.759L17.7479 156.727L17.6911 156.645L17.6345 156.563L17.5779 156.48L17.5214 156.398L17.5041 156.375L17.4569 156.306L17.4005 156.224L17.3442 156.141L17.2881 156.058L17.2468 155.998L17.2239 155.966L17.1679 155.884L17.1121 155.801L17.0562 155.718L17.0005 155.635L16.9831 155.611L16.9368 155.542L16.8812 155.459L16.8257 155.376L16.7704 155.293L16.7293 155.232L16.707 155.201L16.6518 155.117L16.5967 155.034L16.5416 154.951L16.4867 154.867L16.4692 154.843L16.4238 154.774L16.369 154.691L16.3143 154.607L16.2597 154.523L16.2188 154.461L16.1972 154.43L16.1428 154.346L16.0884 154.262L16.0341 154.179L15.98 154.095L15.9624 154.069L15.918 154.001L15.8639 153.917L15.81 153.833L15.7562 153.749L15.7156 153.686L15.6945 153.655L15.6409 153.57L15.5873 153.486L15.5338 153.402L15.4804 153.317L15.4628 153.291L15.4193 153.223L15.3661 153.139L15.3129 153.054L15.2598 152.969L15.2196 152.906L15.1991 152.875L15.1463 152.79L15.0934 152.705L15.0407 152.62L14.9881 152.535L14.9705 152.509L14.9279 152.441L14.8754 152.356L14.8231 152.271L14.7707 152.185L14.7308 152.121L14.711 152.09L14.6589 152.005L14.6068 151.92L14.5549 151.834L14.5031 151.749L14.4854 151.722L14.4437 151.654L14.3921 151.568L14.3405 151.483L14.289 151.397L14.2494 151.332L14.2301 151.301L14.1788 151.216L14.1275 151.13L14.0764 151.044L14.0253 150.958L14.0077 150.93L13.9669 150.862L13.9161 150.776L13.8652 150.69L13.8145 150.604L13.7753 150.538L13.7566 150.508L13.706 150.422L13.6556 150.335L13.6053 150.249L13.5549 150.163L13.5373 150.134L13.4975 150.066L13.4474 149.98L13.3973 149.893L13.3475 149.807L13.3085 149.74L13.2904 149.71L13.2406 149.623L13.1911 149.536L13.1415 149.45L13.092 149.363L13.0743 149.334L13.0355 149.266L12.9862 149.179L12.9369 149.092L12.8879 149.005L12.8492 148.937L12.8317 148.908L12.7827 148.821L12.7339 148.733L12.6851 148.646L12.6365 148.559L12.6189 148.529L12.5809 148.461L12.5324 148.374L12.484 148.287L12.4357 148.199L12.3974 148.13L12.3804 148.101L12.3323 148.014L12.2843 147.926L12.2363 147.838L12.1885 147.751L12.1709 147.72L12.1338 147.653L12.0861 147.565L12.0385 147.477L11.991 147.389L11.9531 147.319L11.9367 147.291L11.8894 147.203L11.8422 147.114L11.795 147.026L11.748 146.938L11.7304 146.907L11.6942 146.84L11.6473 146.751L11.6006 146.663L11.5539 146.575L11.5164 146.504L11.5005 146.476L11.4541 146.387L11.4076 146.299L11.3613 146.21L11.3151 146.122L11.2976 146.09L11.2622 146.023L11.2162 145.934L11.1703 145.845L11.1244 145.756L11.0873 145.685L11.072 145.657L11.0263 145.568L10.9807 145.479L10.9353 145.39L10.8898 145.301L10.8723 145.269L10.8379 145.202L10.7927 145.112L10.7476 145.023L10.7025 144.934L10.6659 144.862L10.651 144.834L10.6062 144.745L10.5614 144.656L10.5168 144.566L10.4722 144.477L10.4548 144.443L10.4212 144.377L10.3769 144.287L10.3325 144.197L10.2884 144.108L10.2521 144.035L10.2378 144.007L10.1937 143.918L10.1499 143.828L10.106 143.738L10.0622 143.648L10.0449 143.614L10.0122 143.548L9.96871 143.458L9.92517 143.368L9.88188 143.278L9.8461 143.204L9.83226 143.177L9.78903 143.087L9.74601 142.997L9.703 142.906L9.66007 142.816L9.64282 142.781L9.61102 142.715L9.5683 142.625L9.52565 142.534L9.48316 142.444L9.44781 142.369L9.43447 142.343L9.39213 142.252L9.34993 142.161L9.30772 142.071L9.26568 141.98L9.24853 141.945L9.21757 141.879L9.17565 141.788L9.13391 141.697L9.09223 141.606L9.05732 141.531L9.04447 141.505L9.00302 141.414L8.96163 141.323L8.92025 141.232L8.8791 141.141L8.86206 141.105L8.83193 141.039L8.79084 140.948L8.74998 140.856L8.70912 140.765L8.6747 140.689L8.66235 140.663L8.62175 140.572L8.58117 140.48L8.54069 140.389L8.50036 140.297L8.48343 140.261L8.45414 140.195L8.41394 140.104L8.3739 140.012L8.33387 139.92L8.29998 139.843L8.28812 139.818L8.24835 139.726L8.20857 139.634L8.169 139.543L8.1295 139.451L8.11269 139.413L8.08421 139.348L8.04493 139.256L8.00571 139.164L7.9665 139.072L7.93317 138.994L7.92177 138.969L7.88283 138.877L7.84391 138.785L7.80523 138.693L7.76655 138.601L7.74989 138.562L7.72225 138.497L7.68385 138.405L7.64544 138.313L7.60714 138.22L7.57432 138.141L7.56336 138.117L7.52526 138.025L7.48726 137.932L7.44939 137.84L7.41155 137.747L7.39507 137.708L7.36828 137.643L7.33071 137.551L7.29314 137.458L7.25575 137.365L7.22344 137.286L7.21294 137.262L7.17566 137.169L7.13857 137.076L7.10154 136.983L7.06454 136.89L7.04824 136.851L7.02231 136.786L6.98557 136.693L6.94884 136.6L6.91235 136.507L6.88057 136.426L6.87051 136.403L6.83409 136.31L6.79789 136.217L6.76169 136.123L6.72558 136.03L6.70947 135.99L6.68434 135.926L6.64844 135.832L6.61264 135.739L6.57699 135.646L6.54574 135.564L6.53611 135.541L6.50061 135.448L6.46526 135.354L6.42991 135.261L6.39471 135.167L6.37879 135.126L6.35444 135.062L6.31937 134.968L6.28451 134.875L6.24969 134.781L6.21898 134.699L6.20978 134.676L6.17521 134.582L6.14069 134.488L6.10618 134.395L6.07192 134.301L6.05618 134.259L6.03262 134.195L5.99841 134.101L5.96445 134.007L5.93049 133.913L5.90037 133.83L5.8916 133.808L5.85791 133.714L5.82423 133.62L5.79065 133.526L5.75723 133.431L5.74169 133.389L5.71891 133.326L5.68564 133.232L5.65251 133.137L5.61939 133.043L5.58992 132.959L5.58156 132.937L5.54872 132.843L5.51589 132.748L5.48325 132.654L5.45068 132.559L5.43536 132.516L5.41333 132.453L5.381 132.359L5.34872 132.264L5.31646 132.169L5.28765 132.085L5.27969 132.063L5.2477 131.968L5.21574 131.874L5.18401 131.779L5.1523 131.684L5.13722 131.641L5.11598 131.578L5.08454 131.483L5.0531 131.388L5.02177 131.293L4.99357 131.207L4.98599 131.187L4.95486 131.092L4.92384 130.996L4.89296 130.901L4.86211 130.806L4.8473 130.762L4.82685 130.7L4.79628 130.604L4.7657 130.509L4.7353 130.414L4.70771 130.328L4.70051 130.307L4.67024 130.212L4.64016 130.117L4.61014 130.021L4.58014 129.926L4.56562 129.881L4.54595 129.819L4.51624 129.723L4.48653 129.628L4.45707 129.532L4.43009 129.445L4.42327 129.425L4.39388 129.33L4.36472 129.234L4.33556 129.138L4.30648 129.043L4.29223 128.997L4.2733 128.935L4.24445 128.84L4.21569 128.744L4.18708 128.648L4.16074 128.56L4.15428 128.541L4.12583 128.445L4.09754 128.349L4.06924 128.253L4.0411 128.157L4.02713 128.111L4.00893 128.049L3.98093 127.953L3.95312 127.857L3.92538 127.761L3.89968 127.672L3.89357 127.653L3.86608 127.557L3.83865 127.461L3.81121 127.365L3.78403 127.269L3.77035 127.222L3.75285 127.161L3.72573 127.065L3.69887 126.968L3.67199 126.872L3.64699 126.782L3.64123 126.764L3.61464 126.668L3.58806 126.571L3.56159 126.475L3.53527 126.378L3.52188 126.331L3.5051 126.27L3.47893 126.174L3.45293 126.077L3.42693 125.98L3.40267 125.89L3.39725 125.872L3.37153 125.775L3.34581 125.679L3.32029 125.582L3.29486 125.485L3.28176 125.437L3.26568 125.377L3.24047 125.28L3.21532 125.183L3.1902 125.087L3.16671 124.995L3.16161 124.978L3.13677 124.881L3.11193 124.784L3.08736 124.687L3.0628 124.59L3.05002 124.541L3.03466 124.482L3.01038 124.385L2.9861 124.288L2.96191 124.191L2.93913 124.099L2.93434 124.082L2.91038 123.985L2.88651 123.887L2.8628 123.79L2.83912 123.693L2.82671 123.643L2.81206 123.584L2.78866 123.487L2.76526 123.39L2.74202 123.292L2.71995 123.2L2.71546 123.183L2.69237 123.086L2.66946 122.989L2.64663 122.891L2.62383 122.794L2.6118 122.744L2.59785 122.685L2.57534 122.587L2.55282 122.49L2.53054 122.392L2.50918 122.299L2.505 122.283L2.48279 122.185L2.46083 122.088L2.43888 121.99L2.41698 121.893L2.40533 121.842L2.39208 121.783L2.37044 121.685L2.34886 121.588L2.32748 121.49L2.30685 121.396L2.30295 121.38L2.2817 121.283L2.26063 121.185L2.23955 121.087L2.21862 120.99L2.20732 120.938L2.19473 120.88L2.17396 120.782L2.15336 120.684L2.13285 120.586L2.11295 120.491L2.10934 120.476L2.08904 120.378L2.06885 120.28L2.04867 120.183L2.02869 120.085L2.01777 120.032L2.00582 119.974L1.98593 119.876L1.96629 119.778L1.94667 119.68L1.92752 119.585L1.92419 119.57L1.90485 119.472L1.88553 119.374L1.86627 119.276L1.84722 119.178L1.83667 119.125L1.82537 119.068L1.80641 118.969L1.78768 118.871L1.76895 118.773L1.75063 118.676L1.74756 118.663L1.72912 118.564L1.71068 118.466L1.69238 118.368L1.67422 118.269L1.66406 118.216L1.65339 118.159L1.6354 118.061L1.61755 117.962L1.5997 117.864L1.58224 117.767L1.57941 117.753L1.56185 117.655L1.5443 117.556L1.52697 117.458L1.50969 117.359L1.49993 117.305L1.48988 117.249L1.47286 117.15L1.45589 117.052L1.43894 116.953L1.42234 116.855L1.41974 116.842L1.40307 116.744L1.38643 116.645L1.37004 116.547L1.35366 116.448L1.34433 116.393L1.33491 116.337L1.31882 116.238L1.30272 116.14L1.28673 116.041L1.27094 115.942L1.26856 115.93L1.25279 115.831L1.23711 115.733L1.2216 115.634L1.20611 115.535L1.19725 115.479L1.18847 115.424L1.17326 115.325L1.15806 115.226L1.14303 115.128L1.12812 115.029L1.12581 115.016L1.111 114.917L1.09629 114.819L1.08166 114.72L1.06706 114.621L1.05868 114.564L1.05052 114.51L1.03621 114.411L1.0219 114.312L1.00783 114.213L0.993806 114.114L0.991572 114.1L0.977711 114.002L0.963975 113.903L0.95024 113.804L0.936553 113.705L0.92864 113.648L0.921082 113.594L0.907662 113.495L0.894298 113.396L0.881135 113.297L0.868006 113.198L0.865849 113.184L0.853007 113.086L0.840167 112.987L0.827327 112.888L0.814595 112.789L0.807144 112.731L0.800164 112.677L0.787624 112.578L0.775228 112.479L0.762962 112.379L0.750718 112.28L0.748649 112.266L0.736824 112.169L0.724873 112.069L0.712924 111.97L0.701151 111.871L0.694171 111.812L0.687754 111.759L0.676101 111.66L0.664673 111.56L0.653298 111.461L0.641939 111.362L0.639975 111.347L0.629154 111.25L0.618087 111.151L0.607039 111.051L0.596231 110.952L0.589721 110.893L0.583859 110.84L0.573112 110.741L0.56263 110.641L0.552156 110.542L0.541716 110.442L0.53986 110.427L0.530001 110.331L0.519819 110.231L0.509727 110.132L0.499828 110.032L0.493793 109.973L0.488482 109.92L0.478698 109.821L0.469102 109.721L0.459525 109.622L0.450052 109.522L0.448298 109.506L0.439363 109.41L0.430071 109.311L0.420937 109.211L0.411935 109.112L0.40639 109.051L0.401614 109L0.392797 108.9L0.384084 108.8L0.375404 108.701L0.366896 108.601L0.365258 108.584L0.357232 108.489L0.34884 108.389L0.340657 108.29L0.332551 108.19L0.327517 108.129L0.323256 108.078L0.315402 107.978L0.307585 107.879L0.299795 107.779L0.292248 107.679L0.290737 107.662L0.28361 107.567L0.276121 107.468L0.268881 107.368L0.261674 107.268L0.257174 107.207L0.25343 107.156L0.24651 107.056L0.239591 106.956L0.232733 106.857L0.226102 106.757L0.224738 106.739L0.218488 106.645L0.211959 106.545L0.205615 106.445L0.199296 106.345L0.195361 106.283L0.192145 106.233L0.186119 106.133L0.180096 106.034L0.174184 105.934L0.16845 105.834L0.167243 105.815L0.161862 105.722L0.156292 105.622L0.150844 105.522L0.145409 105.422L0.142051 105.359L0.139357 105.31L0.134215 105.21L0.129091 105.11L0.124134 105.01L0.119285 104.91L0.118248 104.891L0.11373 104.798L0.109109 104.698L0.10456 104.598L0.100011 104.498L0.0972355 104.435L0.0950534 104.386L0.0907951 104.286L0.0865688 104.186L0.0825677 104.086L0.0786025 103.986L0.0777407 103.967L0.0740845 103.874L0.0704042 103.774L0.0667525 103.674L0.0631109 103.574L0.0609084 103.51L0.0592228 103.462L0.0558575 103.362L0.0525467 103.262L0.0494695 103.162L0.0463921 103.062L0.0457165 103.042L0.0429535 102.95L0.0401632 102.85L0.0374084 102.75L0.0347177 102.65L0.0330725 102.586L0.0318524 102.538L0.0293847 102.438L0.0270088 102.338L0.0248281 102.238L0.0226475 102.138L0.0221603 102.117L0.0202839 102.025L0.0183902 101.925L0.016518 101.825L0.0147746 101.725L0.0137045 101.66L0.0129316 101.613L0.0113601 101.513L0.00992055 101.413L0.008632 101.313L0.007347 101.213L0.00705789 101.191L0.00605482 101.101L0.00505699 101.001L0.00406554 100.901L0.00326733 100.801L0.0027874 100.735L0.00244516 100.688L0.00176911 100.588L0.00127345 100.488L0.000865574 100.388L0.000476179 100.288L0.000406395 100.266L0.000235888 100.176L0.000112858 100.076L6.10352e-05 99.9757L0.000190468 99.8758L0.000280648 99.8096L0.000352611 99.7633L0.000634026 99.6633L0.00104936 99.5633L0.00147731 99.4633L0.00207423 99.3634L0.00223001 99.3406L0.00286941 99.2509L0.00360145 99.1509L0.00451441 99.0509L0.00550873 98.951L0.00619643 98.8842L0.00667771 98.8385L0.00792631 98.7385L0.00922028 98.6385L0.0105209 98.5385L0.012082 98.4386L0.0124765 98.4153L0.0138849 98.3261L0.0155261 98.2262L0.0173823 98.1262L0.0192386 98.0263L0.0205769 97.9589L0.0214995 97.9138L0.0236371 97.8138L0.0258041 97.7139L0.0280909 97.6139L0.0305099 97.514L0.03115 97.4901L0.0333335 97.4015L0.0359375 97.3016L0.0386723 97.2016L0.0414088 97.1017L0.0434112 97.0338L0.0447759 96.9893L0.0477945 96.8893L0.0508162 96.7894L0.0540917 96.6895L0.0573912 96.5895L0.058266 96.5651L0.0612261 96.4771L0.0648088 96.3772L0.0683989 96.2773L0.0720655 96.1773L0.0747368 96.1089L0.0764918 96.065L0.080391 95.9651L0.084376 95.8652L0.0885367 95.7652L0.0927172 95.6653L0.0938688 95.6403L0.097663 95.553L0.102126 95.4531L0.106588 95.3532L0.111232 95.2533L0.114545 95.1844L0.116673 95.141L0.12144 95.0411L0.126418 94.9413L0.131444 94.8414L0.136497 94.7416L0.137944 94.716L0.142563 94.6292L0.1479 94.5294L0.153271 94.4296L0.158861 94.3298L0.162824 94.2602L0.165323 94.2175L0.171016 94.1176L0.176922 94.0178L0.18283 93.918L0.188843 93.8182L0.190582 93.7921L0.195946 93.706L0.202142 93.6062L0.208509 93.5064L0.214981 93.4066L0.219582 93.3366L0.222446 93.2944L0.229133 93.1947L0.2359 93.0949L0.242691 92.9951L0.249698 92.8954L0.251714 92.8687L0.257806 92.7832L0.264888 92.6835L0.272225 92.5838L0.27958 92.4841L0.284875 92.4135L0.288096 92.3719L0.295732 92.2722L0.30337 92.1725L0.311117 92.0729L0.319037 91.9732L0.321346 91.946L0.328148 91.8611L0.336228 91.7614L0.344429 91.6618L0.35266 91.5622L0.358717 91.4911L0.3623 91.4501L0.370817 91.3505L0.379335 91.2509L0.388059 91.1513L0.39686 91.0517L0.399488 91.0239L0.406976 90.9396L0.416056 90.8401L0.425139 90.7405L0.434266 90.641L0.441071 90.5694L0.445013 90.529L0.454391 90.4294L0.463868 90.3299L0.473515 90.2304L0.483177 90.1309L0.486153 90.1026L0.494428 90.019L0.504375 89.9195L0.514343 89.82L0.524462 89.7206L0.531954 89.6485L0.53622 89.6087L0.546468 89.5093L0.556934 89.4098L0.567466 89.3104L0.577995 89.211L0.581324 89.1821L0.590384 89.0992L0.601195 88.9998L0.612067 88.9004L0.623163 88.801L0.631345 88.7284L0.635925 88.6893L0.647122 88.5899L0.658501 88.4906L0.669913 88.3913L0.681435 88.2919L0.685091 88.2626L0.69484 88.1803L0.706533 88.081L0.718383 87.9817L0.730357 87.8825L0.739264 87.8094L0.744123 87.7709L0.756324 87.6716L0.768581 87.5724L0.780856 87.4732L0.793377 87.374L0.797389 87.3441L0.807786 87.2624L0.820386 87.1632L0.833206 87.0641L0.846051 86.965L0.855732 86.8914L0.86089 86.8535L0.874022 86.7544L0.887163 86.6552L0.900404 86.5561L0.91382 86.4571L0.918198 86.4266L0.929231 86.3457L0.942831 86.2466L0.956532 86.1476L0.970242 86.0485L0.980747 85.9745L0.986226 85.9372L1.00021 85.8382L1.01423 85.7393L1.02848 85.6403L1.04276 85.5413L1.04752 85.5104L1.05921 85.4301L1.07377 85.3312L1.08835 85.2323L1.103 85.1334L1.11428 85.0588L1.12005 85.0222L1.13491 84.9233L1.1499 84.8245L1.16504 84.7257L1.18019 84.6268L1.18535 84.5953L1.19778 84.5157L1.21321 84.417L1.22866 84.3182L1.24431 84.2195L1.25633 84.1445L1.26236 84.1084L1.27811 84.0097L1.29407 83.911L1.3101 83.8123L1.32614 83.7137L1.3317 83.6817L1.34484 83.6027L1.36114 83.5041L1.37752 83.4055L1.3941 83.3069L1.40689 83.2315L1.41316 83.1961L1.42988 83.0975L1.44674 82.9989L1.46363 82.9004L1.48067 82.8019L1.48663 82.7694L1.50037 82.6912L1.51755 82.5927L1.53492 82.4942L1.55237 82.3958L1.56594 82.3199L1.57243 82.2851L1.59015 82.1867L1.60789 82.0883L1.62565 81.99L1.64367 81.8916L1.65005 81.8586L1.66437 81.7811L1.68249 81.6828L1.7008 81.5845L1.7191 81.4862L1.73354 81.4099L1.74029 81.3758L1.75888 81.2775L1.7775 81.1793L1.79626 81.0811L1.81514 80.9829L1.82194 80.9494L1.83685 80.8726L1.85596 80.7744L1.87514 80.6763L1.89432 80.5782L1.90962 80.5015L1.91662 80.468L1.93609 80.3699L1.95559 80.2719L1.97534 80.1738L1.99507 80.0758L2.00231 80.0419L2.01786 79.9657L2.03787 79.8678L2.05793 79.7698L2.07809 79.6719L2.09419 79.5948L2.10141 79.5619L2.12174 79.464L2.14222 79.3662L2.16284 79.2684L2.18345 79.1705L2.19114 79.1361L2.20735 79.0606L2.22824 78.9629L2.24915 78.8651L2.2703 78.7674L2.28722 78.6899L2.29462 78.6576L2.31585 78.5599L2.3373 78.4623L2.35877 78.3646L2.38032 78.267L2.38848 78.2321L2.40527 78.1574L2.42704 78.0598L2.44891 77.9622L2.47094 77.8647L2.48868 77.7868L2.49625 77.7552L2.51848 77.6577L2.5408 77.5602L2.56312 77.4628L2.58567 77.3654L2.59428 77.33L2.61161 77.256L2.63424 77.1586L2.65711 77.0613L2.68 76.964L2.69858 76.8857L2.70634 76.8547L2.72951 76.7574L2.7527 76.6602L2.77596 76.5629L2.79941 76.4657L2.80849 76.4299L2.82636 76.3566L2.84996 76.2594L2.8737 76.1623L2.89744 76.0652L2.91696 75.9866L2.92492 75.9562L2.94894 75.8591L2.97299 75.7621L2.99724 75.6651L3.02154 75.5682L3.03109 75.5318L3.04949 75.4592L3.07406 75.3623L3.09867 75.2654L3.12331 75.1686L3.14372 75.0896L3.15186 75.0598L3.17675 74.963L3.20172 74.8662L3.22688 74.7694L3.25204 74.6727L3.2621 74.6359L3.2811 74.5641L3.30654 74.4674L3.332 74.3707L3.35763 74.2741L3.37888 74.1947L3.38715 74.1656L3.4129 74.069L3.43885 73.9725L3.46487 73.8759L3.4909 73.7794L3.50147 73.7422L3.52105 73.6711L3.54735 73.5747L3.5737 73.4782L3.60028 73.3819L3.62239 73.3021L3.63079 73.2736L3.65747 73.1773L3.68432 73.081L3.71119 72.9847L3.7382 72.8885L3.74928 72.8508L3.76934 72.7804L3.7965 72.6842L3.82382 72.5881L3.85124 72.492L3.87423 72.4119L3.88275 72.384L3.91042 72.2879L3.93813 72.1919L3.96584 72.0958L3.99381 71.9999L4.0054 71.9618L4.02593 71.8921L4.05399 71.7962L4.08225 71.7003L4.11051 71.6044L4.13444 71.524L4.14309 71.4968L4.17163 71.401L4.2002 71.3052L4.22889 71.2094L4.2577 71.1137L4.26982 71.0752L4.29081 71.0063L4.31983 70.9107L4.34895 70.815L4.37806 70.7194L4.40296 70.6387L4.41174 70.6121L4.44112 70.5166L4.47054 70.421L4.5002 70.3256L4.52986 70.2301L4.54252 70.1911L4.564 70.123L4.59393 70.0276L4.6239 69.9323L4.65395 69.8369L4.67976 69.7559L4.68864 69.73L4.71888 69.6347L4.74925 69.5395L4.77976 69.4443L4.81027 69.3491L4.82349 69.3097L4.8455 69.2423L4.87628 69.1472L4.90708 69.0521L4.9381 68.9571L4.96481 68.8758L4.97375 68.8505L5.00486 68.7555L5.03618 68.6606L5.06753 68.5657L5.09893 68.4708L5.11272 68.4309L5.1352 68.3643L5.16683 68.2695L5.19856 68.1747L5.23046 68.08L5.25807 67.9984L5.26707 67.9737L5.29913 67.879L5.3313 67.7844L5.36349 67.6898L5.39586 67.5952L5.4102 67.555L5.43309 67.4891L5.46557 67.3946L5.49824 67.3001L5.53098 67.2057L5.55952 67.1238L5.56857 67.0997L5.60157 67.0054L5.63459 66.9111L5.66765 66.8167L5.70093 66.7225L5.71585 66.6818L5.73914 66.6167L5.77253 66.5225L5.80609 66.4284L5.83965 66.3343L5.86921 66.2521L5.87833 66.2287L5.91217 66.1346L5.94603 66.0406L5.98005 65.9466L6.01414 65.8527L6.02963 65.8116L6.05332 65.7473L6.08767 65.6534L6.12206 65.5595L6.15646 65.4657L6.18703 65.3833L6.19622 65.3605L6.23088 65.2668L6.26561 65.1731L6.30054 65.0794L6.33548 64.9858L6.35155 64.9444L6.37569 64.8808L6.41089 64.7873L6.44612 64.6937L6.48148 64.6002L6.51296 64.5176L6.52218 64.4954L6.55768 64.402L6.59334 64.3087L6.62911 64.2153L6.66489 64.122L6.68157 64.0802L6.70616 64.0174L6.7422 63.9242L6.77824 63.831L6.81454 63.7379L6.84698 63.655L6.8562 63.6334L6.89257 63.5404L6.92914 63.4473L6.96572 63.3543L7.0024 63.2614L7.0197 63.2192L7.04467 63.1572L7.08153 63.0643L7.11851 62.9714L7.15563 62.8787L7.18902 62.7955L7.19824 62.7746L7.23555 62.6819L7.27295 62.5892L7.31035 62.4965L7.34797 62.4039L7.36587 62.3614L7.39117 62.3002L7.42887 62.2076L7.4668 62.1151L7.50473 62.0226L7.5391 61.9393L7.54832 61.9191L7.58652 61.8267L7.62474 61.7344L7.66305 61.642L7.70152 61.5498L7.72003 61.5069L7.74567 61.4464L7.78428 61.3543L7.82303 61.2621L7.86178 61.17L7.89721 61.0865L7.90644 61.0668L7.94545 60.9748L7.98449 60.8828L8.02372 60.7909L8.063 60.699L8.08213 60.6558L8.10811 60.596L8.14764 60.5043L8.18721 60.4125L8.2268 60.3207L8.26326 60.237L8.27247 60.218L8.31232 60.1263L8.35222 60.0347L8.39232 59.9432L8.43241 59.8517L8.45219 59.8081L8.47854 59.7492L8.51891 59.6577L8.55928 59.5663L8.59981 59.4749L8.63722 59.3911L8.6464 59.3727L8.68705 59.2814L8.72787 59.1902L8.76879 59.099L8.8097 59.0078L8.83014 58.9639L8.85686 58.9058L8.89803 58.8147L8.93922 58.7237L8.98066 58.6327L9.01906 58.5486L9.02818 58.5309L9.06969 58.44L9.11139 58.3491L9.15309 58.2583L9.19491 58.1675L9.216 58.1234L9.24301 58.066L9.285 57.9753L9.3271 57.8847L9.36933 57.7941L9.40872 57.7099L9.41779 57.6927L9.46021 57.6022L9.50271 57.5118L9.54521 57.4213L9.58793 57.331L9.60967 57.2865L9.63696 57.2298L9.67977 57.1395L9.72278 57.0493L9.7658 56.9591L9.80621 56.8748L9.81521 56.8582L9.85849 56.7681L9.90181 56.6781L9.94519 56.588L9.98873 56.4981L10.0111 56.4533L10.0387 56.3974L10.0824 56.3076L10.1262 56.2177L10.17 56.1279L10.2115 56.0434L10.2205 56.0275L10.2645 55.9378L10.3086 55.8482L10.3529 55.7585L10.3973 55.669L10.4203 55.6239L10.4481 55.5688L10.4927 55.4794L10.5373 55.39L10.582 55.3006L10.6245 55.216L10.6334 55.2006L10.6783 55.1113L10.7232 55.0221L10.7683 54.9329L10.8135 54.8438L10.8372 54.7984L10.8654 54.7441L10.9107 54.655L10.9561 54.566L11.0017 54.4771L11.0452 54.3924L11.054 54.3777L11.0997 54.2887L11.1455 54.2L11.1914 54.1112L11.2373 54.0225L11.2618 53.9768L11.2902 53.9233L11.3364 53.8347L11.3826 53.7461L11.429 53.6576L11.4736 53.5728L11.4822 53.5586L11.5287 53.4702L11.5754 53.3819L11.6221 53.2935L11.6689 53.2052L11.694 53.1593L11.7227 53.1066L11.7697 53.0184L11.8167 52.9302L11.8639 52.8422L11.9095 52.7572L11.9181 52.7437L11.9654 52.6557L12.0129 52.5678L12.0604 52.4799L12.1081 52.392L12.1339 52.3458L12.1627 52.2939L12.2105 52.2061L12.2584 52.1185L12.3064 52.0308L12.353 51.9458L12.3615 51.9329L12.4097 51.8453L12.4579 51.7578L12.5062 51.6704L12.5547 51.583L12.5812 51.5365L12.6103 51.4854L12.6589 51.398L12.7076 51.3108L12.7564 51.2236L12.8041 51.1386L12.8124 51.1262L12.8614 51.0392L12.9105 50.9521L12.9596 50.8651L13.0089 50.7782L13.0361 50.7314L13.0654 50.681L13.1148 50.5942L13.1643 50.5074L13.2139 50.4207L13.2627 50.3356L13.2709 50.3238L13.3206 50.2372L13.3704 50.1506L13.4205 50.0641L13.4705 49.9776L13.4984 49.9307L13.5279 49.881L13.5782 49.7947L13.6284 49.7083L13.6788 49.6221L13.7287 49.537L13.7367 49.5257L13.7873 49.4396L13.8379 49.3535L13.8887 49.2674L13.9395 49.1814L13.9682 49.1342L13.9979 49.0854L14.0489 48.9995L14.0999 48.9136L14.1512 48.8278L14.2021 48.7427L14.2099 48.7321L14.2612 48.6464L14.3128 48.5607L14.3643 48.4752L14.4159 48.3896L14.4453 48.3422L14.4752 48.2942L14.527 48.2088L14.5789 48.1234L14.6309 48.0381L14.6828 47.9529L14.6905 47.9428L14.7426 47.8576L14.7949 47.7725L14.8472 47.6873L14.8997 47.6023L14.9298 47.5547L14.9598 47.5074L15.0124 47.4225L15.0651 47.3376L15.1179 47.2528L15.1706 47.168L15.1786 47.1577L15.2313 47.0734L15.2844 46.9888L15.3374 46.9041L15.3907 46.8196L15.4216 46.7718L15.4517 46.7253L15.505 46.6408L15.5585 46.5564L15.6121 46.4721L15.6657 46.3878L15.674 46.3772L15.7273 46.2938L15.781 46.2096L15.8349 46.1255L15.8889 46.0415L15.9205 45.9935L15.9508 45.9477L16.005 45.8638L16.0592 45.7799L16.1135 45.696L16.1679 45.6123L16.1767 45.6012L16.2303 45.5189L16.2849 45.4351L16.3396 45.3516L16.3943 45.268L16.4267 45.2198L16.4571 45.1748L16.5121 45.0914L16.567 45.0081L16.6221 44.9247L16.6773 44.8414L16.6865 44.83L16.7406 44.7486L16.7959 44.6655L16.8514 44.5824L16.9069 44.4993L16.94 44.451L16.9705 44.4068L17.0263 44.3239L17.082 44.241L17.1379 44.1582L17.1939 44.0754L17.2035 44.0636L17.2579 43.9832L17.3141 43.9006L17.3703 43.818L17.4265 43.7354L17.4605 43.6869L17.4911 43.6435L17.5476 43.5611L17.604 43.4787L17.6607 43.3965L17.7174 43.3142L17.7275 43.302L17.7823 43.2226L17.8393 43.1405L17.8962 43.0584L17.9532 42.9764L17.988 42.9278L18.0187 42.8851L18.0758 42.8032L18.1331 42.7214L18.1905 42.6396L18.2479 42.5579L18.2585 42.5454L18.3138 42.467L18.3715 42.3854L18.4292 42.3038L18.487 42.2224L18.5224 42.1736L18.5532 42.1317L18.6111 42.0503L18.6692 41.969L18.7273 41.8878L18.7855 41.8065L18.7964 41.7937L18.8523 41.7163L18.9106 41.6352L18.969 41.5542L19.0276 41.4733L19.0639 41.4244L19.0947 41.3832L19.1534 41.3024L19.2122 41.2217L19.2711 41.141L19.33 41.0603L19.3414 41.0471L19.3976 40.9706L19.4567 40.8901L19.5159 40.8097L19.5752 40.7293L19.6122 40.6802L19.6431 40.6398L19.7026 40.5596L19.7621 40.4794L19.8216 40.3992L19.8814 40.3192L19.8933 40.3056L19.9498 40.2301L20.0096 40.1501L20.0696 40.0702L20.1296 39.9904L20.1674 39.9412L20.1983 39.9016L20.2585 39.8219L20.3188 39.7423L20.3791 39.6626L20.4396 39.5832L20.4519 39.5693L20.5088 39.4947L20.5693 39.4153L20.63 39.336L20.6908 39.2567L20.7294 39.2075L20.7604 39.1686L20.8213 39.0895L20.8822 39.0103L20.9433 38.9313L21.0045 38.8524L21.0173 38.8381L21.0745 38.7646L21.1359 38.6858L21.1973 38.607L21.2587 38.5283L21.2981 38.479L21.3291 38.4408L21.3908 38.3622L21.4524 38.2837L21.5143 38.2053L21.5761 38.1269L21.5895 38.1123L21.647 38.0398L21.7091 37.9615L21.7712 37.8833L21.8333 37.8052L21.8736 37.7558L21.9046 37.7184L21.9669 37.6404L22.0293 37.5624L22.0919 37.4846L22.1544 37.4067L22.1683 37.3918L22.2261 37.3203L22.2889 37.2426L22.3517 37.165L22.4146 37.0874L22.4557 37.038L22.4867 37.0013L22.5497 36.9239L22.6129 36.8465L22.6761 36.7692L22.7393 36.692L22.7537 36.6768L22.8119 36.6063L22.8753 36.5292L22.9388 36.4521L23.0025 36.3752L23.0444 36.3256L23.0753 36.2897L23.1391 36.2128L23.203 36.1361L23.2669 36.0594L23.3309 35.9827L23.3457 35.9672L23.4042 35.8977L23.4684 35.8211L23.5326 35.7447L23.5969 35.6683L23.6396 35.6187L23.6705 35.5836L23.735 35.5073L23.7996 35.4311L23.8642 35.355L23.9289 35.2789L23.9443 35.2632L24.003 35.1946L24.0678 35.1187L24.1328 35.0428L24.1978 34.967L24.2413 34.9174L24.2722 34.883L24.3374 34.8074L24.4027 34.7318L24.468 34.6562L24.5334 34.5808L24.5493 34.5647L24.6083 34.4971L24.6738 34.4218L24.7395 34.3466L24.8052 34.2714L24.8495 34.2217L24.8804 34.188L24.9463 34.113L25.0122 34.038L25.0782 33.9631L25.1443 33.8883L25.1607 33.8719L25.2199 33.8053L25.2862 33.7306L25.3525 33.656L25.4189 33.5814L25.464 33.5317L25.4949 33.4988L25.5614 33.4243L25.628 33.3499L25.6948 33.2757L25.7615 33.2014L25.7785 33.1848L25.8379 33.1192L25.9049 33.0451L25.9719 32.9711L26.0389 32.8971L26.0849 32.8475L26.1157 32.8153L26.1829 32.7414L26.2502 32.6676L26.3176 32.594L26.3851 32.5204L26.4025 32.5035L26.4622 32.4389L26.5299 32.3654L26.5975 32.292L26.6653 32.2186L26.7121 32.169L26.7428 32.1375L26.8107 32.0643L26.8787 31.9912L26.9467 31.9181L27.0148 31.8451L27.0328 31.828L27.0928 31.7644L27.1611 31.6915L27.2293 31.6187L27.2978 31.546L27.3455 31.4964L27.3761 31.4656L27.4446 31.393L27.5133 31.3205L27.582 31.2481L27.6508 31.1757L27.6693 31.1584L27.7295 31.0958L27.7984 31.0235L27.8674 30.9514L27.9365 30.8793L27.985 30.8297L28.0155 30.7996L28.0847 30.7277L28.1541 30.6558L28.2234 30.584L28.2929 30.5123L28.312 30.4948L28.3723 30.4331L28.4419 30.3615L28.5116 30.29L28.5813 30.2185L28.6307 30.169L28.661 30.1396L28.731 30.0683L28.8009 29.9971L28.8709 29.9259L28.9411 29.8549L28.9608 29.8371L29.0212 29.7764L29.0914 29.7054L29.1618 29.6346L29.2322 29.5638L29.2823 29.5142L29.3126 29.4856L29.3832 29.415L29.4538 29.3444L29.5244 29.2739L29.5952 29.2035L29.6155 29.1855L29.6761 29.1257L29.747 29.0554L29.818 28.9853L29.889 28.9151L29.9401 28.8656L29.9702 28.8377L30.0414 28.7677L30.1126 28.6978L30.184 28.628L30.2554 28.5582L30.2762 28.54L30.337 28.4812L30.4085 28.4116L30.4801 28.342L30.5518 28.2725L30.6037 28.2232L30.6337 28.1959L30.7056 28.1266L30.7774 28.0573L30.8494 27.9882L30.9214 27.9191L30.9429 27.9006L31.0037 27.8428L31.0759 27.7739L31.1482 27.705L31.2205 27.6362L31.2732 27.5869L31.3031 27.5603L31.3756 27.4917L31.4481 27.4231L31.5207 27.3546L31.5933 27.2861L31.6153 27.2675L31.6764 27.2107L31.7492 27.1424L31.822 27.0742L31.8949 27.006L31.9486 26.9568L31.9783 26.931L32.0514 26.8629L32.1245 26.7951L32.1977 26.7272L32.271 26.6594L32.2936 26.6407L32.3547 26.5848L32.4282 26.5172L32.5016 26.4496L32.5752 26.3822L32.6297 26.3331L32.6593 26.3079L32.7329 26.2406L32.8067 26.1734L32.8805 26.1062L32.9544 26.0391L32.9776 26.0202L33.0389 25.9653L33.1129 25.8983L33.187 25.8314L33.2612 25.7647L33.3165 25.7157L33.3459 25.6912L33.4202 25.6246L33.4946 25.558L33.569 25.4915L33.6435 25.4251L33.6673 25.406L33.7287 25.3521L33.8033 25.2858L33.878 25.2197L33.9528 25.1536L34.009 25.1047L34.0382 25.0808L34.1131 25.0149L34.1881 24.9491L34.2631 24.8833L34.3382 24.8176L34.3627 24.7983L34.424 24.7453L34.4992 24.6797L34.5746 24.6143L34.65 24.5489L34.7071 24.5002L34.736 24.477L34.8116 24.4118L34.8871 24.3466L34.9628 24.2815L35.0385 24.2165L35.0635 24.1971L35.1249 24.1451L35.2008 24.0802L35.2767 24.0154L35.3527 23.9507L35.4107 23.9022L35.4394 23.8797L35.5156 23.8151L35.5917 23.7506L35.668 23.6863L35.7443 23.622L35.7699 23.6024L35.8313 23.5513L35.9078 23.4872L35.9843 23.4231L36.0608 23.3591L36.1197 23.3107L36.1483 23.2889L36.225 23.2251L36.3017 23.1613L36.3786 23.0976L36.4555 23.034L36.4817 23.0144L36.5432 22.9642L36.6203 22.9008L36.6973 22.8374L36.7744 22.7741L36.8342 22.7259L36.8625 22.7047L36.9398 22.6416L37.0171 22.5785L37.0946 22.5156L37.172 22.4527L37.1989 22.4329L37.2604 22.3837L37.3381 22.321L37.4157 22.2583L37.4934 22.1958L37.5541 22.1478L37.5821 22.1272L37.6599 22.0647L37.7379 22.0024L37.8159 21.9402L37.8939 21.878L37.9214 21.8581L37.983 21.8099L38.0611 21.7479L38.1393 21.6859L38.2177 21.6241L38.2792 21.5763L38.307 21.5564L38.3854 21.4946L38.4639 21.4331L38.5424 21.3716L38.621 21.3101L38.6492 21.2901L38.7108 21.2428L38.7895 21.1815L38.8683 21.1203L38.9471 21.0592L39.0095 21.0116L39.0371 20.9923L39.1161 20.9314L39.1951 20.8705L39.2742 20.8097L39.3534 20.749L39.3821 20.729L39.4437 20.6826L39.523 20.622L39.6023 20.5615L39.6818 20.5011L39.745 20.4537L39.7723 20.4351L39.8519 20.3749L39.9315 20.3147L40.0111 20.2546L40.0909 20.1947L40.1202 20.1746L40.1818 20.1291L40.2616 20.0693L40.3415 20.0096L40.4215 19.9499L40.4856 19.9028L40.5126 19.8847L40.5928 19.8253L40.6729 19.7658L40.7531 19.7065L40.8334 19.6473L40.8634 19.6271L40.9249 19.5826L41.0052 19.5235L41.0857 19.4645L41.1662 19.4056L41.2312 19.3587L41.258 19.3413L41.3386 19.2826L41.4193 19.2239L41.5 19.1653L41.5808 19.1068L41.6115 19.0866L41.673 19.0429L41.7539 18.9846L41.8349 18.9264L41.9159 18.8682L41.9818 18.8216L42.0083 18.8048L42.0895 18.7468L42.1707 18.6888L42.252 18.6311L42.3333 18.5733L42.3646 18.553L42.426 18.5103L42.5075 18.4528L42.589 18.3953L42.6705 18.3378L42.7374 18.2915L42.7636 18.2753L42.8452 18.2181L42.9269 18.1609L43.0088 18.1038L43.0906 18.0468L43.1226 18.0265L43.1839 17.9847L43.2659 17.9279L43.3479 17.8712L43.43 17.8145L43.4977 17.7685L43.5236 17.7529L43.6058 17.6963L43.6881 17.64L43.7704 17.5837L43.8527 17.5274L43.8854 17.5071L43.9467 17.4662L44.0292 17.4102L44.1117 17.3542L44.1943 17.2983L44.2628 17.2526L44.2884 17.2375L44.3711 17.1818L44.4539 17.1262L44.5368 17.0706L44.6196 17.0151L44.6529 16.9948L44.7141 16.9549L44.7971 16.8996L44.8801 16.8443L44.9633 16.7892L45.0327 16.7438L45.0579 16.7293L45.1412 16.6744L45.2245 16.6195L45.3078 16.5647L45.3912 16.51L45.4251 16.4897L45.4862 16.4507L45.5697 16.3961L45.6533 16.3417L45.7369 16.2874L45.8072 16.2422L45.8321 16.2283L45.9159 16.1742L45.9996 16.1201L46.0835 16.066L46.1674 16.0122L46.202 15.9919L46.2629 15.9537L46.3469 15.8999L46.431 15.8463L46.5151 15.7927L46.5863 15.7479L46.6108 15.7346L46.6951 15.6812L46.7794 15.6279L46.8637 15.5746L46.9481 15.5215L46.9834 15.5012L47.0442 15.4639L47.1286 15.4109L47.2132 15.3581L47.2978 15.3053L47.3699 15.2609L47.3941 15.2481L47.4789 15.1955L47.5636 15.1429L47.6484 15.0905L47.7332 15.0382L47.7692 15.0179L47.8298 14.9815L47.9148 14.9293L47.9999 14.8773L48.0849 14.8252L48.1579 14.7812L48.1818 14.769L48.267 14.7172L48.3522 14.6654L48.4375 14.6138L48.5228 14.5622L48.5595 14.542L48.6199 14.5064L48.7054 14.4551L48.7909 14.4038L48.8764 14.3525L48.9504 14.3089L48.9738 14.2973L49.0595 14.2462L49.1451 14.1952L49.2309 14.1444L49.3167 14.0936L49.3541 14.0734L49.4144 14.0388L49.5003 13.9882L49.5863 13.9377L49.6723 13.8873L49.7471 13.844L49.7702 13.8329L49.8563 13.7826L49.9425 13.7325L50.0287 13.6825L50.1149 13.6324L50.153 13.6123L50.2131 13.5786L50.2995 13.5288L50.3858 13.479L50.4724 13.4295L50.5481 13.3865L50.5707 13.376L50.6573 13.3265L50.744 13.2772L50.8306 13.2279L50.9173 13.1787L50.9561 13.1587L51.016 13.1258L51.1028 13.0768L51.1897 13.0279L51.2766 12.9791L51.3532 12.9366L51.3755 12.9266L51.4625 12.8779L51.5496 12.8294L51.6367 12.7809L51.7239 12.7326L51.7633 12.7126L51.8231 12.6806L51.9103 12.6323L51.9977 12.5843L52.085 12.5363L52.1625 12.4941L52.1844 12.4846L52.2719 12.4369L52.3594 12.3892L52.4469 12.3415L52.5345 12.294L52.5746 12.274L52.6342 12.2429L52.7218 12.1955L52.8096 12.1482L52.8974 12.101L52.9758 12.0593L52.9972 12.0504L53.0852 12.0034L53.1731 11.9565L53.2611 11.9096L53.3492 11.8629L53.39 11.8431L53.4492 11.8128L53.5374 11.7662L53.6256 11.7198L53.7138 11.6734L53.7931 11.6322L53.8141 11.6237L53.9025 11.5776L53.9908 11.5314L54.0792 11.4854L54.1677 11.4395L54.2092 11.4198L54.2682 11.3903L54.3568 11.3446L54.4454 11.299L54.5341 11.2534L54.6142 11.2127L54.6349 11.2047L54.7236 11.1593L54.8124 11.114L54.9012 11.0689L54.9901 11.0238L55.0323 11.0042L55.0911 10.9755L55.1801 10.9307L55.2691 10.8858L55.3582 10.8411L55.4392 10.8009L55.4594 10.7934L55.5486 10.7488L55.6378 10.7043L55.727 10.66L55.8163 10.6157L55.8592 10.5963L55.9178 10.5685L56.0072 10.5244L56.0966 10.4804L56.1861 10.4365L56.268 10.3968L56.2877 10.3898L56.3773 10.346L56.4669 10.3024L56.5566 10.2589L56.6462 10.2154L56.6898 10.1961L56.7481 10.1692L56.8379 10.126L56.9277 10.0827L57.0176 10.0397L57.1004 10.0005L57.1197 9.99391L57.2096 9.95098L57.2997 9.90827L57.3897 9.86557L57.4798 9.82292L57.5241 9.80381L57.5821 9.77768L57.6723 9.73525L57.7625 9.69292L57.8528 9.65074L57.9364 9.61193L57.9553 9.60584L58.0456 9.56381L58.136 9.5219L58.2265 9.48001L58.3169 9.43827L58.3619 9.41931L58.4197 9.39397L58.5102 9.35235L58.6009 9.31091L58.6915 9.26955L58.776 9.23124L58.7944 9.2256L58.8851 9.18447L58.9759 9.14336L59.0667 9.10229L59.1576 9.06144L59.2032 9.04265L59.2607 9.0181L59.3516 8.97732L59.4427 8.93674L59.5337 8.8962L59.619 8.85847L59.637 8.85325L59.7281 8.81298L59.8192 8.7727L59.9104 8.7325L60.0017 8.69249L60.048 8.67389L60.1052 8.6501L60.1965 8.61023L60.2879 8.57048L60.3792 8.53075L60.4654 8.49363L60.483 8.48884L60.5744 8.44939L60.6659 8.40993L60.7575 8.37064L60.8491 8.33145L60.8961 8.31305L60.953 8.29002L61.0447 8.25105L61.1364 8.21213L61.2281 8.17323L61.3152 8.13672L61.3322 8.13237L61.4241 8.09373L61.5159 8.05512L61.6078 8.01673L61.6998 7.97837L61.7474 7.96017L61.8041 7.93792L61.8961 7.89982L61.9882 7.86173L62.0802 7.82372L62.1682 7.78779L62.1847 7.78384L62.2769 7.74603L62.3691 7.70834L62.4614 7.67077L62.5537 7.63323L62.602 7.61529L62.6583 7.59385L62.7507 7.55658L62.8431 7.51932L62.9356 7.48221L63.0243 7.44684L63.0404 7.4433L63.1329 7.40631L63.2255 7.36954L63.3181 7.33281L63.4107 7.2961L63.4598 7.27842L63.5157 7.25778L63.6084 7.22134L63.7011 7.18492L63.7939 7.14873L63.8836 7.11392L63.8991 7.11078L63.992 7.07466L64.0849 7.03877L64.1778 7.00289L64.2707 6.96707L64.3205 6.94962L64.3761 6.92974L64.4692 6.89412L64.5622 6.85863L64.6553 6.82329L64.7458 6.78905L64.7609 6.78631L64.854 6.75112L64.9473 6.71604L65.0405 6.681L65.1338 6.6461L65.1843 6.6289L65.2395 6.60975L65.3329 6.57498L65.4263 6.5404L65.5197 6.50588L65.611 6.47226L65.6256 6.46988L65.7191 6.43562L65.8126 6.40139L65.9062 6.36718L65.9998 6.33322L66.0509 6.31627L66.1058 6.29785L66.1995 6.26395L66.2932 6.23027L66.387 6.1966L66.4791 6.16363L66.4932 6.16162L66.587 6.12823L66.6808 6.09485L66.7747 6.06157L66.8686 6.02845L66.9204 6.01176L66.975 5.99404L67.0689 5.96108L67.163 5.92823L67.257 5.89542L67.35 5.86318L67.3635 5.86152L67.4576 5.82898L67.5517 5.79644L67.6459 5.76409L67.7401 5.73183L67.7927 5.71541L67.8468 5.6984L67.9411 5.66637L68.0354 5.63437L68.1297 5.6024L68.2236 5.57087L68.2365 5.56957L68.3309 5.53787L68.4254 5.50621L68.5199 5.47475L68.6144 5.44333L68.6676 5.42724L68.7214 5.41094L68.8159 5.3798L68.9105 5.34866L69.0051 5.3176L69.0998 5.28675L69.1123 5.28577L69.2069 5.25492L69.3017 5.2242L69.3964 5.19361L69.4912 5.16303L69.5451 5.14729L69.5985 5.13171L69.6933 5.10143L69.7882 5.07114L69.8831 5.04103L69.978 5.01102L69.991 5.01001L70.0855 4.98018L70.1805 4.9504L70.2755 4.92067L70.3705 4.89094L70.4251 4.87555L70.4781 4.8607L70.5732 4.83125L70.6684 4.80184L70.7636 4.77266L70.8588 4.74349L70.8723 4.74245L70.9665 4.7137L71.0618 4.6848L71.1571 4.65593L71.2524 4.62712L71.3076 4.61208L71.3602 4.59792L71.4556 4.56932L71.551 4.54085L71.6464 4.51252L71.7419 4.48421L71.7559 4.48314L71.8499 4.45551L71.9454 4.42747L72.0409 4.39946L72.1365 4.3716L72.1924 4.35687L72.2446 4.34337L72.3402 4.31564L72.4359 4.28811L72.5316 4.26066L72.6273 4.23319L72.6419 4.23209L72.7355 4.20558L72.8313 4.1784L72.9271 4.15125L73.0229 4.12434L73.0796 4.10993L73.1313 4.0971L73.2272 4.07026L73.3231 4.04364L73.419 4.01705L73.515 3.99052L73.5302 3.98938L73.6235 3.96392L73.7195 3.9376L73.8155 3.9114L73.9116 3.88536L73.9689 3.87129L74.0202 3.85912L74.1163 3.83323L74.2125 3.80746L74.3086 3.78173L74.4048 3.75615L74.4206 3.755L74.5136 3.73054L74.6098 3.7051L74.7061 3.67982L74.8024 3.65466L74.8604 3.64096L74.9112 3.62941L75.0076 3.60448L75.1039 3.57959L75.2004 3.5547L75.2968 3.53008L75.3131 3.52895L75.4058 3.50547L75.5022 3.48091L75.5987 3.45658L75.6953 3.43227L75.7539 3.41898L75.8043 3.40806L75.9009 3.38404L75.9975 3.36002L76.0941 3.33608L76.1908 3.31234L76.2076 3.31122L76.3 3.28872L76.3966 3.26512L76.4934 3.24166L76.5901 3.21821L76.6494 3.20536L76.6994 3.19511L76.7962 3.17194L76.893 3.1488L76.9898 3.12581L77.0867 3.10293L77.1041 3.10184L77.196 3.08034L77.293 3.05767L77.3899 3.03509L77.4868 3.01251L77.5468 3.0001L77.5963 2.99051L77.6933 2.96821L77.7903 2.94593L77.8874 2.92391L77.9844 2.90189L78.0024 2.90083L78.094 2.88034L78.1911 2.85861L78.2882 2.8369L78.3854 2.81525L78.446 2.80325L78.495 2.79427L78.5922 2.77286L78.6894 2.75153L78.7867 2.73039L78.8839 2.70925L78.9025 2.70821L78.9937 2.68878L79.091 2.66792L79.1883 2.64707L79.2857 2.6264L79.347 2.61481L79.3955 2.60642L79.4929 2.58588L79.5903 2.56552L79.6877 2.54524L79.7851 2.52499L79.8043 2.52402L79.8951 2.50561L79.9926 2.48563L80.0901 2.46566L80.1876 2.44593L80.2496 2.43479L80.2977 2.42698L80.3952 2.40732L80.4928 2.38791L80.5904 2.36851L80.688 2.34917L80.7077 2.34828L80.7981 2.33085L80.8958 2.31176L80.9935 2.29273L81.0912 2.2739L81.1538 2.2632L81.2014 2.25597L81.2991 2.23726L81.3969 2.21874L81.4946 2.20021L81.5925 2.18182L81.6127 2.18102L81.7027 2.16453L81.8005 2.1463L81.8984 2.12825L81.9963 2.1103L82.0595 2.10004L82.1066 2.09337L82.2045 2.07564L82.3024 2.05798L82.4003 2.04035L82.4983 2.02293L82.5191 2.0222L82.6088 2.00664L82.7067 1.9893L82.8047 1.97221L82.9027 1.95515L82.9666 1.94536L83.0132 1.93925L83.1113 1.92247L83.2094 1.9057L83.3074 1.88898L83.4055 1.87249L83.4269 1.87186L83.5161 1.85722L83.6142 1.84084L83.7124 1.82463L83.8106 1.80845L83.875 1.7992L83.9212 1.79365L84.0194 1.77776L84.1176 1.76188L84.2158 1.74611L84.3141 1.73051L84.336 1.72999L84.4247 1.71626L84.523 1.70085L84.6213 1.68553L84.7197 1.67022L84.7847 1.66151L84.8304 1.65653L84.9287 1.64151L85.0271 1.62652L85.1254 1.61174L85.2238 1.597L85.2462 1.5966L85.3346 1.58379L85.433 1.56933L85.5314 1.55491L85.6299 1.5405L85.6956 1.53231L85.7407 1.5279L85.8392 1.51377L85.9377 1.49969L86.0362 1.48584L86.1347 1.47199L86.1577 1.47172L86.2456 1.45986L86.3441 1.4463L86.4427 1.43277L86.5412 1.41933L86.6076 1.41163L86.6522 1.40776L86.7507 1.39452L86.8494 1.38139L86.948 1.36843L87.0466 1.35548L87.0702 1.35533L87.1576 1.34445L87.2563 1.33178L87.3549 1.31912L87.4536 1.30665L87.5206 1.29948L87.5647 1.29609L87.6634 1.28374L87.7621 1.27159L87.8608 1.25951L87.9595 1.24745L87.9836 1.24747L88.0706 1.23751L88.1694 1.22574L88.2681 1.21397L88.3669 1.20246L88.4346 1.19582L88.4781 1.19293L88.5769 1.18149L88.6757 1.17029L88.7745 1.15909L88.8733 1.14797L88.898 1.14815L88.9845 1.13908L89.0834 1.1282L89.1823 1.1174L89.2811 1.10677L89.3493 1.10068L89.3923 1.09828L89.4912 1.08779L89.5901 1.07749L89.6891 1.06719L89.788 1.05702L89.8132 1.05737L89.8992 1.04917L89.9981 1.03917L90.0971 1.02934L90.1961 1.01961L90.2649 1.01405L90.3073 1.01214L90.4063 1.00262L90.5053 0.993197L90.6043 0.98379L90.7033 0.97458L90.7291 0.975108L90.8146 0.967763L90.9137 0.958646L91.0127 0.949777L91.1118 0.940944L91.1811 0.935935L91.2231 0.934494L91.3221 0.925947L91.4212 0.917405L91.5202 0.908915L91.6193 0.900661L91.6456 0.901356L91.7307 0.89486L91.8298 0.886682L91.9289 0.87872L92.028 0.870788L92.098 0.866398L92.1394 0.865425L92.2385 0.857777L92.3377 0.850133L92.4368 0.842591L92.536 0.835234L92.5628 0.836135L92.6474 0.830456L92.7465 0.823247L92.8457 0.816178L92.9449 0.80913L93.0154 0.805375L93.0563 0.80487L93.1554 0.798114L93.2546 0.791367L93.3538 0.784784L93.453 0.778318L93.4804 0.779427L93.5644 0.774564L93.6636 0.768325L93.7629 0.762153L93.8621 0.755983L93.9332 0.752862L93.9735 0.752832L94.0727 0.746954L94.1719 0.741105L94.2712 0.735491L94.3705 0.729901L94.3984 0.731227L94.4819 0.727194L94.5811 0.721899L94.6804 0.716625L94.7796 0.711379L94.8515 0.708865L94.8911 0.709289L94.9904 0.704303L95.0896 0.699387L95.1889 0.694689L95.2882 0.689991L95.3167 0.691543L95.3996 0.688376L95.499 0.683964L95.5983 0.679583L95.6976 0.6753L95.77 0.673382L95.809 0.674233L95.9083 0.670145L96.0076 0.666171L96.107 0.662371L96.2063 0.658572L96.2353 0.660356L96.3177 0.658041L96.417 0.65453L96.5164 0.651023L96.6157 0.647702L96.6887 0.646411L96.7272 0.647655L96.8265 0.644466L96.9258 0.641455L97.0252 0.638533L97.1245 0.635631L97.1541 0.637674L97.236 0.636185L97.3353 0.633571L97.4346 0.630956L97.534 0.628588L97.6075 0.627925L97.6454 0.629561L97.7448 0.627264L97.8441 0.625213L97.9435 0.623174L98.0428 0.621179L98.073 0.623487L98.1542 0.6228L98.2536 0.621084L98.3529 0.619395L98.4523 0.617937L98.5264 0.617915L98.5637 0.61995L98.663 0.618579L98.7624 0.617436L98.8618 0.616293L98.9611 0.615234L98.9918 0.617812L99.0725 0.617892L99.1719 0.617054L99.2712 0.616322L99.3706 0.615753L99.4453 0.616372L99.4819 0.618791L99.5813 0.618364L99.6807 0.618111L99.78 0.617862L99.8794 0.617742L99.9106 0.620597L99.9907 0.621432L100.09 0.621473L100.189 0.621695L100.289 0.62202L100.364 0.623279L100.4 0.626075L100.499 0.626601L100.599 0.627223L100.698 0.62787L100.798 0.628703L100.829 0.631825L100.909 0.633407L101.008 0.634343L101.107 0.635497L101.207 0.636719L101.283 0.638642L101.318 0.641788L101.417 0.643263L101.517 0.644772L101.616 0.646306L101.715 0.648085L101.748 0.651489L101.827 0.653805L101.926 0.655635L102.025 0.657717L102.125 0.659833L102.201 0.662448L102.236 0.665934L102.335 0.668337L102.434 0.670739L102.534 0.673186L102.633 0.675875L102.666 0.679583L102.744 0.682607L102.843 0.685383L102.943 0.688358L103.042 0.691349L103.119 0.694689L103.153 0.698528L103.252 0.701808L103.352 0.705103L103.451 0.708484L103.55 0.712055L103.583 0.716079L103.661 0.719806L103.76 0.723516L103.86 0.727382L103.959 0.731249L104.036 0.735313L104.07 0.739494L104.169 0.743628L104.269 0.747795Z" fill="white"/>
</svg>
