<svg width="200" height="200" viewBox="0 0 200 200" fill="none" xmlns="http://www.w3.org/2000/svg">
<path d="M81.8023 2.93763L81.7582 2.9637L81.7141 2.98977L81.67 3.0159L81.626 3.04224L81.582 3.06858L81.5161 3.09829L81.4694 3.12526L81.4255 3.15187L81.3817 3.17862L81.3378 3.20545L81.294 3.23233L81.2503 3.25938L81.2066 3.28649L81.1629 3.31365L81.0985 3.34392L81.0509 3.37181L81.0073 3.39925L80.9638 3.42685L80.9203 3.45446L80.8768 3.4822L80.8334 3.51007L80.79 3.53794L80.7466 3.56599L80.6836 3.59671L80.6352 3.62552L80.5919 3.6538L80.5487 3.68219L80.5054 3.71059L80.4623 3.73916L80.4192 3.76782L80.376 3.79649L80.333 3.82535L80.2715 3.85654L80.2221 3.88627L80.1792 3.91538L80.1363 3.94451L80.0933 3.97374L80.0505 4.00311L80.0077 4.0325L79.9649 4.06202L79.9221 4.09165L79.8621 4.12331L79.8119 4.15394L79.7692 4.18382L79.7266 4.21371L79.684 4.24374L79.6414 4.27389L79.5989 4.30403L79.5564 4.33434L79.5139 4.36475L79.4554 4.39689L79.4042 4.42838L79.3619 4.45901L79.3195 4.48967L79.2772 4.52048L79.235 4.55137L79.1927 4.58229L79.1506 4.61336L79.1084 4.64451L79.0513 4.67717L78.9993 4.70949L78.9572 4.74084L78.9152 4.77226L78.8732 4.80385L78.8312 4.83546L78.7893 4.86713L78.7474 4.89899L78.7055 4.93085L78.6499 4.96403L78.597 4.99714L78.5552 5.02925L78.5135 5.06138L78.4718 5.09374L78.4301 5.12609L78.3885 5.15848L78.3469 5.19109L78.3053 5.2237L78.2512 5.25739L78.1974 5.29124L78.1559 5.3241L78.1144 5.35696L78.0731 5.39003L78.0317 5.42314L77.9903 5.45625L77.9491 5.48957L77.9078 5.52292L77.8552 5.55714L77.8004 5.59171L77.7592 5.62528L77.7181 5.65888L77.677 5.69266L77.6359 5.72649L77.5948 5.76033L77.5538 5.79435L77.5129 5.82843L77.4617 5.86321L77.4061 5.89846L77.3652 5.93273L77.3243 5.96706L77.2835 6.00155L77.2427 6.03606L77.202 6.07065L77.1612 6.10537L77.1206 6.14013L77.0709 6.17549L77.0143 6.21139L76.9737 6.24639L76.9332 6.2814L76.8926 6.31659L76.8522 6.35184L76.8117 6.3871L76.7713 6.42252L76.7309 6.45801L76.6827 6.49392L76.6252 6.53041L76.5849 6.56614L76.5446 6.60187L76.5044 6.6377L76.4642 6.67368L76.424 6.70965L76.3839 6.74571L76.3438 6.78192L76.2971 6.81843L76.2387 6.85549L76.1987 6.89191L76.1587 6.92837L76.1187 6.96484L76.0788 7.0015L76.039 7.0382L75.9991 7.0749L75.9593 7.1118L75.9142 7.14893L75.8548 7.18656L75.8151 7.22364L75.7754 7.26079L75.7357 7.29797L75.6961 7.33527L75.6565 7.37266L75.6169 7.41008L75.5774 7.44759L75.5338 7.48534L75.4734 7.52355L75.434 7.56128L75.3946 7.5991L75.3552 7.63698L75.3159 7.67493L75.2766 7.71298L75.2373 7.7511L75.1981 7.78926L75.1559 7.82761L75.0947 7.86637L75.0555 7.90474L75.0165 7.94326L74.9774 7.98179L74.9383 8.02039L74.8993 8.05913L74.8603 8.09791L74.8214 8.13673L74.7807 8.17571L74.7186 8.21499L74.6797 8.25401L74.6409 8.29317L74.6021 8.33239L74.5633 8.37164L74.5246 8.41101L74.4859 8.45047L74.4472 8.48996L74.408 8.52954L74.345 8.56933L74.3064 8.60902L74.2679 8.64876L74.2294 8.68868L74.1909 8.7286L74.1275 8.79355L74.0641 8.85864L74.0007 8.92375L73.9374 8.98885L73.8741 9.02968L73.8108 9.09434L73.7475 9.15961L73.6843 9.22496L73.6211 9.29039L73.558 9.35581L73.4948 9.4213L73.4318 9.48688L73.3687 9.55246L73.3057 9.59488L73.2427 9.65882L73.1797 9.72456L73.1168 9.79031L73.0539 9.8562L72.991 9.9221L72.9282 9.988L72.8654 10.054L72.8027 10.1201L72.7399 10.1642L72.6772 10.2273L72.6145 10.2935L72.5519 10.3597L72.4893 10.426L72.4267 10.4924L72.3642 10.5587L72.3016 10.6251L72.2392 10.6917L72.1767 10.7374L72.1143 10.7997L72.0519 10.8664L71.9896 10.9331L71.9272 10.9998L71.865 11.0666L71.8027 11.1334L71.7405 11.2003L71.6783 11.2672L71.6162 11.3146L71.554 11.3762L71.4919 11.4432L71.4299 11.5104L71.3679 11.5775L71.3059 11.6447L71.2439 11.712L71.182 11.7793L71.1201 11.8466L71.0582 11.8956L70.9964 11.9565L70.9346 12.0239L70.8729 12.0915L70.8111 12.1591L70.7494 12.2267L70.6878 12.2944L70.6261 12.3621L70.5645 12.4299L70.5029 12.4805L70.4415 12.5406L70.38 12.6085L70.3185 12.6765L70.257 12.7445L70.1957 12.8126L70.1343 12.8807L70.0729 12.9488L70.0117 13.017L69.9504 13.0693L69.8891 13.1286L69.8279 13.1969L69.7668 13.2653L69.7056 13.3337L69.6445 13.4022L69.5835 13.4708L69.5224 13.5393L69.4614 13.608L69.4005 13.6619L69.3395 13.7203L69.2786 13.7891L69.2178 13.8579L69.1569 13.9268L69.0961 13.9957L69.0353 14.0646L68.9746 14.1336L68.9139 14.2026L68.8532 14.2582L68.7926 14.3159L68.732 14.385L68.6714 14.4543L68.6109 14.5236L68.5504 14.5929L68.4899 14.6622L68.4295 14.7317L68.3691 14.8011L68.3087 14.8582L68.2484 14.9152L68.1881 14.9847L68.1278 15.0543L68.0676 15.1241L68.0074 15.1938L67.9472 15.2635L67.8871 15.3334L67.827 15.4033L67.7669 15.462L67.7069 15.5181L67.6469 15.5881L67.587 15.6582L67.527 15.7282L67.4672 15.7984L67.4073 15.8686L67.3475 15.9388L67.2877 16.0091L67.228 16.0694L67.1682 16.1247L67.1085 16.1952L67.0489 16.2657L66.9893 16.3361L66.9297 16.4067L66.8702 16.4773L66.8106 16.5479L66.7511 16.6186L66.6917 16.6806L66.6323 16.7351L66.5729 16.8059L66.5136 16.8768L66.4543 16.9477L66.395 17.0186L66.3358 17.0896L66.2766 17.1607L66.2174 17.2317L66.1583 17.2953L66.0992 17.349L66.0401 17.4203L65.9811 17.4915L65.9221 17.5628L65.8632 17.6342L65.8042 17.7055L65.7453 17.777L65.6865 17.8485L65.6277 17.9136L65.5689 17.9666L65.5102 18.0382L65.4514 18.1099L65.3927 18.1816L65.3341 18.2533L65.2755 18.3251L65.2169 18.3969L65.1584 18.4688L65.0999 18.5356L65.0414 18.5877L64.983 18.6598L64.9246 18.7318L64.8663 18.8039L64.8079 18.8761L64.7497 18.9483L64.6914 19.0205L64.6332 19.0927L64.575 19.1612L64.5169 19.2125L64.4587 19.2848L64.4007 19.3573L64.3427 19.4298L64.2846 19.5024L64.2267 19.575L64.1688 19.6476L64.1109 19.7203L64.053 19.7902L63.9952 19.8408L63.9374 19.9136L63.8796 19.9864L63.822 20.0593L63.7643 20.1322L63.7066 20.2052L63.649 20.2782L63.5915 20.3513L63.5339 20.4228L63.4764 20.4725L63.419 20.5458L63.3616 20.619L63.3042 20.6923L63.2468 20.7656L63.1895 20.839L63.1322 20.9124L63.075 20.9859L63.0178 21.059L62.9606 21.1079L62.9035 21.1815L62.8464 21.2551L62.7894 21.3288L62.7323 21.4025L62.6754 21.4763L62.6184 21.5501L62.5615 21.6239L62.5047 21.6978L62.4478 21.7476L62.391 21.8207L62.3343 21.8947L62.2776 21.9688L62.2208 22.0429L62.1642 22.117L62.1076 22.1912L62.051 22.2655L61.9945 22.3397L61.938 22.3911L61.8815 22.4634L61.8251 22.5378L61.7687 22.6123L61.7124 22.6868L61.6561 22.7613L61.5998 22.8359L61.5436 22.9105L61.4874 22.9851L61.4312 23.0381L61.3751 23.1096L61.319 23.1844L61.2629 23.2592L61.207 23.3341L61.151 23.409L61.095 23.4839L61.0392 23.559L60.9833 23.634L60.9275 23.6885L60.8717 23.7592L60.816 23.8344L60.7603 23.9096L60.7046 23.9849L60.649 24.0602L60.5934 24.1355L60.5378 24.2109L60.4823 24.2863L60.4269 24.3425L60.3714 24.4123L60.316 24.4879L60.2607 24.5635L60.2053 24.6391L60.1501 24.7148L60.0949 24.7905L60.0396 24.8663L59.9845 24.9421L59.9294 24.9998L59.8743 25.0688L59.8192 25.1447L59.7642 25.2207L59.7093 25.2968L59.6543 25.3728L59.5994 25.4489L59.5446 25.5251L59.4898 25.6012L59.435 25.6605L59.3803 25.7288L59.3256 25.8051L59.2709 25.8814L59.2163 25.9578L59.1618 26.0343L59.1072 26.1107L59.0527 26.1873L58.9983 26.2638L58.9438 26.3247L58.8895 26.3921L58.8352 26.4688L58.7808 26.5455L58.7266 26.6223L58.6724 26.6991L58.6182 26.776L58.5641 26.8528L58.51 26.9298L58.4559 26.9923L58.4019 27.0588L58.3479 27.1359L58.294 27.213L58.2401 27.2901L58.1863 27.3673L58.1325 27.4446L58.0786 27.5218L58.0249 27.5992L57.9713 27.6632L57.9176 27.7289L57.864 27.8064L57.8104 27.8839L57.7569 27.9614L57.7034 28.0389L57.65 28.1166L57.5966 28.1942L57.5431 28.2719L57.4899 28.3375L57.4366 28.4024L57.3833 28.4802L57.3301 28.5581L57.277 28.636L57.2239 28.7139L57.1708 28.7919L57.1178 28.87L57.0648 28.948L57.0118 29.0152L56.9589 29.0793L56.906 29.1575L56.8532 29.2356L56.8004 29.314L56.7477 29.3923L56.6949 29.4706L56.6423 29.549L56.5897 29.6275L56.5371 29.6962L56.4846 29.7595L56.4321 29.838L56.3796 29.9166L56.3272 29.9953L56.2749 30.074L56.2225 30.1527L56.1702 30.2314L56.118 30.3103L56.0658 30.3806L56.0136 30.443L55.9616 30.5219L55.9095 30.6009L55.8575 30.6799L55.8055 30.759L55.7536 30.8381L55.7016 30.9172L55.6498 30.9964L55.598 31.0683L55.5462 31.1299L55.4945 31.2092L55.4428 31.2885L55.3912 31.3679L55.3395 31.4473L55.288 31.5268L55.2365 31.6063L55.185 31.6858L55.1336 31.7593L55.0823 31.8201L55.0309 31.8997L54.9796 31.9794L54.9284 32.0592L54.8771 32.139L54.826 32.2188L54.7749 32.2987L54.7238 32.3786L54.6728 32.4536L54.6218 32.5136L54.5709 32.5936L54.5199 32.6737L54.4691 32.7538L54.4183 32.834L54.3675 32.9141L54.3168 32.9944L54.2661 33.0747L54.2155 33.1513L54.1649 33.2104L54.1144 33.2908L54.0638 33.3712L54.0134 33.4517L53.963 33.5322L53.9126 33.6128L53.8623 33.6934L53.8121 33.7741L53.7618 33.8522L53.7116 33.9104L53.6615 33.9912L53.6114 34.072L53.5613 34.1529L53.5113 34.2338L53.4614 34.3147L53.4114 34.3956L53.3616 34.4767L53.3118 34.5564L53.262 34.6138L53.2123 34.695L53.1626 34.7762L53.1129 34.8573L53.0633 34.9386L53.0138 35.0199L52.9643 35.1012L52.9148 35.1826L52.8654 35.2639L52.8161 35.3205L52.7667 35.402L52.7175 35.4835L52.6682 35.5651L52.619 35.6467L52.5699 35.7284L52.5208 35.8101L52.4717 35.8918L52.4228 35.9736L52.3739 36.0315L52.3249 36.1122L52.2761 36.1942L52.2273 36.2761L52.1785 36.3581L52.1298 36.4401L52.0812 36.5222L52.0325 36.6042L51.9839 36.6864L51.9354 36.7459L51.8869 36.8258L51.8385 36.908L51.7901 36.9904L51.7418 37.0727L51.6935 37.155L51.6453 37.2375L51.5971 37.32L51.5489 37.4024L51.5008 37.4635L51.4528 37.5426L51.4047 37.6251L51.3568 37.7078L51.3089 37.7906L51.261 37.8733L51.2132 37.9561L51.1655 38.0389L51.1177 38.1217L51.0701 38.1843L51.0225 38.2626L50.9749 38.3455L50.9274 38.4286L50.8799 38.5116L50.8325 38.5947L50.7851 38.6778L50.7378 38.761L50.6905 38.8442L50.6433 38.9084L50.5961 38.9858L50.549 39.0691L50.5019 39.1525L50.4549 39.2359L50.4079 39.3194L50.3609 39.4028L50.3141 39.4864L50.2672 39.57L50.2204 39.6356L50.1737 39.7122L50.127 39.7959L50.0803 39.8796L50.0338 39.9634L49.9872 40.0472L49.9407 40.131L49.8943 40.215L49.8479 40.2989L49.8016 40.3661L49.7553 40.4418L49.7091 40.5259L49.6628 40.61L49.6167 40.6941L49.5707 40.7783L49.5246 40.8625L49.4786 40.9467L49.4327 41.031L49.3868 41.0998L49.341 41.1747L49.2952 41.2591L49.2495 41.3435L49.2038 41.428L49.1582 41.5125L49.1126 41.5971L49.067 41.6816L49.0216 41.7663L48.9761 41.8367L48.9307 41.9106L48.8855 41.9954L48.8402 42.0802L48.7949 42.165L48.7498 42.2499L48.7047 42.3348L48.6596 42.4197L48.6146 42.5047L48.5696 42.5767L48.5247 42.6498L48.4799 42.7349L48.4351 42.8201L48.3903 42.9052L48.3456 42.9905L48.301 43.0757L48.2563 43.161L48.2118 43.2463L48.1673 43.3198L48.1229 43.3921L48.0785 43.4776L48.0342 43.5631L47.9899 43.6486L47.9457 43.7341L47.9015 43.8198L47.8574 43.9054L47.8133 43.9911L47.7693 44.0661L47.7253 44.1376L47.6814 44.2234L47.6376 44.3092L47.5938 44.3951L47.55 44.481L47.5063 44.567L47.4627 44.6529L47.4191 44.7389L47.3756 44.8156L47.3321 44.8861L47.2887 44.9723L47.2453 45.0585L47.202 45.1447L47.1587 45.2309L47.1155 45.3172L47.0724 45.4036L47.0292 45.4899L46.9862 45.5681L46.9432 45.6378L46.9003 45.7243L46.8574 45.8108L46.8146 45.8974L46.7718 45.984L46.7291 46.0706L46.6864 46.1573L46.6438 46.244L46.6013 46.3237L46.5588 46.3926L46.5163 46.4794L46.474 46.5663L46.4316 46.6532L46.3893 46.7401L46.3472 46.8271L46.305 46.9141L46.2628 47.0011L46.2208 47.0824L46.1788 47.1504L46.1369 47.2375L46.095 47.3248L46.0532 47.412L46.0114 47.4993L45.9697 47.5866L45.928 47.674L45.8864 47.7614L45.8449 47.8442L45.8034 47.9113L45.7619 47.9988L45.7206 48.0864L45.6793 48.174L45.638 48.2615L45.5968 48.3492L45.5557 48.4369L45.5145 48.5246L45.4735 48.609L45.4326 48.6753L45.3916 48.7631L45.3508 48.851L45.31 48.9389L45.2692 49.0268L45.2286 49.1149L45.1879 49.2029L45.1473 49.2909L45.1068 49.3768L45.0664 49.4422L45.0259 49.5304L44.9856 49.6186L44.9453 49.7069L44.9051 49.7952L44.865 49.8835L44.8248 49.9719L44.7848 50.0603L44.7448 50.1477L44.7049 50.2122L44.665 50.3007L44.6252 50.3893L44.5854 50.4779L44.5457 50.5665L44.5061 50.6552L44.4665 50.7438L44.427 50.8326L44.3875 50.9214L44.3481 50.9853L44.3088 51.074L44.2695 51.1629L44.2303 51.2518L44.1911 51.3408L44.152 51.4298L44.113 51.5188L44.074 51.6078L44.0351 51.697L43.9962 51.7624L43.9574 51.8503L43.9187 51.9395L43.88 52.0287L43.8413 52.118L43.8028 52.2073L43.7643 52.2967L43.7258 52.3861L43.6875 52.4755L43.6491 52.5425L43.6109 52.6295L43.5727 52.719L43.5345 52.8086L43.4964 52.8982L43.4585 52.9879L43.4205 53.0775L43.3826 53.1672L43.3448 53.257L43.307 53.3255L43.2693 53.4116L43.2316 53.5015L43.194 53.5914L43.1565 53.6813L43.1191 53.7713L43.0816 53.8612L43.0443 53.9513L43.007 54.0414L42.9698 54.1114L42.9327 54.1966L42.8956 54.2868L42.8585 54.377L42.8216 54.4673L42.7847 54.5576L42.7478 54.6479L42.7111 54.7383L42.6744 54.8286L42.6377 54.9002L42.6011 54.9845L42.5646 55.075L42.5281 55.1655L42.4917 55.2561L42.4554 55.3467L42.4191 55.4374L42.3829 55.5281L42.3468 55.6188L42.3107 55.6919L42.2747 55.7753L42.2387 55.8661L42.2028 55.9569L42.167 56.0478L42.1312 56.1387L42.0955 56.2297L42.0599 56.3207L42.0243 56.4117L41.9888 56.4863L41.9534 56.5689L41.918 56.66L41.8827 56.7511L41.8474 56.8423L41.8122 56.9335L41.7771 57.0248L41.7421 57.1161L41.707 57.2074L41.6722 57.2836L41.6373 57.3652L41.6025 57.4566L41.5678 57.5481L41.5331 57.6396L41.4985 57.7311L41.464 57.8227L41.4295 57.9143L41.3951 58.006L41.3608 58.0836L41.3265 58.1643L41.2923 58.2561L41.2582 58.3479L41.2241 58.4397L41.1901 58.5315L41.1562 58.6234L41.1223 58.7153L41.0884 58.8072L41.0547 58.8864L41.021 58.9662L40.9874 59.0583L40.9539 59.1503L40.9204 59.2424L40.887 59.3346L40.8537 59.4268L40.8204 59.5189L40.7872 59.6112L40.7541 59.6919L40.7209 59.7708L40.688 59.8631L40.655 59.9555L40.6221 60.0479L40.5894 60.1404L40.5566 60.2328L40.5239 60.3253L40.4914 60.4179L40.4588 60.5L40.4263 60.578L40.394 60.6707L40.3616 60.7633L40.3294 60.856L40.2972 60.9488L40.265 61.0415L40.233 61.1343L40.201 61.2272L40.169 61.3108L40.1372 61.3879L40.1055 61.4809L40.0737 61.5738L40.0421 61.6668L40.0105 61.7598L39.979 61.8529L39.9476 61.946L39.9162 62.0391L39.8849 62.1242L39.8537 62.2004L39.8225 62.2936L39.7914 62.3869L39.7604 62.4802L39.7294 62.5735L39.6986 62.6668L39.6678 62.7602L39.637 62.8536L39.6064 62.9402L39.5758 63.0155L39.5452 63.109L39.5148 63.2025L39.4844 63.2961L39.454 63.3897L39.4238 63.4833L39.3936 63.577L39.3635 63.6706L39.3335 63.7587L39.3035 63.8331L39.2736 63.9269L39.2438 64.0207L39.214 64.1145L39.1843 64.2084L39.1548 64.3023L39.1252 64.3962L39.0957 64.4902L39.0663 64.5798L39.0369 64.6532L39.0077 64.7473L38.9786 64.8413L38.9494 64.9354L38.9204 65.0296L38.8914 65.1238L38.8625 65.2179L38.8337 65.3122L38.8049 65.4032L38.7763 65.4758L38.7477 65.5701L38.7191 65.6644L38.6907 65.7588L38.6623 65.8532L38.6339 65.9476L38.6057 66.0421L38.5775 66.1366L38.5494 66.2291L38.5214 66.3007L38.4934 66.3953L38.4655 66.4899L38.4377 66.5846L38.41 66.6792L38.3823 66.7739L38.3548 66.8687L38.3272 66.9634L38.2998 67.0574L38.2724 67.1281L38.2451 67.2229L38.2179 67.3178L38.1907 67.4127L38.1636 67.5076L38.1367 67.6026L38.1097 67.6976L38.0828 67.7926L38.0561 67.8876L38.0294 67.9581L38.0027 68.0528L37.9762 68.148L37.9497 68.2431L37.9233 68.3383L37.897 68.4335L37.8706 68.5287L37.8445 68.624L37.8184 68.7193L37.7923 68.7912L37.7664 68.885L37.7405 68.9804L37.7146 69.0758L37.6889 69.1713L37.6633 69.2667L37.6377 69.3622L37.6122 69.4577L37.5867 69.5533L37.5614 69.6267L37.5361 69.7195L37.5108 69.8151L37.4857 69.9108L37.4607 70.0064L37.4356 70.1021L37.4108 70.1979L37.3859 70.2936L37.3612 70.3894L37.3365 70.4643L37.3119 70.5561L37.2874 70.652L37.2629 70.7479L37.2385 70.8438L37.2142 70.9397L37.19 71.0357L37.1658 71.1317L37.1418 71.2277L37.1178 71.304L37.0938 71.3948L37.07 71.491L37.0462 71.5871L37.0226 71.6832L36.999 71.7794L36.9754 71.8756L36.952 71.9718L36.9286 72.0681L36.9052 72.1458L36.8821 72.2357L36.8589 72.332L36.8358 72.4284L36.8129 72.5248L36.7899 72.6212L36.7671 72.7176L36.7444 72.8141L36.7216 72.9105L36.699 72.9896L36.6765 73.0786L36.654 73.1751L36.6317 73.2717L36.6094 73.3683L36.5872 73.4649L36.5651 73.5616L36.543 73.6583L36.521 73.755L36.4991 73.8355L36.4772 73.9234L36.4555 74.0202L36.4339 74.117L36.4122 74.2138L36.3908 74.3107L36.3693 74.4075L36.3479 74.5044L36.3267 74.6013L36.3055 74.6833L36.2844 74.7702L36.2634 74.8672L36.2423 74.9642L36.2215 75.0612L36.2007 75.1583L36.1799 75.2553L36.1593 75.3525L36.1388 75.4496L36.1182 75.5329L36.0979 75.6189L36.0775 75.7161L36.0573 75.8133L36.0372 75.9105L36.017 76.0078L35.997 76.105L35.9771 76.2023L35.9572 76.2997L35.9375 76.3844L35.9178 76.4694L35.8982 76.5667L35.8787 76.6642L35.8592 76.7616L35.8399 76.859L35.8206 76.9565L35.8013 77.054L35.7822 77.1515L35.7632 77.2377L35.7442 77.3216L35.7254 77.4192L35.7065 77.5168L35.6878 77.6144L35.6692 77.7121L35.6506 77.8097L35.6321 77.9074L35.6137 78.0051L35.5954 78.0926L35.5772 78.1756L35.559 78.2733L35.5409 78.3711L35.5229 78.4689L35.505 78.5667L35.4872 78.6646L35.4694 78.7624L35.4517 78.8603L35.4342 78.9492L35.4167 79.0311L35.3992 79.1291L35.3819 79.227L35.3646 79.325L35.3474 79.423L35.3303 79.521L35.3133 79.6191L35.2963 79.7171L35.2795 79.8074L35.2627 79.8883L35.246 79.9864L35.2294 80.0845L35.2128 80.1827L35.1964 80.2809L35.1801 80.379L35.1638 80.4772L35.1476 80.5755L35.1314 80.6671L35.1154 80.747L35.0995 80.8452L35.0835 80.9435L35.0678 81.0418L35.0521 81.1402L35.0364 81.2385L35.0209 81.3369L35.0054 81.4353L34.9901 81.5283L34.9748 81.6071L34.9595 81.7055L34.9444 81.804L34.9294 81.9024L34.9144 82.0009L34.8995 82.0994L34.8847 82.1979L34.87 82.2965L34.8554 82.3909L34.8408 82.4686L34.8263 82.5672L34.812 82.6658L34.7976 82.7644L34.7834 82.863L34.7693 82.9617L34.7552 83.0603L34.7413 83.159L34.7274 83.2547L34.7136 83.3314L34.6999 83.4302L34.6862 83.5289L34.6726 83.6276L34.6592 83.7264L34.6457 83.8252L34.6325 83.924L34.6192 84.0228L34.6061 84.1199L34.5931 84.1955L34.5801 84.2944L34.5672 84.3933L34.5544 84.4922L34.5416 84.5911L34.529 84.69L34.5165 84.7889L34.504 84.8879L34.4916 84.9863L34.4793 85.0608L34.4671 85.1598L34.455 85.2588L34.4429 85.3578L34.4309 85.4569L34.4191 85.5559L34.4072 85.655L34.3955 85.754L34.3839 85.8531L34.3723 85.9279L34.3609 86.0263L34.3495 86.1255L34.3382 86.2246L34.327 86.3237L34.3158 86.4229L34.3048 86.5221L34.2939 86.6213L34.283 86.7205L34.2722 86.7965L34.2615 86.8939L34.2509 86.9931L34.2403 87.0924L34.2298 87.1917L34.2195 87.2909L34.2092 87.3902L34.199 87.4895L34.1889 87.5888L34.1789 87.6662L34.1689 87.7625L34.1591 87.8618L34.1492 87.9612L34.1396 88.0605L34.13 88.1599L34.1204 88.2593L34.111 88.3587L34.1016 88.4581L34.0923 88.5368L34.0832 88.632L34.0741 88.7314L34.0651 88.8308L34.0561 88.9303L34.0472 89.0298L34.0385 89.1293L34.0298 89.2287L34.0212 89.3282L34.0127 89.4082L34.0043 89.5023L33.996 89.6018L33.9877 89.7013L33.9795 89.8009L33.9715 89.9004L33.9635 90L33.9555 90.0996L33.9477 90.1992L33.9399 90.2804L33.9323 90.3734L33.9247 90.473L33.9172 90.5726L33.9098 90.6722L33.9025 90.7719L33.8952 90.8715L33.8881 90.9712L33.881 91.0708L33.874 91.1533L33.8672 91.2452L33.8603 91.3448L33.8536 91.4445L33.847 91.5442L33.8404 91.6439L33.8339 91.7437L33.8275 91.8434L33.8212 91.9431L33.815 92.0269L33.8089 92.1176L33.8028 92.2173L33.7969 92.3171L33.7909 92.4168L33.7852 92.5166L33.7795 92.6164L33.7738 92.7162L33.7683 92.816L33.7629 92.901L33.7575 92.9906L33.7522 93.0904L33.747 93.1902L33.7419 93.29L33.7369 93.3898L33.7319 93.4896L33.7271 93.5895L33.7223 93.6893L33.7175 93.7756L33.713 93.864L33.7084 93.9639L33.704 94.0637L33.6997 94.1636L33.6954 94.2635L33.6912 94.3634L33.6871 94.4632L33.6831 94.5631L33.6792 94.6507L33.6753 94.7379L33.6716 94.8378L33.6679 94.9377L33.6643 95.0376L33.6608 95.1375L33.6574 95.2375L33.654 95.3374L33.6508 95.4373L33.6477 95.5261L33.6446 95.6122L33.6416 95.7121L33.6387 95.812L33.6358 95.912L33.6331 96.0119L33.6304 96.1119L33.6279 96.2118L33.6254 96.3118L33.623 96.4018L33.6207 96.4867L33.6185 96.5866L33.6163 96.6866L33.6143 96.7866L33.6123 96.8865L33.6104 96.9865L33.6086 97.0865L33.6068 97.1864L33.6052 97.2777L33.6037 97.3614L33.6022 97.4614L33.6008 97.5613L33.5995 97.6613L33.5983 97.7613L33.5972 97.8613L33.5961 97.9613L33.5952 98.0613L33.5943 98.1537L33.5934 98.2363L33.5928 98.3363L33.5922 98.4362L33.5916 98.5362L33.5912 98.6362L33.5908 98.7362L33.5905 98.8362L33.5903 98.9362L33.5901 99.0299L33.5902 99.1112L33.5902 99.2112L33.5903 99.3112L33.5906 99.4112L33.5909 99.5112L33.5912 99.6112L33.5917 99.7112L33.5923 99.8111L33.5929 99.906L33.5936 99.9861L33.5945 100.086L33.5954 100.186L33.5964 100.286L33.5975 100.386L33.5986 100.486L33.5998 100.586L33.6012 100.686L33.6025 100.782L33.6041 100.861L33.6056 100.961L33.6073 101.061L33.6091 101.161L33.6109 101.261L33.6128 101.361L33.6148 101.461L33.6168 101.561L33.6191 101.658L33.6213 101.736L33.6236 101.836L33.6261 101.936L33.6285 102.036L33.6311 102.136L33.6338 102.235L33.6365 102.335L33.6394 102.435L33.6423 102.534L33.6453 102.61L33.6484 102.71L33.6515 102.81L33.6548 102.91L33.6582 103.01L33.6615 103.11L33.6651 103.21L33.6687 103.31L33.6723 103.409L33.6761 103.484L33.6799 103.584L33.6838 103.684L33.6879 103.784L33.6919 103.884L33.6961 103.984L33.7003 104.084L33.7047 104.184L33.7091 104.284L33.7136 104.359L33.7182 104.458L33.7229 104.558L33.7276 104.658L33.7325 104.758L33.7374 104.858L33.7423 104.957L33.7475 105.057L33.7526 105.157L33.7579 105.234L33.7632 105.332L33.7686 105.431L33.7741 105.531L33.7797 105.631L33.7853 105.731L33.7911 105.831L33.7969 105.93L33.8029 106.03L33.8089 106.108L33.8149 106.205L33.8211 106.304L33.8273 106.404L33.8336 106.504L33.8401 106.604L33.8466 106.703L33.8531 106.803L33.8598 106.903L33.8665 106.982L33.8734 107.077L33.8803 107.177L33.8872 107.276L33.8943 107.376L33.9015 107.476L33.9087 107.575L33.916 107.675L33.9234 107.775L33.9309 107.855L33.9385 107.949L33.9461 108.048L33.9539 108.148L33.9617 108.248L33.9695 108.347L33.9775 108.447L33.9856 108.546L33.9937 108.646L34.0019 108.727L34.0102 108.82L34.0186 108.919L34.0271 109.019L34.0356 109.118L34.0443 109.218L34.053 109.317L34.0618 109.417L34.0707 109.516L34.0796 109.599L34.0886 109.69L34.0978 109.79L34.1069 109.889L34.1163 109.989L34.1256 110.088L34.135 110.187L34.1446 110.287L34.1542 110.386L34.1639 110.47L34.1737 110.56L34.1835 110.659L34.1935 110.759L34.2035 110.858L34.2135 110.957L34.2238 111.056L34.234 111.156L34.2443 111.255L34.2548 111.34L34.2652 111.429L34.2759 111.528L34.2865 111.627L34.2972 111.726L34.3081 111.825L34.319 111.925L34.33 112.024L34.3411 112.123L34.3522 112.209L34.3635 112.296L34.3748 112.395L34.3861 112.495L34.3976 112.594L34.4092 112.693L34.4208 112.792L34.4326 112.891L34.4443 112.99L34.4562 113.077L34.4682 113.163L34.4802 113.262L34.4923 113.361L34.5045 113.46L34.5168 113.559L34.5292 113.658L34.5416 113.757L34.5541 113.856L34.5667 113.944L34.5794 114.029L34.5922 114.128L34.605 114.227L34.6179 114.325L34.6309 114.424L34.644 114.523L34.6571 114.622L34.6704 114.721L34.6837 114.81L34.6971 114.893L34.7106 114.992L34.7241 115.091L34.7378 115.19L34.7515 115.288L34.7653 115.387L34.7792 115.486L34.7932 115.584L34.8072 115.675L34.8213 115.757L34.8355 115.855L34.8498 115.954L34.8642 116.053L34.8785 116.151L34.8931 116.25L34.9077 116.348L34.9223 116.447L34.9371 116.538L34.9519 116.619L34.9668 116.717L34.9819 116.816L34.9969 116.914L35.012 117.013L35.0273 117.111L35.0425 117.21L35.058 117.308L35.0734 117.4L35.0889 117.48L35.1046 117.578L35.1203 117.677L35.136 117.775L35.1519 117.873L35.1678 117.971L35.1838 118.07L35.1999 118.168L35.2161 118.261L35.2324 118.339L35.2487 118.438L35.265 118.536L35.2816 118.634L35.2981 118.732L35.3147 118.83L35.3315 118.928L35.3482 119.026L35.3651 119.121L35.3821 119.198L35.3991 119.296L35.4162 119.394L35.4334 119.492L35.4506 119.59L35.468 119.688L35.4854 119.785L35.5029 119.883L35.5205 119.979L35.5381 120.054L35.5558 120.152L35.5737 120.25L35.5915 120.348L35.6095 120.446L35.6275 120.543L35.6456 120.641L35.6638 120.739L35.6821 120.835L35.7004 120.909L35.7189 121.007L35.7373 121.105L35.7559 121.202L35.7746 121.3L35.7933 121.398L35.8121 121.495L35.831 121.593L35.8499 121.69L35.869 121.763L35.8881 121.86L35.9073 121.958L35.9266 122.055L35.9459 122.153L35.9653 122.25L35.9848 122.348L36.0044 122.445L36.0241 122.542L36.0438 122.616L36.0635 122.712L36.0835 122.809L36.1034 122.907L36.1234 123.004L36.1436 123.101L36.1637 123.198L36.184 123.296L36.2043 123.393L36.2247 123.467L36.2452 123.562L36.2658 123.659L36.2864 123.756L36.3071 123.853L36.3279 123.951L36.3488 124.048L36.3697 124.145L36.3907 124.242L36.4118 124.317L36.433 124.41L36.4542 124.507L36.4756 124.604L36.497 124.701L36.5184 124.798L36.54 124.895L36.5616 124.992L36.5832 125.088L36.6051 125.165L36.6269 125.257L36.6488 125.354L36.6708 125.45L36.6928 125.547L36.715 125.644L36.7372 125.74L36.7595 125.837L36.7819 125.934L36.8043 126.011L36.8268 126.102L36.8494 126.198L36.8721 126.295L36.8948 126.391L36.9177 126.487L36.9405 126.584L36.9635 126.68L36.9865 126.777L37.0096 126.855L37.0328 126.944L37.0561 127.041L37.0794 127.137L37.1028 127.233L37.1263 127.329L37.1498 127.426L37.1735 127.522L37.1972 127.618L37.2209 127.697L37.2448 127.785L37.2687 127.881L37.2927 127.977L37.3168 128.073L37.3409 128.169L37.3652 128.265L37.3895 128.361L37.4138 128.457L37.4383 128.538L37.4628 128.624L37.4873 128.72L37.512 128.816L37.5367 128.911L37.5615 129.007L37.5864 129.103L37.6113 129.199L37.6364 129.294L37.6615 129.376L37.6866 129.461L37.7119 129.556L37.7372 129.652L37.7625 129.747L37.788 129.843L37.8136 129.938L37.8391 130.034L37.8648 130.129L37.8906 130.212L37.9164 130.295L37.9423 130.391L37.9682 130.486L37.9943 130.581L38.0204 130.677L38.0465 130.772L38.0728 130.867L38.0992 130.962L38.1255 131.046L38.152 131.128L38.1785 131.223L38.2051 131.318L38.2318 131.413L38.2586 131.508L38.2854 131.603L38.3123 131.698L38.3393 131.793L38.3663 131.878L38.3934 131.958L38.4206 132.053L38.4479 132.148L38.4752 132.243L38.5025 132.337L38.53 132.432L38.5576 132.527L38.5851 132.622L38.6129 132.707L38.6406 132.786L38.6684 132.881L38.6963 132.975L38.7243 133.07L38.7523 133.165L38.7804 133.259L38.8086 133.354L38.8368 133.448L38.8652 133.534L38.8935 133.612L38.922 133.706L38.9506 133.801L38.9791 133.895L39.0078 133.989L39.0366 134.083L39.0653 134.178L39.0942 134.272L39.1232 134.359L39.1521 134.435L39.1813 134.529L39.2104 134.624L39.2396 134.718L39.269 134.812L39.2983 134.906L39.3277 135L39.3573 135.094L39.3868 135.182L39.4165 135.256L39.4462 135.35L39.4759 135.444L39.5058 135.538L39.5358 135.632L39.5657 135.725L39.5958 135.819L39.6259 135.913L39.6561 136.002L39.6864 136.075L39.7167 136.169L39.7471 136.262L39.7776 136.356L39.8081 136.449L39.8387 136.543L39.8695 136.636L39.9002 136.729L39.931 136.819L39.9619 136.891L39.9928 136.984L40.0239 137.078L40.055 137.171L40.0861 137.264L40.1174 137.357L40.1487 137.451L40.18 137.544L40.2115 137.635L40.2429 137.705L40.2745 137.798L40.3062 137.891L40.3378 137.984L40.3696 138.077L40.4015 138.17L40.4333 138.262L40.4653 138.355L40.4974 138.447L40.5295 138.516L40.5617 138.609L40.5939 138.701L40.6262 138.794L40.6586 138.887L40.6911 138.979L40.7235 139.072L40.7561 139.164L40.7888 139.257L40.8215 139.325L40.8543 139.417L40.8871 139.509L40.92 139.602L40.953 139.694L40.9861 139.786L41.0192 139.879L41.0524 139.971L41.0856 140.063L41.1189 140.132L41.1523 140.222L41.1858 140.315L41.2193 140.407L41.2529 140.499L41.2865 140.591L41.3202 140.683L41.354 140.775L41.3878 140.867L41.4218 140.936L41.4558 141.025L41.4897 141.117L41.5239 141.209L41.5581 141.301L41.5923 141.392L41.6267 141.484L41.661 141.576L41.6954 141.667L41.73 141.738L41.7645 141.826L41.7991 141.917L41.8339 142.008L41.8686 142.1L41.9035 142.191L41.9384 142.283L41.9733 142.374L42.0083 142.465L42.0435 142.537L42.0786 142.623L42.1138 142.714L42.1491 142.805L42.1844 142.896L42.2199 142.988L42.2554 143.079L42.2909 143.17L42.3265 143.261L42.3622 143.333L42.3979 143.418L42.4338 143.508L42.4696 143.599L42.5055 143.69L42.5416 143.781L42.5776 143.872L42.6137 143.962L42.6499 144.053L42.6862 144.126L42.7225 144.209L42.7589 144.3L42.7953 144.39L42.8318 144.481L42.8684 144.571L42.905 144.662L42.9418 144.752L42.9785 144.843L43.0153 144.917L43.0523 144.998L43.0892 145.089L43.1262 145.179L43.1633 145.269L43.2005 145.359L43.2376 145.449L43.275 145.539L43.3123 145.629L43.3496 145.704L43.3872 145.784L43.4247 145.874L43.4622 145.964L43.4999 146.054L43.5376 146.144L43.5754 146.234L43.6133 146.323L43.6511 146.413L43.6891 146.489L43.7272 146.567L43.7652 146.657L43.8034 146.746L43.8416 146.836L43.8799 146.925L43.9182 147.015L43.9567 147.104L43.9951 147.194L44.0336 147.27L44.0722 147.347L44.1108 147.437L44.1496 147.526L44.1884 147.615L44.2272 147.704L44.2661 147.793L44.3051 147.882L44.344 147.971L44.3832 148.049L44.4223 148.124L44.4615 148.213L44.5008 148.302L44.5401 148.391L44.5795 148.48L44.619 148.569L44.6585 148.657L44.698 148.746L44.7377 148.824L44.7774 148.898L44.8171 148.987L44.857 149.076L44.8969 149.164L44.9368 149.253L44.9768 149.341L45.0169 149.429L45.057 149.518L45.0972 149.597L45.1374 149.669L45.1777 149.758L45.2181 149.846L45.2585 149.934L45.299 150.022L45.3396 150.11L45.3802 150.198L45.4209 150.286L45.4616 150.366L45.5024 150.437L45.5432 150.525L45.5842 150.613L45.6251 150.701L45.6662 150.788L45.7073 150.876L45.7484 150.964L45.7896 151.051L45.8309 151.132L45.8722 151.202L45.9136 151.289L45.955 151.377L45.9965 151.464L46.0381 151.552L46.0797 151.639L46.1214 151.726L46.1632 151.814L46.205 151.895L46.2468 151.963L46.2888 152.05L46.3308 152.137L46.3728 152.225L46.4149 152.312L46.4571 152.399L46.4993 152.486L46.5416 152.573L46.5839 152.655L46.6263 152.721L46.6688 152.808L46.7113 152.895L46.7538 152.982L46.7965 153.068L46.8391 153.155L46.8819 153.242L46.9247 153.328L46.9676 153.412L47.0105 153.476L47.0535 153.563L47.0965 153.649L47.1396 153.735L47.1828 153.822L47.226 153.908L47.2693 153.994L47.3126 154.081L47.3559 154.165L47.3994 154.228L47.4429 154.314L47.4864 154.4L47.5301 154.486L47.5738 154.572L47.6175 154.658L47.6613 154.744L47.7051 154.83L47.749 154.915L47.793 154.976L47.837 155.062L47.8811 155.148L47.9253 155.233L47.9694 155.319L48.0136 155.404L48.058 155.49L48.1023 155.575L48.1467 155.661L48.1912 155.722L48.2358 155.806L48.2803 155.892L48.325 155.977L48.3697 156.062L48.4144 156.147L48.4593 156.233L48.5041 156.318L48.5491 156.403L48.5941 156.464L48.6391 156.548L48.6842 156.633L48.7294 156.717L48.7746 156.802L48.8198 156.887L48.8652 156.972L48.9105 157.057L48.9559 157.141L49.0015 157.204L49.047 157.285L49.0926 157.37L49.1383 157.454L49.1839 157.539L49.2297 157.623L49.2756 157.708L49.3214 157.792L49.3674 157.876L49.4134 157.94L49.4594 158.02L49.5055 158.104L49.5517 158.188L49.5978 158.272L49.6441 158.356L49.6905 158.44L49.7368 158.524L49.7833 158.608L49.8297 158.672L49.8762 158.751L49.9229 158.834L49.9695 158.918L50.0162 159.002L50.063 159.085L50.1098 159.169L50.1566 159.253L50.2036 159.336L50.2506 159.401L50.2976 159.478L50.3447 159.561L50.3918 159.645L50.439 159.728L50.4863 159.811L50.5336 159.894L50.5809 159.977L50.6283 160.061L50.6758 160.126L50.7233 160.202L50.7709 160.285L50.8185 160.368L50.8662 160.45L50.9139 160.533L50.9617 160.616L51.0095 160.699L51.0575 160.781L51.1054 160.848L51.1534 160.922L51.2015 161.004L51.2496 161.087L51.2977 161.169L51.3459 161.252L51.3942 161.334L51.4425 161.417L51.4909 161.499L51.5393 161.566L51.5878 161.638L51.6363 161.721L51.6849 161.803L51.7335 161.885L51.7823 161.967L51.831 162.049L51.8798 162.131L51.9286 162.213L51.9775 162.281L52.0265 162.351L52.0755 162.433L52.1246 162.515L52.1736 162.596L52.2228 162.678L52.272 162.76L52.3213 162.841L52.3706 162.923L52.42 162.992L52.4694 163.061L52.5189 163.142L52.5684 163.223L52.618 163.305L52.6676 163.386L52.7173 163.467L52.767 163.548L52.8169 163.629L52.8667 163.699L52.9165 163.766L52.9665 163.847L53.0165 163.928L53.0665 164.009L53.1167 164.09L53.1668 164.17L53.217 164.251L53.2673 164.332L53.3175 164.402L53.3679 164.468L53.4183 164.549L53.4687 164.629L53.5192 164.71L53.5698 164.79L53.6204 164.87L53.6711 164.951L53.7218 165.031L53.7725 165.102L53.8233 165.166L53.8742 165.246L53.9251 165.326L53.976 165.406L54.0271 165.486L54.0781 165.566L54.1292 165.646L54.1804 165.726L54.2316 165.798L54.2829 165.861L54.3342 165.94L54.3855 166.02L54.4369 166.099L54.4884 166.179L54.5399 166.259L54.5915 166.338L54.6431 166.417L54.6948 166.49L54.7465 166.551L54.7983 166.63L54.85 166.71L54.9019 166.789L54.9538 166.868L55.0058 166.947L55.0578 167.026L55.1099 167.105L55.1619 167.179L55.2141 167.238L55.2663 167.317L55.3185 167.395L55.3708 167.474L55.4232 167.553L55.4756 167.632L55.528 167.71L55.5806 167.789L55.6331 167.863L55.6857 167.921L55.7384 167.999L55.791 168.077L55.8438 168.156L55.8966 168.234L55.9494 168.312L56.0023 168.39L56.0552 168.469L56.1082 168.544L56.1612 168.6L56.2143 168.678L56.2674 168.756L56.3206 168.833L56.3739 168.911L56.4271 168.989L56.4804 169.067L56.5338 169.144L56.5872 169.22L56.6407 169.275L56.6942 169.352L56.7477 169.43L56.8013 169.507L56.855 169.585L56.9087 169.662L56.9624 169.739L57.0163 169.816L57.0701 169.893L57.124 169.946L57.1779 170.023L57.2319 170.1L57.2859 170.177L57.34 170.254L57.3942 170.331L57.4483 170.408L57.5026 170.485L57.5568 170.561L57.6111 170.614L57.6655 170.69L57.7199 170.766L57.7743 170.843L57.8289 170.919L57.8834 170.996L57.938 171.072L57.9927 171.149L58.0473 171.225L58.1021 171.278L58.1569 171.352L58.2117 171.429L58.2665 171.505L58.3215 171.581L58.3764 171.657L58.4314 171.733L58.4865 171.809L58.5416 171.885L58.5967 171.939L58.652 172.011L58.7072 172.087L58.7625 172.163L58.8178 172.238L58.8732 172.314L58.9286 172.389L58.9841 172.465L59.0396 172.54L59.0951 172.595L59.1508 172.666L59.2064 172.741L59.2621 172.816L59.3179 172.892L59.3737 172.967L59.4295 173.042L59.4854 173.117L59.5413 173.192L59.5972 173.247L59.6533 173.317L59.7093 173.391L59.7654 173.466L59.8216 173.541L59.8778 173.615L59.934 173.69L59.9903 173.765L60.0466 173.839L60.1029 173.895L60.1594 173.963L60.2159 174.037L60.2723 174.112L60.3289 174.186L60.3855 174.26L60.4421 174.334L60.4988 174.408L60.5555 174.483L60.6123 174.539L60.6691 174.605L60.726 174.679L60.7829 174.753L60.8398 174.827L60.8968 174.901L60.9538 174.975L61.0109 175.048L61.0681 175.122L61.1252 175.179L61.1824 175.244L61.2397 175.317L61.2969 175.391L61.3543 175.464L61.4117 175.537L61.4691 175.611L61.5266 175.684L61.5841 175.757L61.6416 175.815L61.6992 175.878L61.7569 175.951L61.8145 176.024L61.8723 176.097L61.9301 176.17L61.9878 176.242L62.0457 176.315L62.1036 176.388L62.1615 176.447L62.2195 176.508L62.2776 176.58L62.3356 176.653L62.3937 176.725L62.4519 176.798L62.5101 176.87L62.5683 176.942L62.6266 177.014L62.6849 177.074L62.7433 177.134L62.8017 177.206L62.8601 177.278L62.9186 177.35L62.9772 177.421L63.0357 177.493L63.0943 177.565L63.153 177.637L63.2117 177.697L63.2704 177.755L63.3292 177.827L63.388 177.898L63.4469 177.97L63.5058 178.041L63.5648 178.112L63.6237 178.184L63.6828 178.255L63.7419 178.316L63.801 178.372L63.8601 178.443L63.9193 178.514L63.9785 178.586L64.0378 178.656L64.0972 178.727L64.1565 178.798L64.2159 178.869L64.2754 178.931L64.3348 178.985L64.3944 179.056L64.4539 179.127L64.5135 179.197L64.5732 179.267L64.6329 179.338L64.6926 179.408L64.7523 179.479L64.8122 179.541L64.872 179.594L64.9319 179.664L64.9918 179.734L65.0517 179.804L65.1118 179.874L65.1718 179.944L65.2319 180.014L65.292 180.084L65.3522 180.147L65.4124 180.198L65.4727 180.268L65.533 180.338L65.5933 180.407L65.6537 180.477L65.7141 180.546L65.7745 180.616L65.835 180.685L65.8955 180.749L65.9561 180.798L66.0167 180.868L66.0773 180.937L66.138 181.006L66.1987 181.075L66.2595 181.144L66.3203 181.213L66.3811 181.281L66.442 181.346L66.5029 181.394L66.5639 181.463L66.6249 181.531L66.6859 181.6L66.747 181.668L66.8081 181.737L66.8692 181.805L66.9304 181.874L66.9917 181.939L67.0529 181.985L67.1142 182.053L67.1756 182.122L67.2369 182.19L67.2983 182.258L67.3598 182.326L67.4213 182.394L67.4828 182.462L67.5444 182.528L67.606 182.572L67.6676 182.64L67.7293 182.707L67.791 182.775L67.8528 182.843L67.9146 182.91L67.9764 182.978L68.0383 183.045L68.1002 183.112L68.1622 183.155L68.2241 183.222L68.2862 183.289L68.3482 183.356L68.4103 183.423L68.4725 183.49L68.5346 183.557L68.5968 183.624L68.6591 183.691L68.7214 183.733L68.7837 183.799L68.8461 183.866L68.9084 183.932L68.9708 183.999L69.0333 184.066L69.0958 184.132L69.1583 184.198L69.221 184.265L69.2836 184.308L69.3462 184.372L69.4089 184.438L69.4716 184.504L69.5344 184.571L69.5972 184.637L69.66 184.702L69.7229 184.768L69.7858 184.834L69.8487 184.878L69.9117 184.941L69.9747 185.006L70.0378 185.072L70.1008 185.138L70.1639 185.203L70.2271 185.268L70.2903 185.334L70.3535 185.399L70.4168 185.444L70.4801 185.505L70.5434 185.57L70.6068 185.635L70.6702 185.7L70.7336 185.765L70.7971 185.83L70.8606 185.895L70.9241 185.96L70.9877 186.005L71.0514 186.064L71.115 186.129L71.1787 186.193L71.2424 186.258L71.3061 186.322L71.37 186.387L71.4338 186.451L71.4976 186.516L71.5615 186.562L71.6255 186.619L71.6894 186.683L71.7534 186.747L71.8175 186.811L71.8815 186.875L71.9456 186.939L72.0098 187.003L72.0739 187.067L72.1382 187.114L72.2024 187.169L72.2666 187.233L72.331 187.297L72.3953 187.36L72.4597 187.424L72.5241 187.487L72.5886 187.55L72.653 187.614L72.7175 187.661L72.7821 187.715L72.8466 187.778L72.9113 187.841L72.9759 187.904L73.0406 187.967L73.1053 188.03L73.1701 188.093L73.2348 188.156L73.2996 188.204L73.3645 188.256L73.4294 188.319L73.4943 188.381L73.5592 188.444L73.6242 188.506L73.6892 188.569L73.7543 188.631L73.8193 188.693L73.8844 188.742L73.9496 188.793L74.0148 188.855L74.0799 188.917L74.1452 188.979L74.2105 189.041L74.2758 189.103L74.3411 189.165L74.4065 189.226L74.4719 189.276L74.5373 189.325L74.6028 189.386L74.6683 189.448L74.7338 189.509L74.7994 189.571L74.8649 189.632L74.9306 189.693L74.9963 189.755L75.0619 189.805L75.1277 189.852L75.1934 189.913L75.2592 189.974L75.325 190.035L75.3909 190.096L75.4567 190.157L75.5227 190.217L75.5886 190.278L75.6546 190.329L75.7206 190.374L75.7866 190.435L75.8527 190.495L75.9188 190.556L75.9849 190.616L76.0511 190.676L76.1173 190.737L76.1835 190.797L76.2497 190.849L76.316 190.892L76.3824 190.952L76.4487 191.012L76.5151 191.072L76.5815 191.132L76.6479 191.192L76.7144 191.251L76.7809 191.311L76.8474 191.363L76.914 191.405L76.9806 191.465L77.0472 191.524L77.1138 191.584L77.1805 191.643L77.2472 191.702L77.314 191.761L77.3808 191.821L77.4476 191.874L77.5144 191.914L77.5813 191.973L77.6481 192.032L77.715 192.09L77.782 192.149L77.849 192.208L77.916 192.267L77.983 192.325L78.0501 192.379L78.1172 192.417L78.1843 192.476L78.2515 192.534L78.3186 192.592L78.3859 192.651L78.4531 192.709L78.5204 192.767L78.5877 192.825L78.655 192.88L78.7224 192.916L78.7898 192.974L78.8572 193.032L78.9246 193.09L78.9921 193.147L79.0596 193.205L79.1272 193.263L79.1947 193.32L79.2623 193.375L79.3299 193.41L79.3975 193.468L79.4652 193.525L79.5329 193.582L79.6006 193.639L79.6684 193.697L79.7362 193.754L79.804 193.811L79.8719 193.866L79.9398 193.9L79.9919 193.941L80.0349 193.972L80.0779 194.004L80.1208 194.036L80.1639 194.067L80.2069 194.099L80.2499 194.13L80.2931 194.161L80.3544 194.193L80.4043 194.224L80.4475 194.255L80.4907 194.286L80.5339 194.317L80.5772 194.347L80.6205 194.378L80.6638 194.409L80.7072 194.439L80.7676 194.47L80.8189 194.5L80.8623 194.531L80.9058 194.561L80.9493 194.591L80.9928 194.621L81.0363 194.651L81.0799 194.681L81.1235 194.711L81.1829 194.741L81.2357 194.771L81.2794 194.8L81.3231 194.83L81.3668 194.859L81.4105 194.889L81.4544 194.918L81.4981 194.947L81.5419 194.976L81.6005 195.005L81.6547 195.035L81.6986 195.063L81.7425 195.092L81.7865 195.121L81.8305 195.149L81.8745 195.178L81.9186 195.206L81.9626 195.235L82.0201 195.263L82.0758 195.292L82.1199 195.32L82.1641 195.348L82.2083 195.376L82.2525 195.404L82.2968 195.432L82.3411 195.459L82.3854 195.487L82.4419 195.515L82.499 195.543L82.5434 195.57L82.5878 195.598L82.6323 195.625L82.6767 195.652L82.7212 195.679L82.7657 195.706L82.8103 195.733L82.8658 195.76L82.9244 195.787L82.969 195.814L83.0136 195.841L83.0583 195.867L83.103 195.893L83.1477 195.92L83.1924 195.946L83.2372 195.972L83.2918 195.999L83.3517 196.026L83.3966 196.051L83.4415 196.077L83.4864 196.103L83.5313 196.128L83.5762 196.154L83.6212 196.179L83.6662 196.205L83.7198 196.231L83.7812 196.257L83.8263 196.282L83.8713 196.307L83.9165 196.332L83.9616 196.357L84.0068 196.382L84.052 196.407L84.0972 196.431L84.1498 196.456L84.2126 196.482L84.2579 196.506L84.3032 196.531L84.3485 196.555L84.3939 196.579L84.4393 196.603L84.4847 196.627L84.5302 196.651L84.5819 196.675L84.646 196.701L84.6916 196.724L84.7371 196.748L84.7826 196.771L84.8282 196.795L84.8738 196.818L84.9195 196.841L84.9651 196.864L85.0158 196.888L85.0814 196.913L85.1272 196.935L85.1729 196.958L85.2187 196.981L85.2645 197.004L85.3103 197.026L85.3562 197.049L85.402 197.071L85.4518 197.094L85.5187 197.118L85.5647 197.14L85.6107 197.162L85.6566 197.184L85.7026 197.206L85.7487 197.228L85.7948 197.249L85.8408 197.271L85.8896 197.293L85.9579 197.317L86.0041 197.338L86.0503 197.36L86.0965 197.381L86.1427 197.402L86.1889 197.423L86.2352 197.444L86.2815 197.465L86.3293 197.486L86.399 197.509L86.4454 197.53L86.4918 197.55L86.5382 197.571L86.5846 197.591L86.6311 197.611L86.6775 197.632L86.724 197.652L86.7708 197.672L86.8419 197.695L86.8885 197.715L86.9351 197.735L86.9817 197.754L87.0283 197.774L87.075 197.794L87.1217 197.813L87.1684 197.832L87.2151 197.852L87.2857 197.874L87.3335 197.893L87.3802 197.912L87.4271 197.931L87.4739 197.95L87.5208 197.969L87.5677 197.988L87.6146 198.006L87.6616 198.025L87.7311 198.046L87.7802 198.065L87.8272 198.083L87.8742 198.102L87.9213 198.12L87.9683 198.138L88.0154 198.156L88.0625 198.173L88.1097 198.191L88.1782 198.212L88.2287 198.23L88.2759 198.248L88.3231 198.265L88.3704 198.283L88.4176 198.3L88.4649 198.317L88.5122 198.334L88.5595 198.351L88.627 198.371L88.6789 198.389L88.7263 198.406L88.7737 198.423L88.8211 198.439L88.8686 198.456L88.9161 198.472L88.9636 198.488L89.0111 198.505L89.0775 198.524L89.1308 198.541L89.1784 198.557L89.226 198.573L89.2736 198.589L89.3213 198.605L89.369 198.62L89.4166 198.636L89.4644 198.651L89.5298 198.67L89.5844 198.687L89.6322 198.702L89.68 198.717L89.7278 198.732L89.7756 198.747L89.8235 198.762L89.8714 198.777L89.9193 198.792L89.9837 198.809L90.0397 198.825L90.0876 198.84L90.1356 198.854L90.1836 198.869L90.2316 198.883L90.2797 198.897L90.3277 198.911L90.3758 198.925L90.4392 198.942L90.4965 198.958L90.5447 198.971L90.5929 198.985L90.641 198.999L90.6892 199.012L90.7374 199.025L90.7857 199.039L90.8339 199.052L90.8963 199.068L90.955 199.083L91.0033 199.096L91.0517 199.109L91.1 199.122L91.1484 199.135L91.1968 199.147L91.2452 199.16L91.2937 199.172L91.355 199.187L91.4151 199.202L91.4636 199.214L91.5121 199.227L91.5606 199.239L91.6092 199.251L91.6577 199.263L91.7063 199.274L91.755 199.286L91.8153 199.3L91.8767 199.315L91.9253 199.326L91.974 199.337L92.0228 199.349L92.0714 199.36L92.1202 199.371L92.169 199.382L92.0785 199.374L91.9898 199.367L91.9044 199.36L91.8051 199.35L91.7059 199.341L91.6066 199.331L91.5074 199.321L91.4082 199.311L91.309 199.3L91.2098 199.29L91.12 199.282L91.0358 199.275L90.9367 199.264L90.8375 199.254L90.7383 199.243L90.6392 199.232L90.5401 199.221L90.441 199.21L90.3419 199.199L90.2509 199.189L90.168 199.182L90.0689 199.17L89.9699 199.159L89.8708 199.147L89.7718 199.136L89.6728 199.124L89.5738 199.112L89.4748 199.1L89.3827 199.09L89.301 199.082L89.2021 199.069L89.1031 199.057L89.0042 199.045L88.9052 199.032L88.8063 199.019L88.7074 199.007L88.6085 198.994L88.5154 198.982L88.4349 198.974L88.3361 198.961L88.2372 198.948L88.1384 198.934L88.0395 198.921L87.9407 198.907L87.8419 198.894L87.7431 198.88L87.649 198.867L87.5697 198.859L87.471 198.845L87.3723 198.831L87.2735 198.817L87.1748 198.802L87.0761 198.788L86.9774 198.774L86.8788 198.759L86.7835 198.745L86.7056 198.736L86.6069 198.722L86.5083 198.707L86.4097 198.692L86.3111 198.677L86.2125 198.661L86.114 198.646L86.0155 198.631L85.9192 198.616L85.8424 198.607L85.7439 198.591L85.6454 198.575L85.547 198.559L85.4485 198.543L85.3501 198.527L85.2517 198.511L85.1532 198.495L85.056 198.479L84.9804 198.469L84.8821 198.453L84.7837 198.436L84.6854 198.419L84.5871 198.403L84.4888 198.386L84.3905 198.369L84.2922 198.352L84.194 198.334L84.1196 198.324L84.0214 198.307L83.9232 198.29L83.825 198.272L83.7269 198.254L83.6287 198.237L83.5306 198.219L83.4325 198.201L83.3344 198.183L83.2589 198.172L83.162 198.154L83.064 198.136L82.966 198.117L82.8679 198.099L82.7699 198.08L82.672 198.062L82.574 198.043L82.4761 198.024L82.3996 198.012L82.304 197.994L82.2061 197.975L82.1082 197.955L82.0104 197.936L81.9126 197.917L81.8148 197.897L81.717 197.878L81.6192 197.858L81.5417 197.845L81.4474 197.826L81.3497 197.806L81.252 197.786L81.1542 197.766L81.0566 197.746L80.9589 197.725L80.8613 197.705L80.7637 197.684L80.6852 197.67L80.5922 197.651L80.4946 197.63L80.3971 197.609L80.2996 197.588L80.2021 197.567L80.1046 197.546L80.0072 197.525L79.9097 197.503L79.8302 197.488L79.7385 197.468L79.6412 197.447L79.5438 197.425L79.4464 197.403L79.3491 197.381L79.2518 197.359L79.1546 197.337L79.0573 197.315L78.9768 197.299L78.8864 197.279L78.7892 197.256L78.692 197.234L78.5949 197.211L78.4978 197.188L78.4007 197.165L78.3036 197.142L78.2065 197.119L78.125 197.102L78.0359 197.081L77.939 197.058L77.842 197.035L77.7451 197.011L77.6481 196.988L77.5512 196.964L77.4544 196.94L77.3575 196.916L77.275 196.898L77.1872 196.877L77.0905 196.853L76.9937 196.829L76.897 196.804L76.8002 196.78L76.7036 196.755L76.6069 196.731L76.5102 196.706L76.4268 196.686L76.3403 196.665L76.2437 196.64L76.1472 196.615L76.0507 196.59L75.9541 196.565L75.8577 196.539L75.7612 196.514L75.6648 196.488L75.5804 196.467L75.4952 196.446L75.3989 196.42L75.3025 196.394L75.2062 196.368L75.1099 196.342L75.0137 196.316L74.9174 196.29L74.8212 196.263L74.7359 196.241L74.652 196.22L74.5559 196.193L74.4598 196.166L74.3637 196.139L74.2677 196.112L74.1716 196.085L74.0756 196.058L73.9797 196.031L73.8934 196.008L73.8108 195.986L73.715 195.958L73.619 195.931L73.5232 195.903L73.4274 195.875L73.3316 195.847L73.2358 195.819L73.1401 195.791L73.0529 195.767L72.9716 195.745L72.876 195.716L72.7803 195.688L72.6847 195.66L72.5891 195.631L72.4936 195.602L72.3981 195.573L72.3025 195.545L72.2145 195.519L72.1346 195.496L72.0391 195.467L71.9437 195.438L71.8484 195.409L71.753 195.379L71.6577 195.35L71.5625 195.32L71.4672 195.291L71.3783 195.264L71.2996 195.241L71.2044 195.211L71.1093 195.181L71.0142 195.151L70.9191 195.121L70.8241 195.09L70.729 195.06L70.634 195.029L70.5443 195.001L70.4669 194.978L70.372 194.948L70.2771 194.917L70.1823 194.886L70.0874 194.855L69.9926 194.823L69.8979 194.792L69.8031 194.761L69.7125 194.731L69.6365 194.709L69.5418 194.677L69.4472 194.645L69.3526 194.613L69.2581 194.581L69.1636 194.55L69.0691 194.518L68.9746 194.485L68.8832 194.454L68.8083 194.432L68.714 194.399L68.6197 194.366L68.5253 194.334L68.4311 194.301L68.3369 194.268L68.2426 194.236L68.1485 194.203L68.0562 194.17L67.9827 194.147L67.8886 194.114L67.7946 194.081L67.7005 194.047L67.6065 194.014L67.5126 193.98L67.4187 193.946L67.3248 193.913L67.2317 193.879L67.1595 193.856L67.0657 193.822L66.9719 193.788L66.8782 193.753L66.7845 193.719L66.6909 193.685L66.5973 193.65L66.5037 193.616L66.4101 193.581L66.3386 193.557L66.2453 193.523L66.1519 193.488L66.0584 193.453L65.965 193.418L65.8717 193.382L65.7783 193.347L65.685 193.312L65.5918 193.276L65.5195 193.251L65.4276 193.216L65.3344 193.181L65.2413 193.145L65.1481 193.109L65.0551 193.073L64.9621 193.037L64.8691 193.001L64.7761 192.964L64.7029 192.938L64.6124 192.903L64.5196 192.866L64.4268 192.83L64.334 192.793L64.2412 192.756L64.1485 192.719L64.0558 192.682L63.9632 192.645L63.8892 192.618L63.8 192.583L63.7075 192.545L63.615 192.508L63.5225 192.47L63.4301 192.433L63.3377 192.395L63.2453 192.357L63.153 192.319L63.0782 192.291L62.9904 192.255L62.8982 192.217L62.806 192.179L62.7139 192.14L62.6218 192.102L62.5297 192.064L62.4377 192.025L62.3457 191.986L62.27 191.957L62.1836 191.921L62.0917 191.882L61.9999 191.843L61.908 191.804L61.8163 191.764L61.7245 191.725L61.6328 191.686L61.5412 191.646L61.4648 191.615L61.3797 191.579L61.2881 191.54L61.1967 191.5L61.1052 191.46L61.0137 191.42L60.9223 191.38L60.831 191.34L60.7396 191.299L60.6625 191.267L60.5788 191.231L60.4876 191.191L60.3964 191.15L60.3053 191.109L60.2142 191.069L60.1232 191.028L60.0321 190.987L59.9412 190.946L59.8633 190.912L59.7809 190.876L59.69 190.835L59.5992 190.793L59.5084 190.752L59.4177 190.71L59.327 190.669L59.2363 190.627L59.1457 190.585L59.0671 190.55L58.986 190.514L58.8955 190.472L58.8051 190.43L58.7146 190.387L58.6243 190.345L58.5339 190.303L58.4436 190.26L58.3534 190.217L58.274 190.181L58.1943 190.145L58.1042 190.102L58.0141 190.059L57.924 190.016L57.834 189.973L57.7441 189.93L57.6541 189.887L57.5642 189.843L57.4842 189.806L57.4058 189.769L57.3161 189.726L57.2263 189.682L57.1367 189.638L57.047 189.594L56.9574 189.55L56.8679 189.506L56.7783 189.462L56.6975 189.423L56.6206 189.387L56.5312 189.343L56.4418 189.298L56.3525 189.253L56.2632 189.209L56.174 189.164L56.0848 189.119L55.9957 189.074L55.9142 189.034L55.8386 188.998L55.7496 188.953L55.6606 188.907L55.5717 188.862L55.4828 188.817L55.394 188.771L55.3052 188.725L55.2164 188.68L55.1343 188.638L55.06 188.602L54.9713 188.556L54.8828 188.51L54.7942 188.464L54.7057 188.418L54.6173 188.371L54.5289 188.325L54.4405 188.279L54.3578 188.236L54.2848 188.199L54.1965 188.153L54.1084 188.106L54.0202 188.059L53.9321 188.012L53.8441 187.965L53.7561 187.918L53.6681 187.871L53.5848 187.826L53.513 187.79L53.4252 187.743L53.3375 187.695L53.2497 187.647L53.162 187.6L53.0744 187.552L52.9868 187.504L52.8992 187.456L52.8152 187.41L52.7448 187.374L52.6574 187.326L52.57 187.278L52.4827 187.229L52.3955 187.181L52.3082 187.132L52.221 187.084L52.1339 187.035L52.0493 186.988L51.9802 186.952L51.8932 186.903L51.8063 186.854L51.7193 186.805L51.6325 186.755L51.5457 186.706L51.4589 186.657L51.3722 186.607L51.287 186.559L51.2192 186.523L51.1327 186.473L51.0461 186.423L50.9596 186.373L50.8732 186.323L50.7868 186.273L50.7005 186.223L50.6142 186.173L50.5285 186.123L50.462 186.087L50.3758 186.037L50.2897 185.986L50.2037 185.936L50.1177 185.885L50.0317 185.834L49.9458 185.783L49.8599 185.732L49.7741 185.681L49.708 185.645L49.6227 185.594L49.5371 185.543L49.4515 185.491L49.3659 185.44L49.2803 185.389L49.1949 185.337L49.1094 185.285L49.0241 185.234L48.9574 185.196L48.8735 185.145L48.7882 185.093L48.703 185.041L48.6179 184.989L48.5328 184.936L48.4478 184.884L48.3628 184.832L48.2779 184.779L48.2105 184.74L48.128 184.689L48.0433 184.637L47.9585 184.584L47.8738 184.531L47.7892 184.478L47.7046 184.425L47.6201 184.372L47.5356 184.319L47.4676 184.278L47.3865 184.227L47.3022 184.174L47.2179 184.12L47.1336 184.067L47.0495 184.013L46.9654 183.959L46.8813 183.905L46.7973 183.852L46.7287 183.81L46.649 183.759L46.5651 183.705L46.4813 183.651L46.3975 183.596L46.3138 183.542L46.2301 183.487L46.1465 183.433L46.063 183.378L45.9938 183.335L45.9154 183.284L45.8321 183.229L45.7487 183.175L45.6654 183.12L45.5821 183.064L45.4989 183.009L45.4158 182.954L45.3327 182.899L45.263 182.854L45.186 182.804L45.103 182.748L45.0201 182.692L44.9373 182.637L44.8545 182.581L44.7718 182.525L44.6891 182.469L44.6065 182.413L44.5363 182.367L44.4607 182.316L44.3782 182.26L44.2957 182.204L44.2134 182.147L44.1311 182.091L44.0489 182.034L43.9667 181.978L43.8845 181.921L43.8138 181.874L43.7395 181.823L43.6575 181.766L43.5756 181.709L43.4937 181.652L43.4119 181.595L43.3301 181.537L43.2484 181.48L43.1667 181.423L43.0955 181.374L43.0226 181.324L42.941 181.266L42.8596 181.208L42.7782 181.15L42.6969 181.093L42.6156 181.035L42.5344 180.977L42.4532 180.918L42.3815 180.868L42.3099 180.818L42.2289 180.76L42.148 180.701L42.0671 180.643L41.9862 180.584L41.9055 180.526L41.8247 180.467L41.744 180.408L41.6719 180.356L41.6016 180.307L41.5211 180.248L41.4406 180.188L41.3602 180.129L41.2799 180.07L41.1996 180.011L41.1194 179.951L41.0392 179.892L40.9666 179.839L40.8976 179.789L40.8176 179.729L40.7377 179.669L40.6577 179.61L40.578 179.55L40.4982 179.49L40.4184 179.429L40.3388 179.369L40.2657 179.315L40.1981 179.265L40.1186 179.205L40.0392 179.144L39.9598 179.084L39.8805 179.023L39.8012 178.963L39.722 178.902L39.6429 178.841L39.5694 178.785L39.503 178.736L39.4241 178.675L39.3451 178.614L39.2663 178.552L39.1875 178.491L39.1087 178.43L39.03 178.368L38.9515 178.307L38.8775 178.249L38.8125 178.2L38.7341 178.139L38.6557 178.077L38.5773 178.015L38.499 177.953L38.4208 177.891L38.3427 177.829L38.2646 177.766L38.1903 177.708L38.1266 177.659L38.0486 177.597L37.9707 177.534L37.893 177.471L37.8152 177.409L37.7375 177.346L37.6599 177.283L37.5823 177.22L37.5077 177.16L37.4453 177.112L37.3679 177.049L37.2905 176.986L37.2133 176.922L37.136 176.859L37.0589 176.796L36.9818 176.732L36.9047 176.669L36.8298 176.607L36.7686 176.559L36.6917 176.495L36.6149 176.431L36.5382 176.367L36.4615 176.303L36.3849 176.239L36.3084 176.175L36.2318 176.111L36.1566 176.048L36.0967 176L36.0203 175.936L35.9441 175.871L35.8679 175.807L35.7917 175.742L35.7157 175.677L35.6397 175.613L35.5637 175.548L35.4882 175.483L35.4295 175.436L35.3537 175.371L35.2781 175.305L35.2024 175.24L35.1268 175.175L35.0513 175.11L34.9759 175.044L34.9004 174.979L34.8252 174.913L34.7667 174.865L34.692 174.8L34.6168 174.734L34.5418 174.668L34.4667 174.602L34.3918 174.536L34.3169 174.47L34.242 174.404L34.1673 174.338L34.1084 174.288L34.0351 174.224L33.9605 174.157L33.8859 174.091L33.8115 174.024L33.7371 173.957L33.6627 173.891L33.5885 173.824L33.5143 173.757L33.455 173.706L33.3831 173.642L33.3091 173.574L33.235 173.507L33.1612 173.44L33.0874 173.373L33.0136 173.306L32.9399 173.238L32.8662 173.171L32.8066 173.118L32.736 173.054L32.6626 172.986L32.5892 172.919L32.5159 172.851L32.4426 172.783L32.3694 172.715L32.2963 172.647L32.2232 172.579L32.1632 172.525L32.094 172.461L32.0212 172.393L31.9483 172.324L31.8756 172.256L31.8029 172.188L31.7303 172.119L31.6578 172.05L31.5853 171.982L31.525 171.926L31.4571 171.863L31.3848 171.794L31.3126 171.725L31.2404 171.656L31.1683 171.587L31.0963 171.517L31.0243 171.448L30.9524 171.379L30.8918 171.322L30.8253 171.259L30.7535 171.189L30.6819 171.12L30.6103 171.05L30.5388 170.98L30.4674 170.911L30.396 170.841L30.3246 170.771L30.2637 170.713L30.1985 170.65L30.1274 170.58L30.0564 170.509L29.9854 170.439L29.9145 170.369L29.8436 170.298L29.7729 170.228L29.7022 170.157L29.641 170.098L29.5771 170.035L29.5066 169.964L29.4361 169.894L29.3657 169.823L29.2954 169.752L29.2252 169.681L29.155 169.61L29.0849 169.539L29.0234 169.478L28.9608 169.415L28.8909 169.344L28.8211 169.273L28.7512 169.201L28.6816 169.13L28.612 169.058L28.5423 168.986L28.4729 168.915L28.4112 168.852L28.3499 168.79L28.2806 168.718L28.2113 168.646L28.1421 168.574L28.0731 168.502L28.004 168.43L27.935 168.358L27.8662 168.285L27.8042 168.222L27.7443 168.16L27.6756 168.088L27.6069 168.015L27.5384 167.942L27.4699 167.87L27.4015 167.797L27.3331 167.724L27.2649 167.651L27.2027 167.586L27.144 167.525L27.076 167.452L27.0079 167.378L26.94 167.305L26.8721 167.232L26.8043 167.159L26.7366 167.085L26.669 167.012L26.6066 166.945L26.5492 166.884L26.4818 166.811L26.4143 166.737L26.3471 166.663L26.2798 166.589L26.2126 166.515L26.1456 166.441L26.0785 166.367L26.016 166.299L25.9599 166.239L25.8931 166.164L25.8263 166.09L25.7597 166.016L25.693 165.941L25.6265 165.867L25.56 165.792L25.4936 165.718L25.431 165.648L25.3761 165.588L25.3099 165.513L25.2438 165.439L25.1777 165.364L25.1117 165.289L25.0458 165.214L24.98 165.138L24.9142 165.063L24.8515 164.992L24.7978 164.933L24.7323 164.857L24.6668 164.782L24.6014 164.706L24.536 164.631L24.4708 164.555L24.4056 164.48L24.3405 164.404L24.2777 164.331L24.2252 164.272L24.1603 164.196L24.0955 164.12L24.0307 164.044L23.9659 163.968L23.9014 163.892L23.8368 163.816L23.7723 163.74L23.7095 163.665L23.6582 163.607L23.5939 163.531L23.5297 163.454L23.4656 163.377L23.4015 163.301L23.3376 163.224L23.2737 163.147L23.2099 163.07L23.1469 162.995L23.0969 162.937L23.0332 162.86L22.9697 162.783L22.9062 162.706L22.8428 162.628L22.7795 162.551L22.7163 162.474L22.6531 162.396L22.5902 162.319L22.5413 162.262L22.4783 162.184L22.4154 162.107L22.3526 162.029L22.2899 161.951L22.2272 161.874L22.1646 161.796L22.1022 161.718L22.0397 161.64L21.9909 161.582L21.9292 161.504L21.867 161.426L21.8048 161.348L21.7428 161.27L21.6808 161.191L21.6188 161.113L21.557 161.034L21.4953 160.956L21.4462 160.896L21.3859 160.819L21.3243 160.741L21.2628 160.662L21.2015 160.583L21.1402 160.504L21.0789 160.425L21.0177 160.346L20.9566 160.267L20.9075 160.206L20.8484 160.13L20.7876 160.051L20.7268 159.972L20.6661 159.892L20.6054 159.813L20.5449 159.733L20.4844 159.654L20.424 159.574L20.3747 159.512L20.317 159.436L20.2567 159.356L20.1966 159.276L20.1366 159.197L20.0766 159.117L20.0168 159.037L19.9569 158.957L19.8972 158.877L19.8478 158.813L19.7914 158.737L19.7318 158.657L19.6724 158.577L19.6131 158.496L19.5537 158.416L19.4946 158.336L19.4355 158.255L19.3764 158.174L19.327 158.109L19.2718 158.034L19.213 157.954L19.1542 157.873L19.0956 157.792L19.037 157.711L18.9785 157.63L18.9201 157.549L18.8617 157.468L18.8122 157.401L18.7583 157.327L18.7002 157.246L18.6421 157.164L18.5841 157.083L18.5263 157.001L18.4685 156.92L18.4107 156.838L18.3531 156.757L18.3035 156.688L18.2508 156.615L18.1934 156.533L18.1361 156.451L18.0788 156.37L18.0216 156.288L17.9645 156.206L17.9074 156.124L17.8505 156.041L17.801 155.972L17.7495 155.899L17.6928 155.816L17.6362 155.734L17.5796 155.652L17.5231 155.569L17.4667 155.487L17.4104 155.404L17.3542 155.322L17.3046 155.251L17.2544 155.178L17.1984 155.095L17.1424 155.013L17.0866 154.93L17.0308 154.847L16.9751 154.764L16.9195 154.681L16.864 154.598L16.8144 154.525L16.7655 154.453L16.7102 154.37L16.6549 154.287L16.5998 154.204L16.5448 154.12L16.4897 154.037L16.4349 153.953L16.3801 153.87L16.3305 153.796L16.2828 153.724L16.2282 153.641L16.1737 153.557L16.1193 153.473L16.0649 153.389L16.0106 153.305L15.9565 153.221L15.9024 153.137L15.8529 153.062L15.8064 152.991L15.7525 152.907L15.6987 152.823L15.645 152.739L15.5914 152.654L15.5378 152.57L15.4844 152.486L15.431 152.401L15.3817 152.324L15.3364 152.254L15.2832 152.169L15.2301 152.085L15.1772 152L15.1242 151.915L15.0714 151.83L15.0187 151.746L14.966 151.661L14.9168 151.582L14.8727 151.513L14.8202 151.428L14.7679 151.343L14.7157 151.257L14.6635 151.172L14.6114 151.087L14.5594 151.002L14.5075 150.916L14.4584 150.836L14.4154 150.768L14.3637 150.682L14.3121 150.596L14.2606 150.511L14.2091 150.425L14.1578 150.339L14.1066 150.254L14.0554 150.168L14.0065 150.086L13.9646 150.018L13.9136 149.932L13.8628 149.846L13.812 149.76L13.7613 149.674L13.7108 149.588L13.6602 149.502L13.6098 149.416L13.561 149.332L13.5203 149.265L13.4701 149.179L13.42 149.093L13.3699 149.006L13.32 148.919L13.2702 148.833L13.2203 148.746L13.1707 148.66L13.1221 148.575L13.0825 148.509L13.0331 148.422L12.9837 148.335L12.9344 148.248L12.8852 148.161L12.8361 148.074L12.7871 147.987L12.7382 147.9L12.6898 147.814L12.6513 147.748L12.6026 147.661L12.554 147.573L12.5055 147.486L12.4571 147.399L12.4087 147.311L12.3604 147.224L12.3123 147.136L12.2641 147.049L12.2267 146.983L12.1788 146.896L12.1309 146.808L12.0831 146.72L12.0355 146.632L11.9879 146.545L11.9404 146.457L11.893 146.369L11.8456 146.281L11.8082 146.214L11.7616 146.127L11.7145 146.039L11.6675 145.951L11.6206 145.863L11.5737 145.775L11.527 145.686L11.4804 145.598L11.4338 145.509L11.3965 145.442L11.3511 145.355L11.3048 145.267L11.2586 145.178L11.2124 145.09L11.1663 145.001L11.1204 144.912L11.0745 144.823L11.0287 144.735L10.9916 144.665L10.9474 144.58L10.9018 144.491L10.8564 144.402L10.811 144.313L10.7657 144.224L10.7205 144.135L10.6753 144.045L10.6303 143.956L10.5933 143.885L10.5503 143.801L10.5056 143.711L10.4609 143.622L10.4163 143.532L10.3718 143.443L10.3274 143.353L10.283 143.264L10.2388 143.174L10.2019 143.102L10.1602 143.018L10.1162 142.928L10.0723 142.839L10.0285 142.749L9.98478 142.659L9.9411 142.569L9.89754 142.479L9.85412 142.389L9.81741 142.315L9.77686 142.232L9.73369 142.142L9.69052 142.052L9.64749 141.962L9.60458 141.871L9.56167 141.781L9.51892 141.691L9.47628 141.6L9.43976 141.525L9.40043 141.443L9.35802 141.352L9.31563 141.262L9.27342 141.171L9.23126 141.081L9.18915 140.99L9.14723 140.899L9.10534 140.809L9.06908 140.732L9.03093 140.65L8.98926 140.559L8.9477 140.468L8.9063 140.378L8.86489 140.287L8.82362 140.196L8.78249 140.105L8.74133 140.013L8.70536 139.935L8.66835 139.854L8.62748 139.763L8.58673 139.672L8.54611 139.581L8.5055 139.489L8.46504 139.398L8.42468 139.307L8.38433 139.215L8.34867 139.136L8.31277 139.056L8.27267 138.964L8.23278 138.872L8.19292 138.781L8.1531 138.689L8.11347 138.597L8.07389 138.506L8.03437 138.414L7.999 138.333L7.96419 138.253L7.92493 138.162L7.88583 138.07L7.84674 137.978L7.80778 137.886L7.76895 137.793L7.73012 137.701L7.69147 137.609L7.6564 137.527L7.62267 137.448L7.58425 137.356L7.54595 137.264L7.50765 137.172L7.46952 137.079L7.43149 136.987L7.39346 136.894L7.35563 136.802L7.3209 136.718L7.28825 136.64L7.25069 136.548L7.21315 136.455L7.17569 136.362L7.13839 136.27L7.10114 136.177L7.06397 136.084L7.02694 135.991L6.99252 135.906L6.96099 135.829L6.92424 135.736L6.88748 135.643L6.85087 135.55L6.81439 135.457L6.7779 135.364L6.7416 135.271L6.70537 135.178L6.67131 135.091L6.64088 135.015L6.60493 134.922L6.56898 134.829L6.53322 134.736L6.49754 134.642L6.46186 134.549L6.42641 134.455L6.391 134.362L6.35734 134.274L6.32799 134.199L6.29281 134.105L6.25772 134.012L6.22278 133.918L6.18789 133.824L6.1531 133.731L6.11844 133.637L6.08383 133.543L6.05065 133.454L6.02231 133.379L5.98793 133.286L5.95371 133.192L5.91959 133.098L5.88546 133.004L5.85157 132.91L5.81772 132.816L5.78387 132.722L5.75121 132.631L5.72387 132.557L5.6903 132.463L5.65694 132.369L5.62364 132.275L5.59037 132.18L5.55729 132.086L5.52427 131.992L5.49129 131.897L5.45908 131.805L5.4327 131.733L5.40003 131.638L5.36748 131.544L5.33497 131.449L5.3026 131.355L5.27032 131.26L5.23809 131.165L5.20602 131.071L5.17427 130.977L5.14885 130.905L5.11706 130.811L5.08534 130.716L5.05362 130.621L5.02215 130.526L4.9907 130.431L4.95926 130.336L4.92809 130.241L4.89692 130.146L4.87231 130.075L4.84144 129.981L4.81054 129.886L4.7797 129.79L4.74903 129.695L4.71841 129.6L4.68788 129.505L4.6575 129.41L4.62716 129.315L4.60294 129.242L4.5732 129.148L4.54309 129.053L4.51317 128.957L4.48332 128.862L4.45351 128.767L4.42389 128.671L4.39431 128.576L4.36479 128.48L4.34099 128.406L4.31236 128.313L4.28308 128.218L4.25405 128.122L4.22502 128.026L4.19605 127.931L4.1673 127.835L4.13856 127.739L4.1099 127.644L4.08646 127.568L4.05894 127.476L4.03058 127.38L4.00234 127.284L3.97416 127.189L3.94611 127.093L3.91815 126.997L3.89024 126.901L3.8625 126.805L3.83945 126.728L3.81297 126.637L3.78554 126.541L3.75812 126.445L3.73075 126.348L3.70361 126.252L3.67649 126.156L3.64943 126.06L3.62257 125.964L3.59992 125.885L3.57456 125.795L3.54796 125.699L3.52139 125.603L3.49491 125.506L3.46861 125.41L3.44231 125.313L3.41615 125.217L3.39013 125.12L3.3679 125.041L3.34368 124.952L3.31788 124.855L3.29215 124.758L3.26661 124.662L3.24111 124.565L3.21566 124.468L3.19043 124.372L3.16521 124.275L3.14346 124.194L3.12032 124.106L3.09537 124.009L3.07051 123.912L3.04584 123.815L3.02117 123.719L2.99663 123.622L2.97224 123.525L2.94786 123.428L2.92666 123.346L2.90453 123.258L2.88042 123.161L2.85647 123.064L2.83263 122.967L2.80881 122.87L2.78517 122.773L2.76162 122.676L2.73809 122.579L2.71745 122.495L2.69629 122.409L2.67307 122.312L2.65003 122.214L2.62699 122.117L2.60408 122.02L2.58133 121.922L2.55859 121.825L2.536 121.728L2.51588 121.643L2.49569 121.557L2.47336 121.46L2.45118 121.362L2.429 121.265L2.407 121.167L2.3851 121.07L2.3632 120.972L2.34152 120.875L2.32193 120.788L2.30271 120.704L2.28131 120.607L2.25995 120.509L2.23866 120.411L2.21755 120.313L2.19648 120.216L2.17551 120.118L2.15468 120.02L2.13564 119.933L2.11745 119.849L2.0969 119.751L2.07637 119.654L2.05602 119.556L2.03576 119.458L2.01551 119.36L1.99549 119.262L1.97552 119.164L1.95702 119.075L1.93984 118.993L1.92016 118.895L1.90049 118.797L1.88104 118.699L1.86165 118.601L1.8423 118.503L1.82314 118.404L1.80404 118.306L1.7862 118.216L1.76995 118.135L1.75109 118.036L1.73237 117.938L1.71377 117.84L1.6952 117.742L1.67682 117.644L1.6585 117.545L1.64023 117.447L1.62312 117.355L1.60776 117.275L1.58973 117.177L1.57195 117.078L1.55422 116.98L1.5365 116.882L1.51903 116.783L1.50159 116.685L1.48419 116.586L1.46776 116.493L1.45326 116.414L1.43619 116.316L1.41924 116.217L1.40237 116.118L1.38561 116.02L1.36897 115.921L1.35238 115.823L1.33595 115.724L1.32015 115.63L1.3065 115.552L1.29038 115.453L1.27431 115.354L1.25825 115.256L1.24247 115.157L1.22668 115.058L1.21095 114.959L1.19546 114.861L1.18033 114.765L1.16757 114.688L1.15233 114.589L1.13712 114.49L1.12201 114.392L1.10706 114.293L1.09215 114.194L1.07735 114.095L1.06271 113.996L1.04829 113.899L1.03645 113.823L1.02204 113.724L1.00769 113.625L0.993549 113.526L0.97943 113.427L0.965386 113.328L0.951556 113.229L0.937728 113.13L0.924081 113.032L0.913096 112.957L0.899558 112.858L0.8861 112.759L0.872857 112.66L0.85961 112.561L0.846482 112.462L0.833529 112.362L0.820574 112.263L0.807777 112.164L0.79746 112.089L0.784853 111.991L0.772365 111.891L0.759942 111.792L0.747572 111.693L0.735408 111.594L0.723285 111.495L0.711225 111.395L0.699365 111.296L0.689604 111.22L0.677992 111.122L0.666424 111.023L0.654853 110.924L0.643414 110.824L0.632133 110.725L0.620857 110.626L0.609751 110.526L0.598764 110.427L0.589579 110.35L0.578992 110.253L0.56828 110.154L0.557585 110.054L0.547084 109.955L0.536671 109.855L0.526273 109.756L0.516093 109.657L0.505977 109.557L0.497424 109.478L0.487842 109.383L0.477953 109.284L0.468205 109.184L0.458607 109.085L0.449018 108.985L0.439595 108.886L0.43029 108.786L0.421001 108.686L0.413168 108.606L0.404501 108.512L0.395488 108.413L0.38667 108.313L0.37795 108.213L0.369228 108.114L0.360741 108.014L0.352313 107.915L0.343905 107.815L0.336785 107.734L0.32899 107.641L0.320908 107.541L0.312994 107.441L0.305119 107.342L0.297363 107.242L0.289742 107.142L0.282165 107.043L0.274737 106.943L0.26827 106.86L0.26133 106.768L0.254205 106.669L0.247171 106.569L0.240136 106.469L0.233342 106.369L0.226601 106.27L0.219859 106.17L0.213397 106.07L0.20761 105.986L0.201566 105.896L0.195339 105.796L0.189175 105.696L0.183088 105.596L0.177155 105.496L0.17129 105.397L0.16553 105.297L0.159893 105.197L0.154807 105.112L0.149705 105.022L0.144359 104.922L0.139021 104.823L0.133913 104.723L0.128861 104.623L0.12382 104.523L0.119039 104.423L0.11428 104.323L0.109907 104.237L0.105684 104.148L0.101218 104.049L0.0967986 103.949L0.0925766 103.849L0.0884035 103.749L0.084311 103.649L0.0803876 103.549L0.076508 103.449L0.0729675 103.362L0.0695411 103.274L0.0659161 103.174L0.0624765 103.074L0.0591124 102.975L0.0557859 102.875L0.0526731 102.775L0.0496024 102.675L0.046575 102.575L0.0438966 102.486L0.0412522 102.4L0.0385001 102.3L0.0359916 102.2L0.0335084 102.1L0.0310824 102L0.028873 101.9L0.0266834 101.8L0.024584 101.7L0.0226864 101.61L0.0207968 101.525L0.0190183 101.425L0.0173592 101.325L0.0157448 101.225L0.0142862 101.125L0.0129246 101.025L0.011602 100.925L0.0104679 100.825L0.00935676 100.734L0.00820208 100.65L0.0073929 100.55L0.00658332 100.45L0.00585822 100.35L0.00534078 100.25L0.00482316 100.15L0.00443247 100.05L0.00420671 99.9505L0.00388682 99.8581L0.00354004 99.7755L0.00360602 99.6755L0.00367211 99.5755L0.0038803 99.4756L0.00423812 99.3755L0.00459608 99.2756L0.00513888 99.1756L0.00578872 99.0756L0.00630462 98.982L0.00675826 98.9006L0.00766213 98.8006L0.00860924 98.7006L0.0097728 98.6006L0.0109789 98.5007L0.0122396 98.4007L0.0136335 98.3007L0.0152422 98.2007L0.0167344 98.1059L0.0178215 98.0258L0.0196813 97.9258L0.0216048 97.8258L0.0236089 97.7259L0.0257586 97.6259L0.027975 97.5259L0.0303129 97.426L0.0327592 97.326L0.0351106 97.23L0.0369865 97.1511L0.0397048 97.0511L0.0424488 96.9512L0.0454527 96.8512L0.0484569 96.7513L0.0515453 96.6513L0.0548347 96.5514L0.0581249 96.4515L0.0614323 96.3543L0.0639778 96.2766L0.0675538 96.1767L0.0712745 96.0768L0.0751234 95.9768L0.0789848 95.8769L0.0830397 95.777L0.0871855 95.6771L0.0913581 95.5772L0.0956477 95.4789L0.0987974 95.4024L0.103304 95.3025L0.107954 95.2026L0.112624 95.1027L0.117464 95.0028L0.122401 94.903L0.127366 94.8031L0.13254 94.7032L0.13774 94.6038L0.141477 94.5285L0.146955 94.4286L0.152463 94.3288L0.158017 94.229L0.163794 94.1292L0.16959 94.0293L0.175479 93.9295L0.181551 93.8297L0.187632 93.7299L0.192193 93.6542L0.198434 93.5552L0.204802 93.4554L0.211358 93.3557L0.217955 93.2559L0.224628 93.1561L0.231497 93.0564L0.238391 92.9566L0.245397 92.8569L0.25078 92.78L0.257778 92.6823L0.265085 92.5826L0.272525 92.4829L0.279965 92.3832L0.287617 92.2835L0.295342 92.1838L0.303069 92.0841L0.311064 91.9844L0.317214 91.9064L0.324989 91.81L0.333218 91.7103L0.341515 91.6107L0.349902 91.511L0.358426 91.4114L0.367011 91.3118L0.375732 91.2122L0.384551 91.1126L0.391488 91.0334L0.400124 90.9383L0.409207 90.8387L0.41834 90.7391L0.427712 90.6396L0.437085 90.54L0.44656 90.4405L0.456217 90.3409L0.465874 90.2414L0.47372 90.1612L0.483072 90.0673L0.493015 89.9678L0.503114 89.8683L0.513335 89.7688L0.523563 89.6694L0.534001 89.5699L0.544513 89.4705L0.555061 89.371L0.563831 89.2897L0.573831 89.1971L0.584713 89.0976L0.595727 88.9982L0.606772 88.8989L0.617981 88.7995L0.62928 88.7001L0.64062 88.6008L0.652162 88.5015L0.66177 88.419L0.672421 88.3277L0.684273 88.2284L0.696139 88.1291L0.70806 88.0298L0.720209 87.9306L0.73236 87.8313L0.744618 87.7321L0.757057 87.6329L0.767527 87.5493L0.778951 87.4593L0.791623 87.3601L0.804347 87.2609L0.817259 87.1617L0.830227 87.0626L0.843257 86.9634L0.85648 86.8643L0.86974 86.7652L0.88116 86.6805L0.893272 86.5918L0.906777 86.4927L0.92045 86.3937L0.934242 86.2946L0.948033 86.1956L0.962045 86.0966L0.976123 85.9976L0.990204 85.8986L1.00266 85.8128L1.01536 85.7254L1.02976 85.6265L1.04435 85.5275L1.05899 85.4286L1.07372 85.3297L1.0886 85.2309L1.10353 85.132L1.11858 85.0331L1.13196 84.9463L1.14522 84.8602L1.1606 84.7614L1.17603 84.6626L1.19151 84.5638L1.20722 84.465L1.22293 84.3663L1.23875 84.2675L1.25474 84.1688L1.26903 84.0809L1.28292 83.9961L1.2992 83.8975L1.31547 83.7988L1.3319 83.7002L1.34846 83.6016L1.36502 83.503L1.38179 83.4044L1.39863 83.3058L1.41389 83.2169L1.42843 83.1334L1.44553 83.0349L1.46271 82.9364L1.48004 82.8379L1.49743 82.7394L1.51495 82.641L1.53257 82.5425L1.55025 82.4441L1.56661 82.3541L1.58167 82.272L1.59958 82.1736L1.61774 82.0753L1.63593 81.977L1.65415 81.8786L1.67261 81.7804L1.69108 81.6821L1.70964 81.5839L1.72706 81.4929L1.74261 81.412L1.76147 81.3138L1.78048 81.2156L1.79951 81.1174L1.81869 81.0193L1.83799 80.9212L1.8573 80.8231L1.87681 80.725L1.89524 80.633L1.91129 80.5534L1.93109 80.4554L1.9509 80.3574L1.97085 80.2594L1.99093 80.1615L2.01104 80.0636L2.03131 79.9656L2.05168 79.8677L2.0711 79.7747L2.08772 79.6965L2.10837 79.5987L2.12902 79.5008L2.14991 79.403L2.17084 79.3053L2.1918 79.2075L2.213 79.1098L2.23421 79.012L2.25474 78.918L2.27183 78.8411L2.29332 78.7435L2.31492 78.6458L2.33663 78.5483L2.3584 78.4507L2.38033 78.3531L2.40233 78.2556L2.42438 78.158L2.4461 78.063L2.4636 77.9875L2.48592 77.89L2.50846 77.7926L2.531 77.6952L2.55366 77.5978L2.57648 77.5004L2.5993 77.4031L2.62229 77.3058L2.6451 77.2098L2.66299 77.1356L2.68624 77.0383L2.70962 76.9411L2.733 76.8439L2.75658 76.7467L2.78024 76.6495L2.80393 76.5524L2.82781 76.4553L2.85172 76.3583L2.87005 76.2855L2.89419 76.1885L2.91837 76.0914L2.94269 75.9944L2.9671 75.8975L2.99157 75.8005L3.01622 75.7036L3.04093 75.6067L3.06568 75.5099L3.08498 75.4363L3.1097 75.3405L3.1347 75.2437L3.15995 75.1469L3.18521 75.0502L3.21054 74.9534L3.23607 74.8568L3.26161 74.7601L3.28727 74.6635L3.30751 74.5889L3.33276 74.4945L3.35872 74.3979L3.38477 74.3014L3.41085 74.2049L3.43712 74.1084L3.46346 74.0119L3.48983 73.9155L3.51641 73.8191L3.53759 73.7436L3.5634 73.6505L3.59025 73.5542L3.6171 73.4579L3.64411 73.3616L3.67123 73.2654L3.69836 73.1691L3.72569 73.073L3.75309 72.9768L3.77523 72.9003L3.80161 72.8087L3.82929 72.7126L3.85696 72.6165L3.88488 72.5205L3.91283 72.4245L3.94082 72.3285L3.96903 72.2326L3.99725 72.1366L4.02045 72.0591L4.04731 71.969L4.0758 71.8731L4.10442 71.7773L4.13312 71.6815L4.1619 71.5858L4.19083 71.4901L4.21983 71.3943L4.24887 71.2987L4.27318 71.2203L4.30049 71.1315L4.32978 71.0359L4.35931 70.9403L4.38884 70.8448L4.41847 70.7493L4.44827 70.6539L4.47807 70.5584L4.50802 70.463L4.53334 70.3837L4.56107 70.2963L4.59128 70.201L4.62162 70.1057L4.65196 70.0104L4.68249 69.9152L4.71311 69.82L4.74373 69.7249L4.77457 69.6297L4.80094 69.5495L4.8291 69.4635L4.8602 69.3684L4.89132 69.2734L4.92257 69.1784L4.95393 69.0835L4.98533 68.9886L5.01688 68.8937L5.04852 68.7989L5.07593 68.7177L5.10457 68.6331L5.13648 68.5383L5.16838 68.4436L5.20054 68.3489L5.23273 68.2542L5.26494 68.1596L5.29739 68.065L5.32984 67.9704L5.35836 67.8883L5.38738 67.8052L5.4201 67.7107L5.45292 67.6162L5.48587 67.5219L5.51886 67.4275L5.55198 67.3331L5.58521 67.2388L5.61847 67.1445L5.64817 67.0616L5.67753 66.9798L5.71104 66.8856L5.74476 66.7915L5.7785 66.6974L5.81232 66.6033L5.84632 66.5093L5.88032 66.4152L5.91446 66.3212L5.94528 66.2375L5.97496 66.1571L6.00934 66.0632L6.04388 65.9693L6.07842 65.8755L6.11312 65.7817L6.14792 65.688L6.18272 65.5943L6.21773 65.5007L6.24968 65.416L6.27965 65.337L6.31491 65.2434L6.35024 65.1499L6.38562 65.0564L6.42115 64.9629L6.45676 64.8695L6.49244 64.7761L6.52824 64.6828L6.56132 64.5972L6.59165 64.5197L6.62773 64.4264L6.66383 64.3331L6.7001 64.24L6.73645 64.1468L6.77281 64.0537L6.80939 63.9606L6.846 63.8676L6.8802 63.7812L6.91087 63.7051L6.94774 63.6121L6.98465 63.5192L7.02176 63.4264L7.0589 63.3336L7.09611 63.2407L7.1335 63.148L7.1709 63.0553L7.20633 62.9681L7.23723 62.8934L7.27489 62.8008L7.31269 62.7082L7.35057 62.6157L7.3885 62.5232L7.42659 62.4307L7.46474 62.3383L7.50295 62.2459L7.53964 62.158L7.57074 62.0846L7.60919 61.9923L7.64785 61.9001L7.68651 61.8079L7.72526 61.7158L7.76418 61.6237L7.80309 61.5316L7.84215 61.4396L7.88007 61.3508L7.91136 61.2788L7.95065 61.1869L7.9901 61.095L8.02955 61.0031L8.06914 60.9113L8.10885 60.8196L8.14856 60.7278L8.18847 60.6361L8.22757 60.5466L8.25903 60.4761L8.29919 60.3845L8.33938 60.293L8.37965 60.2015L8.42008 60.11L8.46055 60.0186L8.50111 59.9272L8.5418 59.8359L8.58214 59.7455L8.61382 59.6764L8.65477 59.5852L8.69571 59.494L8.73684 59.4029L8.77805 59.3118L8.81927 59.2207L8.8607 59.1297L8.90216 59.0387L8.94365 58.9477L8.97564 58.8798L9.01732 58.789L9.05906 58.6982L9.10102 58.6074L9.143 58.5167L9.18502 58.426L9.22724 58.3354L9.26949 58.2447L9.31181 58.1542L9.34487 58.0854L9.38683 57.9961L9.42944 57.9056L9.47213 57.8152L9.51488 57.7249L9.55779 57.6345L9.60074 57.5443L9.64375 57.454L9.68692 57.3638L9.72105 57.2942L9.76324 57.2064L9.80671 57.1164L9.85018 57.0263L9.89369 56.9363L9.93742 56.8464L9.98114 56.7565L10.0249 56.6666L10.0689 56.5769L10.1041 56.5064L10.1467 56.4201L10.1909 56.3304L10.2351 56.2407L10.2795 56.1511L10.3239 56.0616L10.3684 55.9721L10.413 55.8826L10.4578 55.7932L10.4941 55.722L10.5369 55.6371L10.5819 55.5478L10.6269 55.4585L10.6721 55.3694L10.7173 55.2802L10.7626 55.191L10.808 55.102L10.8535 55.013L10.891 54.941L10.934 54.8576L10.9797 54.7687L11.0255 54.6799L11.0715 54.5911L11.1174 54.5023L11.1635 54.4136L11.2097 54.3249L11.2559 54.2363L11.2946 54.1636L11.3379 54.0816L11.3843 53.9931L11.4309 53.9047L11.4776 53.8163L11.5243 53.7279L11.5712 53.6396L11.6182 53.5513L11.6652 53.4631L11.7051 53.3897L11.7485 53.3092L11.7957 53.2211L11.8431 53.1331L11.8905 53.0451L11.938 52.9571L11.9857 52.8692L12.0334 52.7813L12.0812 52.6936L12.1222 52.6194L12.1657 52.5404L12.2138 52.4527L12.2619 52.3651L12.3101 52.2775L12.3584 52.19L12.4068 52.1025L12.4552 52.015L12.5038 51.9277L12.546 51.8529L12.5897 51.7752L12.6386 51.688L12.6874 51.6008L12.7363 51.5136L12.7854 51.4265L12.8346 51.3395L12.8837 51.2525L12.9331 51.1655L12.9765 51.09L13.0204 51.0138L13.0699 50.927L13.1196 50.8402L13.1693 50.7535L13.2191 50.6668L13.2689 50.5802L13.3189 50.4936L13.369 50.4071L13.4136 50.3308L13.4576 50.2562L13.5079 50.1698L13.5582 50.0834L13.6088 49.9972L13.6593 49.9109L13.7099 49.8247L13.7607 49.7386L13.8115 49.6525L13.8574 49.5755L13.9014 49.5024L13.9525 49.4164L14.0036 49.3305L14.0548 49.2446L14.1061 49.1588L14.1574 49.073L14.209 48.9873L14.2605 48.9017L14.3076 48.8242L14.3517 48.7524L14.4035 48.6669L14.4554 48.5814L14.5073 48.496L14.5594 48.4106L14.6115 48.3253L14.6637 48.2401L14.7159 48.1549L14.7644 48.0768L14.8085 48.0064L14.861 47.9213L14.9136 47.8363L14.9663 47.7514L15.0191 47.6664L15.072 47.5816L15.1249 47.4968L15.1779 47.412L15.2276 47.3333L15.2717 47.2644L15.325 47.1798L15.3783 47.0952L15.4317 47.0107L15.4852 46.9263L15.5388 46.8419L15.5925 46.7575L15.6462 46.6732L15.6972 46.5939L15.7413 46.5264L15.7953 46.4423L15.8494 46.3582L15.9035 46.2741L15.9578 46.1902L16.0121 46.1063L16.0664 46.0224L16.121 45.9385L16.1732 45.8586L16.2173 45.7925L16.2721 45.7089L16.3268 45.6252L16.3816 45.5417L16.4366 45.4582L16.4916 45.3747L16.5468 45.2913L16.602 45.208L16.6555 45.1275L16.6996 45.0628L16.755 44.9796L16.8105 44.8965L16.8661 44.8134L16.9218 44.7304L16.9775 44.6474L17.0334 44.5645L17.0893 44.4816L17.1442 44.4005L17.1882 44.3373L17.2443 44.2546L17.3005 44.1719L17.3568 44.0893L17.4132 44.0068L17.4696 43.9242L17.5262 43.8418L17.5829 43.7594L17.6391 43.6778L17.683 43.616L17.7398 43.5337L17.7967 43.4515L17.8538 43.3695L17.9109 43.2874L17.968 43.2054L18.0253 43.1234L18.0826 43.0415L18.14 42.9597L18.1842 42.8987L18.2415 42.8172L18.2992 42.7356L18.3569 42.654L18.4147 42.5723L18.4725 42.4909L18.5305 42.4094L18.5885 42.328L18.6466 42.2467L18.692 42.185L18.7494 42.1051L18.8077 42.0239L18.8661 41.9428L18.9246 41.8617L18.9832 41.7807L19.0418 41.6998L19.1005 41.6189L19.1594 41.538L19.2059 41.4758L19.2633 41.3973L19.3224 41.3167L19.3815 41.236L19.4406 41.1555L19.4999 41.075L19.5592 40.9945L19.6187 40.9142L19.6782 40.8339L19.7259 40.771L19.7834 40.694L19.8431 40.6139L19.9028 40.5338L19.9627 40.4537L20.0227 40.3738L20.0827 40.2938L20.1428 40.2139L20.203 40.1341L20.252 40.0707L20.3094 39.9953L20.3698 39.9156L20.4303 39.836L20.4908 39.7565L20.5515 39.677L20.6121 39.5976L20.673 39.5182L20.7338 39.4389L20.784 39.3749L20.8415 39.301L20.9025 39.2219L20.9636 39.1428L21.0249 39.0638L21.0862 38.9848L21.1476 38.9059L21.2091 38.8271L21.2706 38.7483L21.3221 38.6838L21.3794 38.6114L21.4411 38.5327L21.5029 38.4542L21.5649 38.3757L21.6268 38.2973L21.6889 38.2189L21.7511 38.1407L21.8132 38.0624L21.866 37.9974L21.9232 37.9263L21.9856 37.8482L22.0482 37.7702L22.1108 37.6923L22.1733 37.6144L22.2361 37.5366L22.2989 37.4588L22.3617 37.3811L22.4158 37.3156L22.4729 37.246L22.536 37.1685L22.5992 37.091L22.6624 37.0136L22.7257 36.9362L22.7891 36.859L22.8526 36.7817L22.9161 36.7045L22.9715 36.6386L23.0284 36.5704L23.0921 36.4934L23.156 36.4165L23.2199 36.3396L23.2838 36.2628L23.3479 36.1861L23.412 36.1094L23.4762 36.0328L23.5329 35.9663L23.5897 35.8996L23.6541 35.8232L23.7186 35.7469L23.7831 35.6705L23.8477 35.5943L23.9124 35.5181L23.9772 35.4419L24.0421 35.3659L24.1 35.2989L24.1566 35.2337L24.2217 35.1578L24.2868 35.082L24.352 35.0062L24.4173 34.9305L24.4827 34.8549L24.548 34.7793L24.6136 34.7038L24.6728 34.6364L24.7293 34.5726L24.795 34.4973L24.8608 34.422L24.9266 34.3468L24.9925 34.2717L25.0585 34.1966L25.1246 34.1216L25.1907 34.0467L25.2513 33.9788L25.3076 33.9165L25.3739 33.8418L25.4403 33.767L25.5068 33.6924L25.5734 33.6178L25.64 33.5433L25.7067 33.4689L25.7735 33.3945L25.8354 33.3262L25.8915 33.2653L25.9584 33.1911L26.0255 33.117L26.0926 33.0429L26.1598 32.9689L26.227 32.895L26.2944 32.8211L26.3618 32.7473L26.425 32.6787L26.4809 32.6192L26.5485 32.5455L26.6161 32.472L26.6839 32.3985L26.7517 32.3251L26.8196 32.2517L26.8876 32.1784L26.9556 32.1052L27.0202 32.0362L27.0758 31.9781L27.144 31.905L27.2123 31.832L27.2807 31.7592L27.3491 31.6863L27.4176 31.6135L27.4862 31.5409L27.5548 31.4682L27.6208 31.3988L27.6761 31.3422L27.745 31.2697L27.8139 31.1973L27.8829 31.125L27.9519 31.0527L28.021 30.9805L28.0903 30.9084L28.1595 30.8363L28.2269 30.7666L28.2819 30.7113L28.3513 30.6394L28.4209 30.5677L28.4905 30.4959L28.5601 30.4242L28.6299 30.3527L28.6997 30.2812L28.7695 30.2097L28.8383 30.1397L28.893 30.0857L28.963 30.0144L29.0332 29.9433L29.1034 29.8721L29.1737 29.801L29.2441 29.7301L29.3144 29.6591L29.3849 29.5882L29.4551 29.5179L29.5094 29.4653L29.5801 29.3947L29.6509 29.3241L29.7216 29.2535L29.7925 29.1831L29.8635 29.1127L29.9345 29.0424L30.0056 28.9721L30.0768 28.9019L30.1315 28.8498L30.2024 28.7802L30.2737 28.7102L30.3451 28.6403L30.4166 28.5704L30.4882 28.5006L30.5597 28.4309L30.6315 28.3613L30.7032 28.2917L30.7592 28.2392L30.8299 28.1711L30.9019 28.1017L30.9738 28.0323L31.0459 27.9632L31.118 27.894L31.1902 27.8248L31.2625 27.7558L31.3349 27.6869L31.3922 27.6339L31.4626 27.5673L31.5351 27.4986L31.6076 27.4299L31.6803 27.3613L31.7531 27.2927L31.8258 27.2242L31.8987 27.1558L31.9716 27.0874L32.0302 27.0342L32.1004 26.969L32.1735 26.9009L32.2467 26.8328L32.3199 26.7648L32.3932 26.6968L32.4666 26.629L32.54 26.5612L32.6135 26.4935L32.6734 26.4399L32.7433 26.3762L32.8169 26.3086L32.8907 26.2412L32.9645 26.1738L33.0383 26.1065L33.1123 26.0393L33.1863 25.9721L33.2604 25.905L33.3216 25.8511L33.3912 25.7889L33.4654 25.7219L33.5397 25.6551L33.6141 25.5884L33.6885 25.5217L33.7631 25.4551L33.8377 25.3886L33.9123 25.3221L33.9748 25.2679L34.0441 25.2071L34.1189 25.1408L34.1938 25.0746L34.2687 25.0085L34.3437 24.9425L34.4188 24.8765L34.4939 24.8106L34.5691 24.7448L34.633 24.6903L34.7019 24.6309L34.7772 24.5653L34.8527 24.4998L34.9282 24.4343L35.0037 24.3689L35.0794 24.3036L35.1551 24.2383L35.2308 24.1731L35.296 24.1183L35.3645 24.0604L35.4405 23.9954L35.5165 23.9305L35.5925 23.8657L35.6687 23.801L35.7448 23.7363L35.821 23.6716L35.8974 23.6072L35.9639 23.5521L36.032 23.4955L36.1086 23.4312L36.1851 23.367L36.2617 23.3028L36.3384 23.2387L36.4151 23.1747L36.4919 23.1107L36.5688 23.0469L36.6366 22.9915L36.7044 22.9364L36.7815 22.8727L36.8585 22.8091L36.9357 22.7456L37.0129 22.6822L37.0902 22.6188L37.1675 22.5555L37.2449 22.4923L37.3141 22.4367L37.3815 22.383L37.4591 22.32L37.5367 22.2571L37.6144 22.1942L37.6922 22.1315L37.7699 22.0687L37.8478 22.0061L37.9258 21.9436L37.9963 21.8878L38.0632 21.8355L38.1413 21.7732L38.2195 21.7109L38.2977 21.6487L38.376 21.5866L38.4543 21.5245L38.5327 21.4626L38.6112 21.4007L38.6831 21.3447L38.7496 21.2938L38.8282 21.2322L38.9068 21.1705L38.9856 21.109L39.0644 21.0476L39.1432 20.9862L39.2222 20.925L39.3012 20.8638L39.3745 20.8076L39.4406 20.758L39.5197 20.697L39.5989 20.6361L39.6782 20.5753L39.7575 20.5145L39.8369 20.4537L39.9163 20.3932L39.9958 20.3326L40.0706 20.2763L40.1361 20.2281L40.2157 20.1678L40.2955 20.1075L40.3753 20.0474L40.4551 19.9872L40.5351 19.9272L40.615 19.8673L40.695 19.8074L40.7712 19.751L40.8362 19.7042L40.9163 19.6445L40.9966 19.5849L41.0769 19.5255L41.1572 19.466L41.2376 19.4067L41.3181 19.3475L41.3986 19.2883L41.4762 19.2317L41.5406 19.1862L41.6213 19.1272L41.7021 19.0684L41.7828 19.0096L41.8637 18.9508L41.9446 18.8922L42.0256 18.8337L42.1066 18.7751L42.1856 18.7185L42.2496 18.6743L42.3307 18.616L42.412 18.5579L42.4933 18.4998L42.5746 18.4417L42.656 18.3838L42.7375 18.3259L42.819 18.2681L42.8993 18.2114L42.9628 18.1685L43.0444 18.1109L43.1262 18.0535L43.208 17.996L43.2898 17.9387L43.3717 17.8815L43.4536 17.8243L43.5356 17.7672L43.6174 17.7104L43.6803 17.6688L43.7624 17.612L43.8447 17.5552L43.9269 17.4985L44.0092 17.4419L44.0916 17.3853L44.174 17.3288L44.2565 17.2725L44.3391 17.2162L44.4026 17.1748L44.4847 17.1192L44.5673 17.0631L44.65 17.0071L44.7329 16.9512L44.8157 16.8953L44.8986 16.8395L44.9816 16.7839L45.0646 16.7283L45.1294 16.6868L45.211 16.6326L45.2942 16.5772L45.3773 16.5219L45.4607 16.4667L45.544 16.4116L45.6273 16.3565L45.7108 16.3016L45.7943 16.2467L45.8605 16.205L45.9415 16.1523L46.0251 16.0976L46.1088 16.043L46.1926 15.9885L46.2764 15.9341L46.3602 15.8798L46.4441 15.8255L46.5281 15.7713L46.5956 15.7295L46.6761 15.6782L46.7602 15.6242L46.8444 15.5704L46.9286 15.5166L47.0128 15.4629L47.0971 15.4093L47.1815 15.3558L47.2659 15.3023L47.3348 15.2604L47.4147 15.2104L47.4993 15.1571L47.5839 15.104L47.6686 15.051L47.7533 14.9979L47.8381 14.9451L47.9229 14.8923L48.0077 14.8395L48.0779 14.7976L48.1574 14.749L48.2423 14.6964L48.3274 14.6441L48.4126 14.5917L48.4977 14.5395L48.5829 14.4873L48.6682 14.4353L48.7535 14.3832L48.825 14.3412L48.9038 14.2939L48.9893 14.2422L49.0748 14.1905L49.1604 14.1389L49.246 14.0874L49.3316 14.036L49.4174 13.9846L49.5031 13.9333L49.576 13.8912L49.6542 13.8453L49.7401 13.7943L49.8261 13.7434L49.912 13.6925L49.9981 13.6417L50.0842 13.5911L50.1703 13.5404L50.2565 13.4899L50.3308 13.4477L50.4084 13.4032L50.4947 13.3529L50.5811 13.3027L50.6675 13.2526L50.754 13.2025L50.8405 13.1526L50.9271 13.1027L51.0137 13.0529L51.0893 13.0107L51.1663 12.9675L51.2531 12.918L51.3399 12.8685L51.4267 12.8191L51.5137 12.7699L51.6006 12.7206L51.6876 12.6715L51.7747 12.6225L51.8516 12.5802L51.928 12.5384L52.0152 12.4896L52.1024 12.4409L52.1897 12.3922L52.277 12.3437L52.3643 12.2952L52.4517 12.2469L52.5392 12.1986L52.6175 12.1563L52.6933 12.1158L52.7809 12.0678L52.8685 12.0198L52.9562 11.9719L53.0439 11.9242L53.1317 11.8764L53.2195 11.8288L53.3074 11.7813L53.3871 11.739L53.4622 11.6999L53.5502 11.6526L53.6382 11.6053L53.7263 11.5582L53.8144 11.5112L53.9026 11.4642L53.9909 11.4173L54.0791 11.3705L54.1602 11.3283L54.2346 11.2905L54.323 11.244L54.4114 11.1974L54.4999 11.1511L54.5885 11.1048L54.677 11.0586L54.7657 11.0125L54.8543 10.9665L54.9368 10.9243L55.0105 10.8878L55.0993 10.842L55.1881 10.7963L55.277 10.7507L55.3659 10.7052L55.4549 10.6597L55.5439 10.6144L55.633 10.5691L55.7168 10.5271L55.7898 10.4918L55.879 10.4468L55.9682 10.4018L56.0575 10.357L56.1468 10.3122L56.2361 10.2676L56.3256 10.223L56.415 10.1785L56.5003 10.1366L56.5725 10.1025L56.662 10.0582L56.7517 10.0141L56.8413 9.96999L56.931 9.92597L57.0208 9.8821L57.1105 9.83828L57.2003 9.79452L57.2871 9.75278L57.3585 9.71996L57.4484 9.67641L57.5385 9.63308L57.6285 9.58978L57.7185 9.54649L57.8086 9.50343L57.8988 9.4604L57.9889 9.41739L58.077 9.37583L58.1477 9.34422L58.238 9.30148L58.3284 9.2589L58.4187 9.21639L58.5091 9.1739L58.5996 9.13159L58.6901 9.08932L58.7807 9.04711L58.8701 9.00571L58.9401 8.97529L59.0308 8.93334L59.1215 8.89153L59.2122 8.84976L59.303 8.80809L59.3938 8.76654L59.4847 8.72504L59.5756 8.68364L59.6665 8.64238L59.7357 8.61313L59.8267 8.57202L59.9178 8.53099L60.0089 8.48994L60.1 8.44912L60.1912 8.40835L60.2824 8.36757L60.3737 8.32702L60.465 8.28651L60.5353 8.25735L60.6257 8.21758L60.7171 8.17733L60.8085 8.13706L60.9 8.09704L60.9916 8.05703L61.0831 8.01707L61.1747 7.97732L61.2663 7.93758L61.338 7.90849L61.4277 7.87005L61.5194 7.83055L61.6112 7.79113L61.703 7.75186L61.7949 7.71263L61.8868 7.67348L61.9788 7.63447L62.0708 7.59551L62.1437 7.56655L62.2326 7.52943L62.3247 7.49069L62.4168 7.45211L62.509 7.41362L62.6012 7.37515L62.6934 7.33685L62.7857 7.29863L62.8779 7.26043L62.9522 7.23159L63.0404 7.19577L63.1328 7.15784L63.2252 7.12005L63.3178 7.08235L63.4103 7.04466L63.5028 7.00716L63.5955 6.96973L63.6881 6.93231L63.7637 6.90359L63.8511 6.86907L63.9438 6.83192L64.0366 6.79493L64.1294 6.75803L64.2222 6.72114L64.3151 6.68444L64.4081 6.64781L64.501 6.61119L64.578 6.58262L64.6646 6.54935L64.7576 6.51301L64.8507 6.47685L64.9438 6.4407L65.037 6.40464L65.1302 6.36876L65.2233 6.3329L65.3166 6.29712L65.3949 6.26871L65.4807 6.2367L65.574 6.20116L65.6674 6.16581L65.7608 6.13045L65.8543 6.09521L65.9478 6.06013L66.0413 6.02504L66.1349 5.99008L66.2145 5.96184L66.2995 5.93106L66.3932 5.89636L66.4869 5.86179L66.5806 5.82723L66.6744 5.79281L66.7682 5.75852L66.862 5.72422L66.9559 5.69009L67.0368 5.66202L67.121 5.63248L67.2149 5.59863L67.3089 5.56483L67.4029 5.53107L67.497 5.49751L67.5911 5.46398L67.6852 5.43049L67.7794 5.39722L67.8616 5.36933L67.9449 5.34099L68.0392 5.30799L68.1335 5.27499L68.2277 5.24205L68.3221 5.20932L68.4165 5.17659L68.5108 5.14393L68.6053 5.11147L68.6889 5.08379L68.7714 5.05668L68.8659 5.02447L68.9604 4.99228L69.055 4.96016L69.1497 4.92822L69.2443 4.89631L69.3389 4.86448L69.4337 4.83282L69.5186 4.80539L69.6002 4.77953L69.695 4.74807L69.7898 4.7167L69.8846 4.68544L69.9796 4.65427L70.0745 4.62318L70.1694 4.59221L70.2644 4.56132L70.3507 4.53415L70.4314 4.50949L70.5265 4.47886L70.6215 4.44827L70.7167 4.41786L70.8118 4.38751L70.9069 4.3572L71.0022 4.32708L71.0974 4.297L71.185 4.27011L71.2648 4.24663L71.3602 4.21683L71.4554 4.18703L71.5509 4.15747L71.6462 4.12794L71.7417 4.09842L71.8371 4.06915L71.9326 4.0399L72.0216 4.01329L72.1004 3.99097L72.196 3.96199L72.2916 3.93304L72.3872 3.90427L72.4829 3.87557L72.5786 3.8469L72.6743 3.81841L72.77 3.78998L72.8604 3.76374L72.9383 3.74254L73.0341 3.71434L73.1299 3.68625L73.2258 3.65831L73.3217 3.63038L73.4176 3.60259L73.5135 3.57492L73.6095 3.54728L73.7012 3.52144L73.7781 3.50134L73.8742 3.47393L73.9703 3.44671L74.0664 3.41958L74.1625 3.39244L74.2587 3.36551L74.3549 3.33866L74.4511 3.3118L74.5441 3.28637L74.6202 3.26734L74.7164 3.24077L74.8127 3.21436L74.9091 3.18805L75.0054 3.16176L75.1018 3.13565L75.1982 3.10962L75.2946 3.0836L75.389 3.05857L75.4641 3.04059L75.5606 3.01485L75.6571 2.98931L75.7537 2.9638L75.8502 2.93835L75.9469 2.91308L76.0435 2.88786L76.1401 2.8627L76.2359 2.83805L76.31 2.82113L76.4067 2.79624L76.5034 2.77153L76.6002 2.74683L76.6969 2.72224L76.7938 2.6978L76.8906 2.67338L76.9875 2.64908L77.0844 2.62492L77.1578 2.60892L77.2545 2.58491L77.3515 2.56103L77.4485 2.53716L77.5455 2.51339L77.6425 2.4898L77.7395 2.46621L77.8366 2.44273L77.9337 2.41942L78.0084 2.40366L78.1043 2.3809L78.2014 2.35782L78.2985 2.33479L78.3958 2.31188L78.493 2.28909L78.5902 2.26633L78.6874 2.24372L78.7847 2.22121L78.8608 2.20571L78.9556 2.1842L79.053 2.16193L79.1503 2.13971L79.2477 2.11768L79.3451 2.09569L79.4425 2.07376L79.54 2.05203L79.6374 2.03032L79.7147 2.0151L79.8086 1.99481L79.9062 1.97337L80.0037 1.95194L80.1013 1.93079L80.1989 1.90963L80.2965 1.88851L80.3941 1.86764L80.4918 1.84676L80.5704 1.83188L80.6633 1.81273L80.761 1.79213L80.8587 1.77158L80.9564 1.75123L81.0542 1.73091L81.152 1.71065L81.2497 1.6906L81.3476 1.67056L81.4274 1.65603L81.5193 1.638L81.6172 1.61823L81.7151 1.59856L81.813 1.57901L81.911 1.55952L82.0089 1.54014L82.1069 1.52086L82.2049 1.50167L82.286 1.48753L82.377 1.47062L82.475 1.45164L82.5731 1.43284L82.6712 1.41414L82.7692 1.39546L82.8673 1.37694L82.9655 1.35852L83.0636 1.34013L83.146 1.32638L83.2359 1.31059L83.3341 1.29245L83.4324 1.27448L83.5306 1.25662L83.6288 1.23877L83.7271 1.2211L83.8254 1.20353L83.9237 1.18596L84.0074 1.17262L84.0962 1.1579L84.1945 1.14062L84.2929 1.12349L84.3913 1.10646L84.4897 1.08945L84.5881 1.07262L84.6865 1.05589L84.785 1.03916L84.8699 1.02624L84.9577 1.01257L85.0563 0.99612L85.1547 0.979878L85.2532 0.963659L85.3518 0.947491L85.4503 0.931538L85.5489 0.915604L85.6475 0.899725L85.7337 0.887253L85.8205 0.874635L85.9191 0.859007L86.0178 0.843618L86.1164 0.828225L86.2151 0.812897L86.3138 0.797792L86.4125 0.782684L86.5112 0.767653L86.5987 0.75562L86.6844 0.744019L86.6971 0.747535L86.6497 0.763879L86.6024 0.780259L86.5551 0.796811L86.5079 0.813449L86.4607 0.830142L86.4135 0.847009L86.3562 0.866381L86.2949 0.886818L86.2478 0.903969L86.2007 0.921143L86.1537 0.938497L86.1068 0.95593L86.0597 0.973389L86.0128 0.991087L85.9659 1.0088L85.9101 1.02867L85.8479 1.0502L85.8011 1.0682L85.7542 1.08629L85.7075 1.10453L85.6607 1.12283L85.614 1.14124L85.5674 1.15977L85.5207 1.17834L85.4663 1.19883L85.4032 1.22133L85.3566 1.24017L85.3101 1.25922L85.2636 1.27826L85.2171 1.29745L85.1707 1.31678L85.1243 1.3361L85.0779 1.35562L85.025 1.37665L84.9609 1.4001L84.9146 1.41987L84.8684 1.43974L84.8221 1.45964L84.776 1.47971L84.7298 1.49987L84.6837 1.52008L84.6376 1.54045L84.5861 1.56202L84.521 1.58647L84.4751 1.60711L84.4291 1.62777L84.3831 1.64861L84.3373 1.66952L84.2913 1.69048L84.2455 1.71162L84.1998 1.73281L84.1496 1.75491L84.0837 1.78035L84.038 1.8018L83.9922 1.82332L83.9466 1.84503L83.901 1.86676L83.8554 1.88858L83.8099 1.91057L83.7644 1.93258L83.7157 1.95531L83.6489 1.98161L83.6035 2.00388L83.5581 2.02633L83.5127 2.04881L83.4673 2.07138L83.422 2.09412L83.3768 2.11686L83.3315 2.13973L83.2844 2.16311L83.2166 2.19027L83.1714 2.21338L83.1264 2.23668L83.0813 2.25997L83.0362 2.2834L82.9912 2.30699L82.9463 2.33054L82.9013 2.35428L82.8557 2.37826L82.7868 2.40627L82.742 2.43028L82.6973 2.45435L82.6524 2.47849L82.6077 2.5028L82.563 2.52715L82.5183 2.55159L82.4737 2.57618L82.4291 2.6008L82.3602 2.62955L82.3153 2.65447L82.2708 2.67931L82.2263 2.70436L82.1818 2.72948L82.1374 2.75462L82.093 2.77996L82.0487 2.80535L82.0043 2.83077L81.937 2.86001L81.8912 2.88592L81.8469 2.91162L81.8023 2.93763Z" fill="white"/>
</svg>
