<svg width="200" height="200" viewBox="0 0 200 200" fill="none" xmlns="http://www.w3.org/2000/svg">
<path d="M111.797 4.34274L111.827 4.32285L111.858 4.30313L111.889 4.28348L111.92 4.26384L111.888 4.24402L111.918 4.22456L111.949 4.20518L111.98 4.18584L112.01 4.16666L112.041 4.14753L112.071 4.12845L112.102 4.10954L112.133 4.09067L112.103 4.07108L112.131 4.05227L112.162 4.03364L112.192 4.01505L112.223 3.99653L112.253 3.97816L112.283 3.95982L112.314 3.94156L112.344 3.92347L112.316 3.90415L112.342 3.88606L112.373 3.86806L112.403 3.85025L112.433 3.83249L112.464 3.81476L112.494 3.79721L112.524 3.7797L112.554 3.76226L112.527 3.74326L112.552 3.72585L112.583 3.70864L112.613 3.69147L112.643 3.67446L112.673 3.65752L112.703 3.64062L112.733 3.62387L112.763 3.60719L112.737 3.58853L112.761 3.57167L112.791 3.55526L112.821 3.53884L112.851 3.5225L112.881 3.50634L112.911 3.49018L112.941 3.47412L112.971 3.45821L112.946 3.43992L112.968 3.42368L112.998 3.40795L113.028 3.39233L113.058 3.3767L113.088 3.36125L113.117 3.34589L113.147 3.33053L113.177 3.31535L113.154 3.29744L113.174 3.28185L113.204 3.2668L113.233 3.25194L113.263 3.23711L113.293 3.22231L113.322 3.20773L113.352 3.19316L113.382 3.17863L113.359 3.16115L113.378 3.14619L113.408 3.13191L113.437 3.11771L113.467 3.10368L113.496 3.08966L113.526 3.07574L113.555 3.06198L113.585 3.04823L113.564 3.03118L113.581 3.01671L113.61 3.00322L113.64 2.98981L113.669 2.97645L113.698 2.96323L113.728 2.95009L113.757 2.93701L113.786 2.92406L113.767 2.90748L113.782 2.89356L113.811 2.88077L113.841 2.86817L113.87 2.85556L113.899 2.84306L113.928 2.83072L113.957 2.81838L113.986 2.80616L113.968 2.79009L113.982 2.77674L114.011 2.76467L114.04 2.75282L114.069 2.74102L114.098 2.72922L114.127 2.71766L114.156 2.70613L114.185 2.6946L114.168 2.67906L114.18 2.66624L114.209 2.65498L114.238 2.64382L114.266 2.63282L114.295 2.62184L114.324 2.61096L114.353 2.60024L114.381 2.58953L114.366 2.57451L114.377 2.56212L114.405 2.55169L114.434 2.54133L114.462 2.53102L114.491 2.52087L114.52 2.51078L114.548 2.50076L114.577 2.49088L114.562 2.47644L114.571 2.46453L114.6 2.45483L114.628 2.44529L114.657 2.43575L114.685 2.42635L114.713 2.41708L114.742 2.40781L114.77 2.39871L114.757 2.38488L114.765 2.37345L114.793 2.36452L114.821 2.35575L114.849 2.34703L114.877 2.33838L114.906 2.3299L114.934 2.32145L114.962 2.31308L114.95 2.29989L114.956 2.28892L114.984 2.28084L115.012 2.27276L115.04 2.26487L115.068 2.25707L115.096 2.24929L115.124 2.24169L115.152 2.23416L115.141 2.22159L115.146 2.21102L115.174 2.20377L115.201 2.19652L115.229 2.18938L115.257 2.1824L115.285 2.17542L115.312 2.1686L115.34 2.1619L115.331 2.15L115.334 2.13988L115.361 2.13337L115.389 2.12696L115.416 2.12064L115.444 2.11443L115.472 2.10831L115.499 2.10226L115.527 2.09634L115.519 2.08522L115.52 2.07552L115.547 2.06975L115.574 2.0642L115.602 2.05871L115.629 2.05322L115.656 2.04794L115.684 2.04279L115.711 2.03765L115.704 2.02729L115.704 2.01803L115.731 2.01316L115.758 2.00834L115.785 2.00376L115.812 1.99917L115.84 1.99466L115.867 1.99035L115.894 1.98602L115.888 1.97644L115.886 1.96749L115.913 1.96345L115.94 1.9595L115.967 1.95564L115.994 1.95188L116.021 1.94822L116.048 1.94466L116.074 1.9412L116.07 1.93243L116.066 1.92377L116.093 1.92055L116.12 1.91745L116.147 1.91435L116.173 1.91145L116.2 1.90862L116.227 1.9058L116.253 1.90321L116.25 1.89526L116.245 1.88692L116.272 1.88447L116.298 1.8822L116.325 1.87995L116.351 1.87779L116.378 1.87581L116.404 1.87386L116.43 1.872L116.429 1.86491L116.422 1.8569L116.448 1.85529L116.474 1.85374L116.501 1.85238L116.527 1.85105L116.553 1.8498L116.579 1.84874L116.606 1.84769L116.605 1.84142L116.597 1.8337L116.623 1.83294L116.649 1.83219L116.675 1.83164L116.701 1.83116L116.727 1.83072L116.753 1.83047L116.779 1.83027L116.78 1.8249L116.77 1.81739L116.796 1.81743L116.821 1.8176L116.847 1.81778L116.873 1.81813L116.899 1.81858L116.925 1.81904L116.95 1.8197L116.952 1.8153L116.941 1.80801L116.966 1.80883L116.992 1.80985L117.018 1.81086L117.043 1.812L117.069 1.81331L117.094 1.81461L117.12 1.81607L117.123 1.81261L117.11 1.80554L117.135 1.80722L117.161 1.809L117.186 1.81089L117.212 1.81286L117.237 1.81493L117.262 1.81712L117.288 1.81937L117.292 1.81686L117.277 1.81003L117.303 1.81256L117.328 1.8151L117.353 1.81789L117.378 1.8207L117.403 1.82354L117.428 1.82663L117.453 1.82972L117.459 1.82819L117.443 1.82151L117.468 1.82488L117.493 1.82835L117.518 1.83186L117.542 1.83553L117.567 1.8393L117.592 1.84312L117.643 1.85251L117.722 1.8675L117.778 1.87642L117.876 1.89606L117.973 1.91584L118.071 1.93564L118.169 1.95558L118.267 1.97566L118.364 1.99573L118.462 2.01599L118.543 2.03202L118.597 2.04105L118.695 2.06148L118.792 2.08208L118.89 2.10271L118.988 2.12343L119.085 2.14432L119.183 2.16524L119.28 2.18624L119.363 2.20334L119.415 2.21246L119.513 2.23375L119.61 2.25507L119.708 2.27655L119.805 2.29812L119.902 2.31975L120 2.3415L120.097 2.36336L120.181 2.38146L120.232 2.39063L120.329 2.41278L120.426 2.43493L120.524 2.45716L120.621 2.47958L120.718 2.50201L120.815 2.52454L120.912 2.54726L120.997 2.56642L121.047 2.57564L121.144 2.59858L121.241 2.62156L121.338 2.64457L121.435 2.6678L121.532 2.69107L121.629 2.71436L121.726 2.7379L121.812 2.75818L121.86 2.76745L121.957 2.79111L122.054 2.81494L122.151 2.8388L122.248 2.86277L122.345 2.88688L122.442 2.91102L122.538 2.93529L122.625 2.95673L122.672 2.96601L122.769 2.9905L122.866 3.01506L122.962 3.03977L123.059 3.06455L123.156 3.08941L123.252 3.11441L123.349 3.13946L123.437 3.16202L123.482 3.17129L123.579 3.19662L123.675 3.22195L123.772 3.24747L123.868 3.27308L123.965 3.29868L124.061 3.32451L124.158 3.3504L124.247 3.37407L124.291 3.38329L124.387 3.40945L124.484 3.43561L124.58 3.46188L124.676 3.48832L124.772 3.51476L124.868 3.54133L124.965 3.56804L125.055 3.59294L125.098 3.6021L125.194 3.62899L125.29 3.65598L125.386 3.68308L125.482 3.71026L125.578 3.73753L125.674 3.76491L125.77 3.79239L125.862 3.81853L125.902 3.82761L125.998 3.85526L126.094 3.88306L126.19 3.91098L126.286 3.93891L126.382 3.96701L126.477 3.99522L126.573 4.02342L126.666 4.05085L126.705 4.0598L126.801 4.08828L126.897 4.11681L126.992 4.14557L127.088 4.17432L127.183 4.20315L127.279 4.23219L127.375 4.26123L127.469 4.28985L127.507 4.29865L127.602 4.32796L127.697 4.35732L127.793 4.3868L127.888 4.41639L127.983 4.44604L128.079 4.47582L128.174 4.50568L128.269 4.53557L128.306 4.5442L128.401 4.57428L128.496 4.60449L128.591 4.63473L128.686 4.6651L128.781 4.6956L128.876 4.72611L128.971 4.75678L129.066 4.78754L129.104 4.79692L129.197 4.82724L129.292 4.8583L129.387 4.88937L129.482 4.92045L129.577 4.95178L129.672 4.98311L129.766 5.0145L129.861 5.0461L129.9 5.05632L129.992 5.08695L130.087 5.11872L130.181 5.1506L130.276 5.18249L130.37 5.21456L130.465 5.24671L130.559 5.27889L130.654 5.31125L130.694 5.32234L130.785 5.35325L130.879 5.38577L130.973 5.41843L131.068 5.45117L131.162 5.48397L131.256 5.51691L131.35 5.54992L131.444 5.58299L131.486 5.59496L131.575 5.62615L131.669 5.65948L131.763 5.69284L131.857 5.72641L131.951 5.76002L132.045 5.79368L132.139 5.82753L132.233 5.86141L132.275 5.87427L132.363 5.90559L132.456 5.93974L132.55 5.9739L132.644 6.00822L132.738 6.04265L132.831 6.07707L132.925 6.11169L133.019 6.14639L133.063 6.16016L133.148 6.19165L133.242 6.22657L133.335 6.26153L133.429 6.29659L133.522 6.33179L133.616 6.36704L133.709 6.40237L133.802 6.43787L133.847 6.45261L133.931 6.48426L134.025 6.51988L134.118 6.55567L134.211 6.59154L134.304 6.62746L134.397 6.66352L134.49 6.69966L134.583 6.73587L134.63 6.7516L134.712 6.7834L134.805 6.8198L134.898 6.85634L134.991 6.89301L135.084 6.92969L135.176 6.96651L135.269 7.00345L135.362 7.04039L135.409 7.05713L135.49 7.089L135.583 7.12622L135.676 7.1635L135.768 7.20095L135.861 7.23842L135.953 7.27598L136.046 7.31371L136.138 7.35145L136.187 7.3692L136.266 7.40109L136.358 7.4391L136.451 7.47719L136.543 7.51533L136.635 7.55361L136.727 7.59198L136.819 7.63041L136.912 7.66895L136.961 7.68775L137.039 7.7197L137.131 7.75842L137.223 7.79734L137.315 7.83625L137.407 7.87526L137.499 7.91443L137.591 7.9536L137.682 7.99292L137.733 8.01275L137.809 8.04475L137.901 8.08422L137.993 8.12388L138.084 8.16357L138.176 8.20331L138.267 8.24326L138.359 8.28322L138.45 8.32323L138.502 8.34413L138.577 8.37617L138.668 8.41646L138.76 8.4568L138.851 8.49729L138.942 8.53784L139.034 8.57847L139.125 8.61922L139.216 8.66005L139.269 8.68199L139.342 8.71396L139.433 8.75506L139.524 8.79617L139.615 8.83736L139.706 8.87873L139.797 8.9201L139.888 8.96157L139.978 9.0032L140.032 9.02625L140.104 9.05814L140.195 9.09999L140.285 9.14188L140.376 9.1838L140.467 9.22593L140.557 9.26808L140.648 9.31026L140.738 9.35267L140.793 9.37684L140.863 9.40871L140.954 9.45125L141.044 9.49393L141.134 9.53663L141.224 9.57945L141.314 9.62238L141.405 9.66536L141.495 9.70844L141.551 9.73377L141.619 9.7656L141.709 9.80889L141.799 9.85226L141.889 9.89577L141.979 9.93932L142.069 9.98295L142.159 10.0267L142.248 10.0705L142.306 10.097L142.373 10.1287L142.462 10.1728L142.552 10.2169L142.641 10.2612L142.731 10.3055L142.82 10.3498L142.91 10.3943L142.999 10.4389L143.058 10.4666L143.123 10.4981L143.212 10.543L143.301 10.5878L143.391 10.6328L143.48 10.6779L143.569 10.723L143.658 10.7682L143.747 10.8136L143.806 10.8424L143.87 10.8738L143.959 10.9193L144.048 10.965L144.137 11.0107L144.225 11.0565L144.314 11.1023L144.403 11.1483L144.491 11.1944L144.552 11.2244L144.614 11.2557L144.703 11.3019L144.791 11.3483L144.879 11.3948L144.968 11.4412L145.056 11.4879L145.144 11.5346L145.233 11.5813L145.294 11.6127L145.355 11.6437L145.443 11.6907L145.531 11.7378L145.619 11.785L145.707 11.8322L145.795 11.8796L145.883 11.927L145.971 11.9745L146.033 12.0071L146.092 12.0379L146.18 12.0856L146.268 12.1335L146.355 12.1814L146.443 12.2294L146.531 12.2774L146.618 12.3256L146.705 12.3738L146.769 12.4077L146.827 12.4382L146.914 12.4867L147.001 12.5353L147.089 12.5838L147.176 12.6326L147.263 12.6814L147.35 12.7302L147.437 12.7792L147.501 12.8144L147.558 12.8447L147.645 12.8938L147.732 12.9431L147.818 12.9924L147.905 13.0419L147.992 13.0914L148.078 13.141L148.165 13.1907L148.23 13.2271L148.285 13.2571L148.372 13.307L148.458 13.357L148.545 13.4071L148.631 13.4572L148.717 13.5075L148.804 13.5578L148.89 13.6082L148.956 13.646L149.009 13.6757L149.095 13.7263L149.182 13.7769L149.268 13.8277L149.353 13.8786L149.439 13.9295L149.525 13.9806L149.611 14.0317L149.678 14.0708L149.73 14.1001L149.816 14.1515L149.901 14.2029L149.987 14.2544L150.072 14.306L150.158 14.3576L150.243 14.4093L150.329 14.4612L150.397 14.5017L150.447 14.5306L150.532 14.5827L150.618 14.6348L150.703 14.687L150.788 14.7393L150.873 14.7917L150.958 14.8441L151.043 14.8967L151.112 14.9385L151.161 14.9671L151.245 15.0198L151.33 15.0727L151.415 15.1256L151.5 15.1785L151.584 15.2316L151.669 15.2848L151.753 15.338L151.823 15.3812L151.871 15.4095L151.955 15.4629L152.039 15.5164L152.124 15.57L152.208 15.6237L152.292 15.6774L152.376 15.7314L152.46 15.7853L152.531 15.8298L152.577 15.8577L152.661 15.9118L152.745 15.966L152.828 16.0203L152.912 16.0747L152.996 16.1292L153.08 16.1837L153.163 16.2384L153.234 16.2843L153.279 16.3118L153.363 16.3666L153.446 16.4215L153.53 16.4765L153.613 16.5316L153.696 16.5867L153.779 16.6419L153.863 16.6973L153.935 16.7447L153.978 16.7717L154.061 16.8271L154.144 16.8828L154.227 16.9385L154.31 16.9942L154.393 17.0501L154.475 17.106L154.558 17.162L154.631 17.2109L154.673 17.2373L154.755 17.2935L154.838 17.3498L154.92 17.4062L155.003 17.4626L155.085 17.5191L155.167 17.5758L155.25 17.6324L155.323 17.6828L155.364 17.7087L155.446 17.7656L155.528 17.8226L155.61 17.8796L155.692 17.9367L155.774 17.9939L155.856 18.0512L155.937 18.1086L156.012 18.1604L156.051 18.1858L156.133 18.2434L156.214 18.3011L156.296 18.3587L156.377 18.4166L156.459 18.4745L156.54 18.5324L156.621 18.5905L156.696 18.6437L156.734 18.6686L156.815 18.7269L156.896 18.7852L156.977 18.8436L157.058 18.9021L157.139 18.9606L157.22 19.0192L157.301 19.0779L157.377 19.1327L157.413 19.1571L157.494 19.216L157.575 19.275L157.655 19.334L157.736 19.3931L157.816 19.4524L157.896 19.5117L157.977 19.571L158.053 19.6274L158.088 19.6511L158.169 19.7107L158.249 19.7703L158.329 19.8301L158.409 19.8899L158.489 19.9497L158.569 20.0097L158.648 20.0698L158.725 20.1276L158.759 20.1508L158.839 20.211L158.919 20.2713L158.998 20.3317L159.078 20.3922L159.157 20.4527L159.237 20.5133L159.316 20.574L159.394 20.6333L159.426 20.6559L159.505 20.7168L159.585 20.7778L159.664 20.8388L159.743 20.8999L159.822 20.9611L159.901 21.0224L159.979 21.0838L160.058 21.1447L160.089 21.1666L160.168 21.2281L160.246 21.2897L160.325 21.3515L160.403 21.4132L160.482 21.4751L160.56 21.537L160.639 21.599L160.717 21.661L160.748 21.6832L160.826 21.7449L160.904 21.8072L160.982 21.8695L161.06 21.9319L161.138 21.9944L161.216 22.057L161.293 22.1196L161.371 22.1823L161.403 22.2057L161.479 22.2671L161.557 22.33L161.634 22.393L161.712 22.4561L161.789 22.5191L161.867 22.5824L161.944 22.6456L162.021 22.7089L162.054 22.7336L162.129 22.7947L162.206 22.8583L162.283 22.9219L162.36 22.9856L162.436 23.0493L162.513 23.1131L162.59 23.1771L162.667 23.2411L162.701 23.2669L162.773 23.3276L162.85 23.3918L162.927 23.4561L163.003 23.5204L163.079 23.5848L163.156 23.6493L163.232 23.7138L163.308 23.7784L163.343 23.8055L163.414 23.8659L163.49 23.9307L163.566 23.9956L163.642 24.0605L163.718 24.1256L163.794 24.1907L163.869 24.2558L163.945 24.3211L163.98 24.3494L164.05 24.4094L164.126 24.4748L164.201 24.5404L164.276 24.6059L164.352 24.6716L164.427 24.7373L164.502 24.8031L164.577 24.869L164.613 24.8986L164.682 24.9582L164.757 25.0243L164.832 25.0904L164.906 25.1566L164.981 25.2228L165.056 25.2892L165.13 25.3556L165.205 25.4221L165.242 25.453L165.309 25.5122L165.383 25.5789L165.457 25.6456L165.532 25.7124L165.606 25.7793L165.68 25.8462L165.754 25.9132L165.828 25.9804L165.866 26.0126L165.931 26.0713L166.005 26.1386L166.079 26.2059L166.153 26.2733L166.226 26.3409L166.3 26.4084L166.373 26.476L166.447 26.5438L166.485 26.5773L166.549 26.6356L166.622 26.7035L166.696 26.7714L166.769 26.8394L166.842 26.9075L166.915 26.9757L166.988 27.0439L167.061 27.1122L167.1 27.1471L167.162 27.205L167.235 27.2734L167.308 27.342L167.38 27.4106L167.453 27.4793L167.525 27.5481L167.598 27.6169L167.67 27.6858L167.71 27.722L167.771 27.7794L167.843 27.8484L167.915 27.9175L167.987 27.9868L168.059 28.0561L168.131 28.1254L168.203 28.1949L168.274 28.2644L168.315 28.302L168.374 28.3588L168.446 28.4284L168.517 28.4982L168.589 28.568L168.66 28.6379L168.732 28.7078L168.803 28.7778L168.874 28.8479L168.915 28.8869L168.973 28.9431L169.044 29.0134L169.115 29.0837L169.186 29.1541L169.257 29.2246L169.328 29.2951L169.398 29.3657L169.469 29.4364L169.511 29.4768L169.567 29.5324L169.638 29.6032L169.708 29.6742L169.778 29.7452L169.849 29.8162L169.919 29.8874L169.989 29.9585L170.059 30.0298L170.102 30.0716L170.156 30.1266L170.226 30.1981L170.296 30.2696L170.366 30.3411L170.436 30.4127L170.505 30.4844L170.575 30.5562L170.644 30.628L170.687 30.6713L170.741 30.7257L170.81 30.7977L170.879 30.8697L170.948 30.9419L171.017 31.0141L171.086 31.0863L171.155 31.1587L171.224 31.2311L171.268 31.2757L171.32 31.3295L171.389 31.4022L171.457 31.4748L171.526 31.5474L171.594 31.6202L171.663 31.6931L171.731 31.7659L171.799 31.8389L171.844 31.885L171.894 31.9382L171.962 32.0113L172.03 32.0845L172.098 32.1578L172.166 32.2311L172.234 32.3045L172.302 32.3779L172.369 32.4515L172.414 32.499L172.464 32.5516L172.531 32.6252L172.599 32.699L172.666 32.7728L172.733 32.8467L172.8 32.9207L172.867 32.9947L172.935 33.0688L172.98 33.1178L173.028 33.1696L173.095 33.2439L173.162 33.3181L173.228 33.3925L173.295 33.467L173.361 33.5415L173.428 33.6161L173.494 33.6907L173.54 33.7412L173.587 33.7923L173.653 33.8671L173.719 33.9419L173.785 34.0169L173.852 34.0919L173.918 34.1669L173.983 34.2421L174.049 34.3172L174.096 34.3692L174.141 34.4196L174.206 34.495L174.272 34.5704L174.338 34.6458L174.403 34.7214L174.468 34.7969L174.534 34.8726L174.599 34.9483L174.646 35.0018L174.69 35.0515L174.755 35.1273L174.82 35.2033L174.884 35.2793L174.949 35.3553L175.014 35.4315L175.079 35.5077L175.143 35.5839L175.191 35.639L175.233 35.6879L175.298 35.7643L175.362 35.8408L175.426 35.9173L175.49 35.9939L175.554 36.0706L175.618 36.1473L175.682 36.224L175.73 36.2806L175.771 36.3288L175.835 36.4057L175.899 36.4827L175.962 36.5598L176.026 36.6369L176.089 36.7141L176.153 36.7913L176.216 36.8686L176.264 36.9267L176.304 36.974L176.367 37.0515L176.43 37.129L176.493 37.2066L176.556 37.2843L176.619 37.362L176.682 37.4397L176.745 37.5176L176.793 37.5772L176.832 37.6237L176.894 37.7017L176.957 37.7798L177.019 37.8578L177.081 37.9361L177.143 38.0143L177.206 38.0925L177.268 38.1709L177.317 38.2321L177.354 38.2778L177.416 38.3563L177.478 38.4349L177.539 38.5135L177.601 38.5922L177.662 38.6709L177.724 38.7497L177.785 38.8286L177.835 38.8913L177.871 38.9362L177.932 39.0152L177.993 39.0942L178.054 39.1734L178.115 39.2525L178.176 39.3318L178.237 39.4111L178.297 39.4905L178.347 39.5547L178.382 39.5988L178.443 39.6783L178.503 39.7579L178.563 39.8375L178.624 39.9172L178.684 39.9969L178.744 40.0768L178.804 40.1566L178.854 40.2224L178.888 40.2657L178.948 40.3457L179.007 40.4257L179.067 40.5059L179.127 40.586L179.186 40.6663L179.246 40.7466L179.305 40.827L179.356 40.8944L179.388 40.9367L179.447 41.0172L179.506 41.0977L179.565 41.1784L179.624 41.259L179.683 41.3398L179.742 41.4205L179.801 41.5014L179.851 41.5704L179.883 41.6119L179.941 41.6928L180 41.7739L180.058 41.855L180.116 41.9361L180.175 42.0174L180.233 42.0987L180.291 42.18L180.342 42.2506L180.372 42.2911L180.43 42.3726L180.487 42.4541L180.545 42.5357L180.603 42.6173L180.66 42.699L180.718 42.7808L180.775 42.8626L180.826 42.9348L180.855 42.9744L180.912 43.0564L180.97 43.1383L181.027 43.2204L181.083 43.3025L181.14 43.3847L181.197 43.467L181.254 43.5492L181.305 43.6231L181.333 43.6617L181.389 43.7441L181.446 43.8266L181.502 43.9091L181.558 43.9917L181.615 44.0744L181.671 44.1571L181.727 44.2399L181.778 44.3153L181.805 44.3529L181.861 44.4359L181.916 44.5188L181.972 44.6017L182.028 44.6849L182.083 44.768L182.139 44.8511L182.194 44.9343L182.245 45.0115L182.271 45.0481L182.326 45.1314L182.381 45.2149L182.436 45.2983L182.491 45.3818L182.546 45.4654L182.601 45.549L182.655 45.6327L182.707 45.7115L182.732 45.7471L182.786 45.8309L182.84 45.9148L182.895 45.9987L182.949 46.0827L183.003 46.1667L183.057 46.2508L183.111 46.3349L183.163 46.4153L183.186 46.45L183.24 46.5342L183.294 46.6185L183.347 46.7029L183.401 46.7873L183.454 46.8717L183.507 46.9563L183.561 47.0409L183.612 47.1229L183.635 47.1566L183.688 47.2413L183.741 47.326L183.794 47.4108L183.847 47.4957L183.899 47.5806L183.952 47.6655L184.005 47.7506L184.056 47.8343L184.078 47.8669L184.13 47.952L184.182 48.0372L184.235 48.1224L184.287 48.2077L184.339 48.2931L184.391 48.3785L184.443 48.4639L184.494 48.5494L184.515 48.5809L184.566 48.6664L184.618 48.7521L184.669 48.8377L184.721 48.9235L184.772 49.0093L184.823 49.0951L184.874 49.1809L184.926 49.2669L184.946 49.2997L184.997 49.3845L185.047 49.4706L185.098 49.5567L185.149 49.6428L185.199 49.729L185.25 49.8153L185.3 49.9015L185.351 49.9879L185.372 50.0221L185.421 50.1061L185.471 50.1926L185.521 50.2791L185.571 50.3657L185.621 50.4523L185.671 50.539L185.72 50.6257L185.77 50.7125L185.792 50.7481L185.839 50.8313L185.888 50.9182L185.938 51.0051L185.987 51.0921L186.036 51.1791L186.085 51.2662L186.134 51.3534L186.183 51.4405L186.205 51.4776L186.251 51.5599L186.3 51.6472L186.348 51.7345L186.397 51.822L186.445 51.9094L186.494 51.9969L186.542 52.0844L186.59 52.172L186.612 52.2106L186.657 52.292L186.705 52.3797L186.753 52.4674L186.801 52.5552L186.848 52.643L186.896 52.731L186.944 52.8189L186.991 52.9069L187.014 52.9469L187.057 53.0274L187.104 53.1155L187.151 53.2037L187.199 53.2918L187.245 53.3801L187.292 53.4684L187.339 53.5567L187.386 53.6451L187.409 53.6866L187.451 53.7662L187.497 53.8546L187.544 53.9432L187.59 54.0318L187.636 54.1204L187.682 54.2091L187.728 54.2978L187.774 54.3866L187.798 54.4296L187.838 54.5082L187.884 54.5971L187.93 54.686L187.975 54.775L188.021 54.864L188.066 54.9531L188.111 55.0422L188.157 55.1313L188.18 55.1758L188.22 55.2535L188.265 55.3428L188.31 55.432L188.354 55.5214L188.399 55.6108L188.444 55.7002L188.488 55.7897L188.533 55.8792L188.556 55.9252L188.595 56.0019L188.639 56.0916L188.683 56.1813L188.727 56.271L188.771 56.3608L188.815 56.4505L188.859 56.5404L188.902 56.6303L188.926 56.6778L188.963 56.7535L189.007 56.8436L189.05 56.9336L189.094 57.0237L189.137 57.1138L189.18 57.204L189.223 57.2942L189.266 57.3845L189.29 57.4335L189.326 57.5082L189.368 57.5986L189.411 57.689L189.454 57.7794L189.496 57.8699L189.538 57.9605L189.581 58.051L189.623 58.1417L189.647 58.1922L189.682 58.2659L189.724 58.3566L189.766 58.4474L189.807 58.5382L189.849 58.6291L189.891 58.72L189.932 58.8109L189.974 58.9018L189.998 58.9539L190.031 59.0266L190.073 59.1177L190.114 59.2088L190.155 59.2999L190.196 59.3911L190.237 59.4824L190.277 59.5736L190.318 59.665L190.342 59.7185L190.375 59.7902L190.415 59.8816L190.455 59.9731L190.496 60.0646L190.536 60.1561L190.576 60.2477L190.616 60.3393L190.656 60.431L190.68 60.486L190.711 60.5567L190.751 60.6485L190.791 60.7402L190.83 60.832L190.87 60.9239L190.909 61.0158L190.948 61.1078L190.987 61.1998L191.012 61.2564L191.042 61.326L191.081 61.4181L191.119 61.5102L191.158 61.6024L191.197 61.6946L191.235 61.7868L191.274 61.8791L191.312 61.9714L191.337 62.0296L191.365 62.0981L191.404 62.1904L191.442 62.2829L191.48 62.3754L191.517 62.4679L191.555 62.5605L191.593 62.6531L191.63 62.7457L191.655 62.8054L191.683 62.8728L191.72 62.9655L191.757 63.0583L191.795 63.1511L191.832 63.2439L191.869 63.3368L191.905 63.4297L191.942 63.5227L191.967 63.584L191.993 63.6502L192.03 63.7433L192.067 63.8363L192.103 63.9295L192.139 64.0226L192.175 64.1158L192.211 64.209L192.247 64.3023L192.272 64.3651L192.298 64.4303L192.333 64.5236L192.369 64.617L192.405 64.7104L192.44 64.8039L192.476 64.8974L192.511 64.9909L192.546 65.0844L192.571 65.1489L192.595 65.2129L192.63 65.3065L192.665 65.4002L192.7 65.4939L192.735 65.5877L192.769 65.6814L192.804 65.7753L192.838 65.8691L192.863 65.9351L192.886 65.998L192.92 66.0919L192.954 66.1859L192.988 66.2799L193.022 66.3739L193.056 66.468L193.09 66.5621L193.123 66.6562L193.148 66.7238L193.17 66.7855L193.204 66.8797L193.237 66.974L193.27 67.0683L193.303 67.1626L193.336 67.2569L193.369 67.3513L193.402 67.4457L193.426 67.5149L193.448 67.5754L193.48 67.6699L193.513 67.7644L193.545 67.859L193.578 67.9536L193.61 68.0482L193.642 68.1429L193.674 68.2376L193.698 68.3083L193.719 68.3677L193.75 68.4625L193.782 68.5572L193.814 68.6521L193.845 68.7469L193.877 68.8418L193.908 68.9368L193.939 69.0318L193.963 69.104L193.983 69.1622L194.014 69.2572L194.045 69.3523L194.075 69.4474L194.106 69.5425L194.137 69.6377L194.167 69.7329L194.198 69.8281L194.222 69.902L194.24 69.9589L194.27 70.0542L194.3 70.1496L194.33 70.2449L194.36 70.3403L194.39 70.4357L194.42 70.5312L194.449 70.6267L194.473 70.7021L194.491 70.7578L194.52 70.8534L194.549 70.949L194.579 71.0446L194.608 71.1402L194.637 71.2359L194.666 71.3316L194.694 71.4273L194.718 71.5044L194.734 71.5589L194.763 71.6547L194.791 71.7505L194.82 71.8464L194.848 71.9422L194.876 72.0382L194.904 72.1341L194.933 72.2301L194.955 72.3087L194.971 72.3619L194.999 72.458L195.027 72.554L195.054 72.6501L195.082 72.7463L195.109 72.8424L195.137 72.9386L195.164 73.0348L195.186 73.115L195.201 73.167L195.228 73.2633L195.255 73.3596L195.282 73.4559L195.309 73.5522L195.335 73.6486L195.362 73.745L195.388 73.8415L195.411 73.9232L195.425 73.974L195.451 74.0705L195.477 74.167L195.503 74.2635L195.529 74.3601L195.554 74.4567L195.58 74.5534L195.606 74.65L195.628 74.7334L195.641 74.7829L195.666 74.8796L195.692 74.9763L195.717 75.0731L195.742 75.1699L195.767 75.2667L195.792 75.3635L195.816 75.4604L195.838 75.5454L195.85 75.5936L195.875 75.6905L195.899 75.7875L195.924 75.8844L195.948 75.9814L195.972 76.0784L195.996 76.1755L196.02 76.2726L196.041 76.3591L196.053 76.406L196.077 76.5031L196.1 76.6003L196.124 76.6975L196.147 76.7947L196.17 76.8919L196.194 76.9892L196.217 77.0864L196.238 77.1745L196.249 77.2202L196.271 77.3175L196.294 77.4148L196.317 77.5122L196.339 77.6096L196.362 77.707L196.384 77.8045L196.407 77.902L196.427 77.9916L196.437 78.0359L196.459 78.1335L196.481 78.231L196.503 78.3286L196.525 78.4262L196.547 78.5238L196.568 78.6214L196.589 78.7191L196.609 78.8103L196.619 78.8533L196.64 78.951L196.661 79.0488L196.682 79.1465L196.703 79.2443L196.724 79.3421L196.745 79.4399L196.765 79.5377L196.785 79.6306L196.794 79.6722L196.814 79.7701L196.834 79.868L196.855 79.9659L196.875 80.0639L196.895 80.1619L196.915 80.2598L196.934 80.3578L196.953 80.4523L196.962 80.4926L196.981 80.5906L197 80.6887L197.02 80.7868L197.039 80.8849L197.058 80.983L197.077 81.0812L197.096 81.1794L197.115 81.2753L197.122 81.3144L197.141 81.4126L197.16 81.5108L197.178 81.6091L197.196 81.7073L197.215 81.8056L197.233 81.9039L197.251 82.0023L197.269 82.0998L197.276 82.1375L197.294 82.2358L197.312 82.3342L197.329 82.4326L197.347 82.5311L197.364 82.6295L197.382 82.728L197.399 82.8264L197.416 82.9249L197.423 82.9625L197.44 83.0604L197.457 83.1589L197.473 83.2575L197.49 83.3561L197.507 83.4546L197.523 83.5532L197.54 83.6519L197.556 83.7505L197.563 83.7895L197.578 83.8862L197.594 83.9848L197.611 84.0835L197.626 84.1822L197.642 84.281L197.658 84.3797L197.673 84.4785L197.689 84.5772L197.695 84.6177L197.71 84.7131L197.725 84.8119L197.741 84.9107L197.756 85.0096L197.771 85.1084L197.785 85.2073L197.8 85.3062L197.815 85.4051L197.821 85.447L197.835 85.5411L197.849 85.64L197.864 85.739L197.878 85.8379L197.892 85.9369L197.906 86.0359L197.92 86.1349L197.934 86.234L197.94 86.2774L197.953 86.3701L197.966 86.4692L197.98 86.5683L197.993 86.6674L198.006 86.7664L198.019 86.8656L198.032 86.9647L198.045 87.0638L198.051 87.1087L198.063 87.2002L198.076 87.2993L198.088 87.3985L198.101 87.4977L198.113 87.5969L198.126 87.6961L198.138 87.7954L198.15 87.8946L198.156 87.941L198.166 88.0311L198.178 88.1304L198.19 88.2297L198.202 88.329L198.213 88.4283L198.225 88.5276L198.236 88.6269L198.248 88.7263L198.253 88.7741L198.263 88.8629L198.274 88.9623L198.285 89.0617L198.296 89.161L198.306 89.2604L198.317 89.3599L198.328 89.4593L198.338 89.5587L198.343 89.608L198.352 89.6955L198.362 89.7949L198.372 89.8944L198.382 89.9939L198.392 90.0934L198.402 90.1929L198.412 90.2924L198.421 90.3919L198.426 90.4427L198.434 90.5288L198.444 90.6283L198.453 90.7279L198.462 90.8274L198.471 90.927L198.48 91.0266L198.489 91.1262L198.498 91.2258L198.502 91.278L198.509 91.3627L198.518 91.4624L198.526 91.562L198.535 91.6616L198.543 91.7613L198.551 91.8609L198.559 91.9606L198.567 92.0603L198.571 92.114L198.577 92.1973L198.585 92.297L198.593 92.3967L198.6 92.4964L198.607 92.5961L198.615 92.6959L198.622 92.7956L198.629 92.8953L198.633 92.9505L198.638 93.0325L198.645 93.1322L198.652 93.232L198.658 93.3317L198.665 93.4315L198.671 93.5313L198.678 93.631L198.684 93.7308L198.687 93.7875L198.692 93.8681L198.698 93.9679L198.704 94.0677L198.71 94.1675L198.715 94.2673L198.721 94.3671L198.726 94.467L198.732 94.5668L198.735 94.6249L198.739 94.7041L198.744 94.804L198.749 94.9038L198.754 95.0037L198.759 95.1035L198.763 95.2034L198.768 95.3032L198.773 95.4032L198.775 95.4627L198.778 95.5405L198.783 95.6404L198.787 95.7403L198.791 95.8401L198.795 95.9401L198.799 96.04L198.803 96.1399L198.806 96.2398L198.808 96.3008L198.811 96.3772L198.814 96.4771L198.818 96.577L198.821 96.6769L198.824 96.7769L198.827 96.8768L198.83 96.9767L198.833 97.0767L198.834 97.1392L198.836 97.2141L198.839 97.3141L198.841 97.414L198.844 97.5139L198.846 97.6139L198.848 97.7139L198.85 97.8138L198.852 97.9137L198.853 97.9777L198.855 98.0512L198.856 98.1512L198.858 98.2511L198.859 98.3511L198.861 98.4511L198.862 98.551L198.864 98.651L198.865 98.751L198.865 98.8164L198.866 98.8884L198.867 98.9884L198.867 99.0884L198.868 99.1883L198.869 99.2883L198.869 99.3883L198.87 99.4883L198.87 99.5883L198.87 99.6551L198.87 99.7257L198.87 99.8257L198.87 99.9257L198.87 100.026L198.869 100.126L198.869 100.226L198.869 100.326L198.868 100.426L198.867 100.494L198.867 100.563L198.866 100.663L198.865 100.763L198.864 100.863L198.863 100.963L198.862 101.063L198.861 101.163L198.859 101.263L198.858 101.333L198.857 101.4L198.855 101.5L198.853 101.6L198.852 101.7L198.85 101.8L198.848 101.9L198.845 102L198.843 102.1L198.841 102.171L198.84 102.237L198.837 102.337L198.835 102.437L198.832 102.537L198.829 102.637L198.826 102.737L198.823 102.837L198.82 102.937L198.818 103.009L198.815 103.074L198.812 103.174L198.809 103.274L198.805 103.374L198.802 103.474L198.798 103.574L198.794 103.674L198.79 103.774L198.787 103.848L198.784 103.911L198.78 104.011L198.776 104.111L198.771 104.211L198.767 104.311L198.762 104.41L198.758 104.51L198.753 104.61L198.749 104.685L198.746 104.747L198.741 104.847L198.736 104.947L198.73 105.047L198.725 105.147L198.72 105.247L198.714 105.346L198.709 105.446L198.704 105.523L198.7 105.583L198.694 105.683L198.688 105.783L198.682 105.883L198.676 105.983L198.67 106.082L198.664 106.182L198.657 106.282L198.652 106.36L198.648 106.419L198.641 106.519L198.634 106.618L198.627 106.718L198.62 106.818L198.613 106.918L198.606 107.017L198.599 107.117L198.593 107.197L198.588 107.254L198.581 107.354L198.573 107.453L198.565 107.553L198.557 107.653L198.549 107.752L198.541 107.852L198.533 107.952L198.526 108.033L198.521 108.089L198.513 108.188L198.505 108.288L198.496 108.387L198.487 108.487L198.479 108.587L198.47 108.686L198.461 108.786L198.453 108.868L198.447 108.923L198.438 109.022L198.429 109.122L198.42 109.221L198.41 109.321L198.4 109.42L198.391 109.52L198.381 109.619L198.372 109.703L198.367 109.756L198.357 109.855L198.346 109.955L198.336 110.054L198.326 110.154L198.315 110.253L198.305 110.352L198.294 110.452L198.285 110.537L198.279 110.588L198.268 110.688L198.257 110.787L198.246 110.886L198.234 110.986L198.223 111.085L198.212 111.184L198.2 111.284L198.19 111.37L198.183 111.42L198.172 111.519L198.16 111.619L198.148 111.718L198.136 111.817L198.124 111.916L198.112 112.016L198.099 112.115L198.088 112.203L198.081 112.251L198.069 112.35L198.056 112.449L198.043 112.549L198.03 112.648L198.018 112.747L198.005 112.846L197.991 112.945L197.979 113.034L197.972 113.081L197.959 113.18L197.945 113.279L197.932 113.378L197.918 113.477L197.904 113.576L197.89 113.675L197.876 113.774L197.863 113.865L197.856 113.91L197.842 114.009L197.827 114.108L197.813 114.207L197.798 114.306L197.784 114.405L197.769 114.504L197.754 114.602L197.74 114.694L197.732 114.738L197.717 114.837L197.702 114.936L197.687 115.035L197.672 115.133L197.656 115.232L197.641 115.331L197.625 115.43L197.61 115.522L197.602 115.565L197.586 115.664L197.57 115.762L197.554 115.861L197.538 115.96L197.522 116.058L197.505 116.157L197.489 116.255L197.473 116.35L197.465 116.391L197.448 116.489L197.431 116.588L197.414 116.686L197.397 116.785L197.38 116.883L197.363 116.982L197.345 117.08L197.328 117.176L197.32 117.215L197.303 117.314L197.285 117.412L197.267 117.51L197.249 117.609L197.231 117.707L197.213 117.805L197.195 117.904L197.177 118L197.169 118.039L197.15 118.137L197.132 118.235L197.113 118.333L197.094 118.431L197.076 118.53L197.057 118.628L197.038 118.726L197.019 118.824L197.01 118.861L196.991 118.959L196.972 119.057L196.952 119.155L196.933 119.253L196.913 119.351L196.893 119.449L196.873 119.547L196.853 119.645L196.844 119.682L196.825 119.779L196.804 119.877L196.784 119.975L196.764 120.073L196.743 120.17L196.723 120.268L196.702 120.366L196.681 120.464L196.672 120.503L196.651 120.598L196.63 120.696L196.609 120.793L196.588 120.891L196.567 120.989L196.545 121.086L196.524 121.184L196.502 121.281L196.492 121.322L196.471 121.415L196.449 121.513L196.427 121.61L196.405 121.708L196.383 121.805L196.361 121.903L196.339 122L196.316 122.098L196.305 122.139L196.284 122.231L196.261 122.328L196.238 122.426L196.215 122.523L196.193 122.62L196.169 122.718L196.146 122.815L196.123 122.912L196.112 122.955L196.09 123.045L196.066 123.142L196.043 123.24L196.019 123.337L195.995 123.434L195.971 123.531L195.947 123.628L195.923 123.725L195.911 123.769L195.889 123.858L195.864 123.955L195.84 124.052L195.815 124.149L195.791 124.245L195.766 124.342L195.741 124.439L195.716 124.536L195.703 124.581L195.681 124.668L195.655 124.765L195.63 124.862L195.605 124.959L195.579 125.055L195.554 125.152L195.528 125.248L195.503 125.345L195.489 125.392L195.466 125.477L195.44 125.574L195.414 125.67L195.388 125.767L195.361 125.863L195.335 125.96L195.309 126.056L195.282 126.152L195.268 126.201L195.244 126.284L195.217 126.381L195.19 126.477L195.163 126.573L195.136 126.669L195.109 126.766L195.082 126.862L195.055 126.958L195.039 127.007L195.015 127.09L194.988 127.186L194.96 127.282L194.932 127.378L194.904 127.474L194.877 127.57L194.848 127.665L194.82 127.761L194.804 127.812L194.78 127.893L194.752 127.989L194.723 128.084L194.695 128.18L194.666 128.276L194.637 128.372L194.608 128.467L194.579 128.563L194.562 128.615L194.538 128.694L194.509 128.789L194.479 128.885L194.45 128.98L194.42 129.076L194.391 129.171L194.361 129.267L194.331 129.362L194.314 129.415L194.289 129.493L194.259 129.588L194.229 129.683L194.198 129.779L194.168 129.874L194.138 129.969L194.107 130.064L194.077 130.159L194.058 130.214L194.033 130.29L194.002 130.385L193.971 130.48L193.94 130.575L193.909 130.67L193.878 130.765L193.847 130.86L193.815 130.954L193.796 131.01L193.77 131.084L193.739 131.179L193.707 131.274L193.675 131.369L193.643 131.463L193.611 131.558L193.579 131.653L193.547 131.747L193.527 131.804L193.501 131.877L193.469 131.971L193.436 132.066L193.404 132.16L193.371 132.255L193.338 132.349L193.305 132.443L193.272 132.538L193.251 132.596L193.225 132.667L193.192 132.761L193.159 132.855L193.125 132.949L193.092 133.043L193.058 133.138L193.025 133.232L192.991 133.326L192.968 133.385L192.943 133.454L192.909 133.548L192.875 133.642L192.84 133.736L192.806 133.83L192.772 133.924L192.737 134.018L192.703 134.111L192.679 134.172L192.653 134.24L192.619 134.333L192.584 134.427L192.549 134.52L192.514 134.614L192.478 134.708L192.443 134.801L192.408 134.894L192.384 134.956L192.358 135.022L192.322 135.116L192.286 135.209L192.251 135.302L192.215 135.396L192.179 135.489L192.143 135.582L192.106 135.675L192.081 135.738L192.055 135.802L192.019 135.896L191.982 135.989L191.946 136.082L191.909 136.175L191.872 136.267L191.835 136.36L191.799 136.453L191.772 136.517L191.746 136.58L191.709 136.673L191.672 136.766L191.634 136.858L191.597 136.951L191.559 137.043L191.522 137.136L191.484 137.229L191.457 137.293L191.43 137.355L191.392 137.447L191.354 137.54L191.316 137.632L191.278 137.725L191.24 137.817L191.201 137.909L191.163 138.001L191.135 138.067L191.108 138.127L191.07 138.219L191.031 138.311L190.992 138.404L190.953 138.495L190.914 138.587L190.875 138.679L190.835 138.771L190.806 138.838L190.78 138.897L190.74 138.989L190.701 139.08L190.661 139.172L190.621 139.264L190.581 139.355L190.541 139.447L190.501 139.538L190.471 139.607L190.445 139.663L190.404 139.755L190.364 139.846L190.324 139.938L190.283 140.029L190.242 140.12L190.202 140.212L190.161 140.303L190.129 140.372L190.103 140.427L190.062 140.518L190.021 140.609L189.98 140.7L189.939 140.791L189.897 140.882L189.856 140.973L189.814 141.064L189.781 141.134L189.755 141.188L189.713 141.279L189.672 141.37L189.63 141.46L189.588 141.551L189.545 141.642L189.503 141.732L189.461 141.823L189.427 141.894L189.401 141.946L189.358 142.037L189.316 142.127L189.273 142.217L189.23 142.307L189.187 142.398L189.144 142.488L189.101 142.578L189.066 142.65L189.04 142.701L188.997 142.791L188.954 142.881L188.91 142.971L188.867 143.061L188.823 143.151L188.779 143.241L188.735 143.33L188.699 143.404L188.673 143.453L188.629 143.543L188.585 143.632L188.541 143.722L188.497 143.811L188.452 143.901L188.408 143.99L188.363 144.08L188.326 144.154L188.3 144.202L188.255 144.291L188.21 144.38L188.165 144.469L188.12 144.559L188.075 144.648L188.03 144.737L187.985 144.826L187.946 144.901L187.921 144.947L187.875 145.036L187.829 145.125L187.784 145.214L187.738 145.303L187.692 145.391L187.646 145.48L187.6 145.569L187.56 145.645L187.535 145.69L187.489 145.778L187.442 145.867L187.396 145.955L187.349 146.044L187.303 146.132L187.256 146.22L187.209 146.308L187.168 146.386L187.143 146.429L187.096 146.517L187.049 146.605L187.002 146.693L186.955 146.781L186.907 146.869L186.86 146.957L186.812 147.045L186.769 147.123L186.745 147.165L186.697 147.252L186.649 147.34L186.601 147.428L186.554 147.515L186.505 147.603L186.457 147.69L186.409 147.778L186.365 147.857L186.341 147.897L186.292 147.984L186.244 148.072L186.195 148.159L186.146 148.246L186.098 148.333L186.049 148.42L186 148.507L185.954 148.587L185.93 148.626L185.881 148.713L185.832 148.8L185.783 148.887L185.733 148.973L185.684 149.06L185.634 149.147L185.584 149.234L185.538 149.314L185.514 149.352L185.464 149.438L185.414 149.525L185.364 149.611L185.314 149.697L185.264 149.784L185.213 149.87L185.163 149.956L185.115 150.038L185.092 150.074L185.041 150.16L184.99 150.246L184.94 150.332L184.889 150.418L184.838 150.504L184.787 150.589L184.736 150.675L184.686 150.758L184.663 150.792L184.612 150.878L184.561 150.963L184.509 151.049L184.457 151.134L184.406 151.22L184.354 151.305L184.302 151.391L184.251 151.474L184.229 151.507L184.177 151.592L184.125 151.677L184.073 151.763L184.02 151.848L183.968 151.933L183.916 152.018L183.863 152.103L183.811 152.187L183.789 152.218L183.736 152.303L183.683 152.388L183.63 152.472L183.577 152.557L183.524 152.642L183.471 152.726L183.418 152.811L183.364 152.895L183.342 152.926L183.289 153.01L183.236 153.094L183.182 153.179L183.128 153.263L183.075 153.347L183.021 153.431L182.967 153.515L182.913 153.599L182.889 153.631L182.836 153.713L182.782 153.797L182.728 153.881L182.673 153.965L182.619 154.048L182.564 154.132L182.51 154.216L182.455 154.299L182.431 154.332L182.378 154.413L182.323 154.496L182.268 154.58L182.213 154.663L182.158 154.746L182.102 154.829L182.047 154.913L181.992 154.996L181.967 155.03L181.914 155.109L181.858 155.191L181.802 155.274L181.747 155.357L181.691 155.44L181.635 155.523L181.579 155.605L181.523 155.688L181.496 155.723L181.444 155.8L181.387 155.883L181.331 155.965L181.274 156.048L181.218 156.13L181.161 156.212L181.105 156.294L181.048 156.377L181.02 156.413L180.968 156.488L180.911 156.57L180.854 156.652L180.797 156.734L180.739 156.816L180.682 156.898L180.625 156.979L180.567 157.061L180.539 157.098L180.486 157.172L180.429 157.254L180.371 157.335L180.313 157.416L180.255 157.498L180.197 157.579L180.139 157.66L180.081 157.742L180.052 157.78L179.999 157.852L179.941 157.933L179.882 158.014L179.824 158.095L179.765 158.176L179.707 158.257L179.648 158.337L179.589 158.418L179.559 158.457L179.506 158.528L179.447 158.608L179.388 158.689L179.329 158.769L179.27 158.85L179.211 158.93L179.151 159.01L179.092 159.09L179.06 159.13L179.008 159.199L178.949 159.279L178.889 159.359L178.829 159.439L178.769 159.519L178.709 159.599L178.649 159.679L178.589 159.759L178.556 159.799L178.504 159.867L178.444 159.946L178.384 160.026L178.323 160.105L178.263 160.185L178.202 160.264L178.141 160.343L178.081 160.423L178.046 160.464L177.995 160.53L177.934 160.609L177.873 160.688L177.812 160.767L177.751 160.846L177.69 160.925L177.628 161.004L177.567 161.083L177.531 161.125L177.48 161.189L177.419 161.268L177.357 161.346L177.295 161.425L177.233 161.503L177.172 161.582L177.11 161.66L177.047 161.738L177.011 161.781L176.96 161.844L176.898 161.922L176.836 162L176.773 162.078L176.711 162.156L176.648 162.234L176.586 162.311L176.523 162.389L176.485 162.433L176.435 162.494L176.372 162.572L176.309 162.649L176.246 162.727L176.183 162.804L176.119 162.882L176.056 162.959L175.993 163.036L175.954 163.081L175.904 163.14L175.84 163.217L175.776 163.294L175.713 163.371L175.649 163.448L175.585 163.525L175.521 163.602L175.457 163.678L175.417 163.724L175.367 163.782L175.303 163.859L175.239 163.935L175.175 164.011L175.11 164.088L175.046 164.164L174.981 164.24L174.917 164.316L174.875 164.363L174.826 164.419L174.761 164.495L174.696 164.571L174.631 164.647L174.566 164.723L174.501 164.799L174.436 164.874L174.371 164.95L174.328 164.997L174.279 165.052L174.214 165.127L174.148 165.203L174.083 165.278L174.017 165.353L173.951 165.428L173.886 165.504L173.82 165.579L173.776 165.627L173.727 165.68L173.661 165.755L173.595 165.83L173.529 165.905L173.463 165.979L173.396 166.054L173.33 166.128L173.264 166.203L173.218 166.252L173.17 166.304L173.104 166.378L173.037 166.452L172.97 166.526L172.903 166.601L172.836 166.675L172.769 166.749L172.702 166.823L172.656 166.872L172.608 166.922L172.541 166.996L172.474 167.07L172.406 167.144L172.339 167.217L172.271 167.291L172.204 167.364L172.136 167.438L172.088 167.488L172.041 167.537L171.973 167.61L171.905 167.683L171.837 167.756L171.769 167.829L171.701 167.902L171.633 167.975L171.564 168.048L171.515 168.099L171.469 168.146L171.4 168.219L171.332 168.292L171.263 168.364L171.194 168.437L171.126 168.509L171.057 168.581L170.988 168.654L170.937 168.705L170.891 168.751L170.822 168.823L170.753 168.895L170.684 168.967L170.615 169.039L170.545 169.111L170.476 169.183L170.407 169.255L170.354 169.307L170.309 169.351L170.239 169.423L170.17 169.494L170.1 169.566L170.03 169.637L169.96 169.708L169.89 169.779L169.82 169.85L169.767 169.903L169.722 169.946L169.652 170.017L169.581 170.088L169.511 170.159L169.441 170.23L169.37 170.3L169.3 170.371L169.229 170.442L169.174 170.495L169.13 170.537L169.059 170.607L168.988 170.677L168.917 170.748L168.846 170.818L168.775 170.888L168.704 170.958L168.633 171.028L168.576 171.082L168.533 171.122L168.462 171.192L168.39 171.261L168.319 171.331L168.247 171.401L168.176 171.47L168.104 171.54L168.032 171.609L167.974 171.664L167.931 171.702L167.859 171.772L167.787 171.841L167.715 171.91L167.643 171.979L167.571 172.048L167.499 172.117L167.426 172.185L167.367 172.241L167.325 172.278L167.252 172.346L167.18 172.415L167.107 172.483L167.035 172.552L166.962 172.62L166.889 172.688L166.816 172.757L166.755 172.812L166.714 172.848L166.641 172.916L166.568 172.984L166.495 173.052L166.421 173.12L166.348 173.188L166.275 173.255L166.201 173.323L166.139 173.379L166.098 173.414L166.025 173.481L165.951 173.548L165.877 173.616L165.803 173.683L165.729 173.75L165.655 173.817L165.581 173.884L165.518 173.941L165.478 173.974L165.404 174.041L165.329 174.107L165.255 174.174L165.181 174.241L165.106 174.307L165.032 174.374L164.957 174.44L164.892 174.497L164.853 174.529L164.778 174.595L164.703 174.661L164.628 174.727L164.554 174.793L164.479 174.859L164.404 174.925L164.328 174.991L164.262 175.048L164.223 175.079L164.148 175.144L164.073 175.21L163.997 175.275L163.922 175.341L163.846 175.406L163.771 175.471L163.695 175.536L163.627 175.594L163.589 175.624L163.513 175.689L163.438 175.753L163.362 175.818L163.286 175.883L163.21 175.948L163.134 176.012L163.057 176.077L162.988 176.135L162.951 176.163L162.874 176.227L162.798 176.292L162.722 176.356L162.645 176.42L162.569 176.484L162.492 176.548L162.415 176.612L162.344 176.671L162.308 176.697L162.231 176.761L162.154 176.825L162.077 176.888L162 176.952L161.923 177.015L161.846 177.078L161.769 177.141L161.696 177.201L161.661 177.226L161.583 177.289L161.506 177.352L161.428 177.415L161.351 177.478L161.273 177.541L161.196 177.603L161.118 177.666L161.043 177.725L161.009 177.749L160.931 177.812L160.853 177.874L160.775 177.937L160.697 177.999L160.619 178.061L160.541 178.123L160.463 178.185L160.387 178.245L160.353 178.268L160.275 178.329L160.196 178.391L160.118 178.453L160.039 178.514L159.961 178.576L159.882 178.637L159.803 178.698L159.726 178.758L159.693 178.78L159.614 178.841L159.535 178.902L159.456 178.963L159.377 179.024L159.298 179.085L159.219 179.146L159.14 179.206L159.06 179.267L159.029 179.287L158.949 179.348L158.87 179.408L158.79 179.468L158.711 179.529L158.631 179.589L158.552 179.649L158.472 179.709L158.392 179.769L158.359 179.79L158.28 179.849L158.201 179.908L158.121 179.968L158.04 180.028L157.96 180.087L157.88 180.147L157.8 180.206L157.72 180.265L157.686 180.287L157.607 180.344L157.527 180.403L157.447 180.462L157.366 180.521L157.285 180.58L157.205 180.639L157.124 180.697L157.043 180.756L157.008 180.778L156.93 180.834L156.849 180.892L156.768 180.951L156.687 181.009L156.606 181.067L156.525 181.125L156.444 181.183L156.363 181.241L156.326 181.264L156.249 181.318L156.168 181.376L156.086 181.433L156.005 181.491L155.923 181.548L155.842 181.606L155.76 181.663L155.678 181.721L155.64 181.744L155.564 181.797L155.482 181.854L155.4 181.911L155.318 181.968L155.236 182.024L155.154 182.081L155.072 182.138L154.99 182.194L154.951 182.218L154.875 182.269L154.793 182.326L154.71 182.382L154.628 182.438L154.546 182.494L154.463 182.551L154.38 182.606L154.298 182.662L154.257 182.687L154.182 182.737L154.099 182.792L154.017 182.848L153.934 182.903L153.851 182.959L153.768 183.014L153.685 183.069L153.602 183.125L153.56 183.149L153.486 183.198L153.402 183.253L153.319 183.308L153.236 183.363L153.152 183.417L153.069 183.472L152.985 183.527L152.902 183.581L152.858 183.606L152.785 183.653L152.701 183.708L152.618 183.762L152.534 183.816L152.45 183.87L152.366 183.924L152.282 183.978L152.198 184.032L152.153 184.058L152.081 184.103L151.997 184.157L151.913 184.21L151.828 184.264L151.744 184.317L151.66 184.37L151.575 184.424L151.491 184.477L151.445 184.503L151.373 184.547L151.288 184.6L151.204 184.653L151.119 184.706L151.034 184.758L150.95 184.811L150.865 184.863L150.78 184.916L150.732 184.942L150.662 184.985L150.577 185.037L150.491 185.089L150.406 185.141L150.321 185.193L150.236 185.245L150.151 185.297L150.065 185.349L150.016 185.376L149.946 185.417L149.861 185.468L149.776 185.52L149.69 185.571L149.604 185.623L149.519 185.674L149.433 185.725L149.347 185.776L149.297 185.803L149.228 185.843L149.142 185.894L149.056 185.945L148.97 185.995L148.884 186.046L148.798 186.096L148.712 186.147L148.626 186.197L148.574 186.225L148.506 186.263L148.419 186.313L148.333 186.363L148.247 186.413L148.16 186.463L148.074 186.513L147.987 186.562L147.901 186.612L147.847 186.64L147.78 186.677L147.693 186.727L147.607 186.776L147.52 186.825L147.433 186.874L147.346 186.923L147.259 186.972L147.172 187.021L147.118 187.049L147.051 187.085L146.964 187.134L146.877 187.182L146.79 187.231L146.702 187.279L146.615 187.328L146.528 187.376L146.44 187.424L146.384 187.453L146.319 187.487L146.231 187.535L146.144 187.583L146.056 187.631L145.969 187.678L145.881 187.726L145.793 187.773L145.705 187.821L145.648 187.85L145.583 187.883L145.495 187.93L145.407 187.977L145.319 188.024L145.231 188.071L145.143 188.118L145.055 188.165L144.967 188.212L144.908 188.241L144.844 188.273L144.756 188.319L144.668 188.366L144.579 188.412L144.491 188.458L144.402 188.504L144.314 188.55L144.225 188.596L144.165 188.626L144.102 188.656L144.014 188.702L143.925 188.748L143.836 188.793L143.747 188.839L143.659 188.884L143.57 188.929L143.481 188.975L143.419 189.004L143.357 189.034L143.268 189.079L143.179 189.123L143.09 189.168L143.001 189.213L142.911 189.258L142.822 189.302L142.733 189.347L142.669 189.376L142.609 189.405L142.519 189.449L142.43 189.493L142.34 189.537L142.251 189.581L142.161 189.625L142.072 189.669L141.982 189.713L141.917 189.743L141.857 189.769L141.768 189.813L141.678 189.856L141.588 189.9L141.498 189.943L141.408 189.986L141.318 190.029L141.228 190.072L141.162 190.102L141.103 190.128L141.013 190.171L140.923 190.213L140.833 190.256L140.742 190.299L140.652 190.341L140.562 190.383L140.471 190.425L140.403 190.456L140.346 190.48L140.255 190.522L140.165 190.564L140.074 190.606L139.984 190.648L139.893 190.689L139.802 190.731L139.712 190.772L139.642 190.803L139.586 190.826L139.495 190.867L139.404 190.909L139.313 190.95L139.222 190.991L139.131 191.032L139.04 191.072L138.949 191.113L138.878 191.143L138.823 191.166L138.731 191.206L138.64 191.247L138.549 191.287L138.458 191.327L138.367 191.367L138.275 191.407L138.184 191.447L138.111 191.478L138.057 191.499L137.965 191.539L137.874 191.578L137.782 191.618L137.691 191.657L137.599 191.697L137.507 191.736L137.416 191.775L137.342 191.806L137.288 191.826L137.196 191.865L137.105 191.904L137.013 191.942L136.921 191.981L136.829 192.02L136.737 192.058L136.645 192.097L136.569 192.127L136.517 192.146L136.425 192.184L136.333 192.222L136.241 192.26L136.148 192.298L136.056 192.336L135.964 192.374L135.872 192.412L135.794 192.442L135.743 192.46L135.651 192.497L135.558 192.535L135.466 192.572L135.373 192.609L135.281 192.646L135.188 192.683L135.096 192.72L135.017 192.75L134.967 192.767L134.874 192.804L134.781 192.841L134.689 192.877L134.596 192.913L134.503 192.95L134.41 192.986L134.317 193.022L134.237 193.052L134.188 193.068L134.095 193.104L134.002 193.14L133.909 193.176L133.816 193.211L133.723 193.247L133.629 193.282L133.536 193.318L133.454 193.348L133.407 193.363L133.313 193.398L133.22 193.433L133.127 193.468L133.033 193.503L132.94 193.537L132.846 193.572L132.753 193.606L132.669 193.637L132.623 193.65L132.529 193.685L132.436 193.719L132.342 193.753L132.248 193.787L132.154 193.821L132.061 193.855L131.967 193.889L131.882 193.919L131.837 193.932L131.743 193.965L131.649 193.999L131.555 194.032L131.461 194.065L131.367 194.099L131.273 194.132L131.179 194.165L131.092 194.194L131.048 194.206L130.954 194.239L130.86 194.272L130.766 194.304L130.671 194.337L130.577 194.369L130.483 194.402L130.388 194.434L130.3 194.463L130.258 194.474L130.163 194.506L130.069 194.538L129.974 194.57L129.88 194.602L129.785 194.633L129.691 194.665L129.596 194.696L129.506 194.726L129.465 194.736L129.37 194.767L129.275 194.798L129.181 194.829L129.086 194.86L128.991 194.891L128.896 194.922L128.801 194.952L128.71 194.981L128.67 194.991L128.575 195.021L128.48 195.051L128.385 195.082L128.29 195.112L128.195 195.142L128.1 195.172L128.004 195.202L127.911 195.231L127.873 195.239L127.777 195.269L127.682 195.298L127.587 195.327L127.492 195.357L127.396 195.386L127.301 195.415L127.206 195.444L127.111 195.473L127.074 195.48L126.978 195.509L126.883 195.538L126.787 195.567L126.692 195.595L126.596 195.624L126.501 195.652L126.405 195.68L126.309 195.708L126.272 195.715L126.177 195.743L126.081 195.771L125.985 195.799L125.89 195.827L125.794 195.854L125.698 195.882L125.602 195.909L125.506 195.937L125.468 195.944L125.374 195.971L125.278 195.998L125.182 196.025L125.086 196.052L124.99 196.078L124.894 196.105L124.798 196.132L124.702 196.158L124.661 196.166L124.569 196.191L124.472 196.217L124.376 196.244L124.28 196.27L124.184 196.296L124.088 196.322L123.991 196.348L123.895 196.373L123.853 196.381L123.762 196.405L123.665 196.43L123.569 196.456L123.473 196.481L123.376 196.506L123.28 196.532L123.183 196.557L123.087 196.582L123.044 196.589L122.953 196.612L122.857 196.637L122.76 196.661L122.663 196.686L122.567 196.71L122.47 196.735L122.373 196.759L122.277 196.783L122.232 196.791L122.143 196.812L122.046 196.836L121.949 196.86L121.853 196.884L121.756 196.908L121.659 196.931L121.562 196.954L121.465 196.978L121.419 196.985L121.331 197.006L121.234 197.029L121.137 197.052L121.04 197.075L120.943 197.098L120.846 197.121L120.749 197.143L120.652 197.166L120.604 197.173L120.518 197.193L120.42 197.215L120.323 197.237L120.226 197.259L120.129 197.281L120.032 197.303L119.934 197.325L119.837 197.347L119.788 197.354L119.703 197.373L119.605 197.394L119.508 197.416L119.411 197.437L119.313 197.458L119.216 197.479L119.118 197.5L119.021 197.521L118.971 197.529L118.886 197.546L118.789 197.567L118.691 197.587L118.594 197.608L118.496 197.628L118.399 197.648L118.301 197.669L118.203 197.689L118.152 197.696L118.068 197.712L117.971 197.732L117.873 197.752L117.775 197.772L117.678 197.791L117.58 197.811L117.482 197.83L117.384 197.849L117.331 197.857L117.249 197.872L117.151 197.891L117.054 197.91L116.956 197.929L116.858 197.948L116.76 197.966L116.662 197.985L116.564 198.003L116.51 198.011L116.429 198.025L116.331 198.043L116.233 198.061L116.135 198.079L116.037 198.097L115.939 198.115L115.841 198.133L115.743 198.15L115.687 198.158L115.607 198.171L115.509 198.188L115.411 198.205L115.313 198.223L115.215 198.24L115.117 198.257L115.018 198.274L114.92 198.291L114.863 198.298L114.784 198.31L114.686 198.326L114.588 198.343L114.49 198.359L114.391 198.376L114.293 198.392L114.195 198.408L114.096 198.424L114.037 198.431L113.961 198.442L113.862 198.458L113.833 198.464L113.808 198.469L113.784 198.475L113.76 198.48L113.735 198.485L113.711 198.49L113.724 198.487L113.723 198.487L113.698 198.491L113.673 198.496L113.649 198.501L113.624 198.505L113.6 198.51L113.575 198.514L113.55 198.518L113.562 198.515L113.562 198.514L113.537 198.518L113.513 198.522L113.488 198.526L113.463 198.529L113.438 198.533L113.414 198.537L113.389 198.54L113.399 198.536L113.4 198.535L113.375 198.538L113.351 198.541L113.326 198.544L113.301 198.547L113.276 198.55L113.251 198.553L113.226 198.556L113.235 198.552L113.237 198.549L113.212 198.551L113.187 198.554L113.162 198.556L113.137 198.558L113.112 198.56L113.087 198.562L113.061 198.564L113.069 198.56L113.072 198.557L113.047 198.558L113.022 198.56L112.997 198.562L112.971 198.563L112.946 198.564L112.921 198.566L112.896 198.567L112.901 198.562L112.906 198.558L112.881 198.559L112.856 198.56L112.83 198.561L112.805 198.561L112.779 198.562L112.754 198.562L112.728 198.563L112.733 198.558L112.739 198.553L112.713 198.553L112.688 198.553L112.662 198.553L112.637 198.553L112.611 198.553L112.585 198.553L112.56 198.552L112.563 198.547L112.57 198.541L112.544 198.541L112.519 198.54L112.493 198.539L112.467 198.539L112.441 198.538L112.416 198.537L112.39 198.535L112.391 198.53L112.4 198.523L112.374 198.522L112.348 198.521L112.322 198.519L112.296 198.517L112.27 198.516L112.244 198.514L112.218 198.512L112.218 198.506L112.228 198.499L112.202 198.497L112.176 198.495L112.15 198.492L112.124 198.49L112.098 198.487L112.072 198.485L112.046 198.482L112.044 198.476L112.055 198.468L112.029 198.465L112.003 198.462L111.977 198.459L111.951 198.456L111.924 198.453L111.898 198.449L111.872 198.446L111.869 198.439L111.881 198.431L111.855 198.427L111.829 198.423L111.802 198.419L111.776 198.415L111.749 198.411L111.723 198.407L111.697 198.403L111.692 198.396L111.706 198.387L111.679 198.382L111.653 198.378L111.626 198.373L111.6 198.369L111.573 198.364L111.547 198.359L111.52 198.354L111.514 198.346L111.529 198.337L111.502 198.331L111.476 198.326L111.449 198.321L111.422 198.315L111.396 198.31L111.369 198.304L111.342 198.298L111.334 198.29L111.351 198.28L111.324 198.274L111.297 198.268L111.27 198.262L111.243 198.255L111.217 198.249L111.19 198.242L111.163 198.236L111.153 198.228L111.171 198.217L111.144 198.21L111.117 198.203L111.09 198.196L111.063 198.189L111.037 198.182L111.009 198.175L110.982 198.167L110.971 198.159L110.991 198.147L110.964 198.139L110.936 198.132L110.909 198.124L110.882 198.116L110.855 198.108L110.828 198.1L110.801 198.092L110.788 198.083L110.809 198.071L110.781 198.063L110.754 198.054L110.727 198.046L110.7 198.037L110.672 198.028L110.645 198.02L110.618 198.011L110.604 198.001L110.626 197.988L110.598 197.979L110.571 197.97L110.543 197.961L110.516 197.952L110.489 197.942L110.461 197.933L110.434 197.923L110.418 197.913L110.441 197.9L110.414 197.89L110.386 197.88L110.359 197.87L110.331 197.86L110.303 197.849L110.276 197.839L110.248 197.829L110.231 197.818L110.256 197.804L110.228 197.794L110.2 197.783L110.173 197.772L110.145 197.761L110.117 197.75L110.089 197.739L110.062 197.728L110.043 197.716L110.069 197.703L110.041 197.691L110.013 197.68L109.985 197.668L109.958 197.657L109.93 197.645L109.902 197.633L109.874 197.621L109.853 197.609L109.881 197.594L109.853 197.582L109.825 197.57L109.797 197.558L109.769 197.545L109.741 197.533L109.713 197.52L109.685 197.508L109.663 197.495L109.691 197.48L109.663 197.467L109.635 197.454L109.607 197.441L109.579 197.428L109.551 197.415L109.523 197.401L109.495 197.388L109.471 197.374L109.501 197.359L109.473 197.346L109.445 197.332L109.416 197.318L109.388 197.304L109.36 197.29L109.332 197.276L109.304 197.262L109.278 197.247L109.309 197.232L109.281 197.218L109.253 197.203L109.225 197.188L109.196 197.174L109.168 197.159L109.139 197.144L109.111 197.129L109.084 197.114L109.117 197.099L109.088 197.083L109.06 197.068L109.031 197.053L109.003 197.037L108.975 197.022L108.946 197.006L108.917 196.99L108.889 196.975L108.923 196.959L108.918 196.919L108.952 196.841L108.985 196.763L109.019 196.684L109.053 196.605L109.087 196.527L109.121 196.448L109.155 196.37L109.189 196.335L109.222 196.275L109.256 196.196L109.29 196.117L109.324 196.038L109.358 195.96L109.391 195.881L109.425 195.802L109.459 195.723L109.492 195.687L109.526 195.628L109.56 195.549L109.593 195.47L109.627 195.391L109.661 195.312L109.694 195.232L109.728 195.153L109.761 195.074L109.795 195.036L109.829 194.978L109.862 194.899L109.896 194.82L109.929 194.74L109.963 194.661L109.996 194.582L110.03 194.502L110.063 194.423L110.096 194.383L110.13 194.326L110.163 194.247L110.197 194.167L110.23 194.088L110.263 194.008L110.297 193.928L110.33 193.849L110.363 193.769L110.397 193.728L110.43 193.672L110.463 193.592L110.496 193.513L110.53 193.433L110.563 193.353L110.596 193.273L110.629 193.193L110.663 193.113L110.696 193.07L110.729 193.016L110.762 192.935L110.795 192.855L110.828 192.775L110.861 192.695L110.894 192.615L110.927 192.535L110.96 192.455L110.993 192.41L111.026 192.357L111.059 192.276L111.092 192.196L111.125 192.116L111.158 192.035L111.191 191.955L111.224 191.874L111.257 191.794L111.29 191.748L111.323 191.695L111.356 191.615L111.388 191.534L111.421 191.454L111.454 191.373L111.487 191.292L111.52 191.212L111.552 191.131L111.585 191.083L111.618 191.032L111.651 190.951L111.683 190.87L111.716 190.789L111.749 190.708L111.781 190.627L111.814 190.546L111.846 190.465L111.879 190.416L111.912 190.366L111.944 190.285L111.977 190.204L112.009 190.122L112.042 190.041L112.074 189.96L112.107 189.879L112.139 189.798L112.172 189.746L112.204 189.697L112.236 189.616L112.269 189.535L112.301 189.453L112.334 189.372L112.366 189.29L112.398 189.209L112.431 189.128L112.463 189.074L112.495 189.027L112.527 188.945L112.56 188.864L112.592 188.782L112.624 188.7L112.656 188.619L112.688 188.537L112.721 188.455L112.753 188.4L112.785 188.354L112.817 188.272L112.849 188.19L112.881 188.108L112.913 188.026L112.945 187.944L112.977 187.862L113.009 187.78L113.041 187.724L113.073 187.679L113.105 187.597L113.137 187.515L113.169 187.432L113.201 187.35L113.233 187.268L113.265 187.186L113.297 187.103L113.328 187.045L113.36 187.001L113.392 186.919L113.424 186.837L113.456 186.754L113.487 186.672L113.519 186.589L113.551 186.507L113.582 186.424L113.614 186.364L113.646 186.322L113.677 186.239L113.709 186.156L113.741 186.074L113.772 185.991L113.804 185.908L113.835 185.826L113.867 185.743L113.898 185.681L113.93 185.64L113.961 185.557L113.993 185.474L114.024 185.391L114.056 185.308L114.087 185.225L114.118 185.142L114.15 185.059L114.181 184.996L114.212 184.955L114.244 184.872L114.275 184.789L114.306 184.706L114.338 184.623L114.369 184.54L114.4 184.456L114.431 184.373L114.462 184.308L114.494 184.269L114.525 184.185L114.556 184.102L114.587 184.019L114.618 183.935L114.649 183.852L114.68 183.768L114.711 183.685L114.742 183.618L114.773 183.58L114.804 183.496L114.835 183.413L114.866 183.329L114.897 183.245L114.928 183.162L114.959 183.078L114.99 182.994L115.021 182.926L115.051 182.889L115.082 182.805L115.113 182.721L115.144 182.638L115.175 182.554L115.205 182.47L115.236 182.386L115.267 182.302L115.297 182.232L115.328 182.196L115.359 182.112L115.389 182.028L115.42 181.944L115.45 181.859L115.481 181.775L115.512 181.691L115.542 181.607L115.573 181.535L115.603 181.501L115.634 181.416L115.664 181.332L115.694 181.247L115.725 181.163L115.755 181.079L115.786 180.994L115.816 180.91L115.846 180.836L115.877 180.803L115.907 180.718L115.937 180.634L115.967 180.549L115.998 180.465L116.028 180.38L116.058 180.295L116.088 180.21L116.118 180.135L116.148 180.103L116.179 180.018L116.209 179.934L116.239 179.849L116.269 179.764L116.299 179.679L116.329 179.594L116.359 179.509L116.389 179.432L116.419 179.401L116.449 179.316L116.479 179.231L116.508 179.146L116.538 179.061L116.568 178.976L116.598 178.891L116.628 178.805L116.658 178.727L116.687 178.697L116.717 178.612L116.747 178.527L116.777 178.441L116.806 178.356L116.836 178.27L116.866 178.185L116.895 178.1L116.925 178.02L116.954 177.991L116.984 177.906L117.014 177.82L117.043 177.734L117.073 177.649L117.102 177.563L117.132 177.477L117.161 177.392L117.19 177.31L117.22 177.283L117.249 177.197L117.279 177.111L117.308 177.025L117.337 176.939L117.366 176.853L117.396 176.768L117.425 176.682L117.454 176.598L117.483 176.572L117.513 176.486L117.542 176.4L117.571 176.314L117.6 176.228L117.629 176.142L117.658 176.056L117.687 175.969L117.716 175.885L117.745 175.86L117.774 175.773L117.803 175.687L117.832 175.601L117.861 175.514L117.89 175.428L117.919 175.342L117.948 175.255L117.977 175.169L118.006 175.145L118.034 175.058L118.063 174.972L118.092 174.885L118.121 174.799L118.149 174.712L118.178 174.626L118.207 174.539L118.236 174.452L118.264 174.426L118.293 174.341L118.321 174.255L118.35 174.168L118.378 174.081L118.407 173.994L118.435 173.907L118.464 173.82L118.492 173.734L118.521 173.706L118.549 173.622L118.578 173.535L118.606 173.448L118.634 173.361L118.663 173.274L118.691 173.187L118.719 173.1L118.748 173.013L118.776 172.984L118.804 172.901L118.832 172.814L118.86 172.727L118.889 172.639L118.917 172.552L118.945 172.465L118.973 172.377L119.001 172.29L119.029 172.259L119.057 172.178L119.085 172.09L119.113 172.003L119.141 171.915L119.169 171.828L119.197 171.74L119.225 171.653L119.253 171.565L119.28 171.533L119.308 171.452L119.336 171.365L119.364 171.277L119.391 171.189L119.419 171.102L119.447 171.014L119.475 170.926L119.502 170.838L119.53 170.804L119.557 170.725L119.585 170.637L119.613 170.549L119.64 170.461L119.668 170.374L119.695 170.285L119.723 170.197L119.75 170.109L119.778 170.074L119.805 169.996L119.832 169.908L119.86 169.82L119.887 169.731L119.914 169.643L119.942 169.555L119.969 169.467L119.996 169.379L120.023 169.341L120.05 169.264L120.078 169.176L120.105 169.088L120.132 168.999L120.159 168.911L120.186 168.823L120.213 168.734L120.24 168.646L120.267 168.607L120.294 168.531L120.321 168.443L120.348 168.354L120.375 168.265L120.402 168.177L120.429 168.088L120.456 167.999L120.482 167.911L120.509 167.87L120.536 167.796L120.563 167.707L120.589 167.618L120.616 167.529L120.643 167.441L120.669 167.352L120.696 167.263L120.723 167.174L120.749 167.132L120.776 167.059L120.802 166.97L120.829 166.881L120.855 166.792L120.882 166.702L120.908 166.613L120.935 166.524L120.961 166.435L120.987 166.391L121.014 166.319L121.04 166.23L121.066 166.141L121.093 166.052L121.119 165.962L121.145 165.873L121.171 165.784L121.197 165.694L121.223 165.649L121.25 165.578L121.276 165.489L121.302 165.399L121.328 165.31L121.354 165.22L121.38 165.131L121.406 165.041L121.432 164.952L121.458 164.904L121.484 164.835L121.509 164.745L121.535 164.656L121.561 164.566L121.587 164.476L121.613 164.387L121.638 164.297L121.664 164.207L121.69 164.158L121.715 164.09L121.741 164L121.767 163.91L121.792 163.82L121.818 163.731L121.843 163.641L121.869 163.551L121.894 163.461L121.92 163.41L121.945 163.343L121.971 163.253L121.996 163.163L122.022 163.073L122.047 162.983L122.072 162.893L122.097 162.802L122.123 162.712L122.148 162.66L122.173 162.594L122.198 162.504L122.224 162.414L122.249 162.323L122.274 162.233L122.299 162.143L122.324 162.052L122.349 161.962L122.374 161.908L122.399 161.844L122.424 161.753L122.449 161.663L122.474 161.572L122.499 161.482L122.523 161.391L122.548 161.3L122.573 161.21L122.598 161.154L122.623 161.091L122.647 161L122.672 160.91L122.697 160.819L122.721 160.728L122.746 160.637L122.771 160.547L122.795 160.456L122.82 160.399L122.844 160.337L122.869 160.246L122.893 160.155L122.918 160.064L122.942 159.973L122.966 159.882L122.991 159.791L123.015 159.7L123.039 159.641L123.064 159.58L123.088 159.489L123.112 159.398L123.136 159.307L123.161 159.216L123.185 159.125L123.209 159.034L123.233 158.942L123.257 158.882L123.281 158.822L123.305 158.731L123.329 158.64L123.353 158.549L123.377 158.457L123.401 158.366L123.425 158.274L123.449 158.183L123.472 158.121L123.496 158.063L123.52 157.971L123.544 157.88L123.568 157.788L123.591 157.697L123.615 157.605L123.639 157.513L123.662 157.422L123.686 157.358L123.709 157.301L123.733 157.209L123.756 157.118L123.78 157.026L123.803 156.934L123.827 156.842L123.85 156.751L123.873 156.659L123.897 156.593L123.92 156.538L123.943 156.446L123.967 156.354L123.99 156.262L124.013 156.17L124.036 156.078L124.059 155.986L124.083 155.894L124.106 155.827L124.129 155.772L124.152 155.68L124.175 155.588L124.198 155.496L124.221 155.404L124.244 155.312L124.267 155.22L124.289 155.128L124.312 155.059L124.335 155.006L124.358 154.913L124.381 154.821L124.403 154.729L124.426 154.636L124.449 154.544L124.471 154.452L124.494 154.359L124.517 154.289L124.539 154.237L124.562 154.144L124.584 154.052L124.607 153.959L124.629 153.867L124.652 153.774L124.674 153.682L124.696 153.589L124.719 153.517L124.741 153.467L124.763 153.374L124.785 153.281L124.808 153.189L124.83 153.096L124.852 153.003L124.874 152.91L124.896 152.818L124.918 152.744L124.94 152.695L124.962 152.602L124.984 152.509L125.006 152.416L125.028 152.323L125.05 152.23L125.072 152.137L125.094 152.044L125.116 151.969L125.138 151.921L125.159 151.828L125.181 151.735L125.203 151.642L125.225 151.549L125.246 151.456L125.268 151.362L125.289 151.269L125.311 151.192L125.333 151.145L125.354 151.052L125.376 150.959L125.397 150.866L125.418 150.772L125.44 150.679L125.461 150.586L125.482 150.493L125.504 150.414L125.525 150.368L125.546 150.275L125.568 150.182L125.589 150.088L125.61 149.995L125.631 149.901L125.652 149.808L125.673 149.714L125.694 149.634L125.715 149.59L125.736 149.496L125.757 149.403L125.778 149.309L125.799 149.215L125.82 149.122L125.841 149.028L125.861 148.934L125.882 148.853L125.903 148.809L125.924 148.716L125.944 148.622L125.965 148.528L125.986 148.434L126.006 148.34L126.027 148.247L126.047 148.153L126.068 148.07L126.088 148.027L126.109 147.934L126.129 147.84L126.15 147.746L126.17 147.652L126.19 147.558L126.211 147.464L126.231 147.37L126.251 147.285L126.271 147.244L126.291 147.15L126.312 147.056L126.332 146.962L126.352 146.868L126.372 146.773L126.392 146.679L126.412 146.585L126.432 146.498L126.452 146.459L126.472 146.365L126.492 146.27L126.511 146.176L126.531 146.082L126.551 145.987L126.571 145.893L126.59 145.799L126.61 145.711L126.63 145.672L126.649 145.578L126.669 145.484L126.689 145.389L126.708 145.295L126.728 145.2L126.747 145.106L126.766 145.011L126.786 144.921L126.805 144.884L126.825 144.79L126.844 144.695L126.863 144.6L126.882 144.506L126.902 144.411L126.921 144.316L126.94 144.222L126.959 144.13L126.978 144.095L126.997 144L127.016 143.905L127.035 143.81L127.054 143.715L127.073 143.621L127.092 143.526L127.111 143.431L127.13 143.338L127.149 143.304L127.167 143.209L127.186 143.114L127.205 143.019L127.224 142.924L127.242 142.829L127.261 142.734L127.28 142.639L127.298 142.544L127.317 142.511L127.335 142.416L127.354 142.321L127.372 142.226L127.39 142.13L127.409 142.035L127.427 141.94L127.445 141.845L127.464 141.75L127.482 141.716L127.5 141.622L127.518 141.526L127.536 141.431L127.555 141.336L127.573 141.24L127.591 141.145L127.609 141.05L127.627 140.954L127.645 140.919L127.663 140.826L127.681 140.731L127.698 140.635L127.716 140.54L127.734 140.444L127.752 140.349L127.77 140.253L127.787 140.158L127.805 140.121L127.823 140.029L127.84 139.933L127.858 139.838L127.875 139.742L127.893 139.646L127.91 139.551L127.928 139.455L127.945 139.359L127.962 139.321L127.98 139.23L127.997 139.135L128.014 139.039L128.032 138.943L128.049 138.847L128.066 138.751L128.083 138.656L128.1 138.56L128.117 138.52L128.134 138.431L128.151 138.335L128.168 138.239L128.185 138.143L128.202 138.047L128.219 137.951L128.236 137.855L128.253 137.759L128.269 137.717L128.286 137.629L128.303 137.533L128.32 137.437L128.336 137.341L128.353 137.245L128.369 137.149L128.386 137.053L128.402 136.957L128.419 136.913L128.435 136.827L128.452 136.731L128.468 136.634L128.485 136.538L128.501 136.442L128.517 136.346L128.533 136.249L128.55 136.153L128.566 136.108L128.582 136.023L128.598 135.927L128.614 135.83L128.63 135.734L128.646 135.637L128.662 135.541L128.678 135.445L128.694 135.348L128.71 135.302L128.726 135.218L128.742 135.121L128.757 135.025L128.773 134.928L128.789 134.832L128.804 134.735L128.82 134.639L128.836 134.542L128.851 134.494L128.867 134.411L128.882 134.315L128.898 134.218L128.913 134.121L128.929 134.025L128.944 133.928L128.959 133.831L128.975 133.734L128.99 133.685L129.005 133.603L129.02 133.507L129.035 133.41L129.05 133.313L129.066 133.216L129.081 133.119L129.096 133.023L129.111 132.926L129.126 132.875L129.14 132.795L129.155 132.698L129.17 132.601L129.185 132.504L129.2 132.407L129.215 132.31L129.229 132.213L129.244 132.116L129.259 132.063L129.273 131.984L129.288 131.887L129.302 131.79L129.317 131.693L129.331 131.596L129.346 131.499L129.36 131.402L129.374 131.305L129.389 131.251L129.403 131.173L129.417 131.076L129.431 130.979L129.446 130.881L129.46 130.784L129.474 130.687L129.488 130.59L129.502 130.492L129.516 130.437L129.53 130.36L129.544 130.263L129.558 130.166L129.572 130.068L129.585 129.971L129.599 129.874L129.613 129.776L129.627 129.679L129.64 129.622L129.654 129.547L129.668 129.449L129.681 129.352L129.695 129.254L129.708 129.157L129.722 129.059L129.735 128.962L129.749 128.864L129.762 128.806L129.775 128.732L129.789 128.634L129.802 128.537L129.815 128.439L129.828 128.342L129.841 128.244L129.855 128.146L129.868 128.049L129.881 127.988L129.894 127.916L129.907 127.818L129.92 127.721L129.932 127.623L129.945 127.525L129.958 127.428L129.971 127.33L129.984 127.232L129.996 127.17L130.009 127.099L130.022 127.001L130.034 126.903L130.047 126.806L130.059 126.708L130.072 126.61L130.084 126.512L130.097 126.414L130.109 126.351L130.122 126.281L130.134 126.183L130.146 126.085L130.158 125.987L130.171 125.889L130.183 125.791L130.195 125.693L130.207 125.595L130.219 125.53L130.231 125.462L130.243 125.364L130.255 125.266L130.267 125.168L130.279 125.07L130.291 124.972L130.302 124.874L130.314 124.775L130.326 124.709L130.338 124.642L130.349 124.544L130.361 124.446L130.372 124.347L130.384 124.249L130.396 124.151L130.407 124.053L130.418 123.955L130.43 123.886L130.441 123.821L130.452 123.722L130.464 123.624L130.475 123.526L130.486 123.428L130.497 123.329L130.509 123.231L130.52 123.133L130.531 123.063L130.542 122.999L130.553 122.9L130.564 122.802L130.575 122.704L130.585 122.605L130.596 122.507L130.607 122.408L130.618 122.31L130.629 122.239L130.639 122.176L130.65 122.077L130.66 121.979L130.671 121.88L130.682 121.782L130.692 121.683L130.703 121.585L130.713 121.486L130.723 121.414L130.734 121.352L130.744 121.253L130.754 121.155L130.764 121.056L130.775 120.958L130.785 120.859L130.795 120.76L130.805 120.662L130.815 120.588L130.825 120.527L130.835 120.428L130.845 120.33L130.855 120.231L130.865 120.133L130.874 120.034L130.884 119.935L130.894 119.836L130.904 119.761L130.913 119.702L130.923 119.603L130.933 119.504L130.942 119.405L130.952 119.307L130.961 119.208L130.97 119.109L130.98 119.01L130.989 118.933L130.999 118.875L131.008 118.776L131.017 118.677L131.026 118.579L131.035 118.48L131.045 118.381L131.054 118.282L131.063 118.183L131.072 118.104L131.081 118.048L131.09 117.949L131.098 117.85L131.107 117.751L131.116 117.652L131.125 117.553L131.134 117.454L131.142 117.355L131.151 117.275L131.16 117.22L131.168 117.121L131.177 117.022L131.185 116.923L131.194 116.824L131.202 116.725L131.21 116.626L131.219 116.527L131.227 116.445L131.235 116.391L131.244 116.292L131.252 116.193L131.26 116.094L131.268 115.995L131.276 115.896L131.284 115.797L131.292 115.698L131.3 115.614L131.308 115.562L131.316 115.463L131.324 115.363L131.331 115.264L131.339 115.165L131.347 115.066L131.355 114.967L131.362 114.868L131.37 114.783L131.377 114.732L131.385 114.632L131.392 114.533L131.4 114.434L131.407 114.335L131.415 114.235L131.422 114.136L131.429 114.037L131.436 113.95L131.444 113.901L131.451 113.802L131.458 113.702L131.465 113.603L131.472 113.504L131.479 113.404L131.486 113.305L131.493 113.206L131.5 113.118L131.507 113.069L131.514 112.97L131.52 112.871L131.527 112.771L131.534 112.672L131.54 112.573L131.547 112.473L131.553 112.374L131.56 112.284L131.567 112.237L131.573 112.138L131.579 112.039L131.586 111.939L131.592 111.84L131.598 111.74L131.605 111.641L131.611 111.541L131.617 111.45L131.623 111.405L131.629 111.305L131.635 111.206L131.641 111.106L131.647 111.007L131.653 110.907L131.659 110.808L131.665 110.708L131.671 110.616L131.676 110.572L131.682 110.472L131.688 110.373L131.693 110.273L131.699 110.174L131.705 110.074L131.71 109.974L131.716 109.875L131.721 109.781L131.726 109.738L131.732 109.639L131.737 109.539L131.742 109.439L131.748 109.34L131.753 109.24L131.758 109.14L131.763 109.041L131.768 108.945L131.773 108.904L131.778 108.804L131.783 108.705L131.788 108.605L131.793 108.505L131.798 108.406L131.803 108.306L131.807 108.206L131.812 108.109L131.817 108.069L131.821 107.97L131.826 107.87L131.83 107.77L131.835 107.671L131.839 107.571L131.844 107.471L131.848 107.372L131.853 107.273L131.857 107.235L131.861 107.135L131.865 107.035L131.87 106.935L131.874 106.836L131.878 106.736L131.882 106.636L131.886 106.536L131.89 106.436L131.894 106.399L131.898 106.299L131.901 106.2L131.905 106.1L131.909 106L131.913 105.9L131.916 105.8L131.92 105.701L131.924 105.601L131.927 105.562L131.931 105.464L131.934 105.364L131.938 105.264L131.941 105.164L131.944 105.064L131.948 104.965L131.951 104.865L131.954 104.765L131.957 104.724L131.961 104.628L131.964 104.528L131.967 104.428L131.97 104.328L131.973 104.228L131.976 104.128L131.979 104.029L131.981 103.929L131.984 103.887L131.987 103.791L131.99 103.691L131.992 103.592L131.995 103.492L131.998 103.392L132 103.292L132.003 103.192L132.005 103.092L132.008 103.049L132.01 102.955L132.012 102.855L132.015 102.755L132.017 102.655L132.019 102.555L132.022 102.455L132.024 102.355L132.026 102.255L132.028 102.211L132.03 102.118L132.032 102.018L132.034 101.918L132.036 101.818L132.038 101.718L132.039 101.618L132.041 101.518L132.043 101.418L132.045 101.372L132.046 101.281L132.048 101.181L132.049 101.081L132.051 100.981L132.052 100.881L132.054 100.781L132.055 100.681L132.057 100.581L132.058 100.534L132.059 100.444L132.06 100.344L132.062 100.244L132.063 100.144L132.064 100.044L132.065 99.9442L132.066 99.8442L132.067 99.7442L132.068 99.6951L132.069 99.6068L132.07 99.5068L132.071 99.4068L132.071 99.3069L132.072 99.2069L132.073 99.1069L132.073 99.0069L132.074 98.907L132.075 98.8564L132.075 98.7695L132.076 98.6695L132.076 98.5695L132.076 98.4695L132.077 98.3696L132.077 98.2696L132.077 98.1696L132.078 98.0696L132.078 98.0176L132.078 97.9321L132.078 97.8322L132.078 97.7322L132.078 97.6322L132.078 97.5322L132.078 97.4322L132.078 97.3323L132.078 97.2323L132.077 97.1788L132.077 97.0948L132.077 96.9948L132.077 96.8948L132.076 96.7949L132.076 96.6949L132.075 96.5949L132.075 96.4949L132.074 96.3949L132.074 96.34L132.073 96.2575L132.072 96.1575L132.072 96.0575L132.071 95.9575L132.07 95.8576L132.069 95.7576L132.068 95.6576L132.067 95.5577L132.067 95.5013L132.066 95.4202L132.064 95.3202L132.063 95.2203L132.062 95.1203L132.061 95.0203L132.06 94.9204L132.059 94.8204L132.057 94.7205L132.056 94.6627L132.055 94.583L132.053 94.4831L132.052 94.3831L132.05 94.2832L132.049 94.1832L132.047 94.0833L132.045 93.9833L132.044 93.8834L132.042 93.8242L132.04 93.746L132.038 93.6461L132.037 93.5461L132.035 93.4462L132.033 93.3463L132.031 93.2463L132.029 93.1464L132.027 93.0465L132.025 92.9859L132.022 92.9091L132.02 92.8092L132.018 92.7093L132.016 92.6094L132.013 92.5095L132.011 92.4096L132.009 92.3097L132.006 92.2097L132.004 92.1478L132.001 92.0724L131.999 91.9725L131.996 91.8727L131.993 91.7728L131.991 91.6729L131.988 91.573L131.985 91.4731L131.982 91.3733L131.979 91.3098L131.976 91.236L131.973 91.1361L131.97 91.0363L131.967 90.9364L131.964 90.8366L131.961 90.7367L131.958 90.6369L131.955 90.537L131.952 90.4722L131.948 90.3998L131.945 90.3L131.942 90.2002L131.938 90.1003L131.935 90.0005L131.931 89.9007L131.928 89.8009L131.924 89.7011L131.92 89.6349L131.917 89.564L131.913 89.4642L131.909 89.3644L131.905 89.2646L131.902 89.1648L131.898 89.065L131.894 88.9652L131.89 88.8655L131.886 88.7979L131.882 88.7284L131.878 88.6287L131.873 88.5289L131.869 88.4292L131.865 88.3294L131.861 88.2297L131.856 88.13L131.852 88.0302L131.848 87.9612L131.843 87.8933L131.839 87.7936L131.834 87.6939L131.83 87.5942L131.825 87.4945L131.82 87.3948L131.816 87.2951L131.811 87.1954L131.806 87.125L131.801 87.0585L131.796 86.9589L131.792 86.8592L131.787 86.7596L131.782 86.6599L131.777 86.5603L131.772 86.4606L131.766 86.361L131.761 86.2892L131.756 86.2243L131.751 86.1246L131.746 86.025L131.74 85.9254L131.735 85.8258L131.729 85.7262L131.724 85.6267L131.718 85.5271L131.713 85.4539L131.707 85.3904L131.702 85.2909L131.696 85.1913L131.69 85.0918L131.685 84.9922L131.679 84.8927L131.673 84.7932L131.667 84.6937L131.661 84.6191L131.655 84.5571L131.649 84.4576L131.643 84.3581L131.637 84.2587L131.631 84.1592L131.625 84.0597L131.619 83.9602L131.612 83.8608L131.606 83.7849L131.6 83.7244L131.593 83.625L131.587 83.5255L131.58 83.4261L131.574 83.3267L131.567 83.2273L131.561 83.1279L131.554 83.0285L131.548 82.9512L131.541 82.8922L131.534 82.7928L131.527 82.6935L131.52 82.5941L131.514 82.4948L131.507 82.3954L131.5 82.2961L131.493 82.1968L131.486 82.1181L131.478 82.0607L131.471 81.9614L131.464 81.8621L131.457 81.7628L131.45 81.6635L131.442 81.5642L131.435 81.465L131.428 81.3657L131.42 81.2857L131.413 81.2298L131.405 81.1305L131.398 81.0313L131.39 80.9321L131.383 80.8329L131.375 80.7337L131.367 80.6345L131.359 80.5354L131.352 80.454L131.344 80.3995L131.336 80.3004L131.328 80.2012L131.32 80.1021L131.312 80.003L131.304 79.9039L131.296 79.8048L131.288 79.7057L131.28 79.623L131.272 79.57L131.263 79.471L131.255 79.3719L131.247 79.2729L131.238 79.1738L131.23 79.0748L131.221 78.9758L131.213 78.8768L131.204 78.7927L131.196 78.7413L131.187 78.6423L131.179 78.5433L131.17 78.4444L131.161 78.3454L131.152 78.2465L131.144 78.1475L131.135 78.0486L131.126 77.9632L131.117 77.9133L131.108 77.8144L131.099 77.7155L131.09 77.6166L131.081 77.5178L131.072 77.4189L131.062 77.3201L131.053 77.2213L131.044 77.1345L131.035 77.0861L131.025 76.9873L131.016 76.8885L131.007 76.7897L130.997 76.691L130.988 76.5922L130.978 76.4935L130.968 76.3947L130.959 76.3066L130.949 76.2598L130.939 76.1611L130.93 76.0624L130.92 75.9637L130.91 75.865L130.9 75.7664L130.89 75.6677L130.88 75.5691L130.87 75.4796L130.86 75.4343L130.85 75.3357L130.84 75.2371L130.83 75.1385L130.82 75.0399L130.81 74.9414L130.799 74.8428L130.789 74.7443L130.779 74.6535L130.768 74.6097L130.758 74.5112L130.748 74.4127L130.737 74.3142L130.727 74.2158L130.716 74.1173L130.705 74.0189L130.695 73.9204L130.684 73.8283L130.673 73.7861L130.663 73.6877L130.652 73.5893L130.641 73.4909L130.63 73.3925L130.619 73.2942L130.608 73.1958L130.597 73.0975L130.586 73.0041L130.575 72.9634L130.564 72.8651L130.553 72.7668L130.541 72.6685L130.53 72.5703L130.519 72.472L130.508 72.3738L130.496 72.2756L130.485 72.1808L130.473 72.1417L130.462 72.0435L130.45 71.9453L130.439 71.8472L130.427 71.749L130.416 71.6509L130.404 71.5528L130.392 71.4547L130.381 71.3586L130.369 71.321L130.357 71.2229L130.345 71.1248L130.333 71.0268L130.321 70.9288L130.309 70.8307L130.297 70.7327L130.285 70.6347L130.273 70.5373L130.261 70.5013L130.249 70.4033L130.237 70.3054L130.224 70.2075L130.212 70.1096L130.2 70.0117L130.187 69.9138L130.175 69.8159L130.163 69.718L130.15 69.6818L130.138 69.5848L130.125 69.487L130.112 69.3892L130.1 69.2914L130.087 69.1936L130.074 69.0959L130.062 68.9981L130.049 68.9004L130.036 68.8628L130.023 68.7674L130.01 68.6697L129.998 68.5721L129.985 68.4744L129.972 68.3767L129.959 68.2791L129.945 68.1815L129.932 68.0838L129.919 68.045L129.906 67.9511L129.893 67.8536L129.88 67.756L129.866 67.6585L129.853 67.5609L129.84 67.4634L129.826 67.3659L129.813 67.2684L129.799 67.2282L129.786 67.136L129.772 67.0385L129.759 66.9411L129.745 66.8437L129.731 66.7463L129.718 66.6489L129.704 66.5515L129.69 66.4542L129.676 66.4127L129.662 66.322L129.648 66.2246L129.635 66.1273L129.621 66.0301L129.607 65.9328L129.593 65.8355L129.579 65.7383L129.564 65.641L129.55 65.5983L129.536 65.5091L129.522 65.4119L129.508 65.3148L129.493 65.2176L129.479 65.1205L129.465 65.0233L129.45 64.9262L129.436 64.8291L129.421 64.7851L129.407 64.6975L129.392 64.6004L129.378 64.5034L129.363 64.4064L129.349 64.3094L129.334 64.2124L129.319 64.1154L129.304 64.0185L129.29 63.9731L129.275 63.8871L129.26 63.7902L129.245 63.6933L129.23 63.5964L129.215 63.4995L129.2 63.4027L129.185 63.3058L129.17 63.209L129.155 63.1623L129.14 63.0779L129.125 62.9811L129.109 62.8844L129.094 62.7876L129.079 62.6909L129.064 62.5942L129.048 62.4975L129.033 62.4008L129.017 62.3528L129.002 62.27L128.986 62.1734L128.971 62.0767L128.955 61.9801L128.94 61.8836L128.924 61.787L128.908 61.6904L128.893 61.5939L128.877 61.5446L128.861 61.4634L128.845 61.3669L128.83 61.2704L128.814 61.1739L128.798 61.0775L128.782 60.9811L128.766 60.8847L128.75 60.7883L128.734 60.7377L128.718 60.658L128.702 60.5617L128.686 60.4654L128.669 60.369L128.653 60.2727L128.637 60.1765L128.621 60.0802L128.604 59.9839L128.588 59.9321L128.572 59.854L128.555 59.7578L128.539 59.6616L128.522 59.5655L128.506 59.4693L128.489 59.3732L128.473 59.2771L128.456 59.181L128.439 59.1278L128.423 59.0513L128.406 58.9553L128.389 58.8592L128.372 58.7632L128.356 58.6672L128.339 58.5712L128.322 58.4753L128.305 58.3793L128.288 58.3249L128.271 58.25L128.254 58.1541L128.237 58.0582L128.22 57.9623L128.203 57.8665L128.186 57.7706L128.168 57.6748L128.151 57.579L128.134 57.5233L128.117 57.45L128.099 57.3542L128.082 57.2585L128.065 57.1628L128.047 57.0671L128.03 56.9714L128.012 56.8758L127.995 56.7801L127.977 56.7231L127.96 56.6514L127.942 56.5558L127.924 56.4602L127.907 56.3646L127.889 56.2691L127.871 56.1736L127.854 56.0781L127.836 55.9826L127.818 55.9243L127.8 55.8542L127.782 55.7587L127.764 55.6633L127.746 55.5679L127.728 55.4725L127.71 55.3771L127.692 55.2818L127.674 55.1865L127.656 55.1269L127.638 55.0584L127.62 54.9631L127.601 54.8678L127.583 54.7726L127.565 54.6773L127.547 54.5821L127.528 54.4869L127.51 54.3918L127.492 54.3309L127.473 54.264L127.455 54.1688L127.436 54.0737L127.418 53.9787L127.399 53.8836L127.38 53.7885L127.362 53.6935L127.343 53.5985L127.325 53.5364L127.306 53.471L127.287 53.376L127.268 53.2811L127.249 53.1862L127.231 53.0913L127.212 52.9964L127.193 52.9015L127.174 52.8067L127.155 52.7433L127.136 52.6795L127.117 52.5847L127.098 52.4899L127.079 52.3952L127.06 52.3004L127.041 52.2057L127.021 52.111L127.002 52.0163L126.983 51.9516L126.964 51.8894L126.944 51.7948L126.925 51.7002L126.906 51.6056L126.886 51.511L126.867 51.4164L126.847 51.3219L126.828 51.2274L126.809 51.1614L126.789 51.1009L126.769 51.0064L126.75 50.9119L126.73 50.8175L126.711 50.7231L126.691 50.6287L126.671 50.5343L126.651 50.4399L126.632 50.3727L126.612 50.3137L126.592 50.2194L126.572 50.1251L126.552 50.0309L126.532 49.9366L126.512 49.8424L126.492 49.7482L126.472 49.654L126.452 49.5855L126.432 49.5281L126.412 49.434L126.392 49.3399L126.372 49.2458L126.352 49.1516L126.332 49.0576L126.311 48.9635L126.291 48.8695L126.271 48.7998L126.25 48.744L126.23 48.65L126.21 48.5561L126.189 48.4621L126.169 48.3682L126.148 48.2743L126.128 48.1804L126.107 48.0866L126.087 48.0156L126.066 47.9614L126.046 47.8676L126.025 47.7738L126.004 47.68L125.984 47.5863L125.963 47.4925L125.942 47.3988L125.921 47.3051L125.9 47.2329L125.88 47.1803L125.859 47.0866L125.838 46.993L125.817 46.8994L125.796 46.8058L125.775 46.7123L125.754 46.6187L125.733 46.5252L125.712 46.4517L125.691 46.4007L125.67 46.3072L125.648 46.2138L125.627 46.1204L125.606 46.0269L125.585 45.9336L125.564 45.8402L125.542 45.7468L125.521 45.672L125.5 45.6227L125.478 45.5294L125.457 45.4361L125.435 45.3428L125.414 45.2496L125.393 45.1564L125.371 45.0632L125.35 44.97L125.328 44.8939L125.306 44.8462L125.285 44.753L125.263 44.66L125.241 44.5669L125.22 44.4738L125.198 44.3807L125.176 44.2877L125.155 44.1947L125.133 44.1174L125.111 44.0712L125.089 43.9783L125.067 43.8853L125.045 43.7924L125.023 43.6995L125.001 43.6067L124.979 43.5138L124.957 43.421L124.935 43.3424L124.913 43.2979L124.891 43.2051L124.869 43.1123L124.847 43.0196L124.825 42.9268L124.802 42.8341L124.78 42.7415L124.758 42.6488L124.736 42.5689L124.713 42.526L124.691 42.4334L124.669 42.3408L124.646 42.2483L124.624 42.1557L124.601 42.0632L124.579 41.9707L124.556 41.8782L124.534 41.7971L124.511 41.7558L124.489 41.6633L124.466 41.5709L124.444 41.4785L124.421 41.3862L124.398 41.2938L124.376 41.2015L124.353 41.1092L124.33 41.0268L124.307 40.9871L124.285 40.8948L124.262 40.8026L124.239 40.7104L124.216 40.6182L124.193 40.526L124.17 40.4339L124.147 40.3417L124.124 40.2581L124.101 40.22L124.078 40.1279L124.055 40.0359L124.032 39.9438L124.009 39.8518L123.986 39.7598L123.963 39.6678L123.94 39.5759L123.916 39.491L123.893 39.4545L123.87 39.3626L123.847 39.2707L123.823 39.1789L123.8 39.087L123.777 38.9952L123.753 38.9034L123.73 38.8116L123.706 38.7255L123.683 38.6906L123.659 38.5989L123.636 38.5072L123.612 38.4155L123.589 38.3238L123.565 38.2322L123.542 38.1405L123.518 38.049L123.494 37.9616L123.471 37.9283L123.447 37.8368L123.423 37.7452L123.4 37.6537L123.376 37.5622L123.352 37.4708L123.328 37.3793L123.304 37.2879L123.281 37.1992L123.257 37.1676L123.233 37.0762L123.209 36.9849L123.185 36.8936L123.161 36.8023L123.137 36.711L123.113 36.6197L123.089 36.5285L123.065 36.4385L123.041 36.4085L123.016 36.3173L122.992 36.2262L122.968 36.135L122.944 36.0439L122.92 35.9528L122.895 35.8617L122.871 35.7706L122.847 35.6796L122.823 35.6509L122.798 35.5601L122.774 35.4691L122.749 35.3781L122.725 35.2872L122.701 35.1962L122.676 35.1053L122.652 35.0144L122.627 34.9236L122.603 34.8937L122.578 34.8044L122.553 34.7136L122.529 34.6228L122.504 34.532L122.48 34.4413L122.455 34.3506L122.43 34.2599L122.406 34.1692L122.381 34.138L122.356 34.0504L122.331 33.9597L122.306 33.8691L122.282 33.7786L122.257 33.688L122.232 33.5974L122.207 33.5069L122.182 33.4164L122.157 33.384L122.132 33.298L122.107 33.2075L122.082 33.1171L122.057 33.0267L122.032 32.9363L122.007 32.8459L121.982 32.7556L121.957 32.6653L121.932 32.6316L121.906 32.5472L121.881 32.457L121.856 32.3667L121.831 32.2765L121.806 32.1863L121.78 32.0961L121.755 32.0059L121.73 31.9158L121.704 31.8809L121.679 31.7981L121.654 31.708L121.628 31.618L121.603 31.5279L121.577 31.4379L121.552 31.3479L121.526 31.2579L121.501 31.168L121.475 31.1318L121.45 31.0506L121.424 30.9607L121.398 30.8709L121.373 30.781L121.347 30.6912L121.321 30.6014L121.296 30.5116L121.27 30.4218L121.244 30.3844L121.219 30.3048L121.193 30.2151L121.167 30.1254L121.141 30.0357L121.115 29.9461L121.089 29.8565L121.064 29.7669L121.038 29.6773L121.012 29.6386L120.986 29.5607L120.96 29.4711L120.934 29.3816L120.908 29.2921L120.882 29.2027L120.856 29.1132L120.83 29.0238L120.803 28.9344L120.777 28.8944L120.751 28.8182L120.725 28.7288L120.699 28.6395L120.673 28.5502L120.646 28.4609L120.62 28.3717L120.594 28.2824L120.568 28.1932L120.541 28.152L120.515 28.0773L120.489 27.9882L120.462 27.899L120.436 27.8099L120.409 27.7208L120.383 27.6318L120.356 27.5427L120.33 27.4537L120.303 27.4112L120.277 27.3382L120.25 27.2492L120.224 27.1603L120.197 27.0713L120.171 26.9824L120.144 26.8935L120.117 26.8047L120.091 26.7158L120.064 26.6721L120.037 26.6007L120.011 26.5119L119.984 26.4232L119.957 26.3344L119.93 26.2457L119.903 26.157L119.877 26.0683L119.85 25.9797L119.823 25.9347L119.796 25.8649L119.769 25.7763L119.742 25.6877L119.715 25.5992L119.688 25.5106L119.661 25.4221L119.634 25.3336L119.607 25.2452L119.58 25.199L119.553 25.1308L119.526 25.0424L119.499 24.954L119.472 24.8656L119.445 24.7773L119.417 24.689L119.39 24.6007L119.363 24.5124L119.336 24.4649L119.309 24.3984L119.281 24.3102L119.254 24.222L119.227 24.1338L119.199 24.0456L119.172 23.9575L119.145 23.8694L119.117 23.7813L119.09 23.7326L119.062 23.6677L119.035 23.5796L119.007 23.4916L118.98 23.4036L118.952 23.3157L118.925 23.2277L118.897 23.1398L118.87 23.0519L118.842 23.002L118.815 22.9387L118.787 22.8508L118.759 22.763L118.732 22.6752L118.704 22.5874L118.676 22.4997L118.649 22.4119L118.621 22.3242L118.593 22.273L118.565 22.2114L118.537 22.1237L118.51 22.0361L118.482 21.9485L118.454 21.8609L118.426 21.7733L118.398 21.6858L118.37 21.5983L118.342 21.5458L118.314 21.4858L118.286 21.3983L118.258 21.3109L118.23 21.2234L118.202 21.1361L118.174 21.0487L118.146 20.9613L118.118 20.874L118.09 20.8204L118.062 20.7619L118.034 20.6746L118.006 20.5874L117.978 20.5002L117.949 20.413L117.921 20.3258L117.893 20.2387L117.865 20.1515L117.836 20.0966L117.808 20.0398L117.78 19.9527L117.751 19.8657L117.723 19.7787L117.695 19.6916L117.666 19.6046L117.638 19.5177L117.609 19.4307L117.581 19.3746L117.553 19.3194L117.524 19.2325L117.496 19.1457L117.467 19.0588L117.439 18.972L117.41 18.8852L117.381 18.7985L117.353 18.7117L117.324 18.6543L117.296 18.6007L117.267 18.5141L117.238 18.4274L117.21 18.3408L117.181 18.2542L117.152 18.1676L117.124 18.081L117.095 17.9944L117.066 17.9358L117.037 17.8839L117.008 17.7974L116.98 17.7109L116.951 17.6245L116.922 17.538L116.893 17.4517L116.864 17.3653L116.835 17.2789L116.806 17.219L116.777 17.1688L116.748 17.0824L116.719 16.9962L116.69 16.9099L116.661 16.8237L116.632 16.7375L116.603 16.6513L116.574 16.5652L116.545 16.504L116.516 16.4554L116.487 16.3693L116.458 16.2832L116.429 16.1972L116.399 16.1112L116.37 16.0251L116.341 15.9391L116.312 15.8532L116.282 15.7908L116.253 15.7438L116.224 15.6579L116.195 15.572L116.165 15.4862L116.136 15.4004L116.107 15.3146L116.077 15.2288L116.048 15.143L116.018 15.0794L115.989 15.034L115.959 14.9483L115.93 14.8627L115.901 14.777L115.871 14.6913L115.842 14.6058L115.812 14.5202L115.782 14.4346L115.753 14.3698L115.723 14.326L115.694 14.2405L115.664 14.1551L115.634 14.0696L115.605 13.9842L115.575 13.8988L115.545 13.8134L115.516 13.728L115.486 13.6619L115.456 13.6199L115.426 13.5346L115.397 13.4493L115.367 13.364L115.337 13.2788L115.307 13.1936L115.277 13.1084L115.248 13.0233L115.218 12.956L115.188 12.9155L115.158 12.8304L115.128 12.7453L115.098 12.6603L115.068 12.5753L115.038 12.4903L115.008 12.4053L114.978 12.3203L114.948 12.2518L114.918 12.213L114.888 12.1281L114.858 12.0432L114.828 11.9584L114.798 11.8735L114.767 11.7888L114.737 11.704L114.707 11.6192L114.677 11.5495L114.647 11.5123L114.617 11.4276L114.586 11.3429L114.556 11.2583L114.526 11.1737L114.495 11.0891L114.465 11.0045L114.435 10.92L114.405 10.849L114.374 10.8135L114.344 10.729L114.313 10.6445L114.283 10.5601L114.253 10.4757L114.222 10.3913L114.192 10.3069L114.161 10.2226L114.131 10.1504L114.1 10.1165L114.07 10.0322L114.039 9.94799L114.009 9.86375L113.978 9.77958L113.947 9.69541L113.917 9.61123L113.886 9.52712L113.856 9.45368L113.825 9.42142L113.794 9.33737L113.764 9.25335L113.733 9.16933L113.702 9.08533L113.671 9.00139L113.641 8.91745L113.61 8.83351L113.579 8.75886L113.548 8.72827L113.518 8.6444L113.487 8.5606L113.456 8.47681L113.425 8.39302L113.394 8.30927L113.363 8.22556L113.332 8.14185L113.301 8.06594L113.27 8.03702L113.239 7.95338L113.208 7.86975L113.177 7.7862L113.146 7.70264L113.115 7.61908L113.084 7.53559L113.053 7.45211L113.022 7.37497L112.991 7.34769L112.96 7.26428L112.929 7.18088L112.898 7.09751L112.867 7.01419L112.835 6.93086L112.804 6.84755L112.773 6.76431L112.742 6.68597L112.711 6.6603L112.679 6.57713L112.648 6.49396L112.617 6.41079L112.585 6.32769L112.554 6.2446L112.523 6.16151L112.491 6.07846L112.46 5.99892L112.429 5.97493L112.397 5.89194L112.366 5.80901L112.334 5.72608L112.303 5.64316L112.271 5.5603L112.24 5.47745L112.208 5.3946L112.177 5.31385L112.145 5.29153L112.114 5.20876L112.082 5.12604L112.051 5.04335L112.019 4.96065L111.988 4.878L111.956 4.79539L111.924 4.71277L111.893 4.63079L111.861 4.61014L111.829 4.52761L111.798 4.44509L111.766 4.36263L111.797 4.34274Z" fill="white"/>
</svg>
