<svg width="200" height="200" viewBox="0 0 200 200" fill="none" xmlns="http://www.w3.org/2000/svg">
<path d="M83.7088 1.75844L83.76 1.75708L83.8111 1.75572L83.8623 1.75442L83.9136 1.75334L83.9649 1.75226L83.9503 1.76107L83.9933 1.76135L84.0446 1.76055L84.0959 1.7598L84.1473 1.75915L84.1987 1.75864L84.2501 1.75818L84.3015 1.75783L84.3529 1.7576L84.342 1.7662L84.3816 1.76771L84.4331 1.76768L84.4846 1.76779L84.5361 1.7679L84.5877 1.76819L84.6393 1.76858L84.6909 1.76896L84.7425 1.76956L84.7353 1.77799L84.7714 1.78069L84.8231 1.78141L84.8748 1.78234L84.9265 1.78328L84.9782 1.78429L85.03 1.78551L85.0817 1.78674L85.1335 1.78805L85.13 1.79637L85.1627 1.80023L85.2146 1.8018L85.2664 1.8034L85.3183 1.80521L85.3702 1.80705L85.4221 1.80896L85.4741 1.81105L85.526 1.81317L85.5261 1.8214L85.5555 1.82625L85.6075 1.82866L85.6595 1.83106L85.7116 1.8336L85.7636 1.83628L85.8157 1.83897L85.8678 1.84181L85.9199 1.84477L85.9237 1.85297L85.9496 1.85881L86.0017 1.86197L86.0539 1.86521L86.1061 1.8685L86.1583 1.87195L86.2105 1.87547L86.2628 1.87904L86.315 1.88279L86.3225 1.89104L86.345 1.89785L86.3973 1.90171L86.4496 1.90576L86.502 1.90988L86.5543 1.91402L86.6067 1.91836L86.6591 1.92277L86.7115 1.92719L86.7228 1.93555L86.7417 1.94327L86.7942 1.94795L86.8466 1.95268L86.8991 1.95763L86.9516 1.96259L87.0042 1.96761L87.0567 1.97284L87.1093 1.97807L87.1242 1.98654L87.1397 1.99502L87.1923 2.00053L87.2449 2.00604L87.2976 2.0117L87.3502 2.01749L87.4029 2.02327L87.4556 2.02923L87.5083 2.03529L87.527 2.04394L87.539 2.05315L87.5918 2.0594L87.6445 2.06574L87.6973 2.07213L87.7501 2.07867L87.8029 2.08528L87.8557 2.09194L87.9085 2.09878L87.9309 2.10772L87.9394 2.11764L87.9923 2.12458L88.0452 2.13171L88.0981 2.13891L88.1511 2.14613L88.204 2.15355L88.2569 2.16103L88.3099 2.16852L88.336 2.1778L88.341 2.18836L88.394 2.19613L88.447 2.20391L88.5001 2.21193L88.5531 2.21996L88.6062 2.22804L88.6593 2.23632L88.7124 2.24463L88.7422 2.25421L88.7437 2.2653L88.7969 2.27388L88.85 2.28246L88.9032 2.29114L88.9564 2.29999L89.0095 2.30885L89.0628 2.31781L89.116 2.32694L89.1495 2.33694L89.1475 2.34852L89.2008 2.35781L89.2541 2.36721L89.3073 2.37661L89.3606 2.38619L89.414 2.39586L89.4673 2.40553L89.5206 2.4154L89.5579 2.42592L89.5524 2.43795L89.6058 2.44794L89.6592 2.4581L89.7125 2.46831L89.7659 2.47857L89.8194 2.48901L89.8728 2.4995L89.9262 2.51002L89.9672 2.52109L89.9582 2.53352L90.0117 2.54431L90.0652 2.55512L90.1187 2.56614L90.1722 2.57719L90.2258 2.58827L90.2793 2.59957L90.3329 2.61088L90.3776 2.62244L90.3651 2.63519L90.4186 2.64677L90.4722 2.65839L90.5259 2.67005L90.5795 2.68189L90.6332 2.69378L90.6868 2.70572L90.7405 2.71783L90.7889 2.73005L90.7729 2.74308L90.8265 2.75531L90.8802 2.76772L90.934 2.78016L90.9877 2.79267L91.0414 2.80534L91.0952 2.81805L91.149 2.83084L91.2011 2.84378L91.1815 2.85704L91.2353 2.87001L91.2891 2.88308L91.343 2.89631L91.3969 2.90953L91.3758 2.99784L91.3547 3.08619L91.3335 3.17455L91.3124 3.2629L91.2913 3.27811L91.2702 3.36472L91.2491 3.45313L91.2281 3.54157L91.207 3.63003L91.1859 3.71849L91.1649 3.80698L91.1439 3.89549L91.1229 3.98401L91.1018 4.00295L91.0808 4.08611L91.0599 4.17468L91.0389 4.26325L91.0179 4.35187L90.997 4.44049L90.976 4.52911L90.9551 4.61777L90.9342 4.70645L90.9132 4.72915L90.8923 4.80884L90.8715 4.89756L90.8506 4.98629L90.8297 5.07503L90.8089 5.16381L90.788 5.25259L90.7672 5.34138L90.7463 5.43021L90.7255 5.45668L90.7047 5.53288L90.6839 5.62176L90.6631 5.71065L90.6424 5.79953L90.6216 5.88845L90.6009 5.97738L90.5801 6.06632L90.5594 6.15528L90.5387 6.1855L90.518 6.25826L90.4973 6.34726L90.4766 6.4363L90.4559 6.52534L90.4352 6.61438L90.4146 6.70347L90.394 6.79256L90.3733 6.88165L90.3527 6.91563L90.3321 6.98493L90.3115 7.07408L90.2909 7.16324L90.2703 7.25244L90.2498 7.34163L90.2292 7.43084L90.2087 7.52008L90.1881 7.60933L90.1676 7.64703L90.1471 7.71288L90.1266 7.80218L90.1061 7.89147L90.0856 7.98081L90.0652 8.07015L90.0447 8.1595L90.0243 8.24888L90.0038 8.33827L89.9834 8.37973L89.963 8.4421L89.9426 8.53154L89.9222 8.62099L89.9018 8.71044L89.8815 8.79994L89.8611 8.88944L89.8408 8.97894L89.8204 9.06848L89.8001 9.11369L89.7798 9.17259L89.7595 9.26217L89.7392 9.35176L89.7189 9.44136L89.6986 9.53098L89.6784 9.62063L89.6581 9.71028L89.6379 9.79993L89.6177 9.8489L89.5975 9.90434L89.5773 9.99404L89.5571 10.0838L89.5369 10.1735L89.5167 10.2633L89.4966 10.3531L89.4764 10.4429L89.4563 10.5327L89.4362 10.5853L89.4161 10.6373L89.396 10.7272L89.3759 10.817L89.3558 10.9069L89.3358 10.9968L89.3157 11.0867L89.2957 11.1767L89.2756 11.2666L89.2556 11.323L89.2356 11.3715L89.2156 11.4615L89.1956 11.5515L89.1756 11.6416L89.1557 11.7316L89.1357 11.8216L89.1158 11.9117L89.0958 12.0018L89.0759 12.062L89.056 12.107L89.0361 12.1971L89.0163 12.2873L88.9964 12.3774L88.9765 12.4676L88.9567 12.5578L88.9368 12.648L88.917 12.7382L88.8972 12.8021L88.8774 12.8437L88.8576 12.9339L88.8378 13.0242L88.818 13.1145L88.7983 13.2048L88.7785 13.2951L88.7588 13.3855L88.7391 13.4758L88.7194 13.5435L88.6997 13.5816L88.68 13.672L88.6603 13.7623L88.6407 13.8528L88.621 13.9432L88.6013 14.0337L88.5817 14.1241L88.5621 14.2146L88.5425 14.286L88.5229 14.3206L88.5033 14.4112L88.4838 14.5017L88.4642 14.5923L88.4447 14.6828L88.4251 14.7734L88.4056 14.864L88.3861 14.9546L88.3666 15.0298L88.3471 15.0609L88.3276 15.1516L88.3082 15.2423L88.2887 15.333L88.2693 15.4237L88.2498 15.5144L88.2304 15.6051L88.211 15.6958L88.1916 15.7747L88.1722 15.8024L88.1529 15.8932L88.1335 15.984L88.1142 16.0748L88.0948 16.1657L88.0755 16.2565L88.0562 16.3474L88.0369 16.4383L88.0176 16.5209L87.9984 16.5451L87.9791 16.636L87.9598 16.7269L87.9406 16.8179L87.9214 16.9088L87.9022 16.9998L87.883 17.0908L87.8638 17.1818L87.8446 17.2682L87.8254 17.2889L87.8063 17.38L87.7871 17.471L87.768 17.5621L87.7489 17.6532L87.7298 17.7443L87.7107 17.8354L87.6916 17.9266L87.6726 18.0167L87.6535 18.0339L87.6345 18.1251L87.6154 18.2163L87.5964 18.3075L87.5774 18.3987L87.5584 18.49L87.5394 18.5812L87.5204 18.6725L87.5015 18.7638L87.4826 18.7827L87.4636 18.8714L87.4447 18.9627L87.4258 19.0541L87.4069 19.1454L87.388 19.2368L87.3692 19.3282L87.3503 19.4196L87.3314 19.511L87.3126 19.5336L87.2938 19.6189L87.275 19.7103L87.2562 19.8018L87.2374 19.8933L87.2186 19.9848L87.1999 20.0763L87.1811 20.1678L87.1624 20.2594L87.1437 20.2857L87.125 20.3675L87.1063 20.4591L87.0876 20.5507L87.0689 20.6423L87.0503 20.7339L87.0316 20.8256L87.013 20.9172L86.9944 21.0089L86.9758 21.0389L86.9572 21.1173L86.9386 21.209L86.92 21.3007L86.9015 21.3925L86.8829 21.4842L86.8644 21.576L86.8459 21.6678L86.8274 21.7596L86.8089 21.7934L86.7904 21.8682L86.772 21.9601L86.7535 22.0519L86.7351 22.1438L86.7166 22.2357L86.6982 22.3276L86.6798 22.4195L86.6614 22.5114L86.6431 22.5489L86.6247 22.6203L86.6064 22.7122L86.588 22.8042L86.5697 22.8962L86.5514 22.9882L86.5331 23.0803L86.5148 23.1723L86.4965 23.2643L86.4783 23.3056L86.4601 23.3735L86.4418 23.4656L86.4236 23.5577L86.4054 23.6498L86.3872 23.7419L86.369 23.8341L86.3509 23.9263L86.3327 24.0184L86.3146 24.0634L86.2964 24.1278L86.2783 24.2201L86.2602 24.3123L86.2421 24.4045L86.2241 24.4968L86.206 24.5891L86.188 24.6814L86.1699 24.7737L86.1519 24.8224L86.1339 24.8833L86.1159 24.9757L86.098 25.068L86.08 25.1604L86.062 25.2528L86.0441 25.3452L86.0262 25.4376L86.0083 25.53L85.9904 25.5825L85.9725 25.6399L85.9546 25.7324L85.9368 25.8249L85.9189 25.9174L85.9011 26.0099L85.8833 26.1024L85.8655 26.1949L85.8477 26.2875L85.8299 26.3437L85.8121 26.3977L85.7944 26.4902L85.7767 26.5829L85.7589 26.6755L85.7412 26.7681L85.7235 26.8608L85.7059 26.9534L85.6882 27.0461L85.6705 27.106L85.6529 27.1565L85.6353 27.2492L85.6177 27.3419L85.6001 27.4347L85.5825 27.5275L85.5649 27.6202L85.5474 27.713L85.5299 27.8058L85.5123 27.8695L85.4948 27.9165L85.4773 28.0093L85.4598 28.1022L85.4424 28.195L85.4249 28.2879L85.4075 28.3808L85.39 28.4737L85.3726 28.5667L85.3552 28.634L85.3378 28.6775L85.3205 28.7705L85.3031 28.8635L85.2858 28.9565L85.2684 29.0495L85.2511 29.1425L85.2338 29.2355L85.2166 29.3286L85.1993 29.3997L85.182 29.4397L85.1648 29.5328L85.1476 29.6259L85.1303 29.719L85.1131 29.8122L85.096 29.9053L85.0788 29.9985L85.0616 30.0916L85.0445 30.1665L85.0274 30.203L85.0102 30.2962L84.9932 30.3895L84.9761 30.4827L84.959 30.576L84.9419 30.6692L84.9249 30.7625L84.9079 30.8558L84.8909 30.9344L84.8739 30.9674L84.8569 31.0608L84.8399 31.1541L84.823 31.2475L84.8061 31.3409L84.7891 31.4342L84.7722 31.5276L84.7553 31.6211L84.7384 31.7033L84.7216 31.7329L84.7047 31.8264L84.6879 31.9199L84.6711 32.0133L84.6543 32.1068L84.6375 32.2003L84.6207 32.2939L84.604 32.3874L84.5872 32.4734L84.5705 32.4995L84.5538 32.5931L84.5371 32.6867L84.5204 32.7803L84.5037 32.8739L84.4871 32.9676L84.4704 33.0612L84.4538 33.1549L84.4372 33.2446L84.4206 33.2672L84.404 33.3609L84.3875 33.4546L84.3709 33.5484L84.3544 33.6421L84.3379 33.7359L84.3214 33.8296L84.3049 33.9234L84.2884 34.0169L84.272 34.036L84.2555 34.1298L84.2391 34.2237L84.2227 34.3175L84.2063 34.4114L84.1899 34.5053L84.1736 34.5991L84.1572 34.693L84.1409 34.787L84.1246 34.8092L84.1083 34.8998L84.092 34.9938L84.0757 35.0878L84.0595 35.1817L84.0432 35.2757L84.027 35.3697L84.0108 35.4638L83.9946 35.5578L83.9784 35.5838L83.9623 35.6709L83.9461 35.765L83.93 35.8591L83.9139 35.9532L83.8978 36.0473L83.8817 36.1414L83.8656 36.2356L83.8496 36.3297L83.8336 36.3594L83.8175 36.4431L83.8015 36.5373L83.7856 36.6315L83.7696 36.7257L83.7536 36.8199L83.7377 36.9142L83.7218 37.0084L83.7059 37.1027L83.69 37.1361L83.6741 37.2163L83.6582 37.3106L83.6424 37.4049L83.6266 37.4993L83.6108 37.5936L83.595 37.688L83.5792 37.7824L83.5635 37.8768L83.5477 37.9139L83.532 37.9906L83.5163 38.085L83.5006 38.1795L83.4849 38.2739L83.4692 38.3684L83.4536 38.4629L83.438 38.5574L83.4224 38.6519L83.4067 38.6928L83.3912 38.766L83.3756 38.8605L83.3601 38.9551L83.3445 39.0497L83.329 39.1443L83.3135 39.2389L83.2981 39.3335L83.2826 39.4281L83.2671 39.4727L83.2517 39.5424L83.2363 39.6371L83.2209 39.7318L83.2055 39.8265L83.1902 39.9212L83.1748 40.0159L83.1595 40.1106L83.1442 40.2054L83.1289 40.2537L83.1136 40.3199L83.0984 40.4147L83.0831 40.5095L83.0679 40.6043L83.0527 40.6992L83.0375 40.794L83.0223 40.8889L83.0071 40.9837L82.992 41.0358L82.9769 41.0985L82.9618 41.1934L82.9467 41.2883L82.9316 41.3832L82.9165 41.4782L82.9015 41.5732L82.8865 41.6681L82.8715 41.7631L82.8565 41.8189L82.8415 41.8781L82.8266 41.9731L82.8116 42.0682L82.7967 42.1632L82.7818 42.2583L82.7669 42.3534L82.7521 42.4484L82.7372 42.5435L82.7224 42.603L82.7076 42.6588L82.6928 42.7539L82.678 42.8491L82.6632 42.9442L82.6485 43.0394L82.6338 43.1346L82.6191 43.2298L82.6044 43.325L82.5897 43.3882L82.5751 43.4405L82.5604 43.5358L82.5458 43.631L82.5312 43.7263L82.5166 43.8216L82.5021 43.9169L82.4875 44.0122L82.473 44.1075L82.4585 44.1745L82.444 44.2233L82.4295 44.3186L82.4151 44.414L82.4006 44.5094L82.3862 44.6048L82.3718 44.7002L82.3574 44.7957L82.343 44.8911L82.3287 44.9618L82.3144 45.0071L82.3 45.1025L82.2858 45.198L82.2715 45.2935L82.2572 45.3891L82.243 45.4846L82.2288 45.5801L82.2146 45.6757L82.2004 45.7501L82.1862 45.7919L82.1721 45.8875L82.1579 45.9831L82.1438 46.0787L82.1297 46.1743L82.1157 46.27L82.1016 46.3657L82.0876 46.4613L82.0736 46.5394L82.0596 46.5777L82.0456 46.6734L82.0316 46.7692L82.0177 46.8649L82.0037 46.9606L81.9899 47.0564L81.976 47.1522L81.9621 47.248L81.9482 47.3298L81.9344 47.3646L81.9206 47.4604L81.9068 47.5563L81.893 47.6521L81.8793 47.748L81.8656 47.8438L81.8518 47.9397L81.8381 48.0356L81.8245 48.1212L81.8108 48.1525L81.7972 48.2484L81.7835 48.3444L81.77 48.4403L81.7563 48.5363L81.7428 48.6323L81.7293 48.7283L81.7157 48.8243L81.7022 48.9135L81.6887 48.9414L81.6753 49.0374L81.6618 49.1335L81.6484 49.2295L81.635 49.3256L81.6216 49.4217L81.6082 49.5178L81.5949 49.614L81.5816 49.7069L81.5682 49.7313L81.5549 49.8274L81.5417 49.9236L81.5284 50.0198L81.5152 50.116L81.502 50.2122L81.4888 50.3084L81.4756 50.4046L81.4625 50.5009L81.4493 50.5226L81.4362 50.6184L81.4231 50.7147L81.41 50.811L81.397 50.9073L81.384 51.0036L81.3709 51.0999L81.3579 51.1963L81.345 51.2926L81.332 51.3181L81.3191 51.4104L81.3062 51.5068L81.2933 51.6032L81.2804 51.6996L81.2675 51.796L81.2547 51.8925L81.2419 51.9889L81.2291 52.0854L81.2163 52.1145L81.2036 52.2034L81.1908 52.2999L81.1781 52.3964L81.1654 52.4929L81.1528 52.5894L81.1401 52.686L81.1275 52.7826L81.1149 52.8791L81.1023 52.912L81.0897 52.9973L81.0772 53.0939L81.0646 53.1905L81.0521 53.2872L81.0396 53.3838L81.0272 53.4805L81.0147 53.5771L81.0023 53.6738L80.9899 53.7104L80.9775 53.7922L80.9651 53.8889L80.9528 53.9857L80.9405 54.0824L80.9282 54.1792L80.9159 54.2759L80.9036 54.3727L80.8914 54.4695L80.8792 54.5097L80.867 54.5881L80.8548 54.6849L80.8427 54.7817L80.8305 54.8786L80.8184 54.9754L80.8063 55.0723L80.7943 55.1692L80.7822 55.2661L80.7702 55.3101L80.7582 55.3849L80.7462 55.4818L80.7342 55.5788L80.7223 55.6757L80.7104 55.7727L80.6985 55.8696L80.6866 55.9666L80.6747 56.0636L80.6629 56.1113L80.6511 56.1827L80.6393 56.2797L80.6275 56.3767L80.6158 56.4738L80.604 56.5708L80.5923 56.6679L80.5807 56.765L80.569 56.8621L80.5573 56.9135L80.5457 56.9814L80.5341 57.0785L80.5225 57.1756L80.511 57.2728L80.4994 57.3699L80.4879 57.4671L80.4765 57.5643L80.465 57.6615L80.4535 57.7166L80.4421 57.781L80.4307 57.8782L80.4193 57.9754L80.408 58.0727L80.3966 58.17L80.3853 58.2673L80.374 58.3645L80.3628 58.4618L80.3515 58.5207L80.3403 58.5815L80.3291 58.6788L80.3179 58.7762L80.3067 58.8735L80.2956 58.9709L80.2845 59.0683L80.2734 59.1657L80.2624 59.2631L80.2513 59.3256L80.2403 59.3829L80.2293 59.4804L80.2183 59.5778L80.2073 59.6752L80.1964 59.7727L80.1855 59.8702L80.1746 59.9677L80.1637 60.0652L80.1529 60.1314L80.1421 60.1852L80.1313 60.2828L80.1205 60.3803L80.1097 60.4779L80.099 60.5754L80.0883 60.673L80.0776 60.7706L80.067 60.8682L80.0563 60.9381L80.0457 60.9884L80.0351 61.0861L80.0245 61.1837L80.014 61.2814L80.0035 61.379L79.9929 61.4767L79.9825 61.5744L79.972 61.6721L79.9616 61.7457L79.9512 61.7925L79.9408 61.8902L79.9304 61.988L79.9201 62.0857L79.9098 62.1835L79.8995 62.2812L79.8892 62.379L79.879 62.4768L79.8687 62.5541L79.8585 62.5974L79.8483 62.6952L79.8382 62.7931L79.8281 62.8909L79.818 62.9888L79.8079 63.0866L79.7978 63.1845L79.7878 63.2824L79.7778 63.3634L79.7678 63.4032L79.7578 63.5011L79.7479 63.599L79.738 63.697L79.7281 63.7949L79.7182 63.8929L79.7083 63.9908L79.6985 64.0888L79.6887 64.1735L79.6789 64.2098L79.6692 64.3078L79.6595 64.4058L79.6497 64.5038L79.6401 64.6019L79.6304 64.6999L79.6208 64.798L79.6112 64.896L79.6016 64.9845L79.592 65.0172L79.5825 65.1153L79.573 65.2134L79.5635 65.3115L79.554 65.4096L79.5446 65.5078L79.5352 65.6059L79.5258 65.7041L79.5164 65.7962L79.5071 65.8254L79.4978 65.9236L79.4885 66.0218L79.4792 66.12L79.4699 66.2182L79.4607 66.3164L79.4515 66.4147L79.4423 66.5129L79.4332 66.6087L79.4241 66.6344L79.415 66.7327L79.4059 66.831L79.3969 66.9293L79.3878 67.0276L79.3788 67.1259L79.3699 67.2242L79.3609 67.3225L79.352 67.4209L79.3431 67.4454L79.3342 67.5426L79.3253 67.641L79.3165 67.7393L79.3077 67.8377L79.2989 67.9361L79.2902 68.0345L79.2814 68.1329L79.2727 68.2313L79.264 68.2596L79.2554 68.3532L79.2468 68.4517L79.2382 68.5501L79.2296 68.6486L79.221 68.7471L79.2125 68.8456L79.204 68.9441L79.1955 69.0425L79.1871 69.0745L79.1786 69.1646L79.1702 69.2631L79.1619 69.3617L79.1535 69.4602L79.1452 69.5588L79.1369 69.6573L79.1286 69.7559L79.1203 69.8545L79.1121 69.8901L79.1039 69.9767L79.0957 70.0753L79.0876 70.1739L79.0794 70.2726L79.0714 70.3712L79.0633 70.4699L79.0552 70.5685L79.0472 70.6672L79.0392 70.7065L79.0312 70.7895L79.0233 70.8882L79.0154 70.9869L79.0075 71.0856L78.9996 71.1843L78.9918 71.2831L78.9839 71.3818L78.9762 71.4805L78.9684 71.5235L78.9606 71.6031L78.9529 71.7018L78.9452 71.8006L78.9376 71.8994L78.9299 71.9982L78.9223 72.097L78.9147 72.1958L78.9072 72.2946L78.8996 72.3412L78.8921 72.4172L78.8846 72.5161L78.8772 72.6149L78.8698 72.7138L78.8623 72.8126L78.855 72.9115L78.8476 73.0104L78.8403 73.1093L78.833 73.1596L78.8257 73.2321L78.8185 73.331L78.8112 73.4299L78.804 73.5289L78.7969 73.6278L78.7897 73.7267L78.7826 73.8257L78.7755 73.9246L78.7684 73.9787L78.7614 74.0476L78.7544 74.1466L78.7474 74.2456L78.7405 74.3446L78.7335 74.4436L78.7266 74.5426L78.7197 74.6416L78.7129 74.7406L78.706 74.7983L78.6992 74.8637L78.6925 74.9628L78.6857 75.0618L78.679 75.1609L78.6723 75.26L78.6656 75.359L78.659 75.4581L78.6524 75.5572L78.6458 75.6186L78.6392 75.6805L78.6327 75.7796L78.6262 75.8787L78.6197 75.9778L78.6132 76.077L78.6068 76.1761L78.6004 76.2752L78.594 76.3744L78.5877 76.4394L78.5813 76.4978L78.5751 76.5969L78.5688 76.6961L78.5625 76.7953L78.5563 76.8945L78.5501 76.9937L78.544 77.0929L78.5379 77.1922L78.5317 77.2609L78.5257 77.3156L78.5196 77.4149L78.5136 77.5141L78.5076 77.6134L78.5016 77.7126L78.4957 77.8119L78.4898 77.9112L78.4839 78.0105L78.478 78.0828L78.4722 78.1341L78.4663 78.2334L78.4606 78.3327L78.4548 78.432L78.4491 78.5313L78.4434 78.6306L78.4377 78.73L78.4321 78.8293L78.4265 78.9053L78.4208 78.953L78.4153 79.0524L78.4098 79.1517L78.4042 79.2511L78.3988 79.3505L78.3933 79.4499L78.3879 79.5493L78.3825 79.6487L78.3771 79.7283L78.3718 79.7725L78.3664 79.8719L78.3611 79.9713L78.3559 80.0707L78.3506 80.1702L78.3454 80.2696L78.3403 80.369L78.3351 80.4685L78.33 80.5518L78.3249 80.5924L78.3198 80.6919L78.3148 80.7914L78.3097 80.8908L78.3047 80.9903L78.2998 81.0898L78.2949 81.1893L78.2899 81.2888L78.2851 81.3758L78.2802 81.4128L78.2754 81.5123L78.2706 81.6119L78.2658 81.7114L78.2611 81.8109L78.2564 81.9105L78.2517 82.01L78.247 82.1095L78.2424 82.2002L78.2378 82.2337L78.2332 82.3332L78.2287 82.4328L78.2242 82.5324L78.2197 82.632L78.2152 82.7315L78.2108 82.8311L78.2064 82.9307L78.202 83.025L78.1976 83.0549L78.1933 83.1545L78.189 83.2542L78.1848 83.3538L78.1805 83.4534L78.1763 83.553L78.1721 83.6527L78.1679 83.7523L78.1638 83.8503L78.1597 83.8766L78.1556 83.9762L78.1516 84.0759L78.1476 84.1756L78.1436 84.2752L78.1396 84.3749L78.1357 84.4746L78.1318 84.5743L78.1279 84.6739L78.1241 84.7006L78.1203 84.7983L78.1164 84.898L78.1127 84.9977L78.109 85.0974L78.1052 85.1971L78.1016 85.2969L78.0979 85.3966L78.0943 85.4963L78.0907 85.5266L78.0871 85.6208L78.0836 85.7205L78.0801 85.8202L78.0766 85.92L78.0731 86.0197L78.0697 86.1195L78.0663 86.2192L78.0629 86.319L78.0596 86.3529L78.0563 86.4435L78.053 86.5433L78.0497 86.6431L78.0465 86.7428L78.0433 86.8426L78.0401 86.9424L78.037 87.0422L78.0338 87.142L78.0307 87.1795L78.0277 87.2666L78.0246 87.3664L78.0216 87.4662L78.0187 87.566L78.0157 87.6658L78.0128 87.7656L78.0099 87.8654L78.007 87.9652L78.0042 88.0064L78.0014 88.0899L77.9986 88.1897L77.9959 88.2896L77.9931 88.3894L77.9904 88.4893L77.9878 88.5891L77.9851 88.6889L77.9825 88.7888L77.9799 88.8336L77.9774 88.9135L77.9749 89.0134L77.9724 89.1132L77.9699 89.2131L77.9675 89.313L77.965 89.4128L77.9627 89.5127L77.9603 89.6126L77.958 89.661L77.9557 89.7373L77.9534 89.8372L77.9511 89.9371L77.9489 90.037L77.9467 90.1369L77.9446 90.2368L77.9425 90.3367L77.9403 90.4366L77.9383 90.4887L77.9362 90.5614L77.9342 90.6613L77.9322 90.7612L77.9303 90.8611L77.9283 90.961L77.9264 91.0609L77.9246 91.1608L77.9227 91.2607L77.9209 91.3165L77.9191 91.3856L77.9174 91.4855L77.9156 91.5854L77.9139 91.6854L77.9122 91.7853L77.9106 91.8852L77.909 91.9852L77.9074 92.0851L77.9058 92.1444L77.9043 92.21L77.9028 92.3099L77.9013 92.4099L77.8998 92.5098L77.8984 92.6098L77.897 92.7097L77.8957 92.8097L77.8943 92.9096L77.893 92.9726L77.8917 93.0345L77.8905 93.1345L77.8893 93.2344L77.8881 93.3344L77.8869 93.4343L77.8858 93.5343L77.8846 93.6343L77.8836 93.7342L77.8825 93.8008L77.8815 93.8592L77.8805 93.9591L77.8795 94.0591L77.8786 94.1591L77.8777 94.259L77.8768 94.359L77.8759 94.459L77.8751 94.559L77.8743 94.6292L77.8735 94.6839L77.8728 94.7839L77.8721 94.8839L77.8714 94.9838L77.8707 95.0838L77.8701 95.1838L77.8695 95.2838L77.8689 95.3838L77.8684 95.4576L77.8678 95.5087L77.8673 95.6087L77.8669 95.7087L77.8665 95.8087L77.8661 95.9086L77.8657 96.0086L77.8653 96.1086L77.865 96.2086L77.8647 96.286L77.8644 96.3336L77.8642 96.4336L77.864 96.5335L77.8638 96.6335L77.8637 96.7335L77.8635 96.8335L77.8635 96.9335L77.8634 97.0335L77.8633 97.1145L77.8633 97.1585L77.8634 97.2584L77.8634 97.3584L77.8635 97.4584L77.8636 97.5584L77.8637 97.6584L77.8639 97.7584L77.864 97.8584L77.8642 97.943L77.8645 97.9833L77.8648 98.0833L77.8651 98.1833L77.8654 98.2833L77.8658 98.3833L77.8661 98.4833L77.8666 98.5832L77.867 98.6832L77.8675 98.7715L77.868 98.8082L77.8685 98.9082L77.8691 99.0082L77.8696 99.1081L77.8702 99.2081L77.8709 99.3081L77.8716 99.4081L77.8722 99.508L77.873 99.5999L77.8737 99.633L77.8745 99.733L77.8753 99.8329L77.8761 99.9329L77.877 100.033L77.8779 100.133L77.8788 100.233L77.8798 100.333L77.8807 100.428L77.8817 100.458L77.8828 100.558L77.8838 100.658L77.8849 100.758L77.886 100.858L77.8871 100.958L77.8883 101.058L77.8895 101.157L77.8907 101.256L77.892 101.282L77.8932 101.382L77.8946 101.482L77.8959 101.582L77.8972 101.682L77.8987 101.782L77.9001 101.882L77.9015 101.982L77.903 102.082L77.9045 102.11L77.906 102.207L77.9076 102.307L77.9091 102.407L77.9108 102.507L77.9124 102.607L77.9141 102.707L77.9158 102.806L77.9175 102.906L77.9192 102.938L77.921 103.031L77.9228 103.131L77.9247 103.231L77.9265 103.331L77.9284 103.431L77.9303 103.531L77.9323 103.631L77.9342 103.731L77.9362 103.765L77.9382 103.855L77.9403 103.955L77.9424 104.055L77.9445 104.155L77.9466 104.255L77.9488 104.355L77.951 104.455L77.9532 104.555L77.9555 104.593L77.9577 104.679L77.96 104.779L77.9624 104.879L77.9647 104.979L77.9671 105.079L77.9695 105.179L77.972 105.279L77.9744 105.379L77.9769 105.421L77.9794 105.503L77.982 105.603L77.9846 105.703L77.9872 105.803L77.9898 105.903L77.9925 106.003L77.9951 106.102L77.9979 106.202L78.0006 106.248L78.0033 106.327L78.0062 106.427L78.009 106.527L78.0118 106.626L78.0147 106.726L78.0176 106.826L78.0205 106.926L78.0235 107.026L78.0265 107.075L78.0295 107.15L78.0325 107.25L78.0356 107.35L78.0387 107.45L78.0418 107.549L78.045 107.649L78.0482 107.749L78.0513 107.849L78.0546 107.902L78.0578 107.973L78.0611 108.073L78.0644 108.173L78.0678 108.273L78.0711 108.372L78.0745 108.472L78.0779 108.572L78.0814 108.672L78.0849 108.728L78.0884 108.796L78.0919 108.896L78.0955 108.996L78.099 109.095L78.1027 109.195L78.1063 109.295L78.1099 109.395L78.1136 109.494L78.1173 109.554L78.1211 109.619L78.1249 109.718L78.1287 109.818L78.1325 109.918L78.1363 110.017L78.1402 110.117L78.1441 110.217L78.1481 110.316L78.152 110.38L78.156 110.441L78.16 110.54L78.1641 110.64L78.1681 110.74L78.1722 110.839L78.1763 110.939L78.1805 111.039L78.1847 111.138L78.1889 111.205L78.1931 111.263L78.1973 111.362L78.2016 111.462L78.2059 111.561L78.2103 111.661L78.2146 111.761L78.219 111.86L78.2234 111.96L78.2279 112.03L78.2323 112.084L78.2368 112.184L78.2413 112.283L78.2459 112.383L78.2505 112.482L78.255 112.582L78.2597 112.681L78.2643 112.781L78.269 112.855L78.2737 112.905L78.2785 113.005L78.2832 113.104L78.288 113.204L78.2928 113.303L78.2977 113.403L78.3025 113.502L78.3074 113.602L78.3123 113.679L78.3173 113.726L78.3222 113.825L78.3272 113.925L78.3322 114.024L78.3373 114.124L78.3424 114.223L78.3475 114.323L78.3526 114.422L78.3578 114.503L78.3629 114.546L78.3681 114.645L78.3734 114.745L78.3786 114.844L78.3839 114.944L78.3892 115.043L78.3946 115.142L78.3999 115.242L78.4053 115.327L78.4107 115.366L78.4162 115.465L78.4216 115.564L78.4271 115.664L78.4327 115.763L78.4382 115.863L78.4438 115.962L78.4494 116.061L78.455 116.15L78.4606 116.185L78.4663 116.284L78.472 116.384L78.4778 116.483L78.4835 116.582L78.4893 116.682L78.4951 116.781L78.5009 116.88L78.5068 116.972L78.5126 117.004L78.5186 117.103L78.5245 117.202L78.5304 117.302L78.5365 117.401L78.5425 117.5L78.5485 117.599L78.5546 117.699L78.5606 117.794L78.5668 117.822L78.5729 117.921L78.5791 118.02L78.5853 118.12L78.5915 118.219L78.5977 118.318L78.604 118.417L78.6103 118.516L78.6166 118.615L78.623 118.64L78.6293 118.739L78.6357 118.838L78.6422 118.937L78.6486 119.036L78.6551 119.135L78.6616 119.235L78.6681 119.334L78.6746 119.433L78.6812 119.46L78.6878 119.556L78.6944 119.655L78.7011 119.754L78.7078 119.853L78.7145 119.952L78.7212 120.051L78.7279 120.151L78.7347 120.25L78.7415 120.281L78.7484 120.373L78.7552 120.472L78.7621 120.571L78.769 120.67L78.7759 120.769L78.7829 120.868L78.7899 120.967L78.7969 121.066L78.8039 121.1L78.811 121.189L78.818 121.288L78.8251 121.387L78.8323 121.485L78.8394 121.584L78.8466 121.683L78.8538 121.782L78.861 121.881L78.8683 121.919L78.8756 122.004L78.8829 122.103L78.8902 122.202L78.8976 122.301L78.905 122.4L78.9124 122.498L78.9198 122.597L78.9272 122.696L78.9347 122.738L78.9422 122.819L78.9498 122.918L78.9573 123.016L78.9649 123.115L78.9725 123.214L78.9801 123.313L78.9878 123.412L78.9955 123.51L79.0032 123.556L79.0109 123.633L79.0187 123.732L79.0264 123.83L79.0342 123.929L79.0421 124.028L79.0499 124.127L79.0578 124.225L79.0657 124.324L79.0736 124.373L79.0816 124.446L79.0895 124.545L79.0975 124.644L79.1056 124.742L79.1136 124.841L79.1217 124.94L79.1298 125.038L79.1379 125.137L79.146 125.189L79.1542 125.259L79.1624 125.358L79.1706 125.456L79.1789 125.555L79.1871 125.654L79.1954 125.752L79.2037 125.851L79.2121 125.949L79.2204 126.005L79.2288 126.071L79.2372 126.17L79.2457 126.268L79.2541 126.367L79.2626 126.465L79.2711 126.564L79.2797 126.662L79.2882 126.761L79.2968 126.82L79.3054 126.883L79.314 126.981L79.3227 127.08L79.3314 127.178L79.3401 127.277L79.3488 127.375L79.3576 127.473L79.3663 127.572L79.3751 127.635L79.3839 127.694L79.3928 127.792L79.4016 127.89L79.4106 127.989L79.4195 128.087L79.4284 128.185L79.4374 128.284L79.4464 128.382L79.4554 128.448L79.4644 128.504L79.4735 128.602L79.4826 128.7L79.4917 128.798L79.5008 128.897L79.51 128.995L79.5191 129.093L79.5283 129.191L79.5376 129.261L79.5468 129.313L79.5561 129.411L79.5654 129.509L79.5747 129.607L79.5841 129.706L79.5934 129.804L79.6028 129.902L79.6122 130L79.6217 130.074L79.6311 130.121L79.6406 130.219L79.6501 130.318L79.6597 130.416L79.6692 130.514L79.6788 130.612L79.6884 130.71L79.698 130.808L79.7077 130.885L79.7173 130.929L79.7271 131.027L79.7368 131.125L79.7465 131.223L79.7563 131.321L79.7661 131.419L79.7759 131.517L79.7857 131.615L79.7956 131.696L79.8054 131.736L79.8154 131.834L79.8253 131.932L79.8352 132.03L79.8452 132.128L79.8552 132.226L79.8652 132.323L79.8753 132.421L79.8853 132.505L79.8954 132.542L79.9055 132.64L79.9157 132.738L79.9258 132.836L79.936 132.933L79.9462 133.031L79.9564 133.129L79.9667 133.227L79.977 133.314L79.9873 133.347L79.9976 133.445L80.0079 133.543L80.0183 133.641L80.0286 133.738L80.0391 133.836L80.0495 133.934L80.0599 134.031L80.0704 134.122L80.0809 134.152L80.0914 134.249L80.102 134.347L80.1126 134.445L80.1232 134.542L80.1338 134.64L80.1444 134.738L80.1551 134.835L80.1657 134.93L80.1764 134.955L80.1872 135.053L80.1979 135.151L80.2087 135.248L80.2195 135.346L80.2303 135.443L80.2411 135.541L80.252 135.638L80.2629 135.736L80.2738 135.759L80.2847 135.856L80.2957 135.953L80.3066 136.051L80.3176 136.148L80.3286 136.245L80.3397 136.343L80.3508 136.44L80.3618 136.538L80.3729 136.564L80.3841 136.657L80.3952 136.755L80.4064 136.852L80.4176 136.949L80.4288 137.047L80.44 137.144L80.4513 137.241L80.4626 137.339L80.4739 137.369L80.4852 137.458L80.4965 137.556L80.5079 137.653L80.5193 137.75L80.5307 137.847L80.5422 137.944L80.5536 138.042L80.5651 138.139L80.5766 138.172L80.5881 138.258L80.5997 138.355L80.6112 138.453L80.6228 138.55L80.6344 138.647L80.6461 138.744L80.6577 138.841L80.6694 138.938L80.6811 138.975L80.6928 139.057L80.7046 139.154L80.7163 139.251L80.7281 139.348L80.7399 139.445L80.7517 139.542L80.7636 139.639L80.7755 139.736L80.7874 139.777L80.7992 139.855L80.8112 139.952L80.8232 140.049L80.8351 140.146L80.8471 140.243L80.8592 140.34L80.8712 140.437L80.8833 140.534L80.8953 140.578L80.9074 140.653L80.9196 140.749L80.9317 140.846L80.9439 140.943L80.9561 141.04L80.9683 141.137L80.9805 141.233L80.9928 141.33L81.0051 141.378L81.0174 141.449L81.0297 141.545L81.042 141.642L81.0544 141.739L81.0668 141.836L81.0792 141.932L81.0916 142.029L81.104 142.126L81.1165 142.177L81.129 142.244L81.1415 142.341L81.154 142.437L81.1666 142.534L81.1792 142.63L81.1917 142.727L81.2044 142.824L81.217 142.92L81.2297 142.975L81.2423 143.038L81.255 143.135L81.2677 143.231L81.2805 143.328L81.2932 143.424L81.306 143.521L81.3188 143.617L81.3316 143.714L81.3445 143.772L81.3574 143.831L81.3702 143.928L81.3831 144.024L81.3961 144.121L81.409 144.217L81.422 144.313L81.435 144.41L81.448 144.506L81.461 144.568L81.4741 144.624L81.4871 144.72L81.5002 144.816L81.5133 144.913L81.5265 145.009L81.5396 145.105L81.5528 145.201L81.566 145.298L81.5792 145.363L81.5924 145.415L81.6057 145.511L81.6189 145.607L81.6322 145.703L81.6456 145.8L81.6589 145.896L81.6722 145.992L81.6856 146.088L81.699 146.157L81.7124 146.205L81.7259 146.301L81.7393 146.397L81.7528 146.493L81.7663 146.589L81.7798 146.685L81.7933 146.781L81.8069 146.877L81.8205 146.949L81.8341 146.994L81.8477 147.09L81.8613 147.186L81.875 147.282L81.8887 147.378L81.9024 147.474L81.9161 147.57L81.9298 147.666L81.9436 147.741L81.9573 147.782L81.9712 147.878L81.985 147.974L81.9988 148.07L82.0127 148.166L82.0265 148.261L82.0404 148.357L82.0544 148.453L82.0683 148.532L82.0822 148.569L82.0962 148.665L82.1102 148.761L82.1242 148.857L82.1383 148.952L82.1523 149.048L82.1664 149.144L82.1805 149.239L82.1946 149.322L82.2087 149.355L82.2229 149.451L82.237 149.547L82.2512 149.642L82.2654 149.738L82.2797 149.833L82.2939 149.929L82.3082 150.024L82.3225 150.11L82.3368 150.14L82.3511 150.236L82.3654 150.331L82.3798 150.427L82.3942 150.522L82.4086 150.618L82.423 150.713L82.4375 150.808L82.4519 150.898L82.4664 150.924L82.4809 151.019L82.4954 151.115L82.51 151.21L82.5245 151.305L82.5391 151.401L82.5537 151.496L82.5683 151.591L82.583 151.684L82.5976 151.707L82.6123 151.802L82.627 151.897L82.6417 151.992L82.6564 152.088L82.6712 152.183L82.686 152.278L82.7007 152.373L82.7155 152.468L82.7304 152.49L82.7452 152.583L82.7601 152.678L82.775 152.774L82.7899 152.869L82.8048 152.964L82.8197 153.059L82.8347 153.154L82.8496 153.249L82.8646 153.274L82.8796 153.364L82.8947 153.459L82.9097 153.554L82.9248 153.649L82.9399 153.743L82.955 153.838L82.9701 153.933L82.9853 154.028L83.0004 154.057L83.0156 154.143L83.0308 154.238L83.046 154.333L83.0613 154.427L83.0765 154.522L83.0918 154.617L83.1071 154.712L83.1224 154.806L83.1377 154.838L83.1531 154.921L83.1684 155.016L83.1838 155.11L83.1992 155.205L83.2147 155.3L83.2301 155.394L83.2456 155.489L83.261 155.583L83.2765 155.619L83.292 155.698L83.3076 155.792L83.3231 155.887L83.3387 155.981L83.3543 156.076L83.3699 156.17L83.3855 156.265L83.4011 156.359L83.4168 156.398L83.4325 156.473L83.4482 156.568L83.4639 156.662L83.4796 156.757L83.4954 156.851L83.5111 156.945L83.5269 157.04L83.5427 157.134L83.5586 157.176L83.5744 157.248L83.5902 157.342L83.6061 157.436L83.622 157.531L83.6379 157.625L83.6539 157.719L83.6698 157.814L83.6858 157.908L83.7018 157.954L83.7177 158.021L83.7338 158.115L83.7498 158.209L83.7658 158.304L83.7819 158.398L83.798 158.492L83.8141 158.586L83.8303 158.68L83.8464 158.729L83.8625 158.793L83.8787 158.887L83.8949 158.981L83.9111 159.075L83.9274 159.169L83.9436 159.263L83.9599 159.357L83.9762 159.451L83.9925 159.504L84.0088 159.564L84.0251 159.658L84.0415 159.752L84.0578 159.846L84.0742 159.94L84.0906 160.034L84.107 160.127L84.1235 160.221L84.1399 160.277L84.1564 160.334L84.1729 160.428L84.1894 160.521L84.2059 160.615L84.2225 160.709L84.2391 160.803L84.2556 160.896L84.2722 160.99L84.2888 161.05L84.3055 161.102L84.3221 161.196L84.3388 161.289L84.3555 161.383L84.3722 161.477L84.3889 161.57L84.4056 161.664L84.4224 161.757L84.4391 161.82L84.4559 161.869L84.4727 161.963L84.4895 162.056L84.5064 162.15L84.5232 162.243L84.5401 162.337L84.557 162.43L84.5739 162.524L84.5908 162.59L84.6077 162.635L84.6247 162.729L84.6417 162.822L84.6586 162.915L84.6757 163.009L84.6927 163.102L84.7097 163.195L84.7268 163.289L84.7438 163.359L84.7609 163.4L84.778 163.493L84.7951 163.586L84.8123 163.68L84.8294 163.773L84.8466 163.866L84.8638 163.959L84.881 164.052L84.8982 164.126L84.9154 164.163L84.9327 164.257L84.95 164.35L84.9673 164.443L84.9846 164.536L85.0019 164.629L85.0192 164.722L85.0366 164.815L85.0539 164.892L85.0713 164.926L85.0887 165.019L85.1061 165.111L85.1236 165.204L85.141 165.297L85.1585 165.39L85.176 165.483L85.1935 165.576L85.211 165.656L85.2285 165.686L85.2461 165.779L85.2636 165.872L85.2812 165.965L85.2988 166.058L85.3164 166.15L85.334 166.243L85.3517 166.336L85.3694 166.42L85.387 166.446L85.4047 166.539L85.4224 166.631L85.4402 166.724L85.4579 166.816L85.4757 166.909L85.4934 167.002L85.5112 167.094L85.529 167.182L85.5468 167.204L85.5647 167.297L85.5825 167.389L85.6004 167.482L85.6183 167.574L85.6362 167.667L85.6541 167.759L85.672 167.851L85.69 167.942L85.7079 167.961L85.7259 168.054L85.7439 168.146L85.7619 168.238L85.78 168.331L85.798 168.423L85.8161 168.515L85.8341 168.607L85.8522 168.7L85.8703 168.719L85.8885 168.809L85.9066 168.901L85.9247 168.993L85.9429 169.086L85.9611 169.178L85.9793 169.27L85.9975 169.362L86.0157 169.454L86.034 169.477L86.0522 169.563L86.0705 169.655L86.0888 169.747L86.1071 169.839L86.1254 169.931L86.1438 170.023L86.1621 170.115L86.1805 170.207L86.1989 170.233L86.2173 170.316L86.2357 170.408L86.2541 170.5L86.2726 170.592L86.291 170.684L86.3095 170.775L86.328 170.867L86.3465 170.959L86.365 170.989L86.3835 171.067L86.4021 171.159L86.4206 171.251L86.4392 171.343L86.4578 171.434L86.4764 171.526L86.4951 171.618L86.5137 171.709L86.5324 171.742L86.551 171.818L86.5697 171.909L86.5884 172.001L86.6071 172.092L86.6259 172.184L86.6446 172.275L86.6634 172.367L86.6822 172.458L86.7009 172.495L86.7197 172.566L86.7386 172.658L86.7574 172.749L86.7763 172.841L86.7951 172.932L86.814 173.023L86.8329 173.115L86.8518 173.206L86.8707 173.246L86.8897 173.314L86.9086 173.405L86.9276 173.496L86.9466 173.588L86.9656 173.679L86.9846 173.77L87.0036 173.861L87.0226 173.952L87.0417 173.996L87.0608 174.06L87.0798 174.151L87.0989 174.242L87.118 174.333L87.1372 174.424L87.1563 174.515L87.1755 174.606L87.1946 174.697L87.2138 174.744L87.233 174.804L87.2522 174.895L87.2715 174.986L87.2907 175.077L87.31 175.168L87.3292 175.259L87.3485 175.35L87.3678 175.441L87.3871 175.491L87.4065 175.548L87.4258 175.638L87.4452 175.729L87.4645 175.82L87.4839 175.911L87.5033 176.001L87.5227 176.092L87.5422 176.183L87.5616 176.237L87.581 176.289L87.6005 176.38L87.62 176.471L87.6395 176.561L87.659 176.652L87.6785 176.743L87.6981 176.833L87.7176 176.924L87.7372 176.981L87.7568 177.03L87.7764 177.12L87.796 177.211L87.8156 177.301L87.8352 177.392L87.8549 177.482L87.8745 177.573L87.8942 177.663L87.9139 177.724L87.9336 177.769L87.9533 177.859L87.9731 177.949L87.9928 178.04L88.0126 178.13L88.0323 178.22L88.0521 178.311L88.0719 178.401L88.0917 178.465L88.1116 178.506L88.1314 178.596L88.1513 178.687L88.1711 178.777L88.191 178.867L88.2109 178.957L88.2308 179.047L88.2507 179.137L88.2707 179.205L88.2906 179.242L88.3106 179.332L88.3306 179.422L88.3505 179.512L88.3705 179.602L88.3906 179.692L88.4106 179.782L88.4306 179.872L88.4507 179.943L88.4707 179.977L88.4908 180.067L88.5109 180.157L88.531 180.247L88.5512 180.336L88.5713 180.426L88.5914 180.516L88.6116 180.606L88.6318 180.68L88.652 180.71L88.6722 180.8L88.6924 180.89L88.7126 180.979L88.7329 181.069L88.7531 181.159L88.7734 181.248L88.7937 181.338L88.814 181.416L88.8343 181.442L88.8546 181.532L88.8749 181.621L88.8952 181.711L88.9156 181.8L88.936 181.89L88.9564 181.979L88.9768 182.069L88.9972 182.15L89.0176 182.172L89.038 182.262L89.0585 182.351L89.0789 182.441L89.0994 182.53L89.1199 182.619L89.1404 182.708L89.1609 182.798L89.1814 182.883L89.202 182.901L89.2225 182.991L89.2431 183.08L89.2636 183.169L89.2842 183.258L89.3048 183.347L89.3254 183.436L89.346 183.525L89.3667 183.614L89.3873 183.629L89.408 183.718L89.4287 183.807L89.4494 183.896L89.4701 183.985L89.4908 184.074L89.5115 184.163L89.5322 184.252L89.553 184.341L89.5737 184.357L89.5945 184.443L89.6153 184.532L89.6361 184.621L89.6569 184.71L89.6777 184.799L89.6986 184.888L89.7194 184.976L89.7403 185.065L89.7611 185.085L89.782 185.168L89.8029 185.256L89.8238 185.345L89.8447 185.434L89.8657 185.522L89.8866 185.611L89.9076 185.7L89.9285 185.788L89.9495 185.812L89.9705 185.89L89.9915 185.979L90.0125 186.067L90.0336 186.156L90.0546 186.244L90.0757 186.333L90.0967 186.421L90.1178 186.51L90.1389 186.537L90.16 186.612L90.1811 186.7L90.2022 186.788L90.2233 186.877L90.2445 186.965L90.2657 187.053L90.2868 187.142L90.308 187.23L90.3292 187.26L90.3504 187.331L90.3716 187.42L90.3928 187.508L90.4141 187.596L90.4353 187.684L90.4566 187.772L90.4779 187.86L90.4992 187.948L90.5205 187.982L90.5418 188.05L90.5631 188.138L90.5844 188.226L90.6058 188.314L90.6271 188.402L90.6485 188.49L90.6699 188.578L90.6913 188.665L90.7127 188.703L90.7341 188.766L90.7555 188.854L90.7769 188.942L90.7984 189.03L90.8198 189.118L90.8413 189.205L90.8628 189.293L90.8843 189.381L90.9058 189.422L90.9273 189.481L90.9488 189.569L90.9704 189.657L90.9919 189.744L91.0135 189.832L91.0351 189.92L91.0566 190.007L91.0782 190.095L91.0998 190.139L91.1215 190.195L91.1431 190.283L91.1647 190.37L91.1864 190.458L91.208 190.545L91.2297 190.632L91.2514 190.72L91.2731 190.807L91.2948 190.855L91.3165 190.907L91.3382 190.994L91.3599 191.082L91.3817 191.169L91.4034 191.256L91.4252 191.344L91.447 191.431L91.4688 191.518L91.4906 191.569L91.5124 191.618L91.5342 191.705L91.556 191.792L91.5779 191.879L91.5997 191.966L91.6216 192.053L91.6435 192.14L91.6654 192.227L91.6873 192.282L91.7092 192.327L91.7311 192.414L91.753 192.501L91.775 192.588L91.7969 192.674L91.8189 192.761L91.8408 192.848L91.8628 192.935L91.8848 192.993L91.9068 193.034L91.9288 193.121L91.9508 193.208L91.9729 193.294L91.9949 193.381L92.017 193.468L92.039 193.555L92.0611 193.641L92.0832 193.703L92.1053 193.74L92.1274 193.826L92.1495 193.913L92.1716 194L92.1938 194.086L92.2159 194.173L92.2381 194.26L92.2603 194.346L92.2824 194.411L92.3046 194.444L92.3268 194.531L92.349 194.617L92.3712 194.704L92.3935 194.79L92.4157 194.876L92.4379 194.963L92.4602 195.049L92.4825 195.117L92.5047 195.147L92.527 195.233L92.5493 195.319L92.5716 195.406L92.594 195.492L92.6163 195.578L92.6386 195.664L92.661 195.751L92.6833 195.822L92.7057 195.848L92.7281 195.934L92.7505 196.02L92.7728 196.106L92.7952 196.192L92.8177 196.278L92.8401 196.364L92.8625 196.45L92.885 196.526L92.9074 196.547L92.9299 196.633L92.9524 196.719L92.9748 196.805L92.9973 196.891L93.0198 196.977L93.0423 197.063L93.0649 197.149L93.0874 197.227L93.1099 197.245L93.1325 197.331L93.155 197.417L93.1776 197.503L93.2002 197.588L93.2228 197.674L93.2454 197.76L93.268 197.845L93.2906 197.927L93.3132 197.942L93.2888 197.98L93.2364 197.991L93.1841 198.001L93.1318 198.011L93.0795 198.022L93.0272 198.032L92.9749 198.042L92.9226 198.052L92.925 198.062L92.893 198.072L92.8408 198.082L92.7885 198.092L92.7363 198.101L92.684 198.111L92.6318 198.12L92.5796 198.129L92.5274 198.138L92.5263 198.148L92.498 198.158L92.4458 198.167L92.3937 198.176L92.3415 198.184L92.2894 198.193L92.2373 198.202L92.1851 198.21L92.133 198.219L92.1285 198.228L92.1038 198.237L92.0517 198.245L91.9997 198.253L91.9476 198.261L91.8956 198.269L91.8436 198.277L91.7915 198.285L91.7395 198.293L91.7314 198.302L91.7105 198.31L91.6585 198.317L91.6065 198.325L91.5545 198.332L91.5026 198.339L91.4507 198.346L91.3987 198.353L91.3468 198.36L91.3352 198.369L91.3179 198.377L91.2661 198.383L91.2142 198.39L91.1623 198.396L91.1105 198.403L91.0586 198.409L91.0068 198.415L90.955 198.421L90.9398 198.429L90.9263 198.437L90.8745 198.443L90.8228 198.449L90.771 198.454L90.7192 198.46L90.6675 198.465L90.6158 198.471L90.5641 198.476L90.5454 198.483L90.5356 198.491L90.4839 198.496L90.4322 198.501L90.3806 198.506L90.3289 198.511L90.2773 198.516L90.2257 198.52L90.1741 198.525L90.1519 198.531L90.1457 198.538L90.0942 198.543L90.0426 198.547L89.9911 198.551L89.9395 198.555L89.888 198.559L89.8365 198.563L89.785 198.567L89.7594 198.572L89.7569 198.58L89.7054 198.583L89.654 198.587L89.6025 198.59L89.5511 198.593L89.4997 198.596L89.4483 198.6L89.3969 198.603L89.3678 198.607L89.369 198.614L89.3176 198.617L89.2663 198.62L89.215 198.622L89.1637 198.625L89.1124 198.627L89.0611 198.63L89.0099 198.632L88.9772 198.636L88.9821 198.643L88.9308 198.645L88.8796 198.647L88.8284 198.648L88.7773 198.65L88.7261 198.652L88.6749 198.653L88.6238 198.655L88.5876 198.658L88.5962 198.665L88.5451 198.666L88.494 198.667L88.4429 198.668L88.3919 198.669L88.3408 198.67L88.2898 198.671L88.2388 198.671L88.1992 198.673L88.2114 198.68L88.1604 198.681L88.1094 198.681L88.0585 198.681L88.0075 198.682L87.9566 198.682L87.9057 198.682L87.8548 198.681L87.8117 198.682L87.8276 198.689L87.7767 198.689L87.7259 198.689L87.6751 198.688L87.6243 198.688L87.5735 198.687L87.5227 198.686L87.4719 198.685L87.4254 198.685L87.4449 198.692L87.3942 198.691L87.3435 198.69L87.2928 198.689L87.2421 198.687L87.1915 198.686L87.1408 198.684L87.0902 198.682L87.0402 198.681L87.0634 198.688L87.0128 198.687L86.9622 198.685L86.9117 198.683L86.8611 198.68L86.8106 198.678L86.7601 198.676L86.7096 198.673L86.6591 198.671L86.6801 198.678L86.6326 198.676L86.5821 198.673L86.5317 198.67L86.4813 198.667L86.4309 198.664L86.3806 198.661L86.3302 198.658L86.2799 198.654L86.2973 198.661L86.2535 198.658L86.2032 198.655L86.1529 198.651L86.1027 198.647L86.0524 198.644L86.0022 198.64L85.952 198.636L85.9018 198.632L85.9157 198.637L85.8756 198.635L85.8255 198.63L85.7753 198.626L85.7252 198.621L85.6751 198.617L85.6251 198.612L85.575 198.607L85.525 198.602L85.5353 198.607L85.4989 198.604L85.449 198.599L85.399 198.594L85.349 198.589L85.2991 198.584L85.2491 198.578L85.1992 198.573L85.1493 198.567L85.1562 198.571L85.1235 198.568L85.0737 198.562L85.0239 198.556L84.9741 198.55L84.9243 198.544L84.8745 198.538L84.8247 198.531L84.775 198.525L84.7784 198.528L84.7494 198.525L84.6997 198.518L84.65 198.512L84.6004 198.505L84.5508 198.498L84.5011 198.491L84.4515 198.484L84.402 198.476L84.4019 198.478L84.3766 198.476L84.3271 198.468L84.2775 198.461L84.228 198.453L84.1786 198.445L84.1291 198.438L84.0797 198.43L84.0303 198.422L84.0268 198.422L84.0051 198.42L83.9557 198.411L83.9064 198.403L83.857 198.395L83.8077 198.386L83.7584 198.378L83.7092 198.369L83.6599 198.36L83.653 198.36L83.6349 198.358L83.5857 198.349L83.5365 198.339L83.4874 198.33L83.4382 198.321L83.3891 198.312L83.34 198.302L83.2909 198.293L83.2806 198.291L83.2662 198.289L83.2171 198.279L83.1681 198.269L83.1191 198.259L83.0701 198.249L83.0212 198.239L82.9722 198.229L82.9233 198.219L82.9096 198.216L82.8988 198.214L82.8499 198.203L82.8011 198.193L82.7523 198.182L82.7035 198.171L82.6547 198.16L82.6059 198.149L82.5108 198.132L82.4442 198.121L82.3877 198.112L82.2897 198.094L82.1916 198.076L82.0936 198.058L81.9956 198.039L81.8976 198.021L81.7997 198.002L81.7017 197.983L81.6318 197.971L81.5789 197.963L81.481 197.944L81.383 197.925L81.2852 197.906L81.1874 197.887L81.0895 197.867L80.9917 197.848L80.8939 197.828L80.8206 197.815L80.7712 197.807L80.6735 197.787L80.5758 197.767L80.4781 197.747L80.3804 197.727L80.2827 197.707L80.1851 197.687L80.0874 197.667L80.0107 197.652L79.9649 197.644L79.8673 197.624L79.7698 197.603L79.6722 197.582L79.5747 197.562L79.4772 197.541L79.3797 197.52L79.2823 197.498L79.2022 197.482L79.1599 197.475L79.0625 197.454L78.9651 197.432L78.8677 197.411L78.7704 197.389L78.6731 197.367L78.5758 197.346L78.4785 197.324L78.395 197.305L78.3563 197.299L78.2591 197.277L78.1619 197.255L78.0647 197.232L77.9675 197.21L77.8704 197.187L77.7733 197.165L77.6761 197.142L77.5894 197.122L77.5542 197.117L77.4572 197.094L77.3601 197.071L77.2631 197.047L77.1661 197.024L77.0692 197.001L76.9723 196.977L76.8753 196.954L76.7853 196.932L76.7536 196.927L76.6567 196.904L76.5599 196.88L76.4631 196.856L76.3663 196.832L76.2695 196.808L76.1728 196.784L76.0761 196.759L75.9827 196.736L75.9546 196.732L75.8579 196.707L75.7613 196.683L75.6646 196.658L75.568 196.633L75.4715 196.608L75.3749 196.583L75.2784 196.558L75.1819 196.533L75.157 196.529L75.0607 196.504L74.9643 196.479L74.8678 196.453L74.7714 196.427L74.6751 196.402L74.5787 196.376L74.4825 196.35L74.3862 196.324L74.3579 196.319L74.2651 196.294L74.1689 196.268L74.0727 196.242L73.9766 196.215L73.8804 196.189L73.7843 196.162L73.6882 196.136L73.5921 196.109L73.5605 196.103L73.4714 196.078L73.3754 196.051L73.2794 196.024L73.1834 195.997L73.0875 195.969L72.9916 195.942L72.8957 195.915L72.7999 195.887L72.7648 195.88L72.6794 195.855L72.5836 195.828L72.4879 195.8L72.3921 195.772L72.2964 195.744L72.2008 195.715L72.1051 195.687L72.0095 195.659L71.9711 195.65L71.8893 195.626L71.7937 195.597L71.6982 195.569L71.6027 195.54L71.5072 195.511L71.4118 195.482L71.3164 195.453L71.221 195.424L71.1792 195.413L71.101 195.39L71.0057 195.361L70.9104 195.331L70.8151 195.302L70.7199 195.272L70.6247 195.242L70.5295 195.212L70.4344 195.182L70.3894 195.17L70.3147 195.148L70.2197 195.118L70.1246 195.087L70.0296 195.057L69.9346 195.026L69.8396 194.996L69.7447 194.965L69.6498 194.935L69.6015 194.921L69.5304 194.899L69.4356 194.868L69.3408 194.837L69.246 194.806L69.1513 194.774L69.0566 194.743L68.962 194.712L68.8673 194.68L68.8157 194.665L68.7482 194.644L68.6537 194.612L68.5591 194.58L68.4646 194.548L68.3701 194.516L68.2757 194.484L68.1813 194.452L68.0869 194.419L68.0321 194.402L67.9681 194.382L67.8738 194.349L67.7796 194.317L67.6853 194.284L67.5911 194.251L67.4969 194.218L67.4028 194.185L67.3087 194.152L67.2506 194.133L67.1902 194.113L67.0962 194.08L67.0022 194.047L66.9082 194.013L66.8143 193.98L66.7204 193.946L66.6265 193.912L66.5326 193.879L66.4715 193.858L66.4145 193.839L66.3208 193.805L66.227 193.771L66.1333 193.736L66.0397 193.702L65.946 193.668L65.8525 193.633L65.7589 193.598L65.6945 193.576L65.6411 193.558L65.5476 193.523L65.4542 193.488L65.3608 193.453L65.2674 193.418L65.174 193.383L65.0807 193.347L64.9875 193.312L64.92 193.287L64.87 193.27L64.7768 193.235L64.6837 193.199L64.5905 193.163L64.4975 193.127L64.4044 193.091L64.3114 193.055L64.2184 193.019L64.1478 192.993L64.1013 192.977L64.0084 192.94L63.9155 192.904L63.8227 192.867L63.7299 192.83L63.6372 192.794L63.5445 192.757L63.4518 192.72L63.3781 192.691L63.335 192.676L63.2424 192.639L63.1498 192.602L63.0573 192.565L62.9648 192.527L62.8724 192.49L62.78 192.452L62.6876 192.415L62.6109 192.384L62.5712 192.37L62.4789 192.332L62.3866 192.294L62.2945 192.256L62.2023 192.218L62.1101 192.179L62.018 192.141L61.926 192.103L61.8462 192.07L61.8099 192.057L61.718 192.018L61.626 191.98L61.5341 191.941L61.4423 191.902L61.3504 191.863L61.2587 191.824L61.1669 191.785L61.0842 191.75L61.0513 191.738L60.9596 191.699L60.868 191.659L60.7764 191.62L60.6849 191.58L60.5934 191.54L60.5019 191.5L60.4105 191.46L60.3248 191.423L60.2952 191.413L60.2039 191.373L60.1126 191.332L60.0214 191.292L59.9302 191.252L59.839 191.211L59.7478 191.17L59.6568 191.13L59.5682 191.09L59.5419 191.081L59.4509 191.04L59.36 190.999L59.269 190.958L59.1781 190.917L59.0873 190.876L58.9965 190.834L58.9058 190.793L58.8151 190.751L58.7905 190.743L58.7006 190.702L58.61 190.66L58.5195 190.618L58.4289 190.576L58.3384 190.534L58.248 190.492L58.1575 190.45L58.0672 190.408L58.0395 190.398L57.9532 190.357L57.8629 190.315L57.7727 190.272L57.6825 190.229L57.5923 190.187L57.5022 190.144L57.4122 190.101L57.3221 190.058L57.2914 190.046L57.2086 190.006L57.1187 189.963L57.0287 189.92L56.9389 189.876L56.8491 189.833L56.7594 189.789L56.6697 189.746L56.58 189.702L56.5462 189.688L56.4669 189.649L56.3773 189.605L56.2878 189.561L56.1983 189.517L56.1088 189.473L56.0194 189.429L55.9301 189.384L55.8408 189.34L55.8039 189.324L55.7281 189.286L55.6389 189.242L55.5497 189.197L55.4606 189.152L55.3715 189.107L55.2825 189.062L55.1935 189.017L55.1046 188.971L55.0647 188.953L54.9923 188.917L54.9035 188.872L54.8147 188.826L54.7259 188.781L54.6372 188.735L54.5486 188.689L54.4599 188.643L54.3714 188.597L54.3285 188.577L54.2596 188.542L54.1711 188.496L54.0827 188.45L53.9943 188.403L53.906 188.357L53.8177 188.31L53.7295 188.264L53.6413 188.217L53.5955 188.195L53.53 188.161L53.4419 188.114L53.3538 188.067L53.2658 188.02L53.1779 187.973L53.09 187.925L53.0022 187.878L52.9143 187.831L52.8656 187.806L52.8035 187.774L52.7158 187.726L52.6281 187.678L52.5405 187.63L52.4529 187.583L52.3654 187.535L52.278 187.487L52.1906 187.438L52.1389 187.412L52.0801 187.381L51.9929 187.332L51.9056 187.284L51.8184 187.235L51.7312 187.187L51.6441 187.138L51.557 187.089L51.47 187.04L51.4155 187.011L51.3601 186.981L51.2732 186.932L51.1863 186.883L51.0995 186.834L51.0128 186.785L50.926 186.735L50.8394 186.686L50.7528 186.636L50.6955 186.605L50.6433 186.576L50.5568 186.527L50.4704 186.477L50.384 186.427L50.2976 186.377L50.2113 186.327L50.125 186.276L50.0388 186.226L49.9787 186.192L49.9299 186.165L49.8438 186.115L49.7577 186.064L49.6718 186.014L49.5858 185.963L49.4999 185.912L49.4141 185.861L49.3282 185.81L49.2654 185.774L49.2198 185.749L49.1342 185.697L49.0485 185.646L48.9629 185.595L48.8774 185.543L48.7919 185.492L48.7065 185.44L48.6211 185.389L48.5555 185.35L48.5132 185.326L48.4279 185.274L48.3427 185.222L48.2575 185.17L48.1725 185.118L48.0874 185.066L48.0024 185.014L47.9174 184.961L47.8492 184.92L47.81 184.898L47.7252 184.845L47.6404 184.793L47.5557 184.74L47.471 184.687L47.3864 184.634L47.3018 184.581L47.2173 184.528L47.1464 184.484L47.1104 184.464L47.026 184.41L46.9417 184.357L46.8573 184.304L46.7731 184.25L46.6889 184.196L46.6047 184.143L46.5206 184.089L46.4472 184.042L46.4143 184.024L46.3304 183.97L46.2464 183.916L46.1626 183.862L46.0788 183.807L45.995 183.753L45.9113 183.699L45.8277 183.644L45.7516 183.595L45.7218 183.578L45.6383 183.524L45.5548 183.469L45.4714 183.414L45.3881 183.359L45.3047 183.304L45.2215 183.249L45.1383 183.194L45.0597 183.142L45.033 183.127L44.95 183.072L44.867 183.016L44.784 182.961L44.7011 182.905L44.6182 182.85L44.5354 182.794L44.4527 182.738L44.3716 182.683L44.348 182.67L44.2653 182.614L44.1828 182.558L44.1003 182.502L44.0178 182.446L43.9354 182.389L43.853 182.333L43.7707 182.276L43.6885 182.22L43.6653 182.207L43.5844 182.151L43.5023 182.094L43.4203 182.038L43.3383 181.981L43.2563 181.924L43.1745 181.867L43.0926 181.809L43.0108 181.752L42.9849 181.737L42.9074 181.682L42.8257 181.625L42.7441 181.568L42.6626 181.51L42.5811 181.452L42.4997 181.394L42.4183 181.337L42.337 181.279L42.3083 181.261L42.2341 181.208L42.1529 181.15L42.0718 181.092L41.9907 181.034L41.9097 180.975L41.8288 180.917L41.7479 180.858L41.667 180.8L41.6357 180.78L41.5647 180.729L41.484 180.67L41.4034 180.611L41.3228 180.552L41.2423 180.493L41.1618 180.434L41.0814 180.375L41.001 180.316L40.967 180.293L40.8993 180.243L40.8191 180.184L40.7389 180.125L40.6588 180.065L40.5788 180.005L40.4988 179.946L40.4188 179.886L40.339 179.826L40.3023 179.801L40.2378 179.753L40.1581 179.693L40.0784 179.633L39.9988 179.572L39.9192 179.512L39.8397 179.452L39.7603 179.391L39.6809 179.331L39.6417 179.303L39.5804 179.257L39.5011 179.196L39.422 179.135L39.3428 179.074L39.2637 179.014L39.1848 178.952L39.1058 178.891L39.0269 178.83L38.9851 178.8L38.927 178.755L38.8482 178.694L38.7695 178.633L38.6909 178.571L38.6123 178.51L38.5338 178.448L38.4554 178.386L38.377 178.324L38.3327 178.291L38.2777 178.249L38.1995 178.187L38.1213 178.125L38.0432 178.063L37.9651 178L37.887 177.938L37.8091 177.876L37.7312 177.813L37.6845 177.777L37.6325 177.737L37.5548 177.674L37.4772 177.611L37.3995 177.549L37.322 177.486L37.2445 177.423L37.167 177.36L37.0897 177.297L37.0405 177.258L36.9916 177.22L36.9144 177.156L36.8372 177.093L36.7601 177.03L36.6831 176.966L36.6061 176.902L36.5291 176.839L36.4523 176.775L36.4008 176.734L36.3549 176.697L36.2782 176.633L36.2015 176.569L36.1249 176.505L36.0484 176.441L35.972 176.377L35.8955 176.313L35.8192 176.248L35.7653 176.204L35.7224 176.17L35.6462 176.105L35.5701 176.04L35.494 175.976L35.418 175.911L35.3421 175.846L35.2662 175.781L35.1904 175.716L35.1342 175.669L35.0943 175.637L35.0186 175.572L34.943 175.506L34.8675 175.441L34.792 175.376L34.7166 175.31L34.6413 175.245L34.566 175.179L34.5075 175.129L34.4705 175.099L34.3954 175.033L34.3203 174.967L34.2452 174.901L34.1704 174.835L34.0955 174.769L34.0206 174.703L33.9459 174.637L33.8853 174.584L33.8511 174.556L33.7765 174.49L33.702 174.423L33.6275 174.357L33.5531 174.29L33.4788 174.223L33.4045 174.157L33.3303 174.09L33.2675 174.034L33.2362 174.008L33.1621 173.941L33.0881 173.874L33.0142 173.807L32.9403 173.74L32.8665 173.672L32.7928 173.605L32.7191 173.538L32.6542 173.478L32.6257 173.455L32.5522 173.387L32.4787 173.32L32.4053 173.252L32.332 173.184L32.2587 173.116L32.1856 173.048L32.1124 172.98L32.0454 172.918L32.0197 172.897L31.9467 172.829L31.8738 172.76L31.801 172.692L31.7282 172.624L31.6555 172.555L31.5829 172.487L31.5104 172.418L31.4413 172.353L31.4183 172.334L31.3459 172.265L31.2735 172.196L31.2012 172.127L31.129 172.059L31.0569 171.989L30.9848 171.92L30.9128 171.851L30.8418 171.783L30.8215 171.766L30.7496 171.697L30.6779 171.627L30.6061 171.558L30.5344 171.488L30.4629 171.419L30.3914 171.349L30.3199 171.279L30.2486 171.209L30.2277 171.192L30.158 171.124L30.0868 171.054L30.0157 170.984L29.9446 170.913L29.8736 170.843L29.8027 170.773L29.7317 170.703L29.661 170.632L29.6377 170.612L29.5711 170.546L29.5004 170.475L29.4298 170.404L29.3594 170.334L29.2889 170.263L29.2185 170.192L29.1483 170.121L29.078 170.05L29.0524 170.027L28.9889 169.963L28.9188 169.892L28.8487 169.82L28.7789 169.749L28.709 169.678L28.6392 169.606L28.5695 169.535L28.4998 169.463L28.472 169.437L28.4114 169.375L28.3419 169.303L28.2725 169.232L28.2031 169.16L28.1339 169.088L28.0646 169.016L27.9955 168.944L27.9265 168.872L27.8965 168.843L27.8387 168.783L27.7698 168.711L27.701 168.638L27.6322 168.566L27.5636 168.493L27.4949 168.421L27.4263 168.348L27.3579 168.275L27.3258 168.244L27.2709 168.186L27.2026 168.113L27.1344 168.04L27.0662 167.967L26.998 167.894L26.9301 167.821L26.8621 167.748L26.7942 167.675L26.7599 167.64L26.708 167.584L26.6402 167.511L26.5726 167.438L26.505 167.364L26.4375 167.291L26.3701 167.217L26.3027 167.143L26.2354 167.069L26.1991 167.031L26.1499 166.978L26.0828 166.904L26.0157 166.83L25.9488 166.756L25.8819 166.682L25.815 166.608L25.7483 166.534L25.6816 166.459L25.6433 166.418L25.5968 166.368L25.5303 166.293L25.4639 166.219L25.3975 166.144L25.3312 166.069L25.265 165.995L25.1988 165.92L25.1328 165.845L25.0924 165.801L25.0487 165.753L24.9828 165.678L24.917 165.602L24.8512 165.527L24.7855 165.452L24.7199 165.377L24.6543 165.301L24.5889 165.226L24.5467 165.179L24.5057 165.133L24.4403 165.057L24.3751 164.982L24.31 164.906L24.2449 164.83L24.1799 164.755L24.115 164.679L24.0501 164.603L24.006 164.552L23.9677 164.509L23.903 164.433L23.8383 164.357L23.7738 164.281L23.7094 164.204L23.6449 164.128L23.5807 164.051L23.5164 163.975L23.4705 163.921L23.4347 163.881L23.3707 163.804L23.3067 163.727L23.2428 163.651L23.179 163.574L23.1151 163.497L23.0515 163.42L22.9879 163.343L22.9401 163.286L22.9069 163.248L22.8435 163.171L22.7802 163.094L22.7168 163.016L22.6537 162.939L22.5905 162.862L22.5274 162.784L22.4645 162.707L22.4151 162.647L22.3844 162.611L22.3215 162.533L22.2588 162.456L22.1962 162.378L22.1336 162.3L22.0711 162.222L22.0087 162.144L21.9463 162.066L21.8952 162.003L21.867 161.97L21.8048 161.891L21.7427 161.813L21.6807 161.735L21.6187 161.657L21.5568 161.578L21.4951 161.5L21.4333 161.421L21.3806 161.354L21.3548 161.324L21.2933 161.245L21.2318 161.167L21.1705 161.088L21.1091 161.009L21.0479 160.93L20.9868 160.851L20.9257 160.772L20.8713 160.702L20.8479 160.674L20.7871 160.595L20.7263 160.516L20.6655 160.437L20.6048 160.357L20.5443 160.278L20.4837 160.199L20.4233 160.119L20.3675 160.046L20.3464 160.021L20.2861 159.941L20.226 159.861L20.1659 159.781L20.1059 159.702L20.046 159.622L19.9861 159.542L19.9263 159.462L19.869 159.385L19.8502 159.363L19.7906 159.283L19.7311 159.202L19.6717 159.122L19.6123 159.042L19.553 158.961L19.4938 158.881L19.4346 158.8L19.3759 158.72L19.3594 158.701L19.3005 158.62L19.2416 158.54L19.1828 158.459L19.1241 158.378L19.0655 158.297L19.007 158.216L18.9485 158.135L18.8901 158.054L18.8722 158.032L18.8157 157.954L18.7575 157.873L18.6994 157.791L18.6414 157.71L18.5834 157.629L18.5255 157.547L18.4677 157.466L18.41 157.384L18.3903 157.359L18.3365 157.283L18.2789 157.202L18.2214 157.12L18.1641 157.038L18.1068 156.956L18.0495 156.875L17.9925 156.793L17.9354 156.711L17.914 156.683L17.8626 156.609L17.8058 156.527L17.749 156.445L17.6923 156.363L17.6357 156.28L17.5792 156.198L17.5227 156.116L17.4663 156.033L17.4432 156.002L17.3945 155.931L17.3382 155.848L17.2822 155.766L17.2261 155.683L17.1701 155.6L17.1143 155.518L17.0585 155.435L17.0028 155.352L16.978 155.317L16.9318 155.249L16.8762 155.166L16.8208 155.083L16.7655 155L16.7102 154.917L16.655 154.833L16.5999 154.75L16.5448 154.667L16.5184 154.629L16.4747 154.563L16.4199 154.48L16.3651 154.396L16.3105 154.313L16.2559 154.229L16.2013 154.145L16.1469 154.062L16.0926 153.978L16.0646 153.937L16.0233 153.874L15.9691 153.79L15.9151 153.706L15.861 153.622L15.8072 153.538L15.7533 153.454L15.6996 153.369L15.646 153.285L15.6164 153.241L15.5775 153.181L15.524 153.096L15.4707 153.012L15.4173 152.927L15.3641 152.843L15.311 152.758L15.2579 152.674L15.205 152.589L15.174 152.541L15.1374 152.484L15.0846 152.399L15.032 152.314L14.9794 152.229L14.9268 152.144L14.8744 152.059L14.822 151.974L14.7698 151.889L14.7374 151.838L14.7031 151.783L14.651 151.698L14.599 151.613L14.5471 151.528L14.4953 151.442L14.4435 151.357L14.3919 151.271L14.3403 151.186L14.3065 151.131L14.2745 151.08L14.2231 150.994L14.1718 150.908L14.1206 150.822L14.0695 150.736L14.0184 150.651L13.9675 150.565L13.9167 150.479L13.8815 150.421L13.8517 150.372L13.8011 150.286L13.7504 150.2L13.6999 150.114L13.6495 150.027L13.5992 149.941L13.5489 149.855L13.4988 149.768L13.4625 149.707L13.4347 149.661L13.3848 149.575L13.3349 149.488L13.2851 149.401L13.2354 149.315L13.1858 149.228L13.1362 149.141L13.0868 149.054L13.0493 148.99L13.0237 148.947L12.9744 148.86L12.9252 148.773L12.8762 148.686L12.8271 148.599L12.7782 148.512L12.7294 148.424L12.6806 148.337L12.642 148.269L12.6184 148.229L12.5699 148.142L12.5214 148.054L12.4731 147.967L12.4248 147.879L12.3766 147.792L12.3285 147.704L12.2805 147.617L12.2407 147.545L12.2191 147.508L12.1713 147.42L12.1236 147.332L12.0759 147.245L12.0284 147.157L11.9809 147.069L11.9335 146.981L11.8862 146.893L11.8454 146.817L11.8258 146.784L11.7787 146.695L11.7317 146.607L11.6847 146.519L11.6379 146.431L11.5912 146.343L11.5445 146.254L11.498 146.166L11.4562 146.087L11.4385 146.056L11.392 145.968L11.3458 145.879L11.2996 145.79L11.2535 145.702L11.2075 145.613L11.1615 145.524L11.1157 145.436L11.073 145.353L11.0571 145.325L11.0115 145.236L10.9659 145.148L10.9205 145.059L10.8751 144.97L10.8298 144.88L10.7846 144.791L10.7395 144.702L10.6959 144.616L10.6818 144.591L10.6369 144.502L10.5921 144.413L10.5474 144.324L10.5027 144.234L10.4581 144.145L10.4137 144.055L10.3694 143.966L10.325 143.876L10.3124 143.854L10.2684 143.765L10.2243 143.675L10.1803 143.585L10.1365 143.496L10.0926 143.406L10.0489 143.316L10.0053 143.226L9.96172 143.136L9.94784 143.111L9.906 143.025L9.86269 142.934L9.81942 142.844L9.77627 142.754L9.73321 142.664L9.69021 142.574L9.64734 142.484L9.60455 142.393L9.58941 142.365L9.54974 142.281L9.50717 142.191L9.46468 142.1L9.42221 142.01L9.37993 141.919L9.33772 141.829L9.29551 141.738L9.25352 141.648L9.23718 141.615L9.19967 141.535L9.15777 141.444L9.11609 141.353L9.0744 141.263L9.0328 141.172L8.99136 141.081L8.94993 140.99L8.90863 140.899L8.89115 140.863L8.85577 140.786L8.81466 140.695L8.77365 140.604L8.73275 140.512L8.69191 140.421L8.65119 140.33L8.61056 140.239L8.56998 140.147L8.55141 140.108L8.51805 140.034L8.47775 139.942L8.43744 139.851L8.39731 139.759L8.35727 139.668L8.31722 139.576L8.27739 139.485L8.23761 139.393L8.21799 139.35L8.18657 139.279L8.14705 139.187L8.10753 139.095L8.06809 139.004L8.02884 138.912L7.9896 138.82L7.95046 138.728L7.91147 138.636L7.89087 138.59L7.86142 138.521L7.82259 138.429L7.78387 138.337L7.74522 138.245L7.70667 138.153L7.66823 138.061L7.62984 137.968L7.59159 137.876L7.5701 137.826L7.54256 137.761L7.50445 137.669L7.4665 137.576L7.42866 137.484L7.39081 137.391L7.35317 137.299L7.31559 137.206L7.278 137.114L7.25567 137.06L7.22999 136.998L7.19267 136.906L7.15543 136.813L7.11839 136.72L7.08133 136.627L7.04439 136.534L7.00761 136.442L6.97084 136.349L6.94769 136.292L6.92373 136.233L6.88722 136.14L6.85077 136.047L6.81444 135.954L6.7782 135.861L6.74203 135.768L6.70599 135.674L6.67003 135.581L6.64611 135.521L6.62385 135.465L6.58813 135.372L6.55249 135.278L6.51686 135.185L6.48143 135.091L6.44607 134.998L6.41071 134.905L6.37559 134.811L6.35099 134.747L6.33042 134.695L6.2954 134.601L6.26058 134.507L6.22576 134.414L6.19104 134.32L6.1565 134.226L6.12195 134.132L6.08753 134.039L6.06232 133.971L6.04338 133.922L6.00917 133.828L5.97506 133.734L5.94107 133.64L5.90713 133.546L5.87332 133.452L5.83961 133.358L5.80594 133.264L5.78012 133.193L5.76277 133.147L5.72938 133.052L5.69598 132.958L5.6628 132.864L5.62969 132.77L5.59657 132.675L5.56368 132.581L5.53084 132.487L5.50444 132.412L5.48858 132.369L5.45601 132.274L5.42345 132.18L5.39098 132.085L5.35867 131.991L5.32638 131.896L5.29421 131.802L5.26219 131.707L5.23534 131.629L5.22097 131.589L5.1891 131.494L5.15737 131.4L5.12569 131.305L5.09413 131.21L5.06269 131.115L5.03128 131.02L5.00002 130.925L4.97281 130.843L4.95985 130.807L4.92872 130.712L4.8978 130.617L4.86694 130.522L4.83609 130.427L4.80548 130.332L4.7749 130.237L4.74433 130.142L4.71683 130.056L4.70522 130.023L4.67492 129.928L4.64472 129.832L4.6147 129.737L4.58468 129.642L4.55478 129.546L4.52503 129.451L4.4953 129.356L4.46744 129.266L4.45711 129.237L4.42767 129.141L4.39826 129.046L4.36896 128.95L4.33981 128.854L4.31068 128.759L4.28169 128.663L4.25281 128.567L4.22468 128.474L4.21558 128.448L4.18693 128.352L4.15837 128.257L4.1298 128.161L4.10148 128.065L4.07319 127.969L4.0449 127.873L4.01688 127.777L3.98887 127.682L3.98044 127.657L3.95278 127.562L3.92505 127.466L3.89733 127.37L3.86971 127.274L3.84226 127.178L3.81484 127.082L3.78752 126.985L3.76034 126.889L3.75123 126.861L3.7253 126.769L3.69829 126.673L3.67144 126.577L3.64462 126.481L3.61791 126.384L3.59135 126.288L3.56481 126.192L3.53841 126.095L3.52867 126.063L3.50444 125.975L3.47818 125.879L3.45215 125.782L3.42616 125.685L3.40019 125.589L3.37447 125.492L3.34877 125.396L3.32309 125.299L3.31278 125.264L3.29018 125.179L3.26479 125.082L3.23947 124.985L3.21433 124.889L3.18923 124.792L3.16421 124.695L3.13935 124.598L3.11455 124.501L3.10368 124.463L3.08255 124.381L3.05803 124.284L3.03352 124.187L3.00912 124.09L2.98489 123.993L2.96067 123.896L2.93658 123.799L2.91263 123.702L2.90128 123.66L2.88164 123.581L2.85791 123.484L2.83425 123.387L2.81062 123.29L2.7872 123.192L2.76382 123.095L2.74049 122.998L2.71737 122.901L2.70561 122.855L2.68746 122.78L2.66445 122.682L2.64163 122.585L2.61888 122.488L2.59617 122.39L2.57365 122.293L2.55119 122.196L2.52878 122.098L2.51669 122.048L2.49996 121.977L2.47779 121.879L2.45571 121.782L2.43382 121.684L2.41193 121.587L2.39017 121.489L2.36857 121.391L2.34696 121.294L2.33457 121.24L2.31915 121.172L2.29782 121.074L2.27655 120.977L2.25544 120.879L2.23441 120.781L2.21343 120.684L2.19263 120.586L2.17188 120.488L2.15925 120.431L2.14504 120.366L2.12456 120.268L2.10416 120.17L2.08377 120.072L2.0636 119.975L2.04349 119.877L2.02341 119.779L2.00354 119.681L1.99074 119.62L1.97776 119.558L1.95802 119.46L1.93848 119.362L1.91894 119.264L1.89952 119.166L1.88027 119.068L1.86101 118.97L1.84191 118.872L1.829 118.808L1.81721 118.75L1.79831 118.651L1.77953 118.553L1.76085 118.455L1.74224 118.357L1.72376 118.259L1.70539 118.16L1.68706 118.062L1.67408 117.994L1.66341 117.939L1.64536 117.841L1.62732 117.743L1.60951 117.644L1.59176 117.546L1.574 117.448L1.55651 117.349L1.53904 117.251L1.52598 117.179L1.51635 117.128L1.49917 117.03L1.48199 116.931L1.46492 116.833L1.44802 116.734L1.43114 116.635L1.41438 116.537L1.39777 116.438L1.3848 116.363L1.37617 116.315L1.35971 116.217L1.34343 116.118L1.32718 116.019L1.31103 115.921L1.29505 115.822L1.27908 115.723L1.26325 115.625L1.25045 115.546L1.24276 115.501L1.22708 115.403L1.21162 115.304L1.19624 115.205L1.18085 115.106L1.16571 115.008L1.15061 114.909L1.13553 114.81L1.12292 114.727L1.11611 114.687L1.10132 114.588L1.08658 114.489L1.07206 114.39L1.05757 114.291L1.04314 114.192L1.0289 114.093L1.01472 113.994L1.00225 113.908L0.996229 113.871L0.982341 113.772L0.968465 113.673L0.954649 113.574L0.941061 113.475L0.927474 113.376L0.913982 113.276L0.900683 113.177L0.888494 113.087L0.883254 113.054L0.870132 112.955L0.857121 112.855L0.844144 112.756L0.831331 112.657L0.818609 112.558L0.805925 112.459L0.793424 112.36L0.781615 112.266L0.777113 112.236L0.764754 112.137L0.75256 112.037L0.740477 111.938L0.728405 111.839L0.716524 111.74L0.704741 111.64L0.692958 111.541L0.681597 111.444L0.677756 111.417L0.666262 111.318L0.654804 111.218L0.6436 111.119L0.632395 111.02L0.621255 110.92L0.61034 110.821L0.599424 110.722L0.588606 110.622L0.585022 110.596L0.57456 110.498L0.563992 110.399L0.553506 110.299L0.54317 110.2L0.532902 110.1L0.522727 110.001L0.512687 109.901L0.502711 109.802L0.499038 109.772L0.489662 109.678L0.479977 109.578L0.470292 109.479L0.460764 109.379L0.451365 109.28L0.441969 109.18L0.432762 109.081L0.423655 108.981L0.419945 108.947L0.41162 108.857L0.402752 108.757L0.393934 108.657L0.385181 108.558L0.376623 108.458L0.368097 108.359L0.359644 108.259L0.351391 108.159L0.347726 108.122L0.340478 108.035L0.332318 107.935L0.324393 107.836L0.316519 107.736L0.308666 107.636L0.301042 107.537L0.293457 107.437L0.285914 107.337L0.282379 107.296L0.276123 107.213L0.268827 107.113L0.261649 107.013L0.254644 106.914L0.247638 106.814L0.240778 106.714L0.234062 106.614L0.227352 106.515L0.223972 106.47L0.218557 106.39L0.212149 106.29L0.205797 106.19L0.199556 106.091L0.193448 105.991L0.187386 105.891L0.181452 105.791L0.175647 105.691L0.172454 105.643L0.167848 105.567L0.162271 105.467L0.156789 105.367L0.151307 105.267L0.146048 105.167L0.140856 105.068L0.135663 104.968L0.130722 104.868L0.127803 104.816L0.124025 104.743L0.119197 104.643L0.114561 104.543L0.109972 104.443L0.105433 104.344L0.101104 104.244L0.0968152 104.144L0.0925756 104.044L0.0899924 103.988L0.0870035 103.919L0.0830445 103.819L0.0791106 103.719L0.0754238 103.619L0.0717555 103.519L0.0681266 103.42L0.0647404 103.32L0.0613618 103.22L0.0591093 103.161L0.0567535 103.095L0.0536645 102.995L0.0505914 102.895L0.0476458 102.795L0.0448468 102.695L0.0420746 102.595L0.039434 102.495L0.0369248 102.395L0.0351315 102.332L0.0333867 102.27L0.0310501 102.17L0.0288794 102.07L0.026734 101.97L0.0247018 101.871L0.0228319 101.771L0.0209759 101.671L0.0192478 101.571L0.0180015 101.504L0.0168333 101.446L0.0152756 101.346L0.0139246 101.246L0.0126482 101.146L0.0113911 101.046L0.0103436 100.946L0.00935701 100.846L0.00840054 100.746L0.00769627 100.676L0.00701863 100.621L0.00634539 100.521L0.00576619 100.421L0.00532129 100.321L0.0049283 100.221L0.00465222 100.121L0.00449116 100.021L0.00439285 99.921L0.00427588 99.8474L0.00402832 99.7961L0.0042249 99.6961L0.00442134 99.5961L0.00478378 99.4961L0.00526424 99.3961L0.00574464 99.2962L0.00643181 99.1962L0.00719617 99.0962L0.0076779 99.019L0.00781859 98.9712L0.00886696 98.8712L0.00991529 98.7713L0.0110427 98.6713L0.012375 98.5714L0.0137076 98.4714L0.0151609 98.3714L0.0167776 98.2714L0.0179925 98.1906L0.0185008 98.1465L0.0202883 98.0465L0.022191 97.9465L0.0241664 97.8466L0.0262691 97.7466L0.0284633 97.6466L0.0307019 97.5467L0.0331533 97.4467L0.035206 97.3623L0.0359746 97.3218L0.0385555 97.2218L0.0413266 97.1219L0.0441427 97.022L0.047017 96.922L0.0500921 96.8221L0.0532065 96.7221L0.0563948 96.6222L0.0592998 96.5342L0.0603258 96.4973L0.0637543 96.3974L0.067257 96.2975L0.0709691 96.1975L0.0746799 96.0976L0.0785129 95.9977L0.082506 95.8978L0.0864992 95.7979L0.0902863 95.7063L0.0914701 95.673L0.0957466 95.5731L0.100071 95.4732L0.104589 95.3734L0.109146 95.2735L0.11377 95.1736L0.118603 95.0737L0.123452 94.9739L0.128143 94.8787L0.129411 94.849L0.134559 94.7492L0.139755 94.6494L0.145008 94.5495L0.150455 94.4497L0.155934 94.3498L0.161501 94.25L0.167246 94.1502L0.172942 94.0515L0.174247 94.0254L0.180201 93.9256L0.186245 93.8258L0.192305 93.726L0.198575 93.6262L0.204904 93.5264L0.211263 93.4266L0.217848 93.3269L0.224458 93.2271L0.226132 93.1996L0.232649 93.1024L0.239544 93.0026L0.246499 92.9029L0.253506 92.8031L0.260688 92.7034L0.267936 92.6037L0.275258 92.504L0.282741 92.4043L0.284953 92.3733L0.292013 92.2796L0.29969 92.1799L0.307503 92.0803L0.315316 91.9806L0.323327 91.8809L0.331422 91.7813L0.339519 91.6816L0.347859 91.582L0.350648 91.5474L0.358209 91.4574L0.366662 91.3578L0.37532 91.2582L0.384012 91.1586L0.392776 91.059L0.401721 90.9594L0.410713 90.8598L0.419793 90.7602L0.423218 90.7221L0.431254 90.6358L0.440553 90.5362L0.449954 90.4367L0.459536 90.3372L0.46912 90.2376L0.478854 90.1381L0.488719 90.0386L0.498584 89.9391L0.502732 89.8974L0.511109 89.8148L0.521259 89.7153L0.531458 89.6159L0.541877 89.5164L0.552307 89.417L0.562827 89.3176L0.573541 89.2181L0.584266 89.1187L0.589176 89.0735L0.597782 88.9945L0.608805 88.8951L0.619872 88.7957L0.631033 88.6963L0.642352 88.597L0.653701 88.4977L0.665177 88.3984L0.676793 88.2991L0.682498 88.2502L0.691316 88.1749L0.703182 88.0756L0.715095 87.9764L0.727026 87.8771L0.739207 87.7779L0.751403 87.6786L0.763653 87.5794L0.776132 87.4802L0.782705 87.4278L0.791762 87.3562L0.804366 87.257L0.817127 87.1578L0.829954 87.0587L0.842874 86.9595L0.855925 86.8604L0.86904 86.7613L0.882276 86.6622L0.889803 86.6063L0.899014 86.5383L0.912413 86.4392L0.926005 86.3402L0.939682 86.2411L0.953361 86.1421L0.967284 86.0431L0.981248 85.9441L0.995225 85.8451L1.00379 85.7857L1.01307 85.7214L1.02732 85.6224L1.04169 85.5234L1.05621 85.4245L1.07077 85.3256L1.08545 85.2267L1.10025 85.1278L1.1151 85.0289L1.12467 84.9661L1.13392 84.9054L1.14906 84.8065L1.16422 84.7077L1.17954 84.6089L1.19498 84.5101L1.21042 84.4113L1.22607 84.3126L1.24179 84.2138L1.25241 84.1475L1.26159 84.0904L1.2776 83.9917L1.2936 83.8931L1.3097 83.7943L1.32599 83.6957L1.34227 83.5971L1.3587 83.4984L1.37527 83.3998L1.38704 83.33L1.39616 83.2766L1.41291 83.178L1.42978 83.0795L1.4467 82.9809L1.46377 82.8824L1.48094 82.7839L1.49814 82.6854L1.51552 82.587L1.52856 82.5137L1.53751 82.4639L1.55501 82.3655L1.57276 82.2671L1.59052 82.1687L1.60834 82.0703L1.62638 81.972L1.64442 81.8736L1.66257 81.7753L1.67691 81.6987L1.68563 81.6525L1.70399 81.5542L1.7225 81.4559L1.74111 81.3577L1.75976 81.2595L1.77859 81.1612L1.79747 81.0631L1.81642 80.9649L1.83208 80.8848L1.84053 80.8423L1.85976 80.7441L1.87901 80.646L1.89848 80.5479L1.91799 80.4499L1.93755 80.3518L1.95731 80.2538L1.9771 80.1558L1.99408 80.0724L2.00221 80.0334L2.02228 79.9354L2.04235 79.8375L2.06261 79.7396L2.08296 79.6417L2.10332 79.5438L2.1239 79.446L2.14453 79.3481L2.16291 79.2613L2.17063 79.2259L2.19153 79.1281L2.21248 79.0303L2.23348 78.9326L2.25467 78.8349L2.27591 78.7372L2.29722 78.6395L2.31869 78.5419L2.33862 78.4516L2.34588 78.4198L2.36752 78.3222L2.38934 78.2247L2.41115 78.1271L2.43312 78.0296L2.45522 77.932L2.47731 77.8345L2.49961 77.7371L2.5211 77.6435L2.52784 77.6153L2.55027 77.5179L2.57291 77.4205L2.59556 77.3231L2.6183 77.2257L2.64123 77.1284L2.66417 77.0311L2.68723 76.9338L2.71035 76.8369L2.71654 76.8123L2.73981 76.7151L2.76318 76.6179L2.7867 76.5207L2.81025 76.4235L2.83394 76.3264L2.85775 76.2293L2.88159 76.1322L2.90558 76.0351L2.91269 76.0078L2.93604 75.9139L2.96016 75.8169L2.98454 75.7199L3.00892 75.6229L3.03336 75.526L3.05802 75.4291L3.08268 75.3322L3.10744 75.2353L3.11567 75.2046L3.13894 75.1144L3.16392 75.0176L3.18903 74.9208L3.21425 74.8241L3.23953 74.7273L3.26494 74.6306L3.29043 74.534L3.316 74.4373L3.3254 74.4031L3.34851 74.3166L3.37435 74.22L3.40019 74.1234L3.42626 74.0269L3.45237 73.9304L3.47851 73.8339L3.50488 73.7375L3.53127 73.641L3.54189 73.6035L3.56476 73.5206L3.59142 73.4243L3.61808 73.3279L3.64492 73.2316L3.67186 73.1353L3.69881 73.039L3.72595 72.9428L3.75317 72.8466L3.76509 72.8056L3.78766 72.7265L3.81512 72.6303L3.84265 72.5342L3.8702 72.4381L3.89796 72.342L3.92577 72.246L3.95365 72.15L3.98168 72.054L3.99498 72.0097L4.01724 71.9342L4.04542 71.8383L4.0738 71.7424L4.10218 71.6465L4.13069 71.5507L4.15934 71.4549L4.18799 71.3592L4.21681 71.2634L4.23152 71.2158L4.2534 71.1439L4.28238 71.0482L4.31154 70.9526L4.34074 70.857L4.37 70.7614L4.39947 70.6658L4.42895 70.5703L4.45853 70.4748L4.4747 70.4238L4.49615 70.3556L4.52597 70.2602L4.55585 70.1648L4.5859 70.0694L4.61599 69.9741L4.64618 69.8788L4.6765 69.7835L4.70686 69.6883L4.72452 69.634L4.74548 69.5694L4.77611 69.4742L4.80674 69.3791L4.8376 69.284L4.86851 69.1889L4.89943 69.0938L4.9306 68.9988L4.96177 68.9038L4.98098 68.8463L5.00134 68.7853L5.03278 68.6904L5.06426 68.5955L5.09585 68.5006L5.12756 68.4058L5.15932 68.311L5.19121 68.2162L5.22319 68.1215L5.24404 68.0607L5.26378 68.0033L5.29597 67.9087L5.32829 67.8141L5.36062 67.7195L5.39312 67.6249L5.42572 67.5304L5.45831 67.4359L5.49113 67.3415L5.51368 67.2774L5.53274 67.2236L5.56567 67.1292L5.59881 67.0349L5.63195 66.9406L5.6652 66.8463L5.6986 66.752L5.732 66.6578L5.76556 66.5637L5.78984 66.4964L5.80818 66.4461L5.84192 66.3521L5.87579 66.258L5.90975 66.164L5.94375 66.0699L5.97794 65.976L6.01217 65.882L6.04644 65.7881L6.07252 65.7177L6.0901 65.671L6.12464 65.5772L6.15923 65.4834L6.19402 65.3897L6.22883 65.296L6.26371 65.2023L6.29878 65.1087L6.33386 65.015L6.36171 64.9414L6.37846 64.8983L6.4138 64.8048L6.44916 64.7112L6.4847 64.6178L6.52031 64.5244L6.55596 64.431L6.5918 64.3376L6.62768 64.2443L6.65739 64.1676L6.6732 64.128L6.70934 64.0348L6.74554 63.9415L6.78178 63.8484L6.81819 63.7553L6.85466 63.6622L6.8912 63.5691L6.92789 63.4761L6.95957 63.3963L6.97443 63.3602L7.01128 63.2672L7.04829 63.1744L7.08529 63.0815L7.12245 62.9887L7.15973 62.8959L7.197 62.8032L7.23447 62.7105L7.26818 62.6275L7.28201 62.5949L7.31959 62.5022L7.3574 62.4097L7.3952 62.3171L7.43308 62.2246L7.47114 62.1322L7.50921 62.0397L7.54741 61.9473L7.58316 61.8614L7.59593 61.8322L7.63433 61.7399L7.67281 61.6476L7.71142 61.5554L7.75008 61.4632L7.78887 61.3711L7.82775 61.279L7.86668 61.1869L7.90452 61.0979L7.91619 61.0721L7.95537 60.9802L7.99457 60.8882L8.03398 60.7963L8.07342 60.7045L8.11289 60.6126L8.15259 60.5209L8.19231 60.4291L8.23207 60.3374L8.24286 60.3145L8.28269 60.2232L8.32267 60.1315L8.36279 60.04L8.40303 59.9484L8.44328 59.8569L8.4837 59.7655L8.52419 59.6741L8.56471 59.5827L8.57713 59.5565L8.61626 59.4689L8.65705 59.3776L8.69787 59.2863L8.73887 59.1952L8.77993 59.104L8.82102 59.0129L8.8623 58.9218L8.90363 58.8308L8.91773 58.8014L8.95605 58.7174L8.99765 58.6265L9.03925 58.5356L9.08094 58.4447L9.1228 58.3539L9.16466 58.2631L9.20664 58.1724L9.24875 58.0818L9.26459 58.0492L9.30214 57.9687L9.34445 57.8782L9.38683 57.7876L9.42924 57.6971L9.47185 57.6067L9.51448 57.5163L9.55718 57.4258L9.60006 57.3355L9.61768 57.2999L9.65442 57.223L9.69741 57.1328L9.74056 57.0426L9.78378 56.9525L9.82706 56.8623L9.87048 56.7723L9.91394 56.6823L9.95751 56.5923L9.97699 56.5535L10.0129 56.4803L10.0566 56.3904L10.1005 56.3005L10.1444 56.2108L10.1884 56.121L10.2326 56.0313L10.2768 55.9417L10.3211 55.852L10.3425 55.8102L10.3774 55.7405L10.4219 55.651L10.4665 55.5615L10.5112 55.4721L10.556 55.3827L10.6008 55.2934L10.6458 55.2041L10.6908 55.1149L10.7142 55.07L10.748 55.0037L10.7933 54.9146L10.8386 54.8255L10.8841 54.7365L10.9296 54.6475L10.9752 54.5585L11.0209 54.4696L11.0667 54.3807L11.092 54.3328L11.1247 54.2701L11.1708 54.1814L11.2169 54.0927L11.263 54.0039L11.3093 53.9154L11.3556 53.8268L11.402 53.7382L11.4486 53.6498L11.4759 53.5989L11.5076 53.5396L11.5543 53.4513L11.6011 53.363L11.648 53.2747L11.695 53.1864L11.742 53.0982L11.7892 53.0101L11.8364 52.922L11.8659 52.8681L11.8964 52.8124L11.9438 52.7244L11.9914 52.6364L12.039 52.5485L12.0866 52.4607L12.1345 52.3729L12.1824 52.2851L12.2303 52.1974L12.2619 52.1406L12.2912 52.0883L12.3394 52.0007L12.3876 51.9132L12.436 51.8257L12.4844 51.7382L12.5329 51.6508L12.5815 51.5635L12.6302 51.4762L12.664 51.4165L12.6919 51.3676L12.7409 51.2804L12.7898 51.1932L12.8389 51.1061L12.888 51.0191L12.9372 50.932L12.9866 50.8451L13.036 50.7582L13.072 50.6956L13.0986 50.6501L13.1483 50.5633L13.1979 50.4766L13.2477 50.3899L13.2976 50.3033L13.3475 50.2167L13.3975 50.1301L13.4477 50.0436L13.486 49.9783L13.5112 49.9361L13.5615 49.8497L13.612 49.7634L13.6624 49.6771L13.713 49.5909L13.7637 49.5047L13.8144 49.4186L13.8652 49.3325L13.9059 49.2643L13.9297 49.2255L13.9807 49.1395L14.0318 49.0536L14.083 48.9677L14.1342 48.8819L14.1856 48.7962L14.2371 48.7105L14.2886 48.6248L14.3317 48.5539L14.354 48.5183L14.4057 48.4328L14.4575 48.3473L14.5094 48.2619L14.5614 48.1765L14.6134 48.0912L14.6656 48.0059L14.7178 47.9206L14.7633 47.847L14.784 47.8147L14.8365 47.7296L14.889 47.6445L14.9416 47.5596L14.9943 47.4746L15.047 47.3897L15.0999 47.3049L15.1528 47.2201L15.2007 47.1436L15.2199 47.1147L15.273 47.03L15.3262 46.9454L15.3795 46.8608L15.4329 46.7763L15.4863 46.6918L15.5398 46.6074L15.5935 46.5231L15.644 46.444L15.6615 46.4183L15.7153 46.334L15.7692 46.2499L15.8232 46.1657L15.8772 46.0816L15.9314 45.9976L15.9856 45.9136L16.0399 45.8297L16.093 45.748L16.1088 45.7255L16.1633 45.6417L16.2179 45.558L16.2726 45.4743L16.3273 45.3906L16.3821 45.3071L16.437 45.2236L16.492 45.1401L16.5471 45.0567L16.5624 45.0356L16.617 44.9531L16.6722 44.8698L16.7276 44.7866L16.783 44.7034L16.8385 44.6203L16.8941 44.5372L16.9498 44.4542L17.0055 44.3712L17.0229 44.3472L17.0763 44.2682L17.1322 44.1854L17.1882 44.1026L17.2443 44.0199L17.3005 43.9372L17.3568 43.8546L17.4131 43.7721L17.4695 43.6896L17.4891 43.6627L17.5411 43.5872L17.5978 43.5048L17.6544 43.4225L17.7112 43.3402L17.7681 43.258L17.825 43.1759L17.8821 43.0938L17.9392 43.0118L17.961 42.9821L18.0116 42.9099L18.0689 42.8281L18.1262 42.7462L18.1837 42.6644L18.2412 42.5827L18.2988 42.501L18.3566 42.4194L18.4143 42.3379L18.4385 42.3053L18.4875 42.2366L18.5455 42.1552L18.6036 42.0738L18.6617 41.9925L18.7199 41.9112L18.7782 41.83L18.8365 41.7489L18.895 41.6678L18.9215 41.6326L18.9691 41.5672L19.0277 41.4862L19.0864 41.4054L19.1452 41.3245L19.204 41.2437L19.263 41.163L19.322 41.0824L19.3811 41.0018L19.41 40.9638L19.456 40.9018L19.5153 40.8213L19.5746 40.7409L19.6341 40.6606L19.6936 40.5802L19.7532 40.5L19.8129 40.4199L19.8726 40.3397L19.9039 40.2991L19.9484 40.2404L20.0083 40.1604L20.0683 40.0804L20.1285 40.0006L20.1886 39.9208L20.2488 39.841L20.3092 39.7613L20.3696 39.6817L20.4034 39.6385L20.4461 39.583L20.5067 39.5035L20.5674 39.4241L20.6282 39.3447L20.689 39.2654L20.7499 39.1861L20.8109 39.1069L20.8719 39.0278L20.9082 38.982L20.9493 38.9297L21.0105 38.8507L21.0718 38.7718L21.1332 38.6929L21.1947 38.6141L21.2563 38.5354L21.3178 38.4567L21.3796 38.3781L21.4184 38.3297L21.4577 38.2806L21.5196 38.2021L21.5816 38.1237L21.6436 38.0453L21.7057 37.967L21.7679 37.8888L21.8301 37.8106L21.8925 37.7325L21.9339 37.6815L21.9715 37.6357L22.034 37.5577L22.0965 37.4798L22.1592 37.4019L22.2219 37.3241L22.2848 37.2464L22.3477 37.1687L22.4106 37.0911L22.4548 37.0377L22.4904 36.995L22.5536 36.9176L22.6168 36.8401L22.6801 36.7628L22.7435 36.6855L22.8069 36.6083L22.8704 36.5312L22.9341 36.4541L22.9808 36.3981L23.0146 36.3586L23.0784 36.2816L23.1422 36.2047L23.2062 36.1279L23.2702 36.0512L23.3342 35.9744L23.3984 35.8978L23.4627 35.8213L23.5122 35.7629L23.544 35.7264L23.6084 35.65L23.6729 35.5737L23.7374 35.4973L23.8021 35.4211L23.8668 35.3449L23.9315 35.2688L23.9964 35.1928L24.0487 35.1321L24.0785 35.0987L24.1435 35.0227L24.2086 34.9469L24.2738 34.8712L24.339 34.7954L24.4044 34.7198L24.4698 34.6442L24.5352 34.5687L24.5903 34.5057L24.6181 34.4753L24.6838 34.3999L24.7495 34.3246L24.8153 34.2494L24.8811 34.1742L24.947 34.0991L25.0131 34.0241L25.0791 33.9491L25.1371 33.8838L25.1628 33.8563L25.2291 33.7815L25.2953 33.7067L25.3618 33.6321L25.4282 33.5574L25.4947 33.4828L25.5614 33.4084L25.6281 33.3339L25.6889 33.2664L25.7125 33.2418L25.7794 33.1676L25.8463 33.0934L25.9133 33.0192L25.9804 32.9451L26.0475 32.8711L26.1147 32.7971L26.182 32.7233L26.2458 32.6535L26.2672 32.6319L26.3346 32.5581L26.4022 32.4845L26.4698 32.4109L26.5375 32.3373L26.6052 32.2639L26.673 32.1905L26.7409 32.1171L26.8077 32.0452L26.8269 32.0265L26.8949 31.9533L26.963 31.8802L27.0312 31.8071L27.0995 31.7341L27.1678 31.6613L27.2363 31.5884L27.3047 31.5156L27.3733 31.4429L27.3926 31.4244L27.4601 31.353L27.5288 31.2805L27.5976 31.208L27.6664 31.1356L27.7354 31.0632L27.8044 30.9909L27.8734 30.9187L27.9426 30.8465L27.9645 30.8255L28.0301 30.7574L28.0994 30.6854L28.1688 30.6135L28.2382 30.5417L28.3077 30.4698L28.3773 30.3981L28.447 30.3265L28.5167 30.2548L28.5413 30.2314L28.605 30.1665L28.6749 30.0951L28.7448 30.0236L28.8149 29.9524L28.8849 29.8812L28.9551 29.81L29.0253 29.739L29.0956 29.6679L29.1229 29.6421L29.1846 29.5802L29.2551 29.5094L29.3256 29.4386L29.3962 29.3679L29.4669 29.2973L29.5376 29.2266L29.6084 29.1561L29.6793 29.0857L29.7094 29.0575L29.769 28.9988L29.84 28.9285L29.9112 28.8583L29.9823 28.7881L30.0536 28.7181L30.1249 28.6481L30.1963 28.5781L30.2677 28.5083L30.3005 28.4778L30.3582 28.4221L30.4297 28.3523L30.5014 28.2828L30.5732 28.2132L30.6449 28.1437L30.7169 28.0743L30.7888 28.0049L30.8608 27.9356L30.8964 27.9029L30.952 27.8502L31.0241 27.7811L31.0964 27.7121L31.1687 27.6431L31.241 27.5742L31.3135 27.5054L31.386 27.4366L31.4586 27.3679L31.497 27.3329L31.5504 27.2832L31.6231 27.2147L31.6959 27.1463L31.7688 27.0779L31.8417 27.0096L31.9147 26.9413L31.9878 26.8732L32.0609 26.8051L32.1022 26.7679L32.1534 26.7211L32.2267 26.6533L32.3001 26.5854L32.3734 26.5176L32.447 26.4499L32.5205 26.3823L32.5941 26.3147L32.6678 26.2472L32.7121 26.2079L32.761 26.164L32.8348 26.0967L32.9088 26.0295L32.9827 25.9623L33.0567 25.8951L33.1309 25.8281L33.205 25.7611L33.2792 25.6943L33.3264 25.6528L33.3731 25.6119L33.4475 25.5452L33.5219 25.4785L33.5965 25.4119L33.671 25.3454L33.7457 25.279L33.8204 25.2127L33.8951 25.1463L33.9453 25.1028L33.9897 25.0648L34.0646 24.9986L34.1396 24.9325L34.2146 24.8666L34.2898 24.8007L34.3649 24.7349L34.4402 24.6692L34.5155 24.6035L34.5687 24.558L34.6107 24.5227L34.6862 24.4572L34.7617 24.3917L34.8372 24.3264L34.9129 24.2611L34.9886 24.1959L35.0644 24.1308L35.1403 24.0657L35.1965 24.0182L35.2361 23.9857L35.3121 23.9208L35.3881 23.856L35.4642 23.7912L35.5404 23.7266L35.6167 23.662L35.6929 23.5975L35.7693 23.5331L35.8287 23.4837L35.8659 23.4539L35.9423 23.3895L36.0189 23.3254L36.0956 23.2613L36.1722 23.1972L36.249 23.1333L36.3259 23.0694L36.4027 23.0055L36.4653 22.9543L36.5 22.9272L36.577 22.8635L36.654 22.7999L36.7312 22.7365L36.8084 22.673L36.8857 22.6097L36.9631 22.5464L37.0405 22.4832L37.1061 22.4302L37.1383 22.4056L37.2159 22.3426L37.2934 22.2796L37.3711 22.2168L37.4489 22.154L37.5266 22.0913L37.6045 22.0287L37.6824 21.9662L37.7513 21.9113L37.7809 21.8893L37.8589 21.827L37.9371 21.7647L38.0152 21.7024L38.0935 21.6403L38.1718 21.5782L38.2501 21.5162L38.3286 21.4543L38.4006 21.3978L38.4277 21.3784L38.5062 21.3166L38.5849 21.255L38.6635 21.1934L38.7422 21.1318L38.8211 21.0705L38.8999 21.0091L38.9788 20.9478L39.0542 20.8896L39.0786 20.8727L39.1576 20.8115L39.2367 20.7505L39.316 20.6896L39.3952 20.6287L39.4745 20.568L39.5538 20.5073L39.6332 20.4466L39.7119 20.3868L39.7336 20.3723L39.8131 20.3118L39.8927 20.2514L39.9724 20.1912L40.0521 20.131L40.1319 20.0708L40.2118 20.0108L40.2917 19.9508L40.3716 19.8909L40.3946 19.8757L40.4727 19.8175L40.5528 19.7578L40.6329 19.6981L40.7132 19.6386L40.7934 19.5791L40.8737 19.5197L40.9542 19.4604L41.0346 19.4012L41.0605 19.384L41.1362 19.3286L41.2168 19.2696L41.2974 19.2106L41.3781 19.1517L41.4589 19.0929L41.5397 19.0341L41.6206 18.9755L41.7015 18.9169L41.7305 18.8978L41.8037 18.8451L41.8848 18.7868L41.9659 18.7284L42.0471 18.6702L42.1283 18.6121L42.2096 18.554L42.2909 18.496L42.3724 18.4381L42.4044 18.4171L42.4752 18.3672L42.5567 18.3094L42.6383 18.2518L42.7199 18.1942L42.8016 18.1367L42.8834 18.0793L42.9652 18.022L43.0471 17.9647L43.0822 17.9419L43.1505 17.8947L43.2325 17.8376L43.3146 17.7807L43.3967 17.7238L43.4788 17.6669L43.5611 17.6102L43.6434 17.5536L43.7257 17.4969L43.7639 17.4723L43.8297 17.4278L43.9121 17.3714L43.9946 17.3151L44.0772 17.2589L44.1599 17.2027L44.2425 17.1466L44.3253 17.0907L44.4081 17.0347L44.4494 17.0083L44.5126 16.9664L44.5955 16.9108L44.6785 16.8551L44.7615 16.7995L44.8446 16.7441L44.9277 16.6887L45.0109 16.6334L45.0942 16.5782L45.1388 16.55L45.1993 16.5107L45.2826 16.4557L45.3661 16.4008L45.4495 16.3458L45.5331 16.2911L45.6167 16.2364L45.7003 16.1817L45.784 16.1272L45.8318 16.0974L45.8897 16.0607L45.9735 16.0063L46.0574 15.952L46.1413 15.8978L46.2252 15.8437L46.3093 15.7897L46.3934 15.7358L46.4775 15.6819L46.5285 15.6505L46.5837 15.6163L46.668 15.5626L46.7523 15.509L46.8366 15.4555L46.9211 15.4021L47.0055 15.3487L47.0901 15.2955L47.1746 15.2423L47.2289 15.2093L47.2814 15.1775L47.3661 15.1246L47.4508 15.0717L47.5356 15.0189L47.6204 14.9662L47.7053 14.9135L47.7903 14.861L47.8753 14.8085L47.9328 14.774L47.9825 14.7446L48.0677 14.6924L48.1528 14.6402L48.238 14.588L48.3234 14.536L48.4087 14.4841L48.494 14.4322L48.5795 14.3805L48.6404 14.3444L48.6872 14.3175L48.7728 14.2659L48.8584 14.2144L48.944 14.163L49.0297 14.1116L49.1155 14.0604L49.2013 14.0092L49.2872 13.9582L49.3514 13.9207L49.3955 13.8961L49.4814 13.8452L49.5674 13.7944L49.6535 13.7437L49.7396 13.693L49.8258 13.6425L49.912 13.5921L49.9982 13.5417L50.0659 13.5029L50.107 13.4806L50.1934 13.4304L50.2798 13.3802L50.3663 13.3303L50.4528 13.2804L50.5394 13.2305L50.6261 13.1808L50.7127 13.1311L50.7838 13.091L50.822 13.0708L50.9088 13.0214L50.9956 12.972L51.0825 12.9227L51.1695 12.8735L51.2564 12.8244L51.3435 12.7754L51.4306 12.7265L51.5051 12.6851L51.5403 12.667L51.6275 12.6183L51.7148 12.5697L51.8021 12.521L51.8894 12.4726L51.9768 12.4242L52.0642 12.3758L52.1517 12.3276L52.2297 12.2851L52.262 12.2692L52.3495 12.2211L52.4372 12.1732L52.5249 12.1254L52.6125 12.0775L52.7004 12.0299L52.7882 11.9823L52.876 11.9348L52.9575 11.8911L52.9868 11.8773L53.0748 11.8299L53.1628 11.7827L53.2508 11.7356L53.3389 11.6885L53.4271 11.6416L53.5153 11.5947L53.6035 11.5479L53.6885 11.5031L53.7148 11.4913L53.8031 11.4447L53.8915 11.3982L53.98 11.3518L54.0685 11.3055L54.157 11.2592L54.2456 11.2131L54.3342 11.1671L54.4227 11.1212L54.4459 11.1113L54.5347 11.0655L54.6235 11.0198L54.7123 10.974L54.8012 10.9285L54.8901 10.883L54.979 10.8375L55.068 10.7922L55.1571 10.747L55.1832 10.7358L55.2693 10.6923L55.3584 10.6473L55.4476 10.6023L55.5369 10.5575L55.6262 10.5127L55.7155 10.468L55.8048 10.4234L55.8943 10.3789L55.9236 10.3663L56.0069 10.3252L56.0965 10.2809L56.186 10.2367L56.2756 10.1925L56.3653 10.1485L56.455 10.1046L56.5447 10.0607L56.6345 10.0169L56.6671 10.003L56.7476 9.9642L56.8374 9.92056L56.9274 9.87714L57.0173 9.83376L57.1073 9.7904L57.1974 9.74725L57.2874 9.70413L57.3776 9.66105L57.4136 9.64572L57.4911 9.60929L57.5813 9.56643L57.6716 9.52368L57.7619 9.48108L57.8523 9.43847L57.9427 9.39601L58.0331 9.35367L58.1236 9.31133L58.163 9.29469L58.2376 9.26049L58.3282 9.2184L58.4188 9.17638L58.5094 9.13451L58.6001 9.09269L58.6909 9.05093L58.7817 9.00935L58.8725 8.96779L58.9152 8.94989L58.9869 8.91782L59.0778 8.87652L59.1688 8.8353L59.2597 8.79408L59.3508 8.75306L59.4419 8.71209L59.533 8.67117L59.6242 8.63042L59.6703 8.61133L59.7389 8.58145L59.8302 8.54082L59.9215 8.50038L60.0128 8.45994L60.1042 8.41962L60.1956 8.37944L60.2871 8.33926L60.3786 8.29923L60.4281 8.27901L60.4938 8.25125L60.5854 8.21137L60.677 8.17166L60.7687 8.132L60.8603 8.0924L60.9521 8.05298L61.0439 8.01359L61.1357 7.97426L61.1887 7.95296L61.2513 7.92727L61.3432 7.88819L61.4351 7.84916L61.5271 7.8103L61.6191 7.77151L61.7112 7.73275L61.8033 7.69414L61.8955 7.65562L61.9519 7.63325L62.0114 7.60951L62.1036 7.57126L62.1959 7.533L62.2882 7.49484L62.3805 7.45684L62.4729 7.41885L62.5653 7.38098L62.6578 7.34326L62.7177 7.31988L62.7741 7.2981L62.8667 7.26057L62.9592 7.22311L63.0518 7.18568L63.1445 7.14845L63.2372 7.11126L63.3298 7.0741L63.4226 7.03716L63.4861 7.01288L63.5393 6.99303L63.6322 6.95617L63.7251 6.91953L63.818 6.8829L63.9109 6.84634L64.0039 6.80997L64.0969 6.77363L64.1899 6.73736L64.257 6.71222L64.3071 6.69425L64.4002 6.65819L64.4934 6.62223L64.5866 6.58643L64.6798 6.55065L64.7731 6.51498L64.8664 6.47945L64.9598 6.44394L65.0303 6.41796L65.0772 6.40178L65.1706 6.36654L65.2641 6.33131L65.3576 6.29628L65.4511 6.2613L65.5447 6.22634L65.6383 6.19161L65.7319 6.15692L65.806 6.13012L65.8497 6.11565L65.9434 6.08122L66.0372 6.04682L66.1309 6.01248L66.2248 5.97832L66.3186 5.94417L66.4125 5.91013L66.5064 5.87624L66.5841 5.84879L66.6245 5.83602L66.7185 5.80228L66.8126 5.76869L66.9066 5.73514L67.0007 5.70169L67.0948 5.66838L67.189 5.63511L67.2832 5.60195L67.3644 5.57389L67.4016 5.56278L67.4959 5.52977L67.5902 5.49696L67.6845 5.46423L67.7789 5.4315L67.8733 5.39899L67.9677 5.36652L68.0622 5.33406L68.147 5.30545L68.181 5.29591L68.2755 5.26372L68.37 5.23161L68.4647 5.19969L68.5593 5.16778L68.6539 5.13597L68.7487 5.10433L68.8434 5.0727L68.9318 5.04348L68.9625 5.03545L69.0573 5.00408L69.1521 4.97279L69.2469 4.94159L69.3418 4.9105L69.4368 4.87947L69.5317 4.84857L69.6267 4.81777L69.7188 4.78806L69.746 4.7815L69.8411 4.75091L69.9362 4.72044L70.0313 4.68996L70.1264 4.65968L70.2216 4.62948L70.3167 4.59929L70.412 4.5693L70.5073 4.53937L70.5322 4.53388L70.627 4.50417L70.7223 4.47452L70.8177 4.44488L70.913 4.4153L71.0085 4.38592L71.1039 4.35655L71.1994 4.32727L71.2949 4.29819L71.3233 4.29176L71.4149 4.26403L71.5105 4.23508L71.6061 4.20627L71.7017 4.17749L71.7973 4.14885L71.893 4.12031L71.9887 4.09182L72.0844 4.06348L72.1163 4.05617L72.2048 4.03037L72.3005 4.00218L72.3964 3.97414L72.4922 3.94622L72.5881 3.91829L72.684 3.89056L72.7799 3.86292L72.8758 3.83528L72.9112 3.82714L72.9964 3.80322L73.0925 3.77585L73.1885 3.74851L73.2846 3.72143L73.3807 3.69435L73.4768 3.66732L73.573 3.64051L73.6692 3.6137L73.7081 3.60479L73.79 3.58258L73.8862 3.55605L73.9825 3.52953L74.0788 3.50317L74.1751 3.47691L74.2714 3.45068L74.3678 3.42462L74.4642 3.39865L74.5067 3.38903L74.5853 3.36851L74.6818 3.34275L74.7782 3.31708L74.8747 3.29146L74.9713 3.26601L75.0678 3.24063L75.1645 3.21527L75.2611 3.19012L75.307 3.17987L75.3824 3.16104L75.479 3.13599L75.5757 3.11117L75.6725 3.08638L75.7692 3.06163L75.866 3.0371L75.9628 3.01259L76.0596 2.98815L76.1091 2.97732L76.1811 2.96012L76.278 2.93589L76.3749 2.9118L76.4718 2.88785L76.5687 2.86391L76.6657 2.84013L76.7627 2.81646L76.8597 2.7928L76.9128 2.78143L76.9815 2.76576L77.0785 2.74238L77.1756 2.71905L77.2727 2.6959L77.3699 2.67279L77.467 2.64975L77.5642 2.62691L77.6614 2.60408L77.718 2.59219L77.7833 2.57798L77.8806 2.55543L77.9779 2.53296L78.0751 2.51052L78.1724 2.48826L78.2698 2.46607L78.3671 2.44393L78.4645 2.42195L78.5248 2.40965L78.5867 2.3969L78.6841 2.37508L78.7816 2.35345L78.8791 2.33182L78.9766 2.3103L79.0741 2.28895L79.1716 2.26761L79.2692 2.2464L79.333 2.23374L79.3916 2.2224L79.4605 2.20745L79.5094 2.19691L79.5584 2.18643L79.6073 2.17602L79.6563 2.16578L79.7054 2.15559L79.7544 2.14547L79.7732 2.14283L79.7797 2.14317L79.8288 2.13333L79.8779 2.12351L79.9271 2.11392L79.9763 2.10436L80.0255 2.09484L80.0748 2.08556L80.1241 2.07628L80.1465 2.07334L80.1496 2.07495L80.199 2.06596L80.2483 2.057L80.2977 2.04816L80.3471 2.03946L80.3965 2.03079L80.446 2.02225L80.4955 2.01382L80.5216 2.01072L80.5213 2.01354L80.5709 2.00532L80.6204 1.99725L80.67 1.98917L80.7196 1.98127L80.7693 1.97348L80.8189 1.96568L80.8686 1.95811L80.8984 1.95489L80.8948 1.95888L80.9445 1.95143L80.9943 1.94419L81.0441 1.93696L81.0939 1.9298L81.1437 1.92285L81.1936 1.91592L81.2435 1.90908L81.277 1.90581L81.2699 1.91094L81.3199 1.90434L81.3698 1.8978L81.4198 1.89145L81.4699 1.88514L81.5199 1.87891L81.57 1.87285L81.62 1.86682L81.6572 1.86347L81.6468 1.86965L81.6969 1.8639L81.747 1.85816L81.7972 1.85261L81.8475 1.84713L81.8977 1.84168L81.948 1.83643L81.9983 1.83123L82.0392 1.82789L82.0253 1.83505L82.0756 1.8301L82.126 1.82524L82.1764 1.8204L82.2268 1.81576L82.2772 1.81119L82.3277 1.80663L82.3781 1.8023L82.4228 1.79909L82.4054 1.80718L82.4559 1.80295L82.5065 1.79895L82.5571 1.79495L82.6077 1.79104L82.6583 1.78732L82.709 1.7836L82.7597 1.78L82.808 1.77697L82.7872 1.78595L82.8379 1.78257L82.8887 1.77929L82.9394 1.77614L82.9902 1.77305L83.0411 1.77008L83.0919 1.76722L83.1427 1.76441L83.1937 1.76174L83.1718 1.77114L83.2215 1.76881L83.2724 1.76628L83.3234 1.76396L83.3744 1.76171L83.4254 1.75947L83.4764 1.75746L83.5275 1.75549L83.5785 1.75353L83.5603 1.76262L83.6067 1.76167L83.6578 1.75999L83.7088 1.75844Z" fill="white"/>
</svg>
