<svg width="200" height="200" viewBox="0 0 200 200" fill="none" xmlns="http://www.w3.org/2000/svg">
<path d="M112.806 2.24339L112.841 2.31869L112.876 2.39401L112.911 2.42266L112.946 2.48234L112.982 2.55777L113.017 2.63329L113.052 2.70879L113.087 2.76903L113.122 2.79747L113.157 2.87308L113.192 2.94874L113.227 3.02446L113.263 3.10017L113.298 3.12959L113.333 3.18927L113.368 3.26509L113.403 3.34098L113.438 3.4169L113.473 3.47791L113.508 3.50633L113.543 3.58235L113.578 3.65837L113.613 3.73449L113.647 3.8106L113.682 3.84079L113.717 3.90047L113.752 3.97669L113.787 4.05293L113.822 4.12926L113.857 4.19108L113.892 4.21945L113.926 4.29587L113.961 4.37229L113.996 4.44877L114.031 4.52529L114.066 4.55627L114.1 4.61591L114.135 4.69253L114.17 4.76915L114.204 4.84585L114.239 4.90848L114.274 4.93681L114.308 5.01362L114.343 5.09045L114.378 5.16727L114.412 5.2442L114.447 5.27599L114.482 5.33557L114.516 5.4126L114.551 5.48962L114.585 5.56667L114.62 5.63011L114.654 5.65843L114.689 5.73559L114.723 5.81282L114.758 5.89004L114.792 5.96731L114.827 5.99991L114.861 6.05947L114.895 6.13685L114.93 6.21428L114.964 6.2917L114.999 6.35593L115.033 6.38424L115.067 6.46176L115.102 6.53936L115.136 6.61699L115.17 6.69461L115.204 6.72801L115.239 6.78756L115.273 6.8653L115.307 6.94311L115.341 7.02093L115.376 7.08592L115.41 7.11421L115.444 7.19213L115.478 7.27009L115.512 7.3481L115.546 7.42612L115.581 7.46028L115.615 7.51982L115.649 7.59793L115.683 7.67611L115.717 7.75433L115.751 7.82009L115.785 7.84834L115.819 7.92666L115.853 8.00497L115.887 8.08337L115.921 8.16178L115.955 8.19669L115.989 8.25621L116.022 8.33472L116.056 8.41324L116.09 8.49185L116.124 8.55841L116.158 8.5866L116.192 8.6653L116.226 8.74401L116.259 8.82275L116.293 8.90155L116.327 8.93726L116.361 8.99672L116.394 9.07561L116.428 9.15451L116.462 9.23347L116.495 9.30083L116.529 9.32898L116.563 9.40805L116.596 9.48714L116.63 9.56624L116.663 9.64541L116.697 9.68192L116.731 9.74131L116.764 9.82059L116.798 9.89988L116.831 9.97917L116.865 10.0473L116.898 10.0755L116.932 10.1549L116.965 10.2343L116.998 10.3138L117.032 10.3933L117.065 10.4306L117.099 10.49L117.132 10.5696L117.165 10.6493L117.199 10.729L117.232 10.7979L117.265 10.826L117.298 10.9058L117.332 10.9856L117.365 11.0655L117.398 11.1453L117.431 11.1834L117.464 11.2427L117.498 11.3227L117.531 11.4028L117.564 11.4828L117.597 11.5525L117.63 11.5805L117.663 11.6607L117.696 11.7409L117.729 11.8211L117.762 11.9014L117.795 11.9402L117.828 11.9995L117.861 12.0799L117.894 12.1602L117.927 12.2407L117.96 12.3111L117.993 12.3391L118.026 12.4197L118.059 12.5002L118.091 12.5808L118.124 12.6614L118.157 12.701L118.19 12.7603L118.223 12.841L118.255 12.9217L118.288 13.0025L118.321 13.0737L118.353 13.1017L118.386 13.1826L118.419 13.2635L118.451 13.3444L118.484 13.4254L118.517 13.4658L118.549 13.525L118.582 13.6061L118.614 13.6872L118.647 13.7683L118.679 13.8403L118.712 13.8682L118.744 13.9494L118.777 14.0307L118.809 14.112L118.842 14.1934L118.874 14.2345L118.906 14.2936L118.939 14.3751L118.971 14.4566L119.003 14.538L119.036 14.6108L119.068 14.6387L119.1 14.7202L119.132 14.8019L119.165 14.8836L119.197 14.9652L119.229 15.0072L119.261 15.0662L119.293 15.148L119.325 15.2299L119.358 15.3117L119.39 15.3852L119.422 15.413L119.454 15.495L119.486 15.5769L119.518 15.659L119.55 15.741L119.582 15.7837L119.614 15.8427L119.646 15.9249L119.678 16.007L119.709 16.0892L119.741 16.1635L119.773 16.1913L119.805 16.2736L119.837 16.3559L119.869 16.4383L119.9 16.5207L119.932 16.5641L119.964 16.6231L119.996 16.7056L120.027 16.7881L120.059 16.8706L120.091 16.9457L120.122 16.9733L120.154 17.056L120.185 17.1387L120.217 17.2214L120.248 17.3041L120.28 17.3483L120.312 17.4072L120.343 17.4901L120.375 17.5729L120.406 17.6559L120.437 17.7316L120.469 17.7592L120.5 17.8423L120.532 17.9253L120.563 18.0083L120.594 18.0914L120.626 18.1364L120.657 18.1952L120.688 18.2784L120.719 18.3616L120.751 18.4449L120.782 18.5214L120.813 18.549L120.844 18.6323L120.875 18.7157L120.906 18.7991L120.937 18.8825L120.969 18.9282L121 18.987L121.031 19.0705L121.062 19.1541L121.093 19.2377L121.124 19.3149L121.155 19.3425L121.185 19.4261L121.216 19.5098L121.247 19.5936L121.278 19.6773L121.309 19.7238L121.34 19.7825L121.371 19.8664L121.401 19.9503L121.432 20.0342L121.463 20.1122L121.494 20.1397L121.524 20.2237L121.555 20.3077L121.586 20.3918L121.616 20.4759L121.647 20.5231L121.677 20.5817L121.708 20.6659L121.739 20.7502L121.769 20.8344L121.8 20.9132L121.83 20.9406L121.861 21.0249L121.891 21.1093L121.921 21.1937L121.952 21.2782L121.982 21.3261L122.013 21.3847L122.043 21.4692L122.073 21.5537L122.103 21.6384L122.134 21.7179L122.164 21.7451L122.194 21.8298L122.224 21.9146L122.255 21.9993L122.285 22.0841L122.315 22.1327L122.345 22.1912L122.375 22.2761L122.405 22.361L122.435 22.4459L122.465 22.5262L122.495 22.5534L122.525 22.6384L122.555 22.7235L122.585 22.8085L122.615 22.8936L122.645 22.943L122.675 23.0014L122.704 23.0866L122.734 23.1719L122.764 23.2571L122.794 23.3381L122.824 23.3652L122.853 23.4506L122.883 23.536L122.913 23.6214L122.942 23.7068L122.972 23.7569L123.002 23.8153L123.031 23.9008L123.061 23.9863L123.09 24.0719L123.12 24.1536L123.149 24.1807L123.179 24.2663L123.208 24.352L123.238 24.4378L123.267 24.5235L123.296 24.5744L123.326 24.6326L123.355 24.7185L123.384 24.8043L123.414 24.8903L123.443 24.9727L123.472 24.9996L123.501 25.0856L123.531 25.1716L123.56 25.2577L123.589 25.3438L123.618 25.3953L123.647 25.4535L123.676 25.5397L123.705 25.6259L123.734 25.7121L123.763 25.7953L123.792 25.8221L123.821 25.9085L123.85 25.9948L123.879 26.0812L123.908 26.1676L123.937 26.2199L123.966 26.2779L123.994 26.3644L124.023 26.4509L124.052 26.5375L124.081 26.6214L124.109 26.6481L124.138 26.7348L124.167 26.8214L124.195 26.9081L124.224 26.9948L124.253 27.0478L124.281 27.1058L124.31 27.1926L124.338 27.2794L124.367 27.3663L124.395 27.4509L124.424 27.4776L124.452 27.5645L124.481 27.6515L124.509 27.7385L124.537 27.8255L124.566 27.8792L124.594 27.9371L124.622 28.0242L124.651 28.1114L124.679 28.1985L124.707 28.2839L124.735 28.3104L124.763 28.3977L124.791 28.485L124.82 28.5723L124.848 28.6596L124.876 28.7141L124.904 28.7718L124.932 28.8592L124.96 28.9467L124.988 29.0342L125.016 29.1202L125.044 29.1467L125.071 29.2342L125.099 29.3218L125.127 29.4094L125.155 29.4971L125.183 29.5522L125.21 29.6099L125.238 29.6976L125.266 29.7854L125.294 29.8731L125.321 29.9599L125.349 29.9863L125.377 30.0741L125.404 30.162L125.432 30.2499L125.459 30.3379L125.487 30.3938L125.514 30.4513L125.542 30.5394L125.569 30.6274L125.596 30.7155L125.624 30.803L125.651 30.8292L125.679 30.9174L125.706 31.0056L125.733 31.0937L125.76 31.182L125.788 31.2386L125.815 31.296L125.842 31.3844L125.869 31.4727L125.896 31.5611L125.923 31.6493L125.951 31.6754L125.978 31.7639L126.005 31.8524L126.032 31.9409L126.059 32.0294L126.085 32.0867L126.112 32.144L126.139 32.2327L126.166 32.3213L126.193 32.41L126.22 32.4987L126.247 32.5251L126.273 32.6136L126.3 32.7024L126.327 32.7912L126.354 32.88L126.38 32.9381L126.407 32.9953L126.433 33.0842L126.46 33.1731L126.487 33.2621L126.513 33.351L126.54 33.3782L126.566 33.4666L126.593 33.5557L126.619 33.6448L126.645 33.7339L126.672 33.7926L126.698 33.8497L126.724 33.9389L126.751 34.0281L126.777 34.1174L126.803 34.2066L126.829 34.2345L126.856 34.3228L126.882 34.4121L126.908 34.5015L126.934 34.5909L126.96 34.6503L126.986 34.7073L127.012 34.7968L127.038 34.8863L127.064 34.9758L127.09 35.0654L127.116 35.0939L127.142 35.1821L127.168 35.2717L127.194 35.3614L127.219 35.4511L127.245 35.5111L127.271 35.568L127.297 35.6578L127.322 35.7476L127.348 35.8374L127.374 35.9272L127.399 35.9564L127.425 36.0445L127.45 36.1344L127.476 36.2243L127.501 36.3143L127.527 36.3751L127.552 36.4318L127.578 36.5219L127.603 36.6119L127.629 36.702L127.654 36.7922L127.679 36.8221L127.705 36.91L127.73 37.0002L127.755 37.0904L127.78 37.1806L127.805 37.2421L127.831 37.2987L127.856 37.389L127.881 37.4794L127.906 37.5697L127.931 37.6602L127.956 37.6907L127.981 37.7785L128.006 37.869L128.031 37.9595L128.056 38.05L128.081 38.1122L128.105 38.1686L128.13 38.2592L128.155 38.3498L128.18 38.4405L128.205 38.5311L128.229 38.5624L128.254 38.6501L128.279 38.7408L128.303 38.8316L128.328 38.9224L128.352 38.9852L128.377 39.0415L128.401 39.1324L128.426 39.2233L128.45 39.3142L128.475 39.4051L128.499 39.4371L128.524 39.5246L128.548 39.6156L128.572 39.7066L128.596 39.7977L128.621 39.8612L128.645 39.9174L128.669 40.0085L128.693 40.0996L128.717 40.1908L128.742 40.282L128.766 40.3146L128.79 40.402L128.814 40.4933L128.838 40.5846L128.862 40.6759L128.886 40.7401L128.91 40.7961L128.933 40.8875L128.957 40.9789L128.981 41.0704L129.005 41.1618L129.029 41.1951L129.052 41.2823L129.076 41.3739L129.1 41.4654L129.123 41.557L129.147 41.6219L129.171 41.6777L129.194 41.7694L129.218 41.8611L129.241 41.9528L129.265 42.0445L129.288 42.0784L129.312 42.1655L129.335 42.2573L129.358 42.3491L129.382 42.441L129.405 42.5065L129.428 42.5622L129.452 42.6541L129.475 42.7461L129.498 42.838L129.521 42.93L129.544 42.9646L129.567 43.0515L129.59 43.1436L129.613 43.2356L129.636 43.3277L129.659 43.3939L129.682 43.4495L129.705 43.5416L129.728 43.6338L129.751 43.726L129.774 43.8183L129.797 43.8535L129.82 43.9403L129.842 44.0326L129.865 44.1249L129.888 44.2173L129.91 44.2841L129.933 44.3395L129.956 44.4319L129.978 44.5244L130.001 44.6168L130.023 44.7093L130.046 44.7452L130.068 44.8318L130.09 44.9244L130.113 45.0169L130.135 45.1095L130.158 45.177L130.18 45.2323L130.202 45.3249L130.224 45.4176L130.247 45.5103L130.269 45.603L130.291 45.6396L130.313 45.7261L130.335 45.8188L130.357 45.9116L130.379 46.0045L130.401 46.0726L130.423 46.1277L130.445 46.2206L130.467 46.3135L130.489 46.4065L130.511 46.4995L130.532 46.5367L130.554 46.623L130.576 46.716L130.598 46.809L130.619 46.9021L130.641 46.9709L130.663 47.0258L130.684 47.119L130.706 47.2121L130.727 47.3053L130.749 47.3985L130.77 47.4364L130.792 47.5225L130.813 47.6158L130.835 47.709L130.856 47.8023L130.877 47.8718L130.899 47.9265L130.92 48.0199L130.941 48.1133L130.962 48.2067L130.983 48.3001L131.005 48.3387L131.026 48.4246L131.047 48.5181L131.068 48.6116L131.089 48.7051L131.11 48.7752L131.131 48.8298L131.152 48.9234L131.173 49.017L131.193 49.1107L131.214 49.2043L131.235 49.2435L131.256 49.3292L131.277 49.4229L131.297 49.5167L131.318 49.6105L131.339 49.6812L131.359 49.7356L131.38 49.8294L131.4 49.9233L131.421 50.0171L131.441 50.111L131.462 50.1508L131.482 50.2364L131.503 50.3303L131.523 50.4243L131.543 50.5183L131.564 50.5896L131.584 50.6439L131.604 50.7379L131.624 50.832L131.644 50.9261L131.665 51.0202L131.685 51.0606L131.705 51.146L131.725 51.2402L131.745 51.3344L131.765 51.4286L131.785 51.5006L131.805 51.5546L131.825 51.6489L131.844 51.7431L131.864 51.8375L131.884 51.9318L131.904 51.9729L131.924 52.0581L131.943 52.1525L131.963 52.2468L131.983 52.3413L132.002 52.4139L132.022 52.4677L132.041 52.5622L132.061 52.6567L132.08 52.7513L132.1 52.8458L132.119 52.8875L132.138 52.9725L132.158 53.0671L132.177 53.1617L132.196 53.2564L132.216 53.3296L132.235 53.3832L132.254 53.4779L132.273 53.5727L132.292 53.6674L132.311 53.7622L132.33 53.8045L132.349 53.8893L132.368 53.9841L132.387 54.0789L132.406 54.1738L132.425 54.2476L132.444 54.3011L132.463 54.396L132.482 54.4909L132.5 54.5859L132.519 54.6808L132.538 54.7237L132.557 54.8083L132.575 54.9034L132.594 54.9984L132.612 55.0935L132.631 55.1679L132.649 55.2212L132.668 55.3163L132.686 55.4114L132.705 55.5066L132.723 55.6017L132.741 55.6453L132.76 55.7297L132.778 55.8249L132.796 55.9202L132.814 56.0154L132.833 56.0905L132.851 56.1435L132.869 56.2388L132.887 56.3342L132.905 56.4295L132.923 56.5249L132.941 56.569L132.959 56.6532L132.977 56.7486L132.995 56.8441L133.012 56.9396L133.03 57.0152L133.048 57.0681L133.066 57.1636L133.083 57.2591L133.101 57.3547L133.119 57.4502L133.136 57.495L133.154 57.5789L133.172 57.6746L133.189 57.7702L133.207 57.8659L133.224 57.9421L133.241 57.9948L133.259 58.0905L133.276 58.1862L133.293 58.2819L133.311 58.3777L133.328 58.423L133.345 58.5068L133.362 58.6026L133.379 58.6984L133.397 58.7943L133.414 58.8712L133.431 58.9236L133.448 59.0195L133.465 59.1154L133.482 59.2113L133.499 59.3073L133.515 59.3532L133.532 59.4367L133.549 59.5328L133.566 59.6288L133.583 59.7248L133.599 59.8023L133.616 59.8544L133.633 59.9505L133.649 60.0466L133.666 60.1427L133.682 60.2389L133.699 60.2854L133.715 60.3687L133.732 60.4649L133.748 60.5611L133.765 60.6573L133.781 60.7354L133.797 60.7873L133.813 60.8836L133.83 60.9799L133.846 61.0762L133.862 61.1725L133.878 61.2196L133.894 61.3027L133.91 61.3991L133.926 61.4955L133.942 61.5918L133.958 61.6705L133.974 61.7222L133.99 61.8187L134.006 61.9151L134.022 62.0116L134.038 62.1081L134.053 62.1558L134.069 62.2387L134.085 62.3352L134.1 62.4318L134.116 62.5283L134.132 62.6076L134.147 62.659L134.163 62.7556L134.178 62.8523L134.194 62.9489L134.209 63.0456L134.224 63.0939L134.24 63.1765L134.255 63.2732L134.27 63.3699L134.286 63.4667L134.301 63.5465L134.316 63.5977L134.331 63.6945L134.346 63.7913L134.361 63.8882L134.376 63.985L134.391 64.0339L134.406 64.1162L134.421 64.2131L134.436 64.31L134.451 64.4069L134.466 64.4873L134.481 64.5383L134.495 64.6352L134.51 64.7322L134.525 64.8292L134.54 64.9262L134.554 64.9756L134.569 65.0578L134.583 65.1548L134.598 65.2519L134.612 65.3489L134.627 65.4299L134.641 65.4806L134.655 65.5777L134.67 65.6749L134.684 65.772L134.698 65.8692L134.713 65.9192L134.727 66.0011L134.741 66.0983L134.755 66.1955L134.769 66.2927L134.783 66.3742L134.797 66.4247L134.811 66.522L134.825 66.6193L134.839 66.7166L134.853 66.8139L134.867 66.8645L134.881 66.9461L134.895 67.0434L134.908 67.1408L134.922 67.2382L134.936 67.3203L134.949 67.3705L134.963 67.468L134.977 67.5654L134.99 67.6628L135.004 67.7603L135.017 67.8114L135.03 67.8928L135.044 67.9903L135.057 68.0878L135.071 68.1854L135.084 68.268L135.097 68.318L135.11 68.4156L135.123 68.5132L135.137 68.6107L135.15 68.7084L135.163 68.76L135.176 68.8411L135.189 68.9388L135.202 69.0365L135.215 69.1341L135.228 69.2173L135.241 69.2671L135.253 69.3648L135.266 69.4625L135.279 69.5603L135.292 69.658L135.304 69.7103L135.317 69.7911L135.33 69.8889L135.342 69.9867L135.355 70.0845L135.367 70.1683L135.38 70.2177L135.392 70.3156L135.405 70.4134L135.417 70.5113L135.429 70.6092L135.442 70.662L135.454 70.7426L135.466 70.8405L135.478 70.9384L135.49 71.0364L135.503 71.1207L135.515 71.1699L135.527 71.2678L135.539 71.3659L135.551 71.4639L135.563 71.5619L135.574 71.6152L135.586 71.6955L135.598 71.7936L135.61 71.8917L135.622 71.9898L135.633 72.0746L135.645 72.1235L135.657 72.2216L135.668 72.3198L135.68 72.4179L135.691 72.5161L135.703 72.5699L135.714 72.6499L135.726 72.7481L135.737 72.8463L135.749 72.9446L135.76 73.0299L135.771 73.0785L135.783 73.1768L135.794 73.2751L135.805 73.3733L135.816 73.4716L135.827 73.526L135.838 73.6058L135.849 73.7041L135.86 73.8024L135.871 73.9007L135.882 73.9866L135.893 74.035L135.904 74.1333L135.915 74.2317L135.926 74.3301L135.936 74.4285L135.947 74.4835L135.958 74.5629L135.968 74.6613L135.979 74.7598L135.99 74.8583L136 74.9447L136.011 74.9927L136.021 75.0912L136.031 75.1897L136.042 75.2882L136.052 75.3868L136.062 75.4422L136.073 75.5214L136.083 75.6199L136.093 75.7185L136.103 75.8171L136.114 75.904L136.124 75.9518L136.134 76.0504L136.144 76.149L136.154 76.2476L136.164 76.3463L136.174 76.4022L136.183 76.4811L136.193 76.5797L136.203 76.6784L136.213 76.7771L136.223 76.8646L136.232 76.912L136.242 77.0107L136.252 77.1095L136.261 77.2082L136.271 77.307L136.28 77.3634L136.29 77.442L136.299 77.5407L136.309 77.6395L136.318 77.7383L136.327 77.8263L136.337 77.8735L136.346 77.9723L136.355 78.0711L136.364 78.17L136.373 78.2688L136.382 78.3258L136.391 78.4041L136.401 78.5029L136.41 78.6018L136.419 78.7007L136.427 78.7892L136.436 78.836L136.445 78.9349L136.454 79.0339L136.463 79.1328L136.472 79.2318L136.48 79.2893L136.489 79.3672L136.498 79.4662L136.506 79.5652L136.515 79.6642L136.523 79.7531L136.532 79.7997L136.54 79.8987L136.549 79.9977L136.557 80.0968L136.565 80.1958L136.574 80.2538L136.582 80.3314L136.59 80.4305L136.598 80.5296L136.606 80.6286L136.615 80.7181L136.623 80.7644L136.631 80.8635L136.639 80.9626L136.647 81.0617L136.655 81.1608L136.662 81.2193L136.67 81.2967L136.678 81.3958L136.686 81.495L136.694 81.5942L136.701 81.6841L136.709 81.73L136.717 81.8292L136.724 81.9284L136.732 82.0276L136.739 82.1269L136.747 82.1859L136.754 82.2628L136.762 82.3621L136.769 82.4613L136.776 82.5606L136.784 82.651L136.791 82.6966L136.798 82.7959L136.805 82.8952L136.813 82.9945L136.82 83.0938L136.827 83.1533L136.834 83.2299L136.841 83.3292L136.848 83.4286L136.855 83.5279L136.862 83.6189L136.869 83.6641L136.875 83.7635L136.882 83.8628L136.889 83.9622L136.896 84.0616L136.902 84.1215L136.909 84.1979L136.916 84.2973L136.922 84.3967L136.929 84.4961L136.935 84.5875L136.942 84.6324L136.948 84.7319L136.954 84.8313L136.961 84.9307L136.967 85.0302L136.973 85.0906L136.98 85.1666L136.986 85.2661L136.992 85.3656L136.998 85.465L137.004 85.557L137.01 85.6015L137.016 85.701L137.022 85.8005L137.028 85.9L137.034 85.9995L137.04 86.0605L137.046 86.1361L137.052 86.2356L137.057 86.3352L137.063 86.4347L137.069 86.5271L137.074 86.5713L137.08 86.6709L137.085 86.7705L137.091 86.87L137.096 86.9696L137.102 87.031L137.107 87.1063L137.113 87.2059L137.118 87.3055L137.123 87.4051L137.129 87.498L137.134 87.5419L137.139 87.6415L137.144 87.7411L137.149 87.8407L137.154 87.9404L137.159 88.0022L137.164 88.0772L137.169 88.1768L137.174 88.2765L137.179 88.3761L137.184 88.4695L137.189 88.513L137.194 88.6127L137.199 88.7123L137.203 88.812L137.208 88.9117L137.213 88.9741L137.217 89.0486L137.222 89.1483L137.226 89.248L137.231 89.3478L137.235 89.4416L137.24 89.4847L137.244 89.5844L137.248 89.6842L137.253 89.7839L137.257 89.8836L137.261 89.9464L137.265 90.0206L137.269 90.1204L137.274 90.2201L137.278 90.3199L137.282 90.4142L137.286 90.4569L137.29 90.5567L137.294 90.6565L137.297 90.7563L137.301 90.8561L137.305 90.9193L137.309 90.9932L137.313 91.0929L137.316 91.1927L137.32 91.2926L137.324 91.3873L137.327 91.4297L137.331 91.5295L137.334 91.6293L137.338 91.7291L137.341 91.829L137.345 91.8926L137.348 91.9661L137.351 92.0659L137.355 92.1658L137.358 92.2656L137.361 92.3608L137.364 92.4028L137.367 92.5027L137.371 92.6025L137.374 92.7024L137.377 92.8023L137.38 92.8664L137.383 92.9395L137.386 93.0394L137.389 93.1392L137.391 93.2391L137.394 93.3347L137.397 93.3764L137.4 93.4762L137.402 93.5761L137.405 93.676L137.408 93.7759L137.41 93.8405L137.413 93.9132L137.415 94.0131L137.418 94.113L137.42 94.2129L137.423 94.3089L137.425 94.3503L137.427 94.4501L137.43 94.5501L137.432 94.65L137.434 94.7499L137.436 94.8149L137.439 94.8872L137.441 94.9872L137.443 95.0871L137.445 95.187L137.447 95.2835L137.449 95.3244L137.451 95.4243L137.453 95.5243L137.454 95.6242L137.456 95.7241L137.458 95.7896L137.46 95.8615L137.461 95.9615L137.463 96.0614L137.465 96.1614L137.466 96.2583L137.468 96.2988L137.469 96.3987L137.471 96.4987L137.472 96.5986L137.474 96.6986L137.475 96.7645L137.476 96.836L137.478 96.936L137.479 97.036L137.48 97.1359L137.481 97.2332L137.483 97.2734L137.484 97.3733L137.485 97.4733L137.486 97.5733L137.487 97.6732L137.488 97.7395L137.489 97.8107L137.49 97.9107L137.49 98.0106L137.491 98.1106L137.492 98.2083L137.493 98.2481L137.493 98.348L137.494 98.448L137.495 98.548L137.495 98.648L137.496 98.7147L137.496 98.7854L137.497 98.8854L137.497 98.9854L137.498 99.0854L137.498 99.1835L137.499 99.2228L137.499 99.3228L137.499 99.4228L137.499 99.5228L137.5 99.6228L137.5 99.6899L137.5 99.7602L137.5 99.8602L137.5 99.9602L137.5 100.06L137.5 100.159L137.5 100.198L137.5 100.298L137.5 100.398L137.499 100.498L137.499 100.598L137.499 100.665L137.499 100.735L137.498 100.835L137.498 100.935L137.498 101.035L137.497 101.134L137.497 101.172L137.496 101.272L137.496 101.372L137.495 101.472L137.494 101.572L137.494 101.64L137.493 101.71L137.492 101.81L137.492 101.91L137.491 102.01L137.49 102.109L137.489 102.147L137.488 102.247L137.487 102.347L137.486 102.447L137.485 102.547L137.484 102.615L137.483 102.685L137.482 102.785L137.481 102.885L137.48 102.984L137.478 103.084L137.477 103.122L137.476 103.222L137.474 103.322L137.473 103.422L137.472 103.522L137.47 103.59L137.469 103.659L137.467 103.759L137.466 103.859L137.464 103.959L137.462 104.059L137.461 104.097L137.459 104.196L137.457 104.296L137.455 104.396L137.453 104.496L137.452 104.565L137.45 104.634L137.448 104.733L137.446 104.833L137.444 104.933L137.442 105.033L137.44 105.071L137.437 105.171L137.435 105.271L137.433 105.37L137.431 105.47L137.429 105.54L137.426 105.608L137.424 105.708L137.421 105.808L137.419 105.907L137.417 106.007L137.414 106.046L137.412 106.145L137.409 106.245L137.406 106.344L137.404 106.444L137.401 106.514L137.398 106.582L137.396 106.681L137.393 106.781L137.39 106.881L137.387 106.981L137.384 107.02L137.381 107.118L137.378 107.218L137.375 107.318L137.372 107.418L137.369 107.488L137.366 107.555L137.363 107.655L137.36 107.755L137.356 107.855L137.353 107.955L137.35 107.994L137.346 108.092L137.343 108.192L137.34 108.291L137.336 108.391L137.333 108.462L137.329 108.528L137.325 108.628L137.322 108.728L137.318 108.828L137.314 108.928L137.311 108.967L137.307 109.065L137.303 109.164L137.299 109.264L137.296 109.364L137.292 109.435L137.288 109.501L137.284 109.601L137.28 109.701L137.276 109.8L137.271 109.9L137.267 109.94L137.263 110.037L137.259 110.137L137.255 110.237L137.25 110.336L137.246 110.408L137.242 110.473L137.237 110.573L137.233 110.673L137.228 110.773L137.224 110.872L137.219 110.912L137.215 111.009L137.21 111.109L137.206 111.209L137.201 111.308L137.196 111.38L137.191 111.445L137.187 111.545L137.182 111.644L137.177 111.744L137.172 111.844L137.167 111.884L137.162 111.981L137.157 112.08L137.152 112.18L137.147 112.28L137.142 112.352L137.136 112.416L137.131 112.516L137.126 112.615L137.121 112.715L137.115 112.815L137.11 112.856L137.105 112.951L137.099 113.051L137.094 113.151L137.088 113.25L137.083 113.323L137.077 113.387L137.071 113.486L137.066 113.586L137.06 113.685L137.054 113.785L137.049 113.826L137.043 113.922L137.037 114.021L137.031 114.121L137.025 114.22L137.019 114.293L137.013 114.357L137.007 114.456L137.001 114.556L136.995 114.655L136.989 114.755L136.983 114.796L136.977 114.891L136.97 114.991L136.964 115.09L136.958 115.189L136.951 115.263L136.945 115.326L136.938 115.425L136.932 115.525L136.925 115.624L136.919 115.723L136.912 115.765L136.906 115.86L136.899 115.959L136.892 116.059L136.886 116.158L136.879 116.231L136.872 116.294L136.865 116.393L136.858 116.493L136.851 116.592L136.844 116.691L136.837 116.734L136.83 116.828L136.823 116.927L136.816 117.026L136.809 117.126L136.802 117.199L136.795 117.262L136.787 117.361L136.78 117.46L136.773 117.559L136.765 117.659L136.758 117.701L136.751 117.795L136.743 117.894L136.736 117.993L136.728 118.092L136.721 118.166L136.713 118.228L136.705 118.327L136.698 118.427L136.69 118.526L136.682 118.625L136.674 118.668L136.666 118.761L136.659 118.86L136.651 118.959L136.643 119.058L136.635 119.133L136.627 119.194L136.619 119.293L136.61 119.392L136.602 119.491L136.594 119.59L136.586 119.634L136.578 119.726L136.569 119.825L136.561 119.924L136.553 120.023L136.544 120.098L136.536 120.159L136.527 120.258L136.519 120.357L136.51 120.456L136.502 120.555L136.493 120.598L136.485 120.69L136.476 120.789L136.467 120.888L136.458 120.987L136.45 121.062L136.441 121.122L136.432 121.221L136.423 121.32L136.414 121.419L136.405 121.518L136.396 121.562L136.387 121.653L136.378 121.752L136.369 121.851L136.36 121.95L136.35 122.025L136.341 122.085L136.332 122.184L136.323 122.283L136.313 122.381L136.304 122.48L136.294 122.525L136.285 122.615L136.275 122.714L136.266 122.813L136.256 122.912L136.247 122.987L136.237 123.047L136.227 123.145L136.218 123.244L136.208 123.343L136.198 123.441L136.188 123.486L136.178 123.576L136.169 123.675L136.159 123.773L136.149 123.872L136.139 123.948L136.129 124.007L136.119 124.105L136.108 124.204L136.098 124.303L136.088 124.401L136.078 124.446L136.068 124.536L136.057 124.634L136.047 124.733L136.037 124.831L136.026 124.908L136.016 124.966L136.005 125.064L135.995 125.163L135.984 125.261L135.974 125.36L135.963 125.405L135.952 125.494L135.942 125.593L135.931 125.691L135.92 125.789L135.909 125.866L135.899 125.924L135.888 126.022L135.877 126.12L135.866 126.219L135.855 126.317L135.844 126.363L135.833 126.451L135.822 126.55L135.811 126.648L135.799 126.746L135.788 126.823L135.777 126.88L135.766 126.979L135.754 127.077L135.743 127.175L135.732 127.273L135.72 127.319L135.709 127.407L135.697 127.505L135.686 127.603L135.674 127.702L135.663 127.779L135.651 127.835L135.639 127.933L135.628 128.032L135.616 128.13L135.604 128.228L135.592 128.274L135.58 128.361L135.568 128.459L135.557 128.558L135.545 128.656L135.533 128.733L135.521 128.789L135.509 128.887L135.496 128.985L135.484 129.083L135.472 129.181L135.46 129.227L135.448 129.314L135.435 129.412L135.423 129.51L135.411 129.608L135.398 129.686L135.386 129.741L135.373 129.839L135.361 129.937L135.348 130.035L135.336 130.133L135.323 130.179L135.311 130.266L135.298 130.364L135.285 130.461L135.273 130.559L135.26 130.637L135.247 130.692L135.234 130.79L135.221 130.887L135.208 130.985L135.195 131.083L135.182 131.13L135.169 131.216L135.156 131.313L135.143 131.411L135.13 131.508L135.117 131.587L135.104 131.641L135.09 131.739L135.077 131.836L135.064 131.934L135.051 132.031L135.037 132.078L135.024 132.164L135.01 132.261L134.997 132.359L134.983 132.456L134.97 132.535L134.956 132.589L134.943 132.686L134.929 132.784L134.915 132.881L134.901 132.978L134.888 133.026L134.874 133.111L134.86 133.208L134.846 133.305L134.832 133.402L134.818 133.481L134.804 133.535L134.79 133.632L134.776 133.729L134.762 133.826L134.748 133.924L134.734 133.971L134.72 134.055L134.706 134.153L134.691 134.25L134.677 134.347L134.663 134.426L134.648 134.479L134.634 134.576L134.619 134.673L134.605 134.77L134.59 134.867L134.576 134.915L134.561 134.999L134.547 135.096L134.532 135.193L134.518 135.29L134.503 135.369L134.488 135.421L134.473 135.518L134.458 135.615L134.444 135.712L134.429 135.809L134.414 135.857L134.399 135.94L134.384 136.037L134.369 136.134L134.354 136.231L134.339 136.31L134.324 136.362L134.308 136.459L134.293 136.555L134.278 136.652L134.263 136.749L134.247 136.797L134.232 136.88L134.217 136.976L134.201 137.073L134.186 137.17L134.17 137.249L134.155 137.301L134.139 137.397L134.124 137.494L134.108 137.59L134.093 137.687L134.077 137.736L134.061 137.818L134.046 137.914L134.03 138.011L134.014 138.107L133.998 138.187L133.982 138.237L133.966 138.334L133.95 138.43L133.934 138.527L133.918 138.623L133.902 138.672L133.886 138.753L133.87 138.85L133.854 138.946L133.838 139.042L133.822 139.123L133.805 139.172L133.789 139.269L133.773 139.365L133.756 139.461L133.74 139.557L133.724 139.606L133.707 139.687L133.691 139.783L133.674 139.88L133.658 139.976L133.641 140.056L133.624 140.105L133.608 140.202L133.591 140.298L133.574 140.394L133.557 140.49L133.541 140.539L133.524 140.619L133.507 140.715L133.49 140.811L133.473 140.907L133.456 140.988L133.439 141.036L133.422 141.132L133.405 141.228L133.388 141.324L133.371 141.42L133.354 141.469L133.337 141.549L133.319 141.645L133.302 141.741L133.285 141.836L133.267 141.917L133.25 141.965L133.233 142.061L133.215 142.157L133.198 142.252L133.18 142.348L133.163 142.398L133.145 142.477L133.128 142.572L133.11 142.668L133.092 142.764L133.075 142.845L133.057 142.892L133.039 142.988L133.021 143.083L133.003 143.179L132.986 143.274L132.968 143.324L132.95 143.402L132.932 143.498L132.914 143.593L132.896 143.689L132.878 143.77L132.86 143.817L132.842 143.912L132.823 144.007L132.805 144.103L132.787 144.198L132.769 144.248L132.75 144.326L132.732 144.421L132.714 144.516L132.695 144.611L132.677 144.693L132.659 144.739L132.64 144.834L132.622 144.929L132.603 145.024L132.584 145.12L132.566 145.17L132.547 145.247L132.528 145.342L132.51 145.437L132.491 145.532L132.472 145.614L132.453 145.659L132.435 145.754L132.416 145.849L132.397 145.944L132.378 146.039L132.359 146.089L132.34 146.166L132.321 146.261L132.302 146.356L132.283 146.45L132.264 146.532L132.244 146.577L132.225 146.672L132.206 146.767L132.187 146.861L132.167 146.956L132.148 147.007L132.129 147.083L132.109 147.177L132.09 147.272L132.07 147.366L132.051 147.448L132.031 147.493L132.012 147.587L131.992 147.682L131.973 147.776L131.953 147.871L131.933 147.922L131.914 147.997L131.894 148.091L131.874 148.186L131.854 148.28L131.835 148.362L131.815 148.406L131.795 148.5L131.775 148.595L131.755 148.689L131.735 148.783L131.715 148.834L131.695 148.909L131.675 149.003L131.655 149.097L131.634 149.191L131.614 149.274L131.594 149.317L131.574 149.411L131.553 149.505L131.533 149.599L131.513 149.693L131.492 149.744L131.472 149.819L131.452 149.912L131.431 150.006L131.411 150.1L131.39 150.183L131.37 150.225L131.349 150.319L131.328 150.413L131.308 150.507L131.287 150.601L131.266 150.652L131.245 150.726L131.225 150.819L131.204 150.913L131.183 151.007L131.162 151.089L131.141 151.131L131.12 151.225L131.099 151.318L131.078 151.412L131.057 151.506L131.036 151.557L131.015 151.63L130.994 151.724L130.973 151.817L130.952 151.91L130.93 151.993L130.909 152.035L130.888 152.128L130.867 152.221L130.845 152.315L130.824 152.408L130.803 152.46L130.781 152.532L130.76 152.625L130.738 152.719L130.717 152.812L130.695 152.895L130.673 152.936L130.652 153.029L130.63 153.122L130.609 153.215L130.587 153.308L130.565 153.36L130.543 153.431L130.522 153.524L130.5 153.617L130.478 153.71L130.456 153.794L130.434 153.834L130.412 153.927L130.39 154.02L130.368 154.112L130.346 154.205L130.324 154.257L130.302 154.328L130.28 154.421L130.258 154.514L130.235 154.606L130.213 154.69L130.191 154.729L130.169 154.822L130.146 154.915L130.124 155.007L130.102 155.1L130.079 155.152L130.057 155.222L130.034 155.315L130.012 155.407L129.989 155.5L129.967 155.583L129.944 155.622L129.922 155.715L129.899 155.807L129.876 155.899L129.854 155.992L129.831 156.044L129.808 156.114L129.785 156.206L129.762 156.298L129.74 156.39L129.717 156.474L129.694 156.512L129.671 156.605L129.648 156.697L129.625 156.789L129.602 156.881L129.579 156.933L129.556 157.002L129.533 157.094L129.51 157.186L129.486 157.278L129.463 157.362L129.44 157.4L129.417 157.492L129.393 157.584L129.37 157.675L129.347 157.767L129.323 157.82L129.3 157.888L129.277 157.98L129.253 158.072L129.23 158.163L129.206 158.248L129.182 158.284L129.159 158.376L129.135 158.468L129.112 158.559L129.088 158.651L129.064 158.704L129.041 158.771L129.017 158.863L128.993 158.954L128.969 159.046L128.945 159.13L128.922 159.166L128.898 159.257L128.874 159.349L128.85 159.44L128.826 159.531L128.802 159.585L128.778 159.652L128.754 159.743L128.73 159.834L128.705 159.925L128.681 160.01L128.657 160.045L128.633 160.136L128.609 160.227L128.584 160.318L128.56 160.409L128.536 160.463L128.511 160.529L128.487 160.62L128.463 160.711L128.438 160.802L128.414 160.886L128.389 160.921L128.365 161.012L128.34 161.103L128.315 161.193L128.291 161.284L128.266 161.338L128.242 161.403L128.217 161.494L128.192 161.585L128.167 161.675L128.143 161.76L128.118 161.794L128.093 161.885L128.068 161.975L128.043 162.066L128.018 162.156L127.993 162.21L127.968 162.275L127.943 162.365L127.918 162.455L127.893 162.546L127.868 162.631L127.843 162.664L127.818 162.754L127.793 162.845L127.768 162.935L127.742 163.025L127.717 163.079L127.692 163.143L127.667 163.233L127.641 163.323L127.616 163.413L127.59 163.498L127.565 163.531L127.54 163.621L127.514 163.711L127.489 163.801L127.463 163.891L127.438 163.945L127.412 164.008L127.386 164.098L127.361 164.188L127.335 164.278L127.309 164.363L127.284 164.395L127.258 164.485L127.232 164.574L127.206 164.664L127.181 164.754L127.155 164.808L127.129 164.871L127.103 164.96L127.077 165.05L127.051 165.139L127.025 165.225L126.999 165.256L126.973 165.345L126.947 165.435L126.921 165.524L126.895 165.614L126.869 165.668L126.842 165.73L126.816 165.819L126.79 165.908L126.764 165.998L126.738 166.083L126.711 166.114L126.685 166.203L126.659 166.292L126.632 166.381L126.606 166.47L126.579 166.524L126.553 166.586L126.526 166.675L126.5 166.764L126.473 166.853L126.447 166.938L126.42 166.968L126.393 167.057L126.367 167.146L126.34 167.235L126.313 167.324L126.287 167.378L126.26 167.439L126.233 167.527L126.206 167.616L126.18 167.705L126.153 167.79L126.126 167.82L126.099 167.908L126.072 167.997L126.045 168.085L126.018 168.174L125.991 168.228L125.964 168.288L125.937 168.377L125.91 168.465L125.883 168.553L125.856 168.639L125.828 168.668L125.801 168.756L125.774 168.844L125.747 168.933L125.72 169.021L125.692 169.075L125.665 169.135L125.638 169.223L125.61 169.311L125.583 169.399L125.555 169.485L125.528 169.513L125.5 169.601L125.473 169.689L125.445 169.777L125.418 169.864L125.39 169.919L125.363 169.978L125.335 170.066L125.307 170.153L125.28 170.241L125.252 170.327L125.224 170.354L125.197 170.442L125.169 170.53L125.141 170.617L125.113 170.705L125.085 170.759L125.057 170.817L125.03 170.905L125.002 170.992L124.974 171.08L124.946 171.166L124.918 171.192L124.89 171.28L124.862 171.367L124.834 171.454L124.805 171.542L124.777 171.597L124.749 171.654L124.721 171.741L124.693 171.828L124.665 171.915L124.636 172.002L124.608 172.027L124.58 172.114L124.551 172.201L124.523 172.288L124.495 172.375L124.466 172.43L124.438 172.487L124.41 172.574L124.381 172.661L124.353 172.748L124.324 172.834L124.296 172.859L124.267 172.945L124.238 173.032L124.21 173.119L124.181 173.206L124.152 173.261L124.124 173.316L124.095 173.403L124.066 173.49L124.038 173.576L124.009 173.663L123.98 173.687L123.951 173.773L123.922 173.86L123.893 173.946L123.865 174.032L123.836 174.088L123.807 174.143L123.778 174.229L123.749 174.315L123.72 174.401L123.691 174.488L123.662 174.512L123.633 174.597L123.603 174.684L123.574 174.77L123.545 174.856L123.516 174.911L123.487 174.965L123.458 175.051L123.428 175.137L123.399 175.223L123.37 175.309L123.34 175.333L123.311 175.418L123.282 175.504L123.252 175.59L123.223 175.676L123.193 175.731L123.164 175.784L123.134 175.87L123.105 175.956L123.075 176.041L123.046 176.127L123.016 176.151L122.987 176.235L122.957 176.321L122.927 176.406L122.898 176.492L122.868 176.547L122.838 176.6L122.809 176.685L122.779 176.771L122.749 176.856L122.719 176.941L122.69 176.965L122.66 177.049L122.63 177.134L122.6 177.219L122.57 177.304L122.54 177.36L122.51 177.412L122.48 177.497L122.45 177.582L122.42 177.667L122.39 177.752L122.36 177.776L122.33 177.859L122.3 177.944L122.27 178.029L122.239 178.113L122.209 178.169L122.179 178.22L122.149 178.305L122.119 178.39L122.088 178.474L122.058 178.559L122.028 178.583L121.997 178.666L121.967 178.75L121.937 178.834L121.906 178.919L121.876 178.975L121.845 179.025L121.815 179.11L121.784 179.194L121.754 179.278L121.723 179.362L121.693 179.387L121.662 179.468L121.632 179.552L121.601 179.637L121.57 179.721L121.54 179.776L121.509 179.826L121.478 179.91L121.448 179.994L121.417 180.078L121.386 180.162L121.355 180.187L121.324 180.267L121.294 180.351L121.263 180.435L121.232 180.519L121.201 180.574L121.17 180.624L121.139 180.707L121.108 180.791L121.077 180.875L121.046 180.958L121.015 180.983L120.984 181.063L120.953 181.146L120.922 181.23L120.891 181.313L120.86 181.369L120.829 181.417L120.797 181.501L120.766 181.584L120.735 181.667L120.704 181.75L120.672 181.775L120.641 181.854L120.61 181.937L120.579 182.021L120.547 182.104L120.516 182.159L120.484 182.207L120.453 182.29L120.422 182.373L120.39 182.456L120.359 182.539L120.327 182.564L120.296 182.642L120.264 182.725L120.233 182.808L120.201 182.89L120.17 182.946L120.138 182.993L120.106 183.076L120.075 183.158L120.043 183.241L120.011 183.324L119.98 183.348L119.948 183.426L119.916 183.509L119.884 183.591L119.853 183.673L119.821 183.729L119.789 183.776L119.757 183.858L119.725 183.94L119.693 184.022L119.662 184.104L119.63 184.129L119.598 184.206L119.566 184.288L119.534 184.37L119.502 184.452L119.47 184.509L119.438 184.554L119.406 184.636L119.374 184.718L119.341 184.8L119.309 184.881L119.277 184.906L119.245 184.983L119.213 185.064L119.181 185.146L119.148 185.228L119.116 185.284L119.084 185.328L119.052 185.41L119.019 185.492L118.987 185.573L118.955 185.655L118.922 185.679L118.89 185.755L118.858 185.836L118.825 185.918L118.793 185.999L118.76 186.055L118.728 186.099L118.696 186.18L118.663 186.262L118.631 186.343L118.598 186.424L118.565 186.449L118.533 186.523L118.5 186.605L118.468 186.686L118.435 186.766L118.402 186.823L118.37 186.866L118.337 186.947L118.304 187.028L118.272 187.108L118.239 187.189L118.206 187.214L118.173 187.288L118.141 187.369L118.108 187.449L118.075 187.53L118.042 187.586L118.009 187.629L117.976 187.709L117.943 187.79L117.911 187.87L117.878 187.95L117.845 187.975L117.812 188.049L117.779 188.129L117.746 188.209L117.713 188.289L117.68 188.346L117.647 188.387L117.613 188.467L117.58 188.548L117.547 188.628L117.514 188.708L117.481 188.733L117.448 188.805L117.415 188.885L117.381 188.965L117.348 189.045L117.315 189.101L117.282 189.142L117.248 189.222L117.215 189.302L117.182 189.381L117.149 189.461L117.115 189.486L117.082 189.558L117.048 189.637L117.015 189.717L116.982 189.796L116.948 189.853L116.915 189.893L116.881 189.972L116.848 190.052L116.814 190.131L116.781 190.21L116.747 190.235L116.714 190.306L116.68 190.385L116.647 190.465L116.613 190.544L116.579 190.6L116.546 190.639L116.512 190.718L116.478 190.797L116.445 190.876L116.411 190.955L116.377 190.981L116.344 191.051L116.31 191.129L116.276 191.208L116.242 191.287L116.209 191.344L116.175 191.382L116.141 191.461L116.107 191.539L116.073 191.618L116.039 191.696L116.005 191.722L115.972 191.791L115.938 191.869L115.904 191.948L115.87 192.026L115.836 192.083L115.802 192.12L115.768 192.199L115.734 192.277L115.7 192.355L115.666 192.433L115.632 192.459L115.598 192.527L115.563 192.605L115.529 192.683L115.495 192.761L115.461 192.818L115.427 192.855L115.393 192.933L115.359 193.011L115.324 193.088L115.29 193.166L115.256 193.191L115.222 193.259L115.187 193.337L115.153 193.415L115.119 193.492L115.084 193.549L115.05 193.585L115.016 193.662L114.981 193.74L114.947 193.817L114.913 193.895L114.878 193.92L114.844 193.987L114.809 194.064L114.775 194.142L114.741 194.219L114.706 194.276L114.672 194.311L114.637 194.388L114.603 194.465L114.568 194.542L114.533 194.619L114.499 194.645L114.464 194.711L114.43 194.788L114.395 194.865L114.36 194.942L114.326 194.998L114.291 195.033L114.256 195.109L114.222 195.186L114.187 195.263L114.152 195.34L114.118 195.365L114.083 195.43L114.048 195.507L114.013 195.583L113.979 195.66L113.944 195.717L113.909 195.75L113.874 195.827L113.839 195.903L113.805 195.979L113.77 196.056L113.735 196.081L113.7 196.146L113.665 196.222L113.63 196.298L113.595 196.374L113.56 196.431L113.525 196.464L113.49 196.54L113.455 196.616L113.42 196.692L113.385 196.767L113.35 196.793L113.315 196.857L113.28 196.932L113.245 197.008L113.21 197.084L113.175 197.141L113.14 197.173L113.105 197.248L113.069 197.324L113.034 197.399L112.999 197.475L112.964 197.5L112.929 197.563L112.894 197.639L112.858 197.714L112.784 197.75L112.688 197.763L112.651 197.776L112.553 197.788L112.455 197.801L112.358 197.813L112.26 197.826L112.195 197.838L112.127 197.85L112.029 197.862L111.931 197.874L111.833 197.886L111.737 197.898L111.7 197.91L111.602 197.922L111.504 197.934L111.406 197.945L111.308 197.956L111.243 197.968L111.175 197.98L111.077 197.991L110.979 198.002L110.881 198.013L110.784 198.024L110.747 198.036L110.649 198.047L110.551 198.057L110.453 198.068L110.355 198.078L110.289 198.089L110.222 198.1L110.124 198.11L110.026 198.12L109.927 198.13L109.83 198.14L109.794 198.152L109.696 198.162L109.597 198.171L109.499 198.181L109.401 198.19L109.334 198.201L109.267 198.211L109.169 198.22L109.071 198.23L108.973 198.239L108.874 198.248L108.839 198.259L108.74 198.268L108.642 198.276L108.544 198.285L108.446 198.293L108.378 198.303L108.311 198.313L108.213 198.321L108.115 198.329L108.016 198.337L107.918 198.345L107.882 198.356L107.784 198.364L107.686 198.372L107.587 198.38L107.489 198.387L107.421 198.396L107.355 198.405L107.256 198.412L107.158 198.42L107.059 198.427L106.961 198.434L106.924 198.444L106.826 198.451L106.728 198.458L106.63 198.465L106.531 198.471L106.463 198.48L106.397 198.488L106.298 198.494L106.2 198.501L106.101 198.507L106.003 198.513L105.965 198.523L105.868 198.529L105.77 198.535L105.671 198.541L105.572 198.546L105.504 198.554L105.438 198.562L105.339 198.567L105.241 198.572L105.142 198.578L105.044 198.583L105.006 198.592L104.909 198.597L104.81 198.602L104.712 198.607L104.613 198.612L104.544 198.619L104.478 198.626L104.379 198.63L104.281 198.634L104.182 198.639L104.084 198.643L104.045 198.652L103.949 198.656L103.85 198.66L103.751 198.664L103.653 198.668L103.583 198.674L103.518 198.68L103.419 198.684L103.32 198.687L103.222 198.691L103.123 198.694L103.084 198.702L102.988 198.706L102.889 198.709L102.79 198.711L102.692 198.714L102.621 198.72L102.556 198.726L102.458 198.728L102.359 198.73L102.26 198.733L102.162 198.735L102.122 198.743L102.026 198.746L101.928 198.748L101.829 198.75L101.73 198.751L101.659 198.756L101.595 198.761L101.496 198.763L101.397 198.764L101.299 198.766L101.2 198.767L101.16 198.775L101.064 198.776L100.966 198.777L100.867 198.778L100.768 198.779L100.697 198.783L100.633 198.788L100.534 198.788L100.435 198.789L100.336 198.789L100.238 198.789L100.197 198.797L100.102 198.797L100.003 198.797L99.9045 198.797L99.8057 198.797L99.7341 198.8L99.6702 198.804L99.5714 198.804L99.4726 198.804L99.3738 198.803L99.275 198.802L99.2342 198.809L99.1394 198.809L99.0406 198.808L98.9418 198.807L98.843 198.806L98.771 198.808L98.7074 198.812L98.6086 198.81L98.5098 198.809L98.411 198.807L98.3122 198.806L98.2709 198.812L98.1765 198.811L98.0777 198.809L97.9789 198.807L97.8801 198.805L97.8077 198.807L97.7444 198.809L97.6456 198.807L97.5468 198.805L97.448 198.802L97.3492 198.8L97.3075 198.805L97.2135 198.803L97.1147 198.801L97.0159 198.798L96.9171 198.795L96.8442 198.796L96.7814 198.798L96.6826 198.795L96.5838 198.791L96.485 198.788L96.3863 198.784L96.344 198.789L96.2505 198.787L96.1517 198.783L96.0529 198.779L95.9542 198.775L95.8808 198.775L95.8183 198.777L95.7196 198.772L95.6208 198.768L95.5221 198.764L95.4233 198.759L95.3806 198.764L95.2875 198.76L95.1887 198.755L95.09 198.751L94.9912 198.746L94.9175 198.745L94.8554 198.746L94.7567 198.741L94.658 198.735L94.5592 198.73L94.4605 198.725L94.4174 198.729L94.3247 198.724L94.226 198.718L94.1273 198.713L94.0286 198.707L93.9544 198.705L93.8927 198.706L93.794 198.7L93.6953 198.693L93.5966 198.687L93.498 198.681L93.4544 198.684L93.3621 198.679L93.2634 198.672L93.1648 198.665L93.0661 198.658L92.9916 198.656L92.9303 198.656L92.8316 198.649L92.733 198.642L92.6344 198.634L92.5358 198.627L92.4917 198.63L92.3999 198.624L92.3013 198.616L92.2027 198.609L92.1041 198.601L92.0292 198.597L91.9682 198.597L91.8697 198.589L91.7711 198.581L91.6725 198.572L91.574 198.564L91.5295 198.566L91.4381 198.559L91.3396 198.551L91.2411 198.542L91.1425 198.533L91.0673 198.529L91.0067 198.528L90.9082 198.519L90.8097 198.51L90.7112 198.501L90.6127 198.491L90.5678 198.493L90.4769 198.486L90.3785 198.476L90.28 198.466L90.1816 198.457L90.1059 198.452L90.0458 198.45L89.9473 198.44L89.8489 198.43L89.7505 198.42L89.6521 198.409L89.6068 198.411L89.5163 198.402L89.418 198.392L89.3196 198.381L89.2212 198.37L89.1452 198.365L89.0855 198.362L88.9872 198.351L88.8888 198.34L88.7905 198.329L88.6922 198.318L88.6465 198.319L88.5565 198.309L88.4582 198.298L88.36 198.286L88.2617 198.275L88.1853 198.268L88.126 198.265L88.0278 198.253L87.9296 198.241L87.8313 198.229L87.7331 198.217L87.687 198.217L87.5975 198.207L87.4993 198.195L87.4011 198.182L87.303 198.17L87.2263 198.162L87.1674 198.159L87.0693 198.146L86.9712 198.133L86.873 198.12L86.775 198.107L86.7284 198.106L86.6394 198.095L86.5414 198.082L86.4433 198.068L86.3453 198.055L86.2682 198.047L86.2098 198.043L86.1118 198.029L86.0138 198.015L85.9158 198.001L85.8178 197.987L85.7709 197.986L85.6824 197.974L85.5844 197.96L85.4865 197.945L85.3886 197.931L85.3112 197.922L85.2532 197.918L85.1553 197.903L85.0574 197.888L84.9596 197.873L84.8617 197.858L84.8144 197.856L84.7264 197.844L84.6286 197.828L84.5308 197.813L84.433 197.798L84.3554 197.787L84.2978 197.783L84.2 197.767L84.1023 197.751L84.0046 197.735L83.9069 197.719L83.8592 197.717L83.7717 197.704L83.674 197.688L83.5763 197.671L83.4787 197.655L83.4008 197.644L83.3436 197.639L83.246 197.622L83.1484 197.605L83.0508 197.588L82.9533 197.571L82.9052 197.569L82.8182 197.554L82.7207 197.537L82.6232 197.52L82.5257 197.503L82.4475 197.491L82.3907 197.485L82.2935 197.468L82.1961 197.45L82.0986 197.432L82.0012 197.414L81.9528 197.411L81.8664 197.396L81.769 197.378L81.6717 197.359L81.5743 197.341L81.4958 197.328L81.4395 197.322L81.3422 197.304L81.245 197.285L81.1477 197.266L81.0505 197.247L81.0017 197.243L80.9158 197.228L80.8186 197.209L80.7214 197.19L80.6243 197.17L80.5455 197.157L80.4897 197.15L80.3925 197.131L80.2954 197.111L80.1984 197.091L80.1013 197.072L80.0522 197.067L79.9668 197.051L79.8698 197.031L79.7728 197.01L79.6758 196.99L79.5968 196.976L79.5414 196.969L79.4445 196.948L79.3476 196.928L79.2507 196.907L79.1538 196.886L79.1044 196.881L79.0195 196.864L78.9227 196.843L78.8259 196.822L78.7291 196.801L78.6498 196.785L78.5949 196.778L78.4981 196.756L78.4014 196.735L78.3047 196.713L78.208 196.692L78.1582 196.686L78.0739 196.668L77.9773 196.646L77.8807 196.624L77.7841 196.602L77.7046 196.586L77.6501 196.578L77.5536 196.555L77.4571 196.533L77.3606 196.51L77.2641 196.488L77.214 196.481L77.1302 196.463L77.0338 196.44L76.9374 196.417L76.841 196.394L76.7613 196.377L76.7073 196.368L76.6109 196.345L76.5147 196.322L76.4184 196.298L76.3221 196.275L76.2717 196.267L76.1885 196.248L76.0923 196.224L75.9961 196.2L75.9 196.176L75.82 196.158L75.7664 196.15L75.6703 196.125L75.5743 196.101L75.4782 196.077L75.3822 196.052L75.3314 196.044L75.2488 196.024L75.1528 196L75.0569 195.975L74.9609 195.95L74.8807 195.931L74.8276 195.922L74.7318 195.896L74.6359 195.871L74.5401 195.846L74.4443 195.82L74.3932 195.812L74.3112 195.791L74.2154 195.766L74.1197 195.74L74.024 195.714L73.9436 195.694L73.8911 195.684L73.7954 195.658L73.6998 195.632L73.6042 195.606L73.5087 195.579L73.4573 195.57L73.3758 195.549L73.2803 195.522L73.1849 195.496L73.0894 195.469L73.0089 195.448L72.9567 195.438L72.8614 195.411L72.766 195.384L72.6707 195.356L72.5754 195.329L72.5238 195.319L72.4429 195.297L72.3476 195.27L72.2524 195.242L72.1572 195.214L72.0765 195.192L72.0248 195.182L71.9297 195.154L71.8346 195.126L71.7395 195.098L71.6444 195.07L71.5925 195.059L71.5122 195.036L71.4173 195.008L71.3223 194.979L71.2274 194.951L71.1464 194.928L71.0953 194.917L71.0004 194.888L70.9056 194.859L70.8108 194.83L70.716 194.801L70.6638 194.789L70.5841 194.766L70.4894 194.737L70.3947 194.707L70.3 194.678L70.2189 194.654L70.1683 194.643L70.0737 194.613L69.9791 194.583L69.8846 194.553L69.7901 194.523L69.7376 194.511L69.6585 194.487L69.5641 194.457L69.4697 194.426L69.3753 194.396L69.2941 194.371L69.2439 194.359L69.1497 194.329L69.0554 194.298L68.9611 194.267L68.8669 194.236L68.8142 194.223L68.7357 194.199L68.6416 194.167L68.5475 194.136L68.4534 194.105L68.3721 194.079L68.3223 194.067L68.2283 194.035L68.1343 194.003L68.0404 193.972L67.9465 193.94L67.8936 193.926L67.8157 193.901L67.7218 193.869L67.628 193.837L67.5342 193.804L67.4528 193.777L67.4036 193.765L67.3099 193.733L67.2162 193.7L67.1226 193.667L67.029 193.634L66.9758 193.62L66.8985 193.595L66.805 193.561L66.7115 193.528L66.618 193.495L66.5364 193.467L66.4877 193.454L66.3943 193.421L66.301 193.387L66.2077 193.354L66.1143 193.32L66.0609 193.305L65.9843 193.279L65.8911 193.245L65.7979 193.211L65.7047 193.176L65.6231 193.148L65.5748 193.135L65.4818 193.1L65.3887 193.066L65.2957 193.031L65.2028 192.996L65.1491 192.981L65.0731 192.954L64.9802 192.919L64.8873 192.884L64.7945 192.849L64.7128 192.819L64.665 192.806L64.5723 192.77L64.4796 192.735L64.3869 192.699L64.2943 192.664L64.2405 192.647L64.1651 192.62L64.0725 192.584L63.98 192.548L63.8875 192.512L63.8056 192.481L63.7584 192.468L63.666 192.432L63.5737 192.395L63.4814 192.359L63.3891 192.322L63.3351 192.305L63.2603 192.277L63.1681 192.24L63.0759 192.204L62.9838 192.167L62.9018 192.135L62.8551 192.121L62.7631 192.084L62.6711 192.047L62.5791 192.009L62.4871 191.972L62.4329 191.954L62.3588 191.925L62.2669 191.888L62.1751 191.85L62.0833 191.812L62.0014 191.779L61.9552 191.765L61.8635 191.727L61.7718 191.689L61.6802 191.651L61.5886 191.612L61.5342 191.593L61.4607 191.565L61.3692 191.526L61.2778 191.487L61.1863 191.448L61.1044 191.415L61.0587 191.4L60.9673 191.361L60.8761 191.322L60.7848 191.283L60.6936 191.244L60.639 191.224L60.5662 191.195L60.4751 191.155L60.384 191.116L60.2929 191.076L60.2109 191.041L60.1657 191.027L60.0748 190.987L59.9839 190.947L59.893 190.907L59.8022 190.867L59.7475 190.846L59.6753 190.816L59.5845 190.776L59.4938 190.735L59.4032 190.695L59.3211 190.659L59.2764 190.644L59.1859 190.603L59.0954 190.562L59.0049 190.521L58.9144 190.48L58.8596 190.459L58.788 190.429L58.6976 190.388L58.6073 190.346L58.517 190.305L58.435 190.268L58.3908 190.253L58.3007 190.211L58.2105 190.169L58.1204 190.127L58.0304 190.085L57.9754 190.064L57.9045 190.033L57.8145 189.991L57.7246 189.948L57.6347 189.906L57.5527 189.868L57.509 189.853L57.4193 189.81L57.3295 189.767L57.2399 189.725L57.1502 189.682L57.0951 189.659L57.0248 189.628L56.9353 189.585L56.8458 189.542L56.7563 189.498L56.6743 189.459L56.6312 189.444L56.5418 189.4L56.4524 189.357L56.3632 189.313L56.274 189.269L56.2187 189.246L56.1491 189.214L56.06 189.17L55.9709 189.126L55.8818 189.082L55.7998 189.042L55.7572 189.026L55.6683 188.982L55.5794 188.937L55.4905 188.893L55.4017 188.848L55.3464 188.824L55.2774 188.792L55.1887 188.747L55.1 188.702L55.0114 188.657L54.9295 188.616L54.8873 188.6L54.7988 188.555L54.7104 188.509L54.6219 188.464L54.5335 188.418L54.4781 188.394L54.4098 188.361L54.3216 188.315L54.2333 188.269L54.1451 188.223L54.0632 188.181L54.0216 188.165L53.9336 188.119L53.8456 188.073L53.7576 188.026L53.6696 187.98L53.6141 187.954L53.5464 187.921L53.4586 187.874L53.3708 187.828L53.2831 187.781L53.2012 187.738L53.1602 187.721L53.0725 187.674L52.985 187.627L52.8974 187.58L52.8099 187.533L52.7543 187.507L52.6874 187.473L52.5999 187.425L52.5126 187.378L52.4253 187.33L52.3435 187.286L52.303 187.269L52.2159 187.222L52.1287 187.174L52.0416 187.126L51.9546 187.078L51.8989 187.05L51.8326 187.016L51.7457 186.968L51.6588 186.92L51.572 186.871L51.4903 186.826L51.4503 186.809L51.3636 186.76L51.2769 186.712L51.1903 186.663L51.1037 186.614L51.0479 186.586L50.9823 186.551L50.8959 186.502L50.8095 186.453L50.7231 186.403L50.6416 186.357L50.602 186.34L50.5158 186.29L50.4296 186.241L50.3434 186.191L50.2573 186.142L50.2015 186.113L50.1366 186.077L50.0506 186.027L49.9647 185.977L49.8788 185.927L49.7974 185.88L49.7584 185.863L49.6726 185.812L49.5869 185.762L49.5012 185.711L49.4156 185.661L49.3597 185.631L49.2955 185.596L49.21 185.545L49.1245 185.494L49.0391 185.443L48.9578 185.395L48.9194 185.377L48.834 185.326L48.7488 185.275L48.6637 185.223L48.5785 185.172L48.5226 185.141L48.4591 185.105L48.3741 185.054L48.2891 185.002L48.2042 184.95L48.123 184.901L48.0851 184.883L48.0003 184.831L47.9156 184.779L47.8309 184.727L47.7463 184.675L47.6904 184.643L47.6275 184.607L47.543 184.554L47.4585 184.502L47.3741 184.449L47.2931 184.399L47.2557 184.381L47.1714 184.328L47.0871 184.275L47.0029 184.222L46.9188 184.169L46.8629 184.137L46.8008 184.1L46.7167 184.047L46.6327 183.993L46.5489 183.94L46.4679 183.889L46.4311 183.87L46.3473 183.817L46.2636 183.763L46.1799 183.709L46.0963 183.655L46.0404 183.622L45.9789 183.585L45.8954 183.531L45.812 183.477L45.7286 183.423L45.6479 183.37L45.6115 183.352L45.5282 183.297L45.445 183.243L45.3619 183.188L45.2788 183.133L45.2229 183.1L45.162 183.062L45.0791 183.007L44.9962 182.952L44.9133 182.897L44.8328 182.844L44.797 182.825L44.7142 182.77L44.6315 182.714L44.5489 182.659L44.4664 182.604L44.4105 182.569L44.3504 182.531L44.2679 182.475L44.1856 182.419L44.1032 182.364L44.0229 182.309L43.9876 182.29L43.9054 182.234L43.8232 182.178L43.7411 182.122L43.6591 182.066L43.6033 182.03L43.5439 181.992L43.462 181.935L43.3801 181.879L43.2983 181.822L43.2182 181.767L43.1834 181.748L43.1017 181.691L43.0202 181.634L42.9386 181.577L42.8571 181.52L42.8013 181.483L42.7426 181.445L42.6613 181.387L42.58 181.33L42.4988 181.272L42.4188 181.216L42.3845 181.197L42.3034 181.139L42.2224 181.082L42.1414 181.024L42.0605 180.966L42.0047 180.929L41.9467 180.89L41.8659 180.832L41.7851 180.773L41.7045 180.715L41.6248 180.658L41.591 180.639L41.5105 180.58L41.43 180.522L41.3495 180.463L41.2692 180.404L41.2135 180.366L41.1562 180.327L41.0759 180.268L40.9958 180.209L40.9156 180.15L40.8362 180.091L40.803 180.072L40.723 180.013L40.6431 179.954L40.5632 179.894L40.4834 179.835L40.4278 179.796L40.3712 179.756L40.2915 179.697L40.2119 179.637L40.1323 179.577L40.0532 179.517L40.0205 179.498L39.9411 179.438L39.8617 179.378L39.7824 179.318L39.7032 179.257L39.6476 179.218L39.5917 179.178L39.5126 179.118L39.4336 179.057L39.3546 178.996L39.2758 178.936L39.2436 178.916L39.1647 178.856L39.0859 178.795L39.0073 178.734L38.9286 178.673L38.8731 178.632L38.8179 178.592L38.7394 178.531L38.661 178.469L38.5826 178.408L38.5043 178.347L38.472 178.327L38.3941 178.265L38.3158 178.204L38.2377 178.142L38.1597 178.08L38.1043 178.039L38.0498 177.998L37.9719 177.936L37.894 177.874L37.8163 177.812L37.7385 177.75L37.7062 177.729L37.6291 177.667L37.5515 177.605L37.474 177.543L37.3965 177.48L37.3413 177.438L37.2875 177.397L37.2102 177.334L37.1329 177.272L37.0558 177.209L36.9786 177.146L36.9462 177.124L36.87 177.062L36.7931 176.999L36.7161 176.936L36.6393 176.872L36.5842 176.829L36.5311 176.788L36.4544 176.725L36.3777 176.661L36.3012 176.598L36.2246 176.534L36.1922 176.512L36.1169 176.449L36.0406 176.385L35.9642 176.321L35.888 176.257L35.833 176.214L35.7806 176.172L35.7045 176.108L35.6285 176.044L35.5525 175.979L35.4766 175.915L35.4441 175.892L35.3697 175.829L35.294 175.764L35.2182 175.7L35.1426 175.635L35.0878 175.59L35.0361 175.549L34.9606 175.484L34.8853 175.419L34.8099 175.353L34.7346 175.288L34.702 175.265L34.6286 175.202L34.5534 175.136L34.4783 175.071L34.4033 175.005L34.3487 174.96L34.2977 174.918L34.2228 174.852L34.1481 174.786L34.0733 174.72L33.9987 174.654L33.9661 174.631L33.8935 174.567L33.819 174.501L33.7446 174.434L33.6702 174.368L33.6157 174.322L33.5654 174.28L33.4913 174.213L33.4171 174.147L33.343 174.08L33.269 174.013L33.2364 173.989L33.1647 173.925L33.0908 173.858L33.0171 173.791L32.9433 173.724L32.889 173.677L32.8394 173.634L32.7659 173.567L32.6923 173.5L32.6189 173.433L32.5456 173.365L32.5129 173.34L32.4422 173.275L32.3689 173.208L32.2958 173.14L32.2227 173.072L32.1685 173.024L32.1197 172.982L32.0468 172.914L31.9739 172.846L31.9011 172.778L31.8284 172.71L31.7958 172.684L31.7259 172.619L31.6533 172.551L31.5809 172.482L31.5084 172.414L31.4545 172.365L31.4063 172.322L31.3341 172.254L31.2618 172.185L31.1897 172.116L31.1177 172.048L31.085 172.021L31.0161 171.956L30.9442 171.887L30.8723 171.817L30.8005 171.748L30.7468 171.699L30.6994 171.656L30.6278 171.587L30.5563 171.517L30.4848 171.448L30.4134 171.378L30.3808 171.351L30.3127 171.285L30.2415 171.216L30.1703 171.146L30.0992 171.076L30.0457 171.025L29.999 170.982L29.928 170.912L29.8572 170.842L29.7864 170.772L29.7156 170.702L29.683 170.674L29.6159 170.608L29.5454 170.538L29.4748 170.467L29.4045 170.397L29.3511 170.345L29.3051 170.302L29.2348 170.231L29.1647 170.161L29.0946 170.09L29.0245 170.019L28.9919 169.991L28.9257 169.924L28.8558 169.853L28.786 169.782L28.7163 169.71L28.6632 169.658L28.6179 169.615L28.5483 169.544L28.4788 169.472L28.4093 169.401L28.34 169.329L28.3074 169.3L28.2422 169.233L28.173 169.161L28.1039 169.089L28.0348 169.017L27.982 168.964L27.9373 168.921L27.8685 168.849L27.7997 168.777L27.7309 168.705L27.6623 168.632L27.6298 168.603L27.5654 168.535L27.4969 168.463L27.4285 168.39L27.3601 168.318L27.3076 168.264L27.2636 168.22L27.1955 168.148L27.1274 168.075L27.0593 168.002L26.9914 167.929L26.9589 167.899L26.8954 167.831L26.8276 167.758L26.7599 167.685L26.6922 167.612L26.64 167.557L26.5968 167.513L26.5293 167.44L26.4619 167.366L26.3945 167.293L26.3273 167.219L26.2949 167.188L26.2323 167.12L26.1652 167.047L26.0983 166.973L26.0313 166.899L25.9793 166.843L25.9368 166.799L25.87 166.725L25.8033 166.651L25.7367 166.577L25.6701 166.503L25.6378 166.471L25.5762 166.403L25.5098 166.329L25.4435 166.254L25.3773 166.179L25.3256 166.123L25.2838 166.079L25.2177 166.004L25.1517 165.93L25.0859 165.855L25.02 165.78L24.9877 165.748L24.927 165.679L24.8614 165.604L24.7958 165.529L24.7303 165.454L24.6789 165.397L24.6378 165.353L24.5724 165.277L24.5072 165.202L24.442 165.126L24.3769 165.051L24.3447 165.018L24.285 164.949L24.2201 164.873L24.1551 164.798L24.0904 164.722L24.0393 164.664L23.9989 164.62L23.9343 164.544L23.8698 164.467L23.8053 164.391L23.7409 164.315L23.7089 164.282L23.6501 164.213L23.5859 164.136L23.5217 164.06L23.4577 163.983L23.4069 163.924L23.3672 163.88L23.3033 163.804L23.2396 163.727L23.1758 163.65L23.1122 163.573L23.0803 163.539L23.0223 163.47L22.9588 163.393L22.8955 163.316L22.8322 163.239L22.7818 163.179L22.7427 163.135L22.6796 163.058L22.6166 162.98L22.5535 162.903L22.4907 162.825L22.4589 162.791L22.4019 162.721L22.3391 162.643L22.2765 162.566L22.2139 162.488L22.1638 162.428L22.1255 162.383L22.0632 162.305L22.0008 162.227L21.9386 162.149L21.8765 162.071L21.8448 162.036L21.7887 161.966L21.7267 161.888L21.6649 161.81L21.603 161.731L21.5534 161.67L21.5157 161.626L21.4541 161.547L21.3925 161.469L21.3311 161.39L21.2697 161.311L21.2382 161.275L21.1829 161.205L21.1218 161.126L21.0606 161.047L20.9996 160.969L20.9503 160.906L20.9133 160.862L20.8525 160.783L20.7917 160.704L20.731 160.625L20.6704 160.545L20.639 160.508L20.5846 160.438L20.5242 160.359L20.4639 160.279L20.4036 160.2L20.3547 160.137L20.3184 160.092L20.2583 160.013L20.1983 159.933L20.1384 159.853L20.0785 159.773L20.0473 159.736L19.9939 159.665L19.9342 159.585L19.8746 159.505L19.8151 159.425L19.7666 159.361L19.731 159.317L19.6717 159.237L19.6124 159.156L19.5533 159.076L19.4941 158.996L19.4631 158.957L19.4107 158.887L19.3518 158.806L19.2929 158.726L19.2343 158.645L19.1861 158.58L19.1512 158.536L19.0926 158.455L19.0342 158.374L18.9758 158.293L18.9175 158.212L18.8866 158.173L18.8351 158.102L18.777 158.021L18.7189 157.94L18.661 157.859L18.6133 157.793L18.579 157.749L18.5213 157.667L18.4636 157.586L18.406 157.504L18.3485 157.423L18.3178 157.383L18.2672 157.312L18.2098 157.231L18.1526 157.149L18.0955 157.067L18.0482 157.001L18.0146 156.956L17.9577 156.874L17.9008 156.792L17.8439 156.71L17.7873 156.628L17.7567 156.588L17.707 156.517L17.6505 156.435L17.594 156.352L17.5377 156.27L17.4908 156.203L17.4579 156.158L17.4018 156.076L17.3457 155.993L17.2896 155.911L17.2338 155.828L17.2035 155.787L17.1546 155.716L17.0989 155.633L17.0433 155.55L16.9877 155.467L16.9413 155.399L16.9091 155.355L16.8538 155.272L16.7985 155.188L16.7433 155.105L16.6882 155.022L16.6581 154.981L16.6102 154.909L16.5553 154.826L16.5004 154.742L16.4456 154.659L16.3998 154.59L16.3682 154.546L16.3137 154.462L16.2591 154.379L16.2048 154.295L16.1505 154.211L16.1206 154.169L16.0736 154.097L16.0195 154.013L15.9655 153.93L15.9115 153.846L15.8661 153.776L15.8353 153.731L15.7815 153.647L15.7278 153.563L15.6743 153.479L15.6207 153.395L15.5911 153.352L15.5451 153.28L15.4918 153.196L15.4385 153.111L15.3854 153.027L15.3405 152.956L15.3103 152.912L15.2573 152.827L15.2045 152.743L15.1517 152.658L15.099 152.573L15.0697 152.53L15.0245 152.458L14.9721 152.373L14.9196 152.288L14.8674 152.203L14.8229 152.132L14.7933 152.087L14.7412 152.002L14.6892 151.917L14.6373 151.832L14.5854 151.746L14.5563 151.702L14.5121 151.63L14.4604 151.545L14.4088 151.459L14.3574 151.374L14.3134 151.302L14.2845 151.258L14.2332 151.172L14.1821 151.086L14.1309 151L14.0799 150.915L14.0511 150.87L14.0077 150.798L13.9569 150.712L13.9062 150.626L13.8556 150.54L13.8121 150.467L13.7839 150.423L13.7335 150.337L13.6831 150.25L13.6328 150.164L13.5827 150.078L13.5541 150.032L13.5116 149.96L13.4616 149.874L13.4118 149.787L13.3619 149.701L13.319 149.627L13.2914 149.583L13.2419 149.496L13.1924 149.41L13.1429 149.323L13.0936 149.236L13.0653 149.19L13.0237 149.118L12.9746 149.031L12.9256 148.944L12.8766 148.857L12.8342 148.783L12.8073 148.738L12.7586 148.651L12.7099 148.564L12.6613 148.477L12.6128 148.39L12.5848 148.343L12.5442 148.271L12.4959 148.183L12.4477 148.096L12.3996 148.008L12.3577 147.933L12.3315 147.889L12.2836 147.801L12.2357 147.714L12.1881 147.626L12.1404 147.538L12.1127 147.491L12.0729 147.419L12.0255 147.331L11.9782 147.243L11.9309 147.155L11.8897 147.079L11.864 147.035L11.817 146.947L11.77 146.859L11.7232 146.771L11.6764 146.682L11.649 146.634L11.6101 146.562L11.5636 146.474L11.517 146.385L11.4707 146.297L11.43 146.22L11.405 146.176L11.3588 146.088L11.3127 145.999L11.2667 145.911L11.2208 145.822L11.1937 145.773L11.1558 145.701L11.1101 145.612L11.0644 145.523L11.0189 145.434L10.9788 145.357L10.9544 145.313L10.9091 145.224L10.8639 145.135L10.8187 145.046L10.7737 144.957L10.747 144.908L10.7099 144.835L10.6651 144.746L10.6203 144.657L10.5757 144.568L10.5362 144.489L10.5124 144.446L10.4679 144.356L10.4236 144.267L10.3793 144.177L10.3352 144.088L10.3088 144.037L10.2726 143.965L10.2286 143.876L10.1848 143.786L10.141 143.696L10.1021 143.617L10.0789 143.574L10.0354 143.484L9.99191 143.394L9.94847 143.304L9.90519 143.214L9.87921 143.163L9.84388 143.091L9.80073 143.001L9.75781 142.911L9.71488 142.821L9.67658 142.741L9.65409 142.697L9.61142 142.607L9.56881 142.517L9.5263 142.426L9.48388 142.336L9.45824 142.284L9.42379 142.212L9.38156 142.122L9.33949 142.031L9.29745 141.941L9.25979 141.86L9.23792 141.817L9.19614 141.726L9.15435 141.635L9.11278 141.545L9.07126 141.454L9.04596 141.402L9.01238 141.33L8.97108 141.239L8.92985 141.148L8.88868 141.057L8.85172 140.975L8.83045 140.932L8.78954 140.841L8.74865 140.75L8.70798 140.659L8.66733 140.568L8.64241 140.515L8.60971 140.443L8.56934 140.351L8.52895 140.26L8.48872 140.169L8.45241 140.087L8.43172 140.044L8.39171 139.952L8.35177 139.861L8.31194 139.769L8.27219 139.677L8.24768 139.624L8.21586 139.552L8.17637 139.46L8.13688 139.369L8.09757 139.277L8.06189 139.194L8.04181 139.151L8.00266 139.059L7.96366 138.967L7.92471 138.875L7.88584 138.783L7.86175 138.729L7.8308 138.657L7.7922 138.565L7.7536 138.473L7.7152 138.381L7.68021 138.297L7.66073 138.255L7.62246 138.162L7.58439 138.07L7.54632 137.978L7.50836 137.885L7.48471 137.831L7.45463 137.759L7.41689 137.666L7.37926 137.574L7.34173 137.481L7.30741 137.397L7.28854 137.355L7.25119 137.262L7.21402 137.169L7.17686 137.076L7.13982 136.984L7.1166 136.928L7.08737 136.857L7.0505 136.764L7.01383 136.671L6.97718 136.578L6.94352 136.493L6.92526 136.451L6.88887 136.358L6.85256 136.265L6.81629 136.172L6.78019 136.078L6.75739 136.023L6.72902 135.951L6.69304 135.858L6.65731 135.764L6.62158 135.671L6.58861 135.585L6.57094 135.543L6.53548 135.45L6.50005 135.357L6.46474 135.263L6.42955 135.17L6.40716 135.113L6.37964 135.042L6.34463 134.948L6.30977 134.854L6.27495 134.761L6.24273 134.674L6.22563 134.632L6.19108 134.539L6.15653 134.445L6.1222 134.351L6.08791 134.257L6.06596 134.2L6.03928 134.129L6.00524 134.035L5.97125 133.941L5.93734 133.847L5.90589 133.76L5.88936 133.718L5.85573 133.624L5.82209 133.53L5.78868 133.436L5.75531 133.342L5.73382 133.284L5.70799 133.213L5.67489 133.118L5.64179 133.024L5.60883 132.93L5.57812 132.842L5.56214 132.8L5.52942 132.706L5.49677 132.612L5.46424 132.517L5.43178 132.423L5.41079 132.364L5.3858 132.293L5.35362 132.199L5.32144 132.104L5.28943 132.009L5.25947 131.921L5.24406 131.88L5.21222 131.785L5.18056 131.69L5.14892 131.595L5.11738 131.5L5.0969 131.442L5.07273 131.37L5.04147 131.276L5.01022 131.181L4.97916 131.086L4.94994 130.997L4.9351 130.956L4.90418 130.86L4.87346 130.765L4.84275 130.67L4.81214 130.575L4.79217 130.516L4.76884 130.445L4.73848 130.35L4.7082 130.254L4.67804 130.159L4.64956 130.069L4.6353 130.028L4.60533 129.933L4.57555 129.838L4.54576 129.742L4.5161 129.647L4.49662 129.587L4.47412 129.516L4.44465 129.421L4.41537 129.325L4.38614 129.229L4.35839 129.139L4.34469 129.098L4.31571 129.003L4.28682 128.907L4.25796 128.811L4.22928 128.716L4.21031 128.655L4.18862 128.584L4.16006 128.489L4.13176 128.393L4.10345 128.297L4.07649 128.206L4.06335 128.165L4.03531 128.07L4.00733 127.974L3.97946 127.878L3.95171 127.782L3.93322 127.72L3.91236 127.65L3.88479 127.554L3.85738 127.458L3.83001 127.362L3.80388 127.27L3.79128 127.23L3.76417 127.134L3.73709 127.037L3.71021 126.941L3.68339 126.845L3.66541 126.783L3.64536 126.713L3.61877 126.616L3.59227 126.52L3.56583 126.424L3.54056 126.331L3.52847 126.291L3.50232 126.195L3.47616 126.099L3.45025 126.002L3.42438 125.905L3.40691 125.843L3.38766 125.773L3.36207 125.676L3.33647 125.58L3.31102 125.483L3.28657 125.39L3.27498 125.351L3.24976 125.254L3.22461 125.157L3.1996 125.06L3.17466 124.964L3.15778 124.901L3.13933 124.831L3.11467 124.734L3.09001 124.637L3.06552 124.54L3.04189 124.446L3.03082 124.407L3.00653 124.31L2.98237 124.213L2.95828 124.116L2.93428 124.019L2.91798 123.956L2.90033 123.886L2.87662 123.789L2.8529 123.692L2.82938 123.595L2.80658 123.5L2.79604 123.461L2.77266 123.364L2.74951 123.267L2.72635 123.17L2.70329 123.072L2.68757 123.008L2.67071 122.939L2.64793 122.842L2.6252 122.744L2.60261 122.647L2.58064 122.552L2.57062 122.513L2.54822 122.416L2.52601 122.318L2.5038 122.221L2.48171 122.123L2.46657 122.059L2.45049 121.989L2.42862 121.892L2.4069 121.794L2.38526 121.697L2.3641 121.601L2.3546 121.563L2.33318 121.465L2.31191 121.367L2.29065 121.27L2.26954 121.172L2.25498 121.107L2.23968 121.038L2.21873 120.94L2.19801 120.842L2.17731 120.745L2.15698 120.648L2.14799 120.61L2.12757 120.512L2.10722 120.415L2.08693 120.317L2.06679 120.219L2.0528 120.153L2.03828 120.084L2.01829 119.986L1.99854 119.888L1.97879 119.79L1.95934 119.694L1.95086 119.656L1.93139 119.558L1.91196 119.46L1.89268 119.362L1.8735 119.264L1.86007 119.197L1.84631 119.129L1.82733 119.031L1.8085 118.933L1.7897 118.834L1.77118 118.737L1.76317 118.699L1.74465 118.601L1.72614 118.503L1.70787 118.405L1.68964 118.306L1.67679 118.24L1.6638 118.171L1.64583 118.073L1.62791 117.975L1.61007 117.876L1.59248 117.778L1.58493 117.741L1.56738 117.643L1.54984 117.544L1.53252 117.446L1.51525 117.347L1.50301 117.28L1.49078 117.212L1.47379 117.114L1.4568 117.015L1.43996 116.917L1.42327 116.818L1.41617 116.781L1.39957 116.683L1.38304 116.584L1.36665 116.486L1.35033 116.387L1.33874 116.319L1.32726 116.251L1.31122 116.153L1.29519 116.054L1.27933 115.955L1.26358 115.857L1.25684 115.819L1.24123 115.721L1.22571 115.622L1.21025 115.523L1.19488 115.425L1.18396 115.356L1.17321 115.289L1.15813 115.19L1.14306 115.091L1.12818 114.992L1.11339 114.894L1.10702 114.856L1.09238 114.758L1.07788 114.659L1.06337 114.56L1.04895 114.461L1.03869 114.392L1.02868 114.325L1.01454 114.226L1.00046 114.127L0.986524 114.028L0.972691 113.929L0.966697 113.891L0.953082 113.793L0.939537 113.694L0.925992 113.595L0.912547 113.496L0.902932 113.426L0.893653 113.36L0.880441 113.261L0.867374 113.161L0.854399 113.062L0.841492 112.963L0.835879 112.924L0.823299 112.827L0.810695 112.728L0.798107 112.629L0.785645 112.529L0.776685 112.459L0.768126 112.393L0.755841 112.294L0.743787 112.195L0.73177 112.095L0.719788 111.996L0.714573 111.957L0.703033 111.86L0.691351 111.76L0.679728 111.661L0.668277 111.562L0.659947 111.491L0.652107 111.425L0.640779 111.326L0.629703 111.226L0.61865 111.127L0.607622 111.028L0.602802 110.988L0.592269 110.891L0.581516 110.792L0.570897 110.692L0.560413 110.593L0.552716 110.522L0.545592 110.456L0.535272 110.357L0.525124 110.257L0.515034 110.158L0.505015 110.058L0.500562 110.018L0.49101 109.922L0.481204 109.822L0.471573 109.723L0.462054 109.623L0.455002 109.552L0.448577 109.486L0.43927 109.387L0.430046 109.287L0.420917 109.188L0.411912 109.088L0.407834 109.048L0.399251 108.951L0.390409 108.852L0.38175 108.752L0.373192 108.652L0.366829 108.581L0.361065 108.515L0.352766 108.416L0.344495 108.316L0.336303 108.217L0.328305 108.117L0.324618 108.076L0.316994 107.98L0.309118 107.88L0.301424 107.781L0.29383 107.681L0.288169 107.609L0.283067 107.544L0.275758 107.444L0.268449 107.344L0.261215 107.245L0.254192 107.145L0.250932 107.104L0.244226 107.008L0.237358 106.908L0.23062 106.808L0.223958 106.709L0.219021 106.636L0.214599 106.571L0.208239 106.472L0.201892 106.372L0.195626 106.272L0.189566 106.172L0.186739 106.13L0.180944 106.035L0.175082 105.935L0.169307 105.835L0.163567 105.736L0.159365 105.662L0.155637 105.598L0.150199 105.499L0.144815 105.399L0.139552 105.299L0.134416 105.199L0.132032 105.157L0.127163 105.062L0.122282 104.962L0.11747 104.862L0.112658 104.762L0.109189 104.688L0.106148 104.625L0.101632 104.525L0.0972113 104.425L0.0929506 104.325L0.0887369 104.225L0.0867995 104.183L0.0828661 104.088L0.0789482 103.988L0.0750984 103.888L0.071255 103.788L0.0684848 103.714L0.0661196 103.651L0.0625546 103.551L0.0590854 103.451L0.0558063 103.351L0.0525268 103.251L0.0510317 103.208L0.0480573 103.114L0.0450643 103.014L0.0421759 102.914L0.0393333 102.814L0.0372501 102.739L0.0355376 102.676L0.0329345 102.576L0.0304217 102.477L0.0281038 102.377L0.0257859 102.277L0.0247139 102.233L0.0226935 102.139L0.0206602 102.039L0.0186914 101.939L0.016846 101.839L0.0154814 101.764L0.0143893 101.702L0.0127468 101.602L0.0111983 101.502L0.00982965 101.402L0.00847189 101.302L0.00782858 101.258L0.00675223 101.164L0.00567964 101.064L0.0046262 100.964L0.0037762 100.865L0.00315357 100.789L0.00265547 100.727L0.00197271 100.627L0.00141882 100.527L0.000965332 100.427L0.000567229 100.327L0.000397491 100.283L0.000204824 100.19L7.69883e-05 100.09L0 99.9897L0.000108616 99.8897L0.000207463 99.8138L0.000315364 99.7522L0.000626301 99.6522L0.00103288 99.5523L0.00147758 99.4523L0.00209607 99.3523L0.00239946 99.3075L0.00308271 99.2148L0.00387994 99.1149L0.00480638 99.0149L0.00583052 98.9149L0.0066783 98.8386L0.00737863 98.7774L0.00867222 98.6774L0.0100353 98.5775L0.0114031 98.4775L0.0130074 98.3775L0.0138103 98.3323L0.0153374 98.2401L0.0170866 98.1401L0.0190162 98.0402L0.0209456 97.9402L0.0225665 97.8635L0.023911 97.8027L0.0261235 97.7028L0.0284243 97.6029L0.0308263 97.5029L0.0333221 97.4029L0.0346204 97.3573L0.0370303 97.2655L0.0397403 97.1656L0.042623 97.0656L0.0455103 96.9657L0.0478764 96.8886L0.0498661 96.8283L0.0530373 96.7283L0.0562196 96.6284L0.0596565 96.5285L0.0631107 96.4286L0.0648483 96.3825L0.0681423 96.2912L0.0718815 96.1912L0.0756465 96.0913L0.0795275 95.9914L0.0826977 95.914L0.0852405 95.8541L0.0893711 95.7542L0.093562 95.6543L0.0979119 95.5544L0.102325 95.4545L0.104575 95.4081L0.108752 95.3172L0.11345 95.2173L0.118146 95.1174L0.123019 95.0176L0.126978 94.9398L0.130089 94.8803L0.135139 94.7804L0.140369 94.6806L0.145634 94.5807L0.150977 94.4809L0.153767 94.4341L0.158823 94.3436L0.164457 94.2438L0.170133 94.144L0.175966 94.0442L0.180708 93.966L0.184414 93.907L0.190402 93.8072L0.196622 93.7074L0.202846 93.6076L0.20915 93.5078L0.212478 93.4607L0.218395 93.3707L0.224918 93.2709L0.231634 93.1712L0.238427 93.0714L0.2439 92.9929L0.248198 92.9343L0.255225 92.8345L0.262335 92.7348L0.26952 92.6351L0.276859 92.5354L0.280664 92.4879L0.287433 92.3983L0.294907 92.2986L0.302604 92.1989L0.310355 92.0992L0.316636 92.0204L0.321481 91.9622L0.329516 91.8626L0.337554 91.7629L0.345723 91.6633L0.354043 91.5636L0.358355 91.5157L0.365938 91.4267L0.374455 91.327L0.38306 91.2274L0.391753 91.1278L0.398906 91.0486L0.404293 90.9909L0.413281 90.8914L0.422276 90.7918L0.431418 90.6923L0.440698 90.5927L0.445568 90.5445L0.453918 90.4559L0.463479 90.3563L0.473041 90.2568L0.482652 90.1573L0.490671 90.0778L0.496643 90.0206L0.506524 89.9211L0.516533 89.8216L0.526663 89.7221L0.536836 89.6227L0.542283 89.5741L0.551517 89.486L0.561984 89.3866L0.572508 89.2871L0.583139 89.1877L0.591943 89.1079L0.598475 89.0511L0.609283 88.9517L0.620301 88.8524L0.631392 88.753L0.642481 88.6536L0.648491 88.6047L0.658612 88.5171L0.669985 88.4178L0.681475 88.3185L0.693134 88.2192L0.70271 88.139L0.709796 88.0827L0.721609 87.9834L0.733557 87.8842L0.745608 87.7849L0.757734 87.6857L0.764259 87.6364L0.7752 87.5493L0.787531 87.4501L0.799997 87.3509L0.81261 87.2518L0.823035 87.1713L0.830598 87.1155L0.843457 87.0163L0.856354 86.9172L0.869306 86.8181L0.882474 86.719L0.889567 86.6693L0.901265 86.5828L0.914572 86.4837L0.928036 86.3846L0.941574 86.2856L0.952878 86.2048L0.960952 86.1495L0.974787 86.0505L0.988644 85.9514L1.00257 85.8525L1.0167 85.7535L1.02438 85.7035L1.03681 85.6175L1.05116 85.5186L1.06558 85.4197L1.08002 85.3207L1.09224 85.2396L1.10087 85.1848L1.11559 85.086L1.13041 84.9871L1.14538 84.8882L1.1604 84.7894L1.16868 84.7391L1.18192 84.6536L1.19723 84.5549L1.21261 84.4561L1.22803 84.3573L1.24109 84.276L1.25026 84.2216L1.26592 84.1229L1.28172 84.0242L1.29766 83.9255L1.3136 83.8268L1.32248 83.7762L1.33656 83.6913L1.35279 83.5927L1.3691 83.494L1.38556 83.3954L1.39944 83.3138L1.40912 83.26L1.42573 83.1614L1.44251 83.0629L1.45941 82.9643L1.47632 82.8658L1.48576 82.8149L1.50067 82.7305L1.51785 82.632L1.5351 82.5336L1.55256 82.4351L1.56731 82.3533L1.57743 82.3L1.59507 82.2016L1.61282 82.1032L1.63061 82.0048L1.64856 81.9065L1.6586 81.8553L1.67423 81.7714L1.69236 81.6731L1.71063 81.5748L1.72901 81.4766L1.74464 81.3944L1.75522 81.3416L1.77388 81.2434L1.79257 81.1452L1.81128 81.0471L1.83025 80.9489L1.84091 80.8974L1.85724 80.8141L1.87637 80.716L1.89562 80.6179L1.9149 80.5198L1.93147 80.4374L1.94255 80.3852L1.96212 80.2871L1.98177 80.1891L2.00151 80.0911L2.02138 79.9932L2.03266 79.9414L2.04974 79.8587L2.06985 79.7607L2.09005 79.6628L2.11026 79.5649L2.12775 79.4824L2.13934 79.4306L2.15983 79.3327L2.18041 79.2349L2.20118 79.1371L2.22194 79.0394L2.23385 78.9874L2.2517 78.9052L2.27274 78.8075L2.2939 78.7098L2.31513 78.6121L2.33346 78.5293L2.34553 78.4781L2.36696 78.3804L2.38851 78.2828L2.41023 78.1852L2.43195 78.0877L2.44446 78.0354L2.4631 77.9538L2.4851 77.8563L2.50713 77.7588L2.52939 77.6614L2.54862 77.5783L2.56111 77.5276L2.5835 77.4302L2.60605 77.3328L2.62868 77.2355L2.65138 77.1381L2.66452 77.0855L2.68389 77.0046L2.70683 76.9073L2.72984 76.81L2.75304 76.7128L2.77318 76.6296L2.78607 76.5794L2.80949 76.4822L2.83299 76.385L2.8565 76.2879L2.88023 76.1908L2.89401 76.138L2.91404 76.0576L2.93793 75.9605L2.96197 75.8635L2.98606 75.7665L3.00712 75.6831L3.02046 75.6335L3.04484 75.5365L3.06928 75.4396L3.09376 75.3427L3.11843 75.2458L3.13287 75.1928L3.15358 75.113L3.17844 75.0162L3.20343 74.9194L3.22843 74.8226L3.25046 74.739L3.26426 74.6899L3.28952 74.5932L3.31489 74.4965L3.3404 74.3999L3.36595 74.3033L3.38104 74.25L3.40245 74.1708L3.42829 74.0742L3.45422 73.9777L3.48016 73.8812L3.50311 73.7975L3.51736 73.7489L3.54357 73.6524L3.56986 73.556L3.59634 73.4596L3.62282 73.3633L3.63856 73.3097L3.66071 73.2312L3.68747 73.1348L3.7143 73.0386L3.74127 72.9423L3.76511 72.8584L3.77974 72.8104L3.80688 72.7143L3.83416 72.6181L3.86157 72.522L3.88898 72.4259L3.90536 72.3721L3.92824 72.2942L3.95593 72.1982L3.98366 72.1021L4.01163 72.0062L4.03641 71.9221L4.0514 71.8746L4.07953 71.7787L4.10776 71.6829L4.13604 71.587L4.16448 71.4912L4.18153 71.4372L4.20504 71.3599L4.23365 71.2641L4.26238 71.1684L4.29123 71.0727L4.31696 70.9885L4.33233 70.9416L4.36145 70.846L4.39061 70.7504L4.41978 70.6548L4.4492 70.5593L4.46693 70.5051L4.49105 70.4284L4.52062 70.3329L4.55034 70.2375L4.58006 70.1421L4.60676 70.0578L4.62254 70.0115L4.65256 69.9161L4.68265 69.8208L4.71283 69.7255L4.74312 69.6303L4.76154 69.5759L4.7863 69.4999L4.81682 69.4047L4.84747 69.3096L4.87811 69.2145L4.90577 69.1301L4.92196 69.0843L4.95287 68.9892L4.98385 68.8942L5.01504 68.7993L5.04623 68.7043L5.06533 68.6497L5.09075 68.5743L5.1222 68.4795L5.15375 68.3847L5.18538 68.2899L5.21397 68.2053L5.23054 68.1601L5.26237 68.0654L5.2943 67.9707L5.3264 67.8761L5.3585 67.7814L5.37828 67.7266L5.40439 67.6519L5.43675 67.5574L5.46917 67.4629L5.50178 67.3684L5.53132 67.2838L5.54822 67.2391L5.58098 67.1447L5.61389 67.0503L5.64687 66.956L5.67992 66.8617L5.70038 66.8067L5.72711 66.7327L5.7604 66.6384L5.79375 66.5442L5.8273 66.4501L5.85779 66.3654L5.87499 66.3213L5.90873 66.2272L5.94256 66.1332L5.97641 66.0392L6.01045 65.9452L6.03161 65.8901L6.0589 65.8167L6.0931 65.7228L6.12744 65.629L6.16186 65.5351L6.19331 65.4503L6.21085 65.4068L6.24554 65.3131L6.28027 65.2194L6.31503 65.1258L6.35001 65.0322L6.37189 64.9768L6.39975 64.9041L6.43489 64.8105L6.47016 64.7171L6.50543 64.6236L6.53791 64.5387L6.55582 64.4958L6.59136 64.4024L6.627 64.309L6.66275 64.2158L6.69857 64.1225L6.72116 64.067L6.74962 63.9949L6.7857 63.9017L6.82187 63.8086L6.85805 63.7155L6.89151 63.6305L6.90976 63.5882L6.9462 63.4952L6.98273 63.4022L7.01944 63.3092L7.05615 63.2163L7.07943 63.1607L7.1085 63.0893L7.14547 62.9965L7.18253 62.9037L7.21969 62.811L7.25409 62.726L7.27265 62.6842L7.30999 62.5915L7.34744 62.4989L7.38504 62.4064L7.42266 62.3138L7.44664 62.258L7.47634 62.1873L7.51421 62.0949L7.5521 62.0025L7.59023 61.9101L7.62562 61.8251L7.64444 61.7839L7.6827 61.6916L7.7211 61.5994L7.75954 61.5072L7.79809 61.415L7.82281 61.3591L7.85305 61.2891L7.89181 61.197L7.93065 61.105L7.96965 61.013L8.006 60.9279L8.02509 60.8873L8.06431 60.7954L8.1036 60.7036L8.14289 60.6117L8.18241 60.52L8.20786 60.464L8.23857 60.3946L8.27824 60.3029L8.31806 60.2113L8.35789 60.1197L8.39524 60.0346L8.41463 59.9946L8.45473 59.9031L8.49491 59.8117L8.53515 59.7202L8.57553 59.6288L8.6017 59.5728L8.63297 59.5041L8.67353 59.4128L8.71423 59.3216L8.75494 59.2303L8.79331 59.1453L8.813 59.1059L8.85396 59.0148L8.895 58.9237L8.93619 58.8327L8.9774 58.7417L9.00431 58.6855L9.03611 58.6175L9.07758 58.5266L9.11916 58.4358L9.16076 58.345L9.20012 58.26L9.2201 58.2211L9.26195 58.1304L9.30385 58.0398L9.34595 57.9492L9.38805 57.8586L9.41566 57.8023L9.44801 57.7351L9.49039 57.6446L9.5328 57.5541L9.57535 57.4638L9.61567 57.3787L9.63588 57.3405L9.67859 57.2502L9.72144 57.16L9.76439 57.0698L9.80736 56.9796L9.83572 56.9232L9.86861 56.8567L9.91184 56.7667L9.95508 56.6767L9.99858 56.5867L10.0399 56.5017L10.0603 56.464L10.1039 56.3742L10.1477 56.2844L10.1914 56.1946L10.2354 56.1049L10.2645 56.0485L10.2978 55.9826L10.3419 55.893L10.3861 55.8034L10.4304 55.7139L10.4727 55.6289L10.4934 55.5919L10.5379 55.5025L10.5825 55.4131L10.6271 55.3238L10.6719 55.2345L10.7018 55.178L10.7356 55.1128L10.7806 55.0236L10.8257 54.9345L10.8708 54.8454L10.9141 54.7605L10.935 54.7241L10.9804 54.6351L11.0259 54.5462L11.0714 54.4573L11.1171 54.3685L11.1477 54.3119L11.182 54.2475L11.2278 54.1587L11.2738 54.07L11.3198 53.9814L11.3641 53.8966L11.3853 53.8607L11.4315 53.7722L11.4778 53.6837L11.5242 53.5953L11.5707 53.5069L11.602 53.4503L11.6368 53.3866L11.6835 53.2983L11.7304 53.2101L11.7772 53.1219L11.8226 53.0371L11.8439 53.0019L11.891 52.9138L11.9381 52.8258L11.9855 52.7378L12.0328 52.6499L12.0649 52.5932L12.1002 52.5302L12.1477 52.4424L12.1954 52.3547L12.2431 52.267L12.2895 52.1823L12.311 52.1476L12.3589 52.06L12.407 51.9725L12.4551 51.885L12.5033 51.7975L12.5361 51.7408L12.5719 51.6786L12.6203 51.5913L12.6688 51.5039L12.7174 51.4167L12.7648 51.3322L12.7864 51.2981L12.8352 51.211L12.8842 51.1239L12.9331 51.0369L12.9822 50.9499L13.0158 50.8932L13.0519 50.8317L13.1012 50.7448L13.1505 50.658L13.2 50.5712L13.2483 50.4868L13.2702 50.4533L13.3199 50.3667L13.3697 50.2801L13.4194 50.1936L13.4694 50.1071L13.5037 50.0503L13.5403 49.9895L13.5904 49.9031L13.6406 49.8169L13.6909 49.7306L13.7402 49.6462L13.7623 49.6134L13.8128 49.5272L13.8634 49.4412L13.914 49.3551L13.9648 49.2691L13.9999 49.2124L14.0369 49.1523L14.0878 49.0664L14.1389 48.9806L14.19 48.8949L14.2403 48.8106L14.2626 48.7784L14.3139 48.6928L14.3653 48.6071L14.4169 48.5216L14.4684 48.4361L14.5043 48.3794L14.5417 48.32L14.5935 48.2347L14.6453 48.1494L14.6973 48.0641L14.7487 47.9801L14.7711 47.9484L14.8232 47.8633L14.8754 47.7781L14.9278 47.6932L14.9802 47.6082L15.0168 47.5514L15.0546 47.4928L15.1073 47.408L15.1599 47.3232L15.2127 47.2385L15.2651 47.1546L15.2877 47.1234L15.3406 47.0388L15.3937 46.9543L15.4468 46.8698L15.5 46.7853L15.5375 46.7286L15.5757 46.6707L15.6291 46.5864L15.6826 46.5021L15.7362 46.4179L15.7896 46.3342L15.8123 46.3037L15.866 46.2196L15.92 46.1356L15.9739 46.0516L16.028 45.9677L16.0662 45.911L16.1047 45.8539L16.1589 45.7701L16.2133 45.6863L16.2677 45.6027L16.3221 45.5191L16.3449 45.4892L16.3995 45.4056L16.4543 45.3222L16.509 45.2387L16.5639 45.1553L16.6029 45.0987L16.6418 45.0423L16.6968 44.959L16.7519 44.8759L16.8072 44.7927L16.8624 44.7096L16.8857 44.6798L16.9409 44.597L16.9964 44.5141L17.052 44.4312L17.1077 44.3483L17.1475 44.2917L17.1867 44.2361L17.2425 44.1534L17.2985 44.0707L17.3545 43.9881L17.4106 43.9056L17.4344 43.8756L17.4902 43.7938L17.5465 43.7113L17.6029 43.629L17.6594 43.5467L17.6999 43.4902L17.7395 43.4353L17.7961 43.3531L17.8529 43.271L17.9097 43.189L17.9666 43.107L17.9909 43.077L18.0473 42.9961L18.1044 42.9142L18.1616 42.8324L18.2189 42.7506L18.2602 42.6942L18.3001 42.64L18.3576 42.5585L18.4151 42.4769L18.4727 42.3954L18.5304 42.314L18.5552 42.2839L18.6122 42.2038L18.6701 42.1225L18.7281 42.0413L18.7861 41.9601L18.8282 41.9038L18.8684 41.8503L18.9267 41.7693L18.985 41.6883L19.0434 41.6074L19.1019 41.5266L19.1273 41.4964L19.1848 41.4172L19.2435 41.3365L19.3022 41.2559L19.361 41.1753L19.404 41.119L19.4445 41.0664L19.5035 40.9859L19.5626 40.9055L19.6218 40.8251L19.681 40.7449L19.707 40.7146L19.765 40.6364L19.8245 40.5562L19.8841 40.4762L19.9436 40.3961L19.9873 40.34L20.0282 40.2881L20.0879 40.2082L20.1478 40.1284L20.2078 40.0486L20.2678 39.9689L20.2943 39.9386L20.3529 39.8613L20.4131 39.7818L20.4734 39.7022L20.5338 39.6228L20.5783 39.5667L20.6194 39.5156L20.6799 39.4363L20.7406 39.3571L20.8013 39.2779L20.8621 39.1987L20.8892 39.1684L20.9483 39.0921L21.0093 39.0131L21.0703 38.9342L21.1315 38.8554L21.1767 38.7994L21.2182 38.749L21.2795 38.6703L21.3409 38.5917L21.4024 38.5131L21.4639 38.4346L21.4915 38.4042L21.5512 38.3288L21.6129 38.2504L21.6747 38.1721L21.7366 38.0939L21.7826 38.038L21.8243 37.9884L21.8864 37.9103L21.9486 37.8323L22.0108 37.7543L22.0731 37.6764L22.1013 37.646L22.1614 37.5714L22.2239 37.4937L22.2865 37.416L22.3492 37.3383L22.396 37.2827L22.4379 37.2337L22.5007 37.1563L22.5636 37.0789L22.6266 37.0015L22.6897 36.9242L22.7185 36.8939L22.779 36.8202L22.8423 36.743L22.9056 36.666L22.969 36.5889L23.0166 36.5334L23.0588 36.4853L23.1224 36.4084L23.186 36.3316L23.2497 36.2549L23.3136 36.1782L23.3429 36.1478L23.4039 36.075L23.4679 35.9985L23.532 35.9221L23.5961 35.8457L23.6445 35.7903L23.6869 35.743L23.7513 35.6667L23.8156 35.5905L23.8801 35.5144L23.9446 35.4384L23.9746 35.408L24.036 35.3362L24.1008 35.2603L24.1656 35.1844L24.2304 35.1087L24.2796 35.0535L24.3223 35.0069L24.3873 34.9313L24.4524 34.8557L24.5177 34.7803L24.5829 34.7048L24.6134 34.6744L24.6753 34.6035L24.7408 34.5283L24.8063 34.4531L24.8719 34.378L24.9219 34.3229L24.9648 34.2771L25.0305 34.2021L25.0964 34.1272L25.1623 34.0524L25.2283 33.9776L25.2593 33.9471L25.3217 33.8772L25.3879 33.8026L25.4541 33.7281L25.5205 33.6536L25.5713 33.5988L25.6143 33.5537L25.6808 33.4793L25.7474 33.4051L25.814 33.3309L25.8807 33.2568L25.9123 33.2264L25.9752 33.1574L26.042 33.0834L26.109 33.0095L26.176 32.9357L26.2276 32.881L26.2708 32.8367L26.3381 32.763L26.4054 32.6894L26.4727 32.6159L26.5402 32.5424L26.5724 32.5121L26.6355 32.444L26.7031 32.3707L26.7708 32.2974L26.8386 32.2242L26.8909 32.1698L26.9343 32.1262L27.0023 32.0532L27.0703 31.9803L27.1383 31.9074L27.2065 31.8346L27.2393 31.8043L27.3028 31.7371L27.3711 31.6645L27.4395 31.5919L27.508 31.5194L27.5611 31.4652L27.6048 31.4224L27.6734 31.35L27.7421 31.2777L27.8108 31.2056L27.8796 31.1334L27.913 31.1031L27.977 31.0369L28.046 30.9649L28.1151 30.893L28.1842 30.8212L28.2382 30.7672L28.282 30.7252L28.3513 30.6535L28.4206 30.5818L28.4901 30.5103L28.5596 30.4389L28.5936 30.4086L28.6579 30.3433L28.7276 30.2721L28.7974 30.2008L28.8672 30.1297L28.922 30.0759L28.9659 30.0346L29.0359 29.9636L29.1059 29.8927L29.1761 29.8219L29.2463 29.7511L29.2808 29.7209L29.3455 29.6566L29.4159 29.586L29.4863 29.5154L29.5568 29.445L29.6124 29.3914L29.6565 29.3509L29.7272 29.2806L29.7979 29.2104L29.8687 29.1402L29.9396 29.0701L29.9747 29.04L30.0398 28.9766L30.1108 28.9067L30.1819 28.8368L30.2531 28.7671L30.3095 28.7138L30.3537 28.674L30.425 28.6044L30.4965 28.5349L30.5679 28.4654L30.6395 28.396L30.6752 28.366L30.7406 28.3035L30.8123 28.2343L30.8841 28.1651L30.9559 28.0961L31.0131 28.0431L31.0574 28.004L31.1294 27.9351L31.2015 27.8663L31.2737 27.7975L31.3459 27.7288L31.3822 27.6989L31.4479 27.6374L31.5203 27.5689L31.5927 27.5004L31.6652 27.4321L31.7232 27.3793L31.7676 27.341L31.8403 27.2729L31.9131 27.2048L31.9858 27.1367L32.0587 27.0687L32.0956 27.0388L32.1617 26.9783L32.2346 26.9104L32.3078 26.8428L32.3809 26.7751L32.4397 26.7226L32.4842 26.6851L32.5576 26.6176L32.631 26.5502L32.7044 26.4829L32.7779 26.4156L32.8154 26.3858L32.8817 26.3263L32.9554 26.2591L33.0292 26.1922L33.103 26.1252L33.1625 26.073L33.2072 26.0363L33.2812 25.9695L33.3552 25.9028L33.4293 25.8362L33.5035 25.7697L33.5415 25.74L33.6081 25.6813L33.6825 25.615L33.7568 25.5487L33.8313 25.4824L33.8917 25.4306L33.9364 25.3946L34.011 25.3286L34.0856 25.2626L34.1604 25.1967L34.2352 25.1309L34.2739 25.1013L34.3407 25.0436L34.4157 24.978L34.4907 24.9124L34.5658 24.8469L34.627 24.7954L34.6718 24.7602L34.747 24.6949L34.8223 24.6296L34.8977 24.5645L34.9731 24.4994L35.0124 24.4699L35.0795 24.4132L35.1551 24.3483L35.2307 24.2835L35.3064 24.2187L35.3684 24.1675L35.4133 24.133L35.4891 24.0684L35.5651 24.004L35.641 23.9395L35.7171 23.8752L35.757 23.8459L35.8244 23.7901L35.9006 23.7259L35.9768 23.6618L36.0532 23.5978L36.1159 23.547L36.1608 23.5132L36.2373 23.4494L36.3139 23.3857L36.3904 23.322L36.4671 23.2583L36.5076 23.2292L36.5752 23.1744L36.652 23.1109L36.7289 23.0476L36.8059 22.9844L36.8694 22.9338L36.9143 22.9008L36.9914 22.8377L37.0686 22.7748L37.1458 22.7118L37.223 22.649L37.2641 22.62L37.332 22.5661L37.4094 22.5034L37.4869 22.4409L37.5644 22.3784L37.6287 22.3281L37.6737 22.2959L37.7515 22.2336L37.8292 22.1713L37.907 22.1092L37.9849 22.0471L38.0266 22.0182L38.0947 21.9653L38.1726 21.9034L38.2508 21.8416L38.3289 21.7799L38.394 21.73L38.439 21.6985L38.5173 21.637L38.5956 21.5755L38.674 21.5141L38.7525 21.4528L38.7948 21.4241L38.8631 21.3721L38.9417 21.311L39.0204 21.2499L39.0991 21.1889L39.165 21.1395L39.21 21.1087L39.2889 21.048L39.3678 20.9872L39.4468 20.9266L39.5259 20.8661L39.5688 20.8376L39.6372 20.7865L39.7164 20.7262L39.7957 20.6659L39.8749 20.6056L39.9417 20.5567L39.9867 20.5266L40.0662 20.4666L40.1456 20.4066L40.2252 20.3468L40.3049 20.287L40.3483 20.2587L40.417 20.2086L40.4968 20.149L40.5766 20.0895L40.6565 20.0301L40.724 19.9815L40.769 19.9522L40.849 19.8929L40.9291 19.8338L41.0092 19.7747L41.0894 19.7157L41.1335 19.6876L41.2023 19.6384L41.2827 19.5796L41.3631 19.5209L41.4435 19.4623L41.5118 19.4141L41.5568 19.3855L41.6374 19.327L41.718 19.2687L41.7988 19.2104L41.8795 19.1522L41.9242 19.1243L41.9932 19.0761L42.0741 19.018L42.155 18.9601L42.2361 18.9023L42.3051 18.8545L42.3501 18.8267L42.4312 18.769L42.5124 18.7114L42.5937 18.654L42.675 18.5965L42.7203 18.5688L42.7895 18.5216L42.8709 18.4643L42.9524 18.4072L43.034 18.3502L43.1037 18.3028L43.1487 18.2757L43.2304 18.2188L43.3122 18.162L43.394 18.1054L43.4758 18.0488L43.5217 18.0212L43.591 17.9749L43.673 17.9185L43.7551 17.8622L43.8372 17.806L43.9077 17.759L43.9526 17.7326L44.0349 17.6766L44.1172 17.6206L44.1995 17.5647L44.282 17.5089L44.3284 17.4816L44.3979 17.4363L44.4804 17.3807L44.563 17.3251L44.6456 17.2697L44.717 17.2232L44.7618 17.1975L44.8446 17.1424L44.9274 17.0872L45.0103 17.0321L45.0932 16.9771L45.1403 16.9501L45.2098 16.9056L45.2929 16.8509L45.376 16.7962L45.4592 16.7415L45.5313 16.6955L45.5761 16.6706L45.6594 16.6162L45.7428 16.5618L45.8262 16.5075L45.9096 16.4534L45.9573 16.4266L46.0269 16.383L46.1106 16.3291L46.1942 16.2752L46.2778 16.2214L46.3507 16.1759L46.3955 16.1517L46.4793 16.098L46.5631 16.0445L46.6471 15.9911L46.7311 15.9377L46.7793 15.9112L46.849 15.8686L46.9332 15.8155L47.0173 15.7624L47.1015 15.7094L47.1752 15.6644L47.2199 15.6409L47.3041 15.5881L47.3885 15.5354L47.473 15.4828L47.5574 15.4302L47.6063 15.404L47.6761 15.3624L47.7607 15.3101L47.8454 15.2578L47.9301 15.2056L48.0045 15.1611L48.0491 15.1383L48.1339 15.0863L48.2188 15.0345L48.3037 14.9827L48.3887 14.931L48.4381 14.905L48.5081 14.8643L48.5932 14.8128L48.6783 14.7614L48.7635 14.7101L48.8387 14.6661L48.8832 14.644L48.9685 14.5928L49.0539 14.5418L49.1393 14.4909L49.2247 14.44L49.2748 14.4143L49.3448 14.3746L49.4303 14.3239L49.516 14.2733L49.6017 14.2229L49.6776 14.1793L49.722 14.1579L49.8078 14.1077L49.8936 14.0575L49.9795 14.0074L50.0655 13.9573L50.1161 13.9319L50.1862 13.8931L50.2722 13.8433L50.3583 13.7935L50.4445 13.744L50.5212 13.7009L50.5654 13.6802L50.6517 13.6308L50.7381 13.5815L50.8244 13.5322L50.9109 13.483L50.9621 13.4579L51.0322 13.42L51.1187 13.371L51.2053 13.3222L51.2919 13.2734L51.3694 13.2309L51.4135 13.2109L51.5002 13.1624L51.587 13.1139L51.6739 13.0654L51.7608 13.0172L51.8126 12.9923L51.8827 12.9554L51.9697 12.9073L52.0568 12.8592L52.1439 12.8113L52.222 12.7694L52.266 12.7501L52.3533 12.7024L52.4405 12.6547L52.5278 12.6072L52.6152 12.5597L52.6676 12.5352L52.7376 12.4992L52.8251 12.452L52.9126 12.4048L53.0001 12.3577L53.0791 12.3163L53.123 12.2978L53.2106 12.2509L53.2983 12.2041L53.3861 12.1574L53.4739 12.1108L53.5269 12.0866L53.597 12.0515L53.6849 12.0052L53.7728 11.9589L53.8608 11.9126L53.9405 11.8718L53.9842 11.854L54.0723 11.8079L54.1605 11.762L54.2487 11.7162L54.3369 11.6704L54.3905 11.6466L54.4606 11.6124L54.549 11.5669L54.6373 11.5215L54.7258 11.4761L54.8062 11.4359L54.8497 11.4187L54.9382 11.3735L55.0268 11.3285L55.1155 11.2836L55.2041 11.2386L55.2584 11.2151L55.3284 11.1819L55.4172 11.1373L55.506 11.0927L55.5949 11.0482L55.6761 11.0085L55.7194 10.9921L55.8083 10.9478L55.8973 10.9036L55.9864 10.8595L56.0755 10.8155L56.1303 10.7923L56.2003 10.7601L56.2895 10.7163L56.3787 10.6726L56.468 10.629L56.5499 10.5899L56.5931 10.5741L56.6825 10.5307L56.7719 10.4874L56.8614 10.4442L56.9509 10.4011L57.0063 10.3782L57.0763 10.3469L57.1659 10.3039L57.2555 10.2611L57.3452 10.2184L57.4279 10.1799L57.4708 10.1647L57.5606 10.1223L57.6505 10.0799L57.7403 10.0375L57.8303 9.99533L57.8862 9.97285L57.9561 9.9424L58.0461 9.90035L58.1362 9.85843L58.2263 9.81662L58.3097 9.77873L58.3524 9.76422L58.4426 9.72266L58.5329 9.68111L58.6231 9.63964L58.7135 9.59835L58.7701 9.57624L58.8398 9.54669L58.9303 9.50556L59.0207 9.46453L59.1112 9.42356L59.1953 9.38634L59.2378 9.3725L59.3284 9.33181L59.419 9.29114L59.5097 9.25058L59.6004 9.21017L59.6576 9.18844L59.7273 9.15975L59.8181 9.11958L59.909 9.07943L59.9999 9.0393L60.0847 9.00276L60.127 8.98959L60.218 8.94975L60.309 8.90997L60.4 8.87035L60.4911 8.83079L60.5489 8.80948L60.6185 8.78169L60.7097 8.74241L60.8009 8.70315L60.8921 8.66394L60.9777 8.62804L61.0198 8.61554L61.1111 8.57655L61.2025 8.53772L61.2939 8.49898L61.3854 8.46028L61.4437 8.4394L61.5132 8.41255L61.6048 8.37411L61.6964 8.33574L61.788 8.29748L61.8743 8.26221L61.9161 8.25036L62.0078 8.21226L62.0996 8.17435L62.1914 8.13651L62.2832 8.09867L62.3421 8.07822L62.4115 8.0523L62.5034 8.01473L62.5953 7.97726L62.6874 7.93994L62.7743 7.90529L62.8159 7.89409L62.908 7.8569L63.0001 7.8199L63.0922 7.78296L63.1844 7.74605L63.2439 7.72601L63.3132 7.70098L63.4054 7.66429L63.4977 7.62776L63.5901 7.59135L63.6777 7.55733L63.7191 7.54677L63.8115 7.51054L63.9039 7.47441L63.9964 7.43837L64.0889 7.40242L64.1489 7.38278L64.2182 7.35862L64.3108 7.32284L64.4034 7.28723L64.4961 7.25172L64.5844 7.21839L64.6255 7.20844L64.7183 7.17317L64.8111 7.13792L64.9039 7.10276L64.9967 7.06777L65.0573 7.04854L65.1264 7.02527L65.2193 6.99041L65.3123 6.95571L65.4053 6.9211L65.4943 6.8885L65.5351 6.87914L65.6282 6.8448L65.7213 6.81046L65.8145 6.77622L65.9077 6.74215L65.9688 6.72337L66.0377 6.70094L66.131 6.66705L66.2243 6.63324L66.3176 6.59952L66.4073 6.56767L66.4478 6.55892L66.5412 6.52549L66.6347 6.49205L66.7282 6.45875L66.8217 6.42558L66.8833 6.40726L66.9521 6.38567L67.0457 6.35274L67.1393 6.31985L67.2329 6.28701L67.3233 6.25592L67.3635 6.2478L67.4573 6.21524L67.551 6.18273L67.6448 6.15037L67.7387 6.11811L67.8009 6.10026L67.8694 6.07951L67.9634 6.04752L68.0573 6.01554L68.1512 5.98364L68.2422 5.95327L68.2822 5.94577L68.3762 5.91409L68.4703 5.88256L68.5644 5.8511L68.6585 5.81972L68.7213 5.80238L68.7897 5.78252L68.8839 5.75143L68.9781 5.72036L69.0724 5.68939L69.164 5.65975L69.2037 5.65285L69.298 5.62206L69.3924 5.5915L69.4867 5.56097L69.5811 5.53047L69.6445 5.51363L69.7127 5.49468L69.8072 5.46446L69.9016 5.43432L69.9962 5.40434L70.0885 5.37538L70.1279 5.36909L70.2225 5.33924L70.3171 5.30961L70.4118 5.28L70.5064 5.25044L70.5703 5.23408L70.6383 5.21599L70.7331 5.18666L70.8279 5.15749L70.9227 5.12843L71.0156 5.10018L71.0547 5.0945L71.1496 5.06563L71.2445 5.03687L71.3394 5.00819L71.4344 4.97961L71.4988 4.96371L71.5666 4.94647L71.6616 4.91806L71.7567 4.88984L71.8518 4.8617L71.9454 4.83418L71.9841 4.82907L72.0793 4.80119L72.1745 4.77333L72.2697 4.74556L72.3649 4.71797L72.4298 4.70255L72.4974 4.68614L72.5927 4.65868L72.688 4.6314L72.7834 4.60418L72.8776 4.57747L72.916 4.5729L73.0114 4.54596L73.1068 4.51903L73.2023 4.49222L73.2978 4.46556L73.3632 4.45063L73.4306 4.43503L73.5261 4.40855L73.6217 4.38216L73.7173 4.35588L73.8121 4.33L73.8502 4.32598L73.9459 4.29997L74.0415 4.27396L74.1372 4.24811L74.233 4.22238L74.2989 4.20796L74.366 4.19317L74.4618 4.16768L74.5577 4.14222L74.6535 4.11683L74.749 4.09178L74.7867 4.08832L74.8826 4.06322L74.9785 4.03816L75.0745 4.01324L75.1704 3.98843L75.2369 3.97457L75.3038 3.96057L75.3998 3.93604L75.4958 3.91152L75.5919 3.88707L75.688 3.86282L75.7254 3.85992L75.8215 3.83571L75.9177 3.81164L76.0138 3.78767L76.11 3.76375L76.177 3.75046L76.2436 3.73729L76.3399 3.71368L76.4361 3.69008L76.5324 3.6666L76.6287 3.64328L76.6665 3.64067L76.7625 3.61749L76.8589 3.59441L76.9552 3.57137L77.0516 3.54836L77.1191 3.53564L77.1855 3.52331L77.282 3.50058L77.3784 3.47793L77.475 3.45544L77.5715 3.43301L77.6097 3.4307L77.7055 3.4086L77.8021 3.38645L77.8987 3.36435L77.9953 3.34229L78.0632 3.33013L78.1293 3.31861L78.226 3.29678L78.3227 3.27512L78.4194 3.25357L78.5161 3.23204L78.5547 3.23003L78.6503 3.20905L78.7471 3.18781L78.8439 3.16664L78.9407 3.14558L79.0092 3.13393L79.075 3.12321L79.1719 3.10232L79.2688 3.08162L79.3657 3.06101L79.4626 3.04039L79.5016 3.03867L79.597 3.01881L79.6939 2.99847L79.7909 2.97823L79.8879 2.95818L79.9569 2.94704L80.0225 2.93712L80.1195 2.91719L80.2166 2.89743L80.3136 2.87776L80.4107 2.85812L80.4502 2.85666L80.5453 2.83787L80.6425 2.81847L80.7396 2.7992L80.8368 2.78008L80.9063 2.76951L80.9715 2.76034L81.0687 2.74141L81.166 2.72257L81.2632 2.70381L81.3605 2.68518L81.4004 2.684L81.4953 2.66624L81.5926 2.64779L81.69 2.62946L81.7873 2.61129L81.8573 2.60131L81.9222 2.59287L82.0196 2.57494L82.117 2.55705L82.2144 2.53917L82.3119 2.52155L82.3521 2.5207L82.4468 2.50393L82.5443 2.48642L82.6418 2.46907L82.7393 2.45182L82.8098 2.44244L82.8744 2.43476L82.9719 2.41779L83.0695 2.40083L83.1671 2.38393L83.2647 2.36725L83.3053 2.36672L83.3998 2.35095L83.4974 2.33444L83.5951 2.31804L83.6927 2.30167L83.7637 2.29294L83.8279 2.28605L83.9256 2.26997L84.0233 2.25396L84.1211 2.23807L84.2188 2.22228L84.2598 2.2221L84.354 2.20734L84.4519 2.1918L84.5497 2.17636L84.6474 2.16091L84.7188 2.15278L84.7828 2.1467L84.8806 2.13154L84.9784 2.11645L85.0763 2.10156L85.1742 2.08669L85.2156 2.08684L85.3095 2.07314L85.4075 2.05854L85.5054 2.04404L85.6033 2.02959L85.6752 2.02203L85.7388 2.0167L85.8367 2.0025L85.9347 1.98837L86.0327 1.97444L86.1307 1.96052L86.1725 1.96096L86.2662 1.94834L86.3643 1.9347L86.4623 1.92108L86.5604 1.90766L86.6327 1.90073L86.6959 1.89609L86.794 1.88285L86.8921 1.86973L86.9902 1.85669L87.0883 1.84373L87.1306 1.84455L87.2239 1.83293L87.3221 1.82026L87.4203 1.80758L87.5185 1.79512L87.5912 1.78883L87.6541 1.78493L87.7523 1.7726L87.8505 1.76049L87.9487 1.74839L88.047 1.73637L88.0895 1.73758L88.1827 1.72697L88.2809 1.71522L88.3792 1.70356L88.4775 1.69202L88.5507 1.68636L88.6132 1.6832L88.7115 1.67184L88.8098 1.66068L88.9081 1.64954L89.0065 1.63848L89.0494 1.64007L89.1422 1.63046L89.2406 1.61961L89.339 1.60897L89.4373 1.5984L89.511 1.59332L89.5731 1.59089L89.6715 1.58056L89.7699 1.57029L89.8683 1.56012L89.9668 1.55009L90.0101 1.552L90.1026 1.54339L90.201 1.5335L90.2995 1.52381L90.3979 1.51421L90.472 1.5098L90.5337 1.50805L90.6322 1.49873L90.7307 1.48941L90.8292 1.48017L90.9277 1.47114L90.9714 1.47343L91.0636 1.46577L91.1621 1.4569L91.2606 1.44815L91.3592 1.43948L91.4336 1.43578L91.495 1.43472L91.5936 1.42635L91.6921 1.418L91.7907 1.40973L91.8893 1.40165L91.9333 1.40435L92.0252 1.39762L92.1237 1.38976L92.2224 1.38198L92.321 1.3742L92.3958 1.37122L92.4568 1.37091L92.5555 1.36343L92.6541 1.35604L92.7527 1.3488L92.8514 1.34162L92.8957 1.34474L92.9872 1.33899L93.0859 1.33209L93.1845 1.32528L93.2832 1.31847L93.3585 1.31614L93.4191 1.31656L93.5177 1.31003L93.6164 1.30359L93.7151 1.29735L93.8138 1.29111L93.8586 1.29461L93.9497 1.28988L94.0484 1.28393L94.1471 1.27805L94.2458 1.27227L94.3215 1.27059L94.3817 1.2717L94.4804 1.26614L94.5791 1.26066L94.6778 1.25538L94.7766 1.25011L94.8217 1.25398L94.9124 1.25027L95.0112 1.24528L95.1099 1.24031L95.2087 1.23554L95.2848 1.23456L95.3445 1.2363L95.4433 1.23171L95.542 1.22726L95.6408 1.22288L95.7396 1.21857L95.785 1.22289L95.8754 1.22013L95.9742 1.21611L96.0729 1.21209L96.1717 1.2083L96.2482 1.20803L96.3076 1.21043L96.4063 1.20678L96.5051 1.20334L96.6039 1.19989L96.7027 1.19656L96.7485 1.20132L96.8385 1.19948L96.9373 1.19641L97.0361 1.19341L97.1349 1.19054L97.2117 1.19098L97.2706 1.19407L97.3694 1.19138L97.4682 1.1889L97.567 1.18642L97.6658 1.18405L97.7119 1.18926L97.8015 1.18837L97.9003 1.18621L97.9991 1.18423L98.098 1.18232L98.1752 1.18342L98.2336 1.18719L98.3324 1.18551L98.4312 1.18395L98.53 1.18243L98.6289 1.18106L98.6753 1.18669L98.7645 1.18674L98.8633 1.18551L98.9621 1.18452L99.0609 1.18358L99.1386 1.18537L99.1965 1.18978L99.2953 1.18913L99.3941 1.18848L99.4929 1.18794L99.5918 1.18758L99.6386 1.19361L99.7273 1.19458L99.8261 1.19436L99.9249 1.19429L100.024 1.19432L100.102 1.19688L100.159 1.2019L100.258 1.20222L100.357 1.20254L100.456 1.20295L100.554 1.20356L100.602 1.21006L100.69 1.2119L100.789 1.21269L100.887 1.21358L100.986 1.21453L101.065 1.21787L101.122 1.22353L101.22 1.22478L101.319 1.22606L101.418 1.22746L101.517 1.22901L101.564 1.23598L101.652 1.23869L101.751 1.24049L101.849 1.24235L101.948 1.2442L102.027 1.24832L102.084 1.25464L102.182 1.2568L102.281 1.25905L102.38 1.26146L102.478 1.26392L102.526 1.27137L102.614 1.275L102.712 1.27775L102.811 1.28057L102.91 1.28341L102.989 1.28824L103.045 1.29521L103.144 1.29832L103.242 1.30152L103.341 1.30491L103.44 1.30831L103.488 1.31622L103.575 1.32079L103.673 1.32447L103.772 1.32823L103.871 1.33208L103.95 1.33762L104.006 1.34522L104.104 1.34929L104.203 1.35344L104.302 1.3578L104.4 1.36216L104.449 1.37051L104.535 1.37601L104.634 1.38066L104.732 1.38532L104.831 1.39018L104.911 1.39649L104.966 1.40464L105.064 1.40968L105.163 1.41484L105.262 1.42011L105.36 1.42542L105.409 1.43428L105.495 1.44066L105.593 1.44626L105.692 1.45186L105.79 1.45771L105.871 1.46478L105.925 1.4735L106.024 1.47949L106.122 1.48565L106.221 1.49183L106.319 1.49812L106.368 1.50748L106.454 1.5147L106.552 1.52127L106.651 1.52786L106.749 1.53462L106.829 1.54248L106.884 1.55181L106.982 1.55872L107.08 1.56586L107.179 1.573L107.277 1.58023L107.327 1.5901L107.412 1.59819L107.51 1.60567L107.608 1.61326L107.707 1.62096L107.787 1.62957L107.841 1.63949L107.939 1.64737L108.038 1.65545L108.136 1.66354L108.234 1.67172L108.284 1.6821L108.368 1.69105L108.467 1.69943L108.565 1.70802L108.663 1.71668L108.744 1.72602L108.797 1.73652L108.896 1.74541L108.994 1.75438L109.092 1.76343L109.19 1.77261L109.24 1.78346L109.324 1.79325L109.422 1.80259L109.52 1.81212L109.619 1.82174L109.7 1.83186L109.752 1.8429L109.851 1.85277L109.949 1.86268L110.047 1.87265L110.145 1.88283L110.195 1.89416L110.279 1.90479L110.377 1.91507L110.475 1.92554L110.573 1.93611L110.654 1.94704L110.706 1.9586L110.804 1.96945L110.902 1.98031L111 1.99121L111.098 2.00235L111.149 2.01422L111.232 2.02562L111.33 2.0369L111.428 2.04832L111.526 2.05979L111.607 2.07155L111.659 2.08367L111.757 2.09543L111.855 2.10724L111.952 2.1191L112.05 2.13116L112.101 2.14356L112.183 2.15576L112.281 2.168L112.379 2.18037L112.477 2.19274L112.559 2.20533L112.61 2.218L112.708 2.23065L112.806 2.24339Z" fill="white"/>
</svg>
