<svg width="200" height="200" viewBox="0 0 200 200" fill="none" xmlns="http://www.w3.org/2000/svg">
<path d="M107.898 2.89519L107.952 2.88197L108.006 2.86891L108.059 2.85594L108.113 2.84297L108.093 2.82977L108.146 2.81698L108.199 2.80428L108.253 2.79161L108.307 2.77911L108.361 2.76668L108.414 2.75428L108.468 2.74206L108.522 2.7299L108.503 2.71685L108.554 2.70472L108.608 2.69278L108.661 2.6809L108.715 2.66907L108.769 2.65742L108.822 2.6458L108.876 2.63423L108.929 2.62287L108.912 2.61003L108.962 2.59863L109.015 2.58734L109.069 2.57626L109.122 2.56522L109.176 2.55421L109.229 2.5434L109.283 2.53263L109.336 2.52191L109.321 2.50932L109.368 2.49863L109.421 2.48815L109.475 2.47771L109.528 2.46746L109.582 2.45725L109.635 2.44711L109.688 2.43712L109.742 2.42719L109.728 2.41487L109.774 2.40472L109.827 2.39506L109.88 2.3854L109.934 2.37582L109.987 2.36642L110.04 2.35703L110.093 2.34775L110.147 2.33862L110.134 2.3266L110.178 2.31706L110.231 2.30811L110.284 2.29926L110.338 2.29041L110.391 2.28174L110.444 2.27316L110.497 2.26459L110.55 2.2562L110.54 2.24453L110.582 2.23564L110.635 2.22736L110.688 2.21929L110.741 2.21126L110.794 2.20325L110.847 2.19547L110.9 2.18772L110.953 2.17998L110.944 2.16868L110.984 2.1604L111.037 2.15293L111.09 2.14551L111.143 2.13831L111.196 2.13111L111.249 2.12398L111.301 2.11705L111.354 2.11013L111.347 2.0992L111.385 2.09137L111.438 2.08472L111.491 2.07812L111.544 2.07158L111.596 2.0652L111.649 2.05887L111.702 2.05262L111.755 2.04652L111.749 2.03602L111.785 2.02872L111.838 2.02277L111.891 2.01699L111.943 2.01121L111.996 2.00555L112.049 2.00005L112.101 1.99455L112.154 1.98918L112.15 1.97915L112.184 1.97239L112.237 1.96716L112.289 1.96215L112.342 1.9572L112.394 1.95224L112.447 1.94753L112.499 1.94285L112.552 1.93818L112.549 1.92864L112.582 1.92237L112.634 1.91797L112.687 1.91363L112.739 1.9095L112.791 1.90539L112.844 1.90134L112.896 1.89749L112.948 1.89365L112.947 1.8846L112.978 1.8787L113.03 1.87514L113.083 1.87163L113.135 1.86817L113.187 1.86489L113.239 1.86166L113.291 1.8585L113.343 1.85551L113.344 1.84699L113.373 1.84153L113.425 1.83869L113.477 1.83601L113.529 1.83334L113.581 1.83081L113.633 1.82841L113.685 1.82601L113.737 1.82377L113.74 1.81585L113.767 1.81081L113.819 1.80873L113.871 1.80683L113.923 1.80499L113.974 1.80319L114.026 1.80159L114.078 1.80002L114.13 1.79851L114.134 1.7912L114.159 1.78656L114.211 1.78533L114.263 1.78411L114.314 1.78311L114.366 1.78218L114.418 1.78126L114.469 1.78054L114.521 1.77988L114.527 1.77316L114.55 1.76883L114.602 1.76844L114.653 1.76806L114.705 1.76778L114.756 1.76767L114.808 1.76757L114.859 1.76761L114.911 1.76778L114.918 1.76172L114.939 1.75775L114.991 1.7581L115.042 1.75856L115.094 1.75908L115.145 1.75974L115.196 1.7605L115.248 1.7613L115.299 1.76225L115.308 1.75693L115.327 1.7533L115.379 1.75438L115.43 1.75569L115.481 1.75705L115.532 1.75841L115.583 1.76001L115.634 1.76169L115.685 1.76339L115.696 1.75882L115.714 1.75553L115.765 1.7575L115.816 1.75951L115.867 1.76177L115.918 1.76402L115.969 1.76635L116.02 1.76888L116.07 1.7714L116.082 1.76758L116.098 1.76448L116.149 1.7673L116.2 1.77016L116.251 1.77313L116.302 1.77623L116.352 1.77938L116.403 1.78266L116.454 1.78604L116.467 1.78301L116.481 1.78012L116.532 1.78373L116.583 1.78745L116.633 1.79117L116.684 1.79509L116.734 1.79909L116.785 1.8031L116.836 1.80734L116.851 1.80514L116.863 1.80245L116.913 1.8068L116.964 1.81136L117.014 1.81593L117.065 1.82058L117.115 1.82542L117.165 1.83029L117.216 1.83524L117.232 1.8339L117.243 1.83143L117.293 1.83663L117.343 1.84189L117.394 1.84734L117.444 1.85282L117.494 1.85838L117.544 1.86413L117.594 1.86988L117.612 1.86937L117.621 1.86706L117.671 1.8731L117.721 1.87915L117.771 1.88539L117.821 1.89172L117.871 1.89807L117.921 1.90462L117.971 1.91122L117.991 1.91159L117.998 1.90937L118.047 1.91622L118.097 1.92317L118.147 1.93012L118.197 1.93728L118.247 1.94451L118.297 1.95175L118.346 1.95921L118.367 1.96056L118.372 1.95844L118.422 1.96603L118.472 1.97383L118.521 1.98162L118.571 1.98952L118.621 1.99761L118.67 2.00569L118.72 2.01391L118.742 2.01622L118.746 2.0142L118.795 2.02263L118.845 2.03117L118.894 2.03983L118.943 2.04854L118.993 2.05738L119.042 2.06634L119.092 2.07534L119.116 2.07862L119.117 2.07668L119.166 2.08596L119.216 2.09524L119.265 2.10477L119.314 2.11433L119.363 2.12391L119.412 2.13374L119.461 2.14358L119.487 2.14783L119.487 2.14589L119.536 2.15601L119.585 2.1662L119.634 2.17643L119.683 2.18684L119.732 2.19732L119.781 2.20786L119.847 2.22218L119.922 2.23782L119.969 2.24618L120.067 2.26738L120.164 2.28872L120.262 2.31007L120.359 2.33157L120.457 2.35321L120.554 2.37484L120.651 2.39665L120.729 2.41338L120.774 2.42171L120.871 2.44367L120.968 2.46582L121.066 2.48801L121.163 2.51025L121.26 2.5327L121.358 2.55517L121.455 2.57771L121.534 2.59554L121.577 2.60381L121.674 2.62662L121.771 2.64947L121.868 2.67251L121.965 2.6956L122.063 2.71876L122.16 2.74208L122.257 2.76546L122.337 2.78433L122.379 2.79248L122.476 2.81615L122.573 2.83982L122.669 2.86359L122.766 2.88753L122.863 2.91148L122.96 2.93555L123.057 2.95979L123.139 2.97976L123.179 2.9878L123.275 3.01225L123.372 3.03676L123.469 3.06128L123.566 3.08603L123.662 3.11082L123.759 3.13562L123.856 3.16067L123.939 3.18183L123.977 3.18974L124.074 3.21489L124.17 3.24024L124.267 3.26561L124.363 3.29107L124.46 3.31669L124.556 3.34234L124.653 3.3681L124.738 3.39047L124.774 3.39823L124.87 3.42421L124.967 3.45026L125.063 3.47648L125.159 3.50274L125.256 3.5291L125.352 3.5556L125.448 3.58213L125.534 3.60568L125.569 3.61324L125.665 3.64006L125.761 3.66686L125.857 3.69387L125.954 3.72096L126.05 3.74804L126.146 3.77536L126.242 3.80273L126.329 3.82744L126.362 3.83477L126.458 3.86241L126.554 3.89005L126.65 3.91778L126.746 3.9457L126.842 3.97362L126.938 4.00165L127.033 4.02984L127.122 4.05585L127.154 4.06293L127.249 4.09128L127.345 4.11975L127.441 4.14829L127.536 4.17693L127.632 4.20569L127.728 4.2345L127.823 4.26345L127.914 4.29079L127.943 4.29759L128.039 4.32669L128.134 4.35594L128.23 4.38531L128.325 4.41469L128.42 4.44425L128.516 4.4739L128.611 4.50354L128.703 4.53224L128.731 4.53872L128.826 4.56865L128.921 4.59861L129.016 4.62881L129.112 4.65901L129.207 4.68927L129.302 4.71975L129.397 4.75022L129.49 4.78018L129.516 4.78632L129.611 4.81707L129.706 4.84785L129.801 4.87875L129.896 4.90978L129.991 4.94085L130.086 4.97205L130.181 5.00334L130.275 5.03465L130.3 5.04042L130.395 5.07193L130.489 5.10355L130.584 5.13519L130.679 5.16699L130.773 5.19889L130.868 5.23081L130.962 5.26291L131.057 5.29508L131.083 5.30159L131.176 5.33322L131.27 5.36567L131.365 5.39814L131.459 5.43063L131.553 5.46336L131.648 5.49609L131.742 5.52889L131.836 5.56189L131.864 5.56923L131.955 5.60105L132.049 5.63421L132.143 5.66748L132.237 5.70077L132.331 5.73422L132.425 5.76777L132.519 5.80133L132.613 5.83508L132.642 5.8433L132.731 5.87528L132.825 5.90917L132.919 5.94322L133.013 5.97734L133.107 6.0115L133.201 6.04583L133.294 6.08022L133.388 6.11465L133.419 6.12376L133.506 6.1559L133.6 6.19059L133.693 6.22532L133.787 6.26026L133.88 6.29523L133.974 6.33026L134.067 6.36547L134.161 6.40071L134.193 6.41073L134.278 6.44285L134.371 6.47836L134.465 6.51388L134.558 6.54954L134.651 6.58533L134.745 6.62111L134.838 6.65707L134.931 6.69313L134.964 6.70406L135.048 6.73622L135.141 6.77248L135.234 6.8088L135.327 6.84518L135.42 6.88173L135.513 6.91832L135.606 6.95498L135.699 6.99183L135.733 7.00376L135.815 7.03594L135.908 7.07288L136.001 7.11002L136.093 7.14721L136.186 7.18444L136.279 7.22185L136.371 7.25931L136.464 7.29684L136.5 7.30978L136.58 7.34198L136.673 7.3797L136.765 7.41755L136.857 7.45553L136.95 7.49353L137.042 7.53166L137.134 7.56992L137.226 7.60817L137.264 7.62215L137.342 7.65427L137.435 7.69279L137.527 7.73137L137.619 7.77012L137.711 7.80891L137.803 7.84774L137.895 7.88678L137.987 7.92584L138.026 7.94085L138.102 7.97283L138.194 8.01214L138.286 8.05152L138.377 8.09094L138.469 8.13053L138.561 8.17018L138.652 8.20989L138.744 8.24974L138.785 8.26584L138.859 8.29772L138.951 8.33773L139.042 8.37792L139.134 8.4181L139.225 8.45839L139.316 8.49884L139.408 8.53928L139.499 8.57988L139.541 8.59706L139.614 8.62885L139.705 8.66957L139.796 8.7105L139.887 8.75146L139.978 8.79246L140.069 8.83367L140.16 8.8749L140.251 8.91617L140.295 8.93447L140.365 8.96613L140.456 9.00767L140.547 9.04925L140.638 9.091L140.728 9.1328L140.819 9.17467L140.91 9.21668L141 9.25875L141.045 9.27816L141.114 9.30958L141.205 9.35191L141.295 9.39425L141.386 9.43668L141.476 9.47929L141.566 9.52189L141.657 9.56461L141.747 9.60747L141.793 9.62803L141.86 9.6592L141.95 9.70227L142.04 9.74539L142.131 9.78853L142.221 9.83188L142.31 9.87526L142.4 9.91866L142.49 9.96229L142.538 9.98404L142.603 10.015L142.693 10.0587L142.783 10.1026L142.873 10.1466L142.962 10.1906L143.052 10.2347L143.141 10.2789L143.231 10.3232L143.28 10.3462L143.344 10.3769L143.433 10.4214L143.522 10.466L143.612 10.5107L143.701 10.5554L143.79 10.6003L143.879 10.6452L143.969 10.6902L144.019 10.7144L144.081 10.7449L144.17 10.7901L144.259 10.8354L144.348 10.8808L144.437 10.9264L144.526 10.9719L144.614 11.0176L144.703 11.0634L144.755 11.0888L144.815 11.1189L144.904 11.1649L144.992 11.2109L145.081 11.257L145.169 11.3033L145.258 11.3496L145.346 11.396L145.435 11.4425L145.488 11.4692L145.546 11.499L145.634 11.5456L145.723 11.5924L145.811 11.6393L145.899 11.6862L145.987 11.7333L146.075 11.7804L146.163 11.8276L146.217 11.8556L146.274 11.8851L146.362 11.9324L146.45 11.9799L146.538 12.0275L146.625 12.0752L146.713 12.123L146.801 12.1708L146.888 12.2187L146.944 12.2481L146.999 12.2771L147.086 12.3252L147.174 12.3734L147.261 12.4217L147.349 12.4701L147.436 12.5186L147.523 12.5672L147.61 12.6158L147.667 12.6465L147.72 12.675L147.807 12.7239L147.894 12.7728L147.981 12.8219L148.068 12.871L148.155 12.9201L148.242 12.9694L148.329 13.0188L148.387 13.0508L148.439 13.0789L148.525 13.1285L148.612 13.1782L148.699 13.2279L148.785 13.2777L148.872 13.3276L148.958 13.3775L149.045 13.4277L149.104 13.4611L149.153 13.4888L149.24 13.539L149.326 13.5894L149.412 13.6398L149.498 13.6903L149.584 13.741L149.671 13.7916L149.757 13.8424L149.817 13.8773L149.865 13.9044L149.951 13.9553L150.037 14.0064L150.122 14.0576L150.208 14.1088L150.294 14.1601L150.38 14.2115L150.465 14.263L150.527 14.2993L150.573 14.3259L150.659 14.3775L150.744 14.4293L150.829 14.4811L150.915 14.5331L151 14.585L151.085 14.6372L151.17 14.6894L151.233 14.7271L151.278 14.7531L151.363 14.8055L151.448 14.858L151.533 14.9105L151.618 14.9632L151.702 15.0158L151.787 15.0686L151.872 15.1215L151.936 15.1607L151.979 15.1861L152.063 15.2392L152.148 15.2924L152.233 15.3456L152.317 15.3989L152.401 15.4524L152.486 15.5058L152.57 15.5594L152.635 15.6001L152.676 15.625L152.761 15.6787L152.845 15.7326L152.929 15.7865L153.013 15.8405L153.097 15.8946L153.181 15.9488L153.265 16.003L153.331 16.0452L153.37 16.0695L153.454 16.1239L153.538 16.1784L153.621 16.2331L153.705 16.2877L153.789 16.3425L153.872 16.3974L153.955 16.4523L154.023 16.496L154.061 16.5196L154.144 16.5748L154.227 16.6299L154.31 16.6852L154.394 16.7406L154.477 16.7961L154.56 16.8516L154.643 16.9073L154.711 16.9525L154.747 16.9754L154.83 17.0312L154.913 17.0871L154.996 17.1431L155.078 17.1992L155.161 17.2553L155.244 17.3115L155.326 17.3678L155.395 17.4146L155.43 17.4369L155.513 17.4933L155.595 17.5499L155.677 17.6066L155.759 17.6632L155.842 17.7201L155.924 17.777L156.006 17.8339L156.076 17.8824L156.109 17.9039L156.191 17.961L156.273 18.0182L156.355 18.0756L156.437 18.133L156.518 18.1905L156.6 18.248L156.682 18.3056L156.753 18.3556L156.784 18.3764L156.866 18.4342L156.947 18.4921L157.029 18.5501L157.11 18.6082L157.191 18.6663L157.272 18.7246L157.353 18.7829L157.426 18.8344L157.456 18.8544L157.537 18.9129L157.618 18.9715L157.699 19.0301L157.779 19.0889L157.86 19.1477L157.941 19.2066L158.021 19.2656L158.095 19.3188L158.123 19.338L158.204 19.3971L158.284 19.4564L158.365 19.5157L158.445 19.5751L158.525 19.6345L158.605 19.694L158.686 19.7537L158.76 19.8086L158.787 19.827L158.867 19.8868L158.947 19.9467L159.027 20.0066L159.106 20.0666L159.186 20.1268L159.266 20.187L159.346 20.2472L159.421 20.3038L159.446 20.3214L159.526 20.3819L159.605 20.4423L159.685 20.503L159.764 20.5637L159.843 20.6244L159.922 20.6853L160.002 20.7462L160.077 20.8045L160.102 20.8211L160.181 20.8823L160.26 20.9434L160.339 21.0047L160.417 21.066L160.496 21.1274L160.575 21.1889L160.654 21.2505L160.73 21.3104L160.753 21.3262L160.831 21.388L160.91 21.4498L160.988 21.5117L161.067 21.5737L161.145 21.6358L161.223 21.6979L161.301 21.7601L161.379 21.8218L161.4 21.8367L161.478 21.899L161.556 21.9615L161.634 22.0241L161.712 22.0867L161.79 22.1494L161.867 22.2122L161.945 22.275L162.023 22.3379L162.044 22.3529L162.121 22.4154L162.198 22.4785L162.275 22.5417L162.353 22.6049L162.43 22.6682L162.507 22.7317L162.585 22.7951L162.662 22.8587L162.684 22.875L162.759 22.937L162.836 23.0007L162.913 23.0645L162.99 23.1284L163.066 23.1923L163.143 23.2564L163.22 23.3204L163.296 23.3846L163.32 23.4022L163.393 23.4637L163.469 23.5281L163.546 23.5925L163.622 23.657L163.698 23.7216L163.774 23.7862L163.851 23.851L163.927 23.9157L163.951 23.9347L164.023 23.9956L164.098 24.0606L164.174 24.1257L164.25 24.1908L164.326 24.256L164.401 24.3213L164.477 24.3866L164.553 24.452L164.578 24.4724L164.648 24.5327L164.723 24.5983L164.799 24.664L164.874 24.7296L164.949 24.7955L165.024 24.8614L165.099 24.9273L165.174 24.9934L165.201 25.0151L165.269 25.0748L165.344 25.141L165.418 25.2073L165.493 25.2737L165.568 25.3401L165.642 25.4066L165.717 25.4731L165.791 25.5398L165.819 25.5629L165.885 25.622L165.96 25.6888L166.034 25.7557L166.108 25.8227L166.182 25.8897L166.256 25.9568L166.33 26.024L166.404 26.0912L166.433 26.1157L166.497 26.1742L166.571 26.2417L166.645 26.3091L166.718 26.3767L166.792 26.4443L166.866 26.512L166.939 26.5798L167.012 26.6476L167.042 26.6736L167.105 26.7314L167.178 26.7994L167.251 26.8675L167.324 26.9356L167.397 27.0039L167.47 27.0722L167.543 27.1405L167.616 27.209L167.647 27.2364L167.708 27.2935L167.78 27.3621L167.853 27.4308L167.926 27.4995L167.998 27.5684L168.07 27.6373L168.143 27.7062L168.215 27.7753L168.247 27.8042L168.306 27.8606L168.378 27.9297L168.45 27.999L168.522 28.0684L168.594 28.1377L168.666 28.2072L168.738 28.2768L168.809 28.3464L168.842 28.3768L168.9 28.4325L168.971 28.5022L169.043 28.5721L169.114 28.642L169.186 28.712L169.257 28.782L169.328 28.8522L169.399 28.9224L169.433 28.9543L169.489 29.0092L169.56 29.0796L169.631 29.15L169.702 29.2205L169.772 29.291L169.843 29.3617L169.914 29.4324L169.984 29.5032L170.019 29.5366L170.073 29.5907L170.144 29.6616L170.214 29.7327L170.284 29.8037L170.354 29.8749L170.424 29.9461L170.494 30.0173L170.564 30.0887L170.6 30.1237L170.653 30.177L170.723 30.2484L170.792 30.3201L170.862 30.3917L170.932 30.4634L171.001 30.5352L171.071 30.607L171.14 30.6789L171.176 30.7155L171.228 30.768L171.297 30.84L171.366 30.9122L171.435 30.9844L171.504 31.0566L171.573 31.129L171.642 31.2014L171.711 31.2739L171.748 31.312L171.797 31.3636L171.866 31.4363L171.935 31.5089L172.003 31.5817L172.072 31.6546L172.14 31.7275L172.208 31.8004L172.276 31.8735L172.315 31.9132L172.363 31.9639L172.431 32.0371L172.499 32.1104L172.567 32.1837L172.634 32.2571L172.702 32.3305L172.77 32.4041L172.837 32.4777L172.876 32.519L172.923 32.5688L172.99 32.6425L173.058 32.7164L173.125 32.7902L173.192 32.8642L173.259 32.9382L173.326 33.0122L173.393 33.0864L173.433 33.1294L173.478 33.1783L173.545 33.2525L173.612 33.3269L173.678 33.4013L173.745 33.4758L173.811 33.5504L173.878 33.625L173.944 33.6997L173.985 33.7443L174.028 33.7922L174.094 33.8671L174.161 33.9419L174.227 34.0169L174.293 34.0919L174.359 34.167L174.424 34.2422L174.49 34.3174L174.532 34.3637L174.573 34.4107L174.639 34.486L174.705 34.5614L174.77 34.637L174.835 34.7125L174.901 34.7881L174.966 34.8639L175.031 34.9396L175.073 34.9875L175.114 35.0335L175.179 35.1094L175.243 35.1854L175.308 35.2614L175.373 35.3375L175.438 35.4137L175.503 35.4899L175.567 35.5662L175.61 35.6158L175.649 35.6608L175.713 35.7372L175.777 35.8137L175.842 35.8903L175.906 35.9669L175.97 36.0436L176.034 36.1203L176.098 36.1972L176.141 36.2485L176.178 36.2925L176.242 36.3694L176.306 36.4464L176.37 36.5235L176.433 36.6006L176.497 36.6779L176.56 36.7551L176.623 36.8324L176.667 36.8854L176.703 36.9284L176.766 37.0059L176.829 37.0834L176.892 37.161L176.955 37.2386L177.018 37.3164L177.081 37.3942L177.144 37.472L177.188 37.5267L177.223 37.5686L177.285 37.6466L177.348 37.7246L177.41 37.8027L177.472 37.8809L177.535 37.9591L177.597 38.0374L177.659 38.1158L177.704 38.1722L177.737 38.213L177.799 38.2915L177.861 38.3701L177.922 38.4487L177.984 38.5274L178.046 38.6061L178.107 38.6849L178.168 38.7638L178.214 38.822L178.246 38.8617L178.307 38.9407L178.368 39.0197L178.43 39.0989L178.491 39.178L178.551 39.2573L178.612 39.3366L178.673 39.4159L178.719 39.4759L178.75 39.5145L178.81 39.5939L178.871 39.6735L178.931 39.7531L178.992 39.8328L179.052 39.9125L179.112 39.9923L179.172 40.0722L179.219 40.1339L179.248 40.1714L179.308 40.2514L179.368 40.3314L179.428 40.4115L179.487 40.4917L179.547 40.5718L179.606 40.6522L179.666 40.7325L179.713 40.796L179.741 40.8323L179.8 40.9128L179.86 40.9933L179.919 41.0739L179.978 41.1546L180.037 41.2353L180.096 41.316L180.154 41.3969L180.202 41.4621L180.229 41.4973L180.287 41.5782L180.346 41.6593L180.404 41.7403L180.463 41.8215L180.521 41.9026L180.579 41.9839L180.637 42.0652L180.685 42.1323L180.711 42.1662L180.769 42.2476L180.826 42.3292L180.884 42.4107L180.942 42.4923L181 42.574L181.057 42.6557L181.115 42.7375L181.163 42.8064L181.187 42.8391L181.245 42.921L181.302 43.003L181.359 43.085L181.416 43.1671L181.473 43.2492L181.53 43.3314L181.587 43.4136L181.636 43.4844L181.658 43.5159L181.715 43.5983L181.771 43.6807L181.828 43.7632L181.884 43.8457L181.941 43.9283L181.997 44.011L182.053 44.0937L182.102 44.1663L182.124 44.1965L182.18 44.2794L182.236 44.3623L182.291 44.4452L182.347 44.5282L182.403 44.6113L182.458 44.6944L182.514 44.7776L182.563 44.852L182.584 44.881L182.639 44.9643L182.694 45.0476L182.749 45.131L182.804 45.2145L182.859 45.298L182.914 45.3815L182.969 45.4652L183.019 45.5414L183.038 45.5692L183.093 45.6529L183.147 45.7367L183.201 45.8205L183.256 45.9044L183.31 45.9884L183.364 46.0724L183.418 46.1565L183.468 46.2346L183.487 46.2611L183.54 46.3452L183.594 46.4295L183.648 46.5138L183.702 46.5981L183.755 46.6825L183.809 46.767L183.862 46.8515L183.913 46.9315L183.929 46.9566L183.983 47.0413L184.036 47.1259L184.089 47.2107L184.142 47.2954L184.195 47.3802L184.247 47.4652L184.3 47.5501L184.351 47.632L184.367 47.6558L184.419 47.7409L184.472 47.826L184.524 47.9111L184.576 47.9964L184.628 48.0816L184.68 48.1669L184.732 48.2523L184.783 48.3361L184.798 48.3586L184.85 48.4441L184.902 48.5296L184.953 48.6152L185.005 48.7008L185.056 48.7865L185.108 48.8723L185.159 48.9581L185.21 49.0438L185.224 49.0649L185.275 49.1507L185.326 49.2367L185.377 49.3228L185.428 49.4088L185.478 49.4949L185.529 49.5811L185.58 49.6673L185.63 49.7536L185.644 49.776L185.694 49.861L185.744 49.9474L185.794 50.0338L185.845 50.1203L185.895 50.2068L185.944 50.2934L185.994 50.38L186.044 50.4667L186.059 50.4908L186.107 50.5746L186.157 50.6614L186.206 50.7482L186.256 50.8351L186.305 50.9221L186.354 51.0091L186.403 51.0961L186.452 51.1832L186.468 51.2089L186.514 51.2917L186.563 51.3788L186.612 51.4661L186.661 51.5534L186.709 51.6407L186.758 51.7281L186.806 51.8156L186.855 51.903L186.871 51.9304L186.916 52.012L186.964 52.0996L187.012 52.1873L187.06 52.275L187.108 52.3627L187.156 52.4505L187.203 52.5383L187.251 52.6262L187.268 52.6552L187.311 52.7357L187.359 52.8237L187.406 52.9117L187.453 52.9998L187.5 53.0879L187.548 53.1761L187.595 53.2643L187.641 53.3526L187.659 53.3833L187.701 53.4626L187.747 53.5509L187.794 53.6394L187.841 53.7279L187.887 53.8164L187.933 53.905L187.98 53.9935L188.026 54.0822L188.043 54.1146L188.084 54.1927L188.13 54.2814L188.176 54.3703L188.222 54.4591L188.268 54.548L188.313 54.637L188.359 54.726L188.404 54.815L188.422 54.8491L188.462 54.926L188.507 55.0151L188.552 55.1043L188.597 55.1935L188.642 55.2828L188.687 55.3721L188.732 55.4615L188.776 55.5509L188.795 55.5867L188.833 55.6623L188.877 55.7518L188.922 55.8413L188.966 55.931L189.01 56.0206L189.055 56.1103L189.099 56.2L189.142 56.2898L189.162 56.3273L189.198 56.4017L189.242 56.4916L189.286 56.5815L189.329 56.6715L189.373 56.7615L189.416 56.8515L189.459 56.9416L189.503 57.0318L189.522 57.071L189.557 57.1441L189.6 57.2344L189.643 57.3247L189.686 57.415L189.729 57.5054L189.771 57.5958L189.814 57.6862L189.856 57.7767L189.876 57.8177L189.91 57.8895L189.952 57.9801L189.995 58.0708L190.037 58.1614L190.079 58.2521L190.12 58.3429L190.162 58.4337L190.204 58.5245L190.224 58.5672L190.257 58.6378L190.298 58.7287L190.34 58.8197L190.381 58.9107L190.422 59.0018L190.463 59.0929L190.505 59.1841L190.546 59.2752L190.566 59.3197L190.597 59.3889L190.638 59.4802L190.679 59.5715L190.719 59.6629L190.76 59.7543L190.8 59.8457L190.841 59.9372L190.881 60.0287L190.902 60.0749L190.932 60.1429L190.972 60.2345L191.012 60.3261L191.051 60.4178L191.091 60.5096L191.131 60.6013L191.17 60.6932L191.21 60.785L191.231 60.833L191.26 60.8996L191.299 60.9915L191.338 61.0835L191.377 61.1755L191.416 61.2676L191.455 61.3597L191.494 61.4518L191.532 61.544L191.554 61.5938L191.581 61.659L191.62 61.7513L191.658 61.8436L191.696 61.9359L191.735 62.0283L191.773 62.1207L191.811 62.2132L191.849 62.3057L191.87 62.3572L191.897 62.4211L191.934 62.5136L191.972 62.6063L192.01 62.6989L192.047 62.7916L192.084 62.8843L192.122 62.9771L192.159 63.0699L192.18 63.1232L192.206 63.1857L192.243 63.2786L192.28 63.3715L192.316 63.4645L192.353 63.5575L192.39 63.6505L192.426 63.7436L192.462 63.8367L192.484 63.8918L192.508 63.9529L192.545 64.0461L192.581 64.1393L192.617 64.2326L192.652 64.3259L192.688 64.4192L192.724 64.5126L192.76 64.6061L192.782 64.663L192.805 64.7226L192.84 64.8161L192.875 64.9096L192.911 65.0032L192.946 65.0968L192.981 65.1904L193.016 65.2841L193.05 65.3778L193.073 65.4365L193.094 65.4948L193.129 65.5886L193.164 65.6824L193.198 65.7762L193.232 65.8701L193.267 65.964L193.301 66.058L193.335 66.152L193.357 66.2125L193.378 66.2693L193.412 66.3634L193.445 66.4575L193.479 66.5516L193.513 66.6458L193.546 66.74L193.579 66.8342L193.613 66.9285L193.635 66.9909L193.655 67.0462L193.688 67.1405L193.721 67.2349L193.754 67.3294L193.786 67.4238L193.819 67.5183L193.852 67.6128L193.884 67.7073L193.906 67.7715L193.925 67.8254L193.957 67.92L193.99 68.0146L194.022 68.1093L194.054 68.2041L194.086 68.2988L194.117 68.3936L194.149 68.4884L194.171 68.5544L194.189 68.6068L194.221 68.7017L194.252 68.7966L194.283 68.8915L194.314 68.9865L194.346 69.0815L194.377 69.1766L194.407 69.2717L194.43 69.3395L194.447 69.3904L194.477 69.4855L194.508 69.5807L194.538 69.6759L194.569 69.7712L194.599 69.8664L194.629 69.9617L194.659 70.057L194.682 70.1268L194.697 70.1761L194.727 70.2715L194.757 70.3669L194.787 70.4624L194.816 70.5579L194.846 70.6534L194.875 70.7489L194.905 70.8445L194.927 70.9161L194.942 70.9639L194.971 71.0595L195 71.1552L195.029 71.2509L195.057 71.3466L195.086 71.4424L195.115 71.5382L195.143 71.634L195.165 71.7074L195.179 71.7537L195.208 71.8496L195.236 71.9455L195.264 72.0415L195.292 72.1374L195.32 72.2335L195.348 72.3295L195.375 72.4255L195.397 72.5008L195.41 72.5455L195.438 72.6416L195.465 72.7378L195.493 72.8339L195.52 72.9302L195.547 73.0264L195.574 73.1226L195.601 73.2189L195.622 73.296L195.635 73.3392L195.661 73.4355L195.688 73.5319L195.715 73.6283L195.741 73.7247L195.767 73.8212L195.794 73.9177L195.82 74.0142L195.841 74.0931L195.853 74.1347L195.878 74.2313L195.904 74.3279L195.93 74.4245L195.956 74.5211L195.981 74.6178L196.006 74.7145L196.032 74.8112L196.053 74.892L196.064 74.9321L196.089 75.0288L196.114 75.1257L196.139 75.2225L196.163 75.3193L196.188 75.4162L196.213 75.5131L196.237 75.61L196.258 75.6927L196.268 75.7312L196.292 75.8281L196.317 75.9252L196.341 76.0222L196.365 76.1192L196.389 76.2163L196.412 76.3134L196.436 76.4106L196.457 76.495L196.466 76.5319L196.489 76.6291L196.513 76.7263L196.536 76.8235L196.559 76.9208L196.582 77.0181L196.605 77.1154L196.628 77.2127L196.648 77.299L196.657 77.3343L196.679 77.4317L196.702 77.5291L196.725 77.6265L196.747 77.724L196.769 77.8214L196.791 77.9189L196.813 78.0164L196.833 78.1046L196.841 78.1383L196.863 78.2359L196.885 78.3334L196.906 78.4311L196.928 78.5287L196.949 78.6263L196.971 78.724L196.992 78.8217L197.012 78.9117L197.019 78.9438L197.04 79.0415L197.061 79.1393L197.082 79.2371L197.102 79.3349L197.123 79.4327L197.143 79.5306L197.164 79.6284L197.183 79.7203L197.19 79.7508L197.21 79.8487L197.23 79.9466L197.25 80.0446L197.27 80.1426L197.29 80.2405L197.309 80.3385L197.329 80.4366L197.348 80.5303L197.354 80.5591L197.373 80.6572L197.392 80.7553L197.412 80.8534L197.431 80.9515L197.45 81.0497L197.469 81.1479L197.487 81.2461L197.506 81.3416L197.511 81.3688L197.529 81.467L197.548 81.5653L197.566 81.6636L197.585 81.7619L197.603 81.8602L197.621 81.9585L197.639 82.0569L197.657 82.1543L197.661 82.1798L197.679 82.2782L197.697 82.3766L197.714 82.475L197.732 82.5735L197.749 82.6719L197.766 82.7704L197.784 82.8689L197.801 82.9674L197.805 82.9928L197.822 83.0906L197.839 83.1891L197.856 83.2877L197.872 83.3863L197.889 83.4849L197.905 83.5835L197.922 83.6822L197.938 83.7808L197.942 83.8079L197.958 83.9041L197.974 84.0028L197.99 84.1015L198.006 84.2003L198.022 84.299L198.037 84.3978L198.053 84.4965L198.068 84.5953L198.073 84.6241L198.087 84.7188L198.103 84.8176L198.118 84.9165L198.133 85.0153L198.148 85.1142L198.162 85.213L198.177 85.3119L198.192 85.4108L198.196 85.4414L198.21 85.5345L198.224 85.6335L198.238 85.7324L198.253 85.8314L198.267 85.9304L198.281 86.0294L198.295 86.1284L198.308 86.2274L198.313 86.2597L198.325 86.3512L198.339 86.4503L198.352 86.5494L198.366 86.6484L198.379 86.7475L198.392 86.8466L198.405 86.9458L198.418 87.0449L198.423 87.079L198.434 87.1689L198.447 87.268L198.46 87.3672L198.472 87.4664L198.485 87.5656L198.497 87.6648L198.509 87.7641L198.521 87.8633L198.526 87.8991L198.536 87.9874L198.548 88.0867L198.56 88.186L198.572 88.2853L198.583 88.3846L198.595 88.4839L198.606 88.5832L198.617 88.6825L198.622 88.7201L198.631 88.8068L198.642 88.9061L198.653 89.0055L198.664 89.1049L198.675 89.2043L198.686 89.3037L198.696 89.4031L198.707 89.5026L198.711 89.5418L198.72 89.6269L198.73 89.7263L198.74 89.8258L198.75 89.9253L198.76 90.0248L198.77 90.1242L198.78 90.2237L198.789 90.3233L198.793 90.3643L198.801 90.4477L198.81 90.5472L198.82 90.6468L198.829 90.7463L198.838 90.8459L198.847 90.9455L198.856 91.045L198.865 91.1446L198.868 91.1874L198.876 91.2691L198.884 91.3688L198.893 91.4684L198.901 91.568L198.909 91.6677L198.917 91.7673L198.926 91.8669L198.934 91.9666L198.937 92.0111L198.943 92.0912L198.951 92.1909L198.959 92.2906L198.966 92.3903L198.974 92.49L198.981 92.5897L198.988 92.6894L198.996 92.7891L198.999 92.8354L199.004 92.9138L199.011 93.0135L199.018 93.1133L199.025 93.2131L199.031 93.3128L199.038 93.4126L199.044 93.5123L199.051 93.6121L199.054 93.6601L199.058 93.7369L199.064 93.8367L199.07 93.9365L199.076 94.0363L199.082 94.1361L199.088 94.2359L199.093 94.3357L199.099 94.4355L199.101 94.4853L199.105 94.5603L199.111 94.6602L199.116 94.76L199.121 94.8599L199.126 94.9597L199.131 95.0596L199.136 95.1595L199.14 95.2594L199.143 95.3109L199.146 95.3842L199.15 95.4841L199.155 95.584L199.159 95.6838L199.163 95.7837L199.167 95.8836L199.171 95.9835L199.175 96.0834L199.177 96.1367L199.179 96.2083L199.183 96.3083L199.187 96.4082L199.19 96.5081L199.193 96.608L199.196 96.7079L199.2 96.8079L199.203 96.9078L199.204 96.9628L199.206 97.0327L199.209 97.1327L199.212 97.2326L199.214 97.3325L199.217 97.4325L199.219 97.5325L199.221 97.6324L199.224 97.7323L199.225 97.7891L199.226 97.8573L199.228 97.9573L199.23 98.0572L199.232 98.1572L199.233 98.2572L199.235 98.3571L199.236 98.4571L199.238 98.5571L199.238 98.6155L199.239 98.682L199.24 98.782L199.241 98.8819L199.242 98.9819L199.243 99.0819L199.244 99.1819L199.244 99.2819L199.245 99.3818L199.245 99.442L199.245 99.5068L199.245 99.6068L199.246 99.7068L199.246 99.8067L199.246 99.9067L199.246 100.007L199.246 100.107L199.245 100.207L199.245 100.269L199.244 100.332L199.244 100.432L199.243 100.532L199.243 100.632L199.242 100.732L199.241 100.831L199.24 100.931L199.239 101.031L199.238 101.095L199.237 101.156L199.236 101.256L199.234 101.356L199.233 101.456L199.231 101.556L199.23 101.656L199.228 101.756L199.226 101.856L199.224 101.921L199.223 101.981L199.221 102.081L199.218 102.181L199.216 102.281L199.214 102.381L199.211 102.481L199.209 102.581L199.206 102.681L199.204 102.748L199.202 102.806L199.199 102.906L199.196 103.005L199.193 103.105L199.189 103.205L199.186 103.305L199.183 103.405L199.179 103.505L199.176 103.574L199.174 103.63L199.17 103.73L199.166 103.83L199.162 103.93L199.158 104.029L199.154 104.129L199.15 104.229L199.146 104.329L199.142 104.4L199.139 104.454L199.135 104.554L199.13 104.654L199.125 104.754L199.12 104.853L199.115 104.953L199.11 105.053L199.105 105.153L199.101 105.225L199.098 105.278L199.092 105.377L199.087 105.477L199.081 105.577L199.076 105.677L199.07 105.777L199.064 105.877L199.058 105.976L199.053 106.05L199.05 106.101L199.043 106.201L199.037 106.301L199.03 106.4L199.024 106.5L199.017 106.6L199.011 106.7L199.004 106.799L198.998 106.875L198.994 106.924L198.987 107.024L198.98 107.123L198.973 107.223L198.966 107.323L198.958 107.422L198.95 107.522L198.943 107.622L198.937 107.699L198.932 107.746L198.924 107.846L198.917 107.946L198.908 108.045L198.9 108.145L198.892 108.245L198.883 108.344L198.875 108.444L198.868 108.523L198.864 108.568L198.855 108.668L198.846 108.767L198.837 108.867L198.828 108.966L198.819 109.066L198.81 109.166L198.8 109.265L198.793 109.346L198.788 109.389L198.778 109.489L198.769 109.588L198.759 109.688L198.749 109.787L198.739 109.887L198.729 109.986L198.719 110.086L198.71 110.168L198.705 110.21L198.695 110.309L198.685 110.409L198.674 110.508L198.663 110.608L198.653 110.707L198.642 110.806L198.631 110.906L198.621 110.99L198.616 111.03L198.605 111.129L198.594 111.229L198.582 111.328L198.571 111.427L198.559 111.526L198.547 111.626L198.536 111.725L198.525 111.81L198.52 111.849L198.508 111.948L198.496 112.047L198.484 112.147L198.471 112.246L198.459 112.345L198.446 112.444L198.434 112.543L198.422 112.63L198.417 112.667L198.404 112.766L198.391 112.865L198.378 112.965L198.365 113.064L198.352 113.163L198.338 113.262L198.325 113.361L198.313 113.45L198.307 113.485L198.293 113.584L198.28 113.683L198.266 113.782L198.252 113.881L198.238 113.98L198.224 114.078L198.209 114.177L198.196 114.268L198.19 114.301L198.176 114.4L198.161 114.499L198.147 114.598L198.132 114.696L198.117 114.795L198.102 114.894L198.087 114.993L198.073 115.085L198.067 115.116L198.052 115.215L198.036 115.314L198.021 115.413L198.005 115.511L197.989 115.61L197.974 115.709L197.958 115.807L197.942 115.901L197.937 115.931L197.921 116.029L197.904 116.128L197.888 116.227L197.872 116.325L197.855 116.424L197.838 116.522L197.822 116.621L197.805 116.716L197.8 116.744L197.783 116.842L197.766 116.941L197.749 117.039L197.731 117.138L197.714 117.236L197.696 117.335L197.679 117.433L197.662 117.53L197.656 117.556L197.638 117.654L197.62 117.752L197.602 117.851L197.584 117.949L197.566 118.047L197.548 118.146L197.529 118.244L197.511 118.342L197.505 118.367L197.487 118.465L197.468 118.563L197.449 118.661L197.43 118.759L197.411 118.857L197.392 118.956L197.373 119.054L197.354 119.152L197.348 119.178L197.328 119.274L197.309 119.372L197.289 119.47L197.27 119.568L197.25 119.666L197.23 119.764L197.21 119.862L197.19 119.96L197.183 119.987L197.164 120.082L197.143 120.18L197.123 120.278L197.102 120.376L197.082 120.473L197.061 120.571L197.04 120.669L197.019 120.767L197.012 120.796L196.992 120.888L196.971 120.986L196.949 121.084L196.928 121.182L196.907 121.279L196.885 121.377L196.863 121.474L196.842 121.572L196.834 121.603L196.813 121.694L196.791 121.791L196.769 121.889L196.747 121.986L196.725 122.083L196.702 122.181L196.68 122.278L196.658 122.376L196.649 122.408L196.628 122.497L196.605 122.594L196.583 122.692L196.559 122.789L196.536 122.886L196.513 122.983L196.49 123.081L196.467 123.178L196.457 123.212L196.436 123.299L196.413 123.396L196.389 123.493L196.365 123.59L196.341 123.687L196.317 123.784L196.293 123.881L196.269 123.978L196.259 124.014L196.238 124.099L196.213 124.196L196.189 124.293L196.164 124.39L196.139 124.487L196.115 124.584L196.09 124.68L196.065 124.777L196.054 124.814L196.032 124.898L196.007 124.995L195.982 125.091L195.956 125.188L195.931 125.285L195.905 125.381L195.88 125.478L195.854 125.574L195.843 125.613L195.82 125.695L195.794 125.791L195.768 125.888L195.742 125.984L195.716 126.081L195.689 126.177L195.663 126.273L195.636 126.37L195.624 126.41L195.602 126.49L195.575 126.586L195.548 126.682L195.521 126.778L195.494 126.875L195.467 126.971L195.44 127.067L195.412 127.163L195.399 127.205L195.377 127.283L195.349 127.379L195.321 127.475L195.294 127.571L195.266 127.667L195.238 127.763L195.21 127.859L195.181 127.955L195.168 127.998L195.145 128.074L195.116 128.17L195.088 128.266L195.059 128.361L195.031 128.457L195.002 128.553L194.973 128.649L194.944 128.744L194.929 128.789L194.906 128.863L194.877 128.959L194.848 129.054L194.818 129.15L194.789 129.245L194.759 129.341L194.73 129.436L194.7 129.532L194.685 129.578L194.661 129.651L194.631 129.746L194.601 129.841L194.571 129.936L194.541 130.032L194.51 130.127L194.48 130.222L194.449 130.317L194.433 130.365L194.41 130.436L194.379 130.531L194.348 130.626L194.317 130.721L194.286 130.816L194.255 130.911L194.224 131.006L194.192 131.101L194.175 131.15L194.152 131.219L194.12 131.313L194.088 131.408L194.057 131.503L194.025 131.598L193.993 131.692L193.961 131.787L193.929 131.882L193.91 131.933L193.887 131.999L193.855 132.094L193.822 132.189L193.79 132.283L193.757 132.378L193.724 132.472L193.691 132.566L193.659 132.661L193.639 132.713L193.616 132.778L193.583 132.872L193.55 132.967L193.516 133.061L193.483 133.155L193.449 133.249L193.416 133.343L193.382 133.437L193.362 133.491L193.338 133.554L193.304 133.648L193.27 133.742L193.236 133.836L193.202 133.93L193.168 134.024L193.133 134.118L193.099 134.212L193.078 134.267L193.054 134.328L193.02 134.422L192.985 134.516L192.95 134.609L192.915 134.703L192.88 134.796L192.845 134.89L192.809 134.984L192.787 135.04L192.764 135.1L192.728 135.193L192.693 135.287L192.657 135.38L192.621 135.473L192.586 135.567L192.55 135.66L192.514 135.753L192.49 135.811L192.467 135.869L192.431 135.962L192.394 136.055L192.358 136.148L192.321 136.241L192.285 136.334L192.248 136.427L192.211 136.52L192.187 136.58L192.164 136.635L192.127 136.728L192.09 136.821L192.052 136.914L192.015 137.006L191.978 137.099L191.94 137.192L191.903 137.284L191.877 137.345L191.854 137.399L191.816 137.492L191.779 137.584L191.741 137.677L191.702 137.769L191.664 137.862L191.626 137.954L191.588 138.046L191.561 138.109L191.538 138.161L191.5 138.253L191.461 138.345L191.422 138.437L191.384 138.529L191.345 138.621L191.306 138.713L191.266 138.805L191.239 138.869L191.216 138.92L191.177 139.011L191.137 139.103L191.098 139.195L191.058 139.287L191.019 139.378L190.979 139.47L190.939 139.562L190.91 139.627L190.888 139.676L190.847 139.767L190.807 139.859L190.767 139.95L190.727 140.041L190.686 140.133L190.646 140.224L190.605 140.315L190.575 140.382L190.553 140.429L190.512 140.52L190.471 140.611L190.43 140.702L190.389 140.793L190.348 140.884L190.306 140.975L190.265 141.066L190.234 141.134L190.212 141.179L190.17 141.27L190.129 141.361L190.087 141.452L190.045 141.542L190.003 141.633L189.961 141.724L189.919 141.814L189.886 141.884L189.865 141.927L189.822 142.017L189.78 142.108L189.737 142.198L189.695 142.289L189.652 142.379L189.609 142.469L189.566 142.56L189.532 142.63L189.511 142.672L189.468 142.762L189.425 142.852L189.382 142.942L189.338 143.032L189.295 143.122L189.251 143.212L189.208 143.302L189.172 143.373L189.152 143.413L189.108 143.503L189.064 143.593L189.02 143.683L188.976 143.772L188.932 143.862L188.887 143.951L188.843 144.041L188.806 144.114L188.786 144.152L188.742 144.241L188.697 144.331L188.652 144.42L188.607 144.509L188.562 144.599L188.517 144.688L188.472 144.777L188.434 144.851L188.414 144.888L188.369 144.977L188.324 145.066L188.278 145.155L188.233 145.244L188.187 145.332L188.141 145.421L188.095 145.51L188.056 145.586L188.037 145.62L187.991 145.709L187.944 145.798L187.898 145.886L187.852 145.975L187.806 146.063L187.759 146.152L187.713 146.24L187.672 146.317L187.653 146.35L187.606 146.438L187.559 146.526L187.512 146.614L187.465 146.702L187.418 146.791L187.371 146.879L187.324 146.967L187.281 147.044L187.263 147.076L187.216 147.164L187.168 147.252L187.12 147.339L187.073 147.427L187.025 147.515L186.977 147.603L186.929 147.69L186.885 147.769L186.867 147.799L186.819 147.886L186.771 147.974L186.722 148.061L186.674 148.148L186.625 148.236L186.577 148.323L186.528 148.41L186.483 148.49L186.466 148.518L186.417 148.605L186.368 148.693L186.319 148.78L186.269 148.867L186.22 148.953L186.171 149.04L186.121 149.127L186.075 149.208L186.058 149.235L186.008 149.321L185.959 149.408L185.909 149.495L185.859 149.581L185.809 149.668L185.759 149.754L185.709 149.841L185.661 149.923L185.644 149.948L185.594 150.034L185.544 150.12L185.493 150.206L185.443 150.292L185.392 150.379L185.341 150.465L185.29 150.551L185.241 150.634L185.225 150.657L185.174 150.743L185.123 150.829L185.072 150.915L185.02 151L184.969 151.086L184.918 151.172L184.866 151.257L184.815 151.342L184.8 151.363L184.748 151.449L184.696 151.534L184.644 151.619L184.592 151.705L184.54 151.79L184.488 151.875L184.436 151.96L184.384 152.045L184.369 152.066L184.317 152.151L184.264 152.236L184.211 152.32L184.159 152.405L184.106 152.49L184.053 152.575L184 152.66L183.947 152.744L183.931 152.766L183.879 152.849L183.826 152.934L183.773 153.018L183.719 153.102L183.666 153.187L183.612 153.271L183.559 153.355L183.505 153.44L183.488 153.463L183.436 153.544L183.382 153.628L183.328 153.712L183.274 153.796L183.22 153.88L183.166 153.964L183.111 154.048L183.057 154.131L183.039 154.156L182.987 154.235L182.933 154.319L182.878 154.402L182.823 154.486L182.768 154.569L182.714 154.653L182.658 154.736L182.603 154.819L182.584 154.846L182.533 154.922L182.478 155.006L182.422 155.089L182.367 155.172L182.311 155.255L182.256 155.338L182.2 155.421L182.144 155.504L182.124 155.531L182.073 155.606L182.017 155.689L181.961 155.772L181.905 155.854L181.849 155.937L181.792 156.019L181.736 156.102L181.679 156.184L181.658 156.213L181.607 156.286L181.551 156.368L181.494 156.451L181.437 156.533L181.38 156.615L181.323 156.697L181.266 156.779L181.209 156.861L181.186 156.891L181.136 156.962L181.079 157.044L181.021 157.126L180.964 157.207L180.906 157.289L180.849 157.371L180.791 157.452L180.733 157.534L180.709 157.565L180.659 157.634L180.601 157.716L180.543 157.797L180.485 157.878L180.427 157.959L180.369 158.04L180.31 158.121L180.252 158.202L180.227 158.235L180.177 158.302L180.119 158.383L180.06 158.464L180.001 158.545L179.942 158.626L179.883 158.706L179.824 158.787L179.765 158.867L179.739 158.901L179.69 158.967L179.63 159.047L179.571 159.127L179.512 159.208L179.452 159.288L179.392 159.368L179.333 159.448L179.273 159.528L179.245 159.563L179.197 159.627L179.137 159.707L179.077 159.787L179.017 159.866L178.956 159.946L178.896 160.026L178.836 160.105L178.775 160.185L178.746 160.221L178.698 160.283L178.638 160.362L178.577 160.442L178.516 160.521L178.455 160.6L178.395 160.68L178.334 160.759L178.273 160.838L178.242 160.875L178.195 160.935L178.133 161.014L178.072 161.093L178.011 161.172L177.949 161.25L177.888 161.329L177.826 161.408L177.764 161.486L177.733 161.524L177.686 161.583L177.624 161.661L177.562 161.74L177.5 161.818L177.438 161.896L177.375 161.974L177.313 162.053L177.251 162.131L177.218 162.17L177.171 162.227L177.109 162.305L177.046 162.382L176.984 162.46L176.921 162.538L176.858 162.616L176.795 162.693L176.732 162.771L176.698 162.811L176.652 162.866L176.589 162.944L176.525 163.021L176.462 163.098L176.399 163.175L176.335 163.253L176.272 163.33L176.208 163.407L176.172 163.448L176.127 163.501L176.063 163.578L175.999 163.655L175.936 163.732L175.872 163.809L175.808 163.885L175.743 163.962L175.679 164.038L175.642 164.081L175.597 164.132L175.533 164.209L175.468 164.285L175.404 164.361L175.339 164.437L175.275 164.513L175.21 164.59L175.145 164.665L175.106 164.709L175.062 164.759L174.997 164.835L174.932 164.91L174.867 164.986L174.802 165.062L174.736 165.137L174.671 165.213L174.606 165.288L174.565 165.333L174.522 165.381L174.457 165.456L174.391 165.532L174.325 165.607L174.259 165.682L174.193 165.757L174.127 165.832L174.061 165.907L174.02 165.952L173.977 165.999L173.911 166.074L173.845 166.148L173.778 166.223L173.712 166.297L173.645 166.372L173.579 166.446L173.512 166.521L173.469 166.567L173.427 166.612L173.36 166.686L173.293 166.76L173.226 166.835L173.159 166.909L173.092 166.982L173.025 167.056L172.958 167.13L172.913 167.178L172.872 167.221L172.804 167.295L172.737 167.368L172.669 167.442L172.602 167.515L172.534 167.588L172.466 167.662L172.398 167.735L172.352 167.783L172.312 167.825L172.244 167.898L172.176 167.971L172.108 168.044L172.039 168.117L171.971 168.19L171.903 168.263L171.834 168.335L171.786 168.385L171.747 168.425L171.678 168.497L171.61 168.57L171.541 168.642L171.472 168.714L171.403 168.787L171.334 168.859L171.265 168.931L171.216 168.981L171.177 169.02L171.108 169.092L171.039 169.163L170.969 169.235L170.9 169.307L170.83 169.379L170.761 169.451L170.691 169.522L170.64 169.573L170.603 169.61L170.533 169.681L170.463 169.753L170.393 169.824L170.323 169.895L170.253 169.966L170.183 170.037L170.113 170.108L170.06 170.16L170.023 170.195L169.953 170.266L169.882 170.337L169.812 170.408L169.741 170.478L169.671 170.549L169.6 170.62L169.529 170.69L169.475 170.743L169.439 170.776L169.368 170.847L169.297 170.917L169.226 170.987L169.155 171.057L169.084 171.127L169.012 171.197L168.941 171.267L168.885 171.32L168.85 171.352L168.779 171.422L168.707 171.492L168.636 171.561L168.564 171.631L168.492 171.7L168.42 171.769L168.348 171.839L168.291 171.893L168.257 171.924L168.185 171.993L168.113 172.062L168.04 172.131L167.968 172.2L167.896 172.268L167.823 172.337L167.751 172.406L167.692 172.461L167.659 172.49L167.586 172.558L167.513 172.627L167.441 172.695L167.368 172.764L167.295 172.832L167.222 172.9L167.149 172.968L167.088 173.024L167.056 173.051L166.983 173.119L166.91 173.187L166.836 173.255L166.763 173.323L166.689 173.39L166.616 173.458L166.542 173.525L166.48 173.582L166.449 173.608L166.375 173.675L166.301 173.743L166.227 173.81L166.153 173.877L166.079 173.944L166.005 174.011L165.931 174.078L165.867 174.135L165.837 174.159L165.763 174.226L165.688 174.293L165.614 174.359L165.54 174.426L165.465 174.492L165.39 174.559L165.316 174.625L165.25 174.683L165.221 174.706L165.146 174.772L165.071 174.838L164.996 174.904L164.921 174.97L164.846 175.036L164.771 175.102L164.696 175.167L164.628 175.226L164.6 175.247L164.525 175.313L164.449 175.378L164.374 175.444L164.298 175.509L164.223 175.574L164.147 175.639L164.071 175.704L164.002 175.763L163.975 175.784L163.899 175.849L163.823 175.914L163.747 175.978L163.671 176.043L163.595 176.108L163.519 176.172L163.443 176.237L163.372 176.296L163.346 176.315L163.269 176.379L163.193 176.444L163.116 176.508L163.04 176.572L162.963 176.636L162.887 176.7L162.81 176.763L162.737 176.824L162.712 176.841L162.635 176.905L162.558 176.968L162.481 177.032L162.404 177.095L162.327 177.159L162.25 177.222L162.172 177.285L162.098 177.346L162.074 177.362L161.997 177.425L161.919 177.488L161.842 177.551L161.764 177.614L161.687 177.676L161.609 177.739L161.531 177.802L161.455 177.863L161.432 177.878L161.354 177.94L161.276 178.003L161.198 178.065L161.12 178.127L161.042 178.189L160.964 178.251L160.885 178.313L160.807 178.375L160.786 178.388L160.708 178.45L160.629 178.512L160.55 178.573L160.472 178.635L160.393 178.696L160.314 178.758L160.236 178.819L160.157 178.88L160.134 178.894L160.057 178.955L159.978 179.016L159.898 179.076L159.819 179.137L159.74 179.198L159.661 179.259L159.582 179.319L159.502 179.38L159.479 179.395L159.402 179.454L159.322 179.514L159.243 179.574L159.163 179.635L159.083 179.695L159.003 179.755L158.924 179.815L158.844 179.875L158.819 179.891L158.743 179.947L158.663 180.007L158.582 180.067L158.502 180.126L158.422 180.186L158.342 180.245L158.262 180.305L158.181 180.364L158.155 180.381L158.08 180.436L157.999 180.495L157.918 180.554L157.838 180.613L157.757 180.672L157.677 180.73L157.596 180.789L157.515 180.848L157.487 180.865L157.412 180.919L157.332 180.977L157.251 181.035L157.169 181.094L157.088 181.152L157.007 181.21L156.926 181.268L156.845 181.326L156.815 181.344L156.742 181.396L156.66 181.454L156.579 181.512L156.497 181.569L156.416 181.627L156.334 181.684L156.252 181.741L156.17 181.799L156.139 181.818L156.067 181.868L155.985 181.925L155.903 181.982L155.821 182.039L155.739 182.096L155.657 182.153L155.575 182.209L155.492 182.266L155.46 182.286L155.388 182.335L155.306 182.391L155.223 182.447L155.141 182.503L155.058 182.56L154.976 182.616L154.893 182.672L154.811 182.728L154.776 182.748L154.706 182.795L154.623 182.851L154.54 182.907L154.457 182.962L154.374 183.018L154.291 183.073L154.208 183.129L154.125 183.184L154.089 183.205L154.02 183.251L153.936 183.306L153.853 183.361L153.77 183.415L153.686 183.47L153.603 183.525L153.519 183.58L153.436 183.634L153.398 183.656L153.33 183.7L153.246 183.754L153.162 183.809L153.079 183.863L152.995 183.917L152.911 183.971L152.827 184.025L152.743 184.079L152.704 184.102L152.636 184.144L152.552 184.198L152.468 184.251L152.384 184.305L152.3 184.358L152.215 184.412L152.131 184.465L152.046 184.518L152.006 184.542L151.939 184.582L151.855 184.635L151.77 184.688L151.686 184.741L151.601 184.794L151.516 184.846L151.431 184.899L151.346 184.951L151.304 184.976L151.239 185.015L151.154 185.067L151.069 185.119L150.984 185.171L150.898 185.223L150.813 185.275L150.728 185.327L150.643 185.379L150.599 185.404L150.535 185.441L150.449 185.493L150.364 185.544L150.278 185.596L150.193 185.647L150.107 185.698L150.021 185.75L149.936 185.801L149.89 185.826L149.827 185.862L149.741 185.913L149.655 185.964L149.569 186.015L149.483 186.065L149.397 186.116L149.311 186.166L149.225 186.217L149.178 186.243L149.116 186.277L149.03 186.327L148.944 186.378L148.857 186.428L148.771 186.478L148.684 186.527L148.598 186.577L148.511 186.627L148.462 186.653L148.402 186.687L148.315 186.736L148.228 186.785L148.142 186.835L148.055 186.884L147.968 186.933L147.881 186.982L147.794 187.031L147.743 187.058L147.684 187.09L147.597 187.139L147.51 187.187L147.423 187.236L147.336 187.284L147.248 187.333L147.161 187.381L147.074 187.429L147.021 187.457L146.963 187.487L146.876 187.535L146.788 187.583L146.701 187.631L146.613 187.679L146.525 187.727L146.438 187.774L146.35 187.822L146.296 187.85L146.239 187.879L146.151 187.926L146.063 187.973L145.975 188.02L145.887 188.068L145.799 188.115L145.711 188.161L145.623 188.208L145.567 188.236L145.512 188.264L145.424 188.311L145.335 188.357L145.247 188.404L145.159 188.45L145.07 188.496L144.982 188.543L144.893 188.589L144.836 188.617L144.781 188.644L144.693 188.69L144.604 188.735L144.515 188.781L144.427 188.827L144.338 188.872L144.249 188.918L144.16 188.963L144.101 188.992L144.048 189.017L143.959 189.062L143.87 189.107L143.781 189.152L143.692 189.197L143.602 189.242L143.513 189.287L143.424 189.331L143.363 189.361L143.311 189.385L143.222 189.429L143.132 189.473L143.043 189.518L142.954 189.562L142.864 189.606L142.774 189.65L142.685 189.694L142.622 189.723L142.572 189.746L142.482 189.79L142.392 189.833L142.302 189.877L142.213 189.92L142.123 189.963L142.033 190.007L141.943 190.05L141.878 190.08L141.829 190.101L141.739 190.144L141.649 190.187L141.559 190.23L141.469 190.272L141.378 190.315L141.288 190.357L141.198 190.4L141.131 190.43L141.084 190.45L140.993 190.492L140.903 190.535L140.812 190.577L140.722 190.618L140.631 190.66L140.541 190.702L140.45 190.744L140.382 190.774L140.336 190.793L140.245 190.835L140.154 190.876L140.063 190.917L139.972 190.958L139.881 190.999L139.79 191.041L139.699 191.081L139.629 191.112L139.585 191.13L139.494 191.171L139.402 191.211L139.311 191.252L139.22 191.292L139.129 191.332L139.037 191.373L138.946 191.413L138.874 191.443L138.831 191.46L138.739 191.5L138.648 191.54L138.557 191.58L138.465 191.62L138.373 191.659L138.282 191.699L138.19 191.738L138.117 191.769L138.074 191.785L137.983 191.824L137.891 191.863L137.799 191.902L137.707 191.941L137.615 191.98L137.523 192.019L137.431 192.057L137.356 192.088L137.315 192.103L137.223 192.141L137.131 192.18L137.039 192.218L136.947 192.256L136.855 192.294L136.763 192.332L136.67 192.37L136.593 192.401L136.554 192.415L136.461 192.452L136.369 192.49L136.277 192.527L136.184 192.565L136.092 192.602L135.999 192.639L135.906 192.676L135.827 192.707L135.79 192.72L135.697 192.757L135.604 192.794L135.512 192.83L135.419 192.867L135.326 192.904L135.233 192.94L135.14 192.976L135.059 193.007L135.023 193.019L134.93 193.055L134.837 193.091L134.744 193.127L134.651 193.163L134.558 193.199L134.465 193.235L134.372 193.27L134.289 193.301L134.254 193.312L134.161 193.347L134.068 193.383L133.974 193.418L133.881 193.453L133.787 193.488L133.694 193.523L133.6 193.558L133.516 193.589L133.483 193.598L133.389 193.633L133.296 193.668L133.202 193.702L133.108 193.736L133.015 193.771L132.921 193.805L132.827 193.839L132.741 193.87L132.709 193.878L132.615 193.912L132.521 193.946L132.427 193.98L132.333 194.013L132.239 194.047L132.145 194.08L132.051 194.113L131.963 194.144L131.933 194.152L131.839 194.185L131.745 194.218L131.651 194.251L131.556 194.284L131.462 194.316L131.368 194.349L131.273 194.382L131.183 194.412L131.155 194.419L131.06 194.452L130.966 194.484L130.871 194.516L130.777 194.548L130.683 194.58L130.588 194.612L130.493 194.643L130.401 194.674L130.374 194.68L130.28 194.712L130.185 194.743L130.09 194.774L129.996 194.806L129.901 194.837L129.806 194.868L129.711 194.899L129.617 194.929L129.592 194.934L129.497 194.965L129.402 194.996L129.307 195.026L129.212 195.057L129.117 195.087L129.022 195.117L128.927 195.147L128.832 195.178L128.807 195.182L128.712 195.212L128.617 195.242L128.522 195.272L128.427 195.301L128.331 195.331L128.236 195.36L128.141 195.39L128.045 195.419L128.019 195.424L127.925 195.453L127.83 195.482L127.735 195.511L127.639 195.54L127.544 195.568L127.448 195.597L127.353 195.626L127.257 195.654L127.228 195.66L127.137 195.687L127.041 195.715L126.945 195.743L126.85 195.771L126.754 195.799L126.658 195.827L126.562 195.855L126.467 195.883L126.436 195.889L126.346 195.914L126.25 195.942L126.154 195.969L126.058 195.997L125.962 196.024L125.866 196.051L125.77 196.078L125.674 196.105L125.643 196.111L125.554 196.135L125.458 196.162L125.361 196.189L125.265 196.215L125.169 196.242L125.073 196.268L124.977 196.294L124.88 196.32L124.847 196.327L124.759 196.35L124.663 196.376L124.567 196.402L124.47 196.427L124.374 196.453L124.278 196.478L124.181 196.504L124.085 196.529L124.049 196.536L123.963 196.558L123.867 196.583L123.77 196.608L123.674 196.633L123.577 196.658L123.481 196.682L123.384 196.707L123.287 196.732L123.25 196.738L123.166 196.759L123.069 196.783L122.972 196.808L122.876 196.832L122.779 196.856L122.682 196.88L122.585 196.903L122.488 196.927L122.45 196.934L122.367 196.954L122.27 196.977L122.173 197.001L122.076 197.024L121.979 197.047L121.882 197.07L121.785 197.093L121.688 197.116L121.647 197.123L121.566 197.142L121.469 197.165L121.372 197.187L121.275 197.21L121.177 197.232L121.08 197.254L120.983 197.277L120.886 197.299L120.844 197.306L120.764 197.323L120.666 197.345L120.569 197.367L120.472 197.389L120.374 197.41L120.277 197.432L120.18 197.453L120.082 197.475L120.038 197.482L119.96 197.498L119.862 197.519L119.765 197.54L119.667 197.561L119.57 197.582L119.472 197.603L119.375 197.624L119.277 197.644L119.232 197.651L119.155 197.666L119.057 197.687L118.959 197.707L118.862 197.727L118.764 197.747L118.666 197.767L118.569 197.787L118.471 197.807L118.424 197.814L118.348 197.828L118.25 197.848L118.153 197.867L118.055 197.886L117.957 197.906L117.859 197.925L117.761 197.944L117.663 197.963L117.614 197.97L117.54 197.983L117.442 198.002L117.345 198.02L117.247 198.039L117.149 198.057L117.051 198.076L116.953 198.094L116.854 198.112L116.804 198.119L116.731 198.132L116.633 198.149L116.581 198.161L116.532 198.172L116.484 198.183L116.435 198.193L116.386 198.204L116.337 198.214L116.334 198.215L116.313 198.219L116.264 198.23L116.215 198.24L116.166 198.25L116.117 198.26L116.068 198.27L116.019 198.28L115.97 198.29L115.965 198.29L115.945 198.293L115.896 198.303L115.847 198.312L115.798 198.322L115.748 198.331L115.699 198.34L115.65 198.349L115.601 198.358L115.594 198.359L115.576 198.361L115.527 198.37L115.477 198.379L115.428 198.387L115.379 198.396L115.329 198.404L115.28 198.412L115.231 198.421L115.222 198.421L115.206 198.423L115.156 198.43L115.107 198.438L115.057 198.446L115.008 198.454L114.958 198.462L114.909 198.469L114.859 198.476L114.849 198.477L114.834 198.477L114.784 198.485L114.735 198.492L114.685 198.499L114.635 198.506L114.586 198.513L114.536 198.519L114.486 198.526L114.474 198.526L114.461 198.526L114.411 198.532L114.361 198.539L114.312 198.545L114.262 198.551L114.212 198.557L114.162 198.563L114.112 198.569L114.098 198.569L114.086 198.568L114.037 198.574L113.987 198.579L113.937 198.585L113.887 198.59L113.837 198.595L113.787 198.601L113.737 198.606L113.721 198.605L113.711 198.604L113.661 198.609L113.611 198.613L113.561 198.618L113.511 198.623L113.46 198.627L113.41 198.632L113.36 198.636L113.343 198.635L113.334 198.633L113.284 198.637L113.234 198.641L113.183 198.645L113.133 198.649L113.083 198.653L113.033 198.656L112.982 198.66L112.963 198.659L112.956 198.656L112.906 198.659L112.855 198.662L112.805 198.665L112.754 198.668L112.704 198.671L112.654 198.674L112.603 198.677L112.582 198.676L112.577 198.672L112.526 198.675L112.476 198.677L112.425 198.68L112.375 198.682L112.324 198.684L112.273 198.686L112.223 198.688L112.2 198.686L112.196 198.682L112.146 198.684L112.095 198.686L112.044 198.687L111.994 198.689L111.943 198.69L111.892 198.691L111.841 198.693L111.817 198.69L111.814 198.686L111.764 198.687L111.713 198.688L111.662 198.688L111.611 198.689L111.561 198.69L111.51 198.69L111.459 198.691L111.432 198.688L111.432 198.683L111.381 198.683L111.33 198.683L111.279 198.683L111.228 198.683L111.177 198.683L111.126 198.683L111.075 198.682L111.047 198.68L111.048 198.674L110.997 198.673L110.946 198.672L110.895 198.672L110.844 198.671L110.793 198.67L110.742 198.669L110.691 198.668L110.66 198.664L110.663 198.658L110.612 198.657L110.561 198.655L110.51 198.654L110.458 198.652L110.407 198.65L110.356 198.648L110.305 198.646L110.273 198.643L110.277 198.636L110.226 198.634L110.175 198.632L110.123 198.629L110.072 198.627L110.021 198.624L109.969 198.622L109.918 198.619L109.884 198.615L109.89 198.607L109.839 198.605L109.787 198.601L109.736 198.598L109.685 198.595L109.633 198.592L109.582 198.589L109.53 198.585L109.494 198.58L109.502 198.573L109.451 198.569L109.399 198.565L109.348 198.561L109.296 198.557L109.245 198.553L109.193 198.549L109.142 198.545L109.104 198.54L109.113 198.531L109.062 198.527L109.01 198.522L108.958 198.518L108.907 198.513L108.855 198.508L108.803 198.503L108.752 198.498L108.712 198.492L108.723 198.484L108.672 198.478L108.62 198.473L108.568 198.468L108.516 198.462L108.465 198.457L108.413 198.451L108.361 198.445L108.32 198.439L108.332 198.43L108.281 198.424L108.229 198.418L108.177 198.411L108.125 198.405L108.073 198.399L108.021 198.392L107.97 198.386L107.927 198.379L107.941 198.369L107.889 198.363L107.837 198.356L107.785 198.349L107.733 198.342L107.681 198.334L107.629 198.327L107.577 198.32L107.532 198.312L107.548 198.303L107.496 198.295L107.444 198.287L107.392 198.28L107.34 198.272L107.288 198.264L107.236 198.256L107.184 198.248L107.137 198.239L107.155 198.229L107.103 198.221L107.051 198.213L106.998 198.204L106.946 198.196L106.894 198.187L106.842 198.178L106.79 198.169L106.741 198.16L106.76 198.15L106.708 198.141L106.656 198.132L106.604 198.123L106.552 198.113L106.499 198.104L106.447 198.094L106.395 198.085L106.345 198.075L106.365 198.064L106.313 198.055L106.261 198.045L106.209 198.035L106.156 198.024L106.104 198.014L106.052 198.004L105.999 197.993L105.947 197.983L105.97 197.972L105.945 197.934L105.968 197.848L105.99 197.763L106.013 197.677L106.036 197.591L106.058 197.506L106.081 197.42L106.103 197.334L106.126 197.301L106.148 197.237L106.171 197.152L106.193 197.066L106.216 196.98L106.238 196.894L106.261 196.808L106.283 196.722L106.306 196.636L106.328 196.602L106.351 196.539L106.373 196.453L106.396 196.367L106.418 196.281L106.44 196.195L106.463 196.109L106.485 196.023L106.508 195.937L106.53 195.901L106.552 195.84L106.575 195.754L106.597 195.668L106.619 195.581L106.642 195.495L106.664 195.409L106.686 195.323L106.709 195.236L106.731 195.198L106.753 195.139L106.776 195.052L106.798 194.966L106.82 194.88L106.842 194.793L106.865 194.707L106.887 194.62L106.909 194.534L106.931 194.494L106.953 194.436L106.976 194.349L106.998 194.263L107.02 194.176L107.042 194.09L107.064 194.003L107.086 193.917L107.108 193.83L107.13 193.788L107.153 193.732L107.175 193.645L107.197 193.558L107.219 193.471L107.241 193.385L107.263 193.298L107.285 193.211L107.307 193.124L107.329 193.08L107.351 193.026L107.373 192.939L107.395 192.852L107.417 192.765L107.439 192.678L107.461 192.591L107.483 192.504L107.505 192.417L107.527 192.371L107.549 192.318L107.57 192.231L107.592 192.144L107.614 192.057L107.636 191.97L107.658 191.883L107.68 191.796L107.702 191.709L107.723 191.661L107.745 191.609L107.767 191.522L107.789 191.435L107.811 191.347L107.832 191.26L107.854 191.173L107.876 191.086L107.898 190.998L107.919 190.949L107.941 190.899L107.963 190.811L107.985 190.724L108.006 190.636L108.028 190.549L108.05 190.461L108.071 190.374L108.093 190.286L108.114 190.235L108.136 190.186L108.158 190.099L108.179 190.011L108.201 189.924L108.222 189.836L108.244 189.748L108.266 189.661L108.287 189.573L108.309 189.52L108.33 189.473L108.352 189.385L108.373 189.297L108.395 189.21L108.416 189.122L108.438 189.034L108.459 188.946L108.48 188.858L108.502 188.803L108.523 188.758L108.545 188.67L108.566 188.582L108.587 188.494L108.609 188.406L108.63 188.318L108.652 188.23L108.673 188.142L108.694 188.085L108.716 188.041L108.737 187.953L108.758 187.865L108.779 187.777L108.801 187.688L108.822 187.6L108.843 187.512L108.864 187.424L108.886 187.365L108.907 187.323L108.928 187.234L108.949 187.146L108.97 187.058L108.992 186.969L109.013 186.881L109.034 186.793L109.055 186.705L109.076 186.644L109.097 186.603L109.118 186.514L109.139 186.426L109.16 186.338L109.181 186.249L109.203 186.161L109.224 186.072L109.245 185.984L109.266 185.921L109.287 185.881L109.308 185.793L109.329 185.704L109.349 185.616L109.37 185.527L109.391 185.438L109.412 185.35L109.433 185.261L109.454 185.196L109.475 185.159L109.496 185.07L109.517 184.981L109.538 184.892L109.558 184.804L109.579 184.715L109.6 184.626L109.621 184.537L109.642 184.47L109.662 184.434L109.683 184.346L109.704 184.257L109.725 184.168L109.745 184.079L109.766 183.99L109.787 183.901L109.808 183.812L109.828 183.743L109.849 183.709L109.87 183.62L109.89 183.53L109.911 183.441L109.931 183.352L109.952 183.263L109.973 183.174L109.993 183.085L110.014 183.014L110.034 182.981L110.055 182.892L110.075 182.803L110.096 182.714L110.116 182.624L110.137 182.535L110.157 182.446L110.178 182.356L110.198 182.284L110.219 182.253L110.239 182.163L110.26 182.074L110.28 181.984L110.3 181.895L110.321 181.805L110.341 181.716L110.361 181.627L110.382 181.552L110.402 181.522L110.422 181.433L110.443 181.343L110.463 181.254L110.483 181.164L110.504 181.074L110.524 180.985L110.544 180.895L110.564 180.819L110.584 180.791L110.605 180.701L110.625 180.611L110.645 180.522L110.665 180.432L110.685 180.342L110.705 180.252L110.725 180.162L110.746 180.084L110.766 180.058L110.786 179.968L110.806 179.878L110.826 179.788L110.846 179.698L110.866 179.608L110.886 179.518L110.906 179.428L110.926 179.348L110.946 179.323L110.966 179.233L110.986 179.143L111.006 179.053L111.026 178.963L111.046 178.873L111.065 178.783L111.085 178.692L111.105 178.611L111.125 178.587L111.145 178.497L111.165 178.407L111.184 178.316L111.204 178.226L111.224 178.136L111.244 178.046L111.264 177.955L111.283 177.872L111.303 177.85L111.323 177.759L111.342 177.669L111.362 177.579L111.382 177.488L111.401 177.398L111.421 177.307L111.441 177.217L111.46 177.131L111.48 177.111L111.499 177.02L111.519 176.93L111.539 176.839L111.558 176.749L111.578 176.658L111.597 176.567L111.617 176.477L111.636 176.389L111.656 176.37L111.675 176.28L111.695 176.189L111.714 176.098L111.733 176.008L111.753 175.917L111.772 175.826L111.792 175.735L111.811 175.646L111.83 175.629L111.85 175.538L111.869 175.447L111.888 175.356L111.908 175.265L111.927 175.174L111.946 175.084L111.965 174.993L111.985 174.902L112.004 174.885L112.023 174.795L112.042 174.704L112.061 174.613L112.081 174.522L112.1 174.431L112.119 174.34L112.138 174.248L112.157 174.157L112.176 174.139L112.195 174.05L112.214 173.959L112.233 173.868L112.252 173.777L112.271 173.685L112.29 173.594L112.309 173.503L112.328 173.412L112.347 173.392L112.366 173.304L112.385 173.213L112.404 173.121L112.423 173.03L112.442 172.939L112.461 172.847L112.48 172.756L112.498 172.665L112.517 172.643L112.536 172.557L112.555 172.465L112.574 172.374L112.592 172.282L112.611 172.191L112.63 172.099L112.649 172.008L112.667 171.916L112.686 171.892L112.705 171.808L112.723 171.716L112.742 171.625L112.761 171.533L112.779 171.441L112.798 171.35L112.816 171.258L112.835 171.166L112.854 171.141L112.872 171.058L112.891 170.966L112.909 170.874L112.928 170.782L112.946 170.691L112.965 170.599L112.983 170.507L113.002 170.415L113.02 170.388L113.038 170.306L113.057 170.214L113.075 170.122L113.093 170.03L113.112 169.938L113.13 169.846L113.148 169.755L113.167 169.662L113.185 169.633L113.203 169.553L113.222 169.461L113.24 169.369L113.258 169.277L113.276 169.185L113.294 169.093L113.313 169.001L113.331 168.909L113.349 168.877L113.367 168.799L113.385 168.707L113.403 168.615L113.421 168.523L113.439 168.43L113.457 168.338L113.475 168.246L113.494 168.153L113.511 168.12L113.529 168.044L113.547 167.951L113.565 167.859L113.583 167.767L113.601 167.674L113.619 167.582L113.637 167.489L113.655 167.397L113.673 167.362L113.691 167.287L113.709 167.194L113.726 167.102L113.744 167.009L113.762 166.917L113.78 166.824L113.797 166.732L113.815 166.639L113.833 166.602L113.851 166.529L113.868 166.436L113.886 166.343L113.904 166.251L113.921 166.158L113.939 166.065L113.956 165.973L113.974 165.88L113.992 165.841L114.009 165.769L114.027 165.677L114.044 165.584L114.062 165.491L114.079 165.398L114.097 165.305L114.114 165.212L114.132 165.119L114.149 165.079L114.166 165.009L114.184 164.916L114.201 164.823L114.219 164.73L114.236 164.637L114.253 164.544L114.271 164.451L114.288 164.358L114.305 164.315L114.322 164.247L114.34 164.153L114.357 164.06L114.374 163.967L114.391 163.874L114.408 163.781L114.426 163.688L114.443 163.595L114.46 163.55L114.477 163.483L114.494 163.39L114.511 163.297L114.528 163.204L114.545 163.11L114.562 163.017L114.579 162.924L114.596 162.83L114.613 162.784L114.63 162.719L114.647 162.625L114.664 162.532L114.681 162.439L114.698 162.345L114.715 162.252L114.732 162.158L114.749 162.065L114.765 162.017L114.782 161.953L114.799 161.859L114.816 161.766L114.832 161.672L114.849 161.579L114.866 161.485L114.883 161.392L114.899 161.298L114.916 161.248L114.933 161.186L114.949 161.092L114.966 160.999L114.983 160.905L114.999 160.811L115.016 160.717L115.032 160.624L115.049 160.53L115.065 160.478L115.082 160.417L115.098 160.324L115.115 160.23L115.131 160.136L115.148 160.042L115.164 159.948L115.18 159.855L115.197 159.761L115.213 159.707L115.23 159.648L115.246 159.554L115.262 159.46L115.278 159.366L115.295 159.272L115.311 159.178L115.327 159.084L115.343 158.99L115.36 158.935L115.376 158.877L115.392 158.783L115.408 158.689L115.424 158.595L115.44 158.501L115.457 158.407L115.473 158.313L115.489 158.219L115.505 158.161L115.521 158.105L115.537 158.011L115.553 157.917L115.569 157.823L115.585 157.728L115.601 157.634L115.617 157.54L115.632 157.446L115.648 157.386L115.664 157.332L115.68 157.238L115.696 157.143L115.712 157.049L115.728 156.955L115.743 156.86L115.759 156.766L115.775 156.672L115.791 156.611L115.806 156.558L115.822 156.463L115.838 156.369L115.853 156.274L115.869 156.18L115.884 156.085L115.9 155.991L115.916 155.896L115.931 155.833L115.947 155.782L115.962 155.688L115.978 155.593L115.993 155.498L116.009 155.404L116.024 155.309L116.04 155.214L116.055 155.12L116.07 155.055L116.086 155.005L116.101 154.911L116.117 154.816L116.132 154.721L116.147 154.626L116.162 154.532L116.178 154.437L116.193 154.342L116.208 154.276L116.223 154.228L116.239 154.133L116.254 154.038L116.269 153.943L116.284 153.848L116.299 153.753L116.314 153.658L116.329 153.563L116.344 153.495L116.359 153.449L116.374 153.354L116.389 153.259L116.404 153.164L116.419 153.069L116.434 152.974L116.449 152.879L116.464 152.783L116.479 152.713L116.494 152.668L116.509 152.573L116.524 152.478L116.539 152.383L116.553 152.288L116.568 152.193L116.583 152.098L116.598 152.002L116.612 151.93L116.627 151.887L116.642 151.792L116.656 151.697L116.671 151.601L116.686 151.506L116.7 151.411L116.715 151.316L116.729 151.22L116.744 151.146L116.758 151.105L116.773 151.009L116.787 150.914L116.802 150.819L116.816 150.723L116.831 150.628L116.845 150.532L116.86 150.437L116.874 150.361L116.888 150.321L116.903 150.226L116.917 150.13L116.931 150.035L116.946 149.939L116.96 149.844L116.974 149.748L116.988 149.653L117.003 149.575L117.017 149.536L117.031 149.441L117.045 149.345L117.059 149.25L117.073 149.154L117.087 149.058L117.101 148.963L117.116 148.867L117.13 148.788L117.144 148.751L117.158 148.655L117.172 148.559L117.185 148.464L117.199 148.368L117.213 148.272L117.227 148.176L117.241 148.08L117.255 147.999L117.269 147.964L117.283 147.868L117.296 147.772L117.31 147.676L117.324 147.58L117.338 147.485L117.351 147.389L117.365 147.293L117.379 147.21L117.392 147.176L117.406 147.08L117.42 146.984L117.433 146.888L117.447 146.792L117.46 146.696L117.474 146.6L117.487 146.504L117.501 146.419L117.514 146.387L117.528 146.291L117.541 146.195L117.555 146.099L117.568 146.003L117.581 145.907L117.595 145.811L117.608 145.714L117.621 145.627L117.635 145.597L117.648 145.501L117.661 145.405L117.674 145.309L117.687 145.212L117.701 145.116L117.714 145.02L117.727 144.924L117.74 144.835L117.753 144.806L117.766 144.71L117.779 144.613L117.792 144.517L117.805 144.421L117.818 144.324L117.831 144.228L117.844 144.132L117.857 144.041L117.87 144.014L117.883 143.918L117.896 143.821L117.909 143.725L117.922 143.628L117.934 143.532L117.947 143.435L117.96 143.339L117.973 143.247L117.986 143.221L117.998 143.124L118.011 143.028L118.024 142.931L118.036 142.835L118.049 142.738L118.061 142.642L118.074 142.545L118.087 142.451L118.099 142.427L118.112 142.33L118.124 142.234L118.137 142.137L118.149 142.04L118.162 141.944L118.174 141.847L118.186 141.75L118.199 141.654L118.211 141.632L118.223 141.535L118.236 141.438L118.248 141.342L118.26 141.245L118.273 141.148L118.285 141.051L118.297 140.955L118.309 140.858L118.321 140.835L118.333 140.739L118.346 140.642L118.358 140.545L118.37 140.449L118.382 140.352L118.394 140.255L118.406 140.158L118.418 140.061L118.43 140.036L118.442 139.942L118.454 139.845L118.466 139.748L118.478 139.651L118.489 139.554L118.501 139.457L118.513 139.36L118.525 139.263L118.537 139.237L118.548 139.144L118.56 139.047L118.572 138.95L118.584 138.853L118.595 138.756L118.607 138.659L118.618 138.562L118.63 138.464L118.642 138.436L118.653 138.345L118.665 138.248L118.676 138.151L118.688 138.054L118.699 137.956L118.711 137.859L118.722 137.762L118.733 137.665L118.745 137.635L118.756 137.545L118.768 137.448L118.779 137.351L118.79 137.253L118.801 137.156L118.813 137.059L118.824 136.962L118.835 136.864L118.846 136.832L118.858 136.744L118.869 136.647L118.88 136.55L118.891 136.452L118.902 136.355L118.913 136.258L118.924 136.16L118.935 136.063L118.946 136.029L118.957 135.943L118.968 135.845L118.979 135.748L118.99 135.65L119.001 135.553L119.011 135.455L119.022 135.358L119.033 135.26L119.044 135.225L119.055 135.14L119.065 135.043L119.076 134.945L119.087 134.848L119.097 134.75L119.108 134.652L119.119 134.555L119.129 134.457L119.14 134.42L119.151 134.337L119.161 134.239L119.172 134.142L119.182 134.044L119.193 133.946L119.203 133.848L119.213 133.751L119.224 133.653L119.234 133.614L119.245 133.533L119.255 133.435L119.265 133.337L119.275 133.239L119.286 133.142L119.296 133.044L119.306 132.946L119.316 132.848L119.327 132.807L119.337 132.728L119.347 132.63L119.357 132.532L119.367 132.434L119.377 132.336L119.387 132.238L119.397 132.14L119.407 132.042L119.417 131.999L119.427 131.922L119.437 131.824L119.447 131.726L119.457 131.628L119.467 131.53L119.476 131.432L119.486 131.334L119.496 131.236L119.506 131.191L119.515 131.115L119.525 131.017L119.535 130.919L119.545 130.821L119.554 130.723L119.564 130.625L119.573 130.527L119.583 130.429L119.592 130.382L119.602 130.307L119.612 130.209L119.621 130.111L119.63 130.013L119.64 129.915L119.649 129.817L119.659 129.719L119.668 129.62L119.677 129.572L119.687 129.499L119.696 129.401L119.705 129.303L119.714 129.204L119.724 129.106L119.733 129.008L119.742 128.91L119.751 128.811L119.76 128.761L119.769 128.69L119.779 128.592L119.788 128.493L119.797 128.395L119.806 128.297L119.815 128.198L119.824 128.1L119.832 128.002L119.841 127.95L119.85 127.88L119.859 127.782L119.868 127.683L119.877 127.585L119.886 127.487L119.894 127.388L119.903 127.29L119.912 127.191L119.92 127.138L119.929 127.07L119.938 126.971L119.946 126.873L119.955 126.774L119.964 126.676L119.972 126.577L119.981 126.479L119.989 126.38L119.998 126.325L120.006 126.258L120.015 126.16L120.023 126.061L120.031 125.963L120.04 125.864L120.048 125.766L120.056 125.667L120.065 125.568L120.073 125.511L120.081 125.446L120.089 125.348L120.097 125.249L120.106 125.15L120.114 125.052L120.122 124.953L120.13 124.855L120.138 124.756L120.146 124.697L120.154 124.634L120.162 124.535L120.17 124.436L120.178 124.338L120.186 124.239L120.194 124.14L120.202 124.041L120.21 123.943L120.217 123.882L120.225 123.82L120.233 123.722L120.241 123.623L120.248 123.524L120.256 123.425L120.264 123.326L120.271 123.228L120.279 123.129L120.287 123.066L120.294 123.006L120.302 122.907L120.309 122.809L120.317 122.71L120.324 122.611L120.332 122.512L120.339 122.413L120.346 122.314L120.354 122.25L120.361 122.192L120.369 122.093L120.376 121.994L120.383 121.895L120.39 121.796L120.398 121.697L120.405 121.598L120.412 121.499L120.419 121.433L120.426 121.376L120.433 121.277L120.44 121.178L120.447 121.079L120.454 120.981L120.461 120.882L120.468 120.783L120.475 120.684L120.482 120.615L120.489 120.561L120.496 120.461L120.503 120.362L120.51 120.263L120.516 120.164L120.523 120.065L120.53 119.966L120.537 119.867L120.543 119.797L120.55 119.744L120.557 119.645L120.563 119.546L120.57 119.447L120.576 119.348L120.583 119.249L120.59 119.149L120.596 119.05L120.602 118.979L120.609 118.927L120.615 118.828L120.622 118.729L120.628 118.63L120.634 118.53L120.641 118.431L120.647 118.332L120.653 118.233L120.66 118.159L120.666 118.11L120.672 118.01L120.678 117.911L120.684 117.812L120.69 117.713L120.696 117.613L120.702 117.514L120.708 117.415L120.714 117.34L120.72 117.291L120.726 117.192L120.732 117.093L120.738 116.994L120.744 116.894L120.75 116.795L120.756 116.696L120.762 116.596L120.767 116.519L120.773 116.473L120.779 116.373L120.784 116.274L120.79 116.175L120.796 116.075L120.801 115.976L120.807 115.877L120.813 115.777L120.818 115.699L120.824 115.654L120.829 115.554L120.835 115.455L120.84 115.356L120.845 115.256L120.851 115.157L120.856 115.057L120.861 114.958L120.867 114.877L120.872 114.834L120.877 114.735L120.882 114.635L120.888 114.536L120.893 114.436L120.898 114.337L120.903 114.237L120.908 114.138L120.913 114.056L120.918 114.014L120.923 113.915L120.928 113.815L120.933 113.716L120.938 113.616L120.943 113.517L120.948 113.417L120.953 113.318L120.958 113.233L120.962 113.194L120.967 113.094L120.972 112.995L120.977 112.895L120.981 112.795L120.986 112.696L120.991 112.596L120.995 112.497L121 112.411L121.005 112.373L121.009 112.273L121.014 112.174L121.018 112.074L121.022 111.974L121.027 111.875L121.031 111.775L121.036 111.676L121.04 111.588L121.044 111.551L121.049 111.452L121.053 111.352L121.057 111.253L121.061 111.153L121.066 111.053L121.07 110.954L121.074 110.854L121.078 110.765L121.082 110.73L121.086 110.63L121.09 110.53L121.094 110.431L121.098 110.331L121.102 110.231L121.106 110.132L121.11 110.032L121.114 109.941L121.118 109.908L121.121 109.808L121.125 109.708L121.129 109.609L121.133 109.509L121.136 109.409L121.14 109.31L121.144 109.21L121.147 109.117L121.151 109.085L121.155 108.986L121.158 108.886L121.162 108.786L121.165 108.686L121.169 108.587L121.172 108.487L121.175 108.387L121.179 108.292L121.182 108.263L121.186 108.163L121.189 108.063L121.192 107.963L121.195 107.864L121.199 107.764L121.202 107.664L121.205 107.564L121.208 107.468L121.211 107.44L121.214 107.34L121.217 107.24L121.22 107.14L121.223 107.041L121.226 106.941L121.229 106.841L121.232 106.741L121.235 106.643L121.238 106.616L121.241 106.517L121.244 106.417L121.246 106.317L121.249 106.217L121.252 106.117L121.255 106.018L121.257 105.918L121.26 105.818L121.263 105.793L121.265 105.693L121.268 105.593L121.27 105.493L121.273 105.394L121.275 105.294L121.278 105.194L121.28 105.094L121.282 104.994L121.285 104.967L121.287 104.869L121.29 104.769L121.292 104.67L121.294 104.57L121.296 104.47L121.299 104.37L121.301 104.27L121.303 104.17L121.305 104.142L121.307 104.045L121.309 103.945L121.311 103.846L121.313 103.746L121.315 103.646L121.317 103.546L121.319 103.446L121.321 103.346L121.323 103.316L121.325 103.221L121.327 103.121L121.328 103.021L121.33 102.921L121.332 102.822L121.334 102.722L121.335 102.622L121.337 102.522L121.339 102.49L121.34 102.397L121.342 102.297L121.343 102.197L121.345 102.097L121.346 101.997L121.348 101.897L121.349 101.797L121.351 101.697L121.352 101.664L121.353 101.572L121.355 101.473L121.356 101.373L121.357 101.273L121.358 101.173L121.36 101.073L121.361 100.973L121.362 100.873L121.363 100.837L121.364 100.748L121.365 100.648L121.366 100.548L121.367 100.448L121.368 100.348L121.369 100.248L121.37 100.148L121.371 100.048L121.372 100.011L121.373 99.9232L121.374 99.8232L121.375 99.7232L121.375 99.6233L121.376 99.5233L121.377 99.4233L121.377 99.3234L121.378 99.2234L121.379 99.1844L121.379 99.0984L121.38 98.9985L121.38 98.8985L121.381 98.7985L121.381 98.6985L121.382 98.5985L121.382 98.4986L121.383 98.3986L121.383 98.3579L121.383 98.2736L121.384 98.1736L121.384 98.0736L121.384 97.9737L121.385 97.8737L121.385 97.7737L121.385 97.6737L121.385 97.5737L121.385 97.5313L121.385 97.4488L121.385 97.3488L121.385 97.2488L121.385 97.1488L121.385 97.0488L121.385 96.9489L121.385 96.8489L121.385 96.7489L121.385 96.7047L121.385 96.6239L121.385 96.5239L121.384 96.424L121.384 96.324L121.384 96.224L121.384 96.124L121.383 96.024L121.383 95.9241L121.382 95.8782L121.382 95.7991L121.382 95.6991L121.381 95.5991L121.381 95.4991L121.38 95.3992L121.38 95.2992L121.379 95.1992L121.378 95.0993L121.378 95.0517L121.377 94.9743L121.376 94.8743L121.376 94.7743L121.375 94.6744L121.374 94.5744L121.373 94.4744L121.372 94.3745L121.372 94.2745L121.371 94.2252L121.37 94.1496L121.369 94.0496L121.368 93.9496L121.367 93.8497L121.366 93.7497L121.365 93.6497L121.364 93.5498L121.362 93.4498L121.361 93.3988L121.36 93.3249L121.359 93.225L121.358 93.125L121.356 93.0251L121.355 92.9251L121.354 92.8252L121.352 92.7252L121.351 92.6253L121.35 92.5725L121.348 92.5004L121.347 92.4004L121.345 92.3005L121.344 92.2006L121.342 92.1006L121.341 92.0007L121.339 91.9008L121.337 91.8008L121.336 91.7464L121.334 91.676L121.332 91.5761L121.331 91.4761L121.329 91.3762L121.327 91.2763L121.325 91.1764L121.323 91.0765L121.321 90.9766L121.32 90.9204L121.318 90.8517L121.316 90.7518L121.314 90.6519L121.312 90.552L121.31 90.4521L121.308 90.3522L121.305 90.2523L121.303 90.1525L121.301 90.0946L121.299 90.0277L121.297 89.9278L121.294 89.8279L121.292 89.728L121.29 89.6282L121.287 89.5283L121.285 89.4284L121.283 89.3285L121.28 89.269L121.278 89.2038L121.275 89.104L121.273 89.0041L121.27 88.9042L121.268 88.8044L121.265 88.7045L121.263 88.6047L121.26 88.5049L121.257 88.4436L121.254 88.3802L121.252 88.2803L121.249 88.1805L121.246 88.0807L121.243 87.9809L121.241 87.881L121.238 87.7812L121.235 87.6814L121.232 87.6185L121.229 87.5568L121.226 87.457L121.223 87.3572L121.22 87.2574L121.217 87.1576L121.214 87.0578L121.21 86.958L121.207 86.8582L121.204 86.7936L121.201 86.7337L121.198 86.6339L121.194 86.5341L121.191 86.4344L121.188 86.3346L121.184 86.2349L121.181 86.1351L121.178 86.0354L121.174 85.969L121.171 85.9109L121.167 85.8111L121.164 85.7114L121.16 85.6117L121.157 85.5119L121.153 85.4122L121.149 85.3125L121.146 85.2128L121.142 85.1448L121.138 85.0884L121.135 84.9887L121.131 84.889L121.127 84.7893L121.123 84.6896L121.119 84.5899L121.115 84.4902L121.111 84.3906L121.107 84.3209L121.104 84.2662L121.1 84.1666L121.095 84.0669L121.091 83.9672L121.087 83.8676L121.083 83.768L121.079 83.6683L121.075 83.5687L121.071 83.4973L121.066 83.4444L121.062 83.3448L121.058 83.2452L121.054 83.1456L121.049 83.046L121.045 82.9464L121.041 82.8468L121.036 82.7472L121.032 82.6742L121.027 82.623L121.023 82.5235L121.018 82.4239L121.014 82.3243L121.009 82.2248L121.004 82.1252L121 82.0257L120.995 81.9261L120.99 81.8514L120.986 81.802L120.981 81.7025L120.976 81.603L120.971 81.5035L120.967 81.404L120.962 81.3045L120.957 81.205L120.952 81.1055L120.947 81.0291L120.942 80.9815L120.937 80.882L120.932 80.7826L120.927 80.6831L120.922 80.5836L120.917 80.4842L120.912 80.3847L120.906 80.2853L120.901 80.2072L120.896 80.1614L120.891 80.062L120.885 79.9626L120.88 79.8632L120.875 79.7637L120.869 79.6643L120.864 79.5649L120.859 79.4656L120.853 79.3858L120.848 79.3418L120.842 79.2424L120.837 79.143L120.831 79.0437L120.826 78.9443L120.82 78.845L120.814 78.7457L120.809 78.6463L120.803 78.5649L120.797 78.5227L120.792 78.4233L120.786 78.324L120.78 78.2247L120.774 78.1254L120.768 78.0261L120.762 77.9269L120.757 77.8276L120.751 77.7445L120.745 77.704L120.739 77.6048L120.733 77.5055L120.727 77.4063L120.721 77.3071L120.714 77.2078L120.708 77.1086L120.702 77.0094L120.696 76.9247L120.69 76.886L120.684 76.7868L120.677 76.6876L120.671 76.5884L120.665 76.4893L120.658 76.3901L120.652 76.2909L120.646 76.1918L120.639 76.1054L120.633 76.0685L120.626 75.9693L120.62 75.8702L120.613 75.7711L120.607 75.672L120.6 75.5729L120.594 75.4738L120.587 75.3747L120.58 75.2866L120.574 75.2515L120.567 75.1525L120.56 75.0534L120.553 74.9544L120.547 74.8553L120.54 74.7563L120.533 74.6573L120.526 74.5582L120.519 74.4685L120.512 74.4352L120.505 74.3362L120.498 74.2372L120.491 74.1382L120.484 74.0393L120.477 73.9403L120.47 73.8413L120.463 73.7424L120.456 73.651L120.449 73.6195L120.442 73.5206L120.435 73.4217L120.427 73.3227L120.42 73.2238L120.413 73.1249L120.405 73.026L120.398 72.9272L120.391 72.8341L120.383 72.8044L120.376 72.7056L120.368 72.6067L120.361 72.5079L120.354 72.409L120.346 72.3102L120.338 72.2114L120.331 72.1126L120.323 72.0179L120.316 71.99L120.308 71.8912L120.3 71.7924L120.293 71.6937L120.285 71.5949L120.277 71.4962L120.269 71.3974L120.262 71.2987L120.254 71.2024L120.246 71.1762L120.238 71.0775L120.23 70.9788L120.222 70.8801L120.214 70.7815L120.206 70.6828L120.198 70.5841L120.19 70.4855L120.182 70.3875L120.174 70.3632L120.166 70.2645L120.158 70.1659L120.15 70.0673L120.141 69.9687L120.133 69.8701L120.125 69.7715L120.117 69.673L120.108 69.5744L120.1 69.5498L120.092 69.4523L120.083 69.3537L120.075 69.2552L120.067 69.1567L120.058 69.0582L120.05 68.9596L120.041 68.8612L120.033 68.7627L120.024 68.7364L120.016 68.6407L120.007 68.5422L119.998 68.4438L119.99 68.3454L119.981 68.2469L119.972 68.1485L119.964 68.0501L119.955 67.9517L119.946 67.9238L119.937 67.8299L119.929 67.7315L119.92 67.6331L119.911 67.5348L119.902 67.4364L119.893 67.3381L119.884 67.2398L119.875 67.1415L119.866 67.1119L119.857 67.0198L119.848 66.9215L119.839 66.8232L119.83 66.725L119.821 66.6267L119.812 66.5285L119.803 66.4302L119.793 66.332L119.784 66.3008L119.775 66.2105L119.766 66.1123L119.756 66.0141L119.747 65.916L119.738 65.8178L119.728 65.7196L119.719 65.6214L119.71 65.5233L119.7 65.4905L119.691 65.402L119.681 65.3039L119.672 65.2058L119.662 65.1077L119.653 65.0096L119.643 64.9115L119.634 64.8135L119.624 64.7154L119.614 64.681L119.605 64.5943L119.595 64.4963L119.585 64.3983L119.575 64.3003L119.566 64.2023L119.556 64.1043L119.546 64.0063L119.536 63.9083L119.526 63.8723L119.517 63.7874L119.507 63.6895L119.497 63.5916L119.487 63.4936L119.477 63.3957L119.467 63.2979L119.457 63.2L119.447 63.1021L119.437 63.0644L119.427 62.9814L119.416 62.8835L119.406 62.7857L119.396 62.6879L119.386 62.5901L119.376 62.4923L119.366 62.3945L119.355 62.2967L119.345 62.2573L119.335 62.1761L119.324 62.0784L119.314 61.9806L119.304 61.8829L119.293 61.7852L119.283 61.6875L119.272 61.5898L119.262 61.4921L119.251 61.4511L119.241 61.3718L119.23 61.2741L119.22 61.1765L119.209 61.0788L119.199 60.9812L119.188 60.8836L119.177 60.786L119.167 60.6884L119.156 60.6458L119.145 60.5683L119.135 60.4707L119.124 60.3732L119.113 60.2756L119.102 60.1781L119.091 60.0806L119.08 59.9831L119.07 59.8856L119.059 59.8414L119.048 59.7656L119.037 59.6682L119.026 59.5707L119.015 59.4733L119.004 59.3759L118.993 59.2784L118.982 59.181L118.971 59.0836L118.96 59.0378L118.948 58.9639L118.937 58.8665L118.926 58.7692L118.915 58.6718L118.904 58.5745L118.893 58.4772L118.881 58.3799L118.87 58.2826L118.859 58.2351L118.847 58.163L118.836 58.0658L118.825 57.9685L118.813 57.8713L118.802 57.7741L118.79 57.6768L118.779 57.5796L118.767 57.4825L118.756 57.4334L118.744 57.3631L118.733 57.2659L118.721 57.1688L118.71 57.0716L118.698 56.9745L118.687 56.8774L118.675 56.7803L118.663 56.6832L118.652 56.6325L118.64 56.5641L118.628 56.467L118.616 56.37L118.605 56.2729L118.593 56.1759L118.581 56.0789L118.569 55.9819L118.557 55.8849L118.545 55.8326L118.533 55.766L118.521 55.669L118.51 55.5721L118.498 55.4752L118.486 55.3782L118.474 55.2813L118.462 55.1844L118.449 55.0876L118.437 55.0336L118.425 54.9688L118.413 54.872L118.401 54.7751L118.389 54.6783L118.377 54.5815L118.364 54.4847L118.352 54.3879L118.34 54.2911L118.328 54.2356L118.315 54.1726L118.303 54.0759L118.291 53.9791L118.278 53.8824L118.266 53.7857L118.254 53.689L118.241 53.5924L118.229 53.4957L118.216 53.4385L118.204 53.3774L118.191 53.2807L118.179 53.1841L118.166 53.0875L118.154 52.9909L118.141 52.8943L118.129 52.7977L118.116 52.7012L118.103 52.6424L118.091 52.5831L118.078 52.4865L118.065 52.39L118.053 52.2935L118.04 52.197L118.027 52.1006L118.014 52.0041L118.002 51.9076L117.989 51.8472L117.976 51.7897L117.963 51.6933L117.95 51.5969L117.937 51.5005L117.924 51.4041L117.911 51.3078L117.898 51.2114L117.885 51.1151L117.872 51.053L117.859 50.9974L117.846 50.9011L117.833 50.8048L117.82 50.7085L117.807 50.6122L117.794 50.516L117.781 50.4197L117.768 50.3235L117.754 50.2599L117.741 50.2061L117.728 50.1098L117.715 50.0137L117.702 49.9175L117.688 49.8213L117.675 49.7252L117.662 49.629L117.648 49.5329L117.635 49.4677L117.622 49.4157L117.608 49.3196L117.595 49.2235L117.581 49.1275L117.568 49.0314L117.554 48.9354L117.541 48.8393L117.527 48.7433L117.514 48.6765L117.5 48.6263L117.487 48.5303L117.473 48.4344L117.46 48.3384L117.446 48.2425L117.432 48.1466L117.419 48.0506L117.405 47.9547L117.391 47.8863L117.377 47.838L117.364 47.7421L117.35 47.6462L117.336 47.5504L117.322 47.4546L117.309 47.3588L117.295 47.263L117.281 47.1672L117.267 47.0971L117.253 47.0506L117.239 46.9548L117.225 46.8591L117.211 46.7634L117.197 46.6677L117.183 46.572L117.169 46.4763L117.155 46.3806L117.141 46.3089L117.127 46.2643L117.113 46.1686L117.099 46.073L117.085 45.9774L117.071 45.8818L117.057 45.7862L117.042 45.6906L117.028 45.5951L117.014 45.5218L117 45.479L116.986 45.3834L116.971 45.2879L116.957 45.1924L116.943 45.0969L116.928 45.0015L116.914 44.906L116.9 44.8106L116.885 44.7356L116.871 44.6947L116.857 44.5993L116.842 44.5039L116.828 44.4085L116.813 44.3131L116.799 44.2178L116.784 44.1224L116.77 44.0271L116.755 43.9506L116.741 43.9114L116.726 43.8161L116.711 43.7209L116.697 43.6256L116.682 43.5303L116.668 43.4351L116.653 43.3399L116.638 43.2446L116.624 43.1665L116.609 43.1292L116.594 43.034L116.579 42.9389L116.565 42.8437L116.55 42.7486L116.535 42.6535L116.52 42.5584L116.505 42.4632L116.491 42.3835L116.476 42.3481L116.461 42.253L116.446 42.1579L116.431 42.0629L116.416 41.9679L116.401 41.8729L116.386 41.7779L116.371 41.6829L116.356 41.6015L116.341 41.568L116.326 41.473L116.311 41.3781L116.296 41.2831L116.281 41.1882L116.266 41.0933L116.25 40.9985L116.235 40.9036L116.22 40.8206L116.205 40.7889L116.19 40.6941L116.175 40.5992L116.159 40.5044L116.144 40.4096L116.129 40.3149L116.114 40.2201L116.098 40.1254L116.083 40.0408L116.068 40.0109L116.052 39.9162L116.037 39.8215L116.021 39.7268L116.006 39.6321L115.991 39.5374L115.975 39.4428L115.96 39.3482L115.944 39.262L115.929 39.2339L115.913 39.1393L115.898 39.0447L115.882 38.9502L115.867 38.8556L115.851 38.7611L115.836 38.6665L115.82 38.572L115.804 38.4843L115.789 38.458L115.773 38.3636L115.757 38.2691L115.742 38.1746L115.726 38.0802L115.71 37.9858L115.695 37.8914L115.679 37.797L115.663 37.7076L115.647 37.6832L115.631 37.5889L115.616 37.4945L115.6 37.4002L115.584 37.3059L115.568 37.2116L115.552 37.1173L115.536 37.023L115.52 36.932L115.504 36.9095L115.489 36.8152L115.473 36.721L115.457 36.6268L115.441 36.5326L115.425 36.4384L115.409 36.3442L115.393 36.2501L115.376 36.1575L115.36 36.1368L115.344 36.0427L115.328 35.9486L115.312 35.8545L115.296 35.7604L115.28 35.6663L115.264 35.5723L115.247 35.4782L115.231 35.3842L115.215 35.365L115.199 35.2712L115.183 35.1772L115.166 35.0833L115.15 34.9893L115.134 34.8953L115.117 34.8014L115.101 34.7075L115.085 34.6136L115.068 34.5928L115.052 34.5008L115.036 34.4069L115.019 34.3131L115.003 34.2193L114.986 34.1254L114.97 34.0316L114.954 33.9378L114.937 33.844L114.921 33.8217L114.904 33.7315L114.888 33.6378L114.871 33.544L114.854 33.4503L114.838 33.3566L114.821 33.2629L114.805 33.1693L114.788 33.0756L114.771 33.0516L114.755 32.9633L114.738 32.8697L114.722 32.7761L114.705 32.6825L114.688 32.5889L114.671 32.4953L114.655 32.4018L114.638 32.3082L114.621 32.2826L114.604 32.1962L114.588 32.1027L114.571 32.0092L114.554 31.9157L114.537 31.8223L114.52 31.7288L114.503 31.6354L114.486 31.542L114.47 31.5148L114.453 31.4301L114.436 31.3368L114.419 31.2434L114.402 31.15L114.385 31.0567L114.368 30.9634L114.351 30.8701L114.334 30.7768L114.317 30.748L114.3 30.6652L114.283 30.572L114.266 30.4787L114.249 30.3855L114.231 30.2923L114.214 30.1991L114.197 30.1059L114.18 30.0127L114.163 29.9823L114.146 29.9014L114.129 29.8082L114.111 29.7151L114.094 29.622L114.077 29.5289L114.06 29.4359L114.042 29.3428L114.025 29.2497L114.008 29.2177L113.991 29.1387L113.973 29.0457L113.956 28.9527L113.939 28.8597L113.921 28.7667L113.904 28.6737L113.886 28.5808L113.869 28.4879L113.852 28.4543L113.834 28.3771L113.817 28.2842L113.799 28.1913L113.782 28.0984L113.764 28.0056L113.747 27.9128L113.729 27.8199L113.712 27.7271L113.694 27.6919L113.677 27.6165L113.659 27.5238L113.641 27.431L113.624 27.3383L113.606 27.2456L113.589 27.1529L113.571 27.0602L113.553 26.9675L113.536 26.9307L113.518 26.8572L113.5 26.7645L113.483 26.6719L113.465 26.5793L113.447 26.4867L113.429 26.3941L113.412 26.3015L113.394 26.209L113.376 26.1706L113.358 26.0989L113.34 26.0064L113.323 25.9139L113.305 25.8214L113.287 25.7289L113.269 25.6365L113.251 25.544L113.233 25.4516L113.215 25.4116L113.197 25.3418L113.179 25.2494L113.161 25.157L113.144 25.0646L113.126 24.9723L113.108 24.8799L113.09 24.7876L113.072 24.6953L113.053 24.6537L113.035 24.5857L113.017 24.4935L112.999 24.4012L112.981 24.309L112.963 24.2168L112.945 24.1245L112.927 24.0323L112.909 23.9402L112.891 23.897L112.872 23.8308L112.854 23.7387L112.836 23.6466L112.818 23.5544L112.8 23.4624L112.781 23.3703L112.763 23.2782L112.745 23.1861L112.727 23.1414L112.708 23.0771L112.69 22.9851L112.672 22.8931L112.653 22.8011L112.635 22.7091L112.617 22.6171L112.598 22.5252L112.58 22.4333L112.562 22.3869L112.543 22.3245L112.525 22.2326L112.506 22.1407L112.488 22.0488L112.469 21.957L112.451 21.8651L112.432 21.7733L112.414 21.6815L112.395 21.6335L112.377 21.573L112.358 21.4812L112.34 21.3895L112.321 21.2977L112.303 21.206L112.284 21.1143L112.266 21.0226L112.247 20.931L112.228 20.8814L112.21 20.8226L112.191 20.731L112.172 20.6394L112.154 20.5478L112.135 20.4562L112.116 20.3646L112.098 20.273L112.079 20.1815L112.06 20.1303L112.041 20.0734L112.023 19.9819L112.004 19.8905L111.985 19.799L111.966 19.7075L111.947 19.6161L111.929 19.5246L111.91 19.4332L111.891 19.3804L111.872 19.3254L111.853 19.234L111.834 19.1427L111.815 19.0513L111.797 18.96L111.778 18.8687L111.759 18.7774L111.74 18.6861L111.721 18.6317L111.702 18.5785L111.683 18.4873L111.664 18.396L111.645 18.3048L111.626 18.2136L111.607 18.1224L111.588 18.0313L111.569 17.9401L111.55 17.8842L111.53 17.8328L111.511 17.7417L111.492 17.6506L111.473 17.5595L111.454 17.4684L111.435 17.3774L111.416 17.2863L111.397 17.1953L111.377 17.1378L111.358 17.0883L111.339 16.9973L111.32 16.9063L111.301 16.8154L111.281 16.7244L111.262 16.6335L111.243 16.5426L111.224 16.4517L111.204 16.3925L111.185 16.3449L111.166 16.2541L111.146 16.1632L111.127 16.0724L111.108 15.9816L111.088 15.8908L111.069 15.8L111.049 15.7092L111.03 15.6485L111.011 15.6027L110.991 15.512L110.972 15.4213L110.952 15.3306L110.933 15.2399L110.913 15.1492L110.894 15.0586L110.874 14.968L110.855 14.9056L110.835 14.8617L110.816 14.7711L110.796 14.6806L110.777 14.59L110.757 14.4994L110.738 14.4089L110.718 14.3184L110.699 14.2279L110.679 14.164L110.659 14.1219L110.64 14.0314L110.62 13.941L110.6 13.8506L110.581 13.7602L110.561 13.6698L110.541 13.5794L110.522 13.489L110.502 13.4235L110.482 13.3833L110.463 13.293L110.443 13.2027L110.423 13.1124L110.403 13.0221L110.383 12.9318L110.364 12.8416L110.344 12.7513L110.324 12.6842L110.304 12.6459L110.284 12.5557L110.265 12.4655L110.245 12.3754L110.225 12.2852L110.205 12.1951L110.185 12.105L110.165 12.0149L110.145 11.9462L110.125 11.9097L110.105 11.8197L110.085 11.7296L110.065 11.6396L110.045 11.5496L110.025 11.4596L110.005 11.3696L109.985 11.2796L109.965 11.2094L109.945 11.1747L109.925 11.0848L109.905 10.9949L109.885 10.905L109.865 10.8151L109.845 10.7253L109.825 10.6355L109.805 10.5456L109.785 10.4738L109.765 10.441L109.744 10.3512L109.724 10.2614L109.704 10.1717L109.684 10.082L109.664 9.99223L109.643 9.90254L109.623 9.81285L109.603 9.73938L109.583 9.7085L109.563 9.61886L109.542 9.52921L109.522 9.43961L109.502 9.35002L109.481 9.26042L109.461 9.17086L109.441 9.08132L109.421 9.00628L109.4 8.97723L109.38 8.88774L109.359 8.79825L109.339 8.70876L109.319 8.61932L109.298 8.52988L109.278 8.44044L109.258 8.35103L109.237 8.27442L109.217 8.24724L109.196 8.15788L109.176 8.06854L109.155 7.9792L109.135 7.88987L109.114 7.80058L109.094 7.71129L109.073 7.62201L109.053 7.54383L109.032 7.51852L109.012 7.42928L108.991 7.34009L108.971 7.2509L108.95 7.16171L108.929 7.07255L108.909 6.98342L108.888 6.89428L108.868 6.8145L108.847 6.79107L108.826 6.70198L108.806 6.61291L108.785 6.52387L108.764 6.43484L108.744 6.34581L108.723 6.25682L108.702 6.16784L108.682 6.08647L108.661 6.0649L108.64 5.97597L108.619 5.88704L108.599 5.79813L108.578 5.70926L108.557 5.62038L108.536 5.53151L108.515 5.44269L108.495 5.35975L108.474 5.34002L108.453 5.25125L108.432 5.16248L108.411 5.0737L108.39 4.98497L108.369 4.89625L108.349 4.80753L108.328 4.71884L108.307 4.63434L108.286 4.61649L108.265 4.52784L108.244 4.43923L108.223 4.35061L108.202 4.262L108.181 4.17344L108.16 4.08488L108.139 3.99631L108.118 3.91024L108.097 3.89428L108.076 3.80577L108.055 3.7173L108.034 3.62884L108.013 3.54038L107.992 3.45196L107.971 3.36355L107.95 3.27515L107.928 3.18748L107.907 3.1734L107.886 3.08505L107.865 2.99671L107.844 2.90841L107.898 2.89519Z" fill="white"/>
</svg>
