<svg width="200" height="200" viewBox="0 0 200 200" fill="none" xmlns="http://www.w3.org/2000/svg">
<path d="M103.423 199.5L103.331 199.501L103.236 199.504L103.136 199.507L103.037 199.51L102.937 199.513L102.84 199.515L102.75 199.515L102.651 199.518L102.551 199.52L102.452 199.523L102.352 199.525L102.261 199.525L102.165 199.527L102.066 199.529L101.966 199.531L101.867 199.533L101.769 199.534L101.68 199.533L101.58 199.535L101.481 199.536L101.381 199.538L101.282 199.539L101.19 199.538L101.095 199.538L100.995 199.539L100.896 199.54L100.796 199.541L100.699 199.541L100.609 199.539L100.51 199.54L100.41 199.54L100.311 199.541L100.211 199.541L100.12 199.539L100.024 199.538L99.9247 199.538L99.8251 199.538L99.7256 199.538L99.628 199.537L99.5387 199.534L99.4392 199.534L99.3396 199.533L99.2401 199.533L99.1405 199.532L99.0489 199.529L98.9536 199.527L98.8541 199.526L98.7546 199.525L98.655 199.524L98.5573 199.522L98.4682 199.518L98.3687 199.516L98.2692 199.515L98.1696 199.513L98.0701 199.511L97.9785 199.507L97.8833 199.504L97.7838 199.502L97.6844 199.5L97.5849 199.498L97.4871 199.495L97.398 199.49L97.2986 199.487L97.1991 199.485L97.0997 199.482L97.0002 199.479L96.9085 199.474L96.8135 199.47L96.714 199.467L96.6146 199.464L96.5152 199.46L96.4174 199.457L96.3285 199.451L96.229 199.447L96.1295 199.443L96.0301 199.439L95.9307 199.435L95.839 199.43L95.7441 199.424L95.6446 199.42L95.5452 199.416L95.4458 199.412L95.348 199.407L95.2592 199.4L95.1599 199.395L95.0605 199.39L94.9611 199.385L94.8617 199.38L94.77 199.374L94.6752 199.367L94.5758 199.362L94.4765 199.357L94.3771 199.351L94.2793 199.345L94.1907 199.338L94.0914 199.332L93.9921 199.326L93.8928 199.32L93.7935 199.314L93.7017 199.306L93.6071 199.299L93.5078 199.293L93.4085 199.286L93.3092 199.28L93.2114 199.273L93.123 199.264L93.0238 199.257L92.9245 199.25L92.8253 199.243L92.7261 199.236L92.6344 199.227L92.5399 199.219L92.4408 199.211L92.3416 199.204L92.2424 199.196L92.1446 199.188L92.0564 199.178L91.9572 199.171L91.858 199.163L91.7588 199.154L91.6597 199.146L91.568 199.137L91.4737 199.127L91.3746 199.119L91.2755 199.11L91.1764 199.102L91.0786 199.093L90.9905 199.082L90.8915 199.073L90.7923 199.064L90.6933 199.054L90.5942 199.045L90.5026 199.035L90.4085 199.024L90.3095 199.015L90.2105 199.005L90.1115 198.995L90.0137 198.985L89.9258 198.973L89.8269 198.963L89.7279 198.953L89.6289 198.943L89.53 198.933L89.4385 198.921L89.3445 198.91L89.2456 198.899L89.1467 198.888L89.0478 198.878L88.9501 198.866L88.8625 198.854L88.7637 198.843L88.6648 198.831L88.566 198.82L88.4672 198.809L88.3757 198.796L88.282 198.784L88.1832 198.772L88.0844 198.76L87.9857 198.748L87.888 198.736L87.8006 198.722L87.702 198.71L87.6033 198.698L87.5045 198.686L87.4058 198.673L87.3144 198.66L87.2209 198.646L87.1223 198.633L87.0237 198.621L86.9251 198.608L86.8274 198.595L86.7403 198.58L86.6417 198.567L86.5432 198.553L86.4447 198.54L86.3462 198.526L86.2547 198.512L86.1615 198.497L86.063 198.484L85.9646 198.47L85.8661 198.456L85.7685 198.441L85.6817 198.426L85.5832 198.411L85.4848 198.397L85.3865 198.382L85.2881 198.368L85.1968 198.352L85.1039 198.337L85.0055 198.322L84.9072 198.307L84.8089 198.292L84.7114 198.277L84.6248 198.26L84.5265 198.245L84.4283 198.229L84.3301 198.214L84.2319 198.198L84.1407 198.181L84.048 198.165L83.9498 198.149L83.8517 198.133L83.7535 198.117L83.6561 198.101L83.5697 198.083L83.4717 198.066L83.3737 198.05L83.2756 198.033L83.1776 198.017L83.0864 197.999L82.994 197.982L82.896 197.965L82.7981 197.948L82.7002 197.93L82.6029 197.913L82.5168 197.894L82.4189 197.877L82.3211 197.859L82.2232 197.842L82.1254 197.824L82.0344 197.805L81.9423 197.787L81.8445 197.769L81.7468 197.751L81.649 197.733L81.5519 197.714L81.4661 197.694L81.3684 197.676L81.2707 197.657L81.1731 197.639L81.0755 197.62L80.9846 197.6L80.8927 197.581L80.7952 197.562L80.6977 197.542L80.6001 197.523L80.5031 197.504L80.4176 197.483L80.3202 197.464L80.2227 197.444L80.1253 197.424L80.0278 197.404L79.9371 197.384L79.8456 197.363L79.7483 197.343L79.651 197.323L79.5537 197.303L79.4567 197.282L79.3715 197.261L79.2743 197.24L79.1771 197.219L79.0799 197.198L78.9828 197.177L78.8922 197.156L78.8009 197.134L78.7038 197.113L78.6067 197.092L78.5097 197.071L78.413 197.049L78.3281 197.027L78.2311 197.005L78.1341 196.983L78.0372 196.961L77.9403 196.939L77.8499 196.917L77.759 196.894L77.6622 196.872L77.5653 196.85L77.4685 196.827L77.3719 196.805L77.2874 196.781L77.1907 196.759L77.094 196.736L76.9973 196.713L76.9006 196.69L76.8104 196.666L76.7197 196.643L76.6231 196.62L76.5266 196.596L76.43 196.573L76.3336 196.549L76.2494 196.525L76.1529 196.501L76.0565 196.477L75.96 196.453L75.8636 196.429L75.7735 196.405L75.6833 196.38L75.5869 196.356L75.4906 196.331L75.3943 196.307L75.2981 196.282L75.2143 196.257L75.1181 196.232L75.0219 196.207L74.9257 196.182L74.8296 196.157L74.7397 196.132L74.6499 196.106L74.5538 196.081L74.4578 196.055L74.3618 196.03L74.2657 196.004L74.1823 195.978L74.0864 195.952L73.9905 195.926L73.8946 195.9L73.7987 195.874L73.709 195.848L73.6196 195.821L73.5238 195.795L73.428 195.768L73.3323 195.742L73.2366 195.715L73.1533 195.688L73.0578 195.661L72.9622 195.634L72.8666 195.607L72.771 195.58L72.6815 195.552L72.5924 195.525L72.497 195.497L72.4015 195.47L72.3061 195.442L72.2108 195.414L72.1276 195.386L72.0325 195.358L71.9372 195.33L71.8418 195.302L71.7466 195.274L71.6574 195.246L71.5687 195.217L71.4735 195.189L71.3784 195.16L71.2832 195.132L71.1882 195.103L71.1054 195.074L71.0106 195.045L70.9156 195.016L70.8206 194.987L70.7257 194.958L70.6367 194.928L70.5484 194.899L70.4536 194.869L70.3588 194.84L70.2639 194.81L70.1692 194.78L70.0867 194.75L69.9969 194.716L69.9148 194.673L69.8326 194.631L69.7505 194.588L69.6684 194.548L69.5864 194.515L69.5044 194.472L69.4224 194.429L69.3405 194.386L69.2585 194.343L69.1766 194.308L69.0947 194.268L69.0129 194.225L68.9311 194.181L68.8493 194.138L68.7676 194.097L68.6859 194.063L68.6042 194.019L68.5225 193.975L68.4409 193.931L68.3594 193.887L68.2778 193.851L68.1963 193.811L68.1148 193.767L68.0334 193.722L67.952 193.678L67.8705 193.635L67.7892 193.601L67.7079 193.556L67.6265 193.511L67.5453 193.466L67.4641 193.421L67.3829 193.385L67.3017 193.344L67.2206 193.298L67.1395 193.253L67.0585 193.208L66.9774 193.164L66.8964 193.129L66.8155 193.083L66.7345 193.038L66.6536 192.992L66.5728 192.946L66.4919 192.908L66.4112 192.866L66.3304 192.82L66.2497 192.774L66.169 192.728L66.0883 192.683L66.0077 192.647L65.9271 192.601L65.8466 192.554L65.7661 192.507L65.6856 192.461L65.6052 192.422L65.5247 192.379L65.4444 192.332L65.364 192.285L65.2836 192.238L65.2034 192.193L65.1232 192.156L65.0429 192.108L64.9628 192.061L64.8827 192.013L64.8026 191.966L64.7225 191.926L64.6425 191.882L64.5625 191.835L64.4825 191.786L64.4026 191.738L64.3227 191.692L64.2429 191.654L64.1631 191.606L64.0834 191.558L64.0036 191.509L63.9239 191.461L63.8442 191.42L63.7646 191.376L63.685 191.327L63.6055 191.278L63.5259 191.229L63.4464 191.182L63.367 191.144L63.2876 191.094L63.2082 191.045L63.1289 190.996L63.0495 190.946L62.9702 190.905L62.891 190.86L62.8118 190.81L62.7326 190.76L62.6536 190.71L62.5745 190.662L62.4954 190.623L62.4164 190.573L62.3374 190.523L62.2585 190.472L62.1797 190.422L62.1008 190.38L62.022 190.334L61.9432 190.283L61.8644 190.232L61.7857 190.182L61.7071 190.133L61.6284 190.093L61.5499 190.042L61.4713 189.991L61.3928 189.94L61.3144 189.888L61.236 189.845L61.1576 189.798L61.0793 189.747L61.0009 189.695L60.9226 189.644L60.8444 189.594L60.7662 189.553L60.6881 189.501L60.61 189.449L60.5319 189.397L60.4538 189.345L60.3758 189.301L60.2979 189.253L60.22 189.201L60.1421 189.149L60.0642 189.096L59.9865 189.045L59.9087 189.003L59.831 188.951L59.7533 188.898L59.6757 188.845L59.5981 188.792L59.5206 188.747L59.443 188.699L59.3655 188.646L59.2881 188.592L59.2107 188.539L59.1334 188.487L59.0561 188.445L58.9788 188.391L58.9016 188.338L58.8244 188.284L58.7473 188.23L58.6702 188.184L58.5931 188.135L58.5161 188.081L58.4391 188.027L58.3622 187.973L58.2853 187.92L58.2085 187.877L58.1316 187.822L58.0548 187.768L57.9782 187.713L57.9014 187.659L57.8248 187.612L57.7482 187.562L57.6717 187.507L57.5952 187.452L57.5187 187.397L57.4422 187.343L57.3658 187.299L57.2895 187.244L57.2132 187.189L57.137 187.133L57.0608 187.078L56.9846 187.03L56.9084 186.979L56.8324 186.923L56.7563 186.868L56.6803 186.812L56.6044 186.757L56.5285 186.713L56.4526 186.656L56.3768 186.6L56.301 186.544L56.2253 186.488L56.1496 186.439L56.0739 186.388L55.9983 186.331L55.9228 186.274L55.8472 186.218L55.7718 186.162L55.6964 186.117L55.621 186.06L55.5457 186.003L55.4703 185.946L55.3951 185.889L55.3199 185.839L55.2447 185.787L55.1696 185.729L55.0946 185.672L55.0195 185.614L54.9445 185.558L54.8696 185.512L54.7947 185.454L54.7199 185.396L54.6451 185.338L54.5703 185.28L54.4956 185.23L54.421 185.177L54.3463 185.119L54.2718 185.06L54.1972 185.002L54.1227 184.945L54.0483 184.897L53.9739 184.839L53.8995 184.78L53.8253 184.722L53.751 184.663L53.6768 184.611L53.6027 184.558L53.5285 184.499L53.4545 184.44L53.3804 184.38L53.3064 184.322L53.2325 184.274L53.1587 184.215L53.0848 184.156L53.0111 184.096L52.9373 184.037L52.8636 183.984L52.79 183.93L52.7164 183.87L52.6428 183.81L52.5693 183.75L52.4959 183.691L52.4224 183.642L52.3491 183.582L52.2759 183.522L52.2026 183.462L52.1294 183.401L52.0562 183.348L51.9831 183.293L51.91 183.232L51.837 183.172L51.764 183.111L51.6911 183.051L51.6182 183.002L51.5454 182.941L51.4726 182.88L51.3999 182.819L51.3272 182.757L51.2546 182.703L51.1819 182.647L51.1094 182.586L51.037 182.524L50.9645 182.463L50.8921 182.402L50.8198 182.352L50.7475 182.29L50.6752 182.228L50.603 182.166L50.5309 182.104L50.4588 182.049L50.3867 181.993L50.3147 181.931L50.2427 181.868L50.1708 181.806L50.099 181.744L50.0272 181.693L49.9554 181.631L49.8837 181.568L49.8121 181.506L49.7405 181.443L49.6689 181.387L49.5975 181.33L49.526 181.267L49.4546 181.204L49.3833 181.14L49.3119 181.078L49.2407 181.026L49.1696 180.963L49.0984 180.9L49.0273 180.836L48.9563 180.773L48.8852 180.716L48.8143 180.658L48.7434 180.594L48.6726 180.53L48.6018 180.466L48.5311 180.403L48.4604 180.351L48.3898 180.287L48.3192 180.223L48.2486 180.158L48.1782 180.094L48.1077 180.036L48.0374 179.978L47.9671 179.913L47.8968 179.848L47.8266 179.784L47.7564 179.719L47.6863 179.667L47.6162 179.602L47.5462 179.537L47.4761 179.472L47.4063 179.407L47.3364 179.348L47.2666 179.289L47.1969 179.223L47.1272 179.158L47.0575 179.093L46.9879 179.027L46.9184 178.974L46.8489 178.908L46.7795 178.843L46.7101 178.777L46.6408 178.711L46.5715 178.651L46.5023 178.592L46.4331 178.525L46.364 178.459L46.2949 178.393L46.2259 178.327L46.157 178.273L46.088 178.207L46.0192 178.14L45.9504 178.074L45.8817 178.007L45.8131 177.947L45.7444 177.886L45.6758 177.819L45.6073 177.752L45.5388 177.685L45.4704 177.618L45.4021 177.564L45.3337 177.497L45.2654 177.429L45.1973 177.362L45.1291 177.295L45.0611 177.234L44.9931 177.172L44.9251 177.105L44.8572 177.037L44.7893 176.969L44.7215 176.902L44.6537 176.846L44.586 176.778L44.5183 176.71L44.4508 176.642L44.3832 176.574L44.3157 176.512L44.2483 176.45L44.1809 176.382L44.1136 176.314L44.0464 176.245L43.9792 176.177L43.9119 176.12L43.8449 176.052L43.7778 175.983L43.7108 175.914L43.6439 175.845L43.5771 175.783L43.5102 175.72L43.4435 175.651L43.3768 175.582L43.3102 175.513L43.2436 175.444L43.1771 175.387L43.1106 175.317L43.0441 175.248L42.9777 175.178L42.9115 175.109L42.8453 175.045L42.779 174.982L42.7129 174.912L42.6468 174.842L42.5808 174.773L42.5149 174.702L42.449 174.645L42.3831 174.575L42.3173 174.505L42.2516 174.434L42.1859 174.364L42.1203 174.3L42.0548 174.236L41.9892 174.165L41.9238 174.095L41.8584 174.024L41.7931 173.954L41.7278 173.895L41.6626 173.825L41.5974 173.754L41.5324 173.683L41.4673 173.612L41.4023 173.546L41.3374 173.482L41.2725 173.411L41.2077 173.339L41.143 173.268L41.0783 173.197L41.0137 173.137L40.9491 173.066L40.8845 172.995L40.8201 172.923L40.7557 172.851L40.6914 172.785L40.6271 172.72L40.5629 172.648L40.4987 172.576L40.4346 172.504L40.3706 172.432L40.3066 172.372L40.2427 172.3L40.1788 172.228L40.115 172.156L40.0512 172.083L39.9875 172.016L39.9239 171.951L39.8604 171.878L39.7968 171.805L39.7334 171.733L39.67 171.66L39.6066 171.599L39.5434 171.527L39.4802 171.454L39.417 171.381L39.354 171.307L39.2909 171.24L39.2279 171.173L39.165 171.1L39.1022 171.027L39.0394 170.953L38.9767 170.88L38.914 170.818L38.8514 170.745L38.7889 170.672L38.7264 170.598L38.664 170.524L38.6017 170.456L38.5393 170.389L38.4771 170.315L38.4149 170.241L38.3528 170.167L38.2908 170.092L38.2288 170.03L38.1668 169.956L38.1049 169.882L38.0431 169.808L37.9813 169.733L37.9197 169.664L37.8581 169.597L37.7965 169.522L37.7351 169.447L37.6735 169.372L37.6121 169.298L37.5509 169.234L37.4896 169.16L37.4284 169.085L37.3673 169.01L37.3062 168.935L37.2452 168.865L37.1843 168.797L37.1234 168.722L37.0626 168.646L37.0019 168.571L36.9411 168.495L36.8805 168.431L36.8199 168.356L36.7594 168.281L36.699 168.205L36.6386 168.129L36.5783 168.059L36.5181 167.99L36.4579 167.914L36.3977 167.838L36.3377 167.762L36.2777 167.686L36.2177 167.621L36.1579 167.546L36.098 167.469L36.0383 167.393L35.9787 167.316L35.9191 167.245L35.8595 167.176L35.8001 167.099L35.7406 167.023L35.6812 166.946L35.6219 166.869L35.5627 166.804L35.5035 166.728L35.4445 166.651L35.3854 166.574L35.3264 166.496L35.2675 166.424L35.2086 166.355L35.1499 166.277L35.0912 166.2L35.0325 166.123L34.9739 166.045L34.9153 165.979L34.8568 165.902L34.7985 165.825L34.7402 165.747L34.6819 165.669L34.6237 165.597L34.5655 165.526L34.5075 165.448L34.4495 165.37L34.3915 165.292L34.3337 165.214L34.2759 165.147L34.2181 165.07L34.1604 164.992L34.1028 164.914L34.0452 164.835L33.9878 164.762L33.9304 164.691L33.8729 164.612L33.8157 164.534L33.7585 164.455L33.7013 164.376L33.6442 164.309L33.5872 164.231L33.5302 164.152L33.4733 164.073L33.4165 163.994L33.3597 163.92L33.3031 163.848L33.2464 163.769L33.1898 163.69L33.1334 163.611L33.0769 163.531L33.0205 163.463L32.9643 163.385L32.908 163.306L32.8519 163.226L32.7958 163.146L32.7397 163.071L32.6838 162.999L32.6279 162.92L32.572 162.84L32.5163 162.76L32.4606 162.68L32.4049 162.611L32.3494 162.532L32.2939 162.452L32.2384 162.372L32.1831 162.292L32.1278 162.216L32.0726 162.144L32.0174 162.063L31.9623 161.983L31.9073 161.902L31.8524 161.821L31.7974 161.752L31.7427 161.673L31.6879 161.592L31.6332 161.511L31.5786 161.43L31.5241 161.354L31.4695 161.281L31.4152 161.2L31.3608 161.119L31.3065 161.038L31.2523 160.957L31.1982 160.886L31.1441 160.807L31.0902 160.725L31.0362 160.644L30.9823 160.562L30.9285 160.486L30.8748 160.412L30.8212 160.33L30.7676 160.249L30.7141 160.167L30.6606 160.085L30.6073 160.014L30.5539 159.934L30.5007 159.852L30.4476 159.77L30.3944 159.688L30.3414 159.611L30.2884 159.536L30.2355 159.454L30.1827 159.372L30.13 159.29L30.0772 159.207L30.0247 159.136L29.9721 159.055L29.9196 158.973L29.8672 158.89L29.8148 158.807L29.7625 158.729L29.7104 158.654L29.6582 158.572L29.6062 158.489L29.5542 158.406L29.5023 158.323L29.4504 158.251L29.3987 158.17L29.3469 158.087L29.2953 158.004L29.2438 157.92L29.1922 157.842L29.1408 157.766L29.0895 157.683L29.0382 157.6L28.987 157.516L28.9358 157.433L28.8847 157.36L28.8338 157.278L28.7828 157.195L28.732 157.111L28.6812 157.027L28.6304 156.948L28.5798 156.872L28.5293 156.788L28.4787 156.704L28.4283 156.62L28.378 156.536L28.3276 156.463L28.2774 156.38L28.2273 156.296L28.1771 156.212L28.1272 156.128L28.0773 156.048L28.0274 155.972L27.9776 155.887L27.9279 155.803L27.8782 155.718L27.8287 155.633L27.7792 155.559L27.7297 155.477L27.6804 155.392L27.6311 155.307L27.5819 155.222L27.5328 155.142L27.4837 155.065L27.4347 154.98L27.3858 154.895L27.3369 154.81L27.2881 154.725L27.2394 154.65L27.1907 154.567L27.1422 154.482L27.0937 154.396L27.0452 154.311L26.9969 154.23L26.9487 154.153L26.9004 154.067L26.8524 153.982L26.8043 153.896L26.7563 153.81L26.7084 153.735L26.6606 153.651L26.6128 153.566L26.5651 153.48L26.5175 153.394L26.4699 153.312L26.4225 153.234L26.375 153.148L26.3278 153.062L26.2805 152.976L26.2333 152.89L26.1862 152.814L26.1392 152.73L26.0922 152.644L26.0454 152.557L25.9986 152.471L25.9518 152.388L25.9052 152.31L25.8586 152.224L25.812 152.137L25.7657 152.051L25.7193 151.964L25.673 151.887L25.6268 151.803L25.5807 151.716L25.5346 151.629L25.4886 151.542L25.4427 151.459L25.3968 151.381L25.3511 151.294L25.3054 151.207L25.2598 151.12L25.2142 151.032L25.1687 150.955L25.1234 150.87L25.0781 150.783L25.0328 150.696L24.9877 150.608L24.9425 150.524L24.8974 150.446L24.8526 150.358L24.8077 150.271L24.7629 150.183L24.7182 150.095L24.6735 150.017L24.629 149.932L24.5845 149.844L24.5401 149.757L24.4957 149.669L24.4515 149.584L24.4072 149.505L24.3632 149.417L24.3191 149.329L24.2751 149.241L24.2313 149.153L24.1874 149.074L24.1437 148.989L24.1001 148.9L24.0564 148.812L24.0129 148.724L23.9695 148.639L23.9261 148.559L23.8829 148.471L23.8397 148.382L23.7965 148.293L23.7535 148.205L23.7105 148.126L23.6676 148.04L23.6248 147.951L23.5821 147.862L23.5393 147.773L23.4968 147.688L23.4543 147.608L23.4118 147.519L23.3695 147.43L23.3272 147.341L23.2849 147.252L23.2428 147.172L23.2007 147.086L23.1587 146.997L23.1169 146.907L23.075 146.818L23.0333 146.732L22.9917 146.652L22.95 146.562L22.9085 146.473L22.8671 146.383L22.8257 146.294L22.7844 146.213L22.7432 146.127L22.702 146.037L22.661 145.947L22.62 145.857L22.5791 145.771L22.5383 145.69L22.4976 145.6L22.4569 145.51L22.4163 145.42L22.3758 145.33L22.3353 145.25L22.295 145.163L22.2547 145.072L22.2145 144.982L22.1744 144.892L22.1343 144.805L22.0944 144.724L22.0545 144.633L22.0146 144.543L21.975 144.453L21.9353 144.362L21.8957 144.281L21.8562 144.193L21.8168 144.103L21.7774 144.012L21.7382 143.922L21.6991 143.834L21.6599 143.753L21.6209 143.662L21.582 143.571L21.5431 143.48L21.5043 143.389L21.4656 143.308L21.427 143.22L21.3884 143.129L21.3499 143.038L21.3115 142.947L21.2732 142.858L21.2349 142.777L21.1968 142.686L21.1587 142.594L21.1207 142.503L21.0828 142.412L21.045 142.329L21.0072 142.241L20.9695 142.15L20.9319 142.058L20.8943 141.967L20.8569 141.878L20.8195 141.796L20.7823 141.704L20.7451 141.613L20.7079 141.521L20.6709 141.429L20.634 141.347L20.597 141.258L20.5603 141.166L20.5235 141.074L20.4868 140.983L20.4503 140.893L20.4138 140.811L20.3774 140.719L20.3411 140.627L20.3049 140.535L20.2687 140.443L20.2326 140.36L20.1966 140.271L20.1606 140.178L20.1248 140.086L20.089 139.994L20.0534 139.904L20.0177 139.822L19.9822 139.729L19.9468 139.637L19.9114 139.544L19.876 139.452L19.8409 139.368L19.8058 139.279L19.7707 139.186L19.7358 139.093L19.7009 139.001L19.666 138.911L19.6314 138.828L19.5967 138.735L19.5621 138.642L19.5277 138.549L19.4932 138.456L19.4589 138.372L19.4247 138.283L19.3905 138.19L19.3565 138.096L19.3225 138.003L19.2885 137.913L19.2548 137.83L19.221 137.736L19.1873 137.643L19.1538 137.55L19.1202 137.456L19.0868 137.372L19.0535 137.282L19.0202 137.189L18.987 137.095L18.9539 137.002L18.9209 136.911L18.8879 136.827L18.8551 136.734L18.8223 136.64L18.7896 136.546L18.7571 136.453L18.7245 136.368L18.692 136.278L18.6597 136.184L18.6273 136.09L18.5952 135.996L18.5631 135.905L18.531 135.821L18.4991 135.727L18.4672 135.633L18.4354 135.539L18.4037 135.445L18.3721 135.36L18.3406 135.269L18.3091 135.175L18.2777 135.081L18.2464 134.987L18.2152 134.895L18.184 134.811L18.153 134.717L18.1221 134.622L18.0911 134.528L18.0604 134.434L18.0297 134.348L17.999 134.257L17.9685 134.163L17.938 134.068L17.9076 133.974L17.8773 133.881L17.847 133.797L17.8169 133.702L17.7869 133.608L17.7569 133.513L17.727 133.418L17.6972 133.332L17.6674 133.241L17.6378 133.147L17.6083 133.052L17.5787 132.957L17.5494 132.864L17.5201 132.78L17.4908 132.685L17.4617 132.59L17.4326 132.495L17.4036 132.4L17.3747 132.313L17.3459 132.222L17.3172 132.127L17.2885 132.032L17.2599 131.936L17.2315 131.843L17.2031 131.758L17.1747 131.663L17.1466 131.568L17.1184 131.472L17.0903 131.377L17.0624 131.29L17.0345 131.199L17.0066 131.103L16.9789 131.008L16.9513 130.912L16.9237 130.819L16.8963 130.734L16.8688 130.638L16.8415 130.543L16.8143 130.447L16.7871 130.351L16.7601 130.264L16.7331 130.172L16.7062 130.077L16.6794 129.981L16.6527 129.885L16.626 129.791L16.5995 129.706L16.573 129.61L16.5466 129.514L16.5204 129.418L16.4941 129.322L16.4679 129.234L16.4419 129.143L16.4159 129.047L16.3901 128.951L16.3643 128.854L16.3385 128.76L16.3129 128.675L16.2874 128.579L16.2619 128.482L16.2365 128.386L16.2113 128.29L16.186 128.202L16.1609 128.11L16.1359 128.013L16.1109 127.917L16.0861 127.821L16.0613 127.726L16.0365 127.64L16.012 127.544L15.9874 127.447L15.963 127.351L15.9386 127.254L15.9143 127.166L15.8901 127.074L15.866 126.977L15.8419 126.881L15.8181 126.784L15.7942 126.689L15.7704 126.603L15.7468 126.506L15.7231 126.41L15.6996 126.313L15.6762 126.216L15.6529 126.127L15.6296 126.035L15.6064 125.938L15.5833 125.841L15.5603 125.744L15.5374 125.649L15.5145 125.563L15.4918 125.466L15.4692 125.369L15.4465 125.272L15.4241 125.175L15.4017 125.086L15.3793 124.993L15.3571 124.896L15.3349 124.799L15.3128 124.702L15.2909 124.606L15.269 124.52L15.2472 124.423L15.2255 124.325L15.2038 124.228L15.1823 124.131L15.1608 124.041L15.1394 123.949L15.1181 123.851L15.0969 123.754L15.0757 123.657L15.0547 123.561L15.0338 123.474L15.0128 123.377L14.9921 123.279L14.9714 123.182L14.9508 123.084L14.9303 122.994L14.9098 122.902L14.8894 122.804L14.8692 122.707L14.849 122.609L14.8289 122.513L14.8089 122.426L14.7889 122.328L14.7691 122.231L14.7494 122.133L14.7296 122.035L14.7101 121.945L14.6906 121.852L14.6711 121.754L14.6518 121.657L14.6326 121.559L14.6134 121.462L14.5944 121.375L14.5754 121.278L14.5565 121.18L14.5377 121.082L14.5189 120.984L14.5003 120.893L14.4818 120.8L14.4632 120.702L14.4449 120.604L14.4266 120.506L14.4083 120.409L14.3902 120.323L14.3722 120.224L14.3542 120.126L14.3364 120.028L14.3186 119.93L14.3009 119.839L14.2833 119.746L14.2658 119.648L14.2483 119.55L14.231 119.451L14.2137 119.354L14.1965 119.267L14.1795 119.169L14.1624 119.071L14.1455 118.972L14.1287 118.874L14.1119 118.783L14.0953 118.69L14.0787 118.591L14.0622 118.493L14.0458 118.395L14.0295 118.297L14.0132 118.21L13.9972 118.112L13.9811 118.013L13.9651 117.915L13.9492 117.816L13.9334 117.725L13.9177 117.632L13.9021 117.533L13.8865 117.434L13.8711 117.336L13.8557 117.238L13.8404 117.151L13.8253 117.052L13.8102 116.954L13.7951 116.855L13.7802 116.756L13.7654 116.665L13.7506 116.571L13.7359 116.473L13.7213 116.374L13.7068 116.275L13.6924 116.177L13.6781 116.09L13.6638 115.991L13.6497 115.892L13.6356 115.794L13.6217 115.695L13.6078 115.603L13.5939 115.509L13.5802 115.41L13.5666 115.312L13.553 115.213L13.5396 115.115L13.5262 115.027L13.5129 114.928L13.4997 114.829L13.4866 114.73L13.4736 114.631L13.4607 114.539L13.4478 114.446L13.435 114.347L13.4223 114.248L13.4097 114.149L13.3972 114.05L13.3848 113.963L13.3724 113.864L13.3602 113.765L13.3481 113.665L13.3359 113.566L13.324 113.474L13.3121 113.381L13.3002 113.281L13.2886 113.182L13.2769 113.083L13.2653 112.984L13.2539 112.897L13.2425 112.798L13.2312 112.699L13.22 112.599L13.2088 112.5L13.1978 112.408L13.1869 112.314L13.176 112.215L13.1653 112.115L13.1546 112.016L13.1439 111.917L13.1335 111.83L13.123 111.73L13.1127 111.631L13.1025 111.532L13.0923 111.432L13.0822 111.34L13.0722 111.246L13.0623 111.146L13.0525 111.047L13.0427 110.948L13.033 110.849L13.0235 110.761L13.0141 110.662L13.0046 110.562L12.9954 110.463L12.9862 110.363L12.977 110.271L12.968 110.177L12.959 110.077L12.9501 109.978L12.9414 109.878L12.9327 109.779L12.9241 109.692L12.9156 109.592L12.9071 109.492L12.8988 109.393L12.8905 109.293L12.8823 109.2L12.8743 109.106L12.8663 109.007L12.8583 108.907L12.8505 108.808L12.8428 108.708L12.8351 108.621L12.8276 108.521L12.8201 108.422L12.8126 108.322L12.8054 108.222L12.7982 108.129L12.791 108.035L12.784 107.936L12.777 107.836L12.7701 107.736L12.7634 107.637L12.7566 107.549L12.75 107.449L12.7435 107.35L12.737 107.25L12.7307 107.15L12.7245 107.057L12.7182 106.963L12.7122 106.863L12.7062 106.764L12.7002 106.664L12.6944 106.564L12.6887 106.477L12.683 106.377L12.6775 106.277L12.6719 106.177L12.6665 106.077L12.6612 105.984L12.656 105.89L12.6508 105.79L12.6458 105.691L12.6408 105.591L12.6359 105.491L12.6312 105.404L12.6264 105.304L12.6218 105.204L12.6173 105.104L12.6128 105.004L12.6085 104.911L12.6042 104.817L12.5999 104.717L12.5959 104.617L12.5919 104.517L12.5879 104.417L12.5841 104.33L12.5803 104.23L12.5766 104.13L12.5731 104.03L12.5695 103.93L12.5661 103.837L12.5628 103.743L12.5595 103.643L12.5564 103.543L12.5533 103.443L12.5503 103.343L12.5475 103.256L12.5446 103.156L12.5419 103.056L12.5393 102.956L12.5367 102.856L12.5342 102.762L12.5319 102.669L12.5296 102.569L12.5273 102.469L12.5253 102.369L12.5232 102.269L12.5212 102.181L12.5194 102.081L12.5176 101.981L12.5159 101.881L12.5143 101.781L12.5127 101.687L12.5114 101.594L12.51 101.494L12.5087 101.394L12.5076 101.294L12.5065 101.194L12.5054 101.106L12.5046 101.006L12.5037 100.907L12.5029 100.807L12.5023 100.707L12.5017 100.613L12.5012 100.519L12.5008 100.419L12.5005 100.319L12.5002 100.219L12.5001 100.119L12.5 100.031L12.5 99.9317L12.5002 99.8316L12.5003 99.7317L12.5007 99.6317L12.501 99.5376L12.5014 99.4442L12.502 99.3443L12.5026 99.2443L12.5033 99.1443L12.5041 99.0443L12.505 98.9564L12.5059 98.8568L12.507 98.7569L12.5081 98.6569L12.5094 98.5569L12.5107 98.4627L12.512 98.3695L12.5135 98.2695L12.5151 98.1695L12.5167 98.0696L12.5185 97.9696L12.5203 97.8816L12.5222 97.7822L12.5242 97.6822L12.5263 97.5822L12.5284 97.4823L12.5307 97.3881L12.5331 97.2949L12.5354 97.1949L12.538 97.095L12.5406 96.995L12.5432 96.8951L12.5461 96.8071L12.5489 96.7078L12.5518 96.6078L12.5549 96.5079L12.558 96.4079L12.5611 96.3136L12.5645 96.2206L12.5679 96.1207L12.5713 96.0207L12.5749 95.9208L12.5785 95.8209L12.5822 95.7328L12.586 95.6336L12.5899 95.5337L12.5939 95.4338L12.598 95.3339L12.6021 95.2396L12.6063 95.1466L12.6107 95.0467L12.6151 94.9469L12.6195 94.847L12.6242 94.7471L12.6288 94.659L12.6336 94.5599L12.6384 94.46L12.6433 94.3602L12.6483 94.2604L12.6535 94.166L12.6586 94.0732L12.6639 93.9733L12.6693 93.8735L12.6747 93.7737L12.6803 93.6739L12.6859 93.5858L12.6915 93.4868L12.6974 93.387L12.7033 93.2873L12.7091 93.1875L12.7153 93.0931L12.7214 93.0004L12.7276 92.9006L12.7339 92.8009L12.7403 92.7012L12.7468 92.6014L12.7534 92.5133L12.76 92.4145L12.7667 92.3147L12.7736 92.215L12.7805 92.1153L12.7875 92.0209L12.7947 91.9284L12.8018 91.8287L12.809 91.729L12.8164 91.6293L12.8238 91.5296L12.8314 91.4415L12.839 91.3428L12.8467 91.2432L12.8545 91.1436L12.8624 91.0439L12.8703 90.9495L12.8783 90.8572L12.8865 90.7576L12.8947 90.658L12.903 90.5584L12.9114 90.4588L12.9198 90.3706L12.9284 90.2722L12.9371 90.1726L12.9458 90.0731L12.9546 89.9736L12.9636 89.8792L12.9725 89.787L12.9816 89.6875L12.9908 89.588L13 89.4885L13.0094 89.389L13.0188 89.3009L13.0283 89.2026L13.038 89.1031L13.0476 89.0037L13.0574 88.9042L13.0673 88.8099L13.0772 88.7179L13.0872 88.6185L13.0974 88.5191L13.1076 88.4197L13.1179 88.3203L13.1283 88.2322L13.1387 88.1341L13.1493 88.0348L13.16 87.9354L13.1707 87.8361L13.1815 87.7418L13.1924 87.65L13.2034 87.5507L13.2145 87.4514L13.2257 87.3522L13.2368 87.2529L13.2483 87.1648L13.2597 87.0669L13.2711 86.9677L13.2828 86.8684L13.2945 86.7692L13.3062 86.675L13.3181 86.5833L13.3301 86.4842L13.342 86.385L13.3542 86.2859L13.3664 86.1868L13.3787 86.0988L13.3911 86.0011L13.4035 85.9019L13.4161 85.8028L13.4288 85.7038L13.4414 85.6096L13.4543 85.5182L13.4672 85.4192L13.4801 85.3201L13.4932 85.2211L13.5064 85.1221L13.5196 85.0342L13.533 84.9367L13.5464 84.8378L13.5599 84.7388L13.5735 84.6399L13.5872 84.5457L13.6009 84.4546L13.6148 84.3557L13.6287 84.2568L13.6427 84.158L13.6569 84.0591L13.6711 83.9713L13.6853 83.874L13.6997 83.7752L13.7142 83.6764L13.7287 83.5776L13.7434 83.4835L13.7581 83.3926L13.7728 83.2939L13.7878 83.1952L13.8027 83.0965L13.8178 82.9978L13.833 82.9101L13.8482 82.813L13.8635 82.7144L13.8789 82.6158L13.8944 82.5172L13.91 82.4232L13.9257 82.3326L13.9414 82.234L13.9573 82.1354L13.9732 82.0369L13.9891 81.9384L14.0053 81.8507L14.0215 81.754L14.0377 81.6555L14.0541 81.557L14.0706 81.4586L14.087 81.3647L14.1037 81.2743L14.1204 81.1759L14.1372 81.0776L14.1541 80.9792L14.1711 80.8809L14.1881 80.7933L14.2053 80.6968L14.2224 80.5986L14.2397 80.5003L14.2572 80.4021L14.2746 80.3083L14.2922 80.2181L14.3099 80.12L14.3276 80.0218L14.3454 79.9237L14.3634 79.8255L14.3813 79.738L14.3994 79.6418L14.4176 79.5437L14.4358 79.4457L14.4542 79.3476L14.4726 79.254L14.4911 79.1641L14.5097 79.0661L14.5284 78.9681L14.5471 78.8702L14.5661 78.7723L14.585 78.6849L14.604 78.589L14.6232 78.4911L14.6423 78.3932L14.6616 78.2954L14.681 78.2019L14.7004 78.1123L14.72 78.0145L14.7396 77.9168L14.7593 77.819L14.7791 77.7213L14.7991 77.6341L14.819 77.5384L14.8391 77.4408L14.8592 77.3432L14.8794 77.2455L14.8998 77.1521L14.9202 77.0629L14.9406 76.9653L14.9612 76.8678L14.9819 76.7703L15.0026 76.6728L15.0235 76.5857L15.0444 76.4904L15.0653 76.3929L15.0865 76.2955L15.1076 76.1982L15.1288 76.1049L15.1503 76.0159L15.1717 75.9186L15.1932 75.8213L15.2148 75.7241L15.2365 75.6268L15.2582 75.5399L15.2801 75.4449L15.302 75.3477L15.324 75.2505L15.3462 75.1534L15.3683 75.0603L15.3906 74.9716L15.413 74.8746L15.4354 74.7775L15.458 74.6804L15.4806 74.5835L15.5033 74.4967L15.5261 74.402L15.549 74.3051L15.5719 74.2081L15.595 74.1113L15.6182 74.0183L15.6413 73.93L15.6647 73.8332L15.6881 73.7364L15.7115 73.6396L15.7351 73.5428L15.7587 73.4563L15.7824 73.3619L15.8063 73.2653L15.8302 73.1686L15.8541 73.072L15.8783 72.9792L15.9024 72.8912L15.9266 72.7947L15.951 72.6982L15.9753 72.6016L15.9998 72.5052L16.0244 72.4188L16.049 72.3247L16.0738 72.2283L16.0987 72.132L16.1235 72.0356L16.1486 71.9431L16.1736 71.8555L16.1987 71.7591L16.2241 71.6629L16.2494 71.5667L16.2748 71.4705L16.3003 71.3843L16.3259 71.2906L16.3515 71.1945L16.3774 71.0984L16.4032 71.0023L16.4291 70.91L16.4551 70.8228L16.4812 70.7267L16.5074 70.6308L16.5337 70.5348L16.56 70.4388L16.5864 70.3529L16.613 70.2596L16.6395 70.1638L16.6662 70.068L16.693 69.9722L16.7198 69.88L16.7468 69.7932L16.7738 69.6975L16.8008 69.6018L16.8281 69.5061L16.8553 69.4105L16.8826 69.3247L16.9101 69.2318L16.9376 69.1363L16.9652 69.0408L16.993 68.9453L17.0207 68.8534L17.0485 68.7669L17.0765 68.6715L17.1045 68.5761L17.1326 68.4808L17.1608 68.3855L17.1891 68.2999L17.2174 68.2074L17.2459 68.1121L17.2744 68.0169L17.303 67.9218L17.3317 67.8301L17.3604 67.744L17.3894 67.6489L17.4183 67.5539L17.4473 67.4588L17.4764 67.3638L17.5056 67.2785L17.5348 67.1864L17.5642 67.0915L17.5937 66.9966L17.6232 66.9017L17.6528 66.8103L17.6825 66.7246L17.7122 66.6299L17.7421 66.5352L17.772 66.4405L17.802 66.3458L17.8322 66.2607L17.8623 66.169L17.8926 66.0745L17.923 65.9799L17.9533 65.8854L17.9839 65.7942L18.0145 65.7089L18.0451 65.6145L18.0759 65.5201L18.1068 65.4257L18.1377 65.3314L18.1687 65.2466L18.1998 65.1553L18.2309 65.061L18.2623 64.9669L18.2936 64.8727L18.325 64.7817L18.3565 64.6969L18.3881 64.6029L18.4197 64.5088L18.4515 64.4148L18.4833 64.3208L18.5152 64.2363L18.5473 64.1454L18.5793 64.0515L18.6115 63.9576L18.6438 63.8638L18.676 63.7731L18.7084 63.6888L18.741 63.595L18.7735 63.5013L18.8062 63.4077L18.8389 63.314L18.8717 63.2297L18.9046 63.1394L18.9376 63.0458L18.9706 62.9523L19.0038 62.8589L19.037 62.7685L19.0703 62.6845L19.1037 62.5912L19.1371 62.4979L19.1706 62.4046L19.2043 62.3113L19.238 62.2274L19.2718 62.1374L19.3057 62.0443L19.3396 61.9511L19.3736 61.858L19.4078 61.768L19.4419 61.6845L19.4763 61.5914L19.5106 61.4985L19.545 61.4056L19.5796 61.3127L19.6142 61.229L19.6488 61.1395L19.6836 61.0468L19.7185 60.954L19.7533 60.8613L19.7884 60.7715L19.8235 60.6885L19.8586 60.5959L19.8939 60.5033L19.9292 60.4108L19.9646 60.3183L20.0001 60.2349L20.0356 60.1459L20.0713 60.0535L20.107 59.9612L20.1428 59.8688L20.1787 59.7793L20.2147 59.6968L20.2507 59.6046L20.2869 59.5124L20.3231 59.4203L20.3593 59.3282L20.3957 59.2451L20.4322 59.1566L20.4687 59.0646L20.5053 58.9726L20.542 58.8807L20.5787 58.7915L20.6156 58.7095L20.6526 58.6176L20.6895 58.5258L20.7267 58.4341L20.7638 58.3424L20.801 58.2597L20.8384 58.1717L20.8758 58.08L20.9133 57.9885L20.9509 57.897L20.9885 57.8082L21.0262 57.7266L21.0641 57.6352L21.1019 57.5439L21.1399 57.4525L21.1779 57.3612L21.216 57.2788L21.2542 57.1913L21.2925 57.1001L21.3308 57.009L21.3693 56.9179L21.4078 56.8294L21.4464 56.7483L21.4851 56.6574L21.5238 56.5664L21.5626 56.4755L21.6016 56.3847L21.6406 56.3026L21.6796 56.2156L21.7188 56.1249L21.758 56.0342L21.7972 55.9435L21.8367 55.8554L21.8761 55.7748L21.9156 55.6842L21.9553 55.5938L21.9949 55.5033L22.0347 55.4129L22.0746 55.3312L22.1145 55.2446L22.1545 55.1543L22.1946 55.0641L22.2347 54.9738L22.275 54.8861L22.3153 54.8061L22.3556 54.716L22.3962 54.6259L22.4367 54.5359L22.4773 54.4459L22.5181 54.3646L22.5588 54.2786L22.5996 54.1887L22.6406 54.0989L22.6816 54.0091L22.7227 53.9217L22.7639 53.8422L22.8051 53.7526L22.8464 53.6629L22.8879 53.5734L22.9293 53.4838L22.9709 53.4029L23.0126 53.3174L23.0542 53.228L23.096 53.1387L23.1379 53.0494L23.1798 52.9623L23.2219 52.8833L23.264 52.7941L23.3061 52.705L23.3484 52.6159L23.3907 52.5269L23.433 52.4463L23.4756 52.3613L23.5181 52.2724L23.5607 52.1835L23.6035 52.0947L23.6462 52.008L23.6891 51.9296L23.7321 51.8409L23.7751 51.7522L23.8181 51.6636L23.8613 51.575L23.9045 51.4948L23.9478 51.4104L23.9913 51.322L24.0347 51.2335L24.0783 51.1452L24.1219 51.0589L24.1656 50.9811L24.2094 50.8928L24.2532 50.8046L24.2971 50.7164L24.3412 50.6283L24.3852 50.5486L24.4293 50.4647L24.4736 50.3768L24.5179 50.2889L24.5622 50.2009L24.6068 50.1151L24.6513 50.0378L24.6958 49.95L24.7406 49.8623L24.7853 49.7747L24.8301 49.687L24.8751 49.6076L24.92 49.5244L24.9651 49.4369L25.0102 49.3495L25.0554 49.2621L25.1007 49.1766L25.1461 49.1L25.1915 49.0127L25.237 48.9255L25.2826 48.8383L25.3282 48.7512L25.3739 48.6722L25.4198 48.5896L25.4656 48.5025L25.5116 48.4156L25.5576 48.3287L25.6037 48.2436L25.6499 48.1676L25.6961 48.0808L25.7424 47.994L25.7889 47.9074L25.8353 47.8208L25.8819 47.7422L25.9285 47.6602L25.9752 47.5737L26.0219 47.4873L26.0688 47.4009L26.1157 47.3163L26.1627 47.2407L26.2098 47.1545L26.2569 47.0683L26.3041 46.9822L26.3514 46.896L26.3988 46.8179L26.4462 46.7365L26.4937 46.6505L26.5412 46.5646L26.5889 46.4788L26.6366 46.3946L26.6844 46.3196L26.7323 46.2339L26.7803 46.1483L26.8282 46.0626L26.8764 45.9771L26.9245 45.8994L26.9727 45.8185L27.0211 45.7331L27.0695 45.6477L27.1179 45.5623L27.1665 45.4787L27.215 45.4043L27.2637 45.3191L27.3125 45.234L27.3613 45.1489L27.4102 45.0638L27.4591 44.9866L27.5081 44.9064L27.5573 44.8215L27.6065 44.7366L27.6557 44.6518L27.705 44.5686L27.7544 44.4949L27.8038 44.4102L27.8534 44.3256L27.903 44.2411L27.9527 44.1565L28.0025 44.0798L28.0523 44.0002L28.1021 43.9158L28.1522 43.8315L28.2022 43.7473L28.2523 43.6644L28.3025 43.5914L28.3528 43.5072L28.4031 43.4232L28.4535 43.3392L28.504 43.2552L28.5545 43.1789L28.6052 43.0999L28.6558 43.0161L28.7066 42.9324L28.7574 42.8487L28.8083 42.7663L28.8592 42.6939L28.9103 42.6103L28.9614 42.5268L29.0126 42.4434L29.0639 42.36L29.1151 42.2841L29.1666 42.2059L29.218 42.1226L29.2695 42.0394L29.3212 41.9563L29.3728 41.8744L29.4245 41.8026L29.4764 41.7197L29.5283 41.6367L29.5802 41.5538L29.6323 41.471L29.6843 41.3956L29.7365 41.3179L29.7888 41.2353L29.841 41.1526L29.8934 41.0701L29.9459 40.9887L29.9984 40.9175L30.051 40.8351L30.1036 40.7528L30.1563 40.6704L30.2091 40.5882L30.262 40.5134L30.3149 40.4363L30.368 40.3542L30.421 40.2722L30.4741 40.1901L30.5274 40.1093L30.5807 40.0388L30.634 39.9569L30.6874 39.8752L30.7409 39.7935L30.7944 39.7118L30.8481 39.6375L30.9017 39.5611L30.9555 39.4796L31.0094 39.3981L31.0632 39.3167L31.1172 39.2364L31.1712 39.1666L31.2253 39.0853L31.2795 39.0041L31.3338 38.923L31.388 38.8418L31.4424 38.768L31.4969 38.6924L31.5513 38.6114L31.606 38.5306L31.6606 38.4497L31.7153 38.3698L31.7702 38.3008L31.825 38.2201L31.8798 38.1395L31.9349 38.059L31.99 37.9785L32.045 37.9051L32.1003 37.8302L32.1555 37.7498L32.2108 37.6696L32.2662 37.5894L32.3217 37.51L32.3772 37.4416L32.4328 37.3615L32.4885 37.2815L32.5442 37.2016L32.6 37.1217L32.6558 37.0489L32.7118 36.9746L32.7678 36.8949L32.8238 36.8152L32.88 36.7356L32.9362 36.6568L32.9924 36.5891L33.0488 36.5097L33.1052 36.4303L33.1616 36.3509L33.2182 36.2717L33.2748 36.1994L33.3314 36.1258L33.3882 36.0467L33.445 35.9676L33.5018 35.8886L33.5588 35.8104L33.6158 35.7433L33.6728 35.6645L33.73 35.5858L33.7871 35.5071L33.8444 35.4284L33.9017 35.3567L33.9591 35.2838L34.0166 35.2053L34.0741 35.1269L34.1316 35.0485L34.1893 34.9708L34.2471 34.9045L34.3048 34.8263L34.3627 34.7482L34.4206 34.6701L34.4785 34.5921L34.5366 34.521L34.5947 34.4487L34.6528 34.3709L34.7111 34.2931L34.7694 34.2154L34.8277 34.1382L34.8862 34.0726L34.9447 33.995L35.0033 33.9175L35.0619 33.8401L35.1206 33.7627L35.1793 33.6921L35.2382 33.6207L35.297 33.5434L35.356 33.4663L35.415 33.3892L35.474 33.3126L35.5332 33.2477L35.5924 33.1708L35.6516 33.0939L35.711 33.0172L35.7704 32.9404L35.8298 32.8703L35.8894 32.7997L35.949 32.7231L36.0085 32.6466L36.0683 32.5702L36.1281 32.4941L36.1879 32.4299L36.2479 32.3537L36.3078 32.2775L36.3678 32.2014L36.4279 32.1253L36.4881 32.0558L36.5483 31.9858L36.6086 31.9099L36.6689 31.8341L36.7293 31.7583L36.7898 31.6829L36.8503 31.6194L36.911 31.5438L36.9716 31.4683L37.0323 31.3928L37.0931 31.3174L37.154 31.2485L37.2148 31.1792L37.2758 31.104L37.3369 31.0288L37.3979 30.9537L37.4591 30.8788L37.5203 30.8162L37.5816 30.7412L37.643 30.6663L37.7044 30.5915L37.7658 30.5168L37.8274 30.4485L37.8889 30.38L37.9506 30.3054L38.0123 30.2309L38.0741 30.1564L38.136 30.0822L38.1979 30.0203L38.2598 29.946L38.3218 29.8718L38.3839 29.7977L38.4461 29.7235L38.5083 29.6559L38.5706 29.5881L38.6328 29.5142L38.6953 29.4404L38.7577 29.3667L38.8202 29.2929L38.8828 29.2318L38.9454 29.1582L39.0081 29.0847L39.0709 29.0113L39.1337 28.9378L39.1965 28.8707L39.2595 28.8038L39.3225 28.7305L39.3856 28.6574L39.4487 28.5843L39.5118 28.5113L39.5751 28.4508L39.6384 28.378L39.7017 28.3051L39.7652 28.2324L39.8287 28.1597L39.8921 28.0931L39.9558 28.027L40.0194 27.9545L40.0831 27.8819L40.1469 27.8096L40.2108 27.7373L40.2746 27.6773L40.3386 27.6053L40.4026 27.5332L40.4666 27.4611L40.5308 27.3891L40.595 27.3232L40.6592 27.2578L40.7236 27.186L40.7879 27.1142L40.8523 27.0426L40.9169 26.9709L40.9814 26.9116L41.046 26.8404L41.1107 26.769L41.1753 26.6976L41.2402 26.6263L41.305 26.561L41.3699 26.4963L41.4349 26.4253L41.4999 26.3542L41.5649 26.2832L41.6301 26.2124L41.6952 26.1537L41.7605 26.0831L41.8258 26.0125L41.8912 25.9418L41.9565 25.8712L42.022 25.8066L42.0876 25.7428L42.1532 25.6723L42.2188 25.6021L42.2845 25.5318L42.3503 25.4616L42.4161 25.4036L42.4819 25.3339L42.5479 25.2639L42.6139 25.1939L42.6799 25.124L42.7461 25.0601L42.8123 24.997L42.8784 24.9273L42.9447 24.8577L43.0111 24.7882L43.0774 24.7187L43.1439 24.6613L43.2104 24.5925L43.2769 24.5231L43.3436 24.454L43.4103 24.3848L43.477 24.3214L43.5438 24.2592L43.6106 24.1903L43.6775 24.1214L43.7445 24.0526L43.8115 23.9838L43.8786 23.9271L43.9457 23.859L44.0129 23.7905L44.0801 23.722L44.1474 23.6536L44.2147 23.5909L44.2821 23.5295L44.3496 23.4613L44.4171 23.3931L44.4847 23.3251L44.5523 23.2571L44.6199 23.2009L44.6877 23.1338L44.7555 23.0659L44.8233 22.9981L44.8912 22.9305L44.9592 22.8685L45.0271 22.8079L45.0952 22.7404L45.1633 22.673L45.2315 22.6056L45.2998 22.5384L45.368 22.483L45.4363 22.4166L45.5047 22.3496L45.5731 22.2825L45.6417 22.2156L45.7102 22.1543L45.7788 22.0944L45.8475 22.0278L45.9162 21.9611L45.9849 21.8945L46.0538 21.828L46.1227 21.7733L46.1915 21.7076L46.2606 21.6414L46.3296 21.5751L46.3986 21.5089L46.4678 21.4483L46.537 21.3893L46.6062 21.3233L46.6756 21.2575L46.7449 21.1916L46.8143 21.1259L46.8838 21.0718L46.9533 21.0071L47.0229 20.9415L47.0925 20.876L47.1621 20.8106L47.2318 20.7506L47.3016 20.6925L47.3714 20.6273L47.4414 20.5622L47.5113 20.4971L47.5812 20.4321L47.6513 20.3787L47.7214 20.3148L47.7915 20.25L47.8618 20.1853L47.932 20.1207L48.0023 20.0613L48.0726 20.0041L48.143 19.9397L48.2134 19.8753L48.284 19.8111L48.3545 19.7468L48.4251 19.6941L48.4958 19.6311L48.5665 19.567L48.6373 19.5031L48.7081 19.4393L48.7789 19.3805L48.8499 19.3242L48.9208 19.2605L48.9918 19.1969L49.0629 19.1335L49.134 19.07L49.2052 19.018L49.2764 18.9558L49.3477 18.8926L49.419 18.8294L49.4904 18.7663L49.5618 18.7084L49.6332 18.6528L49.7048 18.59L49.7764 18.5271L49.848 18.4644L49.9197 18.4018L49.9914 18.3504L50.0632 18.2891L50.135 18.2267L50.2069 18.1643L50.2788 18.102L50.3508 18.0448L50.4228 17.9901L50.4949 17.928L50.567 17.866L50.6391 17.804L50.7114 17.7422L50.7837 17.6916L50.8559 17.6311L50.9283 17.5695L51.0007 17.5079L51.0732 17.4464L51.1458 17.3899L51.2183 17.3361L51.2909 17.2748L51.3636 17.2136L51.4362 17.1524L51.509 17.0913L51.5819 17.0414L51.6547 16.9818L51.7276 16.921L51.8006 16.8602L51.8735 16.7995L51.9466 16.7437L52.0197 16.6908L52.0928 16.6302L52.166 16.5699L52.2393 16.5095L52.3125 16.4492L52.3859 16.4001L52.4592 16.3414L52.5327 16.2813L52.6062 16.2214L52.6797 16.1615L52.7532 16.1064L52.8269 16.0544L52.9005 15.9947L52.9742 15.9351L53.048 15.8755L53.1218 15.816L53.1957 15.7676L53.2696 15.7098L53.3435 15.6505L53.4175 15.5914L53.4916 15.5323L53.5656 15.4779L53.6398 15.4268L53.714 15.368L53.7882 15.3091L53.8624 15.2504L53.9367 15.1918L54.0111 15.144L54.0856 15.0872L54.16 15.0287L54.2345 14.9704L54.3091 14.9121L54.3836 14.8585L54.4583 14.8082L54.533 14.7502L54.6077 14.6922L54.6825 14.6343L54.7573 14.5765L54.8321 14.5295L54.9071 14.4735L54.9821 14.4159L55.0571 14.3583L55.1321 14.3009L55.2072 14.248L55.2823 14.1987L55.3575 14.1415L55.4328 14.0843L55.508 14.0272L55.5834 13.9702L55.6587 13.924L55.7341 13.8689L55.8095 13.8122L55.8851 13.7554L55.9606 13.6988L56.0362 13.6467L56.1118 13.5982L56.1875 13.5419L56.2632 13.4856L56.3389 13.4293L56.4147 13.3731L56.4906 13.3276L56.5664 13.2734L56.6424 13.2175L56.7184 13.1617L56.7944 13.1058L56.8705 13.0545L56.9466 13.007L57.0227 12.9514L57.0989 12.8959L57.1751 12.8405L57.2514 12.7852L57.3277 12.7405L57.4041 12.6872L57.4805 12.6321L57.557 12.5771L57.6334 12.5221L57.71 12.4715L57.7866 12.425L57.8632 12.3701L57.9399 12.3155L58.0166 12.261L58.0933 12.2064L58.1701 12.1626L58.2469 12.1102L58.3238 12.0559L58.4007 12.0018L58.4777 11.9476L58.5547 11.8978L58.6317 11.8522L58.7088 11.7983L58.7859 11.7445L58.8631 11.6908L58.9403 11.6371L59.0175 11.5939L59.0948 11.5426L59.1721 11.4891L59.2495 11.4358L59.3269 11.3825L59.4043 11.3334L59.4819 11.2887L59.5594 11.2357L59.6369 11.1827L59.7145 11.1299L59.7922 11.0771L59.8699 11.0346L59.9477 10.9842L60.0254 10.9316L60.1032 10.8792L60.1811 10.8268L60.259 10.7785L60.3369 10.7347L60.4149 10.6825L60.4929 10.6304L60.571 10.5784L60.6491 10.5265L60.7272 10.4848L60.8054 10.4354L60.8836 10.3836L60.9618 10.332L61.0401 10.2805L61.1184 10.233L61.1968 10.1901L61.2752 10.1389L61.3536 10.0876L61.4322 10.0364L61.5107 9.9854L61.5892 9.94452L61.6678 9.89597L61.7465 9.84517L61.8251 9.79438L61.9039 9.74371L61.9826 9.69699L62.0614 9.65505L62.1403 9.60467L62.2191 9.55432L62.298 9.50396L62.377 9.45382L62.456 9.41376L62.535 9.3661L62.6141 9.3162L62.6931 9.26631L62.7722 9.21648L62.8514 9.17058L62.9307 9.12961L63.0099 9.08004L63.0892 9.03059L63.1685 8.98115L63.2478 8.93185L63.3272 8.89261L63.4067 8.84589L63.4862 8.79684L63.5657 8.74785L63.6452 8.69886L63.7248 8.65378L63.8044 8.61382L63.884 8.56507L63.9638 8.51651L64.0435 8.46797L64.1232 8.4195L64.203 8.38109L64.2828 8.33538L64.3627 8.28716L64.4426 8.23906L64.5226 8.19098L64.6025 8.14663L64.6826 8.10766L64.7626 8.05981L64.8427 8.01212L64.9228 7.9645L65.003 7.91685L65.0831 7.87925L65.1634 7.83454L65.2436 7.78716L65.3239 7.73999L65.4042 7.69282L65.4846 7.64921L65.565 7.61124L65.6454 7.56431L65.7259 7.51745L65.8064 7.47075L65.8869 7.42404L65.9675 7.38719L66.0481 7.34345L66.1288 7.29698L66.2094 7.25065L66.2901 7.20441L66.3709 7.16161L66.4517 7.1246L66.5325 7.07857L66.6133 7.03256L66.6942 6.98677L66.7751 6.94099L66.856 6.9049L66.937 6.86219L67.018 6.81664L67.0991 6.77114L67.1802 6.72581L67.2613 6.68386L67.3424 6.64778L67.4236 6.60269L67.5048 6.5576L67.5861 6.51265L67.6673 6.46779L67.7486 6.43251L67.83 6.39076L67.9113 6.34614L67.9927 6.30151L68.0741 6.25712L68.1556 6.21599L68.2371 6.18084L68.3187 6.13668L68.4002 6.09253L68.4818 6.04844L68.5634 6.00451L68.6451 5.97005L68.7268 5.92924L68.8085 5.88555L68.8902 5.84186L68.972 5.79832L69.0538 5.75806L69.1356 5.7239L69.2176 5.6806L69.2995 5.63737L69.3814 5.59415L69.4634 5.55115L69.5454 5.51757L69.6274 5.47769L69.7095 5.43491L69.7916 5.39216L69.8737 5.34946L69.9558 5.31007L70.038 5.27692L70.1202 5.2345L70.2151 5.20471L70.3098 5.17493L70.4046 5.14532L70.4901 5.11578L70.5817 5.08627L70.6766 5.05694L70.7716 5.02769L70.8665 4.99844L70.9585 4.9694L71.044 4.94034L71.139 4.91139L71.2341 4.88266L71.3292 4.85393L71.4243 4.82528L71.5102 4.7967L71.6022 4.76821L71.6974 4.73985L71.7926 4.71166L71.8879 4.68348L71.9802 4.65539L72.066 4.62728L72.1614 4.59937L72.2568 4.57164L72.3522 4.54396L72.4476 4.51632L72.5339 4.48871L72.6261 4.46122L72.7216 4.43384L72.8171 4.40671L72.9127 4.37959L73.0054 4.35245L73.0914 4.32533L73.187 4.29848L73.2828 4.27171L73.3785 4.24509L73.4742 4.21851L73.5609 4.1918L73.6533 4.16536L73.7491 4.13902L73.845 4.11288L73.9408 4.0868L74.0339 4.06065L74.1201 4.03449L74.2161 4.00869L74.312 3.98292L74.408 3.95738L74.5041 3.93184L74.5911 3.90604L74.6837 3.88062L74.7798 3.85535L74.8759 3.83021L74.9721 3.8052L75.0656 3.78008L75.152 3.75482L75.2482 3.73008L75.3445 3.70535L75.4407 3.68082L75.537 3.65637L75.6244 3.63148L75.7173 3.60707L75.8137 3.58288L75.91 3.55872L76.0065 3.53477L76.1003 3.51072L76.1869 3.48636L76.2835 3.46267L76.38 3.43901L76.4765 3.41548L76.5731 3.39208L76.6608 3.3682L76.7538 3.34475L76.8504 3.32163L76.9471 3.2985L77.0438 3.27558L77.1379 3.25258L77.2248 3.22912L77.3215 3.20652L77.4183 3.18392L77.5151 3.16138L77.6119 3.13906L77.7 3.11617L77.7932 3.09367L77.8901 3.07163L77.987 3.04958L78.0839 3.02765L78.1784 3.0057L78.2654 2.98324L78.3624 2.96162L78.4595 2.94009L78.5565 2.91861L78.6535 2.89731L78.742 2.87542L78.8353 2.85391L78.9324 2.83292L79.0296 2.81194L79.1267 2.79102L79.2216 2.77014L79.3087 2.74864L79.4059 2.72802L79.5032 2.70759L79.6005 2.68717L79.6978 2.66685L79.7866 2.64598L79.88 2.6255L79.9774 2.60552L80.0748 2.58562L80.1722 2.56575L80.2673 2.54588L80.3546 2.52537L80.4521 2.50575L80.5496 2.48639L80.6471 2.46705L80.7446 2.44774L80.8336 2.42788L80.9273 2.40844L81.0248 2.38946L81.1225 2.37063L81.2201 2.35184L81.3155 2.33297L81.4029 2.31344L81.5006 2.29489L81.5983 2.27655L81.696 2.25829L81.7938 2.24003L81.8831 2.22114L81.9769 2.20275L82.0746 2.18477L82.1724 2.16703L82.2703 2.14932L82.366 2.13144L82.4536 2.11289L82.5514 2.09544L82.6493 2.0781L82.7472 2.06091L82.8451 2.04375L82.9348 2.0258L83.0287 2.00844L83.1266 1.99153L83.2246 1.97482L83.3227 1.95819L83.4186 1.94133L83.5063 1.92374L83.6044 1.90738L83.7025 1.89103L83.8006 1.87494L83.8987 1.85887L83.9886 1.84186L84.0826 1.82553L84.1808 1.80971L84.279 1.79401L84.3772 1.77847L84.4734 1.76268L84.5612 1.74599L84.6594 1.73073L84.7577 1.71547L84.856 1.70038L84.9543 1.6854L85.0444 1.66937L85.1385 1.65406L85.2368 1.63932L85.3352 1.62463L85.4335 1.61018L85.5301 1.59548L85.6179 1.57969L85.7164 1.56552L85.8148 1.55134L85.9132 1.53727L86.0117 1.52337L86.1021 1.50837L86.1963 1.49401L86.2948 1.48038L86.3933 1.46676L86.4918 1.45332L86.5886 1.43971L86.6765 1.42486L86.7751 1.41174L86.8737 1.39865L86.9723 1.3856L87.0709 1.37279L87.1616 1.35881L87.2558 1.34542L87.3545 1.33288L87.4531 1.32035L87.5518 1.30792L87.6488 1.2954L87.7369 1.28153L87.8356 1.26942L87.9343 1.25742L88.033 1.24545L88.1318 1.23366L88.2227 1.22072L88.317 1.2083L88.4158 1.19684L88.5146 1.1854L88.6134 1.17398L88.7105 1.16256L88.7987 1.14968L88.8975 1.13857L88.9964 1.12767L89.0952 1.1168L89.1941 1.10602L89.2852 1.09411L89.3795 1.08274L89.4785 1.07228L89.5774 1.06193L89.6763 1.0516L89.7737 1.0412L89.8619 1.0293L89.9608 1.01923L90.0598 1.0094L90.1588 0.999615L90.2578 0.989839L90.3491 0.978978L90.4435 0.96865L90.5425 0.959196L90.6416 0.949939L90.7406 0.940706L90.8382 0.931309L90.9265 0.920391L91.0255 0.911415L91.1246 0.9026L91.2237 0.893906L91.3228 0.885211L91.4143 0.875321L91.5088 0.86603L91.6079 0.857617L91.707 0.849422L91.8062 0.841287L91.9039 0.832903L91.9922 0.822967L92.0914 0.815085L92.1905 0.807286L92.2897 0.799683L92.3889 0.792084L92.4806 0.783151L92.5751 0.7749L92.6743 0.767577L92.7735 0.760398L92.8727 0.753357L92.9706 0.746056L93.059 0.737022L93.1582 0.730247L93.2575 0.723489L93.3568 0.716937L93.456 0.710447L93.5479 0.702466L93.6424 0.695246L93.7417 0.689015L93.841 0.682853L93.9403 0.676901L94.0383 0.670698L94.1266 0.662561L94.226 0.656887L94.3253 0.651216L94.4247 0.645671L94.524 0.640283L94.6161 0.633341L94.7105 0.627071L94.8099 0.621932L94.9092 0.616826L95.0086 0.611924L95.1068 0.606822L95.1952 0.599578L95.2946 0.594995L95.3939 0.590418L95.4933 0.585884L95.5928 0.581587L95.685 0.575692L95.7794 0.570365L95.8788 0.566328L95.9782 0.562314L96.0776 0.558411L96.176 0.554417L96.2643 0.548152L96.3638 0.54457L96.4632 0.541082L96.5627 0.537618L96.6621 0.534356L96.7545 0.529506L96.8488 0.525135L96.9483 0.522184L97.0477 0.519261L97.1472 0.516355L97.2457 0.513472L97.334 0.508185L97.4335 0.505599L97.533 0.503204L97.6325 0.500842L97.7319 0.498574L97.8244 0.494774L97.9188 0.491431L98.0183 0.489484L98.1178 0.487651L98.2173 0.485823L98.3159 0.483971L98.4042 0.479656L98.5036 0.478104L98.6031 0.476771L98.7027 0.475499L98.8022 0.474228L98.8948 0.47148L98.9891 0.469168L99.0886 0.468216L99.1881 0.467472L99.2876 0.466745L99.3863 0.465899L99.4746 0.462556L99.5741 0.462092L99.6736 0.461763L99.7732 0.461581L99.8727 0.461398L99.9654 0.459605L100.06 0.458326L100.159 0.458424L100.259 0.458707L100.358 0.459082L100.457 0.459262L100.545 0.456863L100.645 0.457489L100.744 0.458161L100.844 0.459066L100.943 0.459975L101.036 0.459136L101.13 0.458881L101.23 0.460066L101.329 0.461345L101.429 0.462811L101.528 0.464092L101.616 0.46256L101.715 0.464284L101.815 0.466031L101.914 0.467934L102.014 0.469942L102.107 0.470103L102.201 0.470813L102.3 0.473085L102.4 0.475377L102.499 0.477912L102.598 0.480293L102.686 0.479624L102.786 0.482445L102.885 0.485277L102.985 0.488161L103.084 0.491266L103.177 0.492475L103.271 0.494098L103.371 0.497454L103.47 0.500842L103.57 0.504347L103.669 0.507813L103.757 0.508081L103.856 0.511966L103.956 0.515851L104.055 0.519767L104.155 0.523939L104.248 0.526172L104.342 0.528738L104.441 0.533172L104.541 0.53763L104.64 0.542145L104.739 0.546732L104.827 0.54796L104.926 0.552778L105.026 0.557775L105.125 0.562789L105.225 0.56791L105.318 0.571224L105.411 0.574789L105.511 0.580201L105.61 0.585772L105.71 0.591342L105.809 0.596945L105.897 0.599161L105.996 0.605017L106.095 0.611014L106.195 0.617154L106.294 0.623297L106.387 0.6276L106.481 0.632203L106.58 0.638633L106.68 0.64524L106.779 0.651926L106.878 0.65855L106.966 0.661696L107.065 0.668665L107.164 0.675642L107.264 0.682859L107.363 0.690114L107.456 0.695348L107.55 0.700977L107.649 0.708519L107.748 0.716061L107.847 0.723872L107.946 0.73163L108.034 0.735584L108.133 0.743666L108.232 0.751768L108.332 0.759921L108.431 0.768291L108.524 0.774614L108.618 0.78111L108.717 0.789765L108.816 0.798421L108.915 0.807181L109.014 0.816078L109.102 0.820999L109.201 0.830038L109.3 0.839264L109.399 0.848494L109.498 0.857842L109.591 0.865257L109.685 0.872737L109.784 0.88239L109.883 0.892163L109.982 0.901967L110.081 0.911908L110.168 0.917811L110.267 0.927875L110.366 0.938144L110.465 0.948484L110.565 0.958839L110.658 0.967294L110.751 0.975806L110.85 0.986432L110.949 0.997302L111.048 1.00822L111.147 1.01913L111.234 1.02602L111.333 1.0372L111.432 1.04842L111.531 1.05987L111.63 1.07135L111.723 1.08072L111.816 1.09027L111.915 1.10201L112.014 1.11384L112.112 1.12586L112.211 1.13789L112.299 1.14566L112.397 1.15793L112.496 1.17024L112.595 1.18266L112.694 1.19526L112.787 1.20569L112.88 1.21614L112.978 1.229L113.077 1.24188L113.176 1.25491L113.275 1.26806L113.362 1.27679L113.46 1.29006L113.559 1.30348L113.658 1.31692L113.756 1.33057L113.849 1.34209L113.942 1.35344L114.041 1.36739L114.139 1.38138L114.238 1.39537L114.336 1.40963L114.424 1.4194L114.522 1.43359L114.62 1.44812L114.719 1.46269L114.817 1.47728L114.91 1.48989L115.003 1.50227L115.101 1.51718L115.2 1.53228L115.298 1.54739L115.397 1.56261L115.484 1.57342L115.582 1.58868L115.68 1.60418L115.779 1.61985L115.877 1.63552L115.97 1.64912L116.062 1.66252L116.16 1.67848L116.259 1.6946L116.357 1.71083L116.455 1.72707L116.542 1.73885L116.64 1.75518L116.739 1.77169L116.837 1.78844L116.935 1.80521L117.028 1.81977L117.12 1.83418L117.218 1.85125L117.316 1.86832L117.414 1.88566L117.512 1.90301L117.599 1.91568L117.697 1.93308L117.795 1.95071L117.893 1.9684L117.991 1.98629L118.084 2.00194L118.175 2.01723L118.273 2.0354L118.371 2.05357L118.469 2.07189L118.567 2.09034L118.654 2.10402L118.751 2.12238L118.849 2.14111L118.947 2.15985L119.045 2.17876L119.138 2.1955L119.229 2.21172L119.327 2.23093L119.425 2.25022L119.522 2.26952L119.62 2.28904L119.707 2.30377L119.804 2.32306L119.902 2.34289L119.999 2.36273L120.097 2.3826L120.189 2.40044L120.281 2.41767L120.378 2.43783L120.476 2.45823L120.573 2.47864L120.671 2.49911L120.758 2.51488L120.854 2.53525L120.952 2.55603L121.049 2.57697L121.147 2.59794L121.239 2.61674L121.33 2.63498L121.427 2.65621L121.525 2.67761L121.622 2.69911L121.719 2.72063L121.806 2.73737L121.902 2.75879L122 2.78057L122.097 2.80258L122.194 2.82465L122.286 2.84441L122.377 2.86364L122.474 2.88598L122.571 2.90834L122.668 2.93093L122.765 2.95356L122.852 2.97119L122.948 2.99367L123.045 3.01655L123.142 3.03952L123.239 3.06268L123.331 3.08354L123.421 3.10363L123.518 3.12707L123.615 3.15051L123.712 3.17408L123.809 3.1978L123.895 3.21643L123.991 3.23986L124.088 3.26384L124.184 3.28784L124.281 3.31203L124.373 3.33397L124.463 3.35497L124.56 3.37946L124.656 3.404L124.753 3.42855L124.85 3.45334L124.936 3.47302L125.031 3.49734L125.128 3.52242L125.224 3.54752L125.321 3.57265L125.413 3.59568L125.502 3.6177L125.599 3.64313L125.695 3.66875L125.791 3.69441L125.888 3.72016L125.974 3.74087L126.069 3.76623L126.165 3.79228L126.261 3.81846L126.357 3.84464L126.449 3.86867L126.539 3.89167L126.635 3.91813L126.731 3.94478L126.827 3.97152L126.923 3.99825L127.009 4.01996L127.104 4.04637L127.2 4.07339L127.295 4.10064L127.391 4.12792L127.483 4.1529L127.572 4.17688L127.668 4.20443L127.763 4.23203L127.859 4.25985L127.955 4.28767L128.041 4.31028L128.135 4.33773L128.231 4.36583L128.326 4.39402L128.422 4.4224L128.513 4.44845L128.602 4.47329L128.698 4.50191L128.793 4.53057L128.888 4.55938L128.984 4.58828L129.069 4.61185L129.164 4.64028L129.259 4.66945L129.354 4.69863L129.449 4.72806L129.54 4.75518L129.629 4.78088L129.724 4.81059L129.819 4.84031L129.914 4.87006L130.009 4.90006L130.095 4.92466L130.189 4.95398L130.284 4.98422L130.379 5.01449L130.474 5.04485L130.564 5.07305L130.653 5.09973L130.747 5.13039L130.842 5.16119L130.937 5.19199L131.032 5.22296L131.117 5.24858L131.21 5.27887L131.305 5.31011L131.4 5.34146L131.494 5.37281L131.585 5.40204L131.673 5.42968L131.767 5.4613L131.862 5.49315L131.956 5.52502L132.051 5.55693L132.136 5.58359L132.228 5.61488L132.323 5.64706L132.417 5.67949L132.511 5.7119L132.602 5.74208L132.689 5.77069L132.783 5.80338L132.877 5.83617L132.971 5.86911L133.066 5.90208L133.15 5.92964L133.243 5.96194L133.337 5.99516L133.431 6.02855L133.525 6.06202L133.615 6.09321L133.702 6.12273L133.796 6.15647L133.889 6.19022L133.983 6.22421L134.077 6.25822L134.161 6.28667L134.254 6.31999L134.347 6.35427L134.441 6.38859L134.534 6.42313L134.624 6.45538L134.711 6.48573L134.804 6.52054L134.898 6.55534L134.991 6.59026L135.084 6.62534L135.169 6.65483L135.26 6.68901L135.354 6.72435L135.447 6.75969L135.54 6.79519L135.629 6.82852L135.716 6.85976L135.809 6.89554L135.902 6.93141L135.995 6.9673L136.088 7.00338L136.172 7.03387L136.263 7.06895L136.356 7.10533L136.449 7.14172L136.541 7.17815L136.631 7.21255L136.716 7.24471L136.809 7.28142L136.902 7.31835L136.994 7.35528L137.087 7.39228L137.171 7.42381L137.262 7.45986L137.354 7.49716L137.446 7.53461L137.539 7.57207L137.628 7.60741L137.713 7.64053L137.805 7.67824L137.898 7.71613L137.99 7.7541L138.082 7.79209L138.166 7.82457L138.256 7.86161L138.348 7.89985L138.44 7.93832L138.532 7.97682L138.621 8.0131L138.705 8.04714L138.797 8.08589L138.889 8.12471L138.981 8.16371L139.073 8.20274L139.156 8.2361L139.246 8.27413L139.337 8.3134L139.429 8.35279L139.521 8.39234L139.609 8.42964L139.693 8.4645L139.785 8.50431L139.876 8.5441L139.968 8.58406L140.059 8.62413L140.142 8.65843L140.231 8.69735L140.322 8.73767L140.414 8.778L140.505 8.81854L140.593 8.8569L140.677 8.89257L140.768 8.9334L140.859 8.97422L140.95 9.01511L141.041 9.0562L141.123 9.0915L141.212 9.13128L141.303 9.17262L141.394 9.21397L141.484 9.25541L141.572 9.29482L141.655 9.3314L141.746 9.37313L141.837 9.41499L141.927 9.45686L142.017 9.49888L142.1 9.53518L142.188 9.57584L142.278 9.61815L142.369 9.66054L142.459 9.70291L142.546 9.74333L142.629 9.78083L142.719 9.82346L142.809 9.86632L142.9 9.90921L142.99 9.95214L143.071 9.98942L143.159 10.031L143.249 10.0743L143.339 10.1176L143.429 10.161L143.516 10.2024L143.598 10.2408L143.688 10.2844L143.778 10.3282L143.867 10.3721L143.957 10.416L144.038 10.4542L144.126 10.4968L144.215 10.5409L144.305 10.5853L144.394 10.6297L144.48 10.672L144.562 10.7112L144.652 10.7559L144.741 10.8005L144.83 10.8454L144.919 10.8904L145 10.9294L145.087 10.9729L145.176 11.0181L145.265 11.0633L145.354 11.1087L145.44 11.152L145.521 11.1921L145.61 11.2377L145.699 11.2834L145.787 11.3292L145.876 11.3751L145.957 11.4151L146.043 11.4595L146.131 11.5056L146.22 11.5518L146.308 11.5982L146.394 11.6425L146.475 11.6833L146.563 11.7299L146.651 11.7766L146.74 11.8233L146.828 11.8702L146.908 11.9112L146.994 11.9563L147.082 12.0035L147.17 12.0507L147.258 12.0979L147.343 12.1432L147.423 12.1849L147.511 12.2324L147.599 12.2801L147.686 12.3277L147.774 12.3755L147.854 12.4175L147.939 12.4635L148.027 12.5116L148.114 12.5597L148.201 12.6079L148.286 12.6542L148.366 12.6968L148.453 12.7452L148.541 12.7938L148.628 12.8424L148.715 12.8911L148.794 12.934L148.879 12.981L148.966 13.0299L149.053 13.079L149.14 13.1282L149.224 13.1753L149.304 13.2188L149.39 13.2682L149.477 13.3176L149.563 13.3673L149.65 13.4169L149.729 13.4607L149.813 13.5085L149.9 13.5584L149.986 13.6084L150.072 13.6585L150.156 13.7067L150.235 13.7509L150.321 13.8013L150.408 13.8516L150.494 13.9022L150.58 13.9528L150.658 13.9974L150.742 14.0462L150.828 14.097L150.914 14.1479L150.999 14.199L151.083 14.2481L151.161 14.2931L151.247 14.3444L151.332 14.3957L151.418 14.4471L151.503 14.4987L151.582 14.5443L151.665 14.5938L151.75 14.6456L151.835 14.6974L151.92 14.7494L152.003 14.7995L152.081 14.8453L152.166 14.8975L152.251 14.9498L152.336 15.0021L152.421 15.0545L152.499 15.1011L152.581 15.1514L152.666 15.2041L152.751 15.2569L152.835 15.3097L152.918 15.3608L152.995 15.4074L153.08 15.4605L153.164 15.5137L153.249 15.5669L153.333 15.6202L153.41 15.6677L153.492 15.7189L153.576 15.7725L153.66 15.8262L153.744 15.8799L153.826 15.9319L153.903 15.9794L153.987 16.0333L154.071 16.0874L154.155 16.1416L154.239 16.1958L154.316 16.2442L154.397 16.2962L154.48 16.3507L154.564 16.4053L154.647 16.46L154.729 16.5128L154.805 16.5611L154.888 16.616L154.972 16.6709L155.055 16.7261L155.138 16.7812L155.215 16.8304L155.295 16.8833L155.378 16.9387L155.461 16.9941L155.544 17.0497L155.625 17.1036L155.7 17.1525L155.783 17.2083L155.866 17.2642L155.948 17.3201L156.031 17.3762L156.107 17.4263L156.187 17.48L156.269 17.5363L156.352 17.5926L156.434 17.6491L156.514 17.7039L156.589 17.7536L156.672 17.8103L156.754 17.867L156.836 17.9238L156.918 17.9808L156.993 18.0318L157.073 18.0862L157.154 18.1435L157.236 18.2007L157.318 18.258L157.398 18.3138L157.472 18.3642L157.554 18.4218L157.635 18.4795L157.716 18.5372L157.798 18.595L157.873 18.6469L157.952 18.7021L158.033 18.7601L158.114 18.8183L158.195 18.8765L158.274 18.9331L158.348 18.9844L158.429 19.0428L158.51 19.1013L158.591 19.1599L158.671 19.2186L158.746 19.2714L158.824 19.3274L158.904 19.3863L158.985 19.4453L159.065 19.5044L159.144 19.5619L159.217 19.6139L159.298 19.6732L159.378 19.7326L159.458 19.7921L159.538 19.8516L159.612 19.9052L159.689 19.9621L159.769 20.0218L159.849 20.0817L159.929 20.1416L160.007 20.2001L160.08 20.2528L160.16 20.313L160.239 20.3732L160.319 20.4335L160.398 20.494L160.472 20.5484L160.548 20.606L160.628 20.6667L160.707 20.7273L160.786 20.7882L160.864 20.8475L160.936 20.9009L161.014 20.962L161.093 21.0231L161.172 21.0842L161.251 21.1455L161.324 21.2008L161.4 21.2592L161.479 21.3207L161.557 21.3822L161.636 21.4438L161.713 21.5041L161.784 21.5582L161.862 21.6201L161.941 21.6821L162.019 21.7441L162.097 21.8062L162.17 21.8624L162.245 21.9215L162.323 21.9838L162.401 22.0462L162.479 22.1086L162.555 22.1698L162.626 22.2247L162.703 22.2873L162.781 22.3502L162.859 22.413L162.936 22.4759L163.008 22.533L163.082 22.5928L163.16 22.656L163.237 22.7192L163.314 22.7825L163.39 22.8446L163.46 22.9002L163.537 22.9637L163.614 23.0273L163.691 23.091L163.768 23.1547L163.839 23.2126L163.913 23.2732L163.989 23.3371L164.066 23.4012L164.143 23.4654L164.218 23.5282L164.287 23.5845L164.363 23.6489L164.44 23.7133L164.516 23.7778L164.592 23.8424L164.663 23.9011L164.736 23.9625L164.812 24.0273L164.888 24.0921L164.964 24.1571L165.038 24.2208L165.107 24.2778L165.182 24.343L165.258 24.4082L165.334 24.4735L165.409 24.5389L165.479 24.5984L165.551 24.6605L165.627 24.7261L165.702 24.7918L165.777 24.8576L165.851 24.9222L165.919 24.9798L165.994 25.0458L166.069 25.1119L166.144 25.1779L166.218 25.2442L166.288 25.3045L166.36 25.3673L166.434 25.4337L166.509 25.5002L166.583 25.5667L166.656 25.6323L166.724 25.6906L166.798 25.7573L166.872 25.8242L166.946 25.8911L167.02 25.9581L167.089 26.0193L167.16 26.0827L167.234 26.15L167.308 26.2173L167.381 26.2846L167.454 26.3509L167.521 26.4099L167.594 26.4775L167.668 26.5451L167.741 26.6128L167.814 26.6806L167.883 26.7426L167.953 26.8068L168.026 26.8747L168.099 26.9428L168.172 27.011L168.244 27.0781L168.31 27.1378L168.383 27.2061L168.456 27.2745L168.528 27.3431L168.601 27.4116L168.669 27.4744L168.738 27.5393L168.81 27.608L168.883 27.6769L168.955 27.7458L169.026 27.8138L169.091 27.8741L169.164 27.9433L169.236 28.0124L169.307 28.0817L169.379 28.1511L169.447 28.2146L169.515 28.2802L169.587 28.3497L169.658 28.4193L169.73 28.489L169.801 28.5579L169.865 28.6188L169.936 28.6887L170.008 28.7587L170.079 28.8287L170.15 28.8988L170.216 28.9631L170.284 29.0293L170.355 29.0997L170.426 29.1701L170.497 29.2405L170.567 29.3102L170.631 29.3717L170.701 29.4424L170.772 29.5131L170.842 29.5839L170.912 29.6548L170.978 29.7199L171.045 29.7868L171.116 29.8579L171.186 29.929L171.256 30.0002L171.325 30.0707L171.388 30.1329L171.458 30.2042L171.527 30.2758L171.597 30.3473L171.667 30.4189L171.732 30.4848L171.798 30.5524L171.868 30.6242L171.937 30.6961L172.006 30.768L172.075 30.8393L172.137 30.9021L172.206 30.9743L172.275 31.0465L172.344 31.1188L172.413 31.1911L172.477 31.2578L172.543 31.326L172.612 31.3985L172.68 31.4712L172.749 31.5439L172.817 31.6159L172.878 31.6794L172.946 31.7523L173.015 31.8252L173.083 31.8982L173.151 31.9713L173.215 32.0387L173.279 32.1076L173.347 32.1809L173.415 32.2542L173.483 32.3277L173.55 32.4005L173.611 32.4645L173.678 32.5382L173.746 32.6118L173.813 32.6856L173.88 32.7594L173.943 32.8276L174.007 32.8971L174.074 32.9711L174.142 33.0451L174.208 33.1193L174.275 33.1929L174.335 33.2575L174.402 33.3319L174.468 33.4063L174.535 33.4807L174.601 33.5553L174.664 33.6242L174.727 33.6943L174.793 33.7691L174.859 33.8438L174.926 33.9187L174.991 33.9931L175.051 34.0583L175.116 34.1334L175.182 34.2085L175.248 34.2836L175.314 34.3589L175.376 34.4286L175.438 34.4992L175.503 34.5747L175.569 34.6502L175.634 34.7257L175.699 34.8009L175.757 34.8667L175.823 34.9425L175.888 35.0183L175.953 35.0942L176.018 35.1701L176.079 35.2405L176.14 35.3118L176.205 35.3879L176.269 35.4641L176.334 35.5404L176.398 35.6163L176.456 35.6827L176.52 35.7591L176.584 35.8356L176.648 35.9123L176.713 35.9888L176.773 36.06L176.834 36.1319L176.898 36.2087L176.961 36.2856L177.025 36.3626L177.088 36.4392L177.145 36.5061L177.209 36.5833L177.272 36.6604L177.336 36.7377L177.399 36.8151L177.458 36.8869L177.518 36.9594L177.581 37.0368L177.644 37.1144L177.707 37.1921L177.77 37.2695L177.826 37.3369L177.889 37.4148L177.951 37.4926L178.014 37.5705L178.076 37.6486L178.135 37.7211L178.194 37.7942L178.256 37.8723L178.318 37.9505L178.38 38.0288L178.442 38.107L178.498 38.175L178.56 38.2535L178.621 38.3321L178.683 38.4106L178.745 38.4893L178.803 38.5626L178.861 38.6361L178.922 38.715L178.984 38.7939L179.045 38.8728L179.106 38.9518L179.16 39.0203L179.221 39.0994L179.282 39.1786L179.343 39.2579L179.404 39.3372L179.461 39.4112L179.519 39.4853L179.579 39.5648L179.64 39.6444L179.7 39.7239L179.76 39.8036L179.814 39.8727L179.874 39.9524L179.934 40.0323L179.994 40.1122L180.054 40.1921L180.111 40.2668L180.167 40.3415L180.227 40.4216L180.286 40.5019L180.346 40.5821L180.405 40.6624L180.458 40.7321L180.518 40.8125L180.577 40.8929L180.636 40.9735L180.695 41.0541L180.751 41.1294L180.807 41.2047L180.865 41.2854L180.924 41.3663L180.983 41.4472L181.041 41.5281L181.094 41.5984L181.152 41.6794L181.21 41.7604L181.269 41.8417L181.327 41.9229L181.382 41.9988L181.437 42.0747L181.495 42.1561L181.552 42.2375L181.61 42.319L181.668 42.4006L181.719 42.4715L181.777 42.553L181.834 42.6348L181.892 42.7165L181.949 42.7984L182.003 42.875L182.057 42.9514L182.114 43.0334L182.171 43.1154L182.228 43.1976L182.285 43.2798L182.336 43.3513L182.392 43.4334L182.449 43.5157L182.506 43.5981L182.562 43.6806L182.615 43.7579L182.669 43.8347L182.725 43.9174L182.781 44.0001L182.837 44.0828L182.893 44.1656L182.943 44.2378L182.998 44.3204L183.054 44.4033L183.11 44.4863L183.165 44.5694L183.218 44.6474L183.27 44.7246L183.325 44.8079L183.381 44.8912L183.436 44.9745L183.491 45.0579L183.54 45.1307L183.595 45.2138L183.65 45.2974L183.704 45.3809L183.759 45.4646L183.811 45.5432L183.862 45.621L183.917 45.7048L183.971 45.7887L184.025 45.8726L184.079 45.9566L184.128 46.03L184.182 46.1136L184.236 46.1978L184.289 46.282L184.343 46.3662L184.394 46.4454L184.445 46.5237L184.498 46.6081L184.552 46.6926L184.605 46.7771L184.658 46.8616L184.706 46.9356L184.759 47.0197L184.812 47.1045L184.865 47.1892L184.917 47.274L184.968 47.3539L185.017 47.4327L185.07 47.5176L185.122 47.6027L185.175 47.6878L185.227 47.7729L185.274 47.8475L185.326 47.9321L185.378 48.0173L185.43 48.1027L185.482 48.1881L185.531 48.2685L185.58 48.3478L185.632 48.4333L185.683 48.5188L185.735 48.6045L185.786 48.6902L185.832 48.7654L185.883 48.8505L185.935 48.9363L185.986 49.0222L186.037 49.1081L186.085 49.1892L186.133 49.2689L186.184 49.355L186.234 49.4411L186.285 49.5273L186.335 49.6135L186.381 49.6893L186.431 49.7749L186.481 49.8613L186.531 49.9476L186.581 50.0342L186.629 50.1158L186.676 50.1959L186.726 50.2826L186.775 50.3693L186.825 50.456L186.875 50.5428L186.919 50.6191L186.968 50.7051L187.018 50.792L187.067 50.879L187.116 50.966L187.163 51.0483L187.209 51.1288L187.258 51.216L187.306 51.3032L187.355 51.3904L187.404 51.4778L187.448 51.5546L187.496 51.6411L187.544 51.7286L187.592 51.8161L187.641 51.9036L187.687 51.9865L187.732 52.0674L187.78 52.1551L187.827 52.2429L187.875 52.3306L187.923 52.4184L187.966 52.4959L188.013 52.5828L188.06 52.6708L188.108 52.7588L188.155 52.8468L188.2 52.9303L188.244 53.0117L188.291 53.0998L188.338 53.1881L188.385 53.2764L188.432 53.3647L188.474 53.4427L188.52 53.53L188.567 53.6185L188.613 53.7071L188.659 53.7956L188.703 53.8795L188.747 53.9614L188.793 54.0501L188.839 54.1388L188.885 54.2276L188.93 54.3164L188.972 54.3949L189.017 54.4828L189.062 54.5717L189.108 54.6607L189.153 54.7498L189.197 54.8343L189.239 54.9165L189.284 55.0057L189.329 55.0949L189.374 55.1842L189.419 55.2735L189.459 55.3526L189.503 55.4408L189.548 55.5302L189.592 55.6197L189.637 55.7093L189.679 55.7943L189.721 55.8769L189.765 55.9666L189.809 56.0563L189.853 56.1461L189.896 56.2359L189.936 56.3154L189.979 56.404L190.023 56.4939L190.066 56.5839L190.11 56.674L190.151 56.7596L190.192 56.8425L190.235 56.9327L190.278 57.0229L190.321 57.1131L190.364 57.2034L190.403 57.2834L190.445 57.3724L190.488 57.4628L190.53 57.5532L190.573 57.6437L190.613 57.7298L190.653 57.8131L190.695 57.9038L190.737 57.9944L190.779 58.0851L190.821 58.1758L190.859 58.2564L190.9 58.3457L190.942 58.4366L190.983 58.5275L191.025 58.6184L191.064 58.7051L191.103 58.7887L191.144 58.8798L191.185 58.9709L191.226 59.0621L191.267 59.1532L191.304 59.2343L191.345 59.324L191.385 59.4153L191.426 59.5067L191.466 59.598L191.505 59.6852L191.543 59.7692L191.583 59.8606L191.623 59.9522L191.663 60.0438L191.703 60.1354L191.739 60.217L191.778 60.307L191.818 60.3988L191.858 60.4906L191.897 60.5824L191.935 60.67L191.972 60.7544L192.011 60.8463L192.05 60.9383L192.089 61.0303L192.128 61.1223L192.163 61.2044L192.202 61.2948L192.24 61.3869L192.279 61.4791L192.317 61.5714L192.354 61.6595L192.39 61.7442L192.428 61.8365L192.466 61.9289L192.504 62.0214L192.542 62.1138L192.577 62.1963L192.614 62.287L192.652 62.3796L192.689 62.4722L192.727 62.5649L192.763 62.6535L192.798 62.7384L192.835 62.8312L192.872 62.924L192.909 63.0168L192.946 63.1097L192.98 63.1926L193.016 63.2837L193.052 63.3767L193.089 63.4697L193.125 63.5628L193.161 63.6518L193.194 63.7371L193.231 63.8303L193.267 63.9234L193.303 64.0167L193.339 64.11L193.371 64.1933L193.407 64.2847L193.442 64.3781L193.478 64.4715L193.513 64.565L193.547 64.6545L193.58 64.74L193.615 64.8336L193.651 64.9271L193.686 65.0208L193.721 65.1144L193.752 65.1982L193.786 65.2899L193.821 65.3837L193.856 65.4775L193.89 65.5713L193.923 65.6613L193.955 65.7471L193.989 65.841L194.023 65.935L194.058 66.029L194.091 66.123L194.122 66.2072L194.156 66.2991L194.189 66.3933L194.223 66.4875L194.256 66.5816L194.288 66.6721L194.319 66.7582L194.352 66.8524L194.385 66.9468L194.418 67.0411L194.451 67.1355L194.481 67.2202L194.513 67.3124L194.546 67.4069L194.579 67.5014L194.611 67.596L194.642 67.6868L194.672 67.7732L194.704 67.8678L194.736 67.9625L194.768 68.0572L194.8 68.152L194.829 68.237L194.86 68.3295L194.892 68.4244L194.923 68.5192L194.955 68.6141L194.985 68.7054L195.014 68.792L195.045 68.887L195.076 68.982L195.107 69.0771L195.138 69.1721L195.166 69.2576L195.196 69.3503L195.227 69.4455L195.257 69.5407L195.288 69.636L195.317 69.7276L195.345 69.8144L195.375 69.9098L195.405 70.0051L195.435 70.1005L195.465 70.1959L195.492 70.2818L195.521 70.3747L195.551 70.4702L195.58 70.5658L195.609 70.6614L195.638 70.7534L195.665 70.8405L195.694 70.9361L195.723 71.0317L195.752 71.1275L195.78 71.2232L195.807 71.3094L195.835 71.4026L195.863 71.4985L195.892 71.5943L195.92 71.6902L195.947 71.7826L195.973 71.8699L196.001 71.9659L196.029 72.0618L196.057 72.1579L196.085 72.2539L196.11 72.3405L196.137 72.4339L196.164 72.5301L196.192 72.6262L196.219 72.7224L196.245 72.8152L196.271 72.9026L196.297 72.9989L196.324 73.0952L196.351 73.1915L196.378 73.2879L196.402 73.3748L196.428 73.4684L196.455 73.5649L196.481 73.6613L196.507 73.7578L196.533 73.851L196.557 73.9386L196.583 74.0351L196.608 74.1317L196.634 74.2283L196.66 74.3249L196.683 74.4122L196.708 74.506L196.733 74.6027L196.759 74.6994L196.784 74.7962L196.808 74.8897L196.831 74.9775L196.856 75.0744L196.881 75.1712L196.906 75.2681L196.93 75.365L196.953 75.4526L196.977 75.5466L197.001 75.6436L197.025 75.7406L197.05 75.8376L197.073 75.9315L197.095 76.0195L197.119 76.1165L197.142 76.2137L197.166 76.3108L197.19 76.408L197.211 76.4959L197.234 76.5901L197.257 76.6873L197.281 76.7846L197.304 76.8818L197.326 76.9761L197.347 77.0642L197.37 77.1615L197.393 77.2589L197.415 77.3563L197.438 77.4537L197.458 77.5419L197.48 77.6363L197.502 77.7338L197.524 77.8313L197.546 77.9288L197.568 78.0233L197.588 78.1116L197.61 78.2092L197.631 78.3068L197.653 78.4044L197.674 78.5021L197.694 78.5906L197.715 78.6851L197.736 78.7828L197.757 78.8806L197.778 78.9783L197.798 79.0732L197.817 79.1616L197.838 79.2594L197.859 79.3572L197.879 79.4551L197.899 79.553L197.918 79.6418L197.938 79.7365L197.958 79.8344L197.978 79.9323L197.998 80.0303L198.017 80.1254L198.035 80.214L198.055 80.312L198.075 80.4101L198.094 80.5082L198.113 80.6062L198.131 80.6953L198.15 80.7901L198.169 80.8883L198.188 80.9865L198.206 81.0846L198.225 81.18L198.242 81.2687L198.26 81.367L198.279 81.4652L198.297 81.5635L198.316 81.6618L198.332 81.7512L198.35 81.8461L198.368 81.9444L198.386 82.0428L198.404 82.1412L198.421 82.2369L198.437 82.3256L198.454 82.4241L198.472 82.5225L198.489 82.621L198.506 82.7195L198.522 82.8092L198.539 82.9042L198.556 83.0027L198.573 83.1012L198.589 83.1998L198.605 83.2958L198.621 83.3846L198.637 83.4833L198.653 83.5819L198.67 83.6805L198.686 83.7792L198.701 83.8691L198.716 83.9642L198.732 84.0629L198.748 84.1616L198.764 84.2604L198.779 84.3566L198.793 84.4455L198.808 84.5443L198.824 84.6431L198.839 84.742L198.854 84.8408L198.868 84.9309L198.882 85.0261L198.897 85.125L198.912 85.2239L198.926 85.3228L198.94 85.4192L198.954 85.5082L198.968 85.6072L198.982 85.7062L198.996 85.8051L199.01 85.9041L199.023 85.9945L199.037 86.0897L199.05 86.1888L199.064 86.2878L199.078 86.3869L199.091 86.4835L199.103 86.5726L199.116 86.6717L199.129 86.7708L199.142 86.87L199.155 86.9691L199.167 87.0597L199.18 87.155L199.192 87.2542L199.205 87.3534L199.217 87.4526L199.229 87.5495L199.241 87.6386L199.253 87.7378L199.265 87.8371L199.277 87.9363L199.289 88.0356L199.3 88.1264L199.311 88.2218L199.323 88.321L199.334 88.4204L199.346 88.5197L199.357 88.6168L199.367 88.7059L199.378 88.8053L199.389 88.9047L199.4 89.0041L199.411 89.1035L199.421 89.1944L199.431 89.2898L199.442 89.3893L199.452 89.4887L199.462 89.5881L199.472 89.6854L199.482 89.7746L199.492 89.8741L199.502 89.9736L199.512 90.0731L199.521 90.1726L199.53 90.2637L199.539 90.3592L199.549 90.4587L199.558 90.5582L199.568 90.6578L199.577 90.7552L199.585 90.8444L199.594 90.944L199.603 91.0436L199.612 91.1432L199.62 91.2428L199.628 91.3341L199.636 91.4296L199.645 91.5292L199.653 91.6288L199.661 91.7285L199.669 91.8261L199.677 91.9153L199.685 92.015L199.692 92.1147L199.7 92.2144L199.708 92.314L199.715 92.4055L199.722 92.501L199.729 92.6007L199.737 92.7004L199.744 92.8001L199.751 92.8979L199.757 92.9871L199.764 93.0869L199.771 93.1866L199.777 93.2864L199.784 93.3862L199.79 93.4778L199.796 93.5732L199.802 93.673L199.808 93.7729L199.815 93.8726L199.82 93.9706L199.826 94.0597L199.832 94.1596L199.837 94.2594L199.843 94.3592L199.848 94.4591L199.853 94.5508L199.859 94.6463L199.864 94.7461L199.869 94.846L199.874 94.9458L199.879 95.0439L199.883 95.1331L199.888 95.2329L199.893 95.3328L199.897 95.4327L199.902 95.5326L199.906 95.6245L199.91 95.7199L199.914 95.8198L199.918 95.9197L199.922 96.0196L199.926 96.1178L199.929 96.2069L199.933 96.3068L199.936 96.4068L199.94 96.5067L199.943 96.6066L199.946 96.6986L199.949 96.794L199.952 96.8939L199.955 96.9938L199.958 97.0938L199.961 97.1921L199.964 97.2812L199.966 97.3811L199.969 97.4811L199.971 97.581L199.973 97.681L199.976 97.7731L199.978 97.8684L199.98 97.9684L199.982 98.0683L199.983 98.1683L199.985 98.2668L199.987 98.3557L199.988 98.4557L199.99 98.5557L199.991 98.6557L199.992 98.7556L199.993 98.8479L199.994 98.9431L199.995 99.0431L199.996 99.1431L199.997 99.243L199.998 99.3415L199.998 99.4305L199.999 99.5305L199.999 99.6304L200 99.7304L200 99.8304L200 99.9227L200 100.018L200 100.118L200 100.218L199.999 100.318L199.999 100.416L199.999 100.505L199.998 100.605L199.997 100.705L199.997 100.805L199.996 100.905L199.995 100.998L199.994 101.093L199.993 101.193L199.992 101.293L199.99 101.393L199.989 101.491L199.988 101.58L199.986 101.68L199.984 101.78L199.982 101.88L199.981 101.98L199.979 102.072L199.977 102.167L199.975 102.267L199.972 102.367L199.97 102.467L199.968 102.566L199.965 102.655L199.963 102.755L199.96 102.855L199.957 102.955L199.954 103.054L199.951 103.147L199.948 103.242L199.945 103.342L199.942 103.442L199.938 103.542L199.935 103.64L199.931 103.729L199.928 103.829L199.924 103.929L199.92 104.029L199.916 104.129L199.912 104.221L199.908 104.316L199.904 104.416L199.899 104.516L199.895 104.616L199.89 104.714L199.886 104.803L199.881 104.903L199.876 105.003L199.872 105.102L199.866 105.202L199.862 105.295L199.857 105.39L199.851 105.489L199.846 105.589L199.84 105.689L199.835 105.788L199.829 105.876L199.824 105.976L199.818 106.076L199.812 106.176L199.805 106.275L199.8 106.368L199.794 106.462L199.787 106.562L199.781 106.662L199.774 106.762L199.767 106.861L199.761 106.949L199.754 107.049L199.747 107.148L199.74 107.248L199.733 107.348L199.726 107.44L199.719 107.535L199.712 107.634L199.704 107.734L199.696 107.834L199.689 107.933L199.682 108.021L199.674 108.12L199.666 108.22L199.657 108.32L199.649 108.419L199.641 108.512L199.633 108.606L199.625 108.706L199.616 108.805L199.607 108.905L199.599 109.004L199.591 109.092L199.581 109.191L199.572 109.291L199.563 109.39L199.554 109.49L199.545 109.583L199.536 109.676L199.526 109.776L199.517 109.876L199.507 109.975L199.497 110.074L199.488 110.162L199.478 110.261L199.468 110.36L199.457 110.46L199.447 110.559L199.437 110.652L199.427 110.746L199.416 110.845L199.405 110.945L199.395 111.044L199.384 111.143L199.374 111.23L199.363 111.33L199.351 111.429L199.34 111.528L199.329 111.628L199.318 111.72L199.307 111.814L199.295 111.913L199.283 112.012L199.271 112.112L199.259 112.21L199.248 112.298L199.236 112.397L199.224 112.496L199.211 112.595L199.199 112.695L199.187 112.787L199.175 112.881L199.162 112.98L199.149 113.079L199.136 113.178L199.123 113.277L199.111 113.364L199.098 113.463L199.084 113.562L199.071 113.661L199.057 113.76L199.044 113.853L199.031 113.946L199.017 114.045L199.004 114.144L198.989 114.243L198.975 114.341L198.963 114.428L198.948 114.527L198.934 114.626L198.919 114.725L198.904 114.824L198.891 114.916L198.877 115.009L198.861 115.108L198.846 115.207L198.831 115.306L198.816 115.404L198.802 115.491L198.787 115.59L198.771 115.689L198.756 115.787L198.74 115.886L198.725 115.978L198.71 116.071L198.694 116.17L198.678 116.268L198.662 116.367L198.646 116.466L198.631 116.552L198.614 116.651L198.598 116.749L198.581 116.848L198.564 116.946L198.548 117.039L198.532 117.131L198.515 117.23L198.498 117.328L198.481 117.427L198.464 117.525L198.448 117.611L198.43 117.71L198.413 117.808L198.395 117.906L198.377 118.005L198.36 118.097L198.343 118.189L198.325 118.287L198.307 118.386L198.288 118.484L198.27 118.582L198.253 118.668L198.235 118.766L198.216 118.865L198.197 118.963L198.178 119.061L198.16 119.153L198.142 119.245L198.123 119.343L198.104 119.441L198.084 119.539L198.065 119.637L198.047 119.723L198.028 119.821L198.008 119.919L197.988 120.017L197.968 120.115L197.949 120.207L197.93 120.299L197.91 120.396L197.889 120.494L197.869 120.592L197.849 120.69L197.83 120.776L197.809 120.873L197.788 120.971L197.768 121.069L197.747 121.167L197.727 121.258L197.707 121.35L197.685 121.447L197.664 121.545L197.642 121.643L197.621 121.74L197.601 121.826L197.58 121.923L197.558 122.021L197.536 122.118L197.514 122.216L197.493 122.307L197.472 122.398L197.449 122.496L197.427 122.593L197.404 122.691L197.382 122.788L197.361 122.874L197.338 122.971L197.315 123.068L197.292 123.165L197.269 123.262L197.247 123.354L197.225 123.445L197.202 123.542L197.178 123.639L197.155 123.736L197.131 123.833L197.11 123.918L197.086 124.015L197.062 124.112L197.038 124.209L197.014 124.306L196.99 124.398L196.967 124.488L196.943 124.585L196.919 124.682L196.894 124.779L196.869 124.876L196.847 124.961L196.822 125.057L196.797 125.154L196.772 125.251L196.746 125.347L196.722 125.438L196.698 125.528L196.673 125.625L196.647 125.722L196.622 125.818L196.596 125.915L196.573 126L196.547 126.096L196.521 126.192L196.494 126.289L196.468 126.385L196.443 126.476L196.418 126.566L196.392 126.662L196.365 126.759L196.338 126.855L196.311 126.951L196.287 127.036L196.26 127.132L196.233 127.228L196.206 127.324L196.179 127.42L196.152 127.511L196.126 127.6L196.099 127.696L196.071 127.792L196.043 127.889L196.016 127.985L195.99 128.069L195.962 128.164L195.934 128.26L195.906 128.356L195.878 128.452L195.851 128.543L195.824 128.631L195.795 128.727L195.766 128.823L195.737 128.919L195.709 129.014L195.682 129.099L195.654 129.194L195.624 129.289L195.595 129.385L195.566 129.48L195.538 129.571L195.51 129.659L195.48 129.755L195.45 129.85L195.42 129.946L195.39 130.041L195.363 130.125L195.333 130.219L195.303 130.315L195.273 130.41L195.242 130.505L195.213 130.595L195.185 130.684L195.154 130.779L195.123 130.874L195.092 130.969L195.061 131.064L195.033 131.148L195.002 131.242L194.971 131.337L194.94 131.432L194.908 131.527L194.878 131.616L194.848 131.704L194.817 131.799L194.785 131.894L194.753 131.989L194.721 132.083L194.692 132.167L194.66 132.261L194.628 132.355L194.595 132.45L194.563 132.544L194.532 132.634L194.501 132.721L194.468 132.816L194.435 132.91L194.402 133.004L194.369 133.099L194.339 133.182L194.307 133.275L194.273 133.37L194.24 133.464L194.206 133.558L194.174 133.647L194.143 133.734L194.109 133.828L194.075 133.922L194.041 134.016L194.007 134.11L193.976 134.194L193.942 134.286L193.908 134.38L193.873 134.474L193.839 134.568L193.806 134.657L193.773 134.743L193.738 134.837L193.704 134.931L193.668 135.024L193.633 135.118L193.602 135.201L193.567 135.293L193.531 135.387L193.496 135.48L193.46 135.574L193.426 135.662L193.393 135.748L193.357 135.842L193.321 135.935L193.285 136.028L193.249 136.122L193.216 136.204L193.18 136.296L193.144 136.389L193.108 136.482L193.071 136.575L193.036 136.664L193.002 136.749L192.965 136.842L192.928 136.935L192.891 137.028L192.854 137.121L192.82 137.203L192.783 137.295L192.746 137.387L192.709 137.48L192.671 137.573L192.635 137.661L192.6 137.746L192.562 137.838L192.524 137.931L192.486 138.023L192.448 138.116L192.413 138.198L192.375 138.289L192.337 138.381L192.299 138.473L192.26 138.565L192.223 138.653L192.187 138.738L192.148 138.83L192.109 138.922L192.07 139.014L192.031 139.106L191.995 139.188L191.957 139.278L191.917 139.37L191.878 139.462L191.838 139.554L191.8 139.641L191.763 139.725L191.723 139.817L191.684 139.909L191.644 140L191.604 140.092L191.567 140.173L191.527 140.263L191.487 140.355L191.447 140.446L191.406 140.537L191.367 140.625L191.329 140.708L191.288 140.8L191.247 140.891L191.206 140.982L191.165 141.073L191.128 141.154L191.087 141.243L191.046 141.335L191.004 141.425L190.963 141.516L190.923 141.603L190.884 141.686L190.842 141.777L190.8 141.868L190.758 141.959L190.716 142.049L190.678 142.13L190.637 142.219L190.594 142.309L190.552 142.4L190.509 142.49L190.468 142.577L190.429 142.66L190.386 142.75L190.343 142.84L190.3 142.931L190.257 143.021L190.218 143.101L190.175 143.189L190.132 143.279L190.089 143.37L190.045 143.46L190.003 143.546L189.963 143.628L189.919 143.718L189.875 143.807L189.831 143.897L189.787 143.987L189.747 144.067L189.704 144.155L189.659 144.244L189.615 144.334L189.571 144.424L189.528 144.509L189.486 144.591L189.442 144.68L189.397 144.77L189.352 144.859L189.307 144.948L189.266 145.028L189.222 145.115L189.176 145.204L189.131 145.293L189.086 145.382L189.042 145.467L188.999 145.549L188.954 145.638L188.908 145.726L188.862 145.815L188.816 145.904L188.774 145.983L188.729 146.07L188.683 146.159L188.637 146.247L188.59 146.336L188.545 146.421L188.502 146.501L188.456 146.59L188.409 146.678L188.362 146.766L188.315 146.854L188.272 146.933L188.226 147.019L188.179 147.108L188.132 147.196L188.085 147.284L188.039 147.368L187.995 147.448L187.947 147.536L187.9 147.624L187.852 147.712L187.804 147.799L187.76 147.878L187.713 147.963L187.665 148.051L187.617 148.139L187.569 148.226L187.522 148.31L187.477 148.39L187.429 148.477L187.38 148.564L187.332 148.652L187.283 148.739L187.238 148.817L187.19 148.902L187.141 148.989L187.092 149.076L187.043 149.163L186.995 149.247L186.949 149.325L186.9 149.412L186.851 149.499L186.801 149.586L186.751 149.673L186.706 149.75L186.657 149.835L186.607 149.921L186.557 150.008L186.507 150.094L186.458 150.177L186.412 150.255L186.361 150.342L186.311 150.428L186.26 150.514L186.21 150.6L186.163 150.678L186.114 150.761L186.063 150.847L186.012 150.933L185.961 151.019L185.911 151.102L185.864 151.18L185.813 151.265L185.761 151.351L185.71 151.437L185.658 151.522L185.611 151.599L185.56 151.682L185.509 151.768L185.457 151.853L185.405 151.938L185.354 152.021L185.306 152.098L185.254 152.183L185.202 152.268L185.149 152.353L185.097 152.438L185.049 152.515L184.997 152.597L184.944 152.682L184.892 152.767L184.839 152.852L184.787 152.933L184.738 153.01L184.685 153.095L184.632 153.179L184.579 153.264L184.525 153.348L184.476 153.424L184.424 153.506L184.371 153.59L184.317 153.674L184.263 153.759L184.211 153.84L184.161 153.916L184.107 154L184.053 154.084L183.999 154.168L183.944 154.252L183.895 154.327L183.842 154.408L183.787 154.492L183.732 154.576L183.678 154.659L183.624 154.74L183.574 154.815L183.519 154.899L183.464 154.982L183.409 155.066L183.354 155.149L183.303 155.224L183.249 155.304L183.194 155.388L183.138 155.471L183.083 155.554L183.028 155.634L182.977 155.709L182.921 155.792L182.865 155.874L182.809 155.957L182.753 156.04L182.702 156.114L182.647 156.194L182.591 156.277L182.534 156.359L182.478 156.442L182.423 156.521L182.371 156.595L182.314 156.678L182.257 156.76L182.2 156.842L182.144 156.924L182.091 156.998L182.036 157.077L181.978 157.159L181.921 157.241L181.864 157.323L181.808 157.402L181.755 157.475L181.697 157.557L181.64 157.639L181.582 157.72L181.524 157.802L181.471 157.875L181.415 157.954L181.356 158.035L181.298 158.116L181.24 158.197L181.183 158.276L181.13 158.349L181.071 158.43L181.013 158.511L180.954 158.592L180.895 158.673L180.841 158.746L180.784 158.823L180.725 158.904L180.666 158.985L180.607 159.065L180.549 159.143L180.495 159.216L180.436 159.296L180.376 159.376L180.317 159.457L180.257 159.537L180.202 159.609L180.145 159.686L180.085 159.766L180.025 159.846L179.965 159.926L179.906 160.004L179.851 160.075L179.791 160.155L179.731 160.235L179.671 160.314L179.61 160.394L179.554 160.466L179.496 160.542L179.435 160.622L179.374 160.701L179.314 160.78L179.254 160.857L179.198 160.928L179.137 161.007L179.076 161.086L179.015 161.165L178.954 161.244L178.897 161.315L178.838 161.391L178.776 161.47L178.715 161.549L178.653 161.627L178.593 161.704L178.536 161.774L178.474 161.852L178.412 161.931L178.35 162.009L178.288 162.087L178.231 162.158L178.17 162.233L178.108 162.311L178.046 162.389L177.983 162.467L177.922 162.543L177.865 162.612L177.802 162.69L177.739 162.768L177.677 162.845L177.614 162.923L177.555 162.993L177.494 163.067L177.431 163.145L177.368 163.222L177.305 163.299L177.243 163.375L177.185 163.443L177.121 163.52L177.058 163.598L176.994 163.675L176.93 163.751L176.871 163.821L176.809 163.895L176.745 163.971L176.681 164.048L176.617 164.125L176.554 164.199L176.496 164.267L176.431 164.344L176.367 164.42L176.302 164.496L176.238 164.573L176.178 164.642L176.116 164.714L176.051 164.79L175.986 164.866L175.921 164.942L175.857 165.016L175.798 165.084L175.733 165.159L175.668 165.235L175.602 165.311L175.537 165.386L175.476 165.455L175.413 165.527L175.347 165.602L175.282 165.677L175.216 165.753L175.152 165.826L175.091 165.892L175.025 165.967L174.959 166.042L174.893 166.117L174.827 166.192L174.766 166.26L174.702 166.331L174.635 166.406L174.569 166.481L174.502 166.555L174.437 166.628L174.376 166.694L174.31 166.768L174.243 166.842L174.176 166.916L174.109 166.99L174.047 167.058L173.982 167.128L173.915 167.202L173.848 167.276L173.78 167.35L173.714 167.422L173.653 167.487L173.585 167.561L173.518 167.634L173.45 167.708L173.382 167.781L173.319 167.848L173.254 167.917L173.186 167.991L173.118 168.064L173.05 168.137L172.983 168.208L172.921 168.273L172.852 168.346L172.784 168.418L172.715 168.491L172.647 168.564L172.583 168.63L172.517 168.699L172.448 168.771L172.379 168.844L172.311 168.916L172.243 168.987L172.18 169.05L172.111 169.123L172.042 169.195L171.973 169.267L171.903 169.339L171.839 169.404L171.772 169.472L171.703 169.544L171.633 169.615L171.563 169.687L171.495 169.757L171.431 169.82L171.361 169.891L171.292 169.963L171.222 170.034L171.152 170.105L171.086 170.17L171.019 170.237L170.949 170.308L170.878 170.379L170.808 170.45L170.738 170.52L170.674 170.582L170.604 170.652L170.533 170.723L170.462 170.793L170.392 170.864L170.326 170.928L170.257 170.995L170.186 171.065L170.115 171.135L170.044 171.205L169.974 171.274L169.909 171.335L169.838 171.405L169.767 171.475L169.695 171.544L169.623 171.614L169.557 171.678L169.488 171.743L169.416 171.813L169.344 171.882L169.272 171.952L169.201 172.02L169.136 172.08L169.064 172.149L168.992 172.218L168.92 172.287L168.847 172.356L168.78 172.419L168.711 172.484L168.638 172.553L168.565 172.621L168.493 172.69L168.421 172.757L168.355 172.817L168.282 172.885L168.21 172.954L168.137 173.022L168.064 173.09L167.995 173.152L167.925 173.216L167.852 173.284L167.779 173.352L167.705 173.42L167.633 173.486L167.566 173.545L167.493 173.613L167.419 173.68L167.346 173.748L167.272 173.815L167.203 173.877L167.132 173.94L167.058 174.007L166.984 174.074L166.91 174.141L166.837 174.207L166.77 174.265L166.696 174.332L166.621 174.399L166.547 174.465L166.472 174.532L166.403 174.593L166.331 174.655L166.257 174.721L166.182 174.788L166.107 174.854L166.033 174.919L165.966 174.976L165.891 175.042L165.816 175.108L165.741 175.174L165.665 175.24L165.595 175.3L165.523 175.362L165.448 175.427L165.372 175.493L165.297 175.558L165.222 175.622L165.154 175.679L165.078 175.744L165.002 175.809L164.927 175.874L164.851 175.939L164.78 175.998L164.707 176.059L164.631 176.124L164.555 176.189L164.479 176.253L164.403 176.317L164.335 176.373L164.258 176.437L164.182 176.501L164.105 176.565L164.029 176.63L163.957 176.688L163.884 176.748L163.807 176.812L163.73 176.876L163.653 176.94L163.577 177.003L163.508 177.058L163.431 177.121L163.354 177.184L163.277 177.248L163.199 177.311L163.127 177.369L163.053 177.428L162.976 177.491L162.898 177.554L162.821 177.617L162.744 177.679L162.674 177.734L162.596 177.796L162.519 177.859L162.441 177.921L162.363 177.984L162.29 178.041L162.215 178.099L162.137 178.162L162.059 178.224L161.981 178.286L161.903 178.347L161.833 178.4L161.755 178.462L161.676 178.524L161.598 178.586L161.519 178.647L161.445 178.704L161.37 178.761L161.292 178.823L161.213 178.884L161.134 178.945L161.056 179.006L160.985 179.058L160.906 179.119L160.827 179.18L160.747 179.241L160.668 179.302L160.594 179.358L160.518 179.414L160.439 179.475L160.36 179.535L160.28 179.595L160.201 179.655L160.13 179.707L160.05 179.767L159.97 179.827L159.89 179.887L159.81 179.947L159.735 180.002L159.659 180.058L159.579 180.117L159.499 180.177L159.419 180.236L159.339 180.295L159.267 180.346L159.187 180.406L159.107 180.465L159.026 180.524L158.946 180.583L158.87 180.637L158.794 180.692L158.713 180.751L158.632 180.81L158.551 180.868L158.471 180.926L158.399 180.976L158.318 181.035L158.237 181.093L158.156 181.151L158.074 181.21L157.998 181.263L157.921 181.317L157.84 181.375L157.758 181.433L157.677 181.491L157.596 181.548L157.523 181.597L157.441 181.655L157.36 181.712L157.278 181.769L157.196 181.827L157.119 181.879L157.042 181.932L156.96 181.99L156.878 182.046L156.796 182.103L156.714 182.16L156.641 182.208L156.559 182.265L156.476 182.321L156.394 182.378L156.312 182.434L156.234 182.486L156.156 182.538L156.073 182.595L155.991 182.651L155.908 182.707L155.826 182.762L155.752 182.81L155.669 182.866L155.586 182.921L155.504 182.977L155.421 183.032L155.342 183.084L155.264 183.135L155.181 183.19L155.098 183.245L155.014 183.3L154.931 183.355L154.857 183.402L154.774 183.457L154.69 183.512L154.607 183.566L154.523 183.621L154.444 183.671L154.365 183.721L154.282 183.776L154.198 183.83L154.114 183.884L154.03 183.938L153.956 183.984L153.872 184.038L153.788 184.092L153.704 184.146L153.619 184.2L153.54 184.249L153.46 184.298L153.376 184.352L153.292 184.405L153.207 184.459L153.123 184.512L153.048 184.557L152.963 184.61L152.879 184.663L152.794 184.716L152.71 184.768L152.629 184.817L152.55 184.866L152.465 184.918L152.38 184.971L152.295 185.023L152.21 185.075L152.134 185.119L152.049 185.171L151.964 185.224L151.879 185.276L151.794 185.327L151.713 185.375L151.633 185.423L151.547 185.474L151.462 185.526L151.376 185.578L151.291 185.629L151.214 185.672L151.129 185.723L151.043 185.774L150.958 185.825L150.872 185.877L150.791 185.923L150.71 185.97L150.624 186.021L150.538 186.071L150.452 186.122L150.366 186.173L150.289 186.215L150.203 186.265L150.117 186.315L150.03 186.365L149.944 186.416L149.862 186.462L149.781 186.507L149.694 186.557L149.608 186.607L149.521 186.656L149.435 186.706L149.357 186.748L149.271 186.797L149.184 186.846L149.097 186.895L149.011 186.944L148.928 186.99L148.846 187.035L148.759 187.083L148.672 187.132L148.585 187.181L148.498 187.229L148.42 187.27L148.333 187.319L148.246 187.367L148.159 187.415L148.072 187.463L147.989 187.508L147.906 187.552L147.819 187.599L147.731 187.647L147.644 187.695L147.556 187.743L147.478 187.783L147.39 187.83L147.303 187.877L147.215 187.925L147.127 187.972L147.043 188.016L146.961 188.058L146.873 188.105L146.785 188.152L146.697 188.199L146.608 188.246L146.53 188.285L146.442 188.331L146.354 188.378L146.265 188.424L146.177 188.47L146.093 188.513L146.01 188.555L145.921 188.601L145.833 188.647L145.744 188.693L145.656 188.738L145.576 188.777L145.488 188.822L145.399 188.868L145.31 188.913L145.222 188.958L145.137 189L145.054 189.041L144.965 189.086L144.876 189.131L144.787 189.176L144.697 189.221L144.618 189.258L144.529 189.303L144.44 189.347L144.35 189.392L144.261 189.436L144.176 189.477L144.092 189.517L144.003 189.561L143.913 189.605L143.824 189.649L143.734 189.693L143.654 189.729L143.565 189.773L143.475 189.816L143.385 189.86L143.295 189.903L143.21 189.943L143.126 189.982L143.036 190.025L142.946 190.068L142.856 190.111L142.766 190.154L142.685 190.19L142.596 190.232L142.505 190.275L142.415 190.317L142.325 190.36L142.239 190.399L142.154 190.437L142.064 190.479L141.974 190.521L141.883 190.563L141.793 190.605L141.711 190.64L141.622 190.681L141.531 190.723L141.44 190.764L141.349 190.806L141.263 190.844L141.178 190.881L141.087 190.922L140.996 190.963L140.905 191.004L140.815 191.045L140.733 191.08L140.643 191.12L140.552 191.16L140.461 191.201L140.369 191.241L140.282 191.279L140.197 191.315L140.106 191.355L140.015 191.395L139.923 191.435L139.832 191.475L139.75 191.508L139.659 191.547L139.568 191.587L139.476 191.627L139.385 191.666L139.297 191.702L139.212 191.738L139.12 191.777L139.028 191.816L138.936 191.855L138.845 191.894L138.762 191.926L138.671 191.964L138.579 192.003L138.487 192.042L138.395 192.08L138.307 192.116L138.222 192.15L138.129 192.188L138.037 192.226L137.945 192.264L137.853 192.302L137.77 192.334L137.679 192.371L137.586 192.408L137.494 192.446L137.402 192.483L137.313 192.518L137.227 192.551L137.135 192.588L137.042 192.625L136.949 192.662L136.857 192.699L136.773 192.73L136.682 192.766L136.589 192.803L136.496 192.839L136.404 192.876L136.315 192.909L136.228 192.941L136.135 192.978L136.043 193.014L135.95 193.05L135.857 193.086L135.773 193.116L135.681 193.151L135.588 193.186L135.495 193.222L135.401 193.257L135.312 193.29L135.226 193.321L135.132 193.356L135.039 193.391L134.946 193.426L134.852 193.461L134.768 193.49L134.676 193.524L134.582 193.559L134.489 193.593L134.395 193.628L134.306 193.66L134.219 193.69L134.125 193.724L134.031 193.758L133.938 193.792L133.844 193.826L133.759 193.854L133.667 193.887L133.573 193.92L133.479 193.954L133.385 193.987L133.295 194.018L133.208 194.047L133.114 194.081L133.02 194.114L132.926 194.147L132.832 194.179L132.747 194.207L132.654 194.238L132.56 194.271L132.466 194.304L132.371 194.336L132.281 194.366L132.193 194.394L132.099 194.426L132.005 194.458L131.91 194.49L131.816 194.522L131.73 194.548L131.637 194.579L131.543 194.611L131.448 194.642L131.354 194.673L131.263 194.703L131.175 194.73L131.08 194.761L130.986 194.792L130.891 194.823L130.796 194.853L130.711 194.879L130.617 194.909L130.522 194.939L130.427 194.97L130.333 195L130.241 195.028L130.153 195.054L130.058 195.084L129.963 195.114L129.868 195.144L129.773 195.174L129.687 195.198L129.594 195.227L129.498 195.256L129.403 195.286L129.308 195.315L129.216 195.342L129.128 195.367L129.033 195.396L128.938 195.425L128.842 195.454L128.747 195.483L128.66 195.507L128.567 195.534L128.471 195.563L128.376 195.591L128.28 195.619L128.188 195.645L128.1 195.67L128.004 195.698L127.908 195.725L127.813 195.753L127.717 195.781L127.63 195.804L127.536 195.83L127.441 195.858L127.345 195.885L127.249 195.912L127.157 195.937L127.068 195.961L126.972 195.988L126.876 196.014L126.78 196.041L126.684 196.068L126.597 196.09L126.503 196.115L126.407 196.141L126.311 196.168L126.215 196.194L126.122 196.218L126.033 196.24L125.937 196.266L125.841 196.292L125.745 196.318L125.648 196.343L125.561 196.364L125.467 196.389L125.37 196.414L125.274 196.439L125.178 196.464L125.085 196.488L124.996 196.509L124.899 196.534L124.803 196.558L124.706 196.583L124.61 196.608L124.522 196.628L124.428 196.651L124.331 196.675L124.234 196.699L124.138 196.723L124.044 196.746L123.955 196.766L123.859 196.79L123.762 196.813L123.665 196.837L123.568 196.861L123.48 196.88L123.386 196.902L123.289 196.925L123.192 196.948L123.095 196.971L123.001 196.993L122.912 197.012L122.815 197.034L122.718 197.057L122.621 197.08L122.524 197.102L122.436 197.12L122.341 197.141L122.244 197.164L122.147 197.186L122.05 197.208L121.956 197.228L121.867 197.246L121.769 197.268L121.672 197.289L121.575 197.311L121.477 197.332L121.389 197.35L121.294 197.37L121.197 197.391L121.099 197.412L121.002 197.433L120.908 197.452L120.818 197.469L120.721 197.49L120.624 197.51L120.526 197.531L120.428 197.551L120.34 197.568L120.245 197.587L120.147 197.607L120.05 197.627L119.952 197.647L119.857 197.665L119.768 197.681L119.67 197.701L119.573 197.72L119.475 197.74L119.377 197.759L119.288 197.774L119.193 197.792L119.095 197.811L118.998 197.83L118.9 197.849L118.805 197.866L118.715 197.881L118.618 197.9L118.52 197.918L118.422 197.937L118.324 197.955L118.235 197.969L118.139 197.986L118.041 198.004L117.943 198.022L117.845 198.04L117.75 198.056L117.661 198.07L117.563 198.088L117.465 198.105L117.367 198.122L117.268 198.14L117.179 198.153L117.084 198.169L116.986 198.186L116.887 198.203L116.789 198.219L116.694 198.235L116.604 198.248L116.506 198.264L116.408 198.28L116.309 198.297L116.211 198.313L116.122 198.325L116.026 198.34L115.928 198.356L115.829 198.372L115.731 198.387L115.636 198.402L115.546 198.414L115.447 198.429L115.349 198.444L115.251 198.46L115.152 198.475L115.062 198.486L114.967 198.5L114.868 198.515L114.77 198.529L114.671 198.544L114.576 198.557L114.486 198.568L114.387 198.583L114.289 198.597L114.19 198.611L114.091 198.625L114.002 198.636L113.906 198.648L113.807 198.662L113.709 198.676L113.61 198.689L113.514 198.702L113.424 198.712L113.325 198.725L113.227 198.738L113.128 198.751L113.029 198.764L112.939 198.774L112.843 198.785L112.745 198.798L112.646 198.811L112.547 198.823L112.451 198.834L112.361 198.843L112.262 198.855L112.163 198.868L112.065 198.88L111.966 198.891L111.875 198.9L111.78 198.911L111.681 198.922L111.582 198.934L111.483 198.945L111.387 198.956L111.297 198.964L111.198 198.975L111.099 198.986L111 198.997L110.901 199.008L110.81 199.015L110.715 199.025L110.616 199.035L110.517 199.046L110.418 199.056L110.321 199.066L110.231 199.072L110.132 199.083L110.033 199.093L109.934 199.102L109.835 199.112L109.744 199.119L109.649 199.127L109.549 199.137L109.45 199.146L109.351 199.156L109.255 199.164L109.165 199.17L109.066 199.179L108.966 199.188L108.867 199.197L108.768 199.205L108.677 199.211L108.581 199.219L108.482 199.227L108.383 199.235L108.284 199.244L108.187 199.251L108.097 199.256L107.998 199.264L107.899 199.272L107.799 199.279L107.7 199.287L107.609 199.292L107.513 199.298L107.414 199.306L107.315 199.313L107.216 199.32L107.119 199.327L107.029 199.33L106.93 199.337L106.83 199.344L106.731 199.351L106.632 199.358L106.54 199.361L106.445 199.367L106.345 199.373L106.246 199.379L106.147 199.385L106.05 199.391L105.96 199.394L105.86 199.4L105.761 199.405L105.662 199.411L105.562 199.417L105.471 199.42L105.375 199.424L105.276 199.429L105.177 199.434L105.077 199.439L104.98 199.444L104.89 199.446L104.791 199.45L104.691 199.455L104.592 199.46L104.492 199.464L104.401 199.466L104.306 199.469L104.206 199.474L104.107 199.478L104.007 199.482L103.91 199.485L103.82 199.486L103.721 199.49L103.621 199.493L103.522 199.497L103.423 199.5Z" fill="white"/>
</svg>
