<svg width="200" height="200" viewBox="0 0 200 200" fill="none" xmlns="http://www.w3.org/2000/svg">
<path d="M108.537 1.4956L108.56 1.57913L108.584 1.66267L108.607 1.69015L108.631 1.75488L108.654 1.8385L108.678 1.92217L108.701 2.00583L108.725 2.07115L108.748 2.09828L108.772 2.18201L108.795 2.26578L108.818 2.34958L108.842 2.43338L108.865 2.4616L108.888 2.52612L108.912 2.60999L108.935 2.69391L108.958 2.77785L108.982 2.8439L109.005 2.8708L109.028 2.9548L109.052 3.03881L109.075 3.12288L109.098 3.20695L109.122 3.2359L109.145 3.30019L109.168 3.38433L109.191 3.46849L109.215 3.5527L109.238 3.61951L109.261 3.64615L109.284 3.73043L109.307 3.8147L109.331 3.89901L109.354 3.98336L109.377 4.01305L109.4 4.07709L109.423 4.1615L109.446 4.24591L109.47 4.33037L109.493 4.39794L109.516 4.42434L109.539 4.50887L109.562 4.59342L109.585 4.67796L109.608 4.76257L109.631 4.79302L109.654 4.85681L109.677 4.94149L109.7 5.02617L109.723 5.11086L109.746 5.17919L109.77 5.20536L109.793 5.29013L109.815 5.37494L109.838 5.45975L109.861 5.54459L109.884 5.5758L109.907 5.63936L109.93 5.72427L109.953 5.80922L109.976 5.89416L109.999 5.96322L110.022 5.98918L110.045 6.07419L110.068 6.15925L110.091 6.24433L110.113 6.3294L110.136 6.36136L110.159 6.4247L110.182 6.50985L110.205 6.59505L110.228 6.68026L110.25 6.75005L110.273 6.77577L110.296 6.86104L110.319 6.94634L110.342 7.03168L110.364 7.11702L110.387 7.14971L110.41 7.21281L110.432 7.29821L110.455 7.38366L110.478 7.46913L110.501 7.53965L110.523 7.56513L110.546 7.65067L110.569 7.73621L110.591 7.8218L110.614 7.9074L110.636 7.94081L110.659 8.00368L110.682 8.08935L110.704 8.17502L110.727 8.26076L110.749 8.33203L110.772 8.35725L110.794 8.44305L110.817 8.52884L110.84 8.61466L110.862 8.70053L110.885 8.73468L110.907 8.7973L110.929 8.88322L110.952 8.96915L110.974 9.05512L110.997 9.12714L111.019 9.15211L111.042 9.23816L111.064 9.32421L111.087 9.41027L111.109 9.49638L111.131 9.53128L111.154 9.59364L111.176 9.67982L111.198 9.76601L111.221 9.85219L111.243 9.92497L111.265 9.94971L111.288 10.036L111.31 10.1223L111.332 10.2086L111.354 10.2949L111.377 10.3306L111.399 10.3927L111.421 10.4791L111.443 10.5656L111.466 10.652L111.488 10.7255L111.51 10.75L111.532 10.8365L111.554 10.9231L111.577 11.0096L111.599 11.0962L111.621 11.1326L111.643 11.1945L111.665 11.2811L111.687 11.3678L111.709 11.4545L111.731 11.5287L111.753 11.553L111.775 11.6398L111.797 11.7265L111.819 11.8134L111.841 11.9002L111.863 11.9373L111.885 11.9989L111.907 12.0858L111.929 12.1727L111.951 12.2597L111.973 12.3346L111.995 12.3587L112.017 12.4457L112.039 12.5327L112.061 12.6197L112.083 12.7068L112.105 12.7446L112.127 12.806L112.148 12.8932L112.17 12.9803L112.192 13.0675L112.214 13.1432L112.236 13.167L112.257 13.2542L112.279 13.3415L112.301 13.4288L112.323 13.5161L112.344 13.5547L112.366 13.6158L112.388 13.7032L112.41 13.7906L112.431 13.878L112.453 13.9544L112.475 13.9779L112.496 14.0654L112.518 14.1529L112.539 14.2405L112.561 14.328L112.583 14.3673L112.604 14.4282L112.626 14.5158L112.647 14.6035L112.669 14.6911L112.69 14.7683L112.712 14.7915L112.733 14.8792L112.755 14.967L112.776 15.0548L112.798 15.1425L112.819 15.1826L112.841 15.2432L112.862 15.331L112.884 15.4189L112.905 15.5068L112.926 15.5847L112.948 15.6077L112.969 15.6957L112.991 15.7836L113.012 15.8716L113.033 15.9597L113.054 16.0004L113.076 16.0608L113.097 16.1489L113.118 16.237L113.14 16.3251L113.161 16.4037L113.182 16.4265L113.203 16.5147L113.225 16.6029L113.246 16.6911L113.267 16.7794L113.288 16.8208L113.309 16.881L113.33 16.9693L113.351 17.0576L113.373 17.146L113.394 17.2253L113.415 17.2478L113.436 17.3362L113.457 17.4247L113.478 17.5131L113.499 17.6016L113.52 17.6438L113.541 17.7037L113.562 17.7923L113.583 17.8808L113.604 17.9694L113.625 18.0495L113.646 18.0717L113.667 18.1603L113.688 18.249L113.709 18.3377L113.729 18.4264L113.75 18.4694L113.771 18.5289L113.792 18.6178L113.813 18.7066L113.834 18.7954L113.854 18.8761L113.875 18.8981L113.896 18.987L113.917 19.0759L113.938 19.1648L113.958 19.2538L113.979 19.2974L114 19.3568L114.02 19.4458L114.041 19.5348L114.062 19.6238L114.082 19.7053L114.103 19.727L114.124 19.8161L114.144 19.9053L114.165 19.9944L114.185 20.0836L114.206 20.128L114.227 20.187L114.247 20.2763L114.268 20.3655L114.288 20.4548L114.309 20.537L114.329 20.5584L114.35 20.6478L114.37 20.7371L114.39 20.8265L114.411 20.9159L114.431 20.961L114.452 21.0198L114.472 21.1093L114.492 21.1987L114.513 21.2883L114.533 21.3712L114.553 21.3923L114.574 21.4819L114.594 21.5715L114.614 21.6611L114.635 21.7507L114.655 21.7965L114.675 21.855L114.695 21.9447L114.715 22.0344L114.736 22.1241L114.756 22.2078L114.776 22.2287L114.796 22.3185L114.816 22.4083L114.836 22.4981L114.856 22.5879L114.877 22.6344L114.897 22.6927L114.917 22.7826L114.937 22.8725L114.957 22.9625L114.977 23.0468L114.997 23.0674L115.017 23.1574L115.037 23.2475L115.057 23.3375L115.077 23.4276L115.096 23.4748L115.116 23.5328L115.136 23.6229L115.156 23.7131L115.176 23.8032L115.196 23.8882L115.216 23.9086L115.236 23.9988L115.255 24.0891L115.275 24.1793L115.295 24.2696L115.315 24.3175L115.334 24.3753L115.354 24.4656L115.374 24.556L115.393 24.6463L115.413 24.7321L115.433 24.7522L115.452 24.8426L115.472 24.9331L115.492 25.0236L115.511 25.114L115.531 25.1627L115.55 25.2201L115.57 25.3107L115.59 25.4013L115.609 25.4919L115.629 25.5783L115.648 25.5981L115.668 25.6888L115.687 25.7794L115.706 25.8701L115.726 25.9608L115.745 26.0101L115.765 26.0673L115.784 26.1581L115.803 26.2489L115.823 26.3397L115.842 26.4269L115.861 26.4464L115.881 26.5373L115.9 26.6281L115.919 26.719L115.939 26.81L115.958 26.86L115.977 26.9169L115.996 27.0079L116.015 27.0989L116.035 27.1899L116.054 27.2777L116.073 27.297L116.092 27.3881L116.111 27.4792L116.13 27.5703L116.149 27.6614L116.168 27.7121L116.188 27.7687L116.207 27.8599L116.226 27.9511L116.245 28.0424L116.264 28.1309L116.282 28.1499L116.301 28.2412L116.32 28.3325L116.339 28.4238L116.358 28.5151L116.377 28.5666L116.396 28.6229L116.415 28.7143L116.434 28.8057L116.452 28.8971L116.471 28.9864L116.49 29.0051L116.509 29.0966L116.528 29.1881L116.546 29.2796L116.565 29.3711L116.584 29.4233L116.602 29.4793L116.621 29.5709L116.64 29.6625L116.658 29.7542L116.677 29.8441L116.696 29.8625L116.714 29.9542L116.733 30.0459L116.751 30.1377L116.77 30.2294L116.788 30.2822L116.807 30.338L116.825 30.4298L116.844 30.5216L116.862 30.6134L116.881 30.7041L116.899 30.7222L116.918 30.8141L116.936 30.906L116.954 30.9979L116.973 31.0899L116.991 31.1434L117.009 31.1989L117.028 31.2909L117.046 31.3829L117.064 31.4749L117.083 31.5663L117.101 31.5841L117.119 31.6762L117.137 31.7683L117.155 31.8604L117.174 31.9526L117.192 32.0068L117.21 32.062L117.228 32.1542L117.246 32.2464L117.264 32.3386L117.282 32.4306L117.3 32.4482L117.318 32.5405L117.336 32.6328L117.354 32.7251L117.372 32.8175L117.39 32.8723L117.408 32.9272L117.426 33.0196L117.444 33.1121L117.462 33.2045L117.48 33.297L117.498 33.3147L117.516 33.4069L117.533 33.4994L117.551 33.592L117.569 33.6845L117.587 33.7401L117.605 33.7947L117.622 33.8872L117.64 33.9799L117.658 34.0725L117.675 34.1651L117.693 34.1836L117.711 34.2755L117.728 34.3682L117.746 34.4609L117.764 34.5537L117.781 34.6099L117.799 34.6642L117.816 34.757L117.834 34.8498L117.851 34.9426L117.869 35.0355L117.886 35.0546L117.904 35.1462L117.921 35.2391L117.939 35.3321L117.956 35.425L117.973 35.4819L117.991 35.5359L118.008 35.6289L118.025 35.7219L118.043 35.8149L118.06 35.9079L118.077 35.9277L118.095 36.0191L118.112 36.1121L118.129 36.2052L118.146 36.2984L118.163 36.3559L118.181 36.4097L118.198 36.5028L118.215 36.596L118.232 36.6892L118.249 36.7824L118.266 36.8029L118.283 36.8939L118.3 36.9872L118.317 37.0805L118.334 37.1738L118.351 37.2321L118.368 37.2855L118.385 37.3788L118.402 37.4722L118.419 37.5656L118.436 37.659L118.453 37.6801L118.47 37.7709L118.487 37.8643L118.503 37.9578L118.52 38.0513L118.537 38.1103L118.554 38.1633L118.57 38.2569L118.587 38.3505L118.604 38.444L118.621 38.5376L118.637 38.5594L118.654 38.6498L118.671 38.7435L118.687 38.8371L118.704 38.9308L118.72 38.9904L118.737 39.0432L118.753 39.1369L118.77 39.2307L118.787 39.3244L118.803 39.4182L118.819 39.4407L118.836 39.5308L118.852 39.6246L118.869 39.7185L118.885 39.8123L118.902 39.8726L118.918 39.9251L118.934 40.019L118.951 40.1129L118.967 40.2069L118.983 40.3008L118.999 40.324L119.016 40.4138L119.032 40.5078L119.048 40.6018L119.064 40.6958L119.08 40.7568L119.097 40.8089L119.113 40.903L119.129 40.9971L119.145 41.0912L119.161 41.1854L119.177 41.2092L119.193 41.2987L119.209 41.3928L119.225 41.487L119.241 41.5812L119.257 41.6429L119.273 41.6947L119.289 41.789L119.305 41.8832L119.321 41.9775L119.337 42.0718L119.352 42.0963L119.368 42.1855L119.384 42.2799L119.4 42.3742L119.416 42.4686L119.431 42.5309L119.447 42.5824L119.463 42.6768L119.479 42.7713L119.494 42.8657L119.51 42.9602L119.525 42.9854L119.541 43.0742L119.557 43.1688L119.572 43.2633L119.588 43.3578L119.603 43.4208L119.619 43.472L119.634 43.5666L119.65 43.6612L119.665 43.7558L119.681 43.8505L119.696 43.8763L119.712 43.9648L119.727 44.0595L119.742 44.1542L119.758 44.2489L119.773 44.3126L119.788 44.3635L119.804 44.4582L119.819 44.553L119.834 44.6478L119.849 44.7426L119.864 44.7691L119.88 44.8573L119.895 44.9522L119.91 45.047L119.925 45.1419L119.94 45.2062L119.955 45.2568L119.97 45.3517L119.985 45.4466L120 45.5416L120.015 45.6366L120.03 45.6637L120.045 45.7516L120.06 45.8466L120.075 45.9417L120.09 46.0367L120.105 46.1016L120.12 46.1519L120.135 46.247L120.15 46.3421L120.164 46.4372L120.179 46.5324L120.194 46.5601L120.209 46.6477L120.223 46.7429L120.238 46.8381L120.253 46.9333L120.267 46.9989L120.282 47.0488L120.297 47.1441L120.311 47.2393L120.326 47.3346L120.34 47.4299L120.355 47.4583L120.369 47.5456L120.384 47.6409L120.398 47.7363L120.413 47.8317L120.427 47.8979L120.442 47.9475L120.456 48.0429L120.471 48.1383L120.485 48.2338L120.499 48.3292L120.514 48.3583L120.528 48.4452L120.542 48.5407L120.556 48.6362L120.571 48.7318L120.585 48.7986L120.599 48.8479L120.613 48.9435L120.627 49.039L120.642 49.1346L120.656 49.2303L120.67 49.26L120.684 49.3465L120.698 49.4422L120.712 49.5379L120.726 49.6336L120.74 49.7011L120.754 49.75L120.768 49.8457L120.782 49.9415L120.796 50.0372L120.81 50.133L120.823 50.1634L120.837 50.2496L120.851 50.3454L120.865 50.4412L120.879 50.5371L120.892 50.6052L120.906 50.6538L120.92 50.7497L120.934 50.8456L120.947 50.9415L120.961 51.0374L120.975 51.0684L120.988 51.1543L121.002 51.2503L121.015 51.3462L121.029 51.4422L121.042 51.511L121.056 51.5593L121.069 51.6553L121.083 51.7513L121.096 51.8474L121.11 51.9435L121.123 51.9751L121.137 52.0607L121.15 52.1568L121.163 52.2529L121.177 52.349L121.19 52.4185L121.203 52.4664L121.216 52.5625L121.23 52.6587L121.243 52.7549L121.256 52.8512L121.269 52.8834L121.282 52.9686L121.295 53.0649L121.309 53.1612L121.322 53.2575L121.335 53.3275L121.348 53.3751L121.361 53.4714L121.374 53.5677L121.387 53.6641L121.4 53.7604L121.413 53.7933L121.426 53.8782L121.438 53.9746L121.451 54.071L121.464 54.1674L121.477 54.2382L121.49 54.2853L121.503 54.3818L121.515 54.4783L121.528 54.5748L121.541 54.6713L121.554 54.7048L121.566 54.7893L121.579 54.8859L121.592 54.9824L121.604 55.079L121.617 55.1503L121.629 55.1972L121.642 55.2938L121.654 55.3904L121.667 55.487L121.679 55.5837L121.692 55.6178L121.704 55.702L121.717 55.7987L121.729 55.8954L121.742 55.9921L121.754 56.064L121.766 56.1105L121.779 56.2072L121.791 56.304L121.803 56.4008L121.815 56.4975L121.828 56.5324L121.84 56.6162L121.852 56.713L121.864 56.8098L121.876 56.9066L121.888 56.9792L121.9 57.0254L121.913 57.1222L121.925 57.2191L121.937 57.316L121.949 57.4129L121.961 57.4483L121.973 57.5318L121.984 57.6287L121.996 57.7257L122.008 57.8227L122.02 57.8959L122.032 57.9417L122.044 58.0387L122.056 58.1357L122.067 58.2327L122.079 58.3298L122.091 58.3658L122.103 58.4489L122.114 58.546L122.126 58.6431L122.138 58.7402L122.149 58.814L122.161 58.8594L122.172 58.9566L122.184 59.0537L122.196 59.1509L122.207 59.248L122.219 59.2847L122.23 59.3674L122.242 59.4646L122.253 59.5618L122.264 59.6591L122.276 59.7335L122.287 59.7786L122.298 59.8758L122.31 59.9731L122.321 60.0704L122.332 60.1677L122.344 60.2049L122.355 60.2873L122.366 60.3847L122.377 60.482L122.388 60.5793L122.4 60.6544L122.411 60.6991L122.422 60.7965L122.433 60.8939L122.444 60.9913L122.455 61.0887L122.466 61.1266L122.477 61.2086L122.488 61.306L122.499 61.4035L122.51 61.501L122.521 61.5767L122.531 61.621L122.542 61.7185L122.553 61.816L122.564 61.9135L122.575 62.0111L122.585 62.0496L122.596 62.1312L122.607 62.2288L122.618 62.3263L122.628 62.4239L122.639 62.5002L122.649 62.5442L122.66 62.6418L122.671 62.7394L122.681 62.8371L122.692 62.9347L122.702 62.9738L122.713 63.0551L122.723 63.1528L122.734 63.2505L122.744 63.3482L122.754 63.4251L122.765 63.4687L122.775 63.5664L122.785 63.6641L122.796 63.7619L122.806 63.8597L122.816 63.8994L122.827 63.9803L122.837 64.0781L122.847 64.1759L122.857 64.2737L122.867 64.3512L122.877 64.3944L122.887 64.4923L122.898 64.5901L122.908 64.688L122.918 64.7859L122.928 64.8262L122.938 64.9067L122.948 65.0046L122.957 65.1025L122.967 65.2005L122.977 65.2785L122.987 65.3214L122.997 65.4193L123.007 65.5173L123.017 65.6153L123.026 65.7133L123.036 65.7542L123.046 65.8343L123.056 65.9323L123.065 66.0304L123.075 66.1284L123.084 66.2071L123.094 66.2495L123.104 66.3476L123.113 66.4457L123.123 66.5438L123.132 66.6419L123.142 66.6834L123.151 66.7631L123.161 66.8613L123.17 66.9594L123.179 67.0576L123.189 67.1368L123.198 67.1789L123.208 67.2771L123.217 67.3753L123.226 67.4734L123.235 67.5717L123.245 67.6137L123.254 67.6931L123.263 67.7913L123.272 67.8896L123.281 67.9878L123.29 68.0677L123.3 68.1094L123.309 68.2076L123.318 68.3059L123.327 68.4042L123.336 68.5025L123.345 68.5452L123.354 68.6242L123.363 68.7225L123.371 68.8209L123.38 68.9192L123.389 68.9997L123.398 69.041L123.407 69.1393L123.416 69.2377L123.424 69.3361L123.433 69.4345L123.442 69.4778L123.451 69.5564L123.459 69.6548L123.468 69.7532L123.477 69.8517L123.485 69.9327L123.494 69.9736L123.502 70.0721L123.511 70.1706L123.519 70.2691L123.528 70.3676L123.536 70.4114L123.545 70.4896L123.553 70.5881L123.561 70.6867L123.57 70.7852L123.578 70.8668L123.586 70.9073L123.595 71.0059L123.603 71.1045L123.611 71.203L123.62 71.3016L123.628 71.3461L123.636 71.4239L123.644 71.5225L123.652 71.6211L123.66 71.7197L123.668 71.802L123.676 71.842L123.684 71.9407L123.692 72.0394L123.7 72.138L123.708 72.2367L123.716 72.2817L123.724 72.3591L123.732 72.4578L123.74 72.5565L123.748 72.6553L123.756 72.7381L123.763 72.7777L123.771 72.8765L123.779 72.9752L123.787 73.074L123.794 73.1728L123.802 73.2184L123.81 73.2953L123.817 73.3941L123.825 73.4929L123.832 73.5917L123.84 73.6751L123.848 73.7144L123.855 73.8132L123.863 73.912L123.87 74.0109L123.877 74.1097L123.885 74.1559L123.892 74.2325L123.9 74.3314L123.907 74.4302L123.914 74.5291L123.921 74.6131L123.929 74.6519L123.936 74.7509L123.943 74.8498L123.95 74.9487L123.958 75.0476L123.965 75.0944L123.972 75.1705L123.979 75.2695L123.986 75.3684L123.993 75.4674L124 75.5519L124.007 75.5904L124.014 75.6894L124.021 75.7884L124.028 75.8874L124.035 75.9864L124.042 76.0337L124.049 76.1095L124.055 76.2085L124.062 76.3075L124.069 76.4066L124.076 76.4917L124.082 76.5297L124.089 76.6288L124.096 76.7278L124.102 76.8269L124.109 76.926L124.116 76.9739L124.122 77.0492L124.129 77.1483L124.135 77.2474L124.142 77.3465L124.148 77.4322L124.155 77.4698L124.161 77.5689L124.168 77.6681L124.174 77.7672L124.18 77.8664L124.187 77.9148L124.193 77.9897L124.199 78.0889L124.206 78.1881L124.212 78.2873L124.218 78.3735L124.224 78.4107L124.231 78.5099L124.237 78.6091L124.243 78.7084L124.249 78.8076L124.255 78.8566L124.261 78.9311L124.267 79.0303L124.273 79.1296L124.279 79.2288L124.285 79.3156L124.291 79.3524L124.297 79.4516L124.303 79.5509L124.308 79.6502L124.314 79.7495L124.32 79.7991L124.326 79.8731L124.332 79.9724L124.337 80.0718L124.343 80.1711L124.349 80.2584L124.354 80.2947L124.36 80.3941L124.366 80.4934L124.371 80.5928L124.377 80.6921L124.382 80.7422L124.388 80.8159L124.393 80.9153L124.399 81.0146L124.404 81.114L124.41 81.2019L124.415 81.2378L124.42 81.3372L124.426 81.4366L124.431 81.536L124.436 81.6354L124.442 81.6861L124.447 81.7593L124.452 81.8587L124.457 81.9582L124.462 82.0576L124.468 82.146L124.473 82.1815L124.478 82.281L124.483 82.3805L124.488 82.4799L124.493 82.5794L124.498 82.6306L124.503 82.7034L124.508 82.8028L124.513 82.9024L124.518 83.0019L124.523 83.0908L124.527 83.1259L124.532 83.2254L124.537 83.3249L124.542 83.4244L124.547 83.524L124.551 83.5757L124.556 83.648L124.561 83.7476L124.565 83.8471L124.57 83.9467L124.574 84.0362L124.579 84.0708L124.584 84.1704L124.588 84.2699L124.593 84.3695L124.597 84.4691L124.602 84.5214L124.606 84.5933L124.61 84.6929L124.615 84.7925L124.619 84.8921L124.623 84.9821L124.628 85.0163L124.632 85.1159L124.636 85.2155L124.641 85.3151L124.645 85.4148L124.649 85.4676L124.653 85.5391L124.657 85.6387L124.661 85.7383L124.665 85.838L124.669 85.9286L124.673 85.9623L124.677 86.062L124.681 86.1616L124.685 86.2613L124.689 86.361L124.693 86.4143L124.697 86.4853L124.701 86.585L124.705 86.6847L124.709 86.7844L124.712 86.8755L124.716 86.9088L124.72 87.0085L124.724 87.1082L124.727 87.2079L124.731 87.3076L124.735 87.3615L124.738 87.4321L124.742 87.5318L124.745 87.6315L124.749 87.7313L124.752 87.8229L124.756 87.8558L124.759 87.9555L124.763 88.0552L124.766 88.155L124.77 88.2547L124.773 88.3092L124.776 88.3793L124.78 88.479L124.783 88.5788L124.786 88.6786L124.789 88.7707L124.793 88.8031L124.796 88.9029L124.799 89.0027L124.802 89.1025L124.805 89.2022L124.808 89.2572L124.811 89.3269L124.814 89.4266L124.817 89.5265L124.82 89.6263L124.823 89.7189L124.826 89.7509L124.829 89.8507L124.832 89.9505L124.835 90.0503L124.838 90.1501L124.841 90.2056L124.843 90.2748L124.846 90.3746L124.849 90.4745L124.852 90.5743L124.854 90.6675L124.857 90.699L124.86 90.7988L124.862 90.8987L124.865 90.9985L124.868 91.0984L124.87 91.1544L124.873 91.2231L124.875 91.3229L124.878 91.4228L124.88 91.5227L124.882 91.6164L124.885 91.6474L124.887 91.7473L124.89 91.8472L124.892 91.947L124.894 92.0469L124.896 92.1034L124.899 92.1717L124.901 92.2716L124.903 92.3714L124.905 92.4713L124.907 92.5656L124.91 92.5961L124.912 92.696L124.914 92.7959L124.916 92.8958L124.918 92.9957L124.92 93.0527L124.922 93.1205L124.924 93.2204L124.926 93.3203L124.928 93.4203L124.929 93.515L124.931 93.5451L124.933 93.645L124.935 93.7449L124.937 93.8448L124.938 93.9448L124.94 94.0023L124.942 94.0696L124.944 94.1695L124.945 94.2695L124.947 94.3694L124.948 94.4647L124.95 94.4943L124.952 94.5942L124.953 94.6942L124.955 94.7941L124.956 94.894L124.958 94.9521L124.959 95.0189L124.96 95.1189L124.962 95.2188L124.963 95.3188L124.964 95.4145L124.966 95.4437L124.967 95.5436L124.968 95.6436L124.97 95.7435L124.971 95.8435L124.972 95.902L124.973 95.9684L124.974 96.0684L124.975 96.1683L124.976 96.2683L124.978 96.3645L124.979 96.3932L124.98 96.4932L124.981 96.5931L124.982 96.6931L124.982 96.7931L124.983 96.8521L124.984 96.918L124.985 97.018L124.986 97.1179L124.987 97.2179L124.988 97.3147L124.988 97.3429L124.989 97.4428L124.99 97.5428L124.991 97.6428L124.991 97.7428L124.992 97.8023L124.992 97.8677L124.993 97.9677L124.994 98.0677L124.994 98.1676L124.995 98.2649L124.995 98.2926L124.996 98.3926L124.996 98.4926L124.997 98.5925L124.997 98.6925L124.997 98.7525L124.998 98.8175L124.998 98.9175L124.998 99.0174L124.999 99.1174L124.999 99.2152L124.999 99.2424L124.999 99.3424L124.999 99.4424L125 99.5423L125 99.6423L125 99.7029L125 99.7673L125 99.8673L125 99.9673L125 100.067L125 100.166L125 100.192L125 100.292L125 100.392L125 100.492L124.999 100.592L124.999 100.653L124.999 100.717L124.999 100.817L124.999 100.917L124.998 101.017L124.998 101.116L124.998 101.142L124.997 101.242L124.997 101.342L124.997 101.442L124.996 101.542L124.996 101.603L124.995 101.667L124.995 101.767L124.994 101.867L124.994 101.967L124.993 102.066L124.993 102.092L124.992 102.192L124.992 102.292L124.991 102.392L124.99 102.492L124.989 102.554L124.989 102.617L124.988 102.717L124.987 102.817L124.986 102.917L124.986 103.016L124.985 103.042L124.984 103.142L124.983 103.241L124.982 103.341L124.981 103.441L124.98 103.504L124.979 103.566L124.978 103.666L124.977 103.766L124.976 103.866L124.975 103.966L124.974 103.991L124.973 104.091L124.971 104.191L124.97 104.291L124.969 104.391L124.968 104.454L124.966 104.516L124.965 104.616L124.964 104.716L124.963 104.816L124.961 104.916L124.96 104.941L124.958 105.041L124.957 105.141L124.955 105.24L124.954 105.34L124.952 105.404L124.951 105.465L124.949 105.565L124.948 105.665L124.946 105.765L124.944 105.865L124.943 105.891L124.941 105.99L124.939 106.09L124.938 106.19L124.936 106.29L124.934 106.354L124.932 106.414L124.93 106.514L124.929 106.614L124.927 106.714L124.925 106.814L124.923 106.841L124.921 106.939L124.919 107.039L124.917 107.139L124.915 107.239L124.913 107.303L124.911 107.363L124.908 107.463L124.906 107.563L124.904 107.663L124.902 107.763L124.9 107.79L124.898 107.888L124.895 107.988L124.893 108.088L124.891 108.187L124.888 108.252L124.886 108.312L124.884 108.412L124.881 108.512L124.879 108.612L124.876 108.712L124.874 108.739L124.871 108.836L124.869 108.936L124.866 109.036L124.864 109.136L124.861 109.201L124.858 109.261L124.856 109.36L124.853 109.46L124.85 109.56L124.848 109.66L124.845 109.688L124.842 109.785L124.839 109.884L124.836 109.984L124.834 110.084L124.831 110.15L124.828 110.209L124.825 110.309L124.822 110.408L124.819 110.508L124.816 110.608L124.813 110.636L124.81 110.733L124.807 110.832L124.804 110.932L124.801 111.032L124.797 111.098L124.794 111.157L124.791 111.256L124.788 111.356L124.785 111.456L124.781 111.556L124.778 111.585L124.775 111.68L124.771 111.78L124.768 111.88L124.765 111.979L124.761 112.046L124.758 112.104L124.754 112.204L124.751 112.303L124.747 112.403L124.744 112.503L124.74 112.532L124.736 112.627L124.733 112.727L124.729 112.827L124.725 112.926L124.722 112.994L124.718 113.051L124.714 113.151L124.711 113.25L124.707 113.35L124.703 113.45L124.699 113.48L124.695 113.574L124.691 113.674L124.687 113.773L124.683 113.873L124.679 113.941L124.675 113.997L124.671 114.097L124.667 114.197L124.663 114.296L124.659 114.396L124.655 114.426L124.651 114.52L124.647 114.62L124.643 114.72L124.638 114.819L124.634 114.887L124.63 114.943L124.626 115.043L124.621 115.143L124.617 115.242L124.613 115.342L124.608 115.373L124.604 115.466L124.599 115.566L124.595 115.665L124.59 115.765L124.586 115.833L124.581 115.889L124.577 115.989L124.572 116.088L124.568 116.188L124.563 116.287L124.558 116.318L124.554 116.411L124.549 116.511L124.544 116.61L124.539 116.71L124.535 116.779L124.53 116.834L124.525 116.933L124.52 117.033L124.515 117.132L124.51 117.232L124.505 117.264L124.5 117.356L124.495 117.455L124.49 117.555L124.485 117.654L124.48 117.724L124.475 117.778L124.47 117.878L124.465 117.977L124.46 118.077L124.455 118.176L124.449 118.208L124.444 118.3L124.439 118.399L124.434 118.499L124.428 118.598L124.423 118.668L124.418 118.722L124.412 118.821L124.407 118.921L124.402 119.02L124.396 119.12L124.391 119.152L124.385 119.243L124.38 119.343L124.374 119.442L124.369 119.541L124.363 119.612L124.357 119.665L124.352 119.764L124.346 119.864L124.34 119.963L124.335 120.062L124.329 120.095L124.323 120.186L124.317 120.285L124.311 120.385L124.306 120.484L124.3 120.555L124.294 120.608L124.288 120.707L124.282 120.806L124.276 120.905L124.27 121.005L124.264 121.038L124.258 121.128L124.252 121.227L124.246 121.327L124.24 121.426L124.234 121.497L124.227 121.549L124.221 121.648L124.215 121.748L124.209 121.847L124.203 121.946L124.196 121.98L124.19 122.069L124.184 122.169L124.177 122.268L124.171 122.367L124.164 122.438L124.158 122.49L124.152 122.589L124.145 122.688L124.139 122.788L124.132 122.887L124.126 122.921L124.119 123.01L124.112 123.109L124.106 123.208L124.099 123.307L124.092 123.379L124.086 123.43L124.079 123.529L124.072 123.628L124.066 123.727L124.059 123.827L124.052 123.861L124.045 123.95L124.038 124.049L124.031 124.148L124.024 124.247L124.017 124.319L124.011 124.37L124.004 124.469L123.997 124.568L123.989 124.667L123.982 124.766L123.975 124.801L123.968 124.888L123.961 124.987L123.954 125.086L123.947 125.185L123.94 125.258L123.932 125.308L123.925 125.407L123.918 125.506L123.911 125.605L123.903 125.704L123.896 125.739L123.888 125.826L123.881 125.925L123.874 126.024L123.866 126.123L123.859 126.196L123.851 126.246L123.844 126.345L123.836 126.443L123.829 126.542L123.821 126.641L123.813 126.677L123.806 126.764L123.798 126.862L123.79 126.961L123.783 127.06L123.775 127.133L123.767 127.182L123.759 127.281L123.752 127.38L123.744 127.479L123.736 127.577L123.728 127.614L123.72 127.7L123.712 127.798L123.704 127.897L123.696 127.996L123.688 128.07L123.68 128.118L123.672 128.217L123.664 128.315L123.656 128.414L123.648 128.513L123.64 128.549L123.632 128.635L123.624 128.734L123.615 128.832L123.607 128.931L123.599 129.005L123.591 129.053L123.582 129.152L123.574 129.25L123.566 129.349L123.557 129.447L123.549 129.484L123.54 129.569L123.532 129.668L123.524 129.766L123.515 129.865L123.506 129.939L123.498 129.987L123.489 130.085L123.481 130.184L123.472 130.282L123.464 130.381L123.455 130.418L123.446 130.502L123.438 130.601L123.429 130.699L123.42 130.798L123.411 130.873L123.402 130.919L123.394 131.018L123.385 131.116L123.376 131.214L123.367 131.313L123.358 131.351L123.349 131.435L123.34 131.533L123.331 131.631L123.322 131.729L123.313 131.805L123.304 131.851L123.295 131.949L123.286 132.048L123.277 132.146L123.268 132.244L123.258 132.282L123.249 132.366L123.24 132.464L123.231 132.562L123.221 132.66L123.212 132.736L123.203 132.782L123.194 132.88L123.184 132.978L123.175 133.076L123.165 133.174L123.156 133.213L123.146 133.295L123.137 133.394L123.128 133.492L123.118 133.59L123.108 133.666L123.099 133.711L123.089 133.809L123.08 133.907L123.07 134.005L123.06 134.103L123.051 134.142L123.041 134.224L123.031 134.322L123.021 134.42L123.012 134.518L123.002 134.595L122.992 134.639L122.982 134.737L122.972 134.835L122.962 134.933L122.952 135.031L122.943 135.07L122.933 135.152L122.923 135.25L122.913 135.348L122.903 135.445L122.892 135.523L122.882 135.566L122.872 135.664L122.862 135.762L122.852 135.86L122.842 135.958L122.832 135.997L122.821 136.078L122.811 136.176L122.801 136.274L122.791 136.372L122.78 136.449L122.77 136.492L122.76 136.59L122.749 136.688L122.739 136.785L122.728 136.883L122.718 136.923L122.707 137.003L122.697 137.101L122.686 137.199L122.676 137.296L122.665 137.374L122.655 137.417L122.644 137.514L122.634 137.612L122.623 137.709L122.612 137.807L122.602 137.847L122.591 137.927L122.58 138.025L122.569 138.122L122.558 138.22L122.548 138.298L122.537 138.34L122.526 138.437L122.515 138.535L122.504 138.632L122.493 138.73L122.482 138.771L122.471 138.85L122.46 138.947L122.449 139.045L122.438 139.142L122.427 139.22L122.416 139.262L122.405 139.359L122.394 139.457L122.383 139.554L122.372 139.651L122.36 139.692L122.349 139.771L122.338 139.868L122.327 139.965L122.315 140.063L122.304 140.142L122.293 140.182L122.281 140.28L122.27 140.377L122.259 140.474L122.247 140.571L122.236 140.613L122.224 140.691L122.213 140.788L122.201 140.885L122.19 140.982L122.178 141.062L122.167 141.102L122.155 141.199L122.143 141.296L122.132 141.393L122.12 141.49L122.108 141.532L122.097 141.609L122.085 141.706L122.073 141.803L122.062 141.9L122.05 141.98L122.038 142.019L122.026 142.116L122.014 142.213L122.002 142.31L121.99 142.407L121.979 142.45L121.967 142.526L121.955 142.623L121.943 142.72L121.931 142.817L121.919 142.897L121.906 142.936L121.894 143.033L121.882 143.129L121.87 143.226L121.858 143.323L121.846 143.366L121.834 143.442L121.821 143.539L121.809 143.635L121.797 143.732L121.785 143.812L121.772 143.851L121.76 143.947L121.748 144.044L121.735 144.141L121.723 144.238L121.711 144.281L121.698 144.356L121.686 144.453L121.673 144.549L121.661 144.646L121.648 144.727L121.636 144.764L121.623 144.861L121.61 144.957L121.598 145.054L121.585 145.15L121.573 145.194L121.56 145.268L121.547 145.365L121.535 145.462L121.522 145.558L121.509 145.639L121.496 145.676L121.483 145.772L121.471 145.869L121.458 145.965L121.445 146.062L121.432 146.105L121.419 146.18L121.406 146.276L121.393 146.372L121.38 146.469L121.367 146.55L121.354 146.586L121.341 146.683L121.328 146.779L121.315 146.875L121.302 146.971L121.289 147.016L121.276 147.089L121.263 147.185L121.249 147.281L121.236 147.378L121.223 147.459L121.21 147.495L121.196 147.591L121.183 147.687L121.17 147.784L121.157 147.88L121.143 147.924L121.13 147.997L121.116 148.093L121.103 148.189L121.09 148.285L121.076 148.367L121.063 148.402L121.049 148.498L121.036 148.594L121.022 148.69L121.009 148.786L120.995 148.831L120.981 148.903L120.968 148.999L120.954 149.095L120.94 149.191L120.927 149.273L120.913 149.308L120.899 149.404L120.886 149.5L120.872 149.595L120.858 149.691L120.844 149.736L120.83 149.808L120.816 149.904L120.803 149.999L120.789 150.095L120.775 150.178L120.761 150.212L120.747 150.307L120.733 150.403L120.719 150.499L120.705 150.595L120.691 150.64L120.677 150.711L120.663 150.806L120.649 150.902L120.634 150.998L120.62 151.081L120.606 151.114L120.592 151.209L120.578 151.305L120.564 151.401L120.549 151.496L120.535 151.542L120.521 151.612L120.506 151.708L120.492 151.803L120.478 151.898L120.463 151.982L120.449 152.014L120.435 152.11L120.42 152.205L120.406 152.301L120.391 152.396L120.377 152.442L120.362 152.512L120.348 152.607L120.333 152.702L120.319 152.798L120.304 152.881L120.289 152.913L120.275 153.008L120.26 153.104L120.245 153.199L120.231 153.294L120.216 153.34L120.201 153.409L120.187 153.505L120.172 153.6L120.157 153.695L120.142 153.779L120.127 153.81L120.112 153.905L120.098 154L120.083 154.095L120.068 154.19L120.053 154.237L120.038 154.305L120.023 154.4L120.008 154.495L119.993 154.59L119.978 154.675L119.963 154.705L119.948 154.8L119.933 154.895L119.918 154.99L119.902 155.085L119.887 155.132L119.872 155.2L119.857 155.295L119.842 155.389L119.826 155.484L119.811 155.569L119.796 155.599L119.781 155.693L119.765 155.788L119.75 155.883L119.735 155.978L119.719 156.025L119.704 156.092L119.688 156.187L119.673 156.281L119.658 156.376L119.642 156.461L119.627 156.49L119.611 156.585L119.596 156.679L119.58 156.774L119.564 156.869L119.549 156.916L119.533 156.983L119.518 157.077L119.502 157.172L119.486 157.266L119.471 157.351L119.455 157.38L119.439 157.474L119.424 157.569L119.408 157.663L119.392 157.757L119.376 157.806L119.36 157.871L119.345 157.966L119.329 158.06L119.313 158.154L119.297 158.24L119.281 158.268L119.265 158.362L119.249 158.456L119.233 158.55L119.217 158.645L119.201 158.693L119.185 158.758L119.169 158.852L119.153 158.946L119.137 159.04L119.121 159.126L119.105 159.154L119.089 159.248L119.072 159.342L119.056 159.436L119.04 159.53L119.024 159.578L119.008 159.643L118.991 159.737L118.975 159.831L118.959 159.925L118.942 160.011L118.926 160.037L118.91 160.131L118.893 160.225L118.877 160.319L118.861 160.413L118.844 160.462L118.828 160.526L118.811 160.619L118.795 160.713L118.778 160.807L118.762 160.894L118.745 160.919L118.729 161.013L118.712 161.107L118.695 161.201L118.679 161.294L118.662 161.344L118.646 161.407L118.629 161.5L118.612 161.594L118.596 161.687L118.579 161.774L118.562 161.799L118.545 161.893L118.529 161.986L118.512 162.08L118.495 162.173L118.478 162.223L118.461 162.285L118.444 162.379L118.427 162.472L118.411 162.566L118.394 162.653L118.377 162.677L118.36 162.771L118.343 162.864L118.326 162.957L118.309 163.051L118.292 163.101L118.275 163.162L118.258 163.255L118.241 163.349L118.223 163.442L118.206 163.529L118.189 163.553L118.172 163.646L118.155 163.74L118.138 163.833L118.12 163.926L118.103 163.976L118.086 164.037L118.069 164.13L118.051 164.223L118.034 164.316L118.017 164.404L117.999 164.427L117.982 164.52L117.965 164.613L117.947 164.706L117.93 164.799L117.912 164.849L117.895 164.91L117.877 165.003L117.86 165.095L117.843 165.188L117.825 165.276L117.807 165.299L117.79 165.392L117.772 165.484L117.755 165.577L117.737 165.67L117.72 165.721L117.702 165.78L117.684 165.873L117.667 165.966L117.649 166.058L117.631 166.147L117.613 166.169L117.596 166.261L117.578 166.354L117.56 166.446L117.542 166.539L117.524 166.59L117.507 166.649L117.489 166.741L117.471 166.834L117.453 166.926L117.435 167.015L117.417 167.036L117.399 167.129L117.381 167.221L117.363 167.313L117.345 167.406L117.327 167.457L117.309 167.515L117.291 167.607L117.273 167.7L117.255 167.792L117.237 167.881L117.219 167.902L117.201 167.994L117.183 168.086L117.165 168.178L117.146 168.27L117.128 168.322L117.11 168.379L117.092 168.471L117.073 168.564L117.055 168.656L117.037 168.745L117.019 168.765L117 168.857L116.982 168.949L116.964 169.041L116.945 169.133L116.927 169.185L116.908 169.241L116.89 169.333L116.872 169.425L116.853 169.517L116.835 169.607L116.816 169.626L116.798 169.717L116.779 169.809L116.761 169.901L116.742 169.993L116.724 170.045L116.705 170.101L116.686 170.193L116.668 170.285L116.649 170.376L116.63 170.466L116.612 170.484L116.593 170.576L116.574 170.668L116.556 170.759L116.537 170.851L116.518 170.903L116.499 170.959L116.481 171.05L116.462 171.142L116.443 171.233L116.424 171.323L116.405 171.341L116.387 171.432L116.368 171.524L116.349 171.615L116.33 171.706L116.311 171.759L116.292 171.814L116.273 171.905L116.254 171.997L116.235 172.088L116.216 172.178L116.197 172.195L116.178 172.286L116.159 172.378L116.14 172.469L116.121 172.56L116.102 172.613L116.083 172.667L116.063 172.758L116.044 172.849L116.025 172.94L116.006 173.031L115.987 173.047L115.967 173.138L115.948 173.229L115.929 173.32L115.91 173.411L115.89 173.464L115.871 173.518L115.852 173.609L115.832 173.699L115.813 173.79L115.794 173.881L115.774 173.897L115.755 173.988L115.736 174.078L115.716 174.169L115.697 174.26L115.677 174.313L115.658 174.366L115.638 174.457L115.619 174.547L115.599 174.638L115.58 174.729L115.56 174.745L115.541 174.835L115.521 174.925L115.502 175.016L115.482 175.106L115.462 175.16L115.443 175.212L115.423 175.303L115.403 175.393L115.384 175.483L115.364 175.574L115.344 175.59L115.324 175.679L115.305 175.77L115.285 175.86L115.265 175.95L115.245 176.005L115.226 176.056L115.206 176.146L115.186 176.236L115.166 176.326L115.146 176.417L115.126 176.433L115.106 176.522L115.087 176.612L115.067 176.702L115.047 176.792L115.027 176.847L115.007 176.897L114.987 176.987L114.967 177.077L114.947 177.167L114.927 177.257L114.907 177.274L114.887 177.362L114.866 177.452L114.846 177.542L114.826 177.631L114.806 177.686L114.786 177.736L114.766 177.826L114.746 177.916L114.726 178.005L114.705 178.095L114.685 178.112L114.665 178.199L114.645 178.289L114.624 178.379L114.604 178.468L114.584 178.523L114.564 178.572L114.543 178.662L114.523 178.752L114.503 178.841L114.482 178.931L114.462 178.948L114.441 179.034L114.421 179.124L114.401 179.213L114.38 179.303L114.36 179.358L114.339 179.406L114.319 179.496L114.298 179.585L114.278 179.674L114.257 179.764L114.237 179.782L114.216 179.867L114.196 179.956L114.175 180.046L114.155 180.135L114.134 180.19L114.113 180.238L114.093 180.327L114.072 180.416L114.051 180.505L114.031 180.594L114.01 180.612L113.989 180.697L113.969 180.786L113.948 180.875L113.927 180.964L113.906 181.02L113.886 181.067L113.865 181.156L113.844 181.245L113.823 181.334L113.802 181.422L113.782 181.441L113.761 181.525L113.74 181.614L113.719 181.702L113.698 181.791L113.677 181.847L113.656 181.894L113.635 181.982L113.614 182.071L113.593 182.159L113.573 182.248L113.552 182.267L113.531 182.35L113.51 182.439L113.488 182.527L113.467 182.616L113.446 182.672L113.425 182.718L113.404 182.806L113.383 182.894L113.362 182.983L113.341 183.071L113.32 183.09L113.299 183.173L113.277 183.261L113.256 183.349L113.235 183.438L113.214 183.494L113.193 183.539L113.171 183.627L113.15 183.715L113.129 183.803L113.108 183.892L113.086 183.911L113.065 183.993L113.044 184.081L113.023 184.169L113.001 184.257L112.98 184.314L112.958 184.358L112.937 184.446L112.916 184.534L112.894 184.622L112.873 184.71L112.851 184.729L112.83 184.81L112.809 184.898L112.787 184.986L112.766 185.074L112.744 185.131L112.723 185.174L112.701 185.262L112.68 185.35L112.658 185.437L112.637 185.525L112.615 185.545L112.593 185.625L112.572 185.713L112.55 185.8L112.529 185.888L112.507 185.945L112.485 185.988L112.464 186.075L112.442 186.163L112.42 186.25L112.399 186.338L112.377 186.358L112.355 186.437L112.334 186.525L112.312 186.612L112.29 186.699L112.268 186.757L112.246 186.799L112.225 186.886L112.203 186.973L112.181 187.061L112.159 187.148L112.137 187.168L112.116 187.247L112.094 187.334L112.072 187.421L112.05 187.508L112.028 187.566L112.006 187.607L111.984 187.694L111.962 187.781L111.94 187.868L111.918 187.955L111.896 187.976L111.874 188.054L111.852 188.141L111.83 188.228L111.808 188.315L111.786 188.373L111.764 188.413L111.742 188.5L111.72 188.587L111.698 188.673L111.676 188.76L111.654 188.781L111.632 188.858L111.61 188.945L111.588 189.032L111.565 189.118L111.543 189.177L111.521 189.216L111.499 189.303L111.477 189.389L111.455 189.476L111.432 189.562L111.41 189.583L111.388 189.66L111.366 189.746L111.343 189.833L111.321 189.919L111.299 189.978L111.277 190.017L111.254 190.103L111.232 190.189L111.21 190.275L111.187 190.362L111.165 190.383L111.142 190.459L111.12 190.545L111.098 190.631L111.075 190.717L111.053 190.776L111.031 190.814L111.008 190.9L110.986 190.986L110.963 191.072L110.941 191.158L110.918 191.18L110.896 191.255L110.873 191.341L110.851 191.427L110.828 191.513L110.806 191.572L110.783 191.609L110.761 191.695L110.738 191.781L110.715 191.867L110.693 191.952L110.67 191.974L110.648 192.049L110.625 192.134L110.602 192.22L110.58 192.306L110.557 192.365L110.535 192.402L110.512 192.487L110.489 192.573L110.466 192.658L110.444 192.744L110.421 192.766L110.398 192.839L110.376 192.925L110.353 193.01L110.33 193.096L110.307 193.155L110.285 193.191L110.262 193.276L110.239 193.362L110.216 193.447L110.193 193.532L110.171 193.554L110.148 193.627L110.125 193.713L110.102 193.798L110.079 193.883L110.056 193.943L110.033 193.978L110.011 194.063L109.988 194.148L109.965 194.233L109.942 194.318L109.919 194.34L109.896 194.413L109.873 194.498L109.85 194.582L109.827 194.667L109.804 194.727L109.781 194.762L109.758 194.847L109.735 194.931L109.712 195.016L109.689 195.101L109.666 195.123L109.643 195.195L109.62 195.28L109.597 195.364L109.574 195.449L109.551 195.509L109.527 195.543L109.504 195.627L109.481 195.712L109.458 195.796L109.435 195.881L109.412 195.904L109.389 195.975L109.365 196.059L109.342 196.143L109.319 196.228L109.296 196.288L109.273 196.321L109.249 196.406L109.226 196.49L109.203 196.574L109.18 196.658L109.157 196.681L109.133 196.751L109.11 196.836L109.087 196.92L109.063 197.004L109.04 197.064L109.017 197.097L108.993 197.181L108.97 197.265L108.947 197.349L108.923 197.433L108.9 197.456L108.877 197.525L108.853 197.609L108.83 197.693L108.807 197.777L108.783 197.838L108.76 197.869L108.736 197.953L108.713 198.037L108.69 198.121L108.666 198.204L108.643 198.228L108.619 198.296L108.596 198.38L108.572 198.464L108.502 198.5L108.405 198.509L108.38 198.517L108.281 198.525L108.183 198.534L108.084 198.542L107.986 198.55L107.926 198.558L107.864 198.566L107.765 198.574L107.666 198.582L107.568 198.589L107.471 198.597L107.446 198.605L107.347 198.613L107.249 198.62L107.15 198.627L107.051 198.634L106.992 198.642L106.929 198.649L106.83 198.656L106.732 198.663L106.633 198.67L106.536 198.676L106.511 198.684L106.412 198.691L106.314 198.697L106.215 198.703L106.116 198.71L106.056 198.717L105.994 198.724L105.895 198.73L105.796 198.735L105.698 198.741L105.599 198.747L105.575 198.755L105.476 198.76L105.378 198.766L105.279 198.771L105.18 198.776L105.119 198.783L105.058 198.789L104.959 198.794L104.86 198.799L104.761 198.804L104.663 198.809L104.639 198.816L104.54 198.821L104.441 198.825L104.342 198.83L104.243 198.834L104.182 198.84L104.121 198.846L104.022 198.85L103.923 198.854L103.824 198.858L103.725 198.861L103.701 198.869L103.603 198.872L103.504 198.876L103.405 198.879L103.306 198.883L103.244 198.888L103.183 198.893L103.084 198.896L102.985 198.899L102.886 198.902L102.788 198.905L102.763 198.912L102.665 198.915L102.566 198.918L102.467 198.92L102.368 198.923L102.305 198.927L102.245 198.932L102.146 198.934L102.047 198.936L101.948 198.938L101.849 198.94L101.824 198.947L101.726 198.949L101.627 198.95L101.528 198.952L101.43 198.954L101.366 198.958L101.306 198.962L101.208 198.963L101.109 198.964L101.01 198.965L100.911 198.966L100.885 198.973L100.788 198.974L100.689 198.974L100.59 198.975L100.491 198.976L100.427 198.979L100.368 198.982L100.269 198.983L100.17 198.983L100.071 198.983L99.9717 198.983L99.945 198.989L99.8485 198.99L99.7495 198.989L99.6505 198.989L99.5515 198.989L99.4873 198.991L99.4283 198.994L99.3293 198.994L99.2303 198.993L99.1314 198.992L99.0324 198.992L99.0052 198.997L98.9091 198.996L98.8101 198.995L98.7111 198.994L98.6122 198.993L98.5474 198.995L98.4888 198.997L98.3899 198.996L98.2909 198.994L98.1919 198.993L98.0929 198.991L98.0652 198.996L97.9696 198.994L97.8706 198.992L97.7716 198.99L97.6727 198.988L97.6074 198.989L97.5493 198.991L97.4503 198.989L97.3513 198.986L97.2524 198.984L97.1534 198.981L97.1251 198.986L97.03 198.983L96.931 198.98L96.8321 198.977L96.7331 198.974L96.6673 198.975L96.6097 198.976L96.5107 198.973L96.4118 198.969L96.3128 198.966L96.2139 198.962L96.1851 198.967L96.0904 198.963L95.9915 198.959L95.8926 198.955L95.7936 198.951L95.7273 198.951L95.6702 198.952L95.5712 198.948L95.4723 198.943L95.3734 198.939L95.2744 198.934L95.2451 198.938L95.151 198.934L95.0521 198.929L94.9531 198.925L94.8542 198.919L94.7875 198.919L94.7308 198.919L94.6319 198.914L94.533 198.908L94.4341 198.903L94.3352 198.897L94.3053 198.901L94.2117 198.896L94.1128 198.89L94.014 198.885L93.9151 198.879L93.8478 198.877L93.7916 198.877L93.6928 198.871L93.5939 198.864L93.4951 198.858L93.3962 198.852L93.3658 198.855L93.2727 198.849L93.1739 198.842L93.0751 198.836L92.9763 198.829L92.9085 198.826L92.8528 198.826L92.754 198.819L92.6552 198.811L92.5564 198.804L92.4576 198.797L92.4267 198.8L92.3341 198.793L92.2353 198.785L92.1366 198.778L92.0378 198.77L91.9696 198.767L91.9144 198.766L91.8156 198.758L91.7169 198.749L91.6181 198.741L91.5194 198.733L91.488 198.735L91.396 198.728L91.2973 198.719L91.1986 198.711L91.0999 198.702L91.0312 198.698L90.9764 198.697L90.8778 198.688L90.7791 198.679L90.6804 198.669L90.5818 198.66L90.5498 198.662L90.4584 198.654L90.3597 198.644L90.2611 198.635L90.1625 198.625L90.0934 198.62L90.0391 198.618L89.9405 198.609L89.8419 198.599L89.7433 198.588L89.6448 198.578L89.6123 198.58L89.5214 198.571L89.4229 198.56L89.3243 198.55L89.2258 198.539L89.1562 198.534L89.1024 198.531L89.0039 198.521L88.9054 198.51L88.8069 198.498L88.7085 198.487L88.6755 198.489L88.5852 198.479L88.4867 198.467L88.3882 198.456L88.2898 198.444L88.2198 198.438L88.1665 198.435L88.0681 198.424L87.9697 198.412L87.8713 198.4L87.773 198.387L87.7395 198.388L87.6497 198.378L87.5514 198.366L87.453 198.353L87.3547 198.34L87.2843 198.334L87.2315 198.33L87.1332 198.317L87.0349 198.305L86.9366 198.292L86.8384 198.279L86.8044 198.279L86.7152 198.268L86.617 198.255L86.5187 198.241L86.4205 198.228L86.3496 198.22L86.2974 198.216L86.1992 198.202L86.101 198.189L86.0029 198.175L85.9047 198.161L85.8703 198.161L85.7816 198.149L85.6835 198.135L85.5854 198.12L85.4873 198.106L85.4161 198.097L85.3643 198.093L85.2663 198.079L85.1682 198.064L85.0702 198.049L84.9721 198.034L84.9372 198.034L84.8492 198.021L84.7512 198.006L84.6532 197.99L84.5553 197.975L84.4836 197.966L84.4324 197.961L84.3344 197.946L84.2365 197.93L84.1386 197.914L84.0407 197.898L84.0053 197.897L83.9179 197.884L83.82 197.868L83.7222 197.852L83.6244 197.835L83.5523 197.825L83.5016 197.82L83.4038 197.804L83.306 197.787L83.2083 197.771L83.1105 197.754L83.0747 197.752L82.9879 197.738L82.8901 197.721L82.7924 197.704L82.6948 197.687L82.6223 197.676L82.5721 197.671L82.4745 197.653L82.3769 197.635L82.2793 197.618L82.1817 197.6L82.1454 197.598L82.0591 197.583L81.9616 197.565L81.864 197.547L81.7665 197.529L81.6937 197.517L81.6441 197.512L81.5466 197.493L81.4491 197.475L81.3517 197.456L81.2542 197.438L81.2175 197.435L81.1318 197.42L81.0345 197.401L80.9371 197.382L80.8397 197.363L80.7666 197.35L80.7174 197.344L80.6201 197.325L80.5228 197.305L80.4256 197.286L80.3283 197.266L80.2911 197.263L80.2061 197.247L80.1089 197.227L80.0117 197.207L79.9145 197.187L79.841 197.174L79.7924 197.168L79.6952 197.147L79.5981 197.127L79.501 197.107L79.4039 197.086L79.3663 197.083L79.2819 197.066L79.1849 197.045L79.0878 197.024L78.9909 197.003L78.917 196.989L78.8689 196.982L78.7721 196.961L78.6752 196.94L78.5783 196.918L78.4814 196.897L78.4432 196.893L78.3595 196.875L78.2627 196.854L78.1659 196.832L78.0691 196.81L77.9949 196.795L77.9473 196.788L77.8506 196.766L77.7538 196.744L77.6571 196.722L77.5604 196.699L77.5219 196.695L77.4388 196.676L77.3421 196.654L77.2456 196.631L77.149 196.608L77.0744 196.592L77.0274 196.585L76.9309 196.562L76.8343 196.539L76.7378 196.516L76.6414 196.492L76.6024 196.487L76.5199 196.468L76.4235 196.445L76.3271 196.421L76.2307 196.398L76.1559 196.381L76.1094 196.373L76.0131 196.349L75.9168 196.325L75.8205 196.301L75.7242 196.277L75.6848 196.271L75.603 196.252L75.5068 196.227L75.4106 196.203L75.3145 196.178L75.2393 196.16L75.1934 196.152L75.0972 196.128L75.0011 196.103L74.9051 196.078L74.8091 196.053L74.7693 196.046L74.6881 196.026L74.5921 196.001L74.4961 195.975L74.4002 195.95L74.3247 195.931L74.2793 195.923L74.1834 195.897L74.0876 195.871L73.9918 195.846L73.896 195.82L73.8558 195.813L73.7753 195.792L73.6795 195.766L73.5838 195.739L73.4881 195.713L73.4124 195.693L73.3675 195.685L73.2719 195.658L73.1763 195.631L73.0807 195.605L72.9851 195.578L72.9445 195.57L72.8647 195.549L72.7692 195.522L72.6737 195.494L72.5783 195.467L72.5022 195.447L72.4579 195.438L72.3625 195.41L72.2672 195.383L72.1718 195.355L72.0765 195.327L72.0356 195.319L71.9564 195.297L71.8611 195.269L71.7659 195.241L71.6707 195.213L71.5944 195.191L71.5506 195.182L71.4555 195.154L71.3604 195.125L71.2653 195.096L71.1703 195.068L71.1289 195.059L71.0504 195.036L70.9554 195.008L70.8604 194.978L70.7655 194.949L70.6889 194.927L70.6457 194.918L70.5509 194.888L70.456 194.859L70.3612 194.829L70.2665 194.8L70.2247 194.79L70.1469 194.767L70.0522 194.737L69.9575 194.707L69.8628 194.677L69.786 194.654L69.7434 194.644L69.6488 194.614L69.5542 194.584L69.4597 194.553L69.3652 194.523L69.3231 194.513L69.2459 194.489L69.1515 194.458L69.0571 194.428L68.9627 194.397L68.8857 194.373L68.8436 194.363L68.7492 194.331L68.655 194.3L68.5608 194.269L68.4665 194.237L68.4241 194.227L68.3476 194.203L68.2534 194.171L68.1593 194.139L68.0652 194.107L67.9879 194.082L67.9464 194.072L67.8523 194.04L67.7584 194.008L67.6644 193.976L67.5705 193.943L67.5277 193.932L67.4519 193.907L67.358 193.875L67.2642 193.842L67.1704 193.809L67.0929 193.783L67.0519 193.773L66.9582 193.74L66.8645 193.707L66.7709 193.674L66.6773 193.64L66.6341 193.629L66.559 193.603L66.4654 193.57L66.3719 193.536L66.2785 193.503L66.2008 193.476L66.1603 193.465L66.0669 193.431L65.9735 193.397L65.8802 193.363L65.7869 193.329L65.7434 193.317L65.669 193.291L65.5757 193.257L65.4826 193.222L65.3894 193.188L65.3115 193.16L65.2716 193.149L65.1785 193.114L65.0855 193.079L64.9925 193.044L64.8995 193.009L64.8557 192.996L64.7819 192.97L64.689 192.935L64.5961 192.899L64.5033 192.864L64.4253 192.835L64.3859 192.824L64.2932 192.788L64.2004 192.752L64.1078 192.717L64.0151 192.681L63.971 192.667L63.8979 192.64L63.8053 192.604L63.7128 192.568L63.6203 192.531L63.5421 192.502L63.5033 192.49L63.4108 192.454L63.3185 192.417L63.2261 192.38L63.1338 192.344L63.0894 192.33L63.017 192.302L62.9248 192.265L62.8326 192.228L62.7404 192.191L62.662 192.16L62.6238 192.148L62.5317 192.111L62.4397 192.073L62.3477 192.036L62.2557 191.998L62.211 191.983L62.1393 191.955L62.0474 191.917L61.9555 191.879L61.8638 191.841L61.7852 191.81L61.7475 191.798L61.6558 191.76L61.5641 191.721L61.4724 191.683L61.3809 191.644L61.3358 191.629L61.2649 191.6L61.1733 191.561L61.0819 191.523L60.9904 191.484L60.9117 191.451L60.8746 191.439L60.7832 191.4L60.6919 191.361L60.6006 191.321L60.5094 191.282L60.4641 191.266L60.3938 191.237L60.3026 191.197L60.2115 191.157L60.1204 191.117L60.0416 191.084L60.0051 191.072L59.9141 191.032L59.8231 190.992L59.7322 190.951L59.6413 190.911L59.5957 190.894L59.5262 190.865L59.4354 190.824L59.3447 190.784L59.2539 190.743L59.175 190.708L59.139 190.696L59.0484 190.655L58.9578 190.614L58.8673 190.573L58.7768 190.532L58.7309 190.514L58.6621 190.484L58.5717 190.443L58.4813 190.402L58.391 190.36L58.312 190.324L58.2765 190.312L58.1863 190.27L58.0961 190.228L58.006 190.186L57.9158 190.144L57.8697 190.126L57.8016 190.096L57.7116 190.054L57.6216 190.011L57.5317 189.969L57.4526 189.932L57.4177 189.92L57.3278 189.877L57.2381 189.834L57.1483 189.791L57.0586 189.749L57.0122 189.73L56.9449 189.699L56.8552 189.656L56.7657 189.613L56.6762 189.569L56.5969 189.532L56.5626 189.519L56.4732 189.476L56.3838 189.432L56.2944 189.388L56.2051 189.344L56.1585 189.325L56.0919 189.294L56.0026 189.25L55.9135 189.206L55.8243 189.161L55.745 189.123L55.7113 189.11L55.6223 189.066L55.5333 189.021L55.4443 188.977L55.3554 188.932L55.3086 188.912L55.2427 188.88L55.1538 188.836L55.0651 188.791L54.9764 188.746L54.8971 188.706L54.8638 188.693L54.7752 188.648L54.6867 188.603L54.5982 188.557L54.5097 188.512L54.4626 188.491L54.3974 188.459L54.309 188.413L54.2207 188.367L54.1324 188.321L54.0531 188.281L54.0204 188.268L53.9322 188.222L53.844 188.176L53.756 188.129L53.6679 188.083L53.6207 188.061L53.5561 188.029L53.4682 187.982L53.3803 187.936L53.2925 187.889L53.2131 187.847L53.1809 187.835L53.0932 187.788L53.0055 187.741L52.9178 187.694L52.8302 187.646L52.7828 187.624L52.719 187.591L52.6315 187.544L52.544 187.496L52.4566 187.449L52.3772 187.406L52.3456 187.393L52.2583 187.345L52.1711 187.298L52.0838 187.25L51.9966 187.202L51.949 187.178L51.886 187.145L51.7989 187.097L51.7119 187.049L51.625 187L51.5455 186.957L51.5145 186.944L51.4276 186.895L51.3408 186.846L51.2541 186.798L51.1674 186.749L51.1195 186.725L51.0572 186.691L50.9706 186.642L50.884 186.593L50.7976 186.544L50.7181 186.499L50.6876 186.486L50.6012 186.437L50.5149 186.387L50.4286 186.338L50.3424 186.288L50.2943 186.263L50.2328 186.23L50.1466 186.18L50.0605 186.13L49.9745 186.08L49.895 186.034L49.8651 186.021L49.7792 185.971L49.6933 185.92L49.6075 185.87L49.5217 185.819L49.4735 185.794L49.4127 185.76L49.327 185.709L49.2414 185.658L49.1558 185.607L49.0764 185.561L49.047 185.547L48.9616 185.496L48.8761 185.445L48.7908 185.394L48.7055 185.343L48.6571 185.316L48.597 185.282L48.5118 185.231L48.4267 185.179L48.3416 185.127L48.2623 185.08L48.2334 185.066L48.1485 185.014L48.0635 184.962L47.9787 184.91L47.8938 184.858L47.8454 184.831L47.7859 184.797L47.7013 184.744L47.6166 184.692L47.532 184.639L47.4527 184.591L47.4244 184.577L47.3399 184.525L47.2555 184.472L47.1711 184.419L47.0868 184.366L47.0382 184.338L46.9795 184.303L46.8953 184.25L46.8111 184.197L46.727 184.144L46.6478 184.094L46.62 184.08L46.536 184.027L46.4521 183.973L46.3682 183.92L46.2844 183.866L46.2357 183.837L46.1778 183.802L46.094 183.748L46.0104 183.694L45.9268 183.64L45.8476 183.589L45.8204 183.576L45.7369 183.522L45.6535 183.467L45.5701 183.413L45.4868 183.358L45.438 183.329L45.3808 183.293L45.2975 183.239L45.2144 183.184L45.1313 183.129L45.0522 183.077L45.0256 183.064L44.9426 183.009L44.8597 182.954L44.7768 182.898L44.694 182.843L44.6451 182.813L44.5886 182.777L44.5059 182.722L44.4233 182.666L44.3407 182.61L44.2617 182.557L44.2355 182.544L44.1531 182.488L44.0707 182.432L43.9883 182.376L43.9061 182.32L43.857 182.289L43.8013 182.253L43.7191 182.197L43.6371 182.14L43.555 182.084L43.4761 182.03L43.4505 182.017L43.3686 181.96L43.2867 181.903L43.2049 181.846L43.1231 181.79L43.074 181.758L43.019 181.722L42.9374 181.665L42.8558 181.607L42.7743 181.55L42.6956 181.495L42.6705 181.482L42.5891 181.424L42.5077 181.367L42.4265 181.309L42.3452 181.252L42.296 181.219L42.2417 181.183L42.1607 181.125L42.0796 181.067L41.9986 181.009L41.9201 180.953L41.8955 180.939L41.8146 180.881L41.7338 180.823L41.6531 180.764L41.5724 180.706L41.5232 180.673L41.4696 180.636L41.3891 180.577L41.3086 180.519L41.2282 180.46L41.1497 180.403L41.1257 180.389L41.0453 180.331L40.9651 180.271L40.885 180.212L40.8048 180.153L40.7555 180.119L40.7027 180.082L40.6227 180.023L40.5428 179.963L40.4629 179.904L40.3846 179.845L40.3611 179.832L40.2813 179.773L40.2017 179.713L40.122 179.653L40.0425 179.593L39.9931 179.558L39.941 179.521L39.8616 179.461L39.7822 179.401L39.7029 179.34L39.6248 179.281L39.6018 179.268L39.5226 179.207L39.4435 179.147L39.3644 179.086L39.2854 179.025L39.236 178.99L39.1847 178.952L39.1058 178.892L39.027 178.831L38.9483 178.769L38.8703 178.709L38.8478 178.696L38.7693 178.635L38.6907 178.573L38.6122 178.512L38.5338 178.451L38.4844 178.414L38.4338 178.377L38.3555 178.315L38.2773 178.253L38.1991 178.191L38.1214 178.13L38.0994 178.117L38.0213 178.055L37.9434 177.993L37.8655 177.931L37.7876 177.869L37.7382 177.831L37.6883 177.794L37.6106 177.731L37.533 177.669L37.4553 177.606L37.3779 177.544L37.3564 177.531L37.2789 177.468L37.2015 177.405L37.1242 177.342L37.047 177.28L36.9975 177.241L36.9483 177.204L36.8712 177.14L36.7942 177.077L36.7172 177.014L36.6403 176.951L36.6186 176.937L36.5421 176.874L36.4652 176.811L36.3885 176.747L36.3119 176.683L36.2624 176.644L36.214 176.606L36.1375 176.543L36.061 176.479L35.9846 176.415L35.9083 176.351L35.8865 176.337L35.8108 176.273L35.7347 176.209L35.6585 176.145L35.5824 176.08L35.533 176.04L35.4854 176.002L35.4094 175.938L35.3335 175.873L35.2578 175.808L35.182 175.743L35.16 175.729L35.0853 175.665L35.0098 175.6L34.9342 175.535L34.8588 175.47L34.8094 175.429L34.7625 175.391L34.6871 175.326L34.6119 175.26L34.5367 175.195L34.4616 175.129L34.4393 175.114L34.3656 175.05L34.2907 174.984L34.2157 174.919L34.1409 174.853L34.0916 174.811L34.0454 174.773L33.9706 174.707L33.896 174.641L33.8214 174.575L33.7469 174.509L33.7245 174.493L33.6518 174.428L33.5774 174.362L33.5031 174.295L33.4289 174.229L33.3796 174.187L33.3341 174.148L33.26 174.081L33.186 174.015L33.112 173.948L33.0381 173.881L33.0155 173.865L32.9438 173.8L32.87 173.732L32.7964 173.665L32.7228 173.598L32.6735 173.555L32.6288 173.516L32.5553 173.449L32.4819 173.381L32.4086 173.314L32.3353 173.246L32.3126 173.229L32.2418 173.164L32.1686 173.096L32.0956 173.028L32.0227 172.96L31.9735 172.917L31.9294 172.878L31.8566 172.81L31.7839 172.742L31.7112 172.673L31.6386 172.605L31.6156 172.588L31.5458 172.522L31.4733 172.454L31.401 172.385L31.3286 172.316L31.2795 172.272L31.2362 172.233L31.1641 172.164L31.0919 172.095L31.0199 172.026L30.9479 171.957L30.9248 171.939L30.8559 171.873L30.7841 171.804L30.7124 171.735L30.6407 171.665L30.5917 171.62L30.5491 171.581L30.4776 171.512L30.4061 171.442L30.3347 171.372L30.2634 171.303L30.2401 171.284L30.1722 171.218L30.1011 171.148L30.03 171.078L29.9589 171.008L29.91 170.962L29.8681 170.923L29.7973 170.853L29.7264 170.782L29.6557 170.712L29.5851 170.642L29.5617 170.622L29.4947 170.556L29.4242 170.485L29.3538 170.415L29.2834 170.344L29.2346 170.297L29.1935 170.258L29.1232 170.187L29.0531 170.116L28.9831 170.045L28.913 169.974L28.8895 169.954L28.8235 169.888L28.7537 169.816L28.6839 169.745L28.6142 169.674L28.5656 169.626L28.5251 169.587L28.4555 169.515L28.3861 169.444L28.3167 169.372L28.2473 169.3L28.2237 169.28L28.1587 169.213L28.0895 169.141L28.0204 169.069L27.9514 168.997L27.9029 168.948L27.8631 168.909L27.7942 168.837L27.7254 168.765L27.6567 168.692L27.588 168.62L27.5643 168.599L27.5003 168.532L27.4318 168.459L27.3633 168.387L27.295 168.314L27.2466 168.264L27.2075 168.225L27.1393 168.152L27.0713 168.079L27.0032 168.007L26.9352 167.934L26.9114 167.912L26.8483 167.844L26.7804 167.771L26.7127 167.698L26.6451 167.625L26.5968 167.574L26.5585 167.535L26.491 167.462L26.4236 167.388L26.3562 167.314L26.2889 167.241L26.265 167.218L26.2028 167.151L26.1357 167.077L26.0687 167.003L26.0017 166.929L25.9537 166.878L25.916 166.839L25.8492 166.764L25.7825 166.69L25.7158 166.616L25.6492 166.542L25.6253 166.519L25.564 166.451L25.4976 166.376L25.4313 166.302L25.365 166.227L25.3171 166.175L25.2802 166.136L25.2141 166.061L25.148 165.987L25.082 165.912L25.0162 165.837L24.9921 165.813L24.9318 165.745L24.8661 165.67L24.8005 165.595L24.7349 165.52L24.6872 165.467L24.651 165.427L24.5856 165.352L24.5202 165.277L24.455 165.201L24.3898 165.126L24.3657 165.101L24.3064 165.033L24.2414 164.957L24.1764 164.882L24.1115 164.806L24.0641 164.752L24.0285 164.713L23.9638 164.637L23.8992 164.561L23.8347 164.485L23.7702 164.409L23.746 164.384L23.6877 164.315L23.6234 164.239L23.5591 164.163L23.495 164.086L23.4478 164.031L23.4129 163.992L23.3489 163.916L23.285 163.839L23.2212 163.762L23.1574 163.686L23.1332 163.66L23.0758 163.591L23.0122 163.515L22.9487 163.438L22.8853 163.361L22.8383 163.305L22.8041 163.266L22.7408 163.189L22.6777 163.111L22.6146 163.034L22.5515 162.957L22.5273 162.931L22.4709 162.862L22.408 162.784L22.3452 162.707L22.2825 162.629L22.2358 162.573L22.2022 162.534L22.1397 162.456L22.0773 162.378L22.0149 162.3L21.9526 162.222L21.9283 162.195L21.8728 162.126L21.8107 162.048L21.7486 161.97L21.6867 161.892L21.6402 161.835L21.6073 161.796L21.5455 161.717L21.4838 161.639L21.4221 161.56L21.3606 161.482L21.3363 161.454L21.2818 161.385L21.2204 161.307L21.1591 161.228L21.0979 161.149L21.0516 161.091L21.0194 161.052L20.9584 160.973L20.8974 160.894L20.8365 160.815L20.7757 160.736L20.7514 160.708L20.6978 160.639L20.6372 160.559L20.5766 160.48L20.5161 160.401L20.4702 160.341L20.4387 160.303L20.3784 160.223L20.3181 160.144L20.258 160.064L20.198 159.984L20.1737 159.956L20.121 159.886L20.0611 159.806L20.0013 159.726L19.9415 159.647L19.8959 159.587L19.865 159.548L19.8055 159.468L19.746 159.388L19.6866 159.308L19.6273 159.227L19.6031 159.198L19.5513 159.128L19.4922 159.048L19.4331 158.967L19.3741 158.887L19.3288 158.826L19.2986 158.788L19.2398 158.707L19.1811 158.626L19.1225 158.546L19.0639 158.465L19.0397 158.435L18.9889 158.365L18.9305 158.284L18.8722 158.203L18.814 158.122L18.769 158.06L18.7394 158.022L18.6814 157.941L18.6234 157.86L18.5656 157.778L18.5077 157.697L18.4836 157.666L18.4337 157.596L18.3761 157.515L18.3186 157.433L18.2612 157.352L18.2164 157.289L18.1875 157.251L18.1302 157.169L18.0731 157.087L18.016 157.005L17.9589 156.924L17.9348 156.892L17.8859 156.822L17.8291 156.74L17.7723 156.658L17.7157 156.576L17.6712 156.513L17.643 156.475L17.5865 156.392L17.5301 156.31L17.4738 156.228L17.4176 156.145L17.3935 156.113L17.3455 156.043L17.2894 155.961L17.2334 155.878L17.1776 155.795L17.1335 155.731L17.1059 155.693L17.0502 155.61L16.9946 155.527L16.939 155.444L16.8836 155.361L16.8596 155.329L16.8125 155.259L16.7571 155.176L16.702 155.093L16.6469 155.009L16.6032 154.944L16.5762 154.906L16.5213 154.823L16.4665 154.74L16.4117 154.656L16.3571 154.573L16.3331 154.539L16.2869 154.469L16.2325 154.386L16.1781 154.302L16.1237 154.218L16.0804 154.152L16.0541 154.115L16 154.031L15.9459 153.947L15.892 153.863L15.8381 153.779L15.8143 153.745L15.769 153.675L15.7153 153.591L15.6617 153.506L15.6082 153.422L15.5653 153.356L15.5396 153.318L15.4862 153.234L15.4329 153.149L15.3798 153.065L15.3267 152.98L15.303 152.945L15.2587 152.876L15.2058 152.791L15.153 152.706L15.1002 152.621L15.0577 152.554L15.0327 152.516L14.9801 152.431L14.9276 152.346L14.8753 152.261L14.823 152.176L14.7994 152.141L14.756 152.071L14.7039 151.986L14.6518 151.901L14.6 151.815L14.5578 151.747L14.5334 151.71L14.4816 151.624L14.43 151.539L14.3785 151.453L14.3269 151.368L14.3034 151.332L14.261 151.262L14.2097 151.176L14.1584 151.091L14.1074 151.005L14.0657 150.936L14.0418 150.899L13.9909 150.813L13.9401 150.727L13.8894 150.641L13.8387 150.555L13.8153 150.518L13.7737 150.448L13.7233 150.362L13.6729 150.276L13.6226 150.189L13.5813 150.119L13.5581 150.083L13.508 149.996L13.458 149.91L13.408 149.823L13.3582 149.737L13.3349 149.699L13.2943 149.63L13.2446 149.543L13.1951 149.456L13.1456 149.369L13.1047 149.299L13.0821 149.262L13.0329 149.175L12.9837 149.088L12.9345 149.001L12.8856 148.914L12.8625 148.876L12.8227 148.806L12.7738 148.719L12.7251 148.632L12.6764 148.545L12.6361 148.473L12.614 148.437L12.5656 148.349L12.5172 148.262L12.4689 148.175L12.4208 148.087L12.3979 148.048L12.3589 147.979L12.3109 147.891L12.2631 147.803L12.2152 147.716L12.1753 147.643L12.1539 147.607L12.1063 147.519L12.0587 147.432L12.0113 147.344L11.964 147.256L11.9412 147.216L11.9032 147.147L11.856 147.059L11.809 146.97L11.7619 146.882L11.7225 146.809L11.7017 146.773L11.6549 146.685L11.6082 146.597L11.5616 146.508L11.5151 146.42L11.4925 146.38L11.4554 146.31L11.4091 146.222L11.3628 146.133L11.3167 146.045L11.2778 145.97L11.2575 145.935L11.2116 145.846L11.1657 145.757L11.12 145.668L11.0743 145.58L11.0518 145.539L11.0156 145.469L10.9702 145.38L10.9248 145.291L10.8795 145.202L10.8411 145.128L10.8214 145.092L10.7762 145.003L10.7313 144.914L10.6863 144.824L10.6415 144.735L10.6193 144.694L10.584 144.624L10.5394 144.535L10.4948 144.446L10.4504 144.356L10.4124 144.28L10.3933 144.245L10.349 144.156L10.3049 144.066L10.2608 143.976L10.2168 143.887L10.1949 143.845L10.1604 143.775L10.1167 143.685L10.0729 143.596L10.0294 143.506L9.99196 143.429L9.9734 143.394L9.93001 143.304L9.88675 143.214L9.84349 143.124L9.80038 143.034L9.77864 142.991L9.74506 142.922L9.70209 142.832L9.6593 142.742L9.61657 142.651L9.57966 142.574L9.56166 142.539L9.51916 142.449L9.47674 142.358L9.43433 142.268L9.39212 142.177L9.3706 142.134L9.33787 142.065L9.29576 141.974L9.25387 141.884L9.21197 141.793L9.17561 141.715L9.15819 141.68L9.11656 141.589L9.07496 141.499L9.03346 141.408L8.99209 141.317L8.9708 141.273L8.93894 141.204L8.89772 141.113L8.85667 141.022L8.81563 140.931L8.77985 140.852L8.76299 140.817L8.72221 140.726L8.68143 140.635L8.64086 140.544L8.60035 140.452L8.57929 140.408L8.54826 140.339L8.50797 140.247L8.46775 140.156L8.42756 140.064L8.39241 139.985L8.37608 139.951L8.33616 139.859L8.29625 139.767L8.25658 139.676L8.21691 139.584L8.19612 139.539L8.16595 139.47L8.12656 139.378L8.08716 139.286L8.0479 139.195L8.01333 139.114L7.99751 139.08L7.95845 138.988L7.91948 138.896L7.88064 138.804L7.84184 138.712L7.82135 138.666L7.79204 138.598L7.75351 138.506L7.71498 138.413L7.67663 138.321L7.64264 138.24L7.62735 138.206L7.58913 138.114L7.55109 138.022L7.51309 137.929L7.47516 137.837L7.45496 137.79L7.42652 137.722L7.38886 137.629L7.35119 137.537L7.31374 137.444L7.28036 137.362L7.26559 137.329L7.22824 137.236L7.19111 137.143L7.15397 137.051L7.11694 136.958L7.09706 136.91L7.06945 136.842L7.03263 136.749L6.99592 136.656L6.95933 136.564L6.92654 136.481L6.91229 136.448L6.87587 136.355L6.83961 136.262L6.80335 136.169L6.76723 136.075L6.74766 136.027L6.72087 135.959L6.68491 135.866L6.64914 135.773L6.61341 135.68L6.58122 135.596L6.56749 135.563L6.53201 135.47L6.4966 135.377L6.46121 135.283L6.42602 135.19L6.40676 135.141L6.38079 135.073L6.34569 134.98L6.31085 134.886L6.276 134.792L6.24446 134.708L6.23124 134.676L6.19666 134.582L6.16211 134.488L6.12766 134.394L6.09336 134.301L6.0744 134.251L6.04924 134.184L6.01511 134.09L5.98111 133.996L5.94714 133.902L5.91629 133.817L5.90357 133.785L5.86987 133.691L5.83618 133.597L5.8027 133.502L5.76927 133.408L5.75063 133.358L5.72628 133.291L5.69309 133.197L5.65996 133.102L5.62687 133.008L5.59674 132.922L5.58449 132.891L5.55168 132.796L5.51888 132.702L5.48631 132.607L5.45378 132.513L5.43549 132.462L5.41195 132.395L5.37968 132.301L5.34741 132.206L5.31527 132.111L5.28581 132.025L5.27404 131.993L5.24211 131.899L5.21027 131.804L5.17857 131.709L5.14691 131.614L5.12902 131.563L5.10629 131.496L5.07492 131.401L5.04354 131.307L5.01234 131.212L4.98356 131.124L4.97225 131.093L4.9412 130.998L4.91033 130.903L4.8795 130.808L4.84873 130.713L4.83123 130.661L4.80931 130.595L4.77882 130.499L4.74835 130.404L4.71808 130.309L4.68999 130.221L4.67915 130.19L4.649 130.095L4.61906 130L4.58912 129.904L4.55928 129.809L4.54217 129.756L4.52104 129.69L4.49143 129.595L4.46191 129.499L4.43253 129.404L4.40512 129.315L4.39476 129.284L4.36555 129.189L4.33651 129.093L4.30747 128.998L4.27857 128.902L4.26185 128.849L4.24149 128.783L4.21276 128.687L4.18421 128.591L4.15573 128.495L4.12901 128.406L4.1191 128.376L4.09086 128.28L4.0627 128.184L4.03456 128.088L4.00662 127.992L3.99029 127.938L3.97071 127.873L3.94286 127.777L3.91528 127.681L3.88769 127.584L3.86171 127.494L3.85226 127.465L3.82495 127.369L3.79766 127.272L3.77049 127.176L3.74346 127.08L3.72752 127.025L3.7087 126.96L3.68183 126.864L3.65512 126.767L3.62844 126.671L3.60324 126.58L3.59423 126.551L3.56782 126.454L3.54142 126.358L3.51522 126.262L3.4891 126.165L3.47355 126.11L3.45549 126.045L3.42959 125.948L3.40377 125.852L3.37799 125.755L3.3536 125.663L3.34501 125.635L3.31951 125.538L3.29402 125.441L3.26878 125.345L3.24356 125.248L3.22844 125.192L3.21113 125.127L3.18619 125.031L3.16125 124.934L3.13644 124.837L3.11282 124.744L3.10463 124.716L3.08004 124.619L3.05553 124.522L3.03117 124.425L3.00686 124.328L2.99221 124.272L2.97566 124.207L2.95163 124.11L2.9276 124.013L2.90374 123.916L2.88089 123.823L2.87311 123.795L2.84942 123.698L2.82589 123.601L2.80242 123.504L2.77902 123.407L2.76486 123.35L2.74906 123.285L2.72595 123.188L2.70283 123.091L2.67993 122.993L2.65785 122.9L2.65049 122.872L2.6277 122.775L2.60514 122.677L2.58258 122.58L2.56011 122.483L2.54642 122.425L2.53136 122.361L2.50915 122.263L2.487 122.166L2.46501 122.068L2.44371 121.974L2.43676 121.947L2.41493 121.849L2.39329 121.752L2.37165 121.654L2.35013 121.556L2.33692 121.498L2.32258 121.435L2.30126 121.337L2.2801 121.239L2.25902 121.141L2.2385 121.046L2.23194 121.02L2.21108 120.922L2.19035 120.824L2.16963 120.726L2.14908 120.628L2.13634 120.57L2.12272 120.506L2.1023 120.408L2.08212 120.31L2.06196 120.213L2.04222 120.117L2.03606 120.09L2.01618 119.992L1.99634 119.894L1.97657 119.796L1.95697 119.698L1.9447 119.639L1.9318 119.576L1.91232 119.478L1.89308 119.38L1.87384 119.282L1.85496 119.185L1.84918 119.159L1.83022 119.061L1.81128 118.963L1.7925 118.865L1.77383 118.766L1.76203 118.706L1.74982 118.644L1.73134 118.546L1.71299 118.447L1.69467 118.349L1.67668 118.252L1.67126 118.226L1.65322 118.128L1.63519 118.03L1.61739 117.931L1.59964 117.833L1.58833 117.772L1.57681 117.71L1.55931 117.612L1.54187 117.513L1.52448 117.415L1.50738 117.317L1.5023 117.292L1.48519 117.193L1.4681 117.095L1.45125 116.996L1.43442 116.898L1.42364 116.836L1.41281 116.775L1.39627 116.676L1.37973 116.577L1.36332 116.479L1.34707 116.38L1.34233 116.356L1.32615 116.257L1.31004 116.158L1.29409 116.06L1.27819 115.961L1.26796 115.899L1.25783 115.838L1.24221 115.739L1.22659 115.64L1.21115 115.541L1.19582 115.443L1.1913 115.418L1.17608 115.319L1.16097 115.22L1.14592 115.122L1.13094 115.023L1.12129 114.96L1.11183 114.899L1.09714 114.8L1.08245 114.701L1.06798 114.603L1.05357 114.504L1.04927 114.478L1.03502 114.38L1.0209 114.281L1.00678 114.182L0.992723 114.083L0.983633 114.02L0.974849 113.959L0.961071 113.86L0.94735 113.761L0.933799 113.662L0.920318 113.563L0.916243 113.537L0.903014 113.439L0.889821 113.34L0.876629 113.241L0.86354 113.142L0.855007 113.079L0.846878 113.018L0.834002 112.919L0.821271 112.82L0.80865 112.721L0.796075 112.622L0.792234 112.595L0.780031 112.498L0.767753 112.399L0.755485 112.299L0.743367 112.2L0.735398 112.136L0.727909 112.076L0.715941 111.977L0.704199 111.878L0.692504 111.778L0.680833 111.679L0.677243 111.652L0.666063 111.555L0.654688 111.456L0.643353 111.356L0.632223 111.257L0.624803 111.192L0.617952 111.133L0.606915 111.033L0.596136 110.934L0.585373 110.835L0.574638 110.735L0.5713 110.707L0.561105 110.611L0.550637 110.511L0.540281 110.412L0.53009 110.313L0.523224 110.247L0.517006 110.188L0.506954 110.089L0.497082 109.989L0.487249 109.89L0.477503 109.79L0.4744 109.762L0.465156 109.666L0.455607 109.566L0.446224 109.467L0.436964 109.367L0.430666 109.302L0.425065 109.243L0.416003 109.143L0.407034 109.044L0.39813 108.944L0.389373 108.845L0.386516 108.816L0.378211 108.72L0.369594 108.621L0.361173 108.521L0.352841 108.421L0.347142 108.355L0.34213 108.297L0.334054 108.197L0.32601 108.097L0.318018 107.998L0.310246 107.898L0.307647 107.869L0.300271 107.774L0.292589 107.674L0.285122 107.574L0.277721 107.474L0.272641 107.408L0.268218 107.35L0.261104 107.25L0.25399 107.15L0.246944 107.051L0.240116 106.951L0.237804 106.921L0.231327 106.826L0.224628 106.727L0.218087 106.627L0.211596 106.527L0.20716 106.46L0.203341 106.402L0.197148 106.302L0.190963 106.203L0.184874 106.103L0.178977 106.003L0.17696 105.973L0.171372 105.878L0.165656 105.779L0.160045 105.679L0.154458 105.579L0.150678 105.511L0.147467 105.454L0.142176 105.354L0.136923 105.254L0.131812 105.155L0.12682 105.055L0.12511 105.024L0.120416 104.93L0.115665 104.83L0.110985 104.73L0.106304 104.63L0.103182 104.562L0.10057 104.505L0.0961831 104.406L0.0918595 104.306L0.0877286 104.206L0.0836391 104.106L0.0822396 104.075L0.0784448 103.981L0.0746457 103.881L0.0708949 103.781L0.0671524 103.681L0.0646661 103.612L0.0626407 103.556L0.0591756 103.456L0.0557855 103.357L0.0526074 103.257L0.0494289 103.157L0.0483435 103.125L0.0454749 103.032L0.0425833 102.932L0.0397616 102.832L0.036995 102.732L0.0351308 102.662L0.0336645 102.607L0.0311291 102.507L0.0286847 102.407L0.0264355 102.307L0.0241862 102.207L0.0234066 102.175L0.0214582 102.082L0.0194947 101.982L0.0175742 101.882L0.0157798 101.782L0.0145624 101.712L0.01363 101.657L0.0120229 101.557L0.0105289 101.457L0.00920031 101.357L0.00787892 101.257L0.00741272 101.225L0.00637301 101.132L0.0053378 101.033L0.00431535 100.933L0.00349125 100.833L0.00293997 100.762L0.00251979 100.708L0.0018404 100.608L0.00131561 100.508L0.000884935 100.408L0.000491187 100.308L0.000371425 100.274L0.000189838 100.183L6.44056e-05 100.083L0 99.9827L0.000119024 99.8827L0.000213538 99.8117L0.00030347 99.7578L0.000599646 99.6578L0.0010106 99.5578L0.00144693 99.4578L0.00205463 99.3578L0.00228422 99.3241L0.00294554 99.2329L0.00371018 99.1329L0.00462988 99.0329L0.0056391 98.9329L0.00640685 98.8614L0.00699765 98.808L0.00826875 98.708L0.00959727 98.608L0.0109315 98.508L0.0125142 98.4081L0.0131129 98.3738L0.0145806 98.2831L0.0162758 98.1832L0.0181687 98.0832L0.0200616 97.9832L0.0215412 97.9112L0.0226748 97.8583L0.0248498 97.7583L0.0270837 97.6584L0.0294281 97.5584L0.0318855 97.4585L0.0328547 97.4237L0.0351514 97.3335L0.0378083 97.2336L0.0406171 97.1336L0.043429 97.0337L0.0456133 96.9612L0.0472905 96.9088L0.0503854 96.8088L0.0534873 96.7089L0.0568436 96.609L0.0602204 96.5091L0.0615266 96.4738L0.0646537 96.3842L0.0683146 96.2842L0.0719922 96.1843L0.075766 96.0844L0.0786867 96.0115L0.0808356 95.9595L0.0848505 95.8596L0.0889385 95.7597L0.0931938 95.6598L0.0974905 95.5599L0.0991913 95.5242L0.103177 95.4351L0.107757 95.3352L0.112336 95.2353L0.117095 95.1355L0.120731 95.0621L0.123351 95.0106L0.128259 94.9108L0.133363 94.8109L0.138508 94.7111L0.143707 94.6112L0.145825 94.5751L0.150662 94.4865L0.156148 94.3866L0.161671 94.2868L0.167383 94.187L0.171736 94.1131L0.174838 94.0622L0.180678 93.9624L0.186742 93.8626L0.192807 93.7628L0.198966 93.663L0.2015 93.6264L0.20714 93.5383L0.2135 93.4386L0.220041 93.3388L0.226673 93.239L0.23171 93.1647L0.235292 93.1143L0.242149 93.0146L0.249087 92.9149L0.256075 92.8151L0.263248 92.7154L0.266158 92.6783L0.272589 92.5908L0.279867 92.4911L0.287384 92.3913L0.294937 92.2917L0.300725 92.2169L0.304758 92.1671L0.312594 92.0674L0.320431 91.9677L0.328389 91.8681L0.33651 91.7684L0.33982 91.7309L0.347013 91.6439L0.355311 91.5443L0.363714 91.4446L0.372176 91.345L0.378781 91.2699L0.383266 91.2205L0.392018 91.1209L0.400775 91.0213L0.409708 90.9218L0.418748 90.8222L0.422497 90.7842L0.430417 90.6978L0.439737 90.5982L0.44906 90.4987L0.458429 90.3991L0.46584 90.3236L0.470797 90.2748L0.480427 90.1753L0.49017 90.0758L0.500058 89.9763L0.509976 89.8768L0.514187 89.8383L0.522942 89.7525L0.533149 89.653L0.543395 89.5536L0.55377 89.4541L0.561918 89.3782L0.567317 89.3299L0.577845 89.2305L0.588587 89.1311L0.599398 89.0317L0.610208 88.9323L0.614877 88.8934L0.624467 88.8082L0.63556 88.7088L0.64674 88.6095L0.658118 88.5101L0.666997 88.4337L0.67283 88.386L0.684335 88.2867L0.695999 88.1874L0.70773 88.0881L0.719554 87.9888L0.724645 87.9495L0.734989 87.8648L0.747001 87.7656L0.759159 87.6663L0.771453 87.5671L0.781119 87.4903L0.78733 87.4432L0.79986 87.344L0.812437 87.2448L0.825051 87.1456L0.837895 87.0465L0.843448 87.0067L0.854495 86.9226L0.867448 86.8235L0.88059 86.7244L0.893782 86.6253L0.904274 86.5481L0.910891 86.5015L0.924374 86.4024L0.937873 86.3034L0.951458 86.2043L0.965229 86.1053L0.971257 86.0651L0.98299 85.9816L0.996966 85.8826L1.01103 85.7836L1.0251 85.6846L1.03646 85.6071L1.04352 85.561L1.05787 85.4621L1.07229 85.3632L1.0869 85.2643L1.10155 85.1654L1.10807 85.1248L1.12053 85.0419L1.13547 84.943L1.15045 84.8442L1.16548 84.7453L1.17766 84.6674L1.18512 84.6219L1.20038 84.5231L1.21578 84.4244L1.23132 84.3256L1.24687 84.2268L1.25388 84.1858L1.26714 84.1035L1.28297 84.0048L1.29885 83.9061L1.3149 83.8075L1.32786 83.7291L1.33571 83.6842L1.35189 83.5856L1.36826 83.4869L1.38472 83.3883L1.4012 83.2897L1.4087 83.2483L1.42273 83.1666L1.43946 83.0681L1.45628 82.9695L1.4733 82.871L1.48707 82.7924L1.49526 82.748L1.51244 82.6495L1.52975 82.5511L1.54709 82.4526L1.56459 82.3542L1.57258 82.3123L1.58727 82.2313L1.60493 82.1329L1.62274 82.0345L1.64066 81.9362L1.65526 81.8572L1.6638 81.8134L1.68198 81.7151L1.7002 81.6168L1.71844 81.5185L1.73693 81.4203L1.74545 81.378L1.76078 81.2976L1.7794 81.1994L1.79818 81.1012L1.81697 81.003L1.83248 80.9237L1.84139 80.8805L1.86047 80.7823L1.87961 80.6842L1.89886 80.5861L1.91823 80.4881L1.92727 80.4454L1.94327 80.3656L1.96288 80.2676L1.98257 80.1696L2.00226 80.0716L2.01865 79.992L2.02795 79.9493L2.04793 79.8513L2.06797 79.7534L2.08823 79.6555L2.10848 79.5576L2.11805 79.5146L2.13475 79.4355L2.15528 79.3376L2.17588 79.2398L2.19658 79.142L2.21379 79.0621L2.22344 79.02L2.24432 78.9222L2.26534 78.8245L2.2865 78.7268L2.30767 78.6291L2.31777 78.5857L2.3352 78.5072L2.35664 78.4096L2.37811 78.312L2.39981 78.2144L2.41789 78.1341L2.42784 78.0926L2.44965 77.9951L2.47165 77.8976L2.4937 77.8L2.51582 77.7026L2.52647 77.6588L2.54455 77.581L2.5669 77.4835L2.58934 77.3861L2.61196 77.2888L2.6309 77.2082L2.64113 77.1673L2.66396 77.07L2.68687 76.9726L2.70978 76.8754L2.73292 76.7781L2.74412 76.734L2.7628 76.6568L2.78605 76.5596L2.80951 76.4624L2.833 76.3652L2.85282 76.2844L2.86337 76.2441L2.88714 76.147L2.91096 76.0499L2.93483 75.9528L2.95889 75.8558L2.97065 75.8113L2.98994 75.7348L3.01417 75.6378L3.03854 75.5409L3.0629 75.4439L3.08368 75.3628L3.09456 75.323L3.1192 75.2262L3.14391 75.1293L3.16878 75.0325L3.19371 74.9357L3.20604 74.8909L3.22594 74.815L3.25115 74.7183L3.27641 74.6216L3.30171 74.5249L3.32339 74.4435L3.33458 74.4043L3.36013 74.3077L3.38576 74.2111L3.41158 74.1145L3.4374 74.018L3.4503 73.9728L3.47087 73.8976L3.49698 73.8011L3.52312 73.7046L3.54942 73.6082L3.57196 73.5266L3.58342 73.488L3.60986 73.3916L3.63647 73.2953L3.66319 73.199L3.68991 73.1027L3.70338 73.0572L3.72462 72.9826L3.75161 72.8864L3.77865 72.7902L3.80592 72.694L3.82937 72.6121L3.84107 72.5742L3.86847 72.478L3.89601 72.382L3.92358 72.2859L3.95131 72.1898L3.96538 72.144L3.98716 72.0702L4.01504 71.9742L4.04307 71.8783L4.07121 71.7824L4.09556 71.7002L4.10751 71.6628L4.1359 71.5669L4.16434 71.4711L4.19278 71.3753L4.22148 71.2796L4.23614 71.2335L4.25846 71.1603L4.28728 71.0646L4.31626 70.9689L4.34525 70.8733L4.37057 70.7909L4.38278 70.7541L4.41206 70.6586L4.4414 70.563L4.47083 70.4675L4.50038 70.372L4.51565 70.3256L4.53852 70.2531L4.56829 70.1577L4.59818 70.0623L4.62805 69.9669L4.65434 69.8844L4.66682 69.8482L4.69697 69.7529L4.72717 69.6576L4.75759 69.5624L4.78801 69.4672L4.80389 69.4205L4.82735 69.3487L4.85804 69.2536L4.8888 69.1585L4.91963 69.0634L4.94683 68.9806L4.95956 68.945L4.99059 68.85L5.02174 68.7551L5.05305 68.6602L5.08435 68.5653L5.10085 68.5182L5.12491 68.4471L5.15649 68.3523L5.18809 68.2575L5.21991 68.1628L5.24804 68.0798L5.26095 68.0448L5.29288 67.9501L5.32501 67.8554L5.35717 67.7608L5.38939 67.6662L5.40652 67.6188L5.43112 67.5485L5.46359 67.454L5.49612 67.3595L5.52885 67.2651L5.5579 67.1819L5.571 67.1475L5.6039 67.0531L5.6369 66.9588L5.66992 66.8645L5.70312 66.7702L5.72088 66.7225L5.74597 66.6529L5.7793 66.5587L5.81281 66.4646L5.84639 66.3704L5.87638 66.2871L5.88968 66.2533L5.92352 66.1593L5.9574 66.0653L5.99131 65.9713L6.02544 65.8773L6.04384 65.8293L6.06941 65.7604L6.10368 65.6665L6.13809 65.5727L6.17251 65.4789L6.20353 65.3954L6.21704 65.3622L6.25173 65.2685L6.28648 65.1748L6.32137 65.0812L6.35633 64.9876L6.37536 64.9393L6.40144 64.8711L6.43665 64.7776L6.47194 64.6841L6.50722 64.5906L6.53924 64.5069L6.55296 64.4744L6.58851 64.381L6.62414 64.2876L6.65996 64.1943L6.69578 64.1011L6.71546 64.0526L6.74206 63.9851L6.77815 63.8919L6.81429 63.7987L6.85056 63.7056L6.8835 63.6218L6.89738 63.5898L6.9338 63.4968L6.97036 63.4038L7.00704 63.3109L7.04374 63.2179L7.06408 63.1691L7.09122 63.1024L7.12817 63.0096L7.16514 62.9167L7.20235 62.824L7.23627 62.74L7.25029 62.7087L7.2876 62.616L7.32509 62.5234L7.3626 62.4308L7.40021 62.3382L7.42122 62.2892L7.44883 62.2231L7.48664 62.1307L7.52455 62.0382L7.56261 61.9458L7.59748 61.8617L7.61163 61.831L7.6499 61.7387L7.68825 61.6464L7.72659 61.5541L7.76516 61.462L7.78683 61.4127L7.81484 61.3474L7.85352 61.2553L7.8924 61.1632L7.93128 61.0712L7.96714 60.987L7.98144 60.9568L8.0206 60.8649L8.0598 60.773L8.09907 60.6811L8.1385 60.5893L8.16084 60.5398L8.18929 60.4753L8.22887 60.3835L8.2686 60.2919L8.30833 60.2002L8.34523 60.1159L8.35969 60.0864L8.39968 59.9948L8.43971 59.9033L8.47993 59.8118L8.52017 59.7204L8.54319 59.6706L8.57208 59.6068L8.61258 59.5155L8.65316 59.4242L8.69375 59.3329L8.73166 59.2485L8.74626 59.2196L8.7871 59.1284L8.828 59.0372L8.8691 58.9462L8.9102 58.8551L8.93389 58.8052L8.96325 58.7421L9.00462 58.6511L9.04601 58.5602L9.08755 58.4694L9.12642 58.3849L9.14111 58.3566L9.18279 58.2658L9.22463 58.1751L9.26656 58.0844L9.3085 57.9937L9.3329 57.9436L9.3627 57.8813L9.4049 57.7907L9.44712 57.7002L9.48959 57.6097L9.52945 57.5252L9.54421 57.4975L9.58678 57.4071L9.6295 57.3168L9.67224 57.2265L9.71511 57.1362L9.7402 57.0859L9.77039 57.0243L9.81343 56.9342L9.85657 56.8441L9.89984 56.754L9.94069 56.6694L9.95556 56.6423L9.99903 56.5523L10.0426 56.4624L10.0861 56.3726L10.1299 56.2827L10.1557 56.2322L10.1863 56.1713L10.2301 56.0816L10.2742 55.9919L10.3183 55.9023L10.3601 55.8176L10.3751 55.7911L10.4194 55.7016L10.4638 55.6121L10.5083 55.5227L10.5529 55.4333L10.5794 55.3826L10.6103 55.3224L10.6551 55.2332L10.7 55.1439L10.7449 55.0547L10.7878 54.97L10.8028 54.9441L10.848 54.855L10.8932 54.7659L10.9386 54.6769L10.984 54.588L11.0111 54.5371L11.0424 54.4777L11.0881 54.3888L11.1338 54.3L11.1796 54.2112L11.2235 54.1266L11.2386 54.1012L11.2846 54.0126L11.3306 53.9239L11.3769 53.8354L11.4231 53.7469L11.451 53.6958L11.4827 53.6372L11.5292 53.5487L11.5757 53.4604L11.6224 53.372L11.6673 53.2874L11.6825 53.2627L11.7293 53.1744L11.7762 53.0862L11.8232 52.9981L11.8703 52.91L11.8989 52.8588L11.931 52.801L11.9783 52.713L12.0256 52.625L12.0732 52.5372L12.1191 52.4525L12.1343 52.4284L12.182 52.3406L12.2298 52.2529L12.2776 52.1652L12.3255 52.0776L12.3549 52.0262L12.3873 51.9691L12.4354 51.8816L12.4836 51.7941L12.5319 51.7067L12.5789 51.622L12.5941 51.5985L12.6426 51.5112L12.6913 51.424L12.7399 51.3367L12.7887 51.2496L12.8188 51.1981L12.8515 51.1417L12.9004 51.0546L12.9495 50.9677L12.9986 50.8807L13.0466 50.796L13.0618 50.7731L13.1112 50.6863L13.1606 50.5995L13.2101 50.5128L13.2597 50.4261L13.2905 50.3745L13.3235 50.3189L13.3733 50.2322L13.4232 50.1458L13.4732 50.0593L13.5222 49.9746L13.5375 49.9523L13.5877 49.866L13.6379 49.7796L13.6882 49.6934L13.7386 49.6072L13.7702 49.5554L13.8035 49.5005L13.8541 49.4145L13.9048 49.3284L13.9555 49.2424L14.0057 49.1578L14.0209 49.1361L14.0719 49.0502L14.1229 48.9644L14.1741 48.8786L14.2253 48.7929L14.2576 48.741L14.2912 48.6869L14.3427 48.6013L14.3941 48.5158L14.4457 48.4303L14.4969 48.3458L14.5122 48.3246L14.5639 48.2392L14.6158 48.1539L14.6677 48.0686L14.7197 47.9834L14.7528 47.9314L14.7867 47.8781L14.839 47.793L14.8912 47.7079L14.9437 47.6229L14.9959 47.5385L15.0111 47.5179L15.0636 47.433L15.1164 47.3482L15.1691 47.2634L15.2219 47.1786L15.2557 47.1266L15.2899 47.074L15.3429 46.9894L15.396 46.9049L15.4492 46.8204L15.5025 46.736L15.5177 46.716L15.5711 46.6316L15.6246 46.5473L15.6781 46.463L15.7317 46.3788L15.7663 46.3267L15.8008 46.2749L15.8545 46.1908L15.9085 46.1067L15.9625 46.0227L16.0165 45.9388L16.0321 45.9188L16.0861 45.8352L16.1404 45.7514L16.1947 45.6676L16.2491 45.584L16.2845 45.5318L16.3192 45.4807L16.3737 45.3971L16.4285 45.3136L16.4833 45.2301L16.5381 45.1467L16.5542 45.1264L16.6087 45.0438L16.6637 44.9605L16.7189 44.8773L16.7741 44.7941L16.8102 44.7418L16.8451 44.6915L16.9005 44.6085L16.956 44.5255L17.0116 44.4425L17.0672 44.3596L17.0838 44.3391L17.1388 44.2575L17.1946 44.1747L17.2506 44.092L17.3066 44.0093L17.3434 43.957L17.3785 43.9074L17.4348 43.825L17.491 43.7425L17.5474 43.66L17.6038 43.5777L17.6208 43.557L17.6764 43.4762L17.733 43.394L17.7897 43.3118L17.8465 43.2297L17.8841 43.1774L17.9195 43.1286L17.9765 43.0466L18.0335 42.9647L18.0906 42.8828L18.1479 42.801L18.1654 42.78L18.2213 42.7002L18.2788 42.6186L18.3362 42.5369L18.3937 42.4553L18.4322 42.403L18.4678 42.3549L18.5255 42.2735L18.5833 42.1921L18.6412 42.1108L18.6992 42.0295L18.7172 42.0083L18.7737 41.9295L18.8319 41.8484L18.8901 41.7673L18.9484 41.6863L18.9876 41.6339L19.0234 41.5866L19.0818 41.5057L19.1404 41.4249L19.1991 41.3441L19.2578 41.2634L19.2764 41.242L19.3333 41.1641L19.3923 41.0836L19.4513 41.003L19.5104 40.9226L19.5503 40.8702L19.5863 40.8237L19.6455 40.7433L19.7049 40.6631L19.7643 40.5829L19.8238 40.5027L19.8428 40.4811L19.9003 40.4042L19.9599 40.3242L20.0196 40.2442L20.0795 40.1643L20.1203 40.1119L20.1564 40.0661L20.2164 39.9863L20.2765 39.9067L20.3367 39.827L20.3969 39.7475L20.4164 39.7257L20.4744 39.6497L20.5348 39.5702L20.5953 39.4909L20.6559 39.4116L20.6974 39.3591L20.7336 39.3141L20.7945 39.235L20.8553 39.1558L20.9162 39.0768L20.9772 38.9978L20.9973 38.9758L21.0556 38.9008L21.1167 38.8219L21.178 38.7431L21.2393 38.6644L21.2816 38.612L21.318 38.5677L21.3796 38.4891L21.4412 38.4106L21.5028 38.3321L21.5646 38.2537L21.5852 38.2316L21.6439 38.1574L21.7058 38.0792L21.7678 38.001L21.8298 37.9228L21.873 37.8704L21.9095 37.8269L21.9718 37.7489L22.0341 37.671L22.0965 37.5931L22.159 37.5153L22.1801 37.493L22.2392 37.4198L22.3019 37.3422L22.3646 37.2646L22.4273 37.187L22.4713 37.1346L22.508 37.0919L22.571 37.0145L22.634 36.9371L22.6972 36.8599L22.7604 36.7826L22.782 36.7602L22.8415 36.688L22.9049 36.6109L22.9683 36.5339L23.0318 36.4569L23.0766 36.4046L23.1134 36.3627L23.1771 36.2858L23.2409 36.2091L23.3048 36.1324L23.3687 36.0558L23.3908 36.0331L23.4507 35.9619L23.5148 35.8855L23.5789 35.809L23.6432 35.7327L23.6888 35.6804L23.7257 35.6392L23.7901 35.563L23.8546 35.4869L23.9192 35.4108L23.9838 35.3348L24.0065 35.312L24.0668 35.2418L24.1316 35.1659L24.1964 35.0901L24.2615 35.0144L24.3078 34.9622L24.3448 34.9217L24.4099 34.8461L24.4752 34.7706L24.5404 34.6951L24.6058 34.6198L24.629 34.5968L24.6897 34.5275L24.7552 34.4523L24.8208 34.3771L24.8865 34.302L24.9336 34.2499L24.9707 34.2101L25.0365 34.1352L25.1025 34.0603L25.1684 33.9854L25.2345 33.9107L25.2583 33.8876L25.3192 33.8193L25.3854 33.7447L25.4518 33.6701L25.5182 33.5956L25.5661 33.5436L25.6032 33.5046L25.6698 33.4303L25.7364 33.3561L25.8031 33.2818L25.8699 33.2077L25.8943 33.1845L25.9555 33.1171L26.0224 33.0431L26.0895 32.9693L26.1565 32.8954L26.2053 32.8435L26.2425 32.8052L26.3098 32.7315L26.3771 32.6579L26.4445 32.5843L26.5119 32.5109L26.5368 32.4875L26.5984 32.4211L26.666 32.3478L26.7338 32.2745L26.8015 32.2013L26.8511 32.1495L26.8884 32.112L26.9563 32.0389L27.0243 31.9659L27.0924 31.893L27.1605 31.8202L27.186 31.7967L27.2478 31.7313L27.3162 31.6586L27.3846 31.586L27.453 31.5134L27.5034 31.4617L27.5408 31.425L27.6094 31.3526L27.678 31.2802L27.7468 31.208L27.8156 31.1357L27.8416 31.1122L27.9038 31.0477L27.9728 30.9757L28.0419 30.9037L28.111 30.8318L28.1622 30.7802L28.1996 30.7442L28.2689 30.6724L28.3383 30.6008L28.4077 30.5292L28.4772 30.4576L28.5037 30.434L28.5662 30.3705L28.6359 30.2991L28.7056 30.2278L28.7754 30.1566L28.8275 30.1051L28.8649 30.0698L28.9348 29.9987L29.0049 29.9277L29.0749 29.8568L29.1451 29.7859L29.1722 29.7622L29.235 29.6996L29.3053 29.6289L29.3757 29.5583L29.4462 29.4877L29.499 29.4364L29.5364 29.4018L29.607 29.3314L29.6778 29.2611L29.7485 29.1908L29.8194 29.1206L29.8471 29.0968L29.9101 29.0352L29.981 28.9652L30.0521 28.8952L30.1233 28.8253L30.1769 28.7741L30.2143 28.7403L30.2856 28.6706L30.357 28.601L30.4283 28.5313L30.4999 28.4618L30.5282 28.438L30.5914 28.3773L30.663 28.3079L30.7348 28.2387L30.8065 28.1695L30.861 28.1184L30.8984 28.0853L30.9704 28.0163L31.0424 27.9473L31.1144 27.8784L31.1866 27.8096L31.2154 27.7857L31.2789 27.726L31.3512 27.6573L31.4236 27.5887L31.496 27.5202L31.5513 27.4693L31.5887 27.437L31.6613 27.3686L31.7339 27.3003L31.8066 27.2321L31.8794 27.164L31.9089 27.14L31.9725 27.0813L32.0455 27.0133L32.1185 26.9454L32.1915 26.8775L32.2477 26.8269L32.285 26.7953L32.3582 26.7276L32.4315 26.66L32.5049 26.5924L32.5783 26.525L32.6083 26.501L32.6722 26.4432L32.7458 26.376L32.8194 26.3087L32.8931 26.2416L32.9501 26.1912L32.9874 26.1602L33.0612 26.0933L33.1352 26.0264L33.2091 25.9595L33.2832 25.8928L33.3138 25.8687L33.3779 25.8119L33.4521 25.7454L33.5263 25.6788L33.6007 25.6124L33.6585 25.5622L33.6958 25.532L33.7702 25.4657L33.8448 25.3995L33.9194 25.3334L33.994 25.2673L34.0252 25.2433L34.0895 25.1875L34.1643 25.1216L34.2392 25.0557L34.3142 24.99L34.3728 24.94L34.41 24.9106L34.485 24.845L34.5603 24.7795L34.6355 24.7141L34.7107 24.6487L34.7426 24.6247L34.807 24.5698L34.8824 24.5046L34.9579 24.4395L35.0335 24.3745L35.0929 24.3248L35.1301 24.296L35.2058 24.2312L35.2816 24.1664L35.3573 24.1017L35.4333 24.0371L35.4657 24.013L35.5303 23.9591L35.6063 23.8946L35.6824 23.8303L35.7586 23.766L35.8188 23.7164L35.8559 23.6884L35.9323 23.6243L36.0086 23.5602L36.085 23.4962L36.1615 23.4324L36.1946 23.4083L36.2593 23.3553L36.3359 23.2916L36.4126 23.228L36.4894 23.1644L36.5505 23.1151L36.5875 23.0878L36.6644 23.0244L36.7414 22.9611L36.8184 22.8978L36.8955 22.8347L36.9291 22.8106L36.994 22.7586L37.0712 22.6956L37.1485 22.6327L37.2259 22.5698L37.2878 22.5208L37.3247 22.4942L37.4022 22.4316L37.4797 22.3689L37.5574 22.3064L37.6351 22.244L37.6693 22.22L37.7342 22.1689L37.8121 22.1067L37.89 22.0445L37.9679 21.9824L38.0307 21.9337L38.0675 21.9078L38.1455 21.8458L38.2236 21.784L38.3019 21.7222L38.3801 21.6605L38.415 21.6365L38.4801 21.5864L38.5585 21.5249L38.6369 21.4635L38.7154 21.4021L38.7791 21.3537L38.8157 21.3285L38.8944 21.2673L38.9731 21.2062L39.0519 21.1452L39.1307 21.0842L39.1662 21.0603L39.2314 21.0111L39.3104 20.9503L39.3893 20.8896L39.4684 20.829L39.5329 20.7809L39.5694 20.7564L39.6486 20.6959L39.7279 20.6356L39.8073 20.5753L39.8867 20.5151L39.9228 20.4912L39.9881 20.443L40.0676 20.383L40.1471 20.323L40.2268 20.2632L40.2921 20.2154L40.3285 20.1915L40.4083 20.1318L40.4881 20.0723L40.568 20.0128L40.648 19.9533L40.6847 19.9295L40.7501 19.8822L40.8302 19.8229L40.9103 19.7638L40.9905 19.7047L41.0566 19.6572L41.0929 19.634L41.1732 19.5751L41.2536 19.5163L41.3341 19.4575L41.4146 19.3989L41.4519 19.3751L41.5173 19.3288L41.598 19.2702L41.6787 19.2119L41.7594 19.1536L41.8263 19.1064L41.8624 19.0838L41.9434 19.0258L42.0243 18.9677L42.1053 18.9097L42.1864 18.8518L42.2243 18.8281L42.2898 18.7827L42.3709 18.725L42.4522 18.6674L42.5335 18.6098L42.6012 18.563L42.6372 18.5411L42.7187 18.4838L42.8001 18.4265L42.8816 18.3693L42.9633 18.3122L43.0018 18.2886L43.0673 18.2441L43.149 18.1872L43.2308 18.1304L43.3127 18.0735L43.3812 18.0271L43.417 18.0059L43.499 17.9494L43.581 17.8928L43.6631 17.8364L43.7452 17.7801L43.7844 17.7566L43.8499 17.713L43.9322 17.6569L44.0145 17.6008L44.0968 17.5448L44.1663 17.4988L44.2019 17.4783L44.2844 17.4224L44.3669 17.3667L44.4495 17.3111L44.5322 17.2555L44.572 17.2321L44.6375 17.1895L44.7203 17.1341L44.8031 17.0789L44.886 17.0236L44.9562 16.978L44.9917 16.9581L45.0746 16.9031L45.1577 16.8482L45.2408 16.7933L45.324 16.7385L45.3644 16.7153L45.43 16.6736L45.5133 16.619L45.5966 16.5645L45.68 16.5101L45.7511 16.4648L45.7863 16.4456L45.8698 16.3913L45.9534 16.3372L46.037 16.2832L46.1207 16.2292L46.1617 16.2061L46.2273 16.1653L46.3111 16.1115L46.3949 16.0578L46.4789 16.0042L46.5507 15.9593L46.5858 15.9408L46.6698 15.8873L46.7539 15.834L46.838 15.7808L46.9221 15.7276L46.9638 15.7046L47.0294 15.6648L47.1137 15.6117L47.198 15.5588L47.2825 15.5061L47.3551 15.4616L47.3899 15.4436L47.4744 15.391L47.559 15.3385L47.6436 15.286L47.7283 15.2337L47.7706 15.2108L47.8362 15.1719L47.9209 15.1197L48.0058 15.0676L48.0907 15.0157L48.1641 14.9716L48.1987 14.9543L48.2838 14.9025L48.3688 14.8508L48.4539 14.7991L48.5391 14.7476L48.582 14.7249L48.6475 14.6869L48.7328 14.6355L48.8181 14.5842L48.9035 14.5331L48.9778 14.4894L49.0121 14.4727L49.0976 14.4218L49.1832 14.3709L49.2687 14.32L49.3544 14.2694L49.398 14.2468L49.4634 14.2096L49.5491 14.1591L49.635 14.1087L49.7208 14.0583L49.7959 14.0151L49.83 13.9991L49.916 13.949L50.002 13.8988L50.0881 13.8489L50.1742 13.799L50.2184 13.7766L50.2837 13.7403L50.37 13.6907L50.4562 13.641L50.5425 13.5914L50.6185 13.5488L50.6523 13.5334L50.7388 13.484L50.8252 13.4347L50.9118 13.3856L50.9983 13.3365L51.0432 13.3143L51.1084 13.279L51.1951 13.2301L51.2818 13.1813L51.3686 13.1326L51.4454 13.0904L51.479 13.0756L51.5658 13.0271L51.6528 12.9786L51.7398 12.9303L51.8268 12.882L51.8723 12.86L51.9375 12.8256L52.0246 12.7776L52.1118 12.7296L52.199 12.6817L52.2766 12.6399L52.3099 12.6258L52.3972 12.5781L52.4846 12.5305L52.572 12.483L52.6595 12.4355L52.7056 12.4137L52.7707 12.3803L52.8583 12.333L52.9459 12.2859L53.0336 12.2389L53.112 12.1975L53.145 12.184L53.2328 12.1371L53.3206 12.0904L53.4085 12.0438L53.4964 11.9971L53.5432 11.9755L53.6081 11.943L53.6961 11.8966L53.7842 11.8502L53.8723 11.8041L53.9516 11.7632L53.9843 11.7503L54.0725 11.7043L54.1607 11.6584L54.249 11.6126L54.3374 11.5668L54.3848 11.5454L54.4496 11.5137L54.5381 11.4681L54.6266 11.4227L54.7151 11.3774L54.7951 11.337L54.8276 11.3247L54.9162 11.2796L55.0049 11.2345L55.0936 11.1895L55.1824 11.1447L55.2304 11.1235L55.2951 11.0927L55.3839 11.0479L55.4729 11.0033L55.5618 10.9588L55.6427 10.919L55.6748 10.9073L55.7639 10.863L55.853 10.8188L55.9421 10.7746L56.0313 10.7307L56.08 10.7097L56.1445 10.6798L56.2338 10.6359L56.3231 10.5922L56.4125 10.5485L56.4942 10.5093L56.5259 10.4981L56.6154 10.4547L56.7049 10.4113L56.7944 10.368L56.884 10.3249L56.9334 10.3041L56.9977 10.275L57.0874 10.2321L57.1772 10.1892L57.2669 10.1463L57.3494 10.1077L57.3809 10.0972L57.4708 10.0546L57.5606 10.012L57.6506 9.96963L57.7406 9.9273L57.7906 9.90684L57.8548 9.87861L57.9449 9.83655L58.035 9.79451L58.1251 9.75252L58.2084 9.71446L58.2396 9.70447L58.3298 9.66268L58.4201 9.62104L58.5105 9.57952L58.6008 9.53801L58.6514 9.51786L58.7155 9.49053L58.806 9.44929L58.8965 9.40809L58.987 9.36702L59.0711 9.3295L59.1019 9.32007L59.1925 9.27914L59.2832 9.23839L59.3739 9.19772L59.4647 9.15705L59.5159 9.13719L59.5798 9.11076L59.6706 9.07036L59.7615 9.03002L59.8525 8.98985L59.9373 8.95288L59.9678 8.94401L60.0588 8.90395L60.1498 8.86409L60.2409 8.82427L60.3321 8.78449L60.3839 8.76492L60.4476 8.73934L60.5388 8.69978L60.6301 8.66035L60.7214 8.62105L60.807 8.58464L60.8371 8.57631L60.9285 8.53718L61.02 8.49816L61.1114 8.4592L61.2029 8.42035L61.2554 8.40105L61.3189 8.3763L61.4105 8.3376L61.5021 8.29908L61.5938 8.26064L61.6801 8.22482L61.7099 8.21703L61.8017 8.17883L61.8935 8.14065L61.9853 8.10253L62.0771 8.06462L62.1302 8.04561L62.1935 8.02169L62.2854 7.98387L62.3775 7.94624L62.4695 7.90866L62.5566 7.87349L62.586 7.86621L62.6781 7.8289L62.7703 7.79159L62.8624 7.75437L62.9547 7.71733L63.0083 7.69864L63.0714 7.67553L63.1637 7.63865L63.256 7.60187L63.3484 7.56515L63.4363 7.53066L63.4654 7.52389L63.5578 7.48745L63.6503 7.45099L63.7428 7.4147L63.8354 7.37853L63.8897 7.36017L63.9525 7.33785L64.0452 7.30191L64.1378 7.266L64.2305 7.23013L64.3192 7.19633L64.3478 7.19009L64.4407 7.15449L64.5334 7.11893L64.6263 7.08356L64.7192 7.04825L64.7741 7.03022L64.8367 7.00873L64.9297 6.97368L65.0227 6.93864L65.1157 6.90369L65.2052 6.87054L65.2334 6.86481L65.3265 6.83007L65.4197 6.79546L65.5129 6.76094L65.6061 6.72648L65.6616 6.70884L65.724 6.68819L65.8173 6.65401L65.9106 6.61985L66.0039 6.58581L66.0941 6.5533L66.122 6.54808L66.2154 6.51419L66.3089 6.48053L66.4024 6.4469L66.4959 6.41329L66.5521 6.39604L66.6142 6.37624L66.7078 6.34291L66.8014 6.30963L66.895 6.27655L66.986 6.24466L67.0135 6.23995L67.1072 6.20696L67.201 6.1742L67.2947 6.14145L67.3885 6.10876L67.4454 6.09186L67.5072 6.07288L67.6011 6.0404L67.695 6.00807L67.789 5.97587L67.8807 5.94462L67.9078 5.94041L68.0018 5.90838L68.0959 5.87646L68.19 5.8446L68.2841 5.81287L68.3415 5.79632L68.403 5.77812L68.4972 5.74653L68.5915 5.71513L68.6858 5.6838L68.7782 5.65323L68.8048 5.64949L68.8992 5.61841L68.9935 5.58737L69.0879 5.55638L69.1823 5.5256L69.2403 5.50942L69.3016 5.49201L69.396 5.46132L69.4906 5.43084L69.5851 5.4004L69.6783 5.37056L69.7046 5.36727L69.7992 5.33711L69.8938 5.30695L69.9885 5.27691L70.0832 5.24702L70.1418 5.23121L70.2028 5.21454L70.2975 5.18482L70.3923 5.15521L70.4871 5.12566L70.581 5.0966L70.6068 5.09376L70.7017 5.06449L70.7966 5.03521L70.8915 5.00611L70.9865 4.97711L71.0458 4.96169L71.1064 4.9458L71.2014 4.91704L71.2965 4.8883L71.3916 4.85962L71.4862 4.83134L71.5116 4.82895L71.6068 4.80055L71.7019 4.77219L71.7971 4.744L71.8924 4.71589L71.9522 4.70092L72.0125 4.68576L72.1078 4.65793L72.2031 4.6301L72.2985 4.60235L72.3939 4.5748L72.4188 4.57285L72.5142 4.54533L72.6096 4.51793L72.7051 4.49065L72.8006 4.4634L72.861 4.44888L72.921 4.43451L73.0166 4.40756L73.1121 4.38062L73.2077 4.35382L73.3034 4.32716L73.3287 4.32535L73.424 4.29884L73.5196 4.27242L73.6153 4.24603L73.711 4.21966L73.7721 4.2056L73.8318 4.19202L73.9276 4.16593L74.0234 4.13989L74.1192 4.11406L74.2151 4.08826L74.241 4.08659L74.3359 4.06116L74.4319 4.03563L74.5278 4.01015L74.6238 3.98472L74.6854 3.97111L74.7447 3.95827L74.8408 3.93306L74.9368 3.90799L75.0329 3.88306L75.129 3.85813L75.1553 3.85659L75.2501 3.83229L75.3462 3.80765L75.4424 3.78306L75.5386 3.7586L75.6008 3.74541L75.6598 3.7333L75.756 3.70899L75.8523 3.68488L75.9486 3.66084L76.0449 3.6368L76.0717 3.63539L76.1662 3.6122L76.2626 3.58844L76.359 3.56475L76.4554 3.54127L76.5182 3.5285L76.5769 3.51712L76.6733 3.49373L76.7698 3.47054L76.8663 3.44741L76.9628 3.42433L76.9902 3.42303L77.0844 3.4009L77.181 3.37804L77.2775 3.3553L77.3742 3.33273L77.4376 3.32041L77.4958 3.30974L77.5925 3.28733L77.6892 3.26503L77.7859 3.24278L77.8827 3.22067L77.9105 3.21951L78.0044 3.1984L78.1012 3.17645L78.198 3.15465L78.2948 3.13298L78.3588 3.12114L78.4167 3.11115L78.5135 3.08972L78.6104 3.06833L78.7074 3.04695L78.8043 3.02582L78.8326 3.02483L78.9263 3.00471L79.0232 2.98367L79.1203 2.96283L79.2173 2.94206L79.2818 2.93072L79.3393 2.92142L79.4364 2.90093L79.5335 2.88043L79.6306 2.86001L79.7277 2.8398L79.7564 2.83898L79.8499 2.81984L79.947 2.79979L80.0442 2.77986L80.1414 2.75995L80.2065 2.74916L80.2636 2.74059L80.3609 2.72096L80.4581 2.70139L80.5554 2.68195L80.6527 2.66262L80.6819 2.66198L80.775 2.64385L80.8724 2.62475L80.9697 2.60573L81.0671 2.58672L81.1328 2.57645L81.1895 2.56861L81.2869 2.54988L81.3843 2.5312L81.4818 2.51275L81.5793 2.4943L81.609 2.49385L81.7017 2.47675L81.7992 2.45859L81.8968 2.44048L81.9943 2.42243L82.0606 2.41265L82.1169 2.4055L82.2144 2.38769L82.312 2.36995L82.4097 2.35242L82.5073 2.33489L82.5375 2.3346L82.6299 2.31857L82.7276 2.30132L82.8253 2.28409L82.923 2.26704L82.9898 2.25778L83.0457 2.25126L83.1434 2.23437L83.2412 2.21763L83.339 2.20097L83.4367 2.18437L83.4674 2.1843L83.5595 2.16928L83.6573 2.15295L83.7551 2.13663L83.853 2.12054L83.9204 2.11182L83.9758 2.10596L84.0737 2.08997L84.1716 2.07421L84.2696 2.05846L84.3675 2.04278L84.3986 2.04294L84.4904 2.02892L84.5883 2.0135L84.6863 1.99815L84.7843 1.98297L84.8522 1.97479L84.9072 1.96959L85.0052 1.95456L85.1033 1.93972L85.2014 1.92489L85.2994 1.91016L85.331 1.91055L85.4224 1.8975L85.5205 1.88296L85.6186 1.86862L85.7168 1.85436L85.7852 1.84669L85.8398 1.84214L85.938 1.82811L86.0361 1.81415L86.1343 1.80024L86.2325 1.78652L86.2645 1.78711L86.3556 1.77503L86.4538 1.76141L86.5521 1.74802L86.6503 1.73469L86.7193 1.72759L86.7735 1.72365L86.8717 1.71061L86.97 1.69756L87.0683 1.68459L87.1666 1.67182L87.1991 1.67265L87.2898 1.66151L87.3881 1.64888L87.4865 1.6364L87.5848 1.62397L87.6543 1.6175L87.7081 1.6142L87.8065 1.60206L87.9048 1.58995L88.0033 1.57793L88.1017 1.56609L88.1346 1.56718L88.2249 1.55695L88.3233 1.54531L88.4218 1.53376L88.5203 1.52222L88.5903 1.51637L88.6436 1.51373L88.7421 1.50248L88.8405 1.49129L88.939 1.48028L89.0376 1.46932L89.071 1.47068L89.1609 1.46139L89.2594 1.45072L89.358 1.4401L89.4565 1.42949L89.527 1.42423L89.5799 1.42224L89.6785 1.41191L89.777 1.40165L89.8756 1.3916L89.9742 1.38156L90.0081 1.38318L90.0976 1.37488L90.1962 1.36512L90.2949 1.35542L90.3935 1.34581L90.4645 1.34112L90.5169 1.33974L90.6155 1.33034L90.7142 1.32103L90.8129 1.31191L90.9116 1.3028L90.9459 1.30466L91.035 1.29736L91.1337 1.28854L91.2324 1.27972L91.3311 1.2711L91.4027 1.26703L91.4546 1.26621L91.5533 1.25774L91.652 1.24944L91.7508 1.24121L91.8495 1.23302L91.8843 1.23519L91.973 1.22883L92.0717 1.22093L92.1705 1.21304L92.2693 1.20539L92.3414 1.20193L92.3928 1.20169L92.4916 1.19415L92.5904 1.18682L92.6892 1.1795L92.788 1.17228L92.8232 1.17475L92.9115 1.16929L93.0103 1.16232L93.1091 1.15541L93.208 1.14867L93.2805 1.14584L93.3314 1.14619L93.4303 1.1396L93.5292 1.1332L93.628 1.12681L93.7269 1.12054L93.7625 1.12333L93.8503 1.11878L93.9492 1.1127L94.0481 1.10679L94.147 1.10098L94.22 1.09875L94.2705 1.09967L94.3693 1.09407L94.4682 1.08858L94.5672 1.08312L94.6661 1.07783L94.7022 1.08091L94.7896 1.07726L94.8885 1.07209L94.9874 1.06716L95.0863 1.06227L95.1598 1.06066L95.2098 1.06215L95.3087 1.05755L95.4076 1.05295L95.5066 1.04844L95.6055 1.04413L95.6421 1.04749L95.729 1.04473L95.8279 1.04053L95.9269 1.03652L96.0258 1.03256L96.0998 1.03165L96.1493 1.03367L96.2483 1.03001L96.3472 1.02634L96.4462 1.02278L96.5452 1.0194L96.5821 1.02311L96.6686 1.02119L96.7676 1.01798L96.8665 1.01489L96.9655 1.01184L97.0399 1.01163L97.0889 1.01421L97.1879 1.01145L97.2868 1.00872L97.3858 1.00613L97.4848 1.00367L97.5222 1.00771L97.6082 1.00664L97.7072 1.00442L97.8061 1.00226L97.9051 1.0001L97.98 1.0006L98.0285 1.00375L98.1274 1.00189L98.2264 1.00008L98.3254 0.998486L98.4244 0.996918L98.4623 1.00131L98.5477 1.00111L98.6467 0.999834L98.7457 0.998607L98.8447 0.997404L98.9201 0.998562L98.968 1.00226L99.0669 1.00132L99.1659 1.00046L99.2649 0.99981L99.3639 0.999157L99.4022 1.00389L99.4871 1.00459L99.5861 1.00422L99.6851 1.00392L99.7841 1.0037L99.86 1.00551L99.9073 1.00973L100.006 1.00973L100.105 1.00982L100.204 1.01009L100.303 1.01037L100.342 1.01544L100.426 1.01704L100.525 1.0176L100.624 1.01818L100.723 1.01895L100.8 1.02146L100.846 1.02616L100.945 1.02708L101.044 1.02816L101.143 1.02933L101.242 1.03054L101.281 1.03599L101.365 1.03843L101.464 1.03993L101.563 1.04142L101.662 1.04316L101.739 1.04636L101.785 1.05154L101.884 1.05339L101.983 1.05544L102.082 1.05751L102.181 1.05966L102.221 1.06549L102.304 1.06876L102.403 1.07119L102.502 1.07364L102.601 1.07629L102.678 1.08021L102.724 1.08589L102.822 1.08866L102.921 1.09166L103.02 1.09465L103.119 1.09774L103.159 1.10397L103.242 1.10805L103.341 1.11137L103.44 1.1148L103.539 1.11837L103.616 1.12298L103.661 1.12915L103.76 1.13288L103.859 1.13679L103.958 1.14071L104.057 1.14474L104.097 1.15136L104.18 1.15625L104.278 1.16046L104.377 1.16487L104.476 1.16936L104.554 1.17466L104.599 1.18131L104.697 1.18601L104.796 1.19081L104.895 1.19566L104.994 1.20067L105.035 1.20765L105.116 1.21334L105.215 1.21848L105.314 1.22382L105.413 1.22924L105.491 1.23526L105.535 1.24235L105.634 1.24803L105.733 1.25373L105.831 1.25949L105.93 1.26546L105.971 1.27284L106.053 1.27931L106.151 1.28536L106.25 1.29164L106.349 1.29798L106.428 1.30475L106.471 1.31228L106.57 1.31891L106.668 1.32553L106.767 1.33221L106.866 1.33912L106.907 1.34691L106.988 1.35412L107.086 1.36115L107.185 1.36835L107.284 1.37558L107.363 1.38313L107.406 1.39111L107.504 1.39863L107.603 1.40618L107.702 1.4138L107.8 1.42162L107.842 1.42983L107.922 1.43779L108.021 1.44577L108.119 1.45389L108.218 1.46201L108.298 1.47033L108.34 1.47876L108.438 1.48715L108.537 1.4956Z" fill="white"/>
</svg>
