<svg width="200" height="200" viewBox="0 0 200 200" fill="none" xmlns="http://www.w3.org/2000/svg">
<path d="M83.2322 2.05321L83.2596 2.05871L83.2869 2.06421L83.3143 2.06977L83.3418 2.07554L83.3692 2.08132L83.3418 2.09535L83.3624 2.10231L83.3899 2.10836L83.4174 2.11449L83.445 2.12071L83.4726 2.12704L83.5002 2.13346L83.5278 2.13998L83.5555 2.14659L83.5312 2.16061L83.549 2.16871L83.5767 2.17555L83.6045 2.18253L83.6322 2.18952L83.66 2.19667L83.6878 2.20393L83.7157 2.21119L83.7436 2.21864L83.7224 2.23265L83.7374 2.24188L83.7654 2.24949L83.7933 2.25728L83.8213 2.26509L83.8493 2.27299L83.8773 2.28107L83.9053 2.28916L83.9334 2.29736L83.9154 2.31139L83.9276 2.32172L83.9558 2.33017L83.9839 2.33866L84.0121 2.34732L84.0403 2.35605L84.0685 2.36483L84.0968 2.37377L84.1251 2.38277L84.1101 2.39685L84.1196 2.40815L84.148 2.41743L84.1763 2.4267L84.2047 2.43612L84.2331 2.44566L84.2615 2.45521L84.29 2.46492L84.3184 2.47474L84.3066 2.48893L84.3133 2.50118L84.3418 2.51121L84.3704 2.5213L84.3989 2.53147L84.4275 2.54179L84.4561 2.55215L84.4848 2.5626L84.5134 2.5732L84.5048 2.58755L84.5086 2.60074L84.5373 2.61147L84.566 2.62236L84.5948 2.63335L84.6236 2.64436L84.6524 2.65553L84.6812 2.6668L84.71 2.67809L84.7046 2.69265L84.7056 2.70672L84.7345 2.71826L84.7634 2.72983L84.7923 2.74164L84.8213 2.75344L84.8503 2.76531L84.8793 2.77738L84.9083 2.78946L84.906 2.80423L84.9042 2.81905L84.9333 2.8314L84.9624 2.84375L84.9915 2.85626L85.0206 2.86888L85.0498 2.88149L85.079 2.89429L85.1082 2.90718L85.1091 2.92222L85.1044 2.93777L85.1337 2.95085L85.1629 2.964L85.1922 2.97724L85.2216 2.99061L85.2509 3.00402L85.2803 3.01752L85.3097 3.03117L85.3136 3.04657L85.3061 3.06282L85.3356 3.0766L85.365 3.09053L85.3945 3.10455L85.424 3.11859L85.4535 3.1328L85.483 3.14709L85.5126 3.1614L85.5198 3.1772L85.5094 3.1941L85.539 3.20867L85.5686 3.22326L85.5983 3.23807L85.6279 3.25291L85.6576 3.26778L85.6873 3.28285L85.7171 3.29796L85.7274 3.31412L85.7141 3.33156L85.7439 3.34693L85.7737 3.36229L85.8035 3.37776L85.8334 3.39339L85.8632 3.40903L85.8931 3.42477L85.923 3.44066L85.9365 3.45729L85.9204 3.47524L85.9503 3.49131L85.9803 3.50748L86.0102 3.52365L86.0402 3.54L86.0703 3.55643L86.1003 3.57285L86.1303 3.58948L86.147 3.60665L86.128 3.62508L86.1581 3.64185L86.1883 3.65875L86.2184 3.67571L86.2485 3.69273L86.2787 3.70991L86.3089 3.72712L86.3391 3.74439L86.3589 3.76213L86.3371 3.78101L86.3673 3.79853L86.3976 3.8161L86.4279 3.83383L86.4582 3.8516L86.4886 3.86943L86.5189 3.88743L86.5492 3.90546L86.5722 3.92371L86.5475 3.94297L86.5779 3.96124L86.6083 3.97959L86.6388 3.99796L86.6692 4.01649L86.6998 4.0351L86.7302 4.05375L86.7607 4.07254L86.7869 4.09144L86.7593 4.11104L86.7899 4.12996L86.8204 4.14906L86.851 4.1682L86.8816 4.18739L86.9123 4.20674L86.9429 4.22613L86.9736 4.2456L87.0029 4.2652L86.9725 4.28509L87.0032 4.30474L87.0339 4.32448L87.0646 4.34438L87.0955 4.36428L87.0637 4.44674L87.0321 4.52928L87.0004 4.61182L86.9687 4.69437L86.937 4.71598L86.9054 4.79711L86.8738 4.87973L86.8422 4.9624L86.8106 5.0451L86.779 5.1278L86.7474 5.21053L86.7159 5.29332L86.6844 5.3761L86.6528 5.40091L86.6214 5.47927L86.5899 5.56213L86.5584 5.64499L86.527 5.72793L86.4955 5.81087L86.4641 5.89382L86.4327 5.97682L86.4013 6.05984L86.37 6.08788L86.3386 6.16343L86.3073 6.24653L86.2759 6.32963L86.2446 6.41275L86.2134 6.49593L86.1821 6.57911L86.1508 6.6623L86.1196 6.74555L86.0884 6.77684L86.0572 6.84958L86.026 6.9329L85.9948 7.01624L85.9636 7.09957L85.9325 7.18296L85.9014 7.26637L85.8703 7.34978L85.8392 7.43323L85.8081 7.46775L85.777 7.53772L85.746 7.62123L85.715 7.70479L85.684 7.78836L85.6529 7.87193L85.622 7.95557L85.591 8.03922L85.5601 8.12286L85.5291 8.16061L85.4982 8.2278L85.4673 8.31152L85.4364 8.39528L85.4056 8.47908L85.3747 8.56288L85.3439 8.6467L85.3131 8.73058L85.2823 8.81445L85.2515 8.85538L85.2207 8.9198L85.19 9.00375L85.1592 9.0877L85.1285 9.17171L85.0978 9.25574L85.0671 9.33977L85.0365 9.42384L85.0058 9.50795L84.9752 9.5521L84.9446 9.61369L84.914 9.69787L84.8834 9.78205L84.8528 9.86624L84.8223 9.9505L84.7917 10.0348L84.7612 10.119L84.7307 10.2033L84.7002 10.2507L84.6698 10.3095L84.6393 10.3939L84.6089 10.4783L84.5785 10.5627L84.548 10.6471L84.5177 10.7316L84.4873 10.8161L84.4569 10.9006L84.4266 10.9512L84.3963 11.0072L84.366 11.0918L84.3357 11.1764L84.3055 11.261L84.2752 11.3457L84.245 11.4303L84.2148 11.515L84.1845 11.5997L84.1544 11.6535L84.1242 11.7068L84.0941 11.7916L84.0639 11.8763L84.0338 11.9612L84.0037 12.0461L83.9736 12.1309L83.9436 12.2158L83.9135 12.3008L83.8835 12.3578L83.8535 12.4082L83.8235 12.4932L83.7935 12.5782L83.7635 12.6632L83.7336 12.7483L83.7037 12.8334L83.6737 12.9184L83.6439 13.0036L83.614 13.0638L83.5841 13.1114L83.5543 13.1966L83.5245 13.2818L83.4946 13.3671L83.4648 13.4523L83.4351 13.5376L83.4053 13.6229L83.3756 13.7083L83.3459 13.7717L83.3162 13.8165L83.2865 13.9019L83.2568 13.9873L83.2272 14.0728L83.1975 14.1582L83.1679 14.2437L83.1383 14.3292L83.1087 14.4148L83.0791 14.4814L83.0496 14.5234L83.0201 14.609L82.9905 14.6946L82.9611 14.7803L82.9316 14.8659L82.9021 14.9516L82.8727 15.0373L82.8433 15.1231L82.8138 15.1929L82.7844 15.2321L82.7551 15.3179L82.7257 15.4037L82.6964 15.4896L82.6671 15.5754L82.6378 15.6613L82.6085 15.7472L82.5792 15.8332L82.55 15.9062L82.5207 15.9426L82.4915 16.0286L82.4623 16.1146L82.4331 16.2007L82.404 16.2867L82.3748 16.3728L82.3457 16.4589L82.3166 16.545L82.2875 16.6213L82.2584 16.6549L82.2294 16.7411L82.2004 16.8273L82.1713 16.9136L82.1423 16.9998L82.1133 17.0861L82.0844 17.1724L82.0554 17.2587L82.0265 17.3382L81.9976 17.369L81.9687 17.4554L81.9398 17.5418L81.911 17.6282L81.8821 17.7147L81.8533 17.8011L81.8245 17.8876L81.7957 17.9742L81.767 18.0568L81.7382 18.0848L81.7095 18.1714L81.6808 18.258L81.6521 18.3446L81.6234 18.4313L81.5948 18.518L81.5661 18.6046L81.5375 18.6914L81.5089 18.7772L81.4803 18.8024L81.4518 18.8892L81.4232 18.976L81.3947 19.0628L81.3662 19.1496L81.3377 19.2365L81.3092 19.3234L81.2808 19.4103L81.2523 19.4973L81.2239 19.5239L81.1955 19.6087L81.1671 19.6957L81.1388 19.7827L81.1104 19.8698L81.0821 19.9568L81.0538 20.0439L81.0255 20.131L80.9972 20.2181L80.969 20.248L80.9408 20.33L80.9126 20.4172L80.8844 20.5044L80.8562 20.5916L80.828 20.6789L80.7999 20.7662L80.7718 20.8535L80.7437 20.9408L80.7156 20.9738L80.6876 21.053L80.6595 21.1404L80.6315 21.2278L80.6035 21.3152L80.5755 21.4027L80.5475 21.4901L80.5196 21.5776L80.4917 21.6652L80.4637 21.7013L80.4359 21.7778L80.408 21.8653L80.3801 21.9529L80.3523 22.0405L80.3245 22.1282L80.2967 22.2158L80.2689 22.3035L80.2412 22.3912L80.2134 22.4306L80.1857 22.5042L80.158 22.592L80.1303 22.6798L80.1027 22.7676L80.075 22.8554L80.0474 22.9433L80.0198 23.0311L79.9922 23.119L79.9647 23.1616L79.9371 23.2324L79.9096 23.3203L79.8821 23.4083L79.8546 23.4963L79.8272 23.5843L79.7997 23.6724L79.7723 23.7605L79.7449 23.8485L79.7175 23.8943L79.6902 23.9623L79.6628 24.0504L79.6355 24.1386L79.6082 24.2268L79.5809 24.315L79.5536 24.4032L79.5264 24.4915L79.4991 24.5798L79.4719 24.6287L79.4447 24.6939L79.4176 24.7822L79.3904 24.8706L79.3633 24.959L79.3362 25.0474L79.3091 25.1358L79.282 25.2242L79.255 25.3127L79.228 25.3648L79.2009 25.4272L79.174 25.5157L79.147 25.6042L79.12 25.6928L79.0931 25.7814L79.0662 25.87L79.0393 25.9586L79.0125 26.0473L78.9856 26.1026L78.9588 26.1621L78.932 26.2509L78.9052 26.3396L78.8784 26.4284L78.8517 26.5171L78.825 26.6059L78.7983 26.6947L78.7716 26.7836L78.7449 26.8421L78.7183 26.8988L78.6917 26.9877L78.6651 27.0766L78.6385 27.1656L78.6119 27.2545L78.5854 27.3435L78.5589 27.4325L78.5324 27.5215L78.5059 27.5833L78.4795 27.6372L78.453 27.7263L78.4266 27.8153L78.4002 27.9045L78.3738 27.9936L78.3475 28.0828L78.3212 28.172L78.2949 28.2612L78.2686 28.3261L78.2423 28.3772L78.2161 28.4665L78.1898 28.5558L78.1636 28.6451L78.1375 28.7344L78.1113 28.8238L78.0851 28.9131L78.059 29.0025L78.0329 29.0707L78.0068 29.1189L77.9808 29.2083L77.9548 29.2978L77.9287 29.3873L77.9028 29.4768L77.8768 29.5664L77.8508 29.6559L77.8249 29.7455L77.799 29.8168L77.7731 29.8622L77.7472 29.9519L77.7214 30.0416L77.6956 30.1312L77.6698 30.2209L77.644 30.3107L77.6183 30.4004L77.5925 30.4902L77.5668 30.5647L77.5411 30.6073L77.5154 30.6971L77.4898 30.7869L77.4642 30.8768L77.4386 30.9667L77.413 31.0566L77.3875 31.1465L77.3619 31.2365L77.3364 31.3142L77.3109 31.354L77.2854 31.444L77.26 31.534L77.2346 31.624L77.2092 31.7141L77.1837 31.8042L77.1584 31.8943L77.1331 31.9844L77.1077 32.0653L77.0825 32.1023L77.0572 32.1925L77.0319 32.2827L77.0067 32.3729L76.9815 32.4632L76.9563 32.5534L76.9312 32.6437L76.906 32.7341L76.8809 32.8181L76.8558 32.8522L76.8308 32.9426L76.8057 33.033L76.7807 33.1234L76.7557 33.2139L76.7307 33.3043L76.7057 33.3948L76.6808 33.4853L76.6559 33.5726L76.631 33.6039L76.6061 33.6944L76.5813 33.785L76.5565 33.8756L76.5317 33.9662L76.5069 34.0569L76.4821 34.1475L76.4574 34.2382L76.4327 34.3286L76.408 34.3571L76.3834 34.4478L76.3587 34.5386L76.3341 34.6294L76.3095 34.7202L76.285 34.811L76.2604 34.9019L76.2359 34.9927L76.2114 35.0836L76.1869 35.1148L76.1625 35.2029L76.1381 35.2939L76.1137 35.3848L76.0893 35.4758L76.0649 35.5668L76.0406 35.6578L76.0163 35.7489L75.992 35.8399L75.9677 35.8743L75.9435 35.9596L75.9193 36.0507L75.8951 36.1419L75.8709 36.233L75.8467 36.3242L75.8226 36.4154L75.7985 36.5066L75.7745 36.5979L75.7504 36.6354L75.7264 36.7179L75.7024 36.8092L75.6784 36.9005L75.6545 36.9919L75.6305 37.0832L75.6066 37.1746L75.5827 37.266L75.5589 37.3574L75.535 37.3982L75.5113 37.4779L75.4874 37.5693L75.4637 37.6608L75.44 37.7524L75.4162 37.8439L75.3926 37.9354L75.3689 38.027L75.3453 38.1186L75.3216 38.1625L75.2981 38.2394L75.2745 38.331L75.2509 38.4227L75.2274 38.5144L75.2039 38.6061L75.1805 38.6979L75.157 38.7896L75.1336 38.8814L75.1102 38.9285L75.0869 39.0025L75.0635 39.0944L75.0402 39.1862L75.0169 39.2781L74.9936 39.37L74.9704 39.4619L74.9472 39.5538L74.924 39.6458L74.9008 39.696L74.8777 39.7673L74.8545 39.8593L74.8314 39.9513L74.8084 40.0434L74.7853 40.1354L74.7623 40.2275L74.7393 40.3196L74.7164 40.4118L74.6934 40.4652L74.6705 40.5336L74.6476 40.6258L74.6247 40.718L74.6019 40.8102L74.5791 40.9025L74.5563 40.9947L74.5335 41.087L74.5108 41.1793L74.4881 41.236L74.4654 41.3015L74.4427 41.3939L74.4201 41.4863L74.3975 41.5787L74.3749 41.6711L74.3523 41.7635L74.3298 41.856L74.3073 41.9485L74.2848 42.0083L74.2623 42.071L74.2399 42.1636L74.2175 42.2561L74.1951 42.3487L74.1728 42.4413L74.1505 42.5339L74.1282 42.6266L74.1059 42.7192L74.0837 42.7822L74.0614 42.8421L74.0393 42.9348L74.0171 43.0276L73.9949 43.1203L73.9728 43.2131L73.9508 43.3059L73.9287 43.3987L73.9067 43.4915L73.8847 43.5577L73.8627 43.6147L73.8407 43.7076L73.8188 43.8006L73.7969 43.8935L73.775 43.9864L73.7532 44.0794L73.7313 44.1724L73.7095 44.2654L73.6878 44.3347L73.6661 44.389L73.6443 44.482L73.6227 44.5751L73.601 44.6682L73.5794 44.7613L73.5578 44.8545L73.5362 44.9476L73.5146 45.0408L73.4931 45.1133L73.4716 45.1647L73.4501 45.2579L73.4287 45.3512L73.4073 45.4445L73.3859 45.5378L73.3646 45.6311L73.3432 45.7244L73.3219 45.8178L73.3007 45.8935L73.2794 45.942L73.2582 46.0354L73.237 46.1289L73.2158 46.2223L73.1947 46.3158L73.1736 46.4093L73.1525 46.5028L73.1314 46.5963L73.1104 46.6751L73.0894 46.7209L73.0684 46.8144L73.0475 46.908L73.0266 47.0017L73.0057 47.0953L72.9849 47.1889L72.964 47.2826L72.9432 47.3763L72.9225 47.4584L72.9017 47.5013L72.881 47.595L72.8603 47.6888L72.8397 47.7825L72.819 47.8763L72.7984 47.9702L72.7778 48.064L72.7573 48.1579L72.7368 48.2431L72.7163 48.2831L72.6958 48.377L72.6754 48.471L72.655 48.5649L72.6346 48.6589L72.6143 48.7529L72.594 48.8469L72.5737 48.9409L72.5534 49.0293L72.5332 49.0666L72.513 49.1606L72.4928 49.2547L72.4727 49.3489L72.4525 49.443L72.4325 49.5372L72.4124 49.6313L72.3924 49.7255L72.3724 49.8171L72.3524 49.8515L72.3325 49.9457L72.3126 50.04L72.2927 50.1343L72.2729 50.2286L72.2531 50.3229L72.2333 50.4172L72.2135 50.5116L72.1938 50.606L72.1741 50.6382L72.1544 50.7323L72.1348 50.8267L72.1151 50.9212L72.0956 51.0156L72.076 51.1101L72.0565 51.2046L72.037 51.2991L72.0175 51.3937L71.9981 51.4291L71.9787 51.5203L71.9593 51.6149L71.94 51.7096L71.9207 51.8042L71.9014 51.8988L71.8821 51.9935L71.8629 52.0882L71.8437 52.1829L71.8246 52.2215L71.8054 52.3099L71.7864 52.4046L71.7673 52.4994L71.7482 52.5942L71.7292 52.689L71.7102 52.7838L71.6913 52.8787L71.6724 52.9736L71.6535 53.0153L71.6346 53.1009L71.6158 53.1958L71.597 53.2907L71.5783 53.3857L71.5595 53.4807L71.5408 53.5756L71.5222 53.6707L71.5035 53.7657L71.4849 53.8106L71.4663 53.8933L71.4478 53.9884L71.4293 54.0835L71.4108 54.1786L71.3924 54.2737L71.3739 54.3689L71.3555 54.4641L71.3372 54.5592L71.3188 54.6073L71.3006 54.6872L71.2823 54.7824L71.2641 54.8777L71.2459 54.973L71.2277 55.0682L71.2096 55.1635L71.1915 55.2589L71.1734 55.3542L71.1553 55.4055L71.1373 55.4825L71.1194 55.5779L71.1014 55.6733L71.0835 55.7687L71.0656 55.8642L71.0478 55.9596L71.03 56.0551L71.0122 56.1506L70.9944 56.2051L70.9767 56.2792L70.959 56.3747L70.9413 56.4703L70.9237 56.5659L70.9061 56.6615L70.8886 56.7571L70.8711 56.8528L70.8535 56.9484L70.8361 57.006L70.8187 57.0773L70.8012 57.173L70.7839 57.2687L70.7666 57.3645L70.7492 57.4602L70.732 57.556L70.7148 57.6518L70.6975 57.7476L70.6804 57.8084L70.6633 57.8768L70.6461 57.9726L70.6291 58.0685L70.612 58.1644L70.595 58.2603L70.5781 58.3563L70.5611 58.4522L70.5442 58.5482L70.5274 58.6121L70.5105 58.6776L70.4937 58.7737L70.477 58.8697L70.4602 58.9657L70.4435 59.0618L70.4268 59.1579L70.4102 59.254L70.3936 59.3501L70.377 59.4171L70.3605 59.4798L70.344 59.576L70.3275 59.6722L70.3111 59.7684L70.2947 59.8646L70.2783 59.9608L70.262 60.0571L70.2457 60.1533L70.2294 60.2236L70.2132 60.2834L70.197 60.3797L70.1808 60.476L70.1647 60.5724L70.1486 60.6688L70.1325 60.7651L70.1165 60.8615L70.1005 60.9579L70.0845 61.0313L70.0686 61.0883L70.0527 61.1847L70.0368 61.2812L70.0211 61.3777L70.0053 61.4742L69.9895 61.5707L69.9738 61.6673L69.9581 61.7638L69.9425 61.8403L69.9269 61.8945L69.9113 61.9911L69.8957 62.0877L69.8802 62.1843L69.8647 62.2809L69.8493 62.3776L69.8339 62.4743L69.8185 62.571L69.8032 62.6506L69.7879 62.7019L69.7726 62.7986L69.7574 62.8954L69.7422 62.9922L69.727 63.089L69.7119 63.1858L69.6968 63.2826L69.6817 63.3794L69.6668 63.4622L69.6518 63.5106L69.6368 63.6075L69.6219 63.7044L69.607 63.8013L69.5922 63.8983L69.5774 63.9952L69.5626 64.0921L69.5479 64.1891L69.5332 64.2751L69.5185 64.3206L69.5039 64.4176L69.4893 64.5147L69.4747 64.6117L69.4602 64.7088L69.4457 64.8059L69.4313 64.9029L69.4169 65.0001L69.4025 65.0891L69.3881 65.1318L69.3738 65.229L69.3596 65.3261L69.3453 65.4233L69.3311 65.5205L69.317 65.6177L69.3029 65.7149L69.2888 65.8122L69.2747 65.9044L69.2607 65.9442L69.2467 66.0415L69.2328 66.1388L69.2189 66.2361L69.205 66.3335L69.1912 66.4308L69.1774 66.5282L69.1636 66.6255L69.1499 66.7209L69.1362 66.7578L69.1225 66.8552L69.1089 66.9527L69.0954 67.0501L69.0818 67.1476L69.0683 67.245L69.0549 67.3425L69.0414 67.44L69.0281 67.5375L69.0147 67.5736L69.0014 67.6701L68.9881 67.7677L68.9748 67.8652L68.9616 67.9628L68.9485 68.0604L68.9353 68.158L68.9223 68.2557L68.9092 68.3533L68.8962 68.3925L68.8832 68.4861L68.8702 68.5838L68.8573 68.6815L68.8445 68.7792L68.8316 68.877L68.8188 68.9747L68.8061 69.0724L68.7934 69.1702L68.7807 69.2125L68.7681 69.3033L68.7554 69.4011L68.7429 69.4989L68.7303 69.5967L68.7178 69.6946L68.7054 69.7925L68.693 69.8903L68.6806 69.9882L68.6683 70.0336L68.6559 70.1215L68.6437 70.2195L68.6315 70.3174L68.6193 70.4153L68.6071 70.5133L68.595 70.6113L68.5829 70.7093L68.5709 70.8073L68.5589 70.8558L68.5469 70.9408L68.535 71.0389L68.5231 71.1369L68.5113 71.235L68.4995 71.3331L68.4877 71.4312L68.476 71.5293L68.4643 71.6274L68.4526 71.6791L68.441 71.7612L68.4295 71.8593L68.4179 71.9575L68.4064 72.0557L68.395 72.1539L68.3835 72.2521L68.3722 72.3503L68.3608 72.4485L68.3495 72.5033L68.3383 72.5826L68.327 72.6808L68.3159 72.7791L68.3047 72.8774L68.2936 72.9757L68.2825 73.074L68.2715 73.1723L68.2605 73.2707L68.2496 73.3286L68.2386 73.4049L68.2278 73.5033L68.2169 73.6017L68.2061 73.7001L68.1954 73.7985L68.1847 73.8969L68.174 73.9953L68.1634 74.0938L68.1527 74.1548L68.1422 74.2282L68.1317 74.3267L68.1212 74.4252L68.1108 74.5237L68.1004 74.6222L68.09 74.7207L68.0797 74.8193L68.0694 74.9178L68.0591 74.9819L68.049 75.0525L68.0388 75.1511L68.0287 75.2497L68.0186 75.3483L68.0085 75.4469L67.9985 75.5455L67.9886 75.6442L67.9786 75.7428L67.9688 75.81L67.9589 75.8777L67.9491 75.9763L67.9394 76.075L67.9296 76.1737L67.9199 76.2724L67.9103 76.3712L67.9007 76.4699L67.8911 76.5687L67.8816 76.639L67.8721 76.7037L67.8627 76.8025L67.8533 76.9013L67.8439 77.0001L67.8346 77.0989L67.8253 77.1977L67.8161 77.2965L67.8069 77.3954L67.7977 77.4688L67.7886 77.5306L67.7795 77.6295L67.7704 77.7283L67.7615 77.8272L67.7525 77.9261L67.7436 78.0251L67.7347 78.124L67.7259 78.2229L67.7171 78.2994L67.7083 78.3583L67.6996 78.4573L67.6909 78.5562L67.6823 78.6552L67.6737 78.7542L67.6652 78.8532L67.6566 78.9522L67.6482 79.0512L67.6398 79.1308L67.6313 79.1868L67.623 79.2859L67.6147 79.3849L67.6064 79.484L67.5982 79.5831L67.59 79.6821L67.5819 79.7812L67.5738 79.8803L67.5657 79.963L67.5577 80.0161L67.5497 80.1152L67.5418 80.2143L67.5339 80.3135L67.5261 80.4126L67.5182 80.5118L67.5105 80.611L67.5027 80.7102L67.495 80.7959L67.4874 80.8461L67.4798 80.9453L67.4722 81.0445L67.4647 81.1437L67.4572 81.2429L67.4498 81.3422L67.4424 81.4414L67.435 81.5407L67.4277 81.6295L67.4204 81.6767L67.4132 81.776L67.406 81.8753L67.3988 81.9746L67.3917 82.0739L67.3847 82.1732L67.3776 82.2726L67.3706 82.3719L67.3637 82.4638L67.3568 82.5081L67.3499 82.6074L67.3431 82.7068L67.3363 82.8062L67.3296 82.9055L67.3229 83.0049L67.3163 83.1043L67.3096 83.2037L67.303 83.2987L67.2965 83.3401L67.29 83.4395L67.2836 83.5389L67.2772 83.6384L67.2708 83.7378L67.2645 83.8372L67.2582 83.9367L67.252 84.0362L67.2458 84.1342L67.2397 84.1726L67.2335 84.2721L67.2275 84.3716L67.2214 84.4711L67.2155 84.5706L67.2095 84.6701L67.2036 84.7696L67.1978 84.8692L67.192 84.9687L67.1862 85.0074L67.1805 85.1053L67.1748 85.2049L67.1691 85.3044L67.1635 85.404L67.1579 85.5035L67.1524 85.6031L67.1469 85.7027L67.1415 85.8023L67.1361 85.844L67.1307 85.939L67.1254 86.0386L67.1202 86.1382L67.1149 86.2379L67.1098 86.3375L67.1046 86.4371L67.0995 86.5368L67.0945 86.6364L67.0894 86.6812L67.0845 86.7732L67.0795 86.8729L67.0746 86.9726L67.0698 87.0722L67.065 87.1719L67.0602 87.2716L67.0555 87.3713L67.0508 87.471L67.0462 87.5188L67.0416 87.6079L67.037 87.7076L67.0325 87.8073L67.0281 87.907L67.0236 88.0068L67.0193 88.1065L67.0149 88.2062L67.0106 88.306L67.0064 88.3569L67.0022 88.443L66.998 88.5427L66.9939 88.6425L66.9898 88.7423L66.9857 88.842L66.9817 88.9418L66.9778 89.0416L66.9739 89.1414L66.97 89.1953L66.9661 89.2785L66.9624 89.3783L66.9586 89.478L66.9549 89.5779L66.9513 89.6777L66.9476 89.7775L66.9441 89.8773L66.9405 89.9771L66.937 90.0341L66.9336 90.1143L66.9302 90.2141L66.9268 90.3139L66.9235 90.4138L66.9202 90.5136L66.917 90.6135L66.9138 90.7133L66.9106 90.8132L66.9075 90.8732L66.9044 90.9504L66.9014 91.0503L66.8984 91.1501L66.8955 91.25L66.8926 91.3499L66.8897 91.4498L66.8869 91.5496L66.8842 91.6495L66.8814 91.7126L66.8787 91.7868L66.8761 91.8867L66.8735 91.9866L66.8709 92.0865L66.8684 92.1864L66.8659 92.2863L66.8635 92.3862L66.8611 92.4861L66.8588 92.5522L66.8565 92.6235L66.8542 92.7234L66.852 92.8233L66.8499 92.9232L66.8477 93.0232L66.8456 93.1231L66.8436 93.223L66.8415 93.323L66.8396 93.3921L66.8377 93.4604L66.8358 93.5603L66.834 93.6602L66.8322 93.7602L66.8304 93.8601L66.8287 93.9601L66.827 94.06L66.8254 94.16L66.8238 94.2321L66.8223 94.2974L66.8208 94.3974L66.8193 94.4973L66.8179 94.5973L66.8166 94.6972L66.8152 94.7972L66.814 94.8972L66.8127 94.9971L66.8115 95.0723L66.8104 95.1346L66.8092 95.2346L66.8082 95.3345L66.8072 95.4345L66.8061 95.5345L66.8052 95.6344L66.8043 95.7344L66.8034 95.8344L66.8026 95.9126L66.8018 95.9719L66.8011 96.0718L66.8004 96.1718L66.7998 96.2718L66.7992 96.3718L66.7986 96.4718L66.7981 96.5718L66.7976 96.6717L66.7972 96.7529L66.7967 96.8092L66.7964 96.9092L66.7961 97.0092L66.7958 97.1092L66.7956 97.2092L66.7954 97.3092L66.7953 97.4091L66.7952 97.5091L66.7951 97.5933L66.7951 97.6466L66.7951 97.7466L66.7952 97.8466L66.7953 97.9466L66.7954 98.0466L66.7956 98.1466L66.7959 98.2465L66.7961 98.3465L66.7964 98.4337L66.7968 98.484L66.7972 98.584L66.7977 98.684L66.7982 98.784L66.7987 98.8839L66.7993 98.9839L66.7999 99.0839L66.8006 99.1839L66.8013 99.2741L66.8021 99.3214L66.8028 99.4213L66.8037 99.5213L66.8046 99.6213L66.8054 99.7213L66.8064 99.8213L66.8074 99.9212L66.8084 100.021L66.8095 100.114L66.8107 100.159L66.8118 100.259L66.813 100.359L66.8143 100.459L66.8156 100.559L66.8169 100.658L66.8183 100.758L66.8197 100.858L66.8212 100.955L66.8227 100.996L66.8242 101.096L66.8258 101.196L66.8274 101.296L66.8291 101.396L66.8308 101.496L66.8326 101.596L66.8343 101.695L66.8362 101.795L66.8381 101.833L66.84 101.933L66.8419 102.033L66.8439 102.133L66.8459 102.233L66.8481 102.333L66.8502 102.432L66.8523 102.532L66.8546 102.632L66.8568 102.672L66.8591 102.77L66.8615 102.87L66.8638 102.969L66.8662 103.069L66.8687 103.169L66.8712 103.269L66.8737 103.369L66.8763 103.469L66.8789 103.512L66.8816 103.606L66.8843 103.706L66.8871 103.806L66.8899 103.906L66.8927 104.006L66.8956 104.106L66.8985 104.206L66.9014 104.305L66.9044 104.351L66.9075 104.443L66.9106 104.543L66.9137 104.642L66.9168 104.742L66.9201 104.842L66.9233 104.942L66.9266 105.042L66.9299 105.142L66.9333 105.19L66.9367 105.279L66.9401 105.379L66.9436 105.479L66.9472 105.578L66.9507 105.678L66.9544 105.778L66.958 105.878L66.9617 105.978L66.9655 106.029L66.9692 106.115L66.973 106.214L66.9769 106.314L66.9808 106.414L66.9848 106.514L66.9888 106.614L66.9928 106.713L66.9969 106.813L67.001 106.868L67.0051 106.95L67.0093 107.05L67.0136 107.15L67.0178 107.249L67.0221 107.349L67.0265 107.449L67.0309 107.549L67.0353 107.648L67.0398 107.706L67.0443 107.785L67.0489 107.885L67.0535 107.985L67.0581 108.084L67.0628 108.184L67.0675 108.284L67.0723 108.383L67.0771 108.483L67.082 108.544L67.0868 108.62L67.0917 108.72L67.0967 108.819L67.1017 108.919L67.1068 109.019L67.1119 109.118L67.117 109.218L67.1222 109.317L67.1274 109.381L67.1326 109.454L67.1379 109.554L67.1433 109.653L67.1486 109.753L67.1541 109.853L67.1595 109.952L67.165 110.052L67.1706 110.151L67.1761 110.218L67.1817 110.288L67.1874 110.388L67.1931 110.487L67.1988 110.587L67.2046 110.686L67.2104 110.786L67.2163 110.885L67.2222 110.985L67.2281 111.054L67.2341 111.121L67.2401 111.221L67.2462 111.32L67.2523 111.42L67.2584 111.519L67.2646 111.619L67.2708 111.718L67.2771 111.818L67.2834 111.89L67.2897 111.954L67.2961 112.054L67.3025 112.153L67.3089 112.252L67.3155 112.352L67.322 112.451L67.3286 112.551L67.3352 112.65L67.3419 112.725L67.3486 112.786L67.3553 112.886L67.3621 112.985L67.3689 113.084L67.3758 113.184L67.3826 113.283L67.3896 113.383L67.3966 113.482L67.4036 113.56L67.4107 113.618L67.4178 113.717L67.4249 113.817L67.4321 113.916L67.4393 114.015L67.4466 114.114L67.4539 114.214L67.4612 114.313L67.4686 114.394L67.476 114.449L67.4834 114.548L67.4909 114.647L67.4985 114.747L67.506 114.846L67.5136 114.945L67.5213 115.044L67.529 115.144L67.5367 115.228L67.5445 115.279L67.5523 115.379L67.5601 115.478L67.568 115.577L67.576 115.676L67.5839 115.775L67.5919 115.874L67.6 115.973L67.608 116.06L67.6162 116.109L67.6243 116.208L67.6325 116.307L67.6408 116.406L67.6491 116.505L67.6574 116.604L67.6657 116.703L67.6741 116.803L67.6826 116.892L67.6911 116.938L67.6995 117.037L67.7081 117.136L67.7167 117.235L67.7253 117.334L67.734 117.433L67.7427 117.532L67.7514 117.631L67.7603 117.724L67.7691 117.766L67.7779 117.865L67.7868 117.964L67.7957 118.063L67.8048 118.162L67.8138 118.261L67.8228 118.36L67.8319 118.459L67.841 118.554L67.8502 118.594L67.8594 118.693L67.8687 118.791L67.878 118.89L67.8873 118.989L67.8966 119.088L67.9061 119.187L67.9155 119.285L67.925 119.384L67.9345 119.421L67.9441 119.519L67.9537 119.618L67.9633 119.717L67.973 119.815L67.9827 119.914L67.9924 120.013L68.0022 120.112L68.012 120.21L68.0219 120.249L68.0318 120.345L68.0417 120.444L68.0517 120.542L68.0617 120.641L68.0718 120.74L68.0819 120.838L68.092 120.937L68.1022 121.035L68.1124 121.077L68.1226 121.17L68.1329 121.269L68.1432 121.367L68.1536 121.466L68.164 121.564L68.1744 121.663L68.1849 121.761L68.1954 121.86L68.2059 121.904L68.2165 121.994L68.2271 122.093L68.2378 122.191L68.2485 122.289L68.2592 122.388L68.27 122.486L68.2808 122.585L68.2916 122.683L68.3025 122.731L68.3134 122.817L68.3244 122.916L68.3354 123.014L68.3464 123.112L68.3575 123.211L68.3686 123.309L68.3797 123.407L68.3909 123.505L68.4022 123.556L68.4134 123.639L68.4247 123.738L68.4361 123.836L68.4474 123.934L68.4588 124.032L68.4703 124.131L68.4818 124.229L68.4933 124.327L68.5048 124.381L68.5164 124.461L68.5281 124.559L68.5397 124.657L68.5514 124.755L68.5632 124.853L68.5749 124.951L68.5868 125.049L68.5986 125.148L68.6105 125.204L68.6224 125.281L68.6344 125.379L68.6464 125.477L68.6584 125.575L68.6705 125.673L68.6826 125.771L68.6947 125.869L68.7069 125.967L68.7191 126.026L68.7314 126.1L68.7437 126.198L68.756 126.296L68.7684 126.394L68.7808 126.492L68.7932 126.59L68.8057 126.688L68.8182 126.786L68.8307 126.848L68.8433 126.919L68.8559 127.017L68.8686 127.114L68.8813 127.212L68.894 127.31L68.9068 127.408L68.9196 127.505L68.9324 127.603L68.9453 127.668L68.9582 127.736L68.9712 127.834L68.9841 127.931L68.9971 128.029L69.0102 128.127L69.0233 128.224L69.0364 128.322L69.0496 128.419L69.0628 128.487L69.076 128.552L69.0893 128.65L69.1026 128.747L69.1159 128.845L69.1293 128.942L69.1427 129.04L69.1562 129.137L69.1696 129.235L69.1832 129.306L69.1967 129.367L69.2103 129.465L69.2239 129.562L69.2376 129.659L69.2513 129.757L69.265 129.854L69.2788 129.952L69.2926 130.049L69.3064 130.123L69.3203 130.181L69.3342 130.278L69.3482 130.376L69.3622 130.473L69.3762 130.57L69.3902 130.668L69.4043 130.765L69.4184 130.862L69.4326 130.939L69.4468 130.994L69.461 131.091L69.4753 131.188L69.4896 131.285L69.5039 131.383L69.5183 131.48L69.5327 131.577L69.5471 131.674L69.5616 131.753L69.5761 131.806L69.5907 131.903L69.6052 132L69.6198 132.097L69.6345 132.194L69.6492 132.291L69.6639 132.388L69.6786 132.485L69.6934 132.567L69.7082 132.616L69.7231 132.713L69.738 132.81L69.7529 132.907L69.7679 133.004L69.7829 133.1L69.7979 133.197L69.813 133.294L69.828 133.379L69.8432 133.425L69.8584 133.522L69.8736 133.619L69.8888 133.716L69.9041 133.812L69.9194 133.909L69.9347 134.006L69.9501 134.102L69.9655 134.191L69.981 134.233L69.9964 134.33L70.0119 134.427L70.0275 134.523L70.043 134.62L70.0587 134.716L70.0743 134.813L70.09 134.909L70.1057 135L70.1215 135.04L70.1372 135.137L70.1531 135.233L70.1689 135.33L70.1848 135.426L70.2007 135.522L70.2167 135.619L70.2327 135.715L70.2487 135.809L70.2647 135.846L70.2808 135.942L70.297 136.038L70.3131 136.135L70.3293 136.231L70.3455 136.327L70.3618 136.423L70.3781 136.52L70.3944 136.616L70.4107 136.65L70.4272 136.746L70.4436 136.842L70.46 136.938L70.4765 137.034L70.493 137.131L70.5096 137.227L70.5262 137.323L70.5428 137.419L70.5595 137.456L70.5762 137.549L70.5929 137.645L70.6096 137.741L70.6264 137.837L70.6433 137.933L70.6601 138.029L70.677 138.125L70.6939 138.221L70.7109 138.261L70.7279 138.35L70.7449 138.446L70.762 138.542L70.7791 138.638L70.7962 138.734L70.8133 138.829L70.8305 138.925L70.8477 139.021L70.865 139.064L70.8823 139.15L70.8996 139.246L70.9169 139.341L70.9343 139.437L70.9517 139.533L70.9692 139.629L70.9867 139.724L71.0042 139.82L71.0217 139.866L71.0393 139.949L71.0569 140.044L71.0746 140.14L71.0922 140.235L71.1099 140.331L71.1277 140.426L71.1454 140.522L71.1633 140.617L71.1811 140.666L71.199 140.746L71.2169 140.841L71.2348 140.937L71.2528 141.032L71.2708 141.128L71.2888 141.223L71.3069 141.318L71.325 141.414L71.3431 141.465L71.3613 141.542L71.3795 141.637L71.3977 141.732L71.4159 141.827L71.4342 141.923L71.4525 142.018L71.4709 142.113L71.4893 142.208L71.5077 142.262L71.5261 142.336L71.5446 142.431L71.5631 142.526L71.5817 142.621L71.6002 142.716L71.6188 142.812L71.6375 142.907L71.6562 143.002L71.6748 143.059L71.6936 143.129L71.7123 143.224L71.7311 143.319L71.75 143.414L71.7688 143.509L71.7877 143.604L71.8066 143.698L71.8256 143.793L71.8446 143.853L71.8636 143.92L71.8826 144.015L71.9017 144.11L71.9208 144.205L71.9399 144.3L71.9591 144.394L71.9783 144.489L71.9975 144.584L72.0168 144.646L72.0361 144.71L72.0554 144.805L72.0748 144.9L72.0942 144.994L72.1136 145.089L72.1331 145.183L72.1525 145.278L72.172 145.372L72.1916 145.438L72.2112 145.499L72.2308 145.593L72.2504 145.688L72.2701 145.782L72.2898 145.877L72.3095 145.971L72.3293 146.065L72.349 146.16L72.3689 146.228L72.3887 146.286L72.4086 146.38L72.4285 146.474L72.4484 146.569L72.4684 146.663L72.4884 146.757L72.5084 146.851L72.5285 146.945L72.5486 147.017L72.5687 147.071L72.5889 147.165L72.6091 147.259L72.6293 147.353L72.6495 147.447L72.6698 147.542L72.6901 147.636L72.7104 147.73L72.7308 147.804L72.7512 147.855L72.7716 147.949L72.7921 148.043L72.8125 148.137L72.8331 148.231L72.8536 148.324L72.8742 148.418L72.8948 148.512L72.9155 148.589L72.9361 148.637L72.9568 148.731L72.9775 148.825L72.9983 148.918L73.0191 149.012L73.0399 149.106L73.0607 149.199L73.0816 149.293L73.1025 149.373L73.1234 149.418L73.1444 149.511L73.1654 149.605L73.1864 149.699L73.2075 149.792L73.2285 149.886L73.2496 149.979L73.2708 150.072L73.292 150.155L73.3132 150.197L73.3344 150.29L73.3556 150.384L73.3769 150.477L73.3983 150.57L73.4196 150.664L73.441 150.757L73.4624 150.85L73.4838 150.936L73.5053 150.974L73.5268 151.067L73.5483 151.161L73.5698 151.254L73.5914 151.347L73.613 151.44L73.6346 151.533L73.6563 151.626L73.678 151.715L73.6997 151.75L73.7215 151.843L73.7432 151.936L73.7651 152.029L73.7869 152.122L73.8087 152.215L73.8307 152.308L73.8526 152.401L73.8745 152.492L73.8965 152.524L73.9185 152.617L73.9405 152.71L73.9626 152.803L73.9847 152.895L74.0068 152.988L74.029 153.081L74.0512 153.174L74.0734 153.266L74.0956 153.298L74.1179 153.389L74.1402 153.482L74.1625 153.574L74.1849 153.667L74.2072 153.76L74.2297 153.852L74.2521 153.945L74.2745 154.037L74.2971 154.071L74.3196 154.16L74.3421 154.252L74.3647 154.345L74.3873 154.437L74.4099 154.529L74.4326 154.622L74.4553 154.714L74.478 154.806L74.5007 154.843L74.5235 154.928L74.5463 155.021L74.5691 155.113L74.592 155.205L74.6149 155.297L74.6378 155.39L74.6607 155.482L74.6837 155.574L74.7067 155.614L74.7297 155.696L74.7528 155.788L74.7758 155.88L74.7989 155.972L74.8221 156.064L74.8452 156.156L74.8684 156.248L74.8916 156.34L74.9149 156.382L74.9381 156.461L74.9614 156.553L74.9848 156.645L75.0081 156.736L75.0315 156.828L75.0549 156.92L75.0783 157.012L75.1018 157.104L75.1253 157.149L75.1488 157.224L75.1723 157.316L75.1959 157.408L75.2195 157.499L75.2431 157.591L75.2668 157.683L75.2905 157.774L75.3142 157.866L75.3379 157.914L75.3616 157.986L75.3855 158.078L75.4093 158.169L75.4331 158.261L75.457 158.352L75.4809 158.443L75.5048 158.535L75.5287 158.626L75.5527 158.677L75.5767 158.746L75.6007 158.838L75.6248 158.929L75.6488 159.02L75.673 159.111L75.6971 159.202L75.7213 159.294L75.7455 159.385L75.7697 159.439L75.7939 159.505L75.8182 159.596L75.8425 159.687L75.8668 159.778L75.8911 159.869L75.9155 159.96L75.9399 160.051L75.9643 160.142L75.9888 160.198L76.0132 160.261L76.0378 160.352L76.0623 160.443L76.0868 160.533L76.1114 160.624L76.136 160.715L76.1606 160.806L76.1853 160.897L76.21 160.956L76.2347 161.015L76.2595 161.106L76.2842 161.197L76.309 161.287L76.3338 161.378L76.3587 161.469L76.3835 161.559L76.4084 161.65L76.4333 161.712L76.4583 161.768L76.4833 161.859L76.5083 161.949L76.5333 162.04L76.5583 162.13L76.5834 162.22L76.6085 162.311L76.6336 162.401L76.6588 162.466L76.6839 162.519L76.7092 162.609L76.7344 162.7L76.7596 162.79L76.7849 162.88L76.8102 162.97L76.8355 163.06L76.8609 163.15L76.8863 163.218L76.9117 163.268L76.9371 163.358L76.9626 163.448L76.988 163.538L77.0135 163.628L77.0391 163.718L77.0646 163.808L77.0902 163.898L77.1158 163.968L77.1414 164.015L77.1671 164.105L77.1928 164.195L77.2185 164.285L77.2442 164.374L77.27 164.464L77.2958 164.554L77.3216 164.644L77.3474 164.717L77.3732 164.76L77.3991 164.85L77.425 164.94L77.451 165.029L77.4769 165.119L77.5029 165.208L77.5289 165.298L77.5549 165.387L77.581 165.463L77.6071 165.504L77.6332 165.593L77.6593 165.682L77.6854 165.772L77.7116 165.861L77.7378 165.95L77.764 166.04L77.7903 166.129L77.8166 166.208L77.8428 166.245L77.8692 166.334L77.8955 166.423L77.9219 166.513L77.9483 166.602L77.9747 166.691L78.0011 166.78L78.0276 166.869L78.0541 166.951L78.0806 166.984L78.1072 167.073L78.1337 167.162L78.1603 167.251L78.1869 167.34L78.2136 167.429L78.2402 167.518L78.2669 167.607L78.2936 167.691L78.3203 167.722L78.3471 167.811L78.3739 167.899L78.4007 167.988L78.4275 168.077L78.4544 168.165L78.4812 168.254L78.5081 168.343L78.5351 168.43L78.562 168.457L78.589 168.546L78.616 168.634L78.643 168.723L78.67 168.811L78.6971 168.9L78.7242 168.988L78.7513 169.077L78.7784 169.165L78.8056 169.193L78.8328 169.279L78.86 169.368L78.8872 169.456L78.9144 169.544L78.9417 169.632L78.969 169.72L78.9963 169.809L79.0237 169.897L79.051 169.927L79.0784 170.01L79.1059 170.099L79.1333 170.187L79.1608 170.275L79.1882 170.363L79.2157 170.451L79.2433 170.539L79.2708 170.627L79.2984 170.66L79.326 170.74L79.3536 170.828L79.3812 170.915L79.4089 171.003L79.4366 171.091L79.4643 171.179L79.4921 171.267L79.5198 171.354L79.5476 171.39L79.5754 171.467L79.6032 171.555L79.6311 171.642L79.6589 171.73L79.6868 171.817L79.7147 171.905L79.7427 171.992L79.7707 172.08L79.7986 172.119L79.8266 172.192L79.8547 172.28L79.8827 172.367L79.9108 172.454L79.9389 172.542L79.967 172.629L79.9952 172.716L80.0233 172.804L80.0515 172.845L80.0797 172.915L80.1079 173.003L80.1362 173.09L80.1645 173.177L80.1928 173.264L80.2211 173.351L80.2494 173.438L80.2778 173.525L80.3061 173.569L80.3346 173.637L80.363 173.724L80.3914 173.811L80.4199 173.897L80.4484 173.984L80.4769 174.071L80.5055 174.158L80.534 174.245L80.5626 174.292L80.5912 174.356L80.6198 174.442L80.6485 174.529L80.6772 174.616L80.7058 174.702L80.7345 174.789L80.7633 174.876L80.7921 174.962L80.8208 175.012L80.8496 175.073L80.8784 175.159L80.9073 175.246L80.9361 175.332L80.965 175.418L80.9939 175.505L81.0229 175.591L81.0518 175.678L81.0808 175.73L81.1098 175.788L81.1388 175.874L81.1678 175.96L81.1969 176.046L81.226 176.132L81.255 176.219L81.2842 176.305L81.3133 176.391L81.3425 176.446L81.3717 176.5L81.4009 176.586L81.4301 176.672L81.4593 176.758L81.4886 176.844L81.5179 176.93L81.5472 177.016L81.5765 177.102L81.6059 177.16L81.6352 177.211L81.6646 177.297L81.694 177.383L81.7235 177.468L81.7529 177.554L81.7824 177.64L81.8119 177.725L81.8414 177.811L81.8709 177.872L81.9005 177.92L81.9301 178.005L81.9597 178.091L81.9893 178.176L82.0189 178.262L82.0486 178.347L82.0783 178.432L82.108 178.518L82.1377 178.581L82.1674 178.626L82.1972 178.711L82.227 178.797L82.2568 178.882L82.2866 178.967L82.3164 179.052L82.3463 179.137L82.3762 179.223L82.4061 179.289L82.436 179.33L82.466 179.415L82.4959 179.5L82.5259 179.585L82.5559 179.67L82.5859 179.755L82.616 179.84L82.646 179.925L82.6761 179.994L82.7062 180.032L82.7363 180.117L82.7665 180.202L82.7966 180.287L82.8268 180.372L82.857 180.456L82.8873 180.541L82.9175 180.626L82.9478 180.698L82.978 180.732L83.0084 180.817L83.0387 180.901L83.069 180.986L83.0994 181.07L83.1298 181.155L83.1601 181.239L83.1906 181.324L83.221 181.399L83.2515 181.43L83.2819 181.514L83.3124 181.599L83.3429 181.683L83.3735 181.767L83.4041 181.851L83.4346 181.936L83.4652 182.02L83.4958 182.097L83.5265 182.126L83.5571 182.21L83.5878 182.294L83.6185 182.378L83.6492 182.462L83.6799 182.546L83.7106 182.63L83.7414 182.714L83.7722 182.794L83.803 182.819L83.8338 182.903L83.8647 182.987L83.8955 183.07L83.9264 183.154L83.9573 183.238L83.9882 183.322L84.0191 183.405L84.0501 183.488L84.0811 183.51L84.1121 183.594L84.1431 183.677L84.1741 183.761L84.2052 183.844L84.2362 183.928L84.2673 184.011L84.2984 184.095L84.3296 184.178L84.3607 184.201L84.3918 184.282L84.423 184.366L84.4542 184.449L84.4854 184.532L84.5167 184.615L84.5479 184.699L84.5792 184.782L84.6105 184.865L84.6418 184.891L84.6731 184.969L84.7045 185.052L84.7358 185.135L84.7672 185.218L84.7986 185.301L84.83 185.384L84.8614 185.467L84.8929 185.55L84.9244 185.578L84.9558 185.653L84.9874 185.736L85.0189 185.819L85.0504 185.901L85.082 185.984L85.1136 186.067L85.1451 186.149L85.1768 186.232L85.2084 186.264L85.24 186.335L85.2717 186.417L85.3034 186.5L85.3351 186.583L85.3668 186.665L85.3986 186.747L85.4303 186.83L85.4621 186.912L85.4939 186.947L85.5257 187.015L85.5575 187.097L85.5894 187.179L85.6212 187.261L85.6531 187.344L85.685 187.426L85.7169 187.508L85.7488 187.59L85.7808 187.627L85.8127 187.692L85.8447 187.774L85.8767 187.856L85.9087 187.938L85.9408 188.02L85.9728 188.102L86.0049 188.184L86.037 188.266L86.0691 188.306L86.1012 188.367L86.1333 188.449L86.1655 188.531L86.1977 188.612L86.2298 188.694L86.2621 188.776L86.2943 188.857L86.3265 188.939L86.3588 188.982L86.3911 189.04L86.4233 189.121L86.4557 189.203L86.488 189.284L86.5203 189.366L86.5527 189.447L86.585 189.529L86.6174 189.61L86.6498 189.655L86.6823 189.71L86.7147 189.792L86.7471 189.873L86.7796 189.954L86.8121 190.035L86.8446 190.117L86.8771 190.198L86.9097 190.279L86.9422 190.327L86.9748 190.378L87.0074 190.46L87.04 190.541L87.0726 190.622L87.1052 190.702L87.1379 190.783L87.1706 190.864L87.2032 190.945L87.2359 190.996L87.2687 191.044L87.3014 191.125L87.3341 191.206L87.3669 191.287L87.3997 191.367L87.4325 191.448L87.4653 191.529L87.4981 191.609L87.531 191.663L87.5638 191.708L87.5967 191.788L87.6296 191.869L87.6625 191.949L87.6954 192.03L87.7284 192.11L87.7613 192.191L87.7943 192.271L87.8273 192.327L87.8603 192.369L87.8933 192.449L87.9264 192.53L87.9594 192.61L87.9925 192.69L88.0255 192.77L88.0586 192.85L88.0918 192.93L88.1249 192.989L88.158 193.028L88.1912 193.108L88.2244 193.188L88.2575 193.268L88.2907 193.348L88.324 193.428L88.3572 193.507L88.3905 193.587L88.4237 193.649L88.457 193.684L88.4903 193.764L88.5236 193.844L88.5569 193.924L88.5903 194.003L88.6236 194.083L88.657 194.162L88.6904 194.242L88.7238 194.306L88.7572 194.339L88.7906 194.418L88.8241 194.497L88.8575 194.577L88.891 194.656L88.9245 194.736L88.958 194.815L88.9915 194.894L89.0251 194.961L89.0586 194.99L89.0922 195.069L89.1258 195.149L89.1593 195.228L89.1929 195.307L89.2266 195.386L89.2602 195.465L89.2939 195.544L89.3275 195.614L89.3612 195.64L89.3949 195.719L89.4286 195.797L89.4623 195.876L89.4961 195.955L89.5298 196.034L89.5636 196.113L89.5974 196.192L89.6312 196.264L89.665 196.287L89.6988 196.365L89.7326 196.444L89.7665 196.523L89.8003 196.601L89.8342 196.68L89.8681 196.758L89.902 196.837L89.9359 196.912L89.9699 196.931L89.9646 196.97L89.9361 196.986L89.9076 197.002L89.8791 197.018L89.8506 197.033L89.8221 197.049L89.7937 197.064L89.7652 197.079L89.7824 197.095L89.7709 197.11L89.7425 197.125L89.7141 197.14L89.6857 197.155L89.6574 197.17L89.629 197.184L89.6007 197.199L89.5724 197.214L89.5867 197.229L89.5783 197.243L89.55 197.258L89.5218 197.272L89.4935 197.286L89.4653 197.3L89.4371 197.314L89.4089 197.328L89.3807 197.342L89.3921 197.356L89.3868 197.37L89.3587 197.384L89.3306 197.397L89.3025 197.411L89.2744 197.424L89.2463 197.437L89.2182 197.45L89.1902 197.463L89.1987 197.477L89.1966 197.491L89.1685 197.504L89.1406 197.517L89.1126 197.529L89.0846 197.542L89.0567 197.554L89.0287 197.566L89.0008 197.579L89.0065 197.592L89.0075 197.605L88.9796 197.618L88.9517 197.629L88.9239 197.641L88.896 197.653L88.8682 197.665L88.8404 197.676L88.8126 197.688L88.8154 197.701L88.8195 197.713L88.7918 197.725L88.7641 197.736L88.7364 197.747L88.7087 197.758L88.681 197.769L88.6533 197.78L88.6257 197.79L88.6255 197.802L88.6328 197.815L88.6052 197.825L88.5776 197.836L88.55 197.846L88.5225 197.856L88.4949 197.867L88.4674 197.877L88.4399 197.887L88.4369 197.898L88.4473 197.91L88.4198 197.92L88.3924 197.93L88.3649 197.939L88.3375 197.949L88.3101 197.958L88.2827 197.967L88.2554 197.976L88.2495 197.987L88.263 197.999L88.2357 198.008L88.2084 198.017L88.1811 198.025L88.1538 198.034L88.1265 198.043L88.0993 198.051L88.0721 198.06L88.0633 198.069L88.0799 198.081L88.0527 198.089L88.0256 198.098L87.9984 198.106L87.9713 198.113L87.9442 198.121L87.9171 198.129L87.89 198.137L87.8784 198.146L87.8981 198.157L87.8711 198.165L87.844 198.172L87.817 198.179L87.79 198.186L87.7631 198.193L87.7361 198.2L87.7092 198.207L87.6947 198.215L87.7175 198.227L87.6907 198.233L87.6638 198.24L87.6369 198.246L87.6101 198.253L87.5832 198.259L87.5564 198.265L87.5296 198.271L87.5124 198.278L87.5383 198.29L87.5115 198.296L87.4848 198.301L87.4581 198.307L87.4313 198.313L87.4047 198.318L87.378 198.324L87.3513 198.329L87.3312 198.335L87.3602 198.346L87.3336 198.351L87.307 198.356L87.2805 198.361L87.2539 198.366L87.2274 198.371L87.2009 198.375L87.1744 198.38L87.1514 198.385L87.1835 198.396L87.1571 198.401L87.1306 198.405L87.1042 198.409L87.0778 198.413L87.0514 198.417L87.0251 198.421L86.9987 198.425L86.9729 198.429L87.0081 198.44L86.9818 198.444L86.9555 198.447L86.9292 198.45L86.903 198.454L86.8768 198.457L86.8506 198.46L86.8244 198.463L86.7982 198.466L86.8315 198.477L86.8078 198.48L86.7817 198.483L86.7556 198.485L86.7295 198.488L86.7034 198.49L86.6774 198.493L86.6514 198.495L86.6254 198.497L86.6558 198.507L86.6352 198.51L86.6092 198.512L86.5833 198.514L86.5574 198.516L86.5314 198.517L86.5055 198.519L86.4797 198.52L86.4538 198.522L86.4814 198.531L86.4639 198.534L86.4381 198.535L86.4123 198.536L86.3866 198.537L86.3608 198.538L86.3351 198.538L86.3093 198.539L86.2836 198.54L86.3083 198.548L86.294 198.551L86.2683 198.551L86.2427 198.551L86.2171 198.551L86.1915 198.552L86.1659 198.552L86.1404 198.552L86.1148 198.551L86.1366 198.559L86.1254 198.561L86.0999 198.561L86.0745 198.56L86.049 198.56L86.0236 198.559L85.9982 198.558L85.9727 198.557L85.9474 198.556L85.9663 198.563L85.9582 198.565L85.9329 198.564L85.9076 198.563L85.8823 198.562L85.857 198.56L85.8318 198.559L85.8065 198.557L85.7813 198.555L85.7974 198.561L85.7924 198.563L85.7673 198.561L85.7421 198.559L85.717 198.557L85.6919 198.555L85.6668 198.552L85.6417 198.55L85.6167 198.547L85.6299 198.552L85.628 198.554L85.603 198.551L85.578 198.549L85.5531 198.546L85.5281 198.543L85.5032 198.54L85.4783 198.536L85.4534 198.533L85.4638 198.537L85.465 198.539L85.4402 198.535L85.4154 198.532L85.3906 198.528L85.3658 198.524L85.3411 198.521L85.3163 198.517L85.2916 198.513L85.2992 198.515L85.3034 198.517L85.2788 198.513L85.2541 198.509L85.2295 198.504L85.2049 198.5L85.1804 198.495L85.1558 198.49L85.1313 198.485L85.136 198.487L85.1433 198.489L85.1188 198.484L85.0944 198.479L85.0699 198.474L85.0455 198.468L85.0211 198.463L84.9967 198.457L84.9027 198.442L84.8307 198.432L84.7669 198.424L84.6686 198.408L84.5702 198.392L84.4719 198.376L84.3736 198.36L84.2753 198.343L84.1771 198.327L84.0788 198.31L84.0039 198.299L83.9431 198.291L83.8449 198.274L83.7467 198.257L83.6485 198.24L83.5504 198.223L83.4522 198.206L83.3541 198.188L83.256 198.171L83.1782 198.158L83.1205 198.151L83.0224 198.133L82.9243 198.115L82.8263 198.097L82.7283 198.079L82.6303 198.061L82.5323 198.043L82.4343 198.025L82.3537 198.011L82.299 198.004L82.201 197.985L82.1031 197.967L82.0052 197.948L81.9074 197.929L81.8095 197.91L81.7117 197.891L81.6139 197.872L81.5305 197.857L81.4787 197.85L81.3809 197.83L81.2832 197.811L81.1854 197.792L81.0877 197.772L80.99 197.752L80.8923 197.733L80.7947 197.713L80.7086 197.696L80.6597 197.689L80.5621 197.669L80.4645 197.649L80.367 197.628L80.2694 197.608L80.1719 197.588L80.0743 197.567L79.9768 197.546L79.888 197.528L79.8421 197.522L79.7446 197.501L79.6472 197.48L79.5498 197.458L79.4524 197.437L79.3551 197.416L79.2577 197.395L79.1604 197.373L79.0688 197.353L79.0258 197.347L78.9286 197.325L78.8313 197.304L78.7341 197.282L78.6369 197.26L78.5397 197.238L78.4426 197.215L78.3454 197.193L78.2511 197.172L78.2111 197.166L78.114 197.144L78.0169 197.121L77.9199 197.098L77.8229 197.075L77.7258 197.052L77.6289 197.029L77.5319 197.006L77.435 196.983L77.3977 196.978L77.3009 196.955L77.204 196.931L77.1072 196.908L77.0103 196.884L76.9136 196.861L76.8167 196.837L76.72 196.813L76.6233 196.789L76.5832 196.783L76.4894 196.759L76.3928 196.735L76.2961 196.711L76.1994 196.686L76.1028 196.662L76.0063 196.637L75.9097 196.612L75.8132 196.588L75.7703 196.58L75.6796 196.557L75.5831 196.532L75.4866 196.507L75.3902 196.482L75.2938 196.456L75.1974 196.431L75.1011 196.405L75.0048 196.38L74.9591 196.371L74.8714 196.348L74.7752 196.322L74.6789 196.296L74.5827 196.27L74.4865 196.244L74.3903 196.218L74.2942 196.191L74.1981 196.165L74.1496 196.155L74.065 196.132L73.969 196.106L73.873 196.079L73.7769 196.052L73.681 196.025L73.585 195.998L73.4891 195.971L73.3932 195.944L73.342 195.932L73.2604 195.91L73.1646 195.882L73.0688 195.855L72.973 195.827L72.8773 195.799L72.7815 195.771L72.6858 195.744L72.5902 195.716L72.5362 195.702L72.4577 195.68L72.3621 195.652L72.2665 195.624L72.1709 195.595L72.0754 195.567L71.9799 195.538L71.8845 195.509L71.789 195.481L71.7324 195.466L71.6568 195.445L71.5615 195.415L71.4662 195.386L71.3708 195.357L71.2756 195.328L71.1803 195.298L71.0851 195.269L70.9899 195.239L70.9306 195.223L70.858 195.202L70.7629 195.172L70.6678 195.142L70.5727 195.112L70.4777 195.082L70.3827 195.052L70.2877 195.021L70.1928 194.991L70.1308 194.973L70.0612 194.953L69.9663 194.922L69.8715 194.891L69.7767 194.86L69.6819 194.829L69.5872 194.798L69.4924 194.767L69.3977 194.736L69.3331 194.717L69.2665 194.697L69.1719 194.665L69.0773 194.634L68.9827 194.602L68.8882 194.57L68.7937 194.539L68.6993 194.507L68.6048 194.475L68.5376 194.454L68.4739 194.434L68.3796 194.402L68.2853 194.369L68.191 194.337L68.0967 194.305L68.0025 194.272L67.9083 194.239L67.8141 194.207L67.7443 194.184L67.6836 194.165L67.5895 194.132L67.4954 194.099L67.4014 194.065L67.3074 194.032L67.2135 193.999L67.1196 193.965L67.0257 193.932L66.9532 193.907L66.8954 193.889L66.8017 193.855L66.7079 193.821L66.6141 193.787L66.5204 193.753L66.4267 193.719L66.3331 193.685L66.2395 193.65L66.1645 193.624L66.1096 193.606L66.0161 193.572L65.9226 193.537L65.8292 193.503L65.7357 193.468L65.6423 193.433L65.549 193.398L65.4557 193.363L65.3782 193.334L65.3262 193.317L65.233 193.282L65.1398 193.247L65.0466 193.211L64.9534 193.176L64.8604 193.14L64.7673 193.104L64.6742 193.068L64.5943 193.038L64.5452 193.022L64.4522 192.986L64.3593 192.95L64.2664 192.913L64.1736 192.877L64.0808 192.84L63.988 192.804L63.8953 192.767L63.8129 192.735L63.7666 192.72L63.674 192.683L63.5814 192.646L63.4888 192.609L63.3963 192.572L63.3038 192.535L63.2113 192.497L63.1189 192.46L63.034 192.426L62.9906 192.411L62.8983 192.374L62.806 192.336L62.7137 192.298L62.6215 192.26L62.5293 192.222L62.4371 192.184L62.345 192.146L62.2577 192.11L62.2171 192.096L62.1251 192.058L62.0332 192.019L61.9412 191.981L61.8493 191.942L61.7574 191.903L61.6656 191.864L61.5738 191.825L61.4841 191.787L61.4464 191.775L61.3546 191.736L61.263 191.696L61.1714 191.657L61.0798 191.618L60.9883 191.578L60.8968 191.538L60.8053 191.499L60.7139 191.459L60.6776 191.447L60.5869 191.407L60.4955 191.367L60.4043 191.327L60.313 191.287L60.2218 191.246L60.1306 191.206L60.0394 191.165L59.9484 191.125L59.9096 191.111L59.8218 191.072L59.7308 191.031L59.6399 190.99L59.549 190.949L59.458 190.908L59.3672 190.867L59.2764 190.826L59.1857 190.784L59.1443 190.769L59.0596 190.73L58.9689 190.689L58.8783 190.647L58.7877 190.605L58.6972 190.564L58.6067 190.522L58.5163 190.48L58.4258 190.438L58.382 190.42L58.3002 190.383L58.2099 190.34L58.1196 190.298L58.0294 190.255L57.9392 190.213L57.849 190.17L57.7589 190.127L57.6689 190.084L57.6225 190.065L57.5437 190.029L57.4538 189.985L57.3638 189.942L57.2739 189.899L57.1841 189.856L57.0943 189.812L57.0046 189.769L56.9149 189.725L56.866 189.704L56.7902 189.668L56.7006 189.624L56.611 189.58L56.5215 189.536L56.432 189.492L56.3426 189.448L56.2532 189.404L56.1639 189.359L56.1126 189.337L56.0397 189.301L55.9504 189.257L55.8612 189.212L55.7721 189.167L55.6829 189.123L55.5939 189.078L55.5049 189.033L55.4159 188.988L55.3623 188.963L55.2922 188.928L55.2033 188.883L55.1145 188.838L55.0257 188.792L54.937 188.747L54.8483 188.701L54.7597 188.655L54.6711 188.609L54.6151 188.583L54.5479 188.549L54.4594 188.503L54.3709 188.457L54.2825 188.411L54.1942 188.364L54.1059 188.318L54.0176 188.272L53.9294 188.225L53.871 188.196L53.8067 188.164L53.7186 188.117L53.6305 188.07L53.5425 188.023L53.4545 187.976L53.3666 187.929L53.2787 187.882L53.1909 187.835L53.1302 187.804L53.0687 187.772L52.981 187.725L52.8933 187.677L52.8057 187.63L52.7181 187.582L52.6306 187.534L52.5431 187.486L52.4557 187.438L52.3927 187.405L52.334 187.375L52.2467 187.326L52.1594 187.278L52.0722 187.23L51.985 187.181L51.8979 187.133L51.8108 187.084L51.7237 187.035L51.6585 187L51.6026 186.971L51.5157 186.922L51.4288 186.873L51.342 186.824L51.2552 186.774L51.1684 186.725L51.0818 186.676L50.9952 186.626L50.9277 186.589L50.8746 186.561L50.7881 186.511L50.7016 186.462L50.6152 186.412L50.5288 186.362L50.4425 186.312L50.3562 186.262L50.27 186.211L50.2003 186.172L50.1499 186.145L50.0638 186.095L49.9778 186.044L49.8918 185.994L49.8058 185.943L49.7199 185.892L49.6341 185.841L49.5483 185.79L49.4764 185.749L49.4288 185.723L49.3431 185.672L49.2575 185.621L49.1718 185.57L49.0863 185.518L49.0009 185.467L48.9154 185.415L48.83 185.364L48.756 185.32L48.7111 185.295L48.6258 185.243L48.5406 185.191L48.4555 185.14L48.3703 185.087L48.2853 185.035L48.2003 184.983L48.1153 184.931L48.0392 184.884L47.997 184.861L47.9122 184.809L47.8274 184.756L47.7426 184.704L47.658 184.651L47.5733 184.598L47.4888 184.545L47.4043 184.492L47.3261 184.443L47.2865 184.422L47.2021 184.368L47.1177 184.315L47.0335 184.262L46.9492 184.208L46.865 184.155L46.7809 184.101L46.6968 184.047L46.6166 183.996L46.5796 183.976L46.4957 183.922L46.4118 183.868L46.3279 183.814L46.2442 183.76L46.1604 183.706L46.0767 183.651L45.9931 183.597L45.9108 183.543L45.8765 183.524L45.793 183.47L45.7096 183.415L45.6261 183.36L45.5428 183.306L45.4595 183.251L45.3763 183.196L45.2931 183.14L45.2099 183.085L45.176 183.066L45.094 183.012L45.0111 182.956L44.9281 182.901L44.8452 182.845L44.7624 182.79L44.6796 182.734L44.5968 182.678L44.5142 182.622L44.4781 182.601L44.3989 182.548L44.3163 182.492L44.2339 182.436L44.1514 182.38L44.0691 182.323L43.9868 182.267L43.9045 182.21L43.8223 182.154L43.7839 182.131L43.7076 182.078L43.6255 182.022L43.5435 181.965L43.4616 181.908L43.3796 181.851L43.2978 181.794L43.216 181.737L43.1342 181.68L43.0937 181.654L43.0202 181.603L42.9386 181.546L42.857 181.488L42.7755 181.431L42.6941 181.373L42.6127 181.315L42.5314 181.257L42.4501 181.2L42.4075 181.172L42.3367 181.122L42.2556 181.064L42.1745 181.006L42.0935 180.948L42.0126 180.889L41.9316 180.831L41.8508 180.772L41.77 180.714L41.7252 180.684L41.6573 180.636L41.5766 180.577L41.496 180.518L41.4155 180.459L41.335 180.4L41.2546 180.341L41.1742 180.282L41.0939 180.223L41.0471 180.191L40.9818 180.143L40.9016 180.084L40.8215 180.025L40.7415 179.965L40.6615 179.905L40.5816 179.846L40.5017 179.786L40.4218 179.726L40.373 179.691L40.3105 179.646L40.2308 179.586L40.1511 179.525L40.0716 179.465L39.9921 179.405L39.9126 179.344L39.8333 179.284L39.7539 179.223L39.703 179.187L39.6432 179.142L39.564 179.082L39.4849 179.021L39.4059 178.96L39.3268 178.899L39.2478 178.838L39.169 178.777L39.0902 178.716L39.0373 178.676L38.9801 178.634L38.9014 178.572L38.8228 178.511L38.7442 178.449L38.6657 178.387L38.5873 178.326L38.5089 178.264L38.4306 178.202L38.3758 178.161L38.3212 178.119L38.243 178.057L38.165 177.995L38.0869 177.933L38.0089 177.871L37.931 177.808L37.8531 177.746L37.7753 177.683L37.7186 177.639L37.6666 177.6L37.5889 177.537L37.5113 177.474L37.4338 177.411L37.3563 177.348L37.2789 177.285L37.2015 177.222L37.1242 177.159L37.0657 177.113L37.0163 177.074L36.9391 177.011L36.862 176.948L36.785 176.884L36.7081 176.821L36.6311 176.757L36.5543 176.693L36.4775 176.63L36.4171 176.581L36.3703 176.544L36.2937 176.48L36.2171 176.416L36.1406 176.352L36.0642 176.288L35.9878 176.223L35.9115 176.159L35.8353 176.095L35.773 176.043L35.7287 176.008L35.6526 175.943L35.5766 175.879L35.5005 175.814L35.4247 175.749L35.3488 175.684L35.273 175.619L35.1974 175.554L35.1334 175.5L35.0915 175.467L35.0159 175.402L34.9404 175.336L34.865 175.271L34.7896 175.206L34.7143 175.14L34.6391 175.075L34.5639 175.009L34.4982 174.952L34.4588 174.921L34.3838 174.855L34.3088 174.789L34.2339 174.723L34.1591 174.657L34.0843 174.591L34.0096 174.524L33.9349 174.458L33.8676 174.399L33.8306 174.369L33.7561 174.303L33.6817 174.236L33.6074 174.169L33.5331 174.103L33.4588 174.036L33.3847 173.969L33.3106 173.902L33.2415 173.84L33.2069 173.812L33.133 173.745L33.0592 173.678L32.9853 173.611L32.9116 173.544L32.8379 173.476L32.7643 173.409L32.6908 173.341L32.6201 173.277L32.5879 173.251L32.5145 173.183L32.4412 173.115L32.3679 173.047L32.2948 172.979L32.2217 172.911L32.1486 172.843L32.0756 172.775L32.0034 172.708L31.9735 172.684L31.9006 172.615L31.828 172.547L31.7553 172.478L31.6826 172.41L31.6101 172.341L31.5376 172.273L31.4651 172.204L31.3928 172.135L31.3625 172.11L31.2915 172.043L31.2193 171.974L31.1472 171.905L31.0751 171.836L31.0032 171.766L30.9313 171.697L30.8594 171.628L30.7876 171.559L30.7554 171.531L30.6871 171.465L30.6155 171.395L30.5439 171.326L30.4724 171.256L30.401 171.186L30.3296 171.117L30.2584 171.047L30.1871 170.977L30.1531 170.947L30.0875 170.882L30.0164 170.812L29.9454 170.742L29.8745 170.672L29.8036 170.602L29.7328 170.531L29.6622 170.461L29.5915 170.39L29.5557 170.357L29.4926 170.295L29.4221 170.224L29.3517 170.153L29.2814 170.083L29.2111 170.012L29.1409 169.941L29.0708 169.87L29.0007 169.798L28.9632 169.763L28.9026 169.702L28.8327 169.631L28.7629 169.56L28.6931 169.488L28.6234 169.417L28.5538 169.345L28.4842 169.274L28.4148 169.202L28.3756 169.164L28.3175 169.105L28.2482 169.033L28.179 168.961L28.1098 168.889L28.0406 168.817L27.9717 168.745L27.9027 168.673L27.8338 168.601L27.7929 168.56L27.7373 168.503L27.6686 168.431L27.5999 168.358L27.5314 168.286L27.4629 168.213L27.3944 168.14L27.3261 168.067L27.2578 167.995L27.2153 167.952L27.1621 167.896L27.094 167.823L27.0259 167.75L26.958 167.677L26.8901 167.604L26.8222 167.531L26.7545 167.457L26.6868 167.384L26.6427 167.338L26.5919 167.285L26.5244 167.211L26.457 167.137L26.3896 167.064L26.3223 166.99L26.2551 166.916L26.1879 166.842L26.1208 166.768L26.0752 166.72L26.0268 166.668L25.9599 166.594L25.8931 166.52L25.8263 166.446L25.7596 166.371L25.693 166.297L25.6264 166.223L25.5599 166.148L25.5128 166.097L25.4668 166.047L25.4004 165.973L25.3342 165.898L25.2681 165.823L25.202 165.748L25.136 165.673L25.07 165.598L25.0042 165.523L24.9556 165.47L24.9119 165.422L24.8462 165.347L24.7805 165.271L24.715 165.196L24.6495 165.121L24.5841 165.045L24.5188 164.97L24.4536 164.894L24.4036 164.838L24.3621 164.792L24.2971 164.716L24.232 164.64L24.1671 164.564L24.1023 164.488L24.0375 164.412L23.9728 164.336L23.9082 164.26L23.8568 164.201L23.8176 164.157L23.7531 164.081L23.6887 164.004L23.6244 163.928L23.5603 163.851L23.4961 163.775L23.432 163.698L23.368 163.622L23.3153 163.56L23.2783 163.518L23.2144 163.441L23.1507 163.364L23.0871 163.287L23.0235 163.21L22.96 163.133L22.8965 163.056L22.8332 162.979L22.7792 162.914L22.7443 162.874L22.6811 162.797L22.618 162.72L22.555 162.642L22.492 162.565L22.4291 162.487L22.3664 162.409L22.3036 162.332L22.2484 162.264L22.2156 162.226L22.1531 162.148L22.0906 162.07L22.0282 161.992L21.9659 161.914L21.9036 161.836L21.8415 161.758L21.7794 161.68L21.723 161.609L21.6923 161.574L21.6304 161.496L21.5686 161.417L21.5068 161.339L21.4452 161.26L21.3836 161.181L21.3221 161.103L21.2606 161.024L21.203 160.951L21.1744 160.917L21.1131 160.838L21.052 160.759L20.9909 160.68L20.9298 160.601L20.8689 160.522L20.808 160.443L20.7472 160.364L20.6885 160.287L20.6619 160.256L20.6013 160.177L20.5408 160.097L20.4804 160.018L20.42 159.938L20.3597 159.859L20.2995 159.779L20.2393 159.699L20.1795 159.62L20.1549 159.591L20.095 159.511L20.0351 159.431L19.9753 159.351L19.9156 159.271L19.8559 159.191L19.7964 159.111L19.7369 159.031L19.6775 158.95L19.6519 158.92L19.5941 158.841L19.5349 158.761L19.4758 158.681L19.4168 158.6L19.3578 158.519L19.2989 158.439L19.2401 158.358L19.1814 158.277L19.1543 158.244L19.0989 158.167L19.0403 158.087L18.9818 158.006L18.9235 157.924L18.8652 157.843L18.8069 157.762L18.7488 157.681L18.6908 157.6L18.6624 157.564L18.6091 157.489L18.5513 157.408L18.4935 157.327L18.4358 157.245L18.3782 157.163L18.3206 157.082L18.2632 157L18.2058 156.918L18.1761 156.879L18.1251 156.807L18.0679 156.725L18.0108 156.643L17.9538 156.561L17.8968 156.479L17.84 156.397L17.7832 156.315L17.7264 156.233L17.6955 156.191L17.6467 156.121L17.5902 156.039L17.5338 155.956L17.4774 155.874L17.4211 155.791L17.365 155.709L17.3089 155.626L17.2528 155.544L17.2206 155.499L17.1741 155.431L17.1182 155.348L17.0624 155.265L17.0068 155.182L16.9512 155.1L16.8957 155.016L16.8403 154.933L16.7849 154.85L16.7515 154.803L16.7071 154.737L16.6519 154.654L16.5969 154.57L16.5419 154.487L16.487 154.404L16.4322 154.32L16.3774 154.237L16.3228 154.153L16.2882 154.103L16.2459 154.039L16.1914 153.956L16.1371 153.872L16.0827 153.788L16.0286 153.704L15.9744 153.62L15.9203 153.536L15.8664 153.452L15.8308 153.399L15.7905 153.338L15.7367 153.253L15.6831 153.169L15.6295 153.085L15.5759 153.001L15.5225 152.916L15.4692 152.832L15.4159 152.747L15.3792 152.691L15.341 152.632L15.2879 152.548L15.2349 152.463L15.182 152.378L15.1292 152.293L15.0765 152.208L15.0238 152.124L14.9713 152.039L14.9336 151.98L14.8973 151.923L14.8449 151.838L14.7926 151.753L14.7405 151.668L14.6884 151.582L14.6363 151.497L14.5844 151.412L14.5326 151.326L14.4938 151.264L14.4595 151.21L14.4079 151.125L14.3563 151.039L14.3048 150.953L14.2534 150.868L14.2021 150.782L14.1509 150.696L14.0997 150.611L14.0601 150.546L14.0277 150.494L13.9767 150.408L13.9259 150.322L13.8751 150.236L13.8244 150.15L13.7738 150.063L13.7233 149.977L13.6729 149.891L13.6324 149.823L13.6019 149.774L13.5516 149.687L13.5015 149.601L13.4514 149.514L13.4014 149.428L13.3516 149.341L13.3018 149.255L13.252 149.168L13.2108 149.097L13.182 149.05L13.1325 148.963L13.0831 148.876L13.0338 148.79L12.9845 148.703L12.9353 148.616L12.8863 148.529L12.8373 148.442L12.7952 148.368L12.7682 148.323L12.7195 148.236L12.6708 148.148L12.6221 148.061L12.5736 147.974L12.5252 147.886L12.4768 147.799L12.4286 147.712L12.3857 147.635L12.3605 147.592L12.3125 147.505L12.2645 147.417L12.2166 147.329L12.1688 147.242L12.1211 147.154L12.0735 147.066L12.026 146.978L11.9825 146.898L11.959 146.858L11.9116 146.77L11.8644 146.682L11.8172 146.594L11.7701 146.506L11.7232 146.418L11.6763 146.33L11.6295 146.242L11.5853 146.158L11.5635 146.121L11.5169 146.033L11.4704 145.944L11.424 145.856L11.3776 145.767L11.3314 145.679L11.2853 145.59L11.2392 145.502L11.1944 145.415L11.1742 145.381L11.1284 145.292L11.0826 145.203L11.0369 145.114L10.9914 145.025L10.9458 144.936L10.9004 144.847L10.8551 144.758L10.8098 144.669L10.791 144.637L10.7461 144.548L10.701 144.458L10.656 144.369L10.6113 144.28L10.5665 144.191L10.5218 144.101L10.4773 144.012L10.4327 143.922L10.413 143.887L10.3699 143.8L10.3257 143.711L10.2815 143.621L10.2374 143.531L10.1934 143.442L10.1495 143.352L10.1056 143.262L10.0619 143.172L10.0412 143.134L10.0001 143.05L9.95661 142.96L9.9132 142.87L9.8698 142.78L9.82657 142.69L9.78343 142.6L9.74029 142.51L9.69735 142.419L9.67582 142.378L9.63663 142.296L9.59382 142.206L9.5512 142.115L9.50858 142.025L9.46606 141.935L9.42369 141.844L9.38133 141.754L9.3391 141.663L9.31674 141.619L9.27945 141.539L9.23744 141.449L9.19551 141.358L9.15367 141.267L9.11193 141.177L9.07028 141.086L9.02871 140.995L8.98722 140.904L8.96409 140.857L8.92863 140.78L8.88741 140.689L8.8462 140.598L8.80514 140.507L8.76419 140.416L8.72323 140.324L8.68247 140.233L8.64178 140.142L8.61788 140.092L8.58418 140.017L8.54376 139.926L8.50332 139.834L8.46298 139.743L8.42282 139.652L8.38266 139.56L8.34262 139.469L8.30272 139.377L8.27814 139.324L8.24622 139.252L8.20649 139.16L8.16686 139.068L8.12731 138.977L8.08786 138.885L8.0485 138.793L8.00923 138.701L7.97007 138.609L7.94489 138.553L7.9147 138.483L7.87569 138.391L7.83684 138.299L7.79811 138.207L7.75937 138.115L7.72082 138.023L7.68235 137.931L7.64388 137.839L7.61814 137.779L7.58962 137.712L7.55142 137.62L7.5133 137.528L7.47536 137.435L7.43742 137.343L7.3996 137.25L7.36192 137.158L7.32425 137.065L7.29798 137.003L7.27103 136.939L7.23363 136.846L7.19632 136.753L7.1591 136.66L7.12197 136.568L7.08493 136.475L7.04801 136.382L7.01116 136.289L6.98438 136.224L6.95898 136.162L6.92237 136.069L6.88587 135.976L6.84937 135.883L6.81306 135.79L6.77683 135.697L6.74061 135.604L6.70461 135.511L6.67738 135.442L6.65353 135.383L6.61766 135.29L6.58196 135.196L6.54628 135.103L6.5107 135.01L6.47529 134.916L6.43987 134.823L6.4046 134.729L6.377 134.658L6.35464 134.601L6.31959 134.508L6.28463 134.414L6.24977 134.321L6.21499 134.227L6.18031 134.133L6.14574 134.039L6.11123 133.946L6.08326 133.871L6.06237 133.817L6.02814 133.723L5.9939 133.629L5.95986 133.535L5.92591 133.442L5.89194 133.348L5.8582 133.253L5.82452 133.159L5.7962 133.082L5.7767 133.031L5.74329 132.936L5.70987 132.842L5.67658 132.748L5.64343 132.654L5.61029 132.559L5.57731 132.465L5.54444 132.371L5.51588 132.29L5.49777 132.242L5.46507 132.147L5.4325 132.053L5.40001 131.958L5.36762 131.864L5.33534 131.769L5.30311 131.674L5.27101 131.58L5.24232 131.496L5.22551 131.45L5.19357 131.355L5.16182 131.261L5.13015 131.166L5.09848 131.071L5.06705 130.976L5.03565 130.881L5.00426 130.787L4.97547 130.699L4.95993 130.656L4.92881 130.562L4.89781 130.467L4.86698 130.371L4.83615 130.276L4.80545 130.181L4.77488 130.086L4.74434 129.991L4.71539 129.901L4.70105 129.861L4.6708 129.765L4.64061 129.67L4.6105 129.575L4.58055 129.479L4.55064 129.384L4.52083 129.289L4.49116 129.193L4.46212 129.1L4.44894 129.063L4.41951 128.967L4.39016 128.871L4.3608 128.776L4.33169 128.68L4.30261 128.585L4.27353 128.489L4.24473 128.393L4.21593 128.298L4.20345 128.262L4.17498 128.167L4.14646 128.071L4.11797 127.975L4.08958 127.879L4.06134 127.783L4.03314 127.687L4.00506 127.592L3.97709 127.496L3.9642 127.456L3.93732 127.364L3.90953 127.268L3.88192 127.172L3.85434 127.076L3.82686 126.98L3.79953 126.884L3.77223 126.788L3.74504 126.691L3.73179 126.649L3.70646 126.56L3.67945 126.463L3.65266 126.367L3.62592 126.271L3.5992 126.174L3.57272 126.078L3.54626 125.982L3.51984 125.885L3.50624 125.84L3.48241 125.753L3.45628 125.657L3.43023 125.56L3.40433 125.464L3.37849 125.367L3.35274 125.27L3.32712 125.174L3.30158 125.077L3.28767 125.029L3.2652 124.945L3.23995 124.848L3.21471 124.751L3.18957 124.655L3.16461 124.558L3.13967 124.461L3.11483 124.364L3.09016 124.267L3.07599 124.216L3.05491 124.135L3.03047 124.038L3.00608 123.941L2.98174 123.844L2.95759 123.747L2.93349 123.65L2.90945 123.553L2.88561 123.456L2.87123 123.401L2.85156 123.323L2.82785 123.225L2.80431 123.128L2.78086 123.031L2.75745 122.934L2.73419 122.837L2.71104 122.74L2.68793 122.642L2.67342 122.585L2.6551 122.509L2.63223 122.412L2.60946 122.314L2.58687 122.217L2.56428 122.12L2.54183 122.022L2.51953 121.925L2.49723 121.827L2.48264 121.767L2.46554 121.694L2.44351 121.596L2.42157 121.499L2.39978 121.401L2.37805 121.303L2.35641 121.206L2.33492 121.108L2.31348 121.011L2.29884 120.947L2.28289 120.877L2.26173 120.779L2.24067 120.681L2.21962 120.584L2.19877 120.486L2.17799 120.388L2.15724 120.29L2.1367 120.192L2.12206 120.126L2.10729 120.058L2.0869 119.96L2.0667 119.862L2.0465 119.765L2.02644 119.667L2.00652 119.569L1.9866 119.471L1.96686 119.373L1.95228 119.303L1.93862 119.238L1.9191 119.14L1.89968 119.042L1.88035 118.944L1.86111 118.846L1.84199 118.748L1.82296 118.65L1.80401 118.552L1.78951 118.479L1.77696 118.417L1.75829 118.319L1.73963 118.22L1.72118 118.122L1.7028 118.024L1.68442 117.926L1.6663 117.827L1.6482 117.729L1.63379 117.653L1.62227 117.594L1.60446 117.496L1.58666 117.397L1.56899 117.299L1.55147 117.201L1.53397 117.102L1.51661 117.004L1.49938 116.905L1.48519 116.826L1.47466 116.77L1.4576 116.672L1.44071 116.573L1.42387 116.475L1.40712 116.376L1.39053 116.277L1.37398 116.179L1.35754 116.08L1.34366 115.998L1.33405 115.945L1.31779 115.846L1.30175 115.748L1.28577 115.649L1.26981 115.55L1.25408 115.451L1.2384 115.353L1.22274 115.254L1.20917 115.169L1.20044 115.118L1.18508 115.02L1.16979 114.921L1.15468 114.822L1.13963 114.723L1.12464 114.624L1.10981 114.525L1.09507 114.427L1.08177 114.338L1.07384 114.291L1.05939 114.192L1.04497 114.093L1.03059 113.994L1.01646 113.895L1.00232 113.796L0.988268 113.697L0.974419 113.598L0.961495 113.507L0.954377 113.462L0.940724 113.363L0.927164 113.264L0.913654 113.165L0.900308 113.066L0.887037 112.967L0.873826 112.868L0.860788 112.769L0.848327 112.674L0.84199 112.633L0.829119 112.533L0.816385 112.434L0.803788 112.335L0.791204 112.236L0.778783 112.137L0.766488 112.038L0.754193 111.938L0.742261 111.841L0.736634 111.802L0.724629 111.703L0.712672 111.604L0.700957 111.504L0.689242 111.405L0.677605 111.306L0.66618 111.206L0.654755 111.107L0.643442 111.008L0.638175 110.969L0.627177 110.871L0.616128 110.772L0.605158 110.672L0.594314 110.573L0.583572 110.474L0.57291 110.374L0.562364 110.275L0.551917 110.175L0.546722 110.134L0.536788 110.039L0.526632 109.939L0.516475 109.84L0.50647 109.741L0.4966 109.641L0.486734 109.542L0.477052 109.442L0.467475 109.343L0.462397 109.298L0.453506 109.206L0.444177 109.106L0.43489 109.007L0.4257 108.907L0.416678 108.808L0.407684 108.708L0.398799 108.608L0.39008 108.509L0.385194 108.461L0.377362 108.372L0.36877 108.272L0.360389 108.173L0.352084 108.073L0.343797 107.973L0.335723 107.874L0.327708 107.774L0.319729 107.675L0.315119 107.624L0.308261 107.538L0.300535 107.438L0.292947 107.338L0.285513 107.239L0.278079 107.139L0.270812 107.039L0.263668 106.939L0.256534 106.84L0.252218 106.786L0.246209 106.703L0.239382 106.603L0.232639 106.503L0.22599 106.403L0.21947 106.304L0.213018 106.204L0.206673 106.104L0.200462 106.004L0.196451 105.947L0.191262 105.867L0.185297 105.767L0.179427 105.667L0.173557 105.568L0.167914 105.468L0.162335 105.368L0.156755 105.268L0.151433 105.168L0.147798 105.109L0.143453 105.031L0.138275 104.931L0.133258 104.831L0.128294 104.732L0.123407 104.632L0.118693 104.532L0.114037 104.432L0.109448 104.332L0.106239 104.269L0.102722 104.195L0.0984163 104.095L0.0941312 103.995L0.0900892 103.895L0.0860748 103.795L0.0820931 103.695L0.0783582 103.595L0.0746345 103.496L0.0718517 103.43L0.0690293 103.358L0.0655959 103.258L0.0621863 103.158L0.0589216 103.058L0.055779 102.959L0.0526768 102.859L0.0497155 102.759L0.0468637 102.659L0.0446335 102.59L0.0424684 102.521L0.0398096 102.421L0.0373218 102.321L0.0348717 102.221L0.0325159 102.122L0.0303353 102.022L0.0281756 101.922L0.0261227 101.822L0.0245183 101.75L0.0229811 101.684L0.0211248 101.584L0.0194844 101.484L0.0179063 101.384L0.016357 101.284L0.015019 101.184L0.0137317 101.084L0.0124895 100.984L0.0114869 100.909L0.0105062 100.847L0.00955667 100.747L0.00870748 100.647L0.00797023 100.547L0.00731081 100.447L0.00676337 100.347L0.00631192 100.247L0.00595467 100.147L0.00558915 100.069L0.00511481 100.01L0.00505995 99.9097L0.00500488 99.8097L0.00509544 99.7097L0.00532643 99.6097L0.00555733 99.5097L0.00597503 99.4097L0.00649186 99.3098L0.00677318 99.2287L0.00679201 99.1723L0.00759478 99.0723L0.00839754 98.9723L0.00929517 98.8723L0.0103838 98.7724L0.0114727 98.6724L0.0126984 98.5724L0.0140734 98.4724L0.0151136 98.3884L0.0156082 98.335L0.0171748 98.235L0.0188386 98.135L0.0206111 98.0351L0.0224896 97.9351L0.0244504 97.8351L0.0264779 97.7352L0.0287186 97.6352L0.0306312 97.5482L0.0314794 97.4978L0.03388 97.3978L0.0364392 97.2979L0.0390523 97.1979L0.0417455 97.098L0.0446059 96.998L0.0475261 96.8981L0.050529 96.7981L0.0532956 96.7081L0.054534 96.6607L0.057785 96.5608L0.061098 96.4609L0.064633 96.3609L0.0681672 96.261L0.071814 96.1611L0.0756312 96.0612L0.0794487 95.9613L0.0831158 95.8683L0.08464 95.8239L0.0887414 95.724L0.0929147 95.6241L0.0972653 95.5242L0.101649 95.4243L0.106131 95.3244L0.110792 95.2246L0.115472 95.1247L0.120062 95.0287L0.121801 94.9874L0.126789 94.8875L0.131848 94.7876L0.136955 94.6878L0.14225 94.5879L0.147594 94.4881L0.15301 94.3883L0.158612 94.2884L0.164185 94.1895L0.166098 94.1511L0.171932 94.0513L0.177843 93.9515L0.183776 93.8517L0.189923 93.7519L0.196118 93.6521L0.20236 93.5523L0.208817 93.4525L0.215295 93.3528L0.21769 93.3133L0.224138 93.2156L0.230901 93.1158L0.237757 93.0161L0.244661 92.9163L0.251716 92.8166L0.258869 92.7169L0.266084 92.6171L0.273448 92.5174L0.276453 92.4749L0.283498 92.3803L0.291082 92.2806L0.298801 92.1809L0.306521 92.0812L0.314442 91.9815L0.322445 91.8819L0.330449 91.7822L0.338704 91.6826L0.342333 91.6371L0.349947 91.5455L0.358344 91.4459L0.366912 91.3463L0.375527 91.2467L0.384232 91.1471L0.393086 91.0475L0.402011 90.9479L0.411026 90.8483L0.415328 90.7999L0.423515 90.7114L0.432759 90.6118L0.442094 90.5123L0.451623 90.4128L0.461155 90.3132L0.470824 90.2137L0.480637 90.1142L0.490449 90.0147L0.495522 89.9633L0.504143 89.8779L0.514241 89.7784L0.524415 89.6789L0.534784 89.5795L0.545164 89.4801L0.555664 89.3806L0.566327 89.2812L0.577008 89.1818L0.582883 89.1275L0.591837 89.0451L0.602825 88.9457L0.613879 88.8463L0.625011 88.7469L0.636302 88.6476L0.647639 88.5483L0.659081 88.4489L0.670678 88.3496L0.677359 88.2924L0.686635 88.2131L0.698498 88.1138L0.710399 88.0145L0.722328 87.9153L0.734501 87.816L0.746685 87.7168L0.758937 87.6175L0.771406 87.5183L0.778954 87.4582L0.788603 87.3819L0.801224 87.2827L0.813975 87.1836L0.826823 87.0844L0.839756 86.9852L0.852801 86.8861L0.865943 86.787L0.879185 86.6879L0.887685 86.6248L0.897622 86.5517L0.911047 86.4526L0.924659 86.3535L0.938365 86.2545L0.952072 86.1554L0.966017 86.0564L0.98001 85.9574L0.994013 85.8584L1.00355 85.7925L1.01368 85.7223L1.02798 85.6234L1.0424 85.5244L1.05695 85.4255L1.07155 85.3266L1.08628 85.2277L1.10111 85.1288L1.11601 85.03L1.12654 84.9611L1.13679 84.894L1.15199 84.7952L1.16722 84.6964L1.18257 84.5976L1.19808 84.4988L1.21359 84.4L1.22929 84.3013L1.24507 84.2026L1.25661 84.1308L1.26697 84.0668L1.28304 83.9681L1.29911 83.8695L1.3153 83.7708L1.33165 83.6721L1.348 83.5735L1.36452 83.4749L1.38115 83.3763L1.3938 83.3017L1.40427 83.2408L1.42111 83.1422L1.43806 83.0437L1.45508 82.9452L1.47223 82.8467L1.48948 82.7481L1.50679 82.6497L1.52425 82.5512L1.53812 82.4738L1.54859 82.4159L1.56619 82.3175L1.58404 82.2191L1.60191 82.1207L1.61983 82.0224L1.63798 81.9241L1.65613 81.8257L1.67438 81.7274L1.68949 81.6472L1.69992 81.5923L1.7184 81.4941L1.73704 81.3958L1.75575 81.2976L1.77453 81.1994L1.79348 81.1012L1.81247 81.003L1.83156 80.9049L1.84791 80.8218L1.85826 80.77L1.87764 80.6719L1.89703 80.5739L1.91662 80.4758L1.93627 80.3778L1.95597 80.2797L1.97586 80.1818L1.99579 80.0838L2.01338 79.9979L2.02363 79.9491L2.04384 79.8512L2.06406 79.7533L2.08448 79.6554L2.10497 79.5576L2.12549 79.4597L2.14622 79.3619L2.167 79.2641L2.18591 79.1754L2.19597 79.1297L2.21702 79.0319L2.23813 78.9342L2.25931 78.8365L2.28064 78.7388L2.30206 78.6411L2.32354 78.5435L2.34516 78.4459L2.36553 78.3544L2.37536 78.3117L2.39716 78.2142L2.41916 78.1166L2.44116 78.0191L2.4633 77.9216L2.48558 77.8241L2.50785 77.7266L2.53032 77.6292L2.55214 77.535L2.56167 77.4954L2.5843 77.398L2.60713 77.3006L2.62996 77.2033L2.65292 77.1059L2.67603 77.0087L2.69915 76.9114L2.72242 76.8141L2.74573 76.7173L2.75496 76.6806L2.77845 76.5834L2.80202 76.4862L2.82574 76.3891L2.84951 76.292L2.87339 76.1949L2.89741 76.0978L2.92146 76.0008L2.94565 75.9038L2.95581 75.8649L2.9795 75.7705L3.00383 75.6736L3.02843 75.5766L3.05304 75.4797L3.0777 75.3828L3.10257 75.286L3.12746 75.1891L3.15244 75.0923L3.16367 75.0507L3.18744 74.9594L3.21267 74.8626L3.23801 74.7659L3.26344 74.6692L3.28897 74.5726L3.31462 74.4759L3.34033 74.3793L3.36614 74.2827L3.37849 74.2382L3.40228 74.1501L3.42837 74.0535L3.45446 73.957L3.48077 73.8606L3.50713 73.7641L3.53352 73.6677L3.56013 73.5713L3.58676 73.475L3.60027 73.4276L3.62401 73.3426L3.65093 73.2463L3.67785 73.15L3.70495 73.0538L3.73215 72.9576L3.75936 72.8614L3.78677 72.7652L3.81423 72.6691L3.82897 72.619L3.85261 72.5371L3.88033 72.441L3.90813 72.3449L3.93597 72.2489L3.96399 72.1529L3.99208 72.057L4.02023 71.961L4.04852 71.8652L4.06457 71.8123L4.08809 71.7335L4.11655 71.6377L4.14522 71.5419L4.17389 71.4461L4.20268 71.3503L4.23161 71.2546L4.26055 71.159L4.28966 71.0633L4.30702 71.0078L4.33036 70.932L4.35965 70.8364L4.38911 70.7408L4.41859 70.6453L4.44817 70.5498L4.47793 70.4544L4.50769 70.3589L4.53758 70.2635L4.5563 70.2052L4.57943 70.1326L4.60957 70.0372L4.63976 69.9419L4.67011 69.8466L4.70052 69.7514L4.73101 69.6562L4.76164 69.561L4.79232 69.4659L4.81242 69.4049L4.8353 69.3353L4.86625 69.2402L4.89719 69.1452L4.92838 69.0502L4.95961 68.9552L4.99085 68.8602L5.02234 68.7653L5.05383 68.6704L5.07537 68.6068L5.0979 68.5402L5.12966 68.4454L5.16147 68.3506L5.19339 68.2559L5.22543 68.1612L5.25753 68.0665L5.28975 67.9719L5.32205 67.8773L5.34512 67.8109L5.36726 67.7474L5.39978 67.6529L5.43245 67.5584L5.46513 67.4639L5.49797 67.3695L5.53091 67.2751L5.56386 67.1807L5.59701 67.0864L5.62162 67.0174L5.64334 66.957L5.67663 66.8627L5.71012 66.7685L5.74361 66.6743L5.77722 66.5801L5.81097 66.486L5.84472 66.3919L5.87865 66.2979L5.90485 66.2263L5.92609 66.1688L5.96021 66.0749L5.99445 65.9809L6.02876 65.887L6.06315 65.7932L6.09769 65.6993L6.13228 65.6055L6.16694 65.5118L6.19476 65.4376L6.21553 65.3832L6.25046 65.2895L6.28542 65.1958L6.32058 65.1022L6.35578 65.0087L6.39103 64.9151L6.42647 64.8216L6.46194 64.7282L6.49138 64.6513L6.5116 64.5999L6.54733 64.5066L6.58307 64.4132L6.61901 64.3199L6.655 64.2267L6.69104 64.1334L6.72727 64.0402L6.76353 63.9471L6.79467 63.8677L6.81425 63.8193L6.85077 63.7262L6.88737 63.6332L6.92402 63.5402L6.96081 63.4472L6.99768 63.3543L7.03463 63.2614L7.07169 63.1686L7.10463 63.0867L7.12355 63.0413L7.1608 62.9485L7.19822 62.8558L7.23564 62.7631L7.2732 62.6704L7.31089 62.5778L7.34857 62.4852L7.38643 62.3927L7.42119 62.3083L7.43939 62.2658L7.4774 62.1734L7.51562 62.081L7.55383 61.9886L7.59213 61.8963L7.63061 61.804L7.66909 61.7117L7.70772 61.6195L7.74431 61.5327L7.76175 61.4931L7.80059 61.401L7.8395 61.309L7.87852 61.2169L7.91763 61.1249L7.95683 61.0329L7.99614 60.941L8.0355 60.8491L8.07397 60.7598L8.09064 60.7232L8.13026 60.6314L8.1699 60.5396L8.20973 60.4479L8.24962 60.3563L8.28953 60.2646L8.32966 60.173L8.36982 60.0815L8.41001 59.99L8.4261 59.9558L8.46639 59.8646L8.50681 59.7732L8.54739 59.6818L8.58807 59.5905L8.62876 59.4992L8.66963 59.4079L8.71056 59.3167L8.75153 59.2255L8.76911 59.1887L8.80894 59.1007L8.85019 59.0096L8.89148 58.9185L8.93292 58.8276L8.97444 58.7366L9.016 58.6457L9.05771 58.5549L9.0995 58.4641L9.1186 58.4246L9.15789 58.3396L9.19996 58.2489L9.24203 58.1582L9.28417 58.0676L9.3265 57.977L9.36882 57.8864L9.41126 57.7959L9.45383 57.7055L9.47452 57.6635L9.51331 57.5815L9.5561 57.4912L9.59894 57.4009L9.64184 57.3106L9.68492 57.2204L9.72801 57.1302L9.77119 57.04L9.81454 56.9499L9.83683 56.9054L9.8751 56.8265L9.91857 56.7365L9.96218 56.6466L10.0059 56.5567L10.0497 56.4668L10.0935 56.377L10.1375 56.2872L10.1815 56.1974L10.2055 56.1504L10.2432 56.0746L10.2874 55.9849L10.3318 55.8954L10.3762 55.8058L10.4207 55.7163L10.4654 55.6269L10.5101 55.5375L10.5548 55.4481L10.5806 55.3985L10.6176 55.3257L10.6626 55.2365L10.7076 55.1473L10.7529 55.0581L10.7981 54.969L10.8435 54.8799L10.889 54.7909L10.9345 54.7019L10.962 54.6499L10.9982 54.5801L11.044 54.4912L11.0898 54.4024L11.1357 54.3136L11.1818 54.2249L11.2279 54.1362L11.2741 54.0475L11.3203 53.9589L11.3496 53.9045L11.385 53.8376L11.4316 53.7492L11.4782 53.6608L11.5248 53.5723L11.5716 53.484L11.6184 53.3957L11.6653 53.3074L11.7124 53.2192L11.7435 53.1624L11.7781 53.0985L11.8254 53.0104L11.8727 52.9224L11.9201 52.8344L11.9676 52.7464L12.0152 52.6585L12.0628 52.5707L12.1106 52.4829L12.1436 52.4236L12.1774 52.3627L12.2254 52.275L12.2735 52.1873L12.3216 52.0997L12.3698 52.0122L12.4181 51.9247L12.4665 51.8372L12.515 51.7498L12.5499 51.6882L12.5829 51.6303L12.6315 51.543L12.6803 51.4557L12.7292 51.3685L12.7781 51.2814L12.8272 51.1942L12.8763 51.1072L12.9255 51.0202L12.9623 50.9562L12.9944 50.9012L13.0438 50.8144L13.0933 50.7275L13.1429 50.6407L13.1926 50.554L13.2423 50.4673L13.2922 50.3806L13.3421 50.294L13.3809 50.2277L13.4119 50.1756L13.4621 50.0892L13.5123 50.0028L13.5626 49.9164L13.6131 49.8301L13.6635 49.7438L13.7141 49.6576L13.7648 49.5714L13.8056 49.5029L13.8356 49.4536L13.8864 49.3676L13.9374 49.2816L13.9884 49.1956L14.0395 49.1097L14.0908 49.0239L14.142 48.9381L14.1934 48.8523L14.2364 48.7815L14.2653 48.7352L14.3168 48.6495L14.3685 48.564L14.4202 48.4785L14.472 48.393L14.524 48.3076L14.576 48.2222L14.628 48.1369L14.6731 48.0639L14.7009 48.0203L14.7531 47.9352L14.8055 47.85L14.858 47.7649L14.9105 47.6799L14.9631 47.5949L15.0158 47.51L15.0686 47.4251L15.1158 47.3498L15.1424 47.3091L15.1954 47.2244L15.2485 47.1397L15.3016 47.0551L15.3549 46.9705L15.4082 46.8859L15.4616 46.8014L15.5151 46.717L15.5644 46.6396L15.5898 46.6017L15.6436 46.5174L15.6973 46.4331L15.7512 46.3489L15.8052 46.2648L15.8592 46.1807L15.9133 46.0967L15.9675 46.0127L16.019 45.9331L16.0432 45.898L16.0976 45.8141L16.1521 45.7303L16.2066 45.6466L16.2613 45.5629L16.316 45.4792L16.3708 45.3957L16.4257 45.3121L16.4795 45.2304L16.5024 45.1981L16.5575 45.1147L16.6126 45.0313L16.6679 44.9481L16.7232 44.8648L16.7787 44.7816L16.8342 44.6985L16.8897 44.6154L16.9454 44.5324L16.9679 44.5013L17.0231 44.4191L17.079 44.3362L17.135 44.2534L17.1909 44.1706L17.247 44.0879L17.3033 44.0053L17.3595 43.9226L17.4159 43.8401L17.4402 43.8067L17.4946 43.7274L17.5511 43.645L17.6077 43.5627L17.6644 43.4803L17.7212 43.3981L17.7781 43.3159L17.835 43.2338L17.892 43.1517L17.9184 43.1159L17.9717 43.0397L18.029 42.9578L18.0862 42.8759L18.1436 42.794L18.2011 42.7123L18.2586 42.6305L18.3163 42.5489L18.374 42.4673L18.4023 42.4293L18.4546 42.3559L18.5125 42.2745L18.5704 42.1931L18.6285 42.1117L18.6867 42.0305L18.7448 41.9492L18.8032 41.868L18.8616 41.7869L18.8919 41.7467L18.943 41.6763L19.0016 41.5953L19.0603 41.5143L19.119 41.4334L19.1778 41.3527L19.2367 41.2719L19.2957 41.1912L19.3547 41.1106L19.3872 41.0681L19.4372 41.0006L19.4964 40.9201L19.5557 40.8397L19.6151 40.7593L19.6746 40.679L19.7342 40.5987L19.7938 40.5185L19.8535 40.4384L19.888 40.3938L19.9369 40.3292L19.9968 40.2491L20.0568 40.1692L20.1168 40.0893L20.1769 40.0095L20.2372 39.9297L20.2975 39.85L20.3578 39.7703L20.3945 39.7236L20.4422 39.6618L20.5027 39.5823L20.5633 39.5028L20.6241 39.4235L20.6848 39.3442L20.7457 39.2649L20.8067 39.1857L20.8677 39.1065L20.9065 39.0577L20.9529 38.9987L21.0141 38.9197L21.0754 38.8408L21.1368 38.7619L21.1982 38.6831L21.2597 38.6043L21.3213 38.5256L21.383 38.447L21.4241 38.3961L21.4691 38.3399L21.531 38.2614L21.5929 38.183L21.6549 38.1046L21.717 38.0263L21.7792 37.948L21.8414 37.8698L21.9038 37.7917L21.9471 37.7388L21.9908 37.6854L22.0532 37.6074L22.1159 37.5295L22.1785 37.4516L22.2412 37.3738L22.3041 37.2961L22.3669 37.2184L22.4299 37.1408L22.4755 37.0859L22.5178 37.0352L22.5809 36.9577L22.6442 36.8803L22.7075 36.803L22.7708 36.7257L22.8343 36.6485L22.8978 36.5714L22.9614 36.4943L23.0093 36.4373L23.0502 36.3894L23.114 36.3125L23.1778 36.2356L23.2418 36.1588L23.3058 36.0821L23.3698 36.0053L23.434 35.9287L23.4983 35.8522L23.5485 35.7933L23.5879 35.748L23.6523 35.6717L23.7168 35.5953L23.7814 35.519L23.8461 35.4428L23.9107 35.3666L23.9755 35.2906L24.0404 35.2146L24.093 35.1537L24.1309 35.1111L24.1959 35.0353L24.2611 34.9595L24.3262 34.8837L24.3915 34.8081L24.4569 34.7324L24.5223 34.6569L24.5878 34.5814L24.6428 34.5187L24.6792 34.4788L24.7448 34.4034L24.8105 34.3282L24.8764 34.253L24.9422 34.1778L25.0082 34.1028L25.0743 34.0278L25.1403 33.9528L25.1978 33.8883L25.2326 33.851L25.2989 33.7762L25.3652 33.7014L25.4317 33.6268L25.4981 33.5522L25.5647 33.4777L25.6314 33.4033L25.6981 33.3288L25.7581 33.2625L25.7912 33.2278L25.8581 33.1535L25.925 33.0793L25.9921 33.0053L26.0592 32.9312L26.1264 32.8572L26.1937 32.7834L26.261 32.7095L26.3234 32.6414L26.3549 32.6092L26.4224 32.5355L26.49 32.4619L26.5576 32.3884L26.6253 32.3149L26.6931 32.2415L26.761 32.1681L26.8289 32.0948L26.894 32.025L26.9237 31.9953L26.9918 31.9222L27.06 31.8492L27.1282 31.7762L27.1966 31.7032L27.265 31.6304L27.3334 31.5576L27.4019 31.4849L27.4696 31.4134L27.4976 31.3862L27.5662 31.3136L27.635 31.2412L27.7039 31.1687L27.7728 31.0963L27.8418 31.0241L27.9109 30.9519L27.98 30.8797L28.0492 30.8076L28.0774 30.7807L28.1457 30.7098L28.2151 30.6379L28.2845 30.566L28.354 30.4943L28.4236 30.4225L28.4933 30.3509L28.563 30.2793L28.6328 30.2078L28.6632 30.1789L28.7301 30.1108L28.8001 30.0395L28.8701 29.9682L28.9402 29.897L29.0103 29.8258L29.0806 29.7548L29.1509 29.6838L29.2213 29.6128L29.254 29.582L29.3194 29.5167L29.39 29.4459L29.4605 29.3752L29.5313 29.3046L29.602 29.234L29.6728 29.1635L29.7437 29.0931L29.8147 29.0228L29.8498 28.9901L29.9136 28.9274L29.9847 28.8572L30.0559 28.7871L30.1272 28.7171L30.1985 28.6471L30.2699 28.5772L30.3414 28.5074L30.4129 28.4376L30.4504 28.4031L30.5126 28.3431L30.5843 28.2735L30.6561 28.204L30.7279 28.1345L30.7998 28.0652L30.8718 27.9959L30.9438 27.9266L31.0159 27.8574L31.0558 27.8211L31.1165 27.7638L31.1887 27.6947L31.2611 27.6258L31.3335 27.557L31.4059 27.4881L31.4785 27.4195L31.5511 27.3508L31.6237 27.2822L31.6661 27.2441L31.725 27.1894L31.7978 27.121L31.8708 27.0527L31.9437 26.9844L32.0167 26.9162L32.0899 26.8481L32.163 26.7801L32.2363 26.7121L32.281 26.6722L32.3383 26.6201L32.4117 26.5524L32.4851 26.4846L32.5587 26.417L32.6323 26.3494L32.7059 26.2819L32.7797 26.2144L32.8535 26.1471L32.9007 26.1055L32.9562 26.0559L33.0302 25.9888L33.1042 25.9217L33.1782 25.8546L33.2524 25.7876L33.3266 25.7208L33.4009 25.6539L33.4753 25.5872L33.5251 25.5439L33.5788 25.4969L33.6533 25.4303L33.7279 25.3638L33.8025 25.2974L33.8772 25.231L33.952 25.1648L34.0268 25.0985L34.1017 25.0324L34.154 24.9875L34.206 24.943L34.281 24.877L34.3561 24.8111L34.4313 24.7453L34.5065 24.6796L34.5818 24.6139L34.6572 24.5484L34.7326 24.4828L34.7876 24.4363L34.8377 24.3943L34.9133 24.329L34.9889 24.2637L35.0646 24.1985L35.1404 24.1334L35.2162 24.0683L35.2921 24.0034L35.3681 23.9385L35.4256 23.8904L35.4739 23.8508L35.55 23.7862L35.6262 23.7215L35.7024 23.6569L35.7787 23.5925L35.8551 23.528L35.9315 23.4637L36.008 23.3995L36.0682 23.3498L36.1145 23.3127L36.1912 23.2486L36.2678 23.1846L36.3446 23.1207L36.4215 23.0568L36.4983 22.993L36.5753 22.9293L36.6523 22.8657L36.7152 22.8146L36.7596 22.7799L36.8367 22.7164L36.914 22.653L36.9913 22.5897L37.0686 22.5265L37.146 22.4634L37.2235 22.4003L37.301 22.3373L37.3666 22.2848L37.409 22.2524L37.4867 22.1895L37.5645 22.1268L37.6423 22.0642L37.7201 22.0015L37.7981 21.939L37.8761 21.8766L37.9541 21.8143L38.0224 21.7603L38.0628 21.7302L38.141 21.6681L38.2193 21.6059L38.2976 21.544L38.376 21.482L38.4544 21.4201L38.533 21.3584L38.6115 21.2967L38.6825 21.2414L38.7208 21.2135L38.7996 21.152L38.8784 21.0906L38.9571 21.0292L39.0361 20.9679L39.115 20.9067L39.194 20.8456L39.2731 20.7845L39.3469 20.7279L39.3832 20.7023L39.4624 20.6414L39.5417 20.5807L39.621 20.5199L39.7004 20.4593L39.7799 20.3988L39.8594 20.3383L39.9389 20.2778L40.0155 20.22L40.0497 20.1966L40.1294 20.1364L40.2091 20.0763L40.289 20.0162L40.3689 19.9562L40.4488 19.8963L40.5288 19.8365L40.6088 19.7767L40.6883 19.7177L40.7203 19.6964L40.8005 19.6369L40.8807 19.5773L40.9611 19.518L41.0415 19.4587L41.1219 19.3994L41.2024 19.3403L41.2829 19.2812L41.3636 19.2222L41.3966 19.2005L41.4757 19.1429L41.5565 19.0841L41.6372 19.0253L41.7181 18.9667L41.799 18.9082L41.88 18.8497L41.9611 18.7913L42.0421 18.7329L42.0778 18.7097L42.155 18.6546L42.2362 18.5965L42.3174 18.5384L42.3988 18.4804L42.4802 18.4226L42.5616 18.3647L42.6432 18.307L42.7248 18.2493L42.763 18.2246L42.8382 18.1719L42.9199 18.1145L43.0017 18.0571L43.0835 17.9997L43.1654 17.9426L43.2473 17.8854L43.3293 17.8283L43.4114 17.7714L43.4523 17.7452L43.5255 17.6949L43.6076 17.6381L43.6899 17.5814L43.7721 17.5248L43.8545 17.4682L43.9369 17.4118L44.0193 17.3554L44.1019 17.2991L44.1454 17.2715L44.2166 17.2236L44.2992 17.1675L44.382 17.1115L44.4647 17.0556L44.5475 16.9996L44.6304 16.9439L44.7133 16.8882L44.7962 16.8325L44.8424 16.8036L44.9116 16.7581L44.9947 16.7026L45.0779 16.6473L45.1611 16.5921L45.2444 16.5369L45.3277 16.4818L45.4111 16.4268L45.4945 16.3718L45.5434 16.3415L45.6104 16.2983L45.694 16.2436L45.7776 16.1889L45.8613 16.1343L45.945 16.0799L46.0288 16.0255L46.1126 15.9712L46.1965 15.9169L46.2481 15.8853L46.3131 15.8443L46.3971 15.7903L46.4811 15.7364L46.5652 15.6825L46.6494 15.6287L46.7336 15.575L46.8179 15.5214L46.9022 15.4679L46.9566 15.435L47.0194 15.3963L47.1038 15.3429L47.1884 15.2897L47.2729 15.2365L47.3575 15.1834L47.4422 15.1304L47.5268 15.0775L47.6116 15.0246L47.6688 14.9905L47.7294 14.9541L47.8143 14.9014L47.8992 14.8489L47.9842 14.7964L48.0693 14.744L48.1543 14.6917L48.2395 14.6395L48.3247 14.5874L48.3846 14.552L48.4431 14.5177L48.5284 14.4658L48.6137 14.414L48.6992 14.3622L48.7846 14.3106L48.8701 14.2589L48.9557 14.2074L49.0413 14.156L49.1041 14.1195L49.1603 14.0874L49.246 14.0362L49.3318 13.9851L49.4176 13.934L49.5036 13.883L49.5895 13.8321L49.6755 13.7813L49.7615 13.7306L49.8271 13.6931L49.881 13.663L49.9672 13.6125L50.0534 13.5621L50.1397 13.5118L50.2259 13.4615L50.3123 13.4113L50.3988 13.3612L50.4852 13.3112L50.5537 13.2726L50.6053 13.2447L50.6918 13.1949L50.7785 13.1451L50.8652 13.0956L50.9519 13.046L51.0386 12.9965L51.1254 12.9472L51.2123 12.8979L51.2837 12.8583L51.3329 12.8324L51.4199 12.7833L51.5069 12.7342L51.594 12.6854L51.6812 12.6366L51.7683 12.5878L51.8556 12.5392L51.9428 12.4906L52.0171 12.45L52.064 12.4261L52.1514 12.3777L52.2388 12.3295L52.3263 12.2813L52.4138 12.2332L52.5014 12.1852L52.589 12.1373L52.6767 12.0894L52.7539 12.0479L52.7984 12.0259L52.8862 11.9783L52.9741 11.9307L53.0619 11.8833L53.1498 11.8359L53.2378 11.7886L53.3258 11.7414L53.4139 11.6943L53.494 11.652L53.5362 11.6319L53.6243 11.5849L53.7125 11.5382L53.8008 11.4914L53.8891 11.4447L53.9775 11.3983L54.0659 11.3518L54.1543 11.3054L54.2374 11.2623L54.2771 11.244L54.3656 11.1978L54.4542 11.1517L54.5428 11.1058L54.6315 11.0599L54.7203 11.0141L54.8091 10.9684L54.8979 10.9227L54.9839 10.8787L55.0211 10.8623L55.1101 10.8169L55.1991 10.7715L55.2881 10.7263L55.3772 10.6811L55.4662 10.636L55.5554 10.5911L55.6446 10.5462L55.7337 10.5014L55.7684 10.4867L55.8577 10.4421L55.9471 10.3975L56.0365 10.353L56.1259 10.3086L56.2154 10.2643L56.3049 10.22L56.3945 10.1759L56.4841 10.1318L56.5212 10.1162L56.6084 10.0736L56.6981 10.0298L56.7879 9.98597L56.8777 9.94233L56.9676 9.89878L57.0574 9.85524L57.1473 9.81188L57.2373 9.76857L57.2773 9.75185L57.3622 9.71138L57.4522 9.66829L57.5424 9.62528L57.6325 9.58235L57.7227 9.53953L57.813 9.49678L57.9032 9.45411L57.9936 9.41157L58.0363 9.39383L58.1189 9.35549L58.2093 9.31308L58.2998 9.27086L58.3903 9.2287L58.4808 9.18657L58.5714 9.14463L58.662 9.10273L58.7527 9.06087L58.7983 9.04216L58.8785 9.00589L58.9692 8.96426L59.0601 8.92275L59.1509 8.88138L59.2418 8.84L59.3328 8.79878L59.4238 8.75766L59.5148 8.71656L59.5632 8.6969L59.641 8.66261L59.7321 8.62176L59.8233 8.581L59.9145 8.54037L60.0057 8.49978L60.097 8.45929L60.1883 8.41894L60.2797 8.37862L60.331 8.35805L60.4063 8.32568L60.4978 8.28563L60.5893 8.24566L60.6808 8.20572L60.7724 8.16593L60.864 8.12624L60.9556 8.08658L61.0473 8.04707L61.1015 8.02566L61.1744 7.99524L61.2662 7.95589L61.358 7.91672L61.4499 7.87755L61.5418 7.8385L61.6337 7.79959L61.7257 7.76068L61.8177 7.72192L61.8748 7.6997L61.9453 7.67118L62.0374 7.63259L62.1295 7.59417L62.2217 7.55579L62.3139 7.51748L62.4062 7.47935L62.4985 7.44123L62.5908 7.4032L62.6508 7.38021L62.7187 7.35355L62.8112 7.31578L62.9036 7.27805L62.9961 7.24047L63.0886 7.20299L63.1812 7.16553L63.2738 7.12821L63.3665 7.091L63.4294 7.06725L63.4948 7.04236L63.5876 7.00542L63.6803 6.96848L63.7731 6.93162L63.866 6.89494L63.9588 6.85826L64.0517 6.8217L64.1447 6.7853L64.2106 6.76084L64.2735 6.73772L64.3665 6.70152L64.4596 6.66538L64.5527 6.62928L64.6458 6.59337L64.739 6.5575L64.8322 6.52168L64.9254 6.48606L64.9943 6.46099L65.0546 6.43963L65.1479 6.40413L65.2413 6.3688L65.3347 6.33352L65.4281 6.29831L65.5216 6.26325L65.6151 6.22825L65.7086 6.19333L65.7804 6.16768L65.8382 6.14804L65.9318 6.11334L66.0254 6.07872L66.1191 6.04427L66.2129 6.00984L66.3066 5.97551L66.4004 5.94133L66.4942 5.90718L66.569 5.88098L66.6242 5.86297L66.7181 5.82909L66.8119 5.79522L66.906 5.76155L67 5.72794L67.094 5.69434L67.188 5.66098L67.2821 5.62764L67.3599 5.60089L67.4124 5.58446L67.5066 5.5514L67.6008 5.51835L67.695 5.48541L67.7893 5.45261L67.8837 5.41984L67.978 5.38718L68.0724 5.35466L68.1532 5.32751L68.203 5.31263L68.2974 5.28028L68.392 5.24806L68.4865 5.21591L68.581 5.18384L68.6756 5.15191L68.7702 5.12004L68.8648 5.08826L68.9487 5.06076L68.9958 5.0474L69.0905 5.01579L69.1852 4.98437L69.28 4.95305L69.3748 4.92171L69.4697 4.8906L69.5645 4.85953L69.6594 4.82848L69.7464 4.80066L69.7908 4.78875L69.8858 4.75796L69.9807 4.72728L70.0758 4.69676L70.1709 4.66625L70.266 4.63587L70.3611 4.60563L70.4562 4.5754L70.5462 4.54723L70.5879 4.53671L70.6831 4.50675L70.7784 4.4769L70.8737 4.44712L70.969 4.41744L71.0643 4.38785L71.1597 4.35837L71.2551 4.32898L71.3481 4.30053L71.3871 4.29139L71.4825 4.26222L71.578 4.23319L71.6735 4.20416L71.7691 4.1753L71.8647 4.14654L71.9603 4.11779L72.0559 4.08922L72.1516 4.06073L72.1887 4.05262L72.2839 4.02433L72.3797 3.99613L72.4754 3.96793L72.5712 3.9398L72.6671 3.91187L72.7629 3.88394L72.8588 3.85611L72.9546 3.82847L72.9946 3.81971L73.0873 3.79322L73.1832 3.76575L73.2792 3.73838L73.3752 3.71107L73.4713 3.68389L73.5673 3.6568L73.6634 3.62978L73.7596 3.60289L73.8025 3.59354L73.8925 3.56881L73.9887 3.54209L74.0849 3.51551L74.1811 3.48906L74.2774 3.46262L74.3737 3.43634L74.47 3.41017L74.5663 3.38402L74.6122 3.37411L74.6995 3.3511L74.7959 3.32521L74.8924 3.29935L74.9888 3.27375L75.0853 3.24815L75.1818 3.22259L75.2783 3.19727L75.3749 3.17194L75.4237 3.16154L75.5083 3.14009L75.6049 3.11505L75.7016 3.09002L75.7982 3.06517L75.8949 3.04039L75.9916 3.01565L76.0884 2.99109L76.1851 2.96661L76.2369 2.95576L76.3188 2.93586L76.4157 2.9116L76.5125 2.88743L76.6094 2.86333L76.7063 2.83937L76.8032 2.81548L76.9001 2.79165L76.9971 2.76799L77.0518 2.75676L77.1311 2.73841L77.2281 2.71488L77.3251 2.69157L77.4222 2.6683L77.5192 2.64507L77.6164 2.62204L77.7135 2.59905L77.8106 2.57612L77.8683 2.56456L77.9449 2.54772L78.0421 2.52501L78.1393 2.50245L78.2366 2.48003L78.3338 2.45761L78.4311 2.43535L78.5284 2.41321L78.6257 2.39107L78.6864 2.3792L78.7602 2.36378L78.8576 2.34192L78.955 2.32014L79.0524 2.29852L79.1499 2.27694L79.2473 2.25545L79.3448 2.23413L79.4423 2.21283L79.506 2.20068L79.577 2.18661L79.6746 2.16558L79.7721 2.14467L79.8697 2.12378L79.9673 2.10305L80.0649 2.08242L80.1626 2.06183L80.2603 2.04137L80.3271 2.02903L80.3952 2.01632L80.4929 1.99604L80.5907 1.97597L80.6885 1.9559L80.7862 1.93593L80.8841 1.91614L80.9819 1.89636L81.0797 1.87669L81.1495 1.86419L81.2149 1.85278L81.2697 1.84245L81.2946 1.83863L81.3194 1.83487L81.3443 1.83119L81.3693 1.82768L81.3943 1.82421L81.4193 1.82083L81.419 1.8237L81.4086 1.82906L81.4336 1.82597L81.4587 1.8229L81.4838 1.82004L81.509 1.81723L81.5341 1.81446L81.5593 1.81192L81.5846 1.80939L81.5874 1.81215L81.5742 1.81874L81.5995 1.8165L81.6248 1.8143L81.6502 1.81223L81.6755 1.81028L81.701 1.80838L81.7264 1.8066L81.7518 1.80493L81.7578 1.80773L81.7418 1.81547L81.7673 1.81401L81.7929 1.81272L81.8185 1.81142L81.8441 1.8103L81.8697 1.80928L81.8953 1.80827L81.921 1.80747L81.9301 1.81031L81.9113 1.81917L81.9371 1.81852L81.9629 1.81805L81.9886 1.81761L82.0145 1.81726L82.0403 1.81709L82.0662 1.81694L82.0921 1.8169L82.1043 1.81984L82.0827 1.8298L82.1087 1.83001L82.1347 1.83027L82.1607 1.83072L82.1868 1.83121L82.2128 1.83178L82.2389 1.83252L82.265 1.83329L82.2803 1.83631L82.256 1.84731L82.2822 1.84836L82.3084 1.84943L82.3346 1.85069L82.3609 1.85202L82.3872 1.85339L82.4135 1.85494L82.4399 1.85655L82.4583 1.85972L82.4312 1.87167L82.4576 1.87352L82.484 1.87549L82.5105 1.87748L82.5369 1.87964L82.5635 1.8819L82.59 1.88417L82.6165 1.88663L82.6382 1.89007L82.6083 1.90293L82.6349 1.90554L82.6615 1.90836L82.6882 1.91119L82.7149 1.91411L82.7416 1.91722L82.7684 1.92031L82.7951 1.92355L82.82 1.92727L82.7871 1.94101L82.814 1.94447L82.8409 1.94803L82.8677 1.9517L82.8946 1.95546L82.9216 1.95932L82.9485 1.96329L82.9755 1.96733L83.0026 1.97148L82.9689 1.98572L82.995 1.9902L83.0221 1.99452L83.0491 1.99904L83.0763 2.00363L83.1034 2.00823L83.1306 2.01306L83.1578 2.01794L83.185 2.02282L83.1545 2.03695L83.1778 2.04271L83.2051 2.04788L83.2322 2.05321Z" fill="white"/>
</svg>
