<svg width="200" height="200" viewBox="0 0 200 200" fill="none" xmlns="http://www.w3.org/2000/svg">
<path d="M121.034 197.003L120.986 197.01L120.912 197.024L120.815 197.045L120.718 197.066L120.621 197.086L120.537 197.103L120.499 197.107L120.402 197.127L120.305 197.147L120.208 197.168L120.111 197.188L120.062 197.194L119.988 197.207L119.891 197.227L119.794 197.247L119.697 197.267L119.612 197.283L119.575 197.286L119.477 197.305L119.38 197.325L119.283 197.344L119.185 197.363L119.136 197.369L119.063 197.382L118.966 197.401L118.868 197.42L118.771 197.438L118.685 197.454L118.648 197.456L118.551 197.475L118.454 197.493L118.356 197.512L118.259 197.53L118.209 197.536L118.136 197.547L118.039 197.565L117.941 197.583L117.843 197.601L117.757 197.616L117.721 197.618L117.623 197.635L117.526 197.653L117.428 197.671L117.33 197.688L117.28 197.693L117.208 197.704L117.11 197.721L117.012 197.738L116.914 197.755L116.828 197.769L116.792 197.771L116.694 197.787L116.596 197.804L116.498 197.82L116.401 197.837L116.35 197.842L116.278 197.852L116.18 197.868L116.082 197.884L115.984 197.9L115.897 197.913L115.861 197.914L115.764 197.93L115.666 197.946L115.568 197.961L115.47 197.977L115.418 197.981L115.347 197.99L115.249 198.006L115.151 198.021L115.053 198.036L114.965 198.049L114.93 198.049L114.832 198.064L114.734 198.079L114.636 198.093L114.538 198.108L114.486 198.112L114.415 198.12L114.317 198.135L114.218 198.149L114.12 198.163L114.032 198.175L113.997 198.175L113.899 198.189L113.801 198.203L113.703 198.216L113.604 198.23L113.552 198.234L113.481 198.241L113.383 198.254L113.285 198.268L113.187 198.281L113.097 198.292L113.063 198.292L112.965 198.305L112.867 198.317L112.769 198.33L112.67 198.343L112.617 198.346L112.547 198.353L112.449 198.365L112.35 198.378L112.252 198.39L112.162 198.401L112.129 198.4L112.03 198.412L111.932 198.424L111.834 198.435L111.735 198.447L111.682 198.45L111.612 198.456L111.513 198.467L111.415 198.479L111.316 198.49L111.226 198.5L111.193 198.498L111.095 198.51L110.996 198.521L110.898 198.531L110.799 198.542L110.745 198.545L110.676 198.55L110.577 198.56L110.479 198.571L110.38 198.581L110.289 198.59L110.257 198.588L110.158 198.599L110.06 198.609L109.961 198.618L109.862 198.628L109.808 198.63L109.739 198.635L109.64 198.644L109.542 198.654L109.443 198.663L109.351 198.672L109.32 198.669L109.221 198.679L109.122 198.688L109.024 198.697L108.925 198.706L108.87 198.707L108.801 198.711L108.703 198.719L108.604 198.728L108.505 198.737L108.413 198.744L108.382 198.741L108.283 198.749L108.184 198.758L108.086 198.766L107.987 198.774L107.932 198.775L107.863 198.778L107.765 198.785L107.666 198.793L107.567 198.801L107.474 198.807L107.444 198.804L107.345 198.811L107.246 198.819L107.147 198.826L107.048 198.833L106.993 198.833L106.925 198.836L106.826 198.842L106.727 198.849L106.628 198.856L106.535 198.861L106.505 198.858L106.406 198.864L106.307 198.871L106.208 198.877L106.11 198.883L106.053 198.883L105.986 198.885L105.887 198.89L105.788 198.896L105.689 198.902L105.596 198.907L105.566 198.903L105.467 198.908L105.368 198.914L105.269 198.919L105.17 198.924L105.114 198.924L105.047 198.925L104.948 198.929L104.849 198.934L104.75 198.939L104.656 198.943L104.627 198.939L104.528 198.943L104.429 198.948L104.33 198.952L104.231 198.956L104.174 198.955L104.107 198.955L104.009 198.959L103.91 198.963L103.811 198.967L103.716 198.97L103.687 198.966L103.588 198.969L103.489 198.973L103.39 198.976L103.291 198.979L103.234 198.978L103.168 198.977L103.069 198.98L102.97 198.983L102.871 198.986L102.776 198.989L102.748 198.984L102.649 198.986L102.55 198.989L102.451 198.991L102.352 198.994L102.294 198.992L102.228 198.99L102.129 198.992L102.03 198.994L101.931 198.996L101.836 198.998L101.808 198.993L101.709 198.994L101.61 198.996L101.511 198.997L101.412 198.999L101.353 198.996L101.289 198.994L101.19 198.995L101.091 198.996L100.992 198.997L100.896 198.998L100.869 198.992L100.77 198.993L100.671 198.994L100.572 198.994L100.473 198.995L100.414 198.992L100.349 198.989L100.25 198.989L100.152 198.989L100.053 198.99L99.9558 198.989L99.9293 198.983L99.8304 198.983L99.7314 198.983L99.6324 198.982L99.5335 198.982L99.4739 198.978L99.4103 198.975L99.3114 198.974L99.2124 198.974L99.1134 198.973L99.0163 198.972L98.9903 198.965L98.8914 198.964L98.7924 198.963L98.6935 198.962L98.5946 198.96L98.5346 198.956L98.4715 198.952L98.3726 198.95L98.2736 198.949L98.1747 198.947L98.0771 198.945L98.0517 198.938L97.9528 198.936L97.8539 198.934L97.755 198.932L97.656 198.93L97.5956 198.925L97.5331 198.92L97.4342 198.918L97.3353 198.915L97.2364 198.912L97.1383 198.909L97.1135 198.902L97.0146 198.899L96.9157 198.896L96.8168 198.893L96.718 198.89L96.6571 198.885L96.5951 198.879L96.4963 198.876L96.3974 198.872L96.2986 198.869L96.2 198.865L96.1758 198.858L96.0769 198.854L95.9781 198.85L95.8793 198.846L95.7805 198.841L95.7192 198.835L95.6578 198.83L95.5589 198.825L95.4601 198.821L95.3614 198.816L95.2626 198.811L95.2385 198.804L95.1399 198.799L95.0412 198.794L94.9424 198.789L94.8436 198.784L94.7819 198.777L94.7211 198.771L94.6223 198.766L94.5236 198.76L94.4248 198.755L94.3261 198.749L94.3017 198.741L94.2036 198.735L94.1049 198.73L94.0062 198.724L93.9075 198.717L93.8454 198.71L93.7851 198.703L93.6864 198.697L93.5877 198.691L93.4891 198.684L93.3904 198.678L93.3656 198.67L93.2681 198.663L93.1695 198.656L93.0708 198.649L92.9722 198.642L92.9097 198.635L92.8499 198.627L92.7513 198.62L92.6528 198.612L92.5542 198.605L92.4556 198.598L92.4304 198.589L92.3335 198.582L92.2349 198.574L92.1363 198.566L92.0378 198.558L91.9749 198.55L91.9157 198.542L91.8172 198.534L91.7187 198.525L91.6202 198.517L91.5217 198.509L91.4964 198.499L91.4277 198.464L91.4042 198.38L91.3808 198.296L91.3573 198.213L91.3338 198.144L91.3104 198.121L91.287 198.037L91.2635 197.953L91.2401 197.869L91.2167 197.786L91.1933 197.754L91.1699 197.693L91.1465 197.609L91.1232 197.525L91.0998 197.442L91.0765 197.372L91.0531 197.349L91.0298 197.265L91.0064 197.181L90.9831 197.097L90.9598 197.013L90.9365 196.98L90.9132 196.92L90.8899 196.836L90.8667 196.751L90.8434 196.667L90.8201 196.597L90.7969 196.574L90.7737 196.49L90.7504 196.406L90.7272 196.321L90.704 196.237L90.6808 196.204L90.6576 196.143L90.6345 196.059L90.6113 195.975L90.5881 195.89L90.565 195.819L90.5418 195.796L90.5187 195.712L90.4956 195.627L90.4725 195.543L90.4494 195.458L90.4263 195.424L90.4032 195.364L90.3801 195.28L90.3571 195.195L90.334 195.11L90.311 195.039L90.2879 195.016L90.2649 194.931L90.2419 194.847L90.2189 194.762L90.1959 194.677L90.1729 194.642L90.1499 194.582L90.127 194.497L90.104 194.413L90.081 194.328L90.0581 194.255L90.0352 194.233L90.0123 194.148L89.9894 194.063L89.9665 193.978L89.9436 193.893L89.9207 193.857L89.8979 193.798L89.875 193.713L89.8522 193.627L89.8293 193.542L89.8065 193.469L89.7837 193.447L89.7609 193.362L89.7381 193.276L89.7153 193.191L89.6925 193.106L89.6698 193.07L89.647 193.01L89.6243 192.925L89.6016 192.839L89.5788 192.754L89.5561 192.68L89.5334 192.658L89.5107 192.573L89.4881 192.487L89.4654 192.402L89.4427 192.316L89.4201 192.279L89.3974 192.22L89.3748 192.134L89.3522 192.049L89.3296 191.963L89.307 191.888L89.2844 191.867L89.2618 191.781L89.2393 191.695L89.2167 191.609L89.1942 191.524L89.1717 191.486L89.1491 191.427L89.1266 191.341L89.1041 191.255L89.0816 191.169L89.0592 191.094L89.0367 191.072L89.0143 190.986L88.9918 190.9L88.9694 190.814L88.947 190.728L88.9246 190.69L88.9022 190.631L88.8798 190.545L88.8574 190.459L88.835 190.373L88.8127 190.297L88.7903 190.275L88.768 190.189L88.7457 190.103L88.7234 190.017L88.7011 189.93L88.6788 189.891L88.6565 189.833L88.6343 189.746L88.612 189.66L88.5898 189.574L88.5676 189.497L88.5453 189.476L88.5231 189.389L88.501 189.303L88.4788 189.216L88.4566 189.13L88.4345 189.09L88.4123 189.032L88.3902 188.945L88.368 188.858L88.3459 188.772L88.3238 188.694L88.3018 188.673L88.2797 188.587L88.2576 188.5L88.2355 188.413L88.2135 188.326L88.1915 188.286L88.1695 188.228L88.1475 188.141L88.1255 188.054L88.1035 187.967L88.0815 187.889L88.0596 187.868L88.0376 187.781L88.0157 187.694L87.9938 187.607L87.9718 187.52L87.9499 187.479L87.9281 187.421L87.9062 187.334L87.8843 187.247L87.8625 187.16L87.8406 187.081L87.8188 187.061L87.797 186.973L87.7752 186.886L87.7534 186.799L87.7317 186.712L87.7099 186.67L87.6881 186.612L87.6664 186.525L87.6447 186.437L87.6229 186.35L87.6013 186.27L87.5796 186.25L87.5579 186.163L87.5362 186.075L87.5146 185.988L87.4929 185.9L87.4713 185.858L87.4497 185.8L87.4281 185.713L87.4065 185.625L87.3849 185.538L87.3634 185.457L87.3418 185.437L87.3203 185.35L87.2988 185.262L87.2772 185.174L87.2557 185.086L87.2343 185.043L87.2128 184.986L87.1913 184.898L87.1699 184.81L87.1484 184.722L87.127 184.641L87.1056 184.622L87.0842 184.534L87.0628 184.446L87.0414 184.358L87.0201 184.27L86.9987 184.226L86.9774 184.169L86.9561 184.081L86.9348 183.993L86.9135 183.905L86.8922 183.823L86.8709 183.803L86.8497 183.715L86.8284 183.627L86.8072 183.539L86.786 183.451L86.7648 183.406L86.7436 183.349L86.7224 183.261L86.7013 183.173L86.6801 183.084L86.659 183.002L86.6379 182.983L86.6168 182.894L86.5957 182.806L86.5746 182.718L86.5535 182.629L86.5324 182.583L86.5114 182.527L86.4904 182.439L86.4694 182.35L86.4484 182.262L86.4274 182.178L86.4064 182.159L86.3855 182.071L86.3645 181.982L86.3436 181.894L86.3227 181.805L86.3018 181.758L86.2809 181.702L86.26 181.614L86.2391 181.525L86.2183 181.436L86.1975 181.352L86.1766 181.334L86.1558 181.245L86.135 181.156L86.1143 181.067L86.0935 180.978L86.0727 180.931L86.052 180.875L86.0313 180.786L86.0106 180.697L85.9899 180.608L85.9692 180.523L85.9485 180.505L85.9278 180.416L85.9072 180.327L85.8866 180.238L85.866 180.149L85.8454 180.101L85.8248 180.046L85.8042 179.956L85.7836 179.867L85.7631 179.778L85.7426 179.692L85.7221 179.674L85.7016 179.585L85.6811 179.496L85.6606 179.406L85.6401 179.317L85.6197 179.268L85.5993 179.213L85.5788 179.124L85.5585 179.034L85.5381 178.945L85.5177 178.859L85.4973 178.841L85.477 178.752L85.4567 178.662L85.4364 178.572L85.4161 178.483L85.3958 178.434L85.3755 178.379L85.3553 178.289L85.335 178.199L85.3148 178.11L85.2946 178.023L85.2744 178.005L85.2542 177.916L85.234 177.826L85.2139 177.736L85.1938 177.646L85.1736 177.596L85.1535 177.542L85.1334 177.452L85.1134 177.362L85.0933 177.272L85.0733 177.184L85.0532 177.167L85.0332 177.077L85.0132 176.987L84.9932 176.897L84.9732 176.807L84.9533 176.756L84.9333 176.702L84.9134 176.612L84.8935 176.522L84.8736 176.432L84.8537 176.343L84.8338 176.326L84.814 176.236L84.7941 176.146L84.7743 176.056L84.7545 175.966L84.7347 175.914L84.7149 175.86L84.6952 175.77L84.6754 175.679L84.6557 175.589L84.636 175.5L84.6163 175.483L84.5966 175.393L84.5769 175.303L84.5573 175.212L84.5376 175.122L84.518 175.07L84.4984 175.016L84.4788 174.925L84.4592 174.835L84.4397 174.744L84.4201 174.654L84.4006 174.638L84.3811 174.547L84.3615 174.457L84.3421 174.366L84.3226 174.275L84.3032 174.223L84.2837 174.169L84.2643 174.078L84.2449 173.988L84.2255 173.897L84.2061 173.806L84.1868 173.79L84.1674 173.699L84.1481 173.609L84.1288 173.518L84.1095 173.427L84.0902 173.373L84.0709 173.32L84.0517 173.229L84.0325 173.138L84.0133 173.047L83.994 172.956L83.9748 172.94L83.9557 172.849L83.9365 172.758L83.9174 172.667L83.8983 172.576L83.8792 172.522L83.8601 172.469L83.841 172.378L83.8219 172.286L83.8029 172.195L83.7839 172.104L83.7649 172.087L83.7459 171.997L83.7269 171.905L83.7079 171.814L83.689 171.723L83.6701 171.668L83.6512 171.615L83.6323 171.524L83.6134 171.432L83.5945 171.341L83.5757 171.25L83.5568 171.232L83.538 171.142L83.5192 171.05L83.5005 170.959L83.4817 170.867L83.463 170.812L83.4442 170.759L83.4255 170.668L83.4068 170.576L83.3881 170.484L83.3694 170.393L83.3508 170.374L83.3322 170.285L83.3136 170.193L83.295 170.101L83.2764 170.009L83.2578 169.953L83.2393 169.901L83.2207 169.809L83.2022 169.717L83.1837 169.626L83.1652 169.534L83.1468 169.515L83.1283 169.425L83.1099 169.333L83.0915 169.241L83.0731 169.149L83.0547 169.092L83.0363 169.041L83.018 168.949L82.9996 168.857L82.9813 168.765L82.963 168.673L82.9447 168.653L82.9265 168.564L82.9082 168.471L82.89 168.379L82.8718 168.287L82.8536 168.23L82.8354 168.178L82.8173 168.086L82.7991 167.994L82.781 167.901L82.7629 167.809L82.7447 167.789L82.7267 167.7L82.7086 167.607L82.6906 167.515L82.6726 167.423L82.6545 167.364L82.6365 167.313L82.6186 167.221L82.6006 167.128L82.5827 167.036L82.5648 166.944L82.5469 166.922L82.529 166.834L82.5111 166.741L82.4933 166.649L82.4754 166.556L82.4576 166.497L82.4398 166.446L82.422 166.354L82.4043 166.261L82.3865 166.169L82.3688 166.076L82.3511 166.054L82.3334 165.966L82.3157 165.873L82.298 165.78L82.2804 165.688L82.2628 165.628L82.2452 165.577L82.2276 165.484L82.21 165.392L82.1924 165.299L82.1749 165.206L82.1574 165.183L82.1399 165.095L82.1224 165.003L82.105 164.91L82.0875 164.817L82.0701 164.756L82.0527 164.706L82.0352 164.613L82.0179 164.52L82.0005 164.427L81.9832 164.334L81.9659 164.311L81.9485 164.223L81.9313 164.13L81.914 164.037L81.8968 163.944L81.8795 163.883L81.8623 163.833L81.8451 163.74L81.8279 163.646L81.8108 163.553L81.7936 163.46L81.7765 163.436L81.7594 163.349L81.7423 163.255L81.7252 163.162L81.7082 163.069L81.6912 163.007L81.6741 162.957L81.6572 162.864L81.6402 162.771L81.6232 162.677L81.6063 162.584L81.5893 162.559L81.5724 162.472L81.5556 162.379L81.5387 162.285L81.5218 162.192L81.505 162.129L81.4882 162.08L81.4714 161.986L81.4546 161.893L81.4379 161.799L81.4211 161.706L81.4044 161.681L81.3877 161.594L81.371 161.5L81.3543 161.406L81.3377 161.313L81.3211 161.25L81.3044 161.201L81.2878 161.107L81.2713 161.013L81.2547 160.919L81.2382 160.826L81.2217 160.8L81.2052 160.713L81.1887 160.619L81.1722 160.526L81.1558 160.432L81.1394 160.368L81.123 160.319L81.1066 160.225L81.0902 160.131L81.0739 160.038L81.0575 159.944L81.0412 159.917L81.0249 159.831L81.0086 159.737L80.9924 159.643L80.9761 159.549L80.9599 159.484L80.9437 159.436L80.9275 159.342L80.9114 159.248L80.8953 159.154L80.8791 159.059L80.863 159.032L80.8469 158.946L80.8309 158.852L80.8148 158.758L80.7988 158.664L80.7828 158.599L80.7668 158.55L80.7508 158.456L80.7349 158.362L80.7189 158.268L80.703 158.173L80.6871 158.145L80.6713 158.06L80.6554 157.966L80.6396 157.871L80.6237 157.777L80.6079 157.711L80.5922 157.663L80.5764 157.569L80.5607 157.474L80.5449 157.38L80.5293 157.285L80.5136 157.257L80.4979 157.172L80.4823 157.077L80.4666 156.983L80.451 156.888L80.4354 156.822L80.4199 156.774L80.4043 156.679L80.3888 156.585L80.3733 156.49L80.3578 156.396L80.3423 156.366L80.3269 156.281L80.3115 156.187L80.2961 156.092L80.2807 155.997L80.2653 155.93L80.2499 155.883L80.2346 155.788L80.2193 155.693L80.204 155.599L80.1887 155.504L80.1735 155.474L80.1583 155.389L80.1431 155.294L80.1279 155.2L80.1127 155.105L80.0975 155.037L80.0824 154.99L80.0673 154.895L80.0522 154.8L80.0371 154.705L80.0221 154.61L80.007 154.58L79.992 154.495L79.977 154.4L79.9621 154.305L79.9471 154.21L79.9322 154.142L79.9173 154.095L79.9024 154L79.8875 153.905L79.8726 153.81L79.8578 153.715L79.843 153.684L79.8282 153.6L79.8134 153.505L79.7987 153.409L79.7839 153.314L79.7692 153.245L79.7545 153.199L79.7399 153.104L79.7252 153.008L79.7106 152.913L79.696 152.818L79.6814 152.786L79.6668 152.702L79.6522 152.607L79.6377 152.512L79.6232 152.416L79.6087 152.347L79.5942 152.301L79.5798 152.205L79.5653 152.11L79.5509 152.014L79.5366 151.919L79.5222 151.886L79.5078 151.803L79.4935 151.708L79.4792 151.612L79.4649 151.517L79.4507 151.446L79.4364 151.401L79.4222 151.305L79.408 151.209L79.3938 151.114L79.3796 151.018L79.3655 150.985L79.3514 150.902L79.3373 150.806L79.3232 150.711L79.3091 150.615L79.2951 150.544L79.281 150.499L79.2671 150.403L79.2531 150.307L79.2391 150.212L79.2252 150.116L79.2113 150.082L79.1973 149.999L79.1835 149.904L79.1696 149.808L79.1558 149.712L79.142 149.64L79.1282 149.595L79.1144 149.5L79.1007 149.404L79.0869 149.308L79.0732 149.212L79.0595 149.177L79.0459 149.095L79.0322 148.999L79.0186 148.903L79.005 148.807L78.9914 148.735L78.9779 148.69L78.9643 148.594L78.9508 148.498L78.9373 148.402L78.9238 148.306L78.9104 148.271L78.8969 148.189L78.8835 148.093L78.8701 147.997L78.8567 147.901L78.8434 147.828L78.8301 147.784L78.8167 147.687L78.8034 147.591L78.7902 147.495L78.7769 147.399L78.7637 147.363L78.7505 147.281L78.7373 147.185L78.7242 147.089L78.711 146.993L78.6979 146.919L78.6848 146.875L78.6717 146.779L78.6587 146.683L78.6457 146.586L78.6326 146.49L78.6196 146.454L78.6067 146.372L78.5937 146.276L78.5808 146.18L78.5679 146.083L78.555 146.009L78.5421 145.965L78.5293 145.869L78.5165 145.772L78.5037 145.676L78.4909 145.579L78.4782 145.542L78.4654 145.461L78.4527 145.365L78.44 145.268L78.4274 145.172L78.4147 145.097L78.4021 145.054L78.3895 144.957L78.3769 144.861L78.3643 144.764L78.3518 144.667L78.3393 144.63L78.3268 144.549L78.3143 144.453L78.3018 144.356L78.2894 144.259L78.277 144.184L78.2646 144.141L78.2522 144.044L78.2399 143.947L78.2276 143.851L78.2153 143.754L78.203 143.716L78.1907 143.635L78.1785 143.539L78.1663 143.442L78.1541 143.345L78.1419 143.269L78.1298 143.226L78.1176 143.129L78.1056 143.033L78.0935 142.936L78.0814 142.839L78.0694 142.8L78.0574 142.72L78.0454 142.623L78.0334 142.526L78.0214 142.429L78.0095 142.353L77.9976 142.31L77.9857 142.213L77.9739 142.116L77.962 142.019L77.9502 141.922L77.9384 141.883L77.9266 141.803L77.9149 141.706L77.9031 141.609L77.8914 141.512L77.8797 141.435L77.8681 141.393L77.8565 141.296L77.8448 141.199L77.8332 141.102L77.8216 141.004L77.8101 140.964L77.7986 140.885L77.7871 140.788L77.7756 140.691L77.7641 140.593L77.7527 140.515L77.7413 140.474L77.7299 140.377L77.7185 140.28L77.7071 140.182L77.6958 140.085L77.6845 140.044L77.6732 139.965L77.6619 139.868L77.6507 139.771L77.6395 139.674L77.6283 139.595L77.6171 139.554L77.606 139.456L77.5948 139.359L77.5837 139.262L77.5727 139.164L77.5616 139.123L77.5506 139.045L77.5395 138.947L77.5285 138.85L77.5176 138.752L77.5066 138.673L77.4957 138.632L77.4848 138.535L77.4739 138.437L77.4631 138.34L77.4522 138.242L77.4414 138.2L77.4306 138.122L77.4199 138.025L77.4091 137.927L77.3984 137.83L77.3877 137.75L77.377 137.709L77.3664 137.612L77.3557 137.514L77.3451 137.417L77.3345 137.319L77.324 137.276L77.3134 137.199L77.3029 137.101L77.2924 137.003L77.282 136.906L77.2715 136.825L77.2611 136.785L77.2507 136.687L77.2403 136.59L77.23 136.492L77.2196 136.394L77.2093 136.351L77.199 136.274L77.1888 136.176L77.1785 136.078L77.1683 135.98L77.1581 135.899L77.1479 135.86L77.1378 135.762L77.1276 135.664L77.1175 135.566L77.1074 135.468L77.0974 135.424L77.0874 135.348L77.0773 135.25L77.0674 135.152L77.0574 135.054L77.0474 134.972L77.0375 134.933L77.0276 134.835L77.0177 134.737L77.0079 134.639L76.9981 134.541L76.9883 134.497L76.9785 134.42L76.9687 134.322L76.959 134.224L76.9493 134.126L76.9396 134.044L76.9299 134.005L76.9203 133.907L76.9107 133.809L76.9011 133.711L76.8915 133.613L76.8819 133.568L76.8724 133.492L76.8629 133.394L76.8534 133.295L76.844 133.197L76.8345 133.114L76.8251 133.076L76.8158 132.978L76.8064 132.88L76.797 132.782L76.7877 132.683L76.7784 132.638L76.7692 132.562L76.7599 132.464L76.7507 132.366L76.7415 132.267L76.7323 132.184L76.7232 132.146L76.714 132.048L76.7049 131.949L76.6958 131.851L76.6868 131.753L76.6777 131.706L76.6687 131.631L76.6598 131.533L76.6508 131.434L76.6418 131.336L76.6329 131.252L76.624 131.214L76.6152 131.116L76.6063 131.018L76.5975 130.919L76.5887 130.821L76.5799 130.774L76.5711 130.699L76.5624 130.601L76.5537 130.502L76.545 130.404L76.5364 130.319L76.5277 130.282L76.5191 130.184L76.5105 130.085L76.502 129.987L76.4934 129.888L76.4849 129.841L76.4764 129.766L76.4679 129.668L76.4595 129.569L76.4511 129.471L76.4427 129.385L76.4343 129.349L76.4259 129.25L76.4176 129.151L76.4093 129.053L76.401 128.954L76.3928 128.906L76.3845 128.832L76.3763 128.734L76.3682 128.635L76.36 128.536L76.3519 128.451L76.3438 128.414L76.3356 128.315L76.3276 128.217L76.3195 128.118L76.3115 128.019L76.3035 127.971L76.2956 127.897L76.2876 127.798L76.2797 127.7L76.2718 127.601L76.2639 127.515L76.2561 127.479L76.2482 127.38L76.2404 127.281L76.2327 127.182L76.2249 127.084L76.2172 127.034L76.2095 126.961L76.2018 126.862L76.1941 126.764L76.1865 126.665L76.1789 126.578L76.1713 126.542L76.1637 126.443L76.1562 126.345L76.1487 126.246L76.1412 126.147L76.1337 126.097L76.1263 126.024L76.1188 125.925L76.1114 125.826L76.1041 125.728L76.0967 125.64L76.0894 125.605L76.0821 125.506L76.0748 125.407L76.0676 125.308L76.0604 125.209L76.0531 125.159L76.046 125.086L76.0388 124.987L76.0317 124.888L76.0246 124.789L76.0175 124.701L76.0104 124.667L76.0034 124.568L75.9964 124.469L75.9894 124.37L75.9825 124.271L75.9755 124.22L75.9686 124.148L75.9617 124.049L75.9548 123.95L75.948 123.851L75.9412 123.762L75.9344 123.727L75.9276 123.628L75.9209 123.529L75.9142 123.43L75.9075 123.331L75.9008 123.28L75.8942 123.208L75.8876 123.109L75.8809 123.01L75.8744 122.911L75.8678 122.822L75.8613 122.788L75.8548 122.688L75.8483 122.589L75.8419 122.49L75.8355 122.391L75.8291 122.339L75.8227 122.268L75.8163 122.168L75.81 122.069L75.8037 121.97L75.7974 121.88L75.7911 121.847L75.7849 121.748L75.7787 121.648L75.7725 121.549L75.7664 121.45L75.7602 121.397L75.7541 121.327L75.748 121.227L75.742 121.128L75.7359 121.029L75.7299 120.938L75.7239 120.905L75.718 120.806L75.712 120.707L75.7061 120.607L75.7002 120.508L75.6944 120.455L75.6885 120.385L75.6827 120.285L75.6769 120.186L75.6711 120.087L75.6654 119.996L75.6597 119.963L75.654 119.864L75.6483 119.764L75.6427 119.665L75.637 119.566L75.6315 119.512L75.6259 119.442L75.6203 119.343L75.6148 119.243L75.6093 119.144L75.6038 119.052L75.5984 119.02L75.593 118.921L75.5876 118.821L75.5822 118.722L75.5768 118.623L75.5715 118.568L75.5662 118.499L75.5609 118.399L75.5557 118.3L75.5505 118.2L75.5452 118.108L75.5401 118.077L75.5349 117.977L75.5298 117.878L75.5247 117.778L75.5196 117.679L75.5145 117.624L75.5095 117.555L75.5045 117.455L75.4995 117.356L75.4946 117.256L75.4896 117.164L75.4847 117.132L75.4799 117.033L75.475 116.933L75.4702 116.834L75.4653 116.734L75.4605 116.679L75.4558 116.61L75.4511 116.511L75.4463 116.411L75.4417 116.312L75.437 116.219L75.4324 116.188L75.4278 116.088L75.4232 115.988L75.4186 115.889L75.4141 115.789L75.4095 115.733L75.4051 115.665L75.4006 115.566L75.3961 115.466L75.3917 115.366L75.3874 115.273L75.383 115.242L75.3786 115.143L75.3743 115.043L75.37 114.943L75.3658 114.844L75.3615 114.787L75.3573 114.72L75.3531 114.62L75.349 114.52L75.3448 114.421L75.3407 114.326L75.3366 114.296L75.3325 114.197L75.3285 114.097L75.3245 113.997L75.3205 113.898L75.3165 113.841L75.3125 113.773L75.3086 113.674L75.3047 113.574L75.3009 113.474L75.297 113.38L75.2932 113.35L75.2894 113.25L75.2856 113.151L75.2819 113.051L75.2782 112.951L75.2745 112.894L75.2708 112.827L75.2671 112.727L75.2635 112.627L75.2599 112.528L75.2563 112.432L75.2528 112.403L75.2493 112.303L75.2458 112.204L75.2423 112.104L75.2388 112.004L75.2354 111.946L75.232 111.88L75.2286 111.78L75.2253 111.68L75.222 111.58L75.2187 111.485L75.2154 111.456L75.2121 111.356L75.2089 111.256L75.2057 111.157L75.2025 111.057L75.1994 110.998L75.1963 110.932L75.1931 110.832L75.1901 110.733L75.187 110.633L75.184 110.537L75.181 110.508L75.178 110.408L75.175 110.309L75.1721 110.209L75.1692 110.109L75.1663 110.05L75.1635 109.984L75.1606 109.884L75.1578 109.785L75.1551 109.685L75.1523 109.588L75.1496 109.56L75.1469 109.46L75.1442 109.36L75.1415 109.261L75.1389 109.161L75.1363 109.101L75.1337 109.036L75.1311 108.936L75.1286 108.836L75.1261 108.736L75.1236 108.639L75.1212 108.612L75.1187 108.512L75.1163 108.412L75.1139 108.312L75.1116 108.212L75.1092 108.152L75.1069 108.088L75.1047 107.988L75.1024 107.888L75.1002 107.788L75.0979 107.69L75.0957 107.663L75.0936 107.563L75.0915 107.463L75.0893 107.363L75.0873 107.264L75.0852 107.203L75.0831 107.139L75.0811 107.039L75.0791 106.939L75.0772 106.839L75.0753 106.741L75.0733 106.714L75.0714 106.614L75.0696 106.514L75.0677 106.414L75.0659 106.315L75.0641 106.253L75.0623 106.19L75.0606 106.09L75.0589 105.99L75.0572 105.89L75.0555 105.791L75.0539 105.765L75.0523 105.665L75.0507 105.565L75.0491 105.465L75.0476 105.365L75.0461 105.304L75.0446 105.24L75.0431 105.14L75.0417 105.041L75.0402 104.941L75.0388 104.841L75.0375 104.816L75.0361 104.716L75.0348 104.616L75.0335 104.516L75.0322 104.416L75.031 104.354L75.0298 104.291L75.0286 104.191L75.0274 104.091L75.0262 103.991L75.0251 103.891L75.024 103.866L75.0229 103.766L75.0219 103.666L75.0209 103.566L75.0199 103.466L75.0189 103.404L75.018 103.341L75.017 103.241L75.0161 103.141L75.0152 103.041L75.0144 102.942L75.0136 102.916L75.0128 102.817L75.012 102.717L75.0112 102.617L75.0105 102.517L75.0098 102.454L75.0091 102.392L75.0084 102.292L75.0078 102.192L75.0072 102.092L75.0066 101.992L75.0061 101.966L75.0055 101.867L75.005 101.767L75.0045 101.667L75.0041 101.567L75.0036 101.503L75.0032 101.442L75.0029 101.342L75.0025 101.242L75.0022 101.142L75.0018 101.042L75.0015 101.016L75.0013 100.917L75.0011 100.817L75.0008 100.717L75.0007 100.617L75.0005 100.553L75.0003 100.492L75.0002 100.392L75.0001 100.292L75.0001 100.192L75 100.092L75 100.065L75 99.9672L75 99.8672L75.0001 99.7672L75.0002 99.6672L75.0003 99.6026L75.0004 99.5423L75.0006 99.4423L75.0007 99.3423L75.0009 99.2423L75.0012 99.1423L75.0014 99.115L75.0017 99.0174L75.002 98.9174L75.0023 98.8174L75.0027 98.7174L75.0031 98.6523L75.0034 98.5924L75.0039 98.4925L75.0043 98.3925L75.0048 98.2925L75.0053 98.1925L75.0058 98.1647L75.0063 98.0676L75.0069 97.9676L75.0075 97.8676L75.0081 97.7676L75.0088 97.7021L75.0095 97.6427L75.0101 97.5427L75.0109 97.4427L75.0116 97.3428L75.0124 97.2428L75.0132 97.2145L75.014 97.1178L75.0148 97.0179L75.0157 96.9179L75.0166 96.8179L75.0175 96.7519L75.0184 96.693L75.0194 96.593L75.0204 96.4931L75.0214 96.3931L75.0224 96.2931L75.0235 96.2643L75.0246 96.1682L75.0257 96.0682L75.0268 95.9683L75.028 95.8683L75.0292 95.8018L75.0304 95.7434L75.0316 95.6435L75.0329 95.5435L75.0342 95.4436L75.0355 95.3436L75.0368 95.3143L75.0382 95.2187L75.0396 95.1187L75.0409 95.0188L75.0424 94.9189L75.0439 94.8519L75.0453 94.794L75.0468 94.694L75.0484 94.5941L75.0499 94.4942L75.0515 94.3942L75.0531 94.3645L75.0547 94.2694L75.0564 94.1694L75.0581 94.0695L75.0598 93.9696L75.0615 93.9021L75.0633 93.8447L75.065 93.7448L75.0668 93.6449L75.0687 93.545L75.0705 93.4451L75.0724 93.4149L75.0743 93.3202L75.0762 93.2203L75.0782 93.1204L75.0802 93.0205L75.0821 92.9526L75.0842 92.8957L75.0862 92.7958L75.0883 92.6959L75.0904 92.596L75.0925 92.4961L75.0947 92.4654L75.0969 92.3713L75.099 92.2714L75.1013 92.1716L75.1035 92.0717L75.1058 92.0033L75.1081 91.9469L75.1104 91.847L75.1128 91.7472L75.1151 91.6473L75.1175 91.5474L75.1199 91.5163L75.1224 91.4227L75.1249 91.3228L75.1274 91.223L75.1299 91.1231L75.1324 91.0542L75.135 90.9984L75.1376 90.8986L75.1402 90.7987L75.1429 90.6989L75.1455 90.599L75.1482 90.5674L75.1509 90.4744L75.1537 90.3745L75.1565 90.2747L75.1593 90.1749L75.1621 90.1055L75.1649 90.0502L75.1678 89.9504L75.1707 89.8506L75.1736 89.7508L75.1765 89.6509L75.1795 89.6189L75.1825 89.5263L75.1855 89.4265L75.1886 89.3267L75.1916 89.2269L75.1947 89.1571L75.1978 89.1024L75.201 89.0026L75.2041 88.9028L75.2073 88.803L75.2105 88.7032L75.2138 88.6707L75.2171 88.5787L75.2203 88.4789L75.2237 88.3791L75.227 88.2794L75.2303 88.2091L75.2337 88.1549L75.2372 88.0551L75.2406 87.9554L75.2441 87.8556L75.2475 87.7559L75.251 87.7229L75.2546 87.6314L75.2582 87.5317L75.2617 87.432L75.2654 87.3322L75.269 87.2615L75.2726 87.2078L75.2763 87.1081L75.28 87.0084L75.2838 86.9087L75.2876 86.809L75.2913 86.7755L75.2951 86.6846L75.299 86.5849L75.3028 86.4852L75.3067 86.3855L75.3106 86.3144L75.3145 86.2612L75.3185 86.1615L75.3225 86.0618L75.3265 85.9622L75.3305 85.8625L75.3346 85.8286L75.3387 85.7382L75.3428 85.6386L75.3469 85.5389L75.3511 85.4393L75.3553 85.3677L75.3595 85.315L75.3637 85.2154L75.3679 85.1158L75.3722 85.0162L75.3765 84.9166L75.3809 84.8822L75.3852 84.7923L75.3896 84.6927L75.394 84.5932L75.3984 84.4936L75.4029 84.4215L75.4073 84.3694L75.4118 84.2698L75.4164 84.1702L75.4209 84.0707L75.4255 83.9711L75.4301 83.9364L75.4347 83.847L75.4393 83.7475L75.444 83.6479L75.4487 83.5484L75.4534 83.4759L75.4582 83.4243L75.463 83.3248L75.4678 83.2253L75.4726 83.1258L75.4774 83.0262L75.4823 82.991L75.4872 82.9022L75.4921 82.8027L75.4971 82.7033L75.5021 82.6038L75.507 82.5309L75.5121 82.4798L75.5171 82.3803L75.5222 82.2809L75.5273 82.1814L75.5324 82.082L75.5375 82.0463L75.5427 81.9581L75.5479 81.8586L75.5531 81.7592L75.5583 81.6598L75.5636 81.5864L75.5689 81.5359L75.5742 81.4365L75.5796 81.3371L75.5849 81.2377L75.5903 81.1383L75.5957 81.1022L75.6011 81.0145L75.6066 80.9151L75.6121 80.8158L75.6176 80.7164L75.6231 80.6426L75.6287 80.5927L75.6343 80.4933L75.6399 80.394L75.6455 80.2946L75.6512 80.1953L75.6569 80.1588L75.6626 80.0716L75.6683 79.9723L75.6741 79.873L75.6798 79.7737L75.6856 79.6995L75.6915 79.6501L75.6973 79.5508L75.7032 79.4515L75.7091 79.3522L75.715 79.253L75.721 79.216L75.727 79.1294L75.7329 79.0302L75.739 78.9309L75.745 78.8317L75.7511 78.7571L75.7572 78.7082L75.7633 78.609L75.7695 78.5098L75.7757 78.4106L75.7818 78.3114L75.7881 78.274L75.7943 78.188L75.8006 78.0888L75.8069 77.9896L75.8132 77.8905L75.8195 77.8154L75.8259 77.7671L75.8323 77.668L75.8387 77.5688L75.8451 77.4697L75.8516 77.3705L75.8581 77.3328L75.8646 77.2473L75.8711 77.1482L75.8777 77.0491L75.8843 76.95L75.8909 76.8745L75.8975 76.8268L75.9042 76.7277L75.9109 76.6286L75.9176 76.5296L75.9243 76.4305L75.9311 76.3923L75.9378 76.3074L75.9447 76.2084L75.9515 76.1093L75.9583 76.0103L75.9652 75.9344L75.9721 75.8872L75.979 75.7882L75.986 75.6892L75.993 75.5903L76 75.4913L76.007 75.4527L76.014 75.3683L76.0211 75.2694L76.0282 75.1704L76.0353 75.0714L76.0424 74.9952L76.0496 74.9486L76.0568 74.8496L76.064 74.7507L76.0713 74.6518L76.0785 74.5529L76.0858 74.5139L76.0931 74.4301L76.1004 74.3312L76.1078 74.2323L76.1152 74.1335L76.1226 74.0568L76.13 74.0108L76.1375 73.9119L76.145 73.8131L76.1525 73.7142L76.16 73.6154L76.1675 73.576L76.1751 73.4928L76.1827 73.394L76.1903 73.2952L76.198 73.1964L76.2057 73.1193L76.2134 73.0739L76.2211 72.9751L76.2288 72.8764L76.2366 72.7776L76.2444 72.6789L76.2522 72.639L76.26 72.5564L76.2679 72.4577L76.2758 72.359L76.2837 72.2603L76.2916 72.1828L76.2996 72.1379L76.3076 72.0392L76.3156 71.9406L76.3236 71.8419L76.3317 71.7433L76.3397 71.703L76.3478 71.621L76.356 71.5223L76.3641 71.4237L76.3723 71.3251L76.3805 71.2472L76.3887 71.2029L76.397 71.1043L76.4052 71.0058L76.4135 70.9072L76.4218 70.8086L76.4302 70.768L76.4385 70.6865L76.4469 70.588L76.4553 70.4895L76.4638 70.3909L76.4722 70.3126L76.4807 70.2689L76.4892 70.1704L76.4977 70.072L76.5063 69.9735L76.5149 69.875L76.5235 69.834L76.5321 69.7531L76.5407 69.6547L76.5494 69.5563L76.5581 69.4578L76.5668 69.3791L76.5756 69.336L76.5843 69.2376L76.5931 69.1392L76.6019 69.0408L76.6108 68.9425L76.6196 68.9011L76.6285 68.8207L76.6374 68.7224L76.6464 68.6241L76.6553 68.5257L76.6643 68.4466L76.6733 68.4041L76.6823 68.3058L76.6914 68.2075L76.7004 68.1092L76.7095 68.011L76.7186 67.9692L76.7278 67.8895L76.7369 67.7912L76.7461 67.693L76.7554 67.5948L76.7646 67.5153L76.7738 67.4733L76.7831 67.3751L76.7924 67.2769L76.8018 67.1788L76.8111 67.0806L76.8205 67.0384L76.8299 66.9593L76.8393 66.8611L76.8487 66.763L76.8582 66.6649L76.8677 66.585L76.8772 66.5437L76.8868 66.4456L76.8963 66.3475L76.9059 66.2494L76.9155 66.1514L76.9251 66.1088L76.9348 66.0303L76.9445 65.9322L76.9542 65.8342L76.9639 65.7362L76.9737 65.6559L76.9834 65.6152L76.9932 65.5172L77.003 65.4192L77.0129 65.3213L77.0227 65.2233L77.0326 65.1804L77.0425 65.1024L77.0525 65.0045L77.0624 64.9066L77.0724 64.8087L77.0824 64.728L77.0924 64.6879L77.1024 64.59L77.1125 64.4922L77.1226 64.3943L77.1327 64.2964L77.1429 64.2531L77.153 64.1758L77.1632 64.078L77.1734 63.9802L77.1837 63.8824L77.1939 63.8014L77.2042 63.7618L77.2145 63.664L77.2248 63.5663L77.2352 63.4686L77.2455 63.3708L77.2559 63.3271L77.2663 63.2504L77.2768 63.1527L77.2872 63.055L77.2977 62.9573L77.3082 62.8759L77.3188 62.837L77.3293 62.7393L77.3399 62.6417L77.3505 62.5441L77.3611 62.4465L77.3717 62.4024L77.3824 62.3263L77.3931 62.2287L77.4038 62.1311L77.4145 62.0335L77.4253 61.9518L77.4361 61.9134L77.4469 61.8159L77.4577 61.7184L77.4685 61.6209L77.4794 61.5234L77.4903 61.4789L77.5012 61.4034L77.5122 61.3059L77.5231 61.2085L77.5341 61.111L77.5451 61.0289L77.5561 60.9912L77.5672 60.8938L77.5782 60.7964L77.5893 60.699L77.6005 60.6016L77.6116 60.5568L77.6227 60.4819L77.6339 60.3846L77.6451 60.2872L77.6564 60.1899L77.6676 60.1074L77.6789 60.0703L77.6902 59.973L77.7015 59.8757L77.7128 59.7785L77.7242 59.6812L77.7356 59.636L77.747 59.5617L77.7584 59.4645L77.7699 59.3673L77.7813 59.2701L77.7929 59.1873L77.8044 59.1508L77.8159 59.0536L77.8275 58.9565L77.8391 58.8593L77.8507 58.7622L77.8623 58.7167L77.8739 58.643L77.8856 58.5459L77.8973 58.4488L77.909 58.3517L77.9208 58.2685L77.9325 58.2326L77.9443 58.1356L77.9561 58.0386L77.968 57.9416L77.9798 57.8446L77.9917 57.7987L78.0036 57.7256L78.0155 57.6287L78.0274 57.5317L78.0394 57.4348L78.0514 57.3512L78.0634 57.3159L78.0754 57.219L78.0875 57.1222L78.0995 57.0253L78.1116 56.9284L78.1237 56.8822L78.1359 56.8097L78.148 56.7129L78.1602 56.6161L78.1724 56.5193L78.1846 56.4353L78.1969 56.4007L78.2092 56.3039L78.2214 56.2072L78.2337 56.1105L78.2461 56.0137L78.2584 55.9671L78.2708 55.8953L78.2832 55.7986L78.2956 55.7019L78.3081 55.6053L78.3205 55.521L78.333 55.487L78.3455 55.3903L78.3581 55.2937L78.3706 55.1971L78.3832 55.1005L78.3958 55.0536L78.4084 54.9824L78.421 54.8858L78.4337 54.7893L78.4464 54.6928L78.4591 54.6081L78.4718 54.5747L78.4845 54.4782L78.4973 54.3818L78.5101 54.2853L78.5229 54.1888L78.5357 54.1415L78.5486 54.071L78.5614 53.9746L78.5744 53.8782L78.5873 53.7818L78.6002 53.6968L78.6132 53.664L78.6261 53.5677L78.6391 53.4713L78.6522 53.375L78.6652 53.2787L78.6783 53.231L78.6914 53.1611L78.7045 53.0648L78.7176 52.9686L78.7308 52.8724L78.7439 52.787L78.7571 52.7549L78.7703 52.6587L78.7836 52.5625L78.7968 52.4663L78.8101 52.3702L78.8234 52.3221L78.8367 52.2529L78.8501 52.1567L78.8634 52.0606L78.8768 51.9645L78.8902 51.8788L78.9036 51.8473L78.9171 51.7513L78.9305 51.6553L78.944 51.5592L78.9576 51.4632L78.9711 51.4148L78.9846 51.3462L78.9982 51.2502L79.0118 51.1543L79.0254 51.0583L79.039 50.9723L79.0527 50.9414L79.0664 50.8455L79.0801 50.7497L79.0938 50.6538L79.1075 50.5579L79.1213 50.5092L79.1351 50.4412L79.1489 50.3454L79.1627 50.2496L79.1765 50.1537L79.1904 50.0674L79.2043 50.0372L79.2182 49.9414L79.2321 49.8457L79.2461 49.7499L79.26 49.6542L79.274 49.6052L79.288 49.5378L79.3021 49.4422L79.3161 49.3465L79.3302 49.2509L79.3443 49.1642L79.3584 49.1346L79.3725 49.039L79.3867 48.9434L79.4009 48.8479L79.415 48.7523L79.4293 48.7029L79.4435 48.6362L79.4578 48.5407L79.472 48.4452L79.4863 48.3497L79.5007 48.2626L79.515 48.2337L79.5294 48.1383L79.5437 48.0428L79.5582 47.9474L79.5726 47.852L79.587 47.8023L79.6015 47.7362L79.6159 47.6409L79.6304 47.5455L79.645 47.4502L79.6595 47.3628L79.6741 47.3346L79.6887 47.2393L79.7033 47.144L79.7179 47.0488L79.7325 46.9535L79.7472 46.9035L79.7619 46.8381L79.7766 46.7429L79.7913 46.6476L79.8061 46.5525L79.8208 46.4648L79.8356 46.4372L79.8504 46.3421L79.8652 46.2469L79.8801 46.1518L79.8949 46.0568L79.9098 46.0064L79.9247 45.9416L79.9396 45.8466L79.9546 45.7516L79.9696 45.6566L79.9845 45.5685L79.9995 45.5416L80.0146 45.4466L80.0296 45.3517L80.0447 45.2567L80.0598 45.1618L80.0749 45.1111L80.09 45.047L80.1051 44.9521L80.1203 44.8573L80.1355 44.7624L80.1507 44.6741L80.1659 44.6478L80.1811 44.553L80.1964 44.4582L80.2117 44.3634L80.227 44.2687L80.2423 44.2177L80.2576 44.1542L80.273 44.0595L80.2884 43.9648L80.3038 43.8701L80.3192 43.7814L80.3346 43.7558L80.3501 43.6612L80.3656 43.5666L80.3811 43.472L80.3966 43.3774L80.4121 43.326L80.4277 43.2633L80.4432 43.1687L80.4588 43.0742L80.4745 42.9797L80.4901 42.8907L80.5058 42.8657L80.5214 42.7712L80.5371 42.6768L80.5528 42.5824L80.5686 42.488L80.5843 42.4363L80.6001 42.3742L80.6159 42.2798L80.6317 42.1854L80.6475 42.0911L80.6633 42.0018L80.6792 41.9775L80.6951 41.8832L80.711 41.7889L80.7269 41.6947L80.7429 41.6004L80.7588 41.5485L80.7748 41.487L80.7908 41.3928L80.8068 41.2986L80.8229 41.2045L80.8389 41.1148L80.855 41.0912L80.8711 40.9971L80.8872 40.903L80.9033 40.8089L80.9195 40.7148L80.9357 40.6625L80.9518 40.6017L80.9681 40.5077L80.9843 40.4137L81.0005 40.3197L81.0168 40.2298L81.0331 40.2068L81.0494 40.1129L81.0657 40.0189L81.082 39.925L81.0984 39.8312L81.1148 39.7786L81.1312 39.7184L81.1476 39.6246L81.164 39.5308L81.1805 39.437L81.197 39.3467L81.2134 39.3244L81.2299 39.2306L81.2465 39.1369L81.263 39.0432L81.2796 38.9495L81.2962 38.8966L81.3128 38.8371L81.3294 38.7434L81.346 38.6498L81.3627 38.5562L81.3793 38.4656L81.3961 38.444L81.4128 38.3504L81.4295 38.2568L81.4463 38.1633L81.463 38.0698L81.4798 38.0166L81.4966 37.9578L81.5134 37.8643L81.5303 37.7708L81.5471 37.6774L81.564 37.5865L81.5809 37.5656L81.5978 37.4722L81.6147 37.3788L81.6317 37.2854L81.6487 37.1921L81.6657 37.1386L81.6827 37.0805L81.6997 36.9872L81.7167 36.8939L81.7338 36.8006L81.7509 36.7095L81.768 36.6892L81.7851 36.596L81.8022 36.5028L81.8194 36.4096L81.8366 36.3165L81.8537 36.2626L81.8709 36.2052L81.8882 36.1121L81.9054 36.019L81.9227 35.9259L81.9399 35.8345L81.9572 35.8148L81.9746 35.7218L81.9919 35.6288L82.0092 35.5358L82.0266 35.4429L82.044 35.3888L82.0614 35.332L82.0788 35.2391L82.0963 35.1462L82.1137 35.0533L82.1312 34.9615L82.1487 34.9426L82.1662 34.8498L82.1837 34.757L82.2013 34.6642L82.2188 34.5714L82.2364 34.517L82.254 34.4609L82.2716 34.3682L82.2892 34.2755L82.3069 34.1828L82.3246 34.0907L82.3423 34.0725L82.3599 33.9798L82.3777 33.8872L82.3954 33.7946L82.4132 33.702L82.4309 33.6473L82.4487 33.5919L82.4665 33.4994L82.4844 33.4069L82.5022 33.3144L82.5201 33.222L82.5379 33.2045L82.5558 33.112L82.5737 33.0196L82.5917 32.9272L82.6096 32.8348L82.6276 32.7798L82.6456 32.7251L82.6636 32.6327L82.6816 32.5404L82.6996 32.4481L82.7177 32.3559L82.7357 32.3382L82.7538 32.2464L82.7719 32.1541L82.7901 32.0619L82.8082 31.9697L82.8263 31.9144L82.8445 31.8604L82.8627 31.7683L82.8809 31.6761L82.8991 31.5841L82.9174 31.492L82.9356 31.474L82.9539 31.3829L82.9722 31.2908L82.9905 31.1988L83.0088 31.1068L83.0271 31.0512L83.0455 30.9979L83.0639 30.906L83.0823 30.8141L83.1007 30.7222L83.1191 30.6303L83.1375 30.612L83.156 30.5216L83.1745 30.4297L83.193 30.3379L83.2115 30.2462L83.23 30.1903L83.2485 30.1376L83.2671 30.0459L83.2857 29.9542L83.3043 29.8625L83.3229 29.7708L83.3415 29.7523L83.3601 29.6625L83.3788 29.5709L83.3975 29.4793L83.4162 29.3877L83.4349 29.3315L83.4536 29.2796L83.4723 29.188L83.4911 29.0965L83.5099 29.005L83.5286 28.9136L83.5475 28.8948L83.5663 28.8057L83.5851 28.7142L83.604 28.6228L83.6228 28.5315L83.6417 28.475L83.6606 28.4238L83.6796 28.3324L83.6985 28.2411L83.7175 28.1498L83.7364 28.0586L83.7554 28.0395L83.7744 27.9511L83.7934 27.8599L83.8125 27.7687L83.8315 27.6775L83.8506 27.6208L83.8697 27.5702L83.8888 27.4791L83.9079 27.388L83.927 27.2969L83.9461 27.2059L83.9653 27.1865L83.9845 27.0988L84.0037 27.0078L84.0229 26.9168L84.0421 26.8259L84.0613 26.7688L84.0806 26.719L84.0999 26.6281L84.1192 26.5372L84.1385 26.4463L84.1578 26.3555L84.1771 26.3358L84.1965 26.2488L84.2159 26.158L84.2352 26.0673L84.2546 25.9765L84.274 25.9192L84.2935 25.8701L84.3129 25.7794L84.3324 25.6887L84.3519 25.598L84.3714 25.5074L84.3909 25.4875L84.4104 25.4012L84.4299 25.3106L84.4495 25.2201L84.4691 25.1295L84.4886 25.072L84.5082 25.0235L84.5278 24.933L84.5475 24.8426L84.5671 24.7521L84.5868 24.6617L84.6065 24.6415L84.6262 24.5559L84.6459 24.4656L84.6656 24.3752L84.6853 24.2849L84.7051 24.227L84.7249 24.1793L84.7446 24.089L84.7645 23.9988L84.7843 23.9086L84.8041 23.8184L84.8239 23.7979L84.8438 23.713L84.8637 23.6229L84.8836 23.5327L84.9035 23.4426L84.9234 23.3845L84.9433 23.3375L84.9633 23.2474L84.9833 23.1574L85.0032 23.0674L85.0232 22.9774L85.0432 22.9567L85.0633 22.8725L85.0833 22.7826L85.1034 22.6927L85.1234 22.6028L85.1435 22.5444L85.1636 22.4981L85.1837 22.4082L85.2038 22.3184L85.224 22.2286L85.2441 22.1389L85.2643 22.1178L85.2845 22.0344L85.3047 21.9447L85.3249 21.855L85.3452 21.7653L85.3654 21.7067L85.3857 21.661L85.406 21.5714L85.4262 21.4819L85.4465 21.3923L85.4669 21.3028L85.4872 21.2815L85.5076 21.1987L85.5279 21.1092L85.5483 21.0198L85.5687 20.9303L85.5891 20.8714L85.6095 20.8265L85.63 20.7371L85.6504 20.6478L85.6709 20.5584L85.6913 20.4691L85.7118 20.4475L85.7323 20.3655L85.7529 20.2763L85.7734 20.187L85.7939 20.0978L85.8145 20.0386L85.8351 19.9944L85.8557 19.9053L85.8763 19.8161L85.8969 19.727L85.9175 19.6379L85.9382 19.6161L85.9588 19.5348L85.9795 19.4457L86.0002 19.3567L86.0209 19.2677L86.0416 19.2083L86.0624 19.1648L86.0831 19.0759L86.1039 18.987L86.1246 18.8981L86.1454 18.8092L86.1663 18.7871L86.187 18.7065L86.2079 18.6177L86.2287 18.5289L86.2496 18.4402L86.2705 18.3805L86.2913 18.3377L86.3122 18.249L86.3332 18.1603L86.3541 18.0717L86.375 17.983L86.396 17.9607L86.4169 17.8808L86.4379 17.7922L86.4589 17.7037L86.4799 17.6151L86.5009 17.5552L86.522 17.5131L86.543 17.4247L86.5641 17.3362L86.5852 17.2478L86.6062 17.1594L86.6273 17.1368L86.6485 17.0576L86.6696 16.9693L86.6907 16.881L86.7119 16.7926L86.733 16.7324L86.7542 16.6911L86.7754 16.6029L86.7966 16.5146L86.8178 16.4265L86.8391 16.3383L86.8603 16.3154L86.8816 16.237L86.9029 16.1489L86.9241 16.0608L86.9454 15.9727L86.9668 15.9122L86.9881 15.8716L87.0094 15.7836L87.0308 15.6956L87.0521 15.6077L87.0735 15.5197L87.0949 15.4966L87.1163 15.4189L87.1377 15.331L87.1592 15.2432L87.1806 15.1553L87.2021 15.0946L87.2235 15.0547L87.245 14.967L87.2665 14.8792L87.288 14.7915L87.3095 14.7038L87.3311 14.6804L87.3526 14.6034L87.3742 14.5158L87.3957 14.4282L87.4173 14.3406L87.4389 14.2796L87.4605 14.2404L87.4821 14.1529L87.5038 14.0654L87.5254 13.9779L87.5471 13.8904L87.5687 13.8668L87.5904 13.7905L87.6121 13.7032L87.6338 13.6158L87.6555 13.5284L87.6773 13.4672L87.699 13.4288L87.7208 13.3415L87.7425 13.2542L87.7643 13.1669L87.7861 13.0797L87.8079 13.0559L87.8297 12.9803L87.8516 12.8932L87.8734 12.806L87.8953 12.7189L87.9171 12.6574L87.939 12.6197L87.9609 12.5326L87.9828 12.4456L88.0047 12.3586L88.0266 12.2716L88.0486 12.2475L88.0705 12.1727L88.0925 12.0858L88.1145 11.9989L88.1365 11.912L88.1585 11.8503L88.1805 11.8133L88.2025 11.7265L88.2245 11.6397L88.2466 11.553L88.2686 11.4662L88.2907 11.4418L88.3128 11.3678L88.3349 11.2811L88.357 11.1945L88.3791 11.1078L88.4012 11.0458L88.4234 11.0096L88.4455 10.9231L88.4677 10.8365L88.4899 10.75L88.5121 10.6635L88.5343 10.6388L88.5565 10.5655L88.5787 10.4791L88.6009 10.3927L88.6232 10.3063L88.6454 10.2441L88.6677 10.2086L88.69 10.1223L88.7123 10.036L88.7346 9.94969L88.7569 9.86344L88.7792 9.83855L88.8015 9.76598L88.8239 9.67979L88.8462 9.59361L88.8686 9.50749L88.891 9.445L88.9134 9.41025L88.9358 9.32419L88.9582 9.23813L88.9806 9.15209L89.0031 9.0661L89.0255 9.04098L89.048 8.96913L89.0704 8.8832L89.0929 8.79728L89.1154 8.71138L89.1379 8.64865L89.1604 8.61464L89.1829 8.52883L89.2055 8.44303L89.228 8.35722L89.2506 8.27148L89.2731 8.24613L89.2957 8.175L89.3183 8.08933L89.3409 8.00366L89.3635 7.91801L89.3861 7.85505L89.4088 7.82177L89.4314 7.7362L89.4541 7.65065L89.4767 7.56511L89.4994 7.47961L89.5221 7.45403L89.5448 7.38363L89.5675 7.29821L89.5902 7.21279L89.6129 7.12738L89.6357 7.06418L89.6584 7.03167L89.6811 6.94632L89.7039 6.86104L89.7267 6.77575L89.7495 6.69049L89.7723 6.66467L89.7951 6.59504L89.8179 6.50985L89.8408 6.42469L89.8636 6.33953L89.8864 6.27608L89.9093 6.24431L89.9322 6.15923L89.955 6.07419L89.9779 5.98916L90.0008 5.90414L90.0238 5.87809L90.0467 5.8092L90.0696 5.72425L90.0925 5.63936L90.1155 5.55447L90.1385 5.49076L90.1614 5.45974L90.1844 5.37492L90.2074 5.29011L90.2304 5.20536L90.2534 5.1206L90.2764 5.09429L90.2995 5.02615L90.3225 4.94146L90.3456 4.85681L90.3686 4.77218L90.3917 4.70824L90.4148 4.67797L90.4379 4.5934L90.4609 4.50884L90.4841 4.42434L90.5072 4.33984L90.5303 4.31329L90.5534 4.24591L90.5766 4.16148L90.5997 4.07707L90.6229 3.9927L90.6461 3.92854L90.6693 3.89899L90.6925 3.81469L90.7157 3.7304L90.7389 3.64614L90.7621 3.56191L90.7853 3.53512L90.8086 3.46848L90.8318 3.38432L90.8551 3.30015L90.8783 3.21605L90.9016 3.15165L90.9249 3.12285L90.9482 3.03881L90.9715 2.95478L90.9948 2.87077L91.0181 2.7868L91.0415 2.75978L91.0648 2.69388L91.0882 2.60998L91.1115 2.52609L91.1349 2.44223L91.1582 2.37761L91.1816 2.34955L91.205 2.26577L91.2284 2.182L91.2518 2.09824L91.2753 2.01453L91.2987 1.9873L91.3221 1.92213L91.3456 1.83849L91.369 1.75486L91.3925 1.67125L91.416 1.60641L91.4394 1.57911L91.4629 1.49557L91.5616 1.48715L91.66 1.47872L91.7585 1.47045L91.8009 1.46208L91.8806 1.45385L91.9791 1.44575L92.0777 1.43779L92.1762 1.42991L92.2564 1.42198L92.2983 1.41379L92.3969 1.40614L92.4955 1.39862L92.594 1.3911L92.6926 1.38374L92.7356 1.37581L92.8149 1.36833L92.9135 1.36112L93.0121 1.35412L93.1107 1.34716L93.1915 1.33997L93.233 1.33221L93.3317 1.3255L93.4303 1.31888L93.529 1.31228L93.6276 1.30587L93.6712 1.29838L93.75 1.29164L93.8487 1.28533L93.9474 1.27929L94.0461 1.27325L94.1274 1.26682L94.1685 1.25948L94.2673 1.25372L94.366 1.24799L94.4648 1.24234L94.5635 1.23687L94.6076 1.22982L94.686 1.22381L94.7848 1.21845L94.8835 1.21331L94.9823 1.20819L95.0642 1.20257L95.1049 1.19564L95.2037 1.1908L95.3025 1.18598L95.4013 1.18129L95.5001 1.17674L95.5448 1.17013L95.6228 1.16485L95.7216 1.16046L95.8204 1.15622L95.9192 1.15202L96.0017 1.14723L96.042 1.14068L96.1408 1.13677L96.2396 1.13286L96.3385 1.12912L96.4373 1.1255L96.4826 1.11935L96.5602 1.11477L96.659 1.11136L96.7579 1.10802L96.8568 1.10475L96.9398 1.10081L96.9796 1.09463L97.0786 1.09164L97.1774 1.08865L97.2763 1.08587L97.3752 1.08316L97.4211 1.0775L97.4982 1.07362L97.5971 1.07117L97.696 1.06875L97.7949 1.06639L97.8784 1.0633L97.9179 1.0575L98.0168 1.05543L98.1157 1.05337L98.2147 1.05153L98.3136 1.04975L98.36 1.04459L98.4366 1.04141L98.5356 1.03991L98.6345 1.03842L98.7335 1.037L98.8176 1.03474L98.8566 1.02932L98.9555 1.02815L99.0545 1.02707L99.1534 1.02615L99.2524 1.02528L99.2993 1.02064L99.3755 1.01817L99.4745 1.0176L99.5735 1.01702L99.6724 1.01656L99.757 1.01514L99.7956 1.01008L99.8946 1.00982L99.9936 1.00972L100.093 1.00972L100.192 1.00975L100.239 1.00564L100.315 1.0039L100.414 1.00423L100.513 1.00458L100.612 1.00509L100.697 1.0045L100.735 0.9998L100.834 1.00044L100.933 1.00132L101.032 1.00224L101.131 1.00318L101.179 0.999618L101.254 0.99859L101.353 0.999822L101.452 1.0011L101.551 1.00259L101.637 1.00284L101.674 0.998484L101.773 1.00007L101.872 1.00189L101.971 1.00374L102.07 1.00563L102.119 1.0026L102.194 1.00226L102.293 1.00439L102.392 1.00665L102.491 1.00907L102.577 1.01016L102.614 1.00615L102.713 1.00871L102.812 1.01145L102.911 1.01422L103.01 1.0171L103.059 1.01458L103.133 1.0149L103.232 1.01796L103.331 1.02119L103.43 1.02454L103.517 1.02648L103.554 1.02279L103.653 1.02634L103.752 1.02998L103.851 1.03369L103.95 1.03755L103.999 1.03556L104.073 1.03654L104.172 1.04052L104.271 1.04471L104.37 1.04899L104.457 1.05181L104.493 1.04842L104.592 1.05297L104.691 1.05753L104.79 1.06214L104.889 1.06699L104.939 1.06555L105.012 1.06716L105.111 1.0721L105.21 1.07723L105.309 1.08244L105.397 1.08618L105.433 1.0831L105.532 1.08859L105.63 1.09407L105.729 1.09965L105.828 1.10543L105.879 1.10455L105.952 1.10678L106.051 1.11271L106.149 1.11877L106.248 1.12488L106.336 1.12957L106.372 1.1268L106.471 1.1332L106.57 1.13962L106.668 1.14616L106.767 1.15286L106.818 1.15256L106.891 1.1554L106.99 1.16232L107.088 1.1693L107.187 1.17631L107.276 1.18196L107.311 1.1795L107.409 1.18681L107.508 1.19414L107.607 1.20168L107.706 1.20929L107.757 1.20957L107.829 1.21302L107.928 1.22092L108.027 1.22883L108.126 1.23677L108.214 1.24336L108.249 1.24121L108.348 1.24942L108.447 1.25773L108.545 1.26621L108.644 1.27471L108.696 1.27562L108.767 1.27972L108.866 1.28852L108.965 1.29735L109.063 1.30628L109.153 1.31378L109.187 1.3119L109.286 1.32102L109.384 1.33032L109.483 1.33972L109.582 1.34913L109.634 1.35067L109.705 1.35541L109.804 1.36511L109.902 1.37487L110.001 1.38479L110.09 1.39319L110.124 1.39159L110.223 1.40163L110.321 1.4119L110.42 1.42223L110.518 1.43256L110.572 1.43471L110.642 1.44008L110.74 1.4507L110.839 1.46139L110.937 1.47228L111.028 1.4816L111.061 1.48027L111.159 1.49127L111.258 1.50247L111.356 1.51372L111.455 1.52503L111.508 1.52779L111.578 1.53375L111.676 1.54529L111.775 1.55694L111.873 1.56876L111.964 1.57903L111.997 1.57793L112.095 1.58993L112.193 1.60204L112.292 1.6142L112.39 1.6265L112.444 1.62986L112.513 1.6364L112.612 1.64886L112.71 1.66148L112.808 1.67422L112.899 1.68543L112.931 1.68457L113.03 1.69756L113.128 1.71059L113.226 1.72365L113.325 1.73695L113.379 1.74093L113.448 1.74801L113.546 1.7614L113.644 1.77499L113.742 1.78865L113.834 1.80085L113.866 1.80021L113.964 1.81415L114.062 1.82809L114.16 1.84211L114.258 1.85634L114.313 1.86097L114.381 1.86859L114.479 1.88297L114.577 1.89748L114.675 1.91202L114.767 1.92525L114.798 1.92485L114.896 1.93969L114.995 1.95455L115.093 1.96955L115.191 1.98468L115.246 1.98996L115.313 1.99811L115.411 2.01348L115.509 2.02891L115.607 2.04435L115.699 2.05861L115.73 2.05845L115.828 2.07417L115.926 2.08996L116.024 2.10595L116.122 2.12196L116.177 2.12791L116.245 2.13661L116.342 2.15292L116.44 2.16927L116.538 2.18565L116.63 2.20091L116.661 2.20097L116.759 2.2176L116.856 2.23435L116.954 2.25126L117.052 2.26817L117.108 2.27481L117.174 2.28408L117.272 2.30127L117.37 2.31854L117.467 2.33591L117.56 2.35213L117.59 2.3524L117.688 2.36994L117.785 2.38765L117.883 2.40548L117.98 2.4233L118.037 2.43062L118.103 2.44046L118.201 2.45856L118.298 2.47672L118.396 2.49508L118.488 2.51227L118.518 2.51272L118.615 2.53119L118.713 2.54985L118.81 2.56859L118.908 2.58735L118.965 2.59534L119.03 2.60571L119.127 2.62473L119.225 2.64382L119.322 2.66312L119.415 2.68131L119.444 2.68193L119.542 2.70137L119.639 2.72095L119.736 2.74058L119.833 2.76032L119.891 2.76899L119.956 2.77985L120.053 2.79978L120.15 2.81982L120.247 2.84003L120.341 2.85922L120.369 2.86L120.466 2.88043L120.563 2.90092L120.661 2.92142L120.758 2.94215L120.815 2.9515L120.88 2.96284L120.977 2.98367L121.074 3.0047L121.171 3.02578L121.264 3.04598L121.292 3.04693L121.389 3.06832L121.486 3.08971L121.583 3.11114L121.68 3.13281L121.738 3.14285L121.802 3.15465L121.899 3.17645L121.995 3.1984L122.092 3.22036L122.186 3.24165L122.214 3.24277L122.311 3.26502L122.407 3.28732L122.504 3.30973L122.601 3.33226L122.659 3.34302L122.722 3.3553L122.819 3.37804L122.915 3.4009L123.012 3.42376L123.106 3.44612L123.134 3.44741L123.23 3.47054L123.327 3.49372L123.423 3.51711L123.519 3.54054L123.578 3.552L123.641 3.56474L123.737 3.58844L123.834 3.61219L123.93 3.63598L124.025 3.6594L124.051 3.66084L124.148 3.68488L124.244 3.70898L124.34 3.7333L124.436 3.75762L124.495 3.76982L124.557 3.78306L124.654 3.80766L124.75 3.83227L124.846 3.85705L124.941 3.88151L124.967 3.88304L125.063 3.90799L125.159 3.93308L125.255 3.95825L125.351 3.98349L125.411 3.99646L125.472 4.01014L125.568 4.03565L125.664 4.06116L125.76 4.08687L125.855 4.11239L125.881 4.11406L125.976 4.13988L126.072 4.16594L126.168 4.19201L126.264 4.21813L126.324 4.23188L126.385 4.24601L126.48 4.2724L126.576 4.29885L126.672 4.32548L126.767 4.35204L126.792 4.35384L126.888 4.3806L126.983 4.40755L127.079 4.43452L127.174 4.46158L127.234 4.47608L127.295 4.49065L127.39 4.5179L127.486 4.54533L127.581 4.57285L127.676 4.60038L127.702 4.6024L127.797 4.63009L127.892 4.6579L127.987 4.68577L128.083 4.71381L128.143 4.72902L128.203 4.74402L128.298 4.77218L128.393 4.80053L128.488 4.82895L128.583 4.85739L128.609 4.85982L128.703 4.8883L128.798 4.91701L128.893 4.94578L128.988 4.97476L129.049 4.99072L129.108 5.0061L129.203 5.03521L129.298 5.06446L129.393 5.09376L129.488 5.12316L129.514 5.12605L129.608 5.15521L129.702 5.18481L129.797 5.21452L129.892 5.24438L129.953 5.26113L130.011 5.27688L130.106 5.30694L130.201 5.33709L130.295 5.36724L130.39 5.39762L130.416 5.40098L130.509 5.43082L130.604 5.46131L130.698 5.49199L130.793 5.52268L130.854 5.54022L130.912 5.55636L131.006 5.58736L131.101 5.6184L131.195 5.64947L131.289 5.68074L131.316 5.68459L131.408 5.7151L131.503 5.74651L131.597 5.7781L131.691 5.80968L131.753 5.82802L131.81 5.84458L131.904 5.87644L131.998 5.90836L132.092 5.94039L132.186 5.97253L132.213 5.97685L132.305 6.00806L132.399 6.04039L132.493 6.07286L132.587 6.10534L132.648 6.12446L132.705 6.14144L132.799 6.17419L132.893 6.20694L132.986 6.23993L133.08 6.27295L133.108 6.27773L133.198 6.30961L133.292 6.34289L133.386 6.3762L133.479 6.40959L133.541 6.42956L133.597 6.44688L133.691 6.48052L133.784 6.51419L133.878 6.54806L133.971 6.58197L133.999 6.58726L134.089 6.61983L134.183 6.654L134.276 6.68818L134.369 6.72249L134.432 6.74328L134.487 6.76092L134.58 6.79543L134.673 6.83006L134.766 6.86478L134.859 6.89955L134.888 6.90538L134.977 6.93861L135.07 6.97366L135.163 7.00873L135.256 7.04395L135.319 7.06556L135.374 7.08355L135.466 7.11889L135.559 7.15447L135.652 7.19008L135.745 7.2257L135.774 7.23205L135.862 7.26598L135.955 7.30187L136.047 7.33784L136.14 7.37398L136.203 7.39637L136.257 7.4147L136.35 7.45097L136.442 7.48741L136.534 7.52388L136.627 7.56044L136.656 7.56731L136.744 7.60187L136.836 7.63861L136.928 7.67552L137.021 7.71253L137.084 7.73571L137.137 7.75437L137.23 7.79159L137.322 7.82886L137.414 7.8662L137.506 7.90371L137.535 7.91106L137.622 7.94624L137.714 7.98385L137.806 8.02166L137.898 8.05954L137.962 8.08356L138.015 8.1025L138.106 8.14065L138.198 8.1788L138.29 8.21701L138.382 8.25542L138.412 8.2633L138.498 8.29906L138.589 8.33759L138.681 8.37627L138.773 8.415L138.836 8.43989L138.888 8.45916L138.98 8.49816L139.071 8.53717L139.163 8.57628L139.254 8.61555L139.284 8.62398L139.37 8.66031L139.461 8.69978L139.552 8.73932L139.643 8.77886L139.707 8.80465L139.759 8.82424L139.85 8.86406L139.941 8.90394L140.032 8.94398L140.123 8.98408L140.154 8.99307L140.238 9.02998L140.329 9.07034L140.42 9.11074L140.511 9.15116L140.575 9.1778L140.626 9.1977L140.717 9.23836L140.807 9.27913L140.898 9.32005L140.989 9.36098L141.02 9.37053L141.103 9.40807L141.194 9.44926L141.284 9.49052L141.375 9.53187L141.439 9.55932L141.489 9.5795L141.58 9.62102L141.67 9.66266L141.76 9.70445L141.851 9.74623L141.882 9.75633L141.965 9.79449L142.055 9.83653L142.145 9.8786L142.235 9.92088L142.299 9.94919L142.349 9.96961L142.439 10.012L142.529 10.0545L142.619 10.0971L142.709 10.1398L142.74 10.1505L142.823 10.1892L142.912 10.2321L143.002 10.275L143.092 10.3182L143.156 10.3473L143.205 10.368L143.295 10.4113L143.384 10.4547L143.474 10.4981L143.563 10.5417L143.595 10.5529L143.677 10.5922L143.766 10.6359L143.855 10.6798L143.945 10.7237L144.009 10.7537L144.058 10.7747L144.147 10.8188L144.236 10.8631L144.325 10.9073L144.414 10.9518L144.446 10.9636L144.527 11.0034L144.616 11.0479L144.705 11.0927L144.794 11.1374L144.858 11.1684L144.906 11.1895L144.995 11.2345L145.084 11.2796L145.172 11.3247L145.261 11.37L145.293 11.3825L145.373 11.4227L145.462 11.4681L145.55 11.5137L145.639 11.5594L145.704 11.5912L145.751 11.6126L145.839 11.6584L145.927 11.7043L146.016 11.7503L146.104 11.7965L146.137 11.8095L146.216 11.8503L146.304 11.8966L146.392 11.943L146.48 11.9894L146.545 12.0221L146.591 12.0437L146.679 12.0904L146.767 12.1371L146.855 12.184L146.943 12.231L146.976 12.2446L147.054 12.2859L147.142 12.3331L147.229 12.3803L147.317 12.4276L147.382 12.4612L147.428 12.483L147.515 12.5305L147.603 12.5781L147.69 12.6258L147.777 12.6736L147.811 12.6878L147.888 12.7296L147.975 12.7776L148.062 12.8256L148.15 12.8738L148.215 12.9083L148.26 12.9303L148.347 12.9786L148.434 13.0271L148.521 13.0756L148.608 13.1242L148.641 13.139L148.718 13.1813L148.805 13.2302L148.892 13.279L148.978 13.328L149.043 13.3634L149.088 13.3856L149.175 13.4347L149.261 13.4841L149.348 13.5334L149.434 13.5828L149.468 13.5983L149.544 13.6411L149.63 13.6907L149.716 13.7404L149.802 13.7902L149.868 13.8265L149.912 13.8489L149.998 13.8988L150.084 13.949L150.17 13.9991L150.256 14.0494L150.29 14.0655L150.365 14.1087L150.451 14.1591L150.537 14.2097L150.622 14.2603L150.688 14.2975L150.731 14.3201L150.817 14.3709L150.902 14.4218L150.988 14.4728L151.073 14.5239L151.108 14.5406L151.182 14.5843L151.267 14.6355L151.352 14.6869L151.438 14.7383L151.503 14.7764L151.546 14.7991L151.631 14.8508L151.716 14.9025L151.801 14.9543L151.886 15.0063L151.921 15.0236L151.994 15.0677L152.079 15.1197L152.164 15.1719L152.249 15.2242L152.314 15.2632L152.356 15.2861L152.441 15.3386L152.526 15.3911L152.61 15.4437L152.694 15.4964L152.729 15.5144L152.802 15.5589L152.886 15.6118L152.971 15.6648L153.055 15.7178L153.12 15.7578L153.162 15.7808L153.246 15.834L153.33 15.8873L153.414 15.9408L153.498 15.9943L153.533 16.013L153.605 16.0578L153.689 16.1116L153.773 16.1653L153.856 16.2191L153.922 16.2601L153.963 16.2832L154.047 16.3373L154.13 16.3914L154.214 16.4456L154.297 16.4999L154.332 16.5192L154.403 16.5645L154.487 16.619L154.57 16.6736L154.653 16.7283L154.719 16.7701L154.759 16.7934L154.842 16.8482L154.925 16.9031L155.008 16.9582L155.091 17.0132L155.127 17.0332L155.197 17.0789L155.28 17.1342L155.362 17.1895L155.445 17.245L155.511 17.2877L155.55 17.3111L155.633 17.3667L155.716 17.4225L155.798 17.4783L155.881 17.5341L155.916 17.5547L155.985 17.6009L156.068 17.6569L156.15 17.713L156.232 17.7693L156.298 17.813L156.337 17.8365L156.419 17.8929L156.501 17.9494L156.583 18.006L156.665 18.0626L156.701 18.0839L156.769 18.1304L156.851 18.1872L156.933 18.2442L157.014 18.3012L157.08 18.3458L157.118 18.3693L157.2 18.4266L157.281 18.4839L157.363 18.5412L157.444 18.5987L157.48 18.6206L157.548 18.6674L157.629 18.725L157.71 18.7828L157.791 18.8405L157.857 18.8861L157.895 18.9097L157.976 18.9677L158.057 19.0258L158.138 19.0839L158.218 19.1422L158.254 19.1648L158.321 19.2119L158.402 19.2703L158.483 19.3288L158.563 19.3874L158.629 19.4338L158.666 19.4576L158.746 19.5163L158.827 19.5751L158.907 19.634L158.987 19.6931L159.024 19.7163L159.09 19.7638L159.17 19.823L159.25 19.8823L159.33 19.9415L159.395 19.989L159.432 20.0128L159.512 20.0723L159.592 20.1319L159.671 20.1916L159.751 20.2513L159.788 20.2753L159.853 20.3231L159.932 20.383L160.012 20.443L160.091 20.5031L160.157 20.5515L160.193 20.5754L160.272 20.6356L160.351 20.6959L160.431 20.7564L160.51 20.8169L160.546 20.8415L160.611 20.8897L160.69 20.9504L160.769 21.0111L160.847 21.072L160.913 21.1213L160.948 21.1452L161.027 21.2062L161.106 21.2673L161.184 21.3285L161.263 21.3897L161.3 21.4151L161.363 21.4635L161.441 21.525L161.52 21.5864L161.598 21.648L161.663 21.6983L161.698 21.7223L161.776 21.784L161.854 21.8459L161.932 21.9078L162.011 21.9697L162.047 21.9958L162.11 22.0446L162.188 22.1067L162.266 22.169L162.343 22.2313L162.408 22.2825L162.443 22.3065L162.52 22.369L162.598 22.4316L162.675 22.4942L162.753 22.557L162.79 22.5837L162.851 22.6327L162.929 22.6956L163.006 22.7586L163.083 22.8217L163.148 22.8738L163.182 22.8978L163.259 22.9611L163.336 23.0244L163.412 23.0878L163.489 23.1513L163.526 23.1788L163.587 23.228L163.664 23.2916L163.741 23.3554L163.817 23.4192L163.882 23.4722L163.915 23.4963L163.991 23.5603L164.068 23.6243L164.144 23.6884L164.22 23.7527L164.257 23.7808L164.318 23.8303L164.394 23.8947L164.47 23.9591L164.546 24.0237L164.61 24.0777L164.643 24.1017L164.718 24.1665L164.794 24.2312L164.87 24.296L164.945 24.361L164.983 24.3898L165.042 24.4396L165.118 24.5047L165.193 24.5699L165.268 24.6351L165.333 24.6901L165.364 24.7141L165.44 24.7796L165.515 24.845L165.59 24.9106L165.665 24.9763L165.702 25.0058L165.761 25.0557L165.836 25.1216L165.91 25.1875L165.985 25.2534L166.049 25.3094L166.081 25.3334L166.155 25.3995L166.23 25.4657L166.304 25.532L166.379 25.5984L166.416 25.6287L166.474 25.6788L166.548 25.7454L166.622 25.812L166.696 25.8786L166.76 25.9356L166.791 25.9596L166.865 26.0264L166.939 26.0933L167.013 26.1603L167.086 26.2273L167.124 26.2584L167.181 26.3088L167.254 26.376L167.328 26.4432L167.401 26.5106L167.465 26.5686L167.495 26.5925L167.568 26.66L167.642 26.7276L167.715 26.7953L167.788 26.863L167.826 26.8948L167.881 26.9454L167.954 27.0133L168.027 27.0813L168.1 27.1494L168.164 27.2082L168.193 27.2321L168.266 27.3004L168.339 27.3687L168.411 27.437L168.484 27.5055L168.521 27.5379L168.576 27.5888L168.649 27.6573L168.721 27.726L168.793 27.7948L168.857 27.8546L168.886 27.8784L168.958 27.9474L169.03 28.0164L169.102 28.0854L169.173 28.1546L169.211 28.1878L169.265 28.2387L169.337 28.308L169.409 28.3774L169.48 28.4468L169.543 28.5076L169.572 28.5313L169.643 28.601L169.714 28.6707L169.786 28.7404L169.857 28.8102L169.894 28.8442L169.948 28.8952L170.019 28.9652L170.09 29.0353L170.161 29.1054L170.224 29.1671L170.251 29.1908L170.322 29.2611L170.393 29.3315L170.464 29.4019L170.534 29.4724L170.572 29.5071L170.624 29.5583L170.695 29.629L170.765 29.6997L170.835 29.7705L170.898 29.8332L170.925 29.8568L170.995 29.9278L171.065 29.9987L171.135 30.0699L171.205 30.141L171.242 30.1764L171.294 30.2278L171.364 30.2992L171.434 30.3706L171.503 30.442L171.566 30.5057L171.592 30.5292L171.662 30.6008L171.731 30.6725L171.8 30.7443L171.87 30.8161L171.907 30.8522L171.958 30.9038L172.027 30.9758L172.096 31.0478L172.165 31.1199L172.227 31.1846L172.253 31.208L172.322 31.2802L172.391 31.3526L172.459 31.425L172.528 31.4974L172.565 31.5343L172.615 31.586L172.684 31.6587L172.752 31.7313L172.82 31.8041L172.882 31.8697L172.908 31.8931L172.976 31.966L173.044 32.039L173.112 32.112L173.179 32.1851L173.217 32.2228L173.266 32.2746L173.334 32.3478L173.402 32.4212L173.469 32.4946L173.531 32.5611L173.555 32.5844L173.623 32.6579L173.69 32.7316L173.757 32.8052L173.825 32.879L173.862 32.9174L173.91 32.9693L173.978 33.0432L174.044 33.1172L174.111 33.1912L174.173 33.2587L174.197 33.2819L174.264 33.3561L174.33 33.4304L174.397 33.5046L174.463 33.5791L174.5 33.6182L174.548 33.6702L174.615 33.7447L174.681 33.8194L174.747 33.894L174.808 33.9625L174.832 33.9855L174.897 34.0603L174.963 34.1352L175.029 34.2102L175.095 34.2852L175.132 34.3251L175.179 34.3771L175.245 34.4523L175.31 34.5276L175.376 34.6029L175.436 34.6723L175.46 34.6952L175.525 34.7707L175.59 34.8461L175.655 34.9217L175.72 34.9974L175.757 35.038L175.804 35.0901L175.868 35.166L175.933 35.2418L175.998 35.3177L176.058 35.3881L176.081 35.4109L176.145 35.4869L176.21 35.563L176.274 35.6393L176.339 35.7155L176.376 35.7569L176.421 35.8091L176.485 35.8855L176.549 35.962L176.613 36.0385L176.673 36.1099L176.695 36.1325L176.759 36.2091L176.823 36.2859L176.887 36.3627L176.95 36.4395L176.987 36.4817L177.032 36.5339L177.095 36.611L177.158 36.688L177.222 36.7651L177.281 36.8375L177.303 36.8599L177.366 36.9371L177.429 37.0145L177.492 37.092L177.555 37.1694L177.592 37.2123L177.635 37.2646L177.698 37.3422L177.761 37.4199L177.823 37.4976L177.882 37.5709L177.903 37.5932L177.966 37.671L178.028 37.749L178.09 37.827L178.153 37.9051L178.189 37.9487L178.232 38.0011L178.294 38.0792L178.356 38.1575L178.418 38.2359L178.477 38.3101L178.497 38.3322L178.559 38.4107L178.62 38.4892L178.682 38.5678L178.743 38.6464L178.78 38.6908L178.822 38.7432L178.883 38.822L178.944 38.9008L179.005 38.9798L179.064 39.0549L179.084 39.0768L179.145 39.1559L179.206 39.235L179.266 39.3142L179.327 39.3935L179.363 39.4386L179.405 39.491L179.465 39.5703L179.526 39.6498L179.586 39.7293L179.644 39.8054L179.663 39.8271L179.723 39.9068L179.784 39.9864L179.844 40.0662L179.903 40.146L179.94 40.1919L179.98 40.2443L180.04 40.3242L180.1 40.4042L180.159 40.4843L180.217 40.5614L180.236 40.5829L180.295 40.6631L180.354 40.7434L180.414 40.8237L180.473 40.9041L180.509 40.9507L180.549 41.0031L180.608 41.0837L180.667 41.1642L180.725 41.2448L180.782 41.3229L180.801 41.3442L180.86 41.425L180.918 41.5058L180.977 41.5867L181.035 41.6676L181.071 41.715L181.11 41.7674L181.168 41.8485L181.226 41.9296L181.284 42.0108L181.341 42.0898L181.359 42.1109L181.417 42.1922L181.474 42.2736L181.532 42.355L181.59 42.4365L181.625 42.4847L181.664 42.537L181.721 42.6186L181.779 42.7003L181.836 42.7821L181.892 42.862L181.909 42.8829L181.967 42.9648L182.024 43.0467L182.081 43.1287L182.137 43.2107L182.173 43.2596L182.21 43.312L182.267 43.3941L182.324 43.4763L182.38 43.5586L182.436 43.6394L182.453 43.6601L182.509 43.7426L182.565 43.825L182.621 43.9075L182.677 43.9902L182.713 44.0398L182.749 44.0921L182.805 44.1748L182.861 44.2576L182.917 44.3404L182.972 44.4221L182.988 44.4426L183.044 44.5256L183.099 44.6086L183.155 44.6916L183.21 44.7748L183.245 44.8252L183.281 44.8774L183.336 44.9606L183.391 45.0439L183.446 45.1272L183.501 45.21L183.517 45.2302L183.571 45.3137L183.626 45.3972L183.681 45.4808L183.735 45.5644L183.77 45.6156L183.805 45.6677L183.86 45.7515L183.914 45.8353L183.968 45.9192L184.022 46.0029L184.037 46.0228L184.092 46.1068L184.145 46.1909L184.199 46.275L184.253 46.3591L184.287 46.4111L184.322 46.4631L184.375 46.5474L184.429 46.6318L184.482 46.7161L184.536 46.8006L184.551 46.8206L184.604 46.905L184.657 46.9895L184.71 47.0742L184.763 47.1588L184.797 47.2115L184.831 47.2635L184.884 47.3483L184.936 47.4331L184.989 47.518L185.041 47.6029L185.057 47.6236L185.109 47.708L185.161 47.7931L185.213 47.8782L185.265 47.9633L185.299 48.0168L185.332 48.0687L185.384 48.154L185.436 48.2393L185.488 48.3247L185.54 48.4102L185.555 48.4313L185.606 48.5159L185.657 48.6014L185.709 48.687L185.76 48.7727L185.794 48.8269L185.826 48.8787L185.877 48.9645L185.928 49.0503L185.979 49.1362L186.03 49.2221L186.045 49.2439L186.095 49.3285L186.146 49.4146L186.197 49.5006L186.247 49.5868L186.28 49.6418L186.312 49.6934L186.362 49.7797L186.412 49.866L186.462 49.9524L186.513 50.0388L186.528 50.0612L186.577 50.1458L186.627 50.2323L186.676 50.3189L186.726 50.4056L186.759 50.4613L186.79 50.5128L186.839 50.5996L186.889 50.6864L186.938 50.7732L186.987 50.8601L187.003 50.8831L187.05 50.9677L187.1 51.0547L187.148 51.1418L187.197 51.2289L187.23 51.2854L187.26 51.3368L187.309 51.424L187.357 51.5113L187.406 51.5986L187.454 51.6859L187.469 51.7096L187.516 51.7942L187.565 51.8817L187.613 51.9692L187.661 52.0567L187.693 52.114L187.722 52.1653L187.77 52.253L187.818 52.3407L187.866 52.4285L187.913 52.5163L187.928 52.5405L187.974 52.6251L188.022 52.7131L188.069 52.8011L188.116 52.889L188.148 52.947L188.177 52.9982L188.224 53.0863L188.271 53.1745L188.317 53.2628L188.364 53.351L188.379 53.3758L188.424 53.4605L188.471 53.5488L188.517 53.6373L188.564 53.7257L188.595 53.7845L188.623 53.8355L188.669 53.924L188.715 54.0127L188.761 54.1013L188.807 54.19L188.822 54.2154L188.866 54.3001L188.912 54.3889L188.958 54.4778L189.003 54.5667L189.034 54.6262L189.061 54.677L189.107 54.766L189.152 54.8551L189.197 54.9442L189.242 55.0333L189.257 55.0593L189.3 55.144L189.345 55.2332L189.39 55.3225L189.434 55.4119L189.465 55.4721L189.492 55.5227L189.536 55.6122L189.581 55.7017L189.625 55.7912L189.669 55.8808L189.684 55.9074L189.726 55.992L189.77 56.0817L189.814 56.1715L189.858 56.2612L189.888 56.3222L189.914 56.3726L189.957 56.4625L190.001 56.5524L190.044 56.6424L190.088 56.7324L190.103 56.7596L190.143 56.8442L190.187 56.9342L190.23 57.0244L190.273 57.1146L190.303 57.1763L190.328 57.2266L190.37 57.3169L190.413 57.4072L190.456 57.4976L190.498 57.588L190.513 57.6158L190.553 57.7003L190.595 57.7908L190.637 57.8814L190.679 57.9719L190.709 58.0344L190.733 58.0845L190.775 58.1752L190.817 58.2659L190.859 58.3567L190.901 58.4475L190.915 58.4759L190.954 58.5603L190.995 58.6513L191.037 58.7422L191.078 58.8332L191.107 58.8964L191.131 58.9463L191.172 59.0374L191.213 59.1285L191.254 59.2197L191.295 59.3109L191.309 59.3399L191.347 59.4243L191.387 59.5156L191.428 59.6069L191.468 59.6983L191.497 59.7623L191.52 59.8119L191.56 59.9034L191.6 59.9949L191.64 60.0865L191.68 60.1781L191.695 60.2077L191.731 60.292L191.771 60.3837L191.811 60.4754L191.85 60.5672L191.879 60.6318L191.901 60.6813L191.94 60.7732L191.979 60.8651L192.019 60.957L192.058 61.049L192.072 61.0792L192.108 61.1634L192.146 61.2554L192.185 61.3475L192.224 61.4397L192.252 61.5051L192.273 61.5543L192.312 61.6465L192.35 61.7388L192.388 61.8311L192.426 61.9235L192.441 61.9543L192.475 62.0384L192.513 62.1308L192.551 62.2233L192.589 62.3158L192.616 62.3819L192.637 62.4309L192.675 62.5235L192.712 62.6161L192.75 62.7088L192.787 62.8015L192.801 62.833L192.835 62.9169L192.872 63.0097L192.909 63.1025L192.946 63.1954L192.973 63.2623L192.993 63.311L193.03 63.4039L193.066 63.4969L193.103 63.59L193.139 63.683L193.153 63.7151L193.186 63.7989L193.222 63.892L193.258 63.9852L193.294 64.0784L193.32 64.146L193.34 64.1945L193.376 64.2877L193.411 64.3811L193.447 64.4745L193.483 64.5679L193.496 64.6006L193.528 64.6842L193.563 64.7777L193.599 64.8712L193.634 64.9648L193.66 65.0331L193.679 65.0813L193.714 65.1749L193.748 65.2686L193.783 65.3624L193.818 65.4561L193.831 65.4894L193.862 65.5728L193.896 65.6667L193.931 65.7605L193.965 65.8545L193.99 65.9235L194.009 65.9714L194.043 66.0654L194.076 66.1594L194.11 66.2534L194.144 66.3475L194.157 66.3814L194.187 66.4647L194.221 66.5588L194.254 66.653L194.287 66.7472L194.312 66.817L194.33 66.8646L194.363 66.9589L194.396 67.0533L194.429 67.1476L194.462 67.2421L194.475 67.2766L194.504 67.3596L194.536 67.4541L194.569 67.5486L194.601 67.6432L194.626 67.7137L194.643 67.761L194.675 67.8556L194.707 67.9502L194.739 68.0449L194.771 68.1396L194.784 68.1747L194.812 68.2576L194.843 68.3524L194.875 68.4472L194.907 68.5421L194.931 68.6133L194.947 68.6603L194.978 68.7552L195.009 68.8502L195.04 68.9451L195.071 69.0402L195.084 69.0759L195.111 69.1586L195.142 69.2537L195.173 69.3488L195.203 69.4439L195.227 69.5159L195.242 69.5626L195.273 69.6578L195.303 69.753L195.333 69.8483L195.363 69.9436L195.376 69.9799L195.402 70.0624L195.432 70.1578L195.461 70.2532L195.491 70.3487L195.514 70.4213L195.529 70.4676L195.559 70.5631L195.588 70.6587L195.617 70.7543L195.646 70.8499L195.659 70.8868L195.684 70.9691L195.713 71.0647L195.742 71.1604L195.77 71.2561L195.793 71.3294L195.807 71.3755L195.836 71.4713L195.864 71.5671L195.892 71.6629L195.921 71.7588L195.933 71.7964L195.957 71.8784L195.985 71.9743L196.013 72.0703L196.041 72.1663L196.062 72.2403L196.076 72.286L196.104 72.3821L196.132 72.4781L196.159 72.5743L196.186 72.6704L196.198 72.7085L196.221 72.7903L196.248 72.8865L196.275 72.9828L196.302 73.079L196.323 73.1537L196.337 73.1991L196.364 73.2954L196.39 73.3917L196.417 73.4881L196.443 73.5845L196.454 73.6233L196.477 73.7048L196.503 73.8012L196.529 73.8977L196.555 73.9943L196.576 74.0696L196.588 74.1147L196.614 74.2112L196.64 74.3078L196.665 74.4045L196.691 74.5011L196.702 74.5404L196.724 74.6217L196.749 74.7184L196.774 74.8151L196.799 74.9119L196.819 74.988L196.831 75.0326L196.856 75.1295L196.881 75.2263L196.905 75.3232L196.93 75.4201L196.941 75.46L196.961 75.541L196.986 75.6379L197.01 75.7349L197.034 75.8319L197.053 75.9086L197.065 75.9529L197.089 76.05L197.113 76.1471L197.137 76.2442L197.16 76.3413L197.171 76.3818L197.19 76.4625L197.214 76.5597L197.237 76.6569L197.26 76.7541L197.279 76.8315L197.29 76.8755L197.313 76.9728L197.336 77.0701L197.359 77.1674L197.381 77.2648L197.392 77.3058L197.411 77.3862L197.433 77.4837L197.455 77.5811L197.478 77.6785L197.496 77.7566L197.506 77.8002L197.528 77.8977L197.55 77.9952L197.572 78.0927L197.594 78.1903L197.604 78.232L197.622 78.3121L197.643 78.4097L197.665 78.5073L197.686 78.605L197.703 78.6837L197.713 78.7269L197.735 78.8246L197.756 78.9224L197.777 79.0201L197.797 79.1179L197.807 79.1601L197.824 79.2399L197.845 79.3378L197.865 79.4356L197.886 79.5334L197.902 79.6128L197.912 79.6556L197.932 79.7535L197.952 79.8515L197.972 79.9494L197.992 80.0474L198.001 80.0902L198.017 80.1697L198.037 80.2677L198.057 80.3657L198.076 80.4638L198.092 80.5437L198.101 80.5862L198.12 80.6843L198.139 80.7824L198.159 80.8806L198.178 80.9787L198.186 81.0221L198.202 81.1013L198.221 81.1995L198.239 81.2977L198.258 81.396L198.273 81.4765L198.282 81.5186L198.3 81.6169L198.318 81.7152L198.336 81.8135L198.354 81.9118L198.363 81.9558L198.377 82.0346L198.395 82.133L198.413 82.2314L198.43 82.3298L198.445 82.411L198.453 82.4527L198.47 82.5512L198.488 82.6496L198.505 82.7481L198.522 82.8466L198.53 82.8911L198.544 82.9696L198.56 83.0682L198.577 83.1668L198.594 83.2653L198.608 83.3471L198.615 83.3884L198.632 83.487L198.648 83.5857L198.664 83.6843L198.68 83.783L198.688 83.8281L198.701 83.9062L198.717 84.0049L198.733 84.1036L198.749 84.2024L198.762 84.2848L198.769 84.3257L198.784 84.4244L198.8 84.5232L198.815 84.622L198.83 84.7209L198.838 84.7665L198.85 84.8443L198.864 84.9431L198.879 85.042L198.894 85.1409L198.907 85.2239L198.913 85.2644L198.928 85.3633L198.942 85.4622L198.956 85.5612L198.971 85.6601L198.978 85.7063L198.989 85.7838L199.003 85.8827L199.017 85.9817L199.031 86.0807L199.043 86.1644L199.049 86.2044L199.062 86.3035L199.076 86.4026L199.089 86.5016L199.102 86.6007L199.109 86.6474L199.119 86.7245L199.133 86.8236L199.145 86.9227L199.158 87.0219L199.169 87.1061L199.175 87.1458L199.188 87.2449L199.2 87.3441L199.213 87.4433L199.225 87.5425L199.231 87.5898L199.241 87.6665L199.253 87.7657L199.265 87.865L199.277 87.9642L199.287 88.049L199.292 88.0883L199.304 88.1875L199.316 88.2868L199.327 88.3861L199.339 88.4855L199.344 88.5333L199.353 88.6096L199.364 88.7089L199.375 88.8083L199.387 88.9076L199.396 88.993L199.401 89.0318L199.411 89.1312L199.422 89.2306L199.433 89.33L199.443 89.4295L199.449 89.4778L199.457 89.5537L199.467 89.6532L199.477 89.7526L199.487 89.8521L199.496 89.9381L199.5 89.9764L199.51 90.0759L199.52 90.1754L199.529 90.2749L199.539 90.3744L199.544 90.4233L199.551 90.4988L199.56 90.5983L199.57 90.6979L199.579 90.7975L199.587 90.884L199.59 90.9219L199.599 91.0215L199.608 91.1211L199.617 91.2206L199.625 91.3203L199.63 91.3697L199.636 91.4448L199.645 91.5444L199.653 91.644L199.661 91.7437L199.668 91.8308L199.672 91.8682L199.68 91.9679L199.687 92.0675L199.695 92.1672L199.703 92.2669L199.707 92.3169L199.713 92.3915L199.72 92.4912L199.727 92.5909L199.735 92.6906L199.741 92.7783L199.744 92.8152L199.751 92.915L199.758 93.0147L199.765 93.1145L199.771 93.2142L199.775 93.2647L199.78 93.3389L199.786 93.4387L199.793 93.5385L199.799 93.6382L199.805 93.7264L199.807 93.7629L199.813 93.8627L199.819 93.9625L199.825 94.0624L199.831 94.1622L199.834 94.2132L199.838 94.2869L199.844 94.3867L199.849 94.4866L199.855 94.5864L199.859 94.6752L199.861 94.7112L199.867 94.811L199.872 94.9109L199.877 95.0108L199.881 95.1106L199.884 95.1622L199.888 95.2355L199.892 95.3353L199.897 95.4352L199.901 95.5351L199.905 95.6244L199.907 95.6599L199.911 95.7598L199.915 95.8597L199.919 95.9596L199.923 96.0595L199.925 96.1116L199.928 96.1844L199.932 96.2843L199.935 96.3842L199.939 96.4842L199.942 96.574L199.943 96.6091L199.946 96.709L199.95 96.8089L199.953 96.9089L199.956 97.0088L199.957 97.0614L199.959 97.1337L199.962 97.2336L199.965 97.3336L199.967 97.4336L199.97 97.5239L199.971 97.5585L199.973 97.6584L199.975 97.7584L199.977 97.8583L199.979 97.9583L199.98 98.0114L199.982 98.0833L199.984 98.1832L199.985 98.2832L199.987 98.3832L199.988 98.474L199.989 98.5081L199.99 98.6081L199.992 98.7081L199.993 98.808L199.994 98.908L199.995 98.9616L199.995 99.033L199.996 99.133L199.997 99.233L199.998 99.3329L199.998 99.4243L199.999 99.4579L199.999 99.5579L199.999 99.6579L200 99.7578L200 99.8578L200 99.9119L200 99.9828L200 100.083L200 100.183L200 100.283L199.999 100.375L199.999 100.408L199.999 100.508L199.998 100.608L199.997 100.708L199.997 100.808L199.996 100.862L199.996 100.933L199.995 101.033L199.994 101.133L199.992 101.233L199.991 101.325L199.991 101.358L199.989 101.457L199.988 101.557L199.986 101.657L199.985 101.757L199.984 101.812L199.982 101.882L199.98 101.982L199.978 102.082L199.976 102.182L199.974 102.275L199.974 102.307L199.971 102.407L199.969 102.507L199.966 102.607L199.964 102.707L199.962 102.763L199.96 102.832L199.957 102.932L199.954 103.032L199.951 103.132L199.948 103.225L199.947 103.257L199.944 103.357L199.941 103.456L199.937 103.556L199.934 103.656L199.932 103.712L199.929 103.781L199.925 103.881L199.922 103.981L199.917 104.081L199.914 104.175L199.912 104.206L199.908 104.306L199.904 104.406L199.899 104.505L199.895 104.605L199.892 104.662L199.889 104.73L199.884 104.83L199.88 104.93L199.875 105.03L199.87 105.124L199.868 105.155L199.863 105.254L199.858 105.354L199.852 105.454L199.847 105.554L199.844 105.611L199.84 105.679L199.834 105.779L199.829 105.878L199.823 105.978L199.817 106.073L199.815 106.103L199.809 106.203L199.803 106.303L199.797 106.402L199.79 106.502L199.786 106.56L199.782 106.627L199.775 106.727L199.769 106.826L199.762 106.926L199.755 107.021L199.753 107.051L199.746 107.15L199.739 107.25L199.732 107.35L199.724 107.45L199.72 107.507L199.715 107.574L199.707 107.674L199.7 107.774L199.692 107.873L199.685 107.969L199.682 107.998L199.674 108.097L199.666 108.197L199.658 108.297L199.65 108.396L199.644 108.455L199.639 108.521L199.63 108.621L199.622 108.72L199.613 108.82L199.605 108.916L199.602 108.944L199.593 109.044L199.584 109.143L199.575 109.243L199.566 109.343L199.56 109.401L199.554 109.467L199.544 109.566L199.535 109.666L199.525 109.765L199.516 109.862L199.513 109.89L199.503 109.989L199.493 110.089L199.483 110.188L199.473 110.288L199.467 110.347L199.46 110.412L199.449 110.511L199.439 110.611L199.428 110.71L199.418 110.807L199.415 110.835L199.404 110.934L199.393 111.033L199.382 111.133L199.371 111.232L199.364 111.292L199.357 111.356L199.345 111.456L199.334 111.555L199.322 111.654L199.311 111.751L199.307 111.778L199.296 111.878L199.284 111.977L199.272 112.076L199.26 112.175L199.253 112.235L199.244 112.299L199.232 112.399L199.22 112.498L199.207 112.597L199.195 112.694L199.191 112.721L199.179 112.82L199.166 112.919L199.153 113.018L199.14 113.117L199.132 113.178L199.123 113.241L199.11 113.34L199.097 113.44L199.084 113.539L199.07 113.636L199.066 113.662L199.053 113.761L199.039 113.86L199.025 113.959L199.011 114.058L199.002 114.119L198.993 114.182L198.979 114.281L198.965 114.38L198.951 114.479L198.936 114.577L198.932 114.603L198.918 114.702L198.903 114.8L198.888 114.899L198.873 114.998L198.864 115.059L198.854 115.122L198.839 115.22L198.824 115.319L198.809 115.418L198.793 115.517L198.789 115.541L198.773 115.64L198.758 115.739L198.742 115.838L198.726 115.936L198.716 115.998L198.706 116.06L198.69 116.158L198.674 116.257L198.658 116.356L198.641 116.454L198.637 116.479L198.62 116.578L198.604 116.676L198.587 116.775L198.57 116.873L198.559 116.935L198.549 116.996L198.532 117.095L198.515 117.193L198.498 117.292L198.48 117.39L198.475 117.416L198.458 117.513L198.441 117.612L198.423 117.71L198.405 117.808L198.394 117.871L198.383 117.931L198.365 118.03L198.347 118.128L198.329 118.226L198.311 118.325L198.305 118.35L198.287 118.447L198.269 118.546L198.25 118.644L198.232 118.742L198.219 118.805L198.207 118.865L198.189 118.963L198.17 119.061L198.151 119.159L198.132 119.257L198.126 119.283L198.107 119.38L198.088 119.478L198.068 119.576L198.049 119.674L198.036 119.737L198.023 119.796L198.004 119.894L197.984 119.992L197.964 120.09L197.944 120.188L197.938 120.215L197.918 120.31L197.898 120.408L197.877 120.506L197.857 120.604L197.843 120.668L197.83 120.726L197.81 120.824L197.789 120.922L197.768 121.02L197.747 121.117L197.74 121.144L197.72 121.239L197.699 121.337L197.677 121.435L197.656 121.532L197.642 121.596L197.628 121.654L197.607 121.752L197.585 121.849L197.563 121.947L197.541 122.044L197.534 122.072L197.513 122.166L197.491 122.264L197.469 122.361L197.446 122.458L197.431 122.523L197.417 122.58L197.395 122.677L197.372 122.775L197.349 122.872L197.327 122.969L197.319 122.997L197.297 123.091L197.274 123.188L197.251 123.285L197.228 123.383L197.212 123.447L197.198 123.504L197.174 123.601L197.151 123.698L197.127 123.795L197.103 123.892L197.095 123.92L197.072 124.013L197.048 124.11L197.024 124.207L197 124.304L196.983 124.369L196.969 124.425L196.944 124.522L196.92 124.619L196.895 124.716L196.871 124.813L196.862 124.841L196.839 124.934L196.814 125.031L196.789 125.127L196.764 125.224L196.746 125.289L196.731 125.345L196.706 125.441L196.68 125.538L196.655 125.635L196.629 125.731L196.621 125.76L196.596 125.852L196.57 125.948L196.544 126.045L196.518 126.141L196.5 126.207L196.485 126.262L196.459 126.358L196.432 126.455L196.406 126.551L196.379 126.647L196.37 126.677L196.345 126.767L196.318 126.864L196.291 126.96L196.264 127.056L196.245 127.122L196.229 127.176L196.202 127.272L196.175 127.369L196.148 127.465L196.12 127.561L196.111 127.59L196.085 127.681L196.057 127.777L196.029 127.873L196.001 127.969L195.982 128.035L195.965 128.088L195.937 128.184L195.909 128.28L195.881 128.376L195.852 128.472L195.842 128.502L195.816 128.591L195.787 128.687L195.758 128.783L195.73 128.878L195.709 128.945L195.692 128.998L195.663 129.093L195.634 129.189L195.605 129.284L195.576 129.38L195.565 129.41L195.538 129.499L195.508 129.595L195.479 129.69L195.449 129.785L195.428 129.852L195.411 129.904L195.381 130L195.351 130.095L195.321 130.19L195.291 130.286L195.28 130.316L195.252 130.404L195.221 130.499L195.191 130.595L195.16 130.69L195.138 130.756L195.12 130.808L195.09 130.903L195.059 130.998L195.028 131.093L194.997 131.188L194.985 131.219L194.956 131.307L194.925 131.401L194.894 131.496L194.862 131.591L194.839 131.658L194.821 131.709L194.79 131.804L194.758 131.899L194.726 131.993L194.694 132.088L194.682 132.12L194.652 132.206L194.62 132.301L194.588 132.395L194.556 132.49L194.532 132.557L194.514 132.607L194.481 132.702L194.448 132.796L194.415 132.891L194.383 132.985L194.37 133.017L194.34 133.102L194.307 133.197L194.274 133.291L194.24 133.385L194.216 133.453L194.197 133.502L194.164 133.597L194.13 133.691L194.096 133.785L194.063 133.879L194.05 133.911L194.019 133.996L193.985 134.09L193.951 134.184L193.916 134.278L193.891 134.345L193.872 134.394L193.838 134.488L193.803 134.582L193.769 134.676L193.734 134.769L193.721 134.802L193.689 134.886L193.654 134.98L193.619 135.073L193.584 135.167L193.558 135.235L193.539 135.283L193.503 135.377L193.468 135.47L193.432 135.563L193.397 135.657L193.383 135.689L193.351 135.773L193.315 135.866L193.279 135.959L193.243 136.053L193.216 136.121L193.197 136.169L193.16 136.262L193.124 136.355L193.088 136.448L193.051 136.541L193.037 136.574L193.004 136.656L192.967 136.749L192.93 136.842L192.894 136.935L192.866 137.003L192.846 137.051L192.809 137.143L192.772 137.236L192.734 137.329L192.697 137.421L192.682 137.455L192.649 137.537L192.611 137.629L192.573 137.722L192.536 137.814L192.507 137.883L192.487 137.929L192.449 138.022L192.411 138.114L192.373 138.206L192.334 138.299L192.319 138.332L192.285 138.413L192.246 138.506L192.208 138.598L192.169 138.69L192.14 138.758L192.119 138.804L192.08 138.896L192.041 138.988L192.002 139.08L191.963 139.172L191.947 139.206L191.913 139.286L191.873 139.378L191.834 139.47L191.794 139.562L191.764 139.631L191.743 139.676L191.704 139.767L191.664 139.859L191.624 139.951L191.584 140.042L191.567 140.076L191.532 140.156L191.492 140.247L191.452 140.339L191.411 140.43L191.38 140.499L191.359 140.544L191.319 140.635L191.278 140.726L191.237 140.817L191.196 140.908L191.179 140.943L191.143 141.022L191.102 141.113L191.061 141.204L191.02 141.295L190.988 141.364L190.966 141.408L190.925 141.498L190.883 141.589L190.842 141.68L190.8 141.771L190.782 141.806L190.746 141.883L190.704 141.974L190.662 142.065L190.62 142.155L190.587 142.225L190.566 142.268L190.523 142.358L190.481 142.449L190.438 142.539L190.396 142.629L190.378 142.664L190.341 142.742L190.298 142.832L190.255 142.922L190.212 143.012L190.178 143.081L190.156 143.124L190.113 143.214L190.07 143.304L190.027 143.394L189.983 143.484L189.964 143.519L189.927 143.596L189.883 143.685L189.84 143.775L189.796 143.865L189.761 143.934L189.739 143.976L189.695 144.066L189.651 144.155L189.607 144.245L189.562 144.335L189.543 144.37L189.505 144.446L189.461 144.535L189.416 144.624L189.371 144.714L189.336 144.783L189.314 144.824L189.269 144.914L189.224 145.003L189.179 145.092L189.133 145.181L189.114 145.217L189.075 145.291L189.03 145.38L188.984 145.469L188.939 145.558L188.902 145.628L188.88 145.668L188.834 145.757L188.788 145.846L188.742 145.935L188.696 146.023L188.676 146.059L188.637 146.133L188.591 146.222L188.545 146.31L188.498 146.399L188.461 146.468L188.438 146.508L188.392 146.596L188.345 146.685L188.298 146.773L188.251 146.861L188.23 146.897L188.191 146.97L188.144 147.059L188.097 147.147L188.049 147.235L188.011 147.304L187.989 147.344L187.941 147.431L187.894 147.519L187.846 147.607L187.798 147.695L187.777 147.731L187.737 147.803L187.689 147.891L187.641 147.979L187.593 148.066L187.554 148.136L187.531 148.175L187.483 148.262L187.434 148.349L187.386 148.437L187.337 148.524L187.315 148.561L187.275 148.632L187.226 148.719L187.177 148.806L187.128 148.893L187.088 148.963L187.065 149.001L187.016 149.088L186.967 149.175L186.918 149.262L186.868 149.349L186.846 149.386L186.805 149.456L186.755 149.543L186.706 149.63L186.656 149.716L186.615 149.786L186.592 149.823L186.542 149.91L186.492 149.996L186.442 150.083L186.392 150.169L186.368 150.206L186.327 150.276L186.277 150.362L186.226 150.448L186.176 150.534L186.134 150.604L186.111 150.641L186.06 150.727L186.009 150.813L185.958 150.899L185.907 150.984L185.883 151.022L185.841 151.091L185.79 151.176L185.739 151.262L185.688 151.348L185.645 151.418L185.621 151.453L185.57 151.539L185.518 151.624L185.467 151.71L185.415 151.795L185.39 151.833L185.348 151.901L185.296 151.986L185.244 152.071L185.192 152.156L185.148 152.226L185.125 152.261L185.072 152.346L185.02 152.431L184.967 152.516L184.915 152.601L184.889 152.639L184.847 152.706L184.794 152.791L184.741 152.875L184.688 152.96L184.644 153.03L184.62 153.065L184.567 153.149L184.514 153.234L184.46 153.318L184.407 153.402L184.381 153.44L184.338 153.506L184.285 153.591L184.231 153.675L184.177 153.759L184.132 153.829L184.108 153.863L184.054 153.947L184 154.031L183.946 154.115L183.892 154.199L183.865 154.236L183.822 154.302L183.767 154.386L183.713 154.469L183.658 154.553L183.612 154.623L183.588 154.656L183.533 154.74L183.479 154.823L183.424 154.906L183.369 154.99L183.342 155.028L183.298 155.092L183.243 155.176L183.187 155.259L183.132 155.342L183.085 155.412L183.061 155.444L183.005 155.527L182.95 155.61L182.894 155.693L182.838 155.776L182.811 155.814L182.767 155.878L182.711 155.961L182.654 156.043L182.598 156.126L182.55 156.196L182.526 156.228L182.47 156.31L182.413 156.392L182.357 156.475L182.3 156.557L182.272 156.595L182.228 156.658L182.171 156.74L182.114 156.822L182.057 156.904L182.008 156.974L181.984 157.005L181.927 157.087L181.87 157.169L181.812 157.251L181.755 157.333L181.726 157.371L181.681 157.433L181.624 157.515L181.566 157.596L181.509 157.678L181.458 157.748L181.434 157.778L181.377 157.859L181.319 157.941L181.26 158.022L181.202 158.103L181.173 158.142L181.128 158.203L181.069 158.284L181.011 158.365L180.953 158.446L180.902 158.516L180.877 158.545L180.819 158.626L180.76 158.707L180.701 158.788L180.642 158.868L180.612 158.907L180.567 158.967L180.508 159.048L180.449 159.128L180.389 159.209L180.337 159.278L180.313 159.307L180.254 159.388L180.194 159.468L180.135 159.548L180.075 159.628L180.044 159.667L179.999 159.726L179.939 159.806L179.879 159.886L179.819 159.966L179.766 160.035L179.742 160.064L179.682 160.144L179.622 160.223L179.561 160.303L179.501 160.382L179.469 160.421L179.423 160.48L179.363 160.559L179.302 160.639L179.241 160.718L179.188 160.787L179.163 160.815L179.102 160.894L179.041 160.973L178.98 161.052L178.919 161.131L178.887 161.17L178.841 161.228L178.78 161.307L178.718 161.385L178.657 161.464L178.602 161.533L178.578 161.56L178.516 161.639L178.454 161.717L178.393 161.796L178.331 161.874L178.298 161.913L178.251 161.97L178.189 162.048L178.127 162.126L178.065 162.204L178.009 162.273L177.985 162.3L177.923 162.378L177.86 162.456L177.798 162.534L177.735 162.611L177.701 162.65L177.655 162.707L177.592 162.784L177.529 162.862L177.466 162.939L177.41 163.008L177.385 163.034L177.322 163.111L177.259 163.189L177.196 163.266L177.132 163.343L177.098 163.382L177.051 163.438L176.988 163.514L176.924 163.591L176.86 163.668L176.803 163.737L176.779 163.762L176.715 163.839L176.651 163.916L176.587 163.992L176.523 164.069L176.488 164.108L176.441 164.163L176.377 164.239L176.312 164.315L176.248 164.391L176.189 164.46L176.165 164.485L176.101 164.561L176.036 164.637L175.971 164.713L175.907 164.789L175.871 164.828L175.824 164.882L175.759 164.957L175.694 165.033L175.628 165.109L175.569 165.177L175.545 165.201L175.48 165.277L175.414 165.352L175.349 165.427L175.284 165.503L175.247 165.542L175.199 165.595L175.134 165.67L175.068 165.745L175.002 165.82L174.942 165.888L174.918 165.912L174.852 165.987L174.786 166.061L174.72 166.136L174.654 166.211L174.616 166.25L174.569 166.302L174.502 166.376L174.436 166.451L174.369 166.525L174.308 166.593L174.284 166.616L174.217 166.69L174.151 166.764L174.084 166.839L174.017 166.913L173.979 166.952L173.931 167.003L173.864 167.077L173.797 167.151L173.73 167.224L173.668 167.292L173.644 167.314L173.576 167.388L173.509 167.461L173.441 167.535L173.374 167.608L173.335 167.647L173.287 167.698L173.219 167.771L173.152 167.844L173.084 167.917L173.02 167.985L172.997 168.007L172.929 168.079L172.861 168.152L172.792 168.225L172.724 168.298L172.685 168.337L172.637 168.387L172.568 168.459L172.5 168.532L172.431 168.604L172.367 168.671L172.343 168.692L172.274 168.765L172.206 168.837L172.137 168.909L172.068 168.981L172.028 169.02L171.98 169.069L171.91 169.141L171.841 169.213L171.772 169.285L171.707 169.352L171.683 169.372L171.614 169.444L171.544 169.515L171.475 169.587L171.405 169.658L171.365 169.697L171.316 169.745L171.246 169.816L171.176 169.888L171.106 169.959L171.04 170.025L171.017 170.045L170.947 170.116L170.877 170.187L170.806 170.258L170.736 170.329L170.695 170.368L170.646 170.415L170.576 170.485L170.505 170.556L170.435 170.626L170.367 170.693L170.344 170.712L170.273 170.782L170.203 170.853L170.132 170.923L170.061 170.993L170.019 171.032L169.97 171.078L169.899 171.148L169.828 171.218L169.756 171.288L169.688 171.354L169.665 171.372L169.594 171.442L169.522 171.512L169.451 171.581L169.379 171.65L169.336 171.689L169.288 171.735L169.216 171.804L169.144 171.873L169.072 171.942L169.003 172.008L168.98 172.026L168.908 172.095L168.836 172.164L168.764 172.233L168.691 172.301L168.648 172.34L168.599 172.385L168.527 172.453L168.454 172.522L168.382 172.59L168.312 172.656L168.289 172.673L168.216 172.742L168.143 172.81L168.07 172.878L167.998 172.946L167.953 172.985L167.904 173.028L167.831 173.096L167.758 173.164L167.685 173.232L167.614 173.297L167.591 173.314L167.518 173.381L167.445 173.449L167.371 173.516L167.298 173.584L167.253 173.622L167.204 173.665L167.13 173.732L167.056 173.8L166.982 173.867L166.91 173.932L166.888 173.948L166.814 174.015L166.74 174.081L166.666 174.148L166.592 174.215L166.546 174.253L166.497 174.295L166.422 174.362L166.348 174.428L166.274 174.495L166.201 174.559L166.178 174.575L166.104 174.641L166.029 174.707L165.955 174.773L165.88 174.839L165.833 174.877L165.784 174.919L165.709 174.984L165.634 175.05L165.559 175.116L165.485 175.18L165.463 175.195L165.388 175.26L165.313 175.326L165.237 175.391L165.162 175.456L165.115 175.495L165.066 175.535L164.99 175.6L164.915 175.665L164.839 175.73L164.764 175.794L164.742 175.808L164.666 175.873L164.59 175.938L164.515 176.002L164.439 176.067L164.391 176.105L164.341 176.144L164.265 176.209L164.189 176.273L164.113 176.337L164.037 176.401L164.015 176.415L163.939 176.479L163.862 176.543L163.786 176.606L163.709 176.67L163.661 176.708L163.611 176.747L163.535 176.811L163.458 176.874L163.381 176.938L163.304 177.001L163.283 177.014L163.206 177.077L163.129 177.14L163.052 177.204L162.974 177.267L162.925 177.304L162.876 177.342L162.798 177.405L162.721 177.468L162.644 177.531L162.566 177.593L162.544 177.606L162.467 177.669L162.389 177.731L162.312 177.794L162.234 177.856L162.184 177.894L162.134 177.931L162.057 177.993L161.979 178.055L161.901 178.117L161.822 178.179L161.8 178.192L161.723 178.253L161.644 178.315L161.566 178.377L161.488 178.438L161.437 178.476L161.388 178.512L161.309 178.573L161.231 178.635L161.152 178.696L161.073 178.757L161.051 178.77L160.973 178.831L160.894 178.892L160.815 178.952L160.736 179.013L160.685 179.051L160.635 179.086L160.556 179.147L160.477 179.207L160.398 179.268L160.319 179.328L160.296 179.341L160.218 179.401L160.138 179.461L160.059 179.521L159.979 179.581L159.927 179.618L159.878 179.653L159.798 179.713L159.719 179.773L159.639 179.832L159.559 179.892L159.535 179.905L159.457 179.963L159.377 180.023L159.297 180.082L159.217 180.141L159.164 180.178L159.115 180.212L159.035 180.271L158.955 180.331L158.874 180.389L158.794 180.448L158.77 180.462L158.691 180.519L158.611 180.577L158.53 180.636L158.45 180.695L158.396 180.731L158.347 180.764L158.266 180.823L158.185 180.881L158.104 180.939L158.024 180.997L157.999 181.011L157.92 181.067L157.839 181.125L157.758 181.183L157.677 181.24L157.623 181.277L157.573 181.309L157.492 181.367L157.411 181.424L157.329 181.482L157.248 181.539L157.223 181.552L157.144 181.607L157.063 181.664L156.981 181.722L156.899 181.779L156.844 181.815L156.795 181.846L156.713 181.903L156.631 181.96L156.549 182.017L156.467 182.073L156.442 182.087L156.363 182.14L156.281 182.197L156.199 182.253L156.116 182.309L156.061 182.345L156.012 182.376L155.929 182.432L155.847 182.488L155.764 182.544L155.682 182.6L155.656 182.613L155.577 182.666L155.494 182.722L155.411 182.777L155.329 182.833L155.272 182.868L155.223 182.898L155.14 182.954L155.057 183.009L154.974 183.064L154.891 183.119L154.864 183.132L154.785 183.184L154.702 183.239L154.619 183.293L154.536 183.348L154.479 183.384L154.43 183.413L154.346 183.467L154.263 183.522L154.18 183.576L154.096 183.63L154.069 183.644L153.99 183.694L153.906 183.748L153.822 183.802L153.738 183.856L153.68 183.891L153.632 183.92L153.548 183.973L153.464 184.027L153.38 184.08L153.296 184.134L153.268 184.147L153.189 184.197L153.105 184.25L153.02 184.303L152.936 184.356L152.877 184.391L152.829 184.419L152.744 184.472L152.66 184.525L152.575 184.577L152.491 184.63L152.463 184.643L152.383 184.692L152.299 184.744L152.214 184.797L152.129 184.849L152.07 184.883L152.021 184.91L151.936 184.962L151.851 185.014L151.766 185.066L151.681 185.118L151.652 185.131L151.573 185.179L151.488 185.231L151.403 185.282L151.318 185.333L151.257 185.368L151.209 185.394L151.124 185.445L151.038 185.496L150.953 185.547L150.867 185.598L150.838 185.612L150.759 185.658L150.673 185.709L150.587 185.76L150.502 185.81L150.441 185.844L150.392 185.87L150.307 185.92L150.221 185.97L150.135 186.021L150.049 186.071L150.019 186.084L149.939 186.13L149.853 186.18L149.767 186.23L149.681 186.279L149.619 186.313L149.571 186.338L149.485 186.387L149.399 186.437L149.312 186.486L149.226 186.535L149.195 186.549L149.116 186.593L149.029 186.642L148.943 186.691L148.856 186.74L148.794 186.774L148.746 186.798L148.659 186.846L148.572 186.895L148.485 186.944L148.399 186.992L148.367 187.005L148.288 187.049L148.201 187.097L148.114 187.145L148.027 187.193L147.964 187.226L147.916 187.25L147.829 187.298L147.742 187.345L147.654 187.393L147.567 187.441L147.535 187.454L147.456 187.496L147.368 187.544L147.281 187.591L147.193 187.638L147.129 187.671L147.082 187.694L146.994 187.741L146.907 187.788L146.819 187.834L146.731 187.881L146.699 187.894L146.62 187.936L146.532 187.982L146.444 188.029L146.356 188.075L146.291 188.108L146.244 188.129L146.156 188.176L146.068 188.222L145.98 188.268L145.891 188.314L145.859 188.327L145.779 188.367L145.691 188.413L145.603 188.459L145.514 188.504L145.449 188.536L145.402 188.557L145.313 188.603L145.225 188.648L145.136 188.693L145.047 188.738L145.014 188.751L144.935 188.79L144.846 188.835L144.757 188.88L144.668 188.925L144.602 188.957L144.556 188.977L144.467 189.021L144.378 189.066L144.289 189.11L144.2 189.154L144.166 189.167L144.087 189.206L143.997 189.25L143.908 189.294L143.819 189.338L143.752 189.369L143.706 189.388L143.616 189.432L143.527 189.476L143.437 189.519L143.348 189.562L143.313 189.575L143.234 189.613L143.145 189.656L143.055 189.699L142.965 189.742L142.898 189.773L142.852 189.791L142.762 189.834L142.672 189.877L142.582 189.92L142.492 189.962L142.457 189.975L142.378 190.011L142.288 190.053L142.198 190.096L142.108 190.138L142.04 190.168L141.994 190.186L141.904 190.228L141.814 190.27L141.723 190.312L141.633 190.354L141.598 190.366L141.519 190.402L141.428 190.443L141.338 190.484L141.247 190.526L141.178 190.556L141.133 190.573L141.042 190.614L140.952 190.655L140.861 190.696L140.77 190.737L140.734 190.749L140.655 190.784L140.565 190.824L140.474 190.865L140.383 190.905L140.313 190.935L140.268 190.951L140.177 190.992L140.086 191.032L139.995 191.072L139.904 191.112L139.867 191.124L139.788 191.157L139.697 191.197L139.606 191.237L139.515 191.276L139.445 191.305L139.399 191.321L139.308 191.361L139.217 191.4L139.125 191.439L139.034 191.478L138.997 191.49L138.918 191.523L138.827 191.561L138.735 191.6L138.644 191.639L138.572 191.667L138.528 191.683L138.436 191.721L138.344 191.76L138.253 191.798L138.161 191.836L138.123 191.848L138.044 191.879L137.953 191.917L137.861 191.955L137.769 191.993L137.697 192.021L137.652 192.036L137.56 192.073L137.468 192.111L137.376 192.148L137.284 192.186L137.246 192.197L137.167 192.228L137.075 192.265L136.983 192.302L136.891 192.339L136.818 192.366L136.774 192.38L136.682 192.417L136.589 192.454L136.497 192.49L136.404 192.527L136.365 192.538L136.287 192.568L136.195 192.604L136.102 192.64L136.01 192.676L135.936 192.703L135.892 192.717L135.8 192.752L135.707 192.788L135.614 192.824L135.521 192.859L135.482 192.871L135.404 192.899L135.311 192.935L135.218 192.97L135.125 193.005L135.051 193.031L135.008 193.044L134.915 193.079L134.822 193.114L134.728 193.149L134.635 193.183L134.595 193.194L134.517 193.222L134.424 193.256L134.331 193.291L134.238 193.325L134.163 193.351L134.12 193.363L134.026 193.397L133.933 193.431L133.84 193.465L133.746 193.499L133.706 193.51L133.628 193.536L133.535 193.57L133.441 193.603L133.347 193.637L133.272 193.662L133.229 193.674L133.136 193.707L133.042 193.74L132.948 193.773L132.854 193.806L132.813 193.816L132.736 193.842L132.642 193.875L132.548 193.907L132.454 193.94L132.378 193.965L132.336 193.976L132.242 194.008L132.148 194.04L132.054 194.072L131.96 194.104L131.918 194.114L131.841 194.139L131.747 194.171L131.653 194.203L131.558 194.234L131.482 194.258L131.439 194.269L131.345 194.3L131.251 194.331L131.157 194.363L131.062 194.394L131.02 194.404L130.943 194.428L130.849 194.458L130.754 194.489L130.66 194.52L130.582 194.544L130.54 194.553L130.446 194.584L130.351 194.614L130.257 194.644L130.162 194.675L130.119 194.684L130.043 194.707L129.948 194.737L129.853 194.767L129.758 194.797L129.68 194.82L129.639 194.829L129.544 194.859L129.449 194.888L129.354 194.918L129.259 194.947L129.216 194.956L129.14 194.978L129.045 195.007L128.95 195.036L128.855 195.065L128.776 195.088L128.735 195.096L128.64 195.125L128.545 195.154L128.449 195.182L128.354 195.21L128.31 195.22L128.234 195.241L128.139 195.269L128.044 195.297L127.948 195.325L127.869 195.347L127.828 195.355L127.733 195.383L127.638 195.41L127.542 195.438L127.447 195.465L127.402 195.474L127.326 195.494L127.231 195.522L127.135 195.549L127.04 195.576L126.96 195.597L126.919 195.605L126.824 195.631L126.728 195.658L126.633 195.685L126.537 195.711L126.492 195.72L126.416 195.739L126.321 195.766L126.225 195.792L126.129 195.818L126.048 195.839L126.008 195.845L125.912 195.871L125.817 195.897L125.721 195.923L125.625 195.949L125.579 195.957L125.504 195.975L125.408 196.001L125.312 196.026L125.216 196.051L125.135 196.072L125.095 196.078L124.999 196.103L124.903 196.128L124.807 196.152L124.711 196.177L124.665 196.185L124.589 196.203L124.493 196.227L124.397 196.252L124.301 196.276L124.219 196.296L124.18 196.301L124.083 196.325L123.987 196.349L123.891 196.373L123.794 196.397L123.748 196.405L123.673 196.421L123.577 196.445L123.48 196.468L123.384 196.492L123.301 196.511L123.262 196.516L123.166 196.539L123.069 196.562L122.973 196.585L122.876 196.608L122.829 196.615L122.755 196.631L122.658 196.654L122.561 196.676L122.465 196.699L122.381 196.717L122.343 196.722L122.246 196.744L122.15 196.766L122.053 196.788L121.956 196.81L121.908 196.817L121.834 196.832L121.737 196.854L121.641 196.875L121.544 196.897L121.46 196.914L121.422 196.918L121.325 196.94L121.228 196.961L121.131 196.982L121.034 197.003Z" fill="white"/>
</svg>
