<svg width="200" height="200" viewBox="0 0 200 200" fill="none" xmlns="http://www.w3.org/2000/svg">
<path d="M124.556 196.504L124.517 196.512L124.448 196.528L124.351 196.553L124.254 196.577L124.158 196.601L124.076 196.621L124.049 196.625L123.952 196.649L123.856 196.673L123.759 196.696L123.662 196.72L123.622 196.728L123.553 196.744L123.456 196.767L123.36 196.79L123.263 196.814L123.18 196.833L123.153 196.836L123.057 196.86L122.96 196.883L122.863 196.905L122.766 196.928L122.725 196.936L122.657 196.95L122.56 196.973L122.463 196.996L122.366 197.018L122.282 197.036L122.256 197.04L122.159 197.062L122.062 197.084L121.965 197.106L121.868 197.128L121.827 197.135L121.758 197.149L121.661 197.171L121.564 197.192L121.467 197.214L121.383 197.232L121.357 197.235L121.26 197.256L121.163 197.277L121.066 197.298L120.968 197.319L120.926 197.326L120.858 197.339L120.761 197.36L120.664 197.381L120.566 197.401L120.482 197.419L120.457 197.421L120.359 197.441L120.262 197.462L120.164 197.482L120.067 197.502L120.024 197.508L119.957 197.521L119.859 197.541L119.762 197.561L119.664 197.58L119.579 197.597L119.554 197.599L119.457 197.619L119.359 197.638L119.261 197.657L119.164 197.676L119.12 197.683L119.054 197.694L118.956 197.713L118.858 197.732L118.76 197.751L118.674 197.767L118.65 197.769L118.552 197.787L118.455 197.806L118.357 197.824L118.259 197.842L118.215 197.848L118.149 197.859L118.051 197.877L117.953 197.895L117.855 197.913L117.768 197.928L117.745 197.93L117.647 197.947L117.549 197.965L117.451 197.982L117.353 198L117.308 198.006L117.243 198.016L117.145 198.033L117.047 198.05L116.948 198.067L116.861 198.082L116.838 198.083L116.74 198.099L116.642 198.116L116.544 198.132L116.446 198.149L116.4 198.154L116.335 198.164L116.237 198.18L116.139 198.196L116.04 198.212L115.952 198.226L115.93 198.227L115.832 198.243L115.733 198.258L115.635 198.274L115.537 198.289L115.491 198.294L115.426 198.303L115.328 198.319L115.23 198.334L115.131 198.349L115.042 198.362L115.021 198.362L114.922 198.377L114.824 198.392L114.725 198.407L114.627 198.421L114.581 198.426L114.516 198.434L114.418 198.449L114.319 198.463L114.221 198.477L114.131 198.49H114.11L114.012 198.504L113.913 198.518L113.814 198.531L113.716 198.545L113.669 198.549L113.605 198.557L113.506 198.57L113.408 198.584L113.309 198.597L113.219 198.609L113.198 198.608L113.1 198.622L113.001 198.634L112.903 198.647L112.804 198.66L112.756 198.664L112.693 198.671L112.594 198.684L112.496 198.696L112.397 198.708L112.306 198.719L112.286 198.719L112.187 198.731L112.088 198.743L111.99 198.755L111.891 198.767L111.843 198.77L111.78 198.776L111.681 198.788L111.582 198.8L111.483 198.811L111.392 198.821L111.372 198.821L111.273 198.832L111.175 198.843L111.076 198.854L110.977 198.865L110.928 198.868L110.866 198.874L110.767 198.884L110.668 198.895L110.569 198.905L110.477 198.915L110.458 198.914L110.359 198.924L110.26 198.934L110.161 198.944L110.062 198.954L110.013 198.957L109.951 198.962L109.852 198.972L109.753 198.982L109.654 198.991L109.561 199L109.543 198.998L109.444 199.008L109.345 199.017L109.246 199.026L109.147 199.035L109.097 199.038L109.036 199.042L108.936 199.051L108.837 199.06L108.738 199.068L108.645 199.076L108.627 199.075L108.528 199.083L108.429 199.091L108.33 199.1L108.231 199.108L108.18 199.11L108.119 199.113L108.02 199.121L107.921 199.129L107.822 199.137L107.728 199.144L107.711 199.142L107.612 199.15L107.512 199.157L107.413 199.165L107.314 199.172L107.263 199.174L107.203 199.176L107.104 199.184L107.004 199.19L106.905 199.197L106.81 199.204L106.794 199.201L106.695 199.208L106.595 199.215L106.496 199.221L106.397 199.227L106.345 199.229L106.286 199.231L106.186 199.237L106.087 199.243L105.988 199.249L105.892 199.255L105.877 199.252L105.777 199.258L105.678 199.263L105.579 199.269L105.479 199.274L105.427 199.275L105.368 199.277L105.269 199.282L105.17 199.287L105.07 199.292L104.974 199.297L104.959 199.294L104.86 199.299L104.76 199.304L104.661 199.308L104.562 199.313L104.509 199.313L104.45 199.314L104.351 199.319L104.252 199.323L104.152 199.327L104.056 199.331L104.041 199.328L103.942 199.332L103.842 199.336L103.743 199.339L103.644 199.343L103.59 199.343L103.532 199.343L103.433 199.347L103.334 199.35L103.234 199.353L103.137 199.356L103.123 199.353L103.023 199.356L102.924 199.359L102.825 199.362L102.725 199.364L102.671 199.364L102.614 199.364L102.515 199.366L102.415 199.369L102.316 199.371L102.218 199.373L102.205 199.37L102.105 199.372L102.006 199.374L101.906 199.376L101.807 199.377L101.753 199.377L101.696 199.376L101.596 199.377L101.497 199.379L101.398 199.38L101.299 199.381L101.286 199.378L101.187 199.379L101.088 199.38L100.988 199.381L100.889 199.382L100.834 199.381L100.777 199.379L100.678 199.38L100.579 199.38L100.479 199.381L100.38 199.381L100.368 199.378L100.269 199.378L100.169 199.378L100.07 199.378L99.9706 199.378L99.915 199.376L99.8593 199.374L99.76 199.374L99.6606 199.374L99.5613 199.373L99.4619 199.373L99.4498 199.369L99.3506 199.368L99.2513 199.368L99.1519 199.367L99.0526 199.366L98.9965 199.363L98.9414 199.361L98.842 199.36L98.7427 199.359L98.6433 199.357L98.544 199.356L98.5313 199.352L98.4328 199.35L98.3335 199.349L98.2341 199.347L98.1348 199.345L98.0781 199.342L98.0236 199.339L97.9243 199.337L97.825 199.335L97.7257 199.333L97.6264 199.33L97.6131 199.326L97.5152 199.324L97.4159 199.321L97.3166 199.319L97.2173 199.316L97.1601 199.312L97.1062 199.309L97.0069 199.306L96.9076 199.303L96.8083 199.3L96.7091 199.296L96.6953 199.292L96.598 199.289L96.4987 199.285L96.3995 199.282L96.3002 199.278L96.2425 199.274L96.1892 199.27L96.09 199.266L95.9907 199.263L95.8915 199.258L95.7922 199.254L95.7783 199.249L95.7138 199.213L95.7021 199.121L95.6904 199.03L95.6786 198.938L95.6669 198.863L95.6552 198.842L95.6435 198.75L95.6318 198.658L95.6201 198.566L95.6084 198.474L95.5967 198.443L95.585 198.378L95.5733 198.286L95.5616 198.194L95.5499 198.102L95.5382 198.027L95.5266 198.006L95.5149 197.914L95.5032 197.822L95.4916 197.73L95.4799 197.638L95.4683 197.606L95.4566 197.541L95.445 197.449L95.4333 197.357L95.4217 197.265L95.4101 197.189L95.3985 197.169L95.3868 197.076L95.3752 196.984L95.3636 196.892L95.352 196.8L95.3404 196.768L95.3288 196.703L95.3172 196.611L95.3056 196.519L95.2941 196.427L95.2825 196.35L95.2709 196.33L95.2593 196.238L95.2478 196.145L95.2362 196.053L95.2247 195.961L95.2131 195.928L95.2016 195.864L95.1901 195.772L95.1785 195.679L95.167 195.587L95.1555 195.51L95.144 195.49L95.1324 195.397L95.1209 195.305L95.1094 195.213L95.0979 195.12L95.0865 195.086L95.075 195.023L95.0635 194.931L95.052 194.838L95.0405 194.746L95.0291 194.668L95.0176 194.648L95.0061 194.556L94.9947 194.463L94.9832 194.371L94.9718 194.278L94.9604 194.244L94.9489 194.181L94.9375 194.088L94.9261 193.996L94.9147 193.903L94.9032 193.824L94.8918 193.805L94.8804 193.713L94.869 193.62L94.8577 193.528L94.8463 193.435L94.8349 193.4L94.8235 193.337L94.8121 193.244L94.8008 193.152L94.7894 193.059L94.7781 192.98L94.7667 192.961L94.7554 192.868L94.744 192.776L94.7327 192.683L94.7214 192.59L94.71 192.554L94.6987 192.492L94.6874 192.399L94.6761 192.306L94.6648 192.214L94.6535 192.133L94.6422 192.115L94.6309 192.023L94.6196 191.93L94.6084 191.837L94.5971 191.744L94.5858 191.707L94.5746 191.646L94.5633 191.553L94.5521 191.46L94.5408 191.367L94.5296 191.286L94.5183 191.268L94.5071 191.175L94.4959 191.082L94.4847 190.989L94.4735 190.896L94.4623 190.859L94.4511 190.798L94.4399 190.705L94.4287 190.612L94.4175 190.519L94.4063 190.437L94.3952 190.42L94.384 190.327L94.3728 190.234L94.3617 190.141L94.3505 190.047L94.3394 190.009L94.3283 189.949L94.3171 189.856L94.306 189.762L94.2949 189.669L94.2838 189.587L94.2727 189.57L94.2616 189.477L94.2505 189.384L94.2394 189.291L94.2283 189.197L94.2172 189.158L94.2061 189.098L94.1951 189.005L94.184 188.912L94.173 188.818L94.1619 188.735L94.1509 188.719L94.1398 188.626L94.1288 188.532L94.1178 188.439L94.1068 188.346L94.0957 188.306L94.0847 188.246L94.0737 188.153L94.0627 188.06L94.0517 187.966L94.0407 187.882L94.0298 187.867L94.0188 187.773L94.0078 187.68L93.9969 187.586L93.9859 187.493L93.975 187.453L93.964 187.393L93.9531 187.3L93.9422 187.206L93.9312 187.113L93.9203 187.028L93.9094 187.013L93.8985 186.919L93.8876 186.826L93.8767 186.732L93.8658 186.638L93.8549 186.598L93.8441 186.539L93.8332 186.445L93.8223 186.351L93.8115 186.258L93.8006 186.173L93.7898 186.158L93.7789 186.064L93.7681 185.97L93.7573 185.877L93.7465 185.783L93.7357 185.741L93.7248 185.683L93.714 185.589L93.7032 185.495L93.6925 185.402L93.6817 185.316L93.6709 185.301L93.6601 185.208L93.6494 185.114L93.6386 185.02L93.6279 184.926L93.6171 184.884L93.6064 184.826L93.5957 184.732L93.5849 184.638L93.5742 184.544L93.5635 184.458L93.5528 184.444L93.5421 184.35L93.5314 184.256L93.5207 184.162L93.51 184.068L93.4994 184.025L93.4887 183.967L93.478 183.873L93.4674 183.779L93.4567 183.685L93.4461 183.598L93.4355 183.585L93.4248 183.491L93.4142 183.397L93.4036 183.302L93.393 183.208L93.3824 183.165L93.3718 183.108L93.3612 183.013L93.3506 182.919L93.3401 182.825L93.3295 182.737L93.3189 182.724L93.3084 182.63L93.2978 182.536L93.2873 182.442L93.2768 182.348L93.2662 182.303L93.2557 182.247L93.2452 182.152L93.2347 182.058L93.2242 181.964L93.2137 181.875L93.2032 181.863L93.1927 181.768L93.1823 181.674L93.1718 181.58L93.1613 181.486L93.1509 181.441L93.1404 181.384L93.13 181.29L93.1196 181.196L93.1091 181.101L93.0987 181.012L93.0883 181L93.0779 180.906L93.0675 180.811L93.0571 180.717L93.0467 180.622L93.0364 180.577L93.026 180.521L93.0156 180.426L93.0053 180.332L92.9949 180.237L92.9846 180.148L92.9743 180.136L92.9639 180.041L92.9536 179.947L92.9433 179.852L92.933 179.758L92.9227 179.711L92.9124 179.656L92.9021 179.561L92.8918 179.467L92.8815 179.372L92.8713 179.282L92.861 179.271L92.8508 179.176L92.8405 179.081L92.8303 178.987L92.8201 178.892L92.8098 178.845L92.7996 178.79L92.7894 178.695L92.7792 178.601L92.769 178.506L92.7588 178.415L92.7487 178.404L92.7385 178.309L92.7283 178.214L92.7182 178.12L92.708 178.025L92.6979 177.977L92.6878 177.923L92.6776 177.828L92.6675 177.733L92.6574 177.638L92.6473 177.546L92.6372 177.536L92.6271 177.441L92.617 177.346L92.6069 177.252L92.5969 177.157L92.5868 177.108L92.5768 177.054L92.5667 176.959L92.5567 176.864L92.5466 176.77L92.5366 176.677L92.5266 176.667L92.5166 176.572L92.5066 176.477L92.4966 176.382L92.4866 176.287L92.4766 176.238L92.4667 176.185L92.4567 176.09L92.4467 175.995L92.4368 175.9L92.4268 175.806L92.4169 175.797L92.407 175.702L92.3971 175.607L92.3872 175.512L92.3773 175.417L92.3674 175.367L92.3575 175.314L92.3476 175.219L92.3377 175.123L92.3278 175.028L92.318 174.934L92.3081 174.925L92.2983 174.83L92.2885 174.735L92.2786 174.64L92.2688 174.545L92.259 174.494L92.2492 174.442L92.2394 174.346L92.2296 174.251L92.2198 174.156L92.2101 174.061L92.2003 174.053L92.1905 173.958L92.1808 173.862L92.171 173.767L92.1613 173.672L92.1516 173.62L92.1419 173.568L92.1321 173.473L92.1225 173.378L92.1128 173.282L92.1031 173.187L92.0934 173.179L92.0837 173.084L92.074 172.988L92.0644 172.893L92.0547 172.797L92.0451 172.746L92.0355 172.694L92.0258 172.599L92.0162 172.503L92.0066 172.408L91.997 172.312L91.9874 172.304L91.9778 172.209L91.9683 172.113L91.9587 172.018L91.9491 171.922L91.9396 171.869L91.93 171.818L91.9205 171.723L91.911 171.627L91.9015 171.532L91.8919 171.436L91.8824 171.427L91.8729 171.332L91.8634 171.237L91.854 171.141L91.8445 171.046L91.835 170.992L91.8256 170.942L91.8161 170.846L91.8067 170.75L91.7972 170.655L91.7878 170.559L91.7784 170.549L91.769 170.455L91.7596 170.359L91.7502 170.264L91.7408 170.168L91.7315 170.114L91.7221 170.064L91.7127 169.968L91.7034 169.872L91.6941 169.776L91.6847 169.681L91.6754 169.67L91.6661 169.577L91.6568 169.481L91.6475 169.385L91.6382 169.289L91.6289 169.234L91.6196 169.185L91.6104 169.089L91.6011 168.993L91.5919 168.897L91.5826 168.801L91.5734 168.79L91.5641 168.697L91.5549 168.601L91.5457 168.505L91.5365 168.409L91.5273 168.354L91.5182 168.305L91.509 168.209L91.4998 168.113L91.4907 168.017L91.4815 167.921L91.4724 167.909L91.4632 167.816L91.4541 167.72L91.445 167.624L91.4359 167.528L91.4268 167.472L91.4177 167.423L91.4086 167.327L91.3995 167.231L91.3905 167.135L91.3814 167.039L91.3724 167.027L91.3633 166.934L91.3543 166.838L91.3453 166.742L91.3363 166.646L91.3273 166.589L91.3183 166.541L91.3093 166.445L91.3003 166.349L91.2913 166.253L91.2824 166.156L91.2734 166.143L91.2645 166.051L91.2555 165.955L91.2466 165.859L91.2377 165.763L91.2288 165.706L91.2199 165.658L91.211 165.562L91.2021 165.465L91.1933 165.369L91.1844 165.273L91.1755 165.259L91.1667 165.168L91.1578 165.071L91.149 164.975L91.1402 164.879L91.1314 164.821L91.1226 164.773L91.1138 164.677L91.105 164.581L91.0962 164.484L91.0874 164.388L91.0787 164.373L91.0699 164.283L91.0612 164.186L91.0525 164.09L91.0437 163.993L91.035 163.935L91.0263 163.888L91.0176 163.791L91.0089 163.695L91.0003 163.598L90.9916 163.502L90.9829 163.487L90.9743 163.396L90.9656 163.3L90.957 163.203L90.9484 163.107L90.9398 163.048L90.9311 163.001L90.9225 162.905L90.914 162.808L90.9054 162.712L90.8968 162.615L90.8882 162.599L90.8797 162.509L90.8711 162.413L90.8626 162.316L90.8541 162.219L90.8456 162.16L90.8371 162.114L90.8286 162.017L90.8201 161.92L90.8116 161.824L90.8031 161.727L90.7947 161.711L90.7862 161.621L90.7778 161.524L90.7693 161.428L90.7609 161.331L90.7525 161.27L90.7441 161.225L90.7357 161.128L90.7273 161.032L90.7189 160.935L90.7105 160.838L90.7022 160.821L90.6938 160.732L90.6855 160.635L90.6772 160.538L90.6688 160.442L90.6605 160.38L90.6522 160.335L90.6439 160.239L90.6356 160.142L90.6274 160.045L90.6191 159.948L90.6108 159.93L90.6026 159.842L90.5943 159.745L90.5861 159.648L90.5779 159.551L90.5697 159.489L90.5615 159.445L90.5533 159.348L90.5451 159.251L90.5369 159.154L90.5288 159.057L90.5206 159.039L90.5125 158.951L90.5043 158.854L90.4962 158.757L90.4881 158.66L90.48 158.597L90.4719 158.553L90.4638 158.456L90.4557 158.359L90.4476 158.262L90.4396 158.165L90.4315 158.146L90.4235 158.058L90.4154 157.961L90.4074 157.864L90.3994 157.767L90.3914 157.704L90.3834 157.661L90.3754 157.563L90.3674 157.466L90.3595 157.369L90.3515 157.272L90.3436 157.252L90.3356 157.165L90.3277 157.068L90.3198 156.971L90.3119 156.874L90.304 156.81L90.2961 156.767L90.2882 156.67L90.2803 156.573L90.2725 156.475L90.2646 156.378L90.2568 156.358L90.2489 156.271L90.2411 156.174L90.2333 156.077L90.2255 155.98L90.2177 155.915L90.2099 155.873L90.2022 155.775L90.1944 155.678L90.1866 155.581L90.1789 155.483L90.1712 155.462L90.1634 155.376L90.1557 155.279L90.148 155.182L90.1403 155.084L90.1326 155.019L90.125 154.977L90.1173 154.88L90.1097 154.782L90.102 154.685L90.0944 154.588L90.0867 154.566L90.0791 154.48L90.0715 154.383L90.0639 154.286L90.0563 154.188L90.0488 154.122L90.0412 154.081L90.0336 153.983L90.0261 153.886L90.0186 153.788L90.011 153.691L90.0035 153.669L89.996 153.583L89.9885 153.486L89.981 153.389L89.9735 153.291L89.9661 153.225L89.9586 153.183L89.9512 153.086L89.9437 152.988L89.9363 152.891L89.9289 152.793L89.9215 152.77L89.9141 152.686L89.9067 152.588L89.8993 152.491L89.892 152.393L89.8846 152.326L89.8773 152.285L89.8699 152.188L89.8626 152.09L89.8553 151.992L89.848 151.895L89.8407 151.871L89.8334 151.787L89.8261 151.689L89.8188 151.592L89.8116 151.494L89.8043 151.426L89.7971 151.386L89.7899 151.289L89.7827 151.191L89.7755 151.093L89.7683 150.995L89.7611 150.971L89.7539 150.888L89.7467 150.79L89.7396 150.692L89.7325 150.594L89.7253 150.526L89.7182 150.486L89.7111 150.389L89.704 150.291L89.6969 150.193L89.6898 150.095L89.6827 150.07L89.6757 149.987L89.6686 149.889L89.6616 149.792L89.6545 149.694L89.6475 149.625L89.6405 149.586L89.6335 149.488L89.6265 149.39L89.6195 149.292L89.6126 149.194L89.6056 149.168L89.5987 149.086L89.5917 148.988L89.5848 148.89L89.5779 148.792L89.571 148.722L89.5641 148.684L89.5572 148.586L89.5503 148.488L89.5435 148.39L89.5366 148.292L89.5298 148.266L89.5229 148.184L89.5161 148.086L89.5093 147.988L89.5025 147.89L89.4957 147.82L89.4889 147.781L89.4821 147.683L89.4754 147.585L89.4686 147.487L89.4619 147.389L89.4552 147.362L89.4485 147.281L89.4417 147.183L89.4351 147.085L89.4284 146.987L89.4217 146.916L89.415 146.878L89.4084 146.78L89.4017 146.682L89.3951 146.584L89.3885 146.486L89.3819 146.458L89.3753 146.377L89.3687 146.279L89.3621 146.181L89.3555 146.083L89.3489 146.011L89.3424 145.974L89.3359 145.876L89.3293 145.778L89.3228 145.68L89.3163 145.582L89.3098 145.553L89.3033 145.473L89.2969 145.374L89.2904 145.276L89.284 145.178L89.2775 145.106L89.2711 145.069L89.2646 144.971L89.2582 144.873L89.2518 144.775L89.2455 144.676L89.2391 144.647L89.2327 144.567L89.2263 144.469L89.22 144.371L89.2137 144.273L89.2074 144.2L89.201 144.164L89.1947 144.065L89.1884 143.967L89.1822 143.869L89.1759 143.77L89.1696 143.741L89.1634 143.661L89.1572 143.563L89.1509 143.465L89.1447 143.366L89.1385 143.293L89.1323 143.257L89.1261 143.159L89.12 143.06L89.1138 142.962L89.1076 142.864L89.1015 142.834L89.0954 142.754L89.0893 142.656L89.0831 142.558L89.077 142.459L89.071 142.385L89.0649 142.35L89.0588 142.252L89.0528 142.153L89.0467 142.055L89.0407 141.956L89.0347 141.925L89.0287 141.847L89.0227 141.748L89.0167 141.65L89.0107 141.552L89.0048 141.477L88.9988 141.442L88.9929 141.344L88.9869 141.245L88.981 141.147L88.9751 141.048L88.9692 141.017L88.9633 140.939L88.9574 140.84L88.9516 140.742L88.9457 140.643L88.9399 140.567L88.934 140.533L88.9282 140.435L88.9224 140.336L88.9166 140.238L88.9108 140.139L88.905 140.107L88.8993 140.03L88.8935 139.931L88.8878 139.832L88.8821 139.734L88.8763 139.658L88.8706 139.624L88.8649 139.525L88.8592 139.427L88.8536 139.328L88.8479 139.23L88.8422 139.197L88.8366 139.12L88.831 139.021L88.8253 138.923L88.8197 138.824L88.8141 138.747L88.8086 138.714L88.803 138.615L88.7974 138.517L88.7919 138.418L88.7863 138.319L88.7808 138.286L88.7753 138.209L88.7698 138.111L88.7643 138.012L88.7588 137.913L88.7533 137.836L88.7478 137.803L88.7424 137.705L88.737 137.606L88.7315 137.507L88.7261 137.408L88.7207 137.374L88.7153 137.298L88.7099 137.2L88.7046 137.101L88.6992 137.002L88.6938 136.924L88.6885 136.892L88.6832 136.793L88.6779 136.694L88.6726 136.596L88.6673 136.497L88.662 136.462L88.6567 136.387L88.6515 136.288L88.6462 136.189L88.641 136.09L88.6358 136.011L88.6305 135.98L88.6253 135.881L88.6202 135.782L88.615 135.683L88.6098 135.585L88.6047 135.549L88.5995 135.474L88.5944 135.375L88.5893 135.277L88.5841 135.178L88.579 135.098L88.574 135.067L88.5689 134.968L88.5638 134.87L88.5588 134.771L88.5537 134.672L88.5487 134.636L88.5437 134.561L88.5387 134.462L88.5337 134.363L88.5287 134.265L88.5237 134.185L88.5188 134.154L88.5138 134.055L88.5089 133.956L88.504 133.857L88.499 133.758L88.4941 133.722L88.4892 133.648L88.4844 133.549L88.4795 133.45L88.4746 133.351L88.4698 133.27L88.465 133.24L88.4601 133.141L88.4553 133.042L88.4505 132.943L88.4457 132.844L88.441 132.807L88.4362 132.734L88.4314 132.634L88.4267 132.535L88.422 132.436L88.4173 132.355L88.4126 132.326L88.4079 132.227L88.4032 132.128L88.3985 132.029L88.3939 131.929L88.3892 131.892L88.3846 131.819L88.38 131.72L88.3753 131.621L88.3707 131.521L88.3661 131.44L88.3616 131.411L88.357 131.312L88.3525 131.212L88.3479 131.113L88.3434 131.014L88.3389 130.976L88.3344 130.903L88.3299 130.804L88.3254 130.705L88.3209 130.606L88.3165 130.524L88.312 130.495L88.3076 130.396L88.3032 130.297L88.2987 130.198L88.2943 130.098L88.2899 130.059L88.2856 129.988L88.2812 129.888L88.2769 129.789L88.2725 129.69L88.2682 129.607L88.2639 129.579L88.2596 129.48L88.2553 129.381L88.251 129.281L88.2467 129.182L88.2425 129.142L88.2382 129.071L88.234 128.972L88.2297 128.873L88.2255 128.773L88.2213 128.69L88.2171 128.662L88.213 128.563L88.2088 128.464L88.2047 128.365L88.2005 128.265L88.1964 128.225L88.1923 128.154L88.1882 128.055L88.1841 127.956L88.18 127.856L88.1759 127.772L88.1719 127.745L88.1678 127.646L88.1638 127.547L88.1598 127.447L88.1557 127.348L88.1518 127.307L88.1478 127.237L88.1438 127.137L88.1398 127.038L88.1359 126.939L88.132 126.854L88.128 126.828L88.1241 126.728L88.1202 126.629L88.1163 126.529L88.1124 126.43L88.1086 126.389L88.1047 126.319L88.1009 126.219L88.0971 126.12L88.0932 126.021L88.0894 125.935L88.0856 125.909L88.0819 125.81L88.0781 125.711L88.0743 125.611L88.0706 125.512L88.0668 125.47L88.0631 125.4L88.0594 125.301L88.0557 125.202L88.052 125.102L88.0484 125.016L88.0447 124.991L88.0411 124.891L88.0374 124.792L88.0338 124.692L88.0302 124.593L88.0266 124.55L88.023 124.482L88.0194 124.382L88.0158 124.283L88.0123 124.183L88.0088 124.096L88.0052 124.072L88.0017 123.972L87.9982 123.873L87.9947 123.773L87.9912 123.674L87.9878 123.63L87.9843 123.562L87.9809 123.463L87.9774 123.363L87.974 123.264L87.9706 123.176L87.9672 123.152L87.9638 123.053L87.9604 122.953L87.9571 122.854L87.9537 122.754L87.9504 122.71L87.9471 122.643L87.9438 122.543L87.9405 122.444L87.9372 122.344L87.9339 122.256L87.9306 122.232L87.9274 122.133L87.9242 122.033L87.9209 121.934L87.9177 121.834L87.9145 121.79L87.9113 121.723L87.9082 121.623L87.905 121.523L87.9018 121.424L87.8987 121.335L87.8956 121.312L87.8924 121.213L87.8894 121.113L87.8863 121.013L87.8832 120.914L87.8801 120.869L87.8771 120.802L87.874 120.702L87.871 120.603L87.868 120.503L87.865 120.414L87.862 120.391L87.859 120.292L87.856 120.192L87.8531 120.093L87.8501 119.993L87.8472 119.947L87.8443 119.881L87.8413 119.782L87.8385 119.682L87.8356 119.582L87.8327 119.492L87.8298 119.47L87.827 119.371L87.8242 119.271L87.8213 119.171L87.8185 119.072L87.8157 119.025L87.8129 118.96L87.8102 118.86L87.8074 118.761L87.8046 118.661L87.8019 118.571L87.7992 118.549L87.7965 118.449L87.7938 118.35L87.7911 118.25L87.7884 118.15L87.7858 118.103L87.7831 118.038L87.7805 117.939L87.7778 117.839L87.7752 117.739L87.7726 117.648L87.77 117.627L87.7675 117.528L87.7649 117.428L87.7623 117.328L87.7598 117.228L87.7573 117.181L87.7548 117.117L87.7523 117.017L87.7498 116.917L87.7473 116.817L87.7448 116.726L87.7424 116.705L87.7399 116.606L87.7375 116.506L87.7351 116.406L87.7327 116.306L87.7303 116.258L87.7279 116.194L87.7255 116.095L87.7232 115.995L87.7208 115.895L87.7185 115.803L87.7162 115.783L87.7139 115.683L87.7116 115.583L87.7093 115.484L87.707 115.384L87.7048 115.335L87.7025 115.272L87.7003 115.172L87.6981 115.072L87.6959 114.973L87.6937 114.88L87.6915 114.86L87.6893 114.761L87.6872 114.661L87.685 114.561L87.6829 114.461L87.6808 114.412L87.6786 114.349L87.6766 114.249L87.6745 114.15L87.6724 114.05L87.6703 113.956L87.6683 113.938L87.6663 113.838L87.6642 113.738L87.6622 113.638L87.6602 113.538L87.6582 113.488L87.6563 113.426L87.6543 113.326L87.6524 113.226L87.6504 113.127L87.6485 113.033L87.6466 113.014L87.6447 112.915L87.6428 112.815L87.6409 112.715L87.6391 112.615L87.6372 112.565L87.6354 112.503L87.6336 112.403L87.6318 112.303L87.63 112.203L87.6282 112.109L87.6264 112.091L87.6246 111.991L87.6229 111.891L87.6211 111.792L87.6194 111.692L87.6177 111.641L87.616 111.579L87.6143 111.48L87.6126 111.38L87.611 111.28L87.6093 111.185L87.6077 111.168L87.6061 111.068L87.6045 110.968L87.6029 110.868L87.6013 110.768L87.5997 110.716L87.5981 110.656L87.5966 110.556L87.595 110.456L87.5935 110.356L87.592 110.26L87.5905 110.244L87.589 110.144L87.5875 110.044L87.5861 109.944L87.5846 109.844L87.5832 109.792L87.5817 109.732L87.5803 109.632L87.5789 109.532L87.5775 109.432L87.5761 109.336L87.5748 109.32L87.5734 109.22L87.5721 109.12L87.5708 109.02L87.5695 108.92L87.5681 108.867L87.5669 108.808L87.5656 108.708L87.5643 108.608L87.5631 108.508L87.5618 108.411L87.5606 108.396L87.5594 108.296L87.5582 108.196L87.557 108.096L87.5558 107.996L87.5546 107.943L87.5535 107.884L87.5523 107.784L87.5512 107.684L87.5501 107.584L87.549 107.486L87.5479 107.472L87.5468 107.372L87.5457 107.272L87.5447 107.172L87.5436 107.072L87.5426 107.018L87.5416 106.959L87.5406 106.859L87.5396 106.76L87.5386 106.66L87.5376 106.561L87.5367 106.547L87.5357 106.447L87.5348 106.347L87.5339 106.247L87.533 106.147L87.5321 106.093L87.5312 106.035L87.5303 105.935L87.5294 105.835L87.5286 105.735L87.5278 105.636L87.5269 105.623L87.5261 105.523L87.5253 105.423L87.5246 105.323L87.5238 105.223L87.523 105.168L87.5223 105.11L87.5215 105.01L87.5208 104.911L87.5201 104.811L87.5194 104.711L87.5187 104.698L87.5181 104.598L87.5174 104.498L87.5168 104.398L87.5161 104.298L87.5155 104.242L87.5149 104.186L87.5143 104.086L87.5137 103.986L87.5131 103.886L87.5126 103.786L87.512 103.773L87.5115 103.673L87.5109 103.573L87.5104 103.474L87.5099 103.374L87.5094 103.317L87.509 103.261L87.5085 103.161L87.5081 103.061L87.5076 102.961L87.5072 102.861L87.5068 102.848L87.5064 102.749L87.506 102.649L87.5056 102.549L87.5052 102.449L87.5049 102.392L87.5046 102.336L87.5042 102.236L87.5039 102.136L87.5036 102.036L87.5033 101.936L87.503 101.923L87.5028 101.824L87.5025 101.724L87.5023 101.624L87.502 101.524L87.5018 101.466L87.5016 101.412L87.5014 101.312L87.5012 101.212L87.5011 101.112L87.5009 101.012L87.5008 100.997L87.5006 100.899L87.5005 100.799L87.5004 100.699L87.5003 100.599L87.5002 100.541L87.5002 100.487L87.5001 100.387L87.5001 100.287L87.5 100.187L87.5 100.087L87.5 100.072V99.9743L87.5 99.8743L87.5 99.7743L87.5001 99.6743L87.5001 99.6156L87.5002 99.5619L87.5003 99.4619L87.5004 99.3619L87.5005 99.2619L87.5006 99.1619L87.5007 99.1467L87.5008 99.0494L87.501 98.9495L87.5012 98.8495L87.5013 98.7495L87.5015 98.6902L87.5017 98.637L87.5019 98.537L87.5022 98.4371L87.5024 98.3371L87.5026 98.2371L87.5029 98.2213L87.5032 98.1246L87.5035 98.0247L87.5038 97.9247L87.5041 97.8247L87.5044 97.7649L87.5047 97.7122L87.5051 97.6123L87.5054 97.5123L87.5058 97.4123L87.5062 97.3123L87.5066 97.2959L87.507 97.1999L87.5074 97.0999L87.5078 96.9999L87.5083 96.8999L87.5087 96.8395L87.5092 96.7875L87.5097 96.6875L87.5102 96.5875L87.5107 96.4875L87.5112 96.3876L87.5117 96.3706L87.5123 96.2751L87.5128 96.1752L87.5134 96.0752L87.514 95.9752L87.5146 95.9142L87.5152 95.8628L87.5158 95.7628L87.5164 95.6628L87.5171 95.5629L87.5177 95.4629L87.5184 95.4454L87.5191 95.3504L87.5198 95.2505L87.5205 95.1505L87.5212 95.0506L87.5219 94.989L87.5227 94.9381L87.5234 94.8382L87.5242 94.7382L87.5249 94.6383L87.5257 94.5383L87.5266 94.5202L87.5274 94.4259L87.5282 94.3259L87.529 94.226L87.5299 94.126L87.5307 94.0639L87.5316 94.0136L87.5325 93.9136L87.5334 93.8137L87.5343 93.7138L87.5352 93.6138L87.5362 93.5952L87.5371 93.5014L87.5381 93.4015L87.5391 93.3015L87.5401 93.2016L87.5411 93.1389L87.5421 93.0892L87.5431 92.9892L87.5441 92.8893L87.5452 92.7893L87.5463 92.6894L87.5473 92.6702L87.5484 92.577L87.5495 92.4771L87.5506 92.3772L87.5518 92.2772L87.5529 92.214L87.554 92.1648L87.5552 92.0649L87.5564 91.965L87.5576 91.8651L87.5588 91.7651L87.56 91.7454L87.5612 91.6528L87.5624 91.5529L87.5637 91.4529L87.5649 91.353L87.5662 91.2893L87.5675 91.2407L87.5688 91.1408L87.5701 91.0409L87.5714 90.9409L87.5728 90.841L87.5741 90.8207L87.5755 90.7287L87.5769 90.6288L87.5782 90.5289L87.5796 90.429L87.581 90.3646L87.5825 90.3167L87.5839 90.2168L87.5853 90.1169L87.5868 90.017L87.5883 89.9171L87.5898 89.8962L87.5912 89.8048L87.5928 89.7049L87.5943 89.605L87.5958 89.5051L87.5974 89.4402L87.5989 89.3928L87.6005 89.2929L87.6021 89.1931L87.6037 89.0932L87.6053 88.9933L87.6069 88.9719L87.6085 88.881L87.6102 88.7812L87.6118 88.6813L87.6135 88.5814L87.6152 88.516L87.6169 88.4692L87.6186 88.3693L87.6203 88.2694L87.622 88.1696L87.6238 88.0697L87.6255 88.0477L87.6273 87.9575L87.6291 87.8576L87.6309 87.7578L87.6327 87.6579L87.6345 87.5919L87.6363 87.5457L87.6382 87.4459L87.64 87.346L87.6419 87.2462L87.6438 87.1463L87.6457 87.1238L87.6476 87.0341L87.6495 86.9343L87.6514 86.8345L87.6534 86.7346L87.6553 86.6681L87.6573 86.6225L87.6593 86.5227L87.6612 86.4228L87.6632 86.323L87.6653 86.2232L87.6673 86.2001L87.6693 86.111L87.6714 86.0112L87.6735 85.9114L87.6755 85.8116L87.6776 85.7445L87.6797 85.6995L87.6818 85.5997L87.684 85.4999L87.6861 85.4001L87.6882 85.3003L87.6904 85.2767L87.6926 85.1882L87.6948 85.0884L87.697 84.9886L87.6992 84.8888L87.7014 84.8212L87.7037 84.7768L87.7059 84.677L87.7082 84.5772L87.7105 84.4774L87.7127 84.3777L87.715 84.3535L87.7174 84.2656L87.7197 84.1659L87.722 84.0661L87.7244 83.9663L87.7267 83.8981L87.7291 83.8543L87.7315 83.7545L87.7339 83.6548L87.7363 83.5551L87.7387 83.4553L87.7411 83.4306L87.7436 83.3433L87.7461 83.2436L87.7485 83.1438L87.751 83.0441L87.7535 82.9754L87.756 82.9321L87.7586 82.8324L87.7611 82.7327L87.7636 82.633L87.7662 82.5333L87.7688 82.508L87.7713 82.4213L87.7739 82.3216L87.7765 82.2219L87.7792 82.1222L87.7818 82.0529L87.7844 82.0103L87.7871 81.9106L87.7898 81.8109L87.7924 81.7112L87.7952 81.6115L87.7979 81.5857L87.8006 81.4996L87.8033 81.3999L87.806 81.3003L87.8088 81.2006L87.8116 81.1308L87.8143 81.0887L87.8171 80.9891L87.8199 80.8894L87.8228 80.7897L87.8256 80.6901L87.8284 80.6637L87.8313 80.5783L87.8342 80.4786L87.837 80.379L87.8399 80.2793L87.8428 80.209L87.8457 80.1675L87.8487 80.0679L87.8516 79.9683L87.8546 79.8686L87.8575 79.769L87.8605 79.7421L87.8635 79.6572L87.8665 79.5576L87.8695 79.458L87.8725 79.3584L87.8755 79.2875L87.8786 79.2467L87.8817 79.1471L87.8847 79.0475L87.8878 78.9479L87.8909 78.8483L87.894 78.8209L87.8972 78.7366L87.9003 78.637L87.9034 78.5374L87.9066 78.4379L87.9098 78.3664L87.9129 78.3262L87.9161 78.2266L87.9193 78.1271L87.9226 78.0275L87.9258 77.928L87.929 77.9L87.9323 77.8163L87.9356 77.7168L87.9388 77.6172L87.9421 77.5177L87.9454 77.4457L87.9488 77.4061L87.9521 77.3066L87.9554 77.2071L87.9588 77.1075L87.9622 77.008L87.9655 76.9795L87.9689 76.8965L87.9723 76.797L87.9757 76.6975L87.9792 76.598L87.9826 76.5254L87.986 76.4864L87.9895 76.3869L87.993 76.2875L87.9965 76.188L88 76.0885L88.0035 76.0595L88.007 75.977L88.0105 75.8775L88.0141 75.7781L88.0176 75.6786L88.0212 75.6056L88.0248 75.5672L88.0284 75.4677L88.032 75.3683L88.0356 75.2688L88.0392 75.1694L88.0429 75.1398L88.0466 75.058L88.0502 74.9586L88.0539 74.8591L88.0576 74.7597L88.0613 74.6861L88.065 74.6484L88.0687 74.549L88.0725 74.4495L88.0762 74.3501L88.08 74.2507L88.0838 74.2206L88.0876 74.1394L88.0914 74.04L88.0952 73.9407L88.099 73.8413L88.1028 73.7672L88.1067 73.73L88.1105 73.6306L88.1144 73.5313L88.1183 73.4319L88.1222 73.3325L88.1261 73.3019L88.13 73.2213L88.1339 73.122L88.1379 73.0226L88.1418 72.9233L88.1458 72.8487L88.1498 72.8121L88.1538 72.7128L88.1578 72.6135L88.1618 72.5141L88.1658 72.4148L88.1699 72.3837L88.1739 72.3037L88.178 72.2044L88.1821 72.1051L88.1861 72.0058L88.1902 71.9306L88.1943 71.8947L88.1985 71.7954L88.2026 71.6961L88.2067 71.5969L88.2109 71.4976L88.2151 71.4659L88.2193 71.3865L88.2235 71.2873L88.2277 71.188L88.2319 71.0888L88.2361 71.0131L88.2403 70.9778L88.2446 70.8786L88.2489 70.7793L88.2531 70.6801L88.2574 70.5809L88.2617 70.5487L88.266 70.4699L88.2704 70.3707L88.2747 70.2715L88.279 70.1723L88.2834 70.0961L88.2878 70.0614L88.2922 69.9622L88.2966 69.863L88.301 69.7638L88.3054 69.6647L88.3098 69.6319L88.3143 69.5538L88.3187 69.4547L88.3232 69.3555L88.3277 69.2563L88.3321 69.1796L88.3366 69.1456L88.3411 69.0464L88.3457 68.9473L88.3502 68.8481L88.3548 68.749L88.3593 68.7158L88.3639 68.6383L88.3685 68.5392L88.3731 68.44L88.3777 68.3409L88.3823 68.2637L88.3869 68.2302L88.3916 68.1311L88.3962 68.0321L88.4009 67.933L88.4056 67.8339L88.4102 67.8001L88.4149 67.7233L88.4197 67.6242L88.4244 67.5251L88.4291 67.4261L88.4339 67.3483L88.4386 67.3155L88.4434 67.2165L88.4482 67.1174L88.4529 67.0184L88.4578 66.9194L88.4626 66.8851L88.4674 66.8088L88.4722 66.7098L88.4771 66.6108L88.4819 66.5118L88.4868 66.4335L88.4917 66.4013L88.4966 66.3024L88.5015 66.2034L88.5064 66.1044L88.5114 66.0054L88.5163 65.9706L88.5213 65.895L88.5262 65.7961L88.5312 65.6971L88.5362 65.5982L88.5412 65.5193L88.5462 65.4878L88.5512 65.3888L88.5563 65.2899L88.5613 65.191L88.5664 65.0921L88.5714 65.0568L88.5765 64.9818L88.5816 64.8829L88.5867 64.784L88.5918 64.6851L88.597 64.6058L88.6021 64.5748L88.6072 64.4759L88.6124 64.3771L88.6176 64.2782L88.6228 64.1794L88.628 64.1435L88.6332 64.0692L88.6384 63.9703L88.6436 63.8715L88.6489 63.7726L88.6541 63.6928L88.6594 63.6625L88.6646 63.5637L88.6699 63.4649L88.6752 63.3661L88.6805 63.2673L88.6859 63.2309L88.6912 63.1572L88.6965 63.0584L88.7019 62.9596L88.7073 62.8608L88.7126 62.7805L88.718 62.7508L88.7234 62.652L88.7288 62.5533L88.7343 62.4545L88.7397 62.3558L88.7451 62.3189L88.7506 62.2458L88.7561 62.1471L88.7615 62.0484L88.767 61.9497L88.7725 61.8688L88.778 61.8398L88.7836 61.7411L88.7891 61.6424L88.7947 61.5437L88.8002 61.445L88.8058 61.4076L88.8114 61.3352L88.817 61.2365L88.8226 61.1378L88.8282 61.0392L88.8338 60.9578L88.8394 60.9294L88.8451 60.8308L88.8508 60.7321L88.8564 60.6335L88.8621 60.5349L88.8678 60.497L88.8735 60.4252L88.8792 60.3266L88.8849 60.228L88.8907 60.1294L88.8964 60.0475L88.9022 60.0197L88.9079 59.9211L88.9137 59.8226L88.9195 59.724L88.9253 59.6255L88.9311 59.5871L88.937 59.5159L88.9428 59.4173L88.9487 59.3188L88.9545 59.2203L88.9604 59.1379L88.9663 59.1107L88.9722 59.0122L88.9781 58.9137L88.984 58.8152L88.9899 58.7167L88.9958 58.6778L89.0018 58.6073L89.0077 58.5088L89.0137 58.4103L89.0197 58.3119L89.0257 58.229L89.0317 58.2025L89.0377 58.104L89.0437 58.0056L89.0498 57.9072L89.0558 57.8088L89.0619 57.7693L89.0679 57.6994L89.074 57.601L89.0801 57.5026L89.0862 57.4042L89.0923 57.3208L89.0984 57.2949L89.1046 57.1966L89.1107 57.0982L89.1169 56.9998L89.123 56.9015L89.1292 56.8616L89.1354 56.7923L89.1416 56.6939L89.1478 56.5956L89.154 56.4973L89.1603 56.4134L89.1665 56.3881L89.1728 56.2898L89.179 56.1916L89.1853 56.0932L89.1916 55.995L89.1979 55.9546L89.2042 55.8859L89.2105 55.7876L89.2168 55.6894L89.2232 55.5911L89.2295 55.5067L89.2359 55.4821L89.2423 55.3839L89.2486 55.2856L89.255 55.1874L89.2614 55.0892L89.2679 55.0483L89.2743 54.9803L89.2807 54.8821L89.2872 54.7839L89.2936 54.6857L89.3001 54.6008L89.3066 54.5768L89.3131 54.4787L89.3196 54.3805L89.3261 54.2824L89.3326 54.1842L89.3391 54.1428L89.3457 54.0754L89.3522 53.9773L89.3588 53.8792L89.3654 53.7811L89.3719 53.6957L89.3786 53.6724L89.3852 53.5743L89.3918 53.4762L89.3984 53.3781L89.405 53.28L89.4117 53.2381L89.4184 53.1714L89.425 53.0733L89.4317 52.9753L89.4384 52.8773L89.4451 52.7913L89.4518 52.7687L89.4585 52.6707L89.4653 52.5726L89.472 52.4746L89.4788 52.3766L89.4855 52.3342L89.4923 52.2681L89.4991 52.1702L89.5059 52.0722L89.5127 51.9742L89.5195 51.8878L89.5263 51.8658L89.5332 51.7679L89.54 51.6699L89.5469 51.572L89.5538 51.4741L89.5606 51.4312L89.5675 51.3657L89.5744 51.2678L89.5813 51.1699L89.5883 51.072L89.5952 50.9851L89.6021 50.9638L89.6091 50.8659L89.6161 50.768L89.623 50.6702L89.63 50.5723L89.637 50.5289L89.644 50.4641L89.651 50.3663L89.6581 50.2685L89.6651 50.1707L89.6721 50.0833L89.6792 50.0626L89.6863 49.9648L89.6933 49.867L89.7004 49.7692L89.7075 49.6714L89.7146 49.6275L89.7218 49.5634L89.7289 49.4656L89.736 49.3679L89.7432 49.2702L89.7503 49.1823L89.7575 49.1622L89.7647 49.0645L89.7719 48.9668L89.7791 48.8691L89.7863 48.7714L89.7935 48.727L89.8007 48.6635L89.808 48.5658L89.8152 48.4682L89.8225 48.3705L89.8298 48.2821L89.837 48.2627L89.8443 48.1651L89.8516 48.0674L89.8589 47.9698L89.8663 47.8722L89.8736 47.8273L89.8809 47.7645L89.8883 47.6669L89.8956 47.5693L89.903 47.4717L89.9104 47.3829L89.9178 47.3641L89.9252 47.2665L89.9326 47.169L89.94 47.0714L89.9475 46.9739L89.9549 46.9285L89.9624 46.8664L89.9698 46.7689L89.9773 46.6714L89.9848 46.5739L89.9923 46.4845L89.9998 46.4664L90.0073 46.3689L90.0148 46.2714L90.0223 46.174L90.0299 46.0765L90.0374 46.0307L90.045 45.9691L90.0526 45.8717L90.0601 45.7743L90.0677 45.6769L90.0753 45.587L90.0829 45.5695L90.0906 45.4722L90.0982 45.3748L90.1058 45.2774L90.1135 45.18L90.1212 45.1337L90.1288 45.0728L90.1365 44.9755L90.1442 44.8781L90.1519 44.7808L90.1596 44.6905L90.1673 44.6737L90.175 44.5764L90.1828 44.479L90.1905 44.3818L90.1983 44.2845L90.2061 44.2376L90.2138 44.1774L90.2216 44.0802L90.2294 43.9829L90.2372 43.8857L90.245 43.7948L90.2529 43.7787L90.2607 43.6815L90.2685 43.5843L90.2764 43.4871L90.2843 43.3899L90.2921 43.3425L90.3 43.283L90.3079 43.1858L90.3158 43.0886L90.3237 42.9915L90.3317 42.9002L90.3396 42.8847L90.3475 42.7875L90.3555 42.6904L90.3635 42.5933L90.3714 42.4962L90.3794 42.4484L90.3874 42.3895L90.3954 42.2924L90.4034 42.1953L90.4114 42.0982L90.4195 42.0064L90.4275 41.9916L90.4355 41.8945L90.4436 41.7975L90.4517 41.7005L90.4597 41.6035L90.4678 41.5552L90.4759 41.4969L90.484 41.3999L90.4921 41.3029L90.5003 41.2059L90.5084 41.1137L90.5165 41.0995L90.5247 41.0025L90.5328 40.9056L90.541 40.8086L90.5492 40.7117L90.5574 40.6629L90.5656 40.6053L90.5738 40.5084L90.582 40.4115L90.5902 40.3146L90.5985 40.2219L90.6067 40.2084L90.615 40.1115L90.6232 40.0146L90.6315 39.9178L90.6398 39.8209L90.6481 39.7717L90.6564 39.7148L90.6647 39.6179L90.673 39.5211L90.6813 39.4243L90.6897 39.3311L90.698 39.3182L90.7064 39.2215L90.7147 39.1247L90.7231 39.0279L90.7315 38.9312L90.7399 38.8814L90.7483 38.8252L90.7567 38.7284L90.7651 38.6317L90.7736 38.535L90.782 38.4413L90.7905 38.4291L90.7989 38.3324L90.8074 38.2358L90.8159 38.1391L90.8243 38.0424L90.8328 37.9922L90.8413 37.9366L90.8498 37.84L90.8584 37.7434L90.8669 37.6467L90.8754 37.5525L90.884 37.541L90.8925 37.4444L90.9011 37.3478L90.9097 37.2513L90.9183 37.1547L90.9269 37.104L90.9355 37.0491L90.9441 36.9525L90.9527 36.856L90.9613 36.7595L90.97 36.6648L90.9786 36.6539L90.9873 36.5574L90.9959 36.4609L91.0046 36.3645L91.0133 36.268L91.022 36.2168L91.0307 36.1626L91.0394 36.0661L91.0481 35.9697L91.0568 35.8732L91.0656 35.7781L91.0743 35.7679L91.0831 35.6715L91.0919 35.5751L91.1006 35.4787L91.1094 35.3823L91.1182 35.3307L91.127 35.2771L91.1358 35.1807L91.1446 35.0844L91.1534 34.9881L91.1623 34.8924L91.1711 34.8829L91.18 34.7866L91.1888 34.6903L91.1977 34.594L91.2066 34.4977L91.2155 34.4456L91.2244 34.3927L91.2333 34.2964L91.2422 34.2002L91.2511 34.1039L91.26 34.0078L91.269 33.999L91.2779 33.9028L91.2869 33.8066L91.2958 33.7104L91.3048 33.6142L91.3138 33.5616L91.3228 33.5093L91.3318 33.4132L91.3408 33.317L91.3498 33.2209L91.3588 33.1248L91.3679 33.1157L91.3769 33.02L91.386 32.9239L91.395 32.8278L91.4041 32.7317L91.4132 32.6787L91.4222 32.6271L91.4313 32.531L91.4404 32.435L91.4496 32.3389L91.4587 32.2429L91.4678 32.2333L91.4769 32.1384L91.4861 32.0424L91.4952 31.9464L91.5044 31.8504L91.5136 31.7968L91.5227 31.7459L91.5319 31.65L91.5411 31.554L91.5503 31.4581L91.5595 31.3622L91.5688 31.3521L91.578 31.2578L91.5872 31.1619L91.5965 31.066L91.6057 30.9701L91.615 30.9161L91.6243 30.8659L91.6335 30.77L91.6428 30.6742L91.6521 30.5783L91.6614 30.4825L91.6707 30.472L91.6801 30.3783L91.6894 30.2825L91.6987 30.1868L91.7081 30.091L91.7174 30.0365L91.7268 29.9869L91.7362 29.8912L91.7455 29.7954L91.7549 29.6997L91.7643 29.604L91.7737 29.593L91.7831 29.5L91.7926 29.4043L91.802 29.3086L91.8114 29.2129L91.8209 29.158L91.8303 29.1091L91.8398 29.0134L91.8492 28.9178L91.8587 28.8222L91.8682 28.7265L91.8777 28.7151L91.8872 28.6228L91.8967 28.5272L91.9062 28.4316L91.9157 28.3361L91.9253 28.2806L91.9348 28.2324L91.9444 28.1369L91.9539 28.0413L91.9635 27.9458L91.9731 27.8503L91.9827 27.8384L91.9922 27.7468L92.0018 27.6513L92.0114 27.5558L92.0211 27.4603L92.0307 27.4044L92.0403 27.3569L92.0499 27.2614L92.0596 27.166L92.0692 27.0706L92.0789 26.9752L92.0886 26.9628L92.0982 26.8719L92.1079 26.7765L92.1176 26.6811L92.1273 26.5857L92.137 26.5294L92.1467 26.4825L92.1565 26.3872L92.1662 26.2919L92.1759 26.1965L92.1857 26.1012L92.1954 26.0884L92.2052 25.9981L92.215 25.9028L92.2247 25.8076L92.2345 25.7123L92.2443 25.6555L92.2541 25.6093L92.2639 25.5141L92.2737 25.4189L92.2836 25.3236L92.2934 25.2285L92.3032 25.2151L92.3131 25.1256L92.3229 25.0304L92.3328 24.9352L92.3427 24.8401L92.3525 24.7828L92.3624 24.7373L92.3723 24.6422L92.3822 24.5471L92.3921 24.452L92.402 24.3569L92.412 24.3431L92.4219 24.2542L92.4318 24.1591L92.4418 24.0641L92.4517 23.969L92.4617 23.9113L92.4717 23.8665L92.4816 23.7714L92.4916 23.6764L92.5016 23.5815L92.5116 23.4865L92.5216 23.4722L92.5316 23.384L92.5416 23.2891L92.5517 23.1941L92.5617 23.0992L92.5717 23.041L92.5818 22.9968L92.5919 22.9019L92.6019 22.807L92.612 22.7122L92.6221 22.6173L92.6322 22.6026L92.6423 22.5151L92.6524 22.4202L92.6625 22.3254L92.6726 22.2306L92.6827 22.1719L92.6928 22.1284L92.703 22.0336L92.7131 21.9388L92.7233 21.8441L92.7334 21.7493L92.7436 21.7341L92.7538 21.6473L92.764 21.5526L92.7741 21.4578L92.7843 21.3631L92.7945 21.304L92.8047 21.2612L92.815 21.1665L92.8252 21.0719L92.8354 20.9772L92.8457 20.8826L92.8559 20.8669L92.8662 20.7808L92.8764 20.6862L92.8867 20.5915L92.897 20.497L92.9072 20.4374L92.9175 20.3953L92.9278 20.3007L92.9381 20.2061L92.9484 20.1116L92.9588 20.0171L92.9691 20.001L92.9794 19.9155L92.9898 19.821L93.0001 19.7265L93.0105 19.632L93.0208 19.572L93.0312 19.5305L93.0415 19.4361L93.0519 19.3417L93.0623 19.2472L93.0727 19.1528L93.0831 19.1363L93.0935 19.0515L93.1039 18.9571L93.1144 18.8627L93.1248 18.7683L93.1352 18.7078L93.1457 18.6671L93.1561 18.5727L93.1666 18.4784L93.177 18.3841L93.1875 18.2898L93.198 18.2728L93.2085 18.1887L93.219 18.0944L93.2295 18.0001L93.24 17.9059L93.2505 17.8449L93.261 17.8049L93.2715 17.7107L93.282 17.6164L93.2926 17.5222L93.3031 17.428L93.3137 17.4106L93.3242 17.3272L93.3348 17.233L93.3454 17.1389L93.3559 17.0447L93.3665 16.9833L93.3771 16.9439L93.3877 16.8498L93.3983 16.7557L93.4089 16.6617L93.4195 16.5676L93.4302 16.5497L93.4408 16.4669L93.4514 16.3729L93.4621 16.2788L93.4727 16.1848L93.4834 16.1229L93.494 16.0843L93.5047 15.9903L93.5154 15.8963L93.5261 15.8023L93.5368 15.7084L93.5474 15.69L93.5582 15.608L93.5689 15.5141L93.5796 15.4201L93.5903 15.3262L93.601 15.2639L93.6118 15.2259L93.6225 15.1321L93.6332 15.0382L93.644 14.9443L93.6548 14.8505L93.6655 14.8317L93.6763 14.7503L93.6871 14.6565L93.6979 14.5627L93.7087 14.4689L93.7195 14.4061L93.7302 14.3689L93.7411 14.2751L93.7519 14.1814L93.7627 14.0876L93.7735 13.9939L93.7844 13.9746L93.7952 13.894L93.8061 13.8003L93.8169 13.7066L93.8278 13.6129L93.8386 13.5497L93.8495 13.5131L93.8604 13.4195L93.8713 13.3259L93.8822 13.2322L93.8931 13.1386L93.904 13.1189L93.9149 13.0389L93.9258 12.9454L93.9367 12.8518L93.9476 12.7583L93.9586 12.6946L93.9695 12.6587L93.9805 12.5652L93.9914 12.4717L94.0024 12.3782L94.0133 12.2847L94.0243 12.2645L94.0353 12.1852L94.0462 12.0918L94.0572 11.9983L94.0682 11.9049L94.0792 11.8408L94.0902 11.8056L94.1012 11.7122L94.1123 11.6188L94.1233 11.5254L94.1343 11.432L94.1454 11.4114L94.1564 11.3328L94.1674 11.2395L94.1785 11.1462L94.1896 11.0529L94.2006 10.9883L94.2117 10.9538L94.2228 10.8605L94.2338 10.7673L94.2449 10.674L94.256 10.5808L94.2671 10.5597L94.2782 10.4818L94.2893 10.3886L94.3005 10.2954L94.3116 10.2022L94.3227 10.1372L94.3338 10.1034L94.345 10.0102L94.3561 9.91706L94.3673 9.82394L94.3784 9.73082L94.3896 9.7093L94.4008 9.63211L94.4119 9.53902L94.4231 9.44594L94.4343 9.35289L94.4455 9.2874L94.4567 9.25428L94.4679 9.16126L94.4791 9.06824L94.4903 8.97523L94.5015 8.88224L94.5127 8.86027L94.524 8.78377L94.5352 8.69081L94.5464 8.59786L94.5577 8.50492L94.5689 8.43899L94.5802 8.40656L94.5915 8.31366L94.6027 8.22077L94.614 8.12788L94.6253 8.03501L94.6366 8.0126L94.6479 7.93679L94.6591 7.84396L94.6704 7.75113L94.6817 7.65832L94.6931 7.59194L94.7044 7.56021L94.7157 7.46743L94.727 7.37467L94.7383 7.2819L94.7497 7.18916L94.761 7.16631L94.7724 7.09118L94.7837 6.99848L94.7951 6.90578L94.8064 6.81309L94.8178 6.74627L94.8292 6.71524L94.8406 6.62258L94.852 6.52994L94.8633 6.43731L94.8747 6.34469L94.8861 6.32139L94.8975 6.24697L94.909 6.15438L94.9204 6.06181L94.9318 5.96925L94.9432 5.90197L94.9547 5.87164L94.9661 5.77911L94.9775 5.6866L94.989 5.5941L95.0004 5.50159L95.0119 5.47785L95.0233 5.40414L95.0348 5.31167L95.0463 5.21923L95.0577 5.1268L95.0692 5.05907L95.0807 5.02944L95.0922 4.93704L95.1037 4.84465L95.1152 4.75228L95.1267 4.65991L95.1382 4.63571L95.1497 4.5627L95.1612 4.47036L95.1728 4.37804L95.1843 4.28574L95.1958 4.21757L95.2074 4.18864L95.2189 4.09636L95.2305 4.00409L95.242 3.91185L95.2536 3.81961L95.2651 3.79497L95.2767 3.72266L95.2883 3.63045L95.2999 3.53826L95.3115 3.44608L95.323 3.37747L95.3346 3.34924L95.3462 3.2571L95.3578 3.16496L95.3694 3.07284L95.381 2.98073L95.3927 2.95564L95.4043 2.88403L95.4159 2.79195L95.4275 2.69988L95.4392 2.60784L95.4508 2.53879L95.4624 2.51125L95.4741 2.41924L95.4857 2.32723L95.4974 2.23524L95.5091 2.14326L95.5207 2.11773L95.5324 2.04681L95.5441 1.95487L95.5557 1.86293L95.5674 1.77101L95.5791 1.70152L95.5908 1.67468L95.6025 1.5828L95.6142 1.49093L95.6259 1.39905L95.6376 1.30721L95.6493 1.28124L95.661 1.21102L95.6728 1.11921L95.6845 1.0274L95.6962 0.935606L95.708 0.865679L95.7197 0.839544L95.7315 0.747786L95.8309 0.743633L95.9301 0.739483L96.0293 0.735478L96.0631 0.731341L96.1403 0.727371L96.2396 0.723512L96.3389 0.719811L96.4381 0.716209L96.5159 0.712496L96.5492 0.708485L96.6485 0.705089L96.7477 0.701808L96.847 0.698528L96.9463 0.695436L96.9807 0.69163L97.0574 0.688353L97.1567 0.685373L97.256 0.68261L97.3553 0.679901L97.4337 0.67689L97.4664 0.67319L97.5657 0.67073L97.665 0.668332L97.7643 0.665942L97.8636 0.663784L97.8986 0.660319L97.9748 0.657723L98.0741 0.655621L98.1734 0.653801L98.2728 0.651983L98.3518 0.649699L98.384 0.646304L98.4833 0.644772L98.5826 0.643252L98.682 0.641787L98.7813 0.640541L98.817 0.637417L98.8926 0.635498L98.9919 0.634336L99.0912 0.633399L99.1906 0.632473L99.2703 0.630957L99.3019 0.627866L99.4012 0.627226L99.5006 0.62659L99.5999 0.626071L99.6993 0.625715L99.7355 0.622944L99.8106 0.621691L99.91 0.621477L100.009 0.621424L100.109 0.62139L100.189 0.620663L100.22 0.617854L100.319 0.618107L100.419 0.618361L100.518 0.618784L100.617 0.619324L100.654 0.616919L100.729 0.616315L100.828 0.617052L100.927 0.617884L101.027 0.618743L101.108 0.618822L101.138 0.616286L101.238 0.617431L101.337 0.618578L101.436 0.619945L101.536 0.621377L101.573 0.619357L101.647 0.619391L101.746 0.621081L101.846 0.6228L101.945 0.624549L102.027 0.625443L102.057 0.623173L102.156 0.625213L102.255 0.627265L102.355 0.629562L102.454 0.631889L102.492 0.630274L102.565 0.630953L102.665 0.633567L102.764 0.636184L102.863 0.638867L102.945 0.640548L102.975 0.638533L103.074 0.641459L103.174 0.644467L103.273 0.647655L103.372 0.650871L103.411 0.649678L103.484 0.651022L103.583 0.654532L103.682 0.658041L103.782 0.661671L103.864 0.664142L103.893 0.662369L103.992 0.666176L104.092 0.670146L104.191 0.674229L104.29 0.678326L104.329 0.677573L104.402 0.679576L104.501 0.683967L104.6 0.688374L104.7 0.692961L104.783 0.696226L104.811 0.694686L104.91 0.699378L105.01 0.704306L105.109 0.709284L105.208 0.714271L105.248 0.713964L105.32 0.716619L105.419 0.721895L105.518 0.727195L105.617 0.732743L105.701 0.73681L105.729 0.735493L105.828 0.741099L105.927 0.746962L106.026 0.752835L106.126 0.758751L106.166 0.758887L106.237 0.762157L106.336 0.768318L106.436 0.774578L106.535 0.781025L106.619 0.785902L106.646 0.784796L106.745 0.791367L106.845 0.798116L106.944 0.804884L107.043 0.811765L107.084 0.812338L107.154 0.816191L107.253 0.823248L107.353 0.830467L107.452 0.837809L107.537 0.843506L107.563 0.842603L107.662 0.850137L107.761 0.857768L107.861 0.865435L107.96 0.873286L108.001 0.874301L108.071 0.878735L108.17 0.886685L108.269 0.894853L108.368 0.903093L108.454 0.909631L108.48 0.90891L108.579 0.917415L108.678 0.925938L108.777 0.934492L108.876 0.943305L108.918 0.944784L108.987 0.949783L109.086 0.958657L109.185 0.967755L109.284 0.976887L109.37 0.984317L109.396 0.983781L109.495 0.993203L109.594 1.00262L109.693 1.01213L109.792 1.02184L109.834 1.02379L109.903 1.02933L110.002 1.03918L110.101 1.04917L110.2 1.05919L110.286 1.06754L110.311 1.06718L110.41 1.07749L110.509 1.08781L110.608 1.09828L110.707 1.10887L110.75 1.11131L110.818 1.11739L110.917 1.1282L111.015 1.13909L111.114 1.14999L111.201 1.15927L111.225 1.15909L111.324 1.17028L111.423 1.18149L111.522 1.19292L111.621 1.20441L111.664 1.20734L111.732 1.21396L111.831 1.22574L111.929 1.23751L112.028 1.24932L112.115 1.25953L112.139 1.25951L112.238 1.27158L112.337 1.28374L112.435 1.29609L112.534 1.30845L112.578 1.31192L112.645 1.31911L112.744 1.33177L112.842 1.34444L112.941 1.35722L113.029 1.3683L113.052 1.36842L113.15 1.38138L113.249 1.3945L113.348 1.40774L113.446 1.42099L113.491 1.42501L113.557 1.43276L113.656 1.44629L113.754 1.45985L113.853 1.4736L113.941 1.48557L113.964 1.48583L114.062 1.49968L114.161 1.51376L114.259 1.52789L114.358 1.54202L114.403 1.54659L114.468 1.5549L114.567 1.56931L114.665 1.58378L114.764 1.59848L114.852 1.61135L114.874 1.61173L114.973 1.62651L115.071 1.6415L115.169 1.65653L115.268 1.67162L115.314 1.67672L115.379 1.68553L115.477 1.70083L115.575 1.71625L115.673 1.73184L115.762 1.74562L115.784 1.74611L115.882 1.76187L115.981 1.77774L116.079 1.79365L116.177 1.80972L116.223 1.81534L116.287 1.82463L116.386 1.84083L116.484 1.85721L116.582 1.87369L116.671 1.88838L116.692 1.88897L116.791 1.90569L116.889 1.92246L116.987 1.93924L117.085 1.95628L117.132 1.96245L117.195 1.9722L117.293 1.9893L117.391 2.00662L117.489 2.02399L117.579 2.03965L117.6 2.04033L117.697 2.05798L117.795 2.07563L117.893 2.09335L117.991 2.11129L118.039 2.11802L118.102 2.12823L118.199 2.1463L118.297 2.16451L118.395 2.18274L118.485 2.19942L118.505 2.2002L118.603 2.21871L118.701 2.23725L118.798 2.25593L118.896 2.27474L118.944 2.28205L119.006 2.2927L119.104 2.31174L119.202 2.33084L119.299 2.34994L119.39 2.36764L119.409 2.3685L119.507 2.38789L119.605 2.40732L119.702 2.42697L119.8 2.44664L119.848 2.45454L119.91 2.46564L120.007 2.48561L120.105 2.50559L120.202 2.52562L120.293 2.5443L120.312 2.54523L120.41 2.56549L120.507 2.58586L120.604 2.60641L120.702 2.62696L120.751 2.63547L120.812 2.64706L120.909 2.66789L121.006 2.68875L121.103 2.70974L121.195 2.72938L121.213 2.73037L121.31 2.75151L121.408 2.77283L121.505 2.79426L121.602 2.81568L121.651 2.82482L121.712 2.83689L121.809 2.85859L121.906 2.88032L122.003 2.90228L122.095 2.92287L122.113 2.9239L122.21 2.94592L122.307 2.96819L122.404 2.99049L122.501 3.01282L122.55 3.02258L122.61 3.03508L122.707 3.05766L122.804 3.08032L122.901 3.10318L122.993 3.12475L123.01 3.1258L123.107 3.14879L123.204 3.17194L123.301 3.19511L123.397 3.2184L123.447 3.22876L123.507 3.24166L123.603 3.26511L123.7 3.28871L123.797 3.31246L123.889 3.33501L123.906 3.33608L124.002 3.36003L124.099 3.38405L124.196 3.40807L124.292 3.43233L124.343 3.4433L124.401 3.45659L124.498 3.48092L124.594 3.50548L124.691 3.53007L124.783 3.55361L124.8 3.5547L124.896 3.57959L124.992 3.60448L125.089 3.62942L125.185 3.65458L125.236 3.66618L125.294 3.67983L125.39 3.70511L125.486 3.73055L125.583 3.756L125.676 3.78063L125.691 3.78174L125.787 3.80747L125.884 3.83323L125.98 3.85912L126.076 3.88513L126.127 3.89738L126.184 3.9114L126.28 3.9376L126.377 3.96393L126.473 3.99024L126.566 4.01595L126.581 4.01705L126.677 4.04365L126.773 4.07026L126.869 4.0971L126.965 4.12398L127.016 4.13688L127.073 4.15125L127.169 4.1784L127.264 4.20558L127.36 4.23279L127.454 4.25957L127.468 4.26066L127.564 4.28813L127.66 4.31565L127.755 4.34338L127.851 4.37113L127.903 4.38471L127.959 4.39948L128.055 4.42749L128.15 4.45551L128.246 4.48368L128.34 4.51149L128.354 4.51253L128.449 4.54086L128.544 4.56934L128.64 4.59792L128.735 4.62653L128.788 4.64082L128.843 4.65594L128.938 4.68482L129.034 4.71371L129.129 4.74281L129.223 4.77166L129.236 4.77267L129.332 4.80185L129.427 4.83127L129.522 4.86071L129.617 4.89018L129.67 4.9052L129.724 4.92067L129.819 4.9504L129.914 4.98019L130.009 5.01019L130.104 5.04007L130.117 5.04104L130.212 5.07114L130.307 5.10143L130.401 5.13172L130.496 5.16213L130.55 5.17783L130.604 5.19362L130.698 5.22419L130.793 5.25493L130.888 5.28578L130.982 5.31663L130.995 5.31768L131.089 5.34867L131.184 5.37979L131.279 5.41095L131.373 5.4423L131.427 5.45868L131.48 5.47477L131.575 5.50621L131.669 5.53787L131.763 5.56957L131.858 5.60129L131.871 5.60265L131.965 5.63438L132.059 5.66637L132.153 5.6984L132.247 5.73065L132.302 5.74773L132.354 5.76409L132.448 5.79645L132.542 5.82898L132.636 5.86153L132.731 5.89418L132.744 5.8959L132.837 5.92824L132.931 5.96108L133.025 5.99404L133.119 6.02715L133.174 6.04494L133.225 6.06156L133.319 6.09485L133.413 6.12823L133.507 6.16161L133.601 6.19522L133.615 6.1973L133.707 6.23026L133.8 6.26395L133.894 6.29785L133.988 6.33176L134.043 6.35029L134.094 6.36718L134.187 6.40139L134.281 6.43562L134.374 6.46988L134.468 6.50436L134.483 6.50682L134.574 6.54039L134.667 6.57497L134.76 6.60975L134.854 6.64452L134.909 6.6638L134.959 6.68099L135.053 6.71603L135.146 6.75111L135.239 6.7863L135.332 6.82163L135.347 6.82445L135.438 6.85863L135.531 6.89413L135.624 6.92975L135.717 6.96537L135.773 6.9854L135.822 7.0029L135.915 7.03878L136.008 7.07466L136.101 7.11079L136.194 7.14694L136.209 7.15014L136.299 7.18491L136.392 7.22133L136.484 7.25777L136.577 7.29425L136.633 7.31509L136.682 7.33281L136.774 7.36954L136.867 7.40632L136.96 7.4433L137.052 7.48029L137.068 7.48391L137.157 7.51932L137.249 7.55658L137.342 7.59385L137.434 7.63124L137.49 7.65283L137.539 7.67076L137.631 7.70833L137.723 7.74603L137.815 7.78383L137.907 7.82166L137.924 7.8257L138.012 7.86172L138.104 7.89981L138.196 7.93793L138.288 7.97622L138.345 7.99858L138.392 8.01672L138.484 8.0551L138.576 8.09372L138.668 8.13236L138.76 8.17101L138.777 8.17548L138.864 8.21212L138.955 8.25103L139.047 8.29001L139.139 8.32919L139.196 8.3523L139.242 8.37065L139.334 8.40992L139.426 8.44937L139.517 8.48884L139.608 8.52841L139.626 8.53329L139.712 8.57049L139.803 8.61022L139.895 8.65011L139.986 8.6901L140.043 8.71397L140.09 8.73251L140.181 8.77271L140.272 8.81297L140.363 8.85326L140.454 8.89373L140.472 8.89903L140.557 8.93675L140.648 8.97732L140.739 9.01809L140.83 9.05891L140.888 9.08356L140.933 9.10228L141.024 9.14336L141.115 9.18446L141.206 9.22559L141.296 9.26694L141.315 9.27267L141.399 9.3109L141.49 9.35235L141.58 9.39395L141.671 9.4356L141.729 9.46108L141.774 9.48L141.864 9.5219L141.954 9.5638L142.045 9.60582L142.135 9.648L142.154 9.65418L142.237 9.6929L142.328 9.73525L142.418 9.77767L142.508 9.82011L142.566 9.84645L142.61 9.86555L142.7 9.90824L142.79 9.95097L142.88 9.9939L142.97 10.0369L142.99 10.0435L143.072 10.0827L143.162 10.126L143.252 10.1692L143.342 10.2125L143.4 10.2396L143.443 10.2589L143.533 10.3024L143.623 10.346L143.712 10.3898L143.802 10.4335L143.822 10.4406L143.903 10.4804L143.993 10.5244L144.082 10.5685L144.172 10.6127L144.23 10.6406L144.273 10.66L144.362 10.7043L144.451 10.7488L144.541 10.7934L144.63 10.8379L144.65 10.8455L144.731 10.8858L144.82 10.9307L144.909 10.9755L144.998 11.0206L145.057 11.0493L145.099 11.0689L145.188 11.114L145.276 11.1593L145.365 11.2047L145.454 11.2501L145.475 11.2582L145.555 11.299L145.643 11.3446L145.732 11.3903L145.82 11.4362L145.879 11.4658L145.921 11.4854L146.009 11.5314L146.098 11.5776L146.186 11.6237L146.274 11.67L146.295 11.6786L146.374 11.7198L146.463 11.7662L146.551 11.8128L146.639 11.8595L146.698 11.8899L146.739 11.9096L146.827 11.9565L146.915 12.0034L147.003 12.0504L147.091 12.0975L147.112 12.1066L147.19 12.1483L147.278 12.1955L147.366 12.2429L147.454 12.2904L147.513 12.3216L147.553 12.3415L147.641 12.3892L147.728 12.4369L147.816 12.4847L147.903 12.5326L147.925 12.5422L148.002 12.5843L148.09 12.6324L148.177 12.6806L148.264 12.7288L148.324 12.761L148.363 12.781L148.45 12.8294L148.537 12.878L148.625 12.9266L148.711 12.9753L148.734 12.9854L148.81 13.0279L148.897 13.0768L148.984 13.1259L149.071 13.1749L149.131 13.2079L149.169 13.228L149.256 13.2772L149.343 13.3265L149.429 13.376L149.516 13.4255L149.539 13.4362L149.614 13.479L149.701 13.5288L149.787 13.5786L149.873 13.6284L149.933 13.6623L149.971 13.6825L150.058 13.7325L150.144 13.7826L150.23 13.8329L150.316 13.8832L150.339 13.8944L150.414 13.9377L150.5 13.9883L150.586 14.0388L150.671 14.0895L150.732 14.1243L150.769 14.1444L150.855 14.1953L150.941 14.2462L151.026 14.2973L151.112 14.3484L151.135 14.3601L151.209 14.4038L151.295 14.4551L151.38 14.5064L151.465 14.558L151.526 14.5936L151.563 14.6138L151.648 14.6654L151.733 14.7172L151.818 14.769L151.903 14.8209L151.927 14.8332L152 14.8773L152.085 14.9294L152.17 14.9815L152.255 15.0338L152.316 15.0703L152.352 15.0906L152.436 15.143L152.521 15.1955L152.606 15.2482L152.691 15.3008L152.715 15.3137L152.787 15.3581L152.871 15.411L152.956 15.464L153.04 15.517L153.101 15.5544L153.136 15.5747L153.221 15.6279L153.305 15.6812L153.389 15.7346L153.473 15.7881L153.498 15.8015L153.569 15.8463L153.653 15.8999L153.737 15.9537L153.821 16.0075L153.882 16.0458L153.917 16.066L154 16.1201L154.084 16.1742L154.168 16.2284L154.252 16.2827L154.277 16.2966L154.347 16.3417L154.43 16.3962L154.514 16.4507L154.597 16.5053L154.658 16.5445L154.692 16.5647L154.776 16.6196L154.859 16.6744L154.942 16.7294L155.025 16.7844L155.051 16.799L155.12 16.8444L155.203 16.8996L155.286 16.9549L155.369 17.0103L155.43 17.0504L155.463 17.0707L155.546 17.1262L155.629 17.1818L155.712 17.2376L155.794 17.2934L155.82 17.3085L155.888 17.3542L155.971 17.4102L156.053 17.4663L156.136 17.5224L156.197 17.5634L156.23 17.5837L156.312 17.64L156.394 17.6964L156.476 17.7529L156.559 17.8095L156.585 17.8252L156.652 17.8712L156.734 17.928L156.816 17.9848L156.898 18.0417L156.959 18.0836L156.991 18.1039L157.073 18.1609L157.155 18.2181L157.236 18.2754L157.318 18.3326L157.344 18.349L157.411 18.3953L157.493 18.4528L157.574 18.5104L157.655 18.5681L157.717 18.6109L157.748 18.6311L157.829 18.6889L157.911 18.7468L157.992 18.8049L158.073 18.8629L158.099 18.8798L158.165 18.9265L158.246 18.9847L158.327 19.043L158.408 19.1015L158.469 19.1452L158.5 19.1653L158.581 19.2239L158.661 19.2826L158.742 19.3413L158.823 19.4001L158.849 19.4177L158.914 19.4646L158.995 19.5235L159.075 19.5826L159.155 19.6418L159.217 19.6864L159.247 19.7065L159.327 19.7659L159.407 19.8253L159.487 19.8848L159.567 19.9444L159.595 19.9625L159.659 20.0096L159.738 20.0693L159.818 20.1292L159.898 20.1891L159.96 20.2346L159.989 20.2547L160.069 20.3148L160.148 20.375L160.228 20.4351L160.307 20.4955L160.335 20.5142L160.398 20.5616L160.477 20.622L160.556 20.6826L160.636 20.7432L160.697 20.7897L160.726 20.8097L160.805 20.8706L160.884 20.9314L160.963 20.9924L161.042 21.0534L161.07 21.0728L161.132 21.1204L161.211 21.1816L161.289 21.2429L161.368 21.3042L161.43 21.3517L161.458 21.3716L161.536 21.4332L161.615 21.4947L161.693 21.5564L161.771 21.6182L161.799 21.6382L161.861 21.686L161.939 21.748L162.017 21.81L162.095 21.872L162.157 21.9204L162.184 21.9402L162.262 22.0025L162.34 22.0648L162.418 22.1272L162.496 22.1897L162.524 22.2104L162.584 22.2584L162.662 22.321L162.74 22.3837L162.817 22.4466L162.879 22.4959L162.905 22.5156L162.983 22.5786L163.06 22.6416L163.137 22.7048L163.215 22.7679L163.243 22.7892L163.303 22.8374L163.38 22.9008L163.457 22.9642L163.534 23.0278L163.595 23.0781L163.621 23.0977L163.698 23.1613L163.775 23.2251L163.852 23.2889L163.928 23.3528L163.957 23.3748L164.016 23.4232L164.092 23.4873L164.169 23.5514L164.245 23.6156L164.307 23.6669L164.332 23.6863L164.408 23.7507L164.484 23.8152L164.561 23.8797L164.637 23.9443L164.665 23.9669L164.723 24.0155L164.799 24.0803L164.875 24.1451L164.951 24.2101L165.012 24.2622L165.037 24.2815L165.113 24.3466L165.188 24.4118L165.264 24.477L165.339 24.5424L165.368 24.5657L165.425 24.6144L165.501 24.6798L165.576 24.7454L165.651 24.811L165.713 24.8641L165.737 24.8833L165.812 24.9491L165.887 25.015L165.962 25.0809L166.037 25.147L166.066 25.1709L166.122 25.2197L166.197 25.2859L166.271 25.3521L166.346 25.4184L166.407 25.4725L166.431 25.4916L166.505 25.5581L166.58 25.6246L166.654 25.6912L166.728 25.758L166.758 25.7826L166.813 25.8315L166.887 25.8984L166.961 25.9653L167.035 26.0323L167.096 26.0874L167.119 26.1062L167.193 26.1734L167.267 26.2406L167.341 26.308L167.414 26.3753L167.444 26.4006L167.498 26.4496L167.572 26.5172L167.645 26.5849L167.719 26.6525L167.78 26.7086L167.802 26.7273L167.876 26.7951L167.949 26.863L168.022 26.931L168.095 26.9991L168.125 27.025L168.178 27.0742L168.251 27.1424L168.324 27.2107L168.396 27.2791L168.457 27.3361L168.479 27.3546L168.552 27.4231L168.624 27.4917L168.697 27.5604L168.769 27.629L168.799 27.6557L168.852 27.705L168.924 27.7739L168.996 27.8428L169.068 27.9119L169.129 27.9699L169.151 27.9882L169.223 28.0573L169.294 28.1266L169.366 28.196L169.438 28.2653L169.468 28.2927L169.52 28.3421L169.591 28.4116L169.663 28.4812L169.734 28.5509L169.795 28.6099L169.816 28.628L169.887 28.6978L169.959 28.7678L170.03 28.8378L170.101 28.9078L170.131 28.9359L170.182 28.9853L170.253 29.0555L170.324 29.1257L170.395 29.1961L170.455 29.256L170.476 29.2739L170.546 29.3445L170.617 29.415L170.687 29.4856L170.758 29.5564L170.788 29.5852L170.838 29.6346L170.909 29.7054L170.979 29.7764L171.049 29.8474L171.11 29.9083L171.129 29.926L171.199 29.9972L171.269 30.0684L171.339 30.1396L171.409 30.211L171.439 30.2405L171.488 30.29L171.558 30.3615L171.628 30.4331L171.697 30.5047L171.758 30.5666L171.777 30.5841L171.846 30.6559L171.915 30.7277L171.985 30.7997L172.054 30.8717L172.084 30.9019L172.133 30.9514L172.202 31.0236L172.271 31.0958L172.339 31.168L172.4 31.2309L172.418 31.2482L172.487 31.3206L172.555 31.393L172.624 31.4657L172.692 31.5383L172.723 31.5692L172.771 31.6188L172.839 31.6916L172.907 31.7644L172.976 31.8373L173.035 31.9012L173.053 31.9182L173.121 31.9912L173.189 32.0643L173.257 32.1376L173.325 32.2108L173.356 32.2424L173.403 32.292L173.47 32.3655L173.538 32.4389L173.605 32.5125L173.665 32.5773L173.682 32.594L173.75 32.6677L173.817 32.7415L173.884 32.8153L173.952 32.8891L173.982 32.9215L174.028 32.9711L174.095 33.0452L174.162 33.1192L174.229 33.1934L174.288 33.2592L174.305 33.2757L174.372 33.35L174.439 33.4244L174.505 33.4988L174.572 33.5733L174.603 33.6064L174.648 33.656L174.714 33.7306L174.78 33.8053L174.846 33.8802L174.906 33.9469L174.922 33.9631L174.988 34.038L175.054 34.1131L175.12 34.1881L175.185 34.2632L175.216 34.297L175.261 34.3466L175.326 34.4218L175.392 34.4972L175.457 34.5726L175.516 34.6403L175.532 34.6562L175.597 34.7318L175.663 34.8074L175.728 34.883L175.793 34.9588L175.824 34.9933L175.867 35.0429L175.932 35.1187L175.997 35.1947L176.062 35.2706L176.121 35.3393L176.136 35.355L176.2 35.4312L176.265 35.5074L176.329 35.5836L176.394 35.6599L176.425 35.6952L176.467 35.7447L176.532 35.8212L176.596 35.8977L176.66 35.9743L176.718 36.044L176.733 36.0594L176.797 36.1361L176.861 36.2129L176.925 36.2897L176.988 36.3667L177.019 36.4027L177.061 36.4521L177.125 36.5292L177.188 36.6063L177.252 36.6834L177.31 36.7542L177.324 36.7693L177.387 36.8466L177.45 36.9239L177.513 37.0014L177.576 37.0789L177.607 37.1156L177.648 37.165L177.711 37.2427L177.774 37.3204L177.837 37.3981L177.894 37.4698L177.908 37.4846L177.971 37.5625L178.033 37.6404L178.095 37.7184L178.158 37.7965L178.189 37.834L178.229 37.8834L178.291 37.9616L178.353 38.0398L178.415 38.1181L178.473 38.1909L178.486 38.2053L178.548 38.2837L178.609 38.3623L178.671 38.4409L178.733 38.5195L178.764 38.5578L178.803 38.6071L178.864 38.6858L178.926 38.7646L178.987 38.8436L179.044 38.9172L179.057 38.9314L179.118 39.0104L179.179 39.0895L179.24 39.1686L179.301 39.2478L179.332 39.2869L179.37 39.3361L179.431 39.4154L179.491 39.4948L179.552 39.5743L179.609 39.6489L179.621 39.6627L179.681 39.7423L179.742 39.822L179.802 39.9017L179.862 39.9815L179.893 40.0212L179.93 40.0703L179.99 40.1502L180.05 40.2302L180.11 40.3102L180.167 40.3858L180.178 40.3993L180.238 40.4795L180.297 40.5596L180.357 40.6399L180.416 40.7203L180.447 40.7608L180.484 40.8097L180.543 40.8902L180.602 40.9707L180.662 41.0513L180.718 41.1279L180.729 41.141L180.788 41.2217L180.847 41.3025L180.905 41.3833L180.964 41.4642L180.995 41.5054L181.031 41.5543L181.089 41.6353L181.148 41.7163L181.206 41.7974L181.262 41.875L181.273 41.8879L181.331 41.9691L181.389 42.0504L181.447 42.1317L181.505 42.2131L181.536 42.2552L181.571 42.3039L181.629 42.3854L181.686 42.467L181.744 42.5486L181.799 42.6273L181.81 42.6397L181.867 42.7215L181.924 42.8033L181.981 42.8852L182.039 42.9671L182.069 43.0099L182.104 43.0585L182.161 43.1406L182.218 43.2227L182.274 43.3049L182.329 43.3844L182.339 43.3965L182.396 43.4788L182.452 43.5612L182.509 43.6436L182.565 43.726L182.596 43.7696L182.63 43.8181L182.686 43.9006L182.742 43.9832L182.798 44.066L182.853 44.1465L182.862 44.1583L182.918 44.2411L182.974 44.3239L183.03 44.4069L183.085 44.4898L183.116 44.5342L183.149 44.5825L183.204 44.6656L183.259 44.7487L183.315 44.8319L183.369 44.9134L183.378 44.9248L183.433 45.0082L183.488 45.0915L183.543 45.1749L183.598 45.2585L183.628 45.3035L183.66 45.3517L183.715 45.4353L183.77 45.519L183.824 45.6027L183.878 45.6851L183.887 45.6961L183.941 45.78L183.995 45.8639L184.049 45.9478L184.103 46.0318L184.134 46.0777L184.165 46.1256L184.219 46.2097L184.273 46.2939L184.327 46.3781L184.38 46.4616L184.388 46.4722L184.442 46.5565L184.495 46.6409L184.548 46.7254L184.602 46.8099L184.632 46.8565L184.663 46.9042L184.716 46.9889L184.769 47.0735L184.822 47.1582L184.874 47.2427L184.882 47.2529L184.935 47.3377L184.988 47.4226L185.04 47.5076L185.093 47.5925L185.123 47.6399L185.153 47.6875L185.205 47.7726L185.257 47.8577L185.31 47.9429L185.362 48.0282L185.369 48.0383L185.421 48.1235L185.473 48.2089L185.525 48.2943L185.577 48.3797L185.606 48.4279L185.636 48.4753L185.687 48.5608L185.739 48.6465L185.79 48.7322L185.841 48.8179L185.849 48.8286L185.9 48.9137L185.951 48.9996L186.002 49.0855L186.053 49.1714L186.083 49.2204L186.111 49.2675L186.162 49.3536L186.213 49.4397L186.263 49.5259L186.314 49.6121L186.322 49.6233L186.372 49.7085L186.422 49.7948L186.472 49.8811L186.522 49.9676L186.552 50.0173L186.58 50.0642L186.63 50.1507L186.679 50.2373L186.729 50.3239L186.779 50.4106L186.787 50.4224L186.836 50.5075L186.885 50.5943L186.935 50.6811L186.984 50.768L187.013 50.8185L187.04 50.8652L187.09 50.9522L187.139 51.0392L187.188 51.1263L187.237 51.2135L187.245 51.2259L187.292 51.3109L187.341 51.3981L187.39 51.4854L187.438 51.5728L187.467 51.6241L187.494 51.6705L187.542 51.7579L187.59 51.8454L187.639 51.9329L187.687 52.0206L187.695 52.0336L187.742 52.1185L187.79 52.2062L187.837 52.294L187.885 52.3818L187.914 52.4338L187.94 52.48L187.987 52.5679L188.035 52.6558L188.082 52.7438L188.129 52.8318L188.138 52.8455L188.183 52.9303L188.23 53.0185L188.277 53.1067L188.324 53.1948L188.353 53.2477L188.378 53.2936L188.425 53.3819L188.471 53.4703L188.518 53.5587L188.564 53.6472L188.573 53.6614L188.617 53.7462L188.664 53.8348L188.71 53.9234L188.756 54.012L188.784 54.0657L188.809 54.1113L188.855 54.2001L188.9 54.2889L188.946 54.3778L188.992 54.4666L189 54.4815L189.044 54.5661L189.089 54.6552L189.135 54.7442L189.18 54.8333L189.208 54.8877L189.232 54.933L189.277 55.0222L189.322 55.1114L189.367 55.2007L189.412 55.29L189.42 55.3054L189.463 55.39L189.507 55.4795L189.552 55.5689L189.596 55.6584L189.624 55.7136L189.647 55.7586L189.691 55.8482L189.736 55.9379L189.78 56.0276L189.824 56.1173L189.833 56.1333L189.874 56.2178L189.918 56.3076L189.961 56.3975L190.005 56.4874L190.033 56.5434L190.055 56.5881L190.098 56.6781L190.142 56.7682L190.185 56.8583L190.228 56.9484L190.237 56.9651L190.277 57.0494L190.32 57.1396L190.363 57.2299L190.406 57.3203L190.433 57.377L190.455 57.4214L190.497 57.5118L190.54 57.6023L190.582 57.6928L190.625 57.7834L190.634 57.8006L190.673 57.8848L190.715 57.9754L190.757 58.0661L190.799 58.1568L190.826 58.2143L190.847 58.2584L190.889 58.3492L190.93 58.4401L190.972 58.531L191.013 58.6219L191.022 58.6398L191.061 58.7238L191.102 58.8148L191.143 58.9059L191.184 58.9969L191.211 59.0552L191.231 59.0991L191.272 59.1903L191.313 59.2815L191.354 59.3728L191.394 59.4641L191.403 59.4826L191.441 59.5664L191.481 59.6578L191.522 59.7493L191.562 59.8407L191.588 59.8998L191.608 59.9433L191.648 60.0348L191.688 60.1264L191.728 60.2181L191.767 60.3098L191.777 60.3289L191.813 60.4126L191.852 60.5044L191.892 60.5961L191.931 60.688L191.957 60.7479L191.976 60.791L192.016 60.8829L192.055 60.9749L192.094 61.0669L192.133 61.159L192.142 61.1787L192.177 61.2622L192.216 61.3544L192.254 61.4465L192.293 61.5388L192.319 61.5993L192.337 61.6421L192.375 61.7345L192.414 61.8268L192.452 61.9192L192.49 62.0116L192.499 62.0319L192.533 62.1152L192.571 62.2077L192.609 62.3003L192.647 62.3928L192.672 62.4542L192.69 62.4966L192.727 62.5893L192.765 62.682L192.802 62.7747L192.839 62.8675L192.848 62.8885L192.882 62.9715L192.919 63.0644L192.955 63.1573L192.992 63.2502L193.017 63.3123L193.034 63.3544L193.071 63.4475L193.107 63.5405L193.144 63.6335L193.18 63.7267L193.189 63.7483L193.222 63.8311L193.258 63.9243L193.294 64.0175L193.33 64.1107L193.354 64.1737L193.371 64.2154L193.407 64.3088L193.442 64.4021L193.478 64.4955L193.513 64.589L193.523 64.6112L193.554 64.6938L193.589 64.7874L193.624 64.8809L193.659 64.9745L193.684 65.0382L193.7 65.0795L193.734 65.1732L193.769 65.2669L193.804 65.3606L193.838 65.4544L193.848 65.4773L193.878 65.5596L193.912 65.6535L193.947 65.7474L193.981 65.8413L194.005 65.9058L194.02 65.9467L194.054 66.0407L194.088 66.1347L194.122 66.2288L194.155 66.3229L194.165 66.3464L194.194 66.4285L194.228 66.5226L194.261 66.6168L194.294 66.7111L194.318 66.7763L194.332 66.8168L194.365 66.9111L194.398 67.0055L194.431 67.0998L194.464 67.1942L194.473 67.2184L194.502 67.3002L194.534 67.3947L194.567 67.4892L194.599 67.5837L194.622 67.6497L194.637 67.6898L194.669 67.7845L194.701 67.8791L194.733 67.9738L194.765 68.0685L194.774 68.0933L194.801 68.1748L194.833 68.2696L194.865 68.3644L194.896 68.4593L194.919 68.526L194.933 68.5657L194.964 68.6606L194.995 68.7555L195.026 68.8506L195.057 68.9456L195.066 68.971L195.093 69.0522L195.124 69.1473L195.155 69.2424L195.185 69.3375L195.207 69.4051L195.22 69.4444L195.251 69.5395L195.281 69.6348L195.311 69.73L195.342 69.8253L195.351 69.8514L195.376 69.9323L195.406 70.0277L195.436 70.1231L195.466 70.2185L195.487 70.2868L195.5 70.3257L195.529 70.4211L195.559 70.5166L195.588 70.6122L195.618 70.7077L195.626 70.7345L195.651 70.8151L195.68 70.9107L195.709 71.0064L195.738 71.1021L195.759 71.1711L195.771 71.2095L195.8 71.3053L195.828 71.4011L195.857 71.4969L195.885 71.5927L195.894 71.6201L195.918 71.7004L195.946 71.7963L195.974 71.8922L196.002 71.9882L196.023 72.058L196.034 72.0959L196.062 72.192L196.09 72.288L196.117 72.3841L196.145 72.4802L196.153 72.5082L196.176 72.5881L196.204 72.6843L196.231 72.7805L196.258 72.8767L196.278 72.9472L196.289 72.9848L196.316 73.0811L196.343 73.1774L196.369 73.2737L196.396 73.37L196.404 73.3987L196.426 73.4783L196.453 73.5747L196.479 73.6712L196.505 73.7676L196.525 73.8389L196.535 73.876L196.561 73.9725L196.587 74.0691L196.613 74.1656L196.639 74.2622L196.647 74.2916L196.668 74.3708L196.693 74.4674L196.719 74.5641L196.744 74.6608L196.763 74.7329L196.773 74.7695L196.798 74.8662L196.823 74.963L196.848 75.0599L196.873 75.1567L196.881 75.1866L196.901 75.2655L196.926 75.3624L196.951 75.4593L196.975 75.5563L196.993 75.629L197.003 75.6652L197.027 75.7622L197.051 75.8592L197.075 75.9562L197.099 76.0533L197.107 76.0839L197.126 76.1624L197.15 76.2595L197.174 76.3566L197.197 76.4538L197.215 76.5273L197.224 76.563L197.247 76.6602L197.271 76.7575L197.294 76.8547L197.317 76.952L197.324 76.9832L197.343 77.0613L197.366 77.1587L197.388 77.256L197.411 77.3534L197.428 77.4276L197.437 77.4629L197.459 77.5603L197.482 77.6578L197.504 77.7552L197.526 77.8527L197.533 77.8846L197.551 77.9623L197.573 78.0598L197.595 78.1574L197.617 78.255L197.633 78.3299L197.641 78.3647L197.663 78.4623L197.684 78.56L197.705 78.6576L197.727 78.7554L197.734 78.7878L197.751 78.8652L197.772 78.9629L197.793 79.0607L197.813 79.1585L197.83 79.2341L197.837 79.2684L197.858 79.3662L197.878 79.4641L197.899 79.562L197.919 79.6598L197.926 79.6929L197.942 79.7699L197.962 79.8678L197.982 79.9658L198.002 80.0638L198.018 80.1401L198.025 80.1739L198.044 80.2719L198.064 80.37L198.083 80.468L198.103 80.5661L198.11 80.5998L198.125 80.6764L198.144 80.7745L198.163 80.8726L198.182 80.9708L198.197 81.0478L198.204 81.0811L198.223 81.1793L198.241 81.2775L198.26 81.3758L198.278 81.474L198.285 81.5084L198.299 81.5845L198.318 81.6828L198.336 81.7811L198.354 81.8795L198.368 81.9572L198.374 81.99L198.392 82.0884L198.41 82.1868L198.428 82.2852L198.445 82.3836L198.452 82.4186L198.465 82.4943L198.482 82.5927L198.5 82.6912L198.517 82.7897L198.53 82.8681L198.536 82.9004L198.553 82.999L198.57 83.0975L198.587 83.1961L198.603 83.2947L198.61 83.3303L198.622 83.4055L198.639 83.5042L198.655 83.6028L198.671 83.7014L198.684 83.7805L198.69 83.8124L198.706 83.9111L198.722 84.0098L198.738 84.1085L198.753 84.2072L198.759 84.2434L198.771 84.3183L198.787 84.417L198.802 84.5158L198.818 84.6146L198.83 84.6944L198.835 84.7257L198.85 84.8245L198.865 84.9234L198.88 85.0222L198.895 85.1211L198.901 85.158L198.912 85.2323L198.926 85.3312L198.941 85.4301L198.955 85.5291L198.967 85.6095L198.972 85.6404L198.986 85.7393L199 85.8383L199.014 85.9373L199.028 86.0363L199.033 86.0737L199.044 86.1477L199.057 86.2467L199.071 86.3457L199.084 86.4448L199.095 86.5259L199.1 86.5562L199.113 86.6553L199.126 86.7544L199.139 86.8535L199.152 86.9527L199.157 86.9907L199.167 87.0642L199.18 87.1633L199.192 87.2625L199.205 87.3617L199.215 87.4435L199.219 87.4733L199.231 87.5725L199.244 87.6717L199.256 87.7709L199.268 87.8702L199.273 87.9089L199.282 87.9818L199.293 88.0811L199.305 88.1804L199.317 88.2797L199.326 88.3621L199.33 88.3914L199.342 88.4907L199.353 88.59L199.364 88.6894L199.375 88.7887L199.38 88.828L199.388 88.9005L199.399 88.9999L199.41 89.0993L199.42 89.1987L199.429 89.2818L199.433 89.3105L199.443 89.4099L199.454 89.5093L199.464 89.6088L199.474 89.7082L199.478 89.7481L199.486 89.8201L199.496 89.9196L199.506 90.0191L199.515 90.1186L199.524 90.2023L199.526 90.2305L199.536 90.33L199.546 90.4295L199.555 90.5291L199.564 90.6286L199.568 90.6691L199.575 90.7406L199.584 90.8401L199.593 90.9397L199.602 91.0393L199.609 91.1237L199.612 91.1513L199.621 91.2509L199.629 91.3505L199.638 91.4502L199.646 91.5498L199.65 91.5909L199.656 91.6619L199.664 91.7615L199.672 91.8612L199.68 91.9608L199.687 92.0459L199.689 92.073L199.697 92.1726L199.704 92.2723L199.712 92.372L199.719 92.4717L199.723 92.5134L199.728 92.5838L199.735 92.6836L199.742 92.7833L199.749 92.883L199.755 92.9687L199.757 92.9952L199.764 93.095L199.771 93.1947L199.778 93.2945L199.784 93.3943L199.787 93.4366L199.792 93.5065L199.798 93.6062L199.804 93.7061L199.81 93.8058L199.815 93.8921L199.817 93.9181L199.823 94.0179L199.829 94.1177L199.835 94.2175L199.84 94.3174L199.843 94.3603L199.847 94.4296L199.852 94.5295L199.857 94.6293L199.863 94.7291L199.867 94.8161L199.869 94.8415L199.874 94.9413L199.879 95.0412L199.883 95.1411L199.888 95.2409L199.89 95.2845L199.893 95.3533L199.898 95.4532L199.902 95.553L199.907 95.6529L199.91 95.7405L199.911 95.7653L199.916 95.8652L199.92 95.9651L199.924 96.065L199.927 96.1649L199.929 96.209L199.932 96.2773L199.935 96.3772L199.939 96.4772L199.942 96.5771L199.945 96.6652L199.946 96.6895L199.949 96.7894L199.952 96.8893L199.955 96.9893L199.958 97.0892L199.959 97.1339L199.961 97.2017L199.964 97.3016L199.967 97.4015L199.969 97.5015L199.971 97.5902L199.972 97.614L199.974 97.7139L199.976 97.8139L199.979 97.9138L199.98 98.0138L199.981 98.0591L199.983 98.1262L199.984 98.2262L199.986 98.3262L199.988 98.4261L199.989 98.5155L199.989 98.5386L199.991 98.6386L199.992 98.7385L199.993 98.8385L199.994 98.9385L199.995 98.9844L199.996 99.051L199.996 99.151L199.997 99.2509L199.998 99.3509L199.998 99.4408L199.999 99.4634L199.999 99.5633L199.999 99.6633L200 99.7633L200 99.8633L200 99.9098L200 99.9758L200 100.076L200 100.176L200 100.276L199.999 100.366L199.999 100.388L199.999 100.488L199.998 100.588L199.998 100.688L199.997 100.788L199.996 100.835L199.996 100.901L199.995 101.001L199.994 101.101L199.993 101.201L199.992 101.292L199.991 101.313L199.99 101.413L199.989 101.513L199.987 101.613L199.985 101.713L199.985 101.76L199.983 101.825L199.982 101.925L199.98 102.025L199.978 102.125L199.976 102.217L199.975 102.238L199.973 102.338L199.971 102.438L199.968 102.538L199.966 102.637L199.964 102.686L199.963 102.75L199.96 102.85L199.957 102.95L199.954 103.05L199.951 103.142L199.951 103.162L199.947 103.262L199.944 103.362L199.941 103.462L199.937 103.562L199.936 103.611L199.933 103.674L199.93 103.774L199.926 103.874L199.922 103.974L199.918 104.067L199.917 104.086L199.913 104.186L199.909 104.286L199.905 104.386L199.901 104.486L199.898 104.535L199.895 104.598L199.891 104.698L199.886 104.798L199.881 104.898L199.877 104.991L199.876 105.01L199.871 105.11L199.866 105.21L199.861 105.31L199.855 105.41L199.853 105.46L199.849 105.522L199.844 105.622L199.838 105.722L199.832 105.821L199.827 105.915L199.826 105.934L199.82 106.034L199.814 106.133L199.808 106.233L199.802 106.333L199.798 106.383L199.794 106.445L199.788 106.545L199.782 106.645L199.775 106.744L199.769 106.839L199.767 106.857L199.76 106.956L199.754 107.056L199.747 107.156L199.739 107.256L199.736 107.307L199.731 107.368L199.724 107.468L199.716 107.567L199.709 107.667L199.702 107.762L199.7 107.779L199.692 107.879L199.685 107.978L199.677 108.078L199.669 108.178L199.664 108.229L199.659 108.29L199.651 108.389L199.643 108.489L199.634 108.589L199.626 108.684L199.625 108.701L199.616 108.8L199.607 108.9L199.598 109L199.589 109.099L199.585 109.151L199.579 109.211L199.57 109.311L199.561 109.41L199.551 109.51L199.542 109.606L199.54 109.622L199.531 109.721L199.521 109.821L199.512 109.92L199.502 110.02L199.496 110.072L199.49 110.132L199.48 110.231L199.47 110.331L199.46 110.43L199.45 110.526L199.448 110.542L199.437 110.641L199.427 110.741L199.416 110.84L199.405 110.94L199.399 110.993L199.393 111.051L199.382 111.151L199.371 111.25L199.36 111.349L199.349 111.446L199.347 111.461L199.335 111.56L199.324 111.66L199.312 111.759L199.301 111.858L199.294 111.912L199.287 111.97L199.275 112.069L199.263 112.169L199.251 112.268L199.239 112.365L199.237 112.379L199.225 112.479L199.212 112.578L199.2 112.677L199.187 112.776L199.18 112.83L199.173 112.888L199.16 112.987L199.147 113.086L199.134 113.185L199.121 113.283L199.119 113.297L199.106 113.396L199.092 113.495L199.079 113.594L199.065 113.693L199.058 113.747L199.05 113.804L199.036 113.903L199.022 114.002L199.008 114.101L198.994 114.199L198.992 114.213L198.978 114.312L198.964 114.411L198.949 114.51L198.935 114.608L198.927 114.664L198.918 114.72L198.904 114.819L198.889 114.918L198.874 115.016L198.859 115.115L198.857 115.128L198.842 115.226L198.827 115.325L198.812 115.424L198.796 115.523L198.787 115.578L198.778 115.634L198.763 115.733L198.747 115.831L198.731 115.93L198.716 116.029L198.713 116.041L198.697 116.14L198.681 116.238L198.665 116.337L198.649 116.436L198.639 116.492L198.63 116.547L198.614 116.645L198.597 116.744L198.58 116.842L198.564 116.941L198.561 116.954L198.544 117.052L198.527 117.15L198.51 117.249L198.493 117.347L198.483 117.404L198.473 117.458L198.456 117.556L198.438 117.655L198.421 117.753L198.403 117.852L198.4 117.865L198.382 117.962L198.365 118.061L198.347 118.159L198.328 118.257L198.318 118.314L198.308 118.368L198.289 118.466L198.271 118.564L198.252 118.663L198.234 118.761L198.231 118.775L198.212 118.871L198.194 118.969L198.175 119.068L198.156 119.166L198.144 119.223L198.134 119.276L198.114 119.374L198.095 119.472L198.076 119.57L198.056 119.668L198.053 119.683L198.034 119.778L198.014 119.876L197.994 119.974L197.974 120.072L197.962 120.13L197.951 120.183L197.931 120.28L197.911 120.378L197.891 120.476L197.87 120.574L197.867 120.589L197.847 120.684L197.826 120.782L197.805 120.88L197.784 120.977L197.772 121.036L197.76 121.087L197.739 121.185L197.718 121.283L197.697 121.38L197.676 121.478L197.672 121.494L197.651 121.588L197.63 121.685L197.608 121.783L197.586 121.881L197.573 121.939L197.561 121.99L197.539 122.088L197.517 122.185L197.495 122.283L197.473 122.38L197.469 122.396L197.447 122.49L197.425 122.587L197.402 122.685L197.38 122.782L197.365 122.841L197.353 122.891L197.331 122.989L197.308 123.086L197.285 123.183L197.261 123.28L197.257 123.297L197.235 123.39L197.211 123.487L197.188 123.584L197.164 123.681L197.15 123.741L197.137 123.79L197.114 123.887L197.09 123.985L197.066 124.082L197.042 124.179L197.037 124.196L197.014 124.288L196.99 124.385L196.965 124.482L196.941 124.578L196.925 124.638L196.913 124.687L196.888 124.784L196.863 124.881L196.838 124.978L196.814 125.075L196.808 125.092L196.785 125.183L196.76 125.28L196.734 125.377L196.709 125.474L196.693 125.534L196.68 125.582L196.654 125.679L196.628 125.775L196.603 125.872L196.577 125.969L196.571 125.987L196.547 126.077L196.521 126.174L196.495 126.27L196.469 126.366L196.452 126.427L196.438 126.475L196.412 126.571L196.385 126.668L196.359 126.764L196.332 126.86L196.326 126.879L196.301 126.968L196.274 127.065L196.247 127.161L196.22 127.257L196.202 127.318L196.189 127.365L196.161 127.461L196.134 127.557L196.106 127.653L196.079 127.749L196.073 127.769L196.047 127.857L196.019 127.953L195.991 128.049L195.963 128.145L195.945 128.207L195.931 128.253L195.902 128.349L195.874 128.445L195.846 128.541L195.817 128.636L195.811 128.656L195.784 128.744L195.756 128.84L195.727 128.935L195.698 129.031L195.679 129.093L195.664 129.138L195.635 129.234L195.606 129.33L195.577 129.425L195.547 129.521L195.54 129.541L195.513 129.628L195.484 129.723L195.454 129.819L195.424 129.914L195.404 129.976L195.39 130.021L195.36 130.117L195.33 130.212L195.299 130.307L195.269 130.402L195.262 130.423L195.234 130.509L195.204 130.604L195.173 130.7L195.142 130.795L195.122 130.857L195.107 130.901L195.076 130.996L195.045 131.092L195.014 131.187L194.983 131.281L194.975 131.303L194.947 131.388L194.915 131.483L194.884 131.578L194.852 131.673L194.831 131.736L194.816 131.779L194.784 131.874L194.752 131.968L194.72 132.063L194.688 132.158L194.68 132.179L194.651 132.264L194.619 132.359L194.587 132.453L194.554 132.548L194.532 132.611L194.517 132.654L194.484 132.748L194.451 132.843L194.418 132.937L194.385 133.031L194.377 133.053L194.347 133.137L194.314 133.231L194.281 133.326L194.248 133.42L194.225 133.484L194.209 133.526L194.176 133.62L194.142 133.714L194.108 133.808L194.075 133.902L194.066 133.924L194.036 134.007L194.002 134.101L193.967 134.195L193.933 134.289L193.91 134.353L193.894 134.395L193.859 134.488L193.825 134.582L193.79 134.676L193.755 134.77L193.746 134.793L193.716 134.875L193.681 134.968L193.646 135.062L193.61 135.156L193.586 135.22L193.57 135.261L193.535 135.354L193.499 135.448L193.464 135.541L193.428 135.634L193.419 135.658L193.387 135.739L193.352 135.832L193.316 135.926L193.28 136.019L193.254 136.083L193.238 136.123L193.202 136.217L193.166 136.31L193.129 136.403L193.093 136.496L193.083 136.52L193.051 136.6L193.014 136.693L192.978 136.786L192.941 136.879L192.915 136.944L192.898 136.983L192.861 137.076L192.824 137.169L192.787 137.262L192.75 137.354L192.739 137.378L192.707 137.458L192.669 137.551L192.632 137.643L192.594 137.736L192.567 137.801L192.551 137.84L192.513 137.932L192.475 138.025L192.437 138.117L192.398 138.209L192.387 138.234L192.355 138.313L192.316 138.405L192.278 138.497L192.239 138.589L192.211 138.655L192.195 138.693L192.156 138.785L192.117 138.877L192.078 138.969L192.039 139.061L192.028 139.086L191.994 139.164L191.955 139.256L191.916 139.348L191.876 139.44L191.848 139.505L191.831 139.543L191.791 139.634L191.752 139.726L191.712 139.818L191.672 139.909L191.66 139.935L191.626 140.012L191.586 140.103L191.546 140.195L191.506 140.286L191.476 140.352L191.459 140.389L191.419 140.48L191.378 140.572L191.338 140.663L191.297 140.754L191.284 140.78L191.25 140.856L191.209 140.947L191.168 141.039L191.127 141.13L191.097 141.196L191.08 141.232L191.038 141.323L190.997 141.414L190.956 141.505L190.914 141.595L190.901 141.622L190.866 141.697L190.824 141.788L190.782 141.879L190.741 141.969L190.709 142.036L190.692 142.071L190.65 142.161L190.608 142.252L190.566 142.343L190.523 142.433L190.51 142.46L190.474 142.534L190.432 142.625L190.389 142.715L190.346 142.805L190.314 142.872L190.297 142.906L190.254 142.997L190.211 143.087L190.168 143.177L190.124 143.267L190.111 143.294L190.075 143.368L190.031 143.458L189.988 143.548L189.944 143.638L189.911 143.704L189.894 143.738L189.85 143.828L189.806 143.918L189.762 144.007L189.718 144.097L189.704 144.124L189.667 144.197L189.623 144.287L189.579 144.377L189.534 144.466L189.501 144.533L189.483 144.566L189.439 144.656L189.394 144.745L189.349 144.834L189.304 144.923L189.289 144.951L189.252 145.023L189.207 145.112L189.162 145.202L189.117 145.291L189.082 145.358L189.065 145.39L189.019 145.479L188.974 145.568L188.928 145.657L188.882 145.746L188.867 145.774L188.83 145.845L188.784 145.934L188.738 146.023L188.692 146.111L188.656 146.179L188.639 146.21L188.592 146.299L188.546 146.387L188.499 146.476L188.453 146.564L188.437 146.593L188.399 146.663L188.353 146.751L188.306 146.84L188.259 146.928L188.222 146.995L188.205 147.026L188.158 147.114L188.111 147.203L188.063 147.291L188.016 147.378L187.999 147.407L187.961 147.477L187.914 147.565L187.866 147.652L187.818 147.74L187.781 147.808L187.764 147.838L187.716 147.926L187.668 148.014L187.62 148.101L187.571 148.189L187.554 148.218L187.516 148.286L187.468 148.374L187.419 148.461L187.371 148.549L187.332 148.616L187.315 148.646L187.266 148.733L187.217 148.821L187.168 148.908L187.119 148.995L187.102 149.024L187.063 149.092L187.014 149.179L186.965 149.266L186.915 149.353L186.876 149.421L186.859 149.45L186.809 149.536L186.759 149.623L186.71 149.71L186.66 149.796L186.642 149.826L186.603 149.893L186.553 149.98L186.503 150.066L186.452 150.153L186.412 150.221L186.395 150.249L186.344 150.335L186.294 150.422L186.243 150.508L186.193 150.594L186.174 150.624L186.135 150.69L186.084 150.776L186.033 150.862L185.982 150.948L185.941 151.016L185.924 151.044L185.872 151.13L185.821 151.216L185.77 151.301L185.719 151.387L185.699 151.417L185.66 151.483L185.608 151.568L185.556 151.654L185.504 151.739L185.463 151.807L185.445 151.834L185.393 151.92L185.341 152.005L185.289 152.09L185.237 152.175L185.217 152.206L185.177 152.27L185.125 152.356L185.072 152.441L185.02 152.526L184.977 152.594L184.959 152.62L184.907 152.705L184.854 152.79L184.801 152.875L184.748 152.959L184.727 152.991L184.687 153.054L184.634 153.139L184.581 153.223L184.527 153.308L184.484 153.376L184.466 153.402L184.413 153.486L184.359 153.57L184.305 153.655L184.252 153.739L184.23 153.77L184.19 153.833L184.136 153.917L184.082 154.001L184.028 154.085L183.983 154.154L183.966 154.179L183.912 154.262L183.857 154.346L183.803 154.43L183.748 154.514L183.726 154.545L183.686 154.607L183.631 154.691L183.576 154.774L183.521 154.858L183.476 154.926L183.458 154.951L183.403 155.034L183.348 155.117L183.293 155.2L183.238 155.284L183.215 155.316L183.174 155.376L183.119 155.459L183.063 155.542L183.008 155.625L182.961 155.694L182.944 155.718L182.888 155.801L182.832 155.884L182.776 155.966L182.72 156.049L182.697 156.081L182.656 156.141L182.599 156.224L182.543 156.306L182.487 156.389L182.439 156.457L182.422 156.48L182.366 156.563L182.309 156.645L182.252 156.727L182.195 156.809L182.172 156.842L182.13 156.901L182.073 156.983L182.016 157.065L181.959 157.147L181.91 157.215L181.893 157.238L181.836 157.32L181.779 157.401L181.721 157.483L181.664 157.565L181.639 157.597L181.598 157.656L181.54 157.737L181.482 157.819L181.424 157.9L181.375 157.969L181.358 157.991L181.3 158.072L181.241 158.153L181.183 158.234L181.125 158.315L181.1 158.348L181.058 158.405L180.999 158.486L180.941 158.567L180.882 158.648L180.832 158.717L180.815 158.738L180.756 158.819L180.697 158.899L180.638 158.98L180.579 159.061L180.554 159.094L180.512 159.15L180.452 159.231L180.393 159.311L180.334 159.391L180.282 159.46L180.266 159.481L180.206 159.561L180.146 159.641L180.087 159.721L180.027 159.801L180.001 159.834L179.958 159.89L179.898 159.97L179.838 160.05L179.778 160.129L179.726 160.198L179.709 160.218L179.649 160.298L179.588 160.377L179.528 160.457L179.467 160.536L179.441 160.57L179.398 160.624L179.337 160.704L179.277 160.783L179.216 160.862L179.163 160.931L179.146 160.95L179.085 161.029L179.024 161.108L178.963 161.187L178.901 161.266L178.874 161.3L178.831 161.354L178.77 161.432L178.708 161.511L178.647 161.59L178.593 161.658L178.576 161.677L178.514 161.755L178.453 161.834L178.391 161.912L178.329 161.991L178.301 162.024L178.258 162.078L178.196 162.156L178.133 162.234L178.071 162.312L178.016 162.381L178 162.399L177.937 162.476L177.875 162.554L177.812 162.632L177.749 162.71L177.72 162.744L177.677 162.796L177.615 162.874L177.552 162.951L177.489 163.029L177.432 163.097L177.416 163.115L177.353 163.192L177.29 163.269L177.227 163.346L177.163 163.424L177.134 163.458L177.091 163.509L177.027 163.586L176.963 163.663L176.9 163.74L176.842 163.809L176.827 163.825L176.763 163.902L176.699 163.979L176.635 164.055L176.571 164.132L176.54 164.166L176.497 164.217L176.433 164.293L176.369 164.37L176.304 164.446L176.246 164.514L176.23 164.531L176.166 164.607L176.101 164.683L176.036 164.759L175.972 164.835L175.941 164.869L175.897 164.919L175.832 164.995L175.767 165.071L175.702 165.146L175.643 165.215L175.628 165.23L175.562 165.306L175.497 165.381L175.432 165.457L175.366 165.532L175.334 165.567L175.291 165.616L175.225 165.691L175.16 165.766L175.094 165.841L175.034 165.909L175.019 165.924L174.952 165.999L174.886 166.074L174.82 166.149L174.754 166.224L174.722 166.258L174.678 166.306L174.612 166.381L174.546 166.456L174.479 166.53L174.418 166.598L174.403 166.613L174.336 166.687L174.27 166.761L174.203 166.835L174.136 166.909L174.103 166.944L174.059 166.992L173.992 167.066L173.925 167.139L173.858 167.213L173.796 167.281L173.781 167.295L173.714 167.369L173.646 167.443L173.579 167.516L173.511 167.59L173.478 167.625L173.434 167.671L173.366 167.744L173.298 167.818L173.231 167.891L173.167 167.959L173.153 167.972L173.085 168.045L173.017 168.118L172.949 168.191L172.88 168.264L172.846 168.299L172.802 168.344L172.734 168.417L172.666 168.49L172.597 168.563L172.533 168.63L172.519 168.643L172.45 168.715L172.381 168.788L172.312 168.86L172.244 168.932L172.208 168.967L172.165 169.012L172.096 169.084L172.027 169.156L171.957 169.228L171.892 169.296L171.878 169.308L171.809 169.38L171.739 169.451L171.67 169.523L171.6 169.595L171.565 169.63L171.521 169.674L171.451 169.745L171.381 169.817L171.312 169.888L171.245 169.955L171.232 169.967L171.162 170.038L171.092 170.109L171.021 170.18L170.951 170.251L170.915 170.286L170.871 170.329L170.801 170.4L170.73 170.471L170.66 170.542L170.593 170.609L170.579 170.62L170.508 170.69L170.438 170.761L170.367 170.831L170.296 170.901L170.259 170.937L170.215 170.979L170.144 171.049L170.073 171.119L170.002 171.189L169.934 171.256L169.921 171.267L169.849 171.337L169.778 171.406L169.707 171.476L169.635 171.546L169.597 171.581L169.553 171.623L169.482 171.692L169.41 171.762L169.338 171.831L169.269 171.898L169.256 171.907L169.184 171.977L169.112 172.046L169.04 172.115L168.968 172.184L168.929 172.219L168.886 172.26L168.813 172.329L168.741 172.398L168.669 172.466L168.598 172.533L168.586 172.542L168.513 172.611L168.441 172.679L168.368 172.747L168.295 172.816L168.256 172.851L168.212 172.891L168.139 172.959L168.066 173.027L167.993 173.095L167.922 173.161L167.91 173.17L167.836 173.238L167.763 173.306L167.69 173.374L167.616 173.441L167.576 173.477L167.533 173.516L167.459 173.583L167.386 173.651L167.312 173.718L167.24 173.784L167.228 173.792L167.154 173.859L167.08 173.927L167.006 173.994L166.932 174.061L166.891 174.096L166.848 174.134L166.773 174.201L166.699 174.268L166.625 174.335L166.552 174.4L166.54 174.408L166.466 174.474L166.391 174.541L166.317 174.607L166.242 174.674L166.2 174.709L166.157 174.746L166.082 174.813L166.007 174.879L165.932 174.945L165.858 175.01L165.847 175.017L165.772 175.083L165.697 175.149L165.622 175.214L165.547 175.28L165.504 175.316L165.461 175.352L165.385 175.418L165.31 175.483L165.234 175.548L165.159 175.613L165.148 175.62L165.073 175.685L164.997 175.75L164.921 175.815L164.845 175.88L164.802 175.916L164.759 175.951L164.683 176.016L164.607 176.081L164.531 176.145L164.455 176.21L164.444 176.216L164.368 176.281L164.291 176.345L164.215 176.409L164.139 176.473L164.095 176.509L164.051 176.544L163.975 176.608L163.898 176.672L163.822 176.736L163.745 176.8L163.734 176.806L163.657 176.87L163.581 176.933L163.504 176.997L163.427 177.06L163.382 177.096L163.339 177.13L163.262 177.193L163.184 177.256L163.107 177.32L163.03 177.383L163.018 177.39L162.942 177.452L162.864 177.515L162.787 177.578L162.709 177.641L162.664 177.676L162.621 177.709L162.543 177.772L162.465 177.834L162.387 177.897L162.309 177.959L162.297 177.967L162.221 178.028L162.143 178.09L162.065 178.152L161.986 178.214L161.94 178.249L161.897 178.282L161.819 178.344L161.741 178.406L161.662 178.467L161.584 178.529L161.571 178.537L161.494 178.597L161.416 178.658L161.337 178.719L161.258 178.781L161.211 178.816L161.169 178.848L161.09 178.909L161.011 178.97L160.932 179.031L160.853 179.092L160.84 179.1L160.763 179.159L160.684 179.219L160.605 179.28L160.525 179.341L160.477 179.376L160.435 179.407L160.355 179.467L160.276 179.528L160.197 179.588L160.117 179.648L160.103 179.656L160.026 179.714L159.947 179.774L159.867 179.834L159.787 179.894L159.738 179.929L159.696 179.959L159.616 180.019L159.536 180.079L159.456 180.138L159.376 180.198L159.361 180.206L159.285 180.263L159.204 180.322L159.124 180.381L159.044 180.44L158.994 180.475L158.952 180.505L158.872 180.564L158.791 180.623L158.71 180.681L158.63 180.74L158.615 180.748L158.538 180.804L158.457 180.863L158.376 180.921L158.295 180.979L158.245 181.014L158.203 181.043L158.122 181.101L158.041 181.159L157.96 181.218L157.879 181.276L157.863 181.284L157.786 181.339L157.705 181.397L157.623 181.454L157.542 181.512L157.491 181.547L157.449 181.575L157.368 181.632L157.286 181.689L157.205 181.747L157.123 181.804L157.107 181.813L157.03 181.866L156.948 181.923L156.866 181.98L156.784 182.037L156.732 182.072L156.691 182.099L156.609 182.156L156.526 182.212L156.444 182.269L156.362 182.325L156.345 182.334L156.268 182.387L156.186 182.443L156.104 182.499L156.021 182.555L155.969 182.59L155.927 182.616L155.845 182.672L155.762 182.728L155.679 182.784L155.596 182.84L155.579 182.849L155.502 182.9L155.419 182.956L155.336 183.011L155.253 183.066L155.2 183.101L155.159 183.127L155.076 183.182L154.993 183.237L154.909 183.292L154.826 183.347L154.808 183.356L154.731 183.406L154.648 183.461L154.565 183.516L154.481 183.57L154.427 183.604L154.386 183.63L154.302 183.684L154.219 183.738L154.135 183.792L154.051 183.847L154.033 183.856L153.956 183.905L153.872 183.959L153.788 184.013L153.704 184.067L153.649 184.101L153.609 184.125L153.525 184.179L153.44 184.232L153.356 184.286L153.272 184.339L153.253 184.349L153.176 184.397L153.092 184.45L153.007 184.503L152.923 184.556L152.867 184.59L152.827 184.614L152.742 184.667L152.657 184.719L152.573 184.772L152.488 184.825L152.469 184.834L152.392 184.882L152.307 184.934L152.222 184.986L152.137 185.039L152.08 185.072L152.04 185.095L151.955 185.147L151.87 185.199L151.785 185.251L151.7 185.303L151.68 185.312L151.603 185.359L151.517 185.41L151.432 185.462L151.347 185.513L151.289 185.547L151.249 185.569L151.164 185.62L151.078 185.671L150.993 185.722L150.907 185.773L150.886 185.783L150.809 185.829L150.724 185.879L150.638 185.93L150.552 185.981L150.494 186.014L150.454 186.035L150.368 186.086L150.282 186.136L150.196 186.186L150.11 186.237L150.089 186.247L150.012 186.291L149.926 186.341L149.839 186.391L149.753 186.441L149.694 186.473L149.655 186.494L149.568 186.544L149.482 186.594L149.395 186.643L149.309 186.692L149.287 186.702L149.21 186.746L149.123 186.795L149.037 186.844L148.95 186.893L148.89 186.926L148.851 186.946L148.764 186.995L148.677 187.043L148.59 187.092L148.503 187.141L148.481 187.151L148.404 187.193L148.317 187.241L148.23 187.29L148.143 187.338L148.082 187.37L148.043 187.39L147.956 187.438L147.869 187.486L147.781 187.534L147.694 187.582L147.671 187.592L147.594 187.633L147.507 187.68L147.419 187.728L147.331 187.775L147.27 187.807L147.232 187.826L147.144 187.873L147.056 187.921L146.968 187.968L146.88 188.015L146.857 188.025L146.78 188.065L146.692 188.112L146.604 188.158L146.516 188.205L146.454 188.237L146.416 188.255L146.328 188.301L146.24 188.348L146.151 188.394L146.063 188.44L146.039 188.45L145.962 188.49L145.874 188.536L145.786 188.581L145.697 188.627L145.634 188.659L145.596 188.676L145.508 188.722L145.419 188.767L145.33 188.813L145.242 188.858L145.217 188.868L145.141 188.907L145.052 188.952L144.963 188.997L144.874 189.042L144.81 189.073L144.773 189.09L144.684 189.134L144.595 189.179L144.506 189.224L144.416 189.268L144.391 189.279L144.315 189.316L144.226 189.36L144.137 189.404L144.047 189.448L143.983 189.479L143.946 189.495L143.856 189.539L143.767 189.583L143.677 189.627L143.588 189.671L143.562 189.681L143.486 189.717L143.396 189.761L143.306 189.804L143.217 189.847L143.152 189.878L143.115 189.894L143.025 189.937L142.935 189.98L142.845 190.023L142.755 190.065L142.728 190.076L142.653 190.111L142.563 190.154L142.473 190.196L142.382 190.239L142.317 190.269L142.28 190.284L142.19 190.326L142.1 190.368L142.009 190.41L141.919 190.452L141.892 190.462L141.816 190.497L141.726 190.539L141.635 190.58L141.545 190.622L141.478 190.652L141.442 190.666L141.351 190.708L141.261 190.749L141.17 190.79L141.079 190.831L141.051 190.841L140.976 190.875L140.885 190.916L140.795 190.957L140.704 190.998L140.636 191.027L140.6 191.041L140.509 191.081L140.418 191.122L140.327 191.162L140.236 191.202L140.208 191.213L140.133 191.245L140.042 191.285L139.95 191.325L139.859 191.365L139.791 191.394L139.755 191.407L139.664 191.447L139.573 191.487L139.481 191.526L139.39 191.566L139.361 191.576L139.286 191.607L139.194 191.647L139.103 191.686L139.011 191.725L138.942 191.753L138.907 191.766L138.815 191.805L138.724 191.844L138.632 191.882L138.54 191.921L138.51 191.931L138.436 191.962L138.344 192L138.252 192.038L138.16 192.077L138.09 192.105L138.055 192.117L137.963 192.155L137.871 192.193L137.779 192.231L137.687 192.268L137.657 192.278L137.582 192.308L137.49 192.346L137.398 192.383L137.305 192.42L137.235 192.448L137.201 192.46L137.108 192.497L137.016 192.534L136.923 192.571L136.831 192.608L136.8 192.618L136.726 192.646L136.633 192.683L136.541 192.72L136.448 192.756L136.377 192.783L136.343 192.794L136.25 192.831L136.157 192.867L136.064 192.903L135.972 192.939L135.94 192.949L135.866 192.977L135.773 193.013L135.68 193.048L135.587 193.084L135.515 193.111L135.482 193.121L135.389 193.157L135.296 193.192L135.203 193.227L135.109 193.262L135.077 193.272L135.004 193.299L134.91 193.334L134.817 193.369L134.724 193.404L134.651 193.43L134.618 193.44L134.525 193.474L134.431 193.509L134.338 193.543L134.244 193.577L134.211 193.587L134.138 193.613L134.045 193.647L133.951 193.681L133.857 193.715L133.784 193.741L133.751 193.75L133.658 193.784L133.564 193.818L133.47 193.851L133.376 193.885L133.343 193.894L133.27 193.919L133.176 193.952L133.082 193.986L132.988 194.018L132.914 194.044L132.882 194.053L132.788 194.086L132.694 194.118L132.6 194.151L132.505 194.183L132.471 194.193L132.399 194.217L132.305 194.249L132.21 194.282L132.116 194.314L132.041 194.339L132.009 194.347L131.915 194.379L131.821 194.411L131.726 194.443L131.632 194.474L131.597 194.483L131.525 194.507L131.431 194.538L131.336 194.57L131.242 194.601L131.166 194.625L131.135 194.633L131.04 194.664L130.945 194.695L130.851 194.726L130.756 194.757L130.721 194.766L130.649 194.788L130.554 194.819L130.459 194.849L130.364 194.88L130.288 194.904L130.257 194.911L130.162 194.941L130.067 194.971L129.972 195.001L129.877 195.031L129.841 195.04L129.77 195.062L129.675 195.091L129.58 195.121L129.485 195.151L129.407 195.174L129.377 195.181L129.282 195.21L129.187 195.239L129.091 195.268L128.996 195.297L128.96 195.306L128.888 195.327L128.793 195.356L128.698 195.384L128.602 195.413L128.524 195.436L128.495 195.442L128.399 195.47L128.304 195.499L128.208 195.527L128.113 195.555L128.076 195.564L128.005 195.584L127.909 195.612L127.814 195.639L127.718 195.667L127.639 195.689L127.61 195.695L127.514 195.723L127.418 195.75L127.323 195.777L127.227 195.805L127.189 195.813L127.119 195.832L127.023 195.859L126.927 195.886L126.831 195.913L126.751 195.935L126.723 195.94L126.627 195.967L126.531 195.993L126.435 196.02L126.339 196.046L126.301 196.054L126.23 196.073L126.134 196.099L126.038 196.125L125.942 196.151L125.862 196.172L125.833 196.177L125.737 196.202L125.641 196.228L125.545 196.254L125.449 196.279L125.41 196.287L125.34 196.305L125.244 196.33L125.147 196.355L125.051 196.38L124.97 196.4L124.942 196.405L124.846 196.43L124.749 196.455L124.653 196.479L124.556 196.504Z" fill="white"/>
</svg>
