<svg width="200" height="200" viewBox="0 0 200 200" fill="none" xmlns="http://www.w3.org/2000/svg">
<path d="M115.696 5.79028L115.703 5.76372L115.711 5.73733L115.718 5.71101L115.726 5.68469L115.684 5.65827L115.691 5.63213L115.699 5.60606L115.706 5.58006L115.714 5.55419L115.721 5.52837L115.729 5.50261L115.736 5.477L115.743 5.45143L115.703 5.4253L115.708 5.39982L115.716 5.37448L115.723 5.34918L115.73 5.32397L115.737 5.29889L115.745 5.27383L115.752 5.24887L115.759 5.22406L115.719 5.19825L115.723 5.17347L115.731 5.14878L115.738 5.12422L115.745 5.09974L115.752 5.0753L115.759 5.051L115.766 5.02676L115.773 5.00259L115.734 4.97718L115.737 4.95306L115.744 4.92912L115.751 4.90521L115.758 4.88145L115.764 4.85777L115.771 4.83413L115.778 4.81061L115.785 4.78718L115.747 4.76217L115.749 4.73861L115.755 4.71544L115.762 4.69227L115.769 4.66916L115.775 4.64624L115.782 4.62332L115.789 4.60048L115.795 4.5778L115.758 4.55321L115.758 4.53027L115.765 4.50778L115.771 4.48538L115.778 4.46298L115.784 4.44074L115.791 4.4186L115.797 4.39645L115.804 4.37448L115.768 4.35034L115.766 4.32806L115.773 4.30622L115.779 4.28457L115.785 4.26294L115.792 4.24135L115.798 4.21997L115.804 4.1986L115.81 4.17726L115.775 4.15361L115.773 4.13196L115.779 4.11088L115.785 4.08989L115.791 4.06903L115.797 4.0482L115.803 4.02748L115.809 4.00689L115.815 3.98631L115.781 3.96314L115.777 3.94203L115.783 3.9217L115.789 3.90149L115.795 3.88131L115.8 3.86125L115.806 3.84129L115.812 3.82139L115.818 3.80158L115.785 3.77892L115.779 3.7584L115.785 3.73877L115.791 3.71933L115.796 3.6999L115.802 3.68055L115.808 3.66137L115.813 3.6422L115.819 3.62312L115.786 3.60101L115.78 3.58107L115.785 3.56217L115.791 3.54348L115.796 3.52483L115.802 3.50619L115.807 3.48777L115.812 3.46939L115.818 3.45101L115.786 3.42946L115.779 3.4101L115.784 3.39199L115.789 3.37399L115.794 3.35613L115.799 3.33828L115.805 3.32056L115.81 3.30297L115.815 3.28539L115.784 3.26441L115.775 3.24553L115.78 3.22823L115.785 3.21102L115.79 3.19386L115.795 3.17682L115.8 3.15989L115.805 3.143L115.81 3.12624L115.78 3.10587L115.77 3.08752L115.775 3.07096L115.779 3.05456L115.784 3.03815L115.789 3.02188L115.794 3.00575L115.798 2.98961L115.803 2.97363L115.774 2.95389L115.762 2.93608L115.767 2.92029L115.771 2.90466L115.776 2.88906L115.78 2.87355L115.785 2.85819L115.789 2.84286L115.794 2.82764L115.766 2.80856L115.753 2.79126L115.757 2.77633L115.762 2.7614L115.766 2.74662L115.77 2.73196L115.774 2.71731L115.779 2.70283L115.783 2.68843L115.756 2.67L115.741 2.6532L115.746 2.63908L115.75 2.62496L115.754 2.61096L115.758 2.59711L115.762 2.58326L115.766 2.56958L115.77 2.556L115.744 2.53827L115.728 2.52201L115.732 2.50864L115.736 2.49535L115.739 2.48218L115.743 2.4691L115.747 2.45611L115.751 2.44322L115.754 2.43042L115.73 2.41349L115.712 2.39772L115.716 2.3851L115.719 2.3727L115.723 2.36035L115.726 2.34801L115.73 2.33586L115.733 2.32387L115.737 2.31189L115.713 2.29573L115.694 2.28052L115.697 2.26881L115.701 2.25716L115.704 2.24573L115.707 2.2343L115.711 2.22296L115.714 2.2118L115.717 2.20063L115.694 2.18529L115.674 2.17047L115.677 2.15959L115.68 2.14882L115.683 2.13813L115.686 2.12752L115.689 2.11705L115.692 2.10664L115.695 2.09634L115.673 2.08183L115.652 2.06741L115.654 2.05736L115.657 2.04744L115.66 2.03752L115.663 2.02778L115.666 2.01813L115.668 2.00849L115.671 1.99907L115.65 1.98538L115.627 1.97136L115.63 1.96212L115.632 1.95303L115.635 1.94395L115.638 1.93499L115.64 1.92618L115.643 1.91741L115.645 1.90875L115.625 1.8959L115.601 1.88234L115.603 1.87394L115.606 1.86558L115.608 1.8574L115.61 1.84928L115.612 1.84121L115.615 1.83334L115.617 1.82549L115.598 1.81346L115.572 1.80033L115.574 1.79277L115.577 1.78522L115.579 1.77787L115.581 1.77059L115.583 1.76336L115.585 1.75631L115.587 1.7493L115.568 1.73819L115.542 1.72539L115.544 1.71863L115.546 1.71201L115.547 1.70542L115.549 1.69896L115.551 1.69264L115.553 1.68632L115.555 1.68018L115.537 1.67003L115.509 1.65756L115.511 1.65161L115.512 1.64585L115.514 1.64009L115.516 1.63447L115.517 1.62899L115.519 1.62351L115.52 1.61821L115.504 1.60898L115.474 1.59687L115.476 1.5918L115.477 1.58681L115.479 1.58194L115.48 1.57716L115.481 1.57246L115.482 1.56789L115.484 1.56339L115.468 1.55508L115.438 1.54337L115.439 1.53916L115.44 1.53495L115.441 1.53099L115.442 1.52706L115.443 1.52316L115.444 1.51951L115.445 1.51585L115.431 1.50853L115.399 1.49711L115.4 1.49374L115.4 1.49049L115.401 1.48729L115.402 1.4842L115.403 1.48126L115.404 1.47836L115.439 1.48282L115.522 1.49716L115.586 1.50664L115.685 1.52473L115.783 1.54295L115.881 1.56119L115.979 1.57958L116.077 1.5981L116.175 1.61661L116.273 1.63531L116.358 1.65065L116.421 1.66039L116.519 1.67928L116.617 1.69833L116.714 1.71741L116.812 1.73659L116.91 1.75593L117.008 1.77529L117.106 1.79476L117.192 1.81112L117.253 1.8211L117.351 1.84086L117.449 1.86066L117.547 1.88058L117.645 1.90062L117.742 1.92072L117.84 1.94092L117.938 1.96125L118.024 1.97858L118.085 1.98877L118.182 2.00939L118.28 2.03002L118.378 2.05071L118.475 2.07162L118.573 2.09252L118.67 2.11352L118.768 2.13471L118.855 2.15306L118.915 2.16346L119.012 2.18489L119.11 2.20635L119.207 2.22784L119.305 2.24957L119.402 2.27131L119.499 2.29309L119.597 2.31511L119.685 2.33453L119.743 2.34515L119.841 2.36732L119.938 2.38963L120.035 2.41198L120.132 2.43446L120.23 2.45705L120.327 2.47969L120.424 2.50245L120.513 2.52296L120.57 2.53378L120.668 2.55678L120.765 2.57984L120.862 2.60305L120.959 2.62635L121.056 2.6497L121.153 2.6732L121.25 2.69677L121.34 2.71835L121.396 2.72932L121.493 2.75317L121.59 2.77701L121.687 2.80106L121.783 2.82518L121.88 2.8493L121.977 2.87364L122.074 2.89805L122.165 2.92068L122.22 2.93179L122.316 2.95647L122.413 2.98115L122.51 3.00597L122.606 3.03093L122.703 3.05588L122.799 3.08099L122.896 3.10623L122.988 3.13L123.042 3.14125L123.138 3.16668L123.235 3.1922L123.331 3.21785L123.427 3.24357L123.524 3.26936L123.62 3.29529L123.717 3.32131L123.81 3.34626L123.862 3.35762L123.958 3.38382L124.054 3.41015L124.151 3.43664L124.247 3.46313L124.343 3.48976L124.439 3.51652L124.535 3.54328L124.629 3.56945L124.68 3.58086L124.776 3.6079L124.872 3.635L124.968 3.66231L125.064 3.68963L125.16 3.71702L125.256 3.74462L125.352 3.77222L125.447 3.79951L125.497 3.81097L125.593 3.83883L125.688 3.86678L125.784 3.89484L125.88 3.92299L125.976 3.95122L126.071 3.97958L126.167 4.00799L126.263 4.03648L126.311 4.04797L126.407 4.07662L126.503 4.10542L126.598 4.13425L126.694 4.1632L126.789 4.19228L126.885 4.22139L126.98 4.25063L127.075 4.27998L127.125 4.29225L127.219 4.32126L127.315 4.35091L127.41 4.38058L127.505 4.41025L127.6 4.44018L127.696 4.47011L127.791 4.50009L127.886 4.5303L127.936 4.54339L128.03 4.57282L128.125 4.60323L128.22 4.6337L128.315 4.6642L128.41 4.69489L128.505 4.72564L128.6 4.75643L128.694 4.78741L128.746 4.80136L128.838 4.8312L128.932 4.86236L129.027 4.89363L129.122 4.92499L129.217 4.95642L129.311 4.98797L129.406 5.01961L129.501 5.05131L129.553 5.06615L129.644 5.09638L129.738 5.12836L129.833 5.16035L129.927 5.19255L130.022 5.2248L130.116 5.25709L130.21 5.28957L130.305 5.32209L130.358 5.3378L130.447 5.36832L130.542 5.40111L130.636 5.43391L130.73 5.46688L130.824 5.49995L130.918 5.53302L131.013 5.5663L131.107 5.59964L131.161 5.61623L131.249 5.64707L131.343 5.68064L131.437 5.71425L131.531 5.74799L131.624 5.78184L131.718 5.81574L131.812 5.84975L131.906 5.8839L131.961 5.90145L132.048 5.93257L132.141 5.96686L132.235 6.00131L132.329 6.03587L132.422 6.07046L132.516 6.10518L132.609 6.14L132.703 6.17488L132.759 6.1934L132.844 6.2248L132.938 6.25989L133.031 6.29512L133.124 6.33047L133.218 6.36584L133.311 6.40135L133.404 6.43697L133.498 6.4726L133.555 6.4921L133.638 6.52373L133.732 6.55963L133.825 6.59562L133.918 6.63176L134.011 6.66793L134.104 6.70419L134.197 6.74061L134.29 6.77705L134.347 6.79753L134.43 6.82934L134.523 6.86603L134.616 6.90285L134.708 6.93971L134.801 6.97668L134.894 7.01377L134.986 7.05092L135.079 7.08815L135.138 7.10965L135.219 7.14166L135.312 7.1791L135.404 7.21674L135.496 7.25438L135.589 7.29211L135.681 7.33001L135.774 7.36791L135.866 7.40594L135.926 7.42842L136.005 7.46064L136.098 7.49885L136.19 7.53725L136.282 7.57567L136.374 7.61415L136.466 7.65283L136.558 7.69153L136.65 7.73029L136.71 7.75379L136.789 7.78619L136.881 7.82523L136.973 7.86434L137.065 7.90356L137.156 7.94286L137.248 7.98226L137.34 8.02174L137.431 8.06133L137.493 8.08582L137.57 8.11833L137.661 8.15819L137.753 8.19807L137.844 8.23801L137.936 8.27815L138.027 8.3183L138.119 8.35852L138.21 8.39892L138.272 8.42445L138.348 8.45707L138.439 8.49769L138.53 8.53836L138.622 8.57905L138.713 8.61997L138.804 8.66089L138.895 8.70184L138.986 8.74303L139.048 8.76962L139.123 8.80239L139.214 8.84374L139.305 8.88519L139.396 8.92668L139.486 8.96831L139.577 9.01002L139.668 9.05178L139.758 9.09367L139.822 9.12135L139.895 9.15426L139.986 9.19636L140.076 9.23852L140.167 9.28083L140.257 9.3232L140.348 9.36563L140.438 9.40821L140.528 9.45083L140.593 9.4796L140.665 9.51259L140.755 9.55547L140.845 9.59835L140.935 9.64144L141.025 9.68458L141.115 9.72771L141.205 9.77109L141.295 9.81449L141.36 9.84432L141.431 9.87736L141.521 9.92102L141.611 9.96467L141.7 10.0085L141.79 10.0524L141.88 10.0963L141.969 10.1404L142.059 10.1846L142.125 10.2156L142.194 10.2486L142.284 10.293L142.373 10.3375L142.462 10.382L142.552 10.4266L142.641 10.4714L142.73 10.5162L142.819 10.5611L142.886 10.5932L142.954 10.6263L143.043 10.6714L143.132 10.7166L143.221 10.7619L143.31 10.8073L143.399 10.8528L143.488 10.8984L143.577 10.944L143.644 10.9773L143.711 11.0104L143.8 11.0562L143.888 11.1021L143.977 11.1483L144.066 11.1943L144.154 11.2406L144.243 11.2869L144.331 11.3332L144.399 11.3677L144.465 11.4008L144.553 11.4474L144.641 11.4941L144.73 11.5409L144.818 11.5877L144.906 11.6347L144.994 11.6818L145.082 11.7289L145.151 11.7645L145.215 11.7975L145.303 11.8449L145.391 11.8923L145.479 11.9398L145.567 11.9874L145.654 12.0352L145.742 12.0829L145.83 12.1308L145.899 12.1676L145.962 12.2006L146.05 12.2486L146.137 12.2969L146.225 12.3451L146.312 12.3934L146.399 12.4419L146.486 12.4904L146.574 12.539L146.644 12.577L146.706 12.6099L146.793 12.6587L146.88 12.7076L146.967 12.7566L147.054 12.8057L147.141 12.8549L147.228 12.9041L147.315 12.9534L147.385 12.9927L147.446 13.0255L147.533 13.075L147.619 13.1246L147.706 13.1743L147.792 13.2242L147.879 13.274L147.965 13.324L148.052 13.3741L148.123 13.4145L148.183 13.4472L148.269 13.4975L148.355 13.5479L148.441 13.5983L148.527 13.6489L148.613 13.6994L148.699 13.7501L148.785 13.8009L148.857 13.8426L148.916 13.8751L149.001 13.9261L149.087 13.9772L149.173 14.0284L149.259 14.0797L149.344 14.131L149.43 14.1824L149.516 14.2339L149.588 14.2768L149.645 14.3092L149.73 14.361L149.816 14.4128L149.901 14.4647L149.987 14.5166L150.072 14.5687L150.157 14.6208L150.242 14.673L150.315 14.7172L150.371 14.7495L150.456 14.8019L150.541 14.8544L150.626 14.907L150.711 14.9597L150.795 15.0124L150.88 15.0653L150.965 15.1182L151.039 15.1636L151.093 15.1958L151.178 15.2489L151.262 15.3021L151.347 15.3554L151.431 15.4088L151.515 15.4622L151.6 15.5158L151.684 15.5695L151.758 15.6162L151.811 15.6481L151.895 15.7019L151.98 15.7559L152.064 15.8099L152.148 15.864L152.231 15.9181L152.315 15.9724L152.399 16.0267L152.474 16.0748L152.526 16.1065L152.61 16.161L152.693 16.2156L152.777 16.2704L152.86 16.3251L152.944 16.38L153.027 16.435L153.111 16.49L153.186 16.5393L153.237 16.5708L153.32 16.626L153.403 16.6813L153.486 16.7368L153.569 16.7922L153.652 16.8478L153.735 16.9035L153.818 16.9592L153.894 17.0099L153.943 17.0411L154.026 17.097L154.109 17.153L154.192 17.2091L154.274 17.2653L154.357 17.3215L154.439 17.3779L154.522 17.4343L154.598 17.4863L154.646 17.5172L154.729 17.5739L154.811 17.6306L154.893 17.6874L154.975 17.7442L155.057 17.8012L155.139 17.8582L155.221 17.9153L155.298 17.9687L155.345 17.9993L155.427 18.0566L155.509 18.114L155.59 18.1715L155.672 18.229L155.754 18.2867L155.835 18.3444L155.917 18.4022L155.994 18.4569L156.04 18.4872L156.121 18.5452L156.203 18.6033L156.284 18.6614L156.365 18.7196L156.446 18.778L156.527 18.8364L156.608 18.8948L156.686 18.9509L156.731 18.9809L156.812 19.0396L156.892 19.0983L156.973 19.1572L157.054 19.2161L157.134 19.2751L157.215 19.3341L157.295 19.3933L157.374 19.4507L157.417 19.4804L157.498 19.5398L157.578 19.5992L157.658 19.6586L157.738 19.7183L157.818 19.7779L157.899 19.8376L157.978 19.8975L158.057 19.9562L158.1 19.9856L158.18 20.0456L158.259 20.1057L158.339 20.1658L158.419 20.2261L158.498 20.2865L158.578 20.3468L158.657 20.4074L158.736 20.4675L158.778 20.4965L158.857 20.5572L158.937 20.6179L159.016 20.6788L159.095 20.7397L159.174 20.8007L159.253 20.8618L159.332 20.9229L159.411 20.9841L159.452 21.0135L159.531 21.0744L159.609 21.1358L159.688 21.1974L159.767 21.2589L159.845 21.3205L159.924 21.3823L160.002 21.4441L160.081 21.5059L160.123 21.5364L160.2 21.5973L160.278 21.6593L160.356 21.7215L160.434 21.7837L160.512 21.846L160.59 21.9084L160.668 21.9708L160.746 22.0333L160.789 22.0649L160.864 22.1257L160.942 22.1884L161.02 22.2512L161.097 22.3141L161.175 22.377L161.252 22.4401L161.33 22.5032L161.407 22.5663L161.45 22.599L161.524 22.6596L161.602 22.723L161.679 22.7865L161.756 22.85L161.833 22.9136L161.91 22.9773L161.987 23.041L162.064 23.1048L162.107 23.1386L162.18 23.1991L162.257 23.2631L162.334 23.3272L162.41 23.3913L162.487 23.4556L162.563 23.52L162.639 23.5843L162.716 23.6488L162.76 23.6837L162.831 23.744L162.908 23.8087L162.984 23.8734L163.06 23.9382L163.136 24.0031L163.212 24.0681L163.287 24.133L163.363 24.1982L163.408 24.2343L163.478 24.2944L163.554 24.3597L163.629 24.425L163.705 24.4905L163.78 24.556L163.856 24.6215L163.931 24.6872L164.006 24.7529L164.051 24.7902L164.12 24.8501L164.195 24.9161L164.27 24.982L164.345 25.0481L164.42 25.1142L164.495 25.1804L164.57 25.2467L164.644 25.3131L164.69 25.3515L164.758 25.4112L164.832 25.4778L164.907 25.5443L164.981 25.611L165.055 25.6778L165.13 25.7446L165.204 25.8115L165.278 25.8785L165.324 25.9181L165.39 25.9776L165.464 26.0448L165.538 26.112L165.612 26.1793L165.686 26.2467L165.759 26.3141L165.833 26.3816L165.907 26.4492L165.953 26.4901L166.018 26.5493L166.092 26.617L166.165 26.6849L166.238 26.7528L166.311 26.8208L166.385 26.8889L166.458 26.957L166.531 27.0251L166.578 27.0673L166.641 27.1262L166.714 27.1946L166.787 27.263L166.86 27.3316L166.932 27.4001L167.005 27.4688L167.077 27.5376L167.15 27.6063L167.197 27.6497L167.26 27.7083L167.332 27.7773L167.404 27.8463L167.476 27.9155L167.548 27.9846L167.62 28.0539L167.692 28.1233L167.764 28.1926L167.812 28.2372L167.873 28.2955L167.945 28.3651L168.016 28.4348L168.088 28.5045L168.16 28.5743L168.231 28.6442L168.302 28.7141L168.374 28.7841L168.422 28.8299L168.482 28.8879L168.553 28.958L168.624 29.0283L168.695 29.0986L168.766 29.169L168.837 29.2395L168.907 29.31L168.978 29.3806L169.027 29.4277L169.085 29.4853L169.156 29.5561L169.226 29.6269L169.297 29.6978L169.367 29.7688L169.437 29.8399L169.507 29.911L169.578 29.9821L169.627 30.0305L169.684 30.0877L169.754 30.1591L169.824 30.2305L169.894 30.302L169.963 30.3736L170.033 30.4452L170.103 30.5169L170.172 30.5887L170.221 30.6383L170.278 30.6952L170.347 30.7672L170.416 30.8391L170.485 30.9112L170.554 30.9834L170.624 31.0556L170.693 31.1278L170.761 31.2002L170.811 31.251L170.866 31.3076L170.935 31.3801L171.003 31.4527L171.072 31.5253L171.141 31.598L171.209 31.6708L171.277 31.7436L171.346 31.8166L171.396 31.8687L171.449 31.9249L171.517 31.9979L171.586 32.0711L171.654 32.1443L171.721 32.2176L171.789 32.2909L171.857 32.3644L171.925 32.4378L171.975 32.4913L172.027 32.547L172.095 32.6206L172.162 32.6943L172.23 32.7682L172.297 32.842L172.364 32.9159L172.432 32.9899L172.499 33.0639L172.549 33.1187L172.6 33.174L172.667 33.2482L172.734 33.3224L172.801 33.3968L172.868 33.4712L172.934 33.5456L173.001 33.6202L173.067 33.6948L173.118 33.7509L173.168 33.8057L173.234 33.8805L173.301 33.9553L173.367 34.0302L173.433 34.1051L173.499 34.1802L173.565 34.2553L173.631 34.3304L173.682 34.3878L173.731 34.4422L173.796 34.5174L173.862 34.5929L173.927 34.6683L173.993 34.7438L174.058 34.8194L174.123 34.895L174.189 34.9707L174.24 35.0294L174.288 35.0833L174.353 35.1591L174.418 35.2351L174.483 35.3111L174.547 35.3871L174.612 35.4633L174.677 35.5394L174.741 35.6156L174.793 35.6757L174.839 35.7291L174.904 35.8055L174.968 35.882L175.032 35.9585L175.097 36.0351L175.161 36.1118L175.225 36.1885L175.289 36.2653L175.34 36.3266L175.386 36.3795L175.449 36.4564L175.513 36.5335L175.577 36.6105L175.64 36.6876L175.704 36.7648L175.767 36.8421L175.83 36.9194L175.882 36.9821L175.927 37.0344L175.99 37.1119L176.053 37.1895L176.116 37.267L176.179 37.3447L176.241 37.4225L176.304 37.5002L176.367 37.5781L176.419 37.6422L176.462 37.6939L176.524 37.7719L176.587 37.85L176.649 37.9281L176.711 38.0063L176.773 38.0846L176.836 38.1628L176.898 38.2412L176.95 38.3067L176.992 38.3579L177.053 38.4364L177.115 38.515L177.177 38.5936L177.238 38.6723L177.3 38.7511L177.361 38.8299L177.423 38.9088L177.475 38.9756L177.516 39.0263L177.577 39.1053L177.638 39.1844L177.699 39.2635L177.76 39.3427L177.821 39.422L177.882 39.5014L177.942 39.5807L177.995 39.6489L178.035 39.699L178.095 39.7786L178.155 39.8581L178.216 39.9378L178.276 40.0175L178.336 40.0973L178.396 40.1771L178.456 40.257L178.509 40.3266L178.548 40.3761L178.607 40.4561L178.667 40.5362L178.727 40.6164L178.786 40.6966L178.846 40.7769L178.905 40.8572L178.965 40.9376L179.017 41.0086L179.055 41.0575L179.114 41.138L179.173 41.2186L179.232 41.2993L179.291 41.3799L179.35 41.4608L179.409 41.5416L179.467 41.6225L179.52 41.6948L179.556 41.7431L179.615 41.8241L179.673 41.9052L179.731 41.9864L179.79 42.0675L179.848 42.1488L179.906 42.2302L179.964 42.3115L180.017 42.3853L180.052 42.4329L180.11 42.5144L180.168 42.596L180.225 42.6776L180.283 42.7593L180.34 42.8411L180.398 42.9229L180.455 43.0048L180.508 43.0799L180.542 43.1268L180.599 43.2089L180.656 43.291L180.713 43.3731L180.77 43.4552L180.827 43.5375L180.884 43.6198L180.94 43.7021L180.993 43.7787L181.026 43.8249L181.083 43.9074L181.139 43.99L181.195 44.0725L181.251 44.1552L181.307 44.2379L181.364 44.3207L181.419 44.4035L181.472 44.4815L181.504 44.5271L181.56 44.61L181.616 44.693L181.671 44.7761L181.727 44.8592L181.782 44.9424L181.838 45.0256L181.893 45.1089L181.945 45.1883L181.977 45.2332L182.032 45.3166L182.087 45.4001L182.142 45.4836L182.196 45.5672L182.251 45.6508L182.306 45.7346L182.36 45.8183L182.413 45.8991L182.443 45.9433L182.497 46.0272L182.552 46.1111L182.606 46.1951L182.66 46.2792L182.714 46.3632L182.768 46.4474L182.822 46.5316L182.874 46.6138L182.903 46.6573L182.957 46.7417L183.011 46.826L183.064 46.9105L183.117 46.995L183.171 47.0795L183.224 47.1641L183.277 47.2488L183.329 47.3324L183.358 47.3752L183.411 47.46L183.463 47.5448L183.516 47.6297L183.569 47.7146L183.621 47.7997L183.674 47.8847L183.726 47.9698L183.779 48.0549L183.806 48.0969L183.858 48.1821L183.91 48.2674L183.962 48.3527L184.014 48.4381L184.066 48.5236L184.118 48.609L184.17 48.6946L184.221 48.7802L184.249 48.8233L184.3 48.908L184.351 48.9937L184.402 49.0795L184.453 49.1653L184.505 49.2512L184.556 49.3371L184.607 49.4231L184.657 49.5091L184.685 49.5534L184.735 49.6376L184.785 49.7237L184.836 49.8099L184.886 49.8962L184.937 49.9825L184.987 50.0689L185.037 50.1553L185.088 50.2417L185.115 50.2873L185.164 50.3709L185.214 50.4575L185.264 50.5441L185.313 50.6308L185.363 50.7175L185.413 50.8043L185.462 50.8911L185.512 50.978L185.54 51.0248L185.587 51.1078L185.636 51.1948L185.685 51.2818L185.734 51.3689L185.783 51.4561L185.832 51.5433L185.881 51.6305L185.929 51.7178L185.957 51.7659L186.003 51.8482L186.052 51.9356L186.1 52.0231L186.148 52.1106L186.197 52.1982L186.245 52.2858L186.293 52.3734L186.341 52.4611L186.369 52.5105L186.414 52.5922L186.461 52.68L186.509 52.7679L186.557 52.8558L186.604 52.9438L186.651 53.0318L186.699 53.1198L186.746 53.208L186.774 53.2586L186.818 53.3396L186.865 53.4278L186.911 53.5161L186.958 53.6044L187.005 53.6928L187.052 53.7812L187.098 53.8697L187.145 53.9582L187.173 54.0101L187.215 54.0905L187.261 54.1791L187.308 54.2678L187.354 54.3565L187.4 54.4452L187.445 54.534L187.491 54.6229L187.537 54.7118L187.565 54.7649L187.606 54.8447L187.652 54.9337L187.697 55.0227L187.743 55.1118L187.788 55.201L187.833 55.2901L187.878 55.3794L187.923 55.4687L187.951 55.5231L187.991 55.6022L188.036 55.6916L188.081 55.781L188.125 55.8705L188.17 55.96L188.214 56.0496L188.258 56.1392L188.302 56.2289L188.331 56.2846L188.37 56.3629L188.413 56.4527L188.457 56.5425L188.501 56.6324L188.545 56.7223L188.588 56.8123L188.632 56.9022L188.675 56.9923L188.704 57.0493L188.741 57.1269L188.785 57.217L188.828 57.3073L188.871 57.3975L188.914 57.4877L188.956 57.578L188.999 57.6684L189.042 57.7588L189.07 57.8171L189.107 57.894L189.149 57.9845L189.191 58.0751L189.234 58.1657L189.276 58.2563L189.318 58.347L189.36 58.4377L189.402 58.5285L189.43 58.5881L189.465 58.6643L189.507 58.7551L189.549 58.846L189.59 58.937L189.632 59.028L189.673 59.119L189.714 59.2101L189.755 59.3012L189.783 59.3621L189.818 59.4375L189.859 59.5287L189.899 59.62L189.94 59.7113L189.981 59.8026L190.021 59.894L190.062 59.9854L190.102 60.0769L190.13 60.1391L190.163 60.2138L190.203 60.3054L190.243 60.3969L190.283 60.4886L190.323 60.5803L190.363 60.672L190.403 60.7638L190.442 60.8556L190.47 60.9191L190.502 60.993L190.541 61.0849L190.581 61.1768L190.62 61.2688L190.659 61.3608L190.698 61.4529L190.737 61.545L190.776 61.6371L190.803 61.702L190.834 61.775L190.873 61.8672L190.911 61.9595L190.95 62.0518L190.988 62.1442L191.026 62.2366L191.064 62.329L191.102 62.4215L191.13 62.4876L191.16 62.5599L191.198 62.6525L191.235 62.7451L191.273 62.8377L191.31 62.9304L191.348 63.0231L191.385 63.1158L191.422 63.2086L191.45 63.2761L191.479 63.3475L191.516 63.4404L191.553 63.5333L191.589 63.6263L191.626 63.7193L191.663 63.8123L191.699 63.9054L191.735 63.9985L191.763 64.0673L191.791 64.1379L191.827 64.2311L191.863 64.3244L191.899 64.4176L191.935 64.5109L191.971 64.6043L192.006 64.6976L192.042 64.7911L192.069 64.8612L192.096 64.9309L192.131 65.0245L192.167 65.118L192.202 65.2116L192.237 65.3052L192.272 65.3988L192.307 65.4925L192.341 65.5862L192.368 65.6576L192.394 65.7266L192.429 65.8204L192.463 65.9142L192.498 66.0081L192.532 66.102L192.566 66.1959L192.6 66.2899L192.634 66.3839L192.661 66.4567L192.686 66.5248L192.72 66.6188L192.753 66.713L192.787 66.8072L192.82 66.9013L192.854 66.9956L192.887 67.0899L192.92 67.1841L192.946 67.2582L192.97 67.3254L193.003 67.4198L193.036 67.5142L193.069 67.6087L193.102 67.7031L193.134 67.7977L193.167 67.8922L193.199 67.9868L193.225 68.0622L193.248 68.1285L193.28 68.2232L193.312 68.3179L193.344 68.4126L193.376 68.5074L193.408 68.6021L193.44 68.697L193.471 68.7918L193.497 68.8686L193.519 68.9339L193.55 69.0289L193.582 69.1238L193.613 69.2189L193.644 69.3139L193.675 69.4089L193.706 69.504L193.736 69.5992L193.762 69.6772L193.783 69.7417L193.813 69.8369L193.844 69.9322L193.874 70.0274L193.904 70.1227L193.934 70.2181L193.964 70.3134L193.994 70.4088L194.019 70.4882L194.04 70.5518L194.069 70.6472L194.099 70.7427L194.128 70.8383L194.158 70.9338L194.187 71.0294L194.216 71.125L194.246 71.2206L194.27 71.3013L194.29 71.364L194.318 71.4597L194.347 71.5555L194.376 71.6512L194.404 71.747L194.433 71.8429L194.461 71.9387L194.49 72.0346L194.514 72.1167L194.532 72.1784L194.56 72.2743L194.588 72.3703L194.616 72.4663L194.644 72.5624L194.672 72.6585L194.699 72.7546L194.727 72.8507L194.751 72.934L194.768 72.9948L194.795 73.091L194.823 73.1872L194.85 73.2835L194.876 73.3798L194.903 73.4761L194.93 73.5724L194.957 73.6688L194.98 73.7534L194.997 73.8132L195.023 73.9097L195.05 74.0061L195.076 74.1026L195.102 74.1991L195.128 74.2956L195.154 74.3922L195.18 74.4888L195.203 74.5748L195.219 74.6336L195.244 74.7303L195.27 74.827L195.295 74.9237L195.32 75.0204L195.345 75.1172L195.37 75.214L195.395 75.3108L195.418 75.3981L195.433 75.4559L195.458 75.5528L195.482 75.6497L195.507 75.7466L195.531 75.8436L195.556 75.9406L195.58 76.0376L195.604 76.1346L195.626 76.2232L195.64 76.2801L195.664 76.3771L195.688 76.4743L195.712 76.5714L195.735 76.6685L195.759 76.7657L195.782 76.8629L195.805 76.9602L195.827 77.05L195.841 77.106L195.864 77.2032L195.887 77.3006L195.909 77.3979L195.932 77.4953L195.955 77.5926L195.977 77.69L196 77.7875L196.021 77.8787L196.034 77.9336L196.056 78.0311L196.078 78.1285L196.1 78.2261L196.122 78.3237L196.144 78.4212L196.165 78.5188L196.187 78.6164L196.207 78.7089L196.219 78.7628L196.241 78.8605L196.262 78.9582L196.283 79.0559L196.304 79.1536L196.325 79.2514L196.346 79.3492L196.367 79.447L196.387 79.5408L196.398 79.5937L196.419 79.6915L196.439 79.7894L196.459 79.8873L196.48 79.9852L196.5 80.0832L196.52 80.1811L196.54 80.2791L196.559 80.3742L196.57 80.426L196.589 80.5241L196.609 80.6221L196.628 80.7202L196.648 80.8183L196.667 80.9164L196.686 81.0145L196.705 81.1127L196.724 81.209L196.734 81.2599L196.752 81.3581L196.771 81.4563L196.79 81.5545L196.808 81.6528L196.827 81.751L196.845 81.8493L196.863 81.9476L196.881 82.0453L196.891 82.0951L196.909 82.1935L196.926 82.2918L196.944 82.3902L196.962 82.4886L196.979 82.587L196.997 82.6855L197.014 82.784L197.031 82.8824L197.04 82.9321L197.057 83.0302L197.074 83.1287L197.091 83.2272L197.108 83.3258L197.125 83.4244L197.141 83.5229L197.158 83.6216L197.174 83.7202L197.183 83.7711L197.199 83.8681L197.215 83.9668L197.231 84.0655L197.247 84.1642L197.263 84.2629L197.279 84.3616L197.294 84.4604L197.31 84.5592L197.318 84.6113L197.333 84.7073L197.348 84.8061L197.364 84.9049L197.379 85.0038L197.394 85.1026L197.409 85.2015L197.423 85.3004L197.438 85.3993L197.446 85.4526L197.46 85.5477L197.475 85.6466L197.489 85.7455L197.503 85.8445L197.517 85.9435L197.531 86.0425L197.545 86.1415L197.559 86.2405L197.567 86.295L197.58 86.389L197.593 86.4881L197.607 86.5872L197.62 86.6862L197.633 86.7853L197.647 86.8844L197.66 86.9836L197.673 87.0827L197.68 87.1384L197.692 87.2314L197.705 87.3306L197.717 87.4298L197.73 87.529L197.742 87.6282L197.755 87.7274L197.767 87.8267L197.779 87.9259L197.786 87.9828L197.797 88.0748L197.809 88.1741L197.821 88.2734L197.832 88.3727L197.844 88.472L197.855 88.5713L197.867 88.6706L197.878 88.77L197.884 88.8281L197.895 88.919L197.906 89.0184L197.916 89.1178L197.927 89.2172L197.938 89.3166L197.949 89.416L197.959 89.5154L197.969 89.6149L197.976 89.6742L197.985 89.7641L197.995 89.8635L198.005 89.963L198.015 90.0625L198.025 90.162L198.035 90.2615L198.044 90.361L198.054 90.4606L198.059 90.5211L198.068 90.6099L198.077 90.7094L198.086 90.809L198.095 90.9085L198.104 91.0081L198.113 91.1077L198.122 91.2073L198.131 91.3069L198.136 91.3686L198.143 91.4563L198.152 91.556L198.16 91.6556L198.168 91.7552L198.176 91.8549L198.184 91.9546L198.192 92.0542L198.2 92.1539L198.205 92.2168L198.212 92.3034L198.219 92.4031L198.227 92.5028L198.234 92.6026L198.241 92.7023L198.248 92.802L198.255 92.9017L198.262 93.0015L198.267 93.0656L198.272 93.1511L198.279 93.2508L198.286 93.3506L198.292 93.4504L198.299 93.5502L198.305 93.65L198.311 93.7497L198.317 93.8495L198.321 93.9148L198.326 93.9993L198.332 94.0991L198.338 94.1989L198.343 94.2987L198.349 94.3985L198.354 94.4984L198.36 94.5982L198.365 94.698L198.368 94.7645L198.372 94.8478L198.377 94.9477L198.382 95.0475L198.387 95.1474L198.391 95.2473L198.396 95.3471L198.401 95.447L198.405 95.5469L198.408 95.6146L198.411 95.6968L198.415 95.7966L198.419 95.8966L198.423 95.9964L198.427 96.0964L198.431 96.1963L198.434 96.2962L198.438 96.3961L198.44 96.4649L198.442 96.546L198.446 96.6459L198.449 96.7459L198.452 96.8458L198.455 96.9457L198.458 97.0457L198.46 97.1456L198.463 97.2455L198.465 97.3155L198.467 97.3955L198.469 97.4954L198.471 97.5954L198.473 97.6953L198.475 97.7953L198.478 97.8952L198.479 97.9952L198.481 98.0951L198.482 98.1663L198.483 98.2451L198.485 98.3451L198.486 98.445L198.488 98.545L198.489 98.645L198.49 98.7449L198.491 98.8449L198.492 98.9449L198.492 99.0172L198.493 99.0948L198.493 99.1948L198.494 99.2948L198.494 99.3948L198.495 99.4948L198.495 99.5947L198.495 99.6947L198.495 99.7947L198.495 99.8681L198.494 99.9446L198.494 100.045L198.494 100.145L198.494 100.245L198.493 100.345L198.492 100.445L198.492 100.545L198.491 100.645L198.49 100.719L198.489 100.794L198.488 100.894L198.487 100.994L198.486 101.094L198.484 101.194L198.483 101.294L198.481 101.394L198.48 101.494L198.478 101.57L198.476 101.644L198.474 101.744L198.472 101.844L198.47 101.944L198.468 102.044L198.466 102.144L198.463 102.244L198.461 102.344L198.459 102.421L198.456 102.494L198.454 102.594L198.451 102.694L198.448 102.794L198.445 102.893L198.441 102.993L198.438 103.093L198.435 103.193L198.432 103.271L198.429 103.343L198.425 103.443L198.421 103.543L198.418 103.643L198.414 103.743L198.41 103.843L198.406 103.942L198.401 104.042L198.398 104.121L198.394 104.192L198.39 104.292L198.385 104.392L198.38 104.492L198.376 104.592L198.371 104.691L198.366 104.791L198.361 104.891L198.356 104.971L198.352 105.041L198.347 105.141L198.341 105.24L198.336 105.34L198.33 105.44L198.324 105.54L198.318 105.64L198.312 105.739L198.307 105.821L198.303 105.889L198.296 105.989L198.29 106.089L198.284 106.188L198.277 106.288L198.271 106.388L198.264 106.488L198.257 106.587L198.251 106.67L198.246 106.737L198.239 106.837L198.232 106.936L198.224 107.036L198.217 107.136L198.209 107.235L198.202 107.335L198.194 107.435L198.187 107.518L198.182 107.584L198.174 107.684L198.166 107.783L198.158 107.883L198.149 107.983L198.141 108.082L198.133 108.182L198.124 108.282L198.116 108.366L198.11 108.431L198.101 108.53L198.093 108.63L198.084 108.73L198.074 108.829L198.065 108.929L198.056 109.028L198.047 109.128L198.038 109.213L198.031 109.277L198.022 109.376L198.012 109.476L198.002 109.575L197.992 109.675L197.982 109.774L197.972 109.874L197.962 109.973L197.952 110.06L197.945 110.122L197.935 110.222L197.924 110.321L197.913 110.42L197.903 110.52L197.892 110.619L197.881 110.719L197.87 110.818L197.859 110.906L197.852 110.967L197.84 111.066L197.829 111.165L197.817 111.265L197.806 111.364L197.794 111.463L197.782 111.562L197.77 111.662L197.759 111.751L197.751 111.81L197.739 111.91L197.726 112.009L197.714 112.108L197.701 112.207L197.689 112.306L197.676 112.406L197.663 112.505L197.651 112.595L197.643 112.653L197.63 112.752L197.617 112.851L197.603 112.95L197.59 113.05L197.576 113.149L197.563 113.248L197.549 113.347L197.536 113.438L197.527 113.495L197.513 113.594L197.499 113.693L197.485 113.792L197.471 113.891L197.457 113.99L197.442 114.089L197.428 114.188L197.414 114.28L197.405 114.336L197.39 114.435L197.375 114.533L197.36 114.632L197.345 114.731L197.33 114.83L197.314 114.929L197.299 115.027L197.284 115.12L197.275 115.175L197.259 115.274L197.243 115.373L197.227 115.471L197.211 115.57L197.195 115.669L197.179 115.767L197.163 115.866L197.147 115.96L197.137 116.014L197.121 116.112L197.104 116.211L197.087 116.31L197.071 116.408L197.054 116.507L197.037 116.605L197.02 116.704L197.003 116.798L196.993 116.851L196.975 116.949L196.958 117.048L196.94 117.146L196.923 117.245L196.905 117.343L196.887 117.441L196.869 117.54L196.851 117.636L196.841 117.687L196.822 117.785L196.804 117.883L196.786 117.982L196.767 118.08L196.749 118.178L196.73 118.276L196.711 118.374L196.692 118.471L196.682 118.521L196.662 118.62L196.643 118.718L196.624 118.816L196.605 118.914L196.585 119.012L196.566 119.11L196.546 119.208L196.526 119.306L196.515 119.355L196.495 119.453L196.475 119.55L196.455 119.648L196.435 119.746L196.415 119.844L196.394 119.942L196.374 120.04L196.353 120.138L196.341 120.187L196.321 120.284L196.3 120.382L196.279 120.479L196.258 120.577L196.237 120.675L196.216 120.772L196.194 120.87L196.173 120.968L196.16 121.018L196.139 121.114L196.118 121.211L196.096 121.309L196.074 121.406L196.052 121.504L196.03 121.601L196.008 121.699L195.985 121.796L195.972 121.848L195.95 121.942L195.928 122.039L195.905 122.137L195.883 122.234L195.86 122.331L195.837 122.429L195.814 122.526L195.791 122.623L195.777 122.676L195.754 122.769L195.731 122.866L195.708 122.963L195.684 123.06L195.66 123.157L195.637 123.254L195.613 123.351L195.589 123.448L195.574 123.502L195.551 123.594L195.527 123.69L195.503 123.787L195.478 123.884L195.454 123.981L195.429 124.078L195.405 124.175L195.38 124.272L195.364 124.326L195.341 124.417L195.316 124.513L195.291 124.61L195.266 124.707L195.24 124.803L195.215 124.9L195.189 124.997L195.164 125.093L195.148 125.149L195.124 125.238L195.098 125.334L195.072 125.431L195.046 125.527L195.02 125.624L194.993 125.72L194.967 125.817L194.94 125.913L194.924 125.97L194.899 126.057L194.872 126.153L194.846 126.25L194.819 126.346L194.792 126.442L194.765 126.538L194.737 126.634L194.71 126.731L194.693 126.788L194.668 126.874L194.64 126.97L194.612 127.066L194.585 127.162L194.557 127.258L194.529 127.354L194.501 127.45L194.473 127.546L194.454 127.605L194.429 127.69L194.401 127.785L194.372 127.881L194.344 127.977L194.315 128.073L194.286 128.168L194.257 128.264L194.229 128.36L194.209 128.419L194.183 128.503L194.154 128.598L194.125 128.694L194.096 128.789L194.066 128.885L194.037 128.98L194.007 129.076L193.977 129.171L193.957 129.231L193.931 129.314L193.901 129.409L193.871 129.504L193.84 129.599L193.81 129.695L193.78 129.79L193.749 129.885L193.719 129.98L193.698 130.041L193.671 130.122L193.64 130.217L193.609 130.312L193.578 130.407L193.547 130.502L193.516 130.597L193.485 130.692L193.453 130.787L193.432 130.849L193.405 130.929L193.373 131.023L193.341 131.118L193.309 131.213L193.278 131.308L193.246 131.402L193.213 131.497L193.181 131.592L193.159 131.655L193.131 131.733L193.099 131.827L193.066 131.922L193.034 132.016L193.001 132.111L192.968 132.205L192.935 132.299L192.902 132.394L192.878 132.458L192.851 132.535L192.817 132.629L192.784 132.723L192.751 132.817L192.717 132.911L192.684 133.005L192.65 133.099L192.616 133.193L192.591 133.258L192.563 133.334L192.529 133.428L192.495 133.522L192.461 133.615L192.427 133.709L192.392 133.803L192.358 133.897L192.323 133.991L192.298 134.056L192.269 134.131L192.234 134.224L192.2 134.318L192.164 134.411L192.129 134.505L192.094 134.598L192.059 134.692L192.023 134.785L191.997 134.852L191.968 134.925L191.933 135.018L191.897 135.111L191.861 135.205L191.825 135.298L191.789 135.391L191.753 135.484L191.717 135.577L191.689 135.645L191.661 135.716L191.624 135.809L191.588 135.902L191.551 135.995L191.514 136.088L191.477 136.181L191.441 136.274L191.404 136.367L191.375 136.435L191.346 136.505L191.309 136.598L191.272 136.691L191.234 136.783L191.197 136.876L191.159 136.968L191.121 137.061L191.084 137.153L191.054 137.223L191.025 137.291L190.987 137.384L190.949 137.476L190.911 137.568L190.872 137.661L190.834 137.753L190.795 137.845L190.757 137.937L190.726 138.007L190.697 138.075L190.658 138.167L190.619 138.259L190.58 138.351L190.541 138.443L190.502 138.535L190.463 138.626L190.423 138.718L190.392 138.789L190.362 138.855L190.323 138.947L190.283 139.039L190.243 139.13L190.203 139.222L190.163 139.313L190.123 139.405L190.083 139.496L190.051 139.568L190.021 139.633L189.981 139.724L189.94 139.815L189.9 139.907L189.859 139.998L189.818 140.089L189.777 140.18L189.736 140.272L189.703 140.344L189.673 140.407L189.632 140.498L189.591 140.589L189.549 140.68L189.508 140.771L189.466 140.862L189.425 140.953L189.383 141.044L189.349 141.117L189.319 141.179L189.277 141.27L189.235 141.36L189.193 141.451L189.15 141.541L189.108 141.632L189.066 141.722L189.023 141.813L188.988 141.887L188.958 141.948L188.915 142.038L188.872 142.128L188.829 142.218L188.786 142.309L188.743 142.399L188.7 142.489L188.657 142.579L188.62 142.653L188.59 142.713L188.547 142.803L188.503 142.893L188.459 142.983L188.416 143.072L188.372 143.162L188.328 143.252L188.284 143.342L188.246 143.417L188.216 143.475L188.172 143.565L188.127 143.654L188.083 143.744L188.039 143.833L187.994 143.923L187.949 144.012L187.905 144.101L187.866 144.177L187.835 144.234L187.79 144.323L187.745 144.413L187.7 144.502L187.655 144.591L187.61 144.68L187.564 144.769L187.519 144.858L187.479 144.935L187.448 144.99L187.403 145.079L187.357 145.168L187.311 145.256L187.265 145.345L187.219 145.434L187.173 145.522L187.127 145.611L187.085 145.688L187.055 145.743L187.009 145.831L186.962 145.919L186.915 146.008L186.869 146.096L186.822 146.184L186.775 146.272L186.728 146.361L186.686 146.439L186.655 146.492L186.608 146.58L186.561 146.668L186.514 146.756L186.466 146.843L186.418 146.931L186.371 147.019L186.323 147.107L186.28 147.186L186.249 147.237L186.201 147.325L186.153 147.412L186.105 147.5L186.057 147.587L186.009 147.675L185.96 147.762L185.912 147.85L185.867 147.929L185.837 147.979L185.788 148.067L185.74 148.154L185.691 148.241L185.642 148.328L185.593 148.415L185.544 148.502L185.494 148.589L185.449 148.669L185.419 148.718L185.369 148.805L185.32 148.892L185.27 148.978L185.22 149.065L185.171 149.152L185.121 149.238L185.071 149.325L185.024 149.405L184.994 149.453L184.944 149.54L184.893 149.626L184.843 149.712L184.793 149.798L184.742 149.885L184.692 149.971L184.641 150.057L184.593 150.138L184.563 150.185L184.512 150.271L184.461 150.356L184.41 150.442L184.359 150.528L184.307 150.614L184.256 150.7L184.205 150.785L184.155 150.867L184.126 150.912L184.074 150.998L184.022 151.083L183.971 151.169L183.919 151.254L183.867 151.339L183.815 151.425L183.763 151.51L183.712 151.592L183.682 151.636L183.63 151.721L183.578 151.807L183.525 151.891L183.473 151.976L183.42 152.061L183.367 152.146L183.314 152.231L183.262 152.314L183.233 152.357L183.18 152.441L183.127 152.526L183.074 152.61L183.02 152.695L182.967 152.779L182.914 152.864L182.86 152.948L182.807 153.032L182.778 153.073L182.724 153.157L182.67 153.241L182.616 153.325L182.562 153.41L182.508 153.494L182.454 153.577L182.4 153.661L182.345 153.745L182.316 153.786L182.262 153.869L182.207 153.953L182.153 154.037L182.098 154.12L182.043 154.204L181.988 154.287L181.933 154.371L181.878 154.454L181.848 154.496L181.794 154.578L181.739 154.661L181.683 154.744L181.628 154.827L181.572 154.91L181.517 154.993L181.461 155.076L181.406 155.159L181.374 155.201L181.32 155.282L181.264 155.365L181.208 155.447L181.152 155.53L181.096 155.612L181.039 155.695L180.983 155.777L180.927 155.86L180.894 155.903L180.84 155.982L180.783 156.064L180.727 156.146L180.67 156.229L180.613 156.311L180.556 156.393L180.499 156.475L180.442 156.557L180.409 156.601L180.354 156.678L180.297 156.76L180.24 156.842L180.182 156.923L180.125 157.005L180.067 157.087L180.009 157.168L179.951 157.249L179.917 157.294L179.863 157.37L179.805 157.451L179.747 157.533L179.689 157.614L179.63 157.695L179.572 157.776L179.514 157.857L179.455 157.938L179.42 157.983L179.365 158.058L179.307 158.139L179.248 158.22L179.189 158.3L179.13 158.381L179.071 158.462L179.012 158.542L178.953 158.622L178.917 158.668L178.862 158.742L178.803 158.822L178.744 158.902L178.684 158.982L178.625 159.063L178.565 159.143L178.505 159.223L178.445 159.303L178.408 159.349L178.354 159.421L178.294 159.501L178.234 159.581L178.173 159.66L178.113 159.74L178.053 159.82L177.992 159.899L177.932 159.979L177.894 160.026L177.839 160.096L177.779 160.175L177.718 160.255L177.657 160.334L177.596 160.413L177.535 160.492L177.474 160.571L177.413 160.65L177.374 160.698L177.319 160.767L177.258 160.846L177.196 160.924L177.135 161.003L177.073 161.082L177.012 161.16L176.95 161.239L176.888 161.317L176.848 161.366L176.793 161.433L176.732 161.512L176.669 161.59L176.607 161.668L176.545 161.746L176.483 161.824L176.421 161.902L176.358 161.98L176.317 162.029L176.262 162.095L176.2 162.173L176.137 162.251L176.074 162.328L176.011 162.406L175.949 162.484L175.886 162.561L175.822 162.638L175.78 162.688L175.726 162.753L175.662 162.83L175.599 162.907L175.536 162.984L175.472 163.061L175.409 163.138L175.345 163.215L175.281 163.292L175.237 163.342L175.184 163.406L175.12 163.482L175.056 163.559L174.992 163.636L174.928 163.712L174.863 163.789L174.799 163.865L174.735 163.941L174.69 163.992L174.636 164.054L174.572 164.13L174.507 164.206L174.442 164.282L174.377 164.358L174.313 164.434L174.248 164.51L174.183 164.586L174.137 164.637L174.083 164.698L174.018 164.773L173.953 164.849L173.887 164.925L173.822 165L173.757 165.075L173.691 165.151L173.625 165.226L173.578 165.278L173.525 165.337L173.459 165.412L173.393 165.487L173.327 165.562L173.261 165.637L173.195 165.712L173.129 165.787L173.063 165.861L173.014 165.913L172.961 165.971L172.895 166.046L172.828 166.12L172.762 166.195L172.695 166.269L172.628 166.343L172.562 166.418L172.495 166.492L172.445 166.544L172.392 166.601L172.325 166.675L172.258 166.749L172.191 166.823L172.124 166.897L172.057 166.97L171.989 167.044L171.922 167.118L171.871 167.171L171.818 167.226L171.751 167.299L171.683 167.373L171.615 167.446L171.547 167.519L171.479 167.592L171.411 167.666L171.343 167.739L171.292 167.792L171.239 167.846L171.171 167.919L171.103 167.992L171.034 168.064L170.966 168.137L170.897 168.21L170.829 168.282L170.76 168.355L170.707 168.409L170.655 168.461L170.586 168.534L170.517 168.606L170.448 168.678L170.379 168.75L170.31 168.822L170.241 168.894L170.171 168.966L170.117 169.02L170.065 169.072L169.996 169.143L169.926 169.215L169.857 169.287L169.787 169.358L169.717 169.43L169.648 169.501L169.578 169.572L169.522 169.627L169.471 169.677L169.401 169.748L169.331 169.819L169.26 169.89L169.19 169.961L169.12 170.032L169.049 170.103L168.979 170.174L168.922 170.229L168.871 170.278L168.801 170.348L168.73 170.419L168.659 170.489L168.588 170.559L168.517 170.63L168.446 170.7L168.375 170.77L168.317 170.825L168.267 170.873L168.195 170.943L168.124 171.013L168.053 171.083L167.981 171.152L167.91 171.222L167.838 171.292L167.767 171.361L167.708 171.417L167.657 171.463L167.585 171.533L167.514 171.602L167.442 171.671L167.37 171.74L167.298 171.809L167.226 171.878L167.153 171.947L167.093 172.003L167.043 172.048L166.971 172.117L166.898 172.186L166.826 172.254L166.753 172.323L166.68 172.391L166.608 172.46L166.535 172.528L166.473 172.585L166.424 172.628L166.351 172.697L166.278 172.765L166.205 172.833L166.132 172.901L166.059 172.969L165.985 173.036L165.912 173.104L165.849 173.161L165.8 173.203L165.726 173.271L165.653 173.338L165.579 173.406L165.505 173.473L165.432 173.54L165.358 173.607L165.284 173.675L165.22 173.732L165.171 173.773L165.097 173.84L165.023 173.907L164.949 173.974L164.874 174.04L164.8 174.107L164.726 174.173L164.651 174.24L164.586 174.297L164.538 174.337L164.463 174.404L164.388 174.47L164.314 174.536L164.239 174.602L164.164 174.668L164.089 174.734L164.014 174.8L163.947 174.858L163.9 174.896L163.824 174.962L163.749 175.028L163.674 175.093L163.599 175.159L163.523 175.224L163.448 175.289L163.372 175.355L163.304 175.412L163.257 175.45L163.181 175.515L163.105 175.58L163.03 175.645L162.954 175.71L162.878 175.775L162.802 175.839L162.726 175.904L162.656 175.962L162.61 175.998L162.533 176.063L162.457 176.127L162.381 176.191L162.304 176.256L162.228 176.32L162.151 176.384L162.075 176.448L162.004 176.506L161.958 176.541L161.881 176.605L161.804 176.669L161.727 176.732L161.65 176.796L161.573 176.859L161.496 176.923L161.419 176.986L161.347 177.045L161.301 177.079L161.224 177.142L161.147 177.205L161.069 177.268L160.992 177.331L160.914 177.394L160.837 177.456L160.759 177.519L160.686 177.578L160.641 177.611L160.563 177.673L160.485 177.735L160.407 177.798L160.329 177.86L160.251 177.922L160.173 177.984L160.095 178.046L160.02 178.105L159.975 178.137L159.897 178.199L159.819 178.261L159.74 178.322L159.662 178.384L159.583 178.445L159.505 178.507L159.426 178.568L159.35 178.627L159.306 178.658L159.227 178.719L159.148 178.78L159.069 178.841L158.99 178.902L158.911 178.963L158.832 179.024L158.753 179.084L158.676 179.143L158.632 179.173L158.553 179.233L158.473 179.294L158.394 179.354L158.314 179.414L158.235 179.475L158.155 179.535L158.076 179.595L157.997 179.654L157.954 179.682L157.874 179.742L157.794 179.802L157.714 179.862L157.634 179.921L157.554 179.981L157.474 180.04L157.394 180.1L157.314 180.159L157.272 180.186L157.191 180.245L157.111 180.304L157.031 180.363L156.95 180.423L156.87 180.481L156.789 180.54L156.708 180.599L156.627 180.658L156.584 180.685L156.504 180.743L156.424 180.801L156.343 180.86L156.262 180.918L156.181 180.976L156.1 181.034L156.018 181.092L155.937 181.15L155.893 181.178L155.813 181.234L155.732 181.292L155.651 181.35L155.569 181.408L155.488 181.465L155.406 181.522L155.324 181.58L155.243 181.637L155.197 181.665L155.118 181.72L155.036 181.777L154.954 181.834L154.873 181.891L154.791 181.948L154.709 182.005L154.626 182.062L154.544 182.118L154.498 182.147L154.419 182.2L154.337 182.257L154.254 182.313L154.172 182.369L154.089 182.425L154.007 182.482L153.924 182.537L153.842 182.593L153.794 182.622L153.716 182.674L153.633 182.73L153.55 182.786L153.467 182.841L153.384 182.897L153.301 182.952L153.218 183.007L153.135 183.063L153.087 183.092L153.009 183.143L152.926 183.198L152.842 183.253L152.759 183.307L152.676 183.362L152.592 183.417L152.509 183.471L152.425 183.526L152.375 183.555L152.298 183.605L152.214 183.659L152.13 183.713L152.047 183.768L151.963 183.822L151.879 183.876L151.795 183.93L151.711 183.983L151.66 184.013L151.583 184.061L151.499 184.115L151.415 184.168L151.331 184.222L151.246 184.275L151.162 184.328L151.077 184.382L150.993 184.435L150.941 184.464L150.865 184.511L150.78 184.564L150.695 184.617L150.611 184.67L150.526 184.723L150.441 184.775L150.356 184.828L150.271 184.88L150.218 184.91L150.142 184.956L150.057 185.008L149.972 185.06L149.887 185.112L149.802 185.164L149.717 185.216L149.631 185.268L149.546 185.319L149.491 185.349L149.416 185.394L149.331 185.445L149.245 185.497L149.16 185.548L149.074 185.599L148.989 185.65L148.903 185.701L148.817 185.752L148.761 185.783L148.687 185.826L148.601 185.877L148.515 185.927L148.429 185.978L148.343 186.028L148.257 186.079L148.171 186.129L148.085 186.179L148.028 186.21L147.954 186.252L147.867 186.302L147.781 186.352L147.695 186.402L147.608 186.451L147.522 186.501L147.435 186.551L147.348 186.6L147.29 186.631L147.217 186.671L147.13 186.721L147.043 186.77L146.957 186.819L146.87 186.868L146.783 186.917L146.696 186.966L146.609 187.015L146.549 187.046L146.477 187.085L146.39 187.134L146.302 187.182L146.215 187.23L146.128 187.279L146.041 187.327L145.953 187.375L145.866 187.423L145.805 187.454L145.733 187.492L145.646 187.54L145.558 187.588L145.47 187.635L145.383 187.683L145.295 187.731L145.207 187.778L145.119 187.825L145.057 187.856L144.986 187.893L144.898 187.94L144.81 187.987L144.722 188.034L144.634 188.081L144.546 188.128L144.458 188.175L144.37 188.221L144.306 188.252L144.236 188.288L144.147 188.334L144.059 188.38L143.971 188.427L143.882 188.473L143.794 188.519L143.705 188.565L143.617 188.611L143.552 188.642L143.482 188.676L143.393 188.722L143.305 188.767L143.216 188.813L143.127 188.858L143.038 188.903L142.949 188.949L142.86 188.994L142.795 189.025L142.725 189.058L142.636 189.103L142.547 189.148L142.458 189.192L142.369 189.237L142.28 189.282L142.19 189.326L142.101 189.37L142.034 189.402L141.965 189.434L141.876 189.478L141.786 189.522L141.697 189.566L141.607 189.61L141.518 189.654L141.428 189.697L141.338 189.741L141.27 189.772L141.202 189.803L141.112 189.846L141.023 189.89L140.933 189.933L140.843 189.976L140.753 190.019L140.663 190.062L140.573 190.105L140.503 190.136L140.436 190.166L140.346 190.208L140.256 190.251L140.166 190.293L140.075 190.335L139.985 190.378L139.895 190.42L139.804 190.462L139.733 190.493L139.667 190.522L139.577 190.564L139.486 190.605L139.395 190.647L139.305 190.689L139.214 190.73L139.123 190.772L139.033 190.813L138.961 190.844L138.895 190.871L138.804 190.913L138.713 190.954L138.622 190.994L138.531 191.035L138.44 191.076L138.349 191.117L138.258 191.157L138.185 191.188L138.12 191.215L138.029 191.255L137.937 191.295L137.846 191.335L137.755 191.375L137.664 191.415L137.572 191.455L137.481 191.495L137.406 191.526L137.342 191.551L137.251 191.591L137.159 191.63L137.067 191.67L136.976 191.709L136.884 191.748L136.792 191.787L136.701 191.826L136.625 191.857L136.561 191.881L136.47 191.92L136.378 191.959L136.286 191.997L136.194 192.036L136.102 192.074L136.01 192.113L135.918 192.151L135.841 192.182L135.778 192.205L135.686 192.243L135.594 192.281L135.501 192.319L135.409 192.356L135.317 192.394L135.224 192.431L135.132 192.469L135.054 192.499L134.992 192.522L134.9 192.559L134.807 192.596L134.714 192.633L134.622 192.67L134.529 192.707L134.437 192.744L134.344 192.78L134.264 192.811L134.203 192.832L134.111 192.868L134.018 192.904L133.925 192.941L133.832 192.977L133.739 193.013L133.646 193.049L133.553 193.085L133.472 193.115L133.412 193.135L133.319 193.171L133.226 193.206L133.133 193.242L133.04 193.277L132.946 193.313L132.853 193.348L132.76 193.383L132.677 193.413L132.618 193.432L132.525 193.467L132.432 193.502L132.338 193.536L132.245 193.571L132.151 193.605L132.058 193.64L131.964 193.674L131.88 193.704L131.822 193.722L131.728 193.756L131.635 193.79L131.541 193.824L131.447 193.858L131.353 193.891L131.26 193.925L131.166 193.959L131.081 193.988L131.024 194.005L130.93 194.039L130.836 194.072L130.742 194.105L130.648 194.138L130.553 194.171L130.459 194.204L130.365 194.236L130.279 194.266L130.223 194.282L130.128 194.314L130.034 194.347L129.94 194.379L129.845 194.411L129.751 194.443L129.657 194.475L129.562 194.507L129.475 194.536L129.419 194.551L129.325 194.583L129.23 194.615L129.136 194.646L129.041 194.678L128.947 194.709L128.852 194.74L128.757 194.772L128.668 194.8L128.614 194.814L128.519 194.845L128.424 194.876L128.329 194.907L128.235 194.938L128.14 194.968L128.045 194.999L127.95 195.029L127.86 195.057L127.806 195.071L127.711 195.101L127.616 195.131L127.521 195.161L127.426 195.19L127.331 195.22L127.236 195.25L127.141 195.279L127.049 195.307L126.997 195.32L126.901 195.349L126.806 195.378L126.711 195.408L126.615 195.437L126.52 195.465L126.425 195.494L126.329 195.523L126.236 195.551L126.185 195.562L126.089 195.591L125.994 195.619L125.898 195.648L125.803 195.676L125.707 195.704L125.611 195.732L125.516 195.76L125.422 195.787L125.371 195.798L125.275 195.826L125.179 195.853L125.084 195.881L124.988 195.908L124.892 195.935L124.796 195.963L124.7 195.99L124.605 196.017L124.555 196.026L124.459 196.053L124.363 196.08L124.267 196.107L124.171 196.133L124.075 196.16L123.979 196.186L123.883 196.213L123.787 196.239L123.737 196.248L123.641 196.274L123.545 196.3L123.449 196.326L123.353 196.352L123.256 196.378L123.16 196.403L123.064 196.429L122.967 196.454L122.917 196.464L122.822 196.488L122.725 196.514L122.629 196.539L122.532 196.564L122.436 196.588L122.339 196.613L122.243 196.638L122.146 196.663L122.094 196.672L122 196.695L121.904 196.72L121.807 196.744L121.71 196.768L121.614 196.792L121.517 196.816L121.42 196.84L121.324 196.864L121.27 196.873L121.177 196.896L121.081 196.919L120.984 196.943L120.887 196.966L120.79 196.989L120.693 197.012L120.596 197.035L120.499 197.058L120.445 197.067L120.353 197.089L120.256 197.111L120.159 197.134L120.061 197.157L119.964 197.179L119.867 197.201L119.77 197.224L119.673 197.246L119.618 197.255L119.526 197.275L119.429 197.297L119.332 197.319L119.235 197.34L119.137 197.362L119.04 197.384L118.943 197.405L118.845 197.426L118.789 197.435L118.699 197.454L118.601 197.475L118.504 197.496L118.406 197.517L118.309 197.538L118.211 197.559L118.114 197.579L118.016 197.6L117.959 197.609L117.869 197.626L117.772 197.647L117.674 197.667L117.577 197.687L117.479 197.707L117.381 197.727L117.284 197.747L117.186 197.766L117.127 197.775L117.039 197.792L116.941 197.811L116.843 197.831L116.745 197.85L116.648 197.869L116.55 197.888L116.452 197.907L116.354 197.926L116.294 197.934L116.207 197.95L116.109 197.969L116.011 197.987L115.913 198.006L115.815 198.024L115.717 198.042L115.619 198.061L115.521 198.078L115.46 198.086L115.373 198.101L115.275 198.119L115.177 198.137L115.079 198.155L114.981 198.172L114.883 198.189L114.785 198.207L114.687 198.224L114.624 198.232L114.539 198.246L114.441 198.263L114.342 198.279L114.244 198.296L114.146 198.313L114.048 198.33L113.95 198.346L113.851 198.363L113.788 198.37L113.703 198.383L113.605 198.399L113.507 198.415L113.408 198.431L113.31 198.447L113.212 198.463L113.113 198.478L113.015 198.494L112.95 198.501L112.866 198.513L112.768 198.528L112.67 198.544L112.571 198.559L112.473 198.574L112.374 198.589L112.276 198.604L112.177 198.618L112.111 198.625L112.029 198.636L111.93 198.651L111.831 198.665L111.733 198.68L111.634 198.694L111.536 198.708L111.437 198.722L111.338 198.736L111.271 198.743L111.19 198.752L111.091 198.766L111.084 198.767L111.084 198.766L111.114 198.758L111.133 198.754L111.132 198.752L111.132 198.751L111.132 198.749L111.131 198.748L111.131 198.747L111.16 198.74L111.179 198.734L111.179 198.733L111.179 198.731L111.178 198.729L111.178 198.728L111.178 198.726L111.177 198.724L111.177 198.722L111.205 198.714L111.225 198.708L111.224 198.706L111.224 198.703L111.223 198.701L111.223 198.698L111.222 198.696L111.222 198.693L111.221 198.69L111.247 198.682L111.269 198.675L111.268 198.672L111.267 198.669L111.267 198.666L111.266 198.663L111.265 198.659L111.264 198.656L111.264 198.652L111.289 198.644L111.311 198.636L111.31 198.632L111.309 198.628L111.308 198.624L111.308 198.62L111.307 198.616L111.306 198.612L111.305 198.608L111.329 198.599L111.352 198.59L111.351 198.586L111.35 198.581L111.349 198.576L111.348 198.572L111.347 198.567L111.346 198.562L111.344 198.557L111.367 198.547L111.391 198.538L111.39 198.533L111.389 198.527L111.388 198.522L111.387 198.516L111.385 198.511L111.384 198.505L111.383 198.499L111.404 198.489L111.429 198.479L111.428 198.473L111.427 198.467L111.425 198.461L111.424 198.454L111.422 198.448L111.421 198.442L111.419 198.435L111.44 198.425L111.466 198.414L111.464 198.407L111.463 198.4L111.461 198.393L111.46 198.386L111.458 198.379L111.456 198.372L111.455 198.364L111.474 198.354L111.501 198.342L111.499 198.335L111.497 198.327L111.496 198.319L111.494 198.311L111.492 198.303L111.49 198.295L111.489 198.287L111.506 198.276L111.534 198.264L111.532 198.256L111.531 198.247L111.529 198.239L111.527 198.23L111.525 198.221L111.523 198.212L111.521 198.204L111.537 198.192L111.566 198.179L111.564 198.17L111.562 198.161L111.56 198.152L111.558 198.142L111.556 198.133L111.554 198.123L111.552 198.113L111.567 198.102L111.597 198.088L111.595 198.078L111.592 198.068L111.59 198.058L111.588 198.048L111.586 198.038L111.583 198.027L111.581 198.017L111.595 198.004L111.626 197.99L111.624 197.98L111.621 197.969L111.619 197.958L111.616 197.947L111.614 197.936L111.611 197.925L111.609 197.914L111.621 197.901L111.654 197.886L111.651 197.874L111.648 197.863L111.646 197.851L111.643 197.84L111.641 197.828L111.638 197.816L111.635 197.804L111.646 197.791L111.68 197.775L111.677 197.763L111.674 197.751L111.671 197.738L111.669 197.726L111.666 197.713L111.663 197.701L111.66 197.688L111.67 197.674L111.704 197.658L111.701 197.645L111.698 197.632L111.696 197.619L111.693 197.606L111.69 197.592L111.687 197.579L111.684 197.566L111.692 197.551L111.727 197.534L111.724 197.521L111.721 197.507L111.718 197.493L111.715 197.479L111.712 197.465L111.709 197.451L111.706 197.437L111.713 197.422L111.749 197.404L111.746 197.39L111.743 197.375L111.739 197.361L111.736 197.346L111.733 197.331L111.729 197.316L111.726 197.301L111.732 197.285L111.769 197.268L111.766 197.253L111.762 197.237L111.759 197.222L111.755 197.206L111.752 197.191L111.748 197.175L111.745 197.159L111.75 197.143L111.788 197.125L111.784 197.109L111.781 197.093L111.777 197.077L111.773 197.06L111.77 197.044L111.766 197.028L111.762 197.011L111.766 196.994L111.805 196.975L111.801 196.959L111.797 196.942L111.794 196.925L111.79 196.908L111.786 196.891L111.782 196.874L111.778 196.856L111.78 196.839L111.821 196.82L111.817 196.802L111.813 196.785L111.809 196.767L111.805 196.749L111.801 196.731L111.797 196.713L111.793 196.695L111.794 196.677L111.835 196.657L111.831 196.639L111.827 196.621L111.822 196.602L111.818 196.584L111.814 196.565L111.81 196.547L111.806 196.528L111.805 196.509L111.847 196.489L111.843 196.47L111.839 196.451L111.835 196.432L111.83 196.412L111.826 196.393L111.822 196.373L111.817 196.354L111.815 196.334L111.859 196.314L111.854 196.294L111.85 196.274L111.845 196.254L111.841 196.234L111.836 196.214L111.832 196.194L111.827 196.174L111.824 196.153L111.868 196.133L111.864 196.112L111.859 196.091L111.854 196.071L111.85 196.05L111.845 196.029L111.84 196.008L111.836 195.987L111.831 195.966L111.876 195.945L111.89 195.905L111.935 195.834L111.981 195.762L112.026 195.691L112.071 195.62L112.116 195.548L112.161 195.477L112.206 195.405L112.252 195.369L112.297 195.312L112.342 195.24L112.387 195.169L112.432 195.097L112.477 195.025L112.522 194.953L112.567 194.882L112.612 194.81L112.657 194.772L112.701 194.716L112.746 194.644L112.791 194.572L112.836 194.5L112.881 194.428L112.926 194.356L112.971 194.283L113.015 194.211L113.06 194.172L113.105 194.117L113.15 194.044L113.194 193.972L113.239 193.899L113.284 193.827L113.328 193.754L113.373 193.682L113.417 193.609L113.462 193.569L113.507 193.514L113.551 193.441L113.596 193.369L113.64 193.296L113.685 193.223L113.729 193.15L113.773 193.077L113.818 193.004L113.862 192.962L113.907 192.908L113.951 192.835L113.995 192.762L114.04 192.689L114.084 192.616L114.128 192.543L114.173 192.469L114.217 192.396L114.261 192.353L114.305 192.3L114.349 192.226L114.393 192.153L114.438 192.079L114.482 192.006L114.526 191.932L114.57 191.859L114.614 191.785L114.658 191.74L114.702 191.688L114.746 191.614L114.79 191.54L114.834 191.466L114.878 191.392L114.922 191.318L114.966 191.244L115.009 191.17L115.053 191.124L115.097 191.072L115.141 190.998L115.185 190.924L115.228 190.85L115.272 190.776L115.316 190.702L115.36 190.627L115.403 190.553L115.447 190.505L115.491 190.454L115.534 190.38L115.578 190.305L115.621 190.231L115.665 190.156L115.708 190.082L115.752 190.007L115.795 189.932L115.839 189.883L115.882 189.833L115.926 189.758L115.969 189.683L116.012 189.608L116.056 189.534L116.099 189.459L116.142 189.384L116.186 189.309L116.229 189.258L116.272 189.208L116.315 189.133L116.359 189.058L116.402 188.983L116.445 188.908L116.488 188.832L116.531 188.757L116.574 188.682L116.617 188.629L116.66 188.581L116.703 188.506L116.746 188.43L116.789 188.354L116.832 188.279L116.875 188.203L116.918 188.128L116.961 188.052L117.004 187.998L117.047 187.95L117.089 187.875L117.132 187.799L117.175 187.723L117.218 187.647L117.26 187.571L117.303 187.495L117.346 187.419L117.388 187.363L117.431 187.317L117.474 187.241L117.516 187.164L117.559 187.088L117.601 187.012L117.644 186.936L117.686 186.859L117.729 186.783L117.771 186.726L117.814 186.68L117.856 186.604L117.898 186.527L117.941 186.451L117.983 186.374L118.025 186.297L118.068 186.221L118.11 186.144L118.152 186.085L118.194 186.04L118.237 185.964L118.279 185.887L118.321 185.81L118.363 185.733L118.405 185.656L118.447 185.579L118.489 185.502L118.531 185.442L118.573 185.398L118.615 185.321L118.657 185.243L118.699 185.166L118.741 185.089L118.783 185.012L118.825 184.934L118.866 184.857L118.908 184.795L118.95 184.752L118.992 184.674L119.033 184.597L119.075 184.519L119.117 184.442L119.158 184.364L119.2 184.286L119.242 184.209L119.283 184.146L119.325 184.103L119.366 184.025L119.408 183.948L119.449 183.87L119.491 183.792L119.532 183.714L119.574 183.636L119.615 183.558L119.656 183.493L119.698 183.452L119.739 183.373L119.78 183.295L119.822 183.217L119.863 183.139L119.904 183.06L119.945 182.982L119.986 182.904L120.027 182.838L120.069 182.797L120.11 182.718L120.151 182.64L120.192 182.561L120.233 182.483L120.274 182.404L120.315 182.326L120.356 182.247L120.397 182.179L120.437 182.139L120.478 182.06L120.519 181.982L120.56 181.903L120.601 181.824L120.641 181.745L120.682 181.666L120.723 181.587L120.763 181.518L120.804 181.479L120.845 181.4L120.885 181.32L120.926 181.241L120.966 181.162L121.007 181.083L121.047 181.003L121.088 180.924L121.128 180.854L121.169 180.815L121.209 180.736L121.25 180.656L121.29 180.577L121.33 180.497L121.37 180.418L121.411 180.338L121.451 180.258L121.491 180.186L121.531 180.149L121.571 180.069L121.612 179.989L121.652 179.909L121.692 179.83L121.732 179.75L121.772 179.67L121.812 179.59L121.852 179.516L121.892 179.48L121.932 179.399L121.971 179.319L122.011 179.239L122.051 179.159L122.091 179.079L122.131 178.998L122.171 178.918L122.21 178.843L122.25 178.807L122.29 178.727L122.329 178.647L122.369 178.566L122.408 178.486L122.448 178.405L122.488 178.324L122.527 178.244L122.566 178.168L122.606 178.132L122.645 178.052L122.685 177.971L122.724 177.89L122.763 177.809L122.803 177.728L122.842 177.647L122.881 177.567L122.921 177.489L122.96 177.454L122.999 177.373L123.038 177.292L123.077 177.211L123.116 177.13L123.155 177.049L123.194 176.968L123.233 176.886L123.272 176.807L123.311 176.774L123.35 176.692L123.389 176.611L123.428 176.53L123.467 176.448L123.506 176.367L123.544 176.285L123.583 176.204L123.622 176.123L123.661 176.09L123.699 176.009L123.738 175.927L123.776 175.845L123.815 175.763L123.854 175.682L123.892 175.6L123.931 175.518L123.969 175.436L124.008 175.404L124.046 175.322L124.084 175.24L124.123 175.158L124.161 175.076L124.199 174.994L124.238 174.911L124.276 174.829L124.314 174.747L124.352 174.713L124.39 174.632L124.429 174.55L124.467 174.468L124.505 174.385L124.543 174.303L124.581 174.22L124.619 174.138L124.657 174.055L124.695 174.02L124.732 173.94L124.77 173.858L124.808 173.775L124.846 173.692L124.884 173.61L124.921 173.527L124.959 173.444L124.997 173.361L125.034 173.325L125.072 173.245L125.11 173.162L125.147 173.079L125.185 172.996L125.222 172.913L125.26 172.83L125.297 172.747L125.335 172.664L125.372 172.626L125.409 172.548L125.447 172.464L125.484 172.381L125.521 172.298L125.559 172.214L125.596 172.131L125.633 172.048L125.67 171.964L125.707 171.925L125.744 171.847L125.781 171.764L125.818 171.68L125.855 171.596L125.892 171.513L125.929 171.429L125.966 171.345L126.003 171.262L126.04 171.221L126.077 171.144L126.113 171.06L126.15 170.976L126.187 170.892L126.224 170.808L126.26 170.724L126.297 170.64L126.334 170.556L126.37 170.514L126.407 170.438L126.443 170.354L126.48 170.27L126.516 170.186L126.552 170.101L126.589 170.017L126.625 169.933L126.661 169.849L126.698 169.805L126.734 169.73L126.77 169.645L126.806 169.561L126.843 169.476L126.879 169.392L126.915 169.307L126.951 169.223L126.987 169.138L127.023 169.093L127.059 169.019L127.095 168.934L127.131 168.849L127.167 168.764L127.203 168.679L127.238 168.595L127.274 168.51L127.31 168.425L127.346 168.378L127.381 168.305L127.417 168.22L127.453 168.135L127.488 168.05L127.524 167.964L127.559 167.879L127.595 167.794L127.63 167.709L127.666 167.661L127.701 167.588L127.736 167.503L127.772 167.418L127.807 167.332L127.842 167.247L127.878 167.161L127.913 167.076L127.948 166.99L127.983 166.941L128.018 166.869L128.053 166.784L128.088 166.698L128.123 166.612L128.158 166.527L128.193 166.441L128.228 166.355L128.263 166.269L128.298 166.218L128.333 166.148L128.368 166.062L128.402 165.976L128.437 165.89L128.472 165.804L128.506 165.718L128.541 165.632L128.576 165.546L128.61 165.493L128.645 165.423L128.679 165.337L128.714 165.251L128.748 165.165L128.783 165.079L128.817 164.992L128.851 164.906L128.885 164.82L128.92 164.766L128.954 164.697L128.988 164.61L129.022 164.524L129.056 164.437L129.091 164.351L129.125 164.264L129.159 164.178L129.193 164.091L129.227 164.036L129.26 163.967L129.294 163.881L129.328 163.794L129.362 163.707L129.396 163.62L129.43 163.533L129.463 163.447L129.497 163.36L129.531 163.303L129.564 163.236L129.598 163.149L129.631 163.062L129.665 162.975L129.698 162.887L129.732 162.8L129.765 162.713L129.799 162.626L129.832 162.568L129.865 162.501L129.899 162.414L129.932 162.327L129.965 162.239L129.998 162.152L130.031 162.065L130.064 161.977L130.098 161.89L130.131 161.83L130.164 161.765L130.197 161.677L130.23 161.589L130.262 161.502L130.295 161.414L130.328 161.326L130.361 161.239L130.394 161.151L130.426 161.09L130.459 161.025L130.492 160.938L130.524 160.85L130.557 160.762L130.59 160.674L130.622 160.586L130.654 160.498L130.687 160.41L130.719 160.348L130.752 160.284L130.784 160.196L130.816 160.107L130.849 160.019L130.881 159.931L130.913 159.843L130.945 159.755L130.977 159.666L131.009 159.603L131.042 159.54L131.074 159.451L131.106 159.363L131.137 159.274L131.169 159.186L131.201 159.097L131.233 159.009L131.265 158.92L131.297 158.855L131.328 158.793L131.36 158.704L131.392 158.616L131.423 158.527L131.455 158.438L131.487 158.35L131.518 158.261L131.55 158.172L131.581 158.105L131.612 158.044L131.644 157.955L131.675 157.866L131.706 157.777L131.738 157.688L131.769 157.599L131.8 157.51L131.831 157.421L131.862 157.353L131.894 157.293L131.925 157.204L131.956 157.115L131.987 157.025L132.017 156.936L132.048 156.847L132.079 156.758L132.11 156.668L132.141 156.599L132.172 156.539L132.202 156.45L132.233 156.361L132.264 156.271L132.294 156.182L132.325 156.092L132.355 156.002L132.386 155.913L132.416 155.842L132.447 155.784L132.477 155.694L132.507 155.604L132.538 155.514L132.568 155.425L132.598 155.335L132.629 155.245L132.659 155.155L132.689 155.083L132.719 155.025L132.749 154.935L132.779 154.845L132.809 154.755L132.839 154.665L132.869 154.575L132.899 154.485L132.928 154.395L132.958 154.321L132.988 154.265L133.018 154.175L133.047 154.084L133.077 153.994L133.107 153.904L133.136 153.814L133.166 153.723L133.195 153.633L133.225 153.558L133.254 153.502L133.283 153.412L133.313 153.321L133.342 153.231L133.371 153.14L133.4 153.05L133.43 152.959L133.459 152.868L133.488 152.792L133.517 152.737L133.546 152.646L133.575 152.556L133.604 152.465L133.633 152.374L133.662 152.283L133.691 152.192L133.719 152.102L133.748 152.024L133.777 151.97L133.805 151.879L133.834 151.788L133.863 151.697L133.891 151.606L133.92 151.515L133.948 151.424L133.977 151.333L134.005 151.253L134.033 151.2L134.062 151.109L134.09 151.018L134.118 150.927L134.147 150.835L134.175 150.744L134.203 150.653L134.231 150.561L134.259 150.481L134.287 150.429L134.315 150.337L134.343 150.246L134.371 150.154L134.399 150.063L134.427 149.971L134.454 149.88L134.482 149.788L134.51 149.706L134.537 149.655L134.565 149.563L134.593 149.472L134.62 149.38L134.648 149.288L134.675 149.196L134.702 149.105L134.73 149.013L134.757 148.929L134.785 148.879L134.812 148.787L134.839 148.695L134.866 148.603L134.893 148.511L134.92 148.419L134.947 148.327L134.975 148.235L135.001 148.15L135.028 148.101L135.055 148.009L135.082 147.917L135.109 147.825L135.136 147.732L135.162 147.64L135.189 147.548L135.216 147.456L135.242 147.369L135.269 147.321L135.296 147.229L135.322 147.136L135.348 147.044L135.375 146.951L135.401 146.859L135.428 146.766L135.454 146.674L135.48 146.586L135.506 146.539L135.533 146.446L135.559 146.354L135.585 146.261L135.611 146.168L135.637 146.076L135.663 145.983L135.689 145.89L135.715 145.801L135.74 145.755L135.766 145.662L135.792 145.569L135.818 145.476L135.843 145.383L135.869 145.29L135.895 145.197L135.92 145.104L135.946 145.014L135.971 144.968L135.996 144.875L136.022 144.782L136.047 144.689L136.072 144.596L136.098 144.503L136.123 144.41L136.148 144.317L136.173 144.225L136.198 144.18L136.223 144.087L136.248 143.994L136.273 143.9L136.298 143.807L136.323 143.714L136.348 143.62L136.373 143.527L136.397 143.434L136.422 143.39L136.447 143.296L136.471 143.203L136.496 143.109L136.521 143.016L136.545 142.922L136.57 142.829L136.594 142.735L136.618 142.641L136.643 142.597L136.667 142.504L136.691 142.41L136.715 142.317L136.74 142.223L136.764 142.129L136.788 142.035L136.812 141.941L136.836 141.848L136.86 141.802L136.884 141.71L136.907 141.616L136.931 141.522L136.955 141.428L136.979 141.334L137.002 141.24L137.026 141.146L137.05 141.052L137.073 141.005L137.097 140.914L137.12 140.82L137.144 140.725L137.167 140.631L137.19 140.537L137.214 140.443L137.237 140.349L137.26 140.254L137.283 140.206L137.306 140.116L137.329 140.021L137.352 139.927L137.375 139.833L137.398 139.738L137.421 139.644L137.444 139.549L137.467 139.455L137.49 139.405L137.512 139.316L137.535 139.221L137.558 139.127L137.58 139.032L137.603 138.937L137.625 138.843L137.648 138.748L137.67 138.654L137.693 138.602L137.715 138.514L137.737 138.419L137.76 138.325L137.782 138.23L137.804 138.135L137.826 138.04L137.848 137.945L137.87 137.85L137.892 137.798L137.914 137.711L137.936 137.616L137.958 137.521L137.979 137.426L138.001 137.331L138.023 137.236L138.045 137.141L138.066 137.046L138.088 136.992L138.109 136.905L138.131 136.81L138.152 136.715L138.174 136.62L138.195 136.525L138.216 136.43L138.237 136.334L138.259 136.239L138.28 136.184L138.301 136.098L138.322 136.003L138.343 135.908L138.364 135.812L138.385 135.717L138.406 135.622L138.427 135.526L138.448 135.431L138.468 135.374L138.489 135.29L138.51 135.194L138.53 135.099L138.551 135.003L138.571 134.908L138.592 134.812L138.612 134.716L138.633 134.621L138.653 134.563L138.673 134.479L138.694 134.384L138.714 134.288L138.734 134.192L138.754 134.097L138.774 134.001L138.794 133.905L138.814 133.809L138.834 133.75L138.854 133.667L138.874 133.572L138.894 133.476L138.913 133.38L138.933 133.284L138.953 133.188L138.972 133.092L138.992 132.996L139.011 132.935L139.031 132.854L139.05 132.758L139.07 132.662L139.089 132.566L139.108 132.469L139.128 132.373L139.147 132.277L139.166 132.181L139.185 132.119L139.204 132.039L139.223 131.942L139.242 131.846L139.261 131.75L139.28 131.654L139.299 131.557L139.317 131.461L139.336 131.365L139.355 131.301L139.373 131.222L139.392 131.125L139.41 131.029L139.429 130.933L139.447 130.836L139.466 130.74L139.484 130.643L139.502 130.547L139.521 130.482L139.539 130.404L139.557 130.307L139.575 130.21L139.593 130.114L139.611 130.017L139.629 129.92L139.647 129.824L139.665 129.727L139.683 129.661L139.701 129.584L139.718 129.487L139.736 129.39L139.754 129.293L139.771 129.197L139.789 129.1L139.806 129.003L139.824 128.906L139.841 128.839L139.858 128.762L139.876 128.666L139.893 128.569L139.91 128.472L139.927 128.375L139.944 128.278L139.961 128.181L139.978 128.084L139.995 128.015L140.012 127.94L140.029 127.843L140.046 127.746L140.063 127.649L140.079 127.551L140.096 127.454L140.113 127.357L140.129 127.26L140.146 127.19L140.162 127.116L140.179 127.018L140.195 126.921L140.211 126.824L140.228 126.727L140.244 126.629L140.26 126.532L140.276 126.435L140.292 126.364L140.308 126.29L140.324 126.193L140.34 126.095L140.356 125.998L140.372 125.901L140.388 125.803L140.403 125.706L140.419 125.608L140.435 125.536L140.45 125.463L140.466 125.366L140.481 125.268L140.497 125.171L140.512 125.073L140.527 124.976L140.543 124.878L140.558 124.78L140.573 124.707L140.588 124.635L140.603 124.537L140.618 124.44L140.633 124.342L140.648 124.244L140.663 124.147L140.678 124.049L140.693 123.951L140.708 123.876L140.722 123.806L140.737 123.708L140.752 123.61L140.766 123.512L140.781 123.414L140.795 123.317L140.809 123.219L140.824 123.121L140.838 123.045L140.852 122.975L140.867 122.877L140.881 122.779L140.895 122.681L140.909 122.583L140.923 122.485L140.937 122.387L140.951 122.289L140.964 122.212L140.978 122.143L140.992 122.045L141.006 121.947L141.019 121.849L141.033 121.751L141.046 121.653L141.06 121.555L141.073 121.457L141.087 121.378L141.1 121.31L141.113 121.212L141.127 121.114L141.14 121.016L141.153 120.917L141.166 120.819L141.179 120.721L141.192 120.623L141.205 120.543L141.218 120.476L141.231 120.378L141.243 120.279L141.256 120.181L141.269 120.083L141.281 119.984L141.294 119.886L141.307 119.788L141.319 119.706L141.331 119.641L141.344 119.542L141.356 119.444L141.368 119.345L141.381 119.247L141.393 119.148L141.405 119.05L141.417 118.951L141.429 118.869L141.441 118.804L141.453 118.706L141.465 118.607L141.476 118.509L141.488 118.41L141.5 118.312L141.511 118.213L141.523 118.114L141.535 118.03L141.546 117.967L141.558 117.868L141.569 117.77L141.58 117.671L141.592 117.572L141.603 117.474L141.614 117.375L141.625 117.276L141.636 117.191L141.647 117.129L141.658 117.03L141.669 116.931L141.68 116.832L141.691 116.734L141.701 116.635L141.712 116.536L141.723 116.437L141.733 116.351L141.744 116.289L141.755 116.19L141.765 116.092L141.775 115.993L141.786 115.894L141.796 115.795L141.806 115.696L141.816 115.597L141.827 115.509L141.837 115.449L141.847 115.35L141.857 115.251L141.867 115.152L141.876 115.053L141.886 114.954L141.896 114.855L141.906 114.756L141.915 114.667L141.925 114.608L141.935 114.509L141.944 114.41L141.953 114.311L141.963 114.212L141.972 114.113L141.981 114.014L141.991 113.914L142 113.824L142.009 113.766L142.018 113.667L142.027 113.568L142.036 113.469L142.045 113.369L142.054 113.27L142.063 113.171L142.071 113.072L142.08 112.981L142.089 112.923L142.097 112.824L142.106 112.725L142.114 112.626L142.123 112.526L142.131 112.427L142.139 112.328L142.148 112.229L142.156 112.136L142.164 112.08L142.172 111.981L142.18 111.881L142.188 111.782L142.196 111.683L142.204 111.583L142.212 111.484L142.22 111.384L142.228 111.291L142.235 111.236L142.243 111.136L142.25 111.037L142.258 110.937L142.265 110.838L142.273 110.739L142.28 110.639L142.288 110.54L142.295 110.445L142.302 110.391L142.309 110.291L142.316 110.192L142.323 110.092L142.33 109.993L142.337 109.893L142.344 109.794L142.351 109.694L142.358 109.598L142.364 109.545L142.371 109.446L142.378 109.346L142.384 109.247L142.391 109.147L142.397 109.048L142.403 108.948L142.41 108.848L142.416 108.751L142.422 108.699L142.428 108.6L142.435 108.5L142.441 108.4L142.447 108.301L142.453 108.201L142.459 108.102L142.464 108.002L142.47 107.903L142.476 107.853L142.482 107.753L142.487 107.653L142.493 107.554L142.498 107.454L142.504 107.354L142.509 107.255L142.514 107.155L142.52 107.055L142.525 107.005L142.53 106.906L142.535 106.806L142.54 106.706L142.545 106.607L142.55 106.507L142.555 106.407L142.56 106.307L142.565 106.208L142.57 106.157L142.574 106.058L142.579 105.958L142.584 105.859L142.588 105.759L142.593 105.659L142.597 105.559L142.601 105.459L142.606 105.36L142.61 105.307L142.614 105.21L142.618 105.11L142.622 105.01L142.626 104.911L142.63 104.811L142.634 104.711L142.638 104.611L142.642 104.511L142.646 104.458L142.649 104.361L142.653 104.262L142.657 104.162L142.66 104.062L142.664 103.962L142.667 103.862L142.671 103.762L142.674 103.662L142.677 103.608L142.68 103.513L142.683 103.413L142.687 103.313L142.69 103.213L142.692 103.113L142.695 103.013L142.698 102.913L142.701 102.813L142.704 102.758L142.707 102.664L142.709 102.564L142.712 102.464L142.714 102.364L142.717 102.264L142.719 102.164L142.722 102.064L142.724 101.964L142.726 101.907L142.728 101.814L142.731 101.714L142.733 101.614L142.735 101.514L142.737 101.415L142.739 101.315L142.74 101.215L142.742 101.115L142.744 101.057L142.746 100.965L142.747 100.865L142.749 100.765L142.75 100.665L142.752 100.565L142.753 100.465L142.755 100.365L142.756 100.265L142.757 100.206L142.758 100.115L142.76 100.015L142.761 99.9152L142.762 99.8152L142.763 99.7152L142.764 99.6153L142.765 99.5153L142.765 99.4153L142.766 99.3548L142.767 99.2653L142.767 99.1654L142.768 99.0654L142.769 98.9654L142.769 98.8654L142.769 98.7654L142.77 98.6655L142.77 98.5655L142.77 98.5039L142.77 98.4155L142.771 98.3155L142.771 98.2155L142.771 98.1156L142.771 98.0156L142.77 97.9156L142.77 97.8156L142.77 97.7156L142.77 97.6529L142.77 97.5657L142.769 97.4657L142.769 97.3657L142.768 97.2657L142.768 97.1657L142.767 97.0658L142.766 96.9658L142.766 96.8658L142.765 96.8019L142.764 96.7158L142.763 96.6159L142.762 96.5159L142.761 96.4159L142.76 96.316L142.759 96.216L142.758 96.116L142.757 96.016L142.755 95.951L142.754 95.8661L142.753 95.7662L142.751 95.6662L142.75 95.5662L142.748 95.4663L142.747 95.3663L142.745 95.2664L142.743 95.1664L142.741 95.1002L142.739 95.0165L142.738 94.9165L142.736 94.8166L142.734 94.7167L142.731 94.6167L142.729 94.5168L142.727 94.4169L142.725 94.3169L142.723 94.2496L142.72 94.1671L142.718 94.0671L142.715 93.9672L142.713 93.8673L142.71 93.7674L142.708 93.6675L142.705 93.5676L142.702 93.4677L142.699 93.3992L142.697 93.3178L142.694 93.2179L142.691 93.118L142.688 93.0182L142.685 92.9183L142.681 92.8184L142.678 92.7185L142.675 92.6186L142.672 92.5491L142.668 92.4689L142.665 92.369L142.661 92.2692L142.658 92.1693L142.654 92.0695L142.65 91.9696L142.647 91.8698L142.643 91.7699L142.639 91.6993L142.635 91.6202L142.631 91.5204L142.627 91.4206L142.623 91.3208L142.619 91.221L142.615 91.1212L142.611 91.0214L142.606 90.9216L142.602 90.8498L142.598 90.772L142.593 90.6722L142.589 90.5724L142.584 90.4726L142.58 90.3729L142.575 90.2731L142.57 90.1733L142.565 90.0736L142.561 90.0007L142.556 89.9241L142.551 89.8244L142.546 89.7246L142.541 89.6249L142.535 89.5252L142.53 89.4255L142.525 89.3258L142.52 89.2261L142.514 89.1521L142.509 89.0767L142.503 88.977L142.498 88.8773L142.492 88.7776L142.487 88.678L142.481 88.5783L142.475 88.4787L142.469 88.379L142.464 88.304L142.458 88.2298L142.452 88.1301L142.446 88.0305L142.44 87.9309L142.433 87.8313L142.427 87.7317L142.421 87.6321L142.415 87.5325L142.408 87.4564L142.402 87.3834L142.395 87.2838L142.389 87.1843L142.382 87.0847L142.376 86.9852L142.369 86.8857L142.362 86.7861L142.355 86.6866L142.348 86.6094L142.341 86.5376L142.334 86.4381L142.327 86.3386L142.32 86.2392L142.313 86.1397L142.306 86.0402L142.299 85.9408L142.291 85.8413L142.284 85.763L142.276 85.6925L142.269 85.5931L142.261 85.4937L142.254 85.3943L142.246 85.2949L142.238 85.1955L142.231 85.0961L142.223 84.9967L142.215 84.9174L142.207 84.848L142.199 84.7487L142.191 84.6494L142.183 84.55L142.175 84.4507L142.166 84.3514L142.158 84.2521L142.15 84.1529L142.141 84.0724L142.133 84.0043L142.124 83.9051L142.116 83.8058L142.107 83.7066L142.099 83.6074L142.09 83.5081L142.081 83.4089L142.072 83.3097L142.063 83.2282L142.054 83.1614L142.045 83.0622L142.036 82.9631L142.027 82.8639L142.018 82.7648L142.009 82.6656L142 82.5665L141.99 82.4674L141.981 82.3849L141.971 82.3192L141.962 82.2202L141.952 82.1211L141.943 82.0221L141.933 81.923L141.923 81.824L141.914 81.725L141.904 81.626L141.894 81.5424L141.884 81.478L141.874 81.379L141.864 81.2801L141.854 81.1811L141.843 81.0822L141.833 80.9833L141.823 80.8843L141.813 80.7854L141.802 80.7008L141.792 80.6377L141.781 80.5388L141.771 80.4399L141.76 80.3411L141.75 80.2423L141.739 80.1434L141.728 80.0446L141.717 79.9458L141.706 79.8601L141.695 79.7983L141.684 79.6995L141.673 79.6008L141.662 79.502L141.651 79.4033L141.64 79.3046L141.629 79.2059L141.617 79.1072L141.606 79.0205L141.595 78.9599L141.583 78.8612L141.572 78.7626L141.56 78.664L141.548 78.5654L141.537 78.4668L141.525 78.3682L141.513 78.2696L141.501 78.1818L141.489 78.1225L141.477 78.024L141.465 77.9255L141.453 77.827L141.441 77.7285L141.429 77.63L141.417 77.5315L141.404 77.4331L141.392 77.3443L141.38 77.2862L141.367 77.1878L141.355 77.0894L141.342 76.991L141.33 76.8927L141.317 76.7943L141.304 76.696L141.291 76.5977L141.279 76.5079L141.266 76.451L141.253 76.3528L141.24 76.2545L141.227 76.1562L141.214 76.058L141.2 75.9598L141.187 75.8616L141.174 75.7634L141.161 75.6726L141.147 75.617L141.134 75.5189L141.12 75.4208L141.107 75.3226L141.093 75.2245L141.08 75.1264L141.066 75.0284L141.052 74.9303L141.039 74.8385L141.025 74.7842L141.011 74.6862L140.997 74.5882L140.983 74.4902L140.969 74.3923L140.955 74.2943L140.941 74.1964L140.926 74.0984L140.912 74.0056L140.898 73.9526L140.883 73.8548L140.869 73.7569L140.855 73.6591L140.84 73.5612L140.825 73.4634L140.811 73.3656L140.796 73.2679L140.781 73.174L140.767 73.1223L140.752 73.0246L140.737 72.9269L140.722 72.8292L140.707 72.7315L140.692 72.6339L140.677 72.5362L140.662 72.4386L140.647 72.3437L140.631 72.2933L140.616 72.1958L140.601 72.0982L140.585 72.0006L140.57 71.9031L140.554 71.8056L140.539 71.7081L140.523 71.6106L140.507 71.5147L140.492 71.4657L140.476 71.3682L140.46 71.2708L140.444 71.1734L140.428 71.076L140.412 70.9787L140.396 70.8814L140.38 70.784L140.364 70.6872L140.348 70.6394L140.332 70.5421L140.316 70.4449L140.299 70.3476L140.283 70.2504L140.266 70.1532L140.25 70.056L140.233 69.9588L140.217 69.8617L140.2 69.8138L140.184 69.7174L140.167 69.6203L140.15 69.5232L140.133 69.4262L140.116 69.3291L140.099 69.2321L140.082 69.1351L140.065 69.0381L140.048 68.9893L140.031 68.8942L140.014 68.7972L139.997 68.7003L139.979 68.6034L139.962 68.5065L139.945 68.4097L139.927 68.3128L139.91 68.216L139.892 68.1662L139.875 68.0724L139.857 67.9756L139.839 67.8789L139.822 67.7821L139.804 67.6854L139.786 67.5887L139.768 67.492L139.75 67.3954L139.732 67.3446L139.714 67.2521L139.696 67.1555L139.678 67.0589L139.66 66.9623L139.642 66.8658L139.623 66.7693L139.605 66.6728L139.587 66.5763L139.568 66.5245L139.55 66.4334L139.531 66.3369L139.513 66.2405L139.494 66.1441L139.476 66.0478L139.457 65.9514L139.438 65.8551L139.419 65.7588L139.4 65.706L139.381 65.6162L139.363 65.52L139.344 65.4237L139.325 65.3275L139.305 65.2313L139.286 65.1352L139.267 65.039L139.248 64.9428L139.229 64.8892L139.209 64.8007L139.19 64.7046L139.17 64.6085L139.151 64.5125L139.131 64.4165L139.112 64.3205L139.092 64.2245L139.073 64.1286L139.053 64.0739L139.033 63.9867L139.013 63.8908L138.993 63.795L138.974 63.6991L138.954 63.6033L138.934 63.5075L138.914 63.4117L138.893 63.3159L138.873 63.2603L138.853 63.1744L138.833 63.0787L138.813 62.983L138.792 62.8874L138.772 62.7917L138.751 62.6961L138.731 62.6005L138.71 62.505L138.69 62.4483L138.669 62.3638L138.649 62.2683L138.628 62.1728L138.607 62.0774L138.586 61.9819L138.566 61.8865L138.545 61.7911L138.524 61.6957L138.503 61.6381L138.482 61.5549L138.461 61.4596L138.44 61.3643L138.418 61.269L138.397 61.1738L138.376 61.0785L138.355 60.9833L138.333 60.8881L138.312 60.8296L138.29 60.7478L138.269 60.6526L138.247 60.5575L138.226 60.4624L138.204 60.3674L138.183 60.2723L138.161 60.1773L138.139 60.0823L138.117 60.0228L138.096 59.9424L138.074 59.8474L138.052 59.7525L138.03 59.6576L138.008 59.5627L137.986 59.4679L137.964 59.3731L137.941 59.2783L137.919 59.2179L137.897 59.1387L137.875 59.044L137.852 58.9493L137.83 58.8546L137.807 58.7599L137.785 58.6653L137.763 58.5706L137.74 58.476L137.717 58.4147L137.695 58.3369L137.672 58.2423L137.649 58.1478L137.627 58.0533L137.604 57.9589L137.581 57.8644L137.558 57.77L137.535 57.6756L137.512 57.6133L137.489 57.5368L137.466 57.4425L137.443 57.3482L137.42 57.2539L137.396 57.1597L137.373 57.0654L137.35 56.9712L137.326 56.877L137.303 56.8137L137.28 56.7387L137.256 56.6445L137.233 56.5504L137.209 56.4563L137.185 56.3623L137.162 56.2682L137.138 56.1742L137.114 56.0803L137.091 56.016L137.067 55.9423L137.043 55.8484L137.019 55.7545L136.995 55.6606L136.971 55.5668L136.947 55.4729L136.923 55.3792L136.899 55.2854L136.875 55.2202L136.851 55.1479L136.826 55.0542L136.802 54.9604L136.778 54.8668L136.753 54.7732L136.729 54.6795L136.704 54.586L136.68 54.4924L136.655 54.4263L136.631 54.3553L136.606 54.2618L136.582 54.1683L136.557 54.0749L136.532 53.9814L136.507 53.888L136.482 53.7947L136.458 53.7013L136.433 53.6343L136.408 53.5647L136.383 53.4714L136.358 53.3781L136.333 53.2849L136.308 53.1916L136.282 53.0984L136.257 53.0053L136.232 52.9121L136.207 52.8442L136.181 52.7759L136.156 52.6828L136.131 52.5898L136.105 52.4968L136.08 52.4038L136.054 52.3108L136.029 52.2178L136.003 52.1249L135.977 52.056L135.952 51.9891L135.926 51.8963L135.9 51.8034L135.874 51.7106L135.849 51.6178L135.823 51.5251L135.797 51.4324L135.771 51.3396L135.745 51.2698L135.719 51.2043L135.693 51.1116L135.666 51.019L135.64 50.9265L135.614 50.8339L135.588 50.7413L135.562 50.6488L135.535 50.5563L135.509 50.4856L135.482 50.4214L135.456 50.329L135.43 50.2366L135.403 50.1442L135.376 50.0519L135.35 49.9596L135.323 49.8673L135.297 49.775L135.27 49.7034L135.243 49.6405L135.216 49.5483L135.189 49.4562L135.163 49.364L135.136 49.2719L135.109 49.1798L135.082 49.0877L135.055 48.9957L135.028 48.9231L135.001 48.8617L134.973 48.7697L134.946 48.6777L134.919 48.5858L134.892 48.4939L134.864 48.4021L134.837 48.3102L134.81 48.2184L134.782 48.1449L134.755 48.0848L134.727 47.993L134.7 47.9013L134.672 47.8096L134.645 47.7179L134.617 47.6263L134.589 47.5347L134.562 47.4431L134.534 47.3686L134.506 47.3099L134.478 47.2184L134.45 47.1269L134.423 47.0354L134.395 46.944L134.367 46.8526L134.339 46.7612L134.311 46.6698L134.283 46.5944L134.254 46.5371L134.226 46.4458L134.198 46.3546L134.17 46.2633L134.142 46.1721L134.113 46.0809L134.085 45.9897L134.057 45.8986L134.028 45.8223L134 45.7664L133.971 45.6753L133.943 45.5843L133.914 45.4932L133.885 45.4022L133.857 45.3113L133.828 45.2203L133.799 45.1294L133.771 45.0522L133.742 44.9977L133.713 44.9068L133.684 44.816L133.655 44.7252L133.626 44.6344L133.597 44.5437L133.568 44.453L133.539 44.3623L133.51 44.2842L133.481 44.231L133.452 44.1404L133.423 44.0498L133.394 43.9593L133.364 43.8687L133.335 43.7782L133.306 43.6878L133.276 43.5973L133.247 43.5182L133.218 43.4665L133.188 43.3761L133.159 43.2857L133.129 43.1954L133.1 43.1051L133.07 43.0148L133.04 42.9246L133.011 42.8343L132.981 42.7544L132.951 42.704L132.921 42.6138L132.892 42.5237L132.862 42.4336L132.832 42.3435L132.802 42.2535L132.772 42.1635L132.742 42.0735L132.712 41.9926L132.682 41.9436L132.652 41.8537L132.622 41.7638L132.592 41.6739L132.561 41.5841L132.531 41.4943L132.501 41.4045L132.471 41.3147L132.44 41.2329L132.41 41.1853L132.379 41.0956L132.349 41.006L132.319 40.9163L132.288 40.8268L132.258 40.7372L132.227 40.6476L132.196 40.5581L132.166 40.4754L132.135 40.4291L132.104 40.3397L132.074 40.2503L132.043 40.1609L132.012 40.0715L131.981 39.9822L131.95 39.8929L131.919 39.8036L131.889 39.72L131.858 39.6751L131.827 39.5859L131.796 39.4967L131.764 39.4075L131.733 39.3184L131.702 39.2293L131.671 39.1402L131.64 39.0512L131.609 38.9667L131.577 38.9231L131.546 38.8342L131.515 38.7453L131.483 38.6563L131.452 38.5674L131.42 38.4786L131.389 38.3897L131.357 38.3009L131.326 38.2155L131.294 38.1734L131.263 38.0846L131.231 37.9959L131.2 37.9072L131.168 37.8186L131.136 37.73L131.104 37.6414L131.073 37.5528L131.041 37.4665L131.009 37.4257L130.977 37.3372L130.945 37.2488L130.913 37.1603L130.881 37.0719L130.849 36.9835L130.817 36.8952L130.785 36.8068L130.753 36.7196L130.721 36.6802L130.689 36.592L130.656 36.5038L130.624 36.4156L130.592 36.3274L130.56 36.2392L130.527 36.1511L130.495 36.063L130.463 35.975L130.43 35.9368L130.398 35.8489L130.365 35.7609L130.333 35.673L130.3 35.585L130.268 35.4971L130.235 35.4092L130.202 35.3214L130.17 35.2335L130.137 35.1945L130.104 35.108L130.071 35.0202L130.039 34.9325L130.006 34.8448L129.973 34.7571L129.94 34.6695L129.907 34.5819L129.874 34.4943L129.841 34.4543L129.808 34.3692L129.775 34.2817L129.742 34.1942L129.709 34.1068L129.676 34.0193L129.643 33.9319L129.609 33.8446L129.576 33.7572L129.543 33.7163L129.51 33.6326L129.476 33.5454L129.443 33.4581L129.41 33.3709L129.376 33.2837L129.343 33.1966L129.309 33.1095L129.276 33.0224L129.242 32.9805L129.209 32.8982L129.175 32.8112L129.141 32.7242L129.108 32.6372L129.074 32.5503L129.04 32.4634L129.007 32.3765L128.973 32.2897L128.939 32.247L128.905 32.166L128.871 32.0793L128.838 31.9925L128.804 31.9058L128.77 31.8191L128.736 31.7324L128.702 31.6458L128.668 31.5592L128.634 31.5156L128.6 31.436L128.565 31.3495L128.531 31.263L128.497 31.1765L128.463 31.09L128.429 31.0036L128.394 30.9172L128.36 30.8309L128.326 30.7864L128.291 30.7082L128.257 30.6219L128.223 30.5357L128.188 30.4494L128.154 30.3632L128.119 30.2771L128.085 30.1909L128.05 30.1048L128.016 30.0594L127.981 29.9826L127.946 29.8966L127.912 29.8106L127.877 29.7246L127.842 29.6386L127.808 29.5527L127.773 29.4668L127.738 29.3809L127.703 29.3346L127.668 29.2592L127.633 29.1735L127.599 29.0877L127.564 29.0019L127.529 28.9162L127.494 28.8305L127.459 28.7449L127.423 28.6593L127.388 28.6121L127.353 28.5381L127.318 28.4525L127.283 28.367L127.248 28.2815L127.213 28.1961L127.177 28.1106L127.142 28.0252L127.107 27.9398L127.071 27.8917L127.036 27.8191L127.001 27.7339L126.965 27.6486L126.93 27.5633L126.894 27.4781L126.859 27.393L126.823 27.3078L126.788 27.2226L126.752 27.1737L126.716 27.1025L126.681 27.0174L126.645 26.9324L126.609 26.8474L126.574 26.7624L126.538 26.6775L126.502 26.5926L126.466 26.5077L126.431 26.4578L126.395 26.388L126.359 26.3032L126.323 26.2184L126.287 26.1337L126.251 26.049L126.215 25.9643L126.179 25.8797L126.143 25.795L126.107 25.7442L126.071 25.6758L126.035 25.5913L125.999 25.5068L125.962 25.4223L125.926 25.3378L125.89 25.2534L125.854 25.169L125.817 25.0846L125.781 25.0329L125.745 24.9659L125.708 24.8816L125.672 24.7973L125.636 24.7131L125.599 24.6289L125.563 24.5447L125.526 24.4605L125.49 24.3764L125.453 24.3238L125.417 24.2582L125.38 24.1742L125.343 24.0902L125.307 24.0062L125.27 23.9222L125.233 23.8383L125.197 23.7544L125.16 23.6705L125.123 23.617L125.086 23.5528L125.049 23.469L125.013 23.3853L124.976 23.3016L124.939 23.2178L124.902 23.1341L124.865 23.0505L124.828 22.9669L124.791 22.9125L124.754 22.8497L124.717 22.7662L124.68 22.6827L124.642 22.5992L124.605 22.5158L124.568 22.4323L124.531 22.3489L124.494 22.2656L124.457 22.2103L124.419 22.1489L124.382 22.0656L124.345 21.9824L124.307 21.8991L124.27 21.8159L124.233 21.7328L124.195 21.6496L124.158 21.5665L124.12 21.5104L124.083 21.4504L124.045 21.3673L124.008 21.2844L123.97 21.2014L123.932 21.1184L123.895 21.0355L123.857 20.9527L123.82 20.8698L123.782 20.8127L123.744 20.7542L123.706 20.6714L123.669 20.5886L123.631 20.506L123.593 20.4233L123.555 20.3406L123.517 20.258L123.479 20.1754L123.441 20.1174L123.404 20.0603L123.366 19.9778L123.328 19.8953L123.29 19.8128L123.251 19.7304L123.213 19.648L123.175 19.5656L123.137 19.4833L123.099 19.4244L123.061 19.3687L123.023 19.2864L122.985 19.2042L122.946 19.122L122.908 19.0399L122.87 18.9577L122.831 18.8756L122.793 18.7935L122.755 18.7338L122.716 18.6795L122.678 18.5975L122.639 18.5155L122.601 18.4336L122.563 18.3516L122.524 18.2698L122.486 18.188L122.447 18.1061L122.408 18.0455L122.37 17.9926L122.331 17.9108L122.293 17.8291L122.254 17.7475L122.215 17.6658L122.176 17.5842L122.138 17.5026L122.099 17.4211L122.06 17.3595L122.021 17.3081L121.982 17.2266L121.944 17.1451L121.905 17.0637L121.866 16.9824L121.827 16.901L121.788 16.8197L121.749 16.7384L121.71 16.676L121.671 16.6259L121.632 16.5447L121.593 16.4635L121.554 16.3824L121.515 16.3013L121.475 16.2202L121.436 16.1391L121.397 16.0581L121.358 15.9948L121.319 15.9461L121.279 15.8652L121.24 15.7843L121.201 15.7034L121.161 15.6225L121.122 15.5417L121.083 15.461L121.043 15.3802L121.004 15.316L120.964 15.2688L120.925 15.1881L120.885 15.1074L120.846 15.0268L120.806 14.9463L120.767 14.8657L120.727 14.7852L120.688 14.7047L120.648 14.6396L120.608 14.5938L120.569 14.5134L120.529 14.433L120.489 14.3527L120.449 14.2724L120.41 14.1921L120.37 14.1118L120.33 14.0316L120.29 13.9657L120.25 13.9212L120.211 13.8411L120.171 13.761L120.131 13.6809L120.091 13.6009L120.051 13.5209L120.011 13.4409L119.971 13.361L119.931 13.2942L119.891 13.2512L119.851 13.1713L119.81 13.0915L119.77 13.0117L119.73 12.9319L119.69 12.8522L119.65 12.7725L119.61 12.6928L119.569 12.6251L119.529 12.5836L119.489 12.504L119.448 12.4244L119.408 12.3449L119.368 12.2654L119.327 12.1859L119.287 12.1065L119.246 12.0271L119.206 11.9585L119.166 11.9184L119.125 11.8391L119.085 11.7598L119.044 11.6806L119.003 11.6014L118.963 11.5222L118.922 11.443L118.882 11.3639L118.841 11.2945L118.8 11.2557L118.76 11.1767L118.719 11.0977L118.678 11.0187L118.637 10.9398L118.597 10.8609L118.556 10.782L118.515 10.7032L118.474 10.6329L118.433 10.5956L118.392 10.5168L118.351 10.4381L118.311 10.3594L118.27 10.2808L118.229 10.2022L118.188 10.1236L118.147 10.045L118.106 9.97387L118.064 9.938L118.023 9.85951L117.982 9.7811L117.941 9.7027L117.9 9.62431L117.859 9.54598L117.818 9.46769L117.776 9.3894L117.735 9.31737L117.694 9.28295L117.653 9.20476L117.611 9.12659L117.57 9.0485L117.529 8.97042L117.487 8.89234L117.446 8.81434L117.404 8.73636L117.363 8.66346L117.322 8.63046L117.28 8.55258L117.239 8.47471L117.197 8.39687L117.155 8.3191L117.114 8.24133L117.072 8.16358L117.031 8.08591L116.989 8.01217L116.947 7.98057L116.906 7.903L116.864 7.82543L116.822 7.74787L116.781 7.67038L116.739 7.59293L116.697 7.51547L116.655 7.43807L116.613 7.36349L116.572 7.33335L116.53 7.25603L116.488 7.17878L116.446 7.10153L116.404 7.0243L116.362 6.94715L116.32 6.87001L116.278 6.79287L116.236 6.71745L116.194 6.68877L116.152 6.61173L116.11 6.53477L116.068 6.45784L116.026 6.38091L115.983 6.30404L115.941 6.22721L115.899 6.15038L115.857 6.07408L115.815 6.04687L115.772 5.97015L115.73 5.89345L115.688 5.81684L115.696 5.79028Z" fill="white"/>
</svg>
