<svg width="200" height="200" viewBox="0 0 200 200" fill="none" xmlns="http://www.w3.org/2000/svg">
<path d="M82.7556 2.34802L82.7591 2.36037L82.7627 2.37273L82.7663 2.38514L82.7699 2.39777L82.7735 2.4104L82.7333 2.42967L82.7314 2.44329L82.7351 2.4562L82.7389 2.4692L82.7427 2.48229L82.7465 2.49547L82.7503 2.50877L82.7541 2.52215L82.758 2.53561L82.7204 2.55505L82.7163 2.56975L82.7203 2.58345L82.7243 2.59731L82.7283 2.61117L82.7323 2.62518L82.7364 2.63931L82.7405 2.65344L82.7446 2.66776L82.7095 2.68733L82.7034 2.70309L82.7076 2.71759L82.7118 2.73225L82.7161 2.74692L82.7204 2.76171L82.7247 2.77665L82.729 2.7916L82.7333 2.80669L82.7008 2.82644L82.6925 2.84324L82.697 2.85858L82.7014 2.87394L82.7059 2.88946L82.7104 2.90507L82.715 2.92072L82.7196 2.93652L82.7242 2.9524L82.6942 2.97234L82.6838 2.99008L82.6884 3.00623L82.6931 3.02237L82.6979 3.03866L82.7026 3.05507L82.7074 3.07149L82.7122 3.08806L82.717 3.10475L82.6896 3.12492L82.677 3.14358L82.6819 3.16048L82.6868 3.17742L82.6918 3.19447L82.6967 3.21165L82.7017 3.22886L82.7067 3.24618L82.7118 3.26364L82.687 3.28409L82.6722 3.30366L82.6773 3.32126L82.6825 3.33899L82.6877 3.35685L82.6929 3.37472L82.6981 3.39273L82.7033 3.41086L82.7086 3.42901L82.6864 3.44977L82.6694 3.47019L82.6748 3.48859L82.6801 3.50701L82.6856 3.52567L82.691 3.54433L82.6964 3.56303L82.7019 3.58195L82.7074 3.60087L82.6878 3.62195L82.6686 3.64312L82.6742 3.6623L82.6798 3.68149L82.6854 3.70085L82.6911 3.7203L82.6967 3.73975L82.7024 3.75939L82.7081 3.77909L82.6912 3.80053L82.6698 3.82242L82.6756 3.84233L82.6814 3.8623L82.6872 3.88238L82.6931 3.90257L82.6989 3.92279L82.7049 3.94313L82.7108 3.96359L82.6964 3.98545L82.6728 4.00804L82.6788 4.02864L82.6848 4.04937L82.6909 4.07022L82.697 4.09108L82.703 4.11208L82.7092 4.13319L82.7153 4.15431L82.7035 4.17663L82.6778 4.19986L82.684 4.22124L82.6902 4.24264L82.6964 4.26425L82.7027 4.28589L82.709 4.30756L82.7154 4.32941L82.7217 4.35131L82.7126 4.37405L82.6846 4.39784L82.691 4.42L82.6974 4.44215L82.7039 4.46441L82.7104 4.48682L82.7169 4.50924L82.7234 4.53175L82.73 4.55442L82.7234 4.57767L82.6932 4.60199L82.6998 4.62485L82.7065 4.64777L82.7131 4.67071L82.7198 4.69384L82.7266 4.71702L82.7333 4.7402L82.74 4.76359L82.7361 4.78741L82.7037 4.81224L82.7105 4.83578L82.7174 4.85943L82.7242 4.88313L82.7311 4.90691L82.738 4.93083L82.7449 4.95477L82.7519 4.97879L82.7506 5.0032L82.7159 5.02852L82.723 5.05278L82.73 5.0771L82.7371 5.10155L82.7442 5.12604L82.7513 5.15061L82.7584 5.17532L82.7656 5.20006L82.7668 5.22501L82.73 5.25077L82.7372 5.27574L82.7444 5.30081L82.7517 5.32591L82.759 5.35112L82.7663 5.37644L82.7737 5.4018L82.781 5.42727L82.7849 5.45287L82.7458 5.47903L82.7532 5.50464L82.7606 5.53043L82.7681 5.55626L82.7756 5.58214L82.7831 5.60816L82.7906 5.63425L82.7982 5.66039L82.8046 5.68665L82.7634 5.71317L82.771 5.7395L82.7786 5.76591L82.7862 5.79248L82.794 5.81905L82.7517 5.89568L82.7095 5.9724L82.6672 6.04913L82.625 6.12586L82.5828 6.15388L82.5406 6.22952L82.4984 6.30636L82.4563 6.38325L82.4142 6.4602L82.372 6.53714L82.33 6.61412L82.2879 6.69117L82.2459 6.76822L82.2038 6.7989L82.1619 6.87245L82.1199 6.94961L82.0779 7.02677L82.036 7.10402L81.9941 7.18128L81.9522 7.25854L81.9103 7.33589L81.8685 7.41325L81.8267 7.44664L81.7849 7.51805L81.7431 7.59552L81.7013 7.67299L81.6596 7.7505L81.6179 7.82808L81.5762 7.90565L81.5345 7.98324L81.4929 8.06092L81.4512 8.09703L81.4096 8.16629L81.368 8.24407L81.3265 8.32185L81.2849 8.39964L81.2434 8.47749L81.2019 8.55538L81.1604 8.63327L81.1189 8.71121L81.0775 8.75003L81.0361 8.8172L80.9947 8.89522L80.9533 8.97331L80.912 9.05141L80.8706 9.12951L80.8294 9.2077L80.7881 9.2859L80.7468 9.3641L80.7056 9.40561L80.6644 9.47069L80.6231 9.54899L80.582 9.62735L80.5408 9.70575L80.4997 9.78416L80.4586 9.86259L80.4175 9.9411L80.3764 10.0196L80.3354 10.0638L80.2944 10.1267L80.2534 10.2053L80.2124 10.284L80.1714 10.3626L80.1305 10.4414L80.0896 10.5201L80.0487 10.5988L80.0078 10.6776L79.967 10.7245L79.9261 10.7853L79.8854 10.8642L79.8446 10.9431L79.8038 11.0221L79.7631 11.1011L79.7224 11.1801L79.6817 11.2591L79.641 11.3382L79.6004 11.3878L79.5597 11.4464L79.5191 11.5256L79.4786 11.6048L79.438 11.6841L79.3975 11.7633L79.357 11.8426L79.3165 11.9219L79.276 12.0013L79.2355 12.0535L79.1951 12.1101L79.1547 12.1895L79.1143 12.269L79.074 12.3485L79.0336 12.4281L78.9933 12.5076L78.9531 12.5872L78.9128 12.6669L78.8725 12.7218L78.8323 12.7762L78.7921 12.8559L78.7519 12.9357L78.7118 13.0155L78.6717 13.0953L78.6315 13.1751L78.5915 13.255L78.5514 13.3349L78.5114 13.3925L78.4713 13.4448L78.4314 13.5248L78.3914 13.6048L78.3514 13.6849L78.3115 13.765L78.2716 13.8451L78.2317 13.9252L78.1919 14.0054L78.152 14.0657L78.1122 14.1159L78.0724 14.1961L78.0327 14.2764L77.9929 14.3568L77.9532 14.4371L77.9135 14.5175L77.8738 14.5979L77.8341 14.6784L77.7945 14.7413L77.7549 14.7894L77.7153 14.8699L77.6758 14.9505L77.6363 15.0311L77.5967 15.1117L77.5572 15.1923L77.5178 15.273L77.4783 15.3537L77.4389 15.4194L77.3995 15.4653L77.3601 15.5461L77.3208 15.6269L77.2815 15.7078L77.2422 15.7887L77.2029 15.8696L77.1636 15.9506L77.1244 16.0316L77.0852 16.0998L77.046 16.1436L77.0068 16.2247L76.9677 16.3058L76.9286 16.3869L76.8895 16.4681L76.8504 16.5493L76.8113 16.6305L76.7723 16.7117L76.7333 16.7827L76.6943 16.8243L76.6554 16.9057L76.6165 16.987L76.5776 17.0684L76.5387 17.1498L76.4998 17.2313L76.461 17.3128L76.4222 17.3943L76.3834 17.4679L76.3447 17.5074L76.3059 17.589L76.2672 17.6707L76.2285 17.7523L76.1898 17.834L76.1512 17.9157L76.1126 17.9975L76.074 18.0792L76.0354 18.1555L75.9969 18.1929L75.9583 18.2748L75.9198 18.3566L75.8814 18.4386L75.8429 18.5205L75.8045 18.6025L75.7661 18.6845L75.7277 18.7666L75.6893 18.8455L75.651 18.8807L75.6127 18.9629L75.5744 19.045L75.5362 19.1272L75.498 19.2094L75.4598 19.2916L75.4215 19.3739L75.3834 19.4562L75.3453 19.5378L75.3072 19.5709L75.2691 19.6533L75.231 19.7357L75.193 19.8181L75.155 19.9006L75.117 19.9831L75.079 20.0656L75.0411 20.1482L75.0032 20.2308L74.9653 20.2651L74.9274 20.346L74.8896 20.4287L74.8518 20.5114L74.814 20.5941L74.7762 20.6769L74.7385 20.7597L74.7007 20.8425L74.663 20.9253L74.6254 20.9623L74.5878 21.0411L74.5501 21.124L74.5126 21.207L74.475 21.29L74.4374 21.373L74.3999 21.4561L74.3624 21.5392L74.325 21.6222L74.2875 21.6619L74.2501 21.7385L74.2127 21.8217L74.1754 21.9049L74.138 21.9882L74.1007 22.0715L74.0634 22.1547L74.0262 22.2381L73.9889 22.3214L73.9517 22.3637L73.9145 22.4382L73.8774 22.5217L73.8402 22.6051L73.8031 22.6886L73.7661 22.7722L73.729 22.8557L73.6919 22.9393L73.655 23.0229L73.618 23.0679L73.581 23.1402L73.5441 23.2239L73.5072 23.3077L73.4703 23.3914L73.4334 23.4752L73.3966 23.559L73.3598 23.6428L73.323 23.7267L73.2863 23.7743L73.2496 23.8445L73.2129 23.9285L73.1762 24.0125L73.1396 24.0965L73.1029 24.1805L73.0664 24.2646L73.0298 24.3487L72.9932 24.4328L72.9567 24.4831L72.9203 24.5511L72.8838 24.6353L72.8473 24.7195L72.811 24.8038L72.7746 24.8881L72.7382 24.9724L72.7019 25.0568L72.6656 25.1411L72.6293 25.194L72.593 25.26L72.5568 25.3444L72.5206 25.4289L72.4845 25.5134L72.4483 25.5979L72.4122 25.6825L72.3761 25.7671L72.3401 25.8517L72.304 25.9073L72.268 25.971L72.232 26.0558L72.1961 26.1405L72.1601 26.2252L72.1242 26.31L72.0884 26.3949L72.0525 26.4797L72.0167 26.5646L71.9809 26.6228L71.9451 26.6844L71.9094 26.7694L71.8737 26.8544L71.838 26.9394L71.8023 27.0244L71.7667 27.1095L71.7311 27.1946L71.6955 27.2797L71.66 27.3406L71.6245 27.4L71.5889 27.4852L71.5535 27.5705L71.5181 27.6557L71.4826 27.741L71.4473 27.8263L71.4119 27.9117L71.3766 27.997L71.3413 28.0606L71.306 28.1179L71.2708 28.2033L71.2355 28.2888L71.2003 28.3743L71.1652 28.4599L71.13 28.5454L71.0949 28.631L71.0599 28.7166L71.0248 28.7828L70.9898 28.8379L70.9548 28.9237L70.9198 29.0094L70.8849 29.0951L70.85 29.1809L70.8151 29.2667L70.7802 29.3526L70.7454 29.4384L70.7106 29.5073L70.6758 29.5602L70.6411 29.6462L70.6064 29.7322L70.5717 29.8182L70.5371 29.9042L70.5024 29.9903L70.4678 30.0764L70.4333 30.1625L70.3987 30.234L70.3642 30.2848L70.3297 30.371L70.2953 30.4572L70.2608 30.5435L70.2264 30.6297L70.1921 30.716L70.1577 30.8024L70.1234 30.8887L70.0891 30.9629L70.0549 31.0115L70.0207 31.098L69.9865 31.1844L69.9523 31.2709L69.9182 31.3574L69.8841 31.444L69.85 31.5306L69.8159 31.6172L69.7819 31.694L69.7479 31.7405L69.714 31.8272L69.68 31.9139L69.6461 32.0006L69.6123 32.0874L69.5784 32.1742L69.5446 32.261L69.5108 32.3479L69.477 32.4273L69.4433 32.4716L69.4096 32.5586L69.376 32.6455L69.3423 32.7325L69.3087 32.8195L69.2751 32.9066L69.2416 32.9936L69.2081 33.0807L69.1746 33.1628L69.1411 33.205L69.1077 33.2922L69.0743 33.3794L69.0409 33.4666L69.0076 33.5538L68.9743 33.6411L68.941 33.7284L68.9078 33.8158L68.8746 33.9005L68.8414 33.9405L68.8082 34.0279L68.7751 34.1154L68.742 34.2028L68.709 34.2903L68.6759 34.3779L68.6429 34.4654L68.6099 34.553L68.577 34.6404L68.5441 34.6782L68.5112 34.7659L68.4784 34.8536L68.4456 34.9413L68.4127 35.029L68.38 35.1168L68.3473 35.2046L68.3146 35.2924L68.2819 35.3803L68.2493 35.4203L68.2167 35.506L68.1841 35.594L68.1516 35.6819L68.1191 35.7699L68.0866 35.8579L68.0542 35.9459L68.0217 36.034L67.9894 36.1221L67.957 36.1648L67.9247 36.2483L67.8924 36.3365L67.8602 36.4247L67.8279 36.5129L67.7957 36.6011L67.7636 36.6894L67.7314 36.7777L67.6993 36.866L67.6673 36.9114L67.6353 36.9928L67.6032 37.0812L67.5713 37.1696L67.5393 37.2581L67.5074 37.3466L67.4756 37.4351L67.4437 37.5236L67.4119 37.6122L67.3801 37.6602L67.3484 37.7394L67.3167 37.8281L67.285 37.9167L67.2533 38.0054L67.2217 38.0942L67.1901 38.1829L67.1586 38.2717L67.1271 38.3605L67.0956 38.4111L67.0641 38.4882L67.0327 38.5771L67.0013 38.666L66.97 38.7549L66.9386 38.8439L66.9073 38.9328L66.8761 39.0219L66.8449 39.1109L66.8137 39.1642L66.7825 39.2391L66.7514 39.3282L66.7203 39.4173L66.6892 39.5065L66.6582 39.5957L66.6272 39.6849L66.5963 39.7742L66.5654 39.8635L66.5344 39.9194L66.5036 39.9921L66.4728 40.0815L66.442 40.1709L66.4112 40.2603L66.3805 40.3497L66.3498 40.4392L66.3191 40.5287L66.2885 40.6182L66.2579 40.6768L66.2274 40.7473L66.1969 40.8369L66.1664 40.9265L66.1359 41.0161L66.1055 41.1058L66.0751 41.1955L66.0447 41.2852L66.0145 41.375L65.9842 41.4362L65.9539 41.5046L65.9237 41.5944L65.8935 41.6843L65.8633 41.7741L65.8333 41.864L65.8032 41.954L65.7731 42.0439L65.7431 42.1339L65.7132 42.1978L65.6832 42.2639L65.6533 42.354L65.6234 42.4441L65.5936 42.5342L65.5638 42.6244L65.534 42.7145L65.5043 42.8047L65.4746 42.8949L65.445 42.9614L65.4153 43.0254L65.3857 43.1157L65.3562 43.2061L65.3267 43.2964L65.2972 43.3868L65.2677 43.4772L65.2383 43.5676L65.2089 43.658L65.1796 43.7272L65.1503 43.789L65.121 43.8795L65.0918 43.9701L65.0626 44.0607L65.0334 44.1513L65.0043 44.2419L64.9752 44.3326L64.9461 44.4232L64.9171 44.495L64.8881 44.5547L64.8592 44.6454L64.8303 44.7362L64.8014 44.827L64.7725 44.9179L64.7438 45.0087L64.715 45.0996L64.6862 45.1905L64.6576 45.2649L64.6289 45.3224L64.6002 45.4134L64.5717 45.5044L64.5431 45.5954L64.5146 45.6865L64.4861 45.7776L64.4577 45.8687L64.4293 45.9598L64.4009 46.0369L64.3726 46.0922L64.3443 46.1834L64.316 46.2747L64.2878 46.3659L64.2596 46.4572L64.2315 46.5485L64.2034 46.6399L64.1753 46.7312L64.1473 46.8109L64.1193 46.8641L64.0913 46.9555L64.0634 47.047L64.0355 47.1384L64.0076 47.2299L63.9799 47.3215L63.9521 47.4131L63.9243 47.5047L63.8967 47.587L63.869 47.6379L63.8414 47.7296L63.8138 47.8213L63.7863 47.913L63.7587 48.0047L63.7313 48.0965L63.7038 48.1883L63.6764 48.2801L63.6491 48.3651L63.6218 48.4138L63.5945 48.5057L63.5673 48.5977L63.5401 48.6896L63.5129 48.7815L63.4858 48.8736L63.4587 48.9656L63.4316 49.0576L63.4046 49.1452L63.3776 49.1918L63.3507 49.2839L63.3238 49.376L63.297 49.4682L63.2701 49.5604L63.2434 49.6526L63.2166 49.7448L63.1899 49.8371L63.1633 49.9273L63.1366 49.9717L63.11 50.064L63.0835 50.1564L63.057 50.2488L63.0305 50.3412L63.0041 50.4337L62.9777 50.5261L62.9514 50.6186L62.9251 50.7111L62.8988 50.7539L62.8726 50.8462L62.8464 50.9388L62.8202 51.0314L62.7941 51.124L62.7681 51.2167L62.742 51.3093L62.716 51.402L62.6901 51.4948L62.6642 51.5402L62.6383 51.6303L62.6125 51.7231L62.5867 51.8159L62.5609 51.9088L62.5353 52.0017L62.5096 52.0946L62.4839 52.1875L62.4584 52.2804L62.4328 52.3285L62.4073 52.4164L62.3819 52.5094L62.3564 52.6025L62.331 52.6955L62.3057 52.7886L62.2804 52.8817L62.2551 52.9749L62.2299 53.068L62.2047 53.1187L62.1796 53.2044L62.1545 53.2977L62.1294 53.3909L62.1044 53.4842L62.0794 53.5775L62.0545 53.6708L62.0296 53.7642L62.0048 53.8576L61.9799 53.9109L61.9552 53.9944L61.9305 54.0879L61.9057 54.1813L61.8811 54.2748L61.8565 54.3684L61.8319 54.4619L61.8074 54.5555L61.783 54.649L61.7585 54.705L61.7341 54.7863L61.7098 54.88L61.6855 54.9736L61.6612 55.0674L61.637 55.1611L61.6128 55.2548L61.5887 55.3486L61.5646 55.4424L61.5405 55.5009L61.5165 55.5801L61.4925 55.674L61.4686 55.7678L61.4447 55.8618L61.4209 55.9557L61.3971 56.0496L61.3733 56.1437L61.3496 56.2376L61.3259 56.2988L61.3023 56.3758L61.2787 56.4698L61.2552 56.5639L61.2317 56.658L61.2082 56.7522L61.1848 56.8464L61.1615 56.9406L61.1381 57.0348L61.1148 57.0985L61.0916 57.1733L61.0684 57.2675L61.0452 57.3619L61.0221 57.4562L60.999 57.5505L60.9761 57.6449L60.9531 57.7393L60.9301 57.8337L60.9073 57.9001L60.8844 57.9726L60.8616 58.0671L60.8388 58.1616L60.8161 58.2562L60.7934 58.3507L60.7708 58.4453L60.7482 58.5399L60.7257 58.6345L60.7032 58.7035L60.6807 58.7738L60.6584 58.8685L60.636 58.9632L60.6137 59.058L60.5914 59.1527L60.5692 59.2475L60.547 59.3423L60.5249 59.4371L60.5028 59.5087L60.4807 59.5768L60.4587 59.6717L60.4368 59.7666L60.4148 59.8615L60.393 59.9565L60.3711 60.0515L60.3493 60.1465L60.3276 60.2415L60.3059 60.3157L60.2843 60.3816L60.2627 60.4767L60.2411 60.5718L60.2196 60.6669L60.1982 60.7621L60.1767 60.8573L60.1554 60.9525L60.1341 61.0477L60.1128 61.1244L60.0916 61.1882L60.0704 61.2835L60.0492 61.3787L60.0281 61.4741L60.0071 61.5694L59.986 61.6648L59.9651 61.7602L59.9442 61.8556L59.9233 61.9349L59.9025 61.9965L59.8817 62.0919L59.861 62.1874L59.8404 62.2829L59.8197 62.3784L59.7991 62.474L59.7786 62.5696L59.7581 62.6652L59.7376 62.7472L59.7172 62.8064L59.6968 62.9021L59.6766 62.9978L59.6563 63.0935L59.6361 63.1892L59.6159 63.285L59.5958 63.3807L59.5757 63.4765L59.5557 63.5611L59.5357 63.6181L59.5158 63.714L59.4959 63.8098L59.4761 63.9057L59.4563 64.0016L59.4366 64.0976L59.4168 64.1935L59.3972 64.2895L59.3776 64.3766L59.358 64.4315L59.3386 64.5275L59.3191 64.6236L59.2997 64.7196L59.2803 64.8157L59.261 64.9118L59.2417 65.0079L59.2225 65.1041L59.2034 65.1938L59.1842 65.2465L59.1652 65.3427L59.1461 65.4389L59.1272 65.5351L59.1082 65.6314L59.0893 65.7277L59.0705 65.824L59.0517 65.9203L59.033 66.0127L59.0143 66.0631L58.9957 66.1595L58.9771 66.2558L58.9586 66.3523L58.9401 66.4487L58.9216 66.5452L58.9032 66.6417L58.8849 66.7382L58.8666 66.8331L58.8483 66.8812L58.8301 66.9778L58.812 67.0744L58.7939 67.171L58.7758 67.2676L58.7578 67.3642L58.7399 67.4609L58.722 67.5575L58.7041 67.6543L58.6863 67.7018L58.6685 67.7977L58.6509 67.8944L58.6332 67.9912L58.6156 68.088L58.598 68.1848L58.5805 68.2816L58.5631 68.3785L58.5457 68.4753L58.5283 68.5254L58.511 68.6191L58.4937 68.716L58.4765 68.813L58.4594 68.9099L58.4422 69.0069L58.4252 69.1039L58.4082 69.2009L58.3912 69.2979L58.3743 69.3506L58.3575 69.442L58.3406 69.5391L58.3239 69.6362L58.3072 69.7333L58.2905 69.8304L58.2739 69.9276L58.2574 70.0248L58.2408 70.1219L58.2244 70.1772L58.208 70.2664L58.1916 70.3636L58.1753 70.4609L58.1591 70.5582L58.1429 70.6555L58.1267 70.7528L58.1106 70.8501L58.0946 70.9474L58.0786 71.0052L58.0626 71.0922L58.0468 71.1896L58.0309 71.287L58.0151 71.3844L57.9994 71.4819L57.9837 71.5793L57.968 71.6768L57.9525 71.7743L57.9369 71.8346L57.9214 71.9194L57.906 72.0169L57.8906 72.1145L57.8753 72.2121L57.86 72.3096L57.8448 72.4073L57.8296 72.5049L57.8145 72.6025L57.7994 72.6654L57.7844 72.7479L57.7694 72.8456L57.7545 72.9433L57.7397 73.041L57.7248 73.1388L57.7101 73.2365L57.6954 73.3343L57.6807 73.4321L57.6661 73.4976L57.6516 73.5777L57.6371 73.6756L57.6226 73.7735L57.6082 73.8713L57.5939 73.9692L57.5796 74.0671L57.5653 74.165L57.5512 74.263L57.5371 74.331L57.523 74.4089L57.509 74.5069L57.495 74.6049L57.4811 74.7029L57.4672 74.8009L57.4533 74.8989L57.4396 74.997L57.4259 75.0951L57.4122 75.1656L57.3987 75.2413L57.3851 75.3394L57.3716 75.4375L57.3582 75.5357L57.3447 75.6339L57.3314 75.732L57.3181 75.8302L57.3049 75.9284L57.2917 76.0015L57.2786 76.0749L57.2655 76.1731L57.2525 76.2714L57.2395 76.3697L57.2266 76.468L57.2138 76.5663L57.201 76.6646L57.1882 76.763L57.1755 76.8386L57.1628 76.9097L57.1503 77.0081L57.1378 77.1064L57.1253 77.2049L57.1129 77.3033L57.1005 77.4017L57.0881 77.5002L57.0759 77.5986L57.0636 77.6767L57.0515 77.7456L57.0394 77.8441L57.0273 77.9426L57.0154 78.0411L57.0034 78.1397L56.9915 78.2382L56.9797 78.3368L56.9679 78.4354L56.9562 78.516L56.9445 78.5826L56.9328 78.6812L56.9213 78.7798L56.9098 78.8785L56.8983 78.9772L56.887 79.0758L56.8756 79.1745L56.8643 79.2732L56.8531 79.3564L56.8419 79.4206L56.8307 79.5194L56.8197 79.6181L56.8086 79.7169L56.7977 79.8157L56.7868 79.9144L56.7759 80.0132L56.7651 80.112L56.7544 80.1977L56.7437 80.2597L56.733 80.3586L56.7224 80.4574L56.7119 80.5563L56.7015 80.6552L56.691 80.754L56.6807 80.853L56.6704 80.9519L56.6601 81.0401L56.6499 81.0997L56.6397 81.1987L56.6297 81.2977L56.6197 81.3966L56.6096 81.4956L56.5998 81.5946L56.5899 81.6936L56.58 81.7926L56.5703 81.8833L56.5606 81.9407L56.551 82.0397L56.5414 82.1388L56.5318 82.2379L56.5224 82.337L56.5129 82.4361L56.5035 82.5352L56.4942 82.6343L56.485 82.7275L56.4758 82.7825L56.4666 82.8817L56.4575 82.9808L56.4485 83.08L56.4395 83.1792L56.4305 83.2784L56.4217 83.3776L56.4129 83.4768L56.4041 83.5725L56.3954 83.6252L56.3868 83.7244L56.3782 83.8237L56.3697 83.923L56.3611 84.0222L56.3528 84.1215L56.3444 84.2208L56.336 84.3201L56.3278 84.4183L56.3196 84.4687L56.3114 84.568L56.3034 84.6674L56.2953 84.7667L56.2874 84.866L56.2794 84.9654L56.2715 85.0648L56.2638 85.1641L56.256 85.2635L56.2483 85.3142L56.2407 85.4123L56.2331 85.5117L56.2255 85.6112L56.2181 85.7106L56.2106 85.81L56.2033 85.9095L56.196 86.0089L56.1887 86.1084L56.1815 86.1615L56.1744 86.2573L56.1673 86.3568L56.1603 86.4563L56.1533 86.5558L56.1464 86.6553L56.1395 86.7548L56.1327 86.8543L56.126 86.9539L56.1193 87.0095L56.1127 87.103L56.1061 87.2025L56.0996 87.3021L56.0931 87.4017L56.0867 87.5013L56.0803 87.6008L56.0741 87.7004L56.0678 87.8L56.0616 87.8581L56.0555 87.9492L56.0494 88.0489L56.0434 88.1485L56.0375 88.2481L56.0316 88.3478L56.0257 88.4474L56.02 88.5471L56.0142 88.6467L56.0086 88.7073L56.0029 88.7961L55.9974 88.8958L55.9919 88.9954L55.9864 89.0951L55.981 89.1948L55.9757 89.2945L55.9704 89.3942L55.9652 89.494L55.96 89.557L55.9549 89.6434L55.9499 89.7432L55.9449 89.8429L55.9399 89.9426L55.9351 90.0424L55.9302 90.1421L55.9255 90.2419L55.9207 90.3417L55.9161 90.4072L55.9115 90.4912L55.9069 90.591L55.9025 90.6908L55.898 90.7906L55.8936 90.8904L55.8894 90.9902L55.8851 91.09L55.8809 91.1898L55.8767 91.2578L55.8726 91.3395L55.8686 91.4393L55.8646 91.5391L55.8607 91.639L55.8569 91.7388L55.8531 91.8386L55.8493 91.9385L55.8456 92.0383L55.842 92.1087L55.8384 92.1881L55.8349 92.2879L55.8314 92.3878L55.828 92.4877L55.8246 92.5876L55.8213 92.6874L55.8181 92.7873L55.8149 92.8872L55.8118 92.96L55.8087 93.037L55.8057 93.1369L55.8027 93.2368L55.7999 93.3367L55.797 93.4366L55.7942 93.5365L55.7915 93.6364L55.7888 93.7364L55.7862 93.8116L55.7836 93.8862L55.7811 93.9861L55.7787 94.0861L55.7763 94.186L55.7739 94.2859L55.7717 94.3859L55.7694 94.4858L55.7673 94.5858L55.7652 94.6634L55.7631 94.7357L55.7611 94.8356L55.7592 94.9356L55.7573 95.0355L55.7555 95.1355L55.7537 95.2354L55.752 95.3354L55.7504 95.4353L55.7487 95.5155L55.7472 95.5853L55.7457 95.6852L55.7443 95.7852L55.7429 95.8852L55.7416 95.9852L55.7403 96.0851L55.7391 96.1851L55.7379 96.2851L55.7369 96.3676L55.7359 96.4351L55.7348 96.535L55.734 96.635L55.7331 96.735L55.7323 96.835L55.7315 96.935L55.7308 97.0349L55.7302 97.1349L55.7296 97.2199L55.729 97.2849L55.7286 97.3849L55.7282 97.4849L55.7278 97.5849L55.7275 97.6849L55.7273 97.7848L55.7271 97.8848L55.7269 97.9848L55.7268 98.0722L55.7268 98.1348L55.7269 98.2348L55.7269 98.3348L55.7271 98.4348L55.7273 98.5348L55.7276 98.6348L55.7279 98.7348L55.7282 98.8347L55.7286 98.9245L55.7291 98.9847L55.7297 99.0847L55.7303 99.1847L55.731 99.2847L55.7317 99.3847L55.7324 99.4846L55.7333 99.5846L55.7342 99.6846L55.7351 99.7768L55.7361 99.8346L55.7372 99.9346L55.7383 100.035L55.7394 100.135L55.7406 100.234L55.7419 100.334L55.7433 100.434L55.7446 100.534L55.7461 100.629L55.7476 100.684L55.7491 100.784L55.7508 100.884L55.7524 100.984L55.7542 101.084L55.7559 101.184L55.7577 101.284L55.7597 101.384L55.7616 101.481L55.7636 101.534L55.7657 101.634L55.7677 101.734L55.7699 101.834L55.7722 101.934L55.7744 102.034L55.7768 102.134L55.7792 102.234L55.7816 102.333L55.7841 102.383L55.7867 102.483L55.7893 102.583L55.792 102.683L55.7947 102.783L55.7975 102.883L55.8003 102.983L55.8032 103.083L55.8061 103.183L55.8091 103.234L55.8122 103.333L55.8153 103.432L55.8184 103.532L55.8217 103.632L55.825 103.732L55.8283 103.832L55.8317 103.932L55.8351 104.032L55.8386 104.086L55.8422 104.181L55.8458 104.281L55.8495 104.381L55.8532 104.481L55.857 104.581L55.8608 104.681L55.8647 104.781L55.8686 104.88L55.8726 104.937L55.8767 105.03L55.8808 105.13L55.885 105.23L55.8891 105.329L55.8935 105.429L55.8978 105.529L55.9022 105.629L55.9066 105.729L55.9111 105.787L55.9156 105.878L55.9202 105.978L55.9249 106.078L55.9296 106.178L55.9344 106.277L55.9392 106.377L55.9441 106.477L55.949 106.577L55.954 106.638L55.9591 106.726L55.9641 106.826L55.9693 106.925L55.9745 107.025L55.9797 107.125L55.9851 107.225L55.9904 107.324L55.9959 107.424L56.0014 107.488L56.0069 107.573L56.0125 107.673L56.0181 107.773L56.0238 107.872L56.0296 107.972L56.0354 108.072L56.0412 108.171L56.0472 108.271L56.0531 108.337L56.0592 108.42L56.0652 108.52L56.0713 108.62L56.0776 108.719L56.0838 108.819L56.0901 108.918L56.0965 109.018L56.1028 109.117L56.1093 109.186L56.1158 109.267L56.1224 109.366L56.129 109.466L56.1357 109.565L56.1424 109.665L56.1492 109.764L56.1561 109.864L56.163 109.963L56.1699 110.034L56.1769 110.112L56.184 110.212L56.1911 110.311L56.1982 110.411L56.2055 110.51L56.2127 110.61L56.2201 110.709L56.2275 110.809L56.2349 110.881L56.2424 110.957L56.2499 111.057L56.2575 111.156L56.2652 111.256L56.2729 111.355L56.2806 111.454L56.2884 111.554L56.2963 111.653L56.3042 111.728L56.3122 111.802L56.3202 111.901L56.3283 112.001L56.3364 112.1L56.3446 112.199L56.3529 112.299L56.3611 112.398L56.3695 112.497L56.3779 112.575L56.3863 112.646L56.3948 112.745L56.4034 112.844L56.412 112.943L56.4207 113.043L56.4294 113.142L56.4382 113.241L56.447 113.34L56.4559 113.42L56.4648 113.489L56.4738 113.588L56.4828 113.687L56.4919 113.786L56.5011 113.885L56.5102 113.984L56.5195 114.084L56.5288 114.183L56.5382 114.265L56.5476 114.331L56.5571 114.43L56.5666 114.529L56.5762 114.628L56.5858 114.727L56.5955 114.826L56.6052 114.925L56.6149 115.024L56.6248 115.109L56.6347 115.172L56.6446 115.271L56.6546 115.37L56.6646 115.469L56.6748 115.568L56.6849 115.667L56.6951 115.766L56.7054 115.865L56.7157 115.952L56.726 116.013L56.7365 116.112L56.7469 116.211L56.7574 116.31L56.768 116.408L56.7786 116.507L56.7893 116.606L56.8 116.705L56.8108 116.794L56.8216 116.853L56.8325 116.951L56.8434 117.05L56.8544 117.149L56.8655 117.248L56.8766 117.346L56.8877 117.445L56.8989 117.544L56.9101 117.635L56.9215 117.691L56.9328 117.79L56.9442 117.889L56.9557 117.987L56.9671 118.086L56.9787 118.185L56.9903 118.283L57.002 118.382L57.0137 118.475L57.0255 118.529L57.0373 118.628L57.0492 118.726L57.0611 118.825L57.0731 118.923L57.0851 119.022L57.0971 119.12L57.1093 119.219L57.1215 119.315L57.1337 119.366L57.146 119.464L57.1583 119.563L57.1707 119.661L57.1831 119.759L57.1956 119.858L57.2082 119.956L57.2207 120.055L57.2333 120.153L57.2461 120.201L57.2588 120.3L57.2716 120.398L57.2845 120.496L57.2973 120.595L57.3103 120.693L57.3233 120.791L57.3363 120.889L57.3494 120.988L57.3626 121.038L57.3758 121.134L57.389 121.232L57.4023 121.33L57.4157 121.429L57.4291 121.527L57.4425 121.625L57.4561 121.723L57.4696 121.821L57.4832 121.874L57.4969 121.967L57.5106 122.065L57.5243 122.164L57.5382 122.262L57.552 122.36L57.5659 122.458L57.5799 122.556L57.5939 122.654L57.6079 122.709L57.6221 122.8L57.6362 122.897L57.6504 122.995L57.6647 123.093L57.679 123.191L57.6934 123.289L57.7078 123.387L57.7222 123.485L57.7368 123.542L57.7513 123.63L57.7659 123.728L57.7806 123.826L57.7953 123.924L57.8101 124.022L57.8249 124.119L57.8397 124.217L57.8547 124.315L57.8696 124.374L57.8846 124.46L57.8997 124.558L57.9148 124.656L57.9299 124.753L57.9452 124.851L57.9604 124.948L57.9757 125.046L57.9911 125.144L58.0065 125.205L58.0219 125.289L58.0375 125.386L58.053 125.484L58.0686 125.581L58.0843 125.679L58.0999 125.776L58.1157 125.874L58.1315 125.971L58.1474 126.035L58.1633 126.116L58.1792 126.213L58.1952 126.311L58.2113 126.408L58.2273 126.505L58.2435 126.603L58.2597 126.7L58.2759 126.797L58.2922 126.863L58.3086 126.942L58.3249 127.039L58.3414 127.136L58.3579 127.233L58.3744 127.33L58.391 127.428L58.4076 127.525L58.4243 127.622L58.441 127.69L58.4578 127.766L58.4746 127.863L58.4915 127.96L58.5084 128.057L58.5254 128.154L58.5424 128.251L58.5595 128.348L58.5766 128.445L58.5938 128.516L58.611 128.589L58.6283 128.686L58.6456 128.783L58.6629 128.88L58.6803 128.977L58.6978 129.073L58.7153 129.17L58.7328 129.267L58.7504 129.34L58.7681 129.411L58.7858 129.507L58.8035 129.604L58.8213 129.701L58.8391 129.798L58.857 129.894L58.8749 129.991L58.8929 130.088L58.9109 130.163L58.929 130.231L58.9471 130.327L58.9653 130.424L58.9835 130.521L59.0018 130.617L59.0201 130.714L59.0385 130.81L59.0568 130.907L59.0753 130.984L59.0938 131.049L59.1123 131.146L59.131 131.242L59.1496 131.339L59.1683 131.435L59.187 131.531L59.2058 131.628L59.2246 131.724L59.2435 131.804L59.2624 131.867L59.2814 131.963L59.3004 132.059L59.3195 132.155L59.3386 132.251L59.3578 132.348L59.3769 132.444L59.3962 132.54L59.4155 132.622L59.4348 132.682L59.4543 132.778L59.4737 132.874L59.4931 132.97L59.5127 133.066L59.5323 133.162L59.5519 133.258L59.5716 133.354L59.5913 133.439L59.611 133.496L59.6309 133.592L59.6507 133.688L59.6706 133.784L59.6906 133.88L59.7105 133.975L59.7306 134.071L59.7507 134.167L59.7708 134.254L59.791 134.309L59.8112 134.404L59.8315 134.5L59.8518 134.596L59.8722 134.691L59.8926 134.787L59.913 134.883L59.9335 134.978L59.9541 135.067L59.9747 135.119L59.9953 135.215L60.016 135.31L60.0367 135.406L60.0574 135.501L60.0783 135.597L60.0992 135.692L60.12 135.788L60.141 135.878L60.162 135.928L60.183 136.024L60.2042 136.119L60.2253 136.214L60.2465 136.31L60.2677 136.405L60.289 136.5L60.3103 136.595L60.3317 136.688L60.353 136.736L60.3745 136.831L60.396 136.926L60.4175 137.021L60.4391 137.116L60.4608 137.211L60.4824 137.306L60.5042 137.401L60.5259 137.496L60.5477 137.542L60.5696 137.636L60.5915 137.731L60.6134 137.826L60.6354 137.921L60.6574 138.016L60.6795 138.111L60.7017 138.206L60.7238 138.3L60.746 138.348L60.7683 138.44L60.7906 138.535L60.8129 138.629L60.8353 138.724L60.8577 138.819L60.8802 138.913L60.9028 139.008L60.9253 139.103L60.9479 139.152L60.9706 139.242L60.9932 139.336L61.016 139.431L61.0388 139.525L61.0616 139.62L61.0845 139.714L61.1074 139.809L61.1303 139.903L61.1534 139.955L61.1764 140.042L61.1995 140.136L61.2226 140.23L61.2458 140.325L61.269 140.419L61.2923 140.513L61.3156 140.608L61.339 140.702L61.3624 140.756L61.3858 140.84L61.4093 140.934L61.4328 141.028L61.4563 141.122L61.48 141.216L61.5036 141.311L61.5273 141.405L61.5511 141.499L61.5749 141.555L61.5987 141.636L61.6226 141.73L61.6465 141.824L61.6704 141.918L61.6944 142.012L61.7185 142.106L61.7425 142.2L61.7667 142.293L61.7908 142.352L61.8151 142.431L61.8393 142.525L61.8636 142.618L61.888 142.712L61.9124 142.806L61.9368 142.899L61.9612 142.993L61.9858 143.086L62.0103 143.147L62.0349 143.223L62.0595 143.317L62.0842 143.41L62.1089 143.504L62.1337 143.597L62.1585 143.691L62.1834 143.784L62.2083 143.877L62.2332 143.94L62.2582 144.014L62.2832 144.107L62.3082 144.201L62.3334 144.294L62.3585 144.387L62.3837 144.48L62.4089 144.573L62.4342 144.667L62.4595 144.732L62.4848 144.803L62.5102 144.896L62.5357 144.989L62.5612 145.082L62.5866 145.175L62.6122 145.268L62.6378 145.361L62.6634 145.454L62.6892 145.521L62.7149 145.589L62.7406 145.682L62.7665 145.775L62.7923 145.868L62.8182 145.961L62.8441 146.053L62.8701 146.146L62.8961 146.239L62.9222 146.308L62.9483 146.374L62.9744 146.467L63.0006 146.559L63.0268 146.652L63.0531 146.744L63.0794 146.837L63.1057 146.929L63.1321 147.022L63.1585 147.093L63.185 147.157L63.2115 147.249L63.2381 147.341L63.2646 147.434L63.2913 147.526L63.318 147.618L63.3446 147.711L63.3714 147.803L63.3982 147.877L63.425 147.937L63.4519 148.029L63.4788 148.121L63.5057 148.214L63.5328 148.306L63.5598 148.398L63.5868 148.49L63.614 148.582L63.6411 148.658L63.6683 148.716L63.6956 148.808L63.7228 148.899L63.7501 148.991L63.7775 149.083L63.8049 149.175L63.8323 149.267L63.8598 149.359L63.8873 149.437L63.9148 149.492L63.9425 149.584L63.9701 149.675L63.9977 149.767L64.0255 149.859L64.0532 149.95L64.081 150.042L64.1089 150.133L64.1367 150.214L64.1646 150.266L64.1926 150.358L64.2206 150.449L64.2486 150.541L64.2767 150.632L64.3048 150.723L64.3329 150.815L64.3611 150.906L64.3893 150.988L64.4176 151.038L64.4459 151.13L64.4742 151.221L64.5026 151.312L64.5311 151.403L64.5595 151.494L64.588 151.585L64.6166 151.676L64.6451 151.761L64.6737 151.808L64.7024 151.899L64.7311 151.99L64.7598 152.081L64.7886 152.172L64.8174 152.263L64.8462 152.354L64.8751 152.444L64.904 152.531L64.933 152.576L64.962 152.667L64.991 152.757L65.0201 152.848L65.0492 152.939L65.0784 153.029L65.1076 153.12L65.1368 153.21L65.1661 153.299L65.1954 153.341L65.2248 153.432L65.2541 153.522L65.2836 153.613L65.313 153.703L65.3425 153.794L65.3721 153.884L65.4016 153.974L65.4312 154.064L65.4609 154.106L65.4906 154.195L65.5203 154.285L65.5501 154.375L65.5799 154.465L65.6097 154.556L65.6396 154.646L65.6695 154.736L65.6994 154.826L65.7295 154.869L65.7595 154.956L65.7895 155.046L65.8196 155.136L65.8498 155.225L65.8799 155.315L65.9102 155.405L65.9404 155.495L65.9707 155.585L66.001 155.63L66.0314 155.714L66.0618 155.804L66.0922 155.893L66.1227 155.983L66.1532 156.073L66.1838 156.162L66.2143 156.252L66.245 156.341L66.2756 156.389L66.3063 156.47L66.3371 156.56L66.3678 156.649L66.3986 156.738L66.4295 156.828L66.4604 156.917L66.4913 157.006L66.5222 157.096L66.5532 157.145L66.5842 157.224L66.6153 157.313L66.6464 157.402L66.6775 157.492L66.7087 157.581L66.7399 157.67L66.7711 157.759L66.8025 157.848L66.8338 157.9L66.8651 157.976L66.8965 158.065L66.928 158.153L66.9594 158.242L66.9909 158.331L67.0225 158.42L67.054 158.509L67.0856 158.597L67.1173 158.651L67.1489 158.725L67.1807 158.813L67.2124 158.902L67.2442 158.991L67.276 159.079L67.3079 159.168L67.3397 159.256L67.3717 159.345L67.4037 159.401L67.4356 159.471L67.4677 159.56L67.4998 159.648L67.5319 159.737L67.564 159.825L67.5962 159.913L67.6284 160.001L67.6607 160.089L67.6929 160.148L67.7252 160.216L67.7576 160.304L67.79 160.392L67.8224 160.48L67.8549 160.568L67.8874 160.656L67.9199 160.744L67.9525 160.832L67.9851 160.892L68.0177 160.958L68.0504 161.046L68.0831 161.133L68.1158 161.221L68.1486 161.309L68.1814 161.397L68.2142 161.484L68.2472 161.572L68.2801 161.635L68.313 161.697L68.346 161.785L68.379 161.872L68.4121 161.96L68.4452 162.047L68.4783 162.135L68.5114 162.222L68.5446 162.31L68.5779 162.374L68.6111 162.434L68.6444 162.521L68.6777 162.609L68.7111 162.696L68.7445 162.783L68.7779 162.87L68.8114 162.958L68.8449 163.045L68.8784 163.111L68.912 163.169L68.9456 163.256L68.9792 163.343L69.0129 163.43L69.0466 163.517L69.0803 163.604L69.1141 163.69L69.1479 163.777L69.1817 163.846L69.2156 163.901L69.2495 163.987L69.2835 164.074L69.3174 164.161L69.3515 164.248L69.3855 164.334L69.4195 164.421L69.4537 164.507L69.4878 164.578L69.522 164.63L69.5562 164.717L69.5904 164.803L69.6247 164.89L69.659 164.976L69.6934 165.062L69.7277 165.149L69.7621 165.235L69.7966 165.308L69.831 165.357L69.8656 165.443L69.9001 165.53L69.9347 165.616L69.9693 165.702L70.0039 165.788L70.0386 165.874L70.0733 165.96L70.108 166.035L70.1428 166.082L70.1776 166.168L70.2124 166.253L70.2473 166.339L70.2822 166.425L70.3171 166.511L70.3521 166.597L70.3871 166.682L70.4221 166.76L70.4572 166.804L70.4923 166.889L70.5274 166.975L70.5626 167.06L70.5978 167.146L70.633 167.231L70.6682 167.317L70.7036 167.402L70.7389 167.482L70.7742 167.523L70.8096 167.608L70.845 167.693L70.8805 167.779L70.916 167.864L70.9515 167.949L70.987 168.034L71.0226 168.119L71.0582 168.201L71.0938 168.24L71.1295 168.325L71.1652 168.41L71.201 168.494L71.2367 168.579L71.2725 168.664L71.3084 168.749L71.3442 168.834L71.3801 168.918L71.4161 168.954L71.452 169.038L71.488 169.123L71.524 169.208L71.5601 169.292L71.5962 169.377L71.6323 169.461L71.6684 169.546L71.7046 169.63L71.7408 169.666L71.7771 169.749L71.8133 169.834L71.8496 169.918L71.886 170.002L71.9223 170.087L71.9587 170.171L71.9952 170.255L72.0316 170.34L72.0681 170.377L72.1046 170.458L72.1412 170.542L72.1778 170.626L72.2144 170.71L72.251 170.794L72.2877 170.878L72.3244 170.962L72.3611 171.046L72.3979 171.086L72.4347 171.164L72.4715 171.247L72.5084 171.331L72.5453 171.415L72.5822 171.499L72.6191 171.582L72.6561 171.666L72.6931 171.75L72.7302 171.792L72.7673 171.867L72.8044 171.95L72.8415 172.034L72.8786 172.117L72.9158 172.201L72.953 172.284L72.9903 172.367L73.0276 172.451L73.0649 172.495L73.1022 172.567L73.1396 172.65L73.177 172.733L73.2144 172.817L73.2519 172.9L73.2894 172.983L73.3269 173.066L73.3645 173.149L73.402 173.195L73.4397 173.265L73.4773 173.348L73.5149 173.43L73.5527 173.513L73.5904 173.596L73.6281 173.679L73.6659 173.762L73.7038 173.844L73.7416 173.893L73.7795 173.96L73.8174 174.042L73.8553 174.125L73.8933 174.207L73.9313 174.29L73.9693 174.372L74.0073 174.455L74.0454 174.537L74.0835 174.588L74.1217 174.652L74.1598 174.734L74.198 174.816L74.2363 174.898L74.2745 174.981L74.3128 175.063L74.3511 175.145L74.3895 175.227L74.4278 175.28L74.4662 175.341L74.5046 175.423L74.5431 175.505L74.5816 175.587L74.6201 175.669L74.6586 175.751L74.6972 175.832L74.7358 175.914L74.7744 175.969L74.8131 176.028L74.8518 176.109L74.8905 176.191L74.9292 176.273L74.968 176.354L75.0068 176.436L75.0456 176.517L75.0845 176.599L75.1233 176.656L75.1623 176.711L75.2012 176.793L75.2402 176.874L75.2791 176.955L75.3182 177.037L75.3572 177.118L75.3963 177.199L75.4354 177.28L75.4745 177.339L75.5137 177.392L75.5529 177.473L75.5921 177.554L75.6313 177.635L75.6706 177.716L75.7099 177.797L75.7492 177.878L75.7886 177.959L75.828 178.02L75.8674 178.071L75.9068 178.151L75.9463 178.232L75.9858 178.313L76.0253 178.393L76.0648 178.474L76.1044 178.554L76.144 178.635L76.1836 178.698L76.2233 178.746L76.263 178.826L76.3027 178.907L76.3424 178.987L76.3822 179.067L76.422 179.147L76.4618 179.228L76.5016 179.308L76.5415 179.373L76.5814 179.418L76.6213 179.498L76.6613 179.578L76.7012 179.658L76.7413 179.738L76.7813 179.818L76.8213 179.898L76.8614 179.978L76.9015 180.045L76.9417 180.088L76.9818 180.167L77.022 180.247L77.0622 180.327L77.1025 180.407L77.1428 180.486L77.1831 180.566L77.2234 180.645L77.2637 180.715L77.3041 180.754L77.3445 180.834L77.385 180.913L77.4254 180.993L77.4659 181.072L77.5064 181.151L77.5469 181.23L77.5875 181.31L77.6281 181.381L77.6687 181.418L77.7093 181.497L77.75 181.576L77.7906 181.655L77.8314 181.734L77.8721 181.813L77.9129 181.892L77.9537 181.971L77.9945 182.045L78.0353 182.079L78.0762 182.158L78.1171 182.236L78.158 182.315L78.199 182.394L78.2399 182.472L78.2809 182.551L78.3219 182.63L78.363 182.705L78.4041 182.737L78.4452 182.815L78.4863 182.894L78.5274 182.972L78.5686 183.05L78.6098 183.129L78.651 183.207L78.6923 183.285L78.7336 183.363L78.7748 183.392L78.8161 183.47L78.8575 183.548L78.8989 183.626L78.9403 183.704L78.9817 183.782L79.0232 183.86L79.0646 183.938L79.1061 184.016L79.1477 184.045L79.1892 184.121L79.2308 184.199L79.2724 184.277L79.314 184.355L79.3556 184.432L79.3973 184.51L79.439 184.587L79.4807 184.665L79.5224 184.697L79.5642 184.77L79.606 184.847L79.6478 184.925L79.6896 185.002L79.7315 185.079L79.7734 185.157L79.8153 185.234L79.8572 185.311L79.8992 185.345L79.9412 185.416L79.9832 185.493L80.0252 185.57L80.0673 185.647L80.1094 185.724L80.1515 185.801L80.1936 185.878L80.2357 185.954L80.2779 185.99L80.3201 186.058L80.3623 186.135L80.4046 186.212L80.4468 186.288L80.4891 186.365L80.5315 186.442L80.5738 186.518L80.6162 186.595L80.6586 186.633L80.701 186.698L80.7434 186.774L80.7859 186.851L80.8283 186.927L80.8708 187.003L80.9134 187.08L80.9559 187.156L80.9985 187.232L81.0411 187.272L81.0837 187.334L81.1263 187.41L81.169 187.486L81.2117 187.562L81.2544 187.638L81.2972 187.714L81.3399 187.79L81.3827 187.866L81.4255 187.908L81.4683 187.968L81.5112 188.044L81.5541 188.119L81.5969 188.195L81.6398 188.271L81.6828 188.346L81.7258 188.422L81.7687 188.497L81.8118 188.542L81.8548 188.598L81.8978 188.674L81.9409 188.749L81.984 188.824L82.0271 188.9L82.0703 188.975L82.1134 189.05L82.1566 189.125L82.1998 189.172L82.2431 189.226L82.2863 189.301L82.3296 189.376L82.3729 189.451L82.4162 189.526L82.4595 189.601L82.5029 189.675L82.5463 189.75L82.5897 189.799L82.6331 189.85L82.6766 189.925L82.72 189.999L82.7635 190.074L82.807 190.149L82.8506 190.223L82.8941 190.298L82.9377 190.372L82.9813 190.423L83.0249 190.471L83.0686 190.545L83.1122 190.62L83.156 190.694L83.1997 190.768L83.2434 190.843L83.2871 190.917L83.3309 190.991L83.3747 191.043L83.4185 191.089L83.4623 191.163L83.5062 191.237L83.5501 191.311L83.594 191.385L83.6379 191.459L83.6818 191.533L83.7258 191.607L83.7698 191.661L83.8138 191.704L83.8578 191.778L83.9019 191.852L83.9459 191.925L83.99 191.999L84.0341 192.072L84.0782 192.146L84.1224 192.219L84.1666 192.276L84.2108 192.316L84.255 192.389L84.2992 192.463L84.3434 192.536L84.3877 192.609L84.432 192.682L84.4763 192.755L84.5207 192.829L84.565 192.887L84.6094 192.925L84.6538 192.998L84.6982 193.071L84.7426 193.144L84.7871 193.216L84.8316 193.289L84.876 193.362L84.9206 193.435L84.9651 193.495L85.0096 193.53L85.0542 193.603L85.0988 193.675L85.1434 193.748L85.1881 193.821L85.2327 193.893L85.2774 193.965L85.3221 194.038L85.3668 194.101L85.4115 194.133L85.4563 194.205L85.5011 194.277L85.5458 194.349L85.5907 194.422L85.6355 194.494L85.6803 194.566L85.7252 194.638L85.7701 194.703L85.815 194.732L85.8599 194.804L85.9049 194.876L85.9498 194.947L85.9948 195.019L86.0398 195.091L86.0848 195.163L86.1299 195.235L86.1749 195.301L86.22 195.328L86.2651 195.399L86.3102 195.471L86.3554 195.542L86.4005 195.614L86.4457 195.685L86.4909 195.757L86.5361 195.828L86.5813 195.897L86.6266 195.921L86.6404 195.96L86.6357 195.982L86.6311 196.003L86.6264 196.024L86.6217 196.044L86.6171 196.065L86.6125 196.086L86.6079 196.107L86.6398 196.127L86.6487 196.148L86.6442 196.168L86.6397 196.189L86.6352 196.209L86.6307 196.229L86.6262 196.249L86.6218 196.269L86.6174 196.289L86.647 196.309L86.6586 196.329L86.6542 196.349L86.6498 196.368L86.6455 196.388L86.6412 196.407L86.6369 196.426L86.6326 196.446L86.6283 196.465L86.6558 196.484L86.6699 196.504L86.6656 196.523L86.6615 196.542L86.6573 196.56L86.6531 196.579L86.649 196.597L86.6449 196.616L86.6408 196.634L86.666 196.653L86.6827 196.672L86.6786 196.69L86.6746 196.708L86.6706 196.726L86.6666 196.744L86.6627 196.762L86.6587 196.78L86.6548 196.797L86.6777 196.816L86.697 196.834L86.6931 196.852L86.6892 196.869L86.6854 196.886L86.6816 196.903L86.6778 196.92L86.674 196.937L86.6703 196.954L86.691 196.972L86.7128 196.99L86.7091 197.007L86.7054 197.023L86.7017 197.04L86.6981 197.056L86.6944 197.072L86.6908 197.088L86.6873 197.104L86.7057 197.122L86.73 197.139L86.7265 197.155L86.723 197.171L86.7195 197.187L86.716 197.202L86.7126 197.218L86.7091 197.233L86.7057 197.248L86.7219 197.265L86.7488 197.282L86.7455 197.297L86.7421 197.312L86.7388 197.327L86.7355 197.342L86.7322 197.357L86.729 197.371L86.7257 197.386L86.7397 197.402L86.7691 197.418L86.7659 197.433L86.7627 197.447L86.7596 197.461L86.7565 197.475L86.7533 197.489L86.7502 197.503L86.7472 197.517L86.7589 197.532L86.7909 197.548L86.7879 197.562L86.7849 197.575L86.7818 197.589L86.7789 197.602L86.7759 197.615L86.773 197.628L86.7701 197.641L86.7796 197.655L86.8141 197.672L86.8113 197.684L86.8084 197.697L86.8056 197.71L86.8028 197.722L86.8 197.735L86.7973 197.747L86.7945 197.759L86.8018 197.773L86.8389 197.789L86.8362 197.801L86.8335 197.813L86.8309 197.825L86.8283 197.836L86.8257 197.848L86.8231 197.86L86.8205 197.871L86.8255 197.883L86.8651 197.899L86.8626 197.91L86.8601 197.922L86.8576 197.933L86.8552 197.944L86.8527 197.955L86.8503 197.966L86.8479 197.976L86.8507 197.988L86.8929 198.003L86.8905 198.014L86.8882 198.024L86.8859 198.034L86.8836 198.045L86.8813 198.055L86.8791 198.065L86.8768 198.075L86.8774 198.085L86.9221 198.101L86.9199 198.11L86.9177 198.12L86.9156 198.13L86.9135 198.139L86.9114 198.149L86.9093 198.158L86.9072 198.167L86.9056 198.176L86.9527 198.192L86.9507 198.201L86.9487 198.21L86.9468 198.218L86.9448 198.227L86.9429 198.236L86.941 198.244L86.9391 198.253L86.9372 198.261L86.983 198.276L86.9831 198.284L86.9813 198.293L86.9795 198.301L86.9777 198.309L86.9759 198.317L86.9742 198.324L86.9725 198.332L86.9708 198.34L87.0143 198.354L87.0169 198.362L87.0153 198.369L87.0136 198.376L87.012 198.384L87.0105 198.391L87.0089 198.398L87.0074 198.405L87.0058 198.411L87.047 198.425L87.0522 198.433L87.0508 198.439L87.0493 198.446L87.0479 198.452L87.0465 198.458L87.0451 198.465L87.0437 198.471L87.0423 198.477L87.0813 198.489L87.089 198.497L87.0877 198.503L87.0864 198.508L87.0852 198.514L87.0839 198.52L87.0827 198.525L87.0815 198.53L87.0803 198.536L87.117 198.547L87.1273 198.554L87.1261 198.56L87.125 198.565L87.1239 198.569L87.1229 198.574L87.1218 198.579L87.1208 198.584L87.1198 198.588L87.1542 198.599L87.167 198.606L87.1661 198.61L87.1651 198.614L87.1642 198.618L87.1633 198.622L87.1624 198.626L87.1615 198.63L87.1607 198.634L87.1929 198.644L87.2082 198.65L87.2074 198.654L87.2067 198.657L87.2059 198.661L87.2052 198.664L87.2045 198.667L87.2038 198.67L87.2031 198.673L87.2331 198.682L87.2509 198.689L87.2503 198.691L87.2497 198.694L87.2491 198.697L87.2486 198.699L87.248 198.702L87.2475 198.704L87.247 198.706L87.2747 198.714L87.2951 198.72L87.2946 198.722L87.2942 198.724L87.2938 198.726L87.2934 198.728L87.293 198.729L87.2927 198.731L87.2924 198.732L87.3179 198.739L87.3407 198.745L87.3404 198.747L87.3402 198.748L87.3399 198.749L87.3396 198.751L87.3392 198.752L87.3625 198.758L87.3878 198.764L87.3876 198.765L87.2947 198.753L87.2171 198.744L87.1461 198.736L87.0475 198.722L86.9488 198.708L86.8502 198.694L86.7516 198.68L86.653 198.666L86.5544 198.651L86.4559 198.637L86.376 198.626L86.3074 198.619L86.2089 198.604L86.1104 198.589L86.0119 198.574L85.9134 198.559L85.8149 198.544L85.7164 198.529L85.618 198.513L85.5358 198.502L85.4697 198.494L85.3713 198.479L85.2729 198.463L85.1745 198.447L85.0762 198.431L84.9778 198.416L84.8795 198.399L84.7812 198.383L84.6968 198.371L84.633 198.363L84.5348 198.347L84.4365 198.33L84.3383 198.313L84.2401 198.297L84.1418 198.28L84.0436 198.263L83.9455 198.246L83.8589 198.232L83.7975 198.224L83.6994 198.207L83.6012 198.19L83.5031 198.172L83.4051 198.155L83.307 198.137L83.2089 198.12L83.1109 198.102L83.0221 198.086L82.9631 198.079L82.8651 198.061L82.7672 198.043L82.6692 198.025L82.5712 198.006L82.4733 197.988L82.3754 197.969L82.2775 197.951L82.1865 197.934L82.13 197.926L82.0321 197.908L81.9343 197.889L81.8365 197.87L81.7387 197.85L81.641 197.831L81.5432 197.812L81.4455 197.792L81.3523 197.774L81.2981 197.767L81.2004 197.747L81.1028 197.727L81.0051 197.708L80.9075 197.688L80.8099 197.668L80.7123 197.647L80.6147 197.627L80.5194 197.607L80.4676 197.6L80.3701 197.58L80.2726 197.559L80.1751 197.539L80.0777 197.518L79.9802 197.497L79.8828 197.476L79.7854 197.455L79.688 197.434L79.6384 197.427L79.5411 197.406L79.4438 197.384L79.3465 197.363L79.2492 197.341L79.152 197.319L79.0548 197.297L78.9575 197.275L78.8604 197.254L78.8085 197.246L78.7137 197.224L78.6166 197.202L78.5194 197.18L78.4223 197.157L78.3253 197.135L78.2282 197.112L78.1312 197.089L78.0342 197.066L77.9801 197.057L77.8878 197.036L77.7908 197.013L77.6939 196.99L77.597 196.966L77.5001 196.943L77.4033 196.92L77.3064 196.896L77.2096 196.872L77.1533 196.862L77.0635 196.841L76.9667 196.817L76.87 196.793L76.7733 196.769L76.6766 196.745L76.5799 196.72L76.4833 196.696L76.3867 196.671L76.3282 196.66L76.2408 196.638L76.1442 196.614L76.0477 196.589L75.9512 196.564L75.8547 196.539L75.7583 196.514L75.6618 196.489L75.5654 196.464L75.5048 196.451L75.4199 196.429L75.3235 196.404L75.2272 196.378L75.1309 196.352L75.0346 196.327L74.9383 196.301L74.8421 196.275L74.7459 196.249L74.6832 196.235L74.6006 196.213L74.5045 196.187L74.4084 196.16L74.3123 196.134L74.2163 196.107L74.1202 196.081L74.0243 196.054L73.9283 196.027L73.8634 196.011L73.7833 195.99L73.6874 195.963L73.5915 195.936L73.4956 195.908L73.3998 195.881L73.304 195.854L73.2083 195.826L73.1125 195.798L73.0455 195.781L72.9678 195.76L72.8722 195.732L72.7765 195.704L72.6809 195.676L72.5853 195.648L72.4897 195.62L72.3942 195.591L72.2987 195.563L72.2295 195.544L72.1543 195.523L72.0589 195.495L71.9635 195.466L71.8681 195.437L71.7727 195.408L71.6774 195.379L71.5821 195.349L71.4868 195.32L71.4156 195.3L71.3428 195.28L71.2476 195.25L71.1524 195.22L71.0573 195.191L70.9622 195.161L70.8671 195.131L70.772 195.101L70.677 195.071L70.6038 195.049L70.5334 195.029L70.4384 194.999L70.3435 194.968L70.2486 194.938L70.1538 194.907L70.0589 194.876L69.9641 194.846L69.8694 194.815L69.7941 194.792L69.7261 194.772L69.6314 194.741L69.5367 194.709L69.4421 194.678L69.3475 194.647L69.2529 194.615L69.1584 194.583L69.0639 194.552L68.9865 194.527L68.9209 194.508L68.8265 194.476L68.7321 194.444L68.6377 194.411L68.5434 194.379L68.4491 194.347L68.3548 194.314L68.2606 194.282L68.1813 194.256L68.118 194.236L68.0238 194.204L67.9297 194.171L67.8356 194.138L67.7416 194.105L67.6475 194.072L67.5535 194.039L67.4596 194.005L67.3783 193.977L67.3174 193.959L67.2235 193.925L67.1297 193.892L67.0359 193.858L66.942 193.824L66.8483 193.79L66.7546 193.756L66.6609 193.722L66.5777 193.692L66.5191 193.674L66.4255 193.64L66.332 193.605L66.2384 193.571L66.1449 193.536L66.0515 193.501L65.9581 193.467L65.8646 193.432L65.7795 193.401L65.7233 193.383L65.63 193.348L65.5367 193.312L65.4435 193.277L65.3503 193.242L65.2571 193.206L65.164 193.171L65.0709 193.135L64.9838 193.102L64.9299 193.085L64.8369 193.049L64.7439 193.013L64.651 192.977L64.5581 192.94L64.4652 192.904L64.3724 192.868L64.2796 192.831L64.1906 192.797L64.1391 192.78L64.0463 192.743L63.9537 192.706L63.861 192.67L63.7684 192.633L63.6759 192.596L63.5833 192.558L63.4909 192.521L63.4 192.485L63.3508 192.469L63.2584 192.431L63.166 192.394L63.0737 192.356L62.9814 192.318L62.8892 192.28L62.797 192.242L62.7048 192.204L62.6126 192.166L62.5647 192.15L62.4731 192.112L62.381 192.074L62.289 192.035L62.197 191.997L62.1051 191.958L62.0132 191.92L61.9214 191.881L61.8296 191.842L61.7796 191.824L61.6905 191.787L61.5987 191.748L61.5071 191.708L61.4154 191.669L61.3238 191.63L61.2322 191.59L61.1407 191.551L61.0492 191.511L60.9972 191.492L60.9106 191.455L60.8192 191.415L60.7278 191.375L60.6365 191.335L60.5453 191.294L60.454 191.254L60.3628 191.214L60.2717 191.173L60.2178 191.153L60.1335 191.116L60.0425 191.075L59.9515 191.035L59.8605 190.994L59.7695 190.953L59.6786 190.912L59.5878 190.871L59.497 190.829L59.4411 190.807L59.3593 190.771L59.2686 190.729L59.1779 190.688L59.0873 190.646L58.9967 190.604L58.9062 190.563L58.8157 190.521L58.7252 190.479L58.6674 190.455L58.588 190.419L58.4977 190.377L58.4074 190.334L58.3171 190.292L58.2268 190.25L58.1366 190.207L58.0465 190.164L57.9564 190.122L57.8967 190.096L57.8197 190.061L57.7297 190.018L57.6398 189.975L57.5498 189.932L57.4599 189.888L57.3701 189.845L57.2803 189.802L57.1905 189.758L57.1291 189.731L57.0545 189.696L56.9648 189.652L56.8752 189.608L56.7857 189.565L56.6961 189.521L56.6067 189.477L56.5172 189.432L56.4278 189.388L56.3645 189.359L56.2923 189.325L56.203 189.28L56.1137 189.236L56.0246 189.191L55.9354 189.146L55.8463 189.102L55.7572 189.057L55.6682 189.012L55.6031 188.981L55.5332 188.947L55.4443 188.902L55.3554 188.857L55.2666 188.811L55.1778 188.766L55.0891 188.72L55.0004 188.675L54.9118 188.629L54.8448 188.596L54.7773 188.563L54.6888 188.517L54.6003 188.471L54.5118 188.425L54.4235 188.379L54.3351 188.333L54.2468 188.286L54.1586 188.24L54.0899 188.205L54.0247 188.173L53.9365 188.126L53.8484 188.079L53.7604 188.033L53.6724 187.986L53.5844 187.939L53.4965 187.891L53.4087 187.844L53.3382 187.808L53.2753 187.776L53.1876 187.729L53.0998 187.681L53.0122 187.634L52.9246 187.586L52.837 187.538L52.7495 187.49L52.6621 187.442L52.5899 187.404L52.5293 187.373L52.4419 187.325L52.3546 187.277L52.2674 187.228L52.1802 187.18L52.093 187.132L52.0059 187.083L51.9189 187.034L51.845 186.994L51.7867 186.964L51.6997 186.915L51.6128 186.866L51.526 186.817L51.4392 186.768L51.3524 186.719L51.2657 186.669L51.1791 186.62L51.1036 186.578L51.0475 186.548L50.961 186.499L50.8745 186.449L50.788 186.399L50.7017 186.349L50.6153 186.299L50.529 186.249L50.4428 186.199L50.3657 186.155L50.3118 186.127L50.2257 186.076L50.1396 186.026L50.0536 185.975L49.9676 185.925L49.8817 185.874L49.7958 185.823L49.71 185.773L49.6313 185.726L49.5797 185.699L49.494 185.648L49.4083 185.597L49.3227 185.545L49.2372 185.494L49.1517 185.443L49.0662 185.391L48.9809 185.34L48.9005 185.291L48.8511 185.265L48.7659 185.213L48.6806 185.161L48.5955 185.109L48.5104 185.057L48.4253 185.005L48.3403 184.953L48.2553 184.901L48.1734 184.85L48.1262 184.825L48.0414 184.772L47.9566 184.72L47.8719 184.667L47.7872 184.614L47.7026 184.561L47.618 184.509L47.5335 184.456L47.4501 184.403L47.405 184.379L47.3207 184.325L47.2363 184.272L47.152 184.219L47.0678 184.165L46.9836 184.112L46.8995 184.058L46.8154 184.004L46.7314 183.951L46.6868 183.926L46.6037 183.873L46.5198 183.819L46.436 183.764L46.3521 183.71L46.2684 183.656L46.1848 183.602L46.1011 183.547L46.0175 183.493L45.9712 183.466L45.8905 183.414L45.807 183.359L45.7237 183.304L45.6403 183.249L45.557 183.194L45.4738 183.139L45.3906 183.084L45.3075 183.029L45.2595 183L45.1811 182.949L45.0982 182.893L45.0152 182.838L44.9324 182.782L44.8495 182.727L44.7668 182.671L44.6841 182.615L44.6014 182.559L44.5517 182.529L44.4757 182.478L44.3932 182.422L44.3107 182.366L44.2283 182.309L44.146 182.253L44.0637 182.197L43.9814 182.14L43.8993 182.084L43.8479 182.051L43.7742 182.001L43.6922 181.944L43.6102 181.888L43.5283 181.831L43.4464 181.774L43.3645 181.716L43.2827 181.659L43.2011 181.602L43.1482 181.568L43.0767 181.519L42.9952 181.461L42.9136 181.404L42.8321 181.346L42.7508 181.288L42.6694 181.23L42.5881 181.173L42.5069 181.115L42.4524 181.078L42.3833 181.03L42.3022 180.972L42.2211 180.914L42.1402 180.855L42.0592 180.797L41.9784 180.739L41.8976 180.68L41.8168 180.621L41.7608 180.583L41.6939 180.536L41.6133 180.477L41.5327 180.418L41.4523 180.359L41.3718 180.3L41.2914 180.241L41.2111 180.182L41.1308 180.123L41.0733 180.082L41.0087 180.036L40.9286 179.976L40.8485 179.917L40.7685 179.857L40.6886 179.798L40.6087 179.738L40.5289 179.678L40.4491 179.618L40.3901 179.576L40.3276 179.53L40.248 179.47L40.1685 179.41L40.0889 179.35L40.0095 179.289L39.9301 179.229L39.8508 179.168L39.7716 179.108L39.7111 179.063L39.6508 179.019L39.5717 178.958L39.4927 178.897L39.4137 178.836L39.3347 178.775L39.2559 178.714L39.177 178.653L39.0983 178.592L39.0364 178.545L38.9783 178.502L38.8997 178.44L38.8212 178.379L38.7427 178.317L38.6642 178.256L38.5859 178.194L38.5075 178.132L38.4293 178.07L38.366 178.021L38.3101 177.979L38.232 177.917L38.154 177.855L38.076 177.793L37.9981 177.73L37.9202 177.668L37.8424 177.605L37.7647 177.543L37.7001 177.492L37.6463 177.451L37.5687 177.388L37.4912 177.325L37.4137 177.263L37.3363 177.199L37.259 177.136L37.1817 177.073L37.1045 177.01L37.0385 176.957L36.9868 176.917L36.9098 176.854L36.8328 176.79L36.7558 176.727L36.679 176.663L36.6022 176.599L36.5254 176.536L36.4488 176.472L36.3815 176.417L36.3319 176.378L36.2554 176.314L36.1789 176.25L36.1025 176.186L36.0261 176.121L35.9499 176.057L35.8737 175.993L35.7975 175.928L35.729 175.871L35.6815 175.833L35.6054 175.769L35.5295 175.704L35.4537 175.639L35.3778 175.574L35.3021 175.509L35.2264 175.444L35.1508 175.379L35.081 175.319L35.0356 175.283L34.9601 175.218L34.8847 175.153L34.8094 175.087L34.7341 175.022L34.6589 174.956L34.5838 174.89L34.5087 174.824L34.4377 174.763L34.3942 174.728L34.3193 174.662L34.2445 174.596L34.1697 174.53L34.095 174.464L34.0203 174.397L33.9457 174.331L33.8712 174.265L33.799 174.2L33.7576 174.167L33.6832 174.1L33.6089 174.034L33.5347 173.967L33.4605 173.9L33.3864 173.833L33.3123 173.766L33.2384 173.699L33.1651 173.633L33.1256 173.601L33.0517 173.534L32.9781 173.466L32.9044 173.399L32.8307 173.332L32.7572 173.264L32.6837 173.197L32.6103 173.129L32.537 173.061L32.4973 173.028L32.4251 172.962L32.3519 172.894L32.2788 172.826L32.2057 172.758L32.1328 172.69L32.0599 172.622L31.987 172.553L31.9142 172.485L31.8731 172.45L31.8032 172.385L31.7306 172.316L31.658 172.247L31.5855 172.179L31.5131 172.11L31.4407 172.041L31.3685 171.972L31.2962 171.904L31.2538 171.867L31.1861 171.802L31.114 171.733L31.042 171.664L30.9701 171.595L30.8983 171.525L30.8265 171.456L30.7548 171.386L30.6831 171.317L30.6394 171.278L30.5738 171.215L30.5023 171.145L30.4309 171.075L30.3596 171.005L30.2883 170.935L30.2171 170.865L30.146 170.795L30.075 170.725L30.0299 170.684L29.9665 170.622L29.8956 170.552L29.8248 170.481L29.754 170.411L29.6833 170.34L29.6127 170.27L29.5421 170.199L29.4717 170.129L29.4254 170.085L29.3641 170.024L29.2938 169.953L29.2236 169.883L29.1534 169.811L29.0832 169.74L29.0133 169.669L28.9433 169.598L28.8734 169.527L28.826 169.481L28.7667 169.422L28.6969 169.35L28.6273 169.279L28.5578 169.207L28.4882 169.135L28.4188 169.064L28.3494 168.992L28.2801 168.92L28.2315 168.872L28.1743 168.814L28.1052 168.742L28.0361 168.67L27.9672 168.598L27.8983 168.525L27.8294 168.453L27.7607 168.381L27.692 168.308L27.6422 168.258L27.587 168.201L27.5185 168.129L27.4501 168.056L27.3817 167.983L27.3134 167.911L27.2452 167.838L27.177 167.765L27.1089 167.692L27.058 167.639L27.0049 167.584L26.937 167.511L26.8691 167.438L26.8013 167.364L26.7336 167.291L26.666 167.217L26.5984 167.144L26.531 167.07L26.479 167.015L26.4278 166.962L26.3605 166.888L26.2933 166.814L26.2261 166.74L26.1591 166.666L26.092 166.592L26.0251 166.518L25.9582 166.444L25.9052 166.387L25.856 166.335L25.7894 166.26L25.7227 166.186L25.6562 166.111L25.5897 166.037L25.5233 165.962L25.457 165.888L25.3908 165.813L25.3367 165.754L25.2895 165.703L25.2234 165.628L25.1574 165.553L25.0915 165.478L25.0256 165.403L24.9598 165.328L24.8941 165.253L24.8285 165.177L24.7735 165.116L24.7282 165.066L24.6627 164.991L24.5973 164.915L24.532 164.84L24.4668 164.764L24.4017 164.688L24.3366 164.613L24.2716 164.537L24.2156 164.473L24.1722 164.425L24.1074 164.349L24.0426 164.273L23.978 164.197L23.9134 164.121L23.8489 164.044L23.7844 163.968L23.72 163.892L23.6632 163.825L23.6216 163.779L23.5574 163.702L23.4933 163.626L23.4293 163.549L23.3653 163.473L23.3014 163.396L23.2377 163.319L23.1739 163.242L23.1161 163.173L23.0764 163.128L23.0129 163.051L22.9494 162.974L22.886 162.897L22.8227 162.82L22.7594 162.743L22.6963 162.665L22.6332 162.588L22.5746 162.517L22.5366 162.473L22.4737 162.396L22.411 162.318L22.3482 162.241L22.2855 162.163L22.2229 162.085L22.1604 162.007L22.0979 161.929L22.0386 161.855L22.0024 161.814L21.9401 161.736L21.878 161.658L21.8158 161.579L21.7538 161.501L21.6919 161.423L21.63 161.344L21.5682 161.266L21.5081 161.19L21.4736 161.15L21.412 161.071L21.3505 160.993L21.289 160.914L21.2276 160.835L21.1664 160.756L21.1051 160.677L21.044 160.598L20.9831 160.52L20.9504 160.481L20.8895 160.402L20.8286 160.323L20.7678 160.244L20.7071 160.165L20.6464 160.085L20.5859 160.006L20.5254 159.926L20.465 159.847L20.4316 159.807L20.3726 159.729L20.3123 159.649L20.2522 159.57L20.1922 159.49L20.1322 159.41L20.0722 159.33L20.0125 159.25L19.9527 159.17L19.9183 159.128L19.8613 159.051L19.8017 158.971L19.7422 158.891L19.6829 158.811L19.6236 158.73L19.5643 158.65L19.5052 158.57L19.4461 158.489L19.4108 158.444L19.3556 158.37L19.2968 158.289L19.238 158.208L19.1793 158.127L19.1207 158.047L19.0621 157.966L19.0036 157.885L18.9452 157.804L18.909 157.757L18.8558 157.684L18.7976 157.602L18.7395 157.521L18.6814 157.44L18.6235 157.359L18.5656 157.277L18.5078 157.196L18.4501 157.114L18.413 157.065L18.3617 156.993L18.3041 156.912L18.2467 156.83L18.1894 156.748L18.132 156.666L18.0749 156.584L18.0178 156.503L17.9607 156.421L17.9228 156.369L17.8734 156.299L17.8165 156.217L17.7597 156.135L17.7031 156.052L17.6465 155.97L17.59 155.888L17.5336 155.805L17.4772 155.723L17.4385 155.669L17.3909 155.6L17.3347 155.518L17.2787 155.435L17.2227 155.352L17.1668 155.27L17.111 155.187L17.0552 155.104L16.9996 155.021L16.9601 154.965L16.9143 154.898L16.8588 154.815L16.8035 154.732L16.7481 154.648L16.693 154.565L16.6379 154.482L16.5828 154.399L16.5279 154.315L16.4876 154.256L16.4436 154.191L16.3888 154.108L16.3342 154.024L16.2796 153.941L16.2251 153.857L16.1707 153.773L16.1163 153.689L16.0621 153.605L16.0211 153.544L15.9788 153.481L15.9248 153.397L15.8708 153.313L15.8169 153.229L15.7631 153.145L15.7094 153.06L15.6558 152.976L15.6022 152.892L15.5606 152.828L15.5201 152.766L15.4668 152.682L15.4134 152.598L15.3603 152.513L15.3072 152.428L15.2541 152.344L15.2013 152.259L15.1484 152.174L15.1061 152.108L15.0673 152.048L15.0147 151.963L14.9621 151.878L14.9097 151.793L14.8573 151.708L14.805 151.623L14.7528 151.538L14.7007 151.453L14.6578 151.384L14.6207 151.326L14.5687 151.241L14.5169 151.155L14.4652 151.07L14.4135 150.985L14.3619 150.899L14.3104 150.813L14.259 150.728L14.2156 150.657L14.1801 150.6L14.1289 150.515L14.0777 150.429L14.0267 150.343L13.9758 150.257L13.9249 150.171L13.8742 150.085L13.8234 149.999L13.7795 149.925L13.7457 149.871L13.6952 149.785L13.6447 149.698L13.5945 149.612L13.5442 149.526L13.4941 149.439L13.4441 149.353L13.3941 149.266L13.3497 149.19L13.3174 149.138L13.2676 149.051L13.2179 148.964L13.1684 148.878L13.1189 148.791L13.0695 148.704L13.0201 148.617L12.9709 148.53L12.926 148.452L12.8953 148.401L12.8463 148.314L12.7974 148.227L12.7485 148.14L12.6997 148.053L12.6511 147.965L12.6024 147.878L12.554 147.791L12.5087 147.71L12.4794 147.661L12.4311 147.573L12.383 147.486L12.3348 147.398L12.2868 147.311L12.2389 147.223L12.191 147.135L12.1433 147.048L12.0977 146.964L12.0699 146.917L12.0223 146.829L11.9749 146.741L11.9275 146.653L11.8802 146.565L11.833 146.477L11.7859 146.389L11.7389 146.301L11.6929 146.215L11.6666 146.17L11.6199 146.081L11.5731 145.993L11.5265 145.905L11.48 145.816L11.4335 145.728L11.3871 145.639L11.3409 145.551L11.2947 145.462L11.2696 145.419L11.2237 145.33L11.1777 145.242L11.1318 145.153L11.0861 145.064L11.0403 144.975L10.9947 144.886L10.9492 144.797L10.9037 144.709L10.8781 144.663L10.8339 144.576L10.7887 144.487L10.7435 144.398L10.6985 144.309L10.6536 144.219L10.6087 144.13L10.5639 144.041L10.5192 143.951L10.4931 143.903L10.4505 143.818L10.4061 143.729L10.3617 143.639L10.3174 143.55L10.2732 143.46L10.2292 143.37L10.1851 143.281L10.1412 143.191L10.1145 143.14L10.0736 143.057L10.0299 142.967L9.98631 142.878L9.94277 142.788L9.89932 142.698L9.85602 142.608L9.81273 142.518L9.76957 142.427L9.74233 142.374L9.70314 142.293L9.66022 142.203L9.61737 142.113L9.5746 142.022L9.53195 141.932L9.48938 141.842L9.44687 141.751L9.40448 141.661L9.37677 141.605L9.3392 141.526L9.29708 141.435L9.25496 141.345L9.21298 141.254L9.17111 141.163L9.12925 141.073L9.08755 140.982L9.04595 140.891L9.01778 140.833L8.9818 140.756L8.94046 140.665L8.89911 140.574L8.85788 140.483L8.8168 140.392L8.77572 140.3L8.73478 140.209L8.69396 140.118L8.66541 140.058L8.63101 139.982L8.59039 139.891L8.54984 139.799L8.50941 139.708L8.46905 139.617L8.42878 139.525L8.38862 139.434L8.34856 139.342L8.31968 139.279L8.28684 139.206L8.24694 139.114L8.20719 139.022L8.16756 138.931L8.12794 138.839L8.08848 138.747L8.04912 138.655L8.00975 138.564L7.98061 138.498L7.94926 138.426L7.91016 138.334L7.87117 138.242L7.83233 138.15L7.7935 138.058L7.7548 137.966L7.71623 137.874L7.67767 137.782L7.64827 137.714L7.61834 137.644L7.58004 137.552L7.54186 137.46L7.50376 137.367L7.46574 137.275L7.42784 137.182L7.39003 137.09L7.35229 136.997L7.32264 136.927L7.29411 136.859L7.25662 136.767L7.21925 136.674L7.18189 136.581L7.14469 136.489L7.1076 136.396L7.0705 136.303L7.03362 136.21L7.00378 136.137L6.97664 136.071L6.93991 135.979L6.90335 135.886L6.86679 135.793L6.83037 135.7L6.79408 135.606L6.75779 135.513L6.72167 135.42L6.69169 135.345L6.6659 135.281L6.63002 135.188L6.5942 135.094L6.55847 135.001L6.52285 134.908L6.48731 134.814L6.45187 134.721L6.41653 134.628L6.38641 134.549L6.36197 134.488L6.3269 134.394L6.29182 134.301L6.25693 134.207L6.22213 134.113L6.18732 134.02L6.15273 133.926L6.11819 133.832L6.08796 133.752L6.06482 133.692L6.03056 133.598L5.9963 133.504L5.96219 133.411L5.9282 133.317L5.89421 133.223L5.8604 133.129L5.82668 133.035L5.79643 132.951L5.77457 132.894L5.74104 132.8L5.70763 132.706L5.67433 132.611L5.6411 132.517L5.60798 132.423L5.57495 132.329L5.54201 132.234L5.51182 132.148L5.49117 132.093L5.45841 131.999L5.42585 131.904L5.39335 131.81L5.36086 131.715L5.32861 131.621L5.2964 131.526L5.26419 131.432L5.23411 131.343L5.21463 131.29L5.1827 131.195L5.15091 131.101L5.11926 131.006L5.08761 130.911L5.05612 130.816L5.02474 130.721L4.99339 130.626L4.96335 130.536L4.94499 130.485L4.91394 130.39L4.88296 130.295L4.85205 130.2L4.82129 130.105L4.79059 130.009L4.75998 129.914L4.7295 129.819L4.69956 129.726L4.6823 129.677L4.65208 129.582L4.62194 129.486L4.5918 129.391L4.5619 129.296L4.53203 129.2L4.50217 129.105L4.47257 129.009L4.44298 128.914L4.42646 128.866L4.39719 128.771L4.36788 128.676L4.3386 128.58L4.30946 128.485L4.28042 128.389L4.25145 128.293L4.2226 128.198L4.19384 128.102L4.17717 128.052L4.14934 127.959L4.12078 127.863L4.0924 127.767L4.06405 127.671L4.0358 127.575L4.00771 127.48L3.97965 127.384L3.95168 127.288L3.93492 127.235L3.90849 127.144L3.88072 127.048L3.85318 126.952L3.82568 126.856L3.79821 126.76L3.77097 126.664L3.74376 126.568L3.71658 126.471L3.69971 126.416L3.67465 126.327L3.64777 126.231L3.62099 126.135L3.59433 126.039L3.56776 125.942L3.54127 125.846L3.51488 125.749L3.48861 125.653L3.47165 125.595L3.44785 125.509L3.42188 125.412L3.39591 125.316L3.37002 125.219L3.34434 125.123L3.31866 125.026L3.29309 124.929L3.26769 124.833L3.25069 124.772L3.22818 124.688L3.20302 124.591L3.1779 124.495L3.15286 124.398L3.12799 124.301L3.10315 124.204L3.07841 124.107L3.05384 124.011L3.03684 123.948L3.01566 123.866L2.99125 123.769L2.96698 123.672L2.94283 123.575L2.91873 123.478L2.89474 123.381L2.87089 123.284L2.84708 123.187L2.83016 123.121L2.81023 123.041L2.78666 122.944L2.7632 122.847L2.73992 122.75L2.71664 122.653L2.69349 122.555L2.67049 122.458L2.6475 122.361L2.6307 122.293L2.61192 122.215L2.58921 122.118L2.5666 122.02L2.54412 121.923L2.52169 121.826L2.49939 121.728L2.47721 121.631L2.45507 121.533L2.43844 121.463L2.42075 121.387L2.3989 121.29L2.37718 121.192L2.35547 121.095L2.33393 120.997L2.3125 120.899L2.29108 120.802L2.26986 120.704L2.25339 120.631L2.23681 120.558L2.21578 120.46L2.19492 120.362L2.17406 120.265L2.15335 120.167L2.13277 120.069L2.11219 119.971L2.0918 119.873L2.07555 119.798L2.06004 119.727L2.0399 119.629L2.01983 119.531L1.99984 119.433L1.97998 119.335L1.96021 119.237L1.94053 119.139L1.92096 119.041L1.90494 118.963L1.89052 118.894L1.87122 118.796L1.85193 118.698L1.83285 118.6L1.81385 118.502L1.79484 118.404L1.77609 118.306L1.75737 118.207L1.74159 118.127L1.72818 118.06L1.70975 117.962L1.69133 117.864L1.67307 117.766L1.65492 117.667L1.6368 117.569L1.61884 117.471L1.60099 117.372L1.58559 117.289L1.57315 117.225L1.55549 117.127L1.53799 117.028L1.52056 116.93L1.50321 116.831L1.48602 116.733L1.46888 116.634L1.45183 116.536L1.43687 116.45L1.42534 116.388L1.40849 116.29L1.39188 116.191L1.37531 116.093L1.35876 115.994L1.34246 115.895L1.32618 115.797L1.30994 115.698L1.29543 115.61L1.28477 115.55L1.26884 115.452L1.253 115.353L1.2373 115.254L1.22168 115.155L1.20614 115.057L1.19073 114.958L1.17542 114.859L1.16129 114.769L1.15145 114.711L1.13645 114.612L1.12148 114.513L1.10654 114.415L1.09185 114.316L1.07716 114.217L1.06256 114.118L1.04816 114.019L1.0345 113.926L1.0255 113.871L1.01132 113.772L0.997208 113.673L0.983165 113.574L0.969285 113.475L0.955465 113.376L0.941727 113.277L0.928154 113.178L0.91504 113.082L0.906868 113.029L0.893486 112.93L0.880212 112.831L0.8671 112.732L0.854005 112.633L0.841042 112.534L0.828236 112.435L0.81543 112.336L0.802926 112.238L0.795513 112.187L0.782997 112.088L0.77054 111.989L0.758316 111.889L0.74609 111.79L0.733956 111.691L0.722022 111.592L0.710086 111.492L0.698279 111.393L0.691329 111.343L0.679794 111.244L0.668265 111.145L0.656812 111.046L0.645458 110.946L0.634242 110.847L0.623093 110.748L0.612043 110.648L0.601125 110.549L0.594408 110.496L0.583914 110.4L0.573288 110.301L0.56266 110.201L0.552176 110.102L0.541836 110.002L0.531501 109.903L0.521343 109.803L0.511297 109.704L0.504849 109.648L0.495393 109.555L0.485603 109.455L0.475847 109.356L0.46622 109.256L0.456734 109.157L0.447272 109.057L0.437955 108.958L0.428771 108.858L0.422662 108.8L0.414247 108.709L0.405223 108.609L0.396386 108.51L0.38765 108.41L0.378929 108.311L0.370406 108.211L0.361961 108.111L0.353545 108.012L0.34786 107.951L0.340399 107.862L0.332245 107.763L0.324247 107.663L0.316384 107.563L0.30852 107.464L0.300847 107.364L0.293275 107.264L0.285716 107.165L0.280466 107.102L0.273861 107.015L0.266616 106.916L0.259483 106.816L0.252425 106.716L0.245493 106.616L0.238651 106.517L0.231895 106.417L0.225279 106.317L0.220449 106.252L0.214676 106.168L0.208325 106.068L0.202067 105.968L0.195808 105.868L0.189782 105.768L0.183816 105.669L0.177848 105.569L0.172146 105.469L0.167794 105.401L0.162883 105.319L0.157355 105.219L0.151956 105.12L0.146617 105.02L0.141381 104.92L0.136284 104.82L0.13126 104.72L0.126321 104.62L0.122487 104.55L0.118442 104.471L0.113789 104.371L0.109153 104.271L0.104756 104.171L0.100395 104.071L0.0960606 103.971L0.0919771 103.871L0.0879082 103.771L0.0845952 103.699L0.0813062 103.622L0.0775283 103.522L0.0737822 103.422L0.0701984 103.322L0.0667123 103.222L0.06328 103.122L0.059998 103.022L0.0568036 102.922L0.0541367 102.847L0.0515511 102.772L0.0485703 102.672L0.0457652 102.572L0.0430104 102.473L0.040331 102.373L0.0378397 102.273L0.0353763 102.173L0.0329986 102.073L0.0310363 101.995L0.0291299 101.923L0.0269751 101.823L0.0250453 101.723L0.0231655 101.623L0.0213239 101.523L0.0196955 101.423L0.0181074 101.323L0.0165795 101.223L0.0152785 101.143L0.0139949 101.073L0.012769 100.973L0.0116499 100.873L0.0106202 100.773L0.00969442 100.673L0.00887561 100.573L0.00813377 100.473L0.00751758 100.373L0.00690351 100.291L0.00620239 100.223L0.00589609 100.123L0.00558952 100.023L0.00540819 99.9233L0.0053897 99.8233L0.00537109 99.7233L0.00551933 99.6233L0.00578863 99.5234L0.00586955 99.4385L0.00576651 99.3734L0.00632368 99.2734L0.00688089 99.1734L0.0075487 99.0734L0.00839375 98.9734L0.00923901 98.8735L0.0102371 98.7735L0.0113703 98.6735L0.0122358 98.5863L0.0127167 98.5235L0.0140624 98.4236L0.0154873 98.3236L0.0170568 98.2236L0.0187112 98.1236L0.0204387 98.0237L0.0222549 97.9237L0.0242849 97.8237L0.0260574 97.7341L0.0269853 97.6738L0.0292056 97.5738L0.0315529 97.4739L0.033963 97.3739L0.036475 97.2739L0.0391207 97.174L0.0418469 97.074L0.0446642 96.9741L0.0472924 96.8821L0.0487433 96.8242L0.0518167 96.7242L0.0549401 96.6243L0.058298 96.5244L0.0616556 96.4244L0.0651163 96.3245L0.0687575 96.2246L0.0723992 96.1247L0.0759465 96.0303L0.0778111 95.9748L0.0817373 95.8749L0.0857598 95.775L0.0899431 95.6751L0.0941528 95.5752L0.0984923 95.4753L0.102981 95.3754L0.107492 95.2755L0.111983 95.1788L0.114191 95.1257L0.119019 95.0258L0.123942 94.926L0.128903 94.8261L0.134047 94.7262L0.139254 94.6264L0.14452 94.5265L0.14998 94.4267L0.155428 94.3276L0.157949 94.2769L0.163665 94.1771L0.169441 94.0773L0.175248 93.9775L0.181272 93.8777L0.187334 93.7778L0.193458 93.678L0.199786 93.5783L0.206132 93.4785L0.20925 93.4269L0.215629 93.3288L0.22226 93.229L0.229016 93.1293L0.235818 93.0295L0.242745 92.9298L0.249804 92.83L0.256912 92.7303L0.264156 92.6306L0.267954 92.5766L0.274983 92.481L0.282475 92.3812L0.290101 92.2816L0.297728 92.1819L0.305559 92.0822L0.313469 91.9825L0.321381 91.8828L0.329549 91.7832L0.334018 91.7269L0.341686 91.6337L0.350027 91.534L0.358505 91.4344L0.367044 91.3348L0.375688 91.2352L0.384453 91.1356L0.39331 91.036L0.402259 90.9364L0.40744 90.8778L0.415776 90.787L0.424967 90.6875L0.434235 90.5879L0.443711 90.4884L0.45319 90.3888L0.462794 90.2893L0.472555 90.1898L0.482316 90.0903L0.488313 90.0293L0.497178 89.941L0.507224 89.8415L0.517373 89.7421L0.527693 89.6426L0.538022 89.5432L0.548502 89.4437L0.559114 89.3443L0.569751 89.2449L0.576591 89.1816L0.585894 89.0958L0.596846 88.9964L0.607887 88.897L0.61899 88.7976L0.630254 88.6982L0.641578 88.5989L0.652986 88.4996L0.664564 88.4003L0.672221 88.3346L0.681956 88.2513L0.693814 88.152L0.705704 88.0527L0.71763 87.9534L0.729795 87.8542L0.741968 87.755L0.754223 87.6557L0.766681 87.5565L0.775203 87.4885L0.785444 87.4077L0.798082 87.3085L0.810825 87.2093L0.823694 87.1102L0.836638 87.011L0.849678 86.9119L0.862847 86.8128L0.876095 86.7137L0.885569 86.6434L0.89623 86.565L0.909682 86.466L0.923315 86.3669L0.937049 86.2679L0.950784 86.1688L0.964752 86.0698L0.978773 85.9708L0.992802 85.8718L1.00331 85.7993L1.0143 85.7234L1.02863 85.6244L1.04311 85.5255L1.05769 85.4266L1.07233 85.3277L1.08711 85.2288L1.10198 85.1299L1.11693 85.031L1.1284 84.9562L1.13966 84.8828L1.15492 84.784L1.17021 84.6851L1.18561 84.5863L1.20119 84.4876L1.21676 84.3888L1.2325 84.29L1.24835 84.1913L1.26081 84.1142L1.27234 84.0433L1.28849 83.9446L1.30462 83.8459L1.32089 83.7473L1.33731 83.6486L1.35373 83.55L1.37033 83.4514L1.38704 83.3528L1.40055 83.2734L1.41238 83.205L1.42931 83.1064L1.44633 83.0079L1.46346 82.9094L1.48069 82.8109L1.49803 82.7124L1.51544 82.614L1.53297 82.5155L1.54767 82.4339L1.55968 82.3679L1.57738 82.2695L1.59533 82.1712L1.61331 82.0728L1.63133 81.9745L1.64958 81.8762L1.66784 81.7779L1.68619 81.6796L1.70207 81.5957L1.71421 81.5322L1.73282 81.434L1.75158 81.3358L1.77039 81.2375L1.78931 81.1394L1.80838 81.0412L1.82747 80.9431L1.8467 80.8449L1.86375 80.7589L1.876 80.6978L1.89551 80.5998L1.91504 80.5017L1.93475 80.4037L1.95455 80.3057L1.97438 80.2077L1.9944 80.1097L2.01448 80.0118L2.03268 79.9235L2.04505 79.8649L2.06541 79.767L2.08577 79.6692L2.10635 79.5713L2.12699 79.4735L2.14765 79.3756L2.16854 79.2779L2.18946 79.1801L2.20891 79.0896L2.22132 79.0335L2.24251 78.9358L2.26379 78.8381L2.28514 78.7404L2.30662 78.6428L2.32821 78.5451L2.34986 78.4475L2.37162 78.3499L2.39244 78.2573L2.40483 78.2036L2.42681 78.1061L2.44899 78.0086L2.47116 77.9111L2.49348 77.8137L2.51593 77.7162L2.53839 77.6188L2.56104 77.5214L2.58319 77.4266L2.5955 77.3754L2.61834 77.2781L2.64135 77.1808L2.66437 77.0835L2.68753 76.9862L2.71082 76.889L2.73413 76.7917L2.75761 76.6945L2.78112 76.5976L2.79338 76.5489L2.81709 76.4518L2.84086 76.3546L2.86479 76.2576L2.88877 76.1605L2.91285 76.0634L2.93707 75.9664L2.96134 75.8694L2.98572 75.7725L2.99892 75.722L3.02295 75.6272L3.04751 75.5303L3.07233 75.4334L3.09715 75.3365L3.12204 75.2397L3.14713 75.1429L3.17223 75.0461L3.19744 74.9494L3.21167 74.8967L3.23594 74.8044L3.26141 74.7077L3.28699 74.6111L3.31263 74.5145L3.33841 74.4178L3.36429 74.3213L3.39022 74.2247L3.41629 74.1282L3.43159 74.0733L3.45604 73.9836L3.48239 73.8871L3.50873 73.7906L3.53527 73.6943L3.56189 73.5979L3.58853 73.5015L3.61537 73.4052L3.64226 73.3089L3.65865 73.2519L3.68327 73.1646L3.71044 73.0684L3.73761 72.9722L3.76499 72.876L3.79243 72.7799L3.8199 72.6837L3.84758 72.5877L3.8753 72.4916L3.89286 72.4324L3.91757 72.3477L3.94555 72.2517L3.97362 72.1557L4.00175 72.0598L4.03002 71.9639L4.05839 71.868L4.08682 71.7721L4.11536 71.6763L4.13417 71.615L4.15895 71.5328L4.18769 71.4371L4.21664 71.3414L4.2456 71.2457L4.27467 71.15L4.30389 71.0544L4.33311 70.9588L4.3625 70.8632L4.38252 70.7998L4.40732 70.7201L4.43692 70.6246L4.46667 70.5291L4.49644 70.4337L4.52633 70.3383L4.55638 70.2429L4.58643 70.1476L4.61664 70.0523L4.63791 69.9866L4.66272 69.9095L4.69317 69.8143L4.72368 69.7191L4.75432 69.6239L4.78505 69.5288L4.81584 69.4337L4.84678 69.3386L4.87777 69.2436L4.90031 69.1758L4.92511 69.1012L4.95638 69.0063L4.98765 68.9113L5.01916 68.8164L5.05071 68.7216L5.08227 68.6267L5.11408 68.5319L5.1459 68.4371L5.16975 68.3673L5.19445 68.2952L5.22653 68.2005L5.25868 68.1059L5.29094 68.0112L5.3233 67.9166L5.35574 67.822L5.3883 67.7275L5.42092 67.633L5.44619 67.5611L5.47074 67.4915L5.50359 67.3971L5.53661 67.3028L5.56964 67.2084L5.60281 67.1141L5.63611 67.0198L5.66941 66.9256L5.70288 66.8313L5.72957 66.7574L5.75394 66.6903L5.78759 66.5962L5.82143 66.5021L5.85527 66.408L5.88924 66.314L5.92335 66.22L5.95745 66.1261L5.99173 66.0321L6.01985 65.9562L6.044 65.8915L6.0785 65.7977L6.1131 65.7039L6.14777 65.6102L6.18254 65.5164L6.21744 65.4227L6.25239 65.3291L6.28743 65.2354L6.31701 65.1575L6.34096 65.0953L6.37628 65.0018L6.41162 64.9083L6.44715 64.8148L6.48273 64.7214L6.51835 64.628L6.55417 64.5346L6.59001 64.4413L6.62104 64.3613L6.64475 64.3017L6.68086 64.2084L6.71699 64.1152L6.75332 64.0221L6.7897 63.929L6.82612 63.8358L6.86274 63.7428L6.89938 63.6498L6.93195 63.5678L6.9553 63.5107L6.9922 63.4178L7.0292 63.3249L7.06626 63.232L7.10344 63.1392L7.14071 63.0465L7.17806 62.9537L7.2155 62.861L7.24969 62.7771L7.27267 62.7224L7.31032 62.6298L7.34816 62.5372L7.38599 62.4447L7.42394 62.3522L7.46204 62.2598L7.50014 62.1674L7.5384 62.075L7.57421 61.9891L7.59677 61.9368L7.63521 61.8445L7.67384 61.7523L7.71246 61.6601L7.75119 61.568L7.79008 61.4759L7.82897 61.3838L7.86803 61.2917L7.90545 61.204L7.92757 61.1541L7.96685 61.0622L8.00619 60.9703L8.04563 60.8784L8.08517 60.7866L8.1248 60.6948L8.16452 60.6031L8.20433 60.5114L8.24342 60.4217L8.26509 60.3742L8.30516 60.2827L8.34523 60.1911L8.3855 60.0996L8.42583 60.0081L8.46617 59.9166L8.50674 59.8253L8.54733 59.7339L8.58795 59.6426L8.60934 59.5971L8.65009 59.5061L8.69096 59.4148L8.73199 59.3237L8.77311 59.2325L8.81424 59.1415L8.85556 59.0504L8.89693 58.9594L8.93835 58.8684L8.96109 58.8209L9.00163 58.7325L9.04333 58.6416L9.08509 58.5508L9.12696 58.46L9.16895 58.3693L9.21097 58.2786L9.25311 58.1879L9.29536 58.0973L9.31948 58.0478L9.35973 57.9619L9.40227 57.8714L9.4448 57.7809L9.4874 57.6905L9.53019 57.6001L9.57298 57.5098L9.61588 57.4195L9.65892 57.3293L9.68445 57.2778L9.72449 57.1944L9.76775 57.1043L9.81106 57.0142L9.85444 56.9241L9.89798 56.8341L9.94154 56.7441L9.9852 56.6542L10.029 56.5643L10.056 56.5109L10.0958 56.4301L10.1397 56.3403L10.1838 56.2506L10.228 56.1609L10.2723 56.0712L10.3166 55.9816L10.3611 55.8921L10.4056 55.8026L10.4341 55.7473L10.4735 55.6689L10.5182 55.5795L10.5631 55.4902L10.608 55.4009L10.653 55.3116L10.6982 55.2224L10.7434 55.1333L10.7886 55.0441L10.8186 54.9869L10.8577 54.911L10.9032 54.822L10.9488 54.7331L10.9945 54.6442L11.0402 54.5553L11.0861 54.4665L11.1321 54.3777L11.1781 54.289L11.2097 54.2298L11.2483 54.1565L11.2946 54.0678L11.341 53.9793L11.3874 53.8908L11.4339 53.8023L11.4805 53.7138L11.5272 53.6255L11.574 53.5371L11.6072 53.4761L11.6453 53.4052L11.6924 53.317L11.7395 53.2289L11.7866 53.1407L11.8339 53.0527L11.8813 52.9646L11.9287 52.8766L11.9763 52.7887L12.0111 52.7259L12.0487 52.6574L12.0965 52.5696L12.1444 52.4819L12.1922 52.3941L12.2403 52.3065L12.2884 52.2188L12.3365 52.1313L12.3849 52.0437L12.4213 51.979L12.4585 51.9131L12.507 51.8257L12.5555 51.7383L12.6042 51.651L12.6529 51.5637L12.7018 51.4765L12.7507 51.3894L12.7997 51.3022L12.8379 51.2357L12.8745 51.1722L12.9237 51.0852L12.973 50.9983L13.0225 50.9114L13.0719 50.8246L13.1215 50.7377L13.1712 50.651L13.2209 50.5643L13.2607 50.496L13.2968 50.4349L13.3467 50.3484L13.3968 50.2618L13.4469 50.1754L13.4971 50.0889L13.5474 50.0025L13.5979 49.9162L13.6483 49.8299L13.6899 49.7599L13.7253 49.7012L13.776 49.6151L13.8267 49.529L13.8776 49.4429L13.9285 49.3569L13.9796 49.271L14.0307 49.1851L14.0819 49.0992L14.1253 49.0275L14.16 48.9712L14.2113 48.8855L14.2629 48.7998L14.3145 48.7142L14.3661 48.6286L14.4179 48.5431L14.4697 48.4577L14.5216 48.3722L14.5668 48.2988L14.6008 48.2449L14.6529 48.1596L14.7052 48.0744L14.7575 47.9892L14.8098 47.9041L14.8623 47.819L14.9149 47.734L14.9675 47.649L15.0145 47.5739L15.0477 47.5224L15.1006 47.4375L15.1535 47.3527L15.2065 47.268L15.2597 47.1833L15.3128 47.0987L15.3661 47.0141L15.4195 46.9296L15.4683 46.8528L15.5008 46.8036L15.5544 46.7192L15.608 46.6349L15.6617 46.5506L15.7155 46.4664L15.7694 46.3822L15.8234 46.2981L15.8775 46.214L15.9282 46.1355L15.9598 46.0887L16.0141 46.0048L16.0685 45.9209L16.1229 45.8371L16.1774 45.7533L16.232 45.6696L16.2867 45.5859L16.3415 45.5023L16.3941 45.4222L16.4249 45.3778L16.4799 45.2943L16.5349 45.2108L16.5901 45.1275L16.6453 45.0442L16.7006 44.9609L16.756 44.8777L16.8115 44.7946L16.8661 44.7129L16.896 44.6707L16.9516 44.5877L17.0074 44.5047L17.0633 44.4219L17.1191 44.339L17.1752 44.2562L17.2313 44.1735L17.2874 44.0908L17.3437 44.0082L17.3734 43.9671L17.4293 43.8851L17.4858 43.8027L17.5423 43.7203L17.5989 43.6379L17.6556 43.5556L17.7124 43.4733L17.7692 43.3911L17.8262 43.3089L17.8576 43.2661L17.9129 43.1866L17.97 43.1046L18.0273 43.0227L18.0845 42.9408L18.1419 42.859L18.1994 42.7772L18.2569 42.6955L18.3145 42.6138L18.3476 42.5692L18.4023 42.4922L18.4602 42.4107L18.518 42.3292L18.576 42.2478L18.6341 42.1665L18.6922 42.0852L18.7505 42.004L18.8088 41.9228L18.8436 41.8765L18.8975 41.802L18.9561 41.721L19.0146 41.64L19.0733 41.5591L19.1321 41.4782L19.1908 41.3974L19.2498 41.3167L19.3088 41.236L19.3453 41.188L19.3986 41.1159L19.4578 41.0354L19.517 40.9549L19.5763 40.8745L19.6358 40.7941L19.6952 40.7138L19.7548 40.6335L19.8145 40.5534L19.8528 40.5037L19.9054 40.4341L19.9652 40.354L20.0251 40.2741L20.0851 40.1941L20.1452 40.1143L20.2054 40.0345L20.2656 39.9547L20.3259 39.875L20.3661 39.8238L20.4178 39.7566L20.4783 39.677L20.5389 39.5975L20.5996 39.5181L20.6603 39.4387L20.7211 39.3595L20.7821 39.2802L20.843 39.201L20.8851 39.1482L20.9359 39.0833L20.9971 39.0043L21.0583 38.9253L21.1197 38.8464L21.1811 38.7676L21.2426 38.6888L21.3042 38.6101L21.3657 38.5314L21.4097 38.477L21.4596 38.4145L21.5214 38.336L21.5834 38.2575L21.6454 38.1791L21.7074 38.1008L21.7696 38.0225L21.8318 37.9443L21.8941 37.8662L21.9399 37.8103L21.9889 37.7501L22.0514 37.6721L22.114 37.5942L22.1766 37.5163L22.2394 37.4385L22.3022 37.3607L22.365 37.283L22.428 37.2054L22.4757 37.148L22.5238 37.0901L22.5869 37.0127L22.6502 36.9353L22.7134 36.8579L22.7768 36.7806L22.8402 36.7034L22.9037 36.6263L22.9673 36.5492L23.0171 36.4902L23.0641 36.4347L23.1279 36.3577L23.1918 36.2809L23.2557 36.2041L23.3197 36.1273L23.3838 36.0506L23.448 35.974L23.5122 35.8974L23.5639 35.837L23.6099 35.7838L23.6744 35.7074L23.7388 35.6311L23.8034 35.5548L23.8681 35.4786L23.9328 35.4024L23.9976 35.3264L24.0625 35.2504L24.1161 35.1885L24.1612 35.1375L24.2263 35.0617L24.2914 34.9859L24.3566 34.9101L24.4219 34.8345L24.4872 34.7589L24.5526 34.6833L24.6182 34.6079L24.6738 34.5446L24.7178 34.4959L24.7835 34.4206L24.8493 34.3453L24.9151 34.2701L24.981 34.195L25.047 34.1199L25.113 34.045L25.1792 33.9701L25.2369 33.9054L25.2798 33.8589L25.3461 33.7841L25.4125 33.7094L25.4789 33.6348L25.5455 33.5602L25.6121 33.4857L25.6788 33.4113L25.7455 33.3369L25.8053 33.2709L25.8471 33.2267L25.914 33.1525L25.981 33.0783L26.0481 33.0043L26.1152 32.9302L26.1824 32.8563L26.2497 32.7825L26.317 32.7086L26.379 32.6413L26.4196 32.5992L26.4871 32.5256L26.5547 32.452L26.6224 32.3785L26.6902 32.305L26.758 32.2317L26.8259 32.1584L26.8939 32.0851L26.958 32.0165L26.9973 31.9766L27.0654 31.9035L27.1337 31.8305L27.202 31.7575L27.2703 31.6847L27.3388 31.6119L27.4073 31.5391L27.4759 31.4664L27.5421 31.3966L27.5802 31.3588L27.6489 31.2863L27.7178 31.2139L27.7867 31.1415L27.8556 31.0692L27.9247 30.997L27.9938 30.9248L28.063 30.8527L28.1315 30.7816L28.1682 30.7459L28.2376 30.674L28.307 30.6021L28.3765 30.5303L28.4461 30.4586L28.5157 30.387L28.5855 30.3154L28.6552 30.2438L28.7251 30.1724L28.7622 30.1371L28.8313 30.0666L28.9013 29.9953L28.9714 29.9241L29.0416 29.853L29.1119 29.7819L29.1821 29.7109L29.2525 29.64L29.323 29.5691L29.362 29.5323L29.4301 29.4642L29.5007 29.3935L29.5714 29.3229L29.6422 29.2524L29.713 29.1819L29.7839 29.1114L29.8549 29.0411L29.9259 28.9708L29.9668 28.9327L30.0339 28.8669L30.1051 28.7968L30.1763 28.7267L30.2477 28.6568L30.3191 28.5869L30.3905 28.5171L30.4621 28.4474L30.5337 28.3777L30.5767 28.3381L30.6426 28.2746L30.7144 28.2051L30.7862 28.1357L30.8581 28.0663L30.9301 27.997L31.0022 27.9278L31.0743 27.8587L31.1465 27.7896L31.1915 27.7487L31.2562 27.6875L31.3286 27.6185L31.401 27.5497L31.4735 27.481L31.546 27.4123L31.6187 27.3437L31.6914 27.2751L31.7641 27.2066L31.8112 27.1644L31.8748 27.1055L31.9476 27.0371L32.0207 26.9689L32.0938 26.9008L32.1668 26.8326L32.2401 26.7647L32.3133 26.6968L32.3866 26.6288L32.4357 26.5854L32.4981 26.5286L32.5716 26.4609L32.6451 26.3933L32.7188 26.3258L32.7924 26.2583L32.8662 26.1909L32.9401 26.1236L33.0139 26.0563L33.0651 26.0116L33.1262 25.957L33.2003 25.89L33.2744 25.823L33.3486 25.7561L33.4228 25.6892L33.4971 25.6224L33.5715 25.5557L33.646 25.4891L33.6992 25.4431L33.759 25.3907L33.8337 25.3243L33.9084 25.258L33.983 25.1916L34.0579 25.1254L34.1328 25.0593L34.2076 24.9931L34.2827 24.9272L34.3381 24.88L34.3966 24.8298L34.4718 24.7639L34.547 24.6982L34.6223 24.6325L34.6976 24.5669L34.7731 24.5014L34.8485 24.4359L34.9241 24.3706L34.9816 24.3222L35.0388 24.2741L35.1146 24.2089L35.1903 24.1438L35.2661 24.0788L35.342 24.0138L35.418 23.9489L35.494 23.8841L35.5701 23.8193L35.6298 23.7698L35.6857 23.7239L35.7619 23.6593L35.8382 23.5948L35.9146 23.5304L35.9911 23.4661L36.0675 23.4018L36.1441 23.3376L36.2207 23.2735L36.2826 23.2229L36.337 23.1791L36.4139 23.1152L36.4907 23.0513L36.5675 22.9875L36.6445 22.9238L36.7215 22.8602L36.7986 22.7967L36.8758 22.7332L36.9399 22.6815L36.9929 22.6397L37.0702 22.5765L37.1476 22.5133L37.225 22.4501L37.3025 22.3871L37.38 22.3241L37.4576 22.2612L37.5353 22.1984L37.6017 22.1456L37.6533 22.1059L37.7311 22.0433L37.809 21.9807L37.887 21.9182L37.9649 21.8558L38.043 21.7935L38.1212 21.7313L38.1994 21.6691L38.268 21.6153L38.3181 21.5776L38.3964 21.5156L38.4749 21.4537L38.5534 21.3919L38.6319 21.3301L38.7105 21.2684L38.7891 21.2069L38.8678 21.1453L38.9387 21.0906L38.9873 21.0549L39.0662 20.9935L39.1451 20.9323L39.2241 20.8711L39.3031 20.81L39.3822 20.749L39.4614 20.6881L39.5406 20.6272L39.6138 20.5715L39.6608 20.5378L39.7402 20.4771L39.8197 20.4165L39.8991 20.356L39.9787 20.2955L40.0583 20.2352L40.1379 20.1749L40.2177 20.1147L40.2932 20.0581L40.3387 20.0263L40.4185 19.9663L40.4985 19.9064L40.5785 19.8465L40.6585 19.7868L40.7386 19.7271L40.8188 19.6675L40.899 19.6079L40.9769 19.5505L41.0208 19.5206L41.1011 19.4612L41.1815 19.402L41.2621 19.3428L41.3426 19.2837L41.4232 19.2247L41.5038 19.1658L41.5845 19.1069L41.6647 19.0486L41.707 19.0205L41.7879 18.9619L41.8688 18.9033L41.9497 18.8448L42.0308 18.7864L42.1118 18.7281L42.193 18.6698L42.2742 18.6116L42.3555 18.5535L42.3987 18.5252L42.4788 18.4683L42.5601 18.4104L42.6416 18.3526L42.7231 18.2949L42.8047 18.2372L42.8863 18.1796L42.968 18.1222L43.0497 18.0647L43.0951 18.0354L43.1737 17.9806L43.2556 17.9234L43.3375 17.8662L43.4195 17.8092L43.5015 17.7522L43.5836 17.6953L43.6658 17.6385L43.748 17.5818L43.7956 17.5514L43.8727 17.4987L43.955 17.4422L44.0375 17.3857L44.1199 17.3293L44.2024 17.2731L44.285 17.2168L44.3676 17.1607L44.4503 17.1047L44.5001 17.0733L44.5757 17.0227L44.6585 16.9668L44.7414 16.9111L44.8243 16.8554L44.9073 16.7998L44.9904 16.7443L45.0734 16.6889L45.1566 16.6335L45.2086 16.6011L45.2827 16.5526L45.366 16.4974L45.4493 16.4423L45.5327 16.3874L45.6161 16.3324L45.6997 16.2777L45.7832 16.2229L45.8668 16.1682L45.921 16.1349L45.9936 16.0884L46.0773 16.0339L46.1611 15.9796L46.245 15.9253L46.3289 15.8711L46.4128 15.817L46.4968 15.7629L46.5809 15.709L46.6373 15.6747L46.7083 15.6302L46.7925 15.5765L46.8767 15.5228L46.961 15.4692L47.0454 15.4157L47.1298 15.3623L47.2142 15.309L47.2987 15.2557L47.3575 15.2206L47.4268 15.178L47.5115 15.125L47.5962 15.0721L47.6809 15.0192L47.7657 14.9664L47.8505 14.9137L47.9354 14.861L48.0204 14.8086L48.0814 14.7725L48.1491 14.7319L48.2342 14.6796L48.3194 14.6274L48.4045 14.5752L48.4897 14.5231L48.575 14.4712L48.6603 14.4192L48.7457 14.3674L48.809 14.3306L48.8751 14.2919L48.9606 14.2403L49.0462 14.1888L49.1318 14.1373L49.2175 14.086L49.3031 14.0347L49.3889 13.9835L49.4747 13.9324L49.5403 13.8948L49.6048 13.8579L49.6907 13.8071L49.7767 13.7563L49.8627 13.7055L49.9488 13.655L50.0349 13.6044L50.1211 13.5539L50.2074 13.5036L50.2753 13.4651L50.338 13.4302L50.4244 13.3801L50.5108 13.33L50.5972 13.2799L50.6837 13.2301L50.7703 13.1802L50.8569 13.1305L50.9435 13.0809L51.0138 13.0417L51.0748 13.0086L51.1616 12.9592L51.2484 12.9098L51.3353 12.8606L51.4222 12.8114L51.5092 12.7623L51.5962 12.7133L51.6832 12.6643L51.7559 12.6245L51.8151 12.5933L51.9023 12.5446L51.9895 12.4959L52.0768 12.4474L52.1641 12.3989L52.2515 12.3505L52.3389 12.3023L52.4264 12.2541L52.5014 12.2136L52.5588 12.1842L52.6465 12.1362L52.734 12.0882L52.8217 12.0405L52.9095 11.9928L52.9972 11.9451L53.0851 11.8976L53.1729 11.8501L53.2504 11.809L53.306 11.7813L53.394 11.7341L53.482 11.6869L53.5701 11.6398L53.6582 11.5929L53.7464 11.546L53.8346 11.4992L53.9229 11.4524L54.0027 11.4108L54.0565 11.3848L54.1449 11.3382L54.2333 11.2919L54.3218 11.2455L54.4103 11.1993L54.4989 11.1531L54.5875 11.107L54.6761 11.0611L54.7584 11.0189L54.8103 10.9946L54.8991 10.9487L54.9879 10.9031L55.0768 10.8576L55.1656 10.812L55.2546 10.7667L55.3435 10.7213L55.4325 10.6761L55.5173 10.6335L55.5674 10.6107L55.6565 10.5657L55.7457 10.5208L55.8349 10.476L55.9241 10.4312L56.0134 10.3866L56.1028 10.342L56.1922 10.2975L56.2794 10.2544L56.3275 10.2333L56.4171 10.189L56.5066 10.1449L56.5962 10.1008L56.6858 10.0568L56.7755 10.0129L56.8652 9.96907L56.955 9.92535L57.0447 9.88176L57.0909 9.86221L57.1808 9.81875L57.2707 9.77536L57.3607 9.73195L57.4507 9.68878L57.5407 9.64565L57.6308 9.60251L57.721 9.55961L57.8111 9.51673L57.8593 9.49658L57.9476 9.45493L58.0378 9.41231L58.1282 9.36967L58.2185 9.32723L58.309 9.28486L58.3994 9.24252L58.4898 9.20036L58.5804 9.15824L58.6309 9.1374L58.7174 9.0976L58.808 9.05571L58.8987 9.0139L58.9894 8.97219L59.0802 8.93056L59.171 8.88902L59.2618 8.84756L59.3527 8.80622L59.4055 8.78474L59.4902 8.7468L59.5811 8.70561L59.6722 8.66461L59.7633 8.62367L59.8543 8.58276L59.9455 8.54204L60.0366 8.50137L60.1278 8.46073L60.183 8.43864L60.2659 8.40252L60.3572 8.36212L60.4485 8.32185L60.5399 8.2817L60.6314 8.24155L60.7228 8.20157L60.8144 8.16168L60.9059 8.12181L60.9634 8.09913L61.0444 8.06476L61.1361 8.02515L61.2278 7.98564L61.3195 7.94626L61.4113 7.9069L61.5031 7.86767L61.5949 7.82856L61.6868 7.78948L61.7467 7.76624L61.8258 7.73357L61.9178 7.69475L62.0098 7.65606L62.1019 7.61738L62.194 7.57884L62.2861 7.54041L62.3782 7.50202L62.4705 7.46376L62.5327 7.44001L62.6099 7.40906L62.7022 7.37098L62.7946 7.33308L62.8869 7.29518L62.9794 7.2574L63.0718 7.21977L63.1643 7.18214L63.2568 7.14464L63.3214 7.12041L63.3967 7.09114L63.4894 7.05385L63.582 7.01671L63.6747 6.9796L63.7674 6.94259L63.8602 6.90574L63.953 6.86889L64.0459 6.83216L64.1128 6.80748L64.1862 6.77986L64.2792 6.7434L64.3721 6.70698L64.4651 6.67067L64.5581 6.6345L64.6512 6.59835L64.7444 6.5623L64.8375 6.52641L64.9069 6.50128L64.9783 6.47524L65.0715 6.43961L65.1648 6.40398L65.258 6.36843L65.3514 6.33307L65.4448 6.29771L65.5382 6.26244L65.6316 6.22736L65.7034 6.20182L65.7728 6.17738L65.8664 6.14251L65.9599 6.10768L66.0535 6.07291L66.1472 6.03832L66.2408 6.00378L66.3345 5.96928L66.4282 5.93498L66.5024 5.90912L66.5698 5.88626L66.6637 5.85211L66.7575 5.8181L66.8514 5.78416L66.9453 5.7503L67.0393 5.71656L67.1332 5.6829L67.2272 5.64933L67.3039 5.62317L67.3693 5.60186L67.4634 5.56851L67.5575 5.53523L67.6517 5.50213L67.7459 5.46906L67.8401 5.43607L67.9344 5.40325L68.0287 5.37046L68.1077 5.34402L68.1711 5.32419L68.2655 5.29167L68.3598 5.25916L68.4543 5.22686L68.5488 5.19461L68.6433 5.16236L68.7378 5.13037L68.8324 5.09839L68.9139 5.07169L68.9752 5.0533L69.0698 5.02159L69.1645 4.98992L69.2592 4.95836L69.3539 4.92693L69.4487 4.89552L69.5435 4.86426L69.6383 4.8331L69.7223 4.80625L69.7815 4.78927L69.8764 4.7583L69.9713 4.72746L70.0663 4.69671L70.1613 4.66602L70.2563 4.63547L70.3513 4.605L70.4464 4.5746L70.5329 4.54765L70.59 4.53205L70.6851 4.50184L70.7803 4.47182L70.8755 4.44189L70.9708 4.41195L71.0661 4.38224L71.1614 4.35258L71.2567 4.32292L71.3457 4.2959L71.4007 4.28161L71.496 4.25223L71.5915 4.22297L71.687 4.19386L71.7824 4.16475L71.878 4.1358L71.9735 4.10696L72.0691 4.07814L72.1605 4.05101L72.2134 4.03801L72.309 4.00945L72.4047 3.98104L72.5004 3.95268L72.5961 3.92441L72.6919 3.89626L72.7877 3.8682L72.8835 3.84022L72.9774 3.81304L73.0281 3.8013L73.124 3.77356L73.2199 3.74597L73.3158 3.71838L73.4118 3.69094L73.5078 3.66363L73.6038 3.63632L73.6998 3.60917L73.7959 3.58213L73.8451 3.57139L73.9408 3.54453L74.037 3.51776L74.1332 3.49101L74.2293 3.46433L74.3256 3.43784L74.4218 3.41136L74.5181 3.38499L74.6144 3.35879L74.6659 3.3477L74.7597 3.32245L74.856 3.29644L74.9524 3.27051L75.0488 3.24467L75.1452 3.21896L75.2417 3.19331L75.3382 3.16776L75.4347 3.14233L75.4886 3.13093L75.5803 3.10727L75.6768 3.08204L75.7734 3.05691L75.87 3.03194L75.9667 3.00698L76.0633 2.98215L76.16 2.95746L76.2567 2.93278L76.3131 2.92111L76.4026 2.899L76.4994 2.8746L76.5962 2.85021L76.693 2.8261L76.7899 2.80198L76.8867 2.7779L76.9837 2.75406L77.0806 2.73021L77.1393 2.71832L77.2267 2.69764L77.3237 2.67408L77.4207 2.65054L77.5177 2.62719L77.6148 2.6039L77.7118 2.58065L77.8089 2.5576L77.906 2.53459L77.9671 2.52252L78.0524 2.50324L78.1496 2.48048L78.2467 2.45781L78.344 2.43522L78.4412 2.41275L78.5385 2.39037L78.6358 2.36805L78.7331 2.34588L78.7966 2.33368L78.8798 2.31581L78.9771 2.2938L79.0745 2.27199L79.1719 2.25025L79.2693 2.22853L79.3668 2.20701L79.4642 2.18554L79.5617 2.16413L79.6276 2.15184L79.7086 2.13534L79.8061 2.11416L79.9037 2.09313L80.0013 2.07223L80.0989 2.05133L80.1965 2.0306L80.2941 2.00998L80.3918 1.98936L80.4601 1.97701L80.5389 1.96182L80.6366 1.94149L80.7343 1.92126L80.8321 1.90117L80.9299 1.88111L81.0276 1.86117L81.1254 1.84139L81.2233 1.82161L81.294 1.8092L81.3706 1.79526L81.4685 1.77576L81.5664 1.7564L81.6642 1.73708L81.7622 1.71786L81.8601 1.69879L81.9581 1.67975L82.0561 1.66082L82.1293 1.64844L82.2037 1.63576L82.3017 1.61703L82.3998 1.59852L82.4979 1.58001L82.5959 1.56158L82.694 1.54336L82.7921 1.52513L82.8903 1.50701L82.9659 1.49467L83.0381 1.48319L83.0789 1.47748L83.0797 1.48038L83.0805 1.48333L83.0813 1.4864L83.0822 1.4896L83.0831 1.49285L83.0841 1.49623L83.0648 1.50459L83.0374 1.51498L83.0384 1.51864L83.0394 1.52231L83.0405 1.52619L83.0416 1.53013L83.0427 1.5341L83.0439 1.53831L83.0451 1.54253L83.0284 1.55099L82.9988 1.56256L83.0001 1.56706L83.0014 1.57163L83.0027 1.57633L83.004 1.58113L83.0054 1.586L83.0068 1.59099L83.0082 1.59607L82.994 1.60476L82.9623 1.61742L82.9638 1.62273L82.9654 1.62822L82.9669 1.6337L82.9685 1.63935L82.9701 1.64511L82.9717 1.65088L82.9734 1.65685L82.9618 1.66576L82.9279 1.67948L82.9296 1.68563L82.9314 1.69195L82.9332 1.69828L82.935 1.70474L82.9369 1.71135L82.9387 1.71799L82.9406 1.72475L82.9316 1.7339L82.8956 1.74869L82.8976 1.75571L82.8995 1.76277L82.9016 1.77002L82.9036 1.77731L82.9057 1.78468L82.9078 1.79222L82.91 1.7998L82.9035 1.80917L82.8653 1.82499L82.8675 1.83284L82.8697 1.84073L82.872 1.8488L82.8743 1.85693L82.8767 1.86512L82.879 1.87348L82.8814 1.88189L82.8775 1.89159L82.8372 1.90832L82.8396 1.91698L82.8421 1.92577L82.8446 1.93459L82.8471 1.94355L82.8497 1.95264L82.8523 1.96173L82.8549 1.971L82.8537 1.98109L82.8111 1.99871L82.8138 2.00815L82.8165 2.0178L82.8193 2.02745L82.8221 2.03721L82.8249 2.04714L82.8277 2.05705L82.8306 2.06713L82.8319 2.0776L82.7871 2.09609L82.79 2.10641L82.7931 2.1168L82.796 2.1273L82.799 2.13791L82.8021 2.1486L82.8052 2.15939L82.8083 2.17028L82.8115 2.18126L82.7661 2.20033L82.7685 2.21162L82.7717 2.22278L82.7749 2.23414L82.7782 2.24558L82.7815 2.25703L82.7848 2.26869L82.7882 2.28041L82.7915 2.29214L82.7487 2.3113L82.749 2.32378L82.7524 2.33579L82.7556 2.34802Z" fill="white"/>
</svg>
