<svg width="200" height="200" viewBox="0 0 200 200" fill="none" xmlns="http://www.w3.org/2000/svg">
<path d="M117.074 2.99119L117.121 3.05826L117.168 3.12536L117.215 3.15517L117.262 3.2098L117.309 3.27706L117.356 3.34441L117.403 3.41176L117.449 3.46691L117.496 3.49667L117.543 3.56415L117.59 3.63171L117.637 3.69934L117.683 3.76696L117.73 3.79759L117.777 3.85244L117.824 3.9202L117.87 3.98806L117.917 4.05595L117.964 4.11193L118.01 4.14188L118.057 4.2099L118.104 4.27794L118.15 4.3461L118.197 4.41426L118.243 4.44569L118.29 4.50076L118.336 4.56905L118.383 4.63739L118.429 4.70583L118.476 4.76266L118.522 4.79275L118.569 4.86133L118.615 4.92989L118.661 4.99853L118.708 5.06723L118.754 5.0995L118.8 5.15473L118.847 5.22357L118.893 5.2924L118.939 5.36134L118.986 5.41904L119.032 5.4493L119.078 5.51838L119.124 5.58749L119.17 5.6566L119.216 5.72583L119.263 5.75896L119.309 5.81434L119.355 5.88371L119.401 5.95308L119.447 6.02249L119.493 6.08105L119.539 6.11151L119.585 6.18106L119.631 6.2507L119.677 6.32034L119.723 6.39004L119.769 6.42404L119.815 6.47959L119.861 6.54944L119.907 6.61935L119.952 6.68925L119.998 6.74864L120.044 6.77931L120.09 6.84934L120.135 6.91949L120.181 6.98966L120.227 7.05983L120.273 7.09468L120.318 7.15043L120.364 7.22075L120.41 7.29118L120.455 7.36162L120.501 7.42179L120.546 7.45266L120.592 7.52323L120.638 7.59384L120.683 7.66454L120.729 7.73523L120.774 7.77087L120.819 7.82683L120.865 7.89766L120.91 7.96857L120.956 8.03953L121.001 8.10053L121.046 8.13156L121.092 8.20265L121.137 8.27374L121.182 8.34494L121.228 8.41617L121.273 8.45259L121.318 8.50874L121.363 8.5801L121.408 8.65147L121.454 8.72295L121.499 8.78479L121.544 8.81595L121.589 8.88757L121.634 8.95918L121.679 9.03084L121.724 9.10258L121.769 9.13985L121.814 9.19614L121.859 9.26801L121.904 9.33989L121.949 9.41184L121.994 9.47453L122.039 9.50585L122.084 9.57795L122.128 9.65009L122.173 9.72222L122.218 9.79445L122.263 9.83257L122.307 9.88899L122.352 9.96137L122.397 10.0338L122.441 10.1062L122.486 10.1697L122.531 10.2012L122.575 10.2738L122.62 10.3464L122.664 10.4191L122.709 10.4917L122.754 10.5307L122.798 10.5873L122.843 10.6601L122.887 10.733L122.931 10.806L122.976 10.8703L123.02 10.902L123.064 10.975L123.109 11.0481L123.153 11.1213L123.197 11.1945L123.242 11.2342L123.286 11.291L123.33 11.3643L123.374 11.4377L123.418 11.5111L123.463 11.5762L123.507 11.6081L123.551 11.6817L123.595 11.7552L123.639 11.8289L123.683 11.9026L123.727 11.9431L123.771 12.0001L123.815 12.0739L123.859 12.1477L123.903 12.2217L123.947 12.2876L123.99 12.3196L124.034 12.3936L124.078 12.4677L124.122 12.5418L124.166 12.616L124.209 12.6574L124.253 12.7145L124.297 12.7888L124.34 12.8631L124.384 12.9375L124.428 13.0043L124.471 13.0364L124.515 13.1109L124.558 13.1855L124.602 13.2601L124.645 13.3347L124.689 13.3769L124.732 13.4341L124.776 13.509L124.819 13.5838L124.862 13.6586L124.906 13.7262L124.949 13.7585L124.992 13.8335L125.036 13.9085L125.079 13.9836L125.122 14.0587L125.165 14.1017L125.208 14.1591L125.252 14.2344L125.295 14.3097L125.338 14.385L125.381 14.4534L125.424 14.4858L125.467 14.5613L125.51 14.6368L125.553 14.7124L125.596 14.7879L125.639 14.8318L125.682 14.8893L125.724 14.965L125.767 15.0408L125.81 15.1166L125.853 15.1857L125.896 15.2184L125.938 15.2943L125.981 15.3703L126.024 15.4463L126.066 15.5224L126.109 15.5669L126.152 15.6247L126.194 15.7008L126.237 15.7771L126.279 15.8534L126.322 15.9233L126.364 15.9561L126.407 16.0325L126.449 16.1089L126.491 16.1854L126.534 16.262L126.576 16.3073L126.618 16.3652L126.661 16.4418L126.703 16.5185L126.745 16.5953L126.787 16.666L126.83 16.6989L126.872 16.7758L126.914 16.8527L126.956 16.9296L126.998 17.0067L127.04 17.0528L127.082 17.1108L127.124 17.1879L127.166 17.2651L127.208 17.3423L127.25 17.4138L127.292 17.4468L127.334 17.5242L127.375 17.6016L127.417 17.679L127.459 17.7564L127.501 17.8034L127.542 17.8615L127.584 17.9391L127.626 18.0167L127.667 18.0943L127.709 18.1667L127.751 18.1998L127.792 18.2776L127.834 18.3555L127.875 18.4333L127.917 18.5113L127.958 18.559L127.999 18.6172L128.041 18.6953L128.082 18.7734L128.124 18.8515L128.165 18.9246L128.206 18.9579L128.247 19.0361L128.289 19.1144L128.33 19.1927L128.371 19.2711L128.412 19.3196L128.453 19.378L128.494 19.4564L128.535 19.535L128.576 19.6136L128.617 19.6874L128.658 19.7209L128.699 19.7996L128.74 19.8783L128.781 19.9571L128.822 20.0359L128.863 20.0852L128.903 20.1437L128.944 20.2226L128.985 20.3016L129.025 20.3806L129.066 20.4553L129.107 20.4888L129.147 20.568L129.188 20.6471L129.229 20.7264L129.269 20.8056L129.31 20.8557L129.35 20.9143L129.39 20.9937L129.431 21.0731L129.471 21.1526L129.512 21.228L129.552 21.2616L129.592 21.3412L129.632 21.4209L129.673 21.5005L129.713 21.5803L129.753 21.6311L129.793 21.6898L129.833 21.7696L129.873 21.8495L129.913 21.9294L129.953 22.0056L129.993 22.0393L130.033 22.1194L130.073 22.1995L130.113 22.2795L130.153 22.3597L130.193 22.4113L130.233 22.4701L130.273 22.5504L130.312 22.6307L130.352 22.711L130.392 22.788L130.431 22.8219L130.471 22.9023L130.511 22.9828L130.55 23.0634L130.59 23.1439L130.629 23.1963L130.669 23.2553L130.708 23.3359L130.748 23.4167L130.787 23.4975L130.826 23.5752L130.866 23.6092L130.905 23.69L130.944 23.771L130.983 23.852L131.023 23.933L131.062 23.9861L131.101 24.0451L131.14 24.1263L131.179 24.2074L131.218 24.2887L131.257 24.3671L131.296 24.4012L131.335 24.4825L131.374 24.5639L131.413 24.6453L131.452 24.7267L131.491 24.7806L131.529 24.8397L131.568 24.9213L131.607 25.0029L131.646 25.0845L131.684 25.1637L131.723 25.1979L131.762 25.2797L131.8 25.3615L131.839 25.4433L131.877 25.5252L131.916 25.5798L131.954 25.639L131.993 25.721L132.031 25.803L132.069 25.8851L132.108 25.965L132.146 25.9993L132.184 26.0815L132.222 26.1637L132.261 26.2459L132.299 26.3282L132.337 26.3836L132.375 26.4429L132.413 26.5253L132.451 26.6077L132.489 26.6902L132.527 26.7709L132.565 26.8053L132.603 26.8878L132.641 26.9705L132.679 27.0531L132.716 27.1358L132.754 27.1919L132.792 27.2514L132.83 27.3342L132.867 27.417L132.905 27.4999L132.943 27.5814L132.98 27.6158L133.018 27.6988L133.055 27.7818L133.093 27.8649L133.13 27.948L133.168 28.0049L133.205 28.0644L133.242 28.1476L133.28 28.2308L133.317 28.3141L133.354 28.3963L133.391 28.4309L133.429 28.5143L133.466 28.5977L133.503 28.6812L133.54 28.7647L133.577 28.8223L133.614 28.8819L133.651 28.9655L133.688 29.0491L133.725 29.1329L133.762 29.2158L133.799 29.2504L133.835 29.3342L133.872 29.418L133.909 29.5019L133.946 29.5859L133.982 29.6441L134.019 29.7038L134.056 29.7878L134.092 29.8719L134.129 29.956L134.165 30.0397L134.202 30.0743L134.238 30.1586L134.275 30.2428L134.311 30.3271L134.347 30.4114L134.384 30.4704L134.42 30.5301L134.456 30.6146L134.492 30.6991L134.528 30.7835L134.565 30.8679L134.601 30.9027L134.637 30.9873L134.673 31.0719L134.709 31.1566L134.745 31.2413L134.781 31.3011L134.817 31.3609L134.852 31.4457L134.888 31.5306L134.924 31.6154L134.96 31.7004L134.995 31.7355L135.031 31.8203L135.067 31.9054L135.102 31.9905L135.138 32.0755L135.174 32.136L135.209 32.1959L135.245 32.2811L135.28 32.3664L135.315 32.4516L135.351 32.5369L135.386 32.5728L135.421 32.6577L135.457 32.7431L135.492 32.8286L135.527 32.9141L135.562 32.9753L135.597 33.0352L135.633 33.1208L135.668 33.2064L135.703 33.2921L135.738 33.3778L135.773 33.4144L135.807 33.4993L135.842 33.5851L135.877 33.671L135.912 33.7568L135.947 33.8187L135.981 33.8787L136.016 33.9647L136.051 34.0507L136.085 34.1368L136.12 34.2228L136.155 34.2601L136.189 34.3451L136.224 34.4313L136.258 34.5175L136.292 34.6038L136.327 34.6664L136.361 34.7264L136.395 34.8128L136.43 34.8991L136.464 34.9856L136.498 35.072L136.532 35.11L136.566 35.1951L136.601 35.2816L136.635 35.3682L136.669 35.4548L136.703 35.5181L136.737 35.5782L136.77 35.665L136.804 35.7517L136.838 35.8385L136.872 35.9254L136.906 35.964L136.939 36.0491L136.973 36.1361L137.007 36.223L137.04 36.31L137.074 36.374L137.107 36.4341L137.141 36.5212L137.174 36.6084L137.208 36.6955L137.241 36.7827L137.275 36.8221L137.308 36.9072L137.341 36.9945L137.374 37.0818L137.408 37.1692L137.441 37.2339L137.474 37.294L137.507 37.3815L137.54 37.469L137.573 37.5565L137.606 37.6441L137.639 37.6841L137.672 37.7693L137.705 37.857L137.738 37.9447L137.77 38.0324L137.803 38.0978L137.836 38.158L137.869 38.2458L137.901 38.3336L137.934 38.4215L137.966 38.5094L137.999 38.5502L138.031 38.6354L138.064 38.7234L138.096 38.8115L138.129 38.8995L138.161 38.9656L138.193 39.0258L138.226 39.114L138.258 39.2022L138.29 39.2904L138.322 39.3787L138.354 39.4201L138.386 39.5054L138.418 39.5937L138.45 39.6821L138.482 39.7706L138.514 39.8373L138.546 39.8975L138.578 39.9861L138.61 40.0746L138.642 40.1632L138.673 40.2518L138.705 40.2939L138.737 40.3792L138.768 40.4679L138.8 40.5566L138.831 40.6454L138.863 40.7128L138.894 40.7731L138.926 40.862L138.957 40.9509L138.988 41.0398L139.02 41.1288L139.051 41.1715L139.082 41.2568L139.113 41.3459L139.145 41.435L139.176 41.5241L139.207 41.5922L139.238 41.6524L139.269 41.7416L139.3 41.8309L139.331 41.9202L139.362 42.0095L139.392 42.0529L139.423 42.1382L139.454 42.2276L139.485 42.317L139.515 42.4065L139.546 42.4752L139.577 42.5355L139.607 42.625L139.638 42.7147L139.668 42.8043L139.699 42.8939L139.729 42.938L139.759 43.0233L139.79 43.113L139.82 43.2028L139.85 43.2926L139.88 43.362L139.911 43.4223L139.941 43.5122L139.971 43.6021L140.001 43.692L140.031 43.782L140.061 43.8268L140.091 43.9121L140.121 44.0021L140.15 44.0922L140.18 44.1824L140.21 44.2524L140.24 44.3127L140.269 44.4029L140.299 44.4931L140.329 44.5834L140.358 44.6737L140.388 44.7191L140.417 44.8044L140.447 44.8948L140.476 44.9852L140.506 45.0757L140.535 45.1464L140.564 45.2067L140.593 45.2972L140.623 45.3878L140.652 45.4784L140.681 45.569L140.71 45.615L140.739 45.7003L140.768 45.791L140.797 45.8818L140.826 45.9726L140.855 46.0439L140.884 46.1042L140.912 46.1951L140.941 46.2859L140.97 46.3768L140.999 46.4678L141.027 46.5145L141.056 46.5997L141.084 46.6908L141.113 46.7818L141.141 46.8729L141.17 46.9449L141.198 47.0052L141.227 47.0963L141.255 47.1875L141.283 47.2788L141.311 47.37L141.339 47.4174L141.368 47.5026L141.396 47.594L141.424 47.6853L141.452 47.7767L141.48 47.8493L141.508 47.9096L141.536 48.0011L141.563 48.0926L141.591 48.1841L141.619 48.2756L141.647 48.3236L141.675 48.4089L141.702 48.5005L141.73 48.5922L141.757 48.6839L141.785 48.7571L141.812 48.8174L141.84 48.9091L141.867 49.001L141.895 49.0928L141.922 49.1846L141.949 49.2333L141.976 49.3185L142.004 49.4104L142.031 49.5024L142.058 49.5944L142.085 49.6683L142.112 49.7285L142.139 49.8205L142.166 49.9126L142.193 50.0048L142.219 50.0969L142.246 50.1462L142.273 50.2314L142.3 50.3236L142.326 50.4159L142.353 50.5082L142.38 50.5827L142.406 50.6428L142.433 50.7352L142.459 50.8276L142.486 50.92L142.512 51.0125L142.538 51.0623L142.565 51.1475L142.591 51.24L142.617 51.3326L142.643 51.4252L142.67 51.5003L142.696 51.5604L142.722 51.6531L142.748 51.7457L142.774 51.8385L142.8 51.9312L142.825 51.9816L142.851 52.0668L142.877 52.1596L142.903 52.2524L142.928 52.3453L142.954 52.4211L142.98 52.4811L143.005 52.5741L143.031 52.6671L143.056 52.76L143.082 52.8531L143.107 52.9041L143.133 52.9892L143.158 53.0823L143.183 53.1754L143.208 53.2686L143.234 53.3449L143.259 53.4049L143.284 53.4982L143.309 53.5914L143.334 53.6847L143.359 53.778L143.384 53.8297L143.409 53.9147L143.434 54.0081L143.458 54.1015L143.483 54.1949L143.508 54.2718L143.532 54.3318L143.557 54.4253L143.582 54.5188L143.606 54.6124L143.631 54.7059L143.655 54.7582L143.68 54.8432L143.704 54.9368L143.728 55.0305L143.752 55.1242L143.777 55.2017L143.801 55.2617L143.825 55.3554L143.849 55.4492L143.873 55.543L143.897 55.6369L143.921 55.6897L143.945 55.7746L143.969 55.8685L143.993 55.9625L144.017 56.0564L144.04 56.1346L144.064 56.1945L144.088 56.2885L144.111 56.3825L144.135 56.4766L144.158 56.5707L144.182 56.6241L144.205 56.709L144.229 56.8032L144.252 56.8974L144.275 56.9916L144.299 57.0703L144.322 57.1301L144.345 57.2244L144.368 57.3187L144.391 57.413L144.414 57.5074L144.437 57.5614L144.46 57.6462L144.483 57.7406L144.506 57.8351L144.529 57.9296L144.552 58.0088L144.574 58.0686L144.597 58.1631L144.62 58.2577L144.642 58.3523L144.665 58.4469L144.687 58.5015L144.71 58.5862L144.732 58.6809L144.755 58.7755L144.777 58.8703L144.799 58.9502L144.821 59.0098L144.843 59.1046L144.866 59.1994L144.888 59.2942L144.91 59.3891L144.932 59.4443L144.954 59.5289L144.976 59.6238L144.998 59.7188L145.019 59.8137L145.041 59.8942L145.063 59.9537L145.085 60.0487L145.106 60.1438L145.128 60.2389L145.149 60.334L145.171 60.3897L145.192 60.4742L145.214 60.5694L145.235 60.6646L145.257 60.7598L145.278 60.8408L145.299 60.9003L145.32 60.9955L145.341 61.0908L145.362 61.1861L145.384 61.2815L145.405 61.3378L145.426 61.4222L145.446 61.5176L145.467 61.613L145.488 61.7085L145.509 61.79L145.53 61.8494L145.55 61.9449L145.571 62.0404L145.592 62.136L145.612 62.2315L145.633 62.2884L145.653 62.3727L145.674 62.4684L145.694 62.564L145.714 62.6597L145.735 62.7418L145.755 62.8011L145.775 62.8968L145.795 62.9925L145.815 63.0883L145.835 63.1841L145.855 63.2415L145.875 63.3258L145.895 63.4216L145.915 63.5175L145.935 63.6134L145.955 63.696L145.974 63.7552L145.994 63.8511L146.014 63.9471L146.033 64.0431L146.053 64.1391L146.072 64.1971L146.092 64.2812L146.111 64.3772L146.13 64.4733L146.15 64.5694L146.169 64.6527L146.188 64.7117L146.207 64.8079L146.226 64.904L146.246 65.0002L146.265 65.0965L146.284 65.155L146.302 65.239L146.321 65.3353L146.34 65.4315L146.359 65.5279L146.378 65.6116L146.396 65.6705L146.415 65.7669L146.434 65.8633L146.452 65.9597L146.471 66.0562L146.489 66.1152L146.508 66.1991L146.526 66.2956L146.544 66.3921L146.563 66.4886L146.581 66.5729L146.599 66.6317L146.617 66.7283L146.635 66.8249L146.653 66.9215L146.671 67.0181L146.689 67.0777L146.707 67.1614L146.725 67.2581L146.743 67.3548L146.761 67.4515L146.778 67.5363L146.796 67.595L146.814 67.6918L146.831 67.7886L146.849 67.8854L146.866 67.9822L146.884 68.0423L146.901 68.1259L146.919 68.2228L146.936 68.3197L146.953 68.4166L146.97 68.502L146.987 68.5605L147.005 68.6575L147.022 68.7545L147.039 68.8515L147.056 68.9485L147.072 69.0091L147.089 69.0926L147.106 69.1896L147.123 69.2867L147.14 69.3838L147.156 69.4697L147.173 69.5281L147.19 69.6252L147.206 69.7224L147.223 69.8196L147.239 69.9168L147.255 69.9779L147.272 70.0613L147.288 70.1585L147.304 70.2558L147.321 70.3531L147.337 70.4394L147.353 70.4977L147.369 70.595L147.385 70.6924L147.401 70.7897L147.417 70.8871L147.433 70.9487L147.448 71.032L147.464 71.1294L147.48 71.2268L147.496 71.3243L147.511 71.4111L147.527 71.4693L147.542 71.5668L147.558 71.6643L147.573 71.7618L147.589 71.8594L147.604 71.9215L147.619 72.0045L147.635 72.1021L147.65 72.1998L147.665 72.2974L147.68 72.3847L147.695 72.4427L147.71 72.5404L147.725 72.6381L147.74 72.7358L147.755 72.8335L147.77 72.8961L147.784 72.979L147.799 73.0768L147.814 73.1746L147.828 73.2724L147.843 73.3602L147.857 73.418L147.872 73.5159L147.886 73.6137L147.901 73.7116L147.915 73.8095L147.929 73.8726L147.944 73.9553L147.958 74.0532L147.972 74.1512L147.986 74.2491L148 74.3374L148.014 74.3951L148.028 74.4931L148.042 74.5911L148.056 74.6891L148.07 74.7872L148.083 74.8507L148.097 74.9333L148.111 75.0314L148.124 75.1295L148.138 75.2276L148.151 75.3164L148.165 75.3738L148.178 75.472L148.192 75.5702L148.205 75.6683L148.218 75.7665L148.231 75.8306L148.245 75.9129L148.258 76.0112L148.271 76.1094L148.284 76.2077L148.297 76.297L148.31 76.3542L148.323 76.4525L148.335 76.5508L148.348 76.6492L148.361 76.7475L148.374 76.812L148.386 76.8942L148.399 76.9926L148.411 77.091L148.424 77.1894L148.436 77.2791L148.449 77.3362L148.461 77.4346L148.473 77.5331L148.486 77.6316L148.498 77.73L148.51 77.795L148.522 77.877L148.534 77.9755L148.546 78.0741L148.558 78.1726L148.57 78.2628L148.582 78.3197L148.594 78.4183L148.605 78.5169L148.617 78.6154L148.629 78.714L148.64 78.7795L148.652 78.8613L148.663 78.9599L148.675 79.0586L148.686 79.1572L148.698 79.2479L148.709 79.3046L148.72 79.4033L148.731 79.502L148.743 79.6007L148.754 79.6995L148.765 79.7654L148.776 79.847L148.787 79.9457L148.798 80.0445L148.809 80.1433L148.819 80.2344L148.83 80.2909L148.841 80.3897L148.852 80.4886L148.862 80.5874L148.873 80.6863L148.883 80.7526L148.894 80.834L148.904 80.9329L148.915 81.0318L148.925 81.1307L148.935 81.2222L148.945 81.2785L148.956 81.3775L148.966 81.4764L148.976 81.5754L148.986 81.6743L148.996 81.7411L149.006 81.8223L149.016 81.9213L149.026 82.0203L149.035 82.1193L149.045 82.2113L149.055 82.2674L149.064 82.3664L149.074 82.4655L149.084 82.5645L149.093 82.6636L149.103 82.7308L149.112 82.8118L149.121 82.9109L149.131 83.01L149.14 83.1091L149.149 83.2016L149.158 83.2574L149.167 83.3566L149.176 83.4557L149.185 83.5549L149.194 83.6541L149.203 83.7217L149.212 83.8024L149.221 83.9016L149.23 84.0009L149.238 84.1001L149.247 84.1929L149.256 84.2486L149.264 84.3478L149.273 84.4471L149.281 84.5463L149.289 84.6456L149.298 84.7137L149.306 84.7942L149.314 84.8935L149.323 84.9928L149.331 85.0921L149.339 85.1854L149.347 85.2407L149.355 85.3401L149.363 85.4394L149.371 85.5388L149.379 85.6381L149.387 85.7066L149.394 85.7869L149.402 85.8863L149.41 85.9857L149.417 86.0851L149.425 86.1787L149.432 86.2339L149.44 86.3333L149.447 86.4328L149.455 86.5322L149.462 86.6316L149.469 86.7005L149.476 86.7805L149.484 86.88L149.491 86.9795L149.498 87.079L149.505 87.1731L149.512 87.228L149.519 87.3275L149.526 87.427L149.532 87.5265L149.539 87.626L149.546 87.6953L149.553 87.7751L149.559 87.8746L149.566 87.9742L149.572 88.0737L149.579 88.1682L149.585 88.2229L149.592 88.3224L149.598 88.422L149.604 88.5216L149.611 88.6212L149.617 88.6909L149.623 88.7704L149.629 88.87L149.635 88.9697L149.641 89.0693L149.647 89.1642L149.653 89.2186L149.659 89.3182L149.664 89.4178L149.67 89.5175L149.676 89.6172L149.681 89.6872L149.687 89.7665L149.693 89.8662L149.698 89.9658L149.703 90.0655L149.709 90.1608L149.714 90.2149L149.719 90.3146L149.725 90.4143L149.73 90.5141L149.735 90.6138L149.74 90.6842L149.745 90.7632L149.75 90.863L149.755 90.9627L149.76 91.0625L149.765 91.1581L149.77 91.2119L149.774 91.3117L149.779 91.4115L149.784 91.5112L149.788 91.611L149.793 91.6819L149.797 91.7606L149.802 91.8604L149.806 91.9601L149.811 92.0599L149.815 92.156L149.819 92.2095L149.823 92.3094L149.827 92.4092L149.832 92.509L149.836 92.6088L149.84 92.68L149.844 92.7585L149.847 92.8583L149.851 92.9581L149.855 93.058L149.859 93.1544L149.863 93.2077L149.866 93.3075L149.87 93.4074L149.873 93.5072L149.877 93.6071L149.88 93.6787L149.884 93.7568L149.887 93.8567L149.89 93.9566L149.894 94.0564L149.897 94.1532L149.9 94.2062L149.903 94.3061L149.906 94.406L149.909 94.5059L149.912 94.6058L149.915 94.6777L149.918 94.7556L149.921 94.8555L149.924 94.9554L149.926 95.0553L149.929 95.1525L149.932 95.2051L149.934 95.3051L149.937 95.405L149.939 95.5049L149.942 95.6048L149.944 95.6771L149.946 95.7547L149.949 95.8546L149.951 95.9545L149.953 96.0545L149.955 96.152L149.957 96.2044L149.959 96.3043L149.961 96.4043L149.963 96.5042L149.965 96.6042L149.967 96.6768L149.969 96.7541L149.97 96.854L149.972 96.954L149.974 97.0539L149.975 97.1518L149.977 97.2039L149.978 97.3038L149.98 97.4038L149.981 97.5038L149.982 97.6037L149.984 97.6767L149.985 97.7537L149.986 97.8536L149.987 97.9536L149.988 98.0536L149.989 98.1517L149.99 98.2035L149.991 98.3035L149.992 98.4035L149.993 98.5034L149.994 98.6034L149.995 98.6768L149.995 98.7534L149.996 98.8533L149.997 98.9533L149.997 99.0533L149.998 99.1518L149.998 99.2033L149.998 99.3033L149.999 99.4032L149.999 99.5032L149.999 99.6032L150 99.6769L150 99.7532L150 99.8532L150 99.9531L150 100.053L150 100.152L150 100.203L150 100.303L149.999 100.403L149.999 100.503L149.999 100.603L149.999 100.677L149.998 100.753L149.998 100.853L149.997 100.953L149.997 101.053L149.996 101.152L149.996 101.203L149.995 101.303L149.994 101.403L149.993 101.503L149.993 101.603L149.992 101.677L149.991 101.753L149.99 101.853L149.989 101.953L149.988 102.053L149.987 102.152L149.985 102.203L149.984 102.303L149.983 102.403L149.982 102.503L149.98 102.603L149.979 102.677L149.977 102.752L149.976 102.852L149.974 102.952L149.973 103.052L149.971 103.152L149.969 103.202L149.968 103.302L149.966 103.402L149.964 103.502L149.962 103.602L149.96 103.677L149.958 103.752L149.956 103.852L149.954 103.952L149.952 104.052L149.95 104.152L149.947 104.202L149.945 104.302L149.943 104.402L149.94 104.501L149.938 104.601L149.935 104.677L149.933 104.751L149.93 104.851L149.928 104.951L149.925 105.051L149.922 105.151L149.919 105.201L149.917 105.301L149.914 105.401L149.911 105.5L149.908 105.6L149.905 105.676L149.902 105.75L149.899 105.85L149.895 105.95L149.892 106.05L149.889 106.15L149.885 106.2L149.882 106.299L149.879 106.399L149.875 106.499L149.872 106.599L149.868 106.675L149.864 106.749L149.861 106.849L149.857 106.948L149.853 107.048L149.849 107.148L149.846 107.199L149.842 107.298L149.838 107.398L149.834 107.497L149.83 107.597L149.825 107.673L149.821 107.747L149.817 107.847L149.813 107.946L149.808 108.046L149.804 108.146L149.8 108.197L149.795 108.296L149.791 108.395L149.786 108.495L149.781 108.595L149.777 108.671L149.772 108.744L149.767 108.844L149.762 108.944L149.758 109.044L149.753 109.143L149.748 109.195L149.743 109.293L149.738 109.393L149.733 109.492L149.727 109.592L149.722 109.669L149.717 109.742L149.712 109.841L149.706 109.941L149.701 110.041L149.695 110.14L149.69 110.192L149.684 110.29L149.679 110.389L149.673 110.489L149.667 110.589L149.661 110.666L149.656 110.738L149.65 110.838L149.644 110.937L149.638 111.037L149.632 111.136L149.626 111.189L149.62 111.286L149.614 111.385L149.607 111.485L149.601 111.585L149.595 111.662L149.588 111.734L149.582 111.833L149.576 111.933L149.569 112.032L149.563 112.132L149.556 112.184L149.549 112.281L149.543 112.381L149.536 112.48L149.529 112.58L149.522 112.657L149.515 112.729L149.508 112.828L149.501 112.928L149.494 113.027L149.487 113.127L149.48 113.179L149.473 113.275L149.466 113.375L149.458 113.474L149.451 113.574L149.444 113.652L149.436 113.723L149.429 113.822L149.421 113.922L149.414 114.021L149.406 114.12L149.398 114.173L149.39 114.269L149.383 114.368L149.375 114.468L149.367 114.567L149.359 114.645L149.351 114.716L149.343 114.815L149.335 114.915L149.327 115.014L149.319 115.113L149.31 115.166L149.302 115.262L149.294 115.361L149.285 115.46L149.277 115.56L149.268 115.638L149.26 115.708L149.251 115.807L149.243 115.907L149.234 116.006L149.225 116.105L149.216 116.158L149.208 116.253L149.199 116.353L149.19 116.452L149.181 116.551L149.172 116.629L149.163 116.699L149.154 116.798L149.144 116.898L149.135 116.997L149.126 117.096L149.117 117.149L149.107 117.244L149.098 117.343L149.088 117.442L149.079 117.541L149.069 117.62L149.06 117.689L149.05 117.788L149.04 117.887L149.03 117.986L149.021 118.086L149.011 118.139L149.001 118.233L148.991 118.332L148.981 118.431L148.971 118.53L148.961 118.609L148.951 118.678L148.94 118.777L148.93 118.876L148.92 118.975L148.909 119.074L148.899 119.128L148.889 119.222L148.878 119.321L148.867 119.419L148.857 119.518L148.846 119.597L148.836 119.666L148.825 119.765L148.814 119.864L148.803 119.962L148.792 120.061L148.781 120.115L148.77 120.209L148.759 120.307L148.748 120.406L148.737 120.505L148.726 120.584L148.715 120.652L148.703 120.751L148.692 120.85L148.681 120.948L148.669 121.047L148.658 121.101L148.646 121.194L148.635 121.293L148.623 121.392L148.611 121.49L148.599 121.57L148.588 121.637L148.576 121.736L148.564 121.834L148.552 121.933L148.54 122.031L148.528 122.086L148.516 122.179L148.504 122.277L148.492 122.375L148.479 122.474L148.467 122.554L148.455 122.621L148.442 122.719L148.43 122.818L148.418 122.916L148.405 123.015L148.393 123.069L148.38 123.161L148.367 123.26L148.355 123.358L148.342 123.456L148.329 123.536L148.316 123.603L148.303 123.701L148.29 123.799L148.277 123.898L148.264 123.996L148.251 124.051L148.238 124.142L148.225 124.241L148.212 124.339L148.198 124.437L148.185 124.517L148.172 124.583L148.158 124.682L148.145 124.78L148.131 124.878L148.117 124.976L148.104 125.031L148.09 125.122L148.076 125.22L148.063 125.318L148.049 125.416L148.035 125.496L148.021 125.562L148.007 125.66L147.993 125.758L147.979 125.856L147.965 125.954L147.951 126.009L147.937 126.1L147.922 126.198L147.908 126.296L147.894 126.394L147.879 126.474L147.865 126.539L147.85 126.637L147.836 126.735L147.821 126.833L147.806 126.931L147.792 126.986L147.777 127.076L147.762 127.174L147.747 127.272L147.732 127.369L147.718 127.45L147.703 127.515L147.688 127.612L147.672 127.71L147.657 127.808L147.642 127.905L147.627 127.961L147.612 128.051L147.596 128.148L147.581 128.246L147.566 128.343L147.55 128.424L147.535 128.488L147.519 128.586L147.503 128.683L147.488 128.781L147.472 128.878L147.456 128.934L147.441 129.023L147.425 129.12L147.409 129.218L147.393 129.315L147.377 129.396L147.361 129.46L147.345 129.557L147.329 129.655L147.312 129.752L147.296 129.849L147.28 129.905L147.264 129.994L147.247 130.091L147.231 130.188L147.214 130.285L147.198 130.366L147.181 130.43L147.165 130.527L147.148 130.624L147.131 130.721L147.115 130.818L147.098 130.874L147.081 130.962L147.064 131.059L147.047 131.156L147.03 131.253L147.013 131.334L146.996 131.397L146.979 131.494L146.962 131.591L146.944 131.688L146.927 131.785L146.91 131.841L146.892 131.929L146.875 132.026L146.858 132.122L146.84 132.219L146.823 132.301L146.805 132.363L146.787 132.46L146.77 132.556L146.752 132.653L146.734 132.75L146.716 132.806L146.698 132.893L146.68 132.99L146.662 133.087L146.644 133.183L146.626 133.265L146.608 133.326L146.59 133.423L146.572 133.519L146.554 133.616L146.535 133.712L146.517 133.769L146.498 133.855L146.48 133.952L146.462 134.048L146.443 134.145L146.424 134.226L146.406 134.288L146.387 134.384L146.368 134.48L146.35 134.577L146.331 134.673L146.312 134.729L146.293 134.815L146.274 134.912L146.255 135.008L146.236 135.104L146.217 135.186L146.198 135.247L146.179 135.343L146.159 135.439L146.14 135.535L146.121 135.631L146.101 135.688L146.082 135.773L146.062 135.869L146.043 135.965L146.023 136.061L146.004 136.143L145.984 136.203L145.964 136.299L145.945 136.395L145.925 136.491L145.905 136.587L145.885 136.644L145.865 136.728L145.845 136.824L145.825 136.92L145.805 137.016L145.785 137.098L145.765 137.157L145.745 137.253L145.724 137.349L145.704 137.444L145.684 137.54L145.663 137.597L145.643 137.681L145.622 137.777L145.602 137.873L145.581 137.968L145.561 138.05L145.54 138.109L145.519 138.205L145.499 138.3L145.478 138.396L145.457 138.491L145.436 138.548L145.415 138.632L145.394 138.727L145.373 138.822L145.352 138.918L145.331 139L145.31 139.058L145.288 139.154L145.267 139.249L145.246 139.344L145.224 139.439L145.203 139.496L145.182 139.58L145.16 139.675L145.139 139.77L145.117 139.865L145.095 139.947L145.074 140.005L145.052 140.1L145.03 140.195L145.008 140.29L144.987 140.385L144.965 140.442L144.943 140.525L144.921 140.62L144.899 140.715L144.877 140.81L144.855 140.892L144.832 140.949L144.81 141.044L144.788 141.139L144.766 141.233L144.743 141.328L144.721 141.385L144.698 141.467L144.676 141.562L144.653 141.657L144.631 141.751L144.608 141.834L144.586 141.89L144.563 141.985L144.54 142.079L144.517 142.174L144.495 142.268L144.472 142.326L144.449 142.407L144.426 142.502L144.403 142.596L144.38 142.69L144.357 142.773L144.333 142.829L144.31 142.923L144.287 143.018L144.264 143.112L144.24 143.206L144.217 143.263L144.194 143.344L144.17 143.439L144.147 143.533L144.123 143.627L144.1 143.709L144.076 143.765L144.052 143.859L144.028 143.953L144.005 144.047L143.981 144.141L143.957 144.198L143.933 144.279L143.909 144.372L143.885 144.466L143.861 144.56L143.837 144.643L143.813 144.698L143.789 144.792L143.765 144.885L143.74 144.979L143.716 145.073L143.692 145.13L143.667 145.21L143.643 145.304L143.618 145.397L143.594 145.491L143.569 145.573L143.545 145.628L143.52 145.721L143.495 145.815L143.471 145.908L143.446 146.002L143.421 146.059L143.396 146.138L143.371 146.232L143.346 146.325L143.321 146.418L143.296 146.501L143.271 146.555L143.246 146.648L143.221 146.741L143.196 146.834L143.171 146.927L143.145 146.985L143.12 147.064L143.094 147.157L143.069 147.25L143.044 147.343L143.018 147.425L142.993 147.479L142.967 147.572L142.941 147.665L142.916 147.757L142.89 147.85L142.864 147.908L142.838 147.986L142.812 148.079L142.787 148.171L142.761 148.264L142.735 148.347L142.709 148.4L142.683 148.492L142.656 148.585L142.63 148.677L142.604 148.77L142.578 148.828L142.552 148.905L142.525 148.998L142.499 149.09L142.472 149.182L142.446 149.265L142.42 149.317L142.393 149.41L142.366 149.502L142.34 149.594L142.313 149.687L142.286 149.744L142.26 149.821L142.233 149.913L142.206 150.005L142.179 150.098L142.152 150.18L142.125 150.232L142.098 150.324L142.071 150.416L142.044 150.508L142.017 150.6L141.99 150.658L141.963 150.734L141.935 150.826L141.908 150.918L141.881 151.009L141.853 151.092L141.826 151.143L141.799 151.235L141.771 151.327L141.744 151.418L141.716 151.51L141.688 151.568L141.661 151.643L141.633 151.735L141.605 151.826L141.577 151.918L141.55 152.001L141.522 152.051L141.494 152.142L141.466 152.234L141.438 152.325L141.41 152.417L141.382 152.475L141.354 152.549L141.325 152.641L141.297 152.732L141.269 152.823L141.241 152.906L141.212 152.956L141.184 153.047L141.156 153.138L141.127 153.229L141.099 153.32L141.07 153.378L141.041 153.452L141.013 153.543L140.984 153.634L140.956 153.725L140.927 153.808L140.898 153.857L140.869 153.948L140.84 154.038L140.811 154.129L140.782 154.22L140.754 154.278L140.724 154.351L140.695 154.442L140.666 154.533L140.637 154.623L140.608 154.706L140.579 154.754L140.549 154.845L140.52 154.935L140.491 155.026L140.461 155.116L140.432 155.174L140.403 155.247L140.373 155.337L140.343 155.428L140.314 155.518L140.284 155.601L140.255 155.649L140.225 155.739L140.195 155.829L140.165 155.919L140.136 156.009L140.106 156.067L140.076 156.139L140.046 156.229L140.016 156.319L139.986 156.409L139.956 156.492L139.926 156.539L139.895 156.629L139.865 156.719L139.835 156.809L139.805 156.898L139.774 156.956L139.744 157.028L139.714 157.118L139.683 157.207L139.653 157.297L139.622 157.38L139.592 157.426L139.561 157.516L139.531 157.605L139.5 157.695L139.469 157.784L139.439 157.842L139.408 157.913L139.377 158.002L139.346 158.091L139.315 158.181L139.284 158.264L139.253 158.309L139.222 158.398L139.191 158.488L139.16 158.577L139.129 158.666L139.098 158.724L139.067 158.794L139.035 158.883L139.004 158.972L138.973 159.061L138.941 159.144L138.91 159.189L138.879 159.278L138.847 159.366L138.816 159.455L138.784 159.544L138.752 159.602L138.721 159.671L138.689 159.76L138.657 159.849L138.626 159.937L138.594 160.02L138.562 160.065L138.53 160.153L138.498 160.242L138.466 160.33L138.434 160.418L138.402 160.476L138.37 160.545L138.338 160.633L138.306 160.722L138.274 160.81L138.242 160.893L138.209 160.936L138.177 161.025L138.145 161.113L138.112 161.201L138.08 161.289L138.048 161.347L138.015 161.415L137.983 161.503L137.95 161.591L137.917 161.679L137.885 161.762L137.852 161.804L137.82 161.892L137.787 161.98L137.754 162.068L137.721 162.155L137.688 162.213L137.655 162.281L137.623 162.368L137.59 162.456L137.557 162.544L137.524 162.626L137.49 162.669L137.457 162.756L137.424 162.843L137.391 162.931L137.358 163.018L137.325 163.076L137.291 163.143L137.258 163.23L137.225 163.317L137.191 163.404L137.158 163.487L137.124 163.529L137.091 163.616L137.057 163.703L137.023 163.79L136.99 163.877L136.956 163.934L136.923 164.001L136.889 164.088L136.855 164.174L136.821 164.261L136.787 164.344L136.753 164.385L136.719 164.471L136.686 164.558L136.652 164.645L136.618 164.731L136.583 164.789L136.549 164.854L136.515 164.941L136.481 165.027L136.447 165.114L136.413 165.197L136.378 165.237L136.344 165.323L136.31 165.409L136.275 165.496L136.241 165.582L136.206 165.639L136.172 165.704L136.137 165.79L136.103 165.876L136.068 165.963L136.033 166.045L135.999 166.085L135.964 166.171L135.929 166.256L135.895 166.342L135.86 166.428L135.825 166.486L135.79 166.55L135.755 166.636L135.72 166.721L135.685 166.807L135.65 166.89L135.615 166.928L135.58 167.014L135.545 167.099L135.51 167.185L135.474 167.27L135.439 167.328L135.404 167.391L135.368 167.477L135.333 167.562L135.298 167.647L135.262 167.73L135.227 167.768L135.191 167.853L135.156 167.938L135.12 168.023L135.085 168.108L135.049 168.166L135.013 168.228L134.978 168.313L134.942 168.398L134.906 168.483L134.87 168.566L134.834 168.603L134.799 168.688L134.763 168.773L134.727 168.857L134.691 168.942L134.655 168.999L134.619 169.061L134.583 169.146L134.546 169.23L134.51 169.315L134.474 169.397L134.438 169.434L134.402 169.518L134.365 169.603L134.329 169.687L134.293 169.771L134.256 169.829L134.22 169.89L134.183 169.974L134.147 170.058L134.11 170.142L134.074 170.225L134.037 170.26L134.001 170.344L133.964 170.428L133.927 170.512L133.891 170.596L133.854 170.654L133.817 170.714L133.78 170.798L133.743 170.882L133.706 170.965L133.669 171.048L133.632 171.083L133.595 171.166L133.558 171.25L133.521 171.333L133.484 171.417L133.447 171.474L133.41 171.534L133.373 171.617L133.336 171.7L133.298 171.784L133.261 171.866L133.224 171.9L133.186 171.984L133.149 172.067L133.111 172.15L133.074 172.233L133.036 172.29L132.999 172.349L132.961 172.432L132.924 172.515L132.886 172.598L132.849 172.68L132.811 172.714L132.773 172.796L132.735 172.879L132.698 172.962L132.66 173.044L132.622 173.102L132.584 173.16L132.546 173.242L132.508 173.325L132.47 173.407L132.432 173.489L132.394 173.522L132.356 173.605L132.318 173.687L132.28 173.769L132.242 173.852L132.203 173.908L132.165 173.966L132.127 174.048L132.089 174.13L132.05 174.212L132.012 174.294L131.973 174.326L131.935 174.408L131.896 174.49L131.858 174.572L131.819 174.654L131.781 174.711L131.742 174.768L131.704 174.849L131.665 174.931L131.626 175.013L131.588 175.094L131.549 175.126L131.51 175.207L131.471 175.289L131.432 175.37L131.394 175.452L131.355 175.508L131.316 175.564L131.277 175.646L131.238 175.727L131.199 175.808L131.16 175.889L131.121 175.921L131.081 176.002L131.042 176.083L131.003 176.164L130.964 176.245L130.925 176.301L130.885 176.357L130.846 176.438L130.807 176.518L130.767 176.599L130.728 176.68L130.688 176.712L130.649 176.791L130.609 176.872L130.57 176.953L130.53 177.033L130.491 177.09L130.451 177.144L130.412 177.225L130.372 177.305L130.332 177.385L130.292 177.466L130.253 177.497L130.213 177.576L130.173 177.657L130.133 177.737L130.093 177.817L130.053 177.873L130.013 177.927L129.973 178.007L129.933 178.087L129.893 178.167L129.853 178.247L129.813 178.278L129.773 178.356L129.733 178.436L129.693 178.516L129.653 178.596L129.612 178.652L129.572 178.705L129.532 178.784L129.491 178.864L129.451 178.943L129.411 179.023L129.37 179.054L129.33 179.132L129.289 179.211L129.249 179.29L129.208 179.37L129.168 179.426L129.127 179.478L129.086 179.557L129.046 179.636L129.005 179.715L128.964 179.794L128.924 179.825L128.883 179.902L128.842 179.981L128.801 180.06L128.76 180.139L128.72 180.195L128.679 180.246L128.638 180.325L128.597 180.403L128.556 180.482L128.515 180.561L128.474 180.592L128.433 180.668L128.391 180.746L128.35 180.824L128.309 180.903L128.268 180.959L128.227 181.009L128.185 181.088L128.144 181.166L128.103 181.244L128.062 181.322L128.02 181.353L127.979 181.428L127.937 181.506L127.896 181.584L127.854 181.662L127.813 181.718L127.771 181.768L127.73 181.845L127.688 181.923L127.647 182.001L127.605 182.078L127.563 182.109L127.522 182.184L127.48 182.261L127.438 182.339L127.396 182.416L127.355 182.472L127.313 182.521L127.271 182.598L127.229 182.675L127.187 182.753L127.145 182.83L127.103 182.86L127.061 182.934L127.019 183.011L126.977 183.088L126.935 183.165L126.893 183.221L126.851 183.269L126.809 183.346L126.766 183.423L126.724 183.499L126.682 183.576L126.64 183.607L126.597 183.679L126.555 183.756L126.513 183.833L126.47 183.909L126.428 183.965L126.385 184.012L126.343 184.088L126.3 184.165L126.258 184.241L126.215 184.317L126.173 184.348L126.13 184.42L126.088 184.496L126.045 184.572L126.002 184.648L125.96 184.703L125.917 184.75L125.874 184.826L125.831 184.902L125.789 184.978L125.746 185.053L125.703 185.084L125.66 185.155L125.617 185.231L125.574 185.306L125.531 185.382L125.488 185.437L125.445 185.483L125.402 185.558L125.359 185.634L125.316 185.709L125.273 185.784L125.23 185.814L125.187 185.885L125.144 185.96L125.1 186.035L125.057 186.11L125.014 186.165L124.971 186.21L124.927 186.285L124.884 186.36L124.841 186.435L124.797 186.51L124.754 186.54L124.711 186.61L124.667 186.684L124.624 186.759L124.58 186.834L124.537 186.888L124.493 186.933L124.449 187.007L124.406 187.082L124.362 187.156L124.319 187.23L124.275 187.26L124.231 187.329L124.187 187.403L124.144 187.477L124.1 187.552L124.056 187.606L124.012 187.65L123.968 187.724L123.925 187.798L123.881 187.872L123.837 187.946L123.793 187.975L123.749 188.043L123.705 188.117L123.661 188.191L123.617 188.264L123.573 188.319L123.529 188.361L123.485 188.435L123.441 188.508L123.396 188.582L123.352 188.655L123.308 188.685L123.264 188.752L123.22 188.825L123.175 188.898L123.131 188.972L123.087 189.026L123.042 189.068L122.998 189.141L122.954 189.214L122.909 189.287L122.865 189.36L122.82 189.389L122.776 189.455L122.731 189.528L122.687 189.601L122.642 189.674L122.598 189.728L122.553 189.769L122.508 189.841L122.464 189.914L122.419 189.986L122.374 190.059L122.33 190.088L122.285 190.153L122.24 190.226L122.196 190.298L122.151 190.37L122.106 190.424L122.061 190.464L122.016 190.536L121.971 190.608L121.926 190.681L121.881 190.752L121.837 190.781L121.792 190.846L121.747 190.918L121.702 190.99L121.657 191.061L121.611 191.115L121.566 191.155L121.521 191.226L121.476 191.298L121.431 191.369L121.386 191.441L121.341 191.469L121.295 191.533L121.25 191.605L121.205 191.676L121.16 191.747L121.114 191.801L121.069 191.839L121.024 191.91L120.978 191.981L120.933 192.052L120.888 192.123L120.842 192.152L120.797 192.215L120.751 192.286L120.706 192.356L120.66 192.427L120.615 192.481L120.569 192.518L120.524 192.589L120.478 192.659L120.432 192.73L120.387 192.8L120.341 192.829L120.296 192.891L120.25 192.961L120.204 193.032L120.158 193.102L120.113 193.155L120.067 193.192L120.021 193.262L119.975 193.332L119.929 193.402L119.884 193.472L119.838 193.5L119.792 193.562L119.746 193.631L119.7 193.701L119.654 193.771L119.608 193.824L119.562 193.86L119.516 193.93L119.47 193.999L119.424 194.069L119.378 194.138L119.332 194.166L119.286 194.227L119.24 194.296L119.193 194.365L119.147 194.434L119.101 194.487L119.055 194.522L119.009 194.592L118.962 194.661L118.916 194.729L118.87 194.798L118.824 194.826L118.777 194.886L118.731 194.955L118.685 195.023L118.638 195.092L118.592 195.145L118.545 195.179L118.499 195.248L118.452 195.316L118.406 195.385L118.36 195.453L118.313 195.481L118.267 195.54L118.22 195.608L118.173 195.676L118.127 195.744L118.08 195.797L118.034 195.83L117.987 195.898L117.94 195.966L117.894 196.034L117.847 196.102L117.8 196.13L117.754 196.188L117.707 196.255L117.66 196.323L117.613 196.391L117.566 196.443L117.52 196.476L117.473 196.543L117.426 196.611L117.379 196.678L117.332 196.746L117.285 196.773L117.238 196.83L117.191 196.897L117.145 196.965L117.066 197L116.971 197.017L116.922 197.034L116.825 197.051L116.728 197.068L116.631 197.085L116.534 197.101L116.463 197.118L116.39 197.134L116.293 197.151L116.196 197.167L116.098 197.183L116.002 197.199L115.954 197.216L115.857 197.232L115.76 197.247L115.662 197.263L115.565 197.279L115.494 197.295L115.421 197.31L115.323 197.326L115.226 197.341L115.129 197.356L115.032 197.371L114.984 197.387L114.887 197.402L114.789 197.417L114.692 197.432L114.595 197.447L114.523 197.462L114.45 197.477L114.352 197.491L114.255 197.506L114.157 197.52L114.06 197.534L114.012 197.549L113.915 197.563L113.817 197.577L113.72 197.591L113.622 197.605L113.55 197.619L113.477 197.633L113.379 197.647L113.281 197.66L113.184 197.673L113.086 197.687L113.038 197.702L112.941 197.714L112.843 197.727L112.745 197.74L112.648 197.753L112.575 197.767L112.502 197.78L112.404 197.793L112.307 197.805L112.209 197.817L112.111 197.829L112.063 197.844L111.965 197.856L111.867 197.868L111.77 197.88L111.672 197.891L111.598 197.904L111.526 197.917L111.428 197.929L111.33 197.94L111.232 197.951L111.134 197.962L111.086 197.976L110.988 197.987L110.89 197.998L110.792 198.009L110.694 198.02L110.62 198.032L110.548 198.044L110.45 198.055L110.352 198.065L110.254 198.075L110.156 198.086L110.107 198.099L110.01 198.109L109.912 198.119L109.814 198.129L109.715 198.139L109.641 198.15L109.569 198.161L109.471 198.171L109.373 198.18L109.275 198.19L109.176 198.199L109.127 198.212L109.03 198.221L108.932 198.23L108.833 198.239L108.735 198.248L108.66 198.258L108.589 198.269L108.49 198.277L108.392 198.286L108.294 198.294L108.195 198.302L108.145 198.315L108.049 198.323L107.95 198.331L107.852 198.339L107.754 198.347L107.679 198.356L107.607 198.366L107.509 198.374L107.41 198.381L107.312 198.389L107.213 198.396L107.163 198.408L107.066 198.415L106.968 198.422L106.87 198.429L106.771 198.436L106.696 198.445L106.624 198.454L106.526 198.46L106.427 198.467L106.329 198.473L106.23 198.48L106.179 198.49L106.083 198.497L105.985 198.503L105.886 198.509L105.788 198.515L105.712 198.523L105.64 198.531L105.542 198.537L105.443 198.542L105.345 198.548L105.246 198.553L105.195 198.564L105.099 198.569L105 198.574L104.902 198.579L104.803 198.584L104.727 198.591L104.656 198.599L104.557 198.604L104.458 198.608L104.36 198.613L104.261 198.617L104.209 198.627L104.114 198.631L104.015 198.635L103.916 198.639L103.818 198.643L103.741 198.65L103.67 198.657L103.572 198.66L103.473 198.664L103.374 198.667L103.276 198.671L103.223 198.68L103.128 198.683L103.029 198.686L102.93 198.689L102.832 198.692L102.755 198.698L102.684 198.704L102.585 198.707L102.487 198.71L102.388 198.712L102.289 198.714L102.236 198.723L102.141 198.725L102.043 198.728L101.944 198.73L101.845 198.731L101.767 198.736L101.697 198.742L101.598 198.744L101.5 198.745L101.401 198.747L101.302 198.748L101.249 198.756L101.154 198.758L101.056 198.759L100.957 198.76L100.858 198.761L100.78 198.765L100.71 198.77L100.611 198.77L100.512 198.771L100.414 198.771L100.315 198.772L100.261 198.779L100.167 198.78L100.068 198.78H99.9693L99.8705 198.78L99.7921 198.783L99.7223 198.787L99.6235 198.787L99.5248 198.787L99.426 198.786L99.3272 198.786L99.2733 198.792L99.179 198.792L99.0802 198.791L98.9814 198.79L98.8826 198.789L98.8039 198.791L98.7344 198.795L98.6356 198.794L98.5368 198.792L98.438 198.791L98.3393 198.789L98.2849 198.795L98.191 198.794L98.0922 198.793L97.9934 198.791L97.8946 198.789L97.8155 198.79L97.7463 198.793L97.6475 198.791L97.5487 198.788L97.4499 198.786L97.3512 198.783L97.2965 198.788L97.2028 198.787L97.104 198.784L97.0053 198.781L96.9065 198.778L96.827 198.778L96.7581 198.781L96.6593 198.777L96.5606 198.774L96.4618 198.77L96.363 198.767L96.308 198.772L96.2146 198.769L96.1159 198.765L96.0171 198.761L95.9184 198.757L95.8386 198.757L95.77 198.758L95.6712 198.754L95.5725 198.75L95.4737 198.745L95.375 198.741L95.3195 198.745L95.2266 198.741L95.1278 198.736L95.0291 198.731L94.9304 198.726L94.8503 198.725L94.7819 198.726L94.6832 198.721L94.5845 198.715L94.4858 198.71L94.3871 198.704L94.3313 198.708L94.2387 198.703L94.14 198.698L94.0413 198.692L93.9426 198.686L93.8622 198.683L93.7941 198.684L93.6955 198.678L93.5968 198.671L93.4982 198.665L93.3995 198.658L93.3433 198.661L93.251 198.656L93.1524 198.649L93.0538 198.642L92.9551 198.635L92.8744 198.632L92.8067 198.632L92.7081 198.624L92.6095 198.617L92.5109 198.61L92.4123 198.602L92.3558 198.604L92.2638 198.598L92.1653 198.59L92.0667 198.582L91.9681 198.574L91.8871 198.57L91.8197 198.569L91.7211 198.561L91.6226 198.553L91.5241 198.544L91.4255 198.536L91.3687 198.537L91.2771 198.53L91.1786 198.522L91.0801 198.513L90.9816 198.504L90.9003 198.499L90.8332 198.497L90.7347 198.488L90.6363 198.479L90.5378 198.469L90.4394 198.46L90.3822 198.461L90.291 198.453L90.1926 198.443L90.0942 198.433L89.9958 198.423L89.9142 198.417L89.8474 198.415L89.749 198.405L89.6506 198.395L89.5523 198.384L89.4539 198.374L89.3964 198.374L89.3056 198.365L89.2072 198.355L89.1089 198.344L89.0106 198.333L88.9287 198.326L88.8623 198.323L88.764 198.312L88.6657 198.301L88.5675 198.289L88.4692 198.278L88.4114 198.277L88.321 198.268L88.2227 198.256L88.1245 198.244L88.0263 198.232L87.9442 198.225L87.8781 198.221L87.7799 198.209L87.6817 198.197L87.5836 198.185L87.4854 198.172L87.4273 198.171L87.3373 198.161L87.2391 198.148L87.141 198.135L87.0429 198.122L86.9606 198.114L86.8948 198.11L86.7967 198.097L86.6987 198.083L86.6006 198.07L86.5026 198.057L86.4441 198.054L86.3546 198.043L86.2565 198.03L86.1585 198.016L86.0606 198.002L85.978 197.993L85.9126 197.988L85.8149 197.974L85.7169 197.96L85.619 197.945L85.5211 197.931L85.4623 197.928L85.3732 197.916L85.2753 197.902L85.1774 197.887L85.0796 197.872L84.9968 197.862L84.9317 197.857L84.8339 197.842L84.7361 197.826L84.6383 197.811L84.5406 197.796L84.4815 197.792L84.3928 197.779L84.295 197.764L84.1973 197.748L84.0996 197.732L84.0166 197.721L83.9519 197.715L83.8542 197.699L83.7566 197.683L83.6589 197.667L83.5613 197.651L83.502 197.646L83.4137 197.633L83.3161 197.616L83.2185 197.599L83.1209 197.583L83.0377 197.57L82.9734 197.564L82.8759 197.547L82.7784 197.53L82.6809 197.513L82.5834 197.496L82.5239 197.491L82.436 197.476L82.3386 197.459L82.2412 197.441L82.1438 197.423L82.0603 197.41L81.9964 197.403L81.899 197.385L81.8017 197.367L81.7044 197.349L81.607 197.331L81.5472 197.325L81.4598 197.31L81.3625 197.291L81.2652 197.273L81.168 197.254L81.0844 197.24L81.0208 197.232L80.9237 197.214L80.8265 197.194L80.7293 197.175L80.6322 197.156L80.5721 197.15L80.4852 197.134L80.3881 197.114L80.291 197.095L80.1939 197.075L80.1102 197.06L80.047 197.052L79.95 197.032L79.853 197.012L79.7561 196.992L79.6591 196.971L79.5988 196.964L79.5123 196.948L79.4154 196.927L79.3185 196.907L79.2216 196.886L79.1377 196.87L79.0749 196.861L78.9781 196.84L78.8813 196.819L78.7845 196.798L78.6878 196.777L78.6272 196.769L78.5412 196.752L78.4445 196.73L78.3478 196.709L78.2511 196.687L78.1671 196.67L78.1047 196.661L78.0081 196.639L77.9115 196.617L77.8149 196.595L77.7183 196.573L77.6575 196.564L77.572 196.546L77.4755 196.524L77.379 196.501L77.2825 196.479L77.1983 196.461L77.1364 196.451L77.04 196.428L76.9435 196.405L76.8472 196.382L76.7509 196.359L76.6899 196.35L76.6048 196.331L76.5085 196.307L76.4122 196.284L76.316 196.26L76.2317 196.241L76.1701 196.231L76.074 196.207L75.9778 196.183L75.8817 196.159L75.7856 196.135L75.7244 196.125L75.6398 196.105L75.5438 196.081L75.4477 196.057L75.3517 196.032L75.2672 196.012L75.2061 196.001L75.1101 195.977L75.0142 195.952L74.9183 195.927L74.8224 195.902L74.761 195.891L74.6769 195.87L74.5811 195.845L74.4853 195.82L74.3895 195.794L74.3049 195.773L74.2442 195.762L74.1484 195.736L74.0527 195.71L73.9571 195.684L73.8614 195.658L73.7999 195.647L73.7163 195.625L73.6207 195.599L73.5251 195.573L73.4296 195.546L73.3449 195.524L73.2846 195.513L73.1892 195.486L73.0938 195.459L72.9983 195.432L72.9029 195.405L72.8412 195.393L72.7581 195.371L72.6628 195.344L72.5675 195.316L72.4722 195.289L72.3875 195.266L72.3276 195.254L72.2324 195.226L72.1372 195.198L72.042 195.171L71.9469 195.142L71.885 195.129L71.8024 195.107L71.7074 195.078L71.6124 195.05L71.5174 195.022L71.4326 194.998L71.3731 194.985L71.2781 194.956L71.1832 194.928L71.0884 194.899L70.9935 194.87L70.9315 194.856L70.8494 194.833L70.7546 194.803L70.6599 194.774L70.5651 194.745L70.4803 194.72L70.4213 194.707L70.3266 194.677L70.232 194.647L70.1374 194.618L70.0428 194.588L69.9806 194.573L69.8991 194.549L69.8046 194.519L69.7101 194.489L69.6157 194.458L69.5308 194.432L69.4722 194.419L69.3778 194.388L69.2835 194.358L69.1892 194.327L69.0948 194.296L69.0325 194.28L68.9516 194.255L68.8573 194.224L68.7632 194.193L68.6691 194.162L68.5841 194.135L68.5259 194.121L68.4318 194.089L68.3378 194.058L68.2438 194.026L68.1498 193.994L68.0873 193.978L68.0069 193.952L67.913 193.921L67.8191 193.888L67.7253 193.856L67.6403 193.828L67.5826 193.814L67.4888 193.781L67.3951 193.749L67.3014 193.716L67.2077 193.683L67.1451 193.666L67.0653 193.64L66.9717 193.607L66.8781 193.574L66.7846 193.541L66.6996 193.512L66.6423 193.497L66.5489 193.463L66.4555 193.43L66.3621 193.396L66.2688 193.363L66.2061 193.344L66.1267 193.318L66.0335 193.284L65.9403 193.25L65.8471 193.216L65.762 193.186L65.7052 193.17L65.6121 193.136L65.519 193.101L65.426 193.067L65.333 193.032L65.2702 193.013L65.1914 192.986L65.0985 192.951L65.0056 192.916L64.9127 192.881L64.8277 192.85L64.7714 192.834L64.6785 192.799L64.5858 192.764L64.4931 192.728L64.4005 192.693L64.3376 192.673L64.2594 192.645L64.1668 192.609L64.0742 192.573L63.9817 192.537L63.8967 192.505L63.8408 192.489L63.7484 192.452L63.656 192.416L63.5637 192.38L63.4713 192.343L63.4083 192.323L63.3307 192.294L63.2385 192.257L63.1463 192.22L63.0542 192.183L62.9692 192.15L62.9138 192.134L62.8217 192.096L62.7297 192.059L62.6377 192.022L62.5458 191.984L62.4827 191.963L62.4056 191.934L62.3138 191.896L62.222 191.858L62.1302 191.82L62.0453 191.786L61.9903 191.769L61.8986 191.731L61.807 191.693L61.7153 191.655L61.6237 191.616L61.5606 191.594L61.4841 191.564L61.3926 191.526L61.3012 191.487L61.2097 191.448L61.1249 191.413L61.0704 191.395L60.9791 191.356L60.8878 191.317L60.7965 191.278L60.7053 191.239L60.6422 191.216L60.5663 191.185L60.4751 191.146L60.3841 191.106L60.293 191.066L60.2083 191.03L60.1542 191.012L60.0633 190.972L59.9724 190.932L59.8816 190.892L59.7907 190.852L59.7275 190.828L59.6522 190.797L59.5615 190.756L59.4708 190.716L59.3802 190.675L59.2955 190.638L59.2419 190.619L59.1514 190.579L59.0608 190.538L58.9704 190.497L58.88 190.456L58.8167 190.431L58.742 190.399L58.6517 190.358L58.5614 190.316L58.4712 190.275L58.3866 190.237L58.3335 190.218L58.2434 190.176L58.1533 190.134L58.0632 190.092L57.9732 190.05L57.9099 190.024L57.8358 189.992L57.7459 189.95L57.656 189.908L57.5662 189.865L57.4817 189.826L57.4291 189.806L57.3394 189.764L57.2497 189.721L57.16 189.678L57.0704 189.635L57.0072 189.609L56.9337 189.576L56.8442 189.533L56.7547 189.49L56.6653 189.446L56.5809 189.406L56.5288 189.386L56.4395 189.343L56.3503 189.299L56.2611 189.255L56.1719 189.211L56.1086 189.184L56.0357 189.151L55.9466 189.107L55.8576 189.062L55.7686 189.018L55.6844 188.977L55.6328 188.957L55.5438 188.912L55.455 188.868L55.3662 188.823L55.2775 188.778L55.2143 188.75L55.142 188.716L55.0533 188.671L54.9648 188.626L54.8762 188.581L54.7921 188.539L54.741 188.518L54.6525 188.473L54.5641 188.427L54.4758 188.382L54.3875 188.336L54.3243 188.307L54.2526 188.272L54.1644 188.227L54.0763 188.181L53.9882 188.135L53.9042 188.091L53.8536 188.07L53.7656 188.024L53.6776 187.978L53.5897 187.931L53.5019 187.885L53.4387 187.855L53.3676 187.82L53.2799 187.773L53.1922 187.726L53.1046 187.679L53.0208 187.635L52.9707 187.614L52.8831 187.567L52.7956 187.519L52.7082 187.472L52.6208 187.425L52.5577 187.394L52.4873 187.358L52.4 187.311L52.3128 187.263L52.2256 187.215L52.142 187.17L52.0923 187.148L52.0053 187.1L51.9183 187.052L51.8313 187.004L51.7444 186.956L51.6813 186.924L51.6115 186.888L51.5247 186.839L51.438 186.791L51.3512 186.742L51.2678 186.696L51.2187 186.673L51.1321 186.625L51.0456 186.576L50.9591 186.527L50.8726 186.478L50.8096 186.445L50.7405 186.408L50.6542 186.359L50.5679 186.309L50.4817 186.26L50.3984 186.212L50.3498 186.19L50.2637 186.14L50.1777 186.091L50.0917 186.041L50.0057 185.991L49.9428 185.957L49.8743 185.92L49.7884 185.87L49.7026 185.819L49.6169 185.769L49.5339 185.721L49.4858 185.698L49.4002 185.647L49.3146 185.597L49.2291 185.546L49.1437 185.495L49.0808 185.461L49.0129 185.423L48.9275 185.372L48.8422 185.321L48.757 185.269L48.6742 185.22L48.6266 185.197L48.5415 185.145L48.4565 185.094L48.3714 185.042L48.2865 184.99L48.2237 184.955L48.1565 184.917L48.0717 184.865L47.9869 184.813L47.9022 184.761L47.8196 184.71L47.7725 184.687L47.6879 184.635L47.6033 184.582L47.5189 184.53L47.4344 184.477L47.3717 184.441L47.3051 184.403L47.2209 184.35L47.1366 184.297L47.0524 184.244L46.9701 184.192L46.9235 184.169L46.8394 184.115L46.7554 184.062L46.6714 184.009L46.5875 183.955L46.525 183.919L46.459 183.879L46.3752 183.826L46.2915 183.772L46.2078 183.718L46.1258 183.666L46.0797 183.642L45.9961 183.588L45.9126 183.533L45.8292 183.479L45.7458 183.425L45.6834 183.388L45.6181 183.348L45.5349 183.293L45.4517 183.239L45.3685 183.184L45.2867 183.13L45.2412 183.106L45.1581 183.051L45.0752 182.996L44.9923 182.941L44.9094 182.886L44.8471 182.848L44.7825 182.807L44.6998 182.752L44.6171 182.697L44.5346 182.641L44.453 182.587L44.408 182.562L44.3255 182.506L44.2431 182.451L44.1608 182.395L44.0785 182.339L44.0163 182.3L43.9524 182.259L43.8702 182.203L43.7881 182.146L43.706 182.09L43.6248 182.034L43.5803 182.009L43.4984 181.953L43.4165 181.896L43.3347 181.84L43.253 181.783L43.191 181.743L43.1277 181.702L43.0461 181.645L42.9645 181.588L42.883 181.53L42.8021 181.474L42.7581 181.449L42.6768 181.391L42.5955 181.334L42.5142 181.276L42.433 181.219L42.3712 181.178L42.3086 181.136L42.2276 181.078L42.1466 181.021L42.0656 180.963L41.985 180.905L41.9416 180.879L41.8608 180.821L41.7801 180.763L41.6994 180.705L41.6188 180.646L41.5571 180.605L41.4952 180.562L41.4147 180.504L41.3343 180.445L41.2539 180.386L41.1737 180.328L41.1308 180.302L41.0505 180.243L40.9703 180.184L40.8903 180.125L40.8102 180.066L40.7488 180.023L40.6875 179.98L40.6076 179.921L40.5278 179.862L40.448 179.802L40.3683 179.742L40.3255 179.716L40.246 179.657L40.1664 179.597L40.0869 179.537L40.0075 179.477L39.9462 179.433L39.8857 179.39L39.8063 179.33L39.7271 179.27L39.6479 179.21L39.5688 179.149L39.526 179.122L39.4474 179.062L39.3684 179.001L39.2895 178.941L39.2107 178.88L39.1496 178.835L39.0897 178.792L39.011 178.731L38.9323 178.67L38.8537 178.609L38.7752 178.548L38.7325 178.52L38.6547 178.459L38.5764 178.398L38.498 178.336L38.4198 178.275L38.359 178.23L38.2998 178.186L38.2217 178.124L38.1436 178.062L38.0656 178L37.9877 177.938L37.9451 177.91L37.8681 177.849L37.7904 177.786L37.7127 177.724L37.635 177.662L37.5744 177.616L37.5159 177.572L37.4384 177.509L37.361 177.446L37.2836 177.384L37.2063 177.321L37.1637 177.292L37.0877 177.23L37.0105 177.167L36.9334 177.104L36.8564 177.041L36.796 176.994L36.7382 176.949L36.6613 176.886L36.5845 176.823L36.5077 176.759L36.431 176.696L36.3885 176.666L36.3133 176.604L36.2368 176.54L36.1603 176.476L36.0839 176.412L36.0238 176.364L35.9666 176.319L35.8904 176.255L35.8142 176.191L35.7381 176.127L35.662 176.063L35.6197 176.032L35.5453 175.969L35.4693 175.905L35.3935 175.84L35.3178 175.775L35.2579 175.727L35.2015 175.682L35.1259 175.617L35.0503 175.552L34.9748 175.487L34.8994 175.422L34.8571 175.391L34.7836 175.327L34.7083 175.262L34.6332 175.197L34.558 175.131L34.4984 175.082L34.4426 175.036L34.3677 174.97L34.2928 174.905L34.2179 174.839L34.1432 174.773L34.101 174.741L34.0284 174.678L33.9538 174.611L33.8792 174.545L33.8047 174.479L33.7454 174.429L33.6903 174.383L33.616 174.317L33.5417 174.25L33.4675 174.184L33.3935 174.117L33.3514 174.084L33.2795 174.02L33.2056 173.953L33.1317 173.887L33.0579 173.82L32.9989 173.768L32.9445 173.722L32.8709 173.655L32.7972 173.588L32.7237 173.521L32.6503 173.453L32.6084 173.42L32.5374 173.355L32.4641 173.288L32.3909 173.22L32.3177 173.153L32.259 173.1L32.2053 173.054L32.1323 172.986L32.0594 172.918L31.9866 172.85L31.9137 172.782L31.872 172.748L31.8019 172.683L31.7293 172.615L31.6567 172.546L31.5842 172.478L31.5258 172.425L31.4728 172.378L31.4005 172.31L31.3283 172.241L31.2561 172.172L31.184 172.104L31.1423 172.069L31.0732 172.003L31.0012 171.934L30.9293 171.865L30.8575 171.796L30.7994 171.742L30.7471 171.695L30.6754 171.626L30.6039 171.556L30.5324 171.487L30.461 171.418L30.4195 171.382L30.3512 171.316L30.2799 171.246L30.2086 171.177L30.1376 171.107L30.0798 171.052L30.0282 171.005L29.9573 170.935L29.8864 170.865L29.8155 170.794L29.7448 170.724L29.7035 170.688L29.6361 170.622L29.5655 170.551L29.495 170.481L29.4245 170.41L29.3671 170.355L29.3162 170.307L29.246 170.236L29.1758 170.166L29.1056 170.095L29.0357 170.024L28.9945 169.987L28.9279 169.92L28.858 169.849L28.7883 169.778L28.7185 169.707L28.6614 169.65L28.6113 169.602L28.5417 169.531L28.4723 169.459L28.4028 169.388L28.3335 169.316L28.2926 169.279L28.2268 169.211L28.1577 169.14L28.0886 169.068L28.0195 168.996L27.9628 168.939L27.9134 168.89L27.8445 168.818L27.7757 168.746L27.707 168.674L27.6384 168.602L27.5977 168.563L27.5328 168.496L27.4644 168.423L27.396 168.351L27.3276 168.278L27.2713 168.22L27.2226 168.171L27.1545 168.099L27.0864 168.026L27.0184 167.953L26.9505 167.88L26.9099 167.841L26.846 167.773L26.7783 167.7L26.7106 167.626L26.643 167.553L26.5871 167.494L26.539 167.446L26.4716 167.372L26.4042 167.299L26.337 167.225L26.2698 167.151L26.2295 167.112L26.1664 167.043L26.0994 166.969L26.0324 166.895L25.9656 166.821L25.91 166.762L25.8627 166.713L25.796 166.639L25.7294 166.564L25.6628 166.49L25.5964 166.416L25.5563 166.376L25.4941 166.307L25.4279 166.232L25.3616 166.158L25.2955 166.083L25.2404 166.022L25.1938 165.973L25.1278 165.898L25.062 165.823L24.9961 165.749L24.9304 165.674L24.8906 165.633L24.8293 165.563L24.7637 165.488L24.6983 165.413L24.6328 165.338L24.5781 165.276L24.5322 165.227L24.467 165.151L24.4019 165.076L24.3368 165L24.2718 164.925L24.2322 164.883L24.1718 164.813L24.107 164.737L24.0423 164.662L23.9777 164.586L23.9233 164.524L23.8781 164.474L23.8137 164.398L23.7493 164.322L23.685 164.245L23.6207 164.169L23.5814 164.127L23.5219 164.057L23.4578 163.98L23.3939 163.904L23.33 163.827L23.2761 163.764L23.2316 163.714L23.1679 163.638L23.1043 163.561L23.0407 163.484L22.9773 163.407L22.9382 163.364L22.8796 163.294L22.8163 163.216L22.7531 163.139L22.6899 163.062L22.6365 162.998L22.5927 162.948L22.5299 162.871L22.467 162.793L22.4042 162.716L22.3415 162.638L22.3027 162.595L22.2449 162.524L22.1824 162.446L22.12 162.368L22.0576 162.291L22.0047 162.226L21.9616 162.176L21.8995 162.098L21.8373 162.02L21.7753 161.942L21.7134 161.863L21.6749 161.819L21.618 161.748L21.5563 161.67L21.4946 161.591L21.433 161.513L21.3805 161.447L21.3382 161.397L21.2768 161.318L21.2155 161.24L21.1542 161.161L21.0931 161.082L21.0548 161.037L20.9989 160.966L20.938 160.887L20.8771 160.808L20.8162 160.729L20.7642 160.662L20.7226 160.612L20.6619 160.533L20.6015 160.453L20.541 160.374L20.4806 160.294L20.4427 160.249L20.3876 160.177L20.3274 160.098L20.2673 160.018L20.2073 159.938L20.1558 159.871L20.1149 159.82L20.055 159.741L19.9953 159.661L19.9356 159.581L19.876 159.501L19.8384 159.454L19.7843 159.382L19.7249 159.302L19.6655 159.222L19.6063 159.142L19.5553 159.074L19.5151 159.023L19.4561 158.942L19.3971 158.862L19.3382 158.781L19.2795 158.701L19.2421 158.654L19.1889 158.582L19.1303 158.501L19.0718 158.42L19.0134 158.339L18.9628 158.271L18.9233 158.219L18.8651 158.138L18.807 158.057L18.7489 157.976L18.6909 157.895L18.6539 157.847L18.6016 157.775L18.5438 157.693L18.4861 157.612L18.4285 157.53L18.3785 157.461L18.3396 157.41L18.2823 157.328L18.2249 157.247L18.1676 157.165L18.1105 157.083L18.0738 157.035L18.0223 156.962L17.9654 156.88L17.9085 156.798L17.8517 156.716L17.8023 156.646L17.7642 156.595L17.7075 156.512L17.651 156.43L17.5946 156.348L17.5382 156.265L17.5019 156.216L17.4514 156.144L17.3952 156.061L17.3392 155.978L17.2831 155.896L17.2343 155.825L17.1969 155.773L17.1411 155.691L17.0854 155.608L17.0298 155.525L16.9742 155.442L16.9383 155.392L16.8886 155.319L16.8333 155.236L16.778 155.153L16.7228 155.07L16.6745 154.998L16.6378 154.947L16.5829 154.863L16.528 154.78L16.4732 154.696L16.4185 154.613L16.3829 154.563L16.3342 154.489L16.2796 154.406L16.2252 154.322L16.1709 154.238L16.1231 154.166L16.0871 154.114L16.033 154.03L15.9789 153.946L15.925 153.862L15.8711 153.778L15.8359 153.727L15.7881 153.654L15.7344 153.569L15.6808 153.485L15.6273 153.401L15.5801 153.328L15.5448 153.276L15.4915 153.192L15.4383 153.107L15.3852 153.023L15.3322 152.938L15.2973 152.886L15.2504 152.813L15.1976 152.728L15.1448 152.643L15.0922 152.558L15.0455 152.484L15.0109 152.432L14.9585 152.347L14.9062 152.262L14.8539 152.177L14.8017 152.092L14.7672 152.04L14.7212 151.966L14.6692 151.881L14.6173 151.795L14.5655 151.71L14.5195 151.635L14.4856 151.583L14.434 151.498L14.3826 151.413L14.3311 151.327L14.2798 151.241L14.2458 151.188L14.2006 151.114L14.1494 151.028L14.0984 150.943L14.0474 150.857L14.002 150.781L13.9689 150.729L13.9181 150.643L13.8675 150.557L13.8169 150.471L13.7664 150.385L13.7328 150.331L13.6885 150.257L13.6383 150.171L13.5881 150.084L13.538 149.998L13.4932 149.922L13.4607 149.87L13.4108 149.783L13.361 149.697L13.3114 149.61L13.2617 149.523L13.2285 149.469L13.1852 149.395L13.1357 149.308L13.0864 149.221L13.0372 149.134L12.993 149.057L12.9613 149.005L12.9123 148.918L12.8633 148.831L12.8145 148.744L12.7657 148.657L12.7329 148.602L12.6905 148.527L12.642 148.44L12.5935 148.353L12.5452 148.265L12.5016 148.188L12.4706 148.136L12.4224 148.048L12.3743 147.961L12.3264 147.873L12.2785 147.785L12.2461 147.73L12.2046 147.655L12.157 147.567L12.1093 147.479L12.0619 147.392L12.019 147.313L11.9886 147.261L11.9414 147.173L11.8942 147.085L11.8471 146.997L11.8 146.909L11.7682 146.853L11.7276 146.778L11.6808 146.689L11.634 146.601L11.5875 146.513L11.5452 146.434L11.5156 146.381L11.4692 146.293L11.4229 146.204L11.3766 146.116L11.3305 146.027L11.2991 145.971L11.2594 145.896L11.2135 145.807L11.1677 145.718L11.1219 145.629L11.0804 145.549L11.0514 145.497L11.0059 145.408L10.9605 145.319L10.9151 145.23L10.8699 145.141L10.839 145.084L10.8001 145.009L10.7551 144.92L10.7102 144.83L10.6654 144.741L10.6245 144.66L10.5962 144.608L10.5516 144.519L10.5071 144.429L10.4626 144.34L10.4183 144.25L10.3878 144.192L10.3499 144.117L10.3057 144.028L10.2618 143.938L10.2178 143.848L10.1776 143.767L10.15 143.715L10.1063 143.625L10.0627 143.535L10.0191 143.445L9.97567 143.355L9.94567 143.296L9.90865 143.221L9.8654 143.131L9.82232 143.041L9.77927 142.951L9.73972 142.869L9.71285 142.816L9.67006 142.726L9.62727 142.636L9.5847 142.546L9.54217 142.455L9.51262 142.396L9.47649 142.321L9.43418 142.23L9.39195 142.139L9.3498 142.049L9.31102 141.966L9.28482 141.914L9.24292 141.823L9.20105 141.733L9.15939 141.642L9.11776 141.551L9.0887 141.491L9.05348 141.416L9.01212 141.325L8.97074 141.234L8.92955 141.143L8.89148 141.059L8.86593 141.007L8.82496 140.916L8.78406 140.825L8.74325 140.734L8.70253 140.642L8.67402 140.582L8.63968 140.506L8.59923 140.415L8.55878 140.324L8.51851 140.232L8.48115 140.148L8.45628 140.096L8.41619 140.004L8.37624 139.913L8.33633 139.821L8.29652 139.73L8.26854 139.669L8.23508 139.593L8.19555 139.501L8.15602 139.41L8.11665 139.318L8.08006 139.233L8.05587 139.181L8.01667 139.089L7.97767 138.997L7.93866 138.905L7.89977 138.813L7.87236 138.751L7.8398 138.676L7.80114 138.583L7.7626 138.491L7.72413 138.399L7.68827 138.314L7.66478 138.261L7.62652 138.169L7.58844 138.077L7.55036 137.984L7.5124 137.892L7.48554 137.83L7.45386 137.754L7.41609 137.662L7.37852 137.569L7.34096 137.476L7.30582 137.39L7.28303 137.338L7.24573 137.246L7.20853 137.153L7.17137 137.06L7.13436 136.967L7.10803 136.904L7.07725 136.829L7.04038 136.736L7.00377 136.643L6.96716 136.55L6.93276 136.463L6.91064 136.411L6.8743 136.318L6.83799 136.225L6.80182 136.132L6.76575 136.039L6.73993 135.975L6.71004 135.899L6.67416 135.806L6.63844 135.713L6.60275 135.62L6.56916 135.532L6.5477 135.48L6.51229 135.387L6.47689 135.293L6.4417 135.2L6.40656 135.106L6.38128 135.042L6.35228 134.967L6.31738 134.873L6.28255 134.779L6.24781 134.686L6.21504 134.597L6.19423 134.546L6.15977 134.452L6.1253 134.358L6.09104 134.264L6.05685 134.17L6.03215 134.106L6.00403 134.03L5.97009 133.936L5.93617 133.842L5.90239 133.748L5.87042 133.659L5.85025 133.607L5.81673 133.513L5.78327 133.419L5.74991 133.325L5.71665 133.231L5.69257 133.165L5.6653 133.09L5.63233 132.996L5.59934 132.901L5.56653 132.807L5.53538 132.717L5.51586 132.666L5.48325 132.571L5.45078 132.477L5.41835 132.382L5.38603 132.288L5.36256 132.222L5.33615 132.146L5.30412 132.052L5.2721 131.957L5.24024 131.862L5.20989 131.772L5.19105 131.721L5.15936 131.626L5.12786 131.531L5.09638 131.436L5.06501 131.341L5.04216 131.275L5.01664 131.199L4.98552 131.105L4.95449 131.01L4.92355 130.914L4.89401 130.824L4.87584 130.772L4.84511 130.677L4.81458 130.582L4.78405 130.487L4.75362 130.392L4.73139 130.325L4.70674 130.249L4.67654 130.154L4.64652 130.059L4.61654 129.963L4.58778 129.872L4.57027 129.821L4.54055 129.725L4.51094 129.63L4.48137 129.535L4.45193 129.439L4.43032 129.372L4.40653 129.296L4.37725 129.201L4.34823 129.105L4.31921 129.009L4.29128 128.918L4.27444 128.866L4.24568 128.771L4.21699 128.675L4.18842 128.579L4.15995 128.483L4.13892 128.415L4.11602 128.34L4.08775 128.244L4.05964 128.148L4.03158 128.052L4.00451 127.96L3.98832 127.909L3.96053 127.813L3.93275 127.717L3.90519 127.621L3.87769 127.525L3.85726 127.456L3.83522 127.381L3.80796 127.285L3.78078 127.188L3.75368 127.092L3.72752 126.999L3.71193 126.948L3.68512 126.852L3.65831 126.756L3.63173 126.659L3.6052 126.563L3.58538 126.494L3.5642 126.419L3.53794 126.322L3.51169 126.226L3.4856 126.129L3.46032 126.036L3.44533 125.985L3.41948 125.888L3.39369 125.792L3.36803 125.695L3.34246 125.599L3.32334 125.529L3.303 125.454L3.2777 125.357L3.25241 125.261L3.2273 125.164L3.20289 125.07L3.18853 125.019L3.16364 124.922L3.13886 124.825L3.11413 124.729L3.08954 124.632L3.0711 124.562L3.0516 124.487L3.02729 124.39L3.00297 124.293L2.97883 124.196L2.9553 124.101L2.94158 124.05L2.91763 123.953L2.89387 123.856L2.87012 123.759L2.84648 123.662L2.82872 123.592L2.81006 123.517L2.78671 123.42L2.7634 123.322L2.74021 123.225L2.71757 123.13L2.70448 123.079L2.68151 122.982L2.65873 122.885L2.63595 122.788L2.61329 122.69L2.59622 122.619L2.5784 122.544L2.55598 122.447L2.53371 122.35L2.51149 122.252L2.48971 122.156L2.47726 122.106L2.45528 122.009L2.43346 121.911L2.41166 121.813L2.38999 121.716L2.37361 121.644L2.35664 121.57L2.33515 121.472L2.3139 121.374L2.29266 121.277L2.27174 121.18L2.25993 121.13L2.23897 121.033L2.21809 120.935L2.19729 120.837L2.17661 120.739L2.16089 120.667L2.14476 120.593L2.12426 120.495L2.10399 120.397L2.08374 120.299L2.06373 120.202L2.05254 120.153L2.03256 120.055L2.01263 119.957L1.99286 119.859L1.97317 119.761L1.9581 119.688L1.9428 119.614L1.92333 119.516L1.90401 119.418L1.88473 119.32L1.86568 119.222L1.85508 119.173L1.83609 119.074L1.8171 118.976L1.79835 118.878L1.77965 118.78L1.76524 118.707L1.75079 118.633L1.73234 118.535L1.71396 118.436L1.69567 118.338L1.67759 118.24L1.66756 118.191L1.64956 118.092L1.63157 117.994L1.61379 117.896L1.59608 117.797L1.58239 117.724L1.56874 117.65L1.55131 117.551L1.53387 117.453L1.51661 117.354L1.49946 117.256L1.49 117.207L1.47299 117.108L1.45603 117.01L1.4392 116.911L1.42247 116.813L1.40952 116.739L1.39668 116.665L1.38023 116.566L1.36378 116.468L1.34751 116.369L1.33135 116.271L1.32239 116.221L1.30638 116.123L1.29045 116.024L1.27457 115.925L1.25883 115.827L1.24664 115.752L1.23459 115.679L1.21913 115.58L1.20367 115.481L1.18839 115.382L1.17321 115.283L1.16478 115.234L1.14975 115.135L1.13486 115.036L1.11997 114.938L1.10518 114.839L1.09374 114.764L1.0825 114.691L1.06801 114.592L1.05357 114.493L1.03925 114.394L1.02506 114.295L1.01715 114.244L1.00315 114.146L0.989253 114.047L0.975356 113.948L0.961554 113.849L0.950856 113.774L0.940428 113.701L0.92688 113.602L0.913477 113.503L0.900148 113.404L0.886909 113.305L0.879524 113.254L0.866567 113.156L0.853636 113.057L0.840729 112.958L0.827923 112.859L0.817973 112.783L0.808343 112.71L0.795742 112.611L0.783374 112.512L0.771036 112.412L0.758743 112.313L0.751903 112.262L0.740002 112.164L0.728013 112.065L0.716103 111.966L0.704331 111.867L0.69509 111.79L0.686262 111.718L0.674643 111.618L0.663269 111.519L0.651927 111.42L0.640605 111.32L0.634303 111.269L0.623434 111.171L0.612395 111.072L0.601512 110.973L0.590736 110.873L0.582208 110.797L0.574177 110.724L0.56359 110.625L0.553166 110.525L0.542819 110.426L0.532527 110.327L0.526725 110.275L0.516865 110.177L0.506801 110.078L0.496921 109.978L0.487144 109.879L0.479338 109.802L0.472089 109.73L0.462537 109.63L0.453057 109.531L0.443704 109.431L0.43445 109.332L0.429153 109.279L0.420291 109.182L0.411224 109.083L0.402327 108.983L0.393543 108.884L0.386515 108.806L0.38 108.734L0.371478 108.635L0.36298 108.535L0.354587 108.435L0.346364 108.336L0.34159 108.283L0.333716 108.186L0.325647 108.087L0.317726 107.987L0.309938 107.887L0.303697 107.809L0.297916 107.738L0.290412 107.638L0.282909 107.538L0.275486 107.439L0.268268 107.339L0.26406 107.286L0.257126 107.189L0.250088 107.09L0.243153 106.99L0.236319 106.89L0.230881 106.812L0.225856 106.741L0.219329 106.641L0.21282 106.541L0.206377 106.441L0.200154 106.341L0.196517 106.288L0.190516 106.192L0.184508 106.092L0.178568 105.992L0.172677 105.892L0.168053 105.814L0.163808 105.743L0.158221 105.643L0.152708 105.543L0.147291 105.443L0.142013 105.343L0.138955 105.29L0.133909 105.194L0.128899 105.094L0.123956 104.994L0.119012 104.894L0.115197 104.815L0.111726 104.744L0.107081 104.644L0.102563 104.544L0.0981726 104.445L0.0938346 104.345L0.0913594 104.29L0.0872873 104.195L0.0832508 104.095L0.0793018 103.995L0.0753576 103.895L0.0723035 103.816L0.0695984 103.745L0.0659337 103.645L0.0623853 103.545L0.0590053 103.445L0.0556247 103.346L0.0537198 103.291L0.0506398 103.196L0.0475454 103.096L0.0445902 102.996L0.0416716 102.896L0.0393694 102.816L0.0374107 102.746L0.03474 102.646L0.0321588 102.546L0.0297722 102.446L0.0273856 102.346L0.0260213 102.291L0.0239288 102.196L0.0218258 102.096L0.0198086 101.996L0.0179122 101.896L0.0164003 101.816L0.0151487 101.746L0.0134707 101.646L0.0118677 101.546L0.010459 101.446L0.00906485 101.346L0.00824445 101.291L0.00713146 101.196L0.00602148 101.096L0.00493705 100.996L0.00406115 100.896L0.00336717 100.816L0.00279114 100.747L0.00210503 100.647L0.00152202 100.547L0.00104573 100.447L0.000643272 100.347L0.000423557 100.291L0.000219809 100.197L8.9571e-05 100.097L0 99.9967L9.82073e-05 99.8967L0.000201389 99.816L0.000327258 99.7467L0.000652956 99.6467L0.00105516 99.5467L0.00150824 99.4468L0.00213751 99.3468L0.0025147 99.2909L0.00321988 99.1968L0.0040497 99.0968L0.00498289 98.9968L0.00602193 98.8969L0.00694975 98.8159L0.0077596 98.7469L0.0090757 98.6469L0.0104733 98.547L0.0118747 98.447L0.0135006 98.347L0.0145077 98.2908L0.0160941 98.1971L0.0178974 98.0971L0.0198637 97.9971L0.0218296 97.8972L0.0235917 97.8158L0.0251473 97.7472L0.0273973 97.6473L0.0297649 97.5473L0.0322245 97.4474L0.0347587 97.3474L0.0363861 97.2909L0.0389092 97.1975L0.0416722 97.0976L0.0446288 96.9977L0.0475915 96.8977L0.0501395 96.8161L0.0524418 96.7478L0.0556892 96.6479L0.0589518 96.5479L0.0624694 96.448L0.0660009 96.3481L0.0681699 96.2913L0.0716309 96.1982L0.0754483 96.0983L0.0793008 95.9984L0.083289 95.8985L0.0867086 95.8166L0.0896453 95.7487L0.0938917 95.6487L0.0981855 95.5489L0.10263 95.449L0.107159 95.3491L0.109958 95.292L0.114327 95.1993L0.119142 95.0994L0.123956 94.9995L0.128943 94.8997L0.133224 94.8175L0.136828 94.7499L0.142019 94.6501L0.147374 94.5502L0.152759 94.4504L0.158247 94.3505L0.161709 94.2932L0.166983 94.2008L0.172767 94.101L0.178594 94.0012L0.184549 93.9014L0.189681 93.8189L0.19399 93.7518L0.200125 93.652L0.206502 93.5522L0.212884 93.4524L0.219334 93.3526L0.223457 93.295L0.22965 93.203L0.236337 93.1033L0.243228 93.0035L0.25018 92.9038L0.256089 92.821L0.261105 92.7542L0.268302 92.6545L0.275583 92.5548L0.282965 92.455L0.290469 92.3553L0.29517 92.2974L0.302277 92.2058L0.309947 92.1061L0.317824 92.0065L0.325773 91.9068L0.332546 91.8238L0.338205 91.7574L0.346439 91.6577L0.354677 91.5581L0.363056 91.4584L0.371576 91.3588L0.37689 91.3006L0.384864 91.2094L0.393599 91.1099L0.402406 91.0102L0.41133 90.9107L0.419032 90.8274L0.42532 90.7614L0.434543 90.6618L0.443776 90.5623L0.453129 90.4628L0.462647 90.3632L0.468638 90.3047L0.47742 90.214L0.48722 90.1145L0.497022 90.015L0.506876 89.9155L0.515501 89.832L0.522488 89.7663L0.532621 89.6669L0.542896 89.5674L0.553267 89.468L0.563696 89.3686L0.570379 89.3098L0.580092 89.2195L0.59082 89.1201L0.601621 89.0207L0.612508 88.9213L0.621968 88.8376L0.629634 88.7723L0.640722 88.673L0.652015 88.5736L0.663386 88.4743L0.674754 88.375L0.682105 88.316L0.692757 88.2261L0.70441 88.1268L0.71621 88.0275L0.728149 87.9282L0.738423 87.8443L0.746763 87.7794L0.758883 87.6802L0.771116 87.581L0.783486 87.4818L0.795915 87.3825L0.803873 87.3233L0.815411 87.2338L0.82806 87.1347L0.840834 87.0355L0.853767 86.9364L0.864951 86.8522L0.873866 86.7878L0.887053 86.6887L0.900271 86.5896L0.913561 86.4905L0.927053 86.3914L0.935687 86.3319L0.948036 86.2429L0.961696 86.1439L0.975481 86.0449L0.989366 85.9459L1.00148 85.8615L1.01101 85.7975L1.0252 85.6985L1.03942 85.5996L1.05369 85.5006L1.06817 85.4017L1.0775 85.342L1.09063 85.2535L1.10536 85.1545L1.12014 85.0557L1.13494 84.9568L1.14802 84.8722L1.15822 84.8087L1.17332 84.7098L1.18853 84.611L1.20386 84.5122L1.21926 84.4134L1.2293 84.3535L1.2433 84.2654L1.25899 84.1667L1.27476 84.068L1.29058 83.9693L1.30453 83.8845L1.31539 83.8214L1.33145 83.7227L1.34765 83.6241L1.36399 83.5255L1.38034 83.4268L1.39107 83.3667L1.40598 83.2791L1.42261 83.1805L1.43935 83.0819L1.45622 82.9834L1.47102 82.8985L1.48252 82.8358L1.49957 82.7373L1.51676 82.6388L1.53409 82.5403L1.55144 82.4419L1.56281 82.3815L1.57862 82.2944L1.59623 82.196L1.61393 82.0976L1.63182 81.9993L1.64755 81.9142L1.6596 81.8519L1.6777 81.7536L1.69588 81.6553L1.71414 81.557L1.73254 81.4587L1.74461 81.3982L1.7612 81.3116L1.7798 81.2134L1.79851 81.1151L1.81736 81.017L1.83402 80.9317L1.84664 80.8699L1.86578 80.7718L1.88494 80.6737L1.90412 80.5756L1.92357 80.4775L1.93637 80.4168L1.95371 80.3306L1.97334 80.2326L1.99307 80.1346L2.01282 80.0366L2.03047 79.9512L2.04372 79.8899L2.06378 79.792L2.08393 79.694L2.10417 79.5962L2.12452 79.4983L2.13804 79.4374L2.15621 79.3517L2.17683 79.2539L2.19754 79.1561L2.21826 79.0583L2.23684 78.9728L2.25072 78.9119L2.27173 78.8142L2.29284 78.7165L2.31413 78.6188L2.33541 78.5211L2.34964 78.4601L2.36865 78.3749L2.39021 78.2773L2.41191 78.1797L2.43368 78.0822L2.45313 77.9965L2.46762 77.9361L2.4896 77.8386L2.51169 77.7412L2.53396 77.6437L2.55623 77.5462L2.57114 77.485L2.59101 77.4004L2.61355 77.303L2.63615 77.2057L2.65896 77.1084L2.67936 77.0226L2.69438 76.9626L2.71736 76.8654L2.74046 76.7681L2.76366 76.6709L2.78694 76.5737L2.80257 76.5123L2.82323 76.4282L2.84675 76.331L2.87034 76.2339L2.89412 76.1368L2.91546 76.051L2.93101 75.9915L2.95503 75.8945L2.97912 75.7975L3.00321 75.7005L3.02754 75.6035L3.04391 75.542L3.06529 75.4584L3.0898 75.3615L3.11443 75.2646L3.13912 75.1678L3.16142 75.0818L3.17755 75.0229L3.20253 74.9261L3.22759 74.8293L3.25269 74.7325L3.27797 74.6358L3.29509 74.5742L3.31722 74.4911L3.34272 74.3945L3.36833 74.2979L3.39395 74.2013L3.41724 74.1152L3.43396 74.0568L3.45985 73.9603L3.48587 73.8638L3.51201 73.7673L3.53819 73.6708L3.55605 73.6091L3.57897 73.5266L3.60544 73.4302L3.63202 73.3338L3.65862 73.2375L3.68284 73.1514L3.70014 73.0934L3.72701 72.9971L3.75396 72.9009L3.7811 72.8047L3.80824 72.7086L3.82681 72.6466L3.85055 72.5647L3.87797 72.4686L3.90548 72.3725L3.93312 72.2765L3.95825 72.1903L3.97607 72.1329L4.0039 72.0369L4.03185 71.9409L4.05994 71.845L4.08805 71.7491L4.10733 71.687L4.13187 71.6057L4.16025 71.5099L4.18868 71.4141L4.21734 71.3183L4.24345 71.2321L4.26174 71.1751L4.29058 71.0795L4.31951 70.9838L4.3485 70.8882L4.37765 70.7925L4.39769 70.7304L4.42291 70.6496L4.45226 70.5541L4.4817 70.4586L4.51126 70.3631L4.53835 70.2768L4.55716 70.2204L4.58699 70.125L4.61689 70.0296L4.64678 69.9343L4.67693 69.839L4.69773 69.7768L4.72364 69.6966L4.75397 69.6013L4.78441 69.5061L4.81486 69.411L4.84295 69.3247L4.8623 69.2688L4.89305 69.1737L4.92391 69.0786L4.95483 68.9836L4.98586 68.8886L5.00743 68.8263L5.03407 68.7467L5.06535 68.6518L5.09676 68.5569L5.12816 68.462L5.15721 68.3757L5.1771 68.3203L5.20878 68.2256L5.24054 68.1308L5.2725 68.0361L5.30444 67.9414L5.32676 67.8791L5.35415 67.8L5.38637 67.7054L5.41871 67.6109L5.45112 67.5163L5.4811 67.43L5.50152 67.3752L5.53414 67.2807L5.56686 67.1863L5.59975 67.092L5.63264 66.9976L5.6557 66.9351L5.68386 66.8567L5.71702 66.7625L5.75024 66.6682L5.78366 66.5741L5.81461 66.4877L5.83548 66.4334L5.86907 66.3393L5.90277 66.2452L5.93657 66.1512L5.97044 66.0572L5.99424 65.9946L6.02309 65.9168L6.05722 65.8229L6.09138 65.729L6.12575 65.6352L6.15768 65.5489L6.17898 65.4951L6.21357 65.4013L6.24822 65.3076L6.2829 65.2139L6.31778 65.1203L6.34235 65.0577L6.37184 64.9805L6.4069 64.8869L6.44207 64.7934L6.47732 64.6999L6.51023 64.6136L6.53202 64.5604L6.56755 64.467L6.60314 64.3736L6.63875 64.2803L6.67458 64.187L6.69994 64.1243L6.73009 64.0477L6.7661 63.9546L6.80223 63.8614L6.83835 63.7683L6.8723 63.682L6.89459 63.6293L6.93099 63.5363L6.96751 63.4433L7.00414 63.3503L7.04081 63.2574L7.06696 63.1947L7.0978 63.1188L7.13475 63.0259L7.17181 62.9331L7.20887 62.8404L7.24379 62.7542L7.26656 62.702L7.30389 62.6094L7.34132 62.5167L7.37891 62.4242L7.41651 62.3316L7.4434 62.2689L7.47493 62.1936L7.5128 62.1012L7.55077 62.0087L7.58883 61.9163L7.62468 61.8302L7.64791 61.7786L7.68617 61.6863L7.72452 61.5941L7.76304 61.5019L7.80158 61.4097L7.82921 61.347L7.86146 61.2723L7.90024 61.1802L7.93906 61.0882L7.97811 60.9963L8.01497 60.9101L8.03859 60.8591L8.07779 60.7672L8.11711 60.6754L8.15648 60.5836L8.19597 60.4918L8.22439 60.4291L8.25727 60.355L8.29698 60.2634L8.33675 60.1717L8.37669 60.0802L8.41452 59.9941L8.43854 59.9437L8.47872 59.8522L8.51896 59.7608L8.5592 59.6693L8.59967 59.578L8.62888 59.5153L8.66231 59.4419L8.70295 59.3506L8.74372 59.2594L8.7845 59.1682L8.82334 59.0823L8.84781 59.0324L8.88887 58.9414L8.93002 58.8503L8.97123 58.7593L9.01257 58.6684L9.04257 58.6057L9.07664 58.5329L9.11819 58.4421L9.15986 58.3513L9.20155 58.2605L9.2414 58.1747L9.26631 58.1254L9.30825 58.0347L9.35028 57.9441L9.39245 57.8536L9.43464 57.7631L9.46543 57.7003L9.50014 57.6282L9.54259 57.5378L9.58517 57.4475L9.62777 57.3572L9.66858 57.2714L9.69394 57.2227L9.73679 57.1324L9.77969 57.0423L9.82279 56.9522L9.8659 56.8621L9.89743 56.7994L9.93278 56.728L9.97616 56.638L10.0196 56.548L10.0632 56.4582L10.1049 56.3726L10.1307 56.3244L10.1744 56.2346L10.2183 56.1449L10.2622 56.0552L10.3062 55.9655L10.3385 55.9029L10.3745 55.8322L10.4188 55.7427L10.463 55.6531L10.5076 55.5637L10.5504 55.4782L10.5764 55.4306L10.6211 55.3413L10.6659 55.252L10.7107 55.1628L10.7556 55.0736L10.7887 55.011L10.8253 54.9409L10.8704 54.8518L10.9156 54.7628L10.961 54.6738L11.0048 54.5885L11.0312 54.5415L11.0768 54.4526L11.1225 54.3638L11.1681 54.275L11.214 54.1863L11.2479 54.1238L11.285 54.0543L11.331 53.9657L11.3772 53.8771L11.4234 53.7886L11.4681 53.7034L11.495 53.657L11.5414 53.5686L11.588 53.4802L11.6346 53.3919L11.6813 53.3036L11.716 53.2412L11.7536 53.1725L11.8005 53.0843L11.8476 52.9962L11.8947 52.9081L11.9405 52.8231L11.9677 52.7773L12.015 52.6894L12.0624 52.6015L12.1099 52.5137L12.1575 52.4258L12.1929 52.3635L12.2312 52.2954L12.279 52.2078L12.3269 52.1202L12.3748 52.0326L12.4216 51.9477L12.4492 51.9025L12.4974 51.8151L12.5456 51.7276L12.5941 51.6403L12.6425 51.553L12.6788 51.4906L12.7176 51.4233L12.7663 51.3361L12.815 51.249L12.8639 51.1619L12.9116 51.0773L12.9395 51.0326L12.9886 50.9456L13.0378 50.8587L13.087 50.7719L13.1363 50.6851L13.1733 50.6229L13.2127 50.5562L13.2623 50.4695L13.3119 50.3828L13.3616 50.2963L13.4104 50.2118L13.4386 50.1678L13.4885 50.0813L13.5386 49.995L13.5886 49.9085L13.6388 49.8223L13.6767 49.7602L13.7165 49.6942L13.767 49.608L13.8175 49.5219L13.8681 49.4358L13.9178 49.3516L13.9463 49.3081L13.9971 49.2222L14.0481 49.1363L14.099 49.0504L14.15 48.9646L14.1887 48.9026L14.2291 48.8373L14.2803 48.7517L14.3317 48.6661L14.3831 48.5805L14.4338 48.4965L14.4627 48.4536L14.5144 48.3682L14.5661 48.2828L14.6179 48.1975L14.6698 48.1122L14.7093 48.0503L14.7502 47.9858L14.8023 47.9006L14.8545 47.8156L14.9068 47.7305L14.9585 47.6467L14.9877 47.6045L15.0402 47.5196L15.0928 47.4346L15.1455 47.3499L15.1982 47.2651L15.2384 47.2034L15.2798 47.1395L15.3328 47.0549L15.3859 46.9704L15.439 46.8858L15.4917 46.8023L15.5212 46.7607L15.5746 46.6763L15.6279 46.5919L15.6815 46.5077L15.7351 46.4234L15.7761 46.3618L15.818 46.2987L15.8718 46.2147L15.9257 46.1306L15.9797 46.0467L16.0334 45.9634L16.0632 45.9223L16.1173 45.8385L16.1716 45.7547L16.2259 45.671L16.2804 45.5873L16.3222 45.5258L16.3646 45.4634L16.4192 45.3799L16.4739 45.2964L16.5287 45.213L16.5834 45.13L16.6135 45.0896L16.6685 45.0063L16.7236 44.923L16.7788 44.8398L16.834 44.7567L16.8766 44.6954L16.9195 44.6338L16.975 44.5508L17.0305 44.4678L17.0861 44.385L17.1418 44.3022L17.1722 44.2624L17.228 44.1796L17.284 44.097L17.3399 44.0143L17.396 43.9318L17.4394 43.8707L17.4828 43.8097L17.539 43.7273L17.5954 43.645L17.6518 43.5627L17.7083 43.4804L17.7392 43.4408L17.7958 43.3588L17.8525 43.2767L17.9093 43.1947L17.9662 43.1127L18.0104 43.0517L18.0542 42.9915L18.1113 42.9096L18.1685 42.8279L18.2257 42.7461L18.283 42.6644L18.3146 42.6249L18.3718 42.5438L18.4293 42.4622L18.4869 42.3808L18.5447 42.2994L18.5896 42.2386L18.6338 42.1791L18.6918 42.0978L18.7497 42.0166L18.8078 41.9355L18.866 41.8544L18.8981 41.8149L18.9559 41.7347L19.0142 41.6537L19.0727 41.5728L19.1312 41.492L19.1769 41.4314L19.2216 41.3726L19.2803 41.292L19.3391 41.2113L19.398 41.1307L19.457 41.0503L19.4896 41.0108L19.5481 40.9314L19.6072 40.8511L19.6664 40.7708L19.7258 40.6905L19.7723 40.6302L19.8174 40.5721L19.877 40.4921L19.9365 40.412L19.9962 40.3321L20.056 40.2522L20.0893 40.2128L20.1483 40.1343L20.2082 40.0545L20.2683 39.9748L20.3283 39.8952L20.3757 39.835L20.4212 39.7778L20.4815 39.6983L20.5419 39.6188L20.6024 39.5395L20.6629 39.4602L20.6968 39.421L20.7564 39.3433L20.8172 39.2641L20.878 39.185L20.9388 39.106L20.987 39.0461L21.033 38.9896L21.094 38.9107L21.1552 38.8319L21.2165 38.7531L21.2777 38.6744L21.3123 38.6353L21.3725 38.5585L21.434 38.48L21.4956 38.4015L21.5573 38.323L21.6062 38.2633L21.6525 38.2076L21.7143 38.1293L21.7763 38.0511L21.8384 37.973L21.9004 37.8948L21.9356 37.8558L21.9964 37.78L22.0586 37.702L22.121 37.6242L22.1835 37.5464L22.2332 37.4869L22.2799 37.4319L22.3425 37.3543L22.4052 37.2767L22.468 37.1992L22.5309 37.1217L22.5666 37.0828L22.628 37.0078L22.691 36.9305L22.7541 36.8533L22.8174 36.7762L22.8679 36.7169L22.9149 36.6627L22.9784 36.5857L23.0419 36.5087L23.1054 36.4318L23.1691 36.355L23.2054 36.3162L23.2673 36.2421L23.3311 36.1654L23.395 36.0888L23.459 36.0123L23.5103 35.9534L23.5577 35.8998L23.6219 35.8235L23.6861 35.7472L23.7504 35.6709L23.8148 35.5948L23.8518 35.5562L23.9142 35.4829L23.9788 35.4069L24.0434 35.331L24.1081 35.255L24.1603 35.1964L24.208 35.1436L24.2729 35.0679L24.3379 34.9923L24.403 34.9167L24.4681 34.8411L24.5057 34.8027L24.5686 34.7302L24.634 34.6549L24.6994 34.5796L24.7648 34.5044L24.8177 34.446L24.8659 34.394L24.9315 34.3189L24.9973 34.2439L25.0631 34.169L25.1289 34.0941L25.1671 34.0558L25.2306 33.9843L25.2967 33.9096L25.3628 33.835L25.429 33.7604L25.4827 33.7023L25.5312 33.6511L25.5976 33.5767L25.664 33.5024L25.7306 33.4281L25.7972 33.3539L25.836 33.3157L25.9 33.2451L25.9668 33.1711L26.0336 33.0971L26.1006 33.0232L26.1551 32.9654L26.2039 32.915L26.271 32.8412L26.3382 32.7675L26.4055 32.694L26.4728 32.6204L26.5122 32.5823L26.5767 32.5127L26.6442 32.4394L26.7118 32.366L26.7795 32.2929L26.8348 32.2353L26.8838 32.1856L26.9517 32.1126L27.0196 32.0396L27.0876 31.9667L27.1557 31.8938L27.1957 31.856L27.2607 31.7872L27.3289 31.7145L27.3972 31.6419L27.4656 31.5694L27.5217 31.5122L27.571 31.4633L27.6396 31.3909L27.7083 31.3186L27.777 31.2463L27.8458 31.1742L27.8864 31.1365L27.9518 31.0686L28.0208 30.9967L28.0899 30.9248L28.159 30.8529L28.2158 30.796L28.2655 30.7478L28.3348 30.6762L28.4041 30.6046L28.4735 30.533L28.5431 30.4615L28.5843 30.4241L28.6502 30.3571L28.7198 30.2858L28.7896 30.2146L28.8594 30.1434L28.917 30.0869L28.967 30.0395L29.037 29.9685L29.107 29.8976L29.1772 29.8268L29.2474 29.756L29.2892 29.7187L29.3556 29.6527L29.4259 29.5821L29.4964 29.5116L29.5669 29.4411L29.6253 29.3849L29.6755 29.3383L29.7462 29.268L29.817 29.1978L29.8878 29.1277L29.9587 29.0576L30.0011 29.0205L30.0679 28.9554L30.139 28.8855L30.2101 28.8157L30.2813 28.746L30.3405 28.6901L30.391 28.6443L30.4624 28.5748L30.5338 28.5052L30.6054 28.4358L30.677 28.3665L30.72 28.3296L30.7872 28.2654L30.859 28.1963L30.9307 28.1271L31.0027 28.0581L31.0626 28.0026L31.1134 27.9576L31.1854 27.8887L31.2576 27.82L31.3298 27.7513L31.402 27.6826L31.4457 27.646L31.5133 27.5827L31.5858 27.5143L31.6582 27.4459L31.7308 27.3776L31.7915 27.3225L31.8425 27.2782L31.9153 27.2101L31.9881 27.142L32.0609 27.074L32.1339 27.0062L32.1781 26.9697L32.2461 26.9074L32.3193 26.8397L32.3924 26.772L32.4657 26.7045L32.5272 26.6498L32.5784 26.6063L32.6518 26.5389L32.7253 26.4716L32.7988 26.4043L32.8724 26.3371L32.9173 26.301L32.9857 26.2396L33.0595 26.1726L33.1333 26.1057L33.2072 26.0388L33.2695 25.9845L33.321 25.9418L33.395 25.8751L33.4692 25.8086L33.5433 25.742L33.6176 25.6756L33.6631 25.6397L33.7319 25.5792L33.8063 25.5129L33.8808 25.4468L33.9553 25.3807L34.0184 25.3268L34.0701 25.2848L34.1448 25.219L34.2196 25.1531L34.2944 25.0874L34.3693 25.0217L34.4154 24.986L34.4846 24.9265L34.5597 24.861L34.6348 24.7956L34.71 24.7302L34.7738 24.6767L34.8257 24.6356L34.9011 24.5704L34.9765 24.5053L35.052 24.4403L35.1275 24.3754L35.1742 24.34L35.2437 24.2814L35.3195 24.2167L35.3952 24.152L35.4711 24.0874L35.5357 24.0343L35.5877 23.9939L35.6637 23.9296L35.7398 23.8652L35.8159 23.801L35.8921 23.7368L35.9394 23.7017L36.0093 23.644L36.0857 23.5801L36.162 23.5161L36.2385 23.4523L36.3039 23.3997L36.3561 23.3601L36.4328 23.2965L36.5095 23.2329L36.5862 23.1694L36.663 23.106L36.7109 23.0712L36.7811 23.0144L36.8581 22.9513L36.9351 22.8881L37.0122 22.825L37.0784 22.7729L37.1308 22.7341L37.208 22.6712L37.2854 22.6084L37.3627 22.5457L37.4401 22.483L37.4887 22.4485L37.5592 22.3927L37.6368 22.3303L37.7145 22.2679L37.7922 22.2056L37.859 22.1539L37.9117 22.1159L37.9895 22.0537L38.0674 21.9918L38.1454 21.9299L38.2235 21.868L38.2726 21.8337L38.3435 21.7789L38.4216 21.7172L38.4999 21.6557L38.5782 21.5942L38.6458 21.5429L38.6986 21.5056L38.7771 21.4443L38.8556 21.3831L38.9342 21.322L39.0128 21.2609L39.0626 21.227L39.1338 21.1731L39.2125 21.1122L39.2914 21.0514L39.3703 20.9908L39.4386 20.9399L39.4916 20.9034L39.5707 20.8429L39.6498 20.7825L39.729 20.7221L39.8082 20.6619L39.8585 20.6282L39.93 20.5753L40.0094 20.5152L40.0889 20.4552L40.1684 20.3953L40.2375 20.345L40.2905 20.3093L40.3702 20.2496L40.4499 20.1899L40.5297 20.1304L40.6096 20.071L40.6605 20.0376L40.7322 19.9856L40.8122 19.9263L40.8922 19.8671L40.9723 19.808L41.0422 19.7582L41.0953 19.7232L41.1756 19.6644L41.2559 19.6055L41.3363 19.5468L41.4167 19.4882L41.4682 19.4551L41.5402 19.404L41.6208 19.3456L41.7014 19.2873L41.782 19.2289L41.8527 19.1796L41.906 19.1454L41.9868 19.0874L42.0676 19.0293L42.1486 18.9714L42.2296 18.9136L42.2817 18.8809L42.3539 18.8308L42.4351 18.7732L42.5163 18.7156L42.5975 18.6581L42.6689 18.6093L42.7223 18.5759L42.8036 18.5186L42.8851 18.4614L42.9666 18.4043L43.0481 18.3473L43.1008 18.3149L43.1733 18.2658L43.2551 18.209L43.3368 18.1522L43.4186 18.0955L43.4907 18.0472L43.5442 18.0147L43.6261 17.9582L43.7081 17.9018L43.7902 17.8456L43.8723 17.7892L43.9256 17.7573L43.9984 17.7091L44.0806 17.6531L44.1629 17.5972L44.2453 17.5414L44.3181 17.4936L44.3717 17.4618L44.4542 17.4061L44.5367 17.3506L44.6193 17.2952L44.702 17.2397L44.7558 17.2081L44.8289 17.1609L44.9116 17.1057L44.9945 17.0506L45.0774 16.9956L45.1509 16.9484L45.2046 16.9173L45.2876 16.8626L45.3707 16.8078L45.4539 16.7532L45.5371 16.6987L45.5915 16.6674L45.6647 16.6211L45.748 16.5668L45.8315 16.5125L45.9149 16.4584L45.9891 16.4116L46.0429 16.3814L46.1265 16.3275L46.2101 16.2736L46.2938 16.2197L46.3776 16.1661L46.4326 16.1352L46.506 16.0899L46.5898 16.0363L46.6737 15.9829L46.7577 15.9296L46.8327 15.8835L46.8864 15.854L46.9706 15.8009L47.0547 15.7479L47.1389 15.6949L47.2232 15.6421L47.2788 15.6116L47.3524 15.5672L47.4368 15.5145L47.5212 15.462L47.6057 15.4095L47.6814 15.3639L47.7352 15.3352L47.8199 15.283L47.9045 15.2308L47.9892 15.1787L48.074 15.1267L48.1302 15.0966L48.2039 15.0531L48.2889 15.0013L48.3739 14.9496L48.4588 14.898L48.5352 14.853L48.5891 14.8251L48.6742 14.7737L48.7594 14.7223L48.8447 14.6711L48.93 14.6199L48.9867 14.5903L49.0606 14.5478L49.1461 14.4969L49.2315 14.446L49.317 14.3952L49.3941 14.3508L49.448 14.3237L49.5336 14.2731L49.6193 14.2227L49.7051 14.1723L49.7908 14.122L49.8482 14.0927L49.9223 14.0512L50.0082 14.0011L50.0941 13.9511L50.1801 13.9012L50.2579 13.8574L50.3119 13.831L50.398 13.7813L50.4842 13.7317L50.5704 13.6822L50.6567 13.6328L50.7145 13.6039L50.7888 13.5634L50.8752 13.5141L50.9616 13.465L51.0481 13.416L51.1266 13.3728L51.1806 13.3472L51.2672 13.2984L51.3539 13.2496L51.4406 13.201L51.5273 13.1524L51.5857 13.124L51.6601 13.0844L51.747 13.0361L51.8339 12.9878L51.9209 12.9397L52.0001 12.8971L52.054 12.8722L52.1411 12.8243L52.2283 12.7764L52.3154 12.7287L52.4027 12.681L52.4617 12.653L52.5362 12.6144L52.6235 12.5669L52.7109 12.5195L52.7984 12.4723L52.8782 12.4303L52.9321 12.4062L53.0197 12.3592L53.1073 12.3122L53.195 12.2652L53.2827 12.2185L53.3422 12.1909L53.4168 12.1532L53.5046 12.1066L53.5925 12.0601L53.6804 12.0138L53.7609 11.9724L53.8148 11.9491L53.9029 11.903L53.9909 11.8569L54.079 11.8108L54.1672 11.765L54.2273 11.7379L54.302 11.7011L54.3903 11.6554L54.4786 11.6098L54.5669 11.5643L54.6481 11.5236L54.702 11.5011L54.7905 11.4558L54.879 11.4106L54.9675 11.3655L55.0562 11.3205L55.1168 11.2939L55.1916 11.258L55.2803 11.2133L55.369 11.1686L55.4578 11.1239L55.5398 11.0839L55.5936 11.0621L55.6825 11.0177L55.7714 10.9734L55.8604 10.9292L55.9494 10.8851L56.0107 10.8589L56.0855 10.824L56.1747 10.7802L56.2638 10.7364L56.3531 10.6926L56.4357 10.6533L56.4894 10.6323L56.5788 10.5887L56.6681 10.5454L56.7576 10.5021L56.847 10.4588L56.9088 10.4332L56.9837 10.3992L57.0733 10.3562L57.1629 10.3133L57.2526 10.2705L57.3358 10.2318L57.3895 10.2116L57.4793 10.169L57.5691 10.1265L57.6589 10.0841L57.7487 10.0417L57.8111 10.0165L57.8861 9.98362L57.976 9.94149L58.066 9.89949L58.1562 9.85762L58.2401 9.81953L58.2937 9.80009L58.3838 9.75838L58.4741 9.7168L58.5643 9.67533L58.6546 9.63389L58.7175 9.60914L58.7925 9.57719L58.8829 9.53598L58.9733 9.49489L59.0638 9.45393L59.1483 9.41653L59.2019 9.39781L59.2925 9.35705L59.3831 9.31636L59.4737 9.27579L59.5644 9.2353L59.6278 9.21103L59.7029 9.18002L59.7937 9.13971L59.8845 9.09955L59.9754 9.05951L60.0606 9.0228L60.1141 9.0048L60.205 8.96501L60.296 8.92523L60.3871 8.88554L60.4782 8.84602L60.5421 8.82225L60.6171 8.79216L60.7083 8.75279L60.7995 8.71353L60.8908 8.6744L60.9767 8.63842L61.03 8.62115L61.1214 8.58229L61.2128 8.54343L61.3042 8.50465L61.3957 8.46606L61.4601 8.44281L61.5352 8.41363L61.6267 8.37523L61.7183 8.33689L61.81 8.29864L61.8965 8.26341L61.9497 8.24689L62.0415 8.20893L62.1332 8.171L62.225 8.13315L62.3169 8.09548L62.3818 8.07276L62.4569 8.04448L62.5488 8.00705L62.6408 7.96964L62.7328 7.93227L62.82 7.8978L62.8731 7.88203L62.9652 7.84496L63.0573 7.80796L63.1495 7.77109L63.2416 7.7343L63.3072 7.71212L63.3822 7.68477L63.4745 7.64827L63.5668 7.61179L63.6592 7.57536L63.747 7.54163L63.8 7.52662L63.8924 7.49042L63.9849 7.4544L64.0774 7.41846L64.17 7.38256L64.236 7.36095L64.311 7.33457L64.4037 7.29895L64.4963 7.26341L64.589 7.22795L64.6774 7.19492L64.7303 7.18065L64.8231 7.14538L64.916 7.11031L65.0088 7.0753L65.1017 7.0403L65.1682 7.01926L65.2432 6.99384L65.3362 6.95912L65.4292 6.92452L65.5223 6.89004L65.6113 6.85771L65.664 6.84419L65.7571 6.80986L65.8503 6.77572L65.9435 6.74165L66.0367 6.70761L66.1038 6.6871L66.1787 6.66262L66.272 6.62882L66.3654 6.59518L66.4588 6.56165L66.5483 6.53004L66.601 6.51724L66.6944 6.48391L66.7879 6.45067L66.8814 6.41754L66.975 6.38449L67.0425 6.36451L67.1174 6.34095L67.211 6.30809L67.3047 6.2754L67.3984 6.24281L67.4886 6.21196L67.541 6.19986L67.6348 6.16752L67.7286 6.13519L67.8225 6.10299L67.9164 6.07093L67.9844 6.05148L68.0592 6.02885L68.1531 5.99695L68.2471 5.96519L68.3412 5.93355L68.4319 5.90351L68.4842 5.89209L68.5783 5.86072L68.6724 5.82934L68.7666 5.79808L68.8607 5.76698L68.9292 5.74811L69.004 5.72636L69.0982 5.69546L69.1925 5.66462L69.2868 5.63391L69.3782 5.60469L69.4303 5.59396L69.5247 5.56354L69.6191 5.5331L69.7135 5.5028L69.808 5.47265L69.877 5.45437L69.9517 5.43349L70.0462 5.40359L70.1408 5.37371L70.2354 5.3439L70.3273 5.31552L70.3792 5.30551L70.4739 5.27599L70.5686 5.24653L70.6634 5.21719L70.7581 5.18798L70.8276 5.1703L70.9022 5.15031L70.997 5.12137L71.0919 5.09245L71.1867 5.0636L71.2793 5.03602L71.331 5.02673L71.4259 4.99812L71.5209 4.96966L71.616 4.94127L71.711 4.91297L71.7809 4.89592L71.8554 4.87686L71.9505 4.84885L72.0456 4.82088L72.1408 4.79299L72.2339 4.76621L72.2854 4.75762L72.3806 4.72993L72.4759 4.70248L72.5711 4.67505L72.6664 4.64766L72.7368 4.63124L72.8112 4.61312L72.9065 4.58603L73.0019 4.55902L73.0973 4.53214L73.191 4.50611L73.2423 4.49824L73.3377 4.47153L73.4333 4.44502L73.5288 4.41856L73.6243 4.39213L73.6952 4.37631L73.7695 4.35911L73.8651 4.33292L73.9607 4.30692L74.0564 4.28101L74.1506 4.25575L74.2017 4.24859L74.2974 4.22288L74.3932 4.19728L74.4889 4.17178L74.5847 4.14636L74.6561 4.13112L74.7302 4.11482L74.826 4.08959L74.9219 4.06456L75.0179 4.0396L75.1126 4.01515L75.1634 4.00866L75.2594 3.98397L75.3554 3.9593L75.4514 3.93475L75.5475 3.91035L75.6193 3.89569L75.6932 3.88029L75.7893 3.85604L75.8854 3.83197L75.9816 3.80797L76.0768 3.78438L76.1274 3.77854L76.2237 3.75483L76.3199 3.73111L76.4161 3.70755L76.5124 3.68411L76.5846 3.67006L76.6584 3.65552L76.7547 3.63229L76.8511 3.60913L76.9475 3.58611L77.0432 3.56341L77.0936 3.55821L77.19 3.53547L77.2865 3.51272L77.3829 3.49012L77.4794 3.46766L77.5521 3.45424L77.6257 3.44055L77.7223 3.41834L77.8188 3.39614L77.9154 3.37404L78.0117 3.35223L78.0618 3.3477L78.1585 3.32589L78.2551 3.30413L78.3518 3.28248L78.4485 3.26098L78.5216 3.24824L78.595 3.23538L78.6918 3.21416L78.7886 3.19294L78.8853 3.1718L78.9821 3.15086L79.032 3.14699L79.1288 3.12611L79.2257 3.10537L79.3226 3.0847L79.4195 3.06411L79.493 3.05205L79.5662 3.04008L79.6632 3.0198L79.7602 2.99955L79.8571 2.97939L79.9541 2.95941L80.0043 2.95601L80.101 2.93614L80.1981 2.91642L80.2951 2.89673L80.3922 2.87706L80.4662 2.86568L80.5392 2.85461L80.6364 2.83525L80.7335 2.81598L80.8307 2.79683L80.9279 2.77777L80.9784 2.77483L81.075 2.75606L81.1723 2.73728L81.2695 2.71856L81.3667 2.69988L81.4411 2.68916L81.514 2.67896L81.6113 2.66052L81.7086 2.64226L81.8059 2.6241L81.9033 2.60595L81.9541 2.60348L82.0506 2.58583L82.148 2.56798L82.2454 2.55023L82.3428 2.53257L82.4176 2.52246L82.4903 2.51313L82.5877 2.49566L82.6852 2.47838L82.7827 2.46119L82.8802 2.444L82.9314 2.44196L83.0277 2.42543L83.1253 2.40851L83.2229 2.39173L83.3205 2.37509L83.3957 2.3656L83.4681 2.35713L83.5657 2.34065L83.6633 2.32432L83.761 2.30811L83.8587 2.29193L83.9102 2.2903L84.0063 2.27485L84.104 2.25891L84.2017 2.2431L84.2995 2.22744L84.3751 2.21862L84.4472 2.21096L84.545 2.19551L84.6428 2.18012L84.7406 2.16485L84.8384 2.14969L84.8903 2.1485L84.9862 2.13409L85.0841 2.11913L85.182 2.10428L85.2798 2.0896L85.3558 2.08148L85.4277 2.0746L85.5256 2.06017L85.6235 2.04577L85.7215 2.03141L85.8195 2.01728L85.8716 2.01657L85.9674 2.00315L86.0654 1.98917L86.1634 1.97532L86.2614 1.9616L86.3377 1.95417L86.4094 1.94811L86.5075 1.93467L86.6055 1.92123L86.7036 1.90786L86.8017 1.89471L86.8541 1.89447L86.9497 1.88206L87.0478 1.86911L87.146 1.85624L87.2441 1.84341L87.3208 1.83672L87.3922 1.83152L87.4904 1.81898L87.5885 1.80654L87.6867 1.79419L87.7849 1.78195L87.8377 1.78223L87.9331 1.77085L88.0313 1.75886L88.1296 1.74699L88.2278 1.73511L88.3049 1.72912L88.376 1.72479L88.4743 1.7132L88.5725 1.7017L88.6708 1.69039L88.7691 1.67909L88.8222 1.67984L88.9174 1.66953L89.0157 1.65851L89.114 1.6476L89.2123 1.63676L89.2898 1.63142L89.3607 1.62792L89.459 1.61733L89.5574 1.60678L89.6558 1.59647L89.7542 1.58615L89.8076 1.58733L89.9025 1.57812L90.0009 1.5681L90.0993 1.55808L90.1978 1.54829L90.2756 1.54369L90.3461 1.54092L90.4446 1.53133L90.543 1.52183L90.6415 1.51241L90.74 1.50311L90.7937 1.50482L90.8884 1.4966L90.9869 1.48757L91.0854 1.47855L91.1839 1.46971L91.2621 1.46585L91.3323 1.4639L91.4308 1.45524L91.5294 1.44678L91.6279 1.43833L91.7265 1.42998L91.7805 1.43223L91.8749 1.42503L91.9735 1.41696L92.0721 1.40897L92.1706 1.40109L92.2492 1.39794L92.3191 1.39682L92.4177 1.38913L92.5163 1.38165L92.6149 1.3742L92.7135 1.36681L92.7678 1.3696L92.862 1.36343L92.9606 1.35626L93.0593 1.34932L93.1579 1.34245L93.2367 1.33996L93.3064 1.33965L93.405 1.33302L93.5037 1.32645L93.6023 1.32L93.701 1.31367L93.7556 1.3169L93.8495 1.31176L93.9482 1.3056L94.0469 1.29962L94.1456 1.29374L94.2247 1.29202L94.294 1.29245L94.3927 1.28685L94.4914 1.28127L94.5901 1.27577L94.6889 1.27046L94.7437 1.27422L94.8373 1.27005L94.936 1.26493L95.0348 1.25991L95.1335 1.25499L95.213 1.25406L95.282 1.25526L95.3807 1.25064L95.4794 1.24605L95.5782 1.24153L95.6769 1.23721L95.732 1.24153L95.8254 1.23829L95.9241 1.23422L96.0229 1.2302L96.1217 1.22619L96.2014 1.22607L96.2701 1.22809L96.3688 1.22438L96.4676 1.2208L96.5664 1.21733L96.6651 1.21392L96.7205 1.2188L96.8136 1.21659L96.9123 1.21347L97.0111 1.21046L97.1099 1.20745L97.19 1.20806L97.2582 1.21089L97.357 1.20816L97.4558 1.20554L97.5546 1.2031L97.6534 1.20067L97.709 1.20606L97.8018 1.20489L97.9005 1.20274L97.9993 1.20069L98.0981 1.19874L98.1785 1.20006L98.2464 1.20367L98.3452 1.20195L98.444 1.20029L98.5428 1.19885L98.6416 1.19742L98.6975 1.2033L98.7899 1.20317L98.8887 1.20203L98.9874 1.2009L99.0863 1.19999L99.1669 1.20211L99.2345 1.20641L99.3333 1.2057L99.4321 1.20509L99.5308 1.20457L99.6296 1.20413L99.6858 1.2106L99.7778 1.21143L99.8766 1.21129L99.9754 1.21115L100.074 1.21122L100.155 1.21413L100.222 1.21918L100.321 1.21943L100.42 1.21986L100.519 1.22029L100.617 1.22086L100.674 1.22791L100.765 1.22968L100.864 1.23052L100.963 1.23142L101.062 1.23242L101.143 1.23613L101.21 1.24196L101.309 1.24317L101.407 1.2446L101.506 1.24604L101.605 1.24756L101.661 1.25521L101.753 1.25797L101.851 1.25973L101.95 1.26167L102.049 1.26368L102.13 1.26811L102.197 1.27471L102.296 1.27696L102.394 1.27932L102.493 1.28176L102.592 1.2843L102.648 1.29249L102.739 1.29622L102.838 1.29894L102.937 1.3019L103.036 1.3049L103.117 1.31009L103.183 1.31743L103.282 1.32072L103.381 1.32401L103.479 1.32745L103.578 1.33104L103.635 1.33973L103.726 1.34444L103.824 1.34819L103.923 1.35208L104.022 1.35609L104.104 1.36213L104.169 1.37014L104.268 1.37444L104.366 1.37874L104.465 1.38314L104.564 1.38772L104.621 1.39702L104.711 1.40262L104.81 1.40741L104.908 1.41227L105.007 1.41723L105.089 1.42411L105.154 1.43285L105.253 1.43811L105.351 1.44341L105.45 1.4488L105.548 1.45435L105.606 1.46426L105.696 1.47075L105.794 1.47658L105.893 1.48244L105.991 1.48831L106.074 1.49605L106.139 1.50555L106.237 1.51172L106.335 1.51802L106.434 1.52445L106.532 1.53092L106.59 1.54144L106.68 1.5489L106.778 1.55568L106.876 1.56254L106.975 1.56943L107.058 1.57793L107.122 1.58817L107.22 1.59532L107.319 1.60259L107.417 1.61003L107.515 1.61746L107.573 1.62856L107.662 1.637L107.761 1.64472L107.859 1.65256L107.957 1.66047L108.04 1.66974L108.104 1.68071L108.202 1.68886L108.301 1.69708L108.399 1.70551L108.497 1.71395L108.555 1.72559L108.644 1.735L108.742 1.74372L108.84 1.75247L108.939 1.76142L109.022 1.77153L109.085 1.78314L109.183 1.79228L109.282 1.80153L109.38 1.81089L109.478 1.82032L109.536 1.83258L109.624 1.84289L109.722 1.85261L109.821 1.86232L109.919 1.87227L110.002 1.88321L110.065 1.89548L110.163 1.9056L110.261 1.91587L110.359 1.92616L110.457 1.93658L110.516 1.94947L110.603 1.96066L110.701 1.97137L110.799 1.98209L110.897 1.99297L110.981 2.00476L111.043 2.01774L111.141 2.0288L111.239 2.04007L111.337 2.05135L111.435 2.06273L111.494 2.07624L111.581 2.08834L111.679 2.09998L111.777 2.11172L111.875 2.12357L111.958 2.13617L112.02 2.14983L112.118 2.16187L112.216 2.17411L112.314 2.18637L112.412 2.19871L112.471 2.21286L112.557 2.22586L112.655 2.23841L112.753 2.25118L112.85 2.26401L112.934 2.27738L112.996 2.29175L113.094 2.30481L113.191 2.31796L113.289 2.33121L113.387 2.34456L113.446 2.35928L113.532 2.37318L113.629 2.38671L113.727 2.40043L113.825 2.41425L113.909 2.42846L113.97 2.44345L114.067 2.45753L114.165 2.47163L114.262 2.48583L114.36 2.5002L114.419 2.5155L114.505 2.53028L114.602 2.54479L114.699 2.55945L114.797 2.57426L114.881 2.58934L114.942 2.60493L115.039 2.62001L115.136 2.63509L115.234 2.65023L115.331 2.66559L115.39 2.68154L115.476 2.69713L115.573 2.71266L115.67 2.72831L115.767 2.74401L115.852 2.75998L115.912 2.77624L116.009 2.79224L116.106 2.8083L116.203 2.82441L116.3 2.84071L116.36 2.85731L116.445 2.87374L116.542 2.89025L116.639 2.90687L116.736 2.92349L116.82 2.94034L116.88 2.95726L116.977 2.97416L117.074 2.99119Z" fill="white"/>
</svg>
