<svg width="200" height="200" viewBox="0 0 200 200" fill="none" xmlns="http://www.w3.org/2000/svg">
<path d="M129.88 5.23457L129.962 5.27696L130.044 5.3194L130.126 5.35269L130.208 5.39218L130.29 5.4349L130.372 5.47778L130.454 5.52065L130.536 5.56057L130.618 5.59425L130.7 5.63736L130.782 5.68061L130.864 5.72397L130.946 5.76732L131.028 5.80156L131.11 5.84192L131.191 5.88551L131.273 5.92929L131.355 5.97312L131.436 6.01397L131.518 6.0485L131.6 6.09256L131.681 6.13664L131.763 6.18093L131.844 6.22522L131.926 6.26038L132.007 6.30161L132.089 6.34614L132.17 6.39074L132.251 6.43552L132.333 6.47739L132.414 6.51266L132.495 6.55768L132.576 6.60268L132.657 6.64781L132.739 6.69305L132.82 6.72918L132.901 6.77118L132.982 6.81667L133.063 6.86214L133.144 6.9078L133.225 6.95069L133.306 6.98673L133.386 7.03265L133.467 7.07859L133.548 7.12455L133.629 7.17072L133.71 7.20788L133.79 7.25062L133.871 7.29704L133.952 7.34346L134.032 7.38994L134.113 7.43385L134.193 7.47073L134.274 7.51746L134.354 7.56434L134.435 7.61122L134.515 7.65821L134.596 7.69639L134.676 7.73994L134.756 7.7872L134.836 7.83455L134.917 7.8819L134.997 7.92676L135.077 7.9645L135.157 8.01208L135.237 8.05985L135.317 8.10767L135.397 8.15547L135.477 8.19464L135.557 8.23905L135.637 8.28712L135.717 8.33538L135.797 8.38365L135.877 8.42942L135.956 8.468L136.036 8.5165L136.116 8.56509L136.195 8.61382L136.275 8.66256L136.355 8.70263L136.434 8.74787L136.514 8.79683L136.593 8.84593L136.673 8.89514L136.752 8.94183L136.831 8.98119L136.911 9.03062L136.99 9.08004L137.069 9.12965L137.148 9.17932L137.228 9.22027L137.307 9.26634L137.386 9.31623L137.465 9.36613L137.544 9.41624L137.623 9.46394L137.702 9.50401L137.781 9.55435L137.86 9.60468L137.938 9.6551L138.017 9.70566L138.096 9.74761L138.175 9.79441L138.253 9.8452L138.332 9.89599L138.411 9.94692L138.489 9.99561L138.568 10.0365L138.646 10.0876L138.725 10.1389L138.803 10.1901L138.881 10.2416L138.96 10.2845L139.038 10.332L139.116 10.3837L139.194 10.4354L139.273 10.4871L139.351 10.5368L139.429 10.5785L139.507 10.6304L139.585 10.6826L139.663 10.7347L139.741 10.7869L139.819 10.8309L139.897 10.8792L139.974 10.9317L140.052 10.9843L140.13 11.0369L140.208 11.0874L140.285 11.1299L140.363 11.1827L140.44 11.2357L140.518 11.2888L140.595 11.3418L140.673 11.3867L140.75 11.4358L140.828 11.4891L140.905 11.5426L140.982 11.5961L141.06 11.6475L141.137 11.6908L141.214 11.7445L141.291 11.7983L141.368 11.8522L141.445 11.9062L141.522 11.9519L141.599 12.0018L141.676 12.056L141.753 12.1102L141.83 12.1646L141.907 12.217L141.983 12.261L142.06 12.3156L142.137 12.3702L142.213 12.425L142.29 12.4798L142.366 12.5264L142.443 12.5771L142.519 12.6322L142.596 12.6872L142.672 12.7425L142.748 12.7958L142.825 12.8405L142.901 12.896L142.977 12.9515L143.053 13.007L143.129 13.0627L143.205 13.1103L143.281 13.1617L143.357 13.2176L143.433 13.2735L143.509 13.3295L143.585 13.3838L143.661 13.4293L143.737 13.4856L143.812 13.5419L143.888 13.5983L143.964 13.6548L144.039 13.7033L144.115 13.7555L144.19 13.8122L144.266 13.869L144.341 13.9258L144.417 13.981L144.492 14.0273L144.567 14.0843L144.642 14.1416L144.718 14.1988L144.793 14.256L144.868 14.3055L144.943 14.3584L145.018 14.4159L145.093 14.4736L145.168 14.5313L145.243 14.5873L145.317 14.6344L145.392 14.6922L145.467 14.7502L145.541 14.8083L145.616 14.8664L145.691 14.9167L145.765 14.9704L145.84 15.0288L145.914 15.0872L145.989 15.1457L146.063 15.2027L146.137 15.2505L146.212 15.3092L146.286 15.3679L146.36 15.4269L146.434 15.4858L146.508 15.537L146.582 15.5915L146.656 15.6506L146.73 15.7098L146.804 15.7692L146.878 15.8271L146.952 15.8755L147.026 15.9351L147.099 15.9947L147.173 16.0544L147.247 16.1142L147.32 16.1663L147.394 16.2214L147.467 16.2814L147.541 16.3415L147.614 16.4016L147.687 16.4604L147.761 16.5095L147.834 16.5699L147.907 16.6304L147.98 16.6908L148.053 16.7514L148.126 16.8044L148.199 16.8602L148.272 16.9211L148.345 16.9819L148.418 17.0428L148.491 17.1025L148.564 17.1525L148.636 17.2136L148.709 17.2748L148.782 17.3361L148.854 17.3975L148.927 17.4514L148.999 17.5079L149.072 17.5695L149.144 17.6312L149.216 17.6929L149.288 17.7535L149.361 17.8041L149.433 17.866L149.505 17.9281L149.577 17.9902L149.649 18.0523L149.721 18.1071L149.793 18.1644L149.865 18.2267L149.937 18.2892L150.008 18.3517L150.08 18.4131L150.152 18.4645L150.223 18.5272L150.295 18.59L150.367 18.6529L150.438 18.7159L150.509 18.7715L150.581 18.8295L150.652 18.8926L150.723 18.9559L150.795 19.0192L150.866 19.0814L150.937 19.1335L151.008 19.197L151.079 19.2606L151.15 19.3243L151.221 19.388L151.292 19.4445L151.363 19.5032L151.433 19.5672L151.504 19.6311L151.575 19.6952L151.645 19.7584L151.716 19.8111L151.786 19.8754L151.857 19.9398L151.927 20.0042L151.998 20.0687L152.068 20.1261L152.138 20.1854L152.208 20.2502L152.279 20.3149L152.349 20.3798L152.419 20.4438L152.489 20.4972L152.559 20.5623L152.628 20.6274L152.698 20.6926L152.768 20.7579L152.838 20.8161L152.907 20.8761L152.977 20.9416L153.047 21.0072L153.116 21.0728L153.186 21.1376L153.255 21.1918L153.324 21.2575L153.394 21.3235L153.463 21.3894L153.532 21.4554L153.601 21.5145L153.67 21.5753L153.739 21.6415L153.808 21.7078L153.877 21.7742L153.946 21.8398L154.015 21.8946L154.084 21.9612L154.152 22.0279L154.221 22.0946L154.29 22.1614L154.358 22.2213L154.427 22.2827L154.495 22.3496L154.564 22.4167L154.632 22.4839L154.7 22.5503L154.768 22.6058L154.837 22.6732L154.905 22.7405L154.973 22.808L155.041 22.8756L155.109 22.9362L155.177 22.9983L155.244 23.0661L155.312 23.1339L155.38 23.2018L155.448 23.2691L155.515 23.3252L155.583 23.3933L155.65 23.4614L155.718 23.5296L155.785 23.5979L155.853 23.6594L155.92 23.7222L155.987 23.7907L156.054 23.8592L156.121 23.9278L156.188 23.996L156.255 24.0527L156.322 24.1216L156.389 24.1904L156.456 24.2593L156.523 24.3284L156.59 24.3907L156.656 24.4541L156.723 24.5233L156.79 24.5926L156.856 24.6619L156.922 24.7309L156.989 24.7883L157.055 24.8578L157.121 24.9275L157.188 24.9971L157.254 25.0669L157.32 25.13L157.386 25.194L157.452 25.264L157.518 25.334L157.584 25.404L157.65 25.4738L157.715 25.5319L157.781 25.6021L157.847 25.6725L157.912 25.7429L157.978 25.8133L158.043 25.8773L158.109 25.9419L158.174 26.0125L158.239 26.0833L158.305 26.1541L158.37 26.2246L158.435 26.2834L158.5 26.3543L158.565 26.4253L158.63 26.4965L158.695 26.5676L158.76 26.6324L158.824 26.6977L158.889 26.769L158.954 26.8405L159.018 26.912L159.083 26.9833L159.148 27.0426L159.212 27.1143L159.276 27.1861L159.341 27.2579L159.405 27.3298L159.469 27.3953L159.533 27.4612L159.597 27.5333L159.661 27.6054L159.725 27.6776L159.789 27.7498L159.853 27.8097L159.917 27.8821L159.98 27.9545L160.044 28.027L160.108 28.0996L160.171 28.1659L160.235 28.2324L160.298 28.3052L160.361 28.3781L160.425 28.4509L160.488 28.5239L160.551 28.5844L160.614 28.6575L160.677 28.7307L160.74 28.8038L160.803 28.8771L160.866 28.9442L160.929 29.0113L160.992 29.0848L161.054 29.1583L161.117 29.2318L161.18 29.3055L161.242 29.3668L161.305 29.4404L161.367 29.5143L161.429 29.5882L161.492 29.6621L161.554 29.73L161.616 29.7977L161.678 29.8718L161.74 29.9461L161.802 30.0203L161.864 30.0946L161.926 30.1567L161.988 30.231L162.049 30.3055L162.111 30.3801L162.173 30.4547L162.234 30.5233L162.295 30.5916L162.357 30.6664L162.418 30.7413L162.48 30.8163L162.541 30.8912L162.602 30.954L162.663 31.0289L162.724 31.1041L162.785 31.1794L162.846 31.2547L162.907 31.324L162.968 31.3929L163.028 31.4684L163.089 31.5439L163.15 31.6196L163.21 31.6952L163.271 31.7587L163.331 31.8342L163.391 31.91L163.452 31.9859L163.512 32.0619L163.572 32.132L163.632 32.2015L163.692 32.2776L163.752 32.3538L163.812 32.4301L163.872 32.5064L163.932 32.5706L163.991 32.6467L164.051 32.7232L164.111 32.7997L164.17 32.8764L164.23 32.9472L164.289 33.0173L164.348 33.0941L164.408 33.1709L164.467 33.2478L164.526 33.3248L164.585 33.3898L164.644 33.4664L164.703 33.5436L164.762 33.6208L164.821 33.698L164.879 33.7696L164.938 33.8402L164.997 33.9177L165.055 33.9952L165.114 34.0727L165.172 34.1504L165.231 34.2161L165.289 34.2932L165.347 34.371L165.405 34.4489L165.463 34.5268L165.521 34.5991L165.579 34.6702L165.637 34.7483L165.695 34.8265L165.753 34.9046L165.811 34.9829L165.868 35.0493L165.926 35.1271L165.983 35.2055L166.041 35.284L166.098 35.3625L166.156 35.4355L166.213 35.5073L166.27 35.5859L166.327 35.6647L166.384 35.7435L166.441 35.8224L166.498 35.8895L166.555 35.9678L166.612 36.0468L166.668 36.126L166.725 36.2051L166.782 36.2788L166.838 36.3511L166.895 36.4304L166.951 36.5098L167.007 36.5892L167.064 36.6687L167.12 36.7365L167.176 36.8154L167.232 36.895L167.288 36.9747L167.344 37.0545L167.4 37.1289L167.456 37.2017L167.511 37.2817L167.567 37.3616L167.623 37.4417L167.678 37.5218L167.734 37.5903L167.789 37.6697L167.844 37.75L167.9 37.8302L167.955 37.9107L168.01 37.9858L168.065 38.0591L168.12 38.1396L168.175 38.2203L168.23 38.3009L168.285 38.3816L168.339 38.4508L168.394 38.5307L168.448 38.6115L168.503 38.6925L168.557 38.7734L168.612 38.8492L168.666 38.923L168.72 39.0042L168.775 39.0854L168.829 39.1666L168.883 39.248L168.937 39.3179L168.991 39.3982L169.044 39.4797L169.098 39.5612L169.152 39.6427L169.205 39.7192L169.259 39.7936L169.313 39.8753L169.366 39.9571L169.419 40.039L169.473 40.1208L169.526 40.1914L169.579 40.2723L169.632 40.3543L169.685 40.4365L169.738 40.5186L169.791 40.5957L169.844 40.6706L169.896 40.7529L169.949 40.8353L170.001 40.9177L170.054 41.0001L170.106 41.0714L170.159 41.1528L170.211 41.2353L170.263 41.3181L170.316 41.4008L170.368 41.4785L170.42 41.5539L170.472 41.6368L170.524 41.7197L170.575 41.8028L170.627 41.8858L170.679 41.9576L170.73 42.0395L170.782 42.1227L170.833 42.2059L170.885 42.2892L170.936 42.3676L170.987 42.4435L171.038 42.527L171.09 42.6104L171.141 42.694L171.192 42.7776L171.243 42.8501L171.293 42.9325L171.344 43.0162L171.395 43.1L171.445 43.1839L171.496 43.263L171.546 43.3392L171.597 43.4233L171.647 43.5073L171.697 43.5914L171.748 43.6756L171.798 43.7488L171.848 43.8316L171.898 43.9159L171.948 44.0003L171.997 44.0847L172.047 44.1644L172.097 44.2411L172.146 44.3257L172.196 44.4103L172.246 44.4949L172.295 44.5797L172.344 44.6534L172.393 44.7367L172.443 44.8216L172.492 44.9065L172.541 44.9914L172.59 45.0717L172.639 45.149L172.687 45.2341L172.736 45.3192L172.785 45.4044L172.833 45.4896L172.882 45.5641L172.93 45.6478L172.979 45.7332L173.027 45.8186L173.075 45.9041L173.124 45.985L173.172 46.0627L173.22 46.1483L173.268 46.234L173.315 46.3198L173.363 46.4055L173.411 46.4805L173.459 46.5647L173.506 46.6506L173.554 46.7366L173.601 46.8226L173.649 46.9041L173.696 46.9823L173.743 47.0684L173.79 47.1546L173.837 47.2409L173.884 47.3271L173.931 47.4027L173.978 47.4874L174.025 47.5738L174.071 47.6603L174.118 47.7469L174.165 47.8289L174.211 47.9075L174.257 47.9942L174.304 48.0809L174.35 48.1677L174.396 48.2545L174.442 48.3306L174.488 48.4157L174.534 48.5027L174.58 48.5896L174.626 48.6767L174.672 48.7594L174.717 48.8384L174.763 48.9256L174.808 49.0128L174.854 49.1L174.899 49.1874L174.945 49.2641L174.99 49.3496L175.035 49.4371L175.08 49.5245L175.125 49.6121L175.17 49.6954L175.215 49.7748L175.259 49.8625L175.304 49.9502L175.349 50.0379L175.393 50.1257L175.438 50.2031L175.482 50.289L175.526 50.3769L175.571 50.4649L175.615 50.5529L175.659 50.6368L175.703 50.7166L175.747 50.8048L175.791 50.893L175.834 50.9812L175.878 51.0695L175.922 51.1474L175.965 51.2337L176.009 51.3221L176.052 51.4106L176.095 51.4991L176.139 51.5835L176.182 51.6637L176.225 51.7523L176.268 51.8411L176.311 51.9298L176.354 52.0185L176.396 52.0971L176.439 52.1837L176.482 52.2726L176.524 52.3616L176.567 52.4505L176.609 52.5355L176.652 52.6161L176.694 52.7052L176.736 52.7944L176.778 52.8836L176.82 52.9728L176.862 53.0518L176.904 53.1389L176.946 53.2282L176.987 53.3176L177.029 53.4071L177.071 53.4926L177.112 53.5736L177.154 53.6632L177.195 53.7527L177.236 53.8424L177.277 53.9321L177.318 54.0117L177.359 54.0991L177.4 54.1889L177.441 54.2788L177.482 54.3687L177.523 54.4548L177.563 54.5361L177.604 54.6262L177.644 54.7162L177.685 54.8063L177.725 54.8965L177.765 54.9765L177.805 55.0644L177.845 55.1546L177.886 55.2449L177.925 55.3353L177.965 55.4218L178.005 55.5036L178.045 55.594L178.084 55.6845L178.124 55.7751L178.163 55.8657L178.203 55.9463L178.242 56.0344L178.281 56.1252L178.32 56.2159L178.359 56.3067L178.398 56.3938L178.437 56.4758L178.476 56.5667L178.515 56.6577L178.554 56.7486L178.592 56.8397L178.631 56.9208L178.669 57.0093L178.707 57.1004L178.746 57.1916L178.784 57.2828L178.822 57.3704L178.86 57.4528L178.898 57.5441L178.936 57.6355L178.974 57.7269L179.012 57.8183L179.049 57.9L179.087 57.9888L179.124 58.0804L179.162 58.1719L179.199 58.2635L179.236 58.3517L179.273 58.4344L179.31 58.5261L179.347 58.6179L179.384 58.7098L179.421 58.8016L179.458 58.8837L179.495 58.9729L179.531 59.0649L179.568 59.1569L179.604 59.2489L179.641 59.3375L179.677 59.4206L179.713 59.5127L179.749 59.6049L179.785 59.6971L179.821 59.7893L179.857 59.8719L179.893 59.9614L179.929 60.0538L179.964 60.1462L180 60.2386L180.035 60.3277L180.071 60.4111L180.106 60.5036L180.141 60.5962L180.177 60.6888L180.212 60.7814L180.247 60.8645L180.282 60.9544L180.316 61.0471L180.351 61.1399L180.386 61.2327L180.421 61.3222L180.455 61.4059L180.489 61.4989L180.524 61.5918L180.558 61.6848L180.592 61.7778L180.626 61.8614L180.66 61.9515L180.694 62.0446L180.728 62.1378L180.762 62.231L180.796 62.321L180.829 62.4049L180.863 62.4983L180.896 62.5916L180.93 62.6849L180.963 62.7784L180.996 62.8623L181.029 62.9528L181.062 63.0463L181.095 63.1398L181.128 63.2333L181.161 63.3238L181.194 63.4081L181.227 63.5017L181.259 63.5954L181.292 63.6892L181.324 63.7829L181.356 63.8673L181.389 63.9581L181.421 64.0519L181.453 64.1458L181.485 64.2397L181.517 64.3306L181.549 64.4151L181.58 64.5092L181.612 64.6032L181.644 64.6973L181.675 64.7915L181.706 64.8763L181.738 64.9672L181.769 65.0615L181.8 65.1557L181.831 65.25L181.862 65.3413L181.893 65.4261L181.924 65.5205L181.955 65.6149L181.986 65.7093L182.016 65.8038L182.047 65.8891L182.077 65.9803L182.107 66.0749L182.138 66.1694L182.168 66.264L182.198 66.3558L182.228 66.4409L182.258 66.5355L182.288 66.6303L182.318 66.7251L182.347 66.8198L182.377 66.9056L182.406 66.997L182.436 67.0919L182.465 67.1868L182.494 67.2818L182.524 67.3739L182.553 67.4592L182.582 67.5543L182.611 67.6493L182.64 67.7444L182.668 67.8395L182.697 67.9257L182.726 68.0174L182.754 68.1126L182.783 68.2078L182.811 68.3031L182.839 68.3956L182.867 68.4812L182.896 68.5765L182.924 68.6719L182.951 68.7673L182.979 68.8627L183.007 68.9492L183.035 69.0412L183.062 69.1367L183.09 69.2322L183.117 69.3278L183.145 69.4207L183.172 69.5065L183.199 69.6022L183.226 69.6979L183.253 69.7936L183.28 69.8893L183.307 69.9762L183.334 70.0684L183.361 70.1642L183.387 70.26L183.414 70.3559L183.44 70.4492L183.466 70.5352L183.493 70.6312L183.519 70.7271L183.545 70.8232L183.571 70.9192L183.597 71.0064L183.623 71.0988L183.648 71.1949L183.674 71.291L183.7 71.3872L183.725 71.4809L183.751 71.5671L183.776 71.6633L183.801 71.7596L183.826 71.8559L183.851 71.9522L183.877 72.0398L183.901 72.1324L183.926 72.2288L183.951 72.3252L183.976 72.4217L184 72.5157L184.025 72.6021L184.049 72.6986L184.073 72.7952L184.098 72.8917L184.122 72.9883L184.146 73.0763L184.17 73.169L184.194 73.2657L184.218 73.3624L184.241 73.4591L184.265 73.5535L184.289 73.6401L184.312 73.7368L184.335 73.8337L184.359 73.9305L184.382 74.0273L184.405 74.1156L184.428 74.2086L184.451 74.3055L184.474 74.4024L184.497 74.4994L184.519 74.5941L184.542 74.6809L184.565 74.7779L184.587 74.875L184.609 74.972L184.632 75.0692L184.654 75.1578L184.676 75.2509L184.698 75.3481L184.72 75.4453L184.742 75.5425L184.764 75.6375L184.785 75.7245L184.807 75.8217L184.828 75.919L184.85 76.0164L184.871 76.1137L184.892 76.2027L184.914 76.296L184.935 76.3934L184.956 76.4908L184.977 76.5882L184.997 76.6836L185.018 76.7707L185.039 76.8682L185.059 76.9657L185.08 77.0633L185.1 77.1608L185.121 77.2502L185.141 77.3436L185.161 77.4412L185.181 77.5389L185.201 77.6365L185.221 77.7322L185.241 77.8194L185.26 77.9172L185.28 78.0149L185.3 78.1127L185.319 78.2105L185.338 78.3001L185.358 78.3936L185.377 78.4915L185.396 78.5893L185.415 78.6872L185.434 78.7832L185.453 78.8706L185.472 78.9685L185.49 79.0665L185.509 79.1645L185.527 79.2625L185.546 79.3524L185.564 79.4461L185.582 79.5441L185.601 79.6422L185.619 79.7403L185.637 79.8365L185.655 79.924L185.672 80.0222L185.69 80.1203L185.708 80.2185L185.725 80.3167L185.743 80.4069L185.76 80.5007L185.778 80.5989L185.795 80.6972L185.812 80.7955L185.829 80.892L185.846 80.9796L185.863 81.078L185.88 81.1763L185.896 81.2747L185.913 81.3731L185.929 81.4635L185.946 81.5574L185.962 81.6559L185.979 81.7543L185.995 81.8528L186.011 81.9496L186.027 82.0373L186.043 82.1358L186.059 82.2344L186.074 82.3329L186.09 82.4315L186.106 82.5222L186.121 82.6162L186.136 82.7148L186.152 82.8135L186.167 82.9121L186.182 83.0092L186.197 83.097L186.212 83.1957L186.227 83.2944L186.242 83.3931L186.257 83.4918L186.271 83.5828L186.286 83.6768L186.3 83.7756L186.315 83.8744L186.329 83.9732L186.343 84.0706L186.357 84.1584L186.371 84.2572L186.385 84.3561L186.399 84.455L186.413 84.5539L186.426 84.6451L186.44 84.7392L186.454 84.8382L186.467 84.9371L186.48 85.0361L186.494 85.1336L186.507 85.2215L186.52 85.3205L186.533 85.4196L186.546 85.5186L186.559 85.6176L186.571 85.7091L186.584 85.8033L186.596 85.9023L186.609 86.0014L186.621 86.1005L186.634 86.1983L186.646 86.2863L186.658 86.3854L186.67 86.4846L186.682 86.5838L186.694 86.6829L186.706 86.7746L186.717 86.8688L186.729 86.968L186.74 87.0673L186.752 87.1665L186.763 87.2645L186.774 87.3525L186.785 87.4518L186.797 87.5511L186.808 87.6503L186.818 87.7496L186.829 87.8415L186.84 87.9358L186.851 88.0351L186.861 88.1345L186.872 88.2338L186.882 88.332L186.892 88.4201L186.903 88.5195L186.913 88.6188L186.923 88.7183L186.933 88.8177L186.943 88.9097L186.952 89.004L186.962 89.1035L186.972 89.2029L186.981 89.3024L186.991 89.4008L187 89.4889L187.009 89.5883L187.018 89.6879L187.027 89.7874L187.036 89.8869L187.045 89.9791L187.054 90.0735L187.063 90.173L187.072 90.2725L187.08 90.3721L187.089 90.4707L187.097 90.5588L187.105 90.6584L187.113 90.758L187.122 90.8576L187.13 90.9572L187.138 91.0496L187.146 91.1439L187.153 91.2436L187.161 91.3432L187.169 91.4429L187.176 91.5416L187.184 91.6297L187.191 91.7294L187.198 91.829L187.205 91.9287L187.212 92.0284L187.219 92.121L187.226 92.2154L187.233 92.3151L187.24 92.4148L187.247 92.5145L187.253 92.6134L187.26 92.7015L187.266 92.8012L187.272 92.901L187.279 93.0008L187.285 93.1005L187.291 93.1933L187.297 93.2876L187.303 93.3874L187.308 93.4872L187.314 93.587L187.32 93.686L187.325 93.7741L187.331 93.8739L187.336 93.9737L187.341 94.0735L187.347 94.1734L187.352 94.2662L187.357 94.3606L187.362 94.4604L187.366 94.5603L187.371 94.6601L187.376 94.7593L187.38 94.8474L187.385 94.9472L187.389 95.0471L187.394 95.147L187.398 95.2468L187.402 95.3398L187.406 95.4341L187.41 95.534L187.414 95.6339L187.418 95.7338L187.422 95.8331L187.425 95.9211L187.429 96.0211L187.432 96.121L187.435 96.2209L187.439 96.3208L187.442 96.4139L187.445 96.5082L187.448 96.6081L187.451 96.7081L187.454 96.808L187.457 96.9074L187.459 96.9954L187.462 97.0953L187.464 97.1953L187.467 97.2952L187.469 97.3952L187.472 97.4884L187.474 97.5826L187.476 97.6826L187.478 97.7825L187.48 97.8825L187.481 97.982L187.483 98.0699L187.485 98.1699L187.486 98.2698L187.488 98.3698L187.489 98.4698L187.491 98.5631L187.492 98.6572L187.493 98.7572L187.494 98.8572L187.495 98.9572L187.496 99.0568L187.497 99.1446L187.497 99.2446L187.498 99.3446L187.499 99.4445L187.499 99.5445L187.499 99.6379L187.5 99.732L187.5 99.832L187.5 99.932L187.5 100.032L187.5 100.132L187.5 100.219L187.499 100.319L187.499 100.419L187.499 100.519L187.498 100.619L187.498 100.713L187.497 100.807L187.496 100.907L187.495 101.007L187.495 101.107L187.493 101.207L187.492 101.294L187.491 101.394L187.49 101.494L187.489 101.594L187.487 101.694L187.486 101.788L187.484 101.882L187.482 101.982L187.481 102.082L187.479 102.181L187.477 102.281L187.475 102.369L187.473 102.469L187.47 102.569L187.468 102.669L187.466 102.769L187.463 102.862L187.461 102.956L187.458 103.056L187.455 103.156L187.452 103.256L187.45 103.356L187.447 103.443L187.444 103.543L187.44 103.643L187.437 103.743L187.434 103.843L187.43 103.937L187.427 104.03L187.423 104.13L187.42 104.23L187.416 104.33L187.412 104.43L187.408 104.517L187.404 104.617L187.4 104.717L187.396 104.817L187.391 104.917L187.387 105.011L187.383 105.104L187.378 105.204L187.373 105.304L187.369 105.404L187.364 105.504L187.359 105.591L187.354 105.691L187.349 105.791L187.344 105.89L187.339 105.99L187.333 106.084L187.328 106.177L187.323 106.277L187.317 106.377L187.311 106.477L187.306 106.577L187.3 106.664L187.294 106.764L187.288 106.864L187.282 106.963L187.275 107.063L187.269 107.157L187.263 107.25L187.256 107.35L187.25 107.45L187.243 107.549L187.237 107.649L187.23 107.737L187.223 107.836L187.216 107.936L187.209 108.035L187.202 108.135L187.195 108.229L187.187 108.322L187.18 108.422L187.172 108.521L187.165 108.621L187.157 108.721L187.149 108.808L187.142 108.907L187.134 109.007L187.126 109.107L187.118 109.206L187.109 109.3L187.101 109.393L187.093 109.492L187.084 109.592L187.076 109.692L187.067 109.791L187.059 109.879L187.05 109.978L187.041 110.077L187.032 110.177L187.023 110.276L187.014 110.37L187.005 110.463L186.995 110.562L186.986 110.662L186.976 110.761L186.967 110.861L186.957 110.948L186.948 111.047L186.938 111.147L186.928 111.246L186.918 111.345L186.908 111.439L186.897 111.532L186.887 111.631L186.877 111.73L186.866 111.83L186.856 111.929L186.845 112.017L186.835 112.115L186.824 112.215L186.813 112.314L186.802 112.413L186.791 112.507L186.78 112.599L186.769 112.699L186.757 112.798L186.746 112.897L186.735 112.996L186.723 113.084L186.711 113.182L186.7 113.281L186.688 113.381L186.676 113.48L186.664 113.573L186.652 113.666L186.64 113.765L186.627 113.864L186.615 113.963L186.603 114.062L186.59 114.149L186.578 114.248L186.565 114.347L186.552 114.446L186.539 114.545L186.526 114.639L186.513 114.73L186.5 114.829L186.487 114.928L186.474 115.027L186.46 115.126L186.447 115.214L186.433 115.312L186.42 115.411L186.406 115.51L186.392 115.608L186.378 115.702L186.364 115.794L186.35 115.893L186.336 115.991L186.322 116.09L186.307 116.189L186.293 116.276L186.279 116.374L186.264 116.473L186.249 116.572L186.235 116.67L186.22 116.764L186.205 116.855L186.19 116.954L186.175 117.053L186.159 117.151L186.144 117.25L186.129 117.337L186.113 117.435L186.098 117.533L186.082 117.632L186.066 117.73L186.051 117.824L186.035 117.915L186.019 118.013L186.003 118.112L185.987 118.21L185.97 118.309L185.954 118.396L185.938 118.493L185.921 118.592L185.905 118.69L185.888 118.788L185.871 118.882L185.854 118.973L185.837 119.071L185.82 119.169L185.803 119.268L185.786 119.366L185.769 119.453L185.752 119.55L185.734 119.648L185.717 119.746L185.699 119.845L185.681 119.938L185.664 120.028L185.646 120.126L185.628 120.225L185.61 120.323L185.591 120.421L185.573 120.508L185.555 120.604L185.537 120.702L185.518 120.8L185.5 120.898L185.481 120.991L185.462 121.082L185.443 121.18L185.424 121.278L185.406 121.376L185.386 121.474L185.367 121.56L185.348 121.657L185.329 121.755L185.309 121.852L185.29 121.95L185.27 122.043L185.251 122.133L185.231 122.231L185.211 122.329L185.191 122.426L185.171 122.524L185.151 122.61L185.131 122.707L185.11 122.804L185.09 122.902L185.07 122.999L185.049 123.092L185.028 123.182L185.008 123.28L184.987 123.377L184.966 123.474L184.945 123.572L184.924 123.658L184.903 123.754L184.882 123.852L184.86 123.949L184.839 124.046L184.818 124.139L184.796 124.228L184.774 124.326L184.753 124.423L184.731 124.52L184.709 124.617L184.687 124.704L184.665 124.799L184.643 124.896L184.621 124.993L184.598 125.09L184.576 125.183L184.553 125.272L184.531 125.369L184.508 125.466L184.485 125.563L184.462 125.66L184.44 125.746L184.417 125.841L184.393 125.938L184.37 126.035L184.347 126.132L184.324 126.224L184.3 126.313L184.277 126.41L184.253 126.507L184.229 126.603L184.206 126.7L184.182 126.786L184.158 126.881L184.134 126.977L184.11 127.074L184.086 127.171L184.061 127.263L184.037 127.351L184.012 127.448L183.988 127.544L183.963 127.641L183.939 127.737L183.914 127.823L183.889 127.917L183.864 128.014L183.839 128.11L183.814 128.206L183.789 128.298L183.763 128.386L183.738 128.482L183.712 128.579L183.687 128.675L183.661 128.771L183.636 128.857L183.61 128.951L183.584 129.047L183.558 129.143L183.532 129.239L183.506 129.331L183.48 129.418L183.453 129.514L183.427 129.61L183.4 129.706L183.374 129.802L183.347 129.887L183.32 129.981L183.294 130.077L183.267 130.173L183.24 130.268L183.213 130.36L183.186 130.447L183.158 130.543L183.131 130.638L183.104 130.734L183.076 130.829L183.049 130.915L183.021 131.008L182.993 131.104L182.965 131.199L182.937 131.294L182.909 131.386L182.882 131.473L182.853 131.568L182.825 131.663L182.797 131.759L182.768 131.854L182.74 131.939L182.711 132.032L182.683 132.127L182.654 132.222L182.625 132.317L182.596 132.408L182.567 132.495L182.538 132.59L182.509 132.685L182.48 132.78L182.45 132.875L182.421 132.959L182.392 133.052L182.362 133.147L182.332 133.242L182.303 133.336L182.273 133.427L182.243 133.513L182.213 133.608L182.183 133.703L182.153 133.797L182.123 133.892L182.092 133.976L182.062 134.068L182.031 134.163L182.001 134.257L181.97 134.352L181.939 134.442L181.909 134.528L181.878 134.623L181.847 134.717L181.816 134.811L181.785 134.905L181.753 134.99L181.722 135.081L181.691 135.175L181.659 135.27L181.628 135.364L181.596 135.454L181.564 135.539L181.533 135.633L181.501 135.727L181.469 135.821L181.437 135.915L181.405 135.999L181.372 136.09L181.34 136.184L181.308 136.278L181.275 136.372L181.243 136.462L181.21 136.547L181.177 136.64L181.145 136.734L181.112 136.827L181.079 136.921L181.046 137.005L181.013 137.095L180.98 137.189L180.946 137.282L180.913 137.376L180.88 137.465L180.846 137.55L180.812 137.643L180.779 137.736L180.745 137.83L180.711 137.923L180.677 138.006L180.643 138.097L180.609 138.19L180.575 138.283L180.541 138.376L180.507 138.465L180.472 138.549L180.438 138.642L180.403 138.735L180.368 138.828L180.334 138.921L180.299 139.004L180.264 139.094L180.229 139.186L180.194 139.279L180.159 139.371L180.124 139.461L180.088 139.544L180.053 139.637L180.018 139.729L179.982 139.822L179.947 139.914L179.911 139.997L179.875 140.086L179.839 140.179L179.803 140.271L179.767 140.363L179.731 140.452L179.695 140.535L179.659 140.627L179.622 140.719L179.586 140.811L179.55 140.903L179.513 140.986L179.476 141.075L179.44 141.166L179.403 141.258L179.366 141.35L179.329 141.439L179.292 141.521L179.255 141.613L179.218 141.705L179.18 141.796L179.143 141.888L179.105 141.97L179.068 142.058L179.03 142.15L178.993 142.241L178.955 142.333L178.917 142.421L178.879 142.503L178.841 142.594L178.803 142.686L178.765 142.777L178.727 142.868L178.688 142.95L178.65 143.038L178.611 143.129L178.573 143.22L178.534 143.311L178.495 143.399L178.457 143.48L178.418 143.571L178.379 143.662L178.34 143.753L178.301 143.843L178.262 143.925L178.222 144.012L178.183 144.103L178.144 144.194L178.104 144.284L178.065 144.372L178.025 144.453L177.985 144.543L177.945 144.633L177.905 144.724L177.866 144.814L177.825 144.895L177.785 144.982L177.745 145.072L177.705 145.163L177.664 145.253L177.624 145.34L177.584 145.42L177.543 145.51L177.502 145.6L177.462 145.69L177.421 145.78L177.38 145.861L177.339 145.947L177.298 146.037L177.257 146.127L177.215 146.216L177.174 146.303L177.133 146.383L177.091 146.473L177.05 146.562L177.008 146.652L176.967 146.741L176.925 146.821L176.883 146.907L176.841 146.997L176.799 147.086L176.757 147.175L176.715 147.261L176.673 147.341L176.63 147.43L176.588 147.519L176.546 147.608L176.503 147.697L176.461 147.777L176.418 147.862L176.375 147.951L176.332 148.04L176.289 148.129L176.246 148.214L176.203 148.293L176.16 148.382L176.117 148.471L176.074 148.559L176.03 148.648L175.987 148.727L175.943 148.812L175.9 148.9L175.856 148.989L175.812 149.077L175.769 149.162L175.725 149.241L175.681 149.329L175.637 149.417L175.593 149.505L175.548 149.593L175.504 149.672L175.46 149.756L175.415 149.844L175.371 149.932L175.326 150.02L175.282 150.105L175.237 150.183L175.192 150.271L175.147 150.358L175.102 150.446L175.057 150.533L175.012 150.612L174.967 150.696L174.922 150.783L174.876 150.87L174.831 150.958L174.786 151.042L174.74 151.119L174.694 151.207L174.649 151.294L174.603 151.381L174.557 151.468L174.511 151.546L174.465 151.629L174.419 151.716L174.373 151.803L174.327 151.89L174.281 151.974L174.234 152.051L174.188 152.137L174.141 152.224L174.095 152.31L174.048 152.397L174.001 152.475L173.954 152.557L173.908 152.644L173.861 152.73L173.814 152.816L173.767 152.9L173.719 152.976L173.672 153.062L173.625 153.148L173.577 153.234L173.53 153.32L173.482 153.398L173.435 153.48L173.387 153.566L173.339 153.651L173.291 153.737L173.244 153.821L173.196 153.896L173.148 153.982L173.099 154.067L173.051 154.153L173.003 154.238L172.955 154.315L172.906 154.396L172.858 154.482L172.809 154.567L172.761 154.652L172.712 154.735L172.663 154.81L172.614 154.895L172.565 154.98L172.516 155.065L172.467 155.15L172.418 155.226L172.369 155.307L172.32 155.392L172.27 155.477L172.221 155.561L172.171 155.644L172.122 155.718L172.072 155.803L172.022 155.887L171.972 155.971L171.923 156.056L171.873 156.132L171.823 156.212L171.773 156.296L171.722 156.38L171.672 156.465L171.622 156.547L171.572 156.62L171.521 156.704L171.471 156.788L171.42 156.872L171.369 156.956L171.319 157.031L171.268 157.111L171.217 157.195L171.166 157.278L171.115 157.362L171.064 157.443L171.013 157.516L170.962 157.6L170.91 157.683L170.859 157.766L170.808 157.85L170.756 157.925L170.704 158.004L170.653 158.087L170.601 158.17L170.549 158.253L170.497 158.334L170.446 158.406L170.394 158.489L170.342 158.572L170.289 158.655L170.237 158.737L170.185 158.812L170.133 158.89L170.08 158.973L170.028 159.055L169.975 159.138L169.923 159.218L169.87 159.29L169.817 159.372L169.764 159.454L169.711 159.536L169.658 159.619L169.605 159.693L169.552 159.77L169.499 159.852L169.446 159.934L169.393 160.016L169.339 160.096L169.286 160.167L169.232 160.249L169.179 160.33L169.125 160.412L169.071 160.494L169.017 160.567L168.964 160.644L168.91 160.725L168.856 160.807L168.802 160.888L168.747 160.968L168.693 161.038L168.639 161.119L168.585 161.2L168.53 161.281L168.476 161.362L168.421 161.435L168.367 161.511L168.312 161.592L168.257 161.673L168.202 161.753L168.147 161.833L168.092 161.902L168.037 161.983L167.982 162.063L167.927 162.143L167.872 162.224L167.817 162.296L167.761 162.372L167.706 162.452L167.65 162.532L167.595 162.612L167.539 162.691L167.484 162.76L167.428 162.84L167.372 162.92L167.316 162.999L167.26 163.079L167.204 163.151L167.148 163.226L167.092 163.305L167.036 163.385L166.979 163.464L166.923 163.542L166.866 163.611L166.81 163.69L166.753 163.769L166.697 163.848L166.64 163.928L166.583 163.999L166.527 164.073L166.47 164.152L166.413 164.231L166.356 164.31L166.299 164.387L166.241 164.455L166.184 164.534L166.127 164.612L166.069 164.691L166.012 164.769L165.955 164.84L165.897 164.914L165.839 164.992L165.782 165.07L165.724 165.148L165.666 165.225L165.608 165.292L165.55 165.37L165.492 165.448L165.434 165.526L165.376 165.604L165.318 165.674L165.26 165.747L165.201 165.825L165.143 165.902L165.084 165.98L165.026 166.056L164.967 166.122L164.909 166.2L164.85 166.277L164.791 166.355L164.732 166.432L164.673 166.502L164.614 166.574L164.555 166.651L164.496 166.728L164.437 166.805L164.378 166.88L164.319 166.946L164.259 167.022L164.2 167.099L164.14 167.176L164.081 167.252L164.021 167.322L163.961 167.393L163.902 167.469L163.842 167.546L163.782 167.622L163.722 167.697L163.662 167.762L163.602 167.838L163.542 167.914L163.482 167.99L163.421 168.066L163.361 168.135L163.301 168.205L163.24 168.281L163.18 168.357L163.119 168.432L163.059 168.507L162.998 168.571L162.937 168.646L162.876 168.722L162.815 168.797L162.755 168.872L162.694 168.94L162.632 169.01L162.571 169.085L162.51 169.16L162.449 169.235L162.388 169.309L162.326 169.372L162.265 169.447L162.203 169.522L162.142 169.597L162.08 169.671L162.018 169.739L161.957 169.808L161.895 169.882L161.833 169.956L161.771 170.031L161.709 170.104L161.647 170.167L161.585 170.241L161.523 170.315L161.46 170.389L161.398 170.463L161.336 170.53L161.273 170.598L161.211 170.672L161.148 170.745L161.086 170.819L161.023 170.892L160.96 170.953L160.898 171.027L160.835 171.1L160.772 171.173L160.709 171.247L160.646 171.313L160.583 171.38L160.52 171.454L160.456 171.527L160.393 171.599L160.33 171.672L160.266 171.733L160.203 171.805L160.139 171.878L160.076 171.951L160.012 172.023L159.949 172.089L159.885 172.156L159.821 172.228L159.757 172.3L159.693 172.372L159.629 172.444L159.565 172.504L159.501 172.576L159.437 172.648L159.373 172.72L159.308 172.792L159.244 172.857L159.18 172.923L159.115 172.995L159.051 173.066L158.986 173.138L158.922 173.209L158.857 173.268L158.792 173.339L158.727 173.411L158.662 173.482L158.598 173.553L158.533 173.618L158.467 173.683L158.402 173.754L158.337 173.824L158.272 173.895L158.207 173.966L158.141 174.024L158.076 174.095L158.011 174.165L157.945 174.236L157.88 174.306L157.814 174.37L157.748 174.434L157.683 174.505L157.617 174.575L157.551 174.645L157.485 174.715L157.419 174.772L157.353 174.842L157.287 174.912L157.221 174.982L157.155 175.052L157.088 175.115L157.022 175.178L156.956 175.248L156.889 175.317L156.823 175.387L156.756 175.456L156.69 175.513L156.623 175.582L156.556 175.651L156.49 175.72L156.423 175.789L156.356 175.852L156.289 175.914L156.222 175.983L156.155 176.052L156.088 176.12L156.021 176.189L155.953 176.245L155.886 176.314L155.819 176.382L155.752 176.45L155.684 176.518L155.617 176.58L155.549 176.642L155.481 176.71L155.414 176.778L155.346 176.846L155.278 176.914L155.211 176.969L155.143 177.037L155.075 177.105L155.007 177.172L154.939 177.24L154.871 177.301L154.803 177.362L154.734 177.429L154.666 177.497L154.598 177.564L154.529 177.631L154.461 177.685L154.393 177.752L154.324 177.819L154.255 177.886L154.187 177.953L154.118 178.013L154.049 178.074L153.981 178.14L153.912 178.207L153.843 178.273L153.774 178.339L153.705 178.393L153.636 178.459L153.567 178.525L153.497 178.592L153.428 178.658L153.359 178.717L153.29 178.777L153.22 178.843L153.151 178.908L153.081 178.974L153.012 179.04L152.942 179.093L152.873 179.158L152.803 179.223L152.733 179.289L152.663 179.354L152.594 179.413L152.524 179.472L152.454 179.537L152.384 179.602L152.314 179.667L152.243 179.731L152.173 179.784L152.103 179.848L152.033 179.913L151.962 179.978L151.892 180.042L151.822 180.101L151.751 180.158L151.681 180.222L151.61 180.287L151.539 180.351L151.469 180.415L151.398 180.467L151.327 180.53L151.256 180.594L151.185 180.658L151.115 180.721L151.044 180.779L150.973 180.836L150.901 180.9L150.83 180.963L150.759 181.026L150.688 181.09L150.617 181.141L150.545 181.204L150.474 181.267L150.402 181.33L150.331 181.392L150.259 181.45L150.188 181.506L150.116 181.568L150.044 181.631L149.973 181.694L149.901 181.756L149.829 181.807L149.757 181.868L149.685 181.93L149.613 181.993L149.541 182.055L149.469 182.111L149.397 182.166L149.325 182.228L149.252 182.29L149.18 182.352L149.108 182.414L149.035 182.463L148.963 182.524L148.89 182.586L148.818 182.647L148.745 182.709L148.673 182.764L148.6 182.818L148.527 182.88L148.454 182.941L148.382 183.002L148.309 183.062L148.236 183.112L148.163 183.172L148.09 183.232L148.017 183.293L147.944 183.353L147.87 183.408L147.797 183.462L147.724 183.522L147.651 183.582L147.577 183.642L147.504 183.703L147.43 183.751L147.357 183.81L147.283 183.87L147.21 183.93L147.136 183.989L147.062 184.044L146.989 184.096L146.915 184.156L146.841 184.215L146.767 184.274L146.693 184.334L146.619 184.381L146.545 184.44L146.471 184.499L146.397 184.558L146.323 184.617L146.249 184.67L146.175 184.722L146.1 184.78L146.026 184.839L145.951 184.898L145.877 184.956L145.803 185.003L145.728 185.06L145.653 185.118L145.579 185.177L145.504 185.235L145.429 185.288L145.355 185.338L145.28 185.396L145.205 185.454L145.13 185.512L145.055 185.569L144.98 185.615L144.905 185.672L144.83 185.729L144.755 185.787L144.68 185.844L144.605 185.896L144.529 185.946L144.454 186.003L144.379 186.06L144.303 186.117L144.228 186.173L144.153 186.219L144.077 186.274L144.001 186.331L143.926 186.387L143.85 186.444L143.774 186.495L143.699 186.544L143.623 186.6L143.547 186.656L143.471 186.712L143.395 186.768L143.319 186.813L143.243 186.868L143.167 186.923L143.091 186.979L143.015 187.035L142.939 187.085L142.863 187.133L142.787 187.189L142.71 187.244L142.634 187.299L142.558 187.354L142.481 187.398L142.405 187.452L142.328 187.507L142.252 187.562L142.175 187.616L142.098 187.666L142.022 187.713L141.945 187.768L141.868 187.822L141.791 187.877L141.714 187.931L141.638 187.974L141.561 188.027L141.484 188.081L141.407 188.135L141.33 188.189L141.253 188.238L141.175 188.284L141.098 188.338L141.021 188.391L140.944 188.445L140.866 188.498L140.789 188.541L140.712 188.592L140.634 188.646L140.557 188.699L140.479 188.752L140.402 188.8L140.324 188.845L140.246 188.898L140.169 188.951L140.091 189.003L140.013 189.056L139.936 189.098L139.858 189.149L139.78 189.201L139.702 189.253L139.624 189.305L139.546 189.353L139.468 189.397L139.39 189.449L139.312 189.501L139.234 189.553L139.155 189.604L139.077 189.645L138.999 189.695L138.921 189.747L138.842 189.798L138.764 189.85L138.685 189.896L138.607 189.94L138.528 189.991L138.45 190.042L138.371 190.093L138.293 190.143L138.214 190.183L138.135 190.232L138.057 190.283L137.978 190.334L137.899 190.384L137.82 190.43L137.741 190.472L137.662 190.523L137.583 190.573L137.504 190.623L137.425 190.673L137.346 190.712L137.267 190.76L137.188 190.81L137.109 190.86L137.03 190.909L136.95 190.954L136.871 190.996L136.792 191.045L136.712 191.094L136.633 191.143L136.553 191.193L136.474 191.231L136.394 191.278L136.315 191.327L136.235 191.376L136.156 191.425L136.076 191.469L135.996 191.509L135.916 191.558L135.837 191.606L135.757 191.654L135.677 191.703L135.597 191.74L135.517 191.786L135.437 191.835L135.357 191.882L135.277 191.93L135.197 191.974L135.117 192.013L135.037 192.061L134.957 192.108L134.877 192.156L134.796 192.203L134.716 192.24L134.636 192.285L134.555 192.332L134.475 192.379L134.395 192.426L134.314 192.469L134.234 192.507L134.153 192.554L134.073 192.601L133.992 192.647L133.911 192.694L133.831 192.73L133.75 192.774L133.669 192.82L133.589 192.866L133.508 192.912L133.427 192.954L133.346 192.992L133.265 193.038L133.184 193.083L133.103 193.129L133.022 193.175L132.941 193.21L132.86 193.253L132.779 193.298L132.698 193.344L132.617 193.389L132.536 193.43L132.454 193.466L132.373 193.511L132.292 193.556L132.211 193.601L132.129 193.646L132.048 193.68L131.966 193.722L131.885 193.767L131.804 193.811L131.722 193.855L131.64 193.896L131.559 193.931L131.477 193.975L131.396 194.019L131.314 194.063L131.232 194.107L131.15 194.14L131.069 194.181L130.987 194.225L130.905 194.268L130.823 194.312L130.741 194.351L130.659 194.386L130.577 194.429L130.495 194.472L130.413 194.515L130.331 194.558L130.249 194.59L130.167 194.631L130.085 194.673L130.003 194.716L129.913 194.75L129.818 194.78L129.736 194.81L129.641 194.84L129.546 194.869L129.451 194.899L129.357 194.928L129.268 194.958L129.179 194.987L129.084 195.016L128.989 195.045L128.894 195.074L128.799 195.103L128.717 195.132L128.622 195.16L128.526 195.189L128.431 195.217L128.336 195.246L128.247 195.274L128.158 195.302L128.063 195.33L127.967 195.358L127.872 195.386L127.777 195.414L127.694 195.442L127.598 195.47L127.503 195.497L127.407 195.525L127.312 195.552L127.223 195.579L127.133 195.607L127.038 195.634L126.942 195.661L126.847 195.688L126.751 195.715L126.668 195.741L126.572 195.768L126.476 195.795L126.38 195.821L126.285 195.847L126.195 195.874L126.105 195.9L126.01 195.926L125.914 195.952L125.818 195.978L125.722 196.004L125.638 196.03L125.542 196.055L125.446 196.081L125.35 196.106L125.254 196.131L125.164 196.157L125.074 196.182L124.978 196.207L124.882 196.232L124.786 196.257L124.689 196.282L124.606 196.307L124.509 196.331L124.413 196.356L124.317 196.38L124.22 196.404L124.13 196.429L124.04 196.453L123.944 196.477L123.847 196.501L123.751 196.525L123.654 196.548L123.57 196.573L123.473 196.596L123.377 196.619L123.28 196.643L123.184 196.666L123.093 196.689L123.003 196.713L122.906 196.736L122.809 196.759L122.713 196.781L122.616 196.804L122.531 196.827L122.435 196.85L122.338 196.872L122.241 196.894L122.144 196.916L122.053 196.939L121.963 196.961L121.866 196.983L121.769 197.005L121.672 197.027L121.575 197.048L121.49 197.07L121.393 197.092L121.296 197.113L121.199 197.134L121.102 197.156L121.011 197.177L120.92 197.198L120.823 197.219L120.726 197.24L120.628 197.261L120.531 197.281L120.446 197.302L120.349 197.323L120.252 197.343L120.154 197.363L120.057 197.383L119.965 197.404L119.875 197.424L119.777 197.444L119.68 197.464L119.582 197.483L119.485 197.503L119.399 197.523L119.302 197.542L119.205 197.562L119.107 197.581L119.01 197.6L118.918 197.619L118.827 197.639L118.729 197.657L118.632 197.676L118.534 197.694L118.436 197.713L118.35 197.732L118.253 197.751L118.156 197.769L118.058 197.787L117.96 197.805L117.868 197.823L117.777 197.842L117.679 197.859L117.581 197.877L117.483 197.894L117.385 197.912L117.299 197.93L117.202 197.947L117.104 197.965L117.006 197.982L116.908 197.998L116.816 198.016L116.725 198.033L116.627 198.05L116.528 198.066L116.43 198.083L116.332 198.099L116.246 198.117L116.149 198.133L116.05 198.149L115.952 198.165L115.854 198.181L115.761 198.197L115.67 198.214L115.572 198.229L115.474 198.245L115.375 198.26L115.277 198.275L115.191 198.292L115.093 198.307L114.995 198.322L114.896 198.337L114.798 198.351L114.705 198.367L114.614 198.382L114.515 198.397L114.417 198.411L114.319 198.426L114.22 198.44L114.133 198.455L114.036 198.469L113.937 198.483L113.839 198.497L113.74 198.511L113.647 198.525L113.556 198.54L113.457 198.553L113.359 198.566L113.26 198.58L113.161 198.593L113.074 198.608L112.977 198.621L112.878 198.633L112.779 198.646L112.681 198.659L112.587 198.672L112.496 198.686L112.397 198.698L112.298 198.71L112.2 198.722L112.101 198.734L112.013 198.748L111.916 198.76L111.817 198.772L111.718 198.784L111.619 198.795L111.526 198.807L111.434 198.82L111.335 198.831L111.237 198.843L111.138 198.854L111.039 198.865L110.951 198.877L110.854 198.888L110.755 198.899L110.656 198.91L110.557 198.92L110.463 198.931L110.371 198.943L110.272 198.953L110.173 198.963L110.074 198.973L109.975 198.983L109.888 198.995L109.79 199.005L109.691 199.015L109.592 199.024L109.493 199.034L109.399 199.044L109.307 199.054L109.208 199.064L109.109 199.073L109.01 199.082L108.911 199.091L108.823 199.101L108.725 199.11L108.626 199.119L108.527 199.127L108.428 199.136L108.333 199.145L108.242 199.154L108.142 199.163L108.043 199.17L107.944 199.178L107.845 199.186L107.757 199.196L107.659 199.204L107.56 199.211L107.46 199.219L107.361 199.226L107.267 199.234L107.175 199.243L107.076 199.25L106.977 199.257L106.877 199.264L106.778 199.27L106.69 199.279L106.592 199.286L106.493 199.293L106.393 199.299L106.294 199.305L106.199 199.312L106.108 199.32L106.008 199.326L105.909 199.332L105.81 199.337L105.71 199.343L105.622 199.351L105.524 199.357L105.424 199.362L105.325 199.367L105.226 199.373L105.131 199.379L105.039 199.385L104.94 199.39L104.84 199.395L104.741 199.4L104.642 199.404L104.553 199.411L104.455 199.416L104.356 199.42L104.256 199.424L104.157 199.429L104.062 199.434L103.97 199.439L103.871 199.443L103.771 199.447L103.672 199.451L103.573 199.454L103.484 199.46L103.386 199.464L103.286 199.467L103.187 199.47L103.087 199.473L102.992 199.477L102.901 199.482L102.801 199.485L102.702 199.487L102.602 199.49L102.503 199.492L102.414 199.497L102.316 199.5L102.216 199.502L102.117 199.504L102.018 199.506L101.922 199.509L101.831 199.513L101.731 199.515L101.632 199.516L101.532 199.518L101.433 199.519L101.343 199.523L101.246 199.525L101.146 199.526L101.047 199.527L100.947 199.528L100.852 199.53L100.76 199.533L100.661 199.533L100.561 199.534L100.462 199.534L100.362 199.535L100.273 199.537L100.175 199.538L100.076 199.538L99.9762 199.538L99.8767 199.538L99.7813 199.539L99.6898 199.541L99.5902 199.54L99.4907 199.54L99.3912 199.539L99.2917 199.539L99.2022 199.54L99.1047 199.54L99.0051 199.539L98.9056 199.538L98.8061 199.537L98.7106 199.537L98.6191 199.538L98.5196 199.536L98.4201 199.535L98.3206 199.533L98.221 199.531L98.1315 199.532L98.0341 199.531L97.9345 199.529L97.835 199.527L97.7355 199.524L97.64 199.523L97.5485 199.523L97.449 199.52L97.3495 199.518L97.25 199.515L97.1505 199.512H97.0609L96.9636 199.51L96.8641 199.507L96.7646 199.504L96.6651 199.5L96.5695 199.498L96.4781 199.497L96.3791 199.493L96.2796 199.49L96.1801 199.486L96.0806 199.482L95.991 199.481L95.8937 199.478L95.7942 199.474L95.6948 199.469L95.5954 199.465L95.4996 199.462L95.4084 199.46L95.309 199.455L95.2095 199.45L95.1101 199.446L95.0107 199.441L94.921 199.439L94.8238 199.434L94.7244 199.429L94.625 199.424L94.5256 199.418L94.4299 199.414L94.3387 199.411L94.2393 199.405L94.1399 199.4L94.0406 199.394L93.9412 199.388L93.8514 199.385L93.7544 199.379L93.655 199.373L93.5556 199.367L93.4563 199.36L93.3606 199.355L93.2696 199.351L93.1702 199.344L93.0709 199.337L92.9716 199.33L92.8723 199.323L92.7825 199.32L92.6856 199.313L92.5863 199.306L92.487 199.298L92.3877 199.291L92.2919 199.284L92.201 199.28L92.1017 199.272L92.0024 199.264L91.9032 199.256L91.804 199.248L91.7141 199.243L91.6173 199.235L91.5181 199.227L91.4189 199.219L91.3197 199.21L91.2239 199.203L91.1331 199.197L91.0339 199.188L90.9348 199.179L90.8356 199.17L90.7365 199.161L90.6466 199.155L90.55 199.146L90.4509 199.137L90.3518 199.127L90.2527 199.118L90.1569 199.109L90.0663 199.102L89.9672 199.093L89.8682 199.083L89.7691 199.072L89.6701 199.062L89.5802 199.055L89.4838 199.046L89.3848 199.035L89.2858 199.025L89.1867 199.014L89.091 199.005L89.0005 198.997L88.9015 198.986L88.8026 198.975L88.7036 198.964L88.6046 198.952L88.5147 198.944L88.4185 198.934L88.3196 198.922L88.2207 198.911L88.1218 198.899L88.0261 198.888L87.9357 198.88L87.8369 198.868L87.738 198.856L87.6392 198.843L87.5404 198.831L87.4505 198.822L87.3544 198.811L87.2556 198.798L87.1568 198.785L87.0581 198.772L86.9624 198.761L86.8723 198.751L86.7736 198.738L86.6748 198.725L86.5761 198.712L86.4774 198.698L86.3876 198.688L86.2917 198.676L86.1931 198.662L86.0944 198.648L85.9958 198.635L85.9002 198.622L85.8103 198.611L85.7117 198.597L85.6132 198.583L85.5146 198.568L85.4161 198.554L85.3263 198.543L85.2306 198.53L85.1322 198.515L85.0337 198.5L84.9352 198.485L84.8396 198.471L84.7498 198.46L84.6514 198.445L84.553 198.429L84.4546 198.414L84.3562 198.398L84.2664 198.386L84.171 198.372L84.0726 198.356L83.9743 198.34L83.876 198.324L83.7804 198.309L83.6909 198.297L83.5926 198.28L83.4943 198.264L83.3961 198.248L83.2978 198.231L83.2081 198.218L83.113 198.203L83.0148 198.186L82.9166 198.169L82.8184 198.152L82.723 198.136L82.6337 198.122L82.5356 198.105L82.4375 198.088L82.3394 198.07L82.2414 198.053L82.1517 198.039L82.0568 198.022L81.9588 198.004L81.8609 197.986L81.7629 197.968L81.6676 197.951L81.5784 197.937L81.4806 197.918L81.3827 197.9L81.2848 197.881L81.1869 197.863L81.0974 197.848L81.0027 197.83L80.9049 197.811L80.8071 197.792L80.7094 197.773L80.6142 197.755L80.5253 197.74L80.4275 197.72L80.3298 197.701L80.2322 197.681L80.1345 197.661L80.0451 197.645L79.9507 197.627L79.853 197.607L79.7555 197.587L79.6579 197.566L79.5629 197.547L79.4743 197.531L79.3768 197.511L79.2793 197.49L79.1818 197.469L79.0844 197.449L78.995 197.431L78.9009 197.412L78.8035 197.391L78.7061 197.37L78.6088 197.348L78.5138 197.328L78.4255 197.311L78.3282 197.29L78.2309 197.268L78.1337 197.246L78.0364 197.224L77.9472 197.206L77.8534 197.186L77.7562 197.164L77.6591 197.142L77.562 197.119L77.4672 197.098L77.379 197.08L77.282 197.057L77.185 197.034L77.088 197.012L76.991 196.989L76.9019 196.97L76.8083 196.948L76.7114 196.925L76.6145 196.902L76.5176 196.879L76.423 196.856L76.3352 196.837L76.2384 196.813L76.1415 196.79L76.0447 196.766L75.948 196.742L75.8591 196.722L75.7658 196.699L75.6692 196.675L75.5725 196.651L75.4759 196.627L75.3814 196.603L75.2939 196.583L75.1973 196.558L75.1008 196.534L75.0043 196.509L74.9078 196.484L74.819 196.463L74.7261 196.439L74.6297 196.414L74.5334 196.389L74.437 196.363L74.3427 196.339L74.2554 196.318L74.1591 196.292L74.0629 196.266L73.9666 196.24L73.8704 196.214L73.7818 196.192L73.6892 196.168L73.593 196.142L73.497 196.115L73.4009 196.089L73.3068 196.063L73.2199 196.041L73.1238 196.014L73.0278 195.988L72.9319 195.961L72.836 195.934L72.7475 195.91L72.6553 195.885L72.5594 195.858L72.4635 195.83L72.3678 195.803L72.2739 195.776L72.1873 195.753L72.0916 195.726L71.9959 195.698L71.9002 195.67L71.8046 195.642L71.7163 195.617L71.6244 195.591L71.5289 195.563L71.4333 195.534L71.3378 195.506L71.2442 195.478L71.1579 195.454L71.0625 195.425L70.9672 195.397L70.8718 195.368L70.7765 195.338L70.6884 195.313L70.5968 195.286L70.5016 195.257L70.4064 195.227L70.3112 195.197L70.2178 195.169L70.1319 195.144L70.0368 195.114L69.9417 195.084L69.8466 195.054L69.7516 195.024L69.6638 194.998L69.5726 194.97L69.4776 194.939L69.3827 194.909L69.2878 194.878L69.1947 194.848L69.1091 194.823L69.0143 194.792L68.9196 194.761L68.8248 194.73L68.7301 194.699L68.6425 194.671L68.5517 194.642L68.4571 194.611L68.3626 194.579L68.268 194.547L68.175 194.517L68.0898 194.49L67.9954 194.458L67.901 194.426L67.8066 194.394L67.7122 194.362L67.6248 194.334L67.5344 194.304L67.4402 194.271L67.346 194.238L67.2518 194.206L67.1591 194.174L67.0743 194.147L66.9802 194.114L66.886 194.081L66.7921 194.047L66.6981 194.014L66.6109 193.985L66.5208 193.954L66.427 193.92L66.3331 193.887L66.2393 193.853L66.1469 193.82L66.0624 193.792L65.9687 193.758L65.8749 193.724L65.7812 193.69L65.6876 193.656L65.6007 193.625L65.5111 193.593L65.4176 193.559L65.324 193.524L65.2306 193.489L65.1385 193.455L65.0543 193.426L64.961 193.391L64.8676 193.356L64.7743 193.321L64.681 193.286L64.5944 193.255L64.5052 193.222L64.4121 193.186L64.319 193.151L64.2259 193.115L64.134 193.08L64.0503 193.05L63.9573 193.014L63.8644 192.978L63.7715 192.942L63.6786 192.905L63.5922 192.873L63.5034 192.839L63.4107 192.803L63.318 192.766L63.2252 192.729L63.1338 192.693L63.0505 192.662L62.9578 192.625L62.8653 192.588L62.7727 192.551L62.6803 192.514L62.5942 192.481L62.5059 192.446L62.4134 192.408L62.3211 192.371L62.2288 192.333L62.1376 192.296L62.0548 192.264L61.9626 192.226L61.8704 192.188L61.7783 192.15L61.6862 192.111L61.6004 192.077L61.5125 192.042L61.4206 192.003L61.3286 191.964L61.2367 191.926L61.1459 191.887L61.0634 191.855L60.9717 191.816L60.8798 191.777L60.7882 191.738L60.6965 191.698L60.611 191.663L60.5236 191.626L60.432 191.587L60.3405 191.547L60.2491 191.508L60.1586 191.468L60.0765 191.435L59.9852 191.395L59.8938 191.355L59.8025 191.315L59.7113 191.274L59.6262 191.238L59.5392 191.201L59.4481 191.16L59.357 191.12L59.266 191.079L59.1759 191.039L59.0942 191.004L59.0033 190.963L58.9124 190.922L58.8215 190.881L58.7307 190.84L58.646 190.803L58.5595 190.764L58.4689 190.723L58.3782 190.681L58.2876 190.64L58.1978 190.598L58.1167 190.563L58.0261 190.521L57.9357 190.479L57.8453 190.437L57.7549 190.395L57.6705 190.357L57.5846 190.317L57.4943 190.275L57.4042 190.232L57.314 190.19L57.2246 190.147L57.1439 190.111L57.0539 190.068L56.9639 190.025L56.874 189.982L56.7841 189.939L56.7 189.9L56.6145 189.86L56.5247 189.816L56.435 189.773L56.3453 189.729L56.2563 189.686L56.1762 189.649L56.0865 189.605L55.997 189.561L55.9076 189.517L55.8181 189.473L55.7344 189.433L55.6494 189.392L55.56 189.347L55.4707 189.303L55.3816 189.258L55.293 189.214L55.2132 189.176L55.1241 189.131L55.0351 189.086L54.9461 189.041L54.8571 188.996L54.7737 188.955L54.6893 188.913L54.6005 188.868L54.5117 188.822L54.423 188.776L54.3348 188.731L54.2555 188.693L54.1669 188.647L54.0783 188.601L53.9898 188.555L53.9014 188.509L53.8184 188.467L53.7344 188.424L53.6461 188.378L53.5578 188.331L53.4696 188.285L53.3819 188.238L53.3031 188.199L53.2149 188.152L53.1269 188.105L53.0389 188.058L52.9509 188.011L52.8684 187.968L52.7849 187.925L52.6971 187.877L52.6093 187.83L52.5215 187.783L52.4343 187.735L52.356 187.695L52.2684 187.647L52.1809 187.599L52.0933 187.552L52.0058 187.504L51.9237 187.46L51.8409 187.415L51.7535 187.367L51.6663 187.319L51.579 187.27L51.4921 187.222L51.4144 187.181L51.3273 187.132L51.2403 187.083L51.1533 187.035L51.0664 186.986L50.9846 186.941L50.9023 186.895L50.8155 186.846L50.7287 186.797L50.642 186.747L50.5556 186.698L50.4784 186.656L50.3918 186.607L50.3053 186.557L50.2189 186.507L50.1325 186.457L50.0511 186.412L49.9694 186.365L49.8831 186.315L49.7968 186.265L49.7107 186.215L49.6248 186.165L49.5481 186.122L49.4621 186.071L49.3761 186.021L49.2901 185.97L49.2043 185.919L49.1234 185.873L49.0422 185.826L48.9565 185.774L48.8708 185.723L48.7851 185.672L48.6997 185.621L48.6235 185.578L48.538 185.526L48.4526 185.474L48.3672 185.423L48.2819 185.371L48.2015 185.323L48.1209 185.276L48.0357 185.224L47.9506 185.171L47.8655 185.119L47.7805 185.067L47.7049 185.023L47.62 184.971L47.5351 184.918L47.4503 184.866L47.3655 184.813L47.2856 184.764L47.2055 184.716L47.1209 184.663L47.0363 184.61L46.9518 184.557L46.8674 184.504L46.7923 184.459L46.7079 184.405L46.6236 184.352L46.5394 184.298L46.4552 184.245L46.3757 184.195L46.2962 184.146L46.2121 184.092L46.1281 184.038L46.0442 183.984L45.9603 183.93L45.8857 183.884L45.802 183.83L45.7182 183.776L45.6345 183.721L45.5509 183.667L45.4719 183.617L45.3931 183.566L45.3096 183.512L45.2261 183.457L45.1429 183.402L45.0595 183.347L44.9853 183.3L44.9022 183.245L44.8191 183.19L44.736 183.135L44.653 183.079L44.5744 183.028L44.4962 182.977L44.4133 182.921L44.3304 182.866L44.2477 182.81L44.165 182.754L44.0912 182.707L44.0088 182.651L43.9263 182.595L43.8437 182.538L43.7613 182.482L43.6834 182.43L43.6057 182.378L43.5235 182.321L43.4412 182.265L43.359 182.208L43.277 182.152L43.2037 182.103L43.1219 182.046L43.04 181.989L42.958 181.932L42.8762 181.875L42.7987 181.822L42.7217 181.77L42.6401 181.712L42.5585 181.655L42.4769 181.597L42.3954 181.54L42.3226 181.49L42.2415 181.433L42.1602 181.375L42.0789 181.317L41.9977 181.259L41.9206 181.205L41.8443 181.151L41.7632 181.093L41.6822 181.035L41.6013 180.976L41.5204 180.918L41.4481 180.868L41.3676 180.81L41.2869 180.751L41.2063 180.692L41.1256 180.633L41.0492 180.578L40.9735 180.524L40.893 180.465L40.8126 180.406L40.7323 180.346L40.6521 180.287L40.5803 180.236L40.5006 180.177L40.4204 180.117L40.3404 180.058L40.2605 179.998L40.1845 179.942L40.1095 179.887L40.0297 179.827L39.9499 179.767L39.8703 179.707L39.7907 179.647L39.7193 179.595L39.6403 179.535L39.5609 179.475L39.4815 179.414L39.4022 179.353L39.3267 179.297L39.2523 179.241L39.1732 179.18L39.0941 179.119L39.0151 179.058L38.9361 178.997L38.8653 178.945L38.787 178.884L38.7082 178.823L38.6295 178.761L38.5508 178.7L38.4759 178.642L38.4021 178.586L38.3237 178.524L38.2452 178.462L38.1668 178.401L38.0886 178.339L38.0183 178.285L37.9406 178.224L37.8625 178.161L37.7844 178.099L37.7064 178.037L37.6321 177.979L37.5591 177.921L37.4812 177.859L37.4035 177.796L37.3257 177.734L37.2481 177.671L37.1784 177.616L37.1014 177.554L37.024 177.491L36.9465 177.428L36.8692 177.365L36.7955 177.306L36.7231 177.248L36.6459 177.185L36.5689 177.121L36.4919 177.058L36.4148 176.994L36.3457 176.939L36.2695 176.876L36.1926 176.812L36.1159 176.748L36.0393 176.684L35.9661 176.624L35.8945 176.565L35.8179 176.501L35.7416 176.437L35.6652 176.373L35.5889 176.308L35.5203 176.252L35.4448 176.189L35.3687 176.124L35.2926 176.059L35.2167 175.995L35.1441 175.934L35.0731 175.874L34.9973 175.809L34.9216 175.744L34.8459 175.679L34.7703 175.614L34.7022 175.557L34.6275 175.493L34.5521 175.427L34.4766 175.362L34.4014 175.296L34.3295 175.234L34.2592 175.174L34.1841 175.108L34.1091 175.042L34.034 174.976L33.9592 174.91L33.8917 174.853L33.8177 174.788L33.743 174.721L33.6684 174.655L33.5938 174.589L33.5224 174.526L33.4528 174.465L33.3785 174.399L33.3042 174.332L33.2299 174.265L33.1557 174.198L33.0888 174.14L33.0155 174.074L32.9415 174.007L32.8676 173.94L32.7937 173.873L32.7231 173.809L32.6542 173.748L32.5805 173.68L32.5069 173.613L32.4334 173.545L32.3599 173.478L32.2936 173.419L32.2211 173.352L32.1478 173.284L32.0746 173.216L32.0014 173.148L31.9314 173.084L31.8632 173.022L31.7903 172.954L31.7173 172.885L31.6445 172.817L31.5717 172.749L31.506 172.689L31.4343 172.621L31.3617 172.553L31.2893 172.484L31.2168 172.415L31.1474 172.35L31.08 172.287L31.0078 172.218L30.9356 172.149L30.8636 172.08L30.7915 172.011L30.7264 171.95L30.6555 171.882L30.5836 171.813L30.5119 171.744L30.4402 171.674L30.3715 171.608L30.3047 171.545L30.2332 171.475L30.1618 171.405L30.0905 171.335L30.0192 171.265L29.9546 171.204L29.8845 171.135L29.8134 171.065L29.7423 170.995L29.6714 170.924L29.6034 170.858L29.5374 170.793L29.4667 170.723L29.396 170.652L29.3253 170.582L29.2548 170.511L29.191 170.449L29.1216 170.379L29.0513 170.308L28.981 170.237L28.9108 170.166L28.8434 170.099L28.7782 170.034L28.7082 169.963L28.6383 169.891L28.5685 169.82L28.4987 169.749L28.4354 169.686L28.3668 169.616L28.2973 169.544L28.2278 169.472L28.1583 169.4L28.0916 169.332L28.0272 169.267L27.9579 169.195L27.8888 169.122L27.8197 169.05L27.7507 168.978L27.6881 168.914L27.6203 168.844L27.5514 168.771L27.4827 168.699L27.4141 168.626L27.3481 168.557L27.2844 168.491L27.2159 168.418L27.1475 168.345L27.0792 168.273L27.0109 168.2L26.949 168.135L26.8821 168.064L26.814 167.991L26.746 167.917L26.6781 167.844L26.6128 167.774L26.5499 167.708L26.4822 167.634L26.4146 167.561L26.3471 167.487L26.2796 167.413L26.2183 167.348L26.1522 167.276L26.085 167.202L26.0178 167.128L25.9507 167.054L25.886 166.984L25.8239 166.916L25.7571 166.842L25.6902 166.768L25.6235 166.694L25.5569 166.619L25.4961 166.553L25.4308 166.481L25.3644 166.406L25.298 166.331L25.2317 166.257L25.1679 166.185L25.1064 166.117L25.0404 166.042L24.9744 165.968L24.9084 165.893L24.8425 165.817L24.7826 165.751L24.718 165.677L24.6524 165.602L24.5868 165.527L24.5213 165.451L24.4581 165.379L24.3975 165.311L24.3322 165.235L24.267 165.159L24.2019 165.084L24.1368 165.008L24.0776 164.94L24.0139 164.867L23.9491 164.791L23.8843 164.714L23.8196 164.638L23.7571 164.565L23.6974 164.496L23.6328 164.42L23.5685 164.344L23.5041 164.267L23.4398 164.191L23.3813 164.123L23.3185 164.048L23.2544 163.971L23.1905 163.895L23.1266 163.818L23.0649 163.744L23.0059 163.675L22.9422 163.598L22.8786 163.521L22.8151 163.443L22.7516 163.366L22.6938 163.297L22.6318 163.222L22.5686 163.145L22.5054 163.067L22.4424 162.99L22.3814 162.916L22.3232 162.845L22.2604 162.768L22.1976 162.69L22.1349 162.612L22.0723 162.534L22.0151 162.465L21.9541 162.389L21.8917 162.311L21.8293 162.233L21.7671 162.155L21.7069 162.08L21.6495 162.009L21.5875 161.931L21.5256 161.852L21.4637 161.774L21.402 161.695L21.3455 161.625L21.2852 161.549L21.2237 161.47L21.1622 161.391L21.1008 161.312L21.0414 161.236L20.9848 161.165L20.9236 161.086L20.8626 161.007L20.8015 160.928L20.7406 160.849L20.6849 160.778L20.6254 160.701L20.5648 160.622L20.5042 160.542L20.4436 160.463L20.385 160.386L20.3292 160.314L20.2688 160.235L20.2086 160.155L20.1485 160.075L20.0884 159.995L20.0335 159.924L19.9749 159.846L19.915 159.766L19.8553 159.686L19.7956 159.606L19.7378 159.529L19.6828 159.457L19.6233 159.376L19.564 159.296L19.5047 159.216L19.4454 159.135L19.3912 159.063L19.3336 158.985L19.2745 158.904L19.2156 158.823L19.1568 158.743L19.0997 158.665L19.0456 158.592L18.987 158.511L18.9284 158.43L18.8701 158.349L18.8117 158.268L18.7581 158.195L18.7014 158.116L18.6433 158.035L18.5852 157.954L18.5273 157.872L18.471 157.794L18.4178 157.72L18.36 157.639L18.3023 157.557L18.2448 157.475L18.1873 157.394L18.1346 157.32L18.0788 157.241L18.0215 157.159L17.9642 157.077L17.9072 156.995L17.8517 156.916L17.7993 156.842L17.7425 156.76L17.6857 156.678L17.629 156.595L17.5724 156.513L17.5204 156.439L17.4654 156.359L17.4091 156.277L17.3527 156.194L17.2965 156.112L17.2419 156.032L17.1903 155.957L17.1344 155.874L17.0785 155.792L17.0226 155.709L16.9669 155.626L16.9157 155.551L16.8616 155.471L16.8062 155.388L16.7508 155.304L16.6954 155.221L16.6417 155.141L16.5909 155.066L16.5358 154.982L16.4809 154.899L16.4259 154.816L16.3711 154.732L16.3207 154.657L16.2675 154.576L16.2129 154.492L16.1584 154.408L16.1039 154.325L16.051 154.243L16.0011 154.168L15.9469 154.084L15.8928 154L15.8388 153.916L15.7848 153.832L15.7352 153.756L15.683 153.674L15.6292 153.59L15.5757 153.506L15.5221 153.422L15.47 153.34L15.421 153.264L15.3677 153.179L15.3145 153.095L15.2614 153.01L15.2083 152.925L15.1595 152.849L15.1082 152.767L15.0553 152.682L15.0027 152.597L14.9501 152.512L14.8987 152.43L14.8507 152.353L14.7983 152.268L14.7459 152.183L14.6938 152.098L14.6417 152.013L14.5935 151.935L14.5432 151.853L14.4913 151.768L14.4395 151.682L14.3879 151.597L14.3374 151.514L14.2902 151.437L14.2387 151.351L14.1873 151.265L14.136 151.18L14.0848 151.094L14.0375 151.016L13.9881 150.933L13.9372 150.847L13.8862 150.761L13.8355 150.675L13.7859 150.592L13.7395 150.514L13.6891 150.428L13.6386 150.342L13.5881 150.256L13.5379 150.169L13.4915 150.091L13.4429 150.008L13.393 149.921L13.343 149.835L13.2931 149.748L13.2444 149.664L13.1989 149.586L13.1494 149.499L13.0998 149.412L13.0504 149.326L13.0011 149.239L12.9554 149.16L12.9078 149.076L12.8587 148.989L12.8097 148.902L12.7608 148.815L12.713 148.73L12.6684 148.652L12.6197 148.564L12.5712 148.477L12.5226 148.39L12.4742 148.302L12.4295 148.223L12.3828 148.139L12.3346 148.051L12.2866 147.963L12.2386 147.876L12.1917 147.79L12.148 147.712L12.1002 147.624L12.0526 147.536L12.005 147.448L11.9575 147.36L11.9136 147.28L11.8679 147.196L11.8206 147.108L11.7736 147.019L11.7265 146.931L11.6805 146.845L11.6377 146.766L11.5909 146.678L11.5442 146.59L11.4976 146.501L11.451 146.413L11.408 146.332L11.3632 146.247L11.3169 146.159L11.2708 146.07L11.2247 145.981L11.1795 145.895L11.1377 145.815L11.0918 145.726L11.046 145.638L11.0005 145.549L10.9549 145.46L10.9126 145.378L10.8688 145.293L10.8235 145.204L10.7783 145.115L10.7332 145.026L10.6889 144.939L10.6479 144.859L10.6031 144.769L10.5583 144.68L10.5136 144.591L10.469 144.501L10.4276 144.42L10.3848 144.334L10.3404 144.244L10.2961 144.155L10.252 144.065L10.2087 143.977L10.1686 143.897L10.1247 143.807L10.0809 143.718L10.0372 143.628L9.99357 143.538L9.95304 143.456L9.91113 143.369L9.86781 143.279L9.82449 143.189L9.78132 143.099L9.73892 143.011L9.69969 142.93L9.65679 142.84L9.61397 142.75L9.57117 142.66L9.52857 142.569L9.4889 142.486L9.44792 142.4L9.40559 142.309L9.36326 142.219L9.32102 142.128L9.27962 142.039L9.2413 141.959L9.19931 141.868L9.1575 141.777L9.1157 141.686L9.07403 141.595L9.03531 141.512L8.99531 141.425L8.9539 141.334L8.91262 141.243L8.87133 141.152L8.83087 141.063L8.79352 140.982L8.75248 140.891L8.71168 140.8L8.67088 140.708L8.63014 140.617L8.59234 140.533L8.55334 140.446L8.51288 140.355L8.47259 140.263L8.43229 140.172L8.39273 140.082L8.35633 140L8.31631 139.909L8.27643 139.817L8.23663 139.725L8.19687 139.634L8.15994 139.549L8.12194 139.462L8.08242 139.37L8.04315 139.278L8.00389 139.186L7.96521 139.096L7.92975 139.014L7.89075 138.922L7.85182 138.83L7.81306 138.738L7.77432 138.646L7.73822 138.561L7.70124 138.473L7.66275 138.381L7.62442 138.289L7.58617 138.196L7.54846 138.105L7.5139 138.023L7.47593 137.931L7.43795 137.838L7.40021 137.746L7.3625 137.653L7.32727 137.568L7.29129 137.48L7.25382 137.387L7.21644 137.294L7.17921 137.202L7.14249 137.11L7.10884 137.028L7.07189 136.935L7.03493 136.842L6.99813 136.749L6.96145 136.656L6.92715 136.571L6.89213 136.482L6.85571 136.389L6.8193 136.296L6.78307 136.203L6.74734 136.111L6.71457 136.028L6.67866 135.935L6.64276 135.842L6.60692 135.748L6.57125 135.655L6.53789 135.569L6.50382 135.48L6.46844 135.387L6.43305 135.293L6.39782 135.2L6.3631 135.107L6.33127 135.024L6.29632 134.931L6.26147 134.837L6.22662 134.743L6.19197 134.65L6.15957 134.563L6.12642 134.474L6.09207 134.38L6.05773 134.286L6.02347 134.192L5.98974 134.1L5.95889 134.016L5.92491 133.922L5.89107 133.828L5.85727 133.734L5.82359 133.64L5.79215 133.553L5.76004 133.464L5.72666 133.37L5.69335 133.275L5.66008 133.181L5.62733 133.088L5.59747 133.004L5.56446 132.91L5.53169 132.816L5.49892 132.721L5.4662 132.627L5.43571 132.539L5.40462 132.449L5.37221 132.355L5.33999 132.26L5.30777 132.166L5.27594 132.072L5.24704 131.988L5.21508 131.894L5.1833 131.799L5.15158 131.704L5.1199 131.609L5.09035 131.521L5.06027 131.432L5.02883 131.337L4.99766 131.242L4.96649 131.147L4.93563 131.053L4.9077 130.969L4.87679 130.874L4.84597 130.779L4.81532 130.683L4.78469 130.588L4.75603 130.5L4.727 130.41L4.69662 130.315L4.66641 130.219L4.6363 130.124L4.60643 130.03L4.57945 129.945L4.54959 129.85L4.51976 129.755L4.49016 129.659L4.46058 129.564L4.43282 129.475L4.40482 129.385L4.37551 129.289L4.34629 129.193L4.31722 129.098L4.28839 129.003L4.26231 128.919L4.23353 128.823L4.20475 128.727L4.17616 128.631L4.14765 128.536L4.1208 128.446L4.0938 128.356L4.06556 128.26L4.03734 128.164L4.00935 128.068L3.98156 127.973L3.95637 127.888L3.92864 127.792L3.90093 127.696L3.87333 127.6L3.84588 127.504L3.82004 127.415L3.794 127.324L3.76681 127.228L3.73963 127.131L3.71264 127.035L3.68589 126.94L3.66165 126.855L3.63496 126.759L3.60831 126.662L3.5817 126.566L3.55532 126.469L3.53047 126.38L3.5054 126.289L3.47929 126.192L3.45319 126.096L3.42719 125.999L3.40148 125.903L3.37823 125.818L3.35253 125.722L3.32698 125.625L3.30142 125.528L3.27603 125.432L3.25218 125.341L3.2281 125.25L3.20304 125.154L3.17801 125.057L3.15301 124.96L3.12835 124.864L3.10607 124.778L3.08138 124.682L3.05689 124.585L3.03241 124.488L3.00804 124.391L2.98518 124.3L2.96213 124.209L2.93807 124.112L2.91412 124.015L2.89019 123.918L2.86652 123.821L2.84524 123.736L2.82158 123.639L2.79813 123.542L2.77472 123.444L2.75136 123.347L2.72951 123.256L2.70751 123.165L2.68444 123.068L2.66157 122.97L2.63871 122.873L2.61602 122.776L2.59573 122.691L2.57315 122.593L2.55071 122.496L2.52838 122.398L2.50607 122.301L2.48516 122.21L2.46421 122.118L2.44216 122.021L2.42037 121.923L2.39859 121.825L2.37688 121.728L2.35758 121.643L2.33607 121.545L2.31464 121.447L2.2934 121.35L2.27218 121.252L2.2522 121.161L2.23228 121.069L2.21132 120.971L2.19053 120.873L2.16983 120.775L2.14918 120.678L2.13081 120.592L2.11038 120.494L2.08996 120.396L2.0698 120.298L2.04966 120.2L2.03062 120.109L2.01175 120.017L1.99187 119.919L1.97208 119.821L1.95247 119.723L1.9329 119.625L1.91544 119.539L1.89611 119.441L1.87677 119.343L1.85761 119.245L1.83856 119.147L1.82051 119.055L1.80263 118.963L1.78386 118.864L1.76508 118.766L1.74654 118.668L1.72805 118.57L1.7115 118.484L1.69325 118.386L1.67501 118.287L1.65687 118.189L1.63889 118.091L1.62186 117.998L1.60496 117.906L1.58726 117.808L1.56957 117.709L1.55205 117.611L1.53464 117.513L1.51903 117.426L1.50182 117.328L1.48468 117.229L1.46754 117.131L1.45065 117.032L1.43466 116.94L1.41872 116.848L1.40211 116.749L1.3855 116.65L1.36901 116.552L1.35268 116.453L1.33804 116.367L1.32185 116.268L1.3058 116.17L1.28976 116.071L1.27388 115.972L1.25891 115.88L1.24399 115.787L1.22842 115.688L1.21291 115.59L1.19742 115.491L1.18218 115.392L1.16852 115.305L1.15335 115.207L1.1384 115.108L1.12345 115.009L1.10857 114.91L1.09463 114.817L1.08075 114.725L1.0662 114.626L1.05179 114.527L1.0374 114.428L1.02316 114.329L1.01046 114.242L0.996371 114.144L0.98246 114.045L0.968595 113.946L0.954756 113.847L0.941836 113.753L0.928994 113.661L0.915445 113.562L0.902135 113.463L0.888835 113.364L0.875609 113.265L0.863892 113.177L0.850911 113.079L0.838001 112.98L0.825227 112.88L0.812492 112.781L0.80052 112.688L0.788725 112.595L0.776235 112.496L0.763969 112.397L0.751759 112.298L0.739555 112.198L0.728808 112.111L0.716927 112.012L0.705031 111.913L0.693358 111.814L0.681706 111.714L0.670683 111.621L0.659933 111.528L0.648543 111.429L0.637291 111.33L0.626173 111.23L0.615063 111.131L0.605213 111.043L0.594427 110.944L0.583592 110.845L0.572967 110.746L0.562413 110.646L0.552347 110.552L0.542624 110.46L0.532338 110.36L0.522092 110.261L0.512066 110.161L0.502064 110.062L0.493109 109.974L0.483412 109.875L0.473669 109.776L0.464059 109.676L0.454597 109.577L0.445574 109.483L0.436804 109.39L0.427615 109.291L0.418436 109.191L0.409441 109.092L0.400541 108.992L0.392503 108.904L0.383883 108.805L0.375233 108.706L0.366631 108.606L0.358263 108.506L0.350281 108.412L0.342462 108.32L0.334375 108.22L0.326288 108.12L0.318299 108.021L0.310495 107.921L0.303444 107.833L0.295826 107.734L0.288277 107.634L0.280753 107.535L0.273404 107.435L0.266463 107.341L0.259628 107.248L0.2526 107.148L0.245606 107.048L0.238632 106.949L0.23192 106.849L0.225851 106.761L0.219232 106.662L0.212784 106.562L0.206354 106.462L0.200006 106.363L0.194115 106.268L0.188319 106.175L0.182288 106.076L0.176386 105.976L0.170509 105.876L0.164801 105.776L0.159724 105.688L0.15415 105.589L0.14875 105.489L0.143412 105.389L0.138074 105.289L0.133219 105.195L0.12846 105.102L0.123428 105.002L0.118618 104.903L0.113839 104.803L0.109128 104.703L0.105039 104.614L0.100551 104.516L0.0961584 104.416L0.0919122 104.316L0.0876652 104.216L0.0837597 104.121L0.0800351 104.028L0.0760708 103.929L0.072285 103.829L0.0686022 103.729L0.0649183 103.629L0.0617842 103.54L0.058387 103.441L0.0549886 103.342L0.0518331 103.242L0.0486866 103.142L0.0457273 103.047L0.0430301 102.954L0.0401564 102.854L0.0373698 102.754L0.0347773 102.654L0.0321849 102.554L0.0299433 102.466L0.0276347 102.367L0.0253225 102.267L0.0231601 102.167L0.0211109 102.067L0.0191573 101.972L0.0174268 101.88L0.0156423 101.78L0.0138759 101.68L0.012347 101.58L0.0108437 101.48L0.00949204 101.391L0.00826913 101.292L0.00704701 101.192L0.00586958 101.092L0.00491601 100.992L0.00400798 100.897L0.00319815 100.805L0.00250199 100.705L0.00183162 100.605L0.00128692 100.505L0.0008714 100.405L0.000501755 100.316L0.000264765 100.218L0.000127319 100.118L0 100.018L6.6982e-05 99.9176L0.000183165 99.8224L0.000362941 99.7301L0.000732921 99.6301L0.001122 99.5301L0.00160021 99.4302L0.00226183 99.3302L0.00286041 99.2412L0.00363139 99.1427L0.00455899 99.0427L0.0055124 98.9427L0.00659616 98.8428L0.00776411 98.7476L0.00890253 98.6553L0.0102861 98.5553L0.0117874 98.4554L0.0132896 98.3554L0.0149803 98.2554L0.0165998 98.1664L0.0183643 98.068L0.0203297 97.9681L0.0224062 97.868L0.0244816 97.7681L0.0266676 97.6728L0.0288561 97.5807L0.0312185 97.4807L0.0337868 97.3808L0.0364191 97.2808L0.0390686 97.1809L0.0416832 97.0918L0.0445459 96.9935L0.047468 96.8936L0.0506464 96.7936L0.0538353 96.6937L0.0569287 96.5983L0.0601687 96.5063L0.063645 96.4064L0.0671484 96.3065L0.0709082 96.2066L0.0746716 96.1067L0.0781348 96.0175L0.0820966 95.9193L0.0861489 95.8194L0.0902637 95.7195L0.0945735 95.6196L0.0987416 95.5242L0.10286 95.4324L0.107453 95.3324L0.112056 95.2325L0.116784 95.1327L0.121662 95.0328L0.126109 94.9436L0.131052 94.8456L0.13622 94.7457L0.141385 94.6458L0.146716 94.546L0.151965 94.4506L0.157044 94.3588L0.162658 94.259L0.168392 94.1592L0.174135 94.0593L0.180058 93.9595L0.185534 93.8704L0.191464 93.7724L0.197694 93.6727L0.203978 93.5729L0.210297 93.473L0.216599 93.3776L0.222718 93.286L0.229296 93.1863L0.236144 93.0865L0.242999 92.9868L0.249885 92.887L0.256392 92.7978L0.263415 92.7001L0.270593 92.6003L0.278008 92.5006L0.28544 92.4009L0.292658 92.3055L0.299824 92.214L0.307532 92.1143L0.315328 92.0146L0.3233 91.9149L0.331301 91.8153L0.338687 91.7261L0.346809 91.6284L0.355068 91.5288L0.363483 91.4292L0.372027 91.3296L0.380278 91.2341L0.388374 91.1428L0.397207 91.0432L0.406045 90.9436L0.415057 90.844L0.424177 90.7445L0.432495 90.6552L0.441641 90.5578L0.451031 90.4583L0.460443 90.3587L0.47006 90.2592L0.479407 90.1638L0.488402 90.0727L0.498331 89.9732L0.508278 89.8737L0.51826 89.7742L0.528496 89.6748L0.537849 89.5856L0.547925 89.4883L0.558445 89.3889L0.568966 89.2895L0.579547 89.19L0.589992 89.0946L0.600025 89.0037L0.610911 88.9043L0.621985 88.8049L0.63308 88.7056L0.644277 88.6062L0.654666 88.5171L0.665818 88.42L0.677325 88.3206L0.68896 88.2214L0.700616 88.1221L0.712043 88.0267L0.723109 87.936L0.735037 87.8366L0.747158 87.7374L0.759366 87.6382L0.771574 87.539L0.782948 87.4499L0.795192 87.353L0.807687 87.2538L0.820415 87.1546L0.833197 87.0555L0.845563 86.9601L0.857661 86.8696L0.870704 86.7704L0.883793 86.6713L0.89712 86.5722L0.910456 86.4731L0.922716 86.384L0.936043 86.2874L0.949649 86.1884L0.963346 86.0893L0.977238 85.9903L0.9907 85.895L1.00367 85.8047L1.01784 85.7057L1.03202 85.6068L1.04633 85.5078L1.06079 85.4089L1.07404 85.3198L1.08835 85.2234L1.10307 85.1245L1.11782 85.0257L1.13274 84.9268L1.14729 84.8316L1.1612 84.7415L1.17644 84.6427L1.19173 84.5439L1.20703 84.4451L1.22258 84.3463L1.23686 84.2574L1.25209 84.1612L1.26795 84.0625L1.28381 83.9638L1.2997 83.865L1.31535 83.7699L1.33028 83.6801L1.34648 83.5814L1.36288 83.4828L1.37931 83.3841L1.39582 83.2856L1.41114 83.1967L1.42745 83.1008L1.44427 83.0023L1.46124 82.9037L1.47822 82.8052L1.49484 82.7102L1.51079 82.6206L1.52805 82.5221L1.54547 82.4237L1.56301 82.3253L1.58055 82.2268L1.59685 82.138L1.61424 82.0424L1.63206 81.944L1.6501 81.8457L1.6682 81.7474L1.68578 81.6524L1.70275 81.5631L1.7211 81.4648L1.73951 81.3665L1.75815 81.2683L1.7768 81.1701L1.79398 81.0814L1.81247 80.986L1.83139 80.8879L1.85039 80.7897L1.8696 80.6916L1.88827 80.5968L1.9061 80.5078L1.92557 80.4097L1.94508 80.3116L1.9647 80.2136L1.98446 80.1156L2.00264 80.027L2.02208 79.932L2.04211 79.834L2.06217 79.736L2.08241 79.6381L2.10217 79.5435L2.12091 79.4547L2.14146 79.3568L2.16206 79.259L2.18265 79.1612L2.20353 79.0634L2.22274 78.975L2.2431 78.8802L2.26424 78.7825L2.2854 78.6848L2.3066 78.5871L2.32746 78.4925L2.34721 78.404L2.36873 78.3064L2.39042 78.2088L2.41214 78.1112L2.43396 78.0136L2.45421 77.9254L2.47563 77.8308L2.49775 77.7333L2.52001 77.6359L2.54227 77.5384L2.56412 77.4441L2.58488 77.3559L2.60743 77.2584L2.63016 77.1611L2.65298 77.0638L2.6758 76.9664L2.69704 76.8783L2.7195 76.7841L2.74261 76.6869L2.76596 76.5896L2.78933 76.4924L2.81213 76.3982L2.83389 76.3104L2.85752 76.2133L2.88122 76.1161L2.90514 76.019L2.92906 75.922L2.9512 75.834L2.97473 75.7402L2.99892 75.6432L3.02322 75.5462L3.04769 75.4493L3.07157 75.3552L3.09421 75.2677L3.11893 75.1708L3.14369 75.074L3.16861 74.9771L3.19362 74.8803L3.21673 74.7924L3.24125 74.699L3.26653 74.6023L3.29183 74.5056L3.31736 74.4089L3.34231 74.3151L3.36582 74.2278L3.39165 74.1312L3.41749 74.0347L3.44336 73.9381L3.46948 73.8416L3.49361 73.754L3.51903 73.6608L3.54542 73.5644L3.57182 73.4679L3.5983 73.3715L3.62433 73.2779L3.64881 73.191L3.67561 73.0947L3.70255 72.9984L3.72949 72.9022L3.75659 72.8059L3.78174 72.7185L3.80815 72.6257L3.83554 72.5296L3.86302 72.4335L3.89052 72.3373L3.91759 72.2439L3.94306 72.1574L3.97082 72.0614L3.99881 71.9654L4.02684 71.8695L4.0549 71.7735L4.08107 71.6863L4.1085 71.5939L4.13687 71.498L4.16543 71.4022L4.19399 71.3064L4.22202 71.2132L4.24849 71.127L4.27733 71.0313L4.30627 70.9357L4.33538 70.84L4.36449 70.7444L4.39159 70.6574L4.42007 70.5653L4.44947 70.4698L4.47902 70.3743L4.50867 70.2788L4.53769 70.1859L4.56505 70.1001L4.59496 70.0047L4.62491 69.9093L4.65507 69.814L4.68526 69.7187L4.71325 69.6319L4.74275 69.5403L4.77321 69.4451L4.80372 69.3499L4.83446 69.2548L4.86456 69.162L4.89276 69.0766L4.92375 68.9816L4.95476 68.8866L4.98587 68.7916L5.01716 68.6966L5.04615 68.61L5.07654 68.5188L5.10807 68.424L5.13963 68.3291L5.17134 68.2343L5.20252 68.1418L5.23162 68.0568L5.26363 67.9621L5.29571 67.8674L5.32779 67.7727L5.3601 67.6781L5.39011 67.5918L5.42141 67.501L5.454 67.4065L5.48663 67.312L5.51928 67.2175L5.55152 67.1253L5.58158 67.0407L5.61454 66.9463L5.64768 66.852L5.68084 66.7577L5.71409 66.6635L5.74511 66.5774L5.7774 66.4871L5.81094 66.3929L5.84464 66.2987L5.87831 66.2047L5.91152 66.1127L5.94253 66.0286L5.97649 65.9346L6.01061 65.8406L6.04485 65.7467L6.07908 65.6527L6.11107 65.567L6.14437 65.477L6.17886 65.3832L6.21358 65.2895L6.24835 65.1957L6.2825 65.1041L6.31446 65.0203L6.34947 64.9267L6.38453 64.8331L6.41981 64.7396L6.45508 64.6461L6.48798 64.5605L6.52227 64.4711L6.55781 64.3777L6.59346 64.2843L6.62927 64.191L6.66447 64.0996L6.69727 64.0163L6.73334 63.923L6.76943 63.8298L6.80567 63.7367L6.842 63.6436L6.87581 63.5583L6.91105 63.4693L6.94766 63.3763L6.98427 63.2832L7.0211 63.1903L7.05735 63.0993L7.09095 63.0164L7.12806 62.9236L7.1652 62.8308L7.20237 62.738L7.23976 62.6453L7.27457 62.5604L7.31066 62.4718L7.34829 62.3792L7.38595 62.2866L7.42373 62.194L7.46102 62.1034L7.49553 62.021L7.53358 61.9285L7.57175 61.8362L7.60992 61.7438L7.64829 61.6515L7.6841 61.5668L7.7211 61.4788L7.75972 61.3866L7.79842 61.2944L7.83712 61.2023L7.87545 61.1119L7.9109 61.0299L7.94987 60.9379L7.98907 60.846L8.02829 60.754L8.06754 60.6621L8.10434 60.5779L8.14234 60.4902L8.18189 60.3984L8.22161 60.3067L8.26134 60.215L8.30061 60.125L8.33697 60.0435L8.37696 59.9519L8.41709 59.8603L8.45735 59.7689L8.49761 59.6774L8.5353 59.5935L8.57424 59.5064L8.61477 59.415L8.65548 59.3237L8.69625 59.2324L8.73646 59.1427L8.7737 59.0617L8.81472 58.9706L8.85576 58.8795L8.89702 58.7885L8.93833 58.6974L8.9769 58.6137L9.01681 58.5272L9.05835 58.4363L9.09994 58.3454L9.14174 58.2546L9.18302 58.1653L9.22103 58.0847L9.26307 57.9941L9.30513 57.9034L9.3473 57.8128L9.38961 57.7223L9.42915 57.639L9.46993 57.5529L9.51248 57.4624L9.55506 57.372L9.5978 57.2817L9.64008 57.1928L9.67891 57.1127L9.72195 57.0225L9.76503 56.9323L9.8081 56.8421L9.85143 56.7521L9.89194 56.6692L9.93351 56.5836L9.9771 56.4936L10.0207 56.4037L10.0643 56.3138L10.1076 56.2253L10.1474 56.1458L10.1913 56.056L10.2354 55.9663L10.2795 55.8766L10.3237 55.7869L10.3652 55.7044L10.4077 55.6194L10.4522 55.5299L10.4968 55.4405L10.5414 55.351L10.5856 55.2629L10.6262 55.1839L10.6711 55.0946L10.7161 55.0054L10.7612 54.9162L10.8063 54.8271L10.8488 54.7449L10.8922 54.6604L10.9376 54.5714L10.9832 54.4825L11.0288 54.3935L11.074 54.3058L11.1155 54.2273L11.1613 54.1385L11.2072 54.0498L11.2533 53.9611L11.2994 53.8725L11.3427 53.7907L11.3871 53.7068L11.4335 53.6182L11.4799 53.5298L11.5265 53.4414L11.5727 53.3541L11.615 53.2761L11.6618 53.1879L11.7087 53.0996L11.7557 53.0114L11.8028 52.9233L11.847 52.8419L11.8922 52.7586L11.9396 52.6706L11.9869 52.5826L12.0345 52.4947L12.0817 52.4078L12.1247 52.3304L12.1725 52.2426L12.2204 52.1549L12.2683 52.0672L12.3164 51.9796L12.3615 51.8986L12.4076 51.8159L12.4559 51.7284L12.5042 51.6409L12.5527 51.5535L12.6008 51.4671L12.6447 51.3902L12.6934 51.303L12.7423 51.2158L12.7911 51.1286L12.8401 51.0416L12.8862 50.9611L12.9331 50.8788L12.9823 50.7918L13.0316 50.7049L13.081 50.618L13.1301 50.5321L13.1748 50.4558L13.2244 50.3691L13.2742 50.2824L13.324 50.1958L13.3739 50.1092L13.4209 50.0291L13.4687 49.9475L13.5188 49.8611L13.5691 49.7747L13.6194 49.6883L13.6695 49.6028L13.715 49.5271L13.7655 49.441L13.8162 49.3548L13.867 49.2688L13.9178 49.1827L13.9656 49.1031L14.0143 49.0221L14.0653 48.9362L14.1165 48.8504L14.1678 48.7646L14.2188 48.6795L14.2651 48.6044L14.3166 48.5187L14.3681 48.4331L14.4199 48.3476L14.4716 48.2622L14.5203 48.1829L14.5699 48.1025L14.6219 48.0172L14.6739 47.9319L14.7261 47.8467L14.7781 47.7621L14.8251 47.6876L14.8776 47.6025L14.9301 47.5175L14.9826 47.4325L15.0353 47.3476L15.085 47.2689L15.1353 47.1891L15.1882 47.1043L15.2412 47.0196L15.2943 46.935L15.3472 46.8509L15.395 46.7769L15.4484 46.6925L15.5018 46.6081L15.5552 46.5236L15.6089 46.4393L15.6594 46.361L15.7105 46.2818L15.7644 46.1977L15.8182 46.1135L15.8722 46.0294L15.9261 45.9459L15.9747 45.8725L16.0289 45.7886L16.0833 45.7047L16.1376 45.6209L16.1921 45.5371L16.2436 45.4594L16.2955 45.3808L16.3502 45.2972L16.4051 45.2137L16.4599 45.1302L16.5147 45.0471L16.5641 44.9744L16.6192 44.891L16.6744 44.8078L16.7297 44.7246L16.785 44.6414L16.8374 44.5641L16.8901 44.4862L16.9457 44.4031L17.0015 44.3202L17.0572 44.2374L17.1129 44.1548L17.1631 44.0827L17.2191 44L17.2752 43.9172L17.3314 43.8346L17.3876 43.752L17.4408 43.6753L17.4944 43.598L17.5509 43.5156L17.6075 43.4333L17.6642 43.351L17.7207 43.2689L17.7717 43.1975L17.8286 43.1154L17.8855 43.0332L17.9426 42.9513L17.9998 42.8693L18.0538 42.793L18.1082 42.7164L18.1655 42.6346L18.2229 42.5529L18.2805 42.4712L18.3381 42.3898L18.3897 42.3188L18.4475 42.2374L18.5053 42.1559L18.5632 42.0745L18.6213 41.9932L18.6762 41.9174L18.7313 41.8415L18.7896 41.7603L18.8479 41.6792L18.9063 41.5981L18.9648 41.5173L19.0171 41.447L19.0758 41.3661L19.1345 41.2853L19.1933 41.2045L19.2522 41.1238L19.308 41.0486L19.3638 40.9733L19.423 40.8928L19.4822 40.8123L19.5414 40.7318L19.6008 40.6515L19.6539 40.582L19.7134 40.5017L19.773 40.4215L19.8327 40.3413L19.8924 40.2612L19.9491 40.1866L20.0057 40.112L20.0657 40.0321L20.1258 39.9523L20.1859 39.8725L20.2461 39.7928L20.3 39.7238L20.3603 39.6442L20.4207 39.5647L20.4812 39.4852L20.5418 39.4057L20.5993 39.3316L20.6568 39.2577L20.7176 39.1785L20.7785 39.0993L20.8395 39.0202L20.9005 38.9411L20.9552 38.8726L21.0164 38.7937L21.0776 38.7148L21.139 38.636L21.2004 38.5572L21.2587 38.4837L21.3169 38.4105L21.3786 38.3319L21.4403 38.2533L21.5022 38.1749L21.5641 38.0965L21.6195 38.0285L21.6815 37.9504L21.7435 37.8722L21.8058 37.794L21.8681 37.7159L21.9272 37.6429L21.9861 37.5704L22.0487 37.4925L22.1112 37.4146L22.1739 37.3368L22.2366 37.2591L22.2928 37.1916L22.3556 37.1142L22.4186 37.0367L22.4815 36.9592L22.5447 36.8818L22.6047 36.8093L22.6643 36.7375L22.7277 36.6603L22.7911 36.5831L22.8545 36.5059L22.9182 36.4289L22.9752 36.362L23.0386 36.2854L23.1025 36.2085L23.1663 36.1317L23.2302 36.0549L23.291 35.9831L23.3514 35.912L23.4156 35.8354L23.4798 35.759L23.5441 35.6825L23.6085 35.6061L23.6663 35.5399L23.7305 35.4639L23.7952 35.3877L23.8598 35.3116L23.9245 35.2355L23.9862 35.1643L24.0473 35.094L24.1122 35.0181L24.1773 34.9423L24.2424 34.8666L24.3076 34.7908L24.3662 34.7251L24.4312 34.65L24.4965 34.5745L24.5621 34.4991L24.6276 34.4237L24.6901 34.3531L24.7519 34.2835L24.8176 34.2083L24.8835 34.1332L24.9494 34.0582L25.0154 33.9831L25.0747 33.918L25.1405 33.8437L25.2067 33.7688L25.273 33.6942L25.3394 33.6195L25.4025 33.5494L25.4651 33.4806L25.5317 33.4061L25.5983 33.3317L25.6651 33.2574L25.7318 33.1831L25.7918 33.1186L25.8584 33.045L25.9254 32.9709L25.9925 32.8969L26.0597 32.823L26.1237 32.7536L26.1868 32.6855L26.2542 32.6117L26.3217 32.538L26.3892 32.4644L26.4568 32.3909L26.5176 32.3269L26.5848 32.2541L26.6526 32.1808L26.7205 32.1074L26.7884 32.0342L26.8533 31.9655L26.9171 31.8981L26.9853 31.8251L27.0535 31.7521L27.1217 31.6792L27.1901 31.6064L27.2517 31.543L27.3196 31.471L27.3882 31.3984L27.4569 31.3259L27.5255 31.2534L27.5912 31.1852L27.6558 31.1186L27.7247 31.0464L27.7937 30.9742L27.8627 30.902L27.9318 30.8299L27.9942 30.7672L28.0628 30.6959L28.1322 30.6241L28.2016 30.5523L28.271 30.4805L28.3374 30.413L28.4027 30.3472L28.4724 30.2756L28.5421 30.2042L28.612 30.1328L28.6818 30.0614L28.7449 29.9993L28.8143 29.9289L28.8843 29.8577L28.9546 29.7867L29.0248 29.7157L29.0919 29.6488L29.1579 29.5838L29.2283 29.513L29.2987 29.4423L29.3694 29.3716L29.44 29.301L29.5038 29.2395L29.5739 29.17L29.6447 29.0996L29.7156 29.0293L29.7866 28.959L29.8545 28.8928L29.9211 28.8286L29.9923 28.7585L30.0635 28.6885L30.1349 28.6187L30.2063 28.5489L30.2707 28.4879L30.3416 28.4192L30.4131 28.3496L30.4848 28.28L30.5565 28.2106L30.6252 28.1451L30.6924 28.0816L30.7644 28.0123L30.8363 27.9431L30.9084 27.874L30.9806 27.805L31.0457 27.7447L31.1172 27.6768L31.1896 27.6079L31.2619 27.5391L31.3344 27.4704L31.4039 27.4056L31.4716 27.3429L31.5443 27.2744L31.6171 27.206L31.6899 27.1376L31.7628 27.0694L31.8286 27.0098L31.9007 26.9427L31.9738 26.8747L32.0469 26.8067L32.1201 26.7387L32.1904 26.6746L32.2588 26.6127L32.3321 26.545L32.4056 26.4774L32.4791 26.4098L32.5528 26.3423L32.6194 26.2834L32.6921 26.2171L32.7659 26.1498L32.8398 26.0827L32.9137 26.0155L32.9846 25.9521L33.0537 25.891L33.1278 25.824L33.202 25.7572L33.2762 25.6904L33.3505 25.6237L33.4178 25.5655L33.4913 25.5001L33.5657 25.4335L33.6403 25.3672L33.7149 25.3008L33.7866 25.2381L33.8563 25.1779L33.9311 25.1117L34.006 25.0456L34.0809 24.9797L34.1559 24.9138L34.2239 24.8562L34.298 24.7916L34.3732 24.7259L34.4485 24.6603L34.5238 24.5948L34.5962 24.5328L34.6664 24.4734L34.742 24.4081L34.8175 24.3428L34.8932 24.2777L34.9689 24.2125L35.0375 24.1556L35.1122 24.092L35.1881 24.0271L35.264 23.9622L35.3401 23.8976L35.4132 23.8363L35.484 23.7776L35.5603 23.7132L35.6365 23.6487L35.7128 23.5844L35.7893 23.5201L35.8585 23.4639L35.9339 23.401L36.0105 23.337L36.0871 23.273L36.1639 23.2091L36.2377 23.1486L36.309 23.0908L36.386 23.0271L36.4629 22.9635L36.5399 22.9L36.617 22.8366L36.687 22.7811L36.7629 22.7191L36.8402 22.6559L36.9175 22.5927L36.9949 22.5296L37.0694 22.4698L37.1414 22.4129L37.2189 22.35L37.2966 22.2873L37.3743 22.2245L37.452 22.1619L37.5227 22.1071L37.5992 22.0461L37.6771 21.9837L37.7551 21.9214L37.8332 21.8591L37.9084 21.8L37.9809 21.744L38.0591 21.6819L38.1374 21.62L38.2158 21.5582L38.2942 21.4963L38.3655 21.4423L38.4427 21.3821L38.5212 21.3205L38.5999 21.2591L38.6786 21.1977L38.7544 21.1393L38.8276 21.0841L38.9065 21.0229L38.9854 20.9618L39.0644 20.9009L39.1435 20.8399L39.2154 20.7865L39.2931 20.7273L39.3724 20.6665L39.4517 20.6059L39.531 20.5454L39.6076 20.4878L39.6812 20.4334L39.7608 20.3731L39.8404 20.3128L39.92 20.2527L39.9998 20.1926L40.0723 20.1399L40.1506 20.0816L40.2305 20.0218L40.3104 19.9619L40.3904 19.9023L40.4677 19.8455L40.5418 19.792L40.622 19.7325L40.7022 19.6731L40.7825 19.6138L40.8629 19.5546L40.936 19.5027L41.0149 19.4452L41.0954 19.3862L41.176 19.3273L41.2566 19.2685L41.3345 19.2125L41.4092 19.1598L41.49 19.1012L41.5709 19.0427L41.6518 18.9842L41.7328 18.9259L41.8066 18.8748L41.886 18.8181L41.9672 18.7601L42.0484 18.702L42.1296 18.644L42.2082 18.5889L42.2833 18.5371L42.3647 18.4794L42.4463 18.4217L42.5278 18.3641L42.6094 18.3067L42.6838 18.2563L42.7637 18.2006L42.8455 18.1434L42.9274 18.0862L43.0092 18.0291L43.0884 17.9747L43.1641 17.9238L43.2461 17.8669L43.3282 17.8102L43.4104 17.7536L43.4926 17.6969L43.5676 17.6473L43.6481 17.5926L43.7304 17.5361L43.8129 17.4799L43.8953 17.4237L43.9752 17.3701L44.0514 17.3201L44.134 17.2641L44.2167 17.2082L44.2994 17.1525L44.3822 17.0967L44.4578 17.0479L44.5389 16.9941L44.6218 16.9385L44.7049 16.8832L44.7879 16.8279L44.8684 16.7751L44.945 16.726L45.0283 16.6709L45.1115 16.6159L45.1949 16.561L45.2783 16.5062L45.3545 16.458L45.436 16.4053L45.5196 16.3507L45.6032 16.2961L45.6869 16.2418L45.768 16.1898L45.8451 16.1415L45.9289 16.0874L46.0127 16.0333L46.0967 15.9793L46.1807 15.9254L46.2575 15.878L46.3395 15.8261L46.4236 15.7725L46.5078 15.7188L46.5921 15.6653L46.6738 15.6142L46.7513 15.5668L46.8357 15.5136L46.9202 15.4604L47.0046 15.4073L47.0892 15.3543L47.1666 15.3078L47.2491 15.2568L47.3338 15.204L47.4185 15.1513L47.5033 15.0987L47.5856 15.0485L47.6637 15.002L47.7486 14.9497L47.8336 14.8974L47.9187 14.8452L48.0038 14.7931L48.0817 14.7474L48.1647 14.6973L48.25 14.6455L48.3353 14.5938L48.4206 14.542L48.5036 14.4926L48.582 14.4471L48.6675 14.3956L48.7531 14.3443L48.8387 14.293L48.9244 14.2418L49.0029 14.1969L49.0863 14.1479L49.1721 14.0969L49.258 14.0461L49.3439 13.9953L49.4274 13.9467L49.5063 13.9021L49.5923 13.8516L49.6784 13.8012L49.7646 13.7509L49.8508 13.7005L49.9299 13.6565L50.0138 13.6084L50.1001 13.5583L50.1865 13.5085L50.273 13.4586L50.357 13.4108L50.4364 13.3672L50.523 13.3176L50.6096 13.2681L50.6963 13.2187L50.783 13.1694L50.8626 13.1261L50.947 13.0789L51.0338 13.0298L51.1208 12.9809L51.2078 12.932L51.2924 12.8851L51.3721 12.8424L51.4592 12.7937L51.5464 12.7451L51.6336 12.6967L51.7209 12.6483L51.8009 12.6058L51.8858 12.5597L51.9732 12.5115L52.0607 12.4635L52.1482 12.4156L52.2334 12.3695L52.3135 12.3277L52.4011 12.28L52.4888 12.2324L52.5765 12.1849L52.6643 12.1374L52.7449 12.0957L52.8302 12.0506L52.9181 12.0034L53.006 11.9563L53.094 11.9093L53.1798 11.8642L53.2603 11.8232L53.3485 11.7765L53.4366 11.7299L53.5248 11.6833L53.6131 11.6369L53.6942 11.596L53.7799 11.5518L53.8684 11.5056L53.9568 11.4594L54.0453 11.4134L54.1316 11.3691L54.2125 11.3291L54.3011 11.2834L54.3898 11.2377L54.4785 11.192L54.5673 11.1465L54.6489 11.1066L54.735 11.0632L54.824 11.018L54.9129 10.9729L55.0018 10.9277L55.0887 10.8844L55.17 10.8454L55.2591 10.8005L55.3482 10.7558L55.4375 10.7112L55.5267 10.6666L55.6089 10.6275L55.6953 10.5852L55.7847 10.5409L55.8741 10.4967L55.9636 10.4525L56.051 10.4101L56.1326 10.3721L56.2221 10.3281L56.3118 10.2844L56.4015 10.2408L56.4911 10.1971L56.5738 10.1589L56.6607 10.1176L56.7505 10.0742L56.8404 10.0311L56.9303 9.98788L57.0182 9.94631L57.1002 9.9092L57.1903 9.86627L57.2804 9.82348L57.3705 9.7808L57.4607 9.73813L57.5438 9.70076L57.631 9.66051L57.7213 9.61807L57.8117 9.57586L57.9021 9.5337L57.9904 9.49299L58.0728 9.45688L58.1633 9.41495L58.2538 9.37307L58.3444 9.3314L58.4351 9.28974L58.5186 9.25318L58.6062 9.21397L58.697 9.17256L58.7878 9.13127L58.8786 9.09009L58.9675 9.05032L59.0502 9.01511L59.1411 8.97421L59.2321 8.93331L59.3231 8.89261L59.4143 8.85194L59.4983 8.81621L59.5862 8.77803L59.6774 8.73762L59.7686 8.69728L59.8599 8.65714L59.9493 8.61831L60.0322 8.584L60.1237 8.54411L60.2151 8.50423L60.3065 8.46445L60.398 8.42483L60.4825 8.39001L60.5708 8.35276L60.6624 8.31338L60.7541 8.27402L60.8458 8.23485L60.9356 8.19698L61.0189 8.1636L61.1107 8.12474L61.2026 8.08586L61.2944 8.04703L61.3864 8.00843L61.4713 7.97452L61.5599 7.93824L61.6519 7.89988L61.744 7.86153L61.8361 7.8233L61.9265 7.7864L62.01 7.75402L62.1022 7.7161L62.1945 7.67826L62.2867 7.64044L62.3791 7.60279L62.4645 7.5698L62.5534 7.53449L62.6458 7.49716L62.7383 7.45985L62.8308 7.42257L62.9217 7.38662L63.0055 7.35524L63.0981 7.31826L63.1907 7.28145L63.2834 7.24466L63.3761 7.20799L63.462 7.17589L63.5512 7.14163L63.644 7.10526L63.7369 7.06899L63.8298 7.03271L63.921 6.9977L64.0051 6.96732L64.0981 6.93129L64.1912 6.8955L64.2843 6.85975L64.3773 6.82402L64.4636 6.79288L64.5531 6.75968L64.6463 6.72424L64.7396 6.68899L64.8329 6.65376L64.9246 6.61965L65.0089 6.59027L65.1023 6.55528L65.1957 6.52047L65.2892 6.48574L65.3827 6.45103L65.4693 6.42077L65.5591 6.38862L65.6527 6.35417L65.7463 6.31995L65.84 6.28575L65.9321 6.25254L66.0167 6.22417L66.1105 6.19023L66.2042 6.15638L66.2981 6.1227L66.3919 6.08904L66.479 6.05962L66.5691 6.02852L66.663 5.99512L66.757 5.96187L66.851 5.92872L66.9435 5.89647L67.0284 5.86904L67.1225 5.83615L67.2166 5.80328L67.3108 5.77063L67.405 5.73802L67.4924 5.70949L67.5828 5.67945L67.6771 5.64707L67.7714 5.61479L67.8658 5.5827L67.9588 5.55144L68.0438 5.52495L68.1383 5.49312L68.2328 5.46129L68.3273 5.42961L68.4218 5.39806L68.5096 5.37044L68.6002 5.34141L68.6948 5.31009L68.7895 5.27881L68.8842 5.24774L68.9776 5.21748L69.0628 5.19193L69.1577 5.16115L69.2525 5.13038L69.3473 5.09968L69.4423 5.06917L69.5304 5.0425L69.6212 5.01445L69.7162 4.9842L69.8111 4.95397L69.9062 4.92388L70 4.89463L70.0854 4.87006L70.1805 4.84029L70.2757 4.81057L70.3708 4.78087L70.4661 4.75141L70.5546 4.7257L70.6456 4.69862L70.7409 4.66944L70.8362 4.64027L70.9316 4.61115L71.0257 4.58292L71.1114 4.55936L71.2068 4.53057L71.3023 4.50191L71.3977 4.47328L71.4932 4.4448L71.5821 4.42005L71.6734 4.39401L71.769 4.36585L71.8646 4.33772L71.9602 4.30962L72.0547 4.28239L72.1406 4.25984L72.2363 4.23203L72.3321 4.20445L72.4279 4.17687L72.5237 4.14938L72.6129 4.1256L72.7043 4.10063L72.8002 4.07344L72.8961 4.04638L72.9921 4.01935L73.087 3.99305L73.173 3.97153L73.269 3.94475L73.3651 3.91818L73.4611 3.89168L73.5572 3.86517L73.6467 3.84236L73.7384 3.81846L73.8345 3.79226L73.9307 3.76628L74.027 3.74031L74.1222 3.71496L74.2084 3.69445L74.3047 3.66873L74.401 3.64317L74.4974 3.61773L74.5937 3.59229L74.6836 3.57038L74.7754 3.54755L74.8718 3.52238L74.9683 3.49743L75.0648 3.47254L75.1603 3.44813L75.2467 3.42863L75.3432 3.404L75.4398 3.37943L75.5364 3.35506L75.6331 3.3307L75.7232 3.30969L75.8152 3.28792L75.9119 3.26382L76.0086 3.23988L76.1054 3.21605L76.2013 3.19267L76.2877 3.17412L76.3846 3.15056L76.4814 3.12702L76.5783 3.10368L76.6752 3.08041L76.7656 3.0603L76.8578 3.0396L76.9547 3.01658L77.0517 2.99363L77.1487 2.97088L77.2449 2.94853L77.3315 2.93092L77.4285 2.90844L77.5256 2.88597L77.6227 2.86364L77.7198 2.84145L77.8106 2.82231L77.9029 2.8026L78 2.78067L78.0972 2.75875L78.1945 2.73705L78.291 2.71574L78.3777 2.69907L78.475 2.67767L78.5723 2.65627L78.6696 2.63495L78.767 2.61383L78.858 2.59568L78.9504 2.57696L79.0479 2.55611L79.1453 2.53527L79.2428 2.51456L79.3396 2.4943L79.4263 2.47864L79.5239 2.45825L79.6214 2.43793L79.7189 2.41765L79.8166 2.39757L79.9078 2.38041L80.0004 2.36268L80.098 2.34292L80.1956 2.32315L80.2933 2.30346L80.3904 2.28424L80.4773 2.26959L80.575 2.2502L80.6728 2.23098L80.7706 2.21176L80.8683 2.19269L80.9598 2.17653L81.0525 2.15986L81.1504 2.14111L81.2482 2.12243L81.3461 2.10376L81.4434 2.08556L81.5304 2.07194L81.6283 2.05354L81.7263 2.03541L81.8242 2.01728L81.9222 1.99921L82.014 1.98404L82.1067 1.96846L82.2047 1.95071L82.3028 1.9331L82.4008 1.91554L82.4984 1.8983L82.5855 1.88569L82.6836 1.86837L82.7817 1.85126L82.8799 1.83422L82.978 1.81718L83.07 1.80298L83.1628 1.78847L83.2611 1.77171L83.3593 1.7552L83.4575 1.73872L83.5554 1.72244L83.6425 1.71085L83.7408 1.69463L83.8391 1.67851L83.9374 1.66255L84.0357 1.64661L84.128 1.63333L84.2209 1.61988L84.3193 1.6042L84.4176 1.58872L84.5161 1.57331L84.6142 1.55803L84.7013 1.54743L84.7998 1.5323L84.8982 1.51719L84.9967 1.50231L85.0952 1.48747L85.1876 1.4751L85.2806 1.46272L85.3792 1.44812L85.4777 1.43365L85.5763 1.41933L85.6746 1.40511L85.7618 1.39544L85.8604 1.38141L85.959 1.36737L86.0576 1.35351L86.1563 1.33975L86.2489 1.32834L86.3419 1.31699L86.4406 1.30349L86.5393 1.29002L86.638 1.27678L86.7366 1.26363L86.8238 1.25489L86.9225 1.24194L87.0212 1.22899L87.12 1.21614L87.2188 1.20347L87.3116 1.19306L87.4047 1.18269L87.5035 1.17029L87.6023 1.15789L87.7011 1.14566L87.7999 1.13358L87.8871 1.12581L87.986 1.1139L88.0849 1.10204L88.1838 1.0902L88.2827 1.07861L88.3757 1.06921L88.4688 1.05982L88.5677 1.04851L88.6666 1.03721L88.7656 1.02598L88.8646 1.01496L88.9518 1.0082L89.0508 0.997288L89.1498 0.986521L89.2488 0.975776L89.3478 0.96518L89.441 0.956796L89.5341 0.948437L89.6331 0.938161L89.7322 0.92794L89.8312 0.917747L89.9303 0.907789L90.0176 0.901993L90.1167 0.892097L90.2158 0.882431L90.3148 0.872774L90.414 0.863171L90.5073 0.855802L90.6004 0.848512L90.6996 0.839226L90.7987 0.830096L90.8979 0.820999L90.997 0.812032L91.0845 0.807196L91.1836 0.798399L91.2828 0.78975L91.382 0.781178L91.4812 0.772616L91.5747 0.766224L91.6678 0.759994L91.767 0.751702L91.8662 0.743669L91.9655 0.735657L92.0647 0.727684L92.1524 0.723806L92.2514 0.716133L92.3507 0.708477L92.45 0.700992L92.5492 0.693527L92.6429 0.688047L92.736 0.682876L92.8353 0.675671L92.9346 0.66864L93.0339 0.661716L93.1332 0.654789L93.221 0.65181L93.32 0.645261L93.4193 0.638616L93.5187 0.632193L93.618 0.625828L93.7118 0.621259L93.8049 0.617146L93.9042 0.61103L94.0036 0.604995L94.103 0.599156L94.2024 0.593324L94.2902 0.591205L94.3892 0.585767L94.4886 0.580206L94.588 0.574782L94.6874 0.569502L94.7813 0.565932L94.8743 0.562786L94.9737 0.557769L95.0732 0.552768L95.1726 0.547961L95.272 0.543226L95.36 0.541983L95.4589 0.537631L95.5584 0.533157L95.6579 0.528723L95.7573 0.524529L95.8513 0.521973L95.9443 0.519774L96.0437 0.515853L96.1432 0.511938L96.2427 0.508108L96.3422 0.504471L96.4302 0.504189L96.5291 0.500826L96.6286 0.49742L96.7281 0.494056L96.8276 0.490914L96.9217 0.489345L97.0146 0.488139L97.1141 0.485284L97.2136 0.482428L97.3131 0.479624L97.4126 0.477056L97.5007 0.477718L97.5996 0.475383L97.6991 0.473081L97.7986 0.470799L97.8981 0.468591L97.9923 0.468073L98.0851 0.467924L98.1846 0.466019L98.2842 0.464276L98.3837 0.462556L98.4832 0.460956L98.5714 0.462611L98.6702 0.461348L98.7697 0.460042L98.8692 0.458874L98.9688 0.457705L99.063 0.458128L99.1558 0.459062L99.2553 0.45818L99.3548 0.457458L99.4543 0.456862L99.5538 0.456268L99.6421 0.458842L99.7408 0.458713L99.8403 0.458406L99.9399 0.458295L100.039 0.458247L100.134 0.459578L100.226 0.461551L100.326 0.461783L100.425 0.462029L100.525 0.46253L100.624 0.463048L100.713 0.466441L100.811 0.467451L100.911 0.468257L101.01 0.469083L101.11 0.470165L101.204 0.472543L101.297 0.475414L101.396 0.476763L101.496 0.478135L101.595 0.479575L101.695 0.481211L101.783 0.485601L101.882 0.487574L101.981 0.489496L102.081 0.49142L102.18 0.493472L102.275 0.496903L102.367 0.500811L102.467 0.503141L102.566 0.505638L102.666 0.508137L102.765 0.51078L102.853 0.51617L102.952 0.519198L103.051 0.522143L103.151 0.525189L103.25 0.528262L103.345 0.532675L103.437 0.537655L103.536 0.540994L103.636 0.544559L103.735 0.54817L103.835 0.5518L103.923 0.558164L104.021 0.562316L104.121 0.566217L104.22 0.570385L104.32 0.574574L104.414 0.579874L104.506 0.585924L104.606 0.590391L104.705 0.594904L104.804 0.599633L104.904 0.604394L104.992 0.611593L105.09 0.616865L105.19 0.621883L105.289 0.627014L105.388 0.63232L105.483 0.638666L105.575 0.645634L105.674 0.651226L105.774 0.656821L105.873 0.662544L105.972 0.668424L106.061 0.676569L106.159 0.682862L106.258 0.689004L106.357 0.695171L106.457 0.701511L106.551 0.708919L106.643 0.716857L106.742 0.723509L106.841 0.730218L106.941 0.736942L107.04 0.743905L107.128 0.753054L107.226 0.760315L107.325 0.767572L107.424 0.774857L107.524 0.782153L107.618 0.790624L107.71 0.799634L107.809 0.807242L107.908 0.815062L108.007 0.822917L108.107 0.830834L108.195 0.84099L108.293 0.849372L108.392 0.8576L108.491 0.865998L108.59 0.8744L108.684 0.883792L108.776 0.893867L108.875 0.902551L108.974 0.91138L109.073 0.920353L109.172 0.929325L109.26 0.940396L109.358 0.9499L109.457 0.959159L109.556 0.968606L109.655 0.978131L109.749 0.988475L109.841 0.999573L109.94 1.00937L110.039 1.01919L110.138 1.02925L110.237 1.03934L110.325 1.05127L110.422 1.06189L110.521 1.07227L110.62 1.08267L110.719 1.09332L110.813 1.10472L110.904 1.11673L111.003 1.12764L111.102 1.13858L111.201 1.14961L111.3 1.16081L111.388 1.17373L111.485 1.18534L111.584 1.19682L111.683 1.20831L111.781 1.21996L111.876 1.23243L111.967 1.24542L112.065 1.25736L112.164 1.26942L112.263 1.28147L112.361 1.29373L112.45 1.30766L112.546 1.32027L112.645 1.33282L112.744 1.34543L112.842 1.35806L112.937 1.37157L113.027 1.38563L113.126 1.39854L113.224 1.4117L113.323 1.42488L113.422 1.4381L113.51 1.45303L113.606 1.46675L113.705 1.48027L113.803 1.494L113.902 1.50774L113.996 1.52217L114.086 1.53727L114.185 1.55128L114.283 1.56543L114.382 1.57971L114.48 1.59401L114.568 1.60985L114.664 1.62467L114.763 1.63923L114.861 1.654L114.959 1.66885L115.053 1.68424L115.144 1.70034L115.242 1.71548L115.34 1.73061L115.438 1.74597L115.537 1.7614L115.625 1.7781L115.721 1.79401L115.819 1.80969L115.917 1.82543L116.015 1.84138L116.109 1.85784L116.199 1.87485L116.297 1.89108L116.395 1.90733L116.493 1.92367L116.591 1.94019L116.679 1.95789L116.775 1.97477L116.873 1.99155L116.971 2.00836L117.069 2.02531L117.163 2.04284L117.252 2.06082L117.35 2.07809L117.448 2.09543L117.546 2.11279L117.644 2.13037L117.732 2.14908L117.827 2.16693L117.925 2.18481L118.023 2.20272L118.121 2.22063L118.214 2.23922L118.304 2.25825L118.401 2.27648L118.499 2.29491L118.597 2.3134L118.694 2.33193L118.782 2.35164L118.877 2.37059L118.975 2.38944L119.072 2.40845L119.17 2.42746L119.264 2.44698L119.353 2.46704L119.45 2.48633L119.548 2.50578L119.645 2.52535L119.743 2.54492L119.83 2.56556L119.925 2.5856L120.022 2.60545L120.12 2.62552L120.217 2.64563L120.311 2.66609L120.399 2.68717L120.496 2.70756L120.594 2.72797L120.691 2.74864L120.788 2.76931L120.875 2.79082L120.97 2.81194L121.067 2.83289L121.164 2.85391L121.262 2.87513L121.355 2.89664L121.443 2.91861L121.54 2.94009L121.637 2.9616L121.734 2.98324L121.831 3.005L121.918 3.02747L122.013 3.04959L122.11 3.07163L122.207 3.09367L122.303 3.11593L122.397 3.13849L122.485 3.16138L122.582 3.18392L122.678 3.20652L122.775 3.22913L122.872 3.25198L122.959 3.27544L123.053 3.2985L123.149 3.32164L123.246 3.34477L123.343 3.36799L123.436 3.3916L123.523 3.41551L123.62 3.439L123.716 3.4627L123.813 3.48639L123.909 3.51021L123.996 3.53466L124.09 3.55877L124.186 3.58288L124.283 3.60711L124.379 3.63137L124.472 3.65595L124.559 3.68086L124.655 3.70537L124.752 3.7301L124.848 3.75487L124.944 3.77966L125.031 3.8051L125.124 3.83027L125.22 3.85533L125.316 3.88065L125.412 3.90598L125.505 3.93147L125.592 3.95741L125.688 3.983L125.784 4.00868L125.88 4.03453L125.976 4.06041L126.062 4.08671L126.155 4.11293L126.251 4.13907L126.347 4.16535L126.442 4.19176L126.535 4.21827L126.621 4.2451L126.717 4.27178L126.813 4.29847L126.908 4.32534L127.004 4.3523L127.09 4.3795L127.183 4.40674L127.278 4.43394L127.374 4.46118L127.469 4.48866L127.561 4.51621L127.648 4.54391L127.743 4.57168L127.838 4.59943L127.934 4.62726L128.029 4.6553L128.115 4.68348L128.207 4.71164L128.302 4.73993L128.398 4.76824L128.493 4.79667L128.585 4.82526L128.671 4.85393L128.766 4.88266L128.861 4.91149L128.956 4.94033L129.051 4.96936L129.136 4.99853L129.228 5.02765L129.323 5.05697L129.418 5.08634L129.513 5.11572L129.605 5.14535L129.69 5.17501L129.785 5.20467L129.88 5.23457Z" fill="white"/>
</svg>
