<svg width="200" height="200" viewBox="0 0 200 200" fill="none" xmlns="http://www.w3.org/2000/svg">
<path d="M119.594 7.23784L119.579 7.20461L119.564 7.17156L119.548 7.13856L119.533 7.10556L119.48 7.07253L119.464 7.03973L119.448 7.00698L119.433 6.9743L119.417 6.94175L119.402 6.90924L119.386 6.87679L119.37 6.84449L119.354 6.81222L119.302 6.77954L119.285 6.74739L119.269 6.71534L119.254 6.68333L119.238 6.65144L119.222 6.61965L119.206 6.58786L119.19 6.55621L119.174 6.52467L119.123 6.49238L119.104 6.46091L119.088 6.42951L119.072 6.39822L119.056 6.36702L119.04 6.33587L119.024 6.30482L119.008 6.27385L118.991 6.24295L118.941 6.21112L118.921 6.18029L118.905 6.14963L118.889 6.11898L118.872 6.08847L118.856 6.05805L118.839 6.02766L118.823 5.99737L118.807 5.9672L118.756 5.93584L118.736 5.90557L118.719 5.87565L118.703 5.84572L118.686 5.81584L118.67 5.78616L118.653 5.75648L118.636 5.72686L118.62 5.69741L118.57 5.66654L118.549 5.6369L118.532 5.60764L118.515 5.57846L118.498 5.54928L118.481 5.52026L118.464 5.49133L118.447 5.4624L118.43 5.43363L118.382 5.40327L118.359 5.37429L118.342 5.34568L118.325 5.31723L118.308 5.2888L118.291 5.26042L118.273 5.23223L118.256 5.20406L118.239 5.17592L118.191 5.14609L118.167 5.11776L118.15 5.08987L118.132 5.06209L118.115 5.03441L118.098 5.00677L118.08 4.97925L118.063 4.95183L118.045 4.92443L117.998 4.89512L117.973 4.86737L117.955 4.84021L117.938 4.81319L117.92 4.7862L117.903 4.75929L117.885 4.73252L117.867 4.70579L117.849 4.67913L117.802 4.65039L117.777 4.62325L117.759 4.59679L117.741 4.57052L117.723 4.54426L117.705 4.51806L117.687 4.49205L117.669 4.46605L117.651 4.44011L117.605 4.41196L117.578 4.38544L117.56 4.35969L117.542 4.33416L117.524 4.30867L117.505 4.28318L117.487 4.25792L117.469 4.23268L117.451 4.20745L117.405 4.1799L117.377 4.15398L117.359 4.12901L117.34 4.10418L117.322 4.07946L117.303 4.05475L117.285 4.03019L117.267 4.00573L117.248 3.98128L117.203 3.95434L117.174 3.92897L117.155 3.90479L117.136 3.88074L117.118 3.85672L117.099 3.83281L117.08 3.80902L117.062 3.78527L117.043 3.76163L116.998 3.73532L116.968 3.71054L116.949 3.68711L116.93 3.66385L116.911 3.64058L116.893 3.61744L116.874 3.59443L116.855 3.57143L116.836 3.54857L116.792 3.52293L116.76 3.49873L116.741 3.47609L116.722 3.45359L116.703 3.43111L116.684 3.40875L116.664 3.38651L116.645 3.3643L116.626 3.34222L116.582 3.31726L116.55 3.29364L116.53 3.27184L116.511 3.25006L116.492 3.22839L116.472 3.20687L116.453 3.18536L116.433 3.16399L116.414 3.14273L116.371 3.11845L116.337 3.09541L116.318 3.07442L116.298 3.05343L116.278 3.03257L116.258 3.01185L116.239 2.99113L116.219 2.97058L116.199 2.95013L116.157 2.92656L116.122 2.90416L116.102 2.88392L116.082 2.86376L116.062 2.84375L116.042 2.8238L116.022 2.80394L116.002 2.7842L115.982 2.76453L115.94 2.74179L115.905 2.71996L115.884 2.70048L115.864 2.68123L115.844 2.66202L115.824 2.64282L115.803 2.62381L115.783 2.60497L115.762 2.58616L115.721 2.56421L115.684 2.54303L115.664 2.52449L115.643 2.506L115.623 2.48773L115.602 2.46946L115.582 2.45128L115.561 2.43328L115.54 2.41526L115.5 2.39417L115.462 2.37348L115.441 2.35576L115.42 2.33816L115.399 2.32064L115.378 2.30319L115.358 2.2859L115.337 2.26865L115.316 2.2515L115.276 2.23125L115.237 2.21107L115.216 2.19419L115.195 2.17745L115.174 2.16071L115.152 2.14414L115.131 2.12766L115.11 2.1112L115.089 2.09495L115.05 2.07552L115.01 2.05584L114.988 2.0398L114.967 2.02388L114.946 2.00798L114.924 1.99222L114.903 1.97658L114.881 1.96098L114.86 1.94552L114.821 1.92692L114.78 1.90782L114.758 1.89261L114.737 1.87745L114.715 1.86245L114.693 1.84752L114.672 1.83264L114.65 1.81797L114.628 1.80331L114.59 1.78553L114.548 1.76698L114.526 1.75262L114.504 1.73827L114.482 1.72413L114.46 1.71004L114.439 1.69602L114.417 1.68217L114.395 1.66836L114.357 1.65151L114.314 1.63342L114.292 1.61985L114.27 1.60645L114.247 1.59308L114.225 1.57982L114.203 1.56672L114.181 1.55363L114.159 1.54068L114.122 1.52478L114.077 1.50714L114.055 1.49442L114.033 1.48189L114.01 1.46935L113.988 1.45696L113.965 1.4447L113.943 1.43244L113.92 1.42037L113.884 1.40538L113.839 1.38822L113.816 1.37641L113.793 1.36465L113.771 1.35301L113.748 1.34148L113.725 1.33002L113.703 1.31868L113.68 1.30744L113.644 1.29334L113.598 1.27674L113.575 1.26577L113.552 1.25482L113.529 1.24412L113.506 1.23345L113.483 1.22281L113.46 1.21241L113.437 1.202L113.402 1.18889L113.355 1.17274L113.331 1.16262L113.308 1.15265L113.285 1.14273L113.262 1.1329L113.239 1.12325L113.215 1.11363L113.235 1.11316L113.322 1.12684L113.395 1.13688L113.494 1.15342L113.592 1.17009L113.69 1.18677L113.789 1.2036L113.887 1.22056L113.985 1.23752L114.084 1.25466L114.172 1.2693L114.244 1.27975L114.342 1.29711L114.441 1.31461L114.539 1.33212L114.637 1.34978L114.735 1.36756L114.833 1.38536L114.932 1.40331L115.021 1.41893L115.092 1.42977L115.19 1.448L115.288 1.46627L115.386 1.48463L115.484 1.50315L115.582 1.52171L115.68 1.54036L115.778 1.55917L115.868 1.57573L115.938 1.58693L116.036 1.60603L116.134 1.62514L116.232 1.64429L116.33 1.66368L116.428 1.68306L116.525 1.70252L116.623 1.72219L116.714 1.73972L116.783 1.75131L116.881 1.77123L116.979 1.79117L117.076 1.81115L117.174 1.83135L117.272 1.85158L117.37 1.87185L117.467 1.89234L117.558 1.91089L117.627 1.92287L117.724 1.94355L117.822 1.96434L117.919 1.98519L118.017 2.00617L118.115 2.02724L118.212 2.04838L118.31 2.06965L118.401 2.08923L118.469 2.10157L118.566 2.12308L118.664 2.14465L118.761 2.16636L118.858 2.18817L118.956 2.21002L119.053 2.23203L119.15 2.25411L119.243 2.2747L119.309 2.28738L119.407 2.30975L119.504 2.33211L119.601 2.35467L119.698 2.37731L119.795 2.39994L119.893 2.4228L119.99 2.44572L120.083 2.46731L120.148 2.48032L120.245 2.50352L120.342 2.52672L120.44 2.55008L120.537 2.57356L120.633 2.59703L120.73 2.62068L120.827 2.64444L120.921 2.6671L120.986 2.68043L121.082 2.7044L121.179 2.72844L121.276 2.75264L121.373 2.7769L121.47 2.80122L121.567 2.82571L121.663 2.85026L121.757 2.87402L121.821 2.88765L121.918 2.91241L122.015 2.93728L122.111 2.96232L122.208 2.98736L122.304 3.01254L122.401 3.03786L122.497 3.06317L122.592 3.08807L122.655 3.10194L122.752 3.12754L122.848 3.15321L122.944 3.17908L123.041 3.20495L123.137 3.23092L123.233 3.25707L123.33 3.28323L123.425 3.3092L123.487 3.32332L123.583 3.34974L123.68 3.37626L123.776 3.4029L123.872 3.42961L123.968 3.45643L124.064 3.48336L124.16 3.51034L124.256 3.53741L124.317 3.55177L124.413 3.57899L124.509 3.60638L124.605 3.6338L124.701 3.66132L124.797 3.68899L124.893 3.7167L124.989 3.7445L125.085 3.77245L125.146 3.78759L125.241 3.81529L125.337 3.84354L125.433 3.87181L125.528 3.90008L125.624 3.92861L125.72 3.95714L125.815 3.98572L125.911 4.01452L125.973 4.03049L126.067 4.05873L126.163 4.08775L126.258 4.11683L126.353 4.14594L126.449 4.17524L126.544 4.2046L126.64 4.234L126.735 4.26359L126.798 4.28042L126.891 4.30918L126.986 4.33898L127.081 4.36886L127.176 4.39883L127.272 4.4289L127.367 4.45906L127.462 4.48932L127.557 4.51967L127.621 4.53736L127.712 4.56664L127.807 4.59726L127.902 4.62789L127.997 4.65872L128.092 4.6896L128.187 4.72052L128.282 4.75163L128.377 4.7828L128.441 4.80136L128.532 4.83107L128.627 4.8625L128.721 4.89394L128.816 4.92557L128.911 4.95728L129.005 4.98899L129.1 5.02093L129.195 5.05291L129.259 5.07234L129.349 5.10251L129.444 5.13473L129.538 5.16699L129.632 5.19941L129.727 5.23191L129.821 5.26446L129.915 5.29715L130.01 5.32995L130.075 5.35031L130.164 5.3809L130.258 5.41387L130.352 5.44698L130.446 5.48021L130.541 5.51348L130.635 5.54687L130.729 5.58037L130.823 5.61392L130.889 5.63522L130.976 5.66624L131.07 5.70001L131.164 5.73392L131.258 5.76796L131.352 5.80201L131.446 5.83621L131.539 5.87051L131.633 5.90483L131.7 5.92709L131.786 5.95847L131.88 5.99307L131.974 6.02777L132.067 6.0626L132.161 6.09746L132.254 6.13244L132.348 6.16755L132.441 6.20267L132.508 6.22589L132.594 6.25761L132.687 6.293L132.781 6.32854L132.874 6.36411L132.967 6.39977L133.06 6.43559L133.153 6.47145L133.247 6.50738L133.314 6.53157L133.399 6.56365L133.492 6.59981L133.585 6.63617L133.678 6.67254L133.771 6.70898L133.864 6.74561L133.957 6.78224L134.049 6.81899L134.118 6.84412L134.201 6.87655L134.294 6.9135L134.387 6.95064L134.479 6.98779L134.572 7.02502L134.664 7.06243L134.757 7.09986L134.85 7.13737L134.918 7.16346L135.001 7.19624L135.093 7.23403L135.186 7.2719L135.278 7.30985L135.37 7.34791L135.463 7.38607L135.555 7.42429L135.647 7.46263L135.716 7.48967L135.798 7.52273L135.89 7.56135L135.982 7.6L136.074 7.6387L136.166 7.67761L136.258 7.71652L136.35 7.75549L136.442 7.79466L136.511 7.82268L136.592 7.85602L136.684 7.89542L136.775 7.93486L136.867 7.97434L136.959 8.01403L137.05 8.05373L137.142 8.09345L137.233 8.13342L137.304 8.16244L137.383 8.1961L137.474 8.23626L137.566 8.27649L137.657 8.31676L137.749 8.35719L137.84 8.39767L137.931 8.43824L138.022 8.47892L138.093 8.50895L138.171 8.54295L138.262 8.58386L138.353 8.62482L138.445 8.66593L138.535 8.7071L138.626 8.74833L138.717 8.78971L138.808 8.83115L138.88 8.8622L138.957 8.89646L139.047 8.93815L139.138 8.97985L139.229 9.02176L139.319 9.06371L139.41 9.10566L139.501 9.14785L139.591 9.19008L139.663 9.22212L139.739 9.25662L139.829 9.2991L139.92 9.34158L140.01 9.38424L140.1 9.42697L140.191 9.46972L140.281 9.51268L140.371 9.55567L140.443 9.58875L140.518 9.62349L140.608 9.66669L140.698 9.70998L140.788 9.75339L140.878 9.79686L140.968 9.84043L141.058 9.8841L141.148 9.92783L141.22 9.96202L141.294 9.99697L141.384 10.0409L141.474 10.085L141.563 10.1292L141.653 10.1734L141.742 10.2177L141.832 10.2622L141.921 10.3066L141.994 10.3419L142.067 10.377L142.157 10.4217L142.246 10.4666L142.335 10.5115L142.424 10.5565L142.513 10.6016L142.602 10.6468L142.691 10.692L142.765 10.7283L142.837 10.7637L142.926 10.8091L143.015 10.8547L143.104 10.9004L143.192 10.9461L143.281 10.992L143.37 11.0379L143.458 11.0839L143.533 11.1213L143.604 11.1568L143.692 11.2031L143.78 11.2494L143.869 11.2958L143.957 11.3423L144.046 11.389L144.134 11.4356L144.222 11.4824L144.297 11.5209L144.367 11.5565L144.455 11.6035L144.543 11.6506L144.631 11.6978L144.719 11.745L144.807 11.7924L144.895 11.8398L144.982 11.8873L145.057 11.9269L145.126 11.9627L145.214 12.0104L145.302 12.0582L145.389 12.1061L145.477 12.1541L145.564 12.2023L145.652 12.2504L145.739 12.2987L145.815 12.3394L145.882 12.3753L145.97 12.4238L146.057 12.4723L146.144 12.5209L146.231 12.5697L146.318 12.6185L146.405 12.6674L146.492 12.7165L146.568 12.7583L146.635 12.7942L146.722 12.8435L146.809 12.8928L146.896 12.9422L146.982 12.9917L147.069 13.0413L147.156 13.0909L147.242 13.1407L147.318 13.1836L147.384 13.2197L147.47 13.2696L147.557 13.3197L147.643 13.3698L147.73 13.42L147.816 13.4703L147.902 13.5207L147.988 13.5712L148.065 13.6152L148.129 13.6514L148.215 13.7021L148.301 13.7529L148.387 13.8038L148.473 13.8547L148.559 13.9057L148.645 13.9569L148.731 14.008L148.808 14.0532L148.871 14.0895L148.957 14.1409L149.042 14.1924L149.128 14.244L149.213 14.2957L149.299 14.3474L149.384 14.3993L149.469 14.4512L149.547 14.4975L149.609 14.5339L149.694 14.586L149.78 14.6382L149.865 14.6905L149.95 14.7429L150.035 14.7953L150.12 14.848L150.204 14.9006L150.282 14.9481L150.343 14.9845L150.428 15.0373L150.513 15.0902L150.598 15.1433L150.682 15.1964L150.767 15.2496L150.851 15.3029L150.936 15.3562L151.013 15.4049L151.074 15.4413L151.158 15.4948L151.242 15.5485L151.327 15.6023L151.411 15.656L151.495 15.71L151.579 15.764L151.663 15.818L151.741 15.8679L151.8 15.9043L151.884 15.9585L151.968 16.0129L152.052 16.0674L152.136 16.1219L152.219 16.1765L152.303 16.2313L152.386 16.286L152.464 16.337L152.523 16.3734L152.606 16.4284L152.69 16.4835L152.773 16.5387L152.856 16.5939L152.939 16.6492L153.023 16.7046L153.106 16.7601L153.184 16.8122L153.242 16.8486L153.325 16.9043L153.407 16.9601L153.49 17.016L153.573 17.0719L153.656 17.128L153.738 17.184L153.821 17.2402L153.9 17.2936L153.956 17.33L154.039 17.3864L154.121 17.4429L154.203 17.4994L154.286 17.556L154.368 17.6128L154.45 17.6695L154.532 17.7264L154.611 17.781L154.667 17.8173L154.749 17.8744L154.831 17.9316L154.912 17.9888L154.994 18.0462L155.076 18.1036L155.158 18.1611L155.239 18.2187L155.318 18.2744L155.373 18.3107L155.455 18.3685L155.536 18.4263L155.617 18.4843L155.699 18.5423L155.78 18.6004L155.861 18.6586L155.942 18.7169L156.022 18.7738L156.075 18.81L156.156 18.8685L156.237 18.927L156.318 18.9856L156.399 19.0444L156.48 19.1032L156.56 19.162L156.641 19.221L156.721 19.2791L156.773 19.3152L156.854 19.3745L156.934 19.4337L157.014 19.4929L157.095 19.5524L157.175 19.6118L157.255 19.6714L157.335 19.731L157.415 19.7904L157.467 19.8264L157.547 19.8863L157.627 19.9462L157.707 20.0062L157.786 20.0663L157.866 20.1264L157.946 20.1866L158.026 20.2469L158.105 20.3072L158.156 20.3437L158.236 20.404L158.315 20.4645L158.394 20.5252L158.474 20.5859L158.553 20.6467L158.632 20.7076L158.711 20.7686L158.79 20.8296L158.842 20.8671L158.92 20.9275L158.999 20.9886L159.078 21.05L159.157 21.1114L159.235 21.1728L159.314 21.2344L159.393 21.296L159.471 21.3577L159.523 21.3963L159.6 21.4567L159.678 21.5186L159.757 21.5806L159.835 21.6426L159.913 21.7048L159.991 21.767L160.069 21.8293L160.148 21.8917L160.2 21.9312L160.275 21.9916L160.353 22.0543L160.431 22.1169L160.509 22.1796L160.587 22.2424L160.664 22.3053L160.742 22.3682L160.819 22.4313L160.872 22.4718L160.946 22.5323L161.024 22.5956L161.101 22.6589L161.178 22.7222L161.255 22.7857L161.333 22.8493L161.41 22.9128L161.487 22.9765L161.539 23.0181L161.613 23.0786L161.69 23.1425L161.766 23.2065L161.843 23.2705L161.92 23.3346L161.996 23.3988L162.073 23.463L162.149 23.5274L162.202 23.5699L162.274 23.6306L162.351 23.6951L162.427 23.7597L162.503 23.8244L162.579 23.8891L162.655 23.9539L162.731 24.0188L162.807 24.0838L162.86 24.1274L162.932 24.1881L163.007 24.2533L163.083 24.3185L163.159 24.3838L163.234 24.4492L163.31 24.5146L163.385 24.5802L163.46 24.6458L163.514 24.6905L163.584 24.7511L163.659 24.817L163.734 24.8828L163.809 24.9488L163.884 25.0148L163.959 25.0808L164.034 25.147L164.109 25.2133L164.163 25.259L164.231 25.3197L164.306 25.3861L164.381 25.4526L164.455 25.5192L164.53 25.5858L164.604 25.6525L164.678 25.7193L164.752 25.7862L164.806 25.833L164.874 25.8937L164.948 25.9607L165.022 26.0278L165.096 26.0951L165.17 26.1623L165.244 26.2297L165.318 26.2971L165.391 26.3645L165.446 26.4125L165.512 26.4731L165.586 26.5407L165.659 26.6085L165.732 26.6764L165.806 26.7442L165.879 26.8122L165.952 26.8803L166.025 26.9483L166.08 26.9974L166.145 27.0579L166.218 27.1262L166.291 27.1945L166.364 27.263L166.436 27.3315L166.509 27.4001L166.582 27.4687L166.654 27.5374L166.709 27.5875L166.773 27.648L166.846 27.7169L166.918 27.7859L166.99 27.8549L167.062 27.924L167.134 27.9932L167.206 28.0624L167.278 28.1318L167.333 28.183L167.396 28.2434L167.468 28.3128L167.54 28.3825L167.611 28.4521L167.683 28.5218L167.754 28.5917L167.826 28.6615L167.897 28.7314L167.952 28.7838L168.014 28.844L168.085 28.9141L168.157 28.9843L168.228 29.0546L168.299 29.1249L168.369 29.1953L168.44 29.2658L168.511 29.3363L168.566 29.3897L168.627 29.4498L168.698 29.5206L168.768 29.5913L168.839 29.6622L168.909 29.7331L168.979 29.8041L169.05 29.8752L169.12 29.9463L169.175 30.0008L169.235 30.0608L169.305 30.1322L169.375 30.2036L169.445 30.275L169.515 30.3465L169.584 30.4181L169.654 30.4897L169.723 30.5615L169.779 30.6171L169.838 30.6769L169.907 30.7489L169.976 30.8208L170.046 30.8928L170.115 30.965L170.184 31.0371L170.253 31.1093L170.322 31.1817L170.377 31.2384L170.435 31.2982L170.504 31.3706L170.573 31.4432L170.641 31.5158L170.71 31.5885L170.778 31.6612L170.847 31.7341L170.915 31.807L170.97 31.8648L171.027 31.9244L171.095 31.9975L171.163 32.0705L171.231 32.1438L171.299 32.217L171.367 32.2903L171.435 32.3638L171.503 32.4372L171.558 32.4962L171.614 32.5556L171.682 32.6293L171.749 32.7029L171.816 32.7767L171.884 32.8505L171.951 32.9244L172.018 32.9984L172.085 33.0724L172.141 33.1325L172.196 33.1918L172.262 33.266L172.329 33.3402L172.396 33.4146L172.463 33.489L172.529 33.5634L172.596 33.638L172.663 33.7125L172.718 33.7738L172.772 33.8328L172.838 33.9076L172.904 33.9824L172.97 34.0573L173.036 34.1322L173.102 34.2073L173.168 34.2824L173.234 34.3575L173.29 34.4199L173.342 34.4788L173.408 34.554L173.474 34.6295L173.539 34.7049L173.605 34.7804L173.67 34.856L173.735 34.9316L173.8 35.0073L173.856 35.0709L173.907 35.1295L173.973 35.2053L174.037 35.2813L174.102 35.3573L174.167 35.4333L174.232 35.5095L174.297 35.5857L174.361 35.6619L174.417 35.7266L174.467 35.785L174.532 35.8614L174.596 35.9379L174.66 36.0144L174.724 36.091L174.788 36.1677L174.852 36.2444L174.916 36.3212L174.972 36.3871L175.021 36.4452L175.085 36.5222L175.149 36.5992L175.212 36.6762L175.276 36.7534L175.339 36.8306L175.403 36.9079L175.466 36.9852L175.521 37.0523L175.57 37.1101L175.633 37.1876L175.696 37.2651L175.759 37.3428L175.822 37.4205L175.884 37.4982L175.947 37.576L176.01 37.6539L176.065 37.7221L176.113 37.7796L176.175 37.8576L176.237 37.9357L176.3 38.0139L176.362 38.0921L176.424 38.1703L176.486 38.2487L176.548 38.3271L176.603 38.3965L176.65 38.4537L176.712 38.5323L176.773 38.6109L176.835 38.6896L176.896 38.7683L176.958 38.8471L177.019 38.926L177.081 39.0049L177.136 39.0754L177.181 39.1324L177.242 39.2115L177.303 39.2905L177.364 39.3698L177.425 39.449L177.486 39.5283L177.547 39.6077L177.607 39.6871L177.663 39.7588L177.707 39.8155L177.767 39.8951L177.828 39.9747L177.888 40.0544L177.948 40.1342L178.008 40.214L178.068 40.2939L178.128 40.3739L178.183 40.4467L178.227 40.5031L178.287 40.5831L178.346 40.6633L178.406 40.7436L178.465 40.8238L178.525 40.9042L178.584 40.9846L178.644 41.065L178.698 41.1391L178.741 41.1951L178.8 41.2756L178.859 41.3563L178.918 41.4371L178.977 41.5178L179.035 41.5987L179.094 41.6796L179.153 41.7605L179.207 41.8357L179.249 41.8914L179.307 41.9725L179.366 42.0537L179.424 42.1349L179.482 42.2162L179.54 42.2975L179.598 42.3789L179.656 42.4603L179.711 42.5368L179.751 42.592L179.809 42.6736L179.867 42.7553L179.924 42.837L179.982 42.9188L180.039 43.0006L180.096 43.0825L180.153 43.1644L180.208 43.242L180.247 43.2969L180.304 43.379L180.361 43.4612L180.418 43.5433L180.475 43.6256L180.532 43.7079L180.588 43.7903L180.645 43.8727L180.699 43.9515L180.738 44.006L180.794 44.0886L180.85 44.1712L180.906 44.2539L180.962 44.3366L181.018 44.4194L181.074 44.5023L181.13 44.5852L181.184 44.6651L181.222 44.7193L181.277 44.8023L181.333 44.8854L181.388 44.9686L181.444 45.0518L181.499 45.135L181.554 45.2184L181.609 45.3017L181.663 45.3829L181.7 45.4367L181.755 45.5202L181.81 45.6037L181.864 45.6874L181.919 45.771L181.974 45.8547L182.028 45.9386L182.082 46.0224L182.136 46.1047L182.172 46.1581L182.226 46.2421L182.28 46.3261L182.334 46.4102L182.388 46.4943L182.442 46.5785L182.496 46.6628L182.549 46.7471L182.602 46.8306L182.637 46.8835L182.691 46.9679L182.744 47.0524L182.798 47.137L182.851 47.2216L182.904 47.3062L182.957 47.3909L183.01 47.4757L183.063 47.5605L183.097 47.6129L183.15 47.6977L183.202 47.7827L183.255 47.8677L183.308 47.9528L183.36 48.0379L183.412 48.123L183.465 48.2082L183.517 48.2935L183.551 48.3469L183.602 48.4315L183.654 48.5169L183.706 48.6024L183.758 48.6879L183.81 48.7734L183.861 48.859L183.913 48.9446L183.964 49.0304L183.998 49.0848L184.049 49.1691L184.1 49.2549L184.151 49.3408L184.202 49.4268L184.253 49.5128L184.304 49.5988L184.355 49.6849L184.405 49.771L184.439 49.8265L184.489 49.9105L184.539 49.9968L184.589 50.0831L184.64 50.1695L184.69 50.2559L184.74 50.3424L184.79 50.4289L184.84 50.5155L184.874 50.572L184.922 50.6557L184.972 50.7424L185.022 50.8291L185.071 50.9159L185.121 51.0028L185.17 51.0897L185.219 51.1766L185.269 51.2636L185.302 51.3212L185.349 51.4045L185.398 51.4916L185.447 51.5788L185.496 51.666L185.545 51.7533L185.593 51.8406L185.642 51.928L185.69 52.0154L185.724 52.0741L185.77 52.157L185.818 52.2445L185.866 52.3322L185.915 52.4198L185.963 52.5075L186.01 52.5952L186.058 52.683L186.106 52.7708L186.139 52.8306L186.184 52.9131L186.232 53.0011L186.279 53.0891L186.327 53.1771L186.374 53.2652L186.421 53.3534L186.468 53.4415L186.515 53.5298L186.548 53.5906L186.592 53.6727L186.639 53.7611L186.685 53.8495L186.732 53.938L186.778 54.0265L186.825 54.115L186.871 54.2036L186.917 54.2922L186.95 54.3541L186.993 54.4359L187.039 54.5246L187.085 54.6134L187.131 54.7023L187.177 54.7912L187.222 54.8801L187.268 54.9691L187.313 55.0581L187.346 55.121L187.388 55.2024L187.433 55.2916L187.478 55.3808L187.523 55.47L187.568 55.5593L187.613 55.6486L187.658 55.738L187.702 55.8274L187.735 55.8914L187.776 55.9724L187.82 56.0619L187.865 56.1515L187.909 56.2411L187.953 56.3308L187.997 56.4205L188.041 56.5103L188.085 56.6L188.118 56.6651L188.157 56.7457L188.201 56.8355L188.244 56.9255L188.288 57.0155L188.331 57.1055L188.375 57.1957L188.418 57.2858L188.461 57.3759L188.493 57.4421L188.532 57.5222L188.575 57.6125L188.617 57.7028L188.66 57.7932L188.703 57.8836L188.745 57.9741L188.788 58.0646L188.83 58.1551L188.862 58.2223L188.9 58.3019L188.942 58.3926L188.984 58.4833L189.026 58.574L189.068 58.6648L189.109 58.7556L189.151 58.8465L189.192 58.9374L189.224 59.0057L189.261 59.0848L189.302 59.1759L189.343 59.2669L189.384 59.358L189.425 59.4492L189.467 59.5404L189.507 59.6316L189.548 59.7229L189.58 59.7922L189.615 59.8709L189.656 59.9623L189.696 60.0537L189.736 60.1451L189.777 60.2366L189.817 60.3281L189.857 60.4197L189.897 60.5114L189.928 60.5818L189.963 60.66L190.002 60.7517L190.042 60.8435L190.082 60.9353L190.121 61.0271L190.16 61.119L190.2 61.2109L190.239 61.3028L190.27 61.3743L190.303 61.452L190.342 61.5441L190.381 61.6362L190.42 61.7283L190.459 61.8205L190.497 61.9127L190.536 62.005L190.574 62.0973L190.605 62.1698L190.637 62.247L190.675 62.3394L190.713 62.4319L190.751 62.5243L190.789 62.6168L190.827 62.7094L190.865 62.802L190.902 62.8946L190.932 62.9683L190.964 63.0449L191.001 63.1376L191.038 63.2304L191.076 63.3232L191.113 63.416L191.15 63.5089L191.187 63.6018L191.223 63.6948L191.253 63.7695L191.284 63.8456L191.32 63.9387L191.357 64.0317L191.393 64.1249L191.429 64.218L191.466 64.3112L191.502 64.4044L191.538 64.4977L191.567 64.5735L191.597 64.6491L191.632 64.7424L191.668 64.8358L191.704 64.9293L191.739 65.0227L191.774 65.1162L191.81 65.2098L191.845 65.3034L191.874 65.3802L191.902 65.4553L191.937 65.5489L191.972 65.6426L192.007 65.7364L192.042 65.8301L192.076 65.9239L192.111 66.0178L192.145 66.1116L192.174 66.1896L192.201 66.2641L192.235 66.358L192.269 66.452L192.303 66.5461L192.337 66.6401L192.371 66.7343L192.405 66.8284L192.438 66.9226L192.466 67.0016L192.493 67.0754L192.526 67.1697L192.56 67.264L192.593 67.3584L192.626 67.4527L192.659 67.5471L192.691 67.6415L192.724 67.736L192.752 67.8161L192.778 67.8894L192.81 67.984L192.843 68.0785L192.875 68.1731L192.907 68.2678L192.939 68.3625L192.971 68.4572L193.003 68.5519L193.031 68.6331L193.055 68.7058L193.087 68.8006L193.118 68.8954L193.15 68.9904L193.181 69.0853L193.213 69.1802L193.244 69.2752L193.275 69.3703L193.302 69.4525L193.326 69.5246L193.356 69.6197L193.387 69.7148L193.418 69.81L193.448 69.9052L193.479 70.0004L193.509 70.0957L193.539 70.191L193.566 70.2743L193.589 70.3457L193.619 70.4411L193.649 70.5365L193.678 70.6319L193.708 70.7274L193.738 70.8229L193.767 70.9184L193.797 71.014L193.823 71.0983L193.845 71.1692L193.874 71.2648L193.903 71.3605L193.932 71.4561L193.961 71.5519L193.99 71.6476L194.018 71.7434L194.047 71.8392L194.072 71.9246L194.093 71.9948L194.122 72.0907L194.15 72.1866L194.178 72.2825L194.206 72.3785L194.234 72.4745L194.262 72.5705L194.29 72.6666L194.315 72.7531L194.335 72.8226L194.362 72.9187L194.39 73.0149L194.417 73.1111L194.444 73.2073L194.471 73.3035L194.498 73.3998L194.525 73.4961L194.55 73.5836L194.569 73.6525L194.596 73.7489L194.622 73.8452L194.649 73.9417L194.675 74.0381L194.701 74.1346L194.727 74.2311L194.753 74.3276L194.777 74.4162L194.796 74.4844L194.822 74.581L194.847 74.6777L194.873 74.7743L194.899 74.871L194.924 74.9677L194.949 75.0644L194.974 75.1612L194.998 75.2508L195.015 75.3183L195.04 75.4151L195.065 75.512L195.09 75.6089L195.115 75.7058L195.139 75.8027L195.164 75.8996L195.188 75.9966L195.211 76.0873L195.228 76.1541L195.252 76.2512L195.276 76.3482L195.3 76.4453L195.323 76.5424L195.347 76.6396L195.371 76.7367L195.394 76.8339L195.416 76.9256L195.432 76.9918L195.456 77.089L195.479 77.1863L195.502 77.2836L195.525 77.3809L195.548 77.4782L195.57 77.5756L195.593 77.673L195.615 77.7657L195.63 77.8312L195.652 77.9287L195.675 78.0261L195.697 78.1236L195.719 78.2212L195.741 78.3187L195.763 78.4162L195.784 78.5138L195.805 78.6076L195.82 78.6724L195.841 78.77L195.863 78.8677L195.884 78.9654L195.905 79.0631L195.926 79.1608L195.947 79.2585L195.968 79.3563L195.989 79.4511L196.002 79.5152L196.023 79.613L196.044 79.7108L196.064 79.8087L196.084 79.9066L196.105 80.0045L196.125 80.1024L196.145 80.2004L196.164 80.2962L196.177 80.3595L196.197 80.4575L196.217 80.5555L196.237 80.6536L196.256 80.7517L196.275 80.8497L196.295 80.9478L196.314 81.046L196.333 81.1428L196.345 81.2054L196.364 81.3036L196.383 81.4018L196.402 81.5L196.42 81.5982L196.439 81.6964L196.457 81.7947L196.475 81.893L196.494 81.9908L196.505 82.0527L196.523 82.1511L196.541 82.2494L196.559 82.3478L196.577 82.4462L196.595 82.5446L196.612 82.643L196.63 82.7415L196.647 82.8399L196.658 82.9018L196.675 83L196.692 83.0985L196.709 83.197L196.726 83.2956L196.743 83.3941L196.76 83.4927L196.776 83.5913L196.793 83.6899L196.803 83.7527L196.819 83.8502L196.836 83.9488L196.852 84.0475L196.868 84.1462L196.884 84.2449L196.899 84.3436L196.915 84.4424L196.931 84.5411L196.941 84.6049L196.956 84.7016L196.971 84.8004L196.987 84.8992L197.002 84.998L197.017 85.0969L197.032 85.1957L197.047 85.2946L197.061 85.3935L197.071 85.4582L197.085 85.5542L197.1 85.6532L197.114 85.7521L197.128 85.8511L197.142 85.95L197.157 86.049L197.171 86.148L197.184 86.247L197.194 86.3127L197.207 86.408L197.22 86.507L197.234 86.6061L197.247 86.7052L197.261 86.8043L197.274 86.9034L197.287 87.0025L197.3 87.1016L197.309 87.1682L197.321 87.2627L197.334 87.3619L197.346 87.4611L197.359 87.5603L197.371 87.6595L197.384 87.7587L197.396 87.858L197.408 87.9572L197.416 88.0247L197.427 88.1185L197.439 88.2178L197.451 88.3171L197.463 88.4164L197.474 88.5157L197.486 88.615L197.497 88.7144L197.508 88.8137L197.516 88.8822L197.526 88.9752L197.537 89.0746L197.548 89.174L197.559 89.2734L197.57 89.3728L197.58 89.4722L197.591 89.5716L197.601 89.6711L197.608 89.7405L197.618 89.8327L197.628 89.9322L197.638 90.0317L197.648 90.1311L197.657 90.2306L197.667 90.3301L197.677 90.4297L197.686 90.5292L197.693 90.5995L197.701 90.691L197.71 90.7905L197.72 90.8901L197.729 90.9897L197.737 91.0892L197.746 91.1889L197.755 91.2884L197.764 91.388L197.77 91.4593L197.777 91.5499L197.786 91.6496L197.794 91.7492L197.802 91.8489L197.81 91.9486L197.818 92.0482L197.826 92.1479L197.834 92.2476L197.839 92.3197L197.846 92.4096L197.853 92.5093L197.861 92.609L197.868 92.7087L197.875 92.8084L197.882 92.9082L197.889 93.0079L197.896 93.1077L197.901 93.1807L197.907 93.2698L197.913 93.3695L197.92 93.4693L197.926 93.5691L197.932 93.6689L197.939 93.7687L197.945 93.8685L197.951 93.9683L197.955 94.0422L197.96 94.1305L197.966 94.2303L197.971 94.3301L197.977 94.4299L197.982 94.5298L197.987 94.6296L197.993 94.7294L197.998 94.8293L198.001 94.9041L198.006 94.9916L198.01 95.0915L198.015 95.1913L198.02 95.2912L198.024 95.3911L198.029 95.4909L198.033 95.5908L198.037 95.6907L198.04 95.7664L198.044 95.8531L198.048 95.953L198.051 96.0529L198.055 96.1528L198.059 96.2527L198.062 96.3526L198.066 96.4525L198.069 96.5525L198.071 96.6291L198.074 96.7148L198.077 96.8148L198.08 96.9147L198.083 97.0146L198.086 97.1146L198.088 97.2145L198.091 97.3145L198.093 97.4144L198.095 97.4919L198.097 97.5769L198.099 97.6768L198.101 97.7768L198.103 97.8767L198.105 97.9767L198.107 98.0767L198.108 98.1766L198.11 98.2766L198.111 98.3549L198.112 98.439L198.113 98.539L198.114 98.639L198.116 98.739L198.117 98.8389L198.117 98.9389L198.118 99.0389L198.119 99.1388L198.119 99.2181L198.119 99.3013L198.12 99.4012L198.12 99.5012L198.12 99.6012L198.12 99.7012V99.8012L198.12 99.9012L198.12 100.001L198.12 100.081L198.119 100.164L198.119 100.264L198.118 100.364L198.118 100.464L198.117 100.564L198.116 100.664L198.115 100.763L198.114 100.863L198.113 100.944L198.111 101.026L198.11 101.126L198.109 101.226L198.107 101.326L198.105 101.426L198.104 101.526L198.102 101.626L198.1 101.726L198.098 101.807L198.096 101.888L198.094 101.988L198.092 102.088L198.089 102.188L198.087 102.288L198.084 102.388L198.081 102.488L198.078 102.588L198.076 102.67L198.073 102.75L198.07 102.85L198.067 102.95L198.063 103.05L198.06 103.15L198.057 103.25L198.053 103.35L198.049 103.449L198.046 103.533L198.042 103.612L198.039 103.712L198.034 103.812L198.03 103.911L198.026 104.011L198.022 104.111L198.017 104.211L198.013 104.311L198.008 104.395L198.004 104.473L197.999 104.573L197.994 104.673L197.989 104.773L197.984 104.873L197.979 104.972L197.974 105.072L197.968 105.172L197.963 105.257L197.958 105.334L197.953 105.434L197.947 105.534L197.941 105.634L197.935 105.733L197.929 105.833L197.923 105.933L197.916 106.033L197.91 106.119L197.905 106.195L197.898 106.295L197.892 106.394L197.885 106.494L197.878 106.594L197.871 106.693L197.864 106.793L197.857 106.893L197.85 106.98L197.844 107.055L197.837 107.155L197.829 107.254L197.821 107.354L197.813 107.454L197.806 107.553L197.798 107.653L197.79 107.753L197.782 107.84L197.775 107.914L197.767 108.014L197.759 108.114L197.75 108.213L197.741 108.313L197.733 108.412L197.724 108.512L197.715 108.612L197.706 108.7L197.699 108.773L197.69 108.873L197.681 108.972L197.671 109.072L197.662 109.171L197.652 109.271L197.642 109.37L197.632 109.47L197.623 109.559L197.615 109.631L197.605 109.731L197.595 109.83L197.585 109.93L197.574 110.029L197.564 110.129L197.553 110.228L197.542 110.327L197.532 110.417L197.524 110.489L197.513 110.588L197.502 110.687L197.491 110.787L197.479 110.886L197.468 110.985L197.457 111.085L197.445 111.184L197.434 111.275L197.425 111.345L197.413 111.444L197.401 111.544L197.389 111.643L197.377 111.742L197.365 111.841L197.352 111.941L197.34 112.04L197.328 112.131L197.318 112.201L197.306 112.3L197.293 112.399L197.28 112.498L197.267 112.597L197.254 112.696L197.24 112.795L197.227 112.895L197.214 112.987L197.204 113.055L197.191 113.154L197.177 113.253L197.163 113.352L197.149 113.451L197.135 113.55L197.121 113.649L197.107 113.748L197.093 113.841L197.083 113.909L197.068 114.008L197.053 114.107L197.039 114.206L197.024 114.304L197.009 114.403L196.994 114.502L196.979 114.601L196.965 114.695L196.953 114.761L196.938 114.86L196.923 114.959L196.907 115.058L196.891 115.156L196.876 115.255L196.86 115.354L196.844 115.452L196.828 115.547L196.817 115.613L196.8 115.711L196.784 115.81L196.768 115.908L196.751 116.007L196.734 116.106L196.718 116.204L196.701 116.303L196.684 116.398L196.672 116.463L196.655 116.561L196.638 116.66L196.621 116.758L196.603 116.856L196.586 116.955L196.568 117.053L196.55 117.152L196.533 117.247L196.52 117.311L196.502 117.41L196.484 117.508L196.466 117.606L196.448 117.704L196.43 117.803L196.411 117.901L196.393 117.999L196.374 118.096L196.361 118.158L196.342 118.257L196.323 118.355L196.304 118.453L196.285 118.551L196.266 118.649L196.247 118.747L196.227 118.845L196.208 118.942L196.194 119.004L196.175 119.102L196.155 119.2L196.135 119.298L196.115 119.396L196.095 119.494L196.075 119.592L196.055 119.69L196.034 119.788L196.02 119.849L196 119.946L195.979 120.044L195.958 120.142L195.937 120.24L195.916 120.337L195.895 120.435L195.874 120.533L195.853 120.631L195.838 120.692L195.817 120.789L195.796 120.887L195.774 120.984L195.752 121.082L195.73 121.179L195.709 121.277L195.687 121.374L195.664 121.472L195.649 121.534L195.627 121.63L195.605 121.727L195.582 121.825L195.56 121.922L195.537 122.019L195.514 122.117L195.491 122.214L195.468 122.311L195.452 122.374L195.43 122.469L195.407 122.566L195.383 122.663L195.36 122.76L195.336 122.858L195.313 122.955L195.289 123.052L195.265 123.149L195.248 123.213L195.225 123.306L195.201 123.403L195.177 123.5L195.152 123.597L195.128 123.694L195.104 123.791L195.079 123.888L195.054 123.985L195.037 124.049L195.013 124.142L194.988 124.239L194.963 124.335L194.938 124.432L194.913 124.529L194.887 124.625L194.862 124.722L194.836 124.819L194.818 124.884L194.793 124.975L194.768 125.072L194.742 125.168L194.716 125.265L194.69 125.361L194.664 125.458L194.637 125.554L194.611 125.651L194.592 125.716L194.567 125.807L194.54 125.903L194.513 126L194.487 126.096L194.46 126.192L194.433 126.288L194.406 126.385L194.378 126.481L194.358 126.547L194.333 126.637L194.305 126.733L194.278 126.829L194.25 126.925L194.222 127.021L194.194 127.117L194.166 127.213L194.138 127.309L194.118 127.376L194.091 127.464L194.063 127.56L194.035 127.656L194.006 127.752L193.977 127.847L193.949 127.943L193.92 128.039L193.891 128.134L193.869 128.202L193.843 128.289L193.813 128.385L193.784 128.481L193.755 128.576L193.726 128.672L193.696 128.767L193.666 128.863L193.637 128.958L193.614 129.026L193.587 129.113L193.557 129.208L193.527 129.303L193.497 129.398L193.466 129.494L193.436 129.589L193.406 129.684L193.375 129.779L193.352 129.848L193.324 129.933L193.293 130.028L193.262 130.123L193.231 130.218L193.2 130.313L193.169 130.408L193.138 130.503L193.106 130.598L193.082 130.668L193.054 130.752L193.022 130.847L192.99 130.941L192.958 131.036L192.927 131.131L192.895 131.225L192.862 131.32L192.83 131.415L192.805 131.485L192.776 131.568L192.744 131.662L192.711 131.757L192.679 131.851L192.646 131.946L192.613 132.04L192.58 132.134L192.547 132.229L192.521 132.299L192.492 132.381L192.459 132.476L192.425 132.57L192.392 132.664L192.358 132.758L192.325 132.852L192.291 132.946L192.257 133.04L192.23 133.112L192.2 133.192L192.166 133.286L192.132 133.38L192.098 133.474L192.063 133.568L192.029 133.662L191.994 133.756L191.96 133.849L191.932 133.921L191.902 134.001L191.867 134.095L191.832 134.188L191.797 134.282L191.762 134.375L191.726 134.469L191.691 134.562L191.655 134.656L191.627 134.728L191.596 134.807L191.56 134.9L191.525 134.993L191.489 135.087L191.453 135.18L191.417 135.273L191.38 135.366L191.344 135.459L191.315 135.532L191.283 135.61L191.247 135.703L191.21 135.796L191.174 135.889L191.137 135.982L191.1 136.075L191.063 136.167L191.026 136.26L190.995 136.334L190.964 136.41L190.927 136.503L190.889 136.596L190.852 136.688L190.814 136.781L190.776 136.873L190.739 136.966L190.701 137.058L190.669 137.132L190.637 137.208L190.599 137.3L190.561 137.393L190.523 137.485L190.484 137.577L190.446 137.669L190.407 137.761L190.369 137.854L190.336 137.928L190.304 138.003L190.265 138.095L190.226 138.187L190.187 138.279L190.148 138.37L190.108 138.462L190.069 138.554L190.03 138.646L189.996 138.721L189.964 138.794L189.924 138.886L189.884 138.978L189.844 139.069L189.804 139.161L189.764 139.252L189.724 139.344L189.684 139.435L189.649 139.511L189.616 139.583L189.576 139.674L189.535 139.766L189.495 139.857L189.454 139.948L189.413 140.039L189.372 140.13L189.331 140.221L189.296 140.298L189.262 140.369L189.221 140.46L189.18 140.551L189.138 140.641L189.097 140.732L189.055 140.823L189.013 140.914L188.972 141.005L188.935 141.081L188.902 141.151L188.86 141.242L188.817 141.332L188.775 141.423L188.733 141.514L188.69 141.604L188.648 141.694L188.605 141.785L188.568 141.862L188.534 141.931L188.491 142.021L188.448 142.111L188.405 142.201L188.362 142.291L188.319 142.382L188.276 142.472L188.232 142.562L188.194 142.639L188.16 142.707L188.116 142.797L188.073 142.887L188.029 142.976L187.985 143.066L187.941 143.156L187.897 143.246L187.853 143.335L187.814 143.413L187.779 143.48L187.735 143.569L187.69 143.659L187.646 143.748L187.601 143.838L187.556 143.927L187.512 144.016L187.467 144.105L187.426 144.184L187.392 144.249L187.347 144.339L187.301 144.428L187.256 144.517L187.21 144.606L187.165 144.695L187.119 144.783L187.074 144.872L187.032 144.951L186.998 145.016L186.952 145.104L186.906 145.193L186.86 145.282L186.813 145.37L186.767 145.459L186.721 145.547L186.674 145.636L186.632 145.715L186.597 145.778L186.55 145.867L186.503 145.955L186.457 146.043L186.41 146.132L186.363 146.22L186.316 146.308L186.268 146.396L186.225 146.476L186.19 146.538L186.142 146.626L186.095 146.714L186.047 146.801L185.999 146.889L185.952 146.977L185.904 147.065L185.856 147.152L185.811 147.232L185.776 147.294L185.728 147.381L185.68 147.469L185.631 147.556L185.583 147.643L185.534 147.731L185.486 147.818L185.437 147.905L185.391 147.986L185.356 148.046L185.307 148.133L185.258 148.22L185.209 148.307L185.16 148.394L185.11 148.481L185.061 148.568L185.012 148.654L184.965 148.735L184.929 148.794L184.88 148.881L184.83 148.968L184.78 149.054L184.73 149.141L184.68 149.227L184.63 149.314L184.58 149.4L184.532 149.481L184.496 149.539L184.446 149.625L184.395 149.712L184.345 149.798L184.294 149.884L184.243 149.97L184.193 150.056L184.142 150.142L184.093 150.224L184.057 150.28L184.006 150.366L183.955 150.452L183.903 150.538L183.852 150.623L183.8 150.709L183.749 150.794L183.697 150.88L183.647 150.962L183.611 151.018L183.559 151.103L183.507 151.188L183.455 151.274L183.403 151.359L183.351 151.444L183.299 151.529L183.247 151.614L183.196 151.697L183.159 151.751L183.107 151.836L183.054 151.921L183.001 152.006L182.949 152.091L182.896 152.175L182.843 152.26L182.79 152.345L182.737 152.427L182.701 152.481L182.648 152.565L182.595 152.65L182.541 152.734L182.488 152.818L182.434 152.903L182.38 152.987L182.326 153.071L182.273 153.154L182.237 153.206L182.183 153.29L182.129 153.374L182.075 153.458L182.02 153.542L181.966 153.626L181.912 153.71L181.857 153.793L181.803 153.877L181.766 153.928L181.712 154.012L181.657 154.095L181.602 154.179L181.547 154.262L181.492 154.345L181.437 154.429L181.382 154.512L181.326 154.595L181.29 154.646L181.234 154.729L181.179 154.812L181.123 154.895L181.068 154.978L181.012 155.061L180.956 155.143L180.9 155.226L180.844 155.309L180.807 155.36L180.751 155.442L180.695 155.524L180.638 155.607L180.582 155.689L180.526 155.772L180.469 155.854L180.413 155.936L180.356 156.019L180.317 156.07L180.262 156.151L180.205 156.233L180.148 156.315L180.091 156.397L180.034 156.479L179.976 156.561L179.919 156.642L179.862 156.724L179.822 156.776L179.766 156.856L179.709 156.937L179.651 157.019L179.593 157.1L179.535 157.181L179.477 157.263L179.419 157.344L179.361 157.425L179.321 157.478L179.265 157.556L179.207 157.637L179.148 157.718L179.09 157.799L179.031 157.88L178.973 157.961L178.914 158.042L178.855 158.122L178.814 158.175L178.758 158.252L178.699 158.333L178.64 158.413L178.58 158.494L178.521 158.574L178.462 158.654L178.403 158.735L178.343 158.815L178.301 158.868L178.244 158.944L178.185 159.024L178.125 159.104L178.065 159.184L178.005 159.264L177.945 159.344L177.885 159.424L177.825 159.503L177.782 159.557L177.725 159.631L177.665 159.711L177.605 159.791L177.544 159.87L177.484 159.949L177.423 160.029L177.362 160.108L177.302 160.187L177.258 160.241L177.201 160.314L177.14 160.394L177.079 160.473L177.017 160.551L176.956 160.63L176.895 160.709L176.833 160.788L176.772 160.867L176.727 160.921L176.67 160.993L176.608 161.072L176.547 161.15L176.485 161.228L176.423 161.307L176.361 161.385L176.299 161.463L176.237 161.542L176.191 161.596L176.134 161.667L176.072 161.745L176.009 161.823L175.947 161.901L175.884 161.979L175.821 162.057L175.759 162.134L175.696 162.212L175.649 162.267L175.592 162.336L175.529 162.414L175.466 162.491L175.403 162.569L175.34 162.646L175.276 162.723L175.213 162.801L175.15 162.878L175.102 162.933L175.044 163.001L174.981 163.078L174.917 163.155L174.853 163.232L174.789 163.309L174.726 163.386L174.662 163.462L174.597 163.539L174.549 163.594L174.491 163.662L174.427 163.738L174.363 163.814L174.298 163.891L174.234 163.967L174.169 164.043L174.105 164.119L174.04 164.195L173.99 164.251L173.933 164.317L173.868 164.393L173.803 164.469L173.738 164.544L173.673 164.62L173.607 164.696L173.542 164.771L173.477 164.847L173.426 164.903L173.368 164.968L173.303 165.043L173.237 165.118L173.172 165.194L173.106 165.269L173.04 165.344L172.974 165.419L172.908 165.494L172.856 165.55L172.799 165.614L172.733 165.688L172.666 165.763L172.6 165.838L172.534 165.912L172.467 165.987L172.401 166.061L172.334 166.136L172.281 166.192L172.224 166.255L172.157 166.329L172.09 166.403L172.023 166.477L171.956 166.551L171.889 166.625L171.822 166.699L171.755 166.773L171.701 166.83L171.643 166.891L171.576 166.965L171.508 167.038L171.441 167.112L171.373 167.185L171.305 167.258L171.238 167.332L171.17 167.405L171.115 167.462L171.058 167.522L170.989 167.595L170.921 167.668L170.853 167.741L170.785 167.814L170.717 167.887L170.648 167.96L170.58 168.032L170.524 168.09L170.466 168.148L170.398 168.221L170.329 168.293L170.26 168.366L170.191 168.438L170.123 168.51L170.054 168.582L169.984 168.655L169.928 168.712L169.87 168.77L169.801 168.842L169.732 168.914L169.662 168.985L169.593 169.057L169.523 169.129L169.454 169.2L169.384 169.272L169.326 169.329L169.269 169.386L169.199 169.457L169.129 169.529L169.059 169.6L168.989 169.671L168.919 169.742L168.848 169.813L168.778 169.884L168.719 169.942L168.662 169.997L168.592 170.068L168.521 170.139L168.45 170.209L168.38 170.28L168.309 170.35L168.238 170.421L168.167 170.491L168.107 170.549L168.05 170.603L167.979 170.673L167.908 170.743L167.837 170.813L167.766 170.883L167.694 170.953L167.623 171.023L167.552 171.093L167.49 171.151L167.433 171.204L167.362 171.274L167.29 171.343L167.218 171.412L167.146 171.482L167.075 171.551L167.003 171.62L166.931 171.689L166.868 171.747L166.812 171.8L166.739 171.869L166.667 171.937L166.595 172.006L166.522 172.075L166.45 172.144L166.377 172.212L166.305 172.281L166.241 172.339L166.185 172.39L166.112 172.458L166.039 172.526L165.966 172.595L165.893 172.663L165.82 172.731L165.747 172.799L165.674 172.867L165.609 172.925L165.553 172.975L165.479 173.043L165.406 173.11L165.333 173.178L165.259 173.245L165.185 173.313L165.112 173.38L165.038 173.447L164.973 173.506L164.916 173.555L164.842 173.622L164.768 173.689L164.694 173.756L164.62 173.822L164.546 173.889L164.472 173.956L164.397 174.023L164.331 174.081L164.275 174.129L164.2 174.195L164.126 174.262L164.051 174.328L163.976 174.394L163.902 174.46L163.827 174.527L163.752 174.593L163.684 174.651L163.628 174.698L163.553 174.764L163.478 174.829L163.403 174.895L163.328 174.961L163.252 175.026L163.177 175.092L163.102 175.157L163.033 175.216L162.977 175.261L162.902 175.326L162.826 175.391L162.75 175.456L162.674 175.521L162.599 175.586L162.523 175.651L162.447 175.716L162.377 175.774L162.321 175.819L162.245 175.883L162.169 175.948L162.093 176.012L162.017 176.077L161.94 176.141L161.864 176.205L161.787 176.269L161.716 176.328L161.661 176.371L161.584 176.435L161.507 176.499L161.431 176.563L161.354 176.626L161.277 176.69L161.2 176.753L161.123 176.817L161.051 176.876L160.996 176.918L160.919 176.981L160.841 177.044L160.764 177.107L160.687 177.17L160.609 177.233L160.532 177.296L160.454 177.359L160.381 177.418L160.326 177.459L160.248 177.521L160.171 177.584L160.093 177.647L160.015 177.709L159.937 177.771L159.859 177.833L159.781 177.896L159.707 177.954L159.652 177.994L159.574 178.056L159.495 178.118L159.417 178.18L159.339 178.242L159.26 178.303L159.182 178.365L159.103 178.426L159.028 178.485L158.973 178.524L158.895 178.585L158.816 178.646L158.737 178.708L158.658 178.769L158.579 178.83L158.5 178.891L158.421 178.951L158.344 179.01L158.29 179.048L158.211 179.108L158.132 179.169L158.052 179.229L157.973 179.29L157.893 179.35L157.814 179.41L157.734 179.471L157.656 179.529L157.603 179.566L157.523 179.626L157.443 179.686L157.363 179.746L157.283 179.805L157.203 179.865L157.123 179.925L157.043 179.984L156.964 180.042L156.911 180.078L156.831 180.137L156.75 180.197L156.67 180.256L156.59 180.315L156.509 180.374L156.429 180.433L156.348 180.492L156.268 180.55L156.215 180.585L156.134 180.643L156.053 180.702L155.972 180.76L155.892 180.819L155.811 180.877L155.729 180.935L155.648 180.993L155.567 181.051L155.515 181.085L155.433 181.143L155.352 181.201L155.271 181.259L155.189 181.316L155.108 181.374L155.026 181.431L154.945 181.489L154.863 181.546L154.81 181.58L154.728 181.637L154.647 181.694L154.565 181.751L154.483 181.808L154.401 181.865L154.319 181.922L154.237 181.979L154.155 182.035L154.1 182.069L154.019 182.125L153.937 182.181L153.855 182.238L153.772 182.294L153.69 182.35L153.607 182.406L153.525 182.462L153.442 182.518L153.387 182.552L153.306 182.607L153.223 182.662L153.141 182.718L153.058 182.774L152.975 182.829L152.892 182.885L152.809 182.94L152.726 182.995L152.669 183.03L152.589 183.083L152.506 183.138L152.422 183.193L152.339 183.248L152.256 183.302L152.172 183.357L152.089 183.412L152.005 183.466L151.948 183.5L151.868 183.552L151.784 183.607L151.7 183.661L151.616 183.715L151.533 183.769L151.449 183.823L151.365 183.877L151.281 183.931L151.222 183.965L151.142 184.016L151.058 184.07L150.974 184.123L150.89 184.177L150.806 184.23L150.721 184.283L150.637 184.337L150.552 184.39L150.493 184.424L150.413 184.473L150.329 184.526L150.244 184.579L150.159 184.632L150.075 184.685L149.99 184.737L149.905 184.79L149.82 184.842L149.76 184.876L149.681 184.925L149.596 184.977L149.51 185.029L149.425 185.081L149.34 185.133L149.255 185.185L149.17 185.237L149.084 185.288L149.023 185.322L148.944 185.37L148.858 185.421L148.773 185.472L148.687 185.524L148.602 185.575L148.516 185.626L148.43 185.677L148.345 185.728L148.282 185.762L148.204 185.808L148.118 185.859L148.032 185.91L147.946 185.96L147.86 186.011L147.774 186.061L147.688 186.112L147.601 186.162L147.538 186.196L147.46 186.241L147.373 186.291L147.287 186.341L147.2 186.391L147.114 186.44L147.027 186.49L146.941 186.54L146.854 186.589L146.79 186.623L146.712 186.667L146.625 186.716L146.538 186.765L146.451 186.814L146.365 186.864L146.278 186.913L146.191 186.961L146.104 187.01L146.039 187.044L145.961 187.087L145.873 187.135L145.786 187.184L145.699 187.232L145.612 187.28L145.524 187.329L145.437 187.377L145.35 187.425L145.283 187.459L145.206 187.5L145.118 187.548L145.031 187.595L144.943 187.643L144.855 187.691L144.768 187.738L144.68 187.786L144.592 187.833L144.525 187.867L144.448 187.907L144.36 187.954L144.272 188.001L144.184 188.048L144.096 188.095L144.007 188.141L143.919 188.188L143.831 188.235L143.763 188.268L143.686 188.307L143.598 188.354L143.509 188.4L143.421 188.446L143.332 188.492L143.244 188.538L143.155 188.584L143.067 188.63L142.997 188.663L142.921 188.701L142.832 188.747L142.743 188.792L142.655 188.838L142.566 188.883L142.477 188.928L142.388 188.973L142.299 189.018L142.229 189.052L142.153 189.089L142.064 189.133L141.974 189.178L141.885 189.223L141.796 189.267L141.707 189.312L141.617 189.356L141.528 189.4L141.457 189.434L141.381 189.469L141.292 189.513L141.202 189.557L141.113 189.601L141.023 189.645L140.933 189.689L140.844 189.732L140.754 189.776L140.682 189.809L140.606 189.844L140.517 189.887L140.427 189.93L140.337 189.973L140.247 190.016L140.157 190.059L140.067 190.102L139.977 190.145L139.903 190.178L139.829 190.211L139.738 190.254L139.648 190.296L139.558 190.339L139.467 190.381L139.377 190.423L139.287 190.465L139.196 190.507L139.122 190.54L139.048 190.572L138.957 190.614L138.866 190.656L138.776 190.697L138.685 190.739L138.594 190.78L138.503 190.821L138.413 190.863L138.337 190.895L138.264 190.926L138.173 190.967L138.082 191.008L137.991 191.049L137.9 191.09L137.809 191.131L137.717 191.171L137.626 191.212L137.55 191.244L137.477 191.274L137.385 191.314L137.294 191.354L137.203 191.394L137.111 191.434L137.02 191.474L136.928 191.514L136.837 191.554L136.76 191.586L136.687 191.615L136.595 191.654L136.504 191.694L136.412 191.733L136.32 191.772L136.228 191.811L136.137 191.85L136.045 191.889L135.966 191.921L135.894 191.949L135.802 191.988L135.71 192.026L135.618 192.065L135.526 192.103L135.434 192.141L135.342 192.18L135.25 192.218L135.17 192.249L135.099 192.276L135.006 192.314L134.914 192.352L134.822 192.39L134.729 192.427L134.637 192.465L134.544 192.502L134.452 192.54L134.371 192.571L134.3 192.597L134.208 192.634L134.115 192.671L134.022 192.708L133.93 192.745L133.837 192.781L133.744 192.818L133.651 192.855L133.57 192.885L133.499 192.911L133.406 192.947L133.314 192.983L133.221 193.019L133.128 193.055L133.035 193.091L132.941 193.127L132.848 193.163L132.766 193.193L132.696 193.217L132.603 193.253L132.509 193.288L132.416 193.324L132.323 193.359L132.229 193.394L132.136 193.429L132.043 193.464L131.959 193.494L131.89 193.517L131.796 193.552L131.703 193.587L131.609 193.621L131.515 193.656L131.422 193.69L131.328 193.724L131.235 193.758L131.15 193.788L131.081 193.81L130.987 193.844L130.893 193.878L130.8 193.912L130.706 193.946L130.612 193.979L130.518 194.012L130.424 194.046L130.338 194.075L130.27 194.097L130.176 194.13L130.082 194.163L129.988 194.196L129.893 194.228L129.799 194.261L129.705 194.294L129.611 194.326L129.524 194.355L129.456 194.376L129.362 194.408L129.268 194.44L129.173 194.472L129.079 194.504L128.984 194.536L128.89 194.568L128.795 194.6L128.708 194.629L128.64 194.648L128.546 194.679L128.451 194.711L128.357 194.742L128.262 194.773L128.167 194.804L128.072 194.836L127.978 194.866L127.889 194.895L127.822 194.913L127.727 194.944L127.633 194.974L127.538 195.005L127.443 195.035L127.348 195.066L127.253 195.096L127.158 195.126L127.068 195.154L127.002 195.171L126.907 195.201L126.812 195.231L126.717 195.261L126.621 195.29L126.526 195.32L126.431 195.349L126.336 195.379L126.245 195.406L126.18 195.423L126.084 195.452L125.989 195.481L125.893 195.509L125.798 195.538L125.702 195.567L125.607 195.596L125.511 195.624L125.42 195.651L125.355 195.667L125.259 195.695L125.164 195.723L125.068 195.751L124.972 195.779L124.877 195.807L124.781 195.835L124.685 195.863L124.592 195.889L124.528 195.904L124.433 195.931L124.337 195.959L124.241 195.986L124.145 196.013L124.049 196.04L123.953 196.067L123.857 196.094L123.763 196.12L123.7 196.134L123.604 196.16L123.508 196.187L123.411 196.213L123.315 196.24L123.219 196.266L123.123 196.292L123.027 196.318L122.932 196.344L122.869 196.357L122.773 196.383L122.677 196.408L122.58 196.434L122.484 196.459L122.388 196.485L122.291 196.51L122.195 196.535L122.099 196.56L122.037 196.573L121.94 196.597L121.844 196.622L121.747 196.647L121.651 196.672L121.554 196.697L121.458 196.721L121.361 196.745L121.264 196.77L121.203 196.781L121.106 196.805L121.009 196.83L120.913 196.853L120.816 196.877L120.719 196.901L120.622 196.925L120.525 196.948L120.428 196.972L120.366 196.983L120.27 197.006L120.173 197.029L120.076 197.053L119.979 197.076L119.882 197.099L119.785 197.121L119.688 197.144L119.591 197.167L119.527 197.178L119.432 197.2L119.335 197.222L119.238 197.244L119.141 197.267L119.044 197.289L118.946 197.311L118.849 197.333L118.752 197.355L118.688 197.365L118.593 197.386L118.496 197.408L118.398 197.429L118.301 197.451L118.204 197.472L118.106 197.493L118.009 197.514L117.911 197.535L117.846 197.546L117.752 197.566L117.655 197.586L117.557 197.607L117.46 197.627L117.362 197.648L117.264 197.668L117.167 197.689L117.069 197.709L117.003 197.719L116.91 197.738L116.812 197.758L116.714 197.777L116.617 197.797L116.519 197.817L116.421 197.836L116.324 197.856L116.226 197.875L116.159 197.885L116.066 197.903L115.968 197.922L115.87 197.941L115.773 197.96L115.675 197.978L115.577 197.997L115.479 198.016L115.381 198.034L115.313 198.044L115.221 198.06L115.123 198.079L115.025 198.097L114.927 198.115L114.829 198.133L114.731 198.151L114.633 198.168L114.535 198.186L114.466 198.195L114.375 198.211L114.276 198.228L114.178 198.246L114.08 198.263L113.982 198.28L113.884 198.297L113.786 198.314L113.687 198.331L113.617 198.34L113.527 198.354L113.429 198.371L113.33 198.387L113.232 198.404L113.134 198.42L113.036 198.436L112.937 198.452L112.839 198.468L112.768 198.477L112.678 198.49L112.58 198.506L112.481 198.522L112.383 198.537L112.285 198.553L112.186 198.568L112.088 198.584L111.989 198.599L111.917 198.607L111.828 198.619L111.73 198.634L111.631 198.649L111.533 198.664L111.434 198.678L111.336 198.693L111.237 198.707L111.138 198.722L111.066 198.729L110.977 198.741L110.879 198.755L110.78 198.769L110.681 198.783L110.583 198.797L110.484 198.811L110.385 198.824L110.287 198.838L110.213 198.845L110.126 198.856L110.027 198.869L109.928 198.882L109.829 198.895L109.73 198.908L109.632 198.921L109.533 198.934L109.434 198.946L109.36 198.953L109.273 198.963L109.174 198.975L109.075 198.988L108.976 199L108.877 199.012L108.778 199.024L108.679 199.036L108.58 199.048L108.505 199.054L108.419 199.063L108.32 199.075L108.336 199.07L108.36 199.065L108.385 199.059L108.409 199.053L108.433 199.047L108.458 199.041L108.505 199.03L108.543 199.021L108.567 199.015L108.591 199.009L108.615 199.002L108.64 198.996L108.664 198.989L108.688 198.983L108.712 198.976L108.758 198.964L108.797 198.954L108.821 198.947L108.845 198.94L108.869 198.933L108.893 198.926L108.917 198.919L108.941 198.911L108.965 198.904L109.01 198.892L109.049 198.881L109.073 198.874L109.097 198.866L109.121 198.858L109.145 198.85L109.168 198.842L109.192 198.834L109.216 198.825L109.26 198.813L109.3 198.801L109.324 198.793L109.348 198.784L109.371 198.776L109.395 198.767L109.419 198.758L109.442 198.749L109.466 198.74L109.509 198.728L109.55 198.715L109.573 198.706L109.597 198.697L109.62 198.687L109.644 198.678L109.667 198.668L109.691 198.658L109.714 198.649L109.756 198.636L109.798 198.622L109.821 198.612L109.844 198.602L109.868 198.592L109.891 198.582L109.914 198.572L109.937 198.561L109.961 198.551L110.002 198.537L110.044 198.523L110.067 198.512L110.09 198.501L110.113 198.49L110.136 198.479L110.16 198.468L110.183 198.457L110.206 198.446L110.246 198.432L110.289 198.417L110.312 198.405L110.335 198.394L110.358 198.382L110.38 198.37L110.403 198.359L110.426 198.347L110.449 198.335L110.488 198.32L110.532 198.305L110.555 198.292L110.577 198.28L110.6 198.267L110.623 198.255L110.646 198.242L110.668 198.23L110.691 198.217L110.729 198.202L110.773 198.185L110.796 198.172L110.819 198.159L110.841 198.146L110.864 198.133L110.886 198.119L110.909 198.106L110.931 198.092L110.968 198.077L111.013 198.06L111.036 198.046L111.058 198.032L111.08 198.018L111.103 198.004L111.125 197.99L111.148 197.976L111.17 197.961L111.206 197.945L111.252 197.928L111.274 197.913L111.296 197.898L111.318 197.884L111.34 197.869L111.363 197.854L111.385 197.839L111.407 197.824L111.442 197.807L111.488 197.789L111.51 197.774L111.532 197.758L111.554 197.743L111.576 197.727L111.598 197.712L111.62 197.696L111.642 197.68L111.676 197.663L111.723 197.644L111.745 197.628L111.767 197.612L111.789 197.595L111.81 197.579L111.832 197.563L111.854 197.546L111.876 197.529L111.909 197.512L111.956 197.492L111.978 197.475L112 197.458L112.021 197.441L112.043 197.424L112.065 197.407L112.086 197.39L112.108 197.372L112.14 197.354L112.188 197.334L112.209 197.316L112.231 197.299L112.252 197.281L112.274 197.263L112.295 197.245L112.317 197.227L112.338 197.209L112.369 197.19L112.418 197.169L112.439 197.151L112.46 197.132L112.482 197.114L112.503 197.095L112.524 197.077L112.545 197.058L112.566 197.039L112.596 197.019L112.646 196.998L112.667 196.979L112.688 196.96L112.709 196.94L112.73 196.921L112.751 196.902L112.772 196.882L112.793 196.862L112.822 196.842L112.872 196.82L112.893 196.8L112.914 196.78L112.935 196.76L112.956 196.74L112.977 196.72L112.998 196.7L113.018 196.679L113.046 196.659L113.097 196.636L113.118 196.615L113.139 196.595L113.159 196.574L113.18 196.553L113.2 196.532L113.221 196.511L113.242 196.49L113.268 196.468L113.32 196.445L113.341 196.424L113.361 196.403L113.381 196.381L113.402 196.359L113.422 196.338L113.443 196.316L113.463 196.294L113.489 196.272L113.541 196.248L113.562 196.226L113.582 196.204L113.602 196.182L113.622 196.159L113.642 196.137L113.663 196.114L113.683 196.092L113.707 196.069L113.761 196.045L113.781 196.022L113.801 195.999L113.821 195.976L113.841 195.953L113.861 195.93L113.881 195.906L113.901 195.883L113.924 195.859L113.978 195.835L113.998 195.811L114.018 195.788L114.038 195.764L114.057 195.74L114.077 195.716L114.097 195.692L114.117 195.668L114.139 195.644L114.194 195.618L114.213 195.594L114.233 195.57L114.253 195.545L114.272 195.521L114.292 195.496L114.312 195.471L114.331 195.446L114.352 195.421L114.408 195.396L114.427 195.371L114.447 195.346L114.466 195.32L114.485 195.295L114.505 195.27L114.524 195.244L114.544 195.218L114.564 195.193L114.62 195.167L114.639 195.141L114.658 195.115L114.677 195.089L114.697 195.063L114.716 195.037L114.735 195.01L114.754 194.984L114.773 194.958L114.83 194.931L114.863 194.891L114.919 194.826L114.976 194.762L115.032 194.698L115.089 194.634L115.145 194.57L115.202 194.505L115.258 194.441L115.314 194.403L115.371 194.349L115.427 194.285L115.483 194.22L115.54 194.156L115.596 194.091L115.652 194.026L115.708 193.961L115.765 193.896L115.821 193.857L115.877 193.804L115.933 193.739L115.989 193.674L116.045 193.609L116.101 193.544L116.157 193.479L116.213 193.413L116.269 193.348L116.325 193.308L116.381 193.255L116.437 193.189L116.493 193.124L116.549 193.058L116.604 192.993L116.66 192.927L116.716 192.862L116.772 192.796L116.828 192.754L116.883 192.702L116.939 192.636L116.995 192.57L117.05 192.504L117.106 192.438L117.161 192.372L117.217 192.306L117.272 192.24L117.328 192.196L117.383 192.145L117.439 192.078L117.494 192.012L117.55 191.945L117.605 191.879L117.66 191.812L117.716 191.746L117.771 191.679L117.826 191.635L117.881 191.584L117.937 191.517L117.992 191.45L118.047 191.383L118.102 191.316L118.157 191.249L118.212 191.182L118.267 191.115L118.322 191.07L118.377 191.019L118.432 190.951L118.487 190.884L118.542 190.817L118.597 190.749L118.652 190.682L118.707 190.615L118.762 190.547L118.817 190.5L118.871 190.45L118.926 190.382L118.981 190.314L119.036 190.247L119.09 190.179L119.145 190.111L119.199 190.043L119.254 189.975L119.309 189.927L119.363 189.877L119.418 189.809L119.472 189.741L119.527 189.672L119.581 189.604L119.635 189.536L119.69 189.468L119.744 189.399L119.798 189.35L119.853 189.3L119.907 189.232L119.961 189.163L120.015 189.094L120.07 189.026L120.124 188.957L120.178 188.888L120.232 188.82L120.286 188.769L120.34 188.72L120.394 188.651L120.448 188.582L120.502 188.513L120.556 188.444L120.61 188.374L120.664 188.305L120.718 188.236L120.772 188.184L120.825 188.135L120.879 188.066L120.933 187.996L120.987 187.927L121.04 187.857L121.094 187.788L121.147 187.718L121.201 187.649L121.255 187.595L121.308 187.547L121.362 187.477L121.415 187.407L121.469 187.337L121.522 187.268L121.575 187.198L121.629 187.128L121.682 187.058L121.735 187.003L121.789 186.955L121.842 186.885L121.895 186.814L121.948 186.744L122.002 186.674L122.055 186.603L122.108 186.533L122.161 186.462L122.214 186.407L122.267 186.359L122.32 186.288L122.373 186.218L122.426 186.147L122.479 186.076L122.532 186.005L122.585 185.935L122.637 185.864L122.69 185.806L122.743 185.759L122.796 185.688L122.848 185.617L122.901 185.546L122.954 185.475L123.006 185.404L123.059 185.332L123.111 185.261L123.164 185.203L123.216 185.156L123.269 185.084L123.321 185.013L123.374 184.941L123.426 184.87L123.478 184.798L123.531 184.726L123.583 184.655L123.635 184.595L123.687 184.549L123.74 184.477L123.792 184.405L123.844 184.333L123.896 184.261L123.948 184.189L124 184.117L124.052 184.045L124.104 183.984L124.156 183.938L124.208 183.865L124.26 183.793L124.312 183.721L124.364 183.648L124.415 183.576L124.467 183.503L124.519 183.431L124.57 183.368L124.622 183.323L124.674 183.25L124.725 183.178L124.777 183.105L124.828 183.032L124.88 182.959L124.932 182.886L124.983 182.813L125.034 182.75L125.086 182.705L125.137 182.632L125.188 182.558L125.24 182.485L125.291 182.412L125.342 182.339L125.393 182.265L125.445 182.192L125.496 182.127L125.547 182.083L125.598 182.009L125.649 181.936L125.7 181.862L125.751 181.788L125.802 181.715L125.853 181.641L125.904 181.567L125.954 181.501L126.005 181.457L126.056 181.383L126.107 181.309L126.157 181.235L126.208 181.161L126.259 181.087L126.309 181.013L126.36 180.939L126.41 180.871L126.461 180.828L126.511 180.753L126.562 180.679L126.612 180.604L126.663 180.53L126.713 180.455L126.763 180.381L126.814 180.306L126.864 180.238L126.914 180.195L126.964 180.12L127.014 180.045L127.065 179.97L127.115 179.895L127.165 179.82L127.215 179.745L127.265 179.67L127.315 179.6L127.365 179.558L127.415 179.483L127.464 179.408L127.514 179.332L127.564 179.257L127.614 179.182L127.663 179.106L127.713 179.031L127.763 178.96L127.812 178.918L127.862 178.842L127.912 178.766L127.961 178.691L128.011 178.615L128.06 178.54L128.109 178.464L128.159 178.388L128.208 178.315L128.257 178.274L128.307 178.198L128.356 178.122L128.405 178.046L128.454 177.97L128.503 177.894L128.553 177.818L128.602 177.741L128.651 177.668L128.7 177.626L128.749 177.55L128.798 177.474L128.846 177.397L128.895 177.321L128.944 177.244L128.993 177.168L129.042 177.091L129.09 177.016L129.139 176.975L129.188 176.899L129.236 176.822L129.285 176.745L129.334 176.668L129.382 176.591L129.431 176.515L129.479 176.438L129.527 176.361L129.576 176.321L129.624 176.244L129.672 176.167L129.721 176.09L129.769 176.012L129.817 175.935L129.865 175.858L129.913 175.78L129.961 175.703L130.009 175.663L130.058 175.586L130.105 175.508L130.153 175.43L130.201 175.353L130.249 175.275L130.297 175.197L130.345 175.12L130.393 175.042L130.44 175.001L130.488 174.924L130.536 174.846L130.583 174.768L130.631 174.69L130.678 174.612L130.726 174.534L130.773 174.456L130.821 174.377L130.868 174.335L130.916 174.258L130.963 174.18L131.01 174.102L131.057 174.023L131.105 173.945L131.152 173.867L131.199 173.788L131.246 173.709L131.293 173.666L131.34 173.59L131.387 173.511L131.434 173.432L131.481 173.354L131.528 173.275L131.575 173.196L131.622 173.117L131.668 173.038L131.715 172.993L131.762 172.918L131.808 172.838L131.855 172.759L131.902 172.68L131.948 172.601L131.995 172.522L132.041 172.443L132.088 172.363L132.134 172.317L132.18 172.242L132.227 172.163L132.273 172.083L132.319 172.003L132.365 171.924L132.412 171.844L132.458 171.765L132.504 171.685L132.55 171.637L132.596 171.563L132.642 171.483L132.688 171.403L132.734 171.323L132.78 171.243L132.825 171.163L132.871 171.083L132.917 171.003L132.963 170.955L133.008 170.881L133.054 170.8L133.099 170.72L133.145 170.64L133.191 170.56L133.236 170.479L133.281 170.399L133.327 170.319L133.372 170.268L133.418 170.195L133.463 170.114L133.508 170.034L133.553 169.953L133.598 169.873L133.644 169.792L133.689 169.711L133.734 169.63L133.779 169.579L133.824 169.506L133.869 169.425L133.914 169.344L133.958 169.263L134.003 169.182L134.048 169.101L134.093 169.02L134.137 168.939L134.182 168.886L134.227 168.814L134.271 168.732L134.316 168.651L134.36 168.57L134.405 168.488L134.449 168.407L134.493 168.325L134.538 168.244L134.582 168.19L134.626 168.118L134.671 168.037L134.715 167.955L134.759 167.873L134.803 167.791L134.847 167.709L134.891 167.628L134.935 167.546L134.979 167.491L135.023 167.419L135.067 167.337L135.11 167.255L135.154 167.173L135.198 167.091L135.242 167.009L135.285 166.927L135.329 166.844L135.372 166.788L135.416 166.717L135.46 166.635L135.503 166.552L135.546 166.47L135.59 166.388L135.633 166.305L135.676 166.222L135.72 166.14L135.763 166.083L135.806 166.012L135.849 165.929L135.892 165.846L135.935 165.764L135.978 165.681L136.021 165.598L136.064 165.515L136.107 165.432L136.15 165.374L136.192 165.304L136.235 165.22L136.278 165.137L136.321 165.054L136.363 164.971L136.406 164.888L136.448 164.804L136.491 164.721L136.533 164.661L136.576 164.592L136.618 164.509L136.66 164.425L136.703 164.341L136.745 164.258L136.787 164.174L136.829 164.091L136.871 164.007L136.913 163.946L136.955 163.877L136.997 163.793L137.039 163.71L137.081 163.626L137.123 163.542L137.165 163.458L137.207 163.374L137.248 163.29L137.29 163.228L137.332 163.159L137.373 163.075L137.415 162.991L137.456 162.907L137.498 162.823L137.539 162.738L137.581 162.654L137.622 162.57L137.663 162.506L137.705 162.438L137.746 162.354L137.787 162.269L137.828 162.185L137.869 162.1L137.91 162.016L137.951 161.931L137.992 161.846L138.033 161.782L138.074 161.714L138.115 161.629L138.155 161.544L138.196 161.46L138.237 161.375L138.278 161.29L138.318 161.205L138.359 161.12L138.399 161.054L138.44 160.987L138.48 160.902L138.52 160.817L138.561 160.731L138.601 160.646L138.641 160.561L138.682 160.476L138.722 160.39L138.762 160.323L138.802 160.257L138.842 160.171L138.882 160.086L138.922 160L138.962 159.915L139.002 159.829L139.041 159.743L139.081 159.658L139.121 159.59L139.161 159.524L139.2 159.438L139.24 159.352L139.279 159.266L139.319 159.18L139.358 159.094L139.398 159.008L139.437 158.922L139.476 158.853L139.516 158.788L139.555 158.701L139.594 158.615L139.633 158.529L139.672 158.443L139.711 158.356L139.75 158.27L139.789 158.184L139.828 158.113L139.867 158.048L139.906 157.962L139.944 157.875L139.983 157.789L140.022 157.702L140.06 157.616L140.099 157.529L140.138 157.442L140.176 157.371L140.215 157.306L140.253 157.22L140.291 157.133L140.33 157.046L140.368 156.959L140.406 156.872L140.444 156.785L140.482 156.698L140.52 156.625L140.558 156.562L140.596 156.474L140.634 156.387L140.672 156.3L140.71 156.213L140.748 156.126L140.786 156.038L140.823 155.951L140.861 155.877L140.899 155.814L140.936 155.726L140.974 155.639L141.011 155.551L141.049 155.464L141.086 155.376L141.123 155.289L141.161 155.201L141.198 155.126L141.235 155.063L141.272 154.975L141.309 154.887L141.346 154.8L141.383 154.712L141.42 154.624L141.457 154.536L141.494 154.448L141.531 154.372L141.568 154.31L141.604 154.221L141.641 154.133L141.678 154.045L141.714 153.957L141.751 153.869L141.787 153.781L141.823 153.692L141.86 153.615L141.896 153.553L141.932 153.465L141.969 153.376L142.005 153.288L142.041 153.2L142.077 153.111L142.113 153.022L142.149 152.934L142.185 152.855L142.221 152.794L142.257 152.705L142.293 152.617L142.328 152.528L142.364 152.439L142.4 152.35L142.435 152.262L142.471 152.173L142.506 152.093L142.542 152.032L142.577 151.943L142.613 151.854L142.648 151.765L142.683 151.676L142.718 151.587L142.754 151.498L142.789 151.409L142.824 151.328L142.859 151.268L142.894 151.178L142.929 151.089L142.964 151L142.998 150.91L143.033 150.821L143.068 150.732L143.103 150.642L143.137 150.56L143.172 150.501L143.206 150.411L143.241 150.321L143.275 150.232L143.31 150.142L143.344 150.052L143.378 149.963L143.412 149.873L143.447 149.789L143.481 149.731L143.515 149.641L143.549 149.551L143.583 149.461L143.617 149.371L143.651 149.281L143.684 149.191L143.718 149.101L143.752 149.016L143.786 148.958L143.819 148.868L143.853 148.778L143.886 148.687L143.92 148.597L143.953 148.507L143.986 148.417L144.02 148.326L144.053 148.24L144.086 148.183L144.12 148.092L144.153 148.002L144.186 147.911L144.219 147.821L144.252 147.73L144.285 147.64L144.317 147.549L144.35 147.462L144.383 147.405L144.416 147.314L144.448 147.224L144.481 147.133L144.513 147.042L144.546 146.951L144.578 146.86L144.611 146.769L144.643 146.681L144.675 146.625L144.708 146.534L144.74 146.443L144.772 146.352L144.804 146.261L144.836 146.169L144.868 146.078L144.9 145.987L144.932 145.898L144.964 145.842L144.996 145.751L145.027 145.659L145.059 145.568L145.091 145.477L145.122 145.385L145.154 145.294L145.185 145.202L145.217 145.112L145.248 145.057L145.279 144.965L145.31 144.874L145.342 144.782L145.373 144.69L145.404 144.599L145.435 144.507L145.466 144.415L145.497 144.324L145.528 144.269L145.559 144.177L145.589 144.085L145.62 143.993L145.651 143.901L145.681 143.809L145.712 143.717L145.742 143.625L145.773 143.533L145.803 143.478L145.834 143.387L145.864 143.295L145.894 143.202L145.924 143.11L145.955 143.018L145.985 142.926L146.015 142.833L146.045 142.741L146.075 142.685L146.104 142.594L146.134 142.501L146.164 142.409L146.194 142.316L146.223 142.224L146.253 142.131L146.283 142.039L146.312 141.946L146.341 141.889L146.371 141.799L146.4 141.706L146.429 141.613L146.459 141.52L146.488 141.428L146.517 141.335L146.546 141.242L146.575 141.149L146.604 141.091L146.633 141.001L146.662 140.908L146.691 140.815L146.719 140.722L146.748 140.629L146.777 140.536L146.805 140.443L146.834 140.35L146.862 140.29L146.891 140.201L146.919 140.108L146.947 140.015L146.975 139.921L147.004 139.828L147.032 139.735L147.06 139.642L147.088 139.548L147.116 139.488L147.144 139.399L147.172 139.306L147.199 139.212L147.227 139.119L147.255 139.025L147.283 138.932L147.31 138.838L147.338 138.744L147.365 138.683L147.392 138.595L147.42 138.501L147.447 138.407L147.474 138.313L147.502 138.22L147.529 138.126L147.556 138.032L147.583 137.938L147.61 137.875L147.637 137.788L147.663 137.694L147.69 137.6L147.717 137.506L147.744 137.412L147.77 137.318L147.797 137.224L147.823 137.13L147.85 137.066L147.876 136.979L147.903 136.885L147.929 136.791L147.955 136.697L147.981 136.602L148.007 136.508L148.033 136.414L148.059 136.32L148.085 136.254L148.111 136.168L148.137 136.074L148.163 135.98L148.189 135.885L148.214 135.791L148.24 135.696L148.265 135.602L148.291 135.507L148.316 135.441L148.342 135.355L148.367 135.261L148.392 135.166L148.418 135.071L148.443 134.977L148.468 134.882L148.493 134.787L148.518 134.693L148.543 134.625L148.568 134.54L148.592 134.446L148.617 134.351L148.642 134.256L148.666 134.161L148.691 134.066L148.715 133.971L148.74 133.876L148.764 133.807L148.789 133.723L148.813 133.628L148.837 133.533L148.861 133.438L148.885 133.343L148.909 133.248L148.933 133.152L148.957 133.057L148.981 132.988L149.005 132.904L149.029 132.809L149.052 132.714L149.076 132.618L149.1 132.523L149.123 132.428L149.147 132.332L149.17 132.237L149.193 132.166L149.217 132.083L149.24 131.988L149.263 131.892L149.286 131.797L149.309 131.701L149.332 131.605L149.355 131.51L149.378 131.414L149.401 131.343L149.424 131.26L149.446 131.165L149.469 131.069L149.491 130.973L149.514 130.877L149.536 130.782L149.559 130.686L149.581 130.59L149.603 130.517L149.626 130.436L149.648 130.34L149.67 130.244L149.692 130.148L149.714 130.052L149.736 129.956L149.758 129.86L149.779 129.764L149.801 129.69L149.823 129.609L149.844 129.513L149.866 129.417L149.888 129.32L149.909 129.224L149.93 129.128L149.952 129.032L149.973 128.936L149.994 128.861L150.015 128.78L150.036 128.684L150.057 128.588L150.078 128.491L150.099 128.395L150.12 128.299L150.141 128.202L150.161 128.106L150.182 128.03L150.203 127.95L150.223 127.854L150.244 127.757L150.264 127.661L150.284 127.564L150.305 127.468L150.325 127.371L150.345 127.274L150.365 127.197L150.385 127.118L150.405 127.022L150.425 126.925L150.445 126.828L150.465 126.731L150.484 126.635L150.504 126.538L150.524 126.441L150.543 126.363L150.563 126.285L150.582 126.188L150.602 126.091L150.621 125.994L150.64 125.897L150.659 125.8L150.678 125.703L150.697 125.606L150.716 125.527L150.735 125.45L150.754 125.353L150.773 125.255L150.792 125.158L150.81 125.061L150.829 124.964L150.848 124.867L150.866 124.77L150.885 124.69L150.903 124.613L150.921 124.516L150.939 124.418L150.958 124.321L150.976 124.224L150.994 124.126L151.012 124.029L151.03 123.932L151.048 123.851L151.065 123.774L151.083 123.677L151.101 123.58L151.118 123.482L151.136 123.385L151.153 123.287L151.171 123.19L151.188 123.092L151.206 123.01L151.223 122.935L151.24 122.837L151.257 122.739L151.274 122.642L151.291 122.544L151.308 122.447L151.325 122.349L151.342 122.251L151.358 122.168L151.375 122.093L151.392 121.995L151.408 121.898L151.425 121.8L151.441 121.702L151.458 121.604L151.474 121.507L151.49 121.409L151.506 121.325L151.522 121.25L151.538 121.153L151.554 121.055L151.57 120.957L151.586 120.859L151.602 120.761L151.618 120.663L151.633 120.565L151.649 120.48L151.664 120.406L151.68 120.308L151.695 120.21L151.711 120.112L151.726 120.014L151.741 119.916L151.756 119.818L151.771 119.72L151.786 119.634L151.801 119.561L151.816 119.463L151.831 119.365L151.846 119.266L151.86 119.168L151.875 119.07L151.889 118.972L151.904 118.873L151.918 118.786L151.933 118.714L151.947 118.616L151.961 118.517L151.975 118.419L151.989 118.321L152.003 118.222L152.017 118.124L152.031 118.026L152.045 117.937L152.059 117.866L152.073 117.768L152.086 117.669L152.1 117.571L152.113 117.472L152.127 117.374L152.14 117.275L152.154 117.177L152.167 117.087L152.18 117.017L152.193 116.918L152.206 116.82L152.219 116.721L152.232 116.623L152.245 116.524L152.258 116.425L152.271 116.327L152.283 116.236L152.296 116.167L152.308 116.068L152.321 115.969L152.333 115.87L152.346 115.772L152.358 115.673L152.37 115.574L152.382 115.475L152.394 115.384L152.406 115.315L152.418 115.216L152.43 115.118L152.442 115.019L152.454 114.92L152.465 114.821L152.477 114.722L152.488 114.623L152.5 114.531L152.511 114.463L152.523 114.364L152.534 114.265L152.545 114.166L152.556 114.067L152.567 113.968L152.578 113.869L152.589 113.77L152.6 113.677L152.611 113.609L152.622 113.51L152.632 113.411L152.643 113.312L152.653 113.213L152.664 113.114L152.674 113.015L152.685 112.916L152.695 112.822L152.705 112.755L152.715 112.656L152.725 112.557L152.735 112.458L152.745 112.358L152.755 112.259L152.765 112.16L152.775 112.061L152.784 111.966L152.794 111.9L152.804 111.8L152.813 111.701L152.823 111.602L152.832 111.503L152.841 111.403L152.85 111.304L152.859 111.205L152.868 111.109L152.878 111.044L152.886 110.944L152.895 110.845L152.904 110.746L152.913 110.646L152.922 110.547L152.93 110.447L152.939 110.348L152.947 110.251L152.955 110.187L152.964 110.087L152.972 109.988L152.98 109.888L152.988 109.789L152.996 109.689L153.004 109.59L153.012 109.49L153.02 109.393L153.028 109.329L153.036 109.229L153.043 109.13L153.051 109.03L153.058 108.931L153.066 108.831L153.073 108.732L153.08 108.632L153.088 108.534L153.095 108.471L153.102 108.371L153.109 108.271L153.116 108.172L153.123 108.072L153.13 107.973L153.136 107.873L153.143 107.773L153.15 107.674L153.156 107.612L153.163 107.512L153.169 107.412L153.175 107.313L153.182 107.213L153.188 107.113L153.194 107.014L153.2 106.914L153.206 106.814L153.212 106.751L153.218 106.652L153.224 106.553L153.23 106.453L153.235 106.353L153.241 106.254L153.246 106.154L153.252 106.054L153.257 105.954L153.262 105.89L153.268 105.792L153.273 105.692L153.278 105.593L153.283 105.493L153.288 105.393L153.293 105.293L153.298 105.194L153.303 105.094L153.307 105.029L153.312 104.932L153.316 104.832L153.321 104.732L153.325 104.632L153.33 104.532L153.334 104.433L153.338 104.333L153.342 104.233L153.346 104.167L153.35 104.071L153.354 103.971L153.358 103.871L153.362 103.771L153.366 103.671L153.369 103.571L153.373 103.471L153.376 103.372L153.38 103.305L153.383 103.209L153.387 103.109L153.39 103.009L153.393 102.91L153.396 102.81L153.399 102.71L153.402 102.61L153.405 102.51L153.408 102.442L153.411 102.348L153.413 102.248L153.416 102.148L153.418 102.048L153.421 101.948L153.423 101.848L153.426 101.748L153.428 101.648L153.43 101.579L153.432 101.486L153.434 101.386L153.436 101.286L153.438 101.186L153.44 101.086L153.442 100.986L153.443 100.886L153.445 100.786L153.447 100.716L153.448 100.623L153.45 100.524L153.451 100.424L153.452 100.324L153.453 100.224L153.455 100.124L153.456 100.024L153.457 99.9237L153.458 99.8533L153.459 99.7612L153.459 99.6613L153.46 99.5613L153.461 99.4613L153.461 99.3613L153.462 99.2613L153.462 99.1613L153.463 99.0614L153.463 98.9902L153.463 98.8989L153.463 98.7989L153.463 98.6989L153.463 98.5989L153.463 98.499L153.463 98.399L153.463 98.299L153.463 98.199L153.462 98.127L153.462 98.0366L153.461 97.9366L153.461 97.8366L153.46 97.7366L153.46 97.6366L153.459 97.5367L153.458 97.4367L153.457 97.3367L153.456 97.2638L153.455 97.1742L153.454 97.0743L153.453 96.9743L153.452 96.8743L153.45 96.7744L153.449 96.6744L153.447 96.5744L153.446 96.4745L153.444 96.4007L153.443 96.312L153.441 96.2121L153.439 96.1121L153.437 96.0122L153.435 95.9122L153.433 95.8123L153.431 95.7123L153.429 95.6124L153.427 95.5378L153.424 95.45L153.422 95.3501L153.42 95.2501L153.417 95.1502L153.414 95.0503L153.412 94.9503L153.409 94.8504L153.406 94.7505L153.403 94.675L153.4 94.5882L153.397 94.4883L153.394 94.3883L153.391 94.2884L153.388 94.1885L153.385 94.0886L153.381 93.9888L153.378 93.8889L153.374 93.8126L153.371 93.7266L153.367 93.6267L153.363 93.5268L153.359 93.427L153.356 93.3271L153.352 93.2273L153.348 93.1274L153.344 93.0275L153.339 92.9505L153.335 92.8654L153.331 92.7655L153.327 92.6657L153.322 92.5659L153.318 92.4661L153.313 92.3662L153.308 92.2664L153.304 92.1666L153.299 92.0887L153.294 92.0045L153.289 91.9047L153.284 91.805L153.279 91.7052L153.274 91.6054L153.269 91.5056L153.263 91.4059L153.258 91.3061L153.253 91.2274L153.247 91.1441L153.242 91.0444L153.236 90.9447L153.23 90.845L153.225 90.7452L153.219 90.6455L153.213 90.5458L153.207 90.4461L153.201 90.3666L153.195 90.2843L153.188 90.1846L153.182 90.0849L153.176 89.9853L153.169 89.8856L153.163 89.786L153.156 89.6863L153.15 89.5867L153.143 89.5064L153.136 89.425L153.129 89.3253L153.122 89.2257L153.115 89.1262L153.108 89.0266L153.101 88.927L153.094 88.8274L153.087 88.7279L153.08 88.6468L153.072 88.5663L153.065 88.4667L153.057 88.3672L153.049 88.2677L153.042 88.1682L153.034 88.0687L153.026 87.9692L153.018 87.8697L153.01 87.7878L153.002 87.7083L152.994 87.6088L152.986 87.5094L152.978 87.4099L152.969 87.3105L152.961 87.2111L152.953 87.1117L152.944 87.0123L152.935 86.9296L152.927 86.851L152.918 86.7517L152.909 86.6523L152.9 86.5529L152.891 86.4536L152.882 86.3543L152.873 86.255L152.864 86.1557L152.855 86.0722L152.846 85.9946L152.836 85.8953L152.827 85.796L152.817 85.6968L152.808 85.5975L152.798 85.4983L152.788 85.3991L152.779 85.2999L152.769 85.2156L152.759 85.139L152.749 85.0398L152.739 84.9406L152.729 84.8415L152.718 84.7423L152.708 84.6432L152.698 84.5441L152.687 84.445L152.677 84.36L152.666 84.2843L152.656 84.1852L152.645 84.0861L152.634 83.9871L152.623 83.8881L152.612 83.789L152.601 83.69L152.59 83.591L152.579 83.5053L152.568 83.4306L152.557 83.3316L152.545 83.2327L152.534 83.1337L152.523 83.0348L152.511 82.9359L152.499 82.837L152.488 82.7381L152.476 82.6516L152.464 82.5779L152.452 82.479L152.44 82.3802L152.428 82.2814L152.416 82.1826L152.404 82.0838L152.392 81.985L152.38 81.8863L152.367 81.799L152.355 81.7263L152.342 81.6275L152.33 81.5288L152.317 81.4302L152.304 81.3315L152.292 81.2328L152.279 81.1342L152.266 81.0355L152.253 80.9476L152.24 80.8758L152.227 80.7772L152.214 80.6786L152.2 80.5801L152.187 80.4815L152.174 80.383L152.16 80.2845L152.147 80.186L152.133 80.0973L152.119 80.0265L152.106 79.9281L152.092 79.8296L152.078 79.7312L152.064 79.6328L152.05 79.5344L152.036 79.436L152.022 79.3377L152.007 79.2483L151.993 79.1785L151.979 79.0802L151.964 78.9819L151.95 78.8836L151.935 78.7853L151.921 78.6871L151.906 78.5889L151.891 78.4906L151.877 78.4005L151.862 78.3318L151.847 78.2336L151.832 78.1354L151.817 78.0373L151.801 77.9392L151.786 77.8411L151.771 77.743L151.756 77.6449L151.74 77.5541L151.725 77.4864L151.709 77.3883L151.693 77.2904L151.678 77.1924L151.662 77.0944L151.646 76.9965L151.63 76.8985L151.614 76.8006L151.598 76.7091L151.582 76.6423L151.566 76.5445L151.55 76.4467L151.533 76.3488L151.517 76.2511L151.501 76.1533L151.484 76.0555L151.467 75.9578L151.451 75.8655L151.434 75.7998L151.417 75.7021L151.401 75.6044L151.384 75.5068L151.367 75.4092L151.35 75.3115L151.333 75.214L151.315 75.1164L151.298 75.0235L151.281 74.9588L151.264 74.8612L151.246 74.7637L151.229 74.6663L151.211 74.5688L151.193 74.4713L151.176 74.3739L151.158 74.2765L151.14 74.1829L151.122 74.1192L151.104 74.0219L151.086 73.9246L151.068 73.8273L151.05 73.73L151.032 73.6327L151.014 73.5355L150.995 73.4382L150.977 73.344L150.958 73.2813L150.94 73.1842L150.921 73.087L150.903 72.9899L150.884 72.8928L150.865 72.7957L150.846 72.6986L150.827 72.6016L150.808 72.5066L150.789 72.445L150.77 72.3481L150.751 72.2511L150.732 72.1542L150.712 72.0572L150.693 71.9603L150.673 71.8634L150.654 71.7666L150.634 71.6709L150.615 71.6104L150.595 71.5136L150.575 71.4169L150.555 71.3201L150.536 71.2234L150.515 71.1267L150.495 71.03L150.475 70.9333L150.455 70.837L150.435 70.7775L150.415 70.6809L150.394 70.5844L150.374 70.4878L150.354 70.3913L150.333 70.2948L150.312 70.1982L150.292 70.1018L150.271 70.0053L150.25 69.9459L150.229 69.85L150.208 69.7536L150.188 69.6573L150.166 69.561L150.145 69.4646L150.124 69.3683L150.103 69.2721L150.082 69.1758L150.06 69.1157L150.039 69.0209L150.018 68.9247L149.996 68.8286L149.974 68.7324L149.953 68.6363L149.931 68.5403L149.909 68.4442L149.887 68.3481L149.865 68.2874L149.843 68.1936L149.821 68.0977L149.799 68.0017L149.777 67.9058L149.755 67.8099L149.733 67.714L149.71 67.6182L149.688 67.5224L149.665 67.4609L149.643 67.3682L149.62 67.2725L149.598 67.1768L149.575 67.0811L149.552 66.9854L149.529 66.8897L149.506 66.7941L149.483 66.6985L149.46 66.6364L149.437 66.5448L149.414 66.4493L149.391 66.3537L149.368 66.2583L149.344 66.1628L149.321 66.0673L149.298 65.9719L149.274 65.8765L149.251 65.8138L149.227 65.7233L149.203 65.628L149.179 65.5327L149.156 65.4374L149.132 65.3422L149.108 65.247L149.084 65.1518L149.06 65.0566L149.036 64.9933L149.012 64.9038L148.987 64.8087L148.963 64.7137L148.939 64.6186L148.914 64.5236L148.89 64.4286L148.865 64.3336L148.841 64.2387L148.816 64.1747L148.791 64.0864L148.767 63.9915L148.742 63.8967L148.717 63.8018L148.692 63.7071L148.667 63.6123L148.642 63.5175L148.617 63.4228L148.592 63.3582L148.566 63.271L148.541 63.1764L148.516 63.0817L148.49 62.9872L148.465 62.8926L148.439 62.7981L148.414 62.7036L148.388 62.6091L148.362 62.5438L148.337 62.4577L148.311 62.3633L148.285 62.2689L148.259 62.1746L148.233 62.0803L148.207 61.9859L148.181 61.8917L148.155 61.7975L148.129 61.7316L148.102 61.6466L148.076 61.5524L148.05 61.4582L148.023 61.3642L147.997 61.2701L147.97 61.176L147.943 61.082L147.917 60.988L147.89 60.9215L147.863 60.8376L147.836 60.7436L147.809 60.6497L147.782 60.5559L147.755 60.462L147.728 60.3682L147.701 60.2744L147.674 60.1807L147.647 60.1136L147.619 60.0307L147.592 59.937L147.565 59.8434L147.537 59.7498L147.51 59.6562L147.482 59.5627L147.454 59.4691L147.427 59.3756L147.399 59.3079L147.371 59.2262L147.343 59.1327L147.315 59.0393L147.287 58.946L147.259 58.8526L147.231 58.7593L147.203 58.666L147.175 58.5728L147.147 58.5044L147.118 58.4238L147.09 58.3306L147.062 58.2375L147.033 58.1444L147.005 58.0513L146.976 57.9582L146.947 57.8652L146.919 57.7722L146.89 57.7033L146.861 57.6237L146.832 57.5308L146.803 57.4379L146.774 57.3451L146.745 57.2522L146.716 57.1594L146.687 57.0666L146.658 56.9739L146.629 56.9044L146.6 56.826L146.57 56.7333L146.541 56.6407L146.511 56.5481L146.482 56.4555L146.452 56.3629L146.423 56.2704L146.393 56.1779L146.363 56.1078L146.333 56.0305L146.304 55.9381L146.274 55.8457L146.244 55.7534L146.214 55.6611L146.184 55.5688L146.154 55.4765L146.124 55.3843L146.093 55.3135L146.063 55.2374L146.033 55.1453L146.003 55.0531L145.972 54.9611L145.942 54.869L145.911 54.777L145.881 54.685L145.85 54.593L145.819 54.5217L145.789 54.4467L145.758 54.3548L145.727 54.2629L145.696 54.1711L145.665 54.0793L145.634 53.9875L145.603 53.8958L145.572 53.8041L145.541 53.7322L145.51 53.6583L145.478 53.5667L145.447 53.4751L145.416 53.3836L145.384 53.292L145.353 53.2005L145.321 53.1091L145.29 53.0176L145.258 52.9451L145.227 52.8724L145.195 52.781L145.163 52.6897L145.131 52.5984L145.1 52.5071L145.068 52.4159L145.036 52.3247L145.004 52.2336L144.972 52.1604L144.94 52.0888L144.907 51.9977L144.875 51.9067L144.843 51.8157L144.811 51.7247L144.778 51.6338L144.746 51.5428L144.713 51.4519L144.681 51.3782L144.648 51.3078L144.616 51.2169L144.583 51.1262L144.55 51.0354L144.518 50.9447L144.485 50.854L144.452 50.7634L144.419 50.6728L144.386 50.5985L144.353 50.5291L144.32 50.4386L144.287 50.3481L144.254 50.2576L144.221 50.1672L144.187 50.0768L144.154 49.9864L144.121 49.8961L144.087 49.8212L144.054 49.753L144.02 49.6627L143.987 49.5725L143.953 49.4823L143.92 49.3922L143.886 49.3021L143.852 49.212L143.818 49.1219L143.785 49.0464L143.751 48.9794L143.717 48.8894L143.683 48.7994L143.649 48.7095L143.615 48.6196L143.581 48.5298L143.546 48.44L143.512 48.3502L143.478 48.2742L143.444 48.2082L143.409 48.1185L143.375 48.0289L143.34 47.9392L143.306 47.8496L143.271 47.7601L143.237 47.6706L143.202 47.581L143.167 47.5044L143.133 47.4396L143.098 47.3502L143.063 47.2608L143.028 47.1715L142.993 47.0822L142.958 46.9929L142.923 46.9037L142.888 46.8144L142.853 46.7372L142.818 46.6736L142.783 46.5844L142.748 46.4954L142.712 46.4063L142.677 46.3172L142.642 46.2283L142.606 46.1393L142.571 46.0503L142.535 45.9726L142.5 45.9101L142.464 45.8212L142.428 45.7324L142.393 45.6437L142.357 45.5549L142.321 45.4662L142.285 45.3775L142.249 45.2888L142.213 45.2105L142.177 45.1492L142.141 45.0606L142.105 44.9721L142.069 44.8836L142.033 44.7951L141.997 44.7067L141.961 44.6183L141.924 44.5299L141.888 44.451L141.852 44.3908L141.815 44.3025L141.779 44.2143L141.742 44.1261L141.706 44.0379L141.669 43.9498L141.632 43.8617L141.596 43.7736L141.559 43.6941L141.522 43.6351L141.485 43.5471L141.448 43.4591L141.411 43.3712L141.374 43.2834L141.337 43.1955L141.3 43.1077L141.263 43.0199L141.226 42.9398L141.189 42.8819L141.152 42.7942L141.115 42.7066L141.077 42.619L141.04 42.5314L141.002 42.4438L140.965 42.3563L140.928 42.2688L140.89 42.1881L140.852 42.1314L140.815 42.044L140.777 41.9566L140.739 41.8693L140.702 41.782L140.664 41.6947L140.626 41.6075L140.588 41.5203L140.55 41.4391L140.512 41.3835L140.474 41.2964L140.436 41.2093L140.398 41.1223L140.36 41.0353L140.322 40.9483L140.284 40.8614L140.245 40.7745L140.207 40.6927L140.169 40.6383L140.13 40.5515L140.092 40.4647L140.054 40.3779L140.015 40.2913L139.977 40.2046L139.938 40.1179L139.899 40.0313L139.861 39.949L139.822 39.8957L139.783 39.8092L139.744 39.7227L139.706 39.6362L139.667 39.5498L139.628 39.4634L139.589 39.3771L139.55 39.2908L139.511 39.2079L139.472 39.1557L139.433 39.0695L139.393 38.9833L139.354 38.8972L139.315 38.8111L139.276 38.725L139.236 38.6389L139.197 38.5529L139.157 38.4694L139.118 38.4185L139.079 38.3326L139.039 38.2467L138.999 38.1608L138.96 38.075L138.92 37.9892L138.88 37.9034L138.841 37.8177L138.801 37.7337L138.761 37.6839L138.721 37.5982L138.681 37.5127L138.641 37.4271L138.601 37.3416L138.561 37.2561L138.521 37.1707L138.481 37.0852L138.441 37.0006L138.401 36.952L138.361 36.8666L138.32 36.7814L138.28 36.6961L138.24 36.6109L138.199 36.5257L138.159 36.4406L138.119 36.3554L138.078 36.2703L138.038 36.2227L137.997 36.1377L137.956 36.0528L137.916 35.9678L137.875 35.8829L137.834 35.798L137.794 35.7132L137.753 35.6283L137.712 35.5435L137.671 35.4953L137.63 35.4116L137.589 35.3268L137.548 35.2422L137.507 35.1576L137.466 35.073L137.425 34.9885L137.384 34.9039L137.343 34.8194L137.301 34.7707L137.26 34.6881L137.219 34.6037L137.177 34.5193L137.136 34.435L137.095 34.3507L137.053 34.2665L137.012 34.1823L136.97 34.0981L136.929 34.0487L136.887 33.9673L136.845 33.8832L136.804 33.7991L136.762 33.7152L136.72 33.6312L136.678 33.5472L136.637 33.4633L136.595 33.3794L136.553 33.3295L136.511 33.2493L136.469 33.1655L136.427 33.0817L136.385 32.998L136.343 32.9144L136.301 32.8307L136.258 32.7471L136.216 32.6635L136.174 32.6131L136.132 32.5339L136.089 32.4505L136.047 32.3671L136.005 32.2836L135.962 32.2003L135.92 32.117L135.877 32.0336L135.835 31.9504L135.792 31.8994L135.75 31.8214L135.707 31.7383L135.664 31.6551L135.621 31.572L135.579 31.4889L135.536 31.4059L135.493 31.3229L135.45 31.24L135.407 31.1884L135.364 31.1116L135.321 31.0287L135.278 30.946L135.235 30.8632L135.192 30.7804L135.149 30.6977L135.106 30.615L135.063 30.5323L135.02 30.4802L134.976 30.4046L134.933 30.322L134.89 30.2395L134.846 30.1571L134.803 30.0746L134.76 29.9922L134.716 29.9098L134.673 29.8275L134.629 29.7748L134.585 29.7004L134.542 29.6181L134.498 29.5359L134.454 29.4537L134.411 29.3716L134.367 29.2895L134.323 29.2074L134.279 29.1254L134.235 29.0721L134.192 28.9988L134.148 28.9169L134.104 28.835L134.06 28.7531L134.016 28.6713L133.972 28.5895L133.928 28.5077L133.883 28.426L133.839 28.3723L133.795 28.3002L133.751 28.2185L133.706 28.137L133.662 28.0554L133.618 27.9739L133.573 27.8924L133.529 27.8109L133.485 27.7295L133.44 27.6752L133.396 27.6043L133.351 27.5229L133.306 27.4417L133.262 27.3605L133.217 27.2792L133.173 27.1981L133.128 27.1169L133.083 27.0358L133.038 26.9809L132.993 26.9112L132.949 26.8302L132.904 26.7492L132.859 26.6683L132.814 26.5874L132.769 26.5065L132.724 26.4257L132.679 26.3449L132.634 26.2895L132.589 26.2209L132.543 26.1402L132.498 26.0596L132.453 25.9789L132.408 25.8984L132.362 25.8178L132.317 25.7373L132.272 25.6568L132.226 25.6009L132.181 25.5334L132.135 25.4531L132.09 25.3727L132.045 25.2924L131.999 25.2122L131.953 25.1319L131.908 25.0517L131.862 24.9716L131.816 24.9151L131.771 24.8488L131.725 24.7688L131.679 24.6888L131.633 24.6088L131.588 24.5288L131.542 24.4489L131.496 24.369L131.45 24.2891L131.404 24.2321L131.358 24.1671L131.312 24.0873L131.266 24.0076L131.22 23.9279L131.173 23.8483L131.127 23.7687L131.081 23.6891L131.035 23.6096L130.989 23.552L130.942 23.4881L130.896 23.4087L130.85 23.3293L130.803 23.25L130.757 23.1706L130.71 23.0913L130.664 23.0121L130.617 22.9329L130.571 22.8747L130.524 22.812L130.477 22.733L130.431 22.6539L130.384 22.5748L130.337 22.4958L130.291 22.4169L130.244 22.3379L130.197 22.2591L130.15 22.2004L130.103 22.1389L130.057 22.0601L130.01 21.9813L129.963 21.9026L129.916 21.8239L129.869 21.7453L129.822 21.6667L129.774 21.5881L129.727 21.5289L129.68 21.4686L129.633 21.3901L129.586 21.3117L129.539 21.2333L129.491 21.1549L129.444 21.0766L129.397 20.9983L129.349 20.9201L129.302 20.8603L129.254 20.8012L129.207 20.723L129.159 20.6449L129.112 20.5668L129.064 20.4888L129.017 20.4108L128.969 20.3328L128.922 20.2549L128.874 20.1946L128.826 20.1366L128.778 20.0588L128.731 19.981L128.683 19.9033L128.635 19.8256L128.587 19.7479L128.539 19.6703L128.491 19.5927L128.443 19.5318L128.395 19.4751L128.347 19.3976L128.299 19.3201L128.251 19.2427L128.203 19.1653L128.155 19.088L128.107 19.0107L128.059 18.9333L128.011 18.872L127.962 18.8164L127.914 18.7392L127.866 18.6621L127.817 18.585L127.769 18.508L127.721 18.4309L127.672 18.354L127.624 18.277L127.575 18.2151L127.527 18.1607L127.478 18.0839L127.43 18.0071L127.381 17.9303L127.332 17.8536L127.284 17.7769L127.235 17.7002L127.186 17.6236L127.137 17.5612L127.089 17.508L127.04 17.4315L126.991 17.355L126.942 17.2786L126.893 17.2022L126.844 17.1258L126.795 17.0495L126.746 16.9732L126.697 16.9103L126.648 16.8582L126.599 16.7821L126.55 16.706L126.501 16.6298L126.452 16.5537L126.403 16.4778L126.353 16.4018L126.304 16.3258L126.255 16.2623L126.206 16.2115L126.156 16.1356L126.107 16.0598L126.057 15.9841L126.008 15.9084L125.959 15.8326L125.909 15.757L125.86 15.6814L125.81 15.6173L125.76 15.5678L125.711 15.4923L125.661 15.4168L125.612 15.3414L125.562 15.266L125.512 15.1906L125.462 15.1153L125.413 15.04L125.363 14.9755L125.313 14.927L125.263 14.8519L125.213 14.7768L125.163 14.7016L125.113 14.6266L125.063 14.5516L125.013 14.4766L124.963 14.4017L124.913 14.3366L124.863 14.2894L124.813 14.2146L124.763 14.1398L124.713 14.0651L124.663 13.9903L124.612 13.9157L124.562 13.841L124.512 13.7664L124.462 13.7009L124.411 13.6549L124.361 13.5803L124.311 13.5059L124.26 13.4315L124.21 13.3571L124.159 13.2828L124.109 13.2085L124.058 13.1343L124.008 13.0681L123.957 13.0234L123.906 12.9492L123.856 12.8751L123.805 12.8011L123.754 12.7271L123.704 12.6531L123.653 12.5791L123.602 12.5052L123.551 12.4386L123.5 12.395L123.45 12.3212L123.399 12.2475L123.348 12.1737L123.297 12.1001L123.246 12.0265L123.195 11.9528L123.144 11.8793L123.093 11.8122L123.042 11.7698L122.991 11.6963L122.939 11.623L122.888 11.5496L122.837 11.4763L122.786 11.403L122.735 11.3298L122.683 11.2565L122.632 11.1889L122.581 11.1478L122.529 11.0746L122.478 11.0016L122.426 10.9286L122.375 10.8556L122.324 10.7827L122.272 10.7098L122.22 10.637L122.169 10.5688L122.117 10.5289L122.066 10.4562L122.014 10.3834L121.962 10.3108L121.911 10.2382L121.859 10.1656L121.807 10.0931L121.756 10.0206L121.704 9.95197L121.652 9.91326L121.6 9.84091L121.548 9.76856L121.496 9.69626L121.444 9.62404L121.392 9.55182L121.34 9.47963L121.288 9.40754L121.236 9.33839L121.184 9.30085L121.132 9.22889L121.08 9.15693L121.028 9.08497L120.976 9.01311L120.924 8.94128L120.871 8.86945L120.819 8.7977L120.767 8.72808L120.714 8.6918L120.662 8.62014L120.61 8.54858L120.557 8.47701L120.505 8.40546L120.452 8.33403L120.4 8.26259L120.348 8.19116L120.295 8.12107L120.242 8.08604L120.19 8.01473L120.137 7.94353L120.085 7.87236L120.032 7.80119L119.979 7.7301L119.927 7.65906L119.874 7.58802L119.821 7.51739L119.768 7.48362L119.716 7.41272L119.663 7.34184L119.61 7.27107L119.594 7.23784Z" fill="white"/>
</svg>
