<svg width="286" height="27" viewBox="0 0 286 27" fill="none" xmlns="http://www.w3.org/2000/svg">
<path d="M3.94101 22.472V13.508L4.44501 13.004H11.969V9.47598H4.44501L3.94101 9.00798V4.32798H11.105V0.799984H0.161011V26H12.365V22.472H3.94101Z" fill="black"/>
<path d="M26.952 0.799984L22.704 17.324H22.2L17.952 0.799984H14.136L20.652 26H24.216L30.732 0.799984H26.952Z" fill="black"/>
<path d="M37.8316 22.472V13.508L38.3356 13.004H45.8596V9.47598H38.3356L37.8316 9.00798V4.32798H44.9956V0.799984H34.0516V26H46.2556V22.472H37.8316Z" fill="black"/>
<path d="M64.1102 26L59.1062 12.644C61.3742 11.744 62.9942 9.51198 62.9942 6.91998C62.9942 3.53599 60.2942 0.799984 56.9822 0.799984H50.6102V26H54.3902V13.544L54.8942 13.04H55.3622L60.2222 26H64.1102ZM54.3902 9.00798V4.32798H56.9822C58.3502 4.32798 59.4662 5.47998 59.4662 6.91998C59.4662 8.35999 58.3502 9.51198 56.9822 9.51198H54.8582L54.3902 9.00798Z" fill="black"/>
<path d="M75.1333 0.799984L72.2173 6.52398H71.4253L68.4733 0.799984H64.3693L69.9133 11.6V26H73.6933V11.6L79.2373 0.799984H75.1333Z" fill="black"/>
<path d="M105.883 0.799984L101.239 7.42398H100.555L95.8394 0.799984H92.0594V26H95.8394V7.45998H96.1994L99.6554 12.356H102.103L105.559 7.35198H105.883V26H109.663V0.799984H105.883Z" fill="black"/>
<path d="M126.667 0.583984C119.323 0.583984 113.923 6.01999 113.923 13.4C113.923 20.816 119.323 26.252 126.667 26.252C134.047 26.252 139.447 20.816 139.447 13.4C139.447 6.01999 134.047 0.583984 126.667 0.583984ZM126.667 22.724C121.483 22.724 117.667 18.764 117.667 13.4C117.667 8.03599 121.483 4.11198 126.667 4.11198C131.887 4.11198 135.703 8.03599 135.703 13.4C135.703 18.764 131.887 22.724 126.667 22.724Z" fill="black"/>
<path d="M154.792 0.583984C147.448 0.583984 142.048 6.01999 142.048 13.4C142.048 20.816 147.448 26.252 154.792 26.252C162.172 26.252 167.572 20.816 167.572 13.4C167.572 6.01999 162.172 0.583984 154.792 0.583984ZM154.792 22.724C149.608 22.724 145.792 18.764 145.792 13.4C145.792 8.03599 149.608 4.11198 154.792 4.11198C160.012 4.11198 163.828 8.03599 163.828 13.4C163.828 18.764 160.012 22.724 154.792 22.724Z" fill="black"/>
<path d="M182.449 0.799984V7.96398H181.981L175.609 0.799984H171.829V26H175.609V6.81198H176.041L182.449 13.976V26H186.229V0.799984H182.449Z" fill="black"/>
<path d="M207.873 0.799984H201.501V26H205.281V13.508L205.749 13.04H207.873C211.185 13.04 213.921 10.304 213.921 6.91998C213.921 3.53599 211.185 0.799984 207.873 0.799984ZM207.873 9.51198H205.785L205.281 9.00798V4.32798H207.873C209.241 4.32798 210.393 5.47998 210.393 6.91998C210.393 8.35999 209.241 9.51198 207.873 9.51198Z" fill="black"/>
<path d="M228.16 0.799984V9.47598H220.996V0.799984H217.216V26H220.996V13.508L221.464 13.004H227.656L228.16 13.508V26H231.94V0.799984H228.16Z" fill="black"/>
<path d="M245.52 0.799984H241.92L235.404 26H239.184L240.156 22.184H247.212L248.184 26H252.036L245.52 0.799984ZM241.596 18.656L241.2 18.26L243.684 7.78398L246.204 18.26L245.808 18.656H241.596Z" fill="black"/>
<path d="M261.305 26.252C265.697 26.252 269.297 22.904 269.297 18.584C269.297 9.18798 258.065 12.536 258.065 7.06398C258.065 5.29998 259.433 4.11198 261.305 4.11198C262.385 4.11198 263.429 4.68799 264.041 5.65999L267.209 3.64398C265.949 1.62798 263.717 0.583984 261.305 0.583984C257.453 0.583984 254.321 3.57198 254.321 7.06398C254.321 15.812 265.553 12.464 265.553 18.584C265.553 20.96 263.753 22.724 261.305 22.724C258.857 22.724 257.057 20.96 257.057 18.584H253.277C253.277 22.796 256.877 26.252 261.305 26.252Z" fill="black"/>
<path d="M276.964 22.472V13.508L277.468 13.004H284.992V9.47598H277.468L276.964 9.00798V4.32798H284.128V0.799984H273.184V26H285.388V22.472H276.964Z" fill="black"/>
</svg>
