<svg width="302" height="18" viewBox="0 0 302 18" fill="none" xmlns="http://www.w3.org/2000/svg">
<path d="M6.29853 17.168C9.22653 17.168 11.6265 14.936 11.6265 12.056C11.6265 5.792 4.13853 8.024 4.13853 4.376C4.13853 3.2 5.05053 2.408 6.29853 2.408C7.01853 2.408 7.71453 2.792 8.12253 3.44L10.2345 2.096C9.39453 0.751999 7.90653 0.0559998 6.29853 0.0559998C3.73053 0.0559998 1.64253 2.048 1.64253 4.376C1.64253 10.208 9.13053 7.976 9.13053 12.056C9.13053 13.64 7.93053 14.816 6.29853 14.816C4.66653 14.816 3.46653 13.64 3.46653 12.056H0.946533C0.946533 14.864 3.34653 17.168 6.29853 17.168Z" fill="black"/>
<path d="M19.0956 0.199999H16.6956L12.3516 17H14.8716L15.5196 14.456H20.2236L20.8716 17H23.4396L19.0956 0.199999ZM16.4796 12.104L16.2156 11.84L17.8716 4.856L19.5516 11.84L19.2876 12.104H16.4796Z" fill="black"/>
<path d="M30.3323 0.199999L28.3883 4.016H27.8603L25.8923 0.199999H23.1563L26.8523 7.4V17H29.3723V7.4L33.0683 0.199999H30.3323Z" fill="black"/>
<path d="M48.9124 0.199999V5.984H44.1364V0.199999H41.6164V17H44.1364V8.672L44.4484 8.336H48.5764L48.9124 8.672V17H51.4324V0.199999H48.9124Z" fill="black"/>
<path d="M59.0702 2.552V0.199999H54.7982V2.552H55.6622V14.312L55.3262 14.648H54.7982V17H59.0702V14.648H58.5182L58.1822 14.312V2.552H59.0702Z" fill="black"/>
<path d="M67.0078 0.199999V2.552H69.6478L69.9838 2.888V17H72.4798V2.888L72.8158 2.552H75.4318V0.199999H67.0078Z" fill="black"/>
<path d="M84.399 0.0559998C79.503 0.0559998 75.903 3.68 75.903 8.6C75.903 13.544 79.503 17.168 84.399 17.168C89.319 17.168 92.919 13.544 92.919 8.6C92.919 3.68 89.319 0.0559998 84.399 0.0559998ZM84.399 14.816C80.943 14.816 78.399 12.176 78.399 8.6C78.399 5.024 80.943 2.408 84.399 2.408C87.879 2.408 90.423 5.024 90.423 8.6C90.423 12.176 87.879 14.816 84.399 14.816Z" fill="black"/>
<path d="M100.359 0.199999V2.552H102.999L103.335 2.888V17H105.831V2.888L106.167 2.552H108.783V0.199999H100.359Z" fill="black"/>
<path d="M118.147 0.199999V5.984H113.371V0.199999H110.851V17H113.371V8.672L113.683 8.336H117.811L118.147 8.672V17H120.667V0.199999H118.147Z" fill="black"/>
<path d="M127.129 14.648V8.672L127.465 8.336H132.481V5.984H127.465L127.129 5.672V2.552H131.905V0.199999H124.609V17H132.745V14.648H127.129Z" fill="black"/>
<path d="M151.098 0.199999L148.002 4.616H147.546L144.402 0.199999H141.882V17H144.402V4.64H144.642L146.946 7.904H148.578L150.882 4.568H151.098V17H153.618V0.199999H151.098Z" fill="black"/>
<path d="M164.954 0.0559998C160.058 0.0559998 156.458 3.68 156.458 8.6C156.458 13.544 160.058 17.168 164.954 17.168C169.874 17.168 173.474 13.544 173.474 8.6C173.474 3.68 169.874 0.0559998 164.954 0.0559998ZM164.954 14.816C161.498 14.816 158.954 12.176 158.954 8.6C158.954 5.024 161.498 2.408 164.954 2.408C168.434 2.408 170.978 5.024 170.978 8.6C170.978 12.176 168.434 14.816 164.954 14.816Z" fill="black"/>
<path d="M183.704 0.0559998C178.808 0.0559998 175.208 3.68 175.208 8.6C175.208 13.544 178.808 17.168 183.704 17.168C188.624 17.168 192.224 13.544 192.224 8.6C192.224 3.68 188.624 0.0559998 183.704 0.0559998ZM183.704 14.816C180.248 14.816 177.704 12.176 177.704 8.6C177.704 5.024 180.248 2.408 183.704 2.408C187.184 2.408 189.728 5.024 189.728 8.6C189.728 12.176 187.184 14.816 183.704 14.816Z" fill="black"/>
<path d="M202.142 0.199999V4.976H201.83L197.582 0.199999H195.062V17H197.582V4.208H197.87L202.142 8.984V17H204.662V0.199999H202.142Z" fill="black"/>
<path d="M213.211 0.199999V2.552H215.851L216.187 2.888V17H218.683V2.888L219.019 2.552H221.635V0.199999H213.211Z" fill="black"/>
<path d="M230.602 0.0559998C225.706 0.0559998 222.106 3.68 222.106 8.6C222.106 13.544 225.706 17.168 230.602 17.168C235.522 17.168 239.122 13.544 239.122 8.6C239.122 3.68 235.522 0.0559998 230.602 0.0559998ZM230.602 14.816C227.146 14.816 224.602 12.176 224.602 8.6C224.602 5.024 227.146 2.408 230.602 2.408C234.082 2.408 236.626 5.024 236.626 8.6C236.626 12.176 234.082 14.816 230.602 14.816Z" fill="black"/>
<path d="M249.04 0.199999V4.976H248.728L244.48 0.199999H241.96V17H244.48V4.208H244.768L249.04 8.984V17H251.56V0.199999H249.04Z" fill="black"/>
<path d="M259.203 2.552V0.199999H254.931V2.552H255.795V14.312L255.459 14.648H254.931V17H259.203V14.648H258.651L258.315 14.312V2.552H259.203Z" fill="black"/>
<path d="M278.45 7.424H273.674V9.8H275.522L275.762 10.016C275.21 12.848 272.906 14.816 269.954 14.816C266.498 14.816 263.954 12.176 263.954 8.6C263.954 5.024 266.498 2.384 269.954 2.384C272.258 2.384 274.082 3.512 275.21 5.624L277.346 4.4C275.762 1.568 273.194 0.0559998 269.954 0.0559998C265.034 0.0559998 261.434 3.68 261.434 8.6C261.434 13.544 265.034 17.168 269.954 17.168C274.85 17.168 278.45 13.544 278.45 8.6V7.424Z" fill="black"/>
<path d="M288.42 0.199999V5.984H283.644V0.199999H281.124V17H283.644V8.672L283.956 8.336H288.084L288.42 8.672V17H290.94V0.199999H288.42Z" fill="black"/>
<path d="M293.016 0.199999V2.552H295.656L295.992 2.888V17H298.488V2.888L298.824 2.552H301.44V0.199999H293.016Z" fill="black"/>
</svg>
