<svg width="428" height="428" viewBox="0 0 428 428" fill="none" xmlns="http://www.w3.org/2000/svg">
<rect width="428" height="428" rx="20" fill="black"/>
<path d="M137.718 255.812L136.61 254.704V243.621H153.49V235.267H127.659V294.942H136.61V265.36L137.718 264.167H155.45V255.812H137.718Z" fill="white"/>
<path d="M197.86 235.267V278.83C197.86 283.518 194.45 286.673 189.421 286.673C184.391 286.673 180.981 283.604 180.981 279.085V235.267H172.03V279.597C172.03 288.804 179.02 294.942 189.421 294.942C192.149 294.942 195.559 294.089 197.775 292.811L198.883 294.942H206.726V235.267H197.86Z" fill="white"/>
<path d="M238.565 286.587L237.372 285.394V235.267H228.42V294.942H257.832V286.587H238.565Z" fill="white"/>
<path d="M282.536 286.587L281.342 285.394V235.267H272.391V294.942H301.802V286.587H282.536Z" fill="white"/>
<path d="M148.464 318.8L140.581 330.043H139.42L131.416 318.8H125L125 361.572H131.416L131.416 330.104H132.027L137.893 338.414H142.048L147.914 329.921H148.464L148.464 361.572H154.88L154.88 318.8H148.464Z" fill="white"/>
<path d="M189.545 318.433C177.08 318.433 167.914 327.66 167.914 340.186C167.914 352.773 177.08 362 189.545 362C202.071 362 211.237 352.773 211.237 340.186C211.237 327.66 202.071 318.433 189.545 318.433ZM189.545 356.012C180.746 356.012 174.269 349.29 174.269 340.186C174.269 331.081 180.746 324.421 189.545 324.421C198.405 324.421 204.882 331.081 204.882 340.186C204.882 349.29 198.405 356.012 189.545 356.012Z" fill="white"/>
<path d="M243.087 318.433C230.622 318.433 221.456 327.66 221.456 340.186C221.456 352.773 230.622 362 243.087 362C255.613 362 264.779 352.773 264.779 340.186C264.779 327.66 255.613 318.433 243.087 318.433ZM243.087 356.012C234.288 356.012 227.811 349.29 227.811 340.186C227.811 331.081 234.288 324.421 243.087 324.421C251.947 324.421 258.424 331.081 258.424 340.186C258.424 349.29 251.947 356.012 243.087 356.012Z" fill="white"/>
<path d="M295.835 318.8V330.959H295.04L284.225 318.8H277.809V361.572H284.225V329.004H284.958L295.835 341.164V361.572H302.251V318.8H295.835Z" fill="white"/>
<circle cx="214.625" cy="136.5" r="70.5" fill="white"/>
</svg>
