<svg width="504" height="383" viewBox="0 0 504 383" fill="none" xmlns="http://www.w3.org/2000/svg">
<rect width="504" height="383" rx="20" fill="black"/>
<circle cx="252.073" cy="188.073" r="79.5728" fill="black" stroke="white" stroke-width="5"/>
<path d="M174.266 66.0474L170.15 71.944L169.542 71.9452L165.338 66.0659L161.978 66.0729L162.024 88.4729L165.384 88.4659L165.35 71.9859L165.67 71.9853L168.751 76.3309L170.927 76.3264L173.99 71.872L174.278 71.8714L174.312 88.4474L177.672 88.4404L177.626 66.0404L174.266 66.0474ZM192.739 65.8171C186.211 65.8306 181.421 70.6726 181.435 77.2326C181.449 83.8245 186.259 88.6466 192.787 88.633C199.347 88.6194 204.137 83.7774 204.123 77.1855C204.109 70.6255 199.299 65.8035 192.739 65.8171ZM192.78 85.497C188.172 85.5066 184.773 81.9936 184.763 77.2256C184.753 72.4577 188.138 68.9626 192.746 68.9531C197.386 68.9434 200.785 72.4244 200.795 77.1924C200.805 81.9604 197.42 85.4874 192.78 85.497ZM217.739 65.7652C211.211 65.7787 206.421 70.6207 206.435 77.1807C206.449 83.7726 211.259 88.5947 217.787 88.5811C224.347 88.5675 229.137 83.7256 229.123 77.1336C229.109 70.5736 224.299 65.7516 217.739 65.7652ZM217.78 85.4451C213.172 85.4547 209.773 81.9417 209.763 77.1738C209.753 72.4058 213.138 68.9107 217.746 68.9012C222.386 68.8915 225.785 72.3725 225.795 77.1405C225.805 81.9085 222.42 85.4355 217.78 85.4451ZM242.324 65.9061L242.337 72.2741L241.921 72.275L236.244 65.9188L232.884 65.9257L232.93 88.3257L236.29 88.3187L236.255 71.2628L236.639 71.262L242.348 77.6181L242.37 88.3061L245.73 88.2991L245.684 65.8992L242.324 65.9061ZM282.7 65.8223L279.5 65.829L273.754 88.2409L277.114 88.234L277.971 84.8402L284.243 84.8272L285.114 88.2174L288.538 88.2103L282.7 65.8223ZM279.245 81.7015L278.892 81.3503L281.08 72.0337L283.34 81.341L282.989 81.6938L279.245 81.7015ZM295.419 85.06L294.97 84.6129L294.931 65.7969L291.571 65.8039L291.618 88.2039L302.658 88.181L302.651 85.045L295.419 85.06ZM308.596 85.0326L308.579 77.0646L309.027 76.6157L315.715 76.6018L315.708 73.4658L309.02 73.4797L308.571 73.0646L308.563 68.9047L314.931 68.8914L314.924 65.7554L305.196 65.7756L305.243 88.1756L316.091 88.1531L316.084 85.0171L308.596 85.0326ZM331.961 88.1201L327.489 76.2574C329.503 75.4532 330.939 73.4662 330.934 71.1622C330.928 68.1542 328.523 65.7272 325.579 65.7333L319.915 65.7451L319.961 88.145L323.321 88.1381L323.298 77.0661L323.745 76.6172L324.161 76.6163L328.505 88.1273L331.961 88.1201ZM323.29 73.0341L323.281 68.8741L325.585 68.8693C326.801 68.8668 327.795 69.8887 327.798 71.1687C327.801 72.4487 326.811 73.4748 325.595 73.4773L323.707 73.4812L323.29 73.0341ZM332.801 65.7183L332.808 68.8543L336.328 68.847L336.777 69.2941L336.816 88.11L340.144 88.1031L340.105 69.2872L340.552 68.8382L344.04 68.831L344.033 65.695L332.801 65.7183Z" fill="white"/>
<path d="M194.465 294.005L191.265 294.012L185.52 316.424L188.88 316.417L189.737 313.023L196.009 313.01L196.88 316.401L200.304 316.393L194.465 294.005ZM191.01 309.885L190.658 309.533L192.846 300.217L195.106 309.524L194.754 309.877L191.01 309.885ZM219.607 309.185C218.077 311.941 215.616 313.45 212.608 313.456C208 313.465 204.601 309.952 204.591 305.184C204.581 300.417 207.966 296.889 212.574 296.88C215.646 296.874 218.113 298.372 219.591 301.153L222.467 299.515C220.348 295.776 216.887 293.767 212.567 293.776C206.039 293.789 201.25 298.631 201.263 305.191C201.277 311.783 206.087 316.605 212.615 316.592C216.871 316.583 220.291 314.592 222.459 310.843L219.607 309.185ZM223.192 293.946L223.199 297.082L226.719 297.075L227.168 297.522L227.207 316.338L230.535 316.331L230.496 297.515L230.943 297.066L234.431 297.059L234.424 293.923L223.192 293.946ZM242.428 297.042L242.421 293.906L236.725 293.918L236.732 297.054L237.884 297.051L237.916 312.731L237.469 313.18L236.765 313.182L236.772 316.318L242.468 316.306L242.461 313.17L241.725 313.171L241.276 312.724L241.244 297.044L242.428 297.042ZM256.276 293.877L252.531 308.573L252.083 308.574L248.276 293.894L244.884 293.901L250.723 316.289L253.891 316.282L259.636 293.87L256.276 293.877ZM268.746 293.851L265.546 293.858L259.801 316.27L263.161 316.263L264.018 312.869L270.29 312.856L271.161 316.246L274.585 316.239L268.746 293.851ZM265.291 309.731L264.939 309.379L267.127 300.063L269.387 309.37L269.035 309.723L265.291 309.731ZM274.473 293.839L274.48 296.975L278 296.968L278.449 297.415L278.488 316.231L281.816 316.224L281.777 297.408L282.224 296.959L285.712 296.952L285.705 293.816L274.473 293.839ZM291.862 313.067L291.845 305.099L292.292 304.65L298.98 304.637L298.974 301.501L292.286 301.514L291.837 301.099L291.828 296.939L298.196 296.926L298.19 293.79L288.462 293.81L288.508 316.21L299.356 316.188L299.35 313.052L291.862 313.067ZM306.54 293.773L303.18 293.78L303.227 316.18L306.427 316.173C312.955 316.16 317.713 311.414 317.7 304.95C317.686 298.486 312.972 293.759 306.54 293.773ZM306.997 313.1L306.58 312.653L306.548 297.293L306.963 296.844C311.251 296.835 314.394 300.253 314.404 304.957C314.413 309.661 311.285 313.091 306.997 313.1Z" fill="white"/>
</svg>
