<svg width="504" height="316" viewBox="0 0 504 316" fill="none" xmlns="http://www.w3.org/2000/svg">
<g clip-path="url(#clip0_505_1474)">
<rect width="504" height="316" rx="20" fill="black"/>
<circle cx="259" cy="152" r="80" fill="white" fill-opacity="0.43"/>
<path d="M307.61 131.93L297.963 145.75L296.538 145.753L286.685 131.974L278.81 131.99L278.919 184.49L286.794 184.473L286.714 145.849L287.464 145.847L294.685 156.032L299.785 156.021L306.963 145.582L307.638 145.58L307.719 184.43L315.594 184.414L315.485 131.914L307.61 131.93ZM350.908 131.39C335.608 131.422 324.381 142.77 324.413 158.145C324.445 173.595 335.719 184.897 351.019 184.865C366.394 184.833 377.62 173.485 377.588 158.035C377.556 142.66 366.283 131.358 350.908 131.39ZM351.003 177.515C340.204 177.538 332.236 169.304 332.213 158.129C332.19 146.954 340.123 138.763 350.923 138.74C361.798 138.718 369.765 146.876 369.788 158.051C369.811 169.226 361.878 177.493 351.003 177.515ZM409.501 131.269C394.201 131.3 382.975 142.649 383.007 158.024C383.039 173.474 394.312 184.775 409.612 184.744C424.987 184.712 436.214 173.363 436.182 157.913C436.15 142.538 424.876 131.237 409.501 131.269ZM409.597 177.394C398.797 177.416 390.83 169.182 390.807 158.008C390.784 146.833 398.717 138.641 409.517 138.619C420.392 138.596 428.359 146.755 428.382 157.93C428.405 169.104 420.472 177.371 409.597 177.394ZM467.121 131.599L467.152 146.524L466.177 146.526L452.871 131.629L444.996 131.645L445.105 184.145L452.98 184.129L452.897 144.154L453.797 144.152L467.178 159.049L467.23 184.099L475.105 184.083L474.996 131.583L467.121 131.599Z" fill="white"/>
<circle cx="213" cy="163" r="47.5" fill="black" stroke="white" stroke-width="5"/>
<path d="M58.1842 132.854L58.2152 147.779L57.2402 147.781L43.9342 132.884L36.0592 132.9L36.1682 185.4L44.0432 185.384L43.9602 145.409L44.8602 145.407L58.2411 160.304L58.2931 185.354L66.1681 185.338L66.0592 132.838L58.1842 132.854ZM86.3618 177.946L86.323 159.271L87.3709 158.219L103.046 158.186L103.031 150.836L87.3556 150.869L86.3036 149.896L86.2834 140.146L101.208 140.115L101.193 132.765L78.3931 132.812L78.5021 185.312L103.927 185.259L103.912 177.909L86.3618 177.946ZM140.865 132.683L137.34 168.615L136.44 168.617L133.04 156.624L125.915 156.639L122.565 168.646L121.665 168.648L117.915 132.73L110.19 132.746L115.699 185.235L123.424 185.219L128.792 169.983L130.217 169.98L135.724 185.193L143.299 185.178L148.515 132.667L140.865 132.683Z" fill="white"/>
</g>
<defs>
<clipPath id="clip0_505_1474">
<rect width="504" height="316" rx="20" fill="white"/>
</clipPath>
</defs>
</svg>
